<?xml version="1.0" encoding="UTF-8" standalone="no"?>
<!DOCTYPE svg PUBLIC "-//W3C//DTD SVG 1.1//EN"
 "http://www.w3.org/Graphics/SVG/1.1/DTD/svg11.dtd">
<!-- Generated by graphviz version 14.0.1 (0)
 -->
<!-- Title: Simulation::SimulationUnit::operator= Pages: 1 -->
<svg width="997pt" height="560pt"
 viewBox="0.00 0.00 997.00 560.00" xmlns="http://www.w3.org/2000/svg" xmlns:xlink="http://www.w3.org/1999/xlink">
<g id="graph0" class="graph" transform="scale(1 1) rotate(0) translate(4 556)">
<title>Simulation::SimulationUnit::operator=</title>
<!-- Node1 -->
<g id="Node000001" class="node">
<title>Node1</title>
<g id="a_Node000001"><a xlink:title=" ">
<polygon fill="#999999" stroke="#666666" points="131.5,-260 0,-260 0,-231 131.5,-231 131.5,-260"/>
<text xml:space="preserve" text-anchor="start" x="8" y="-246.5" font-family="Helvetica,sans-Serif" font-size="10.00">Simulation::SimulationUnit</text>
<text xml:space="preserve" text-anchor="middle" x="65.75" y="-236" font-family="Helvetica,sans-Serif" font-size="10.00">::operator=</text>
</a>
</g>
</g>
<!-- Node2 -->
<g id="Node000002" class="node">
<title>Node2</title>
<g id="a_Node000002"><a xlink:href="classSimulation_1_1SimulationUnit.html#ad964b9f706ae4cac2e0d5d852131a7d2" target="_top" xlink:title=" ">
<polygon fill="white" stroke="#666666" points="299,-505 167.5,-505 167.5,-476 299,-476 299,-505"/>
<text xml:space="preserve" text-anchor="start" x="175.5" y="-491.5" font-family="Helvetica,sans-Serif" font-size="10.00">Simulation::SimulationUnit</text>
<text xml:space="preserve" text-anchor="middle" x="233.25" y="-481" font-family="Helvetica,sans-Serif" font-size="10.00">::checkScalar</text>
</a>
</g>
</g>
<!-- Node1&#45;&gt;Node2 -->
<g id="edge1_Node000001_Node000002" class="edge">
<title>Node1&#45;&gt;Node2</title>
<g id="a_edge1_Node000001_Node000002"><a xlink:title=" ">
<path fill="none" stroke="#63b8ff" d="M69.32,-260.27C76.93,-299.66 102.98,-408.23 167.5,-467.5 168.13,-468.08 168.77,-468.64 169.42,-469.18"/>
<polygon fill="#63b8ff" stroke="#63b8ff" points="167.16,-471.87 177.37,-474.68 171.14,-466.11 167.16,-471.87"/>
</a>
</g>
</g>
<!-- Node3 -->
<g id="Node000003" class="node">
<title>Node3</title>
<g id="a_Node000003"><a xlink:href="classSimulation_1_1SimulationUnit.html#aeb968caf58812bcab01534e72a63d552" target="_top" xlink:title=" ">
<polygon fill="white" stroke="#666666" points="299,-458 167.5,-458 167.5,-429 299,-429 299,-458"/>
<text xml:space="preserve" text-anchor="start" x="175.5" y="-444.5" font-family="Helvetica,sans-Serif" font-size="10.00">Simulation::SimulationUnit</text>
<text xml:space="preserve" text-anchor="middle" x="233.25" y="-434" font-family="Helvetica,sans-Serif" font-size="10.00">::clearContribution</text>
</a>
</g>
</g>
<!-- Node1&#45;&gt;Node3 -->
<g id="edge2_Node000001_Node000003" class="edge">
<title>Node1&#45;&gt;Node3</title>
<g id="a_edge2_Node000001_Node000003"><a xlink:title=" ">
<path fill="none" stroke="#63b8ff" d="M71.21,-260.01C82.13,-293.23 113.37,-375.38 167.5,-420.5 168.3,-421.17 169.12,-421.82 169.97,-422.45"/>
<polygon fill="#63b8ff" stroke="#63b8ff" points="167.98,-425.33 178.3,-427.72 171.72,-419.42 167.98,-425.33"/>
</a>
</g>
</g>
<!-- Node4 -->
<g id="Node000004" class="node">
<title>Node4</title>
<g id="a_Node000004"><a xlink:href="classSimulation_1_1SimulationUnit.html#a5512cea54affc3eb0c16380d973348e5" target="_top" xlink:title=" ">
<polygon fill="white" stroke="#666666" points="299,-411 167.5,-411 167.5,-382 299,-382 299,-411"/>
<text xml:space="preserve" text-anchor="start" x="175.5" y="-397.5" font-family="Helvetica,sans-Serif" font-size="10.00">Simulation::SimulationUnit</text>
<text xml:space="preserve" text-anchor="middle" x="233.25" y="-387" font-family="Helvetica,sans-Serif" font-size="10.00">::cycleProcess</text>
</a>
</g>
</g>
<!-- Node1&#45;&gt;Node4 -->
<g id="edge3_Node000001_Node000004" class="edge">
<title>Node1&#45;&gt;Node4</title>
<g id="a_edge3_Node000001_Node000004"><a xlink:title=" ">
<path fill="none" stroke="#63b8ff" d="M75.6,-260.13C91.34,-285.08 126.41,-336.21 167.5,-367.5 171.75,-370.73 176.41,-373.7 181.23,-376.41"/>
<polygon fill="#63b8ff" stroke="#63b8ff" points="179.42,-379.41 189.91,-380.89 182.63,-373.19 179.42,-379.41"/>
</a>
</g>
</g>
<!-- Node14 -->
<g id="Node000014" class="node">
<title>Node14</title>
<g id="a_Node000014"><a xlink:href="classSimulation_1_1SimulationUnit.html#a1278ad223b0cc8509f68a9f7d995bfd2" target="_top" xlink:title=" ">
<polygon fill="white" stroke="#666666" points="641.88,-372 510.38,-372 510.38,-343 641.88,-343 641.88,-372"/>
<text xml:space="preserve" text-anchor="start" x="518.38" y="-358.5" font-family="Helvetica,sans-Serif" font-size="10.00">Simulation::SimulationUnit</text>
<text xml:space="preserve" text-anchor="middle" x="576.12" y="-348" font-family="Helvetica,sans-Serif" font-size="10.00">::SimulationUnit</text>
</a>
</g>
</g>
<!-- Node1&#45;&gt;Node14 -->
<g id="edge25_Node000001_Node000014" class="edge">
<title>Node1&#45;&gt;Node14</title>
<g id="a_edge25_Node000001_Node000014"><a xlink:title=" ">
<path fill="none" stroke="#63b8ff" d="M77.84,-260.15C94.62,-281.02 128.64,-318.53 167.5,-334.5 275.93,-379.07 414.41,-375.65 498.84,-367.64"/>
<polygon fill="#63b8ff" stroke="#63b8ff" points="499.02,-371.14 508.62,-366.67 498.33,-364.18 499.02,-371.14"/>
</a>
</g>
</g>
<!-- Node18 -->
<g id="Node000018" class="node">
<title>Node18</title>
<g id="a_Node000018"><a xlink:href="classSimulation_1_1SimulationUnit.html#aceb670b889811566ad3c159b8ecb5a9f" target="_top" xlink:title=" ">
<polygon fill="white" stroke="#666666" points="299,-307 167.5,-307 167.5,-278 299,-278 299,-307"/>
<text xml:space="preserve" text-anchor="start" x="175.5" y="-293.5" font-family="Helvetica,sans-Serif" font-size="10.00">Simulation::SimulationUnit</text>
<text xml:space="preserve" text-anchor="middle" x="233.25" y="-283" font-family="Helvetica,sans-Serif" font-size="10.00">::Getter</text>
</a>
</g>
</g>
<!-- Node1&#45;&gt;Node18 -->
<g id="edge20_Node000001_Node000018" class="edge">
<title>Node1&#45;&gt;Node18</title>
<g id="a_edge20_Node000001_Node000018"><a xlink:title=" ">
<path fill="none" stroke="#63b8ff" d="M119.12,-260.37C134.96,-264.87 152.54,-269.86 169.02,-274.54"/>
<polygon fill="#63b8ff" stroke="#63b8ff" points="167.63,-277.79 178.2,-277.15 169.54,-271.05 167.63,-277.79"/>
</a>
</g>
</g>
<!-- Node19 -->
<g id="Node000019" class="node">
<title>Node19</title>
<g id="a_Node000019"><a xlink:href="classSimulation_1_1SimulationUnit.html#a7dba9aca522fbd2462d0d0fd3909d244" target="_top" xlink:title=" ">
<polygon fill="white" stroke="#666666" points="299,-260 167.5,-260 167.5,-231 299,-231 299,-260"/>
<text xml:space="preserve" text-anchor="start" x="175.5" y="-246.5" font-family="Helvetica,sans-Serif" font-size="10.00">Simulation::SimulationUnit</text>
<text xml:space="preserve" text-anchor="middle" x="233.25" y="-236" font-family="Helvetica,sans-Serif" font-size="10.00">::init_functors</text>
</a>
</g>
</g>
<!-- Node1&#45;&gt;Node19 -->
<g id="edge22_Node000001_Node000019" class="edge">
<title>Node1&#45;&gt;Node19</title>
<g id="a_edge22_Node000001_Node000019"><a xlink:title=" ">
<path fill="none" stroke="#63b8ff" d="M131.68,-245.5C139.63,-245.5 147.79,-245.5 155.88,-245.5"/>
<polygon fill="#63b8ff" stroke="#63b8ff" points="155.72,-249 165.72,-245.5 155.72,-242 155.72,-249"/>
</a>
</g>
</g>
<!-- Node21 -->
<g id="Node000021" class="node">
<title>Node21</title>
<g id="a_Node000021"><a xlink:href="classSimulation_1_1SimulationUnit.html#aa12b65d19fa7e3eb74152b0252591a4d" target="_top" xlink:title=" ">
<polygon fill="white" stroke="#666666" points="299,-213 167.5,-213 167.5,-184 299,-184 299,-213"/>
<text xml:space="preserve" text-anchor="start" x="175.5" y="-199.5" font-family="Helvetica,sans-Serif" font-size="10.00">Simulation::SimulationUnit</text>
<text xml:space="preserve" text-anchor="middle" x="233.25" y="-189" font-family="Helvetica,sans-Serif" font-size="10.00">::reset</text>
</a>
</g>
</g>
<!-- Node1&#45;&gt;Node21 -->
<g id="edge24_Node000001_Node000021" class="edge">
<title>Node1&#45;&gt;Node21</title>
<g id="a_edge24_Node000001_Node000021"><a xlink:title=" ">
<path fill="none" stroke="#63b8ff" d="M119.12,-230.63C134.96,-226.13 152.54,-221.14 169.02,-216.46"/>
<polygon fill="#63b8ff" stroke="#63b8ff" points="169.54,-219.95 178.2,-213.85 167.63,-213.21 169.54,-219.95"/>
</a>
</g>
</g>
<!-- Node22 -->
<g id="Node000022" class="node">
<title>Node22</title>
<g id="a_Node000022"><a xlink:href="classSimulation_1_1SimulationUnit.html#af4d179bd1bf0d8da69d83f63fdd72412" target="_top" xlink:title=" ">
<polygon fill="white" stroke="#666666" points="299,-166 167.5,-166 167.5,-137 299,-137 299,-166"/>
<text xml:space="preserve" text-anchor="start" x="175.5" y="-152.5" font-family="Helvetica,sans-Serif" font-size="10.00">Simulation::SimulationUnit</text>
<text xml:space="preserve" text-anchor="middle" x="233.25" y="-142" font-family="Helvetica,sans-Serif" font-size="10.00">::step</text>
</a>
</g>
</g>
<!-- Node1&#45;&gt;Node22 -->
<g id="edge26_Node000001_Node000022" class="edge">
<title>Node1&#45;&gt;Node22</title>
<g id="a_edge26_Node000001_Node000022"><a xlink:title=" ">
<path fill="none" stroke="#63b8ff" d="M85.15,-230.58C104.69,-215.26 136.91,-191.47 167.5,-175.5 170.54,-173.91 173.7,-172.38 176.93,-170.92"/>
<polygon fill="#63b8ff" stroke="#63b8ff" points="178.16,-174.2 185.98,-167.04 175.41,-167.76 178.16,-174.2"/>
</a>
</g>
</g>
<!-- Node23 -->
<g id="Node000023" class="node">
<title>Node23</title>
<g id="a_Node000023"><a xlink:href="classSimulation_1_1SimulationUnit.html#a6fecb0563822fae0ef26d9f6209d0779" target="_top" xlink:title=" ">
<polygon fill="white" stroke="#666666" points="299,-119 167.5,-119 167.5,-90 299,-90 299,-119"/>
<text xml:space="preserve" text-anchor="start" x="175.5" y="-105.5" font-family="Helvetica,sans-Serif" font-size="10.00">Simulation::SimulationUnit</text>
<text xml:space="preserve" text-anchor="middle" x="233.25" y="-95" font-family="Helvetica,sans-Serif" font-size="10.00">::update_feed</text>
</a>
</g>
</g>
<!-- Node1&#45;&gt;Node23 -->
<g id="edge27_Node000001_Node000023" class="edge">
<title>Node1&#45;&gt;Node23</title>
<g id="a_edge27_Node000001_Node000023"><a xlink:title=" ">
<path fill="none" stroke="#63b8ff" d="M75.79,-230.82C91.55,-206.35 126.34,-157.11 167.5,-128.5 169.5,-127.11 171.59,-125.79 173.74,-124.54"/>
<polygon fill="#63b8ff" stroke="#63b8ff" points="174.9,-127.88 182.16,-120.16 171.68,-121.67 174.9,-127.88"/>
</a>
</g>
</g>
<!-- Node24 -->
<g id="Node000024" class="node">
<title>Node24</title>
<g id="a_Node000024"><a xlink:href="classSimulation_1_1SimulationUnit.html#a57624461bad4807d5cacbd7d17e49b14" target="_top" xlink:title=" ">
<polygon fill="white" stroke="#666666" points="299,-33 167.5,-33 167.5,-4 299,-4 299,-33"/>
<text xml:space="preserve" text-anchor="start" x="175.5" y="-19.5" font-family="Helvetica,sans-Serif" font-size="10.00">Simulation::SimulationUnit</text>
<text xml:space="preserve" text-anchor="middle" x="233.25" y="-9" font-family="Helvetica,sans-Serif" font-size="10.00">::updateHydro</text>
</a>
</g>
</g>
<!-- Node1&#45;&gt;Node24 -->
<g id="edge28_Node000001_Node000024" class="edge">
<title>Node1&#45;&gt;Node24</title>
<g id="a_edge28_Node000001_Node000024"><a xlink:title=" ">
<path fill="none" stroke="#63b8ff" d="M70.55,-230.76C80.51,-194.81 110.64,-101.61 167.5,-47.5 170.72,-44.44 174.32,-41.66 178.13,-39.15"/>
<polygon fill="#63b8ff" stroke="#63b8ff" points="179.73,-42.27 186.62,-34.21 176.21,-36.21 179.73,-42.27"/>
</a>
</g>
</g>
<!-- Node25 -->
<g id="Node000025" class="node">
<title>Node25</title>
<g id="a_Node000025"><a xlink:href="classSimulation_1_1SimulationUnit.html#a30514b0d71df785a793a60b5ea2f1b17" target="_top" xlink:title=" ">
<polygon fill="white" stroke="#666666" points="466.5,-76 335,-76 335,-47 466.5,-47 466.5,-76"/>
<text xml:space="preserve" text-anchor="start" x="343" y="-62.5" font-family="Helvetica,sans-Serif" font-size="10.00">Simulation::SimulationUnit</text>
<text xml:space="preserve" text-anchor="middle" x="400.75" y="-52" font-family="Helvetica,sans-Serif" font-size="10.00">::updateMCHydro</text>
</a>
</g>
</g>
<!-- Node1&#45;&gt;Node25 -->
<g id="edge31_Node000001_Node000025" class="edge">
<title>Node1&#45;&gt;Node25</title>
<g id="a_edge31_Node000001_Node000025"><a xlink:title=" ">
<path fill="none" stroke="#63b8ff" d="M70.79,-230.93C80.83,-197.76 110.34,-116.77 167.5,-81.5 213.65,-53.02 275.13,-48.88 323.24,-51.39"/>
<polygon fill="#63b8ff" stroke="#63b8ff" points="322.82,-54.87 333.02,-52.02 323.27,-47.89 322.82,-54.87"/>
</a>
</g>
</g>
<!-- Node5 -->
<g id="Node000005" class="node">
<title>Node5</title>
<g id="a_Node000005"><a xlink:href="classSimulation_1_1SimulationUnit.html#a96e8f3fbde370c918a3710b0b910cd42" target="_top" xlink:title=" ">
<polygon fill="white" stroke="#666666" points="466.5,-476 335,-476 335,-447 466.5,-447 466.5,-476"/>
<text xml:space="preserve" text-anchor="start" x="343" y="-462.5" font-family="Helvetica,sans-Serif" font-size="10.00">Simulation::SimulationUnit</text>
<text xml:space="preserve" text-anchor="middle" x="400.75" y="-452" font-family="Helvetica,sans-Serif" font-size="10.00">::post_cycle</text>
</a>
</g>
</g>
<!-- Node4&#45;&gt;Node5 -->
<g id="edge4_Node000004_Node000005" class="edge">
<title>Node4&#45;&gt;Node5</title>
<g id="a_edge4_Node000004_Node000005"><a xlink:title=" ">
<path fill="none" stroke="#63b8ff" d="M276.66,-411.47C284.16,-414.33 291.85,-417.4 299,-420.5 315.41,-427.62 318.54,-431.49 335,-438.5 338.19,-439.86 341.49,-441.2 344.83,-442.52"/>
<polygon fill="#63b8ff" stroke="#63b8ff" points="343.58,-445.79 354.17,-446.09 346.08,-439.25 343.58,-445.79"/>
</a>
</g>
</g>
<!-- Node13 -->
<g id="Node000013" class="node">
<title>Node13</title>
<g id="a_Node000013"><a xlink:href="classSimulation_1_1SimulationUnit.html#ad984b5d95455d6db475d8b6e20077a0c" target="_top" xlink:title=" ">
<polygon fill="white" stroke="#666666" points="466.5,-411 335,-411 335,-382 466.5,-382 466.5,-411"/>
<text xml:space="preserve" text-anchor="start" x="343" y="-397.5" font-family="Helvetica,sans-Serif" font-size="10.00">Simulation::SimulationUnit</text>
<text xml:space="preserve" text-anchor="middle" x="400.75" y="-387" font-family="Helvetica,sans-Serif" font-size="10.00">::pre_cycle</text>
</a>
</g>
</g>
<!-- Node4&#45;&gt;Node13 -->
<g id="edge13_Node000004_Node000013" class="edge">
<title>Node4&#45;&gt;Node13</title>
<g id="a_edge13_Node000004_Node000013"><a xlink:title=" ">
<path fill="none" stroke="#63b8ff" d="M299.18,-396.5C307.13,-396.5 315.29,-396.5 323.38,-396.5"/>
<polygon fill="#63b8ff" stroke="#63b8ff" points="323.22,-400 333.22,-396.5 323.22,-393 323.22,-400"/>
</a>
</g>
</g>
<!-- Node6 -->
<g id="Node000006" class="node">
<title>Node6</title>
<g id="a_Node000006"><a xlink:href="classMC_1_1ParticlesContainer.html#a8e95993fb1287c04427780d6372be565" target="_top" xlink:title="Insert particle buffer into the main container.">
<polygon fill="white" stroke="#666666" points="635.5,-476 516.75,-476 516.75,-447 635.5,-447 635.5,-476"/>
<text xml:space="preserve" text-anchor="start" x="524.75" y="-462.5" font-family="Helvetica,sans-Serif" font-size="10.00">MC::ParticlesContainer</text>
<text xml:space="preserve" text-anchor="middle" x="576.12" y="-452" font-family="Helvetica,sans-Serif" font-size="10.00">::merge_buffer</text>
</a>
</g>
</g>
<!-- Node5&#45;&gt;Node6 -->
<g id="edge5_Node000005_Node000006" class="edge">
<title>Node5&#45;&gt;Node6</title>
<g id="a_edge5_Node000005_Node000006"><a xlink:title=" ">
<path fill="none" stroke="#63b8ff" d="M466.8,-461.5C479.23,-461.5 492.3,-461.5 504.89,-461.5"/>
<polygon fill="#63b8ff" stroke="#63b8ff" points="504.77,-465 514.77,-461.5 504.77,-458 504.77,-465"/>
</a>
</g>
</g>
<!-- Node9 -->
<g id="Node000009" class="node">
<title>Node9</title>
<g id="a_Node000009"><a xlink:href="classSimulation_1_1SimulationUnit.html#ae2077067788b0cb0535c62933724a1cf" target="_top" xlink:title=" ">
<polygon fill="white" stroke="#666666" points="641.88,-422 510.38,-422 510.38,-393 641.88,-393 641.88,-422"/>
<text xml:space="preserve" text-anchor="start" x="518.38" y="-408.5" font-family="Helvetica,sans-Serif" font-size="10.00">Simulation::SimulationUnit</text>
<text xml:space="preserve" text-anchor="middle" x="576.12" y="-398" font-family="Helvetica,sans-Serif" font-size="10.00">::scatter_contribute</text>
</a>
</g>
</g>
<!-- Node5&#45;&gt;Node9 -->
<g id="edge8_Node000005_Node000009" class="edge">
<title>Node5&#45;&gt;Node9</title>
<g id="a_edge8_Node000005_Node000009"><a xlink:title=" ">
<path fill="none" stroke="#63b8ff" d="M449.58,-446.6C470.25,-440.17 494.63,-432.57 516.38,-425.8"/>
<polygon fill="#63b8ff" stroke="#63b8ff" points="517.19,-429.21 525.7,-422.89 515.11,-422.53 517.19,-429.21"/>
</a>
</g>
</g>
<!-- Node11 -->
<g id="Node000011" class="node">
<title>Node11</title>
<g id="a_Node000011"><a xlink:href="classMC_1_1ParticlesContainer.html#a0047f4c96b02ae4aeb9ebd8963129687" target="_top" xlink:title="Update the number of non&#45;idle particle and remove if total number exceeds threshold May call : remove...">
<polygon fill="white" stroke="#666666" points="649.75,-539 502.5,-539 502.5,-510 649.75,-510 649.75,-539"/>
<text xml:space="preserve" text-anchor="start" x="510.5" y="-525.5" font-family="Helvetica,sans-Serif" font-size="10.00">MC::ParticlesContainer</text>
<text xml:space="preserve" text-anchor="middle" x="576.12" y="-515" font-family="Helvetica,sans-Serif" font-size="10.00">::update_and_remove_inactive</text>
</a>
</g>
</g>
<!-- Node5&#45;&gt;Node11 -->
<g id="edge10_Node000005_Node000011" class="edge">
<title>Node5&#45;&gt;Node11</title>
<g id="a_edge10_Node000005_Node000011"><a xlink:title=" ">
<path fill="none" stroke="#63b8ff" d="M442.84,-476.43C466.93,-485.19 497.6,-496.33 523.34,-505.68"/>
<polygon fill="#63b8ff" stroke="#63b8ff" points="522.02,-508.93 532.61,-509.05 524.41,-502.35 522.02,-508.93"/>
</a>
</g>
</g>
<!-- Node7 -->
<g id="Node000007" class="node">
<title>Node7</title>
<g id="a_Node000007"><a xlink:href="classMC_1_1ParticlesContainer.html#a57fa06d3225acf04522e3fc2993847f0" target="_top" xlink:title=" ">
<polygon fill="white" stroke="#666666" points="812.38,-505 693.62,-505 693.62,-476 812.38,-476 812.38,-505"/>
<text xml:space="preserve" text-anchor="start" x="701.62" y="-491.5" font-family="Helvetica,sans-Serif" font-size="10.00">MC::ParticlesContainer</text>
<text xml:space="preserve" text-anchor="middle" x="753" y="-481" font-family="Helvetica,sans-Serif" font-size="10.00">::__allocate_buffer__</text>
</a>
</g>
</g>
<!-- Node6&#45;&gt;Node7 -->
<g id="edge6_Node000006_Node000007" class="edge">
<title>Node6&#45;&gt;Node7</title>
<g id="a_edge6_Node000006_Node000007"><a xlink:title=" ">
<path fill="none" stroke="#63b8ff" d="M635.84,-471.24C650.69,-473.7 666.79,-476.37 682.13,-478.91"/>
<polygon fill="#63b8ff" stroke="#63b8ff" points="681.21,-482.31 691.65,-480.49 682.35,-475.4 681.21,-482.31"/>
</a>
</g>
</g>
<!-- Node8 -->
<g id="Node000008" class="node">
<title>Node8</title>
<g id="a_Node000008"><a xlink:href="classMC_1_1ParticlesContainer.html#a4fc94ae525191a5d034dce4866986c1e" target="_top" xlink:title=" ">
<polygon fill="white" stroke="#666666" points="982.12,-508 863.38,-508 863.38,-479 982.12,-479 982.12,-508"/>
<text xml:space="preserve" text-anchor="start" x="871.38" y="-494.5" font-family="Helvetica,sans-Serif" font-size="10.00">MC::ParticlesContainer</text>
<text xml:space="preserve" text-anchor="middle" x="922.75" y="-484" font-family="Helvetica,sans-Serif" font-size="10.00">::_resize</text>
</a>
</g>
</g>
<!-- Node6&#45;&gt;Node8 -->
<g id="edge7_Node000006_Node000008" class="edge">
<title>Node6&#45;&gt;Node8</title>
<g id="a_edge7_Node000006_Node000008"><a xlink:title=" ">
<path fill="none" stroke="#63b8ff" d="M635.88,-459.25C685.31,-458.24 757.73,-458.83 820.25,-467.5 833.76,-469.37 848.07,-472.38 861.55,-475.7"/>
<polygon fill="#63b8ff" stroke="#63b8ff" points="860.61,-479.07 871.17,-478.16 862.35,-472.29 860.61,-479.07"/>
</a>
</g>
</g>
<!-- Node10 -->
<g id="Node000010" class="node">
<title>Node10</title>
<g id="a_Node000010"><a xlink:href="classSimulation_1_1SimulationUnit.html#af5aeb9c124540ac219001b46b51b74a9" target="_top" xlink:title=" ">
<polygon fill="white" stroke="#666666" points="818.75,-419 687.25,-419 687.25,-390 818.75,-390 818.75,-419"/>
<text xml:space="preserve" text-anchor="start" x="695.25" y="-405.5" font-family="Helvetica,sans-Serif" font-size="10.00">Simulation::SimulationUnit</text>
<text xml:space="preserve" text-anchor="middle" x="753" y="-395" font-family="Helvetica,sans-Serif" font-size="10.00">::get_kernel_contribution</text>
</a>
</g>
</g>
<!-- Node9&#45;&gt;Node10 -->
<g id="edge9_Node000009_Node000010" class="edge">
<title>Node9&#45;&gt;Node10</title>
<g id="a_edge9_Node000009_Node000010"><a xlink:title=" ">
<path fill="none" stroke="#63b8ff" d="M642.24,-406.38C653.05,-406.2 664.35,-406 675.41,-405.81"/>
<polygon fill="#63b8ff" stroke="#63b8ff" points="675.38,-409.32 685.32,-405.64 675.26,-402.32 675.38,-409.32"/>
</a>
</g>
</g>
<!-- Node12 -->
<g id="Node000012" class="node">
<title>Node12</title>
<g id="a_Node000012"><a xlink:href="classMC_1_1ParticlesContainer.html#a57353f823ed074869300f29deb5c50b2" target="_top" xlink:title="Removes inactive particles from the container.">
<polygon fill="white" stroke="#666666" points="820.25,-552 685.75,-552 685.75,-523 820.25,-523 820.25,-552"/>
<text xml:space="preserve" text-anchor="start" x="693.75" y="-538.5" font-family="Helvetica,sans-Serif" font-size="10.00">MC::ParticlesContainer</text>
<text xml:space="preserve" text-anchor="middle" x="753" y="-528" font-family="Helvetica,sans-Serif" font-size="10.00">::remove_inactive_particles</text>
</a>
</g>
</g>
<!-- Node11&#45;&gt;Node12 -->
<g id="edge11_Node000011_Node000012" class="edge">
<title>Node11&#45;&gt;Node12</title>
<g id="a_edge11_Node000011_Node000012"><a xlink:title=" ">
<path fill="none" stroke="#63b8ff" d="M650.02,-529.92C657.98,-530.51 666.11,-531.12 674.13,-531.71"/>
<polygon fill="#63b8ff" stroke="#63b8ff" points="673.63,-535.18 683.86,-532.43 674.15,-528.2 673.63,-535.18"/>
</a>
</g>
</g>
<!-- Node12&#45;&gt;Node8 -->
<g id="edge12_Node000012_Node000008" class="edge">
<title>Node12&#45;&gt;Node8</title>
<g id="a_edge12_Node000012_Node000008"><a xlink:title=" ">
<path fill="none" stroke="#63b8ff" d="M810.79,-522.6C824.65,-518.97 839.62,-515.04 853.94,-511.29"/>
<polygon fill="#63b8ff" stroke="#63b8ff" points="854.48,-514.76 863.27,-508.84 852.71,-507.99 854.48,-514.76"/>
</a>
</g>
</g>
<!-- Node13&#45;&gt;Node13 -->
<g id="edge14_Node000013_Node000013" class="edge">
<title>Node13&#45;&gt;Node13</title>
<g id="a_edge14_Node000013_Node000013"><a xlink:title=" ">
<path fill="none" stroke="#63b8ff" d="M371.56,-411.21C364.52,-420.32 374.25,-429 400.75,-429 415.24,-429 424.72,-426.41 429.18,-422.56"/>
<polygon fill="#63b8ff" stroke="#63b8ff" points="432.66,-422.93 429.84,-412.72 425.68,-422.46 432.66,-422.93"/>
</a>
</g>
</g>
<!-- Node13&#45;&gt;Node14 -->
<g id="edge15_Node000013_Node000014" class="edge">
<title>Node13&#45;&gt;Node14</title>
<g id="a_edge15_Node000013_Node000014"><a xlink:title=" ">
<path fill="none" stroke="#63b8ff" d="M466.8,-381.87C477.28,-379.51 488.22,-377.05 498.94,-374.64"/>
<polygon fill="#63b8ff" stroke="#63b8ff" points="499.53,-378.09 508.52,-372.48 498,-371.26 499.53,-378.09"/>
</a>
</g>
</g>
<!-- Node14&#45;&gt;Node10 -->
<g id="edge16_Node000014_Node000010" class="edge">
<title>Node14&#45;&gt;Node10</title>
<g id="a_edge16_Node000014_Node000010"><a xlink:title=" ">
<path fill="none" stroke="#63b8ff" d="M632.46,-372.37C649.36,-376.91 668.13,-381.96 685.68,-386.68"/>
<polygon fill="#63b8ff" stroke="#63b8ff" points="684.4,-389.96 694.97,-389.17 686.22,-383.2 684.4,-389.96"/>
</a>
</g>
</g>
<!-- Node15 -->
<g id="Node000015" class="node">
<title>Node15</title>
<g id="a_Node000015"><a xlink:href="classSimulation_1_1SimulationUnit.html#a36fb635150825e63055191740edaba84" target="_top" xlink:title=" ">
<polygon fill="white" stroke="#666666" points="818.75,-372 687.25,-372 687.25,-343 818.75,-343 818.75,-372"/>
<text xml:space="preserve" text-anchor="start" x="695.25" y="-358.5" font-family="Helvetica,sans-Serif" font-size="10.00">Simulation::SimulationUnit</text>
<text xml:space="preserve" text-anchor="middle" x="753" y="-348" font-family="Helvetica,sans-Serif" font-size="10.00">::post_init_concentration</text>
</a>
</g>
</g>
<!-- Node14&#45;&gt;Node15 -->
<g id="edge17_Node000014_Node000015" class="edge">
<title>Node14&#45;&gt;Node15</title>
<g id="a_edge17_Node000014_Node000015"><a xlink:title=" ">
<path fill="none" stroke="#63b8ff" d="M642.24,-357.5C653.05,-357.5 664.35,-357.5 675.41,-357.5"/>
<polygon fill="#63b8ff" stroke="#63b8ff" points="675.32,-361 685.32,-357.5 675.32,-354 675.32,-361"/>
</a>
</g>
</g>
<!-- Node16 -->
<g id="Node000016" class="node">
<title>Node16</title>
<g id="a_Node000016"><a xlink:href="namespaceSimulation_1_1impl.html#ab56eb92724f12b4ed6c401939009519c" target="_top" xlink:title=" ">
<polygon fill="white" stroke="#666666" points="980.62,-370 864.88,-370 864.88,-341 980.62,-341 980.62,-370"/>
<text xml:space="preserve" text-anchor="start" x="872.88" y="-356.5" font-family="Helvetica,sans-Serif" font-size="10.00">Simulation::impl::post</text>
<text xml:space="preserve" text-anchor="middle" x="922.75" y="-346" font-family="Helvetica,sans-Serif" font-size="10.00">_init_concentration_file</text>
</a>
</g>
</g>
<!-- Node15&#45;&gt;Node16 -->
<g id="edge18_Node000015_Node000016" class="edge">
<title>Node15&#45;&gt;Node16</title>
<g id="a_edge18_Node000015_Node000016"><a xlink:title=" ">
<path fill="none" stroke="#63b8ff" d="M818.86,-356.73C830.13,-356.59 841.88,-356.45 853.25,-356.32"/>
<polygon fill="#63b8ff" stroke="#63b8ff" points="852.98,-359.82 862.94,-356.2 852.9,-352.82 852.98,-359.82"/>
</a>
</g>
</g>
<!-- Node17 -->
<g id="Node000017" class="node">
<title>Node17</title>
<g id="a_Node000017"><a xlink:href="namespaceSimulation_1_1impl.html#ae40eba3a10cbceb62fe3e6980dcc193f" target="_top" xlink:title=" ">
<polygon fill="white" stroke="#666666" points="989.25,-417 856.25,-417 856.25,-388 989.25,-388 989.25,-417"/>
<text xml:space="preserve" text-anchor="start" x="864.25" y="-403.5" font-family="Helvetica,sans-Serif" font-size="10.00">Simulation::impl::post</text>
<text xml:space="preserve" text-anchor="middle" x="922.75" y="-393" font-family="Helvetica,sans-Serif" font-size="10.00">_init_concentration_functor</text>
</a>
</g>
</g>
<!-- Node15&#45;&gt;Node17 -->
<g id="edge19_Node000015_Node000017" class="edge">
<title>Node15&#45;&gt;Node17</title>
<g id="a_edge19_Node000015_Node000017"><a xlink:title=" ">
<path fill="none" stroke="#63b8ff" d="M809.86,-372.48C824.35,-376.37 840.11,-380.6 855.1,-384.62"/>
<polygon fill="#63b8ff" stroke="#63b8ff" points="853.82,-387.9 864.39,-387.11 855.64,-381.14 853.82,-387.9"/>
</a>
</g>
</g>
<!-- Node18&#45;&gt;Node18 -->
<g id="edge21_Node000018_Node000018" class="edge">
<title>Node18&#45;&gt;Node18</title>
<g id="a_edge21_Node000018_Node000018"><a xlink:title=" ">
<path fill="none" stroke="#63b8ff" d="M204.06,-307.21C197.02,-316.32 206.75,-325 233.25,-325 247.74,-325 257.22,-322.41 261.68,-318.56"/>
<polygon fill="#63b8ff" stroke="#63b8ff" points="265.16,-318.93 262.34,-308.72 258.18,-318.46 265.16,-318.93"/>
</a>
</g>
</g>
<!-- Node20 -->
<g id="Node000020" class="node">
<title>Node20</title>
<g id="a_Node000020"><a xlink:href="classSimulation_1_1SimulationUnit.html#a4295618336e99606be4e87b31feb848a" target="_top" xlink:title=" ">
<polygon fill="white" stroke="#666666" points="466.5,-260 335,-260 335,-231 466.5,-231 466.5,-260"/>
<text xml:space="preserve" text-anchor="start" x="343" y="-246.5" font-family="Helvetica,sans-Serif" font-size="10.00">Simulation::SimulationUnit</text>
<text xml:space="preserve" text-anchor="middle" x="400.75" y="-236" font-family="Helvetica,sans-Serif" font-size="10.00">::getkernel_concentration</text>
</a>
</g>
</g>
<!-- Node19&#45;&gt;Node20 -->
<g id="edge23_Node000019_Node000020" class="edge">
<title>Node19&#45;&gt;Node20</title>
<g id="a_edge23_Node000019_Node000020"><a xlink:title=" ">
<path fill="none" stroke="#63b8ff" d="M299.18,-245.5C307.13,-245.5 315.29,-245.5 323.38,-245.5"/>
<polygon fill="#63b8ff" stroke="#63b8ff" points="323.22,-249 333.22,-245.5 323.22,-242 323.22,-249"/>
</a>
</g>
</g>
<!-- Node24&#45;&gt;Node25 -->
<g id="edge29_Node000024_Node000025" class="edge">
<title>Node24&#45;&gt;Node25</title>
<g id="a_edge29_Node000024_Node000025"><a xlink:title=" ">
<path fill="none" stroke="#63b8ff" d="M291.67,-33.42C304.43,-36.73 318.09,-40.28 331.25,-43.7"/>
<polygon fill="#63b8ff" stroke="#63b8ff" points="330.13,-47.03 340.69,-46.15 331.89,-40.25 330.13,-47.03"/>
</a>
</g>
</g>
<!-- Node26 -->
<g id="Node000026" class="node">
<title>Node26</title>
<g id="a_Node000026"><a xlink:href="classSimulation_1_1SimulationUnit.html#a325bd66b0afbb76176a6f8c607d9902b" target="_top" xlink:title=" ">
<polygon fill="white" stroke="#666666" points="466.5,-29 335,-29 335,0 466.5,0 466.5,-29"/>
<text xml:space="preserve" text-anchor="start" x="343" y="-15.5" font-family="Helvetica,sans-Serif" font-size="10.00">Simulation::SimulationUnit</text>
<text xml:space="preserve" text-anchor="middle" x="400.75" y="-5" font-family="Helvetica,sans-Serif" font-size="10.00">::updateScalarHydro</text>
</a>
</g>
</g>
<!-- Node24&#45;&gt;Node26 -->
<g id="edge30_Node000024_Node000026" class="edge">
<title>Node24&#45;&gt;Node26</title>
<g id="a_edge30_Node000024_Node000026"><a xlink:title=" ">
<path fill="none" stroke="#63b8ff" d="M299.18,-16.93C307.13,-16.74 315.29,-16.54 323.38,-16.35"/>
<polygon fill="#63b8ff" stroke="#63b8ff" points="323.31,-19.85 333.22,-16.11 323.14,-12.85 323.31,-19.85"/>
</a>
</g>
</g>
</g>
</svg>
