<?xml version="1.0" encoding="UTF-8" standalone="no"?>
<!DOCTYPE svg PUBLIC "-//W3C//DTD SVG 1.1//EN"
 "http://www.w3.org/Graphics/SVG/1.1/DTD/svg11.dtd">
<!-- Generated by graphviz version 14.0.1 (0)
 -->
<!-- Title: Simulation::Getter::Getter Pages: 1 -->
<svg width="234pt" height="131pt"
 viewBox="0.00 0.00 234.00 131.00" xmlns="http://www.w3.org/2000/svg" xmlns:xlink="http://www.w3.org/1999/xlink">
<g id="graph0" class="graph" transform="scale(1 1) rotate(0) translate(4 127)">
<title>Simulation::Getter::Getter</title>
<!-- Node1 -->
<g id="Node000001" class="node">
<title>Node1</title>
<g id="a_Node000001"><a xlink:title=" ">
<polygon fill="#999999" stroke="#666666" points="225.5,-76 130.75,-76 130.75,-47 225.5,-47 225.5,-76"/>
<text xml:space="preserve" text-anchor="start" x="138.75" y="-62.5" font-family="Helvetica,sans-Serif" font-size="10.00">Simulation::Getter</text>
<text xml:space="preserve" text-anchor="middle" x="178.12" y="-52" font-family="Helvetica,sans-Serif" font-size="10.00">::Getter</text>
</a>
</g>
</g>
<!-- Node2 -->
<g id="Node000002" class="node">
<title>Node2</title>
<g id="a_Node000002"><a xlink:href="classSimulation_1_1Getter.html#a0856b94dad890d8bf932a89d5fba2aa7" target="_top" xlink:title=" ">
<polygon fill="white" stroke="#666666" points="94.75,-123 0,-123 0,-94 94.75,-94 94.75,-123"/>
<text xml:space="preserve" text-anchor="start" x="8" y="-109.5" font-family="Helvetica,sans-Serif" font-size="10.00">Simulation::Getter</text>
<text xml:space="preserve" text-anchor="middle" x="47.38" y="-99" font-family="Helvetica,sans-Serif" font-size="10.00">::Getter</text>
</a>
</g>
</g>
<!-- Node1&#45;&gt;Node2 -->
<g id="edge1_Node000001_Node000002" class="edge">
<title>Node1&#45;&gt;Node2</title>
<g id="a_edge1_Node000001_Node000002"><a xlink:title=" ">
<path fill="none" stroke="#63b8ff" d="M125.91,-80.2C113.75,-84.64 100.93,-89.32 89.29,-93.56"/>
<polygon fill="#63b8ff" stroke="#63b8ff" points="126.77,-83.61 134.97,-76.89 124.37,-77.03 126.77,-83.61"/>
</a>
</g>
</g>
<!-- Node3 -->
<g id="Node000003" class="node">
<title>Node3</title>
<g id="a_Node000003"><a xlink:href="classSimulation_1_1Getter.html#a82f113bfbad96a242116af95d305672c" target="_top" xlink:title=" ">
<polygon fill="white" stroke="#666666" points="94.75,-76 0,-76 0,-47 94.75,-47 94.75,-76"/>
<text xml:space="preserve" text-anchor="start" x="8" y="-62.5" font-family="Helvetica,sans-Serif" font-size="10.00">Simulation::Getter</text>
<text xml:space="preserve" text-anchor="middle" x="47.38" y="-52" font-family="Helvetica,sans-Serif" font-size="10.00">::operator=</text>
</a>
</g>
</g>
<!-- Node1&#45;&gt;Node3 -->
<g id="edge2_Node000001_Node000003" class="edge">
<title>Node1&#45;&gt;Node3</title>
<g id="a_edge2_Node000001_Node000003"><a xlink:title=" ">
<path fill="none" stroke="#63b8ff" d="M119.03,-61.5C110.97,-61.5 102.78,-61.5 94.97,-61.5"/>
<polygon fill="#63b8ff" stroke="#63b8ff" points="118.77,-65 128.77,-61.5 118.77,-58 118.77,-65"/>
</a>
</g>
</g>
<!-- Node4 -->
<g id="Node000004" class="node">
<title>Node4</title>
<g id="a_Node000004"><a xlink:href="classSimulation_1_1Getter.html#aaa43464497c10db193f48f4f550c4933" target="_top" xlink:title=" ">
<polygon fill="white" stroke="#666666" points="94.75,-29 0,-29 0,0 94.75,0 94.75,-29"/>
<text xml:space="preserve" text-anchor="start" x="8" y="-15.5" font-family="Helvetica,sans-Serif" font-size="10.00">Simulation::Getter</text>
<text xml:space="preserve" text-anchor="middle" x="47.38" y="-5" font-family="Helvetica,sans-Serif" font-size="10.00">::operator=</text>
</a>
</g>
</g>
<!-- Node1&#45;&gt;Node4 -->
<g id="edge3_Node000001_Node000004" class="edge">
<title>Node1&#45;&gt;Node4</title>
<g id="a_edge3_Node000001_Node000004"><a xlink:title=" ">
<path fill="none" stroke="#63b8ff" d="M125.91,-42.8C113.75,-38.36 100.93,-33.68 89.29,-29.44"/>
<polygon fill="#63b8ff" stroke="#63b8ff" points="124.37,-45.97 134.97,-46.11 126.77,-39.39 124.37,-45.97"/>
</a>
</g>
</g>
</g>
</svg>
