<?xml version="1.0" encoding="UTF-8" standalone="no"?>
<!DOCTYPE svg PUBLIC "-//W3C//DTD SVG 1.1//EN"
 "http://www.w3.org/Graphics/SVG/1.1/DTD/svg11.dtd">
<!-- Generated by graphviz version 14.0.1 (0)
 -->
<!-- Title: CmaUtils::DiscontinuousFMT::update_flow Pages: 1 -->
<!--zoomable 225 -->

<svg id="main" version="1.1" xmlns="http://www.w3.org/2000/svg" xmlns:xlink="http://www.w3.org/1999/xlink" xml:space="preserve" onload="init(evt)">

<style type="text/css"><![CDATA[
.node, .edge {opacity: 0.7;}
.node.selected, .edge.selected {opacity: 1;}
.edge:hover path { stroke: red; }
.edge:hover polygon { stroke: red; fill: red; }
]]></style>

<defs>
  <circle id="rim" cx="0" cy="0" r="7"/>
  <circle id="rim2" cx="0" cy="0" r="3.5"/>
  <g id="zoomPlus">
    <use xlink:href="#rim" fill="#404040"><set attributeName="fill" to="#808080" begin="zoomplus.mouseover" end="zoomplus.mouseout"/></use>
    <path d="M-4,0h8M0,-4v8" fill="none" stroke="white" stroke-width="1.5" pointer-events="none"/>
  </g>
  <g id="zoomMin">
    <use xlink:href="#rim" fill="#404040"><set attributeName="fill" to="#808080" begin="zoomminus.mouseover" end="zoomminus.mouseout"/></use>
    <path d="M-4,0h8" fill="none" stroke="white" stroke-width="1.5" pointer-events="none"/>
  </g>
  <g id="arrowUp" transform="translate(30 24)">
    <use xlink:href="#rim"/>
    <path pointer-events="none" fill="none" stroke="white" stroke-width="1.5" d="M0,-3.0v7 M-2.5,-0.5L0,-3.0L2.5,-0.5"/>
  </g>
  <g id="arrowRight" transform="rotate(90) translate(36 -43)">
    <use xlink:href="#rim"/>
    <path pointer-events="none" fill="none" stroke="white" stroke-width="1.5" d="M0,-3.0v7 M-2.5,-0.5L0,-3.0L2.5,-0.5"/>
  </g>
  <g id="arrowDown" transform="rotate(180) translate(-30 -48)">
    <use xlink:href="#rim"/>
    <path pointer-events="none" fill="none" stroke="white" stroke-width="1.5" d="M0,-3.0v7 M-2.5,-0.5L0,-3.0L2.5,-0.5"/>
  </g>
  <g id="arrowLeft" transform="rotate(270) translate(-36 17)">
    <use xlink:href="#rim"/>
    <path pointer-events="none" fill="none" stroke="white" stroke-width="1.5" d="M0,-3.0v7 M-2.5,-0.5L0,-3.0L2.5,-0.5"/>
  </g>
  <g id="resetDef">
    <use xlink:href="#rim2" fill="#404040"><set attributeName="fill" to="#808080" begin="reset.mouseover" end="reset.mouseout"/></use>
  </g>
</defs>
<script type="application/ecmascript">
var viewWidth = 543;
var viewHeight = 225;
var sectionId = 'dynsection-9';
</script>
<script type="application/ecmascript" xlink:href="svg.min.js"/>
<svg id="graph" class="graph">
<g id="viewport">
<title>CmaUtils::DiscontinuousFMT::update_flow</title>
<!-- Node1 -->
<g id="Node000001" class="node">
<title>Node1</title>
<g id="a_Node000001"><a xlink:title="Calculate the current state based on the selected method, may be caching or direct calculation.">
<polygon fill="#999999" stroke="#666666" points="145.75,-123 0,-123 0,-94 145.75,-94 145.75,-123"/>
<text xml:space="preserve" text-anchor="start" x="8" y="-109.5" font-family="Helvetica,sans-Serif" font-size="10.00">CmaUtils::DiscontinuousFMT</text>
<text xml:space="preserve" text-anchor="middle" x="72.88" y="-99" font-family="Helvetica,sans-Serif" font-size="10.00">::update_flow</text>
</a>
</g>
</g>
<!-- Node2 -->
<g id="Node000002" class="node">
<title>Node2</title>
<g id="a_Node000002"><a xlink:href="classCmaUtils_1_1FlowMapTransitionner.html#ae24d277adf0085d83cd09644149f31b6" target="_top" xlink:title="Calculate the whole state (liquid+gas+neighbor) for the current time step.">
<polygon fill="white" stroke="#666666" points="340.25,-217 181.75,-217 181.75,-188 340.25,-188 340.25,-217"/>
<text xml:space="preserve" text-anchor="start" x="189.75" y="-203.5" font-family="Helvetica,sans-Serif" font-size="10.00">CmaUtils::FlowMapTransitionner</text>
<text xml:space="preserve" text-anchor="middle" x="261" y="-193" font-family="Helvetica,sans-Serif" font-size="10.00">::calculate_full_state</text>
</a>
</g>
</g>
<!-- Node1&#45;&gt;Node2 -->
<g id="edge1_Node000001_Node000002" class="edge">
<title>Node1&#45;&gt;Node2</title>
<g id="a_edge1_Node000001_Node000002"><a xlink:title=" ">
<path fill="none" stroke="#63b8ff" d="M92.73,-123.43C113.5,-139.25 148.39,-164.04 181.75,-179.5 184.86,-180.94 188.08,-182.32 191.37,-183.62"/>
<polygon fill="#63b8ff" stroke="#63b8ff" points="190,-186.85 200.6,-187.05 192.44,-180.29 190,-186.85"/>
</a>
</g>
</g>
<!-- Node4 -->
<g id="Node000004" class="node">
<title>Node4</title>
<g id="a_Node000004"><a xlink:href="classCmaUtils_1_1DiscontinuousFMT.html#a6c8dd6ddccce5fc099aa3a24ff3120b4" target="_top" xlink:title="Get current gas state read from CmaRead.">
<polygon fill="white" stroke="#666666" points="333.88,-170 188.12,-170 188.12,-141 333.88,-141 333.88,-170"/>
<text xml:space="preserve" text-anchor="start" x="196.12" y="-156.5" font-family="Helvetica,sans-Serif" font-size="10.00">CmaUtils::DiscontinuousFMT</text>
<text xml:space="preserve" text-anchor="middle" x="261" y="-146" font-family="Helvetica,sans-Serif" font-size="10.00">::current_gas_hydro_state</text>
</a>
</g>
</g>
<!-- Node1&#45;&gt;Node4 -->
<g id="edge3_Node000001_Node000004" class="edge">
<title>Node1&#45;&gt;Node4</title>
<g id="a_edge3_Node000001_Node000004"><a xlink:title=" ">
<path fill="none" stroke="#63b8ff" d="M133.02,-123.44C151,-127.98 170.94,-133.01 189.58,-137.72"/>
<polygon fill="#63b8ff" stroke="#63b8ff" points="188.67,-141.1 199.22,-140.15 190.38,-134.31 188.67,-141.1"/>
</a>
</g>
</g>
<!-- Node6 -->
<g id="Node000006" class="node">
<title>Node6</title>
<g id="a_Node000006"><a xlink:href="classCmaUtils_1_1DiscontinuousFMT.html#a6e942b1caf7ddc68b29c8d24b185b594" target="_top" xlink:title="Get current liquid state read from CmaRead.">
<polygon fill="white" stroke="#666666" points="333.88,-123 188.12,-123 188.12,-94 333.88,-94 333.88,-123"/>
<text xml:space="preserve" text-anchor="start" x="196.12" y="-109.5" font-family="Helvetica,sans-Serif" font-size="10.00">CmaUtils::DiscontinuousFMT</text>
<text xml:space="preserve" text-anchor="middle" x="261" y="-99" font-family="Helvetica,sans-Serif" font-size="10.00">::current_liq_hydro_state</text>
</a>
</g>
</g>
<!-- Node1&#45;&gt;Node6 -->
<g id="edge5_Node000001_Node000006" class="edge">
<title>Node1&#45;&gt;Node6</title>
<g id="a_edge5_Node000001_Node000006"><a xlink:title=" ">
<path fill="none" stroke="#63b8ff" d="M146.1,-108.5C156.05,-108.5 166.33,-108.5 176.47,-108.5"/>
<polygon fill="#63b8ff" stroke="#63b8ff" points="176.3,-112 186.3,-108.5 176.3,-105 176.3,-112"/>
</a>
</g>
</g>
<!-- Node7 -->
<g id="Node000007" class="node">
<title>Node7</title>
<g id="a_Node000007"><a xlink:href="classCmaUtils_1_1DiscontinuousFMT.html#afb3fcc676bcb57682b6fc6e4658e7ae0" target="_top" xlink:title="Provides a const reference to the current reactor state.">
<polygon fill="white" stroke="#666666" points="333.88,-76 188.12,-76 188.12,-47 333.88,-47 333.88,-76"/>
<text xml:space="preserve" text-anchor="start" x="196.12" y="-62.5" font-family="Helvetica,sans-Serif" font-size="10.00">CmaUtils::DiscontinuousFMT</text>
<text xml:space="preserve" text-anchor="middle" x="261" y="-52" font-family="Helvetica,sans-Serif" font-size="10.00">::get_current_reactor_state</text>
</a>
</g>
</g>
<!-- Node1&#45;&gt;Node7 -->
<g id="edge7_Node000001_Node000007" class="edge">
<title>Node1&#45;&gt;Node7</title>
<g id="a_edge7_Node000001_Node000007"><a xlink:title=" ">
<path fill="none" stroke="#63b8ff" d="M133.02,-93.56C151,-89.02 170.94,-83.99 189.58,-79.28"/>
<polygon fill="#63b8ff" stroke="#63b8ff" points="190.38,-82.69 199.22,-76.85 188.67,-75.9 190.38,-82.69"/>
</a>
</g>
</g>
<!-- Node9 -->
<g id="Node000009" class="node">
<title>Node9</title>
<g id="a_Node000009"><a xlink:href="classCmaUtils_1_1FlowMapTransitionner.html#a2b977307d10c78474830d7776030665c" target="_top" xlink:title="Check if liquid state has to calculated or can be use via caching.">
<polygon fill="white" stroke="#666666" points="340.25,-29 181.75,-29 181.75,0 340.25,0 340.25,-29"/>
<text xml:space="preserve" text-anchor="start" x="189.75" y="-15.5" font-family="Helvetica,sans-Serif" font-size="10.00">CmaUtils::FlowMapTransitionner</text>
<text xml:space="preserve" text-anchor="middle" x="261" y="-5" font-family="Helvetica,sans-Serif" font-size="10.00">::need_liquid_state_calculation</text>
</a>
</g>
</g>
<!-- Node1&#45;&gt;Node9 -->
<g id="edge10_Node000001_Node000009" class="edge">
<title>Node1&#45;&gt;Node9</title>
<g id="a_edge10_Node000001_Node000009"><a xlink:title=" ">
<path fill="none" stroke="#63b8ff" d="M92.73,-93.57C113.5,-77.75 148.39,-52.96 181.75,-37.5 184.86,-36.06 188.08,-34.68 191.37,-33.38"/>
<polygon fill="#63b8ff" stroke="#63b8ff" points="192.44,-36.71 200.6,-29.95 190,-30.15 192.44,-36.71"/>
</a>
</g>
</g>
<!-- Node3 -->
<g id="Node000003" class="node">
<title>Node3</title>
<g id="a_Node000003"><a xlink:href="classCmaUtils_1_1FlowMapTransitionner.html#abb98a83b7db34307ef4e59ed7e33a71a" target="_top" xlink:title="Checks whether a gas flowmap is provided.">
<polygon fill="white" stroke="#666666" points="534.75,-217 376.25,-217 376.25,-188 534.75,-188 534.75,-217"/>
<text xml:space="preserve" text-anchor="start" x="384.25" y="-203.5" font-family="Helvetica,sans-Serif" font-size="10.00">CmaUtils::FlowMapTransitionner</text>
<text xml:space="preserve" text-anchor="middle" x="455.5" y="-193" font-family="Helvetica,sans-Serif" font-size="10.00">::is_two_phase_flow</text>
</a>
</g>
</g>
<!-- Node2&#45;&gt;Node3 -->
<g id="edge2_Node000002_Node000003" class="edge">
<title>Node2&#45;&gt;Node3</title>
<g id="a_edge2_Node000002_Node000003"><a xlink:title=" ">
<path fill="none" stroke="#63b8ff" d="M340.57,-202.5C348.49,-202.5 356.57,-202.5 364.59,-202.5"/>
<polygon fill="#63b8ff" stroke="#63b8ff" points="364.35,-206 374.35,-202.5 364.35,-199 364.35,-206"/>
</a>
</g>
</g>
<!-- Node5 -->
<g id="Node000005" class="node">
<title>Node5</title>
<g id="a_Node000005"><a xlink:href="classCmaUtils_1_1FlowMapTransitionner.html#a95f2c1ce2a5c0dcccb0e0be0341fa466" target="_top" xlink:title="Return the index of the current ProxyPreCalculatedHydroState.">
<polygon fill="white" stroke="#666666" points="534.75,-123 376.25,-123 376.25,-94 534.75,-94 534.75,-123"/>
<text xml:space="preserve" text-anchor="start" x="384.25" y="-109.5" font-family="Helvetica,sans-Serif" font-size="10.00">CmaUtils::FlowMapTransitionner</text>
<text xml:space="preserve" text-anchor="middle" x="455.5" y="-99" font-family="Helvetica,sans-Serif" font-size="10.00">::getFlowIndex</text>
</a>
</g>
</g>
<!-- Node4&#45;&gt;Node5 -->
<g id="edge4_Node000004_Node000005" class="edge">
<title>Node4&#45;&gt;Node5</title>
<g id="a_edge4_Node000004_Node000005"><a xlink:title=" ">
<path fill="none" stroke="#63b8ff" d="M323.17,-140.56C341.94,-135.98 362.77,-130.9 382.21,-126.15"/>
<polygon fill="#63b8ff" stroke="#63b8ff" points="382.8,-129.61 391.69,-123.84 381.14,-122.81 382.8,-129.61"/>
</a>
</g>
</g>
<!-- Node6&#45;&gt;Node5 -->
<g id="edge6_Node000006_Node000005" class="edge">
<title>Node6&#45;&gt;Node5</title>
<g id="a_edge6_Node000006_Node000005"><a xlink:title=" ">
<path fill="none" stroke="#63b8ff" d="M334.23,-108.5C344.15,-108.5 354.43,-108.5 364.62,-108.5"/>
<polygon fill="#63b8ff" stroke="#63b8ff" points="364.55,-112 374.55,-108.5 364.55,-105 364.55,-112"/>
</a>
</g>
</g>
<!-- Node7&#45;&gt;Node5 -->
<g id="edge9_Node000007_Node000005" class="edge">
<title>Node7&#45;&gt;Node5</title>
<g id="a_edge9_Node000007_Node000005"><a xlink:title=" ">
<path fill="none" stroke="#63b8ff" d="M323.17,-76.44C341.94,-81.02 362.77,-86.1 382.21,-90.85"/>
<polygon fill="#63b8ff" stroke="#63b8ff" points="381.14,-94.19 391.69,-93.16 382.8,-87.39 381.14,-94.19"/>
</a>
</g>
</g>
<!-- Node8 -->
<g id="Node000008" class="node">
<title>Node8</title>
<g id="a_Node000008"><a xlink:href="classCmaUtils_1_1FlowMapTransitionner.html#adef8e20a97054d14eba0521ca20829f6" target="_top" xlink:title="Direct read state from iterator.">
<polygon fill="white" stroke="#666666" points="534.75,-76 376.25,-76 376.25,-47 534.75,-47 534.75,-76"/>
<text xml:space="preserve" text-anchor="start" x="384.25" y="-62.5" font-family="Helvetica,sans-Serif" font-size="10.00">CmaUtils::FlowMapTransitionner</text>
<text xml:space="preserve" text-anchor="middle" x="455.5" y="-52" font-family="Helvetica,sans-Serif" font-size="10.00">::get_unchecked</text>
</a>
</g>
</g>
<!-- Node7&#45;&gt;Node8 -->
<g id="edge8_Node000007_Node000008" class="edge">
<title>Node7&#45;&gt;Node8</title>
<g id="a_edge8_Node000007_Node000008"><a xlink:title=" ">
<path fill="none" stroke="#63b8ff" d="M334.23,-61.5C344.15,-61.5 354.43,-61.5 364.62,-61.5"/>
<polygon fill="#63b8ff" stroke="#63b8ff" points="364.55,-65 374.55,-61.5 364.55,-58 364.55,-65"/>
</a>
</g>
</g>
</g>
</svg>

<g id="navigator" transform="translate(0 0)" fill="#404254">
  <rect fill="#f2f5e9" fill-opacity="0.5" stroke="#606060" stroke-width=".5" x="0" y="0" width="60" height="60"/>
  <use id="zoomplus" xlink:href="#zoomPlus" x="17" y="9" onmousedown="handleZoom(evt,'in')"/>
  <use id="zoomminus" xlink:href="#zoomMin" x="42" y="9" onmousedown="handleZoom(evt,'out')"/>
  <use id="reset" xlink:href="#resetDef" x="30" y="36" onmousedown="handleReset()"/>
   <use id="arrowup" xlink:href="#arrowUp" x="0" y="0" onmousedown="handlePan(0,-1)"/>
  <use id="arrowright" xlink:href="#arrowRight" x="0" y="0" onmousedown="handlePan(1,0)"/>
  <use id="arrowdown" xlink:href="#arrowDown" x="0" y="0" onmousedown="handlePan(0,1)"/>
  <use id="arrowleft" xlink:href="#arrowLeft" x="0" y="0" onmousedown="handlePan(-1,0)"/>
</g>
<svg viewBox="0 0 15 15" width="100%" height="30px" preserveAspectRatio="xMaxYMin meet">
 <g id="arrow_out" transform="scale(0.3 0.3)">
  <a xlink:href="classCmaUtils_1_1DiscontinuousFMT_a5b9b0e3ef2d5812a9e605f1dbb9214d6_cgraph_org.svg" target="_base">
   <rect id="button" ry="5" rx="5" y="6" x="6" height="38" width="38"
        fill="#f2f5e9" fill-opacity="0.5" stroke="#606060" stroke-width="1.0"/>
   <path id="arrow"
     d="M 11.500037,31.436501 C 11.940474,20.09759 22.043105,11.32322 32.158766,21.979434 L 37.068811,17.246167 C 37.068811,17.246167 37.088388,32 37.088388,32 L 22.160133,31.978069 C 22.160133,31.978069 26.997745,27.140456 26.997745,27.140456 C 18.528582,18.264221 13.291696,25.230495 11.500037,31.436501 z"
     style="fill:#404040;"/>
  </a>
 </g>
</svg>

<style type='text/css'>
<![CDATA[
[data-mouse-over-selected='false'] { opacity: 0.7; }
[data-mouse-over-selected='true']  { opacity: 1.0; }
]]>
</style>
<script type="application/ecmascript"><![CDATA[
document.addEventListener('DOMContentLoaded', (event) => {
  highlightEdges();
  highlightAdjacentNodes();
});
]]></script>
</svg>
