<?xml version="1.0" encoding="UTF-8" standalone="no"?>
<!DOCTYPE svg PUBLIC "-//W3C//DTD SVG 1.1//EN"
 "http://www.w3.org/Graphics/SVG/1.1/DTD/svg11.dtd">
<!-- Generated by graphviz version 14.0.1 (0)
 -->
<!-- Title: CmaUtils::FlowMapTransitionner::FlowMapTransitionner Pages: 1 -->
<svg width="361pt" height="225pt"
 viewBox="0.00 0.00 361.00 225.00" xmlns="http://www.w3.org/2000/svg" xmlns:xlink="http://www.w3.org/1999/xlink">
<g id="graph0" class="graph" transform="scale(1 1) rotate(0) translate(4 221)">
<title>CmaUtils::FlowMapTransitionner::FlowMapTransitionner</title>
<!-- Node1 -->
<g id="Node000001" class="node">
<title>Node1</title>
<g id="a_Node000001"><a xlink:title=" ">
<polygon fill="#999999" stroke="#666666" points="353,-123 194.5,-123 194.5,-94 353,-94 353,-123"/>
<text xml:space="preserve" text-anchor="start" x="202.5" y="-109.5" font-family="Helvetica,sans-Serif" font-size="10.00">CmaUtils::FlowMapTransitionner</text>
<text xml:space="preserve" text-anchor="middle" x="273.75" y="-99" font-family="Helvetica,sans-Serif" font-size="10.00">::FlowMapTransitionner</text>
</a>
</g>
</g>
<!-- Node2 -->
<g id="Node000002" class="node">
<title>Node2</title>
<g id="a_Node000002"><a xlink:href="classCmaUtils_1_1DiscontinuousFMT.html#a8a15a4e642eba641fa6362db069a8ad6" target="_top" xlink:title=" ">
<polygon fill="white" stroke="#666666" points="152.12,-217 6.38,-217 6.38,-188 152.12,-188 152.12,-217"/>
<text xml:space="preserve" text-anchor="start" x="14.38" y="-203.5" font-family="Helvetica,sans-Serif" font-size="10.00">CmaUtils::DiscontinuousFMT</text>
<text xml:space="preserve" text-anchor="middle" x="79.25" y="-193" font-family="Helvetica,sans-Serif" font-size="10.00">::DiscontinuousFMT</text>
</a>
</g>
</g>
<!-- Node1&#45;&gt;Node2 -->
<g id="edge1_Node000001_Node000002" class="edge">
<title>Node1&#45;&gt;Node2</title>
<g id="a_edge1_Node000001_Node000002"><a xlink:title=" ">
<path fill="none" stroke="#63b8ff" d="M243.37,-129.86C220.99,-145.34 188.95,-165.87 158.5,-179.5 151.91,-182.45 144.84,-185.14 137.74,-187.55"/>
<polygon fill="#63b8ff" stroke="#63b8ff" points="245.22,-132.83 251.39,-124.22 241.2,-127.11 245.22,-132.83"/>
</a>
</g>
</g>
<!-- Node3 -->
<g id="Node000003" class="node">
<title>Node3</title>
<g id="a_Node000003"><a xlink:href="classCmaUtils_1_1FlowMapTransitionner.html#a71e0117a71778649a2362d61ae15048c" target="_top" xlink:title=" ">
<polygon fill="white" stroke="#666666" points="158.5,-170 0,-170 0,-141 158.5,-141 158.5,-170"/>
<text xml:space="preserve" text-anchor="start" x="8" y="-156.5" font-family="Helvetica,sans-Serif" font-size="10.00">CmaUtils::FlowMapTransitionner</text>
<text xml:space="preserve" text-anchor="middle" x="79.25" y="-146" font-family="Helvetica,sans-Serif" font-size="10.00">::FlowMapTransitionner</text>
</a>
</g>
</g>
<!-- Node1&#45;&gt;Node3 -->
<g id="edge2_Node000001_Node000003" class="edge">
<title>Node1&#45;&gt;Node3</title>
<g id="a_edge2_Node000001_Node000003"><a xlink:title=" ">
<path fill="none" stroke="#63b8ff" d="M200.64,-126.11C181.21,-130.85 160.38,-135.94 141.59,-140.52"/>
<polygon fill="#63b8ff" stroke="#63b8ff" points="201.22,-129.57 210.11,-123.79 199.56,-122.77 201.22,-129.57"/>
</a>
</g>
</g>
<!-- Node4 -->
<g id="Node000004" class="node">
<title>Node4</title>
<g id="a_Node000004"><a xlink:href="classCmaUtils_1_1FlowMapTransitionner.html#a6d6c3057c5a80a8a0228bd7ed18966b6" target="_top" xlink:title=" ">
<polygon fill="white" stroke="#666666" points="158.5,-123 0,-123 0,-94 158.5,-94 158.5,-123"/>
<text xml:space="preserve" text-anchor="start" x="8" y="-109.5" font-family="Helvetica,sans-Serif" font-size="10.00">CmaUtils::FlowMapTransitionner</text>
<text xml:space="preserve" text-anchor="middle" x="79.25" y="-99" font-family="Helvetica,sans-Serif" font-size="10.00">::FlowMapTransitionner</text>
</a>
</g>
</g>
<!-- Node1&#45;&gt;Node4 -->
<g id="edge3_Node000001_Node000004" class="edge">
<title>Node1&#45;&gt;Node4</title>
<g id="a_edge3_Node000001_Node000004"><a xlink:title=" ">
<path fill="none" stroke="#63b8ff" d="M182.9,-108.5C174.88,-108.5 166.8,-108.5 158.89,-108.5"/>
<polygon fill="#63b8ff" stroke="#63b8ff" points="182.66,-112 192.66,-108.5 182.66,-105 182.66,-112"/>
</a>
</g>
</g>
<!-- Node5 -->
<g id="Node000005" class="node">
<title>Node5</title>
<g id="a_Node000005"><a xlink:href="classCmaUtils_1_1FlowMapTransitionner.html#a91ade6243fd82e0c7edce422a0963f0e" target="_top" xlink:title=" ">
<polygon fill="white" stroke="#666666" points="158.5,-76 0,-76 0,-47 158.5,-47 158.5,-76"/>
<text xml:space="preserve" text-anchor="start" x="8" y="-62.5" font-family="Helvetica,sans-Serif" font-size="10.00">CmaUtils::FlowMapTransitionner</text>
<text xml:space="preserve" text-anchor="middle" x="79.25" y="-52" font-family="Helvetica,sans-Serif" font-size="10.00">::operator=</text>
</a>
</g>
</g>
<!-- Node1&#45;&gt;Node5 -->
<g id="edge4_Node000001_Node000005" class="edge">
<title>Node1&#45;&gt;Node5</title>
<g id="a_edge4_Node000001_Node000005"><a xlink:title=" ">
<path fill="none" stroke="#63b8ff" d="M200.64,-90.89C181.21,-86.15 160.38,-81.06 141.59,-76.48"/>
<polygon fill="#63b8ff" stroke="#63b8ff" points="199.56,-94.23 210.11,-93.21 201.22,-87.43 199.56,-94.23"/>
</a>
</g>
</g>
<!-- Node6 -->
<g id="Node000006" class="node">
<title>Node6</title>
<g id="a_Node000006"><a xlink:href="classCmaUtils_1_1FlowMapTransitionner.html#a2eefeeaae929a9ffd6f08b7ca374d93b" target="_top" xlink:title=" ">
<polygon fill="white" stroke="#666666" points="158.5,-29 0,-29 0,0 158.5,0 158.5,-29"/>
<text xml:space="preserve" text-anchor="start" x="8" y="-15.5" font-family="Helvetica,sans-Serif" font-size="10.00">CmaUtils::FlowMapTransitionner</text>
<text xml:space="preserve" text-anchor="middle" x="79.25" y="-5" font-family="Helvetica,sans-Serif" font-size="10.00">::operator=</text>
</a>
</g>
</g>
<!-- Node1&#45;&gt;Node6 -->
<g id="edge5_Node000001_Node000006" class="edge">
<title>Node1&#45;&gt;Node6</title>
<g id="a_edge5_Node000001_Node000006"><a xlink:title=" ">
<path fill="none" stroke="#63b8ff" d="M242.87,-87.29C220.47,-72.13 188.61,-52.08 158.5,-38.5 151.12,-35.17 143.14,-32.13 135.2,-29.42"/>
<polygon fill="#63b8ff" stroke="#63b8ff" points="240.68,-90.04 250.91,-92.81 244.64,-84.27 240.68,-90.04"/>
</a>
</g>
</g>
</g>
</svg>
