<?xml version="1.0" encoding="UTF-8" standalone="no"?>
<!DOCTYPE svg PUBLIC "-//W3C//DTD SVG 1.1//EN"
 "http://www.w3.org/Graphics/SVG/1.1/DTD/svg11.dtd">
<!-- Generated by graphviz version 14.0.1 (0)
 -->
<!-- Title: Simulation::SimulationUnit::operator= Pages: 1 -->
<!--zoomable 598 -->

<svg id="main" version="1.1" xmlns="http://www.w3.org/2000/svg" xmlns:xlink="http://www.w3.org/1999/xlink" xml:space="preserve" onload="init(evt)">

<style type="text/css"><![CDATA[
.node, .edge {opacity: 0.7;}
.node.selected, .edge.selected {opacity: 1;}
.edge:hover path { stroke: red; }
.edge:hover polygon { stroke: red; fill: red; }
]]></style>

<defs>
  <circle id="rim" cx="0" cy="0" r="7"/>
  <circle id="rim2" cx="0" cy="0" r="3.5"/>
  <g id="zoomPlus">
    <use xlink:href="#rim" fill="#404040"><set attributeName="fill" to="#808080" begin="zoomplus.mouseover" end="zoomplus.mouseout"/></use>
    <path d="M-4,0h8M0,-4v8" fill="none" stroke="white" stroke-width="1.5" pointer-events="none"/>
  </g>
  <g id="zoomMin">
    <use xlink:href="#rim" fill="#404040"><set attributeName="fill" to="#808080" begin="zoomminus.mouseover" end="zoomminus.mouseout"/></use>
    <path d="M-4,0h8" fill="none" stroke="white" stroke-width="1.5" pointer-events="none"/>
  </g>
  <g id="arrowUp" transform="translate(30 24)">
    <use xlink:href="#rim"/>
    <path pointer-events="none" fill="none" stroke="white" stroke-width="1.5" d="M0,-3.0v7 M-2.5,-0.5L0,-3.0L2.5,-0.5"/>
  </g>
  <g id="arrowRight" transform="rotate(90) translate(36 -43)">
    <use xlink:href="#rim"/>
    <path pointer-events="none" fill="none" stroke="white" stroke-width="1.5" d="M0,-3.0v7 M-2.5,-0.5L0,-3.0L2.5,-0.5"/>
  </g>
  <g id="arrowDown" transform="rotate(180) translate(-30 -48)">
    <use xlink:href="#rim"/>
    <path pointer-events="none" fill="none" stroke="white" stroke-width="1.5" d="M0,-3.0v7 M-2.5,-0.5L0,-3.0L2.5,-0.5"/>
  </g>
  <g id="arrowLeft" transform="rotate(270) translate(-36 17)">
    <use xlink:href="#rim"/>
    <path pointer-events="none" fill="none" stroke="white" stroke-width="1.5" d="M0,-3.0v7 M-2.5,-0.5L0,-3.0L2.5,-0.5"/>
  </g>
  <g id="resetDef">
    <use xlink:href="#rim2" fill="#404040"><set attributeName="fill" to="#808080" begin="reset.mouseover" end="reset.mouseout"/></use>
  </g>
</defs>
<script type="application/ecmascript">
var viewWidth = 1028;
var viewHeight = 598;
var sectionId = 'dynsection-18';
</script>
<script type="application/ecmascript" xlink:href="svg.min.js"/>
<svg id="graph" class="graph">
<g id="viewport">
<title>Simulation::SimulationUnit::operator=</title>
<!-- Node1 -->
<g id="Node000001" class="node">
<title>Node1</title>
<g id="a_Node000001"><a xlink:title=" ">
<polygon fill="#999999" stroke="#666666" points="131.5,-303 0,-303 0,-274 131.5,-274 131.5,-303"/>
<text xml:space="preserve" text-anchor="start" x="8" y="-289.5" font-family="Helvetica,sans-Serif" font-size="10.00">Simulation::SimulationUnit</text>
<text xml:space="preserve" text-anchor="middle" x="65.75" y="-279" font-family="Helvetica,sans-Serif" font-size="10.00">::operator=</text>
</a>
</g>
</g>
<!-- Node2 -->
<g id="Node000002" class="node">
<title>Node2</title>
<g id="a_Node000002"><a xlink:href="classSimulation_1_1SimulationUnit.html#a5a5eca304112ed84b2ad40af5c808b0f" target="_top" xlink:title=" ">
<polygon fill="white" stroke="#666666" points="299,-572 167.5,-572 167.5,-543 299,-543 299,-572"/>
<text xml:space="preserve" text-anchor="start" x="175.5" y="-558.5" font-family="Helvetica,sans-Serif" font-size="10.00">Simulation::SimulationUnit</text>
<text xml:space="preserve" text-anchor="middle" x="233.25" y="-548" font-family="Helvetica,sans-Serif" font-size="10.00">::advance</text>
</a>
</g>
</g>
<!-- Node1&#45;&gt;Node2 -->
<g id="edge1_Node000001_Node000002" class="edge">
<title>Node1&#45;&gt;Node2</title>
<g id="a_edge1_Node000001_Node000002"><a xlink:title=" ">
<path fill="none" stroke="#63b8ff" d="M68.59,-303.3C74.61,-345.51 97.53,-467.77 167.5,-534.5 168.12,-535.09 168.75,-535.66 169.39,-536.22"/>
<polygon fill="#63b8ff" stroke="#63b8ff" points="167.08,-538.87 177.26,-541.8 171.13,-533.16 167.08,-538.87"/>
</a>
</g>
</g>
<!-- Node3 -->
<g id="Node000003" class="node">
<title>Node3</title>
<g id="a_Node000003"><a xlink:href="classSimulation_1_1SimulationUnit.html#ad964b9f706ae4cac2e0d5d852131a7d2" target="_top" xlink:title=" ">
<polygon fill="white" stroke="#666666" points="299,-525 167.5,-525 167.5,-496 299,-496 299,-525"/>
<text xml:space="preserve" text-anchor="start" x="175.5" y="-511.5" font-family="Helvetica,sans-Serif" font-size="10.00">Simulation::SimulationUnit</text>
<text xml:space="preserve" text-anchor="middle" x="233.25" y="-501" font-family="Helvetica,sans-Serif" font-size="10.00">::checkScalar</text>
</a>
</g>
</g>
<!-- Node1&#45;&gt;Node3 -->
<g id="edge3_Node000001_Node000003" class="edge">
<title>Node1&#45;&gt;Node3</title>
<g id="a_edge3_Node000001_Node000003"><a xlink:title=" ">
<path fill="none" stroke="#63b8ff" d="M70.19,-303.34C79.43,-339.93 108.2,-435.31 167.5,-487.5 168.15,-488.08 168.83,-488.64 169.51,-489.19"/>
<polygon fill="#63b8ff" stroke="#63b8ff" points="167.56,-492.09 177.82,-494.73 171.44,-486.27 167.56,-492.09"/>
</a>
</g>
</g>
<!-- Node4 -->
<g id="Node000004" class="node">
<title>Node4</title>
<g id="a_Node000004"><a xlink:href="classSimulation_1_1SimulationUnit.html#aeb968caf58812bcab01534e72a63d552" target="_top" xlink:title=" ">
<polygon fill="white" stroke="#666666" points="299,-478 167.5,-478 167.5,-449 299,-449 299,-478"/>
<text xml:space="preserve" text-anchor="start" x="175.5" y="-464.5" font-family="Helvetica,sans-Serif" font-size="10.00">Simulation::SimulationUnit</text>
<text xml:space="preserve" text-anchor="middle" x="233.25" y="-454" font-family="Helvetica,sans-Serif" font-size="10.00">::clearContribution</text>
</a>
</g>
</g>
<!-- Node1&#45;&gt;Node4 -->
<g id="edge4_Node000001_Node000004" class="edge">
<title>Node1&#45;&gt;Node4</title>
<g id="a_edge4_Node000001_Node000004"><a xlink:title=" ">
<path fill="none" stroke="#63b8ff" d="M72.7,-303.34C85.52,-333.49 118.61,-402.29 167.5,-440.5 168.49,-441.27 169.5,-442.02 170.54,-442.74"/>
<polygon fill="#63b8ff" stroke="#63b8ff" points="168.75,-445.75 179.13,-447.85 172.32,-439.73 168.75,-445.75"/>
</a>
</g>
</g>
<!-- Node5 -->
<g id="Node000005" class="node">
<title>Node5</title>
<g id="a_Node000005"><a xlink:href="classSimulation_1_1SimulationUnit.html#a5512cea54affc3eb0c16380d973348e5" target="_top" xlink:title=" ">
<polygon fill="white" stroke="#666666" points="299,-431 167.5,-431 167.5,-402 299,-402 299,-431"/>
<text xml:space="preserve" text-anchor="start" x="175.5" y="-417.5" font-family="Helvetica,sans-Serif" font-size="10.00">Simulation::SimulationUnit</text>
<text xml:space="preserve" text-anchor="middle" x="233.25" y="-407" font-family="Helvetica,sans-Serif" font-size="10.00">::cycleProcess</text>
</a>
</g>
</g>
<!-- Node1&#45;&gt;Node5 -->
<g id="edge5_Node000001_Node000005" class="edge">
<title>Node1&#45;&gt;Node5</title>
<g id="a_edge5_Node000001_Node000005"><a xlink:title=" ">
<path fill="none" stroke="#63b8ff" d="M78.77,-303.27C96.43,-324.21 131.24,-362.76 167.5,-387.5 172.27,-390.76 177.47,-393.8 182.78,-396.58"/>
<polygon fill="#63b8ff" stroke="#63b8ff" points="181.16,-399.69 191.68,-400.97 184.26,-393.41 181.16,-399.69"/>
</a>
</g>
</g>
<!-- Node15 -->
<g id="Node000015" class="node">
<title>Node15</title>
<g id="a_Node000015"><a xlink:href="classSimulation_1_1SimulationUnit.html#a1278ad223b0cc8509f68a9f7d995bfd2" target="_top" xlink:title=" ">
<polygon fill="white" stroke="#666666" points="672.62,-402 541.12,-402 541.12,-373 672.62,-373 672.62,-402"/>
<text xml:space="preserve" text-anchor="start" x="549.12" y="-388.5" font-family="Helvetica,sans-Serif" font-size="10.00">Simulation::SimulationUnit</text>
<text xml:space="preserve" text-anchor="middle" x="606.88" y="-378" font-family="Helvetica,sans-Serif" font-size="10.00">::SimulationUnit</text>
</a>
</g>
</g>
<!-- Node1&#45;&gt;Node15 -->
<g id="edge29_Node000001_Node000015" class="edge">
<title>Node1&#45;&gt;Node15</title>
<g id="a_edge29_Node000001_Node000015"><a xlink:title=" ">
<path fill="none" stroke="#63b8ff" d="M83.51,-303.38C102.42,-319.19 134.83,-343.4 167.5,-354.5 232.43,-376.56 422.21,-383.91 529.57,-386.33"/>
<polygon fill="#63b8ff" stroke="#63b8ff" points="529.38,-389.83 539.45,-386.55 529.53,-382.83 529.38,-389.83"/>
</a>
</g>
</g>
<!-- Node19 -->
<g id="Node000019" class="node">
<title>Node19</title>
<g id="a_Node000019"><a xlink:href="classSimulation_1_1SimulationUnit.html#aceb670b889811566ad3c159b8ecb5a9f" target="_top" xlink:title=" ">
<polygon fill="white" stroke="#666666" points="299,-327 167.5,-327 167.5,-298 299,-298 299,-327"/>
<text xml:space="preserve" text-anchor="start" x="175.5" y="-313.5" font-family="Helvetica,sans-Serif" font-size="10.00">Simulation::SimulationUnit</text>
<text xml:space="preserve" text-anchor="middle" x="233.25" y="-303" font-family="Helvetica,sans-Serif" font-size="10.00">::Getter</text>
</a>
</g>
</g>
<!-- Node1&#45;&gt;Node19 -->
<g id="edge22_Node000001_Node000019" class="edge">
<title>Node1&#45;&gt;Node19</title>
<g id="a_edge22_Node000001_Node000019"><a xlink:title=" ">
<path fill="none" stroke="#63b8ff" d="M131.68,-297.92C139.63,-299.07 147.79,-300.25 155.88,-301.43"/>
<polygon fill="#63b8ff" stroke="#63b8ff" points="155.33,-304.88 165.73,-302.85 156.34,-297.96 155.33,-304.88"/>
</a>
</g>
</g>
<!-- Node20 -->
<g id="Node000020" class="node">
<title>Node20</title>
<g id="a_Node000020"><a xlink:href="classSimulation_1_1SimulationUnit.html#a7dba9aca522fbd2462d0d0fd3909d244" target="_top" xlink:title=" ">
<polygon fill="white" stroke="#666666" points="299,-280 167.5,-280 167.5,-251 299,-251 299,-280"/>
<text xml:space="preserve" text-anchor="start" x="175.5" y="-266.5" font-family="Helvetica,sans-Serif" font-size="10.00">Simulation::SimulationUnit</text>
<text xml:space="preserve" text-anchor="middle" x="233.25" y="-256" font-family="Helvetica,sans-Serif" font-size="10.00">::init_functors</text>
</a>
</g>
</g>
<!-- Node1&#45;&gt;Node20 -->
<g id="edge24_Node000001_Node000020" class="edge">
<title>Node1&#45;&gt;Node20</title>
<g id="a_edge24_Node000001_Node000020"><a xlink:title=" ">
<path fill="none" stroke="#63b8ff" d="M131.68,-279.48C139.63,-278.37 147.79,-277.24 155.88,-276.11"/>
<polygon fill="#63b8ff" stroke="#63b8ff" points="156.31,-279.59 165.73,-274.74 155.34,-272.65 156.31,-279.59"/>
</a>
</g>
</g>
<!-- Node22 -->
<g id="Node000022" class="node">
<title>Node22</title>
<g id="a_Node000022"><a xlink:href="classSimulation_1_1SimulationUnit.html#a0faa57b6195ad190b12259096bbdd329" target="_top" xlink:title=" ">
<polygon fill="white" stroke="#666666" points="299,-215 167.5,-215 167.5,-186 299,-186 299,-215"/>
<text xml:space="preserve" text-anchor="start" x="175.5" y="-201.5" font-family="Helvetica,sans-Serif" font-size="10.00">Simulation::SimulationUnit</text>
<text xml:space="preserve" text-anchor="middle" x="233.25" y="-191" font-family="Helvetica,sans-Serif" font-size="10.00">::ode_step</text>
</a>
</g>
</g>
<!-- Node1&#45;&gt;Node22 -->
<g id="edge26_Node000001_Node000022" class="edge">
<title>Node1&#45;&gt;Node22</title>
<g id="a_edge26_Node000001_Node000022"><a xlink:title=" ">
<path fill="none" stroke="#63b8ff" d="M94.82,-273.57C122.25,-258.99 164.18,-236.7 194.51,-220.57"/>
<polygon fill="#63b8ff" stroke="#63b8ff" points="195.79,-223.85 202.98,-216.06 192.51,-217.67 195.79,-223.85"/>
</a>
</g>
</g>
<!-- Node23 -->
<g id="Node000023" class="node">
<title>Node23</title>
<g id="a_Node000023"><a xlink:href="classSimulation_1_1SimulationUnit.html#aa12b65d19fa7e3eb74152b0252591a4d" target="_top" xlink:title=" ">
<polygon fill="white" stroke="#666666" points="299,-168 167.5,-168 167.5,-139 299,-139 299,-168"/>
<text xml:space="preserve" text-anchor="start" x="175.5" y="-154.5" font-family="Helvetica,sans-Serif" font-size="10.00">Simulation::SimulationUnit</text>
<text xml:space="preserve" text-anchor="middle" x="233.25" y="-144" font-family="Helvetica,sans-Serif" font-size="10.00">::reset</text>
</a>
</g>
</g>
<!-- Node1&#45;&gt;Node23 -->
<g id="edge28_Node000001_Node000023" class="edge">
<title>Node1&#45;&gt;Node23</title>
<g id="a_edge28_Node000001_Node000023"><a xlink:title=" ">
<path fill="none" stroke="#63b8ff" d="M76.5,-273.84C92.76,-250.42 127.61,-204.46 167.5,-177.5 169.56,-176.11 171.71,-174.79 173.92,-173.53"/>
<polygon fill="#63b8ff" stroke="#63b8ff" points="175.26,-176.78 182.58,-169.12 172.08,-170.54 175.26,-176.78"/>
</a>
</g>
</g>
<!-- Node24 -->
<g id="Node000024" class="node">
<title>Node24</title>
<g id="a_Node000024"><a xlink:href="classSimulation_1_1SimulationUnit.html#ac8c180103ec1cee893f0f1dab6d60552" target="_top" xlink:title=" ">
<polygon fill="white" stroke="#666666" points="299,-121 167.5,-121 167.5,-92 299,-92 299,-121"/>
<text xml:space="preserve" text-anchor="start" x="175.5" y="-107.5" font-family="Helvetica,sans-Serif" font-size="10.00">Simulation::SimulationUnit</text>
<text xml:space="preserve" text-anchor="middle" x="233.25" y="-97" font-family="Helvetica,sans-Serif" font-size="10.00">::update_feed</text>
</a>
</g>
</g>
<!-- Node1&#45;&gt;Node24 -->
<g id="edge30_Node000001_Node000024" class="edge">
<title>Node1&#45;&gt;Node24</title>
<g id="a_edge30_Node000001_Node000024"><a xlink:title=" ">
<path fill="none" stroke="#63b8ff" d="M72.39,-273.61C84.85,-242.62 117.63,-170.75 167.5,-130.5 168.98,-129.31 170.52,-128.17 172.11,-127.09"/>
<polygon fill="#63b8ff" stroke="#63b8ff" points="173.53,-130.31 180.38,-122.23 169.98,-124.28 173.53,-130.31"/>
</a>
</g>
</g>
<!-- Node26 -->
<g id="Node000026" class="node">
<title>Node26</title>
<g id="a_Node000026"><a xlink:href="classSimulation_1_1SimulationUnit.html#a57624461bad4807d5cacbd7d17e49b14" target="_top" xlink:title=" ">
<polygon fill="white" stroke="#666666" points="299,-35 167.5,-35 167.5,-6 299,-6 299,-35"/>
<text xml:space="preserve" text-anchor="start" x="175.5" y="-21.5" font-family="Helvetica,sans-Serif" font-size="10.00">Simulation::SimulationUnit</text>
<text xml:space="preserve" text-anchor="middle" x="233.25" y="-11" font-family="Helvetica,sans-Serif" font-size="10.00">::updateHydro</text>
</a>
</g>
</g>
<!-- Node1&#45;&gt;Node26 -->
<g id="edge32_Node000001_Node000026" class="edge">
<title>Node1&#45;&gt;Node26</title>
<g id="a_edge32_Node000001_Node000026"><a xlink:title=" ">
<path fill="none" stroke="#63b8ff" d="M69.14,-273.51C76.43,-232.39 102.01,-116.46 167.5,-49.5 170.43,-46.51 173.72,-43.8 177.23,-41.35"/>
<polygon fill="#63b8ff" stroke="#63b8ff" points="178.9,-44.43 185.63,-36.24 175.26,-38.45 178.9,-44.43"/>
</a>
</g>
</g>
<!-- Node27 -->
<g id="Node000027" class="node">
<title>Node27</title>
<g id="a_Node000027"><a xlink:href="classSimulation_1_1SimulationUnit.html#a30514b0d71df785a793a60b5ea2f1b17" target="_top" xlink:title=" ">
<polygon fill="white" stroke="#666666" points="481.88,-76 350.38,-76 350.38,-47 481.88,-47 481.88,-76"/>
<text xml:space="preserve" text-anchor="start" x="358.38" y="-62.5" font-family="Helvetica,sans-Serif" font-size="10.00">Simulation::SimulationUnit</text>
<text xml:space="preserve" text-anchor="middle" x="416.12" y="-52" font-family="Helvetica,sans-Serif" font-size="10.00">::updateMCHydro</text>
</a>
</g>
</g>
<!-- Node1&#45;&gt;Node27 -->
<g id="edge35_Node000001_Node000027" class="edge">
<title>Node1&#45;&gt;Node27</title>
<g id="a_edge35_Node000001_Node000027"><a xlink:title=" ">
<path fill="none" stroke="#63b8ff" d="M69.02,-273.67C75.83,-234.8 99.97,-129.83 167.5,-83.5 217.15,-49.44 286.23,-45.97 338.81,-49.86"/>
<polygon fill="#63b8ff" stroke="#63b8ff" points="338.34,-53.33 348.6,-50.7 338.94,-46.36 338.34,-53.33"/>
</a>
</g>
</g>
<!-- Node2&#45;&gt;Node2 -->
<g id="edge2_Node000002_Node000002" class="edge">
<title>Node2&#45;&gt;Node2</title>
<g id="a_edge2_Node000002_Node000002"><a xlink:title=" ">
<path fill="none" stroke="#63b8ff" d="M204.06,-572.21C197.02,-581.32 206.75,-590 233.25,-590 247.74,-590 257.22,-587.41 261.68,-583.56"/>
<polygon fill="#63b8ff" stroke="#63b8ff" points="265.16,-583.93 262.34,-573.72 258.18,-583.46 265.16,-583.93"/>
</a>
</g>
</g>
<!-- Node6 -->
<g id="Node000006" class="node">
<title>Node6</title>
<g id="a_Node000006"><a xlink:href="classSimulation_1_1SimulationUnit.html#a96e8f3fbde370c918a3710b0b910cd42" target="_top" xlink:title=" ">
<polygon fill="white" stroke="#666666" points="481.88,-496 350.38,-496 350.38,-467 481.88,-467 481.88,-496"/>
<text xml:space="preserve" text-anchor="start" x="358.38" y="-482.5" font-family="Helvetica,sans-Serif" font-size="10.00">Simulation::SimulationUnit</text>
<text xml:space="preserve" text-anchor="middle" x="416.12" y="-472" font-family="Helvetica,sans-Serif" font-size="10.00">::post_cycle</text>
</a>
</g>
</g>
<!-- Node5&#45;&gt;Node6 -->
<g id="edge6_Node000005_Node000006" class="edge">
<title>Node5&#45;&gt;Node6</title>
<g id="a_edge6_Node000005_Node000006"><a xlink:title=" ">
<path fill="none" stroke="#63b8ff" d="M276.66,-431.47C284.16,-434.33 291.85,-437.4 299,-440.5 315.41,-447.62 318.33,-452 335,-458.5 339.06,-460.08 343.26,-461.61 347.53,-463.07"/>
<polygon fill="#63b8ff" stroke="#63b8ff" points="346.19,-466.31 356.78,-466.1 348.37,-459.66 346.19,-466.31"/>
</a>
</g>
</g>
<!-- Node14 -->
<g id="Node000014" class="node">
<title>Node14</title>
<g id="a_Node000014"><a xlink:href="classSimulation_1_1SimulationUnit.html#ad984b5d95455d6db475d8b6e20077a0c" target="_top" xlink:title=" ">
<polygon fill="white" stroke="#666666" points="481.88,-431 350.38,-431 350.38,-402 481.88,-402 481.88,-431"/>
<text xml:space="preserve" text-anchor="start" x="358.38" y="-417.5" font-family="Helvetica,sans-Serif" font-size="10.00">Simulation::SimulationUnit</text>
<text xml:space="preserve" text-anchor="middle" x="416.12" y="-407" font-family="Helvetica,sans-Serif" font-size="10.00">::pre_cycle</text>
</a>
</g>
</g>
<!-- Node5&#45;&gt;Node14 -->
<g id="edge15_Node000005_Node000014" class="edge">
<title>Node5&#45;&gt;Node14</title>
<g id="a_edge15_Node000005_Node000014"><a xlink:title=" ">
<path fill="none" stroke="#63b8ff" d="M299.29,-416.5C312.06,-416.5 325.57,-416.5 338.67,-416.5"/>
<polygon fill="#63b8ff" stroke="#63b8ff" points="338.54,-420 348.54,-416.5 338.54,-413 338.54,-420"/>
</a>
</g>
</g>
<!-- Node7 -->
<g id="Node000007" class="node">
<title>Node7</title>
<g id="a_Node000007"><a xlink:href="classMC_1_1ParticlesContainer.html#a8e95993fb1287c04427780d6372be565" target="_top" xlink:title="Insert particle buffer into the main container.">
<polygon fill="white" stroke="#666666" points="666.25,-543 547.5,-543 547.5,-514 666.25,-514 666.25,-543"/>
<text xml:space="preserve" text-anchor="start" x="555.5" y="-529.5" font-family="Helvetica,sans-Serif" font-size="10.00">MC::ParticlesContainer</text>
<text xml:space="preserve" text-anchor="middle" x="606.88" y="-519" font-family="Helvetica,sans-Serif" font-size="10.00">::merge_buffer</text>
</a>
</g>
</g>
<!-- Node6&#45;&gt;Node7 -->
<g id="edge7_Node000006_Node000007" class="edge">
<title>Node6&#45;&gt;Node7</title>
<g id="a_edge7_Node000006_Node000007"><a xlink:title=" ">
<path fill="none" stroke="#63b8ff" d="M477.11,-496.44C495.79,-501.09 516.55,-506.26 535.85,-511.06"/>
<polygon fill="#63b8ff" stroke="#63b8ff" points="535,-514.46 545.55,-513.48 536.69,-507.67 535,-514.46"/>
</a>
</g>
</g>
<!-- Node10 -->
<g id="Node000010" class="node">
<title>Node10</title>
<g id="a_Node000010"><a xlink:href="classSimulation_1_1SimulationUnit.html#ae2077067788b0cb0535c62933724a1cf" target="_top" xlink:title=" ">
<polygon fill="white" stroke="#666666" points="672.62,-449 541.12,-449 541.12,-420 672.62,-420 672.62,-449"/>
<text xml:space="preserve" text-anchor="start" x="549.12" y="-435.5" font-family="Helvetica,sans-Serif" font-size="10.00">Simulation::SimulationUnit</text>
<text xml:space="preserve" text-anchor="middle" x="606.88" y="-425" font-family="Helvetica,sans-Serif" font-size="10.00">::scatter_contribute</text>
</a>
</g>
</g>
<!-- Node6&#45;&gt;Node10 -->
<g id="edge10_Node000006_Node000010" class="edge">
<title>Node6&#45;&gt;Node10</title>
<g id="a_edge10_Node000006_Node000010"><a xlink:title=" ">
<path fill="none" stroke="#63b8ff" d="M477.11,-466.56C495.42,-462 515.74,-456.94 534.73,-452.22"/>
<polygon fill="#63b8ff" stroke="#63b8ff" points="535.4,-455.66 544.26,-449.84 533.71,-448.86 535.4,-455.66"/>
</a>
</g>
</g>
<!-- Node12 -->
<g id="Node000012" class="node">
<title>Node12</title>
<g id="a_Node000012"><a xlink:href="classMC_1_1ParticlesContainer.html#a0047f4c96b02ae4aeb9ebd8963129687" target="_top" xlink:title="Update the number of non&#45;idle particle and remove if total number exceeds threshold May call : remove...">
<polygon fill="white" stroke="#666666" points="680.5,-496 533.25,-496 533.25,-467 680.5,-467 680.5,-496"/>
<text xml:space="preserve" text-anchor="start" x="541.25" y="-482.5" font-family="Helvetica,sans-Serif" font-size="10.00">MC::ParticlesContainer</text>
<text xml:space="preserve" text-anchor="middle" x="606.88" y="-472" font-family="Helvetica,sans-Serif" font-size="10.00">::update_and_remove_inactive</text>
</a>
</g>
</g>
<!-- Node6&#45;&gt;Node12 -->
<g id="edge12_Node000006_Node000012" class="edge">
<title>Node6&#45;&gt;Node12</title>
<g id="a_edge12_Node000006_Node000012"><a xlink:title=" ">
<path fill="none" stroke="#63b8ff" d="M482.35,-481.5C494.96,-481.5 508.34,-481.5 521.46,-481.5"/>
<polygon fill="#63b8ff" stroke="#63b8ff" points="521.38,-485 531.38,-481.5 521.38,-478 521.38,-485"/>
</a>
</g>
</g>
<!-- Node8 -->
<g id="Node000008" class="node">
<title>Node8</title>
<g id="a_Node000008"><a xlink:href="classMC_1_1ParticlesContainer.html#a57fa06d3225acf04522e3fc2993847f0" target="_top" xlink:title=" ">
<polygon fill="white" stroke="#666666" points="843.12,-543 724.38,-543 724.38,-514 843.12,-514 843.12,-543"/>
<text xml:space="preserve" text-anchor="start" x="732.38" y="-529.5" font-family="Helvetica,sans-Serif" font-size="10.00">MC::ParticlesContainer</text>
<text xml:space="preserve" text-anchor="middle" x="783.75" y="-519" font-family="Helvetica,sans-Serif" font-size="10.00">::__allocate_buffer__</text>
</a>
</g>
</g>
<!-- Node7&#45;&gt;Node8 -->
<g id="edge8_Node000007_Node000008" class="edge">
<title>Node7&#45;&gt;Node8</title>
<g id="a_edge8_Node000007_Node000008"><a xlink:title=" ">
<path fill="none" stroke="#63b8ff" d="M666.59,-528.5C681.3,-528.5 697.23,-528.5 712.43,-528.5"/>
<polygon fill="#63b8ff" stroke="#63b8ff" points="712.38,-532 722.38,-528.5 712.38,-525 712.38,-532"/>
</a>
</g>
</g>
<!-- Node9 -->
<g id="Node000009" class="node">
<title>Node9</title>
<g id="a_Node000009"><a xlink:href="classMC_1_1ParticlesContainer.html#a4fc94ae525191a5d034dce4866986c1e" target="_top" xlink:title=" ">
<polygon fill="white" stroke="#666666" points="1012.88,-541 894.12,-541 894.12,-512 1012.88,-512 1012.88,-541"/>
<text xml:space="preserve" text-anchor="start" x="902.12" y="-527.5" font-family="Helvetica,sans-Serif" font-size="10.00">MC::ParticlesContainer</text>
<text xml:space="preserve" text-anchor="middle" x="953.5" y="-517" font-family="Helvetica,sans-Serif" font-size="10.00">::_resize</text>
</a>
</g>
</g>
<!-- Node7&#45;&gt;Node9 -->
<g id="edge9_Node000007_Node000009" class="edge">
<title>Node7&#45;&gt;Node9</title>
<g id="a_edge9_Node000007_Node000009"><a xlink:title=" ">
<path fill="none" stroke="#63b8ff" d="M664.71,-543.5C681.28,-547.2 699.51,-550.65 716.5,-552.5 775.92,-558.99 791.69,-559.98 851,-552.5 864.96,-550.74 879.74,-547.67 893.58,-544.25"/>
<polygon fill="#63b8ff" stroke="#63b8ff" points="894.17,-547.71 902.98,-541.82 892.42,-540.93 894.17,-547.71"/>
</a>
</g>
</g>
<!-- Node11 -->
<g id="Node000011" class="node">
<title>Node11</title>
<g id="a_Node000011"><a xlink:href="classSimulation_1_1SimulationUnit.html#af5aeb9c124540ac219001b46b51b74a9" target="_top" xlink:title=" ">
<polygon fill="white" stroke="#666666" points="849.5,-449 718,-449 718,-420 849.5,-420 849.5,-449"/>
<text xml:space="preserve" text-anchor="start" x="726" y="-435.5" font-family="Helvetica,sans-Serif" font-size="10.00">Simulation::SimulationUnit</text>
<text xml:space="preserve" text-anchor="middle" x="783.75" y="-425" font-family="Helvetica,sans-Serif" font-size="10.00">::get_kernel_contribution</text>
</a>
</g>
</g>
<!-- Node10&#45;&gt;Node11 -->
<g id="edge11_Node000010_Node000011" class="edge">
<title>Node10&#45;&gt;Node11</title>
<g id="a_edge11_Node000010_Node000011"><a xlink:title=" ">
<path fill="none" stroke="#63b8ff" d="M672.99,-434.5C683.8,-434.5 695.1,-434.5 706.16,-434.5"/>
<polygon fill="#63b8ff" stroke="#63b8ff" points="706.07,-438 716.07,-434.5 706.07,-431 706.07,-438"/>
</a>
</g>
</g>
<!-- Node13 -->
<g id="Node000013" class="node">
<title>Node13</title>
<g id="a_Node000013"><a xlink:href="classMC_1_1ParticlesContainer.html#a57353f823ed074869300f29deb5c50b2" target="_top" xlink:title="Removes inactive particles from the container.">
<polygon fill="white" stroke="#666666" points="851,-496 716.5,-496 716.5,-467 851,-467 851,-496"/>
<text xml:space="preserve" text-anchor="start" x="724.5" y="-482.5" font-family="Helvetica,sans-Serif" font-size="10.00">MC::ParticlesContainer</text>
<text xml:space="preserve" text-anchor="middle" x="783.75" y="-472" font-family="Helvetica,sans-Serif" font-size="10.00">::remove_inactive_particles</text>
</a>
</g>
</g>
<!-- Node12&#45;&gt;Node13 -->
<g id="edge13_Node000012_Node000013" class="edge">
<title>Node12&#45;&gt;Node13</title>
<g id="a_edge13_Node000012_Node000013"><a xlink:title=" ">
<path fill="none" stroke="#63b8ff" d="M680.77,-481.5C688.64,-481.5 696.67,-481.5 704.6,-481.5"/>
<polygon fill="#63b8ff" stroke="#63b8ff" points="704.6,-485 714.6,-481.5 704.6,-478 704.6,-485"/>
</a>
</g>
</g>
<!-- Node13&#45;&gt;Node9 -->
<g id="edge14_Node000013_Node000009" class="edge">
<title>Node13&#45;&gt;Node9</title>
<g id="a_edge14_Node000013_Node000009"><a xlink:title=" ">
<path fill="none" stroke="#63b8ff" d="M840.61,-496.48C855.1,-500.37 870.86,-504.6 885.85,-508.62"/>
<polygon fill="#63b8ff" stroke="#63b8ff" points="884.57,-511.9 895.14,-511.11 886.39,-505.14 884.57,-511.9"/>
</a>
</g>
</g>
<!-- Node14&#45;&gt;Node14 -->
<g id="edge16_Node000014_Node000014" class="edge">
<title>Node14&#45;&gt;Node14</title>
<g id="a_edge16_Node000014_Node000014"><a xlink:title=" ">
<path fill="none" stroke="#63b8ff" d="M384.26,-431.21C376.57,-440.32 387.19,-449 416.12,-449 431.95,-449 442.29,-446.41 447.16,-442.56"/>
<polygon fill="#63b8ff" stroke="#63b8ff" points="450.65,-442.94 447.88,-432.72 443.66,-442.43 450.65,-442.94"/>
</a>
</g>
</g>
<!-- Node14&#45;&gt;Node15 -->
<g id="edge17_Node000014_Node000015" class="edge">
<title>Node14&#45;&gt;Node15</title>
<g id="a_edge17_Node000014_Node000015"><a xlink:title=" ">
<path fill="none" stroke="#63b8ff" d="M482.35,-406.48C497.52,-404.15 513.82,-401.64 529.43,-399.25"/>
<polygon fill="#63b8ff" stroke="#63b8ff" points="529.8,-402.73 539.16,-397.75 528.74,-395.81 529.8,-402.73"/>
</a>
</g>
</g>
<!-- Node15&#45;&gt;Node11 -->
<g id="edge18_Node000015_Node000011" class="edge">
<title>Node15&#45;&gt;Node11</title>
<g id="a_edge18_Node000015_Node000011"><a xlink:title=" ">
<path fill="none" stroke="#63b8ff" d="M663.21,-402.37C680.11,-406.91 698.88,-411.96 716.43,-416.68"/>
<polygon fill="#63b8ff" stroke="#63b8ff" points="715.15,-419.96 725.72,-419.17 716.97,-413.2 715.15,-419.96"/>
</a>
</g>
</g>
<!-- Node16 -->
<g id="Node000016" class="node">
<title>Node16</title>
<g id="a_Node000016"><a xlink:href="classSimulation_1_1SimulationUnit.html#a36fb635150825e63055191740edaba84" target="_top" xlink:title=" ">
<polygon fill="white" stroke="#666666" points="849.5,-402 718,-402 718,-373 849.5,-373 849.5,-402"/>
<text xml:space="preserve" text-anchor="start" x="726" y="-388.5" font-family="Helvetica,sans-Serif" font-size="10.00">Simulation::SimulationUnit</text>
<text xml:space="preserve" text-anchor="middle" x="783.75" y="-378" font-family="Helvetica,sans-Serif" font-size="10.00">::post_init_concentration</text>
</a>
</g>
</g>
<!-- Node15&#45;&gt;Node16 -->
<g id="edge19_Node000015_Node000016" class="edge">
<title>Node15&#45;&gt;Node16</title>
<g id="a_edge19_Node000015_Node000016"><a xlink:title=" ">
<path fill="none" stroke="#63b8ff" d="M672.99,-387.5C683.8,-387.5 695.1,-387.5 706.16,-387.5"/>
<polygon fill="#63b8ff" stroke="#63b8ff" points="706.07,-391 716.07,-387.5 706.07,-384 706.07,-391"/>
</a>
</g>
</g>
<!-- Node17 -->
<g id="Node000017" class="node">
<title>Node17</title>
<g id="a_Node000017"><a xlink:href="namespaceSimulation_1_1impl.html#ab56eb92724f12b4ed6c401939009519c" target="_top" xlink:title=" ">
<polygon fill="white" stroke="#666666" points="1011.38,-402 895.62,-402 895.62,-373 1011.38,-373 1011.38,-402"/>
<text xml:space="preserve" text-anchor="start" x="903.62" y="-388.5" font-family="Helvetica,sans-Serif" font-size="10.00">Simulation::impl::post</text>
<text xml:space="preserve" text-anchor="middle" x="953.5" y="-378" font-family="Helvetica,sans-Serif" font-size="10.00">_init_concentration_file</text>
</a>
</g>
</g>
<!-- Node16&#45;&gt;Node17 -->
<g id="edge20_Node000016_Node000017" class="edge">
<title>Node16&#45;&gt;Node17</title>
<g id="a_edge20_Node000016_Node000017"><a xlink:title=" ">
<path fill="none" stroke="#63b8ff" d="M849.61,-387.5C860.88,-387.5 872.63,-387.5 884,-387.5"/>
<polygon fill="#63b8ff" stroke="#63b8ff" points="883.69,-391 893.69,-387.5 883.69,-384 883.69,-391"/>
</a>
</g>
</g>
<!-- Node18 -->
<g id="Node000018" class="node">
<title>Node18</title>
<g id="a_Node000018"><a xlink:href="namespaceSimulation_1_1impl.html#ae40eba3a10cbceb62fe3e6980dcc193f" target="_top" xlink:title=" ">
<polygon fill="white" stroke="#666666" points="1020,-449 887,-449 887,-420 1020,-420 1020,-449"/>
<text xml:space="preserve" text-anchor="start" x="895" y="-435.5" font-family="Helvetica,sans-Serif" font-size="10.00">Simulation::impl::post</text>
<text xml:space="preserve" text-anchor="middle" x="953.5" y="-425" font-family="Helvetica,sans-Serif" font-size="10.00">_init_concentration_functor</text>
</a>
</g>
</g>
<!-- Node16&#45;&gt;Node18 -->
<g id="edge21_Node000016_Node000018" class="edge">
<title>Node16&#45;&gt;Node18</title>
<g id="a_edge21_Node000016_Node000018"><a xlink:title=" ">
<path fill="none" stroke="#63b8ff" d="M837.83,-402.37C853.89,-406.87 871.7,-411.86 888.41,-416.54"/>
<polygon fill="#63b8ff" stroke="#63b8ff" points="887.16,-419.83 897.73,-419.16 889.05,-413.09 887.16,-419.83"/>
</a>
</g>
</g>
<!-- Node19&#45;&gt;Node19 -->
<g id="edge23_Node000019_Node000019" class="edge">
<title>Node19&#45;&gt;Node19</title>
<g id="a_edge23_Node000019_Node000019"><a xlink:title=" ">
<path fill="none" stroke="#63b8ff" d="M204.06,-327.21C197.02,-336.32 206.75,-345 233.25,-345 247.74,-345 257.22,-342.41 261.68,-338.56"/>
<polygon fill="#63b8ff" stroke="#63b8ff" points="265.16,-338.93 262.34,-328.72 258.18,-338.46 265.16,-338.93"/>
</a>
</g>
</g>
<!-- Node21 -->
<g id="Node000021" class="node">
<title>Node21</title>
<g id="a_Node000021"><a xlink:href="classSimulation_1_1SimulationUnit.html#a4295618336e99606be4e87b31feb848a" target="_top" xlink:title=" ">
<polygon fill="white" stroke="#666666" points="481.88,-280 350.38,-280 350.38,-251 481.88,-251 481.88,-280"/>
<text xml:space="preserve" text-anchor="start" x="358.38" y="-266.5" font-family="Helvetica,sans-Serif" font-size="10.00">Simulation::SimulationUnit</text>
<text xml:space="preserve" text-anchor="middle" x="416.12" y="-256" font-family="Helvetica,sans-Serif" font-size="10.00">::getkernel_concentration</text>
</a>
</g>
</g>
<!-- Node20&#45;&gt;Node21 -->
<g id="edge25_Node000020_Node000021" class="edge">
<title>Node20&#45;&gt;Node21</title>
<g id="a_edge25_Node000020_Node000021"><a xlink:title=" ">
<path fill="none" stroke="#63b8ff" d="M299.29,-265.5C312.06,-265.5 325.57,-265.5 338.67,-265.5"/>
<polygon fill="#63b8ff" stroke="#63b8ff" points="338.54,-269 348.54,-265.5 338.54,-262 338.54,-269"/>
</a>
</g>
</g>
<!-- Node22&#45;&gt;Node22 -->
<g id="edge27_Node000022_Node000022" class="edge">
<title>Node22&#45;&gt;Node22</title>
<g id="a_edge27_Node000022_Node000022"><a xlink:title=" ">
<path fill="none" stroke="#63b8ff" d="M204.06,-215.21C197.02,-224.32 206.75,-233 233.25,-233 247.74,-233 257.22,-230.41 261.68,-226.56"/>
<polygon fill="#63b8ff" stroke="#63b8ff" points="265.16,-226.93 262.34,-216.72 258.18,-226.46 265.16,-226.93"/>
</a>
</g>
</g>
<!-- Node25 -->
<g id="Node000025" class="node">
<title>Node25</title>
<g id="a_Node000025"><a xlink:href="structSimulation_1_1Feed_1_1FeedDescriptor.html#ac9550d405d0703ac5dea2562318afa90" target="_top" xlink:title=" ">
<polygon fill="white" stroke="#666666" points="497.25,-123 335,-123 335,-94 497.25,-94 497.25,-123"/>
<text xml:space="preserve" text-anchor="start" x="343" y="-109.5" font-family="Helvetica,sans-Serif" font-size="10.00">Simulation::Feed::FeedDescriptor</text>
<text xml:space="preserve" text-anchor="middle" x="416.12" y="-99" font-family="Helvetica,sans-Serif" font-size="10.00">::update</text>
</a>
</g>
</g>
<!-- Node24&#45;&gt;Node25 -->
<g id="edge31_Node000024_Node000025" class="edge">
<title>Node24&#45;&gt;Node25</title>
<g id="a_edge31_Node000024_Node000025"><a xlink:title=" ">
<path fill="none" stroke="#63b8ff" d="M299.29,-107.22C307.07,-107.31 315.12,-107.39 323.19,-107.48"/>
<polygon fill="#63b8ff" stroke="#63b8ff" points="323.03,-110.98 333.07,-107.59 323.11,-103.98 323.03,-110.98"/>
</a>
</g>
</g>
<!-- Node26&#45;&gt;Node27 -->
<g id="edge33_Node000026_Node000027" class="edge">
<title>Node26&#45;&gt;Node27</title>
<g id="a_edge33_Node000026_Node000027"><a xlink:title=" ">
<path fill="none" stroke="#63b8ff" d="M299.29,-35.24C312.19,-38.17 325.84,-41.26 339.06,-44.26"/>
<polygon fill="#63b8ff" stroke="#63b8ff" points="338.05,-47.62 348.57,-46.41 339.6,-40.79 338.05,-47.62"/>
</a>
</g>
</g>
<!-- Node28 -->
<g id="Node000028" class="node">
<title>Node28</title>
<g id="a_Node000028"><a xlink:href="classSimulation_1_1SimulationUnit.html#a325bd66b0afbb76176a6f8c607d9902b" target="_top" xlink:title=" ">
<polygon fill="white" stroke="#666666" points="481.88,-29 350.38,-29 350.38,0 481.88,0 481.88,-29"/>
<text xml:space="preserve" text-anchor="start" x="358.38" y="-15.5" font-family="Helvetica,sans-Serif" font-size="10.00">Simulation::SimulationUnit</text>
<text xml:space="preserve" text-anchor="middle" x="416.12" y="-5" font-family="Helvetica,sans-Serif" font-size="10.00">::updateScalarHydro</text>
</a>
</g>
</g>
<!-- Node26&#45;&gt;Node28 -->
<g id="edge34_Node000026_Node000028" class="edge">
<title>Node26&#45;&gt;Node28</title>
<g id="a_edge34_Node000026_Node000028"><a xlink:title=" ">
<path fill="none" stroke="#63b8ff" d="M299.29,-18.34C312.06,-17.92 325.57,-17.47 338.67,-17.04"/>
<polygon fill="#63b8ff" stroke="#63b8ff" points="338.66,-20.54 348.54,-16.71 338.43,-13.54 338.66,-20.54"/>
</a>
</g>
</g>
</g>
</svg>

<g id="navigator" transform="translate(0 0)" fill="#404254">
  <rect fill="#f2f5e9" fill-opacity="0.5" stroke="#606060" stroke-width=".5" x="0" y="0" width="60" height="60"/>
  <use id="zoomplus" xlink:href="#zoomPlus" x="17" y="9" onmousedown="handleZoom(evt,'in')"/>
  <use id="zoomminus" xlink:href="#zoomMin" x="42" y="9" onmousedown="handleZoom(evt,'out')"/>
  <use id="reset" xlink:href="#resetDef" x="30" y="36" onmousedown="handleReset()"/>
   <use id="arrowup" xlink:href="#arrowUp" x="0" y="0" onmousedown="handlePan(0,-1)"/>
  <use id="arrowright" xlink:href="#arrowRight" x="0" y="0" onmousedown="handlePan(1,0)"/>
  <use id="arrowdown" xlink:href="#arrowDown" x="0" y="0" onmousedown="handlePan(0,1)"/>
  <use id="arrowleft" xlink:href="#arrowLeft" x="0" y="0" onmousedown="handlePan(-1,0)"/>
</g>
<svg viewBox="0 0 15 15" width="100%" height="30px" preserveAspectRatio="xMaxYMin meet">
 <g id="arrow_out" transform="scale(0.3 0.3)">
  <a xlink:href="classSimulation_1_1SimulationUnit_a255b9ef06424a104581e8aab290e8281_cgraph_org.svg" target="_base">
   <rect id="button" ry="5" rx="5" y="6" x="6" height="38" width="38"
        fill="#f2f5e9" fill-opacity="0.5" stroke="#606060" stroke-width="1.0"/>
   <path id="arrow"
     d="M 11.500037,31.436501 C 11.940474,20.09759 22.043105,11.32322 32.158766,21.979434 L 37.068811,17.246167 C 37.068811,17.246167 37.088388,32 37.088388,32 L 22.160133,31.978069 C 22.160133,31.978069 26.997745,27.140456 26.997745,27.140456 C 18.528582,18.264221 13.291696,25.230495 11.500037,31.436501 z"
     style="fill:#404040;"/>
  </a>
 </g>
</svg>

<style type='text/css'>
<![CDATA[
[data-mouse-over-selected='false'] { opacity: 0.7; }
[data-mouse-over-selected='true']  { opacity: 1.0; }
]]>
</style>
<script type="application/ecmascript"><![CDATA[
document.addEventListener('DOMContentLoaded', (event) => {
  highlightEdges();
  highlightAdjacentNodes();
});
]]></script>
</svg>
