<?xml version="1.0" encoding="UTF-8" standalone="no"?>
<!DOCTYPE svg PUBLIC "-//W3C//DTD SVG 1.1//EN"
 "http://www.w3.org/Graphics/SVG/1.1/DTD/svg11.dtd">
<!-- Generated by graphviz version 14.0.1 (0)
 -->
<!-- Title: CmaUtils::FlowMapTransitionner::update_flow_worker Pages: 1 -->
<svg width="361pt" height="149pt"
 viewBox="0.00 0.00 361.00 149.00" xmlns="http://www.w3.org/2000/svg" xmlns:xlink="http://www.w3.org/1999/xlink">
<g id="graph0" class="graph" transform="scale(1 1) rotate(0) translate(4 145)">
<title>CmaUtils::FlowMapTransitionner::update_flow_worker</title>
<!-- Node1 -->
<g id="Node000001" class="node">
<title>Node1</title>
<g id="a_Node000001"><a xlink:title="ONLY for MPI_WORKER Calculate the current state based on the selected method, may be caching or direc...">
<polygon fill="#999999" stroke="#666666" points="158.5,-76 0,-76 0,-47 158.5,-47 158.5,-76"/>
<text xml:space="preserve" text-anchor="start" x="8" y="-62.5" font-family="Helvetica,sans-Serif" font-size="10.00">CmaUtils::FlowMapTransitionner</text>
<text xml:space="preserve" text-anchor="middle" x="79.25" y="-52" font-family="Helvetica,sans-Serif" font-size="10.00">::update_flow_worker</text>
</a>
</g>
</g>
<!-- Node2 -->
<g id="Node000002" class="node">
<title>Node2</title>
<g id="a_Node000002"><a xlink:href="classCmaUtils_1_1FlowMapTransitionner.html#a33ea0931034223c04f4c1074ad1ee5aa" target="_top" xlink:title="Get current liquid state read from CmaRead.">
<polygon fill="white" stroke="#666666" points="353,-123 194.5,-123 194.5,-94 353,-94 353,-123"/>
<text xml:space="preserve" text-anchor="start" x="202.5" y="-109.5" font-family="Helvetica,sans-Serif" font-size="10.00">CmaUtils::FlowMapTransitionner</text>
<text xml:space="preserve" text-anchor="middle" x="273.75" y="-99" font-family="Helvetica,sans-Serif" font-size="10.00">::current_liq_hydro_state</text>
</a>
</g>
</g>
<!-- Node1&#45;&gt;Node2 -->
<g id="edge1_Node000001_Node000002" class="edge">
<title>Node1&#45;&gt;Node2</title>
<g id="a_edge1_Node000001_Node000002"><a xlink:title=" ">
<path fill="none" stroke="#63b8ff" d="M141.42,-76.44C160.19,-81.02 181.02,-86.1 200.46,-90.85"/>
<polygon fill="#63b8ff" stroke="#63b8ff" points="199.39,-94.19 209.94,-93.16 201.05,-87.39 199.39,-94.19"/>
</a>
</g>
</g>
<!-- Node3 -->
<g id="Node000003" class="node">
<title>Node3</title>
<g id="a_Node000003"><a xlink:href="classCmaUtils_1_1FlowMapTransitionner.html#abb98a83b7db34307ef4e59ed7e33a71a" target="_top" xlink:title="Checks whether a gas flowmap is provided.">
<polygon fill="white" stroke="#666666" points="353,-76 194.5,-76 194.5,-47 353,-47 353,-76"/>
<text xml:space="preserve" text-anchor="start" x="202.5" y="-62.5" font-family="Helvetica,sans-Serif" font-size="10.00">CmaUtils::FlowMapTransitionner</text>
<text xml:space="preserve" text-anchor="middle" x="273.75" y="-52" font-family="Helvetica,sans-Serif" font-size="10.00">::is_two_phase_flow</text>
</a>
</g>
</g>
<!-- Node1&#45;&gt;Node3 -->
<g id="edge3_Node000001_Node000003" class="edge">
<title>Node1&#45;&gt;Node3</title>
<g id="a_edge3_Node000001_Node000003"><a xlink:title=" ">
<path fill="none" stroke="#63b8ff" d="M158.82,-61.5C166.74,-61.5 174.82,-61.5 182.84,-61.5"/>
<polygon fill="#63b8ff" stroke="#63b8ff" points="182.6,-65 192.6,-61.5 182.6,-58 182.6,-65"/>
</a>
</g>
</g>
<!-- Node4 -->
<g id="Node000004" class="node">
<title>Node4</title>
<g id="a_Node000004"><a xlink:href="classCmaUtils_1_1FlowMapTransitionner.html#a2b977307d10c78474830d7776030665c" target="_top" xlink:title="Check if liquid state has to calculated or can be use via caching.">
<polygon fill="white" stroke="#666666" points="353,-29 194.5,-29 194.5,0 353,0 353,-29"/>
<text xml:space="preserve" text-anchor="start" x="202.5" y="-15.5" font-family="Helvetica,sans-Serif" font-size="10.00">CmaUtils::FlowMapTransitionner</text>
<text xml:space="preserve" text-anchor="middle" x="273.75" y="-5" font-family="Helvetica,sans-Serif" font-size="10.00">::need_liquid_state_calculation</text>
</a>
</g>
</g>
<!-- Node1&#45;&gt;Node4 -->
<g id="edge4_Node000001_Node000004" class="edge">
<title>Node1&#45;&gt;Node4</title>
<g id="a_edge4_Node000001_Node000004"><a xlink:title=" ">
<path fill="none" stroke="#63b8ff" d="M141.42,-46.56C160.19,-41.98 181.02,-36.9 200.46,-32.15"/>
<polygon fill="#63b8ff" stroke="#63b8ff" points="201.05,-35.61 209.94,-29.84 199.39,-28.81 201.05,-35.61"/>
</a>
</g>
</g>
<!-- Node2&#45;&gt;Node2 -->
<g id="edge2_Node000002_Node000002" class="edge">
<title>Node2&#45;&gt;Node2</title>
<g id="a_edge2_Node000002_Node000002"><a xlink:title=" ">
<path fill="none" stroke="#63b8ff" d="M239.85,-123.21C231.68,-132.32 242.98,-141 273.75,-141 290.58,-141 301.58,-138.41 306.76,-134.56"/>
<polygon fill="#63b8ff" stroke="#63b8ff" points="310.24,-134.96 307.53,-124.72 303.26,-134.41 310.24,-134.96"/>
</a>
</g>
</g>
</g>
</svg>
