<?xml version="1.0" encoding="UTF-8" standalone="no"?>
<!DOCTYPE svg PUBLIC "-//W3C//DTD SVG 1.1//EN"
 "http://www.w3.org/Graphics/SVG/1.1/DTD/svg11.dtd">
<!-- Generated by graphviz version 14.0.1 (0)
 -->
<!-- Title: Simulation::SimulationUnit::setVolumes Pages: 1 -->
<svg width="642pt" height="96pt"
 viewBox="0.00 0.00 642.00 96.00" xmlns="http://www.w3.org/2000/svg" xmlns:xlink="http://www.w3.org/1999/xlink">
<g id="graph0" class="graph" transform="scale(1 1) rotate(0) translate(4 92)">
<title>Simulation::SimulationUnit::setVolumes</title>
<!-- Node1 -->
<g id="Node000001" class="node">
<title>Node1</title>
<g id="a_Node000001"><a xlink:title=" ">
<polygon fill="#999999" stroke="#666666" points="634,-88 502.5,-88 502.5,-59 634,-59 634,-88"/>
<text xml:space="preserve" text-anchor="start" x="510.5" y="-74.5" font-family="Helvetica,sans-Serif" font-size="10.00">Simulation::SimulationUnit</text>
<text xml:space="preserve" text-anchor="middle" x="568.25" y="-64" font-family="Helvetica,sans-Serif" font-size="10.00">::setVolumes</text>
</a>
</g>
</g>
<!-- Node2 -->
<g id="Node000002" class="node">
<title>Node2</title>
<g id="a_Node000002"><a xlink:href="classSimulation_1_1SimulationUnit.html#adc096ee7d35524a8107a3390daa55a1a" target="_top" xlink:title=" ">
<polygon fill="white" stroke="#666666" points="131.5,-72 0,-72 0,-43 131.5,-43 131.5,-72"/>
<text xml:space="preserve" text-anchor="start" x="8" y="-58.5" font-family="Helvetica,sans-Serif" font-size="10.00">Simulation::SimulationUnit</text>
<text xml:space="preserve" text-anchor="middle" x="65.75" y="-48" font-family="Helvetica,sans-Serif" font-size="10.00">::getState</text>
</a>
</g>
</g>
<!-- Node1&#45;&gt;Node2 -->
<g id="edge1_Node000001_Node000002" class="edge">
<title>Node1&#45;&gt;Node2</title>
<g id="a_edge1_Node000001_Node000002"><a xlink:title=" ">
<path fill="none" stroke="#63b8ff" d="M490.71,-76.02C482.54,-76.22 474.35,-76.38 466.5,-76.5 333.59,-78.48 300,-80.14 167.5,-69.5 156,-68.58 143.79,-67.34 131.98,-66.01"/>
<polygon fill="#63b8ff" stroke="#63b8ff" points="490.8,-79.52 500.71,-75.76 490.62,-72.52 490.8,-79.52"/>
</a>
</g>
</g>
<!-- Node3 -->
<g id="Node000003" class="node">
<title>Node3</title>
<g id="a_Node000003"><a xlink:href="classSimulation_1_1SimulationUnit.html#a325bd66b0afbb76176a6f8c607d9902b" target="_top" xlink:title=" ">
<polygon fill="white" stroke="#666666" points="466.5,-67 335,-67 335,-38 466.5,-38 466.5,-67"/>
<text xml:space="preserve" text-anchor="start" x="343" y="-53.5" font-family="Helvetica,sans-Serif" font-size="10.00">Simulation::SimulationUnit</text>
<text xml:space="preserve" text-anchor="middle" x="400.75" y="-43" font-family="Helvetica,sans-Serif" font-size="10.00">::updateScalarHydro</text>
</a>
</g>
</g>
<!-- Node1&#45;&gt;Node3 -->
<g id="edge2_Node000001_Node000003" class="edge">
<title>Node1&#45;&gt;Node3</title>
<g id="a_edge2_Node000001_Node000003"><a xlink:title=" ">
<path fill="none" stroke="#63b8ff" d="M490.97,-63.82C482.88,-62.79 474.71,-61.76 466.77,-60.75"/>
<polygon fill="#63b8ff" stroke="#63b8ff" points="490.45,-67.28 500.81,-65.07 491.33,-60.34 490.45,-67.28"/>
</a>
</g>
</g>
<!-- Node3&#45;&gt;Node2 -->
<g id="edge3_Node000003_Node000002" class="edge">
<title>Node3&#45;&gt;Node2</title>
<g id="a_edge3_Node000003_Node000002"><a xlink:title=" ">
<path fill="none" stroke="#63b8ff" d="M323.47,-53.65C265.57,-54.51 186.82,-55.7 131.87,-56.52"/>
<polygon fill="#63b8ff" stroke="#63b8ff" points="323.29,-57.15 333.24,-53.5 323.19,-50.15 323.29,-57.15"/>
</a>
</g>
</g>
<!-- Node4 -->
<g id="Node000004" class="node">
<title>Node4</title>
<g id="a_Node000004"><a xlink:href="classSimulation_1_1SimulationUnit.html#a57624461bad4807d5cacbd7d17e49b14" target="_top" xlink:title=" ">
<polygon fill="white" stroke="#666666" points="299,-29 167.5,-29 167.5,0 299,0 299,-29"/>
<text xml:space="preserve" text-anchor="start" x="175.5" y="-15.5" font-family="Helvetica,sans-Serif" font-size="10.00">Simulation::SimulationUnit</text>
<text xml:space="preserve" text-anchor="middle" x="233.25" y="-5" font-family="Helvetica,sans-Serif" font-size="10.00">::updateHydro</text>
</a>
</g>
</g>
<!-- Node3&#45;&gt;Node4 -->
<g id="edge4_Node000003_Node000004" class="edge">
<title>Node3&#45;&gt;Node4</title>
<g id="a_edge4_Node000003_Node000004"><a xlink:title=" ">
<path fill="none" stroke="#63b8ff" d="M323.75,-35.05C315.57,-33.17 307.3,-31.27 299.27,-29.43"/>
<polygon fill="#63b8ff" stroke="#63b8ff" points="322.81,-38.43 333.34,-37.25 324.38,-31.6 322.81,-38.43"/>
</a>
</g>
</g>
<!-- Node4&#45;&gt;Node2 -->
<g id="edge5_Node000004_Node000002" class="edge">
<title>Node4&#45;&gt;Node2</title>
<g id="a_edge5_Node000004_Node000002"><a xlink:title=" ">
<path fill="none" stroke="#63b8ff" d="M163.93,-32.25C150.78,-35.67 137.12,-39.22 124.35,-42.53"/>
<polygon fill="#63b8ff" stroke="#63b8ff" points="164.57,-35.7 173.37,-29.8 162.81,-28.93 164.57,-35.7"/>
</a>
</g>
</g>
</g>
</svg>
