<?xml version="1.0" encoding="UTF-8" standalone="no"?>
<!DOCTYPE svg PUBLIC "-//W3C//DTD SVG 1.1//EN"
 "http://www.w3.org/Graphics/SVG/1.1/DTD/svg11.dtd">
<!-- Generated by graphviz version 14.0.1 (0)
 -->
<!-- Title: IO::Console::Console Pages: 1 -->
<svg width="402pt" height="111pt"
 viewBox="0.00 0.00 402.00 111.00" xmlns="http://www.w3.org/2000/svg" xmlns:xlink="http://www.w3.org/1999/xlink">

<svg id="main" version="1.1" xmlns="http://www.w3.org/2000/svg" xmlns:xlink="http://www.w3.org/1999/xlink" xml:space="preserve">

<style type="text/css"><![CDATA[
.node, .edge {opacity: 0.7;}
.node.selected, .edge.selected {opacity: 1;}
.edge:hover path { stroke: red; }
.edge:hover polygon { stroke: red; fill: red; }
]]></style>
<script type="application/ecmascript" xlink:href="svg.min.js"/>
<svg id="graph" class="graph">
<g id="graph0" class="graph" transform="scale(1 1) rotate(0) translate(4 106.75)">
<title>IO::Console::Console</title>
<!-- Node1 -->
<g id="Node000001" class="node">
<title>Node1</title>
<g id="a_Node000001"><a xlink:title=" ">
<polygon fill="#999999" stroke="#666666" points="110.5,-65.75 0,-65.75 0,-47.25 110.5,-47.25 110.5,-65.75"/>
<text xml:space="preserve" text-anchor="middle" x="55.25" y="-52.25" font-family="Helvetica,sans-Serif" font-size="10.00">IO::Console::Console</text>
</a>
</g>
</g>
<!-- Node2 -->
<g id="Node000002" class="node">
<title>Node2</title>
<g id="a_Node000002"><a xlink:href="classIO_1_1Console.html#ad8e8490ed0b1b321bb75e9702c32fb8a" target="_top" xlink:title=" ">
<polygon fill="white" stroke="#666666" points="257,-65.75 146.5,-65.75 146.5,-47.25 257,-47.25 257,-65.75"/>
<text xml:space="preserve" text-anchor="middle" x="201.75" y="-52.25" font-family="Helvetica,sans-Serif" font-size="10.00">IO::Console::Console</text>
</a>
</g>
</g>
<!-- Node1&#45;&gt;Node2 -->
<g id="edge1_Node000001_Node000002" class="edge">
<title>Node1&#45;&gt;Node2</title>
<g id="a_edge1_Node000001_Node000002"><a xlink:title=" ">
<path fill="none" stroke="#63b8ff" d="M110.88,-56.5C118.61,-56.5 126.63,-56.5 134.55,-56.5"/>
<polygon fill="#63b8ff" stroke="#63b8ff" points="134.53,-60 144.53,-56.5 134.53,-53 134.53,-60"/>
</a>
</g>
</g>
<!-- Node3 -->
<g id="Node000003" class="node">
<title>Node3</title>
<g id="a_Node000003"><a xlink:href="classIO_1_1Console.html#a3264d5b726931694ae11ab745d490300" target="_top" xlink:title=" ">
<polygon fill="white" stroke="#666666" points="390.38,-102.75 296.38,-102.75 296.38,-84.25 390.38,-84.25 390.38,-102.75"/>
<text xml:space="preserve" text-anchor="middle" x="343.38" y="-89.25" font-family="Helvetica,sans-Serif" font-size="10.00">IO::Console::alert</text>
</a>
</g>
</g>
<!-- Node2&#45;&gt;Node3 -->
<g id="edge2_Node000002_Node000003" class="edge">
<title>Node2&#45;&gt;Node3</title>
<g id="a_edge2_Node000002_Node000003"><a xlink:title=" ">
<path fill="none" stroke="#63b8ff" d="M239.43,-66.22C256.43,-70.72 276.84,-76.13 294.98,-80.94"/>
<polygon fill="#63b8ff" stroke="#63b8ff" points="293.91,-84.28 304.47,-83.46 295.7,-77.51 293.91,-84.28"/>
</a>
</g>
</g>
<!-- Node4 -->
<g id="Node000004" class="node">
<title>Node4</title>
<g id="a_Node000004"><a xlink:href="namespaceIO.html#a30cc77fc5c4d45d3b56ef6a299ce2383" target="_top" xlink:title=" ">
<polygon fill="white" stroke="#666666" points="373.5,-65.75 313.25,-65.75 313.25,-47.25 373.5,-47.25 373.5,-65.75"/>
<text xml:space="preserve" text-anchor="middle" x="343.38" y="-52.25" font-family="Helvetica,sans-Serif" font-size="10.00">IO::format</text>
</a>
</g>
</g>
<!-- Node2&#45;&gt;Node4 -->
<g id="edge3_Node000002_Node000004" class="edge">
<title>Node2&#45;&gt;Node4</title>
<g id="a_edge3_Node000002_Node000004"><a xlink:title=" ">
<path fill="none" stroke="#63b8ff" d="M257.13,-56.5C271.97,-56.5 287.78,-56.5 301.71,-56.5"/>
<polygon fill="#63b8ff" stroke="#63b8ff" points="301.39,-60 311.39,-56.5 301.39,-53 301.39,-60"/>
</a>
</g>
</g>
<!-- Node5 -->
<g id="Node000005" class="node">
<title>Node5</title>
<g id="a_Node000005"><a xlink:href="classIO_1_1Console.html#a30df9915744a57ee5a4e3d753598f5d5" target="_top" xlink:title=" ">
<polygon fill="white" stroke="#666666" points="393.75,-29 293,-29 293,0 393.75,0 393.75,-29"/>
<text xml:space="preserve" text-anchor="start" x="301" y="-15.5" font-family="Helvetica,sans-Serif" font-size="10.00">IO::Console::toggle</text>
<text xml:space="preserve" text-anchor="middle" x="343.38" y="-5" font-family="Helvetica,sans-Serif" font-size="10.00">_alert</text>
</a>
</g>
</g>
<!-- Node2&#45;&gt;Node5 -->
<g id="edge4_Node000002_Node000005" class="edge">
<title>Node2&#45;&gt;Node5</title>
<g id="a_edge4_Node000002_Node000005"><a xlink:title=" ">
<path fill="none" stroke="#63b8ff" d="M235.13,-46.76C249.01,-42.58 265.69,-37.57 281.71,-32.75"/>
<polygon fill="#63b8ff" stroke="#63b8ff" points="282.64,-36.12 291.21,-29.89 280.62,-29.42 282.64,-36.12"/>
</a>
</g>
</g>
</g>
</svg>
</svg>

<style type='text/css'>
<![CDATA[
[data-mouse-over-selected='false'] { opacity: 0.7; }
[data-mouse-over-selected='true']  { opacity: 1.0; }
]]>
</style>
<script type="application/ecmascript"><![CDATA[
document.addEventListener('DOMContentLoaded', (event) => {
  highlightEdges();
  highlightAdjacentNodes();
});
]]></script>
</svg>
