<?xml version="1.0" encoding="UTF-8" standalone="no"?>
<!DOCTYPE svg PUBLIC "-//W3C//DTD SVG 1.1//EN"
 "http://www.w3.org/Graphics/SVG/1.1/DTD/svg11.dtd">
<!-- Generated by graphviz version 14.0.1 (0)
 -->
<!-- Title: Simulation::ScalarSimulation::n_row Pages: 1 -->
<svg width="704pt" height="315pt"
 viewBox="0.00 0.00 704.00 315.00" xmlns="http://www.w3.org/2000/svg" xmlns:xlink="http://www.w3.org/1999/xlink">
<g id="graph0" class="graph" transform="scale(1 1) rotate(0) translate(4 311.11)">
<title>Simulation::ScalarSimulation::n_row</title>
<!-- Node1 -->
<g id="Node000001" class="node">
<title>Node1</title>
<g id="a_Node000001"><a xlink:title=" ">
<polygon fill="#999999" stroke="#666666" points="696.25,-89.11 555,-89.11 555,-60.11 696.25,-60.11 696.25,-89.11"/>
<text xml:space="preserve" text-anchor="start" x="563" y="-75.61" font-family="Helvetica,sans-Serif" font-size="10.00">Simulation::ScalarSimulation</text>
<text xml:space="preserve" text-anchor="middle" x="625.62" y="-65.11" font-family="Helvetica,sans-Serif" font-size="10.00">::n_row</text>
</a>
</g>
</g>
<!-- Node2 -->
<g id="Node000002" class="node">
<title>Node2</title>
<g id="a_Node000002"><a xlink:href="classSimulation_1_1ScalarSimulation.html#aa72818956090d90be703c0ba0ed932ee" target="_top" xlink:title=" ">
<polygon fill="white" stroke="#666666" points="519,-158.11 377.75,-158.11 377.75,-129.11 519,-129.11 519,-158.11"/>
<text xml:space="preserve" text-anchor="start" x="385.75" y="-144.61" font-family="Helvetica,sans-Serif" font-size="10.00">Simulation::ScalarSimulation</text>
<text xml:space="preserve" text-anchor="middle" x="448.38" y="-134.11" font-family="Helvetica,sans-Serif" font-size="10.00">::ScalarSimulation</text>
</a>
</g>
</g>
<!-- Node1&#45;&gt;Node2 -->
<g id="edge1_Node000001_Node000002" class="edge">
<title>Node1&#45;&gt;Node2</title>
<g id="a_edge1_Node000001_Node000002"><a xlink:title=" ">
<path fill="none" stroke="#63b8ff" d="M576.21,-93.68C548.17,-104.72 513.38,-118.42 487.33,-128.67"/>
<polygon fill="#63b8ff" stroke="#63b8ff" points="577.17,-97.06 585.19,-90.14 574.6,-90.55 577.17,-97.06"/>
</a>
</g>
</g>
<!-- Node4 -->
<g id="Node000004" class="node">
<title>Node4</title>
<g id="a_Node000004"><a xlink:href="classSimulation_1_1ScalarSimulation.html#a9721b2cf4617bf55c133b7b1527a8879" target="_top" xlink:title=" ">
<polygon fill="white" stroke="#666666" points="141.25,-155.11 0,-155.11 0,-126.11 141.25,-126.11 141.25,-155.11"/>
<text xml:space="preserve" text-anchor="start" x="8" y="-141.61" font-family="Helvetica,sans-Serif" font-size="10.00">Simulation::ScalarSimulation</text>
<text xml:space="preserve" text-anchor="middle" x="70.62" y="-131.11" font-family="Helvetica,sans-Serif" font-size="10.00">::~ScalarSimulation</text>
</a>
</g>
</g>
<!-- Node1&#45;&gt;Node4 -->
<g id="edge10_Node000001_Node000004" class="edge">
<title>Node1&#45;&gt;Node4</title>
<g id="a_edge10_Node000001_Node000004"><a xlink:title=" ">
<path fill="none" stroke="#63b8ff" d="M579.41,-55.44C496.03,-23.11 314.1,33.15 177.25,-26.61 130.27,-47.13 94.84,-99.99 79.7,-125.88"/>
<polygon fill="#63b8ff" stroke="#63b8ff" points="578.04,-58.66 588.62,-59.08 580.61,-52.15 578.04,-58.66"/>
</a>
</g>
</g>
<!-- Node3 -->
<g id="Node000003" class="node">
<title>Node3</title>
<g id="a_Node000003"><a xlink:href="classSimulation_1_1ScalarSimulation.html#ae2625817dffc02083227be2b82dfe534" target="_top" xlink:title=" ">
<polygon fill="white" stroke="#666666" points="330.12,-289.11 188.88,-289.11 188.88,-260.11 330.12,-260.11 330.12,-289.11"/>
<text xml:space="preserve" text-anchor="start" x="196.88" y="-275.61" font-family="Helvetica,sans-Serif" font-size="10.00">Simulation::ScalarSimulation</text>
<text xml:space="preserve" text-anchor="middle" x="259.5" y="-265.11" font-family="Helvetica,sans-Serif" font-size="10.00">::getConcentrationArray</text>
</a>
</g>
</g>
<!-- Node2&#45;&gt;Node3 -->
<g id="edge2_Node000002_Node000003" class="edge">
<title>Node2&#45;&gt;Node3</title>
<g id="a_edge2_Node000002_Node000003"><a xlink:title=" ">
<path fill="none" stroke="#63b8ff" d="M429.94,-167.32C410.87,-191.61 378.13,-228.83 341.75,-250.61 335.95,-254.09 329.6,-257.09 323.1,-259.68"/>
<polygon fill="#63b8ff" stroke="#63b8ff" points="432.56,-169.65 435.87,-159.59 427,-165.39 432.56,-169.65"/>
</a>
</g>
</g>
<!-- Node5 -->
<g id="Node000005" class="node">
<title>Node5</title>
<g id="a_Node000005"><a xlink:href="namespaceSimulation.html#ae5bb8948e2a0bb4f4aef277baf4c0dff" target="_top" xlink:title=" ">
<polygon fill="white" stroke="#666666" points="341.75,-241.86 177.25,-241.86 177.25,-223.36 341.75,-223.36 341.75,-241.86"/>
<text xml:space="preserve" text-anchor="middle" x="259.5" y="-228.36" font-family="Helvetica,sans-Serif" font-size="10.00">Simulation::makeScalarSimulation</text>
</a>
</g>
</g>
<!-- Node2&#45;&gt;Node5 -->
<g id="edge5_Node000002_Node000005" class="edge">
<title>Node2&#45;&gt;Node5</title>
<g id="a_edge5_Node000002_Node000005"><a xlink:title=" ">
<path fill="none" stroke="#63b8ff" d="M420.91,-165.53C400.47,-181.38 370.85,-202.14 341.75,-214.61 334.05,-217.92 325.67,-220.65 317.31,-222.89"/>
<polygon fill="#63b8ff" stroke="#63b8ff" points="423.04,-168.31 428.7,-159.35 418.69,-162.82 423.04,-168.31"/>
</a>
</g>
</g>
<!-- Node6 -->
<g id="Node000006" class="node">
<title>Node6</title>
<g id="a_Node000006"><a xlink:href="classSimulation_1_1ScalarSimulation.html#a1b2df58cd259dcfc833a28fb41523483" target="_top" xlink:title=" ">
<polygon fill="white" stroke="#666666" points="330.12,-205.11 188.88,-205.11 188.88,-176.11 330.12,-176.11 330.12,-205.11"/>
<text xml:space="preserve" text-anchor="start" x="196.88" y="-191.61" font-family="Helvetica,sans-Serif" font-size="10.00">Simulation::ScalarSimulation</text>
<text xml:space="preserve" text-anchor="middle" x="259.5" y="-181.11" font-family="Helvetica,sans-Serif" font-size="10.00">::operator=</text>
</a>
</g>
</g>
<!-- Node2&#45;&gt;Node6 -->
<g id="edge6_Node000002_Node000006" class="edge">
<title>Node2&#45;&gt;Node6</title>
<g id="a_edge6_Node000002_Node000006"><a xlink:title=" ">
<path fill="none" stroke="#63b8ff" d="M376.84,-161.35C358.13,-166.06 338.11,-171.09 320.05,-175.64"/>
<polygon fill="#63b8ff" stroke="#63b8ff" points="377.68,-164.75 386.52,-158.92 375.97,-157.96 377.68,-164.75"/>
</a>
</g>
</g>
<!-- Node7 -->
<g id="Node000007" class="node">
<title>Node7</title>
<g id="a_Node000007"><a xlink:href="classSimulation_1_1ScalarSimulation.html#ad8d40e9ca3fdb498000508921375457b" target="_top" xlink:title=" ">
<polygon fill="white" stroke="#666666" points="330.12,-158.11 188.88,-158.11 188.88,-129.11 330.12,-129.11 330.12,-158.11"/>
<text xml:space="preserve" text-anchor="start" x="196.88" y="-144.61" font-family="Helvetica,sans-Serif" font-size="10.00">Simulation::ScalarSimulation</text>
<text xml:space="preserve" text-anchor="middle" x="259.5" y="-134.11" font-family="Helvetica,sans-Serif" font-size="10.00">::operator=</text>
</a>
</g>
</g>
<!-- Node2&#45;&gt;Node7 -->
<g id="edge7_Node000002_Node000007" class="edge">
<title>Node2&#45;&gt;Node7</title>
<g id="a_edge7_Node000002_Node000007"><a xlink:title=" ">
<path fill="none" stroke="#63b8ff" d="M365.99,-143.61C354.13,-143.61 342,-143.61 330.39,-143.61"/>
<polygon fill="#63b8ff" stroke="#63b8ff" points="365.74,-147.11 375.74,-143.61 365.74,-140.11 365.74,-147.11"/>
</a>
</g>
</g>
<!-- Node8 -->
<g id="Node000008" class="node">
<title>Node8</title>
<g id="a_Node000008"><a xlink:href="classSimulation_1_1ScalarSimulation.html#a5608de40ed00444c146a71642f882473" target="_top" xlink:title=" ">
<polygon fill="white" stroke="#666666" points="330.12,-111.11 188.88,-111.11 188.88,-82.11 330.12,-82.11 330.12,-111.11"/>
<text xml:space="preserve" text-anchor="start" x="196.88" y="-97.61" font-family="Helvetica,sans-Serif" font-size="10.00">Simulation::ScalarSimulation</text>
<text xml:space="preserve" text-anchor="middle" x="259.5" y="-87.11" font-family="Helvetica,sans-Serif" font-size="10.00">::ScalarSimulation</text>
</a>
</g>
</g>
<!-- Node2&#45;&gt;Node8 -->
<g id="edge8_Node000002_Node000008" class="edge">
<title>Node2&#45;&gt;Node8</title>
<g id="a_edge8_Node000002_Node000008"><a xlink:title=" ">
<path fill="none" stroke="#63b8ff" d="M376.84,-125.88C358.13,-121.17 338.11,-116.14 320.05,-111.59"/>
<polygon fill="#63b8ff" stroke="#63b8ff" points="375.97,-129.26 386.52,-128.31 377.68,-122.48 375.97,-129.26"/>
</a>
</g>
</g>
<!-- Node9 -->
<g id="Node000009" class="node">
<title>Node9</title>
<g id="a_Node000009"><a xlink:href="classSimulation_1_1ScalarSimulation.html#a165176fdcee47d58d6ad3471ada56136" target="_top" xlink:title=" ">
<polygon fill="white" stroke="#666666" points="330.12,-64.11 188.88,-64.11 188.88,-35.11 330.12,-35.11 330.12,-64.11"/>
<text xml:space="preserve" text-anchor="start" x="196.88" y="-50.61" font-family="Helvetica,sans-Serif" font-size="10.00">Simulation::ScalarSimulation</text>
<text xml:space="preserve" text-anchor="middle" x="259.5" y="-40.11" font-family="Helvetica,sans-Serif" font-size="10.00">::ScalarSimulation</text>
</a>
</g>
</g>
<!-- Node2&#45;&gt;Node9 -->
<g id="edge9_Node000002_Node000009" class="edge">
<title>Node2&#45;&gt;Node9</title>
<g id="a_edge9_Node000002_Node000009"><a xlink:title=" ">
<path fill="none" stroke="#63b8ff" d="M419.85,-122.05C399.29,-106.79 369.98,-86.77 341.75,-73.61 334.55,-70.26 326.77,-67.25 318.98,-64.59"/>
<polygon fill="#63b8ff" stroke="#63b8ff" points="417.63,-124.75 427.72,-127.99 421.84,-119.17 417.63,-124.75"/>
</a>
</g>
</g>
<!-- Node3&#45;&gt;Node3 -->
<g id="edge3_Node000003_Node000003" class="edge">
<title>Node3&#45;&gt;Node3</title>
<g id="a_edge3_Node000003_Node000003"><a xlink:title=" ">
<path fill="none" stroke="#63b8ff" d="M291.56,-300.68C286.53,-304.52 275.84,-307.11 259.5,-307.11 229.62,-307.11 218.65,-298.44 226.58,-289.32"/>
<polygon fill="#63b8ff" stroke="#63b8ff" points="295.04,-301.07 292.3,-290.83 288.06,-300.54 295.04,-301.07"/>
</a>
</g>
</g>
<!-- Node3&#45;&gt;Node4 -->
<g id="edge4_Node000003_Node000004" class="edge">
<title>Node3&#45;&gt;Node4</title>
<g id="a_edge4_Node000003_Node000004"><a xlink:title=" ">
<path fill="none" stroke="#63b8ff" d="M185.41,-255.1C182.6,-253.7 179.87,-252.21 177.25,-250.61 135.4,-225.16 98.88,-179.05 81.84,-155.43"/>
<polygon fill="#63b8ff" stroke="#63b8ff" points="183.91,-258.26 194.46,-259.14 186.76,-251.87 183.91,-258.26"/>
</a>
</g>
</g>
</g>
</svg>
