<?xml version="1.0" encoding="UTF-8" standalone="no"?>
<!DOCTYPE svg PUBLIC "-//W3C//DTD SVG 1.1//EN"
 "http://www.w3.org/Graphics/SVG/1.1/DTD/svg11.dtd">
<!-- Generated by graphviz version 14.0.1 (0)
 -->
<!-- Title: Core::GlobalInitialiser::validate_step Pages: 1 -->
<svg width="565pt" height="284pt"
 viewBox="0.00 0.00 565.00 284.00" xmlns="http://www.w3.org/2000/svg" xmlns:xlink="http://www.w3.org/1999/xlink">
<g id="graph0" class="graph" transform="scale(1 1) rotate(0) translate(4 280.14)">
<title>Core::GlobalInitialiser::validate_step</title>
<!-- Node1 -->
<g id="Node000001" class="node">
<title>Node1</title>
<g id="a_Node000001"><a xlink:title="Validates the specified initialization step and any additional steps.">
<polygon fill="#999999" stroke="#666666" points="556.75,-146.14 447,-146.14 447,-117.14 556.75,-117.14 556.75,-146.14"/>
<text xml:space="preserve" text-anchor="start" x="455" y="-132.64" font-family="Helvetica,sans-Serif" font-size="10.00">Core::GlobalInitialiser</text>
<text xml:space="preserve" text-anchor="middle" x="501.88" y="-122.14" font-family="Helvetica,sans-Serif" font-size="10.00">::validate_step</text>
</a>
</g>
</g>
<!-- Node2 -->
<g id="Node000002" class="node">
<title>Node2</title>
<g id="a_Node000002"><a xlink:href="classCore_1_1GlobalInitialiser.html#aefbbc9e413134e0e080df2218316fe63" target="_top" xlink:title="Initializes a simulation feed.">
<polygon fill="white" stroke="#666666" points="265.25,-276.14 155.5,-276.14 155.5,-247.14 265.25,-247.14 265.25,-276.14"/>
<text xml:space="preserve" text-anchor="start" x="163.5" y="-262.64" font-family="Helvetica,sans-Serif" font-size="10.00">Core::GlobalInitialiser</text>
<text xml:space="preserve" text-anchor="middle" x="210.38" y="-252.14" font-family="Helvetica,sans-Serif" font-size="10.00">::init_feed</text>
</a>
</g>
</g>
<!-- Node1&#45;&gt;Node2 -->
<g id="edge1_Node000001_Node000002" class="edge">
<title>Node1&#45;&gt;Node2</title>
<g id="a_edge1_Node000001_Node000002"><a xlink:title=" ">
<path fill="none" stroke="#63b8ff" d="M489.78,-156.8C475.87,-184.97 449.11,-229.32 411,-249.64 366.27,-273.5 307.63,-274.05 265.5,-270.11"/>
<polygon fill="#63b8ff" stroke="#63b8ff" points="492.88,-158.44 493.99,-147.91 486.55,-155.45 492.88,-158.44"/>
</a>
</g>
</g>
<!-- Node4 -->
<g id="Node000004" class="node">
<title>Node4</title>
<g id="a_Node000004"><a xlink:href="classCore_1_1GlobalInitialiser.html#a9b38d15538796d9cc115211890a6c081" target="_top" xlink:title="Initializes a Monte Carlo unit.">
<polygon fill="white" stroke="#666666" points="411,-240.14 301.25,-240.14 301.25,-211.14 411,-211.14 411,-240.14"/>
<text xml:space="preserve" text-anchor="start" x="309.25" y="-226.64" font-family="Helvetica,sans-Serif" font-size="10.00">Core::GlobalInitialiser</text>
<text xml:space="preserve" text-anchor="middle" x="356.12" y="-216.14" font-family="Helvetica,sans-Serif" font-size="10.00">::init_monte_carlo</text>
</a>
</g>
</g>
<!-- Node1&#45;&gt;Node4 -->
<g id="edge3_Node000001_Node000004" class="edge">
<title>Node1&#45;&gt;Node4</title>
<g id="a_edge3_Node000001_Node000004"><a xlink:title=" ">
<path fill="none" stroke="#63b8ff" d="M476.53,-153.8C459.15,-168.86 434.73,-188.55 411,-202.64 406.19,-205.5 400.96,-208.19 395.71,-210.66"/>
<polygon fill="#63b8ff" stroke="#63b8ff" points="478.61,-156.63 483.81,-147.39 473.99,-151.37 478.61,-156.63"/>
</a>
</g>
</g>
<!-- Node6 -->
<g id="Node000006" class="node">
<title>Node6</title>
<g id="a_Node000006"><a xlink:href="classCore_1_1GlobalInitialiser.html#aa84a61b25f475380b38306232e25aff6" target="_top" xlink:title="Initializes a scalar component of the simulation.">
<polygon fill="white" stroke="#666666" points="411,-193.14 301.25,-193.14 301.25,-164.14 411,-164.14 411,-193.14"/>
<text xml:space="preserve" text-anchor="start" x="309.25" y="-179.64" font-family="Helvetica,sans-Serif" font-size="10.00">Core::GlobalInitialiser</text>
<text xml:space="preserve" text-anchor="middle" x="356.12" y="-169.14" font-family="Helvetica,sans-Serif" font-size="10.00">::init_scalar</text>
</a>
</g>
</g>
<!-- Node1&#45;&gt;Node6 -->
<g id="edge7_Node000001_Node000006" class="edge">
<title>Node1&#45;&gt;Node6</title>
<g id="a_edge7_Node000001_Node000006"><a xlink:title=" ">
<path fill="none" stroke="#63b8ff" d="M444.52,-150.07C430.69,-154.59 416.06,-159.37 402.81,-163.71"/>
<polygon fill="#63b8ff" stroke="#63b8ff" points="445.54,-153.42 453.95,-146.99 443.36,-146.77 445.54,-153.42"/>
</a>
</g>
</g>
<!-- Node7 -->
<g id="Node000007" class="node">
<title>Node7</title>
<g id="a_Node000007"><a xlink:href="classCore_1_1GlobalInitialiser.html#a6c679d3dc5f4ee98dfd9ed4c35092f1c" target="_top" xlink:title=" ">
<polygon fill="white" stroke="#666666" points="411,-146.14 301.25,-146.14 301.25,-117.14 411,-117.14 411,-146.14"/>
<text xml:space="preserve" text-anchor="start" x="309.25" y="-132.64" font-family="Helvetica,sans-Serif" font-size="10.00">Core::GlobalInitialiser</text>
<text xml:space="preserve" text-anchor="middle" x="356.12" y="-122.14" font-family="Helvetica,sans-Serif" font-size="10.00">::init_scalar</text>
</a>
</g>
</g>
<!-- Node1&#45;&gt;Node7 -->
<g id="edge9_Node000001_Node000007" class="edge">
<title>Node1&#45;&gt;Node7</title>
<g id="a_edge9_Node000001_Node000007"><a xlink:title=" ">
<path fill="none" stroke="#63b8ff" d="M435.22,-131.64C427.14,-131.64 418.95,-131.64 411.07,-131.64"/>
<polygon fill="#63b8ff" stroke="#63b8ff" points="435.02,-135.14 445.02,-131.64 435.02,-128.14 435.02,-135.14"/>
</a>
</g>
</g>
<!-- Node8 -->
<g id="Node000008" class="node">
<title>Node8</title>
<g id="a_Node000008"><a xlink:href="classCore_1_1GlobalInitialiser.html#afa96dd38c29284ca8a70bdb67017c70b" target="_top" xlink:title="Initializes a simulation unit with specified parameters.">
<polygon fill="white" stroke="#666666" points="411,-99.14 301.25,-99.14 301.25,-70.14 411,-70.14 411,-99.14"/>
<text xml:space="preserve" text-anchor="start" x="309.25" y="-85.64" font-family="Helvetica,sans-Serif" font-size="10.00">Core::GlobalInitialiser</text>
<text xml:space="preserve" text-anchor="middle" x="356.12" y="-75.14" font-family="Helvetica,sans-Serif" font-size="10.00">::init_simulation</text>
</a>
</g>
</g>
<!-- Node1&#45;&gt;Node8 -->
<g id="edge10_Node000001_Node000008" class="edge">
<title>Node1&#45;&gt;Node8</title>
<g id="a_edge10_Node000001_Node000008"><a xlink:title=" ">
<path fill="none" stroke="#63b8ff" d="M444.52,-113.22C430.69,-108.7 416.06,-103.91 402.81,-99.58"/>
<polygon fill="#63b8ff" stroke="#63b8ff" points="443.36,-116.52 453.95,-116.3 445.54,-109.87 443.36,-116.52"/>
</a>
</g>
</g>
<!-- Node9 -->
<g id="Node000009" class="node">
<title>Node9</title>
<g id="a_Node000009"><a xlink:href="classCore_1_1GlobalInitialiser.html#a97eff5566ced6ba6449eb532f0babadc" target="_top" xlink:title="Initializes a flow iterator.">
<polygon fill="white" stroke="#666666" points="411,-52.14 301.25,-52.14 301.25,-23.14 411,-23.14 411,-52.14"/>
<text xml:space="preserve" text-anchor="start" x="309.25" y="-38.64" font-family="Helvetica,sans-Serif" font-size="10.00">Core::GlobalInitialiser</text>
<text xml:space="preserve" text-anchor="middle" x="356.12" y="-28.14" font-family="Helvetica,sans-Serif" font-size="10.00">::init_state</text>
</a>
</g>
</g>
<!-- Node1&#45;&gt;Node9 -->
<g id="edge11_Node000001_Node000009" class="edge">
<title>Node1&#45;&gt;Node9</title>
<g id="a_edge11_Node000001_Node000009"><a xlink:title=" ">
<path fill="none" stroke="#63b8ff" d="M475.77,-109.4C458.38,-94.68 434.25,-75.59 411,-61.64 405.64,-58.43 399.78,-55.39 393.96,-52.61"/>
<polygon fill="#63b8ff" stroke="#63b8ff" points="473.2,-111.8 483.06,-115.66 477.76,-106.49 473.2,-111.8"/>
</a>
</g>
</g>
<!-- Node10 -->
<g id="Node000010" class="node">
<title>Node10</title>
<g id="a_Node000010"><a xlink:href="classCore_1_1GlobalInitialiser.html#a0dc2da93c4202706b5f37453f355145c" target="_top" xlink:title="Initializes a transitioner with the provided flow iterator.">
<polygon fill="white" stroke="#666666" points="265.25,-52.14 155.5,-52.14 155.5,-23.14 265.25,-23.14 265.25,-52.14"/>
<text xml:space="preserve" text-anchor="start" x="163.5" y="-38.64" font-family="Helvetica,sans-Serif" font-size="10.00">Core::GlobalInitialiser</text>
<text xml:space="preserve" text-anchor="middle" x="210.38" y="-28.14" font-family="Helvetica,sans-Serif" font-size="10.00">::init_transitionner</text>
</a>
</g>
</g>
<!-- Node1&#45;&gt;Node10 -->
<g id="edge14_Node000001_Node000010" class="edge">
<title>Node1&#45;&gt;Node10</title>
<g id="a_edge14_Node000001_Node000010"><a xlink:title=" ">
<path fill="none" stroke="#63b8ff" d="M490.21,-106.52C476.55,-77.99 449.91,-32.92 411,-13.64 357.51,12.85 286.41,-6.76 245.09,-22.7"/>
<polygon fill="#63b8ff" stroke="#63b8ff" points="486.99,-107.89 494.33,-115.53 493.35,-104.98 486.99,-107.89"/>
</a>
</g>
</g>
<!-- Node3 -->
<g id="Node000003" class="node">
<title>Node3</title>
<g id="a_Node000003"><a xlink:href="structApi_1_1SimulationInstance.html#ae9bdd54076170f50eadcb7966d64c19d" target="_top" xlink:title="Apply the simulation configuration and prepare for execution.">
<polygon fill="white" stroke="#666666" points="119.5,-199.14 0,-199.14 0,-170.14 119.5,-170.14 119.5,-199.14"/>
<text xml:space="preserve" text-anchor="start" x="8" y="-185.64" font-family="Helvetica,sans-Serif" font-size="10.00">Api::SimulationInstance</text>
<text xml:space="preserve" text-anchor="middle" x="59.75" y="-175.14" font-family="Helvetica,sans-Serif" font-size="10.00">::apply</text>
</a>
</g>
</g>
<!-- Node2&#45;&gt;Node3 -->
<g id="edge2_Node000002_Node000003" class="edge">
<title>Node2&#45;&gt;Node3</title>
<g id="a_edge2_Node000002_Node000003"><a xlink:title=" ">
<path fill="none" stroke="#63b8ff" d="M170.69,-241.6C145.31,-228.45 112.67,-211.54 89.57,-199.58"/>
<polygon fill="#63b8ff" stroke="#63b8ff" points="168.89,-244.61 179.37,-246.1 172.11,-238.39 168.89,-244.61"/>
</a>
</g>
</g>
<!-- Node5 -->
<g id="Node000005" class="node">
<title>Node5</title>
<g id="a_Node000005"><a xlink:href="classCore_1_1GlobalInitialiser.html#a00d0e7a7d549bf06886dfc3ba9de3e3d" target="_top" xlink:title="Initializes a simulation unit.">
<polygon fill="white" stroke="#666666" points="265.25,-199.14 155.5,-199.14 155.5,-170.14 265.25,-170.14 265.25,-199.14"/>
<text xml:space="preserve" text-anchor="start" x="163.5" y="-185.64" font-family="Helvetica,sans-Serif" font-size="10.00">Core::GlobalInitialiser</text>
<text xml:space="preserve" text-anchor="middle" x="210.38" y="-175.14" font-family="Helvetica,sans-Serif" font-size="10.00">::init_simulation</text>
</a>
</g>
</g>
<!-- Node4&#45;&gt;Node5 -->
<g id="edge4_Node000004_Node000005" class="edge">
<title>Node4&#45;&gt;Node5</title>
<g id="a_edge4_Node000004_Node000005"><a xlink:title=" ">
<path fill="none" stroke="#63b8ff" d="M291.95,-207.62C282.58,-204.95 273,-202.22 263.88,-199.62"/>
<polygon fill="#63b8ff" stroke="#63b8ff" points="290.79,-210.93 301.37,-210.31 292.71,-204.2 290.79,-210.93"/>
</a>
</g>
</g>
<!-- Node5&#45;&gt;Node3 -->
<g id="edge5_Node000005_Node000003" class="edge">
<title>Node5&#45;&gt;Node3</title>
<g id="a_edge5_Node000005_Node000003"><a xlink:title=" ">
<path fill="none" stroke="#63b8ff" d="M144.04,-184.64C135.97,-184.64 127.77,-184.64 119.81,-184.64"/>
<polygon fill="#63b8ff" stroke="#63b8ff" points="143.78,-188.14 153.78,-184.64 143.78,-181.14 143.78,-188.14"/>
</a>
</g>
</g>
<!-- Node5&#45;&gt;Node5 -->
<g id="edge6_Node000005_Node000005" class="edge">
<title>Node5&#45;&gt;Node5</title>
<g id="a_edge6_Node000005_Node000005"><a xlink:title=" ">
<path fill="none" stroke="#63b8ff" d="M235.11,-210.71C231.23,-214.55 222.98,-217.14 210.38,-217.14 187.32,-217.14 178.85,-208.47 184.98,-199.35"/>
<polygon fill="#63b8ff" stroke="#63b8ff" points="238.6,-211.05 235.69,-200.86 231.61,-210.64 238.6,-211.05"/>
</a>
</g>
</g>
<!-- Node6&#45;&gt;Node5 -->
<g id="edge8_Node000006_Node000005" class="edge">
<title>Node6&#45;&gt;Node5</title>
<g id="a_edge8_Node000006_Node000005"><a xlink:title=" ">
<path fill="none" stroke="#63b8ff" d="M289.47,-181.38C281.39,-181.72 273.2,-182.06 265.32,-182.39"/>
<polygon fill="#63b8ff" stroke="#63b8ff" points="289.42,-184.89 299.27,-180.98 289.13,-177.9 289.42,-184.89"/>
</a>
</g>
</g>
<!-- Node9&#45;&gt;Node10 -->
<g id="edge12_Node000009_Node000010" class="edge">
<title>Node9&#45;&gt;Node10</title>
<g id="a_edge12_Node000009_Node000010"><a xlink:title=" ">
<path fill="none" stroke="#63b8ff" d="M289.47,-37.64C281.39,-37.64 273.2,-37.64 265.32,-37.64"/>
<polygon fill="#63b8ff" stroke="#63b8ff" points="289.27,-41.14 299.27,-37.64 289.27,-34.14 289.27,-41.14"/>
</a>
</g>
</g>
<!-- Node10&#45;&gt;Node3 -->
<g id="edge13_Node000010_Node000003" class="edge">
<title>Node10&#45;&gt;Node3</title>
<g id="a_edge13_Node000010_Node000003"><a xlink:title=" ">
<path fill="none" stroke="#63b8ff" d="M186.27,-60.49C155.5,-90.93 101.92,-143.92 75.86,-169.7"/>
<polygon fill="#63b8ff" stroke="#63b8ff" points="188.58,-63.13 193.23,-53.61 183.66,-58.16 188.58,-63.13"/>
</a>
</g>
</g>
</g>
</svg>
