<?xml version="1.0" encoding="UTF-8" standalone="no"?>
<!DOCTYPE svg PUBLIC "-//W3C//DTD SVG 1.1//EN"
 "http://www.w3.org/Graphics/SVG/1.1/DTD/svg11.dtd">
<!-- Generated by graphviz version 14.0.1 (0)
 -->
<!-- Title: Simulation::SimulationUnit::getDimensions Pages: 1 -->
<svg width="307pt" height="84pt"
 viewBox="0.00 0.00 307.00 84.00" xmlns="http://www.w3.org/2000/svg" xmlns:xlink="http://www.w3.org/1999/xlink">
<g id="graph0" class="graph" transform="scale(1 1) rotate(0) translate(4 80)">
<title>Simulation::SimulationUnit::getDimensions</title>
<!-- Node1 -->
<g id="Node000001" class="node">
<title>Node1</title>
<g id="a_Node000001"><a xlink:title=" ">
<polygon fill="#999999" stroke="#666666" points="299,-52 167.5,-52 167.5,-23 299,-23 299,-52"/>
<text xml:space="preserve" text-anchor="start" x="175.5" y="-38.5" font-family="Helvetica,sans-Serif" font-size="10.00">Simulation::SimulationUnit</text>
<text xml:space="preserve" text-anchor="middle" x="233.25" y="-28" font-family="Helvetica,sans-Serif" font-size="10.00">::getDimensions</text>
</a>
</g>
</g>
<!-- Node2 -->
<g id="Node000002" class="node">
<title>Node2</title>
<g id="a_Node000002"><a xlink:href="classSimulation_1_1SimulationUnit.html#a6f98af5385cda0210db8895f7725ea8f" target="_top" xlink:title=" ">
<polygon fill="white" stroke="#666666" points="131.5,-76 0,-76 0,-47 131.5,-47 131.5,-76"/>
<text xml:space="preserve" text-anchor="start" x="8" y="-62.5" font-family="Helvetica,sans-Serif" font-size="10.00">Simulation::SimulationUnit</text>
<text xml:space="preserve" text-anchor="middle" x="65.75" y="-52" font-family="Helvetica,sans-Serif" font-size="10.00">::reduceContribs</text>
</a>
</g>
</g>
<!-- Node1&#45;&gt;Node2 -->
<g id="edge1_Node000001_Node000002" class="edge">
<title>Node1&#45;&gt;Node2</title>
<g id="a_edge1_Node000001_Node000002"><a xlink:title=" ">
<path fill="none" stroke="#63b8ff" d="M155.97,-48.56C147.88,-49.73 139.71,-50.92 131.77,-52.07"/>
<polygon fill="#63b8ff" stroke="#63b8ff" points="156.42,-52.03 165.82,-47.13 155.42,-45.11 156.42,-52.03"/>
</a>
</g>
</g>
<!-- Node3 -->
<g id="Node000003" class="node">
<title>Node3</title>
<g id="a_Node000003"><a xlink:href="classCore_1_1MainExporter.html#ac2c33b07c7eb59392ad524a9b48b0312" target="_top" xlink:title="Writes final simulation data to the output.">
<polygon fill="white" stroke="#666666" points="116.5,-29 15,-29 15,0 116.5,0 116.5,-29"/>
<text xml:space="preserve" text-anchor="start" x="23" y="-15.5" font-family="Helvetica,sans-Serif" font-size="10.00">Core::MainExporter</text>
<text xml:space="preserve" text-anchor="middle" x="65.75" y="-5" font-family="Helvetica,sans-Serif" font-size="10.00">::write_final</text>
</a>
</g>
</g>
<!-- Node1&#45;&gt;Node3 -->
<g id="edge2_Node000001_Node000003" class="edge">
<title>Node1&#45;&gt;Node3</title>
<g id="a_edge2_Node000001_Node000003"><a xlink:title=" ">
<path fill="none" stroke="#63b8ff" d="M156.2,-26.93C142.88,-25.08 129.31,-23.19 116.91,-21.47"/>
<polygon fill="#63b8ff" stroke="#63b8ff" points="155.43,-30.36 165.82,-28.27 156.39,-23.42 155.43,-30.36"/>
</a>
</g>
</g>
</g>
</svg>
