<?xml version="1.0" encoding="UTF-8" standalone="no"?>
<!DOCTYPE svg PUBLIC "-//W3C//DTD SVG 1.1//EN"
 "http://www.w3.org/Graphics/SVG/1.1/DTD/svg11.dtd">
<!-- Generated by graphviz version 14.0.1 (0)
 -->
<!-- Title: ExportHandler::operator() Pages: 1 -->
<svg width="639pt" height="309pt"
 viewBox="0.00 0.00 639.00 309.00" xmlns="http://www.w3.org/2000/svg" xmlns:xlink="http://www.w3.org/1999/xlink">
<g id="graph0" class="graph" transform="scale(1 1) rotate(0) translate(4 305)">
<title>ExportHandler::operator()</title>
<!-- Node1 -->
<g id="Node000001" class="node">
<title>Node1</title>
<g id="a_Node000001"><a xlink:title="Handles periodic export of simulation data.">
<polygon fill="#999999" stroke="#666666" points="126.25,-159.75 0,-159.75 0,-141.25 126.25,-141.25 126.25,-159.75"/>
<text xml:space="preserve" text-anchor="middle" x="63.12" y="-146.25" font-family="Helvetica,sans-Serif" font-size="10.00">ExportHandler::operator()</text>
</a>
</g>
</g>
<!-- Node2 -->
<g id="Node000002" class="node">
<title>Node2</title>
<g id="a_Node000002"><a xlink:href="classSimulation_1_1SimulationUnit.html#abee4f5b8a764dc6655ee5a91fcab7080" target="_top" xlink:title=" ">
<polygon fill="white" stroke="#666666" points="310.25,-301 178.75,-301 178.75,-272 310.25,-272 310.25,-301"/>
<text xml:space="preserve" text-anchor="start" x="186.75" y="-287.5" font-family="Helvetica,sans-Serif" font-size="10.00">Simulation::SimulationUnit</text>
<text xml:space="preserve" text-anchor="middle" x="244.5" y="-277" font-family="Helvetica,sans-Serif" font-size="10.00">::getCgasData</text>
</a>
</g>
</g>
<!-- Node1&#45;&gt;Node2 -->
<g id="edge1_Node000001_Node000002" class="edge">
<title>Node1&#45;&gt;Node2</title>
<g id="a_edge1_Node000001_Node000002"><a xlink:title=" ">
<path fill="none" stroke="#63b8ff" d="M69.66,-160.03C82.82,-181.81 118.16,-235.5 162.25,-263.5 164.23,-264.76 166.28,-265.95 168.39,-267.08"/>
<polygon fill="#63b8ff" stroke="#63b8ff" points="166.67,-270.13 177.2,-271.25 169.66,-263.81 166.67,-270.13"/>
</a>
</g>
</g>
<!-- Node3 -->
<g id="Node000003" class="node">
<title>Node3</title>
<g id="a_Node000003"><a xlink:href="classSimulation_1_1SimulationUnit.html#a3d0ee29e0a425f79fa8cbc620d2abb99" target="_top" xlink:title=" ">
<polygon fill="white" stroke="#666666" points="310.25,-254 178.75,-254 178.75,-225 310.25,-225 310.25,-254"/>
<text xml:space="preserve" text-anchor="start" x="186.75" y="-240.5" font-family="Helvetica,sans-Serif" font-size="10.00">Simulation::SimulationUnit</text>
<text xml:space="preserve" text-anchor="middle" x="244.5" y="-230" font-family="Helvetica,sans-Serif" font-size="10.00">::getCliqData</text>
</a>
</g>
</g>
<!-- Node1&#45;&gt;Node3 -->
<g id="edge2_Node000001_Node000003" class="edge">
<title>Node1&#45;&gt;Node3</title>
<g id="a_edge2_Node000001_Node000003"><a xlink:title=" ">
<path fill="none" stroke="#63b8ff" d="M75.78,-160.15C93.44,-174.35 128.53,-200.87 162.25,-216.5 165.51,-218.01 168.89,-219.44 172.33,-220.8"/>
<polygon fill="#63b8ff" stroke="#63b8ff" points="170.81,-223.97 181.4,-224.11 173.21,-217.39 170.81,-223.97"/>
</a>
</g>
</g>
<!-- Node4 -->
<g id="Node000004" class="node">
<title>Node4</title>
<g id="a_Node000004"><a xlink:href="classSimulation_1_1SimulationUnit.html#a95e094f9921c520f4a41e3b9a308b187" target="_top" xlink:title=" ">
<polygon fill="white" stroke="#666666" points="310.25,-207 178.75,-207 178.75,-178 310.25,-178 310.25,-207"/>
<text xml:space="preserve" text-anchor="start" x="186.75" y="-193.5" font-family="Helvetica,sans-Serif" font-size="10.00">Simulation::SimulationUnit</text>
<text xml:space="preserve" text-anchor="middle" x="244.5" y="-183" font-family="Helvetica,sans-Serif" font-size="10.00">::getMTRData</text>
</a>
</g>
</g>
<!-- Node1&#45;&gt;Node4 -->
<g id="edge3_Node000001_Node000004" class="edge">
<title>Node1&#45;&gt;Node4</title>
<g id="a_edge3_Node000001_Node000004"><a xlink:title=" ">
<path fill="none" stroke="#63b8ff" d="M105.73,-160.24C124.41,-164.62 147.05,-169.92 168.53,-174.95"/>
<polygon fill="#63b8ff" stroke="#63b8ff" points="167.62,-178.33 178.15,-177.2 169.22,-171.51 167.62,-178.33"/>
</a>
</g>
</g>
<!-- Node5 -->
<g id="Node000005" class="node">
<title>Node5</title>
<g id="a_Node000005"><a xlink:href="classExportHandler.html#ad87b1d6ff0f86388337aae6b325ea796" target="_top" xlink:title="Prepares the event span if the event counter is enabled.">
<polygon fill="white" stroke="#666666" points="326.75,-159.75 162.25,-159.75 162.25,-141.25 326.75,-141.25 326.75,-159.75"/>
<text xml:space="preserve" text-anchor="middle" x="244.5" y="-146.25" font-family="Helvetica,sans-Serif" font-size="10.00">ExportHandler::prepareEventSpan</text>
</a>
</g>
</g>
<!-- Node1&#45;&gt;Node5 -->
<g id="edge4_Node000001_Node000005" class="edge">
<title>Node1&#45;&gt;Node5</title>
<g id="a_edge4_Node000001_Node000005"><a xlink:title=" ">
<path fill="none" stroke="#63b8ff" d="M126.61,-150.5C134.38,-150.5 142.44,-150.5 150.54,-150.5"/>
<polygon fill="#63b8ff" stroke="#63b8ff" points="150.48,-154 160.48,-150.5 150.48,-147 150.48,-154"/>
</a>
</g>
</g>
<!-- Node6 -->
<g id="Node000006" class="node">
<title>Node6</title>
<g id="a_Node000006"><a xlink:href="namespacePostProcessing.html#a9ff9231cbdf2a3c4e539c4638aba2445" target="_top" xlink:title=" ">
<polygon fill="white" stroke="#666666" points="300.12,-123 188.88,-123 188.88,-94 300.12,-94 300.12,-123"/>
<text xml:space="preserve" text-anchor="start" x="196.88" y="-109.5" font-family="Helvetica,sans-Serif" font-size="10.00">PostProcessing::save</text>
<text xml:space="preserve" text-anchor="middle" x="244.5" y="-99" font-family="Helvetica,sans-Serif" font-size="10.00">_particle_state</text>
</a>
</g>
</g>
<!-- Node1&#45;&gt;Node6 -->
<g id="edge5_Node000001_Node000006" class="edge">
<title>Node1&#45;&gt;Node6</title>
<g id="a_edge5_Node000001_Node000006"><a xlink:title=" ">
<path fill="none" stroke="#63b8ff" d="M105.73,-140.76C126.99,-135.78 153.38,-129.6 177.35,-123.99"/>
<polygon fill="#63b8ff" stroke="#63b8ff" points="178.11,-127.41 187.05,-121.72 176.52,-120.59 178.11,-127.41"/>
</a>
</g>
</g>
<!-- Node7 -->
<g id="Node000007" class="node">
<title>Node7</title>
<g id="a_Node000007"><a xlink:href="namespacePostProcessing.html#a0e06c75e06cf43e767d5e3e8afab62f2" target="_top" xlink:title=" ">
<polygon fill="white" stroke="#666666" points="300.12,-76 188.88,-76 188.88,-47 300.12,-47 300.12,-76"/>
<text xml:space="preserve" text-anchor="start" x="196.88" y="-62.5" font-family="Helvetica,sans-Serif" font-size="10.00">PostProcessing::save</text>
<text xml:space="preserve" text-anchor="middle" x="244.5" y="-52" font-family="Helvetica,sans-Serif" font-size="10.00">_probes</text>
</a>
</g>
</g>
<!-- Node1&#45;&gt;Node7 -->
<g id="edge6_Node000001_Node000007" class="edge">
<title>Node1&#45;&gt;Node7</title>
<g id="a_edge6_Node000001_Node000007"><a xlink:title=" ">
<path fill="none" stroke="#63b8ff" d="M76.12,-140.82C93.94,-126.86 128.91,-101.04 162.25,-85.5 167.29,-83.15 172.61,-80.98 178.02,-78.97"/>
<polygon fill="#63b8ff" stroke="#63b8ff" points="178.76,-82.42 187.05,-75.82 176.45,-75.81 178.76,-82.42"/>
</a>
</g>
</g>
<!-- Node11 -->
<g id="Node000011" class="node">
<title>Node11</title>
<g id="a_Node000011"><a xlink:href="classCore_1_1PartialExporter.html#a450fb0c92efa4ee81b4083fc01f5e665" target="_top" xlink:title="Writes the number of particles in each compartment.">
<polygon fill="white" stroke="#666666" points="303.5,-29 185.5,-29 185.5,0 303.5,0 303.5,-29"/>
<text xml:space="preserve" text-anchor="start" x="193.5" y="-15.5" font-family="Helvetica,sans-Serif" font-size="10.00">Core::PartialExporter</text>
<text xml:space="preserve" text-anchor="middle" x="244.5" y="-5" font-family="Helvetica,sans-Serif" font-size="10.00">::write_number_particle</text>
</a>
</g>
</g>
<!-- Node1&#45;&gt;Node11 -->
<g id="edge10_Node000001_Node000011" class="edge">
<title>Node1&#45;&gt;Node11</title>
<g id="a_edge10_Node000001_Node000011"><a xlink:title=" ">
<path fill="none" stroke="#63b8ff" d="M69.91,-140.77C83.31,-119.05 118.7,-66.37 162.25,-38.5 166.22,-35.96 170.47,-33.68 174.87,-31.63"/>
<polygon fill="#63b8ff" stroke="#63b8ff" points="176.06,-34.93 183.94,-27.85 173.37,-28.47 176.06,-34.93"/>
</a>
</g>
</g>
<!-- Node8 -->
<g id="Node000008" class="node">
<title>Node8</title>
<g id="a_Node000008"><a xlink:href="classSimulation_1_1SimulationUnit.html#a0d675ed463b0caaeea75be8bd87d72cc" target="_top" xlink:title=" ">
<polygon fill="white" stroke="#666666" points="494.25,-123 362.75,-123 362.75,-94 494.25,-94 494.25,-123"/>
<text xml:space="preserve" text-anchor="start" x="370.75" y="-109.5" font-family="Helvetica,sans-Serif" font-size="10.00">Simulation::SimulationUnit</text>
<text xml:space="preserve" text-anchor="middle" x="428.5" y="-99" font-family="Helvetica,sans-Serif" font-size="10.00">::get_probes</text>
</a>
</g>
</g>
<!-- Node7&#45;&gt;Node8 -->
<g id="edge7_Node000007_Node000008" class="edge">
<title>Node7&#45;&gt;Node8</title>
<g id="a_edge7_Node000007_Node000008"><a xlink:title=" ">
<path fill="none" stroke="#63b8ff" d="M300.6,-75.73C318.79,-80.43 339.26,-85.71 358.37,-90.65"/>
<polygon fill="#63b8ff" stroke="#63b8ff" points="357.41,-94.01 367.96,-93.13 359.16,-87.24 357.41,-94.01"/>
</a>
</g>
</g>
<!-- Node9 -->
<g id="Node000009" class="node">
<title>Node9</title>
<g id="a_Node000009"><a xlink:href="classCore_1_1PartialExporter.html#a9927dbf1350349f090606134043e190c" target="_top" xlink:title="Writes probe data to the export.">
<polygon fill="white" stroke="#666666" points="483,-76 374,-76 374,-47 483,-47 483,-76"/>
<text xml:space="preserve" text-anchor="start" x="382" y="-62.5" font-family="Helvetica,sans-Serif" font-size="10.00">Core::PartialExporter</text>
<text xml:space="preserve" text-anchor="middle" x="428.5" y="-52" font-family="Helvetica,sans-Serif" font-size="10.00">::write_probe</text>
</a>
</g>
</g>
<!-- Node7&#45;&gt;Node9 -->
<g id="edge8_Node000007_Node000009" class="edge">
<title>Node7&#45;&gt;Node9</title>
<g id="a_edge8_Node000007_Node000009"><a xlink:title=" ">
<path fill="none" stroke="#63b8ff" d="M300.6,-61.5C320.02,-61.5 342.03,-61.5 362.21,-61.5"/>
<polygon fill="#63b8ff" stroke="#63b8ff" points="362.01,-65 372.01,-61.5 362.01,-58 362.01,-65"/>
</a>
</g>
</g>
<!-- Node10 -->
<g id="Node000010" class="node">
<title>Node10</title>
<g id="a_Node000010"><a xlink:href="classCore_1_1DataExporter.html#a0b0b79f3932c4eb905704a852248c857" target="_top" xlink:title=" ">
<polygon fill="white" stroke="#666666" points="631,-76 530.25,-76 530.25,-47 631,-47 631,-76"/>
<text xml:space="preserve" text-anchor="start" x="538.25" y="-62.5" font-family="Helvetica,sans-Serif" font-size="10.00">Core::DataExporter</text>
<text xml:space="preserve" text-anchor="middle" x="580.62" y="-52" font-family="Helvetica,sans-Serif" font-size="10.00">::append_array</text>
</a>
</g>
</g>
<!-- Node9&#45;&gt;Node10 -->
<g id="edge9_Node000009_Node000010" class="edge">
<title>Node9&#45;&gt;Node10</title>
<g id="a_edge9_Node000009_Node000010"><a xlink:title=" ">
<path fill="none" stroke="#63b8ff" d="M483.27,-61.5C494.88,-61.5 507.22,-61.5 519.07,-61.5"/>
<polygon fill="#63b8ff" stroke="#63b8ff" points="518.71,-65 528.71,-61.5 518.71,-58 518.71,-65"/>
</a>
</g>
</g>
<!-- Node12 -->
<g id="Node000012" class="node">
<title>Node12</title>
<g id="a_Node000012"><a xlink:href="classCore_1_1DataExporter.html#a0af9b5e13d16339af1918f8e845193f9" target="_top" xlink:title=" ">
<polygon fill="white" stroke="#666666" points="478.88,-29 378.12,-29 378.12,0 478.88,0 478.88,-29"/>
<text xml:space="preserve" text-anchor="start" x="386.12" y="-15.5" font-family="Helvetica,sans-Serif" font-size="10.00">Core::DataExporter</text>
<text xml:space="preserve" text-anchor="middle" x="428.5" y="-5" font-family="Helvetica,sans-Serif" font-size="10.00">::append_matrix</text>
</a>
</g>
</g>
<!-- Node11&#45;&gt;Node12 -->
<g id="edge11_Node000011_Node000012" class="edge">
<title>Node11&#45;&gt;Node12</title>
<g id="a_edge11_Node000011_Node000012"><a xlink:title=" ">
<path fill="none" stroke="#63b8ff" d="M303.84,-14.5C323.83,-14.5 346.26,-14.5 366.46,-14.5"/>
<polygon fill="#63b8ff" stroke="#63b8ff" points="366.23,-18 376.23,-14.5 366.23,-11 366.23,-18"/>
</a>
</g>
</g>
</g>
</svg>
