<?xml version="1.0" encoding="UTF-8" standalone="no"?>
<!DOCTYPE svg PUBLIC "-//W3C//DTD SVG 1.1//EN"
 "http://www.w3.org/Graphics/SVG/1.1/DTD/svg11.dtd">
<!-- Generated by graphviz version 14.0.1 (0)
 -->
<!-- Title: MC::ParticlesContainer::ParticlesContainer Pages: 1 -->
<svg width="433pt" height="131pt"
 viewBox="0.00 0.00 433.00 131.00" xmlns="http://www.w3.org/2000/svg" xmlns:xlink="http://www.w3.org/1999/xlink">
<g id="graph0" class="graph" transform="scale(1 1) rotate(0) translate(4 127)">
<title>MC::ParticlesContainer::ParticlesContainer</title>
<!-- Node1 -->
<g id="Node000001" class="node">
<title>Node1</title>
<g id="a_Node000001"><a xlink:title="Alias for the model used by the container.">
<polygon fill="#999999" stroke="#666666" points="118.75,-76 0,-76 0,-47 118.75,-47 118.75,-76"/>
<text xml:space="preserve" text-anchor="start" x="8" y="-62.5" font-family="Helvetica,sans-Serif" font-size="10.00">MC::ParticlesContainer</text>
<text xml:space="preserve" text-anchor="middle" x="59.38" y="-52" font-family="Helvetica,sans-Serif" font-size="10.00">::ParticlesContainer</text>
</a>
</g>
</g>
<!-- Node2 -->
<g id="Node000002" class="node">
<title>Node2</title>
<g id="a_Node000002"><a xlink:href="classMC_1_1ParticlesContainer.html#a57fa06d3225acf04522e3fc2993847f0" target="_top" xlink:title=" ">
<polygon fill="white" stroke="#666666" points="273.5,-123 154.75,-123 154.75,-94 273.5,-94 273.5,-123"/>
<text xml:space="preserve" text-anchor="start" x="162.75" y="-109.5" font-family="Helvetica,sans-Serif" font-size="10.00">MC::ParticlesContainer</text>
<text xml:space="preserve" text-anchor="middle" x="214.12" y="-99" font-family="Helvetica,sans-Serif" font-size="10.00">::__allocate_buffer__</text>
</a>
</g>
</g>
<!-- Node1&#45;&gt;Node2 -->
<g id="edge1_Node000001_Node000002" class="edge">
<title>Node1&#45;&gt;Node2</title>
<g id="a_edge1_Node000001_Node000002"><a xlink:title=" ">
<path fill="none" stroke="#63b8ff" d="M108.71,-76.37C123.05,-80.79 138.94,-85.67 153.89,-90.27"/>
<polygon fill="#63b8ff" stroke="#63b8ff" points="152.55,-93.52 163.14,-93.12 154.61,-86.83 152.55,-93.52"/>
</a>
</g>
</g>
<!-- Node3 -->
<g id="Node000003" class="node">
<title>Node3</title>
<g id="a_Node000003"><a xlink:href="classMC_1_1ParticlesContainer.html#a4fc94ae525191a5d034dce4866986c1e" target="_top" xlink:title=" ">
<polygon fill="white" stroke="#666666" points="273.5,-76 154.75,-76 154.75,-47 273.5,-47 273.5,-76"/>
<text xml:space="preserve" text-anchor="start" x="162.75" y="-62.5" font-family="Helvetica,sans-Serif" font-size="10.00">MC::ParticlesContainer</text>
<text xml:space="preserve" text-anchor="middle" x="214.12" y="-52" font-family="Helvetica,sans-Serif" font-size="10.00">::_resize</text>
</a>
</g>
</g>
<!-- Node1&#45;&gt;Node3 -->
<g id="edge2_Node000001_Node000003" class="edge">
<title>Node1&#45;&gt;Node3</title>
<g id="a_edge2_Node000001_Node000003"><a xlink:title=" ">
<path fill="none" stroke="#63b8ff" d="M119,-61.5C126.89,-61.5 135.05,-61.5 143.11,-61.5"/>
<polygon fill="#63b8ff" stroke="#63b8ff" points="142.9,-65 152.9,-61.5 142.9,-58 142.9,-65"/>
</a>
</g>
</g>
<!-- Node4 -->
<g id="Node000004" class="node">
<title>Node4</title>
<g id="a_Node000004"><a xlink:href="classMC_1_1ParticlesContainer.html#a50dddaeafcf0c527adb2a678cee3172e" target="_top" xlink:title=" ">
<polygon fill="white" stroke="#666666" points="273.5,-29 154.75,-29 154.75,0 273.5,0 273.5,-29"/>
<text xml:space="preserve" text-anchor="start" x="162.75" y="-15.5" font-family="Helvetica,sans-Serif" font-size="10.00">MC::ParticlesContainer</text>
<text xml:space="preserve" text-anchor="middle" x="214.12" y="-5" font-family="Helvetica,sans-Serif" font-size="10.00">::load_tuning_constant</text>
</a>
</g>
</g>
<!-- Node1&#45;&gt;Node4 -->
<g id="edge3_Node000001_Node000004" class="edge">
<title>Node1&#45;&gt;Node4</title>
<g id="a_edge3_Node000001_Node000004"><a xlink:title=" ">
<path fill="none" stroke="#63b8ff" d="M108.71,-46.63C123.05,-42.21 138.94,-37.33 153.89,-32.73"/>
<polygon fill="#63b8ff" stroke="#63b8ff" points="154.61,-36.17 163.14,-29.88 152.55,-29.48 154.61,-36.17"/>
</a>
</g>
</g>
<!-- Node5 -->
<g id="Node000005" class="node">
<title>Node5</title>
<g id="a_Node000005"><a xlink:href="namespaceCommon.html#a7ca16dc3314f89cd1860091731cd7014" target="_top" xlink:title="Wrapper arround get_env to get envariable with fallback to default.">
<polygon fill="white" stroke="#666666" points="424.5,-23.75 309.5,-23.75 309.5,-5.25 424.5,-5.25 424.5,-23.75"/>
<text xml:space="preserve" text-anchor="middle" x="367" y="-10.25" font-family="Helvetica,sans-Serif" font-size="10.00">Common::read_env_or</text>
</a>
</g>
</g>
<!-- Node4&#45;&gt;Node5 -->
<g id="edge4_Node000004_Node000005" class="edge">
<title>Node4&#45;&gt;Node5</title>
<g id="a_edge4_Node000004_Node000005"><a xlink:title=" ">
<path fill="none" stroke="#63b8ff" d="M273.89,-14.5C281.67,-14.5 289.7,-14.5 297.63,-14.5"/>
<polygon fill="#63b8ff" stroke="#63b8ff" points="297.62,-18 307.62,-14.5 297.62,-11 297.62,-18"/>
</a>
</g>
</g>
</g>
</svg>
