<?xml version="1.0" encoding="UTF-8" standalone="no"?>
<!DOCTYPE svg PUBLIC "-//W3C//DTD SVG 1.1//EN"
 "http://www.w3.org/Graphics/SVG/1.1/DTD/svg11.dtd">
<!-- Generated by graphviz version 14.0.1 (0)
 -->
<!-- Title: Simulation::Feed::SimulationFeed::add_feed Pages: 1 -->
<svg width="327pt" height="84pt"
 viewBox="0.00 0.00 327.00 84.00" xmlns="http://www.w3.org/2000/svg" xmlns:xlink="http://www.w3.org/1999/xlink">
<g id="graph0" class="graph" transform="scale(1 1) rotate(0) translate(4 80)">
<title>Simulation::Feed::SimulationFeed::add_feed</title>
<!-- Node1 -->
<g id="Node000001" class="node">
<title>Node1</title>
<g id="a_Node000001"><a xlink:title=" ">
<polygon fill="#999999" stroke="#666666" points="318.5,-52 177.25,-52 177.25,-23 318.5,-23 318.5,-52"/>
<text xml:space="preserve" text-anchor="start" x="185.25" y="-38.5" font-family="Helvetica,sans-Serif" font-size="10.00">Simulation::Feed::Simulation</text>
<text xml:space="preserve" text-anchor="middle" x="247.88" y="-28" font-family="Helvetica,sans-Serif" font-size="10.00">Feed::add_feed</text>
</a>
</g>
</g>
<!-- Node2 -->
<g id="Node000002" class="node">
<title>Node2</title>
<g id="a_Node000002"><a xlink:href="classSimulation_1_1Feed_1_1SimulationFeed.html#ad7afc07b815b158fa2aebe314ef1fee4" target="_top" xlink:title=" ">
<polygon fill="white" stroke="#666666" points="141.25,-76 0,-76 0,-47 141.25,-47 141.25,-76"/>
<text xml:space="preserve" text-anchor="start" x="8" y="-62.5" font-family="Helvetica,sans-Serif" font-size="10.00">Simulation::Feed::Simulation</text>
<text xml:space="preserve" text-anchor="middle" x="70.62" y="-52" font-family="Helvetica,sans-Serif" font-size="10.00">Feed::add_gas</text>
</a>
</g>
</g>
<!-- Node1&#45;&gt;Node2 -->
<g id="edge1_Node000001_Node000002" class="edge">
<title>Node1&#45;&gt;Node2</title>
<g id="a_edge1_Node000001_Node000002"><a xlink:title=" ">
<path fill="none" stroke="#63b8ff" d="M165.57,-48.63C157.54,-49.73 149.44,-50.84 141.53,-51.93"/>
<polygon fill="#63b8ff" stroke="#63b8ff" points="165.92,-52.12 175.36,-47.29 164.97,-45.18 165.92,-52.12"/>
</a>
</g>
</g>
<!-- Node3 -->
<g id="Node000003" class="node">
<title>Node3</title>
<g id="a_Node000003"><a xlink:href="classSimulation_1_1Feed_1_1SimulationFeed.html#a9667094be19d9dad5ade55954152c114" target="_top" xlink:title=" ">
<polygon fill="white" stroke="#666666" points="141.25,-29 0,-29 0,0 141.25,0 141.25,-29"/>
<text xml:space="preserve" text-anchor="start" x="8" y="-15.5" font-family="Helvetica,sans-Serif" font-size="10.00">Simulation::Feed::Simulation</text>
<text xml:space="preserve" text-anchor="middle" x="70.62" y="-5" font-family="Helvetica,sans-Serif" font-size="10.00">Feed::add_liquid</text>
</a>
</g>
</g>
<!-- Node1&#45;&gt;Node3 -->
<g id="edge2_Node000001_Node000003" class="edge">
<title>Node1&#45;&gt;Node3</title>
<g id="a_edge2_Node000001_Node000003"><a xlink:title=" ">
<path fill="none" stroke="#63b8ff" d="M165.57,-26.83C157.54,-25.78 149.44,-24.71 141.53,-23.67"/>
<polygon fill="#63b8ff" stroke="#63b8ff" points="164.98,-30.28 175.36,-28.11 165.9,-23.34 164.98,-30.28"/>
</a>
</g>
</g>
</g>
</svg>
