<?xml version="1.0" encoding="UTF-8" standalone="no"?>
<!DOCTYPE svg PUBLIC "-//W3C//DTD SVG 1.1//EN"
 "http://www.w3.org/Graphics/SVG/1.1/DTD/svg11.dtd">
<!-- Generated by graphviz version 14.0.1 (0)
 -->
<!-- Title: Simulation::Getter::getMTRData Pages: 1 -->
<svg width="265pt" height="121pt"
 viewBox="0.00 0.00 265.00 121.00" xmlns="http://www.w3.org/2000/svg" xmlns:xlink="http://www.w3.org/1999/xlink">
<g id="graph0" class="graph" transform="scale(1 1) rotate(0) translate(4 116.75)">
<title>Simulation::Getter::getMTRData</title>
<!-- Node1 -->
<g id="Node000001" class="node">
<title>Node1</title>
<g id="a_Node000001"><a xlink:title=" ">
<polygon fill="#999999" stroke="#666666" points="257,-76 162.25,-76 162.25,-47 257,-47 257,-76"/>
<text xml:space="preserve" text-anchor="start" x="170.25" y="-62.5" font-family="Helvetica,sans-Serif" font-size="10.00">Simulation::Getter</text>
<text xml:space="preserve" text-anchor="middle" x="209.62" y="-52" font-family="Helvetica,sans-Serif" font-size="10.00">::getMTRData</text>
</a>
</g>
</g>
<!-- Node2 -->
<g id="Node000002" class="node">
<title>Node2</title>
<g id="a_Node000002"><a xlink:href="classExportHandler.html#ac8574bef8f5a8eceaef5d75dbb6e3ad7" target="_top" xlink:title="Handles periodic export of simulation data.">
<polygon fill="white" stroke="#666666" points="126.25,-112.75 0,-112.75 0,-94.25 126.25,-94.25 126.25,-112.75"/>
<text xml:space="preserve" text-anchor="middle" x="63.12" y="-99.25" font-family="Helvetica,sans-Serif" font-size="10.00">ExportHandler::operator()</text>
</a>
</g>
</g>
<!-- Node1&#45;&gt;Node2 -->
<g id="edge1_Node000001_Node000002" class="edge">
<title>Node1&#45;&gt;Node2</title>
<g id="a_edge1_Node000001_Node000002"><a xlink:title=" ">
<path fill="none" stroke="#63b8ff" d="M151.16,-78.25C142.8,-80.69 134.31,-83.16 126.25,-85.5 116.98,-88.19 106.92,-91.11 97.66,-93.79"/>
<polygon fill="#63b8ff" stroke="#63b8ff" points="151.94,-81.67 160.56,-75.52 149.98,-74.95 151.94,-81.67"/>
</a>
</g>
</g>
<!-- Node3 -->
<g id="Node000003" class="node">
<title>Node3</title>
<g id="a_Node000003"><a xlink:href="classSimulation_1_1Getter.html#aaa43464497c10db193f48f4f550c4933" target="_top" xlink:title=" ">
<polygon fill="white" stroke="#666666" points="110.5,-76 15.75,-76 15.75,-47 110.5,-47 110.5,-76"/>
<text xml:space="preserve" text-anchor="start" x="23.75" y="-62.5" font-family="Helvetica,sans-Serif" font-size="10.00">Simulation::Getter</text>
<text xml:space="preserve" text-anchor="middle" x="63.12" y="-52" font-family="Helvetica,sans-Serif" font-size="10.00">::operator=</text>
</a>
</g>
</g>
<!-- Node1&#45;&gt;Node3 -->
<g id="edge2_Node000001_Node000003" class="edge">
<title>Node1&#45;&gt;Node3</title>
<g id="a_edge2_Node000001_Node000003"><a xlink:title=" ">
<path fill="none" stroke="#63b8ff" d="M150.62,-61.5C137.3,-61.5 123.31,-61.5 110.55,-61.5"/>
<polygon fill="#63b8ff" stroke="#63b8ff" points="150.6,-65 160.6,-61.5 150.6,-58 150.6,-65"/>
</a>
</g>
</g>
<!-- Node4 -->
<g id="Node000004" class="node">
<title>Node4</title>
<g id="a_Node000004"><a xlink:href="classExportHandler.html#afc7aba2b266fe47bd469b0629c949a7f" target="_top" xlink:title="Prepares and updates the exporter with the current simulation state before/after main loop.">
<polygon fill="white" stroke="#666666" points="112.38,-29 13.88,-29 13.88,0 112.38,0 112.38,-29"/>
<text xml:space="preserve" text-anchor="start" x="21.88" y="-15.5" font-family="Helvetica,sans-Serif" font-size="10.00">ExportHandler::pre</text>
<text xml:space="preserve" text-anchor="middle" x="63.12" y="-5" font-family="Helvetica,sans-Serif" font-size="10.00">_post_export</text>
</a>
</g>
</g>
<!-- Node1&#45;&gt;Node4 -->
<g id="edge3_Node000001_Node000004" class="edge">
<title>Node1&#45;&gt;Node4</title>
<g id="a_edge3_Node000001_Node000004"><a xlink:title=" ">
<path fill="none" stroke="#63b8ff" d="M151.97,-43.07C138.07,-38.55 123.37,-33.77 110.04,-29.44"/>
<polygon fill="#63b8ff" stroke="#63b8ff" points="150.87,-46.4 161.46,-46.16 153.04,-39.74 150.87,-46.4"/>
</a>
</g>
</g>
</g>
</svg>
