<?xml version="1.0" encoding="UTF-8" standalone="no"?>
<!DOCTYPE svg PUBLIC "-//W3C//DTD SVG 1.1//EN"
 "http://www.w3.org/Graphics/SVG/1.1/DTD/svg11.dtd">
<!-- Generated by graphviz version 14.0.1 (0)
 -->
<!-- Title: Simulation::ScalarSimulation::n_col Pages: 1 -->
<svg width="704pt" height="366pt"
 viewBox="0.00 0.00 704.00 366.00" xmlns="http://www.w3.org/2000/svg" xmlns:xlink="http://www.w3.org/1999/xlink">
<g id="graph0" class="graph" transform="scale(1 1) rotate(0) translate(4 362)">
<title>Simulation::ScalarSimulation::n_col</title>
<!-- Node1 -->
<g id="Node000001" class="node">
<title>Node1</title>
<g id="a_Node000001"><a xlink:title=" ">
<polygon fill="#999999" stroke="#666666" points="696.25,-72 555,-72 555,-43 696.25,-43 696.25,-72"/>
<text xml:space="preserve" text-anchor="start" x="563" y="-58.5" font-family="Helvetica,sans-Serif" font-size="10.00">Simulation::ScalarSimulation</text>
<text xml:space="preserve" text-anchor="middle" x="625.62" y="-48" font-family="Helvetica,sans-Serif" font-size="10.00">::n_col</text>
</a>
</g>
</g>
<!-- Node2 -->
<g id="Node000002" class="node">
<title>Node2</title>
<g id="a_Node000002"><a xlink:href="classSimulation_1_1ScalarSimulation.html#aa72818956090d90be703c0ba0ed932ee" target="_top" xlink:title=" ">
<polygon fill="white" stroke="#666666" points="519,-209 377.75,-209 377.75,-180 519,-180 519,-209"/>
<text xml:space="preserve" text-anchor="start" x="385.75" y="-195.5" font-family="Helvetica,sans-Serif" font-size="10.00">Simulation::ScalarSimulation</text>
<text xml:space="preserve" text-anchor="middle" x="448.38" y="-185" font-family="Helvetica,sans-Serif" font-size="10.00">::ScalarSimulation</text>
</a>
</g>
</g>
<!-- Node1&#45;&gt;Node2 -->
<g id="edge1_Node000001_Node000002" class="edge">
<title>Node1&#45;&gt;Node2</title>
<g id="a_edge1_Node000001_Node000002"><a xlink:title=" ">
<path fill="none" stroke="#63b8ff" d="M596.55,-79.44C560.63,-107.52 499.37,-155.42 468.44,-179.6"/>
<polygon fill="#63b8ff" stroke="#63b8ff" points="598.62,-82.27 604.34,-73.35 594.31,-76.76 598.62,-82.27"/>
</a>
</g>
</g>
<!-- Node4 -->
<g id="Node000004" class="node">
<title>Node4</title>
<g id="a_Node000004"><a xlink:href="classSimulation_1_1ScalarSimulation.html#a9721b2cf4617bf55c133b7b1527a8879" target="_top" xlink:title=" ">
<polygon fill="white" stroke="#666666" points="141.25,-72 0,-72 0,-43 141.25,-43 141.25,-72"/>
<text xml:space="preserve" text-anchor="start" x="8" y="-58.5" font-family="Helvetica,sans-Serif" font-size="10.00">Simulation::ScalarSimulation</text>
<text xml:space="preserve" text-anchor="middle" x="70.62" y="-48" font-family="Helvetica,sans-Serif" font-size="10.00">::~ScalarSimulation</text>
</a>
</g>
</g>
<!-- Node1&#45;&gt;Node4 -->
<g id="edge12_Node000001_Node000004" class="edge">
<title>Node1&#45;&gt;Node4</title>
<g id="a_edge12_Node000001_Node000004"><a xlink:title=" ">
<path fill="none" stroke="#63b8ff" d="M543.37,-57.5C434.75,-57.5 244.05,-57.5 141.53,-57.5"/>
<polygon fill="#63b8ff" stroke="#63b8ff" points="543.07,-61 553.07,-57.5 543.07,-54 543.07,-61"/>
</a>
</g>
</g>
<!-- Node10 -->
<g id="Node000010" class="node">
<title>Node10</title>
<g id="a_Node000010"><a xlink:href="classSimulation_1_1ScalarSimulation.html#a45bff3c267cd20371ee730cb07ba4a37" target="_top" xlink:title=" ">
<polygon fill="white" stroke="#666666" points="519,-29 377.75,-29 377.75,0 519,0 519,-29"/>
<text xml:space="preserve" text-anchor="start" x="385.75" y="-15.5" font-family="Helvetica,sans-Serif" font-size="10.00">Simulation::ScalarSimulation</text>
<text xml:space="preserve" text-anchor="middle" x="448.38" y="-5" font-family="Helvetica,sans-Serif" font-size="10.00">::setVolumes</text>
</a>
</g>
</g>
<!-- Node1&#45;&gt;Node10 -->
<g id="edge10_Node000001_Node000010" class="edge">
<title>Node1&#45;&gt;Node10</title>
<g id="a_edge10_Node000001_Node000010"><a xlink:title=" ">
<path fill="none" stroke="#63b8ff" d="M552.7,-39.85C538.64,-36.4 524.03,-32.82 510.37,-29.47"/>
<polygon fill="#63b8ff" stroke="#63b8ff" points="551.81,-43.24 562.35,-42.22 553.48,-36.44 551.81,-43.24"/>
</a>
</g>
</g>
<!-- Node3 -->
<g id="Node000003" class="node">
<title>Node3</title>
<g id="a_Node000003"><a xlink:href="classSimulation_1_1ScalarSimulation.html#ae2625817dffc02083227be2b82dfe534" target="_top" xlink:title=" ">
<polygon fill="white" stroke="#666666" points="330.12,-340 188.88,-340 188.88,-311 330.12,-311 330.12,-340"/>
<text xml:space="preserve" text-anchor="start" x="196.88" y="-326.5" font-family="Helvetica,sans-Serif" font-size="10.00">Simulation::ScalarSimulation</text>
<text xml:space="preserve" text-anchor="middle" x="259.5" y="-316" font-family="Helvetica,sans-Serif" font-size="10.00">::getConcentrationArray</text>
</a>
</g>
</g>
<!-- Node2&#45;&gt;Node3 -->
<g id="edge2_Node000002_Node000003" class="edge">
<title>Node2&#45;&gt;Node3</title>
<g id="a_edge2_Node000002_Node000003"><a xlink:title=" ">
<path fill="none" stroke="#63b8ff" d="M429.94,-218.2C410.87,-242.5 378.13,-279.72 341.75,-301.5 335.95,-304.98 329.6,-307.98 323.1,-310.56"/>
<polygon fill="#63b8ff" stroke="#63b8ff" points="432.56,-220.54 435.87,-210.48 427,-216.28 432.56,-220.54"/>
</a>
</g>
</g>
<!-- Node5 -->
<g id="Node000005" class="node">
<title>Node5</title>
<g id="a_Node000005"><a xlink:href="namespaceSimulation.html#ae5bb8948e2a0bb4f4aef277baf4c0dff" target="_top" xlink:title=" ">
<polygon fill="white" stroke="#666666" points="341.75,-292.75 177.25,-292.75 177.25,-274.25 341.75,-274.25 341.75,-292.75"/>
<text xml:space="preserve" text-anchor="middle" x="259.5" y="-279.25" font-family="Helvetica,sans-Serif" font-size="10.00">Simulation::makeScalarSimulation</text>
</a>
</g>
</g>
<!-- Node2&#45;&gt;Node5 -->
<g id="edge5_Node000002_Node000005" class="edge">
<title>Node2&#45;&gt;Node5</title>
<g id="a_edge5_Node000002_Node000005"><a xlink:title=" ">
<path fill="none" stroke="#63b8ff" d="M420.91,-216.41C400.47,-232.27 370.85,-253.03 341.75,-265.5 334.05,-268.8 325.67,-271.53 317.31,-273.78"/>
<polygon fill="#63b8ff" stroke="#63b8ff" points="423.04,-219.19 428.7,-210.24 418.69,-213.7 423.04,-219.19"/>
</a>
</g>
</g>
<!-- Node6 -->
<g id="Node000006" class="node">
<title>Node6</title>
<g id="a_Node000006"><a xlink:href="classSimulation_1_1ScalarSimulation.html#a1b2df58cd259dcfc833a28fb41523483" target="_top" xlink:title=" ">
<polygon fill="white" stroke="#666666" points="330.12,-256 188.88,-256 188.88,-227 330.12,-227 330.12,-256"/>
<text xml:space="preserve" text-anchor="start" x="196.88" y="-242.5" font-family="Helvetica,sans-Serif" font-size="10.00">Simulation::ScalarSimulation</text>
<text xml:space="preserve" text-anchor="middle" x="259.5" y="-232" font-family="Helvetica,sans-Serif" font-size="10.00">::operator=</text>
</a>
</g>
</g>
<!-- Node2&#45;&gt;Node6 -->
<g id="edge6_Node000002_Node000006" class="edge">
<title>Node2&#45;&gt;Node6</title>
<g id="a_edge6_Node000002_Node000006"><a xlink:title=" ">
<path fill="none" stroke="#63b8ff" d="M376.84,-212.24C358.13,-216.94 338.11,-221.98 320.05,-226.52"/>
<polygon fill="#63b8ff" stroke="#63b8ff" points="377.68,-215.64 386.52,-209.8 375.97,-208.85 377.68,-215.64"/>
</a>
</g>
</g>
<!-- Node7 -->
<g id="Node000007" class="node">
<title>Node7</title>
<g id="a_Node000007"><a xlink:href="classSimulation_1_1ScalarSimulation.html#ad8d40e9ca3fdb498000508921375457b" target="_top" xlink:title=" ">
<polygon fill="white" stroke="#666666" points="330.12,-209 188.88,-209 188.88,-180 330.12,-180 330.12,-209"/>
<text xml:space="preserve" text-anchor="start" x="196.88" y="-195.5" font-family="Helvetica,sans-Serif" font-size="10.00">Simulation::ScalarSimulation</text>
<text xml:space="preserve" text-anchor="middle" x="259.5" y="-185" font-family="Helvetica,sans-Serif" font-size="10.00">::operator=</text>
</a>
</g>
</g>
<!-- Node2&#45;&gt;Node7 -->
<g id="edge7_Node000002_Node000007" class="edge">
<title>Node2&#45;&gt;Node7</title>
<g id="a_edge7_Node000002_Node000007"><a xlink:title=" ">
<path fill="none" stroke="#63b8ff" d="M365.99,-194.5C354.13,-194.5 342,-194.5 330.39,-194.5"/>
<polygon fill="#63b8ff" stroke="#63b8ff" points="365.74,-198 375.74,-194.5 365.74,-191 365.74,-198"/>
</a>
</g>
</g>
<!-- Node8 -->
<g id="Node000008" class="node">
<title>Node8</title>
<g id="a_Node000008"><a xlink:href="classSimulation_1_1ScalarSimulation.html#a5608de40ed00444c146a71642f882473" target="_top" xlink:title=" ">
<polygon fill="white" stroke="#666666" points="330.12,-162 188.88,-162 188.88,-133 330.12,-133 330.12,-162"/>
<text xml:space="preserve" text-anchor="start" x="196.88" y="-148.5" font-family="Helvetica,sans-Serif" font-size="10.00">Simulation::ScalarSimulation</text>
<text xml:space="preserve" text-anchor="middle" x="259.5" y="-138" font-family="Helvetica,sans-Serif" font-size="10.00">::ScalarSimulation</text>
</a>
</g>
</g>
<!-- Node2&#45;&gt;Node8 -->
<g id="edge8_Node000002_Node000008" class="edge">
<title>Node2&#45;&gt;Node8</title>
<g id="a_edge8_Node000002_Node000008"><a xlink:title=" ">
<path fill="none" stroke="#63b8ff" d="M376.84,-176.76C358.13,-172.06 338.11,-167.02 320.05,-162.48"/>
<polygon fill="#63b8ff" stroke="#63b8ff" points="375.97,-180.15 386.52,-179.2 377.68,-173.36 375.97,-180.15"/>
</a>
</g>
</g>
<!-- Node9 -->
<g id="Node000009" class="node">
<title>Node9</title>
<g id="a_Node000009"><a xlink:href="classSimulation_1_1ScalarSimulation.html#a165176fdcee47d58d6ad3471ada56136" target="_top" xlink:title=" ">
<polygon fill="white" stroke="#666666" points="330.12,-115 188.88,-115 188.88,-86 330.12,-86 330.12,-115"/>
<text xml:space="preserve" text-anchor="start" x="196.88" y="-101.5" font-family="Helvetica,sans-Serif" font-size="10.00">Simulation::ScalarSimulation</text>
<text xml:space="preserve" text-anchor="middle" x="259.5" y="-91" font-family="Helvetica,sans-Serif" font-size="10.00">::ScalarSimulation</text>
</a>
</g>
</g>
<!-- Node2&#45;&gt;Node9 -->
<g id="edge9_Node000002_Node000009" class="edge">
<title>Node2&#45;&gt;Node9</title>
<g id="a_edge9_Node000002_Node000009"><a xlink:title=" ">
<path fill="none" stroke="#63b8ff" d="M419.85,-172.94C399.29,-157.67 369.98,-137.66 341.75,-124.5 334.55,-121.14 326.77,-118.14 318.98,-115.48"/>
<polygon fill="#63b8ff" stroke="#63b8ff" points="417.63,-175.64 427.72,-178.87 421.84,-170.05 417.63,-175.64"/>
</a>
</g>
</g>
<!-- Node3&#45;&gt;Node3 -->
<g id="edge3_Node000003_Node000003" class="edge">
<title>Node3&#45;&gt;Node3</title>
<g id="a_edge3_Node000003_Node000003"><a xlink:title=" ">
<path fill="none" stroke="#63b8ff" d="M291.56,-351.56C286.53,-355.41 275.84,-358 259.5,-358 229.62,-358 218.65,-349.32 226.58,-340.21"/>
<polygon fill="#63b8ff" stroke="#63b8ff" points="295.04,-351.95 292.3,-341.72 288.06,-351.42 295.04,-351.95"/>
</a>
</g>
</g>
<!-- Node3&#45;&gt;Node4 -->
<g id="edge4_Node000003_Node000004" class="edge">
<title>Node3&#45;&gt;Node4</title>
<g id="a_edge4_Node000003_Node000004"><a xlink:title=" ">
<path fill="none" stroke="#63b8ff" d="M181.1,-304.64C179.78,-303.64 178.49,-302.6 177.25,-301.5 104.85,-237.39 80.21,-114.8 73.65,-72.38"/>
<polygon fill="#63b8ff" stroke="#63b8ff" points="178.81,-307.33 189.13,-309.75 182.57,-301.43 178.81,-307.33"/>
</a>
</g>
</g>
<!-- Node10&#45;&gt;Node4 -->
<g id="edge11_Node000010_Node000004" class="edge">
<title>Node10&#45;&gt;Node4</title>
<g id="a_edge11_Node000010_Node000004"><a xlink:title=" ">
<path fill="none" stroke="#63b8ff" d="M366.19,-22.68C312.53,-28.23 240.65,-35.9 177.25,-43.5 165.68,-44.89 153.41,-46.44 141.48,-47.99"/>
<polygon fill="#63b8ff" stroke="#63b8ff" points="366.27,-26.2 375.85,-21.69 365.55,-19.23 366.27,-26.2"/>
</a>
</g>
</g>
</g>
</svg>
