<?xml version="1.0" encoding="UTF-8" standalone="no"?>
<!DOCTYPE svg PUBLIC "-//W3C//DTD SVG 1.1//EN"
 "http://www.w3.org/Graphics/SVG/1.1/DTD/svg11.dtd">
<!-- Generated by graphviz version 14.0.1 (0)
 -->
<!-- Title: IO::Console::operator= Pages: 1 -->
<svg width="407pt" height="129pt"
 viewBox="0.00 0.00 407.00 129.00" xmlns="http://www.w3.org/2000/svg" xmlns:xlink="http://www.w3.org/1999/xlink">
<g id="graph0" class="graph" transform="scale(1 1) rotate(0) translate(4 124.75)">
<title>IO::Console::operator=</title>
<!-- Node1 -->
<g id="Node000001" class="node">
<title>Node1</title>
<g id="a_Node000001"><a xlink:title=" ">
<polygon fill="#999999" stroke="#666666" points="115.75,-65.75 0,-65.75 0,-47.25 115.75,-47.25 115.75,-65.75"/>
<text xml:space="preserve" text-anchor="middle" x="57.88" y="-52.25" font-family="Helvetica,sans-Serif" font-size="10.00">IO::Console::operator=</text>
</a>
</g>
</g>
<!-- Node2 -->
<g id="Node000002" class="node">
<title>Node2</title>
<g id="a_Node000002"><a xlink:href="classIO_1_1Console.html#ad8e8490ed0b1b321bb75e9702c32fb8a" target="_top" xlink:title="CONSOLE.">
<polygon fill="white" stroke="#666666" points="262.25,-65.75 151.75,-65.75 151.75,-47.25 262.25,-47.25 262.25,-65.75"/>
<text xml:space="preserve" text-anchor="middle" x="207" y="-52.25" font-family="Helvetica,sans-Serif" font-size="10.00">IO::Console::Console</text>
</a>
</g>
</g>
<!-- Node1&#45;&gt;Node2 -->
<g id="edge1_Node000001_Node000002" class="edge">
<title>Node1&#45;&gt;Node2</title>
<g id="a_edge1_Node000001_Node000002"><a xlink:title=" ">
<path fill="none" stroke="#63b8ff" d="M116.18,-56.5C123.98,-56.5 132.05,-56.5 139.99,-56.5"/>
<polygon fill="#63b8ff" stroke="#63b8ff" points="139.99,-60 149.99,-56.5 139.99,-53 139.99,-60"/>
</a>
</g>
</g>
<!-- Node3 -->
<g id="Node000003" class="node">
<title>Node3</title>
<g id="a_Node000003"><a xlink:href="classIO_1_1Console.html#a6916d2842e77159b378551f044ebfd56" target="_top" xlink:title="Log an alert message with a prefix.">
<polygon fill="white" stroke="#666666" points="395.62,-120.75 301.62,-120.75 301.62,-102.25 395.62,-102.25 395.62,-120.75"/>
<text xml:space="preserve" text-anchor="middle" x="348.62" y="-107.25" font-family="Helvetica,sans-Serif" font-size="10.00">IO::Console::alert</text>
</a>
</g>
</g>
<!-- Node2&#45;&gt;Node3 -->
<g id="edge2_Node000002_Node000003" class="edge">
<title>Node2&#45;&gt;Node3</title>
<g id="a_edge2_Node000002_Node000003"><a xlink:title=" ">
<path fill="none" stroke="#63b8ff" d="M232.1,-66.21C250.26,-73.5 275.79,-83.7 298.25,-92.5 302.63,-94.22 307.23,-96 311.79,-97.77"/>
<polygon fill="#63b8ff" stroke="#63b8ff" points="310.23,-100.92 320.82,-101.25 312.75,-94.39 310.23,-100.92"/>
</a>
</g>
</g>
<!-- Node4 -->
<g id="Node000004" class="node">
<title>Node4</title>
<g id="a_Node000004"><a xlink:href="namespaceIO.html#a30cc77fc5c4d45d3b56ef6a299ce2383" target="_top" xlink:title=" ">
<polygon fill="white" stroke="#666666" points="378.75,-65.75 318.5,-65.75 318.5,-47.25 378.75,-47.25 378.75,-65.75"/>
<text xml:space="preserve" text-anchor="middle" x="348.62" y="-52.25" font-family="Helvetica,sans-Serif" font-size="10.00">IO::format</text>
</a>
</g>
</g>
<!-- Node2&#45;&gt;Node4 -->
<g id="edge3_Node000002_Node000004" class="edge">
<title>Node2&#45;&gt;Node4</title>
<g id="a_edge3_Node000002_Node000004"><a xlink:title=" ">
<path fill="none" stroke="#63b8ff" d="M262.38,-56.5C277.22,-56.5 293.03,-56.5 306.96,-56.5"/>
<polygon fill="#63b8ff" stroke="#63b8ff" points="306.64,-60 316.64,-56.5 306.64,-53 306.64,-60"/>
</a>
</g>
</g>
<!-- Node5 -->
<g id="Node000005" class="node">
<title>Node5</title>
<g id="a_Node000005"><a xlink:href="classIO_1_1Console.html#a6432a263ec2b4a3751b1776d73e2eb6b" target="_top" xlink:title="Toggle the alert logging behavior on or off.">
<polygon fill="white" stroke="#666666" points="399,-29 298.25,-29 298.25,0 399,0 399,-29"/>
<text xml:space="preserve" text-anchor="start" x="306.25" y="-15.5" font-family="Helvetica,sans-Serif" font-size="10.00">IO::Console::toggle</text>
<text xml:space="preserve" text-anchor="middle" x="348.62" y="-5" font-family="Helvetica,sans-Serif" font-size="10.00">_alert</text>
</a>
</g>
</g>
<!-- Node2&#45;&gt;Node5 -->
<g id="edge5_Node000002_Node000005" class="edge">
<title>Node2&#45;&gt;Node5</title>
<g id="a_edge5_Node000002_Node000005"><a xlink:title=" ">
<path fill="none" stroke="#63b8ff" d="M240.38,-46.76C254.26,-42.58 270.94,-37.57 286.96,-32.75"/>
<polygon fill="#63b8ff" stroke="#63b8ff" points="287.89,-36.12 296.46,-29.89 285.87,-29.42 287.89,-36.12"/>
</a>
</g>
</g>
<!-- Node4&#45;&gt;Node4 -->
<g id="edge4_Node000004_Node000004" class="edge">
<title>Node4&#45;&gt;Node4</title>
<g id="a_edge4_Node000004_Node000004"><a xlink:title=" ">
<path fill="none" stroke="#63b8ff" d="M326.8,-66C316.18,-74.57 323.45,-83.75 348.62,-83.75 362.78,-83.75 371.28,-80.84 374.12,-76.78"/>
<polygon fill="#63b8ff" stroke="#63b8ff" points="377.47,-75.77 370.94,-67.43 370.84,-78.02 377.47,-75.77"/>
</a>
</g>
</g>
</g>
</svg>
