<?xml version="1.0" encoding="UTF-8" standalone="no"?>
<!DOCTYPE svg PUBLIC "-//W3C//DTD SVG 1.1//EN"
 "http://www.w3.org/Graphics/SVG/1.1/DTD/svg11.dtd">
<!-- Generated by graphviz version 14.0.1 (0)
 -->
<!-- Title: Simulation::SimulationUnit::post_init_concentration Pages: 1 -->
<svg width="309pt" height="84pt"
 viewBox="0.00 0.00 309.00 84.00" xmlns="http://www.w3.org/2000/svg" xmlns:xlink="http://www.w3.org/1999/xlink">
<g id="graph0" class="graph" transform="scale(1 1) rotate(0) translate(4 80)">
<title>Simulation::SimulationUnit::post_init_concentration</title>
<!-- Node1 -->
<g id="Node000001" class="node">
<title>Node1</title>
<g id="a_Node000001"><a xlink:title=" ">
<polygon fill="#999999" stroke="#666666" points="131.5,-52 0,-52 0,-23 131.5,-23 131.5,-52"/>
<text xml:space="preserve" text-anchor="start" x="8" y="-38.5" font-family="Helvetica,sans-Serif" font-size="10.00">Simulation::SimulationUnit</text>
<text xml:space="preserve" text-anchor="middle" x="65.75" y="-28" font-family="Helvetica,sans-Serif" font-size="10.00">::post_init_concentration</text>
</a>
</g>
</g>
<!-- Node2 -->
<g id="Node000002" class="node">
<title>Node2</title>
<g id="a_Node000002"><a xlink:href="namespaceSimulation_1_1impl.html#ae758467dce9da6b2605e79579b54db29" target="_top" xlink:title=" ">
<polygon fill="white" stroke="#666666" points="291.88,-76 176.12,-76 176.12,-47 291.88,-47 291.88,-76"/>
<text xml:space="preserve" text-anchor="start" x="184.12" y="-62.5" font-family="Helvetica,sans-Serif" font-size="10.00">Simulation::impl::post</text>
<text xml:space="preserve" text-anchor="middle" x="234" y="-52" font-family="Helvetica,sans-Serif" font-size="10.00">_init_concentration_file</text>
</a>
</g>
</g>
<!-- Node1&#45;&gt;Node2 -->
<g id="edge1_Node000001_Node000002" class="edge">
<title>Node1&#45;&gt;Node2</title>
<g id="a_edge1_Node000001_Node000002"><a xlink:title=" ">
<path fill="none" stroke="#63b8ff" d="M131.98,-46.92C142.71,-48.47 153.87,-50.08 164.68,-51.64"/>
<polygon fill="#63b8ff" stroke="#63b8ff" points="163.89,-55.06 174.28,-53.02 164.89,-48.13 163.89,-55.06"/>
</a>
</g>
</g>
<!-- Node3 -->
<g id="Node000003" class="node">
<title>Node3</title>
<g id="a_Node000003"><a xlink:href="namespaceSimulation_1_1impl.html#a8621c7c62e95e65b4403bbf991f30719" target="_top" xlink:title=" ">
<polygon fill="white" stroke="#666666" points="300.5,-29 167.5,-29 167.5,0 300.5,0 300.5,-29"/>
<text xml:space="preserve" text-anchor="start" x="175.5" y="-15.5" font-family="Helvetica,sans-Serif" font-size="10.00">Simulation::impl::post</text>
<text xml:space="preserve" text-anchor="middle" x="234" y="-5" font-family="Helvetica,sans-Serif" font-size="10.00">_init_concentration_functor</text>
</a>
</g>
</g>
<!-- Node1&#45;&gt;Node3 -->
<g id="edge2_Node000001_Node000003" class="edge">
<title>Node1&#45;&gt;Node3</title>
<g id="a_edge2_Node000001_Node000003"><a xlink:title=" ">
<path fill="none" stroke="#63b8ff" d="M131.98,-28.48C139.83,-27.39 147.91,-26.27 155.91,-25.17"/>
<polygon fill="#63b8ff" stroke="#63b8ff" points="156.21,-28.66 165.64,-23.82 155.26,-21.72 156.21,-28.66"/>
</a>
</g>
</g>
</g>
</svg>
