<?xml version="1.0" encoding="UTF-8" standalone="no"?>
<!DOCTYPE svg PUBLIC "-//W3C//DTD SVG 1.1//EN"
 "http://www.w3.org/Graphics/SVG/1.1/DTD/svg11.dtd">
<!-- Generated by graphviz version 14.0.1 (0)
 -->
<!-- Title: MC::ParticlesContainer::clean_dead Pages: 1 -->
<svg width="625pt" height="84pt"
 viewBox="0.00 0.00 625.00 84.00" xmlns="http://www.w3.org/2000/svg" xmlns:xlink="http://www.w3.org/1999/xlink">
<g id="graph0" class="graph" transform="scale(1 1) rotate(0) translate(4 80)">
<title>MC::ParticlesContainer::clean_dead</title>
<!-- Node1 -->
<g id="Node000001" class="node">
<title>Node1</title>
<g id="a_Node000001"><a xlink:title=" ">
<polygon fill="#999999" stroke="#666666" points="616.75,-52 498,-52 498,-23 616.75,-23 616.75,-52"/>
<text xml:space="preserve" text-anchor="start" x="506" y="-38.5" font-family="Helvetica,sans-Serif" font-size="10.00">MC::ParticlesContainer</text>
<text xml:space="preserve" text-anchor="middle" x="557.38" y="-28" font-family="Helvetica,sans-Serif" font-size="10.00">::clean_dead</text>
</a>
</g>
</g>
<!-- Node2 -->
<g id="Node000002" class="node">
<title>Node2</title>
<g id="a_Node000002"><a xlink:href="classMC_1_1ParticlesContainer.html#a25d64f06c6f66817bc15bac225369a63" target="_top" xlink:title=" ">
<polygon fill="white" stroke="#666666" points="457.88,-76 339.12,-76 339.12,-47 457.88,-47 457.88,-76"/>
<text xml:space="preserve" text-anchor="start" x="347.12" y="-62.5" font-family="Helvetica,sans-Serif" font-size="10.00">MC::ParticlesContainer</text>
<text xml:space="preserve" text-anchor="middle" x="398.5" y="-52" font-family="Helvetica,sans-Serif" font-size="10.00">::force_remove_dead</text>
</a>
</g>
</g>
<!-- Node1&#45;&gt;Node2 -->
<g id="edge1_Node000001_Node000002" class="edge">
<title>Node1&#45;&gt;Node2</title>
<g id="a_edge1_Node000001_Node000002"><a xlink:title=" ">
<path fill="none" stroke="#63b8ff" d="M486.2,-48.24C476.84,-49.67 467.31,-51.13 458.17,-52.52"/>
<polygon fill="#63b8ff" stroke="#63b8ff" points="486.66,-51.71 496.02,-46.73 485.6,-44.79 486.66,-51.71"/>
</a>
</g>
</g>
<!-- Node4 -->
<g id="Node000004" class="node">
<title>Node4</title>
<g id="a_Node000004"><a xlink:href="classMC_1_1ParticlesContainer.html#ae769d9ef9c93fac19c9ba08c6b03ec1a" target="_top" xlink:title=" ">
<polygon fill="white" stroke="#666666" points="462,-29 335,-29 335,0 462,0 462,-29"/>
<text xml:space="preserve" text-anchor="start" x="343" y="-15.5" font-family="Helvetica,sans-Serif" font-size="10.00">MC::ParticlesContainer</text>
<text xml:space="preserve" text-anchor="middle" x="398.5" y="-5" font-family="Helvetica,sans-Serif" font-size="10.00">::update_and_clean_dead</text>
</a>
</g>
</g>
<!-- Node1&#45;&gt;Node4 -->
<g id="edge3_Node000001_Node000004" class="edge">
<title>Node1&#45;&gt;Node4</title>
<g id="a_edge3_Node000001_Node000004"><a xlink:title=" ">
<path fill="none" stroke="#63b8ff" d="M486.34,-27.23C478.35,-26.06 470.25,-24.87 462.36,-23.72"/>
<polygon fill="#63b8ff" stroke="#63b8ff" points="485.61,-30.66 496.02,-28.65 486.63,-23.74 485.61,-30.66"/>
</a>
</g>
</g>
<!-- Node3 -->
<g id="Node000003" class="node">
<title>Node3</title>
<g id="a_Node000003"><a xlink:href="namespacePostProcessing.html#a5c1775fa34193199d9c989e5740e2f84" target="_top" xlink:title=" ">
<polygon fill="white" stroke="#666666" points="285.5,-76 181,-76 181,-47 285.5,-47 285.5,-76"/>
<text xml:space="preserve" text-anchor="start" x="189" y="-62.5" font-family="Helvetica,sans-Serif" font-size="10.00">PostProcessing::get</text>
<text xml:space="preserve" text-anchor="middle" x="233.25" y="-52" font-family="Helvetica,sans-Serif" font-size="10.00">_properties</text>
</a>
</g>
</g>
<!-- Node2&#45;&gt;Node3 -->
<g id="edge2_Node000002_Node000003" class="edge">
<title>Node2&#45;&gt;Node3</title>
<g id="a_edge2_Node000002_Node000003"><a xlink:title=" ">
<path fill="none" stroke="#63b8ff" d="M327.85,-61.5C313.75,-61.5 299.16,-61.5 285.82,-61.5"/>
<polygon fill="#63b8ff" stroke="#63b8ff" points="327.51,-65 337.51,-61.5 327.51,-58 327.51,-65"/>
</a>
</g>
</g>
<!-- Node5 -->
<g id="Node000005" class="node">
<title>Node5</title>
<g id="a_Node000005"><a xlink:href="classSimulation_1_1SimulationUnit.html#a596360d0966f7694e5ebf0652b61b0e2" target="_top" xlink:title=" ">
<polygon fill="white" stroke="#666666" points="299,-29 167.5,-29 167.5,0 299,0 299,-29"/>
<text xml:space="preserve" text-anchor="start" x="175.5" y="-15.5" font-family="Helvetica,sans-Serif" font-size="10.00">Simulation::SimulationUnit</text>
<text xml:space="preserve" text-anchor="middle" x="233.25" y="-5" font-family="Helvetica,sans-Serif" font-size="10.00">::post_cycle</text>
</a>
</g>
</g>
<!-- Node4&#45;&gt;Node5 -->
<g id="edge4_Node000004_Node000005" class="edge">
<title>Node4&#45;&gt;Node5</title>
<g id="a_edge4_Node000004_Node000005"><a xlink:title=" ">
<path fill="none" stroke="#63b8ff" d="M323.57,-14.5C315.52,-14.5 307.37,-14.5 299.44,-14.5"/>
<polygon fill="#63b8ff" stroke="#63b8ff" points="323.34,-18 333.34,-14.5 323.34,-11 323.34,-18"/>
</a>
</g>
</g>
<!-- Node6 -->
<g id="Node000006" class="node">
<title>Node6</title>
<g id="a_Node000006"><a xlink:href="classSimulation_1_1SimulationUnit.html#a7b49fd171d4de8aa3949738da6c3810f" target="_top" xlink:title=" ">
<polygon fill="white" stroke="#666666" points="131.5,-29 0,-29 0,0 131.5,0 131.5,-29"/>
<text xml:space="preserve" text-anchor="start" x="8" y="-15.5" font-family="Helvetica,sans-Serif" font-size="10.00">Simulation::SimulationUnit</text>
<text xml:space="preserve" text-anchor="middle" x="65.75" y="-5" font-family="Helvetica,sans-Serif" font-size="10.00">::cycleProcess</text>
</a>
</g>
</g>
<!-- Node5&#45;&gt;Node6 -->
<g id="edge5_Node000005_Node000006" class="edge">
<title>Node5&#45;&gt;Node6</title>
<g id="a_edge5_Node000005_Node000006"><a xlink:title=" ">
<path fill="none" stroke="#63b8ff" d="M155.97,-14.5C147.88,-14.5 139.71,-14.5 131.77,-14.5"/>
<polygon fill="#63b8ff" stroke="#63b8ff" points="155.8,-18 165.8,-14.5 155.8,-11 155.8,-18"/>
</a>
</g>
</g>
</g>
</svg>
