<?xml version="1.0" encoding="UTF-8" standalone="no"?>
<!DOCTYPE svg PUBLIC "-//W3C//DTD SVG 1.1//EN"
 "http://www.w3.org/Graphics/SVG/1.1/DTD/svg11.dtd">
<!-- Generated by graphviz version 14.0.1 (0)
 -->
<!-- Title: Core::GlobalInitialiser::check_steps Pages: 1 -->
<svg width="565pt" height="320pt"
 viewBox="0.00 0.00 565.00 320.00" xmlns="http://www.w3.org/2000/svg" xmlns:xlink="http://www.w3.org/1999/xlink">
<g id="graph0" class="graph" transform="scale(1 1) rotate(0) translate(4 315.99)">
<title>Core::GlobalInitialiser::check_steps</title>
<!-- Node1 -->
<g id="Node000001" class="node">
<title>Node1</title>
<g id="a_Node000001"><a xlink:title="Checks the validity of specified initialization steps.">
<polygon fill="#999999" stroke="#666666" points="556.75,-169.99 447,-169.99 447,-140.99 556.75,-140.99 556.75,-169.99"/>
<text xml:space="preserve" text-anchor="start" x="455" y="-156.49" font-family="Helvetica,sans-Serif" font-size="10.00">Core::GlobalInitialiser</text>
<text xml:space="preserve" text-anchor="middle" x="501.88" y="-145.99" font-family="Helvetica,sans-Serif" font-size="10.00">::check_steps</text>
</a>
</g>
</g>
<!-- Node2 -->
<g id="Node000002" class="node">
<title>Node2</title>
<g id="a_Node000002"><a xlink:href="classCore_1_1GlobalInitialiser.html#aefbbc9e413134e0e080df2218316fe63" target="_top" xlink:title="Initializes a simulation feed.">
<polygon fill="white" stroke="#666666" points="265.25,-311.99 155.5,-311.99 155.5,-282.99 265.25,-282.99 265.25,-311.99"/>
<text xml:space="preserve" text-anchor="start" x="163.5" y="-298.49" font-family="Helvetica,sans-Serif" font-size="10.00">Core::GlobalInitialiser</text>
<text xml:space="preserve" text-anchor="middle" x="210.38" y="-287.99" font-family="Helvetica,sans-Serif" font-size="10.00">::init_feed</text>
</a>
</g>
</g>
<!-- Node1&#45;&gt;Node2 -->
<g id="edge1_Node000001_Node000002" class="edge">
<title>Node1&#45;&gt;Node2</title>
<g id="a_edge1_Node000001_Node000002"><a xlink:title=" ">
<path fill="none" stroke="#63b8ff" d="M492.14,-180.78C479.67,-212.54 453.46,-265.74 411,-289.49 366.65,-314.3 307.69,-313.33 265.36,-307.97"/>
<polygon fill="#63b8ff" stroke="#63b8ff" points="495.36,-182.16 495.59,-171.56 488.81,-179.7 495.36,-182.16"/>
</a>
</g>
</g>
<!-- Node4 -->
<g id="Node000004" class="node">
<title>Node4</title>
<g id="a_Node000004"><a xlink:href="classCore_1_1GlobalInitialiser.html#a9b38d15538796d9cc115211890a6c081" target="_top" xlink:title="Initializes a Monte Carlo unit.">
<polygon fill="white" stroke="#666666" points="411,-279.99 301.25,-279.99 301.25,-250.99 411,-250.99 411,-279.99"/>
<text xml:space="preserve" text-anchor="start" x="309.25" y="-266.49" font-family="Helvetica,sans-Serif" font-size="10.00">Core::GlobalInitialiser</text>
<text xml:space="preserve" text-anchor="middle" x="356.12" y="-255.99" font-family="Helvetica,sans-Serif" font-size="10.00">::init_monte_carlo</text>
</a>
</g>
</g>
<!-- Node1&#45;&gt;Node4 -->
<g id="edge3_Node000001_Node000004" class="edge">
<title>Node1&#45;&gt;Node4</title>
<g id="a_edge3_Node000001_Node000004"><a xlink:title=" ">
<path fill="none" stroke="#63b8ff" d="M478.66,-178.3C461.21,-195.5 435.79,-219.03 411,-236.49 403.79,-241.57 395.59,-246.4 387.81,-250.61"/>
<polygon fill="#63b8ff" stroke="#63b8ff" points="480.87,-181.03 485.47,-171.49 475.92,-176.08 480.87,-181.03"/>
</a>
</g>
</g>
<!-- Node5 -->
<g id="Node000005" class="node">
<title>Node5</title>
<g id="a_Node000005"><a xlink:href="classCore_1_1GlobalInitialiser.html#a00d0e7a7d549bf06886dfc3ba9de3e3d" target="_top" xlink:title="Initializes a simulation unit.">
<polygon fill="white" stroke="#666666" points="265.25,-236.99 155.5,-236.99 155.5,-207.99 265.25,-207.99 265.25,-236.99"/>
<text xml:space="preserve" text-anchor="start" x="163.5" y="-223.49" font-family="Helvetica,sans-Serif" font-size="10.00">Core::GlobalInitialiser</text>
<text xml:space="preserve" text-anchor="middle" x="210.38" y="-212.99" font-family="Helvetica,sans-Serif" font-size="10.00">::init_simulation</text>
</a>
</g>
</g>
<!-- Node1&#45;&gt;Node5 -->
<g id="edge10_Node000001_Node000005" class="edge">
<title>Node1&#45;&gt;Node5</title>
<g id="a_edge10_Node000001_Node000005"><a xlink:title=" ">
<path fill="none" stroke="#63b8ff" d="M469.31,-176.33C452.66,-186.27 431.48,-197.32 411,-203.49 363.17,-217.9 306.23,-222.13 265.43,-223.06"/>
<polygon fill="#63b8ff" stroke="#63b8ff" points="471.08,-179.35 477.76,-171.13 467.41,-173.39 471.08,-179.35"/>
</a>
</g>
</g>
<!-- Node6 -->
<g id="Node000006" class="node">
<title>Node6</title>
<g id="a_Node000006"><a xlink:href="classCore_1_1GlobalInitialiser.html#a8b048fcce504154ce95e4b5a92689d5e" target="_top" xlink:title=" ">
<polygon fill="white" stroke="#666666" points="411,-193.99 301.25,-193.99 301.25,-164.99 411,-164.99 411,-193.99"/>
<text xml:space="preserve" text-anchor="start" x="309.25" y="-180.49" font-family="Helvetica,sans-Serif" font-size="10.00">Core::GlobalInitialiser</text>
<text xml:space="preserve" text-anchor="middle" x="356.12" y="-169.99" font-family="Helvetica,sans-Serif" font-size="10.00">::init_mtr_model</text>
</a>
</g>
</g>
<!-- Node1&#45;&gt;Node6 -->
<g id="edge7_Node000001_Node000006" class="edge">
<title>Node1&#45;&gt;Node6</title>
<g id="a_edge7_Node000001_Node000006"><a xlink:title=" ">
<path fill="none" stroke="#63b8ff" d="M435.22,-166.45C427.14,-167.8 418.95,-169.17 411.07,-170.48"/>
<polygon fill="#63b8ff" stroke="#63b8ff" points="435.75,-169.91 445.04,-164.81 434.6,-163.01 435.75,-169.91"/>
</a>
</g>
</g>
<!-- Node7 -->
<g id="Node000007" class="node">
<title>Node7</title>
<g id="a_Node000007"><a xlink:href="classCore_1_1GlobalInitialiser.html#aa84a61b25f475380b38306232e25aff6" target="_top" xlink:title="Initializes a scalar component of the simulation.">
<polygon fill="white" stroke="#666666" points="411,-146.99 301.25,-146.99 301.25,-117.99 411,-117.99 411,-146.99"/>
<text xml:space="preserve" text-anchor="start" x="309.25" y="-133.49" font-family="Helvetica,sans-Serif" font-size="10.00">Core::GlobalInitialiser</text>
<text xml:space="preserve" text-anchor="middle" x="356.12" y="-122.99" font-family="Helvetica,sans-Serif" font-size="10.00">::init_scalar</text>
</a>
</g>
</g>
<!-- Node1&#45;&gt;Node7 -->
<g id="edge8_Node000001_Node000007" class="edge">
<title>Node1&#45;&gt;Node7</title>
<g id="a_edge8_Node000001_Node000007"><a xlink:title=" ">
<path fill="none" stroke="#63b8ff" d="M435.22,-144.98C427.14,-143.69 418.95,-142.38 411.07,-141.12"/>
<polygon fill="#63b8ff" stroke="#63b8ff" points="434.61,-148.43 445.03,-146.56 435.71,-141.52 434.61,-148.43"/>
</a>
</g>
</g>
<!-- Node8 -->
<g id="Node000008" class="node">
<title>Node8</title>
<g id="a_Node000008"><a xlink:href="classCore_1_1GlobalInitialiser.html#afa96dd38c29284ca8a70bdb67017c70b" target="_top" xlink:title="Initializes a simulation unit with specified parameters.">
<polygon fill="white" stroke="#666666" points="411,-99.99 301.25,-99.99 301.25,-70.99 411,-70.99 411,-99.99"/>
<text xml:space="preserve" text-anchor="start" x="309.25" y="-86.49" font-family="Helvetica,sans-Serif" font-size="10.00">Core::GlobalInitialiser</text>
<text xml:space="preserve" text-anchor="middle" x="356.12" y="-75.99" font-family="Helvetica,sans-Serif" font-size="10.00">::init_simulation</text>
</a>
</g>
</g>
<!-- Node1&#45;&gt;Node8 -->
<g id="edge11_Node000001_Node000008" class="edge">
<title>Node1&#45;&gt;Node8</title>
<g id="a_edge11_Node000001_Node000008"><a xlink:title=" ">
<path fill="none" stroke="#63b8ff" d="M462.74,-135.4C446.84,-127.17 428.12,-117.68 411,-109.49 404.72,-106.49 397.97,-103.38 391.45,-100.45"/>
<polygon fill="#63b8ff" stroke="#63b8ff" points="460.91,-138.39 471.39,-139.9 464.13,-132.18 460.91,-138.39"/>
</a>
</g>
</g>
<!-- Node9 -->
<g id="Node000009" class="node">
<title>Node9</title>
<g id="a_Node000009"><a xlink:href="classCore_1_1GlobalInitialiser.html#a212a55abe2b9cb558932ba82e4cf6dbf" target="_top" xlink:title="Initializes the simulation state.">
<polygon fill="white" stroke="#666666" points="411,-52.99 301.25,-52.99 301.25,-23.99 411,-23.99 411,-52.99"/>
<text xml:space="preserve" text-anchor="start" x="309.25" y="-39.49" font-family="Helvetica,sans-Serif" font-size="10.00">Core::GlobalInitialiser</text>
<text xml:space="preserve" text-anchor="middle" x="356.12" y="-28.99" font-family="Helvetica,sans-Serif" font-size="10.00">::init_state</text>
</a>
</g>
</g>
<!-- Node1&#45;&gt;Node9 -->
<g id="edge12_Node000001_Node000009" class="edge">
<title>Node1&#45;&gt;Node9</title>
<g id="a_edge12_Node000001_Node000009"><a xlink:title=" ">
<path fill="none" stroke="#63b8ff" d="M482.48,-131.86C465.62,-111.42 439.07,-82.14 411,-62.49 406.22,-59.14 400.9,-56.1 395.51,-53.38"/>
<polygon fill="#63b8ff" stroke="#63b8ff" points="479.55,-133.81 488.56,-139.38 485,-129.41 479.55,-133.81"/>
</a>
</g>
</g>
<!-- Node10 -->
<g id="Node000010" class="node">
<title>Node10</title>
<g id="a_Node000010"><a xlink:href="classCore_1_1GlobalInitialiser.html#a4fa32007b34a9e448be11ebd7d5e695f" target="_top" xlink:title="Initializes a transitioner with the provided flow iterator.">
<polygon fill="white" stroke="#666666" points="265.25,-52.99 155.5,-52.99 155.5,-23.99 265.25,-23.99 265.25,-52.99"/>
<text xml:space="preserve" text-anchor="start" x="163.5" y="-39.49" font-family="Helvetica,sans-Serif" font-size="10.00">Core::GlobalInitialiser</text>
<text xml:space="preserve" text-anchor="middle" x="210.38" y="-28.99" font-family="Helvetica,sans-Serif" font-size="10.00">::init_transitionner</text>
</a>
</g>
</g>
<!-- Node1&#45;&gt;Node10 -->
<g id="edge15_Node000001_Node000010" class="edge">
<title>Node1&#45;&gt;Node10</title>
<g id="a_edge15_Node000001_Node000010"><a xlink:title=" ">
<path fill="none" stroke="#63b8ff" d="M493.2,-130.11C481.54,-96.64 455.85,-39.09 411,-14.49 357.9,14.63 285.08,-6.74 243.66,-23.54"/>
<polygon fill="#63b8ff" stroke="#63b8ff" points="489.81,-131.02 496.27,-139.42 496.46,-128.83 489.81,-131.02"/>
</a>
</g>
</g>
<!-- Node3 -->
<g id="Node000003" class="node">
<title>Node3</title>
<g id="a_Node000003"><a xlink:href="structApi_1_1SimulationInstance.html#ae9bdd54076170f50eadcb7966d64c19d" target="_top" xlink:title="Apply the simulation configuration and prepare for execution.">
<polygon fill="white" stroke="#666666" points="119.5,-236.99 0,-236.99 0,-207.99 119.5,-207.99 119.5,-236.99"/>
<text xml:space="preserve" text-anchor="start" x="8" y="-223.49" font-family="Helvetica,sans-Serif" font-size="10.00">Api::SimulationInstance</text>
<text xml:space="preserve" text-anchor="middle" x="59.75" y="-212.99" font-family="Helvetica,sans-Serif" font-size="10.00">::apply</text>
</a>
</g>
</g>
<!-- Node2&#45;&gt;Node3 -->
<g id="edge2_Node000002_Node000003" class="edge">
<title>Node2&#45;&gt;Node3</title>
<g id="a_edge2_Node000002_Node000003"><a xlink:title=" ">
<path fill="none" stroke="#63b8ff" d="M169.44,-277.34C144.56,-264.78 113.09,-248.9 90.42,-237.46"/>
<polygon fill="#63b8ff" stroke="#63b8ff" points="167.8,-280.43 178.3,-281.81 170.95,-274.18 167.8,-280.43"/>
</a>
</g>
</g>
<!-- Node4&#45;&gt;Node5 -->
<g id="edge4_Node000004_Node000005" class="edge">
<title>Node4&#45;&gt;Node5</title>
<g id="a_edge4_Node000004_Node000005"><a xlink:title=" ">
<path fill="none" stroke="#63b8ff" d="M294.35,-247.31C283.28,-244 271.86,-240.58 261.16,-237.38"/>
<polygon fill="#63b8ff" stroke="#63b8ff" points="293.22,-250.62 303.8,-250.14 295.22,-243.92 293.22,-250.62"/>
</a>
</g>
</g>
<!-- Node5&#45;&gt;Node3 -->
<g id="edge5_Node000005_Node000003" class="edge">
<title>Node5&#45;&gt;Node3</title>
<g id="a_edge5_Node000005_Node000003"><a xlink:title=" ">
<path fill="none" stroke="#63b8ff" d="M144.04,-222.49C135.97,-222.49 127.77,-222.49 119.81,-222.49"/>
<polygon fill="#63b8ff" stroke="#63b8ff" points="143.78,-225.99 153.78,-222.49 143.78,-218.99 143.78,-225.99"/>
</a>
</g>
</g>
<!-- Node5&#45;&gt;Node5 -->
<g id="edge6_Node000005_Node000005" class="edge">
<title>Node5&#45;&gt;Node5</title>
<g id="a_edge6_Node000005_Node000005"><a xlink:title=" ">
<path fill="none" stroke="#63b8ff" d="M235.11,-248.55C231.23,-252.39 222.98,-254.99 210.38,-254.99 187.32,-254.99 178.85,-246.31 184.98,-237.2"/>
<polygon fill="#63b8ff" stroke="#63b8ff" points="238.6,-248.89 235.69,-238.71 231.61,-248.49 238.6,-248.89"/>
</a>
</g>
</g>
<!-- Node7&#45;&gt;Node5 -->
<g id="edge9_Node000007_Node000005" class="edge">
<title>Node7&#45;&gt;Node5</title>
<g id="a_edge9_Node000007_Node000005"><a xlink:title=" ">
<path fill="none" stroke="#63b8ff" d="M308.42,-152.54C305.97,-153.82 303.57,-155.14 301.25,-156.49 274.8,-171.85 246.77,-193.39 229.18,-207.63"/>
<polygon fill="#63b8ff" stroke="#63b8ff" points="309.9,-155.71 317.3,-148.13 306.79,-149.44 309.9,-155.71"/>
</a>
</g>
</g>
<!-- Node9&#45;&gt;Node10 -->
<g id="edge13_Node000009_Node000010" class="edge">
<title>Node9&#45;&gt;Node10</title>
<g id="a_edge13_Node000009_Node000010"><a xlink:title=" ">
<path fill="none" stroke="#63b8ff" d="M289.47,-38.49C281.39,-38.49 273.2,-38.49 265.32,-38.49"/>
<polygon fill="#63b8ff" stroke="#63b8ff" points="289.27,-41.99 299.27,-38.49 289.27,-34.99 289.27,-41.99"/>
</a>
</g>
</g>
<!-- Node10&#45;&gt;Node3 -->
<g id="edge14_Node000010_Node000003" class="edge">
<title>Node10&#45;&gt;Node3</title>
<g id="a_edge14_Node000010_Node000003"><a xlink:title=" ">
<path fill="none" stroke="#63b8ff" d="M190.62,-61.71C159.61,-100.09 98.53,-175.71 72.72,-207.67"/>
<polygon fill="#63b8ff" stroke="#63b8ff" points="192.95,-64.39 196.51,-54.41 187.51,-59.99 192.95,-64.39"/>
</a>
</g>
</g>
</g>
</svg>
