<?xml version="1.0" encoding="UTF-8" standalone="no"?>
<!DOCTYPE svg PUBLIC "-//W3C//DTD SVG 1.1//EN"
 "http://www.w3.org/Graphics/SVG/1.1/DTD/svg11.dtd">
<!-- Generated by graphviz version 14.0.1 (0)
 -->
<!-- Title: Core::GlobalInitialiser::init_transitionner Pages: 1 -->
<svg width="701pt" height="178pt"
 viewBox="0.00 0.00 701.00 178.00" xmlns="http://www.w3.org/2000/svg" xmlns:xlink="http://www.w3.org/1999/xlink">
<g id="graph0" class="graph" transform="scale(1 1) rotate(0) translate(4 174)">
<title>Core::GlobalInitialiser::init_transitionner</title>
<!-- Node1 -->
<g id="Node000001" class="node">
<title>Node1</title>
<g id="a_Node000001"><a xlink:title="Initializes a transitioner with the provided flow iterator.">
<polygon fill="#999999" stroke="#666666" points="109.75,-76 0,-76 0,-47 109.75,-47 109.75,-76"/>
<text xml:space="preserve" text-anchor="start" x="8" y="-62.5" font-family="Helvetica,sans-Serif" font-size="10.00">Core::GlobalInitialiser</text>
<text xml:space="preserve" text-anchor="middle" x="54.88" y="-52" font-family="Helvetica,sans-Serif" font-size="10.00">::init_transitionner</text>
</a>
</g>
</g>
<!-- Node2 -->
<g id="Node000002" class="node">
<title>Node2</title>
<g id="a_Node000002"><a xlink:href="namespaceIO.html#a30cc77fc5c4d45d3b56ef6a299ce2383" target="_top" xlink:title=" ">
<polygon fill="white" stroke="#666666" points="230.75,-112.75 170.5,-112.75 170.5,-94.25 230.75,-94.25 230.75,-112.75"/>
<text xml:space="preserve" text-anchor="middle" x="200.62" y="-99.25" font-family="Helvetica,sans-Serif" font-size="10.00">IO::format</text>
</a>
</g>
</g>
<!-- Node1&#45;&gt;Node2 -->
<g id="edge1_Node000001_Node000002" class="edge">
<title>Node1&#45;&gt;Node2</title>
<g id="a_edge1_Node000001_Node000002"><a xlink:title=" ">
<path fill="none" stroke="#63b8ff" d="M106.96,-76.43C124.14,-81.45 143.05,-86.97 159.29,-91.71"/>
<polygon fill="#63b8ff" stroke="#63b8ff" points="158.01,-94.99 168.59,-94.43 159.97,-88.27 158.01,-94.99"/>
</a>
</g>
</g>
<!-- Node3 -->
<g id="Node000003" class="node">
<title>Node3</title>
<g id="a_Node000003"><a xlink:href="classCore_1_1GlobalInitialiser.html#a97eff5566ced6ba6449eb532f0babadc" target="_top" xlink:title="Initializes a flow iterator.">
<polygon fill="white" stroke="#666666" points="255.5,-76 145.75,-76 145.75,-47 255.5,-47 255.5,-76"/>
<text xml:space="preserve" text-anchor="start" x="153.75" y="-62.5" font-family="Helvetica,sans-Serif" font-size="10.00">Core::GlobalInitialiser</text>
<text xml:space="preserve" text-anchor="middle" x="200.62" y="-52" font-family="Helvetica,sans-Serif" font-size="10.00">::init_state</text>
</a>
</g>
</g>
<!-- Node1&#45;&gt;Node3 -->
<g id="edge2_Node000001_Node000003" class="edge">
<title>Node1&#45;&gt;Node3</title>
<g id="a_edge2_Node000001_Node000003"><a xlink:title=" ">
<path fill="none" stroke="#63b8ff" d="M110.22,-61.5C118.11,-61.5 126.3,-61.5 134.38,-61.5"/>
<polygon fill="#63b8ff" stroke="#63b8ff" points="134.17,-65 144.17,-61.5 134.17,-58 134.17,-65"/>
</a>
</g>
</g>
<!-- Node11 -->
<g id="Node000011" class="node">
<title>Node11</title>
<g id="a_Node000011"><a xlink:href="classCore_1_1GlobalInitialiser.html#a3844076c910ed26f60f42bada71cc09e" target="_top" xlink:title="Validates the specified initialization step and any additional steps.">
<polygon fill="white" stroke="#666666" points="401.25,-29 291.5,-29 291.5,0 401.25,0 401.25,-29"/>
<text xml:space="preserve" text-anchor="start" x="299.5" y="-15.5" font-family="Helvetica,sans-Serif" font-size="10.00">Core::GlobalInitialiser</text>
<text xml:space="preserve" text-anchor="middle" x="346.38" y="-5" font-family="Helvetica,sans-Serif" font-size="10.00">::validate_step</text>
</a>
</g>
</g>
<!-- Node1&#45;&gt;Node11 -->
<g id="edge12_Node000001_Node000011" class="edge">
<title>Node1&#45;&gt;Node11</title>
<g id="a_edge12_Node000001_Node000011"><a xlink:title=" ">
<path fill="none" stroke="#63b8ff" d="M109.32,-46.6C121.25,-43.62 133.88,-40.72 145.75,-38.5 190.25,-30.17 240.9,-24.12 280.04,-20.18"/>
<polygon fill="#63b8ff" stroke="#63b8ff" points="280.17,-23.68 289.78,-19.22 279.48,-16.72 280.17,-23.68"/>
</a>
</g>
</g>
<!-- Node4 -->
<g id="Node000004" class="node">
<title>Node4</title>
<g id="a_Node000004"><a xlink:href="classCore_1_1GlobalInitialiser.html#a5134f9db1f59d9124d5fdec88e3e99f3" target="_top" xlink:title="Checks the validity of specified initialization steps.">
<polygon fill="white" stroke="#666666" points="401.25,-170 291.5,-170 291.5,-141 401.25,-141 401.25,-170"/>
<text xml:space="preserve" text-anchor="start" x="299.5" y="-156.5" font-family="Helvetica,sans-Serif" font-size="10.00">Core::GlobalInitialiser</text>
<text xml:space="preserve" text-anchor="middle" x="346.38" y="-146" font-family="Helvetica,sans-Serif" font-size="10.00">::check_steps</text>
</a>
</g>
</g>
<!-- Node3&#45;&gt;Node4 -->
<g id="edge3_Node000003_Node000004" class="edge">
<title>Node3&#45;&gt;Node4</title>
<g id="a_edge3_Node000003_Node000004"><a xlink:title=" ">
<path fill="none" stroke="#63b8ff" d="M241.49,-76.5C246.43,-79.14 251.24,-82.14 255.5,-85.5 276.15,-101.8 270.72,-116.36 291.5,-132.5 292.46,-133.25 293.46,-133.98 294.47,-134.69"/>
<polygon fill="#63b8ff" stroke="#63b8ff" points="292.45,-137.56 302.81,-139.77 296.09,-131.58 292.45,-137.56"/>
</a>
</g>
</g>
<!-- Node5 -->
<g id="Node000005" class="node">
<title>Node5</title>
<g id="a_Node000005"><a xlink:href="classCore_1_1GlobalInitialiser.html#a36655d4a10ebb302f64512e2cda8649d" target="_top" xlink:title="Host speciffic state init.">
<polygon fill="white" stroke="#666666" points="401.25,-123 291.5,-123 291.5,-94 401.25,-94 401.25,-123"/>
<text xml:space="preserve" text-anchor="start" x="299.5" y="-109.5" font-family="Helvetica,sans-Serif" font-size="10.00">Core::GlobalInitialiser</text>
<text xml:space="preserve" text-anchor="middle" x="346.38" y="-99" font-family="Helvetica,sans-Serif" font-size="10.00">::host_init_state</text>
</a>
</g>
</g>
<!-- Node3&#45;&gt;Node5 -->
<g id="edge4_Node000003_Node000005" class="edge">
<title>Node3&#45;&gt;Node5</title>
<g id="a_edge4_Node000003_Node000005"><a xlink:title=" ">
<path fill="none" stroke="#63b8ff" d="M247.11,-76.37C260.35,-80.7 274.98,-85.48 288.81,-90.01"/>
<polygon fill="#63b8ff" stroke="#63b8ff" points="287.66,-93.31 298.26,-93.09 289.84,-86.66 287.66,-93.31"/>
</a>
</g>
</g>
<!-- Node6 -->
<g id="Node000006" class="node">
<title>Node6</title>
<g id="a_Node000006"><a xlink:href="classCore_1_1GlobalInitialiser.html#aa042e8d396a5287c49fb6a8b81eba209" target="_top" xlink:title="Performs MPI broadcast for synchronization.">
<polygon fill="white" stroke="#666666" points="401.25,-76 291.5,-76 291.5,-47 401.25,-47 401.25,-76"/>
<text xml:space="preserve" text-anchor="start" x="299.5" y="-62.5" font-family="Helvetica,sans-Serif" font-size="10.00">Core::GlobalInitialiser</text>
<text xml:space="preserve" text-anchor="middle" x="346.38" y="-52" font-family="Helvetica,sans-Serif" font-size="10.00">::mpi_broadcast</text>
</a>
</g>
</g>
<!-- Node3&#45;&gt;Node6 -->
<g id="edge5_Node000003_Node000006" class="edge">
<title>Node3&#45;&gt;Node6</title>
<g id="a_edge5_Node000003_Node000006"><a xlink:title=" ">
<path fill="none" stroke="#63b8ff" d="M255.97,-61.5C263.86,-61.5 272.05,-61.5 280.13,-61.5"/>
<polygon fill="#63b8ff" stroke="#63b8ff" points="279.92,-65 289.92,-61.5 279.92,-58 279.92,-65"/>
</a>
</g>
</g>
<!-- Node3&#45;&gt;Node11 -->
<g id="edge11_Node000003_Node000011" class="edge">
<title>Node3&#45;&gt;Node11</title>
<g id="a_edge11_Node000003_Node000011"><a xlink:title=" ">
<path fill="none" stroke="#63b8ff" d="M247.11,-46.63C260.35,-42.3 274.98,-37.52 288.81,-32.99"/>
<polygon fill="#63b8ff" stroke="#63b8ff" points="289.84,-36.34 298.26,-29.91 287.66,-29.69 289.84,-36.34"/>
</a>
</g>
</g>
<!-- Node7 -->
<g id="Node000007" class="node">
<title>Node7</title>
<g id="a_Node000007"><a xlink:href="namespaceWrapMPI.html#a1a08bbe69602ac2f4f38e1a0d45275cb" target="_top" xlink:title=" ">
<polygon fill="white" stroke="#666666" points="533.88,-107.75 445.12,-107.75 445.12,-89.25 533.88,-89.25 533.88,-107.75"/>
<text xml:space="preserve" text-anchor="middle" x="489.5" y="-94.25" font-family="Helvetica,sans-Serif" font-size="10.00">WrapMPI::barrier</text>
</a>
</g>
</g>
<!-- Node6&#45;&gt;Node7 -->
<g id="edge6_Node000006_Node000007" class="edge">
<title>Node6&#45;&gt;Node7</title>
<g id="a_edge6_Node000006_Node000007"><a xlink:title=" ">
<path fill="none" stroke="#63b8ff" d="M401.53,-75.7C414.27,-79.04 427.76,-82.58 440.22,-85.84"/>
<polygon fill="#63b8ff" stroke="#63b8ff" points="439.29,-89.22 449.85,-88.37 441.07,-82.45 439.29,-89.22"/>
</a>
</g>
</g>
<!-- Node8 -->
<g id="Node000008" class="node">
<title>Node8</title>
<g id="a_Node000008"><a xlink:href="namespaceWrapMPI.html#aa924ad0d911109a9e6e3a20bebc3b316" target="_top" xlink:title=" ">
<polygon fill="white" stroke="#666666" points="692.75,-88.75 577.75,-88.75 577.75,-70.25 692.75,-70.25 692.75,-88.75"/>
<text xml:space="preserve" text-anchor="middle" x="635.25" y="-75.25" font-family="Helvetica,sans-Serif" font-size="10.00">WrapMPI::critical_error</text>
</a>
</g>
</g>
<!-- Node6&#45;&gt;Node8 -->
<g id="edge10_Node000006_Node000008" class="edge">
<title>Node6&#45;&gt;Node8</title>
<g id="a_edge10_Node000006_Node000008"><a xlink:title=" ">
<path fill="none" stroke="#63b8ff" d="M401.67,-64.91C448.39,-67.84 516.01,-72.08 566.3,-75.24"/>
<polygon fill="#63b8ff" stroke="#63b8ff" points="566.01,-78.73 576.21,-75.86 566.45,-71.74 566.01,-78.73"/>
</a>
</g>
</g>
<!-- Node9 -->
<g id="Node000009" class="node">
<title>Node9</title>
<g id="a_Node000009"><a xlink:href="namespaceWrapMPI.html#a372df5351a2085df252cc9f4cceae7de" target="_top" xlink:title="Broadcasts a single data item to all processes.">
<polygon fill="white" stroke="#666666" points="541.75,-33.75 437.25,-33.75 437.25,-15.25 541.75,-15.25 541.75,-33.75"/>
<text xml:space="preserve" text-anchor="middle" x="489.5" y="-20.25" font-family="Helvetica,sans-Serif" font-size="10.00">WrapMPI::broadcast</text>
</a>
</g>
</g>
<!-- Node6&#45;&gt;Node9 -->
<g id="edge8_Node000006_Node000009" class="edge">
<title>Node6&#45;&gt;Node9</title>
<g id="a_edge8_Node000006_Node000009"><a xlink:title=" ">
<path fill="none" stroke="#63b8ff" d="M401.53,-47.3C414.27,-43.96 427.76,-40.42 440.22,-37.16"/>
<polygon fill="#63b8ff" stroke="#63b8ff" points="441.07,-40.55 449.85,-34.63 439.29,-33.78 441.07,-40.55"/>
</a>
</g>
</g>
<!-- Node7&#45;&gt;Node8 -->
<g id="edge7_Node000007_Node000008" class="edge">
<title>Node7&#45;&gt;Node8</title>
<g id="a_edge7_Node000007_Node000008"><a xlink:title=" ">
<path fill="none" stroke="#63b8ff" d="M534.02,-92.75C544.14,-91.41 555.15,-89.95 566.05,-88.51"/>
<polygon fill="#63b8ff" stroke="#63b8ff" points="566.37,-92 575.83,-87.22 565.45,-85.06 566.37,-92"/>
</a>
</g>
</g>
<!-- Node10 -->
<g id="Node000010" class="node">
<title>Node10</title>
<g id="a_Node000010"><a xlink:href="namespaceWrapMPI.html#adab3300a86b8c0227268b23134b57a24" target="_top" xlink:title=" ">
<polygon fill="white" stroke="#666666" points="684.88,-33.75 585.62,-33.75 585.62,-15.25 684.88,-15.25 684.88,-33.75"/>
<text xml:space="preserve" text-anchor="middle" x="635.25" y="-20.25" font-family="Helvetica,sans-Serif" font-size="10.00">WrapMPI::get_type</text>
</a>
</g>
</g>
<!-- Node9&#45;&gt;Node10 -->
<g id="edge9_Node000009_Node000010" class="edge">
<title>Node9&#45;&gt;Node10</title>
<g id="a_edge9_Node000009_Node000010"><a xlink:title=" ">
<path fill="none" stroke="#63b8ff" d="M541.99,-24.5C552.4,-24.5 563.44,-24.5 574.12,-24.5"/>
<polygon fill="#63b8ff" stroke="#63b8ff" points="574.01,-28 584.01,-24.5 574.01,-21 574.01,-28"/>
</a>
</g>
</g>
</g>
</svg>
