<?xml version="1.0" encoding="UTF-8" standalone="no"?>
<!DOCTYPE svg PUBLIC "-//W3C//DTD SVG 1.1//EN"
 "http://www.w3.org/Graphics/SVG/1.1/DTD/svg11.dtd">
<!-- Generated by graphviz version 14.0.1 (0)
 -->
<!-- Title: Core::GlobalInitialiser::init_monte_carlo Pages: 1 -->
<svg width="448pt" height="241pt"
 viewBox="0.00 0.00 448.00 241.00" xmlns="http://www.w3.org/2000/svg" xmlns:xlink="http://www.w3.org/1999/xlink">
<g id="graph0" class="graph" transform="scale(1 1) rotate(0) translate(4 236.75)">
<title>Core::GlobalInitialiser::init_monte_carlo</title>
<!-- Node1 -->
<g id="Node000001" class="node">
<title>Node1</title>
<g id="a_Node000001"><a xlink:title="Initializes a Monte Carlo unit.">
<polygon fill="#999999" stroke="#666666" points="109.75,-113 0,-113 0,-84 109.75,-84 109.75,-113"/>
<text xml:space="preserve" text-anchor="start" x="8" y="-99.5" font-family="Helvetica,sans-Serif" font-size="10.00">Core::GlobalInitialiser</text>
<text xml:space="preserve" text-anchor="middle" x="54.88" y="-89" font-family="Helvetica,sans-Serif" font-size="10.00">::init_monte_carlo</text>
</a>
</g>
</g>
<!-- Node2 -->
<g id="Node000002" class="node">
<title>Node2</title>
<g id="a_Node000002"><a xlink:href="namespaceWrapMPI.html#a8237adbb04708d9bf4bae9e904d04f5f" target="_top" xlink:title=" ">
<polygon fill="white" stroke="#666666" points="278,-214.75 172,-214.75 172,-196.25 278,-196.25 278,-214.75"/>
<text xml:space="preserve" text-anchor="middle" x="225" y="-201.25" font-family="Helvetica,sans-Serif" font-size="10.00">WrapMPI::all_reduce</text>
</a>
</g>
</g>
<!-- Node1&#45;&gt;Node2 -->
<g id="edge1_Node000001_Node000002" class="edge">
<title>Node1&#45;&gt;Node2</title>
<g id="a_edge1_Node000001_Node000002"><a xlink:title=" ">
<path fill="none" stroke="#63b8ff" d="M66.54,-113.34C81.77,-133.38 111.7,-168.75 145.75,-187.5 150.46,-190.09 155.53,-192.32 160.75,-194.22"/>
<polygon fill="#63b8ff" stroke="#63b8ff" points="159.54,-197.51 170.14,-197.23 161.68,-190.84 159.54,-197.51"/>
</a>
</g>
</g>
<!-- Node4 -->
<g id="Node000004" class="node">
<title>Node4</title>
<g id="a_Node000004"><a xlink:href="classCore_1_1GlobalInitialiser.html#a5134f9db1f59d9124d5fdec88e3e99f3" target="_top" xlink:title="Checks the validity of specified initialization steps.">
<polygon fill="white" stroke="#666666" points="279.88,-178 170.12,-178 170.12,-149 279.88,-149 279.88,-178"/>
<text xml:space="preserve" text-anchor="start" x="178.12" y="-164.5" font-family="Helvetica,sans-Serif" font-size="10.00">Core::GlobalInitialiser</text>
<text xml:space="preserve" text-anchor="middle" x="225" y="-154" font-family="Helvetica,sans-Serif" font-size="10.00">::check_steps</text>
</a>
</g>
</g>
<!-- Node1&#45;&gt;Node4 -->
<g id="edge4_Node000001_Node000004" class="edge">
<title>Node1&#45;&gt;Node4</title>
<g id="a_edge4_Node000001_Node000004"><a xlink:title=" ">
<path fill="none" stroke="#63b8ff" d="M84.94,-113.45C102.31,-122.04 124.97,-132.64 145.75,-140.5 150.07,-142.13 154.56,-143.72 159.11,-145.26"/>
<polygon fill="#63b8ff" stroke="#63b8ff" points="157.73,-148.49 168.33,-148.25 159.9,-141.83 157.73,-148.49"/>
</a>
</g>
</g>
<!-- Node5 -->
<g id="Node000005" class="node">
<title>Node5</title>
<g id="a_Node000005"><a xlink:href="classCmaUtils_1_1FlowMapTransitionner.html#a5ca5151ebfbb3b5dd309309c54652af8" target="_top" xlink:title="Converts the provided neighbors&#39; data into a Kokkos view.">
<polygon fill="white" stroke="#666666" points="304.25,-113 145.75,-113 145.75,-84 304.25,-84 304.25,-113"/>
<text xml:space="preserve" text-anchor="start" x="153.75" y="-99.5" font-family="Helvetica,sans-Serif" font-size="10.00">CmaUtils::FlowMapTransitionner</text>
<text xml:space="preserve" text-anchor="middle" x="225" y="-89" font-family="Helvetica,sans-Serif" font-size="10.00">::get_neighbors_view</text>
</a>
</g>
</g>
<!-- Node1&#45;&gt;Node5 -->
<g id="edge5_Node000001_Node000005" class="edge">
<title>Node1&#45;&gt;Node5</title>
<g id="a_edge5_Node000001_Node000005"><a xlink:title=" ">
<path fill="none" stroke="#63b8ff" d="M110,-98.5C117.78,-98.5 125.97,-98.5 134.22,-98.5"/>
<polygon fill="#63b8ff" stroke="#63b8ff" points="133.98,-102 143.98,-98.5 133.98,-95 133.98,-102"/>
</a>
</g>
</g>
<!-- Node6 -->
<g id="Node000006" class="node">
<title>Node6</title>
<g id="a_Node000006"><a xlink:href="namespaceMC.html#ac9b6a65d70e4c5007f4bc908509924a0" target="_top" xlink:title=" ">
<polygon fill="white" stroke="#666666" points="278.75,-65.75 171.25,-65.75 171.25,-47.25 278.75,-47.25 278.75,-65.75"/>
<text xml:space="preserve" text-anchor="middle" x="225" y="-52.25" font-family="Helvetica,sans-Serif" font-size="10.00">MC::post_init_weight</text>
</a>
</g>
</g>
<!-- Node1&#45;&gt;Node6 -->
<g id="edge7_Node000001_Node000006" class="edge">
<title>Node1&#45;&gt;Node6</title>
<g id="a_edge7_Node000001_Node000006"><a xlink:title=" ">
<path fill="none" stroke="#63b8ff" d="M110.03,-84.53C121.8,-81.52 134.19,-78.38 145.75,-75.5 154.43,-73.34 163.66,-71.07 172.62,-68.88"/>
<polygon fill="#63b8ff" stroke="#63b8ff" points="173.41,-72.29 182.3,-66.53 171.75,-65.49 173.41,-72.29"/>
</a>
</g>
</g>
<!-- Node7 -->
<g id="Node000007" class="node">
<title>Node7</title>
<g id="a_Node000007"><a xlink:href="classCore_1_1GlobalInitialiser.html#a3844076c910ed26f60f42bada71cc09e" target="_top" xlink:title="Validates the specified initialization step and any additional steps.">
<polygon fill="white" stroke="#666666" points="279.88,-29 170.12,-29 170.12,0 279.88,0 279.88,-29"/>
<text xml:space="preserve" text-anchor="start" x="178.12" y="-15.5" font-family="Helvetica,sans-Serif" font-size="10.00">Core::GlobalInitialiser</text>
<text xml:space="preserve" text-anchor="middle" x="225" y="-5" font-family="Helvetica,sans-Serif" font-size="10.00">::validate_step</text>
</a>
</g>
</g>
<!-- Node1&#45;&gt;Node7 -->
<g id="edge8_Node000001_Node000007" class="edge">
<title>Node1&#45;&gt;Node7</title>
<g id="a_edge8_Node000001_Node000007"><a xlink:title=" ">
<path fill="none" stroke="#63b8ff" d="M74.54,-83.67C92.07,-70.33 119.48,-50.97 145.75,-38.5 150.01,-36.48 154.48,-34.58 159.04,-32.8"/>
<polygon fill="#63b8ff" stroke="#63b8ff" points="160.15,-36.12 168.34,-29.4 157.74,-29.55 160.15,-36.12"/>
</a>
</g>
</g>
<!-- Node2&#45;&gt;Node2 -->
<g id="edge2_Node000002_Node000002" class="edge">
<title>Node2&#45;&gt;Node2</title>
<g id="a_edge2_Node000002_Node000002"><a xlink:title=" ">
<path fill="none" stroke="#63b8ff" d="M199.59,-215C187.23,-223.57 195.7,-232.75 225,-232.75 241.94,-232.75 251.92,-229.68 254.93,-225.44"/>
<polygon fill="#63b8ff" stroke="#63b8ff" points="258.2,-224.17 251.01,-216.38 251.78,-226.95 258.2,-224.17"/>
</a>
</g>
</g>
<!-- Node3 -->
<g id="Node000003" class="node">
<title>Node3</title>
<g id="a_Node000003"><a xlink:href="namespaceWrapMPI.html#adab3300a86b8c0227268b23134b57a24" target="_top" xlink:title=" ">
<polygon fill="white" stroke="#666666" points="439.5,-214.75 340.25,-214.75 340.25,-196.25 439.5,-196.25 439.5,-214.75"/>
<text xml:space="preserve" text-anchor="middle" x="389.88" y="-201.25" font-family="Helvetica,sans-Serif" font-size="10.00">WrapMPI::get_type</text>
</a>
</g>
</g>
<!-- Node2&#45;&gt;Node3 -->
<g id="edge3_Node000002_Node000003" class="edge">
<title>Node2&#45;&gt;Node3</title>
<g id="a_edge3_Node000002_Node000003"><a xlink:title=" ">
<path fill="none" stroke="#63b8ff" d="M278.43,-205.5C294.45,-205.5 312.19,-205.5 328.68,-205.5"/>
<polygon fill="#63b8ff" stroke="#63b8ff" points="328.35,-209 338.35,-205.5 328.35,-202 328.35,-209"/>
</a>
</g>
</g>
<!-- Node5&#45;&gt;Node5 -->
<g id="edge6_Node000005_Node000005" class="edge">
<title>Node5&#45;&gt;Node5</title>
<g id="a_edge6_Node000005_Node000005"><a xlink:title=" ">
<path fill="none" stroke="#63b8ff" d="M196.27,-113.21C189.34,-122.32 198.92,-131 225,-131 239.26,-131 248.59,-128.41 252.98,-124.56"/>
<polygon fill="#63b8ff" stroke="#63b8ff" points="256.47,-124.93 253.63,-114.72 249.48,-124.46 256.47,-124.93"/>
</a>
</g>
</g>
</g>
</svg>
