<?xml version="1.0" encoding="UTF-8" standalone="no"?>
<!DOCTYPE svg PUBLIC "-//W3C//DTD SVG 1.1//EN"
 "http://www.w3.org/Graphics/SVG/1.1/DTD/svg11.dtd">
<!-- Generated by graphviz version 14.0.1 (0)
 -->
<!-- Title: Core::GlobalInitialiser::init_monte_carlo Pages: 1 -->
<svg width="553pt" height="249pt"
 viewBox="0.00 0.00 553.00 249.00" xmlns="http://www.w3.org/2000/svg" xmlns:xlink="http://www.w3.org/1999/xlink">
<g id="graph0" class="graph" transform="scale(1 1) rotate(0) translate(4 244.75)">
<title>Core::GlobalInitialiser::init_monte_carlo</title>
<!-- Node1 -->
<g id="Node000001" class="node">
<title>Node1</title>
<g id="a_Node000001"><a xlink:title="Initializes a Monte Carlo unit.">
<polygon fill="#999999" stroke="#666666" points="109.75,-126 0,-126 0,-97 109.75,-97 109.75,-126"/>
<text xml:space="preserve" text-anchor="start" x="8" y="-112.5" font-family="Helvetica,sans-Serif" font-size="10.00">Core::GlobalInitialiser</text>
<text xml:space="preserve" text-anchor="middle" x="54.88" y="-102" font-family="Helvetica,sans-Serif" font-size="10.00">::init_monte_carlo</text>
</a>
</g>
</g>
<!-- Node2 -->
<g id="Node000002" class="node">
<title>Node2</title>
<g id="a_Node000002"><a xlink:href="namespaceWrapMPI.html#a8237adbb04708d9bf4bae9e904d04f5f" target="_top" xlink:title=" ">
<polygon fill="white" stroke="#666666" points="409.5,-222.75 303.5,-222.75 303.5,-204.25 409.5,-204.25 409.5,-222.75"/>
<text xml:space="preserve" text-anchor="middle" x="356.5" y="-209.25" font-family="Helvetica,sans-Serif" font-size="10.00">WrapMPI::all_reduce</text>
</a>
</g>
</g>
<!-- Node1&#45;&gt;Node2 -->
<g id="edge1_Node000001_Node000002" class="edge">
<title>Node1&#45;&gt;Node2</title>
<g id="a_edge1_Node000001_Node000002"><a xlink:title=" ">
<path fill="none" stroke="#63b8ff" d="M66.35,-126.37C81.36,-146.32 111.03,-181.03 145.75,-196.5 191.6,-216.93 248.66,-220.33 291.68,-219.09"/>
<polygon fill="#63b8ff" stroke="#63b8ff" points="291.78,-222.59 301.63,-218.7 291.5,-215.6 291.78,-222.59"/>
</a>
</g>
</g>
<!-- Node4 -->
<g id="Node000004" class="node">
<title>Node4</title>
<g id="a_Node000004"><a xlink:href="classCore_1_1GlobalInitialiser.html#a5134f9db1f59d9124d5fdec88e3e99f3" target="_top" xlink:title="Checks the validity of specified initialization steps.">
<polygon fill="white" stroke="#666666" points="261.5,-187 151.75,-187 151.75,-158 261.5,-158 261.5,-187"/>
<text xml:space="preserve" text-anchor="start" x="159.75" y="-173.5" font-family="Helvetica,sans-Serif" font-size="10.00">Core::GlobalInitialiser</text>
<text xml:space="preserve" text-anchor="middle" x="206.62" y="-163" font-family="Helvetica,sans-Serif" font-size="10.00">::check_steps</text>
</a>
</g>
</g>
<!-- Node1&#45;&gt;Node4 -->
<g id="edge4_Node000001_Node000004" class="edge">
<title>Node1&#45;&gt;Node4</title>
<g id="a_edge4_Node000001_Node000004"><a xlink:title=" ">
<path fill="none" stroke="#63b8ff" d="M91.71,-126.34C108.16,-133.13 127.93,-141.26 145.75,-148.5 149.61,-150.07 153.61,-151.69 157.63,-153.31"/>
<polygon fill="#63b8ff" stroke="#63b8ff" points="156.25,-156.52 166.83,-157.01 158.86,-150.03 156.25,-156.52"/>
</a>
</g>
</g>
<!-- Node5 -->
<g id="Node000005" class="node">
<title>Node5</title>
<g id="a_Node000005"><a xlink:href="namespaceCore.html#a0e2d8a570d24a93cf81c2765b319ed8c" target="_top" xlink:title=" ">
<polygon fill="white" stroke="#666666" points="257.38,-139.75 155.88,-139.75 155.88,-121.25 257.38,-121.25 257.38,-139.75"/>
<text xml:space="preserve" text-anchor="middle" x="206.62" y="-126.25" font-family="Helvetica,sans-Serif" font-size="10.00">Core::get_rng_seed</text>
</a>
</g>
</g>
<!-- Node1&#45;&gt;Node5 -->
<g id="edge5_Node000001_Node000005" class="edge">
<title>Node1&#45;&gt;Node5</title>
<g id="a_edge5_Node000001_Node000005"><a xlink:title=" ">
<path fill="none" stroke="#63b8ff" d="M109.94,-118.36C121.12,-119.78 132.98,-121.28 144.4,-122.73"/>
<polygon fill="#63b8ff" stroke="#63b8ff" points="143.77,-126.18 154.13,-123.97 144.65,-119.24 143.77,-126.18"/>
</a>
</g>
</g>
<!-- Node9 -->
<g id="Node000009" class="node">
<title>Node9</title>
<g id="a_Node000009"><a xlink:href="namespaceMC.html#ac9b6a65d70e4c5007f4bc908509924a0" target="_top" xlink:title=" ">
<polygon fill="white" stroke="#666666" points="260.38,-102.75 152.88,-102.75 152.88,-84.25 260.38,-84.25 260.38,-102.75"/>
<text xml:space="preserve" text-anchor="middle" x="206.62" y="-89.25" font-family="Helvetica,sans-Serif" font-size="10.00">MC::post_init_weight</text>
</a>
</g>
</g>
<!-- Node1&#45;&gt;Node9 -->
<g id="edge10_Node000001_Node000009" class="edge">
<title>Node1&#45;&gt;Node9</title>
<g id="a_edge10_Node000001_Node000009"><a xlink:title=" ">
<path fill="none" stroke="#63b8ff" d="M109.94,-105C120.09,-103.78 130.8,-102.49 141.22,-101.24"/>
<polygon fill="#63b8ff" stroke="#63b8ff" points="141.38,-104.75 150.89,-100.08 140.54,-97.8 141.38,-104.75"/>
</a>
</g>
</g>
<!-- Node10 -->
<g id="Node000010" class="node">
<title>Node10</title>
<g id="a_Node000010"><a xlink:href="namespaceCommon.html#a4c3ef9393b340279cc4b323f766479d1" target="_top" xlink:title="Wrapper arround set_env.">
<polygon fill="white" stroke="#666666" points="267.5,-65.75 145.75,-65.75 145.75,-47.25 267.5,-47.25 267.5,-65.75"/>
<text xml:space="preserve" text-anchor="middle" x="206.62" y="-52.25" font-family="Helvetica,sans-Serif" font-size="10.00">Common::set_local_env</text>
</a>
</g>
</g>
<!-- Node1&#45;&gt;Node10 -->
<g id="edge11_Node000001_Node000010" class="edge">
<title>Node1&#45;&gt;Node10</title>
<g id="a_edge11_Node000001_Node000010"><a xlink:title=" ">
<path fill="none" stroke="#63b8ff" d="M91.51,-96.53C107.92,-89.81 127.71,-81.96 145.75,-75.5 151.19,-73.55 156.95,-71.59 162.66,-69.71"/>
<polygon fill="#63b8ff" stroke="#63b8ff" points="163.59,-73.09 172.03,-66.69 161.44,-66.43 163.59,-73.09"/>
</a>
</g>
</g>
<!-- Node11 -->
<g id="Node000011" class="node">
<title>Node11</title>
<g id="a_Node000011"><a xlink:href="classCore_1_1GlobalInitialiser.html#a3844076c910ed26f60f42bada71cc09e" target="_top" xlink:title="Validates the specified initialization step and any additional steps.">
<polygon fill="white" stroke="#666666" points="261.5,-29 151.75,-29 151.75,0 261.5,0 261.5,-29"/>
<text xml:space="preserve" text-anchor="start" x="159.75" y="-15.5" font-family="Helvetica,sans-Serif" font-size="10.00">Core::GlobalInitialiser</text>
<text xml:space="preserve" text-anchor="middle" x="206.62" y="-5" font-family="Helvetica,sans-Serif" font-size="10.00">::validate_step</text>
</a>
</g>
</g>
<!-- Node1&#45;&gt;Node11 -->
<g id="edge12_Node000001_Node000011" class="edge">
<title>Node1&#45;&gt;Node11</title>
<g id="a_edge12_Node000001_Node000011"><a xlink:title=" ">
<path fill="none" stroke="#63b8ff" d="M71.03,-96.76C88.09,-80.78 117.16,-55.32 145.75,-38.5 148.2,-37.06 150.75,-35.67 153.36,-34.33"/>
<polygon fill="#63b8ff" stroke="#63b8ff" points="154.73,-37.56 162.26,-30.1 151.72,-31.23 154.73,-37.56"/>
</a>
</g>
</g>
<!-- Node2&#45;&gt;Node2 -->
<g id="edge2_Node000002_Node000002" class="edge">
<title>Node2&#45;&gt;Node2</title>
<g id="a_edge2_Node000002_Node000002"><a xlink:title=" ">
<path fill="none" stroke="#63b8ff" d="M335.13,-223C324.74,-231.57 331.86,-240.75 356.5,-240.75 370.36,-240.75 378.68,-237.84 381.45,-233.78"/>
<polygon fill="#63b8ff" stroke="#63b8ff" points="384.82,-232.82 378.34,-224.43 378.18,-235.03 384.82,-232.82"/>
</a>
</g>
</g>
<!-- Node3 -->
<g id="Node000003" class="node">
<title>Node3</title>
<g id="a_Node000003"><a xlink:href="namespaceWrapMPI.html#adab3300a86b8c0227268b23134b57a24" target="_top" xlink:title=" ">
<polygon fill="white" stroke="#666666" points="544.75,-202.75 445.5,-202.75 445.5,-184.25 544.75,-184.25 544.75,-202.75"/>
<text xml:space="preserve" text-anchor="middle" x="495.12" y="-189.25" font-family="Helvetica,sans-Serif" font-size="10.00">WrapMPI::get_type</text>
</a>
</g>
</g>
<!-- Node2&#45;&gt;Node3 -->
<g id="edge3_Node000002_Node000003" class="edge">
<title>Node2&#45;&gt;Node3</title>
<g id="a_edge3_Node000002_Node000003"><a xlink:title=" ">
<path fill="none" stroke="#63b8ff" d="M409.93,-205.82C417.81,-204.67 425.98,-203.47 434.01,-202.3"/>
<polygon fill="#63b8ff" stroke="#63b8ff" points="434.31,-205.79 443.7,-200.88 433.3,-198.87 434.31,-205.79"/>
</a>
</g>
</g>
<!-- Node6 -->
<g id="Node000006" class="node">
<title>Node6</title>
<g id="a_Node000006"><a xlink:href="namespaceWrapMPI.html#a372df5351a2085df252cc9f4cceae7de" target="_top" xlink:title="Broadcasts a single data item to all processes.">
<polygon fill="white" stroke="#666666" points="408.75,-182.75 304.25,-182.75 304.25,-164.25 408.75,-164.25 408.75,-182.75"/>
<text xml:space="preserve" text-anchor="middle" x="356.5" y="-169.25" font-family="Helvetica,sans-Serif" font-size="10.00">WrapMPI::broadcast</text>
</a>
</g>
</g>
<!-- Node5&#45;&gt;Node6 -->
<g id="edge6_Node000005_Node000006" class="edge">
<title>Node5&#45;&gt;Node6</title>
<g id="a_edge6_Node000005_Node000006"><a xlink:title=" ">
<path fill="none" stroke="#63b8ff" d="M240.81,-140.15C261.57,-146.19 288.57,-154.04 311.15,-160.6"/>
<polygon fill="#63b8ff" stroke="#63b8ff" points="310.14,-163.95 320.72,-163.39 312.09,-157.23 310.14,-163.95"/>
</a>
</g>
</g>
<!-- Node7 -->
<g id="Node000007" class="node">
<title>Node7</title>
<g id="a_Node000007"><a xlink:href="namespaceMC.html#aa68fd5fea506331f369d20b49904dafd" target="_top" xlink:title=" ">
<polygon fill="white" stroke="#666666" points="403.5,-140.75 309.5,-140.75 309.5,-122.25 403.5,-122.25 403.5,-140.75"/>
<text xml:space="preserve" text-anchor="middle" x="356.5" y="-127.25" font-family="Helvetica,sans-Serif" font-size="10.00">MC::master_seed</text>
</a>
</g>
</g>
<!-- Node5&#45;&gt;Node7 -->
<g id="edge8_Node000005_Node000007" class="edge">
<title>Node5&#45;&gt;Node7</title>
<g id="a_edge8_Node000005_Node000007"><a xlink:title=" ">
<path fill="none" stroke="#63b8ff" d="M257.69,-130.84C270.65,-130.93 284.71,-131.02 298.02,-131.11"/>
<polygon fill="#63b8ff" stroke="#63b8ff" points="297.93,-134.61 307.96,-131.18 297.98,-127.61 297.93,-134.61"/>
</a>
</g>
</g>
<!-- Node8 -->
<g id="Node000008" class="node">
<title>Node8</title>
<g id="a_Node000008"><a xlink:href="namespaceMC.html#af7f8e9154582097b61aaed45e6b53e28" target="_top" xlink:title=" ">
<polygon fill="white" stroke="#666666" points="409.5,-103.75 303.5,-103.75 303.5,-85.25 409.5,-85.25 409.5,-103.75"/>
<text xml:space="preserve" text-anchor="middle" x="356.5" y="-90.25" font-family="Helvetica,sans-Serif" font-size="10.00">MC::next_splitmix64</text>
</a>
</g>
</g>
<!-- Node5&#45;&gt;Node8 -->
<g id="edge9_Node000005_Node000008" class="edge">
<title>Node5&#45;&gt;Node8</title>
<g id="a_edge9_Node000005_Node000008"><a xlink:title=" ">
<path fill="none" stroke="#63b8ff" d="M247.64,-120.76C265.15,-116.5 285.9,-111.45 304.49,-106.92"/>
<polygon fill="#63b8ff" stroke="#63b8ff" points="305.09,-110.37 313.98,-104.61 303.44,-103.57 305.09,-110.37"/>
</a>
</g>
</g>
<!-- Node6&#45;&gt;Node3 -->
<g id="edge7_Node000006_Node000003" class="edge">
<title>Node6&#45;&gt;Node3</title>
<g id="a_edge7_Node000006_Node000003"><a xlink:title=" ">
<path fill="none" stroke="#63b8ff" d="M409.15,-181.06C417.26,-182.25 425.69,-183.48 433.97,-184.69"/>
<polygon fill="#63b8ff" stroke="#63b8ff" points="433.21,-188.12 443.61,-186.11 434.22,-181.19 433.21,-188.12"/>
</a>
</g>
</g>
</g>
</svg>
