<?xml version="1.0" encoding="UTF-8" standalone="no"?>
<!DOCTYPE svg PUBLIC "-//W3C//DTD SVG 1.1//EN"
 "http://www.w3.org/Graphics/SVG/1.1/DTD/svg11.dtd">
<!-- Generated by graphviz version 12.1.2 (0)
 -->
<!-- Title: CmaUtils::FlowMapTransitionner::advance Pages: 1 -->
<svg width="556pt" height="178pt"
 viewBox="0.00 0.00 555.50 178.00" xmlns="http://www.w3.org/2000/svg" xmlns:xlink="http://www.w3.org/1999/xlink">
<g id="graph0" class="graph" transform="scale(1 1) rotate(0) translate(4 174)">
<title>CmaUtils::FlowMapTransitionner::advance</title>
<!-- Node1 -->
<g id="Node000001" class="node">
<title>Node1</title>
<g id="a_Node000001"><a xlink:title="Advances the simulation by one timestep.">
<polygon fill="#999999" stroke="#666666" points="158.5,-76 0,-76 0,-47 158.5,-47 158.5,-76"/>
<text text-anchor="start" x="8" y="-62.5" font-family="Helvetica,sans-Serif" font-size="10.00">CmaUtils::FlowMapTransitionner</text>
<text text-anchor="middle" x="79.25" y="-52" font-family="Helvetica,sans-Serif" font-size="10.00">::advance</text>
</a>
</g>
</g>
<!-- Node2 -->
<g id="Node000002" class="node">
<title>Node2</title>
<g id="a_Node000002"><a xlink:href="classCmaUtils_1_1FlowMapTransitionner.html#a52f9717655f1b6aa9891b6c23cc6bf3f" target="_top" xlink:title="Operation required by all methods in order to perform advance function .">
<polygon fill="white" stroke="#666666" points="353,-123 194.5,-123 194.5,-94 353,-94 353,-123"/>
<text text-anchor="start" x="202.5" y="-109.5" font-family="Helvetica,sans-Serif" font-size="10.00">CmaUtils::FlowMapTransitionner</text>
<text text-anchor="middle" x="273.75" y="-99" font-family="Helvetica,sans-Serif" font-size="10.00">::common_advance</text>
</a>
</g>
</g>
<!-- Node1&#45;&gt;Node2 -->
<g id="edge1_Node000001_Node000002" class="edge">
<title>Node1&#45;&gt;Node2</title>
<g id="a_edge1_Node000001_Node000002"><a xlink:title=" ">
<path fill="none" stroke="#63b8ff" d="M141.42,-76.44C160.19,-81.02 181.02,-86.1 200.46,-90.85"/>
<polygon fill="#63b8ff" stroke="#63b8ff" points="199.39,-94.19 209.94,-93.16 201.05,-87.39 199.39,-94.19"/>
</a>
</g>
</g>
<!-- Node6 -->
<g id="Node000006" class="node">
<title>Node6</title>
<g id="a_Node000006"><a xlink:href="classCmaUtils_1_1FlowMapTransitionner.html#a8b4b87c5ab55650fa16ff5be9f43a609" target="_top" xlink:title="Provides a const reference to the current reactor state.">
<polygon fill="white" stroke="#666666" points="353,-76 194.5,-76 194.5,-47 353,-47 353,-76"/>
<text text-anchor="start" x="202.5" y="-62.5" font-family="Helvetica,sans-Serif" font-size="10.00">CmaUtils::FlowMapTransitionner</text>
<text text-anchor="middle" x="273.75" y="-52" font-family="Helvetica,sans-Serif" font-size="10.00">::get_current_reactor_state</text>
</a>
</g>
</g>
<!-- Node1&#45;&gt;Node6 -->
<g id="edge5_Node000001_Node000006" class="edge">
<title>Node1&#45;&gt;Node6</title>
<g id="a_edge5_Node000001_Node000006"><a xlink:title=" ">
<path fill="none" stroke="#63b8ff" d="M158.82,-61.5C166.74,-61.5 174.82,-61.5 182.84,-61.5"/>
<polygon fill="#63b8ff" stroke="#63b8ff" points="182.6,-65 192.6,-61.5 182.6,-58 182.6,-65"/>
</a>
</g>
</g>
<!-- Node7 -->
<g id="Node000007" class="node">
<title>Node7</title>
<g id="a_Node000007"><a xlink:href="classCmaUtils_1_1FlowMapTransitionner.html#a29756d31f1e3c014ef0aa58925bd3da6" target="_top" xlink:title="Calculate the current state based on the selected method, may be caching or direct calculation.">
<polygon fill="white" stroke="#666666" points="353,-29 194.5,-29 194.5,0 353,0 353,-29"/>
<text text-anchor="start" x="202.5" y="-15.5" font-family="Helvetica,sans-Serif" font-size="10.00">CmaUtils::FlowMapTransitionner</text>
<text text-anchor="middle" x="273.75" y="-5" font-family="Helvetica,sans-Serif" font-size="10.00">::update_flow</text>
</a>
</g>
</g>
<!-- Node1&#45;&gt;Node7 -->
<g id="edge6_Node000001_Node000007" class="edge">
<title>Node1&#45;&gt;Node7</title>
<g id="a_edge6_Node000001_Node000007"><a xlink:title=" ">
<path fill="none" stroke="#63b8ff" d="M141.42,-46.56C160.19,-41.98 181.02,-36.9 200.46,-32.15"/>
<polygon fill="#63b8ff" stroke="#63b8ff" points="201.05,-35.61 209.94,-29.84 199.39,-28.81 201.05,-35.61"/>
</a>
</g>
</g>
<!-- Node3 -->
<g id="Node000003" class="node">
<title>Node3</title>
<g id="a_Node000003"><a xlink:href="classCmaUtils_1_1FlowMapTransitionner.html#a3dc7a76f36a1a0ada35bb8d1ca8f512c" target="_top" xlink:title="Get current gas state read from CmaRead.">
<polygon fill="white" stroke="#666666" points="547.5,-170 389,-170 389,-141 547.5,-141 547.5,-170"/>
<text text-anchor="start" x="397" y="-156.5" font-family="Helvetica,sans-Serif" font-size="10.00">CmaUtils::FlowMapTransitionner</text>
<text text-anchor="middle" x="468.25" y="-146" font-family="Helvetica,sans-Serif" font-size="10.00">::current_gas_hydro_state</text>
</a>
</g>
</g>
<!-- Node2&#45;&gt;Node3 -->
<g id="edge2_Node000002_Node000003" class="edge">
<title>Node2&#45;&gt;Node3</title>
<g id="a_edge2_Node000002_Node000003"><a xlink:title=" ">
<path fill="none" stroke="#63b8ff" d="M335.92,-123.44C354.69,-128.02 375.52,-133.1 394.96,-137.85"/>
<polygon fill="#63b8ff" stroke="#63b8ff" points="393.89,-141.19 404.44,-140.16 395.55,-134.39 393.89,-141.19"/>
</a>
</g>
</g>
<!-- Node4 -->
<g id="Node000004" class="node">
<title>Node4</title>
<g id="a_Node000004"><a xlink:href="classCmaUtils_1_1FlowMapTransitionner.html#a33ea0931034223c04f4c1074ad1ee5aa" target="_top" xlink:title="Get current liquid state read from CmaRead.">
<polygon fill="white" stroke="#666666" points="547.5,-123 389,-123 389,-94 547.5,-94 547.5,-123"/>
<text text-anchor="start" x="397" y="-109.5" font-family="Helvetica,sans-Serif" font-size="10.00">CmaUtils::FlowMapTransitionner</text>
<text text-anchor="middle" x="468.25" y="-99" font-family="Helvetica,sans-Serif" font-size="10.00">::current_liq_hydro_state</text>
</a>
</g>
</g>
<!-- Node2&#45;&gt;Node4 -->
<g id="edge3_Node000002_Node000004" class="edge">
<title>Node2&#45;&gt;Node4</title>
<g id="a_edge3_Node000002_Node000004"><a xlink:title=" ">
<path fill="none" stroke="#63b8ff" d="M353.32,-108.5C361.24,-108.5 369.32,-108.5 377.34,-108.5"/>
<polygon fill="#63b8ff" stroke="#63b8ff" points="377.1,-112 387.1,-108.5 377.1,-105 377.1,-112"/>
</a>
</g>
</g>
<!-- Node5 -->
<g id="Node000005" class="node">
<title>Node5</title>
<g id="a_Node000005"><a xlink:href="classCmaUtils_1_1FlowMapTransitionner.html#adc33f9f202442f07fede2ffe1bb0ee6d" target="_top" xlink:title="Update flow and iteration counters.">
<polygon fill="white" stroke="#666666" points="547.5,-76 389,-76 389,-47 547.5,-47 547.5,-76"/>
<text text-anchor="start" x="397" y="-62.5" font-family="Helvetica,sans-Serif" font-size="10.00">CmaUtils::FlowMapTransitionner</text>
<text text-anchor="middle" x="468.25" y="-52" font-family="Helvetica,sans-Serif" font-size="10.00">::update_counters</text>
</a>
</g>
</g>
<!-- Node2&#45;&gt;Node5 -->
<g id="edge4_Node000002_Node000005" class="edge">
<title>Node2&#45;&gt;Node5</title>
<g id="a_edge4_Node000002_Node000005"><a xlink:title=" ">
<path fill="none" stroke="#63b8ff" d="M335.92,-93.56C354.69,-88.98 375.52,-83.9 394.96,-79.15"/>
<polygon fill="#63b8ff" stroke="#63b8ff" points="395.55,-82.61 404.44,-76.84 393.89,-75.81 395.55,-82.61"/>
</a>
</g>
</g>
</g>
</svg>
