<?xml version="1.0" encoding="UTF-8" standalone="no"?>
<!DOCTYPE svg PUBLIC "-//W3C//DTD SVG 1.1//EN"
 "http://www.w3.org/Graphics/SVG/1.1/DTD/svg11.dtd">
<!-- Generated by graphviz version 14.0.1 (0)
 -->
<!-- Title: Simulation::SimulationException Pages: 1 -->
<svg width="294pt" height="146pt"
 viewBox="0.00 0.00 294.00 146.00" xmlns="http://www.w3.org/2000/svg" xmlns:xlink="http://www.w3.org/1999/xlink">
<g id="graph0" class="graph" transform="scale(1 1) rotate(0) translate(4 142)">
<title>Simulation::SimulationException</title>
<!-- Node1 -->
<g id="Node000001" class="node">
<title>Node1</title>
<g id="a_Node000001"><a xlink:title=" ">
<polygon fill="#999999" stroke="#666666" points="222.12,-83.5 65.88,-83.5 65.88,-65 222.12,-65 222.12,-83.5"/>
<text xml:space="preserve" text-anchor="middle" x="144" y="-70" font-family="Helvetica,sans-Serif" font-size="10.00">Simulation::SimulationException</text>
</a>
</g>
</g>
<!-- Node3 -->
<g id="Node000003" class="node">
<title>Node3</title>
<g id="a_Node000003"><a xlink:href="classSimulation_1_1BaseSimulationException.html" target="_top" xlink:title=" ">
<polygon fill="white" stroke="#666666" points="136,-29 0,-29 0,0 136,0 136,-29"/>
<text xml:space="preserve" text-anchor="start" x="8" y="-15.5" font-family="Helvetica,sans-Serif" font-size="10.00">Simulation::BaseSimulation</text>
<text xml:space="preserve" text-anchor="middle" x="68" y="-5" font-family="Helvetica,sans-Serif" font-size="10.00">Exception</text>
</a>
</g>
</g>
<!-- Node1&#45;&gt;Node3 -->
<g id="edge2_Node000001_Node000003" class="edge">
<title>Node1&#45;&gt;Node3</title>
<g id="a_edge2_Node000001_Node000003"><a xlink:title=" ">
<path fill="none" stroke="#63b8ff" d="M123.82,-57.92C112.18,-49.07 97.65,-38.03 86.34,-29.43"/>
<polygon fill="#63b8ff" stroke="#63b8ff" points="121.5,-60.55 131.58,-63.81 125.74,-54.98 121.5,-60.55"/>
</a>
</g>
</g>
<!-- Node4 -->
<g id="Node000004" class="node">
<title>Node4</title>
<g id="a_Node000004"><a xlink:href="classSimulation_1_1FeedException.html" target="_top" xlink:title=" ">
<polygon fill="white" stroke="#666666" points="286.12,-23.75 153.88,-23.75 153.88,-5.25 286.12,-5.25 286.12,-23.75"/>
<text xml:space="preserve" text-anchor="middle" x="220" y="-10.25" font-family="Helvetica,sans-Serif" font-size="10.00">Simulation::FeedException</text>
</a>
</g>
</g>
<!-- Node1&#45;&gt;Node4 -->
<g id="edge3_Node000001_Node000004" class="edge">
<title>Node1&#45;&gt;Node4</title>
<g id="a_edge3_Node000001_Node000004"><a xlink:title=" ">
<path fill="none" stroke="#63b8ff" d="M164.2,-57.9C178.36,-47.14 196.77,-33.15 208.49,-24.25"/>
<polygon fill="#63b8ff" stroke="#63b8ff" points="162.26,-54.98 156.42,-63.81 166.5,-60.55 162.26,-54.98"/>
</a>
</g>
</g>
<!-- Node2 -->
<g id="Node000002" class="node">
<title>Node2</title>
<g id="a_Node000002"><a xlink:title=" ">
<polygon fill="white" stroke="#666666" points="182.38,-138 105.62,-138 105.62,-119.5 182.38,-119.5 182.38,-138"/>
<text xml:space="preserve" text-anchor="middle" x="144" y="-124.5" font-family="Helvetica,sans-Serif" font-size="10.00">std::exception</text>
</a>
</g>
</g>
<!-- Node2&#45;&gt;Node1 -->
<g id="edge1_Node000001_Node000002" class="edge">
<title>Node2&#45;&gt;Node1</title>
<g id="a_edge1_Node000001_Node000002"><a xlink:title=" ">
<path fill="none" stroke="#63b8ff" d="M144,-107.64C144,-99.36 144,-90.21 144,-83.76"/>
<polygon fill="#63b8ff" stroke="#63b8ff" points="140.5,-107.57 144,-117.57 147.5,-107.57 140.5,-107.57"/>
</a>
</g>
</g>
</g>
</svg>
