<?xml version="1.0" encoding="UTF-8" standalone="no"?>
<!DOCTYPE svg PUBLIC "-//W3C//DTD SVG 1.1//EN"
 "http://www.w3.org/Graphics/SVG/1.1/DTD/svg11.dtd">
<!-- Generated by graphviz version 14.0.1 (0)
 -->
<!-- Title: Simulation::Getter::getCgasData Pages: 1 -->
<svg width="265pt" height="168pt"
 viewBox="0.00 0.00 265.00 168.00" xmlns="http://www.w3.org/2000/svg" xmlns:xlink="http://www.w3.org/1999/xlink">
<g id="graph0" class="graph" transform="scale(1 1) rotate(0) translate(4 163.75)">
<title>Simulation::Getter::getCgasData</title>
<!-- Node1 -->
<g id="Node000001" class="node">
<title>Node1</title>
<g id="a_Node000001"><a xlink:title=" ">
<polygon fill="#999999" stroke="#666666" points="257,-99 162.25,-99 162.25,-70 257,-70 257,-99"/>
<text xml:space="preserve" text-anchor="start" x="170.25" y="-85.5" font-family="Helvetica,sans-Serif" font-size="10.00">Simulation::Getter</text>
<text xml:space="preserve" text-anchor="middle" x="209.62" y="-75" font-family="Helvetica,sans-Serif" font-size="10.00">::getCgasData</text>
</a>
</g>
</g>
<!-- Node2 -->
<g id="Node000002" class="node">
<title>Node2</title>
<g id="a_Node000002"><a xlink:href="classExportHandler.html#ac8574bef8f5a8eceaef5d75dbb6e3ad7" target="_top" xlink:title="Handles periodic export of simulation data.">
<polygon fill="white" stroke="#666666" points="126.25,-159.75 0,-159.75 0,-141.25 126.25,-141.25 126.25,-159.75"/>
<text xml:space="preserve" text-anchor="middle" x="63.12" y="-146.25" font-family="Helvetica,sans-Serif" font-size="10.00">ExportHandler::operator()</text>
</a>
</g>
</g>
<!-- Node1&#45;&gt;Node2 -->
<g id="edge1_Node000001_Node000002" class="edge">
<title>Node1&#45;&gt;Node2</title>
<g id="a_edge1_Node000001_Node000002"><a xlink:title=" ">
<path fill="none" stroke="#63b8ff" d="M176.94,-105.43C162.01,-114.64 143.68,-125.03 126.25,-132.5 118.92,-135.64 110.88,-138.42 103.08,-140.81"/>
<polygon fill="#63b8ff" stroke="#63b8ff" points="178.8,-108.39 185.4,-100.1 175.07,-102.47 178.8,-108.39"/>
</a>
</g>
</g>
<!-- Node3 -->
<g id="Node000003" class="node">
<title>Node3</title>
<g id="a_Node000003"><a xlink:href="classSimulation_1_1Getter.html#aaa43464497c10db193f48f4f550c4933" target="_top" xlink:title=" ">
<polygon fill="white" stroke="#666666" points="110.5,-123 15.75,-123 15.75,-94 110.5,-94 110.5,-123"/>
<text xml:space="preserve" text-anchor="start" x="23.75" y="-109.5" font-family="Helvetica,sans-Serif" font-size="10.00">Simulation::Getter</text>
<text xml:space="preserve" text-anchor="middle" x="63.12" y="-99" font-family="Helvetica,sans-Serif" font-size="10.00">::operator=</text>
</a>
</g>
</g>
<!-- Node1&#45;&gt;Node3 -->
<g id="edge2_Node000001_Node000003" class="edge">
<title>Node1&#45;&gt;Node3</title>
<g id="a_edge2_Node000001_Node000003"><a xlink:title=" ">
<path fill="none" stroke="#63b8ff" d="M151.03,-94.07C137.59,-96.3 123.44,-98.65 110.55,-100.79"/>
<polygon fill="#63b8ff" stroke="#63b8ff" points="151.32,-97.57 160.62,-92.47 150.18,-90.66 151.32,-97.57"/>
</a>
</g>
</g>
<!-- Node4 -->
<g id="Node000004" class="node">
<title>Node4</title>
<g id="a_Node000004"><a xlink:href="classExportHandler.html#afc7aba2b266fe47bd469b0629c949a7f" target="_top" xlink:title="Prepares and updates the exporter with the current simulation state before/after main loop.">
<polygon fill="white" stroke="#666666" points="112.38,-76 13.88,-76 13.88,-47 112.38,-47 112.38,-76"/>
<text xml:space="preserve" text-anchor="start" x="21.88" y="-62.5" font-family="Helvetica,sans-Serif" font-size="10.00">ExportHandler::pre</text>
<text xml:space="preserve" text-anchor="middle" x="63.12" y="-52" font-family="Helvetica,sans-Serif" font-size="10.00">_post_export</text>
</a>
</g>
</g>
<!-- Node1&#45;&gt;Node4 -->
<g id="edge3_Node000001_Node000004" class="edge">
<title>Node1&#45;&gt;Node4</title>
<g id="a_edge3_Node000001_Node000004"><a xlink:title=" ">
<path fill="none" stroke="#63b8ff" d="M150.77,-75.29C138.18,-73.29 124.98,-71.19 112.79,-69.25"/>
<polygon fill="#63b8ff" stroke="#63b8ff" points="150.19,-78.74 160.61,-76.86 151.29,-71.83 150.19,-78.74"/>
</a>
</g>
</g>
<!-- Node5 -->
<g id="Node000005" class="node">
<title>Node5</title>
<g id="a_Node000005"><a xlink:href="classCore_1_1MainExporter.html#a38765c9b7bcf5a1867e0e947a166e01b" target="_top" xlink:title="Writes final simulation data to the output.">
<polygon fill="white" stroke="#666666" points="113.88,-29 12.38,-29 12.38,0 113.88,0 113.88,-29"/>
<text xml:space="preserve" text-anchor="start" x="20.38" y="-15.5" font-family="Helvetica,sans-Serif" font-size="10.00">Core::MainExporter</text>
<text xml:space="preserve" text-anchor="middle" x="63.12" y="-5" font-family="Helvetica,sans-Serif" font-size="10.00">::write_final</text>
</a>
</g>
</g>
<!-- Node1&#45;&gt;Node5 -->
<g id="edge4_Node000001_Node000005" class="edge">
<title>Node1&#45;&gt;Node5</title>
<g id="a_edge4_Node000001_Node000005"><a xlink:title=" ">
<path fill="none" stroke="#63b8ff" d="M174.6,-64.08C159.96,-55.67 142.51,-46.14 126.25,-38.5 119.55,-35.35 112.32,-32.28 105.24,-29.44"/>
<polygon fill="#63b8ff" stroke="#63b8ff" points="172.52,-66.92 182.92,-68.92 176.04,-60.87 172.52,-66.92"/>
</a>
</g>
</g>
</g>
</svg>
