<?xml version="1.0" encoding="UTF-8" standalone="no"?>
<!DOCTYPE svg PUBLIC "-//W3C//DTD SVG 1.1//EN"
 "http://www.w3.org/Graphics/SVG/1.1/DTD/svg11.dtd">
<!-- Generated by graphviz version 14.0.1 (0)
 -->
<!-- Title: ExportHandler::pre_post_export Pages: 1 -->
<svg width="274pt" height="131pt"
 viewBox="0.00 0.00 274.00 131.00" xmlns="http://www.w3.org/2000/svg" xmlns:xlink="http://www.w3.org/1999/xlink">
<g id="graph0" class="graph" transform="scale(1 1) rotate(0) translate(4 127)">
<title>ExportHandler::pre_post_export</title>
<!-- Node1 -->
<g id="Node000001" class="node">
<title>Node1</title>
<g id="a_Node000001"><a xlink:title="Prepares and updates the exporter with the current simulation state before/after main loop.">
<polygon fill="#999999" stroke="#666666" points="98.5,-76 0,-76 0,-47 98.5,-47 98.5,-76"/>
<text xml:space="preserve" text-anchor="start" x="8" y="-62.5" font-family="Helvetica,sans-Serif" font-size="10.00">ExportHandler::pre</text>
<text xml:space="preserve" text-anchor="middle" x="49.25" y="-52" font-family="Helvetica,sans-Serif" font-size="10.00">_post_export</text>
</a>
</g>
</g>
<!-- Node2 -->
<g id="Node000002" class="node">
<title>Node2</title>
<g id="a_Node000002"><a xlink:href="classSimulation_1_1SimulationUnit.html#abee4f5b8a764dc6655ee5a91fcab7080" target="_top" xlink:title=" ">
<polygon fill="white" stroke="#666666" points="266,-123 134.5,-123 134.5,-94 266,-94 266,-123"/>
<text xml:space="preserve" text-anchor="start" x="142.5" y="-109.5" font-family="Helvetica,sans-Serif" font-size="10.00">Simulation::SimulationUnit</text>
<text xml:space="preserve" text-anchor="middle" x="200.25" y="-99" font-family="Helvetica,sans-Serif" font-size="10.00">::getCgasData</text>
</a>
</g>
</g>
<!-- Node1&#45;&gt;Node2 -->
<g id="edge1_Node000001_Node000002" class="edge">
<title>Node1&#45;&gt;Node2</title>
<g id="a_edge1_Node000001_Node000002"><a xlink:title=" ">
<path fill="none" stroke="#63b8ff" d="M97.39,-76.37C111.25,-80.74 126.58,-85.58 141.05,-90.14"/>
<polygon fill="#63b8ff" stroke="#63b8ff" points="139.87,-93.44 150.46,-93.11 141.97,-86.76 139.87,-93.44"/>
</a>
</g>
</g>
<!-- Node3 -->
<g id="Node000003" class="node">
<title>Node3</title>
<g id="a_Node000003"><a xlink:href="classSimulation_1_1SimulationUnit.html#a3d0ee29e0a425f79fa8cbc620d2abb99" target="_top" xlink:title=" ">
<polygon fill="white" stroke="#666666" points="266,-76 134.5,-76 134.5,-47 266,-47 266,-76"/>
<text xml:space="preserve" text-anchor="start" x="142.5" y="-62.5" font-family="Helvetica,sans-Serif" font-size="10.00">Simulation::SimulationUnit</text>
<text xml:space="preserve" text-anchor="middle" x="200.25" y="-52" font-family="Helvetica,sans-Serif" font-size="10.00">::getCliqData</text>
</a>
</g>
</g>
<!-- Node1&#45;&gt;Node3 -->
<g id="edge2_Node000001_Node000003" class="edge">
<title>Node1&#45;&gt;Node3</title>
<g id="a_edge2_Node000001_Node000003"><a xlink:title=" ">
<path fill="none" stroke="#63b8ff" d="M98.63,-61.5C106.31,-61.5 114.41,-61.5 122.55,-61.5"/>
<polygon fill="#63b8ff" stroke="#63b8ff" points="122.53,-65 132.53,-61.5 122.53,-58 122.53,-65"/>
</a>
</g>
</g>
<!-- Node4 -->
<g id="Node000004" class="node">
<title>Node4</title>
<g id="a_Node000004"><a xlink:href="classSimulation_1_1SimulationUnit.html#a95e094f9921c520f4a41e3b9a308b187" target="_top" xlink:title=" ">
<polygon fill="white" stroke="#666666" points="266,-29 134.5,-29 134.5,0 266,0 266,-29"/>
<text xml:space="preserve" text-anchor="start" x="142.5" y="-15.5" font-family="Helvetica,sans-Serif" font-size="10.00">Simulation::SimulationUnit</text>
<text xml:space="preserve" text-anchor="middle" x="200.25" y="-5" font-family="Helvetica,sans-Serif" font-size="10.00">::getMTRData</text>
</a>
</g>
</g>
<!-- Node1&#45;&gt;Node4 -->
<g id="edge3_Node000001_Node000004" class="edge">
<title>Node1&#45;&gt;Node4</title>
<g id="a_edge3_Node000001_Node000004"><a xlink:title=" ">
<path fill="none" stroke="#63b8ff" d="M97.39,-46.63C111.25,-42.26 126.58,-37.42 141.05,-32.86"/>
<polygon fill="#63b8ff" stroke="#63b8ff" points="141.97,-36.24 150.46,-29.89 139.87,-29.56 141.97,-36.24"/>
</a>
</g>
</g>
</g>
</svg>
