<?xml version="1.0" encoding="UTF-8" standalone="no"?>
<!DOCTYPE svg PUBLIC "-//W3C//DTD SVG 1.1//EN"
 "http://www.w3.org/Graphics/SVG/1.1/DTD/svg11.dtd">
<!-- Generated by graphviz version 14.0.1 (0)
 -->
<!-- Title: Simulation::Getter::operator= Pages: 1 -->
<svg width="269pt" height="648pt"
 viewBox="0.00 0.00 269.00 648.00" xmlns="http://www.w3.org/2000/svg" xmlns:xlink="http://www.w3.org/1999/xlink">
<g id="graph0" class="graph" transform="scale(1 1) rotate(0) translate(4 644)">
<title>Simulation::Getter::operator=</title>
<!-- Node1 -->
<g id="Node000001" class="node">
<title>Node1</title>
<g id="a_Node000001"><a xlink:title=" ">
<polygon fill="#999999" stroke="#666666" points="94.75,-334 0,-334 0,-305 94.75,-305 94.75,-334"/>
<text xml:space="preserve" text-anchor="start" x="8" y="-320.5" font-family="Helvetica,sans-Serif" font-size="10.00">Simulation::Getter</text>
<text xml:space="preserve" text-anchor="middle" x="47.38" y="-310" font-family="Helvetica,sans-Serif" font-size="10.00">::operator=</text>
</a>
</g>
</g>
<!-- Node2 -->
<g id="Node000002" class="node">
<title>Node2</title>
<g id="a_Node000002"><a xlink:href="classSimulation_1_1Getter.html#aa05e910f612e1029c13e30afd997fd1d" target="_top" xlink:title=" ">
<polygon fill="white" stroke="#666666" points="243.12,-640 148.38,-640 148.38,-611 243.12,-611 243.12,-640"/>
<text xml:space="preserve" text-anchor="start" x="156.38" y="-626.5" font-family="Helvetica,sans-Serif" font-size="10.00">Simulation::Getter</text>
<text xml:space="preserve" text-anchor="middle" x="195.75" y="-616" font-family="Helvetica,sans-Serif" font-size="10.00">::absolute_time</text>
</a>
</g>
</g>
<!-- Node1&#45;&gt;Node2 -->
<g id="edge1_Node000001_Node000002" class="edge">
<title>Node1&#45;&gt;Node2</title>
<g id="a_edge1_Node000001_Node000002"><a xlink:title=" ">
<path fill="none" stroke="#63b8ff" d="M48.25,-334.37C48.68,-380.58 56.27,-523.27 130.75,-602.5 133.02,-604.92 135.57,-607.08 138.3,-609.02"/>
<polygon fill="#63b8ff" stroke="#63b8ff" points="136.47,-612.01 146.87,-614.01 139.99,-605.96 136.47,-612.01"/>
</a>
</g>
</g>
<!-- Node3 -->
<g id="Node000003" class="node">
<title>Node3</title>
<g id="a_Node000003"><a xlink:href="classSimulation_1_1Getter.html#a09a7fc1371791dac5a4afa9d48def04a" target="_top" xlink:title=" ">
<polygon fill="white" stroke="#666666" points="243.12,-593 148.38,-593 148.38,-564 243.12,-564 243.12,-593"/>
<text xml:space="preserve" text-anchor="start" x="156.38" y="-579.5" font-family="Helvetica,sans-Serif" font-size="10.00">Simulation::Getter</text>
<text xml:space="preserve" text-anchor="middle" x="195.75" y="-569" font-family="Helvetica,sans-Serif" font-size="10.00">::get_feed</text>
</a>
</g>
</g>
<!-- Node1&#45;&gt;Node3 -->
<g id="edge2_Node000001_Node000003" class="edge">
<title>Node1&#45;&gt;Node3</title>
<g id="a_edge2_Node000001_Node000003"><a xlink:title=" ">
<path fill="none" stroke="#63b8ff" d="M49.25,-334.22C52.47,-375.1 67.06,-491.23 130.75,-555.5 133.05,-557.82 135.6,-559.91 138.32,-561.78"/>
<polygon fill="#63b8ff" stroke="#63b8ff" points="136.36,-564.7 146.78,-566.64 139.85,-558.63 136.36,-564.7"/>
</a>
</g>
</g>
<!-- Node4 -->
<g id="Node000004" class="node">
<title>Node4</title>
<g id="a_Node000004"><a xlink:href="classSimulation_1_1Getter.html#a5018162385dda22e127a8298c2168a4b" target="_top" xlink:title=" ">
<polygon fill="white" stroke="#666666" points="243.12,-546 148.38,-546 148.38,-517 243.12,-517 243.12,-546"/>
<text xml:space="preserve" text-anchor="start" x="156.38" y="-532.5" font-family="Helvetica,sans-Serif" font-size="10.00">Simulation::Getter</text>
<text xml:space="preserve" text-anchor="middle" x="195.75" y="-522" font-family="Helvetica,sans-Serif" font-size="10.00">::getCgasData</text>
</a>
</g>
</g>
<!-- Node1&#45;&gt;Node4 -->
<g id="edge3_Node000001_Node000004" class="edge">
<title>Node1&#45;&gt;Node4</title>
<g id="a_edge3_Node000001_Node000004"><a xlink:title=" ">
<path fill="none" stroke="#63b8ff" d="M50.73,-334.32C57.09,-369.54 77.83,-458.97 130.75,-508.5 133.02,-510.62 135.49,-512.55 138.11,-514.3"/>
<polygon fill="#63b8ff" stroke="#63b8ff" points="136.34,-517.32 146.77,-519.16 139.76,-511.22 136.34,-517.32"/>
</a>
</g>
</g>
<!-- Node5 -->
<g id="Node000005" class="node">
<title>Node5</title>
<g id="a_Node000005"><a xlink:href="classSimulation_1_1Getter.html#affeda285daf139206d57e11daad9cd73" target="_top" xlink:title=" ">
<polygon fill="white" stroke="#666666" points="243.12,-499 148.38,-499 148.38,-470 243.12,-470 243.12,-499"/>
<text xml:space="preserve" text-anchor="start" x="156.38" y="-485.5" font-family="Helvetica,sans-Serif" font-size="10.00">Simulation::Getter</text>
<text xml:space="preserve" text-anchor="middle" x="195.75" y="-475" font-family="Helvetica,sans-Serif" font-size="10.00">::getCliqData</text>
</a>
</g>
</g>
<!-- Node1&#45;&gt;Node5 -->
<g id="edge4_Node000001_Node000005" class="edge">
<title>Node1&#45;&gt;Node5</title>
<g id="a_edge4_Node000001_Node000005"><a xlink:title=" ">
<path fill="none" stroke="#63b8ff" d="M53.06,-334.22C62.88,-362.8 88.29,-426.09 130.75,-461.5 132.97,-463.35 135.35,-465.06 137.85,-466.64"/>
<polygon fill="#63b8ff" stroke="#63b8ff" points="136.1,-469.67 146.56,-471.35 139.43,-463.52 136.1,-469.67"/>
</a>
</g>
</g>
<!-- Node6 -->
<g id="Node000006" class="node">
<title>Node6</title>
<g id="a_Node000006"><a xlink:href="classSimulation_1_1Getter.html#a7d3492144d2eab3ac04fcd47c380b226" target="_top" xlink:title=" ">
<polygon fill="white" stroke="#666666" points="243.12,-452 148.38,-452 148.38,-423 243.12,-423 243.12,-452"/>
<text xml:space="preserve" text-anchor="start" x="156.38" y="-438.5" font-family="Helvetica,sans-Serif" font-size="10.00">Simulation::Getter</text>
<text xml:space="preserve" text-anchor="middle" x="195.75" y="-428" font-family="Helvetica,sans-Serif" font-size="10.00">::getCliqData_mut</text>
</a>
</g>
</g>
<!-- Node1&#45;&gt;Node6 -->
<g id="edge5_Node000001_Node000006" class="edge">
<title>Node1&#45;&gt;Node6</title>
<g id="a_edge5_Node000001_Node000006"><a xlink:title=" ">
<path fill="none" stroke="#63b8ff" d="M57.73,-334.47C71.39,-355.19 98.7,-392.54 130.75,-414.5 132.97,-416.02 135.3,-417.45 137.7,-418.8"/>
<polygon fill="#63b8ff" stroke="#63b8ff" points="136.05,-421.88 146.56,-423.2 139.16,-415.61 136.05,-421.88"/>
</a>
</g>
</g>
<!-- Node7 -->
<g id="Node000007" class="node">
<title>Node7</title>
<g id="a_Node000007"><a xlink:href="classSimulation_1_1Getter.html#af84b6eec57e97593d9b7673399b187bd" target="_top" xlink:title=" ">
<polygon fill="white" stroke="#666666" points="249.88,-405 141.62,-405 141.62,-376 249.88,-376 249.88,-405"/>
<text xml:space="preserve" text-anchor="start" x="149.62" y="-391.5" font-family="Helvetica,sans-Serif" font-size="10.00">Simulation::Getter</text>
<text xml:space="preserve" text-anchor="middle" x="195.75" y="-381" font-family="Helvetica,sans-Serif" font-size="10.00">::getContributionData</text>
</a>
</g>
</g>
<!-- Node1&#45;&gt;Node7 -->
<g id="edge6_Node000001_Node000007" class="edge">
<title>Node1&#45;&gt;Node7</title>
<g id="a_edge6_Node000001_Node000007"><a xlink:title=" ">
<path fill="none" stroke="#63b8ff" d="M71.2,-334.32C87.4,-344.46 109.9,-357.78 130.75,-367.5 133.51,-368.79 136.37,-370.05 139.28,-371.28"/>
<polygon fill="#63b8ff" stroke="#63b8ff" points="137.93,-374.51 148.51,-375 140.54,-368.02 137.93,-374.51"/>
</a>
</g>
</g>
<!-- Node8 -->
<g id="Node000008" class="node">
<title>Node8</title>
<g id="a_Node000008"><a xlink:href="classSimulation_1_1Getter.html#a217cecee21930897d43c55f70b56fb6f" target="_top" xlink:title=" ">
<polygon fill="white" stroke="#666666" points="260.75,-358 130.75,-358 130.75,-329 260.75,-329 260.75,-358"/>
<text xml:space="preserve" text-anchor="start" x="138.75" y="-344.5" font-family="Helvetica,sans-Serif" font-size="10.00">Simulation::Getter</text>
<text xml:space="preserve" text-anchor="middle" x="195.75" y="-334" font-family="Helvetica,sans-Serif" font-size="10.00">::getContributionData_mut</text>
</a>
</g>
</g>
<!-- Node1&#45;&gt;Node8 -->
<g id="edge7_Node000001_Node000008" class="edge">
<title>Node1&#45;&gt;Node8</title>
<g id="a_edge7_Node000001_Node000008"><a xlink:title=" ">
<path fill="none" stroke="#63b8ff" d="M95.09,-327.16C102.8,-328.42 110.96,-329.76 119.16,-331.11"/>
<polygon fill="#63b8ff" stroke="#63b8ff" points="118.4,-334.53 128.84,-332.69 119.53,-327.62 118.4,-334.53"/>
</a>
</g>
</g>
<!-- Node9 -->
<g id="Node000009" class="node">
<title>Node9</title>
<g id="a_Node000009"><a xlink:href="classSimulation_1_1Getter.html#a3eac129361d284ecf0b9c6e1049120ae" target="_top" xlink:title=" ">
<polygon fill="white" stroke="#666666" points="243.12,-311 148.38,-311 148.38,-282 243.12,-282 243.12,-311"/>
<text xml:space="preserve" text-anchor="start" x="156.38" y="-297.5" font-family="Helvetica,sans-Serif" font-size="10.00">Simulation::Getter</text>
<text xml:space="preserve" text-anchor="middle" x="195.75" y="-287" font-family="Helvetica,sans-Serif" font-size="10.00">::getDimensions</text>
</a>
</g>
</g>
<!-- Node1&#45;&gt;Node9 -->
<g id="edge8_Node000001_Node000009" class="edge">
<title>Node1&#45;&gt;Node9</title>
<g id="a_edge8_Node000001_Node000009"><a xlink:title=" ">
<path fill="none" stroke="#63b8ff" d="M95.09,-312.16C108.3,-310.08 122.83,-307.8 136.61,-305.63"/>
<polygon fill="#63b8ff" stroke="#63b8ff" points="137.14,-309.09 146.48,-304.08 136.06,-302.18 137.14,-309.09"/>
</a>
</g>
</g>
<!-- Node10 -->
<g id="Node000010" class="node">
<title>Node10</title>
<g id="a_Node000010"><a xlink:href="classSimulation_1_1Getter.html#ae6be177c881989ecc4fb7a5ebdfbd9ff" target="_top" xlink:title=" ">
<polygon fill="white" stroke="#666666" points="243.12,-264 148.38,-264 148.38,-235 243.12,-235 243.12,-264"/>
<text xml:space="preserve" text-anchor="start" x="156.38" y="-250.5" font-family="Helvetica,sans-Serif" font-size="10.00">Simulation::Getter</text>
<text xml:space="preserve" text-anchor="middle" x="195.75" y="-240" font-family="Helvetica,sans-Serif" font-size="10.00">::getMTRData</text>
</a>
</g>
</g>
<!-- Node1&#45;&gt;Node10 -->
<g id="edge9_Node000001_Node000010" class="edge">
<title>Node1&#45;&gt;Node10</title>
<g id="a_edge9_Node000001_Node000010"><a xlink:title=" ">
<path fill="none" stroke="#63b8ff" d="M72.74,-304.62C88.88,-295.08 110.69,-282.8 130.75,-273.5 134.25,-271.88 137.89,-270.28 141.58,-268.73"/>
<polygon fill="#63b8ff" stroke="#63b8ff" points="142.68,-272.06 150.63,-265.06 140.05,-265.57 142.68,-272.06"/>
</a>
</g>
</g>
<!-- Node11 -->
<g id="Node000011" class="node">
<title>Node11</title>
<g id="a_Node000011"><a xlink:href="classSimulation_1_1Getter.html#a7ae2d7ae9d2a44e7d185a18060d87878" target="_top" xlink:title=" ">
<polygon fill="white" stroke="#666666" points="243.12,-217 148.38,-217 148.38,-188 243.12,-188 243.12,-217"/>
<text xml:space="preserve" text-anchor="start" x="156.38" y="-203.5" font-family="Helvetica,sans-Serif" font-size="10.00">Simulation::Getter</text>
<text xml:space="preserve" text-anchor="middle" x="195.75" y="-193" font-family="Helvetica,sans-Serif" font-size="10.00">::Getter</text>
</a>
</g>
</g>
<!-- Node1&#45;&gt;Node11 -->
<g id="edge10_Node000001_Node000011" class="edge">
<title>Node1&#45;&gt;Node11</title>
<g id="a_edge10_Node000001_Node000011"><a xlink:title=" ">
<path fill="none" stroke="#63b8ff" d="M58.08,-304.58C71.96,-284.31 99.29,-248.13 130.75,-226.5 132.98,-224.97 135.32,-223.52 137.73,-222.15"/>
<polygon fill="#63b8ff" stroke="#63b8ff" points="139.27,-225.29 146.6,-217.65 136.1,-219.05 139.27,-225.29"/>
</a>
</g>
</g>
<!-- Node12 -->
<g id="Node000012" class="node">
<title>Node12</title>
<g id="a_Node000012"><a xlink:href="classSimulation_1_1Getter.html#ab2fa179687f4810f64d4c1c2beb7800c" target="_top" xlink:title=" ">
<polygon fill="white" stroke="#666666" points="243.12,-170 148.38,-170 148.38,-141 243.12,-141 243.12,-170"/>
<text xml:space="preserve" text-anchor="start" x="156.38" y="-156.5" font-family="Helvetica,sans-Serif" font-size="10.00">Simulation::Getter</text>
<text xml:space="preserve" text-anchor="middle" x="195.75" y="-146" font-family="Helvetica,sans-Serif" font-size="10.00">::it_probes</text>
</a>
</g>
</g>
<!-- Node1&#45;&gt;Node12 -->
<g id="edge11_Node000001_Node000012" class="edge">
<title>Node1&#45;&gt;Node12</title>
<g id="a_edge11_Node000001_Node000012"><a xlink:title=" ">
<path fill="none" stroke="#63b8ff" d="M53.32,-304.6C63.42,-276.31 89.08,-214.52 130.75,-179.5 132.98,-177.63 135.36,-175.9 137.86,-174.29"/>
<polygon fill="#63b8ff" stroke="#63b8ff" points="139.53,-177.37 146.59,-169.46 136.14,-171.24 139.53,-177.37"/>
</a>
</g>
</g>
<!-- Node13 -->
<g id="Node000013" class="node">
<title>Node13</title>
<g id="a_Node000013"><a xlink:href="classSimulation_1_1Getter.html#ae948f113363f8ab858797a17c28a2e86" target="_top" xlink:title=" ">
<polygon fill="white" stroke="#666666" points="243.12,-123 148.38,-123 148.38,-94 243.12,-94 243.12,-123"/>
<text xml:space="preserve" text-anchor="start" x="156.38" y="-109.5" font-family="Helvetica,sans-Serif" font-size="10.00">Simulation::Getter</text>
<text xml:space="preserve" text-anchor="middle" x="195.75" y="-99" font-family="Helvetica,sans-Serif" font-size="10.00">::mc_unit</text>
</a>
</g>
</g>
<!-- Node1&#45;&gt;Node13 -->
<g id="edge12_Node000001_Node000013" class="edge">
<title>Node1&#45;&gt;Node13</title>
<g id="a_edge12_Node000001_Node000013"><a xlink:title=" ">
<path fill="none" stroke="#63b8ff" d="M50.87,-304.62C57.49,-269.7 78.68,-181.73 130.75,-132.5 133.09,-130.28 135.66,-128.27 138.38,-126.43"/>
<polygon fill="#63b8ff" stroke="#63b8ff" points="139.84,-129.63 146.78,-121.63 136.36,-123.56 139.84,-129.63"/>
</a>
</g>
</g>
<!-- Node14 -->
<g id="Node000014" class="node">
<title>Node14</title>
<g id="a_Node000014"><a xlink:href="classSimulation_1_1Getter.html#a8dd00f800b1b4fd46e2361dd6991422c" target="_top" xlink:title=" ">
<polygon fill="white" stroke="#666666" points="243.12,-76 148.38,-76 148.38,-47 243.12,-47 243.12,-76"/>
<text xml:space="preserve" text-anchor="start" x="156.38" y="-62.5" font-family="Helvetica,sans-Serif" font-size="10.00">Simulation::Getter</text>
<text xml:space="preserve" text-anchor="middle" x="195.75" y="-52" font-family="Helvetica,sans-Serif" font-size="10.00">::relative_time</text>
</a>
</g>
</g>
<!-- Node1&#45;&gt;Node14 -->
<g id="edge13_Node000001_Node000014" class="edge">
<title>Node1&#45;&gt;Node14</title>
<g id="a_edge13_Node000001_Node000014"><a xlink:title=" ">
<path fill="none" stroke="#63b8ff" d="M49.36,-304.65C52.86,-263.97 68.05,-149.48 130.75,-85.5 133.05,-83.16 135.59,-81.04 138.31,-79.13"/>
<polygon fill="#63b8ff" stroke="#63b8ff" points="139.93,-82.23 146.78,-74.15 136.39,-76.2 139.93,-82.23"/>
</a>
</g>
</g>
<!-- Node15 -->
<g id="Node000015" class="node">
<title>Node15</title>
<g id="a_Node000015"><a xlink:href="classSimulation_1_1Getter.html#a13654b5d78fc3844a5a984902ace6b4d" target="_top" xlink:title=" ">
<polygon fill="white" stroke="#666666" points="243.12,-29 148.38,-29 148.38,0 243.12,0 243.12,-29"/>
<text xml:space="preserve" text-anchor="start" x="156.38" y="-15.5" font-family="Helvetica,sans-Serif" font-size="10.00">Simulation::Getter</text>
<text xml:space="preserve" text-anchor="middle" x="195.75" y="-5" font-family="Helvetica,sans-Serif" font-size="10.00">::two_phase_flow</text>
</a>
</g>
</g>
<!-- Node1&#45;&gt;Node15 -->
<g id="edge14_Node000001_Node000015" class="edge">
<title>Node1&#45;&gt;Node15</title>
<g id="a_edge14_Node000001_Node000015"><a xlink:title=" ">
<path fill="none" stroke="#63b8ff" d="M48.33,-304.77C49,-259.02 57.22,-117.65 130.75,-38.5 133.02,-36.05 135.57,-33.86 138.3,-31.88"/>
<polygon fill="#63b8ff" stroke="#63b8ff" points="140.08,-34.9 146.87,-26.77 136.49,-28.88 140.08,-34.9"/>
</a>
</g>
</g>
</g>
</svg>
