<?xml version="1.0" encoding="UTF-8" standalone="no"?>
<!DOCTYPE svg PUBLIC "-//W3C//DTD SVG 1.1//EN"
 "http://www.w3.org/Graphics/SVG/1.1/DTD/svg11.dtd">
<!-- Generated by graphviz version 14.0.1 (0)
 -->
<!-- Title: ExportHandler::operator() Pages: 1 -->
<svg width="793pt" height="309pt"
 viewBox="0.00 0.00 793.00 309.00" xmlns="http://www.w3.org/2000/svg" xmlns:xlink="http://www.w3.org/1999/xlink">
<g id="graph0" class="graph" transform="scale(1 1) rotate(0) translate(4 305)">
<title>ExportHandler::operator()</title>
<!-- Node1 -->
<g id="Node000001" class="node">
<title>Node1</title>
<g id="a_Node000001"><a xlink:title="Handles periodic export of simulation data.">
<polygon fill="#999999" stroke="#666666" points="126.25,-159.75 0,-159.75 0,-141.25 126.25,-141.25 126.25,-159.75"/>
<text xml:space="preserve" text-anchor="middle" x="63.12" y="-146.25" font-family="Helvetica,sans-Serif" font-size="10.00">ExportHandler::operator()</text>
</a>
</g>
</g>
<!-- Node2 -->
<g id="Node000002" class="node">
<title>Node2</title>
<g id="a_Node000002"><a xlink:href="classSimulation_1_1SimulationUnit.html#abee4f5b8a764dc6655ee5a91fcab7080" target="_top" xlink:title=" ">
<polygon fill="white" stroke="#666666" points="310.25,-301 178.75,-301 178.75,-272 310.25,-272 310.25,-301"/>
<text xml:space="preserve" text-anchor="start" x="186.75" y="-287.5" font-family="Helvetica,sans-Serif" font-size="10.00">Simulation::SimulationUnit</text>
<text xml:space="preserve" text-anchor="middle" x="244.5" y="-277" font-family="Helvetica,sans-Serif" font-size="10.00">::getCgasData</text>
</a>
</g>
</g>
<!-- Node1&#45;&gt;Node2 -->
<g id="edge1_Node000001_Node000002" class="edge">
<title>Node1&#45;&gt;Node2</title>
<g id="a_edge1_Node000001_Node000002"><a xlink:title=" ">
<path fill="none" stroke="#63b8ff" d="M69.66,-160.03C82.82,-181.81 118.16,-235.5 162.25,-263.5 164.23,-264.76 166.28,-265.95 168.39,-267.08"/>
<polygon fill="#63b8ff" stroke="#63b8ff" points="166.67,-270.13 177.2,-271.25 169.66,-263.81 166.67,-270.13"/>
</a>
</g>
</g>
<!-- Node3 -->
<g id="Node000003" class="node">
<title>Node3</title>
<g id="a_Node000003"><a xlink:href="classSimulation_1_1SimulationUnit.html#a3d0ee29e0a425f79fa8cbc620d2abb99" target="_top" xlink:title=" ">
<polygon fill="white" stroke="#666666" points="310.25,-254 178.75,-254 178.75,-225 310.25,-225 310.25,-254"/>
<text xml:space="preserve" text-anchor="start" x="186.75" y="-240.5" font-family="Helvetica,sans-Serif" font-size="10.00">Simulation::SimulationUnit</text>
<text xml:space="preserve" text-anchor="middle" x="244.5" y="-230" font-family="Helvetica,sans-Serif" font-size="10.00">::getCliqData</text>
</a>
</g>
</g>
<!-- Node1&#45;&gt;Node3 -->
<g id="edge2_Node000001_Node000003" class="edge">
<title>Node1&#45;&gt;Node3</title>
<g id="a_edge2_Node000001_Node000003"><a xlink:title=" ">
<path fill="none" stroke="#63b8ff" d="M75.78,-160.15C93.44,-174.35 128.53,-200.87 162.25,-216.5 165.51,-218.01 168.89,-219.44 172.33,-220.8"/>
<polygon fill="#63b8ff" stroke="#63b8ff" points="170.81,-223.97 181.4,-224.11 173.21,-217.39 170.81,-223.97"/>
</a>
</g>
</g>
<!-- Node4 -->
<g id="Node000004" class="node">
<title>Node4</title>
<g id="a_Node000004"><a xlink:href="classSimulation_1_1SimulationUnit.html#a95e094f9921c520f4a41e3b9a308b187" target="_top" xlink:title=" ">
<polygon fill="white" stroke="#666666" points="310.25,-207 178.75,-207 178.75,-178 310.25,-178 310.25,-207"/>
<text xml:space="preserve" text-anchor="start" x="186.75" y="-193.5" font-family="Helvetica,sans-Serif" font-size="10.00">Simulation::SimulationUnit</text>
<text xml:space="preserve" text-anchor="middle" x="244.5" y="-183" font-family="Helvetica,sans-Serif" font-size="10.00">::getMTRData</text>
</a>
</g>
</g>
<!-- Node1&#45;&gt;Node4 -->
<g id="edge3_Node000001_Node000004" class="edge">
<title>Node1&#45;&gt;Node4</title>
<g id="a_edge3_Node000001_Node000004"><a xlink:title=" ">
<path fill="none" stroke="#63b8ff" d="M105.73,-160.24C124.41,-164.62 147.05,-169.92 168.53,-174.95"/>
<polygon fill="#63b8ff" stroke="#63b8ff" points="167.62,-178.33 178.15,-177.2 169.22,-171.51 167.62,-178.33"/>
</a>
</g>
</g>
<!-- Node5 -->
<g id="Node000005" class="node">
<title>Node5</title>
<g id="a_Node000005"><a xlink:href="classExportHandler.html#ad87b1d6ff0f86388337aae6b325ea796" target="_top" xlink:title="Prepares the event span if the event counter is enabled.">
<polygon fill="white" stroke="#666666" points="326.75,-159.75 162.25,-159.75 162.25,-141.25 326.75,-141.25 326.75,-159.75"/>
<text xml:space="preserve" text-anchor="middle" x="244.5" y="-146.25" font-family="Helvetica,sans-Serif" font-size="10.00">ExportHandler::prepareEventSpan</text>
</a>
</g>
</g>
<!-- Node1&#45;&gt;Node5 -->
<g id="edge4_Node000001_Node000005" class="edge">
<title>Node1&#45;&gt;Node5</title>
<g id="a_edge4_Node000001_Node000005"><a xlink:title=" ">
<path fill="none" stroke="#63b8ff" d="M126.61,-150.5C134.38,-150.5 142.44,-150.5 150.54,-150.5"/>
<polygon fill="#63b8ff" stroke="#63b8ff" points="150.48,-154 160.48,-150.5 150.48,-147 150.48,-154"/>
</a>
</g>
</g>
<!-- Node6 -->
<g id="Node000006" class="node">
<title>Node6</title>
<g id="a_Node000006"><a xlink:href="namespacePostProcessing.html#a9ff9231cbdf2a3c4e539c4638aba2445" target="_top" xlink:title=" ">
<polygon fill="white" stroke="#666666" points="300.12,-123 188.88,-123 188.88,-94 300.12,-94 300.12,-123"/>
<text xml:space="preserve" text-anchor="start" x="196.88" y="-109.5" font-family="Helvetica,sans-Serif" font-size="10.00">PostProcessing::save</text>
<text xml:space="preserve" text-anchor="middle" x="244.5" y="-99" font-family="Helvetica,sans-Serif" font-size="10.00">_particle_state</text>
</a>
</g>
</g>
<!-- Node1&#45;&gt;Node6 -->
<g id="edge5_Node000001_Node000006" class="edge">
<title>Node1&#45;&gt;Node6</title>
<g id="a_edge5_Node000001_Node000006"><a xlink:title=" ">
<path fill="none" stroke="#63b8ff" d="M105.73,-140.76C126.99,-135.78 153.38,-129.6 177.35,-123.99"/>
<polygon fill="#63b8ff" stroke="#63b8ff" points="178.11,-127.41 187.05,-121.72 176.52,-120.59 178.11,-127.41"/>
</a>
</g>
</g>
<!-- Node7 -->
<g id="Node000007" class="node">
<title>Node7</title>
<g id="a_Node000007"><a xlink:href="namespacePostProcessing.html#a0e06c75e06cf43e767d5e3e8afab62f2" target="_top" xlink:title=" ">
<polygon fill="white" stroke="#666666" points="300.12,-76 188.88,-76 188.88,-47 300.12,-47 300.12,-76"/>
<text xml:space="preserve" text-anchor="start" x="196.88" y="-62.5" font-family="Helvetica,sans-Serif" font-size="10.00">PostProcessing::save</text>
<text xml:space="preserve" text-anchor="middle" x="244.5" y="-52" font-family="Helvetica,sans-Serif" font-size="10.00">_probes</text>
</a>
</g>
</g>
<!-- Node1&#45;&gt;Node7 -->
<g id="edge6_Node000001_Node000007" class="edge">
<title>Node1&#45;&gt;Node7</title>
<g id="a_edge6_Node000001_Node000007"><a xlink:title=" ">
<path fill="none" stroke="#63b8ff" d="M76.12,-140.82C93.94,-126.86 128.91,-101.04 162.25,-85.5 167.29,-83.15 172.61,-80.98 178.02,-78.97"/>
<polygon fill="#63b8ff" stroke="#63b8ff" points="178.76,-82.42 187.05,-75.82 176.45,-75.81 178.76,-82.42"/>
</a>
</g>
</g>
<!-- Node16 -->
<g id="Node000016" class="node">
<title>Node16</title>
<g id="a_Node000016"><a xlink:href="classCore_1_1PartialExporter.html#a450fb0c92efa4ee81b4083fc01f5e665" target="_top" xlink:title="Writes the number of particles in each compartment.">
<polygon fill="white" stroke="#666666" points="303.5,-29 185.5,-29 185.5,0 303.5,0 303.5,-29"/>
<text xml:space="preserve" text-anchor="start" x="193.5" y="-15.5" font-family="Helvetica,sans-Serif" font-size="10.00">Core::PartialExporter</text>
<text xml:space="preserve" text-anchor="middle" x="244.5" y="-5" font-family="Helvetica,sans-Serif" font-size="10.00">::write_number_particle</text>
</a>
</g>
</g>
<!-- Node1&#45;&gt;Node16 -->
<g id="edge16_Node000001_Node000016" class="edge">
<title>Node1&#45;&gt;Node16</title>
<g id="a_edge16_Node000001_Node000016"><a xlink:title=" ">
<path fill="none" stroke="#63b8ff" d="M69.91,-140.77C83.31,-119.05 118.7,-66.37 162.25,-38.5 166.22,-35.96 170.47,-33.68 174.87,-31.63"/>
<polygon fill="#63b8ff" stroke="#63b8ff" points="176.06,-34.93 183.94,-27.85 173.37,-28.47 176.06,-34.93"/>
</a>
</g>
</g>
<!-- Node8 -->
<g id="Node000008" class="node">
<title>Node8</title>
<g id="a_Node000008"><a xlink:href="namespacePostProcessing.html#adae52b6b518e25be1c920f36f196ef65" target="_top" xlink:title=" ">
<polygon fill="white" stroke="#666666" points="486.75,-123 370.25,-123 370.25,-94 486.75,-94 486.75,-123"/>
<text xml:space="preserve" text-anchor="start" x="378.25" y="-109.5" font-family="Helvetica,sans-Serif" font-size="10.00">PostProcessing::_save</text>
<text xml:space="preserve" text-anchor="middle" x="428.5" y="-99" font-family="Helvetica,sans-Serif" font-size="10.00">_probes</text>
</a>
</g>
</g>
<!-- Node7&#45;&gt;Node8 -->
<g id="edge7_Node000007_Node000008" class="edge">
<title>Node7&#45;&gt;Node8</title>
<g id="a_edge7_Node000007_Node000008"><a xlink:title=" ">
<path fill="none" stroke="#63b8ff" d="M300.6,-75.73C318.97,-80.47 339.66,-85.82 358.92,-90.79"/>
<polygon fill="#63b8ff" stroke="#63b8ff" points="358.04,-94.18 368.6,-93.29 359.79,-87.4 358.04,-94.18"/>
</a>
</g>
</g>
<!-- Node15 -->
<g id="Node000015" class="node">
<title>Node15</title>
<g id="a_Node000015"><a xlink:href="classSimulation_1_1SimulationUnit.html#a299bc32317c5f302dc16df3a3d7d6149" target="_top" xlink:title=" ">
<polygon fill="white" stroke="#666666" points="494.25,-76 362.75,-76 362.75,-47 494.25,-47 494.25,-76"/>
<text xml:space="preserve" text-anchor="start" x="370.75" y="-62.5" font-family="Helvetica,sans-Serif" font-size="10.00">Simulation::SimulationUnit</text>
<text xml:space="preserve" text-anchor="middle" x="428.5" y="-52" font-family="Helvetica,sans-Serif" font-size="10.00">::it_probes</text>
</a>
</g>
</g>
<!-- Node7&#45;&gt;Node15 -->
<g id="edge15_Node000007_Node000015" class="edge">
<title>Node7&#45;&gt;Node15</title>
<g id="a_edge15_Node000007_Node000015"><a xlink:title=" ">
<path fill="none" stroke="#63b8ff" d="M300.6,-61.5C316.56,-61.5 334.28,-61.5 351.29,-61.5"/>
<polygon fill="#63b8ff" stroke="#63b8ff" points="350.83,-65 360.83,-61.5 350.83,-58 350.83,-65"/>
</a>
</g>
</g>
<!-- Node9 -->
<g id="Node000009" class="node">
<title>Node9</title>
<g id="a_Node000009"><a xlink:href="classSimulation_1_1Probes.html#af54f1c8be6e49f63e8533d6a4e91cad3" target="_top" xlink:title=" ">
<polygon fill="white" stroke="#666666" points="638.5,-186 540,-186 540,-157 638.5,-157 638.5,-186"/>
<text xml:space="preserve" text-anchor="start" x="548" y="-172.5" font-family="Helvetica,sans-Serif" font-size="10.00">Simulation::Probes</text>
<text xml:space="preserve" text-anchor="middle" x="589.25" y="-162" font-family="Helvetica,sans-Serif" font-size="10.00">::clear</text>
</a>
</g>
</g>
<!-- Node8&#45;&gt;Node9 -->
<g id="edge8_Node000008_Node000009" class="edge">
<title>Node8&#45;&gt;Node9</title>
<g id="a_edge8_Node000008_Node000009"><a xlink:title=" ">
<path fill="none" stroke="#63b8ff" d="M467.12,-123.43C488.99,-132.11 516.76,-143.13 540.2,-152.43"/>
<polygon fill="#63b8ff" stroke="#63b8ff" points="538.63,-155.57 549.22,-156.01 541.21,-149.07 538.63,-155.57"/>
</a>
</g>
</g>
<!-- Node10 -->
<g id="Node000010" class="node">
<title>Node10</title>
<g id="a_Node000010"><a xlink:href="classSimulation_1_1Probes.html#a6345c8304e772a314dae935f742d518a" target="_top" xlink:title=" ">
<polygon fill="white" stroke="#666666" points="648.25,-138.75 530.25,-138.75 530.25,-120.25 648.25,-120.25 648.25,-138.75"/>
<text xml:space="preserve" text-anchor="middle" x="589.25" y="-125.25" font-family="Helvetica,sans-Serif" font-size="10.00">Simulation::Probes::get</text>
</a>
</g>
</g>
<!-- Node8&#45;&gt;Node10 -->
<g id="edge9_Node000008_Node000010" class="edge">
<title>Node8&#45;&gt;Node10</title>
<g id="a_edge9_Node000008_Node000010"><a xlink:title=" ">
<path fill="none" stroke="#63b8ff" d="M486.81,-116.08C497.12,-117.44 507.96,-118.88 518.57,-120.28"/>
<polygon fill="#63b8ff" stroke="#63b8ff" points="518.08,-123.75 528.45,-121.59 519,-116.81 518.08,-123.75"/>
</a>
</g>
</g>
<!-- Node11 -->
<g id="Node000011" class="node">
<title>Node11</title>
<g id="a_Node000011"><a xlink:href="classSimulation_1_1Probes.html#a2b8541ff7ad653204a955ff1feb78757" target="_top" xlink:title=" ">
<polygon fill="white" stroke="#666666" points="638.5,-102 540,-102 540,-73 638.5,-73 638.5,-102"/>
<text xml:space="preserve" text-anchor="start" x="548" y="-88.5" font-family="Helvetica,sans-Serif" font-size="10.00">Simulation::Probes</text>
<text xml:space="preserve" text-anchor="middle" x="589.25" y="-78" font-family="Helvetica,sans-Serif" font-size="10.00">::need_export</text>
</a>
</g>
</g>
<!-- Node8&#45;&gt;Node11 -->
<g id="edge10_Node000008_Node000011" class="edge">
<title>Node8&#45;&gt;Node11</title>
<g id="a_edge10_Node000008_Node000011"><a xlink:title=" ">
<path fill="none" stroke="#63b8ff" d="M486.81,-100.92C500.34,-99.13 514.8,-97.22 528.44,-95.41"/>
<polygon fill="#63b8ff" stroke="#63b8ff" points="528.71,-98.91 538.16,-94.13 527.79,-91.97 528.71,-98.91"/>
</a>
</g>
</g>
<!-- Node12 -->
<g id="Node000012" class="node">
<title>Node12</title>
<g id="a_Node000012"><a xlink:href="classCore_1_1PartialExporter.html#a53c54ce796df99b407f410beb01074c5" target="_top" xlink:title="Writes probe data to the export.">
<polygon fill="white" stroke="#666666" points="643.75,-55 534.75,-55 534.75,-26 643.75,-26 643.75,-55"/>
<text xml:space="preserve" text-anchor="start" x="542.75" y="-41.5" font-family="Helvetica,sans-Serif" font-size="10.00">Core::PartialExporter</text>
<text xml:space="preserve" text-anchor="middle" x="589.25" y="-31" font-family="Helvetica,sans-Serif" font-size="10.00">::write_probe</text>
</a>
</g>
</g>
<!-- Node8&#45;&gt;Node12 -->
<g id="edge11_Node000008_Node000012" class="edge">
<title>Node8&#45;&gt;Node12</title>
<g id="a_edge11_Node000008_Node000012"><a xlink:title=" ">
<path fill="none" stroke="#63b8ff" d="M474.87,-93.6C481.45,-91.09 488.08,-88.36 494.25,-85.5 511.05,-77.7 513.65,-72.73 530.25,-64.5 533.32,-62.98 536.52,-61.46 539.76,-59.98"/>
<polygon fill="#63b8ff" stroke="#63b8ff" points="541.05,-63.24 548.78,-56 538.22,-56.84 541.05,-63.24"/>
</a>
</g>
</g>
<!-- Node13 -->
<g id="Node000013" class="node">
<title>Node13</title>
<g id="a_Node000013"><a xlink:href="classCore_1_1DataExporter.html#a0b0b79f3932c4eb905704a852248c857" target="_top" xlink:title=" ">
<polygon fill="white" stroke="#666666" points="785,-85 684.25,-85 684.25,-56 785,-56 785,-85"/>
<text xml:space="preserve" text-anchor="start" x="692.25" y="-71.5" font-family="Helvetica,sans-Serif" font-size="10.00">Core::DataExporter</text>
<text xml:space="preserve" text-anchor="middle" x="734.62" y="-61" font-family="Helvetica,sans-Serif" font-size="10.00">::append_array</text>
</a>
</g>
</g>
<!-- Node12&#45;&gt;Node13 -->
<g id="edge12_Node000012_Node000013" class="edge">
<title>Node12&#45;&gt;Node13</title>
<g id="a_edge12_Node000012_Node000013"><a xlink:title=" ">
<path fill="none" stroke="#63b8ff" d="M644.05,-51.76C653.41,-53.72 663.21,-55.77 672.75,-57.76"/>
<polygon fill="#63b8ff" stroke="#63b8ff" points="671.8,-61.14 682.31,-59.76 673.24,-54.29 671.8,-61.14"/>
</a>
</g>
</g>
<!-- Node14 -->
<g id="Node000014" class="node">
<title>Node14</title>
<g id="a_Node000014"><a xlink:href="namespaceIO.html#a30cc77fc5c4d45d3b56ef6a299ce2383" target="_top" xlink:title=" ">
<polygon fill="white" stroke="#666666" points="764.75,-19.75 704.5,-19.75 704.5,-1.25 764.75,-1.25 764.75,-19.75"/>
<text xml:space="preserve" text-anchor="middle" x="734.62" y="-6.25" font-family="Helvetica,sans-Serif" font-size="10.00">IO::format</text>
</a>
</g>
</g>
<!-- Node12&#45;&gt;Node14 -->
<g id="edge13_Node000012_Node000014" class="edge">
<title>Node12&#45;&gt;Node14</title>
<g id="a_edge13_Node000012_Node000014"><a xlink:title=" ">
<path fill="none" stroke="#63b8ff" d="M644.05,-29.24C660.26,-25.85 677.77,-22.19 692.97,-19.01"/>
<polygon fill="#63b8ff" stroke="#63b8ff" points="693.54,-22.46 702.61,-16.99 692.11,-15.61 693.54,-22.46"/>
</a>
</g>
</g>
<!-- Node14&#45;&gt;Node14 -->
<g id="edge14_Node000014_Node000014" class="edge">
<title>Node14&#45;&gt;Node14</title>
<g id="a_edge14_Node000014_Node000014"><a xlink:title=" ">
<path fill="none" stroke="#63b8ff" d="M712.22,-20C701.32,-28.57 708.79,-37.75 734.62,-37.75 749.16,-37.75 757.88,-34.84 760.79,-30.78"/>
<polygon fill="#63b8ff" stroke="#63b8ff" points="764.13,-29.72 757.53,-21.42 757.52,-32.02 764.13,-29.72"/>
</a>
</g>
</g>
<!-- Node17 -->
<g id="Node000017" class="node">
<title>Node17</title>
<g id="a_Node000017"><a xlink:href="classCore_1_1DataExporter.html#a0af9b5e13d16339af1918f8e845193f9" target="_top" xlink:title=" ">
<polygon fill="white" stroke="#666666" points="478.88,-29 378.12,-29 378.12,0 478.88,0 478.88,-29"/>
<text xml:space="preserve" text-anchor="start" x="386.12" y="-15.5" font-family="Helvetica,sans-Serif" font-size="10.00">Core::DataExporter</text>
<text xml:space="preserve" text-anchor="middle" x="428.5" y="-5" font-family="Helvetica,sans-Serif" font-size="10.00">::append_matrix</text>
</a>
</g>
</g>
<!-- Node16&#45;&gt;Node17 -->
<g id="edge17_Node000016_Node000017" class="edge">
<title>Node16&#45;&gt;Node17</title>
<g id="a_edge17_Node000016_Node000017"><a xlink:title=" ">
<path fill="none" stroke="#63b8ff" d="M303.84,-14.5C323.83,-14.5 346.26,-14.5 366.46,-14.5"/>
<polygon fill="#63b8ff" stroke="#63b8ff" points="366.23,-18 376.23,-14.5 366.23,-11 366.23,-18"/>
</a>
</g>
</g>
</g>
</svg>
