<?xml version="1.0" encoding="UTF-8" standalone="no"?>
<!DOCTYPE svg PUBLIC "-//W3C//DTD SVG 1.1//EN"
 "http://www.w3.org/Graphics/SVG/1.1/DTD/svg11.dtd">
<!-- Generated by graphviz version 14.0.1 (0)
 -->
<!-- Title: ILoadBalancer::balance Pages: 1 -->
<svg width="416pt" height="37pt"
 viewBox="0.00 0.00 416.00 37.00" xmlns="http://www.w3.org/2000/svg" xmlns:xlink="http://www.w3.org/1999/xlink">
<g id="graph0" class="graph" transform="scale(1 1) rotate(0) translate(4 33)">
<title>ILoadBalancer::balance</title>
<!-- Node1 -->
<g id="Node000001" class="node">
<title>Node1</title>
<g id="a_Node000001"><a xlink:title=" ">
<polygon fill="#999999" stroke="#666666" points="118,-23.75 0,-23.75 0,-5.25 118,-5.25 118,-23.75"/>
<text xml:space="preserve" text-anchor="middle" x="59" y="-10.25" font-family="Helvetica,sans-Serif" font-size="10.00">ILoadBalancer::balance</text>
</a>
</g>
</g>
<!-- Node2 -->
<g id="Node000002" class="node">
<title>Node2</title>
<g id="a_Node000002"><a xlink:href="classILoadBalancer.html#aa10d0dcff513a3ce26f47ce671401d5b" target="_top" xlink:title=" ">
<polygon fill="white" stroke="#666666" points="251.75,-29 154,-29 154,0 251.75,0 251.75,-29"/>
<text xml:space="preserve" text-anchor="start" x="162" y="-15.5" font-family="Helvetica,sans-Serif" font-size="10.00">ILoadBalancer::get</text>
<text xml:space="preserve" text-anchor="middle" x="202.88" y="-5" font-family="Helvetica,sans-Serif" font-size="10.00">_alloc</text>
</a>
</g>
</g>
<!-- Node1&#45;&gt;Node2 -->
<g id="edge1_Node000001_Node000002" class="edge">
<title>Node1&#45;&gt;Node2</title>
<g id="a_edge1_Node000001_Node000002"><a xlink:title=" ">
<path fill="none" stroke="#63b8ff" d="M118.12,-14.5C126.03,-14.5 134.17,-14.5 142.12,-14.5"/>
<polygon fill="#63b8ff" stroke="#63b8ff" points="142.06,-18 152.06,-14.5 142.06,-11 142.06,-18"/>
</a>
</g>
</g>
<!-- Node3 -->
<g id="Node000003" class="node">
<title>Node3</title>
<g id="a_Node000003"><a xlink:href="classILoadBalancer.html#ae3d9791d5f925415454051277f092aa9" target="_top" xlink:title=" ">
<polygon fill="white" stroke="#666666" points="408,-23.75 287.75,-23.75 287.75,-5.25 408,-5.25 408,-23.75"/>
<text xml:space="preserve" text-anchor="middle" x="347.88" y="-10.25" font-family="Helvetica,sans-Serif" font-size="10.00">ILoadBalancer::getRatio</text>
</a>
</g>
</g>
<!-- Node2&#45;&gt;Node3 -->
<g id="edge2_Node000002_Node000003" class="edge">
<title>Node2&#45;&gt;Node3</title>
<g id="a_edge2_Node000002_Node000003"><a xlink:title=" ">
<path fill="none" stroke="#63b8ff" d="M251.89,-14.5C259.61,-14.5 267.74,-14.5 275.87,-14.5"/>
<polygon fill="#63b8ff" stroke="#63b8ff" points="275.79,-18 285.79,-14.5 275.79,-11 275.79,-18"/>
</a>
</g>
</g>
</g>
</svg>
