<?xml version="1.0" encoding="UTF-8" standalone="no"?>
<!DOCTYPE svg PUBLIC "-//W3C//DTD SVG 1.1//EN"
 "http://www.w3.org/Graphics/SVG/1.1/DTD/svg11.dtd">
<!-- Generated by graphviz version 14.0.1 (0)
 -->
<!-- Title: Core::DataExporter::operator= Pages: 1 -->
<svg width="246pt" height="55pt"
 viewBox="0.00 0.00 246.00 55.00" xmlns="http://www.w3.org/2000/svg" xmlns:xlink="http://www.w3.org/1999/xlink">
<g id="graph0" class="graph" transform="scale(1 1) rotate(0) translate(4 51)">
<title>Core::DataExporter::operator=</title>
<!-- Node1 -->
<g id="Node000001" class="node">
<title>Node1</title>
<g id="a_Node000001"><a xlink:title=" ">
<polygon fill="#999999" stroke="#666666" points="100.75,-29 0,-29 0,0 100.75,0 100.75,-29"/>
<text xml:space="preserve" text-anchor="start" x="8" y="-15.5" font-family="Helvetica,sans-Serif" font-size="10.00">Core::DataExporter</text>
<text xml:space="preserve" text-anchor="middle" x="50.38" y="-5" font-family="Helvetica,sans-Serif" font-size="10.00">::operator=</text>
</a>
</g>
</g>
<!-- Node2 -->
<g id="Node000002" class="node">
<title>Node2</title>
<g id="a_Node000002"><a xlink:href="classCore_1_1DataExporter.html#aa39b5e7514dd7c25024bb31c72e2e8e7" target="_top" xlink:title=" ">
<polygon fill="white" stroke="#666666" points="237.5,-29 136.75,-29 136.75,0 237.5,0 237.5,-29"/>
<text xml:space="preserve" text-anchor="start" x="144.75" y="-15.5" font-family="Helvetica,sans-Serif" font-size="10.00">Core::DataExporter</text>
<text xml:space="preserve" text-anchor="middle" x="187.12" y="-5" font-family="Helvetica,sans-Serif" font-size="10.00">::DataExporter</text>
</a>
</g>
</g>
<!-- Node1&#45;&gt;Node2 -->
<g id="edge1_Node000001_Node000002" class="edge">
<title>Node1&#45;&gt;Node2</title>
<g id="a_edge1_Node000001_Node000002"><a xlink:title=" ">
<path fill="none" stroke="#63b8ff" d="M101.17,-14.5C109.02,-14.5 117.2,-14.5 125.27,-14.5"/>
<polygon fill="#63b8ff" stroke="#63b8ff" points="125.02,-18 135.02,-14.5 125.02,-11 125.02,-18"/>
</a>
</g>
</g>
<!-- Node2&#45;&gt;Node2 -->
<g id="edge2_Node000002_Node000002" class="edge">
<title>Node2&#45;&gt;Node2</title>
<g id="a_edge2_Node000002_Node000002"><a xlink:title=" ">
<path fill="none" stroke="#63b8ff" d="M163.29,-29.21C157.55,-38.32 165.49,-47 187.12,-47 198.96,-47 206.69,-44.41 210.34,-40.56"/>
<polygon fill="#63b8ff" stroke="#63b8ff" points="213.82,-40.89 210.87,-30.72 206.83,-40.51 213.82,-40.89"/>
</a>
</g>
</g>
</g>
</svg>
