<?xml version="1.0" encoding="UTF-8" standalone="no"?>
<!DOCTYPE svg PUBLIC "-//W3C//DTD SVG 1.1//EN"
 "http://www.w3.org/Graphics/SVG/1.1/DTD/svg11.dtd">
<!-- Generated by graphviz version 14.0.1 (0)
 -->
<!-- Title: MC::ParticlesContainer::load_tuning_constant Pages: 1 -->
<svg width="436pt" height="225pt"
 viewBox="0.00 0.00 436.00 225.00" xmlns="http://www.w3.org/2000/svg" xmlns:xlink="http://www.w3.org/1999/xlink">

<svg id="main" version="1.1" xmlns="http://www.w3.org/2000/svg" xmlns:xlink="http://www.w3.org/1999/xlink" xml:space="preserve">

<style type="text/css"><![CDATA[
.node, .edge {opacity: 0.7;}
.node.selected, .edge.selected {opacity: 1;}
.edge:hover path { stroke: red; }
.edge:hover polygon { stroke: red; fill: red; }
]]></style>
<script type="application/ecmascript" xlink:href="svg.min.js"/>
<svg id="graph" class="graph">
<g id="graph0" class="graph" transform="scale(1 1) rotate(0) translate(4 221)">
<title>MC::ParticlesContainer::load_tuning_constant</title>
<!-- Node1 -->
<g id="Node000001" class="node">
<title>Node1</title>
<g id="a_Node000001"><a xlink:title=" ">
<polygon fill="#999999" stroke="#666666" points="428.25,-146 309.5,-146 309.5,-117 428.25,-117 428.25,-146"/>
<text xml:space="preserve" text-anchor="start" x="317.5" y="-132.5" font-family="Helvetica,sans-Serif" font-size="10.00">MC::ParticlesContainer</text>
<text xml:space="preserve" text-anchor="middle" x="368.88" y="-122" font-family="Helvetica,sans-Serif" font-size="10.00">::load_tuning_constant</text>
</a>
</g>
</g>
<!-- Node2 -->
<g id="Node000002" class="node">
<title>Node2</title>
<g id="a_Node000002"><a xlink:href="classMC_1_1ParticlesContainer.html#adae9af7cbb629530927d504f5fe75c90" target="_top" xlink:title="Load data from ar for deserialization.">
<polygon fill="white" stroke="#666666" points="273.5,-170 154.75,-170 154.75,-141 273.5,-141 273.5,-170"/>
<text xml:space="preserve" text-anchor="start" x="162.75" y="-156.5" font-family="Helvetica,sans-Serif" font-size="10.00">MC::ParticlesContainer</text>
<text xml:space="preserve" text-anchor="middle" x="214.12" y="-146" font-family="Helvetica,sans-Serif" font-size="10.00">::load</text>
</a>
</g>
</g>
<!-- Node1&#45;&gt;Node2 -->
<g id="edge1_Node000001_Node000002" class="edge">
<title>Node1&#45;&gt;Node2</title>
<g id="a_edge1_Node000001_Node000002"><a xlink:title=" ">
<path fill="none" stroke="#63b8ff" d="M297.96,-142.49C289.89,-143.75 281.73,-145.03 273.84,-146.27"/>
<polygon fill="#63b8ff" stroke="#63b8ff" points="298.42,-145.96 307.76,-140.95 297.34,-139.04 298.42,-145.96"/>
</a>
</g>
</g>
<!-- Node3 -->
<g id="Node000003" class="node">
<title>Node3</title>
<g id="a_Node000003"><a xlink:href="classMC_1_1ParticlesContainer.html#a31cc416a99cf6e26bd4c1cb0a154a5ac" target="_top" xlink:title="Alias for the model used by the container.">
<polygon fill="white" stroke="#666666" points="273.5,-123 154.75,-123 154.75,-94 273.5,-94 273.5,-123"/>
<text xml:space="preserve" text-anchor="start" x="162.75" y="-109.5" font-family="Helvetica,sans-Serif" font-size="10.00">MC::ParticlesContainer</text>
<text xml:space="preserve" text-anchor="middle" x="214.12" y="-99" font-family="Helvetica,sans-Serif" font-size="10.00">::ParticlesContainer</text>
</a>
</g>
</g>
<!-- Node1&#45;&gt;Node3 -->
<g id="edge2_Node000001_Node000003" class="edge">
<title>Node1&#45;&gt;Node3</title>
<g id="a_edge2_Node000001_Node000003"><a xlink:title=" ">
<path fill="none" stroke="#63b8ff" d="M297.96,-120.97C289.89,-119.76 281.73,-118.53 273.84,-117.34"/>
<polygon fill="#63b8ff" stroke="#63b8ff" points="297.35,-124.42 307.76,-122.45 298.39,-117.5 297.35,-124.42"/>
</a>
</g>
</g>
<!-- Node4 -->
<g id="Node000004" class="node">
<title>Node4</title>
<g id="a_Node000004"><a xlink:href="classMC_1_1ParticlesContainer.html#ad499de971fbe1a2cf3e1adbe2bb151d6" target="_top" xlink:title=" ">
<polygon fill="white" stroke="#666666" points="118.75,-217 0,-217 0,-188 118.75,-188 118.75,-217"/>
<text xml:space="preserve" text-anchor="start" x="8" y="-203.5" font-family="Helvetica,sans-Serif" font-size="10.00">MC::ParticlesContainer</text>
<text xml:space="preserve" text-anchor="middle" x="59.38" y="-193" font-family="Helvetica,sans-Serif" font-size="10.00">::operator=</text>
</a>
</g>
</g>
<!-- Node3&#45;&gt;Node4 -->
<g id="edge3_Node000003_Node000004" class="edge">
<title>Node3&#45;&gt;Node4</title>
<g id="a_edge3_Node000003_Node000004"><a xlink:title=" ">
<path fill="none" stroke="#63b8ff" d="M159.5,-129.14C157.87,-130.21 156.28,-131.33 154.75,-132.5 133.86,-148.5 139.76,-163.65 118.75,-179.5 114.75,-182.52 110.3,-185.19 105.7,-187.55"/>
<polygon fill="#63b8ff" stroke="#63b8ff" points="161.08,-132.27 168,-124.24 157.59,-126.2 161.08,-132.27"/>
</a>
</g>
</g>
<!-- Node5 -->
<g id="Node000005" class="node">
<title>Node5</title>
<g id="a_Node000005"><a xlink:href="classMC_1_1ParticlesContainer.html#a5d93b87f5a6e18c449e0ed62333e9d6e" target="_top" xlink:title=" ">
<polygon fill="white" stroke="#666666" points="118.75,-170 0,-170 0,-141 118.75,-141 118.75,-170"/>
<text xml:space="preserve" text-anchor="start" x="8" y="-156.5" font-family="Helvetica,sans-Serif" font-size="10.00">MC::ParticlesContainer</text>
<text xml:space="preserve" text-anchor="middle" x="59.38" y="-146" font-family="Helvetica,sans-Serif" font-size="10.00">::operator=</text>
</a>
</g>
</g>
<!-- Node3&#45;&gt;Node5 -->
<g id="edge4_Node000003_Node000005" class="edge">
<title>Node3&#45;&gt;Node5</title>
<g id="a_edge4_Node000003_Node000005"><a xlink:title=" ">
<path fill="none" stroke="#63b8ff" d="M154.11,-126.66C139.16,-131.26 123.28,-136.14 108.92,-140.56"/>
<polygon fill="#63b8ff" stroke="#63b8ff" points="154.82,-130.1 163.35,-123.82 152.76,-123.41 154.82,-130.1"/>
</a>
</g>
</g>
<!-- Node6 -->
<g id="Node000006" class="node">
<title>Node6</title>
<g id="a_Node000006"><a xlink:href="classMC_1_1ParticlesContainer.html#a5b4a66b67d3b4942557b22538958480a" target="_top" xlink:title=" ">
<polygon fill="white" stroke="#666666" points="118.75,-123 0,-123 0,-94 118.75,-94 118.75,-123"/>
<text xml:space="preserve" text-anchor="start" x="8" y="-109.5" font-family="Helvetica,sans-Serif" font-size="10.00">MC::ParticlesContainer</text>
<text xml:space="preserve" text-anchor="middle" x="59.38" y="-99" font-family="Helvetica,sans-Serif" font-size="10.00">::ParticlesContainer</text>
</a>
</g>
</g>
<!-- Node3&#45;&gt;Node6 -->
<g id="edge5_Node000003_Node000006" class="edge">
<title>Node3&#45;&gt;Node6</title>
<g id="a_edge5_Node000003_Node000006"><a xlink:title=" ">
<path fill="none" stroke="#63b8ff" d="M143.21,-108.5C135.14,-108.5 126.98,-108.5 119.09,-108.5"/>
<polygon fill="#63b8ff" stroke="#63b8ff" points="142.99,-112 152.99,-108.5 142.99,-105 142.99,-112"/>
</a>
</g>
</g>
<!-- Node7 -->
<g id="Node000007" class="node">
<title>Node7</title>
<g id="a_Node000007"><a xlink:href="classMC_1_1ParticlesContainer.html#adacba063d362632ca0899bae750b628a" target="_top" xlink:title="Default copy and move constructors and assignment operators.">
<polygon fill="white" stroke="#666666" points="118.75,-76 0,-76 0,-47 118.75,-47 118.75,-76"/>
<text xml:space="preserve" text-anchor="start" x="8" y="-62.5" font-family="Helvetica,sans-Serif" font-size="10.00">MC::ParticlesContainer</text>
<text xml:space="preserve" text-anchor="middle" x="59.38" y="-52" font-family="Helvetica,sans-Serif" font-size="10.00">::ParticlesContainer</text>
</a>
</g>
</g>
<!-- Node3&#45;&gt;Node7 -->
<g id="edge6_Node000003_Node000007" class="edge">
<title>Node3&#45;&gt;Node7</title>
<g id="a_edge6_Node000003_Node000007"><a xlink:title=" ">
<path fill="none" stroke="#63b8ff" d="M154.11,-90.34C139.16,-85.74 123.28,-80.86 108.92,-76.44"/>
<polygon fill="#63b8ff" stroke="#63b8ff" points="152.76,-93.59 163.35,-93.18 154.82,-86.9 152.76,-93.59"/>
</a>
</g>
</g>
<!-- Node8 -->
<g id="Node000008" class="node">
<title>Node8</title>
<g id="a_Node000008"><a xlink:href="classMC_1_1ParticlesContainer.html#ae0cd8cf83c2728db495167ec2f10d80a" target="_top" xlink:title=" ">
<polygon fill="white" stroke="#666666" points="118.75,-29 0,-29 0,0 118.75,0 118.75,-29"/>
<text xml:space="preserve" text-anchor="start" x="8" y="-15.5" font-family="Helvetica,sans-Serif" font-size="10.00">MC::ParticlesContainer</text>
<text xml:space="preserve" text-anchor="middle" x="59.38" y="-5" font-family="Helvetica,sans-Serif" font-size="10.00">::ParticlesContainer</text>
</a>
</g>
</g>
<!-- Node3&#45;&gt;Node8 -->
<g id="edge7_Node000003_Node000008" class="edge">
<title>Node3&#45;&gt;Node8</title>
<g id="a_edge7_Node000003_Node000008"><a xlink:title=" ">
<path fill="none" stroke="#63b8ff" d="M187.06,-86.4C168.75,-71.59 143.25,-52.34 118.75,-38.5 113.03,-35.27 106.78,-32.23 100.57,-29.48"/>
<polygon fill="#63b8ff" stroke="#63b8ff" points="184.82,-89.09 194.77,-92.73 189.26,-83.68 184.82,-89.09"/>
</a>
</g>
</g>
</g>
</svg>
</svg>

<style type='text/css'>
<![CDATA[
[data-mouse-over-selected='false'] { opacity: 0.7; }
[data-mouse-over-selected='true']  { opacity: 1.0; }
]]>
</style>
<script type="application/ecmascript"><![CDATA[
document.addEventListener('DOMContentLoaded', (event) => {
  highlightEdges();
  highlightAdjacentNodes();
});
]]></script>
</svg>
