<?xml version="1.0" encoding="UTF-8" standalone="no"?>
<!DOCTYPE svg PUBLIC "-//W3C//DTD SVG 1.1//EN"
 "http://www.w3.org/Graphics/SVG/1.1/DTD/svg11.dtd">
<!-- Generated by graphviz version 12.1.2 (0)
 -->
<!-- Title: CmaUtils::FlowMapTransitionner::getFlowIndex Pages: 1 -->
<svg width="530pt" height="131pt"
 viewBox="0.00 0.00 530.00 131.00" xmlns="http://www.w3.org/2000/svg" xmlns:xlink="http://www.w3.org/1999/xlink">
<g id="graph0" class="graph" transform="scale(1 1) rotate(0) translate(4 127)">
<title>CmaUtils::FlowMapTransitionner::getFlowIndex</title>
<!-- Node1 -->
<g id="Node000001" class="node">
<title>Node1</title>
<g id="a_Node000001"><a xlink:title="Return the index of the current ProxyPreCalculatedHydroState.">
<polygon fill="#999999" stroke="#666666" points="522,-76 363.5,-76 363.5,-47 522,-47 522,-76"/>
<text text-anchor="start" x="371.5" y="-62.5" font-family="Helvetica,sans-Serif" font-size="10.00">CmaUtils::FlowMapTransitionner</text>
<text text-anchor="middle" x="442.75" y="-52" font-family="Helvetica,sans-Serif" font-size="10.00">::getFlowIndex</text>
</a>
</g>
</g>
<!-- Node2 -->
<g id="Node000002" class="node">
<title>Node2</title>
<g id="a_Node000002"><a xlink:href="classCmaUtils_1_1DiscontinuousFMT.html#a6c8dd6ddccce5fc099aa3a24ff3120b4" target="_top" xlink:title="Get current gas state read from CmaRead.">
<polygon fill="white" stroke="#666666" points="327.5,-123 181.75,-123 181.75,-94 327.5,-94 327.5,-123"/>
<text text-anchor="start" x="189.75" y="-109.5" font-family="Helvetica,sans-Serif" font-size="10.00">CmaUtils::DiscontinuousFMT</text>
<text text-anchor="middle" x="254.62" y="-99" font-family="Helvetica,sans-Serif" font-size="10.00">::current_gas_hydro_state</text>
</a>
</g>
</g>
<!-- Node1&#45;&gt;Node2 -->
<g id="edge1_Node000001_Node000002" class="edge">
<title>Node1&#45;&gt;Node2</title>
<g id="a_edge1_Node000001_Node000002"><a xlink:title=" ">
<path fill="none" stroke="#63b8ff" d="M371.5,-79.24C352.87,-83.94 332.93,-88.98 314.94,-93.52"/>
<polygon fill="#63b8ff" stroke="#63b8ff" points="372.3,-82.65 381.14,-76.81 370.58,-75.86 372.3,-82.65"/>
</a>
</g>
</g>
<!-- Node4 -->
<g id="Node000004" class="node">
<title>Node4</title>
<g id="a_Node000004"><a xlink:href="classCmaUtils_1_1DiscontinuousFMT.html#a6e942b1caf7ddc68b29c8d24b185b594" target="_top" xlink:title="Get current liquid state read from CmaRead.">
<polygon fill="white" stroke="#666666" points="327.5,-76 181.75,-76 181.75,-47 327.5,-47 327.5,-76"/>
<text text-anchor="start" x="189.75" y="-62.5" font-family="Helvetica,sans-Serif" font-size="10.00">CmaUtils::DiscontinuousFMT</text>
<text text-anchor="middle" x="254.62" y="-52" font-family="Helvetica,sans-Serif" font-size="10.00">::current_liq_hydro_state</text>
</a>
</g>
</g>
<!-- Node1&#45;&gt;Node4 -->
<g id="edge3_Node000001_Node000004" class="edge">
<title>Node1&#45;&gt;Node4</title>
<g id="a_edge3_Node000001_Node000004"><a xlink:title=" ">
<path fill="none" stroke="#63b8ff" d="M351.77,-61.5C343.73,-61.5 335.66,-61.5 327.79,-61.5"/>
<polygon fill="#63b8ff" stroke="#63b8ff" points="351.57,-65 361.57,-61.5 351.57,-58 351.57,-65"/>
</a>
</g>
</g>
<!-- Node5 -->
<g id="Node000005" class="node">
<title>Node5</title>
<g id="a_Node000005"><a xlink:href="classCmaUtils_1_1DiscontinuousFMT.html#afb3fcc676bcb57682b6fc6e4658e7ae0" target="_top" xlink:title="Provides a const reference to the current reactor state.">
<polygon fill="white" stroke="#666666" points="327.5,-29 181.75,-29 181.75,0 327.5,0 327.5,-29"/>
<text text-anchor="start" x="189.75" y="-15.5" font-family="Helvetica,sans-Serif" font-size="10.00">CmaUtils::DiscontinuousFMT</text>
<text text-anchor="middle" x="254.62" y="-5" font-family="Helvetica,sans-Serif" font-size="10.00">::get_current_reactor_state</text>
</a>
</g>
</g>
<!-- Node1&#45;&gt;Node5 -->
<g id="edge5_Node000001_Node000005" class="edge">
<title>Node1&#45;&gt;Node5</title>
<g id="a_edge5_Node000001_Node000005"><a xlink:title=" ">
<path fill="none" stroke="#63b8ff" d="M371.5,-43.76C352.87,-39.06 332.93,-34.02 314.94,-29.48"/>
<polygon fill="#63b8ff" stroke="#63b8ff" points="370.58,-47.14 381.14,-46.19 372.3,-40.35 370.58,-47.14"/>
</a>
</g>
</g>
<!-- Node3 -->
<g id="Node000003" class="node">
<title>Node3</title>
<g id="a_Node000003"><a xlink:href="classCmaUtils_1_1DiscontinuousFMT.html#a5b9b0e3ef2d5812a9e605f1dbb9214d6" target="_top" xlink:title="Calculate the current state based on the selected method, may be caching or direct calculation.">
<polygon fill="white" stroke="#666666" points="145.75,-76 0,-76 0,-47 145.75,-47 145.75,-76"/>
<text text-anchor="start" x="8" y="-62.5" font-family="Helvetica,sans-Serif" font-size="10.00">CmaUtils::DiscontinuousFMT</text>
<text text-anchor="middle" x="72.88" y="-52" font-family="Helvetica,sans-Serif" font-size="10.00">::update_flow</text>
</a>
</g>
</g>
<!-- Node2&#45;&gt;Node3 -->
<g id="edge2_Node000002_Node000003" class="edge">
<title>Node2&#45;&gt;Node3</title>
<g id="a_edge2_Node000002_Node000003"><a xlink:title=" ">
<path fill="none" stroke="#63b8ff" d="M185.71,-90.74C167.68,-86.03 148.39,-80.98 131,-76.44"/>
<polygon fill="#63b8ff" stroke="#63b8ff" points="184.73,-94.1 195.29,-93.25 186.5,-87.33 184.73,-94.1"/>
</a>
</g>
</g>
<!-- Node4&#45;&gt;Node3 -->
<g id="edge4_Node000004_Node000003" class="edge">
<title>Node4&#45;&gt;Node3</title>
<g id="a_edge4_Node000004_Node000003"><a xlink:title=" ">
<path fill="none" stroke="#63b8ff" d="M170.04,-61.5C162.03,-61.5 153.95,-61.5 146.06,-61.5"/>
<polygon fill="#63b8ff" stroke="#63b8ff" points="169.78,-65 179.78,-61.5 169.78,-58 169.78,-65"/>
</a>
</g>
</g>
<!-- Node5&#45;&gt;Node3 -->
<g id="edge6_Node000005_Node000003" class="edge">
<title>Node5&#45;&gt;Node3</title>
<g id="a_edge6_Node000005_Node000003"><a xlink:title=" ">
<path fill="none" stroke="#63b8ff" d="M185.71,-32.26C167.68,-36.97 148.39,-42.02 131,-46.56"/>
<polygon fill="#63b8ff" stroke="#63b8ff" points="186.5,-35.67 195.29,-29.75 184.73,-28.9 186.5,-35.67"/>
</a>
</g>
</g>
</g>
</svg>
