<?xml version="1.0" encoding="UTF-8" standalone="no"?>
<!DOCTYPE svg PUBLIC "-//W3C//DTD SVG 1.1//EN"
 "http://www.w3.org/Graphics/SVG/1.1/DTD/svg11.dtd">
<!-- Generated by graphviz version 14.0.1 (0)
 -->
<!-- Title: Simulation::SimulationUnit::post_cycle Pages: 1 -->
<svg width="641pt" height="197pt"
 viewBox="0.00 0.00 641.00 197.00" xmlns="http://www.w3.org/2000/svg" xmlns:xlink="http://www.w3.org/1999/xlink">
<g id="graph0" class="graph" transform="scale(1 1) rotate(0) translate(4 193)">
<title>Simulation::SimulationUnit::post_cycle</title>
<!-- Node1 -->
<g id="Node000001" class="node">
<title>Node1</title>
<g id="a_Node000001"><a xlink:title=" ">
<polygon fill="#999999" stroke="#666666" points="131.5,-99 0,-99 0,-70 131.5,-70 131.5,-99"/>
<text xml:space="preserve" text-anchor="start" x="8" y="-85.5" font-family="Helvetica,sans-Serif" font-size="10.00">Simulation::SimulationUnit</text>
<text xml:space="preserve" text-anchor="middle" x="65.75" y="-75" font-family="Helvetica,sans-Serif" font-size="10.00">::post_cycle</text>
</a>
</g>
</g>
<!-- Node2 -->
<g id="Node000002" class="node">
<title>Node2</title>
<g id="a_Node000002"><a xlink:href="classMC_1_1ParticlesContainer.html#a8e95993fb1287c04427780d6372be565" target="_top" xlink:title=" ">
<polygon fill="white" stroke="#666666" points="298.62,-170 179.88,-170 179.88,-141 298.62,-141 298.62,-170"/>
<text xml:space="preserve" text-anchor="start" x="187.88" y="-156.5" font-family="Helvetica,sans-Serif" font-size="10.00">MC::ParticlesContainer</text>
<text xml:space="preserve" text-anchor="middle" x="239.25" y="-146" font-family="Helvetica,sans-Serif" font-size="10.00">::merge_buffer</text>
</a>
</g>
</g>
<!-- Node1&#45;&gt;Node2 -->
<g id="edge1_Node000001_Node000002" class="edge">
<title>Node1&#45;&gt;Node2</title>
<g id="a_edge1_Node000001_Node000002"><a xlink:title=" ">
<path fill="none" stroke="#63b8ff" d="M95.4,-99.38C115.33,-109.42 142.66,-122.6 167.5,-132.5 171.15,-133.96 174.93,-135.39 178.76,-136.79"/>
<polygon fill="#63b8ff" stroke="#63b8ff" points="177.59,-140.09 188.19,-140.11 179.92,-133.49 177.59,-140.09"/>
</a>
</g>
</g>
<!-- Node5 -->
<g id="Node000005" class="node">
<title>Node5</title>
<g id="a_Node000005"><a xlink:href="classSimulation_1_1SimulationUnit.html#ae2077067788b0cb0535c62933724a1cf" target="_top" xlink:title=" ">
<polygon fill="white" stroke="#666666" points="305,-123 173.5,-123 173.5,-94 305,-94 305,-123"/>
<text xml:space="preserve" text-anchor="start" x="181.5" y="-109.5" font-family="Helvetica,sans-Serif" font-size="10.00">Simulation::SimulationUnit</text>
<text xml:space="preserve" text-anchor="middle" x="239.25" y="-99" font-family="Helvetica,sans-Serif" font-size="10.00">::scatter_contribute</text>
</a>
</g>
</g>
<!-- Node1&#45;&gt;Node5 -->
<g id="edge4_Node000001_Node000005" class="edge">
<title>Node1&#45;&gt;Node5</title>
<g id="a_edge4_Node000001_Node000005"><a xlink:title=" ">
<path fill="none" stroke="#63b8ff" d="M131.59,-93.57C141.44,-94.95 151.69,-96.39 161.77,-97.8"/>
<polygon fill="#63b8ff" stroke="#63b8ff" points="161.15,-101.24 171.54,-99.16 162.12,-94.31 161.15,-101.24"/>
</a>
</g>
</g>
<!-- Node7 -->
<g id="Node000007" class="node">
<title>Node7</title>
<g id="a_Node000007"><a xlink:href="classSimulation_1_1SimulationUnit.html#ac396f393b4cf318b38364c5067254c80" target="_top" xlink:title=" ">
<polygon fill="white" stroke="#666666" points="311,-76 167.5,-76 167.5,-47 311,-47 311,-76"/>
<text xml:space="preserve" text-anchor="start" x="175.5" y="-62.5" font-family="Helvetica,sans-Serif" font-size="10.00">Simulation::SimulationUnit</text>
<text xml:space="preserve" text-anchor="middle" x="239.25" y="-52" font-family="Helvetica,sans-Serif" font-size="10.00">::set_kernel_contribs_to_host</text>
</a>
</g>
</g>
<!-- Node1&#45;&gt;Node7 -->
<g id="edge6_Node000001_Node000007" class="edge">
<title>Node1&#45;&gt;Node7</title>
<g id="a_edge6_Node000001_Node000007"><a xlink:title=" ">
<path fill="none" stroke="#63b8ff" d="M131.59,-75.8C139.45,-74.75 147.57,-73.66 155.65,-72.58"/>
<polygon fill="#63b8ff" stroke="#63b8ff" points="156.07,-76.05 165.51,-71.25 155.14,-69.12 156.07,-76.05"/>
</a>
</g>
</g>
<!-- Node8 -->
<g id="Node000008" class="node">
<title>Node8</title>
<g id="a_Node000008"><a xlink:href="classMC_1_1ParticlesContainer.html#a3caab0990a6f03d2c06d3a67858f8c30" target="_top" xlink:title=" ">
<polygon fill="white" stroke="#666666" points="302.75,-29 175.75,-29 175.75,0 302.75,0 302.75,-29"/>
<text xml:space="preserve" text-anchor="start" x="183.75" y="-15.5" font-family="Helvetica,sans-Serif" font-size="10.00">MC::ParticlesContainer</text>
<text xml:space="preserve" text-anchor="middle" x="239.25" y="-5" font-family="Helvetica,sans-Serif" font-size="10.00">::update_and_clean_dead</text>
</a>
</g>
</g>
<!-- Node1&#45;&gt;Node8 -->
<g id="edge7_Node000001_Node000008" class="edge">
<title>Node1&#45;&gt;Node8</title>
<g id="a_edge7_Node000001_Node000008"><a xlink:title=" ">
<path fill="none" stroke="#63b8ff" d="M96.31,-69.54C116.17,-59.79 143.08,-47.12 167.5,-37.5 171.16,-36.06 174.94,-34.64 178.78,-33.25"/>
<polygon fill="#63b8ff" stroke="#63b8ff" points="179.93,-36.55 188.21,-29.94 177.61,-29.95 179.93,-36.55"/>
</a>
</g>
</g>
<!-- Node3 -->
<g id="Node000003" class="node">
<title>Node3</title>
<g id="a_Node000003"><a xlink:href="classMC_1_1ParticlesContainer.html#a57fa06d3225acf04522e3fc2993847f0" target="_top" xlink:title=" ">
<polygon fill="white" stroke="#666666" points="472.12,-189 353.38,-189 353.38,-160 472.12,-160 472.12,-189"/>
<text xml:space="preserve" text-anchor="start" x="361.38" y="-175.5" font-family="Helvetica,sans-Serif" font-size="10.00">MC::ParticlesContainer</text>
<text xml:space="preserve" text-anchor="middle" x="412.75" y="-165" font-family="Helvetica,sans-Serif" font-size="10.00">::__allocate_buffer__</text>
</a>
</g>
</g>
<!-- Node2&#45;&gt;Node3 -->
<g id="edge2_Node000002_Node000003" class="edge">
<title>Node2&#45;&gt;Node3</title>
<g id="a_edge2_Node000002_Node000003"><a xlink:title=" ">
<path fill="none" stroke="#63b8ff" d="M298.79,-161.99C312.57,-163.51 327.4,-165.16 341.63,-166.73"/>
<polygon fill="#63b8ff" stroke="#63b8ff" points="341.06,-170.19 351.39,-167.81 341.83,-163.23 341.06,-170.19"/>
</a>
</g>
</g>
<!-- Node4 -->
<g id="Node000004" class="node">
<title>Node4</title>
<g id="a_Node000004"><a xlink:href="classMC_1_1ParticlesContainer.html#a4fc94ae525191a5d034dce4866986c1e" target="_top" xlink:title=" ">
<polygon fill="white" stroke="#666666" points="633.25,-97 514.5,-97 514.5,-68 633.25,-68 633.25,-97"/>
<text xml:space="preserve" text-anchor="start" x="522.5" y="-83.5" font-family="Helvetica,sans-Serif" font-size="10.00">MC::ParticlesContainer</text>
<text xml:space="preserve" text-anchor="middle" x="573.88" y="-73" font-family="Helvetica,sans-Serif" font-size="10.00">::_resize</text>
</a>
</g>
</g>
<!-- Node2&#45;&gt;Node4 -->
<g id="edge3_Node000002_Node000004" class="edge">
<title>Node2&#45;&gt;Node4</title>
<g id="a_edge3_Node000002_Node000004"><a xlink:title=" ">
<path fill="none" stroke="#63b8ff" d="M298.95,-147.07C347.45,-139.59 417.92,-127.53 478.5,-112.5 491.8,-109.2 505.96,-105.05 519.16,-100.9"/>
<polygon fill="#63b8ff" stroke="#63b8ff" points="520.09,-104.27 528.54,-97.89 517.95,-97.61 520.09,-104.27"/>
</a>
</g>
</g>
<!-- Node6 -->
<g id="Node000006" class="node">
<title>Node6</title>
<g id="a_Node000006"><a xlink:href="classSimulation_1_1SimulationUnit.html#a9ea90cab13d8259f026f57baad1c989f" target="_top" xlink:title=" ">
<polygon fill="white" stroke="#666666" points="478.5,-103 347,-103 347,-74 478.5,-74 478.5,-103"/>
<text xml:space="preserve" text-anchor="start" x="355" y="-89.5" font-family="Helvetica,sans-Serif" font-size="10.00">Simulation::SimulationUnit</text>
<text xml:space="preserve" text-anchor="middle" x="412.75" y="-79" font-family="Helvetica,sans-Serif" font-size="10.00">::get_kernel_contribution</text>
</a>
</g>
</g>
<!-- Node5&#45;&gt;Node6 -->
<g id="edge5_Node000005_Node000006" class="edge">
<title>Node5&#45;&gt;Node6</title>
<g id="a_edge5_Node000005_Node000006"><a xlink:title=" ">
<path fill="none" stroke="#63b8ff" d="M305.09,-100.94C314.94,-99.79 325.19,-98.59 335.27,-97.42"/>
<polygon fill="#63b8ff" stroke="#63b8ff" points="335.51,-100.92 345.03,-96.28 334.7,-93.96 335.51,-100.92"/>
</a>
</g>
</g>
<!-- Node9 -->
<g id="Node000009" class="node">
<title>Node9</title>
<g id="a_Node000009"><a xlink:href="classMC_1_1ParticlesContainer.html#acca450f3c529a6e6962d76f8f39011e8" target="_top" xlink:title=" ">
<polygon fill="white" stroke="#666666" points="472.12,-52 353.38,-52 353.38,-23 472.12,-23 472.12,-52"/>
<text xml:space="preserve" text-anchor="start" x="361.38" y="-38.5" font-family="Helvetica,sans-Serif" font-size="10.00">MC::ParticlesContainer</text>
<text xml:space="preserve" text-anchor="middle" x="412.75" y="-28" font-family="Helvetica,sans-Serif" font-size="10.00">::clean_dead</text>
</a>
</g>
</g>
<!-- Node8&#45;&gt;Node9 -->
<g id="edge8_Node000008_Node000009" class="edge">
<title>Node8&#45;&gt;Node9</title>
<g id="a_edge8_Node000008_Node000009"><a xlink:title=" ">
<path fill="none" stroke="#63b8ff" d="M303.14,-22.93C315.78,-24.63 329.14,-26.42 342,-28.15"/>
<polygon fill="#63b8ff" stroke="#63b8ff" points="341.27,-31.58 351.64,-29.44 342.2,-24.64 341.27,-31.58"/>
</a>
</g>
</g>
<!-- Node9&#45;&gt;Node4 -->
<g id="edge9_Node000009_Node000004" class="edge">
<title>Node9&#45;&gt;Node4</title>
<g id="a_edge9_Node000009_Node000004"><a xlink:title=" ">
<path fill="none" stroke="#63b8ff" d="M466.74,-52.48C480.22,-56.3 494.85,-60.44 508.82,-64.39"/>
<polygon fill="#63b8ff" stroke="#63b8ff" points="507.82,-67.74 518.39,-67.09 509.72,-61 507.82,-67.74"/>
</a>
</g>
</g>
</g>
</svg>
