<?xml version="1.0" encoding="UTF-8" standalone="no"?>
<!DOCTYPE svg PUBLIC "-//W3C//DTD SVG 1.1//EN"
 "http://www.w3.org/Graphics/SVG/1.1/DTD/svg11.dtd">
<!-- Generated by graphviz version 14.0.1 (0)
 -->
<!-- Title: Simulation::ScalarSimulation::get_mass_transfer Pages: 1 -->
<svg width="506pt" height="301pt"
 viewBox="0.00 0.00 506.00 301.00" xmlns="http://www.w3.org/2000/svg" xmlns:xlink="http://www.w3.org/1999/xlink">
<g id="graph0" class="graph" transform="scale(1 1) rotate(0) translate(4 297.13)">
<title>Simulation::ScalarSimulation::get_mass_transfer</title>
<!-- Node1 -->
<g id="Node000001" class="node">
<title>Node1</title>
<g id="a_Node000001"><a xlink:title=" ">
<polygon fill="#999999" stroke="#666666" points="141.25,-170 0,-170 0,-141 141.25,-141 141.25,-170"/>
<text xml:space="preserve" text-anchor="start" x="8" y="-156.5" font-family="Helvetica,sans-Serif" font-size="10.00">Simulation::ScalarSimulation</text>
<text xml:space="preserve" text-anchor="middle" x="70.62" y="-146" font-family="Helvetica,sans-Serif" font-size="10.00">::get_mass_transfer</text>
</a>
</g>
</g>
<!-- Node2 -->
<g id="Node000002" class="node">
<title>Node2</title>
<g id="a_Node000002"><a xlink:href="classSimulation_1_1ScalarSimulation.html#a5ca5e122100fad91f418cbbea5bbb439" target="_top" xlink:title=" ">
<polygon fill="white" stroke="#666666" points="498,-168 356.75,-168 356.75,-139 498,-139 498,-168"/>
<text xml:space="preserve" text-anchor="start" x="364.75" y="-154.5" font-family="Helvetica,sans-Serif" font-size="10.00">Simulation::ScalarSimulation</text>
<text xml:space="preserve" text-anchor="middle" x="427.38" y="-144" font-family="Helvetica,sans-Serif" font-size="10.00">::n_col</text>
</a>
</g>
</g>
<!-- Node1&#45;&gt;Node2 -->
<g id="edge1_Node000001_Node000002" class="edge">
<title>Node1&#45;&gt;Node2</title>
<g id="a_edge1_Node000001_Node000002"><a xlink:title=" ">
<path fill="none" stroke="#63b8ff" d="M79.32,-170.31C94.11,-196.93 129.31,-252.07 177.25,-273.5 235.48,-299.53 262.63,-299.77 320.75,-273.5 364,-253.95 396.6,-206.98 413.48,-177.94"/>
<polygon fill="#63b8ff" stroke="#63b8ff" points="416.4,-179.89 418.24,-169.45 410.29,-176.46 416.4,-179.89"/>
</a>
</g>
</g>
<!-- Node3 -->
<g id="Node000003" class="node">
<title>Node3</title>
<g id="a_Node000003"><a xlink:href="classSimulation_1_1ScalarSimulation.html#a5a793304a495454f9969fcd83e70f654" target="_top" xlink:title=" ">
<polygon fill="white" stroke="#666666" points="319.62,-264 178.38,-264 178.38,-235 319.62,-235 319.62,-264"/>
<text xml:space="preserve" text-anchor="start" x="186.38" y="-250.5" font-family="Helvetica,sans-Serif" font-size="10.00">Simulation::ScalarSimulation</text>
<text xml:space="preserve" text-anchor="middle" x="249" y="-240" font-family="Helvetica,sans-Serif" font-size="10.00">::set_feed</text>
</a>
</g>
</g>
<!-- Node1&#45;&gt;Node3 -->
<g id="edge2_Node000001_Node000003" class="edge">
<title>Node1&#45;&gt;Node3</title>
<g id="a_edge2_Node000001_Node000003"><a xlink:title=" ">
<path fill="none" stroke="#63b8ff" d="M90.12,-170.27C110.48,-185.96 144.67,-210.64 177.25,-226.5 179.99,-227.83 182.82,-229.11 185.7,-230.34"/>
<polygon fill="#63b8ff" stroke="#63b8ff" points="184.33,-233.56 194.92,-234 186.92,-227.06 184.33,-233.56"/>
</a>
</g>
</g>
<!-- Node4 -->
<g id="Node000004" class="node">
<title>Node4</title>
<g id="a_Node000004"><a xlink:href="classSimulation_1_1ScalarSimulation.html#afb6dadda99cfce2c2172ad5fabc42682" target="_top" xlink:title=" ">
<polygon fill="white" stroke="#666666" points="320.75,-217 177.25,-217 177.25,-188 320.75,-188 320.75,-217"/>
<text xml:space="preserve" text-anchor="start" x="185.25" y="-203.5" font-family="Helvetica,sans-Serif" font-size="10.00">Simulation::ScalarSimulation</text>
<text xml:space="preserve" text-anchor="middle" x="249" y="-193" font-family="Helvetica,sans-Serif" font-size="10.00">::set_kernel_contribs_to_host</text>
</a>
</g>
</g>
<!-- Node1&#45;&gt;Node4 -->
<g id="edge3_Node000001_Node000004" class="edge">
<title>Node1&#45;&gt;Node4</title>
<g id="a_edge3_Node000001_Node000004"><a xlink:title=" ">
<path fill="none" stroke="#63b8ff" d="M127.43,-170.37C144.4,-174.89 163.23,-179.91 180.86,-184.61"/>
<polygon fill="#63b8ff" stroke="#63b8ff" points="179.92,-187.98 190.49,-187.17 181.73,-181.22 179.92,-187.98"/>
</a>
</g>
</g>
<!-- Node5 -->
<g id="Node000005" class="node">
<title>Node5</title>
<g id="a_Node000005"><a xlink:href="classSimulation_1_1ScalarSimulation.html#ae80baa6cc64f5e0bae5847d0b1b739fc" target="_top" xlink:title=" ">
<polygon fill="white" stroke="#666666" points="319.62,-170 178.38,-170 178.38,-141 319.62,-141 319.62,-170"/>
<text xml:space="preserve" text-anchor="start" x="186.38" y="-156.5" font-family="Helvetica,sans-Serif" font-size="10.00">Simulation::ScalarSimulation</text>
<text xml:space="preserve" text-anchor="middle" x="249" y="-146" font-family="Helvetica,sans-Serif" font-size="10.00">::set_mass</text>
</a>
</g>
</g>
<!-- Node1&#45;&gt;Node5 -->
<g id="edge4_Node000001_Node000005" class="edge">
<title>Node1&#45;&gt;Node5</title>
<g id="a_edge4_Node000001_Node000005"><a xlink:title=" ">
<path fill="none" stroke="#63b8ff" d="M141.59,-155.5C149.85,-155.5 158.34,-155.5 166.74,-155.5"/>
<polygon fill="#63b8ff" stroke="#63b8ff" points="166.61,-159 176.61,-155.5 166.61,-152 166.61,-159"/>
</a>
</g>
</g>
<!-- Node6 -->
<g id="Node000006" class="node">
<title>Node6</title>
<g id="a_Node000006"><a xlink:href="classSimulation_1_1ScalarSimulation.html#a2ec477ff4779eeeb0fc66eb443c5900a" target="_top" xlink:title=" ">
<polygon fill="white" stroke="#666666" points="319.62,-123 178.38,-123 178.38,-94 319.62,-94 319.62,-123"/>
<text xml:space="preserve" text-anchor="start" x="186.38" y="-109.5" font-family="Helvetica,sans-Serif" font-size="10.00">Simulation::ScalarSimulation</text>
<text xml:space="preserve" text-anchor="middle" x="249" y="-99" font-family="Helvetica,sans-Serif" font-size="10.00">::set_sink</text>
</a>
</g>
</g>
<!-- Node1&#45;&gt;Node6 -->
<g id="edge5_Node000001_Node000006" class="edge">
<title>Node1&#45;&gt;Node6</title>
<g id="a_edge5_Node000001_Node000006"><a xlink:title=" ">
<path fill="none" stroke="#63b8ff" d="M127.43,-140.63C144.4,-136.11 163.23,-131.09 180.86,-126.39"/>
<polygon fill="#63b8ff" stroke="#63b8ff" points="181.73,-129.78 190.49,-123.83 179.92,-123.02 181.73,-129.78"/>
</a>
</g>
</g>
<!-- Node7 -->
<g id="Node000007" class="node">
<title>Node7</title>
<g id="a_Node000007"><a xlink:href="classSimulation_1_1ScalarSimulation.html#a699b0f56e5d0145718249e3b658a146c" target="_top" xlink:title=" ">
<polygon fill="white" stroke="#666666" points="319.62,-76 178.38,-76 178.38,-47 319.62,-47 319.62,-76"/>
<text xml:space="preserve" text-anchor="start" x="186.38" y="-62.5" font-family="Helvetica,sans-Serif" font-size="10.00">Simulation::ScalarSimulation</text>
<text xml:space="preserve" text-anchor="middle" x="249" y="-52" font-family="Helvetica,sans-Serif" font-size="10.00">::set_zero_contribs</text>
</a>
</g>
</g>
<!-- Node1&#45;&gt;Node7 -->
<g id="edge6_Node000001_Node000007" class="edge">
<title>Node1&#45;&gt;Node7</title>
<g id="a_edge6_Node000001_Node000007"><a xlink:title=" ">
<path fill="none" stroke="#63b8ff" d="M90.57,-140.75C111.04,-125.36 145.06,-101.3 177.25,-85.5 180.73,-83.79 184.37,-82.15 188.07,-80.6"/>
<polygon fill="#63b8ff" stroke="#63b8ff" points="189.21,-83.91 197.21,-76.97 186.63,-77.4 189.21,-83.91"/>
</a>
</g>
</g>
<!-- Node8 -->
<g id="Node000008" class="node">
<title>Node8</title>
<g id="a_Node000008"><a xlink:href="classSimulation_1_1ScalarSimulation.html#a45bff3c267cd20371ee730cb07ba4a37" target="_top" xlink:title=" ">
<polygon fill="white" stroke="#666666" points="319.62,-29 178.38,-29 178.38,0 319.62,0 319.62,-29"/>
<text xml:space="preserve" text-anchor="start" x="186.38" y="-15.5" font-family="Helvetica,sans-Serif" font-size="10.00">Simulation::ScalarSimulation</text>
<text xml:space="preserve" text-anchor="middle" x="249" y="-5" font-family="Helvetica,sans-Serif" font-size="10.00">::setVolumes</text>
</a>
</g>
</g>
<!-- Node1&#45;&gt;Node8 -->
<g id="edge7_Node000001_Node000008" class="edge">
<title>Node1&#45;&gt;Node8</title>
<g id="a_edge7_Node000001_Node000008"><a xlink:title=" ">
<path fill="none" stroke="#63b8ff" d="M81.19,-140.71C97.84,-116.09 134.49,-66.62 177.25,-38.5 179.49,-37.03 181.83,-35.63 184.24,-34.32"/>
<polygon fill="#63b8ff" stroke="#63b8ff" points="185.63,-37.54 193.09,-30.01 182.57,-31.24 185.63,-37.54"/>
</a>
</g>
</g>
<!-- Node8&#45;&gt;Node2 -->
<g id="edge8_Node000008_Node000002" class="edge">
<title>Node8&#45;&gt;Node2</title>
<g id="a_edge8_Node000008_Node000002"><a xlink:title=" ">
<path fill="none" stroke="#63b8ff" d="M303.52,-29.39C309.55,-32.01 315.42,-35.03 320.75,-38.5 358.21,-62.91 391.24,-103.6 410.01,-129.46"/>
<polygon fill="#63b8ff" stroke="#63b8ff" points="406.96,-131.22 415.6,-137.35 412.67,-127.17 406.96,-131.22"/>
</a>
</g>
</g>
</g>
</svg>
