<?xml version="1.0" encoding="UTF-8" standalone="no"?>
<!DOCTYPE svg PUBLIC "-//W3C//DTD SVG 1.1//EN"
 "http://www.w3.org/Graphics/SVG/1.1/DTD/svg11.dtd">
<!-- Generated by graphviz version 14.0.1 (0)
 -->
<!-- Title: Simulation::ScalarSimulation::n_col Pages: 1 -->
<svg width="527pt" height="327pt"
 viewBox="0.00 0.00 527.00 327.00" xmlns="http://www.w3.org/2000/svg" xmlns:xlink="http://www.w3.org/1999/xlink">
<g id="graph0" class="graph" transform="scale(1 1) rotate(0) translate(4 323)">
<title>Simulation::ScalarSimulation::n_col</title>
<!-- Node1 -->
<g id="Node000001" class="node">
<title>Node1</title>
<g id="a_Node000001"><a xlink:title=" ">
<polygon fill="#999999" stroke="#666666" points="519,-276 377.75,-276 377.75,-247 519,-247 519,-276"/>
<text xml:space="preserve" text-anchor="start" x="385.75" y="-262.5" font-family="Helvetica,sans-Serif" font-size="10.00">Simulation::ScalarSimulation</text>
<text xml:space="preserve" text-anchor="middle" x="448.38" y="-252" font-family="Helvetica,sans-Serif" font-size="10.00">::n_col</text>
</a>
</g>
</g>
<!-- Node2 -->
<g id="Node000002" class="node">
<title>Node2</title>
<g id="a_Node000002"><a xlink:href="classSimulation_1_1ScalarSimulation.html#ab395ffa28c8c371fdf46fb50261a5a76" target="_top" xlink:title=" ">
<polygon fill="white" stroke="#666666" points="152.88,-319 11.62,-319 11.62,-290 152.88,-290 152.88,-319"/>
<text xml:space="preserve" text-anchor="start" x="19.62" y="-305.5" font-family="Helvetica,sans-Serif" font-size="10.00">Simulation::ScalarSimulation</text>
<text xml:space="preserve" text-anchor="middle" x="82.25" y="-295" font-family="Helvetica,sans-Serif" font-size="10.00">::get_mass_transfer</text>
</a>
</g>
</g>
<!-- Node1&#45;&gt;Node2 -->
<g id="edge1_Node000001_Node000002" class="edge">
<title>Node1&#45;&gt;Node2</title>
<g id="a_edge1_Node000001_Node000002"><a xlink:title=" ">
<path fill="none" stroke="#63b8ff" d="M377.5,-278.93C365.63,-281.44 353.38,-283.76 341.75,-285.5 278.33,-294.98 205.42,-299.79 153.23,-302.2"/>
<polygon fill="#63b8ff" stroke="#63b8ff" points="378.23,-282.35 387.25,-276.79 376.74,-275.51 378.23,-282.35"/>
</a>
</g>
</g>
<!-- Node3 -->
<g id="Node000003" class="node">
<title>Node3</title>
<g id="a_Node000003"><a xlink:href="classSimulation_1_1ScalarSimulation.html#aa72818956090d90be703c0ba0ed932ee" target="_top" xlink:title=" ">
<polygon fill="white" stroke="#666666" points="341.75,-170 200.5,-170 200.5,-141 341.75,-141 341.75,-170"/>
<text xml:space="preserve" text-anchor="start" x="208.5" y="-156.5" font-family="Helvetica,sans-Serif" font-size="10.00">Simulation::ScalarSimulation</text>
<text xml:space="preserve" text-anchor="middle" x="271.12" y="-146" font-family="Helvetica,sans-Serif" font-size="10.00">::ScalarSimulation</text>
</a>
</g>
</g>
<!-- Node1&#45;&gt;Node3 -->
<g id="edge2_Node000001_Node000003" class="edge">
<title>Node1&#45;&gt;Node3</title>
<g id="a_edge2_Node000001_Node000003"><a xlink:title=" ">
<path fill="none" stroke="#63b8ff" d="M413.05,-240.74C378.81,-220.03 327.08,-188.74 296.74,-170.39"/>
<polygon fill="#63b8ff" stroke="#63b8ff" points="410.97,-243.57 421.34,-245.75 414.6,-237.58 410.97,-243.57"/>
</a>
</g>
</g>
<!-- Node10 -->
<g id="Node000010" class="node">
<title>Node10</title>
<g id="a_Node000010"><a xlink:href="classSimulation_1_1ScalarSimulation.html#a45bff3c267cd20371ee730cb07ba4a37" target="_top" xlink:title=" ">
<polygon fill="white" stroke="#666666" points="341.75,-276 200.5,-276 200.5,-247 341.75,-247 341.75,-276"/>
<text xml:space="preserve" text-anchor="start" x="208.5" y="-262.5" font-family="Helvetica,sans-Serif" font-size="10.00">Simulation::ScalarSimulation</text>
<text xml:space="preserve" text-anchor="middle" x="271.12" y="-252" font-family="Helvetica,sans-Serif" font-size="10.00">::setVolumes</text>
</a>
</g>
</g>
<!-- Node1&#45;&gt;Node10 -->
<g id="edge10_Node000001_Node000010" class="edge">
<title>Node1&#45;&gt;Node10</title>
<g id="a_edge10_Node000001_Node000010"><a xlink:title=" ">
<path fill="none" stroke="#63b8ff" d="M366.07,-261.5C358.04,-261.5 349.94,-261.5 342.03,-261.5"/>
<polygon fill="#63b8ff" stroke="#63b8ff" points="365.84,-265 375.84,-261.5 365.84,-258 365.84,-265"/>
</a>
</g>
</g>
<!-- Node4 -->
<g id="Node000004" class="node">
<title>Node4</title>
<g id="a_Node000004"><a xlink:href="classSimulation_1_1ScalarSimulation.html#ae2625817dffc02083227be2b82dfe534" target="_top" xlink:title=" ">
<polygon fill="white" stroke="#666666" points="152.88,-254 11.62,-254 11.62,-225 152.88,-225 152.88,-254"/>
<text xml:space="preserve" text-anchor="start" x="19.62" y="-240.5" font-family="Helvetica,sans-Serif" font-size="10.00">Simulation::ScalarSimulation</text>
<text xml:space="preserve" text-anchor="middle" x="82.25" y="-230" font-family="Helvetica,sans-Serif" font-size="10.00">::getConcentrationArray</text>
</a>
</g>
</g>
<!-- Node3&#45;&gt;Node4 -->
<g id="edge3_Node000003_Node000004" class="edge">
<title>Node3&#45;&gt;Node4</title>
<g id="a_edge3_Node000003_Node000004"><a xlink:title=" ">
<path fill="none" stroke="#63b8ff" d="M237.7,-176.5C217.3,-189.06 190.07,-204.63 164.5,-215.5 156.65,-218.84 148.18,-221.89 139.79,-224.63"/>
<polygon fill="#63b8ff" stroke="#63b8ff" points="239.51,-179.5 246.13,-171.24 235.8,-173.56 239.51,-179.5"/>
</a>
</g>
</g>
<!-- Node5 -->
<g id="Node000005" class="node">
<title>Node5</title>
<g id="a_Node000005"><a xlink:href="namespaceSimulation.html#ae5bb8948e2a0bb4f4aef277baf4c0dff" target="_top" xlink:title=" ">
<polygon fill="white" stroke="#666666" points="164.5,-206.75 0,-206.75 0,-188.25 164.5,-188.25 164.5,-206.75"/>
<text xml:space="preserve" text-anchor="middle" x="82.25" y="-193.25" font-family="Helvetica,sans-Serif" font-size="10.00">Simulation::makeScalarSimulation</text>
</a>
</g>
</g>
<!-- Node3&#45;&gt;Node5 -->
<g id="edge5_Node000003_Node000005" class="edge">
<title>Node3&#45;&gt;Node5</title>
<g id="a_edge5_Node000003_Node000005"><a xlink:title=" ">
<path fill="none" stroke="#63b8ff" d="M193.54,-172.95C183.77,-175.17 173.9,-177.39 164.5,-179.5 152.38,-182.22 139.23,-185.14 127.11,-187.83"/>
<polygon fill="#63b8ff" stroke="#63b8ff" points="194.04,-176.43 203.02,-170.8 192.49,-169.6 194.04,-176.43"/>
</a>
</g>
</g>
<!-- Node6 -->
<g id="Node000006" class="node">
<title>Node6</title>
<g id="a_Node000006"><a xlink:href="classSimulation_1_1ScalarSimulation.html#a1b2df58cd259dcfc833a28fb41523483" target="_top" xlink:title=" ">
<polygon fill="white" stroke="#666666" points="152.88,-170 11.62,-170 11.62,-141 152.88,-141 152.88,-170"/>
<text xml:space="preserve" text-anchor="start" x="19.62" y="-156.5" font-family="Helvetica,sans-Serif" font-size="10.00">Simulation::ScalarSimulation</text>
<text xml:space="preserve" text-anchor="middle" x="82.25" y="-146" font-family="Helvetica,sans-Serif" font-size="10.00">::operator=</text>
</a>
</g>
</g>
<!-- Node3&#45;&gt;Node6 -->
<g id="edge6_Node000003_Node000006" class="edge">
<title>Node3&#45;&gt;Node6</title>
<g id="a_edge6_Node000003_Node000006"><a xlink:title=" ">
<path fill="none" stroke="#63b8ff" d="M188.74,-155.5C176.88,-155.5 164.75,-155.5 153.14,-155.5"/>
<polygon fill="#63b8ff" stroke="#63b8ff" points="188.49,-159 198.49,-155.5 188.49,-152 188.49,-159"/>
</a>
</g>
</g>
<!-- Node7 -->
<g id="Node000007" class="node">
<title>Node7</title>
<g id="a_Node000007"><a xlink:href="classSimulation_1_1ScalarSimulation.html#ad8d40e9ca3fdb498000508921375457b" target="_top" xlink:title=" ">
<polygon fill="white" stroke="#666666" points="152.88,-123 11.62,-123 11.62,-94 152.88,-94 152.88,-123"/>
<text xml:space="preserve" text-anchor="start" x="19.62" y="-109.5" font-family="Helvetica,sans-Serif" font-size="10.00">Simulation::ScalarSimulation</text>
<text xml:space="preserve" text-anchor="middle" x="82.25" y="-99" font-family="Helvetica,sans-Serif" font-size="10.00">::operator=</text>
</a>
</g>
</g>
<!-- Node3&#45;&gt;Node7 -->
<g id="edge7_Node000003_Node000007" class="edge">
<title>Node3&#45;&gt;Node7</title>
<g id="a_edge7_Node000003_Node000007"><a xlink:title=" ">
<path fill="none" stroke="#63b8ff" d="M199.59,-137.76C180.88,-133.06 160.86,-128.02 142.8,-123.48"/>
<polygon fill="#63b8ff" stroke="#63b8ff" points="198.72,-141.15 209.27,-140.2 200.43,-134.36 198.72,-141.15"/>
</a>
</g>
</g>
<!-- Node8 -->
<g id="Node000008" class="node">
<title>Node8</title>
<g id="a_Node000008"><a xlink:href="classSimulation_1_1ScalarSimulation.html#a5608de40ed00444c146a71642f882473" target="_top" xlink:title=" ">
<polygon fill="white" stroke="#666666" points="152.88,-76 11.62,-76 11.62,-47 152.88,-47 152.88,-76"/>
<text xml:space="preserve" text-anchor="start" x="19.62" y="-62.5" font-family="Helvetica,sans-Serif" font-size="10.00">Simulation::ScalarSimulation</text>
<text xml:space="preserve" text-anchor="middle" x="82.25" y="-52" font-family="Helvetica,sans-Serif" font-size="10.00">::ScalarSimulation</text>
</a>
</g>
</g>
<!-- Node3&#45;&gt;Node8 -->
<g id="edge8_Node000003_Node000008" class="edge">
<title>Node3&#45;&gt;Node8</title>
<g id="a_edge8_Node000003_Node000008"><a xlink:title=" ">
<path fill="none" stroke="#63b8ff" d="M242.6,-133.94C222.04,-118.67 192.73,-98.66 164.5,-85.5 157.3,-82.14 149.52,-79.14 141.73,-76.48"/>
<polygon fill="#63b8ff" stroke="#63b8ff" points="240.38,-136.64 250.47,-139.87 244.59,-131.05 240.38,-136.64"/>
</a>
</g>
</g>
<!-- Node9 -->
<g id="Node000009" class="node">
<title>Node9</title>
<g id="a_Node000009"><a xlink:href="classSimulation_1_1ScalarSimulation.html#a165176fdcee47d58d6ad3471ada56136" target="_top" xlink:title=" ">
<polygon fill="white" stroke="#666666" points="152.88,-29 11.62,-29 11.62,0 152.88,0 152.88,-29"/>
<text xml:space="preserve" text-anchor="start" x="19.62" y="-15.5" font-family="Helvetica,sans-Serif" font-size="10.00">Simulation::ScalarSimulation</text>
<text xml:space="preserve" text-anchor="middle" x="82.25" y="-5" font-family="Helvetica,sans-Serif" font-size="10.00">::ScalarSimulation</text>
</a>
</g>
</g>
<!-- Node3&#45;&gt;Node9 -->
<g id="edge9_Node000003_Node000009" class="edge">
<title>Node3&#45;&gt;Node9</title>
<g id="a_edge9_Node000003_Node000009"><a xlink:title=" ">
<path fill="none" stroke="#63b8ff" d="M254.33,-131.17C235.87,-104.62 202.9,-62.67 164.5,-38.5 158.9,-34.97 152.76,-31.95 146.44,-29.35"/>
<polygon fill="#63b8ff" stroke="#63b8ff" points="251.32,-132.96 259.83,-139.27 257.11,-129.03 251.32,-132.96"/>
</a>
</g>
</g>
<!-- Node4&#45;&gt;Node4 -->
<g id="edge4_Node000004_Node000004" class="edge">
<title>Node4&#45;&gt;Node4</title>
<g id="a_edge4_Node000004_Node000004"><a xlink:title=" ">
<path fill="none" stroke="#63b8ff" d="M114.31,-265.56C109.28,-269.41 98.59,-272 82.25,-272 52.37,-272 41.4,-263.32 49.33,-254.21"/>
<polygon fill="#63b8ff" stroke="#63b8ff" points="117.79,-265.95 115.05,-255.72 110.81,-265.42 117.79,-265.95"/>
</a>
</g>
</g>
<!-- Node10&#45;&gt;Node2 -->
<g id="edge11_Node000010_Node000002" class="edge">
<title>Node10&#45;&gt;Node2</title>
<g id="a_edge11_Node000010_Node000002"><a xlink:title=" ">
<path fill="none" stroke="#63b8ff" d="M194.13,-278.99C178.97,-282.47 163.18,-286.11 148.43,-289.5"/>
<polygon fill="#63b8ff" stroke="#63b8ff" points="194.59,-282.47 203.55,-276.82 193.02,-275.65 194.59,-282.47"/>
</a>
</g>
</g>
</g>
</svg>
