<?xml version="1.0" encoding="UTF-8" standalone="no"?>
<!DOCTYPE svg PUBLIC "-//W3C//DTD SVG 1.1//EN"
 "http://www.w3.org/Graphics/SVG/1.1/DTD/svg11.dtd">
<!-- Generated by graphviz version 12.1.2 (0)
 -->
<!-- Title: Core::GlobalInitialiser::check_steps Pages: 1 -->
<!--zoomable 238 -->

<svg id="main" version="1.1" xmlns="http://www.w3.org/2000/svg" xmlns:xlink="http://www.w3.org/1999/xlink" xml:space="preserve" onload="init(evt)">

<style type="text/css"><![CDATA[
.node, .edge {opacity: 0.7;}
.node.selected, .edge.selected {opacity: 1;}
.edge:hover path { stroke: red; }
.edge:hover polygon { stroke: red; fill: red; }
]]></style>

<defs>
  <circle id="rim" cx="0" cy="0" r="7"/>
  <circle id="rim2" cx="0" cy="0" r="3.5"/>
  <g id="zoomPlus">
    <use xlink:href="#rim" fill="#404040"><set attributeName="fill" to="#808080" begin="zoomplus.mouseover" end="zoomplus.mouseout"/></use>
    <path d="M-4,0h8M0,-4v8" fill="none" stroke="white" stroke-width="1.5" pointer-events="none"/>
  </g>
  <g id="zoomMin">
    <use xlink:href="#rim" fill="#404040"><set attributeName="fill" to="#808080" begin="zoomminus.mouseover" end="zoomminus.mouseout"/></use>
    <path d="M-4,0h8" fill="none" stroke="white" stroke-width="1.5" pointer-events="none"/>
  </g>
  <g id="arrowUp" transform="translate(30 24)">
    <use xlink:href="#rim"/>
    <path pointer-events="none" fill="none" stroke="white" stroke-width="1.5" d="M0,-3.0v7 M-2.5,-0.5L0,-3.0L2.5,-0.5"/>
  </g>
  <g id="arrowRight" transform="rotate(90) translate(36 -43)">
    <use xlink:href="#rim"/>
    <path pointer-events="none" fill="none" stroke="white" stroke-width="1.5" d="M0,-3.0v7 M-2.5,-0.5L0,-3.0L2.5,-0.5"/>
  </g>
  <g id="arrowDown" transform="rotate(180) translate(-30 -48)">
    <use xlink:href="#rim"/>
    <path pointer-events="none" fill="none" stroke="white" stroke-width="1.5" d="M0,-3.0v7 M-2.5,-0.5L0,-3.0L2.5,-0.5"/>
  </g>
  <g id="arrowLeft" transform="rotate(270) translate(-36 17)">
    <use xlink:href="#rim"/>
    <path pointer-events="none" fill="none" stroke="white" stroke-width="1.5" d="M0,-3.0v7 M-2.5,-0.5L0,-3.0L2.5,-0.5"/>
  </g>
  <g id="resetDef">
    <use xlink:href="#rim2" fill="#404040"><set attributeName="fill" to="#808080" begin="reset.mouseover" end="reset.mouseout"/></use>
  </g>
</defs>
<script type="application/ecmascript">
var viewWidth = 565;
var viewHeight = 238;
var sectionId = 'dynsection-3';
</script>
<script type="application/ecmascript" xlink:href="svg.min.js"/>
<svg id="graph" class="graph">
<g id="viewport">
<title>Core::GlobalInitialiser::check_steps</title>
<!-- Node1 -->
<g id="Node000001" class="node">
<title>Node1</title>
<g id="a_Node000001"><a xlink:title="Checks the validity of specified initialization steps.">
<polygon fill="#999999" stroke="#666666" points="556.75,-120.21 447,-120.21 447,-91.21 556.75,-91.21 556.75,-120.21"/>
<text text-anchor="start" x="455" y="-106.71" font-family="Helvetica,sans-Serif" font-size="10.00">Core::GlobalInitialiser</text>
<text text-anchor="middle" x="501.88" y="-96.21" font-family="Helvetica,sans-Serif" font-size="10.00">::check_steps</text>
</a>
</g>
</g>
<!-- Node2 -->
<g id="Node000002" class="node">
<title>Node2</title>
<g id="a_Node000002"><a xlink:href="classCore_1_1GlobalInitialiser.html#a9b38d15538796d9cc115211890a6c081" target="_top" xlink:title="Initializes a Monte Carlo unit.">
<polygon fill="white" stroke="#666666" points="411,-230.21 301.25,-230.21 301.25,-201.21 411,-201.21 411,-230.21"/>
<text text-anchor="start" x="309.25" y="-216.71" font-family="Helvetica,sans-Serif" font-size="10.00">Core::GlobalInitialiser</text>
<text text-anchor="middle" x="356.12" y="-206.21" font-family="Helvetica,sans-Serif" font-size="10.00">::init_monte_carlo</text>
</a>
</g>
</g>
<!-- Node1&#45;&gt;Node2 -->
<g id="edge1_Node000001_Node000002" class="edge">
<title>Node1&#45;&gt;Node2</title>
<g id="a_edge1_Node000001_Node000002"><a xlink:title=" ">
<path fill="none" stroke="#63b8ff" d="M478.66,-128.52C461.21,-145.72 435.79,-169.24 411,-186.71 403.79,-191.79 395.59,-196.62 387.81,-200.83"/>
<polygon fill="#63b8ff" stroke="#63b8ff" points="480.87,-131.25 485.47,-121.71 475.92,-126.3 480.87,-131.25"/>
</a>
</g>
</g>
<!-- Node3 -->
<g id="Node000003" class="node">
<title>Node3</title>
<g id="a_Node000003"><a xlink:href="classCore_1_1GlobalInitialiser.html#a5e218058a79920784be9d299856e867b" target="_top" xlink:title="Initializes a simulation unit.">
<polygon fill="white" stroke="#666666" points="265.25,-165.21 155.5,-165.21 155.5,-136.21 265.25,-136.21 265.25,-165.21"/>
<text text-anchor="start" x="163.5" y="-151.71" font-family="Helvetica,sans-Serif" font-size="10.00">Core::GlobalInitialiser</text>
<text text-anchor="middle" x="210.38" y="-141.21" font-family="Helvetica,sans-Serif" font-size="10.00">::init_simulation</text>
</a>
</g>
</g>
<!-- Node1&#45;&gt;Node3 -->
<g id="edge7_Node000001_Node000003" class="edge">
<title>Node1&#45;&gt;Node3</title>
<g id="a_edge7_Node000001_Node000003"><a xlink:title=" ">
<path fill="none" stroke="#63b8ff" d="M471.03,-126.45C454.22,-136.85 432.37,-148.36 411,-153.71 362.92,-165.74 306.26,-163.4 265.62,-158.98"/>
<polygon fill="#63b8ff" stroke="#63b8ff" points="472.5,-129.66 479.02,-121.32 468.72,-123.77 472.5,-129.66"/>
</a>
</g>
</g>
<!-- Node5 -->
<g id="Node000005" class="node">
<title>Node5</title>
<g id="a_Node000005"><a xlink:href="classCore_1_1GlobalInitialiser.html#aa84a61b25f475380b38306232e25aff6" target="_top" xlink:title="Initializes a scalar component of the simulation.">
<polygon fill="white" stroke="#666666" points="411,-144.21 301.25,-144.21 301.25,-115.21 411,-115.21 411,-144.21"/>
<text text-anchor="start" x="309.25" y="-130.71" font-family="Helvetica,sans-Serif" font-size="10.00">Core::GlobalInitialiser</text>
<text text-anchor="middle" x="356.12" y="-120.21" font-family="Helvetica,sans-Serif" font-size="10.00">::init_scalar</text>
</a>
</g>
</g>
<!-- Node1&#45;&gt;Node5 -->
<g id="edge5_Node000001_Node000005" class="edge">
<title>Node1&#45;&gt;Node5</title>
<g id="a_edge5_Node000001_Node000005"><a xlink:title=" ">
<path fill="none" stroke="#63b8ff" d="M435.22,-116.67C427.14,-118.02 418.95,-119.39 411.07,-120.7"/>
<polygon fill="#63b8ff" stroke="#63b8ff" points="435.75,-120.13 445.04,-115.03 434.6,-113.23 435.75,-120.13"/>
</a>
</g>
</g>
<!-- Node6 -->
<g id="Node000006" class="node">
<title>Node6</title>
<g id="a_Node000006"><a xlink:href="classCore_1_1GlobalInitialiser.html#afa96dd38c29284ca8a70bdb67017c70b" target="_top" xlink:title="Initializes a simulation unit with specified parameters.">
<polygon fill="white" stroke="#666666" points="411,-97.21 301.25,-97.21 301.25,-68.21 411,-68.21 411,-97.21"/>
<text text-anchor="start" x="309.25" y="-83.71" font-family="Helvetica,sans-Serif" font-size="10.00">Core::GlobalInitialiser</text>
<text text-anchor="middle" x="356.12" y="-73.21" font-family="Helvetica,sans-Serif" font-size="10.00">::init_simulation</text>
</a>
</g>
</g>
<!-- Node1&#45;&gt;Node6 -->
<g id="edge8_Node000001_Node000006" class="edge">
<title>Node1&#45;&gt;Node6</title>
<g id="a_edge8_Node000001_Node000006"><a xlink:title=" ">
<path fill="none" stroke="#63b8ff" d="M435.22,-95.2C427.14,-93.91 418.95,-92.6 411.07,-91.34"/>
<polygon fill="#63b8ff" stroke="#63b8ff" points="434.61,-98.65 445.03,-96.77 435.71,-91.74 434.61,-98.65"/>
</a>
</g>
</g>
<!-- Node7 -->
<g id="Node000007" class="node">
<title>Node7</title>
<g id="a_Node000007"><a xlink:href="classCore_1_1GlobalInitialiser.html#a212a55abe2b9cb558932ba82e4cf6dbf" target="_top" xlink:title="Initializes the simulation state.">
<polygon fill="white" stroke="#666666" points="411,-50.21 301.25,-50.21 301.25,-21.21 411,-21.21 411,-50.21"/>
<text text-anchor="start" x="309.25" y="-36.71" font-family="Helvetica,sans-Serif" font-size="10.00">Core::GlobalInitialiser</text>
<text text-anchor="middle" x="356.12" y="-26.21" font-family="Helvetica,sans-Serif" font-size="10.00">::init_state</text>
</a>
</g>
</g>
<!-- Node1&#45;&gt;Node7 -->
<g id="edge9_Node000001_Node000007" class="edge">
<title>Node1&#45;&gt;Node7</title>
<g id="a_edge9_Node000001_Node000007"><a xlink:title=" ">
<path fill="none" stroke="#63b8ff" d="M463.56,-85.36C447.53,-76.84 428.49,-67 411,-58.71 405.3,-56.01 399.2,-53.27 393.23,-50.66"/>
<polygon fill="#63b8ff" stroke="#63b8ff" points="461.82,-88.4 472.29,-90.03 465.12,-82.23 461.82,-88.4"/>
</a>
</g>
</g>
<!-- Node8 -->
<g id="Node000008" class="node">
<title>Node8</title>
<g id="a_Node000008"><a xlink:href="classCore_1_1GlobalInitialiser.html#a4fa32007b34a9e448be11ebd7d5e695f" target="_top" xlink:title="Initializes a transitioner with the provided flow iterator.">
<polygon fill="white" stroke="#666666" points="265.25,-50.21 155.5,-50.21 155.5,-21.21 265.25,-21.21 265.25,-50.21"/>
<text text-anchor="start" x="163.5" y="-36.71" font-family="Helvetica,sans-Serif" font-size="10.00">Core::GlobalInitialiser</text>
<text text-anchor="middle" x="210.38" y="-26.21" font-family="Helvetica,sans-Serif" font-size="10.00">::init_transitionner</text>
</a>
</g>
</g>
<!-- Node1&#45;&gt;Node8 -->
<g id="edge12_Node000001_Node000008" class="edge">
<title>Node1&#45;&gt;Node8</title>
<g id="a_edge12_Node000001_Node000008"><a xlink:title=" ">
<path fill="none" stroke="#63b8ff" d="M486.03,-81.33C470.53,-58.47 443.92,-25.78 411,-11.71 357.4,11.2 288.78,-5.99 247.55,-20.72"/>
<polygon fill="#63b8ff" stroke="#63b8ff" points="482.94,-83 491.33,-89.47 488.8,-79.18 482.94,-83"/>
</a>
</g>
</g>
<!-- Node2&#45;&gt;Node3 -->
<g id="edge2_Node000002_Node000003" class="edge">
<title>Node2&#45;&gt;Node3</title>
<g id="a_edge2_Node000002_Node000003"><a xlink:title=" ">
<path fill="none" stroke="#63b8ff" d="M311.86,-196.15C290.14,-186.33 264.26,-174.62 244.2,-165.55"/>
<polygon fill="#63b8ff" stroke="#63b8ff" points="310.21,-199.24 320.77,-200.17 313.1,-192.86 310.21,-199.24"/>
</a>
</g>
</g>
<!-- Node3&#45;&gt;Node3 -->
<g id="edge4_Node000003_Node000003" class="edge">
<title>Node3&#45;&gt;Node3</title>
<g id="a_edge4_Node000003_Node000003"><a xlink:title=" ">
<path fill="none" stroke="#63b8ff" d="M235.11,-176.77C231.23,-180.61 222.98,-183.21 210.38,-183.21 187.32,-183.21 178.85,-174.53 184.98,-165.42"/>
<polygon fill="#63b8ff" stroke="#63b8ff" points="238.6,-177.11 235.69,-166.93 231.61,-176.71 238.6,-177.11"/>
</a>
</g>
</g>
<!-- Node4 -->
<g id="Node000004" class="node">
<title>Node4</title>
<g id="a_Node000004"><a xlink:href="structApi_1_1SimulationInstance.html#ae9bdd54076170f50eadcb7966d64c19d" target="_top" xlink:title="Apply the simulation configuration and prepare for execution.">
<polygon fill="white" stroke="#666666" points="119.5,-97.21 0,-97.21 0,-68.21 119.5,-68.21 119.5,-97.21"/>
<text text-anchor="start" x="8" y="-83.71" font-family="Helvetica,sans-Serif" font-size="10.00">Api::SimulationInstance</text>
<text text-anchor="middle" x="59.75" y="-73.21" font-family="Helvetica,sans-Serif" font-size="10.00">::apply</text>
</a>
</g>
</g>
<!-- Node3&#45;&gt;Node4 -->
<g id="edge3_Node000003_Node000004" class="edge">
<title>Node3&#45;&gt;Node4</title>
<g id="a_edge3_Node000003_Node000004"><a xlink:title=" ">
<path fill="none" stroke="#63b8ff" d="M166.44,-131.07C143.13,-120.4 114.76,-107.42 93.29,-97.6"/>
<polygon fill="#63b8ff" stroke="#63b8ff" points="164.83,-134.18 175.38,-135.16 167.75,-127.81 164.83,-134.18"/>
</a>
</g>
</g>
<!-- Node5&#45;&gt;Node3 -->
<g id="edge6_Node000005_Node000003" class="edge">
<title>Node5&#45;&gt;Node3</title>
<g id="a_edge6_Node000005_Node000003"><a xlink:title=" ">
<path fill="none" stroke="#63b8ff" d="M289.47,-139.3C281.39,-140.48 273.2,-141.68 265.32,-142.83"/>
<polygon fill="#63b8ff" stroke="#63b8ff" points="289.89,-142.78 299.28,-137.87 288.88,-135.85 289.89,-142.78"/>
</a>
</g>
</g>
<!-- Node7&#45;&gt;Node8 -->
<g id="edge10_Node000007_Node000008" class="edge">
<title>Node7&#45;&gt;Node8</title>
<g id="a_edge10_Node000007_Node000008"><a xlink:title=" ">
<path fill="none" stroke="#63b8ff" d="M289.47,-35.71C281.39,-35.71 273.2,-35.71 265.32,-35.71"/>
<polygon fill="#63b8ff" stroke="#63b8ff" points="289.27,-39.21 299.27,-35.71 289.27,-32.21 289.27,-39.21"/>
</a>
</g>
</g>
<!-- Node8&#45;&gt;Node4 -->
<g id="edge11_Node000008_Node000004" class="edge">
<title>Node8&#45;&gt;Node4</title>
<g id="a_edge11_Node000008_Node000004"><a xlink:title=" ">
<path fill="none" stroke="#63b8ff" d="M151.53,-54C137.11,-58.56 121.82,-63.4 107.98,-67.77"/>
<polygon fill="#63b8ff" stroke="#63b8ff" points="152.43,-57.39 160.91,-51.04 150.32,-50.71 152.43,-57.39"/>
</a>
</g>
</g>
</g>
</svg>

<g id="navigator" transform="translate(0 0)" fill="#404254">
  <rect fill="#f2f5e9" fill-opacity="0.5" stroke="#606060" stroke-width=".5" x="0" y="0" width="60" height="60"/>
  <use id="zoomplus" xlink:href="#zoomPlus" x="17" y="9" onmousedown="handleZoom(evt,'in')"/>
  <use id="zoomminus" xlink:href="#zoomMin" x="42" y="9" onmousedown="handleZoom(evt,'out')"/>
  <use id="reset" xlink:href="#resetDef" x="30" y="36" onmousedown="handleReset()"/>
   <use id="arrowup" xlink:href="#arrowUp" x="0" y="0" onmousedown="handlePan(0,-1)"/>
  <use id="arrowright" xlink:href="#arrowRight" x="0" y="0" onmousedown="handlePan(1,0)"/>
  <use id="arrowdown" xlink:href="#arrowDown" x="0" y="0" onmousedown="handlePan(0,1)"/>
  <use id="arrowleft" xlink:href="#arrowLeft" x="0" y="0" onmousedown="handlePan(-1,0)"/>
</g>
<svg viewBox="0 0 15 15" width="100%" height="30px" preserveAspectRatio="xMaxYMin meet">
 <g id="arrow_out" transform="scale(0.3 0.3)">
  <a xlink:href="classCore_1_1GlobalInitialiser_a5134f9db1f59d9124d5fdec88e3e99f3_icgraph_org.svg" target="_base">
   <rect id="button" ry="5" rx="5" y="6" x="6" height="38" width="38"
        fill="#f2f5e9" fill-opacity="0.5" stroke="#606060" stroke-width="1.0"/>
   <path id="arrow"
     d="M 11.500037,31.436501 C 11.940474,20.09759 22.043105,11.32322 32.158766,21.979434 L 37.068811,17.246167 C 37.068811,17.246167 37.088388,32 37.088388,32 L 22.160133,31.978069 C 22.160133,31.978069 26.997745,27.140456 26.997745,27.140456 C 18.528582,18.264221 13.291696,25.230495 11.500037,31.436501 z"
     style="fill:#404040;"/>
  </a>
 </g>
</svg>

<style type='text/css'>
<![CDATA[
[data-mouse-over-selected='false'] { opacity: 0.7; }
[data-mouse-over-selected='true']  { opacity: 1.0; }
]]>
</style>
<script type="application/ecmascript"><![CDATA[
document.addEventListener('DOMContentLoaded', (event) => {
  highlightEdges();
  highlightAdjacentNodes();
});
]]></script>
</svg>
