<?xml version="1.0" encoding="UTF-8" standalone="no"?>
<!DOCTYPE svg PUBLIC "-//W3C//DTD SVG 1.1//EN"
 "http://www.w3.org/Graphics/SVG/1.1/DTD/svg11.dtd">
<!-- Generated by graphviz version 14.0.1 (0)
 -->
<!-- Title: Simulation::ScalarSimulation::n_col Pages: 1 -->
<svg width="527pt" height="280pt"
 viewBox="0.00 0.00 527.00 280.00" xmlns="http://www.w3.org/2000/svg" xmlns:xlink="http://www.w3.org/1999/xlink">
<g id="graph0" class="graph" transform="scale(1 1) rotate(0) translate(4 276)">
<title>Simulation::ScalarSimulation::n_col</title>
<!-- Node1 -->
<g id="Node000001" class="node">
<title>Node1</title>
<g id="a_Node000001"><a xlink:title=" ">
<polygon fill="#999999" stroke="#666666" points="519,-122 377.75,-122 377.75,-93 519,-93 519,-122"/>
<text xml:space="preserve" text-anchor="start" x="385.75" y="-108.5" font-family="Helvetica,sans-Serif" font-size="10.00">Simulation::ScalarSimulation</text>
<text xml:space="preserve" text-anchor="middle" x="448.38" y="-98" font-family="Helvetica,sans-Serif" font-size="10.00">::n_col</text>
</a>
</g>
</g>
<!-- Node2 -->
<g id="Node000002" class="node">
<title>Node2</title>
<g id="a_Node000002"><a xlink:href="classSimulation_1_1ScalarSimulation.html#aa72818956090d90be703c0ba0ed932ee" target="_top" xlink:title=" ">
<polygon fill="white" stroke="#666666" points="341.75,-146 200.5,-146 200.5,-117 341.75,-117 341.75,-146"/>
<text xml:space="preserve" text-anchor="start" x="208.5" y="-132.5" font-family="Helvetica,sans-Serif" font-size="10.00">Simulation::ScalarSimulation</text>
<text xml:space="preserve" text-anchor="middle" x="271.12" y="-122" font-family="Helvetica,sans-Serif" font-size="10.00">::ScalarSimulation</text>
</a>
</g>
</g>
<!-- Node1&#45;&gt;Node2 -->
<g id="edge1_Node000001_Node000002" class="edge">
<title>Node1&#45;&gt;Node2</title>
<g id="a_edge1_Node000001_Node000002"><a xlink:title=" ">
<path fill="none" stroke="#63b8ff" d="M366.07,-118.63C358.04,-119.73 349.94,-120.84 342.03,-121.93"/>
<polygon fill="#63b8ff" stroke="#63b8ff" points="366.42,-122.12 375.86,-117.29 365.47,-115.18 366.42,-122.12"/>
</a>
</g>
</g>
<!-- Node9 -->
<g id="Node000009" class="node">
<title>Node9</title>
<g id="a_Node000009"><a xlink:href="classSimulation_1_1ScalarSimulation.html#a45bff3c267cd20371ee730cb07ba4a37" target="_top" xlink:title=" ">
<polygon fill="white" stroke="#666666" points="341.75,-99 200.5,-99 200.5,-70 341.75,-70 341.75,-99"/>
<text xml:space="preserve" text-anchor="start" x="208.5" y="-85.5" font-family="Helvetica,sans-Serif" font-size="10.00">Simulation::ScalarSimulation</text>
<text xml:space="preserve" text-anchor="middle" x="271.12" y="-75" font-family="Helvetica,sans-Serif" font-size="10.00">::setVolumes</text>
</a>
</g>
</g>
<!-- Node1&#45;&gt;Node9 -->
<g id="edge9_Node000001_Node000009" class="edge">
<title>Node1&#45;&gt;Node9</title>
<g id="a_edge9_Node000001_Node000009"><a xlink:title=" ">
<path fill="none" stroke="#63b8ff" d="M366.07,-96.83C358.04,-95.78 349.94,-94.71 342.03,-93.67"/>
<polygon fill="#63b8ff" stroke="#63b8ff" points="365.48,-100.28 375.86,-98.11 366.4,-93.34 365.48,-100.28"/>
</a>
</g>
</g>
<!-- Node3 -->
<g id="Node000003" class="node">
<title>Node3</title>
<g id="a_Node000003"><a xlink:href="classSimulation_1_1ScalarSimulation.html#ae2625817dffc02083227be2b82dfe534" target="_top" xlink:title=" ">
<polygon fill="white" stroke="#666666" points="152.88,-254 11.62,-254 11.62,-225 152.88,-225 152.88,-254"/>
<text xml:space="preserve" text-anchor="start" x="19.62" y="-240.5" font-family="Helvetica,sans-Serif" font-size="10.00">Simulation::ScalarSimulation</text>
<text xml:space="preserve" text-anchor="middle" x="82.25" y="-230" font-family="Helvetica,sans-Serif" font-size="10.00">::getConcentrationArray</text>
</a>
</g>
</g>
<!-- Node2&#45;&gt;Node3 -->
<g id="edge2_Node000002_Node000003" class="edge">
<title>Node2&#45;&gt;Node3</title>
<g id="a_edge2_Node000002_Node000003"><a xlink:title=" ">
<path fill="none" stroke="#63b8ff" d="M247.11,-154.18C226.87,-172.99 195.83,-199.21 164.5,-215.5 157.84,-218.96 150.62,-222 143.31,-224.64"/>
<polygon fill="#63b8ff" stroke="#63b8ff" points="249.41,-156.83 254.26,-147.41 244.59,-151.75 249.41,-156.83"/>
</a>
</g>
</g>
<!-- Node4 -->
<g id="Node000004" class="node">
<title>Node4</title>
<g id="a_Node000004"><a xlink:href="namespaceSimulation.html#ae5bb8948e2a0bb4f4aef277baf4c0dff" target="_top" xlink:title=" ">
<polygon fill="white" stroke="#666666" points="164.5,-206.75 0,-206.75 0,-188.25 164.5,-188.25 164.5,-206.75"/>
<text xml:space="preserve" text-anchor="middle" x="82.25" y="-193.25" font-family="Helvetica,sans-Serif" font-size="10.00">Simulation::makeScalarSimulation</text>
</a>
</g>
</g>
<!-- Node2&#45;&gt;Node4 -->
<g id="edge4_Node000002_Node000004" class="edge">
<title>Node2&#45;&gt;Node4</title>
<g id="a_edge4_Node000002_Node000004"><a xlink:title=" ">
<path fill="none" stroke="#63b8ff" d="M231.54,-151.38C211.87,-160.91 187.33,-171.88 164.5,-179.5 155.04,-182.66 144.78,-185.42 134.84,-187.77"/>
<polygon fill="#63b8ff" stroke="#63b8ff" points="232.85,-154.64 240.28,-147.08 229.76,-148.35 232.85,-154.64"/>
</a>
</g>
</g>
<!-- Node5 -->
<g id="Node000005" class="node">
<title>Node5</title>
<g id="a_Node000005"><a xlink:href="classSimulation_1_1ScalarSimulation.html#a1b2df58cd259dcfc833a28fb41523483" target="_top" xlink:title=" ">
<polygon fill="white" stroke="#666666" points="152.88,-170 11.62,-170 11.62,-141 152.88,-141 152.88,-170"/>
<text xml:space="preserve" text-anchor="start" x="19.62" y="-156.5" font-family="Helvetica,sans-Serif" font-size="10.00">Simulation::ScalarSimulation</text>
<text xml:space="preserve" text-anchor="middle" x="82.25" y="-146" font-family="Helvetica,sans-Serif" font-size="10.00">::operator=</text>
</a>
</g>
</g>
<!-- Node2&#45;&gt;Node5 -->
<g id="edge5_Node000002_Node000005" class="edge">
<title>Node2&#45;&gt;Node5</title>
<g id="a_edge5_Node000002_Node000005"><a xlink:title=" ">
<path fill="none" stroke="#63b8ff" d="M188.74,-141.95C176.88,-143.48 164.75,-145.03 153.14,-146.52"/>
<polygon fill="#63b8ff" stroke="#63b8ff" points="189.03,-145.44 198.51,-140.7 188.14,-138.5 189.03,-145.44"/>
</a>
</g>
</g>
<!-- Node6 -->
<g id="Node000006" class="node">
<title>Node6</title>
<g id="a_Node000006"><a xlink:href="classSimulation_1_1ScalarSimulation.html#ad8d40e9ca3fdb498000508921375457b" target="_top" xlink:title=" ">
<polygon fill="white" stroke="#666666" points="152.88,-123 11.62,-123 11.62,-94 152.88,-94 152.88,-123"/>
<text xml:space="preserve" text-anchor="start" x="19.62" y="-109.5" font-family="Helvetica,sans-Serif" font-size="10.00">Simulation::ScalarSimulation</text>
<text xml:space="preserve" text-anchor="middle" x="82.25" y="-99" font-family="Helvetica,sans-Serif" font-size="10.00">::operator=</text>
</a>
</g>
</g>
<!-- Node2&#45;&gt;Node6 -->
<g id="edge6_Node000002_Node000006" class="edge">
<title>Node2&#45;&gt;Node6</title>
<g id="a_edge6_Node000002_Node000006"><a xlink:title=" ">
<path fill="none" stroke="#63b8ff" d="M188.74,-121.48C176.88,-120.02 164.75,-118.53 153.14,-117.1"/>
<polygon fill="#63b8ff" stroke="#63b8ff" points="188.15,-124.94 198.51,-122.69 189.01,-117.99 188.15,-124.94"/>
</a>
</g>
</g>
<!-- Node7 -->
<g id="Node000007" class="node">
<title>Node7</title>
<g id="a_Node000007"><a xlink:href="classSimulation_1_1ScalarSimulation.html#a5608de40ed00444c146a71642f882473" target="_top" xlink:title=" ">
<polygon fill="white" stroke="#666666" points="152.88,-76 11.62,-76 11.62,-47 152.88,-47 152.88,-76"/>
<text xml:space="preserve" text-anchor="start" x="19.62" y="-62.5" font-family="Helvetica,sans-Serif" font-size="10.00">Simulation::ScalarSimulation</text>
<text xml:space="preserve" text-anchor="middle" x="82.25" y="-52" font-family="Helvetica,sans-Serif" font-size="10.00">::ScalarSimulation</text>
</a>
</g>
</g>
<!-- Node2&#45;&gt;Node7 -->
<g id="edge7_Node000002_Node000007" class="edge">
<title>Node2&#45;&gt;Node7</title>
<g id="a_edge7_Node000002_Node000007"><a xlink:title=" ">
<path fill="none" stroke="#63b8ff" d="M209.03,-112.3C206.12,-111.08 203.26,-109.81 200.5,-108.5 183.35,-100.35 181.78,-93.38 164.5,-85.5 157.14,-82.14 149.19,-79.12 141.25,-76.44"/>
<polygon fill="#63b8ff" stroke="#63b8ff" points="207.72,-115.55 218.3,-115.96 210.28,-109.04 207.72,-115.55"/>
</a>
</g>
</g>
<!-- Node8 -->
<g id="Node000008" class="node">
<title>Node8</title>
<g id="a_Node000008"><a xlink:href="classSimulation_1_1ScalarSimulation.html#a165176fdcee47d58d6ad3471ada56136" target="_top" xlink:title=" ">
<polygon fill="white" stroke="#666666" points="152.88,-29 11.62,-29 11.62,0 152.88,0 152.88,-29"/>
<text xml:space="preserve" text-anchor="start" x="19.62" y="-15.5" font-family="Helvetica,sans-Serif" font-size="10.00">Simulation::ScalarSimulation</text>
<text xml:space="preserve" text-anchor="middle" x="82.25" y="-5" font-family="Helvetica,sans-Serif" font-size="10.00">::ScalarSimulation</text>
</a>
</g>
</g>
<!-- Node2&#45;&gt;Node8 -->
<g id="edge8_Node000002_Node000008" class="edge">
<title>Node2&#45;&gt;Node8</title>
<g id="a_edge8_Node000002_Node000008"><a xlink:title=" ">
<path fill="none" stroke="#63b8ff" d="M202.91,-110.45C202.09,-109.82 201.28,-109.17 200.5,-108.5 173.91,-85.76 191.45,-60.81 164.5,-38.5 160.19,-34.94 155.38,-31.9 150.29,-29.32"/>
<polygon fill="#63b8ff" stroke="#63b8ff" points="200.73,-113.21 211.03,-115.7 204.53,-107.33 200.73,-113.21"/>
</a>
</g>
</g>
<!-- Node3&#45;&gt;Node3 -->
<g id="edge3_Node000003_Node000003" class="edge">
<title>Node3&#45;&gt;Node3</title>
<g id="a_edge3_Node000003_Node000003"><a xlink:title=" ">
<path fill="none" stroke="#63b8ff" d="M114.31,-265.56C109.28,-269.41 98.59,-272 82.25,-272 52.37,-272 41.4,-263.32 49.33,-254.21"/>
<polygon fill="#63b8ff" stroke="#63b8ff" points="117.79,-265.95 115.05,-255.72 110.81,-265.42 117.79,-265.95"/>
</a>
</g>
</g>
</g>
</svg>
