<?xml version="1.0" encoding="UTF-8" standalone="no"?>
<!DOCTYPE svg PUBLIC "-//W3C//DTD SVG 1.1//EN"
 "http://www.w3.org/Graphics/SVG/1.1/DTD/svg11.dtd">
<!-- Generated by graphviz version 14.0.1 (0)
 -->
<!-- Title: Core::GlobalInitialiser::validate_step Pages: 1 -->
<svg width="409pt" height="346pt"
 viewBox="0.00 0.00 409.00 346.00" xmlns="http://www.w3.org/2000/svg" xmlns:xlink="http://www.w3.org/1999/xlink">
<g id="graph0" class="graph" transform="scale(1 1) rotate(0) translate(4 342.21)">
<title>Core::GlobalInitialiser::validate_step</title>
<!-- Node1 -->
<g id="Node000001" class="node">
<title>Node1</title>
<g id="a_Node000001"><a xlink:title="Validates the specified initialization step and any additional steps.">
<polygon fill="#999999" stroke="#666666" points="401.25,-173.21 291.5,-173.21 291.5,-144.21 401.25,-144.21 401.25,-173.21"/>
<text xml:space="preserve" text-anchor="start" x="299.5" y="-159.71" font-family="Helvetica,sans-Serif" font-size="10.00">Core::GlobalInitialiser</text>
<text xml:space="preserve" text-anchor="middle" x="346.38" y="-149.21" font-family="Helvetica,sans-Serif" font-size="10.00">::validate_step</text>
</a>
</g>
</g>
<!-- Node2 -->
<g id="Node000002" class="node">
<title>Node2</title>
<g id="a_Node000002"><a xlink:href="classCore_1_1GlobalInitialiser.html#aefbbc9e413134e0e080df2218316fe63" target="_top" xlink:title="Initializes a simulation feed.">
<polygon fill="white" stroke="#666666" points="255.5,-338.21 145.75,-338.21 145.75,-309.21 255.5,-309.21 255.5,-338.21"/>
<text xml:space="preserve" text-anchor="start" x="153.75" y="-324.71" font-family="Helvetica,sans-Serif" font-size="10.00">Core::GlobalInitialiser</text>
<text xml:space="preserve" text-anchor="middle" x="200.62" y="-314.21" font-family="Helvetica,sans-Serif" font-size="10.00">::init_feed</text>
</a>
</g>
</g>
<!-- Node1&#45;&gt;Node2 -->
<g id="edge1_Node000001_Node000002" class="edge">
<title>Node1&#45;&gt;Node2</title>
<g id="a_edge1_Node000001_Node000002"><a xlink:title=" ">
<path fill="none" stroke="#63b8ff" d="M335.01,-184.1C321.12,-215.34 293.69,-268.21 255.5,-300.71 251.94,-303.74 247.92,-306.43 243.71,-308.79"/>
<polygon fill="#63b8ff" stroke="#63b8ff" points="338.18,-185.61 338.92,-175.04 331.75,-182.84 338.18,-185.61"/>
</a>
</g>
</g>
<!-- Node3 -->
<g id="Node000003" class="node">
<title>Node3</title>
<g id="a_Node000003"><a xlink:href="classCore_1_1GlobalInitialiser.html#a9b38d15538796d9cc115211890a6c081" target="_top" xlink:title="Initializes a Monte Carlo unit.">
<polygon fill="white" stroke="#666666" points="255.5,-291.21 145.75,-291.21 145.75,-262.21 255.5,-262.21 255.5,-291.21"/>
<text xml:space="preserve" text-anchor="start" x="153.75" y="-277.71" font-family="Helvetica,sans-Serif" font-size="10.00">Core::GlobalInitialiser</text>
<text xml:space="preserve" text-anchor="middle" x="200.62" y="-267.21" font-family="Helvetica,sans-Serif" font-size="10.00">::init_monte_carlo</text>
</a>
</g>
</g>
<!-- Node1&#45;&gt;Node3 -->
<g id="edge2_Node000001_Node000003" class="edge">
<title>Node1&#45;&gt;Node3</title>
<g id="a_edge2_Node000001_Node000003"><a xlink:title=" ">
<path fill="none" stroke="#63b8ff" d="M327.44,-182.63C310.71,-203.61 284.1,-233.8 255.5,-253.71 251.24,-256.68 246.55,-259.37 241.75,-261.79"/>
<polygon fill="#63b8ff" stroke="#63b8ff" points="330.08,-184.94 333.47,-174.9 324.56,-180.63 330.08,-184.94"/>
</a>
</g>
</g>
<!-- Node5 -->
<g id="Node000005" class="node">
<title>Node5</title>
<g id="a_Node000005"><a xlink:href="classCore_1_1GlobalInitialiser.html#adf72113e43a445c6afdb993c0fadeeca" target="_top" xlink:title=" ">
<polygon fill="white" stroke="#666666" points="255.5,-244.21 145.75,-244.21 145.75,-215.21 255.5,-215.21 255.5,-244.21"/>
<text xml:space="preserve" text-anchor="start" x="153.75" y="-230.71" font-family="Helvetica,sans-Serif" font-size="10.00">Core::GlobalInitialiser</text>
<text xml:space="preserve" text-anchor="middle" x="200.62" y="-220.21" font-family="Helvetica,sans-Serif" font-size="10.00">::init_mtr_model</text>
</a>
</g>
</g>
<!-- Node1&#45;&gt;Node5 -->
<g id="edge5_Node000001_Node000005" class="edge">
<title>Node1&#45;&gt;Node5</title>
<g id="a_edge5_Node000001_Node000005"><a xlink:title=" ">
<path fill="none" stroke="#63b8ff" d="M309.28,-178.91C293.02,-187.78 273.46,-198.1 255.5,-206.71 249.81,-209.44 243.72,-212.19 237.75,-214.8"/>
<polygon fill="#63b8ff" stroke="#63b8ff" points="310.54,-182.22 317.62,-174.34 307.17,-176.08 310.54,-182.22"/>
</a>
</g>
</g>
<!-- Node6 -->
<g id="Node000006" class="node">
<title>Node6</title>
<g id="a_Node000006"><a xlink:href="classCore_1_1GlobalInitialiser.html#aa84a61b25f475380b38306232e25aff6" target="_top" xlink:title="Initializes a scalar component of the simulation.">
<polygon fill="white" stroke="#666666" points="255.5,-197.21 145.75,-197.21 145.75,-168.21 255.5,-168.21 255.5,-197.21"/>
<text xml:space="preserve" text-anchor="start" x="153.75" y="-183.71" font-family="Helvetica,sans-Serif" font-size="10.00">Core::GlobalInitialiser</text>
<text xml:space="preserve" text-anchor="middle" x="200.62" y="-173.21" font-family="Helvetica,sans-Serif" font-size="10.00">::init_scalar</text>
</a>
</g>
</g>
<!-- Node1&#45;&gt;Node6 -->
<g id="edge6_Node000001_Node000006" class="edge">
<title>Node1&#45;&gt;Node6</title>
<g id="a_edge6_Node000001_Node000006"><a xlink:title=" ">
<path fill="none" stroke="#63b8ff" d="M279.72,-169.67C271.64,-171.02 263.45,-172.39 255.57,-173.71"/>
<polygon fill="#63b8ff" stroke="#63b8ff" points="280.25,-173.13 289.54,-168.03 279.1,-166.23 280.25,-173.13"/>
</a>
</g>
</g>
<!-- Node7 -->
<g id="Node000007" class="node">
<title>Node7</title>
<g id="a_Node000007"><a xlink:href="classCore_1_1GlobalInitialiser.html#a6c679d3dc5f4ee98dfd9ed4c35092f1c" target="_top" xlink:title=" ">
<polygon fill="white" stroke="#666666" points="255.5,-150.21 145.75,-150.21 145.75,-121.21 255.5,-121.21 255.5,-150.21"/>
<text xml:space="preserve" text-anchor="start" x="153.75" y="-136.71" font-family="Helvetica,sans-Serif" font-size="10.00">Core::GlobalInitialiser</text>
<text xml:space="preserve" text-anchor="middle" x="200.62" y="-126.21" font-family="Helvetica,sans-Serif" font-size="10.00">::init_scalar</text>
</a>
</g>
</g>
<!-- Node1&#45;&gt;Node7 -->
<g id="edge8_Node000001_Node000007" class="edge">
<title>Node1&#45;&gt;Node7</title>
<g id="a_edge8_Node000001_Node000007"><a xlink:title=" ">
<path fill="none" stroke="#63b8ff" d="M279.72,-148.21C271.64,-146.91 263.45,-145.6 255.57,-144.34"/>
<polygon fill="#63b8ff" stroke="#63b8ff" points="279.11,-151.65 289.53,-149.78 280.21,-144.74 279.11,-151.65"/>
</a>
</g>
</g>
<!-- Node8 -->
<g id="Node000008" class="node">
<title>Node8</title>
<g id="a_Node000008"><a xlink:href="classCore_1_1GlobalInitialiser.html#a696d0507fb8e2497d05a1fc84302c6dd" target="_top" xlink:title="Initializes a simulation unit with specified parameters.">
<polygon fill="white" stroke="#666666" points="255.5,-103.21 145.75,-103.21 145.75,-74.21 255.5,-74.21 255.5,-103.21"/>
<text xml:space="preserve" text-anchor="start" x="153.75" y="-89.71" font-family="Helvetica,sans-Serif" font-size="10.00">Core::GlobalInitialiser</text>
<text xml:space="preserve" text-anchor="middle" x="200.62" y="-79.21" font-family="Helvetica,sans-Serif" font-size="10.00">::init_simulation</text>
</a>
</g>
</g>
<!-- Node1&#45;&gt;Node8 -->
<g id="edge9_Node000001_Node000008" class="edge">
<title>Node1&#45;&gt;Node8</title>
<g id="a_edge9_Node000001_Node000008"><a xlink:title=" ">
<path fill="none" stroke="#63b8ff" d="M307.24,-138.62C291.34,-130.39 272.62,-120.9 255.5,-112.71 249.22,-109.71 242.47,-106.61 235.95,-103.67"/>
<polygon fill="#63b8ff" stroke="#63b8ff" points="305.41,-141.61 315.89,-143.12 308.63,-135.4 305.41,-141.61"/>
</a>
</g>
</g>
<!-- Node9 -->
<g id="Node000009" class="node">
<title>Node9</title>
<g id="a_Node000009"><a xlink:href="classCore_1_1GlobalInitialiser.html#a97eff5566ced6ba6449eb532f0babadc" target="_top" xlink:title="Initializes a flow iterator.">
<polygon fill="white" stroke="#666666" points="255.5,-56.21 145.75,-56.21 145.75,-27.21 255.5,-27.21 255.5,-56.21"/>
<text xml:space="preserve" text-anchor="start" x="153.75" y="-42.71" font-family="Helvetica,sans-Serif" font-size="10.00">Core::GlobalInitialiser</text>
<text xml:space="preserve" text-anchor="middle" x="200.62" y="-32.21" font-family="Helvetica,sans-Serif" font-size="10.00">::init_state</text>
</a>
</g>
</g>
<!-- Node1&#45;&gt;Node9 -->
<g id="edge10_Node000001_Node000009" class="edge">
<title>Node1&#45;&gt;Node9</title>
<g id="a_edge10_Node000001_Node000009"><a xlink:title=" ">
<path fill="none" stroke="#63b8ff" d="M326.98,-135.08C310.12,-114.64 283.57,-85.37 255.5,-65.71 250.72,-62.36 245.4,-59.32 240.01,-56.6"/>
<polygon fill="#63b8ff" stroke="#63b8ff" points="324.05,-137.03 333.06,-142.61 329.5,-132.63 324.05,-137.03"/>
</a>
</g>
</g>
<!-- Node10 -->
<g id="Node000010" class="node">
<title>Node10</title>
<g id="a_Node000010"><a xlink:href="classCore_1_1GlobalInitialiser.html#a0dc2da93c4202706b5f37453f355145c" target="_top" xlink:title="Initializes a transitioner with the provided flow iterator.">
<polygon fill="white" stroke="#666666" points="109.75,-35.21 0,-35.21 0,-6.21 109.75,-6.21 109.75,-35.21"/>
<text xml:space="preserve" text-anchor="start" x="8" y="-21.71" font-family="Helvetica,sans-Serif" font-size="10.00">Core::GlobalInitialiser</text>
<text xml:space="preserve" text-anchor="middle" x="54.88" y="-11.21" font-family="Helvetica,sans-Serif" font-size="10.00">::init_transitionner</text>
</a>
</g>
</g>
<!-- Node1&#45;&gt;Node10 -->
<g id="edge12_Node000001_Node000010" class="edge">
<title>Node1&#45;&gt;Node10</title>
<g id="a_edge12_Node000001_Node000010"><a xlink:title=" ">
<path fill="none" stroke="#63b8ff" d="M337.46,-133C325.66,-99.68 299.94,-42.99 255.5,-18.71 211.09,5.55 152.41,1.49 110.18,-6.48"/>
<polygon fill="#63b8ff" stroke="#63b8ff" points="334.08,-133.92 340.58,-142.28 340.72,-131.69 334.08,-133.92"/>
</a>
</g>
</g>
<!-- Node4 -->
<g id="Node000004" class="node">
<title>Node4</title>
<g id="a_Node000004"><a xlink:href="classCore_1_1GlobalInitialiser.html#a00d0e7a7d549bf06886dfc3ba9de3e3d" target="_top" xlink:title="Initializes a simulation unit.">
<polygon fill="white" stroke="#666666" points="109.75,-244.21 0,-244.21 0,-215.21 109.75,-215.21 109.75,-244.21"/>
<text xml:space="preserve" text-anchor="start" x="8" y="-230.71" font-family="Helvetica,sans-Serif" font-size="10.00">Core::GlobalInitialiser</text>
<text xml:space="preserve" text-anchor="middle" x="54.88" y="-220.21" font-family="Helvetica,sans-Serif" font-size="10.00">::init_simulation</text>
</a>
</g>
</g>
<!-- Node3&#45;&gt;Node4 -->
<g id="edge3_Node000003_Node000004" class="edge">
<title>Node3&#45;&gt;Node4</title>
<g id="a_edge3_Node000003_Node000004"><a xlink:title=" ">
<path fill="none" stroke="#63b8ff" d="M143.27,-258.29C129.44,-253.76 114.81,-248.98 101.56,-244.65"/>
<polygon fill="#63b8ff" stroke="#63b8ff" points="142.11,-261.59 152.7,-261.37 144.29,-254.94 142.11,-261.59"/>
</a>
</g>
</g>
<!-- Node4&#45;&gt;Node4 -->
<g id="edge4_Node000004_Node000004" class="edge">
<title>Node4&#45;&gt;Node4</title>
<g id="a_edge4_Node000004_Node000004"><a xlink:title=" ">
<path fill="none" stroke="#63b8ff" d="M79.61,-255.77C75.73,-259.62 67.48,-262.21 54.88,-262.21 31.82,-262.21 23.35,-253.54 29.48,-244.42"/>
<polygon fill="#63b8ff" stroke="#63b8ff" points="83.1,-256.12 80.19,-245.93 76.11,-255.71 83.1,-256.12"/>
</a>
</g>
</g>
<!-- Node6&#45;&gt;Node4 -->
<g id="edge7_Node000006_Node000004" class="edge">
<title>Node6&#45;&gt;Node4</title>
<g id="a_edge7_Node000006_Node000004"><a xlink:title=" ">
<path fill="none" stroke="#63b8ff" d="M143.27,-201.14C129.44,-205.66 114.81,-210.44 101.56,-214.78"/>
<polygon fill="#63b8ff" stroke="#63b8ff" points="144.29,-204.49 152.7,-198.05 142.11,-197.83 144.29,-204.49"/>
</a>
</g>
</g>
<!-- Node9&#45;&gt;Node10 -->
<g id="edge11_Node000009_Node000010" class="edge">
<title>Node9&#45;&gt;Node10</title>
<g id="a_edge11_Node000009_Node000010"><a xlink:title=" ">
<path fill="none" stroke="#63b8ff" d="M133.97,-32.12C125.89,-30.94 117.7,-29.74 109.82,-28.59"/>
<polygon fill="#63b8ff" stroke="#63b8ff" points="133.38,-35.57 143.78,-33.55 134.39,-28.65 133.38,-35.57"/>
</a>
</g>
</g>
</g>
</svg>
