<?xml version="1.0" encoding="UTF-8" standalone="no"?>
<!DOCTYPE svg PUBLIC "-//W3C//DTD SVG 1.1//EN"
 "http://www.w3.org/Graphics/SVG/1.1/DTD/svg11.dtd">
<!-- Generated by graphviz version 14.0.1 (0)
 -->
<!-- Title: Simulation::SimulationUnit::getMTRData Pages: 1 -->
<svg width="302pt" height="74pt"
 viewBox="0.00 0.00 302.00 74.00" xmlns="http://www.w3.org/2000/svg" xmlns:xlink="http://www.w3.org/1999/xlink">
<g id="graph0" class="graph" transform="scale(1 1) rotate(0) translate(4 69.75)">
<title>Simulation::SimulationUnit::getMTRData</title>
<!-- Node1 -->
<g id="Node000001" class="node">
<title>Node1</title>
<g id="a_Node000001"><a xlink:title=" ">
<polygon fill="#999999" stroke="#666666" points="293.75,-50 162.25,-50 162.25,-21 293.75,-21 293.75,-50"/>
<text xml:space="preserve" text-anchor="start" x="170.25" y="-36.5" font-family="Helvetica,sans-Serif" font-size="10.00">Simulation::SimulationUnit</text>
<text xml:space="preserve" text-anchor="middle" x="228" y="-26" font-family="Helvetica,sans-Serif" font-size="10.00">::getMTRData</text>
</a>
</g>
</g>
<!-- Node2 -->
<g id="Node000002" class="node">
<title>Node2</title>
<g id="a_Node000002"><a xlink:href="classExportHandler.html#ad66ddd83a4245acb73446a86f3fcde6a" target="_top" xlink:title="Handles periodic export of simulation data.">
<polygon fill="white" stroke="#666666" points="126.25,-65.75 0,-65.75 0,-47.25 126.25,-47.25 126.25,-65.75"/>
<text xml:space="preserve" text-anchor="middle" x="63.12" y="-52.25" font-family="Helvetica,sans-Serif" font-size="10.00">ExportHandler::operator()</text>
</a>
</g>
</g>
<!-- Node1&#45;&gt;Node2 -->
<g id="edge1_Node000001_Node000002" class="edge">
<title>Node1&#45;&gt;Node2</title>
<g id="a_edge1_Node000001_Node000002"><a xlink:title=" ">
<path fill="none" stroke="#63b8ff" d="M150.79,-45.33C142.7,-46.37 134.53,-47.42 126.62,-48.44"/>
<polygon fill="#63b8ff" stroke="#63b8ff" points="151.19,-48.8 160.66,-44.05 150.29,-41.86 151.19,-48.8"/>
</a>
</g>
</g>
<!-- Node3 -->
<g id="Node000003" class="node">
<title>Node3</title>
<g id="a_Node000003"><a xlink:href="classExportHandler.html#a6b0b35e1d567203c9de17039b98d1caa" target="_top" xlink:title="Prepares and updates the exporter with the current simulation state before/after main loop.">
<polygon fill="white" stroke="#666666" points="112.38,-29 13.88,-29 13.88,0 112.38,0 112.38,-29"/>
<text xml:space="preserve" text-anchor="start" x="21.88" y="-15.5" font-family="Helvetica,sans-Serif" font-size="10.00">ExportHandler::pre</text>
<text xml:space="preserve" text-anchor="middle" x="63.12" y="-5" font-family="Helvetica,sans-Serif" font-size="10.00">_post_export</text>
</a>
</g>
</g>
<!-- Node1&#45;&gt;Node3 -->
<g id="edge2_Node000001_Node000003" class="edge">
<title>Node1&#45;&gt;Node3</title>
<g id="a_edge2_Node000001_Node000003"><a xlink:title=" ">
<path fill="none" stroke="#63b8ff" d="M150.83,-25.68C137.85,-24.01 124.69,-22.31 112.68,-20.76"/>
<polygon fill="#63b8ff" stroke="#63b8ff" points="150.29,-29.14 160.66,-26.95 151.19,-22.2 150.29,-29.14"/>
</a>
</g>
</g>
</g>
</svg>
