<?xml version="1.0" encoding="UTF-8" standalone="no"?>
<!DOCTYPE svg PUBLIC "-//W3C//DTD SVG 1.1//EN"
 "http://www.w3.org/Graphics/SVG/1.1/DTD/svg11.dtd">
<!-- Generated by graphviz version 14.0.1 (0)
 -->
<!-- Title: IO::Console::operator= Pages: 1 -->
<svg width="412pt" height="319pt"
 viewBox="0.00 0.00 412.00 319.00" xmlns="http://www.w3.org/2000/svg" xmlns:xlink="http://www.w3.org/1999/xlink">

<svg id="main" version="1.1" xmlns="http://www.w3.org/2000/svg" xmlns:xlink="http://www.w3.org/1999/xlink" xml:space="preserve">

<style type="text/css"><![CDATA[
.node, .edge {opacity: 0.7;}
.node.selected, .edge.selected {opacity: 1;}
.edge:hover path { stroke: red; }
.edge:hover polygon { stroke: red; fill: red; }
]]></style>
<script type="application/ecmascript" xlink:href="svg.min.js"/>
<svg id="graph" class="graph">
<g id="graph0" class="graph" transform="scale(1 1) rotate(0) translate(4 314.75)">
<title>IO::Console::operator=</title>
<!-- Node1 -->
<g id="Node000001" class="node">
<title>Node1</title>
<g id="a_Node000001"><a xlink:title=" ">
<polygon fill="#999999" stroke="#666666" points="115.75,-159.75 0,-159.75 0,-141.25 115.75,-141.25 115.75,-159.75"/>
<text xml:space="preserve" text-anchor="middle" x="57.88" y="-146.25" font-family="Helvetica,sans-Serif" font-size="10.00">IO::Console::operator=</text>
</a>
</g>
</g>
<!-- Node2 -->
<g id="Node000002" class="node">
<title>Node2</title>
<g id="a_Node000002"><a xlink:href="classIO_1_1Console.html#ad8e8490ed0b1b321bb75e9702c32fb8a" target="_top" xlink:title=" ">
<polygon fill="white" stroke="#666666" points="264.88,-272.75 154.38,-272.75 154.38,-254.25 264.88,-254.25 264.88,-272.75"/>
<text xml:space="preserve" text-anchor="middle" x="209.62" y="-259.25" font-family="Helvetica,sans-Serif" font-size="10.00">IO::Console::Console</text>
</a>
</g>
</g>
<!-- Node1&#45;&gt;Node2 -->
<g id="edge1_Node000001_Node000002" class="edge">
<title>Node1&#45;&gt;Node2</title>
<g id="a_edge1_Node000001_Node000002"><a xlink:title=" ">
<path fill="none" stroke="#63b8ff" d="M66.96,-160.1C82.1,-177.59 116.41,-215.03 151.75,-238.5 157.76,-242.49 164.52,-246.11 171.22,-249.27"/>
<polygon fill="#63b8ff" stroke="#63b8ff" points="169.65,-252.4 180.21,-253.24 172.47,-246 169.65,-252.4"/>
</a>
</g>
</g>
<!-- Node5 -->
<g id="Node000005" class="node">
<title>Node5</title>
<g id="a_Node000005"><a xlink:href="classIO_1_1Console.html#a30df9915744a57ee5a4e3d753598f5d5" target="_top" xlink:title=" ">
<polygon fill="white" stroke="#666666" points="404.25,-237 303.5,-237 303.5,-208 404.25,-208 404.25,-237"/>
<text xml:space="preserve" text-anchor="start" x="311.5" y="-223.5" font-family="Helvetica,sans-Serif" font-size="10.00">IO::Console::toggle</text>
<text xml:space="preserve" text-anchor="middle" x="353.88" y="-213" font-family="Helvetica,sans-Serif" font-size="10.00">_alert</text>
</a>
</g>
</g>
<!-- Node1&#45;&gt;Node5 -->
<g id="edge6_Node000001_Node000005" class="edge">
<title>Node1&#45;&gt;Node5</title>
<g id="a_edge6_Node000001_Node000005"><a xlink:title=" ">
<path fill="none" stroke="#63b8ff" d="M70.92,-160.09C87.85,-172.97 120.16,-195.4 151.75,-205.5 197.26,-220.05 251.35,-223.93 291.97,-224.37"/>
<polygon fill="#63b8ff" stroke="#63b8ff" points="291.79,-227.87 301.81,-224.4 291.82,-220.87 291.79,-227.87"/>
</a>
</g>
</g>
<!-- Node6 -->
<g id="Node000006" class="node">
<title>Node6</title>
<g id="a_Node000006"><a xlink:href="classIO_1_1Console.html#aec12a87c700d80d6ba3c2e22e9860b20" target="_top" xlink:title=" ">
<polygon fill="white" stroke="#666666" points="263.75,-196.75 155.5,-196.75 155.5,-178.25 263.75,-178.25 263.75,-196.75"/>
<text xml:space="preserve" text-anchor="middle" x="209.62" y="-183.25" font-family="Helvetica,sans-Serif" font-size="10.00">IO::Console::raw_log</text>
</a>
</g>
</g>
<!-- Node1&#45;&gt;Node6 -->
<g id="edge5_Node000001_Node000006" class="edge">
<title>Node1&#45;&gt;Node6</title>
<g id="a_edge5_Node000001_Node000006"><a xlink:title=" ">
<path fill="none" stroke="#63b8ff" d="M98.22,-160.22C116.55,-164.75 138.57,-170.19 158.11,-175.02"/>
<polygon fill="#63b8ff" stroke="#63b8ff" points="157.27,-178.42 167.81,-177.42 158.95,-171.62 157.27,-178.42"/>
</a>
</g>
</g>
<!-- Node7 -->
<g id="Node000007" class="node">
<title>Node7</title>
<g id="a_Node000007"><a xlink:href="classIO_1_1Console.html#adf34eb9756f628025ad237f735f4f914" target="_top" xlink:title=" ">
<polygon fill="white" stroke="#666666" points="267.5,-159.75 151.75,-159.75 151.75,-141.25 267.5,-141.25 267.5,-159.75"/>
<text xml:space="preserve" text-anchor="middle" x="209.62" y="-146.25" font-family="Helvetica,sans-Serif" font-size="10.00">IO::Console::toggle_all</text>
</a>
</g>
</g>
<!-- Node1&#45;&gt;Node7 -->
<g id="edge7_Node000001_Node000007" class="edge">
<title>Node1&#45;&gt;Node7</title>
<g id="a_edge7_Node000001_Node000007"><a xlink:title=" ">
<path fill="none" stroke="#63b8ff" d="M115.92,-150.5C123.89,-150.5 132.16,-150.5 140.32,-150.5"/>
<polygon fill="#63b8ff" stroke="#63b8ff" points="140.23,-154 150.23,-150.5 140.23,-147 140.23,-154"/>
</a>
</g>
</g>
<!-- Node8 -->
<g id="Node000008" class="node">
<title>Node8</title>
<g id="a_Node000008"><a xlink:href="classIO_1_1Console.html#a3700cb5f6b74ad82c88294ff19e65a73" target="_top" xlink:title=" ">
<polygon fill="white" stroke="#666666" points="260,-123 159.25,-123 159.25,-94 260,-94 260,-123"/>
<text xml:space="preserve" text-anchor="start" x="167.25" y="-109.5" font-family="Helvetica,sans-Serif" font-size="10.00">IO::Console::toggle</text>
<text xml:space="preserve" text-anchor="middle" x="209.62" y="-99" font-family="Helvetica,sans-Serif" font-size="10.00">_debug</text>
</a>
</g>
</g>
<!-- Node1&#45;&gt;Node8 -->
<g id="edge8_Node000001_Node000008" class="edge">
<title>Node1&#45;&gt;Node8</title>
<g id="a_edge8_Node000001_Node000008"><a xlink:title=" ">
<path fill="none" stroke="#63b8ff" d="M93.61,-140.76C109.71,-136.24 129.33,-130.74 147.77,-125.57"/>
<polygon fill="#63b8ff" stroke="#63b8ff" points="148.62,-128.96 157.3,-122.89 146.73,-122.22 148.62,-128.96"/>
</a>
</g>
</g>
<!-- Node9 -->
<g id="Node000009" class="node">
<title>Node9</title>
<g id="a_Node000009"><a xlink:href="classIO_1_1Console.html#a36c7787cab704746aef50be735563659" target="_top" xlink:title=" ">
<polygon fill="white" stroke="#666666" points="260,-76 159.25,-76 159.25,-47 260,-47 260,-76"/>
<text xml:space="preserve" text-anchor="start" x="167.25" y="-62.5" font-family="Helvetica,sans-Serif" font-size="10.00">IO::Console::toggle</text>
<text xml:space="preserve" text-anchor="middle" x="209.62" y="-52" font-family="Helvetica,sans-Serif" font-size="10.00">_error</text>
</a>
</g>
</g>
<!-- Node1&#45;&gt;Node9 -->
<g id="edge9_Node000001_Node000009" class="edge">
<title>Node1&#45;&gt;Node9</title>
<g id="a_edge9_Node000001_Node000009"><a xlink:title=" ">
<path fill="none" stroke="#63b8ff" d="M70.95,-140.79C88.17,-127.25 121.09,-102.45 151.75,-85.5 154.39,-84.04 157.13,-82.62 159.92,-81.23"/>
<polygon fill="#63b8ff" stroke="#63b8ff" points="161.23,-84.48 168.79,-77.06 158.25,-78.15 161.23,-84.48"/>
</a>
</g>
</g>
<!-- Node10 -->
<g id="Node000010" class="node">
<title>Node10</title>
<g id="a_Node000010"><a xlink:href="classIO_1_1Console.html#a881c653cd466b015ae4f7fb4ea6a25c9" target="_top" xlink:title=" ">
<polygon fill="white" stroke="#666666" points="260,-29 159.25,-29 159.25,0 260,0 260,-29"/>
<text xml:space="preserve" text-anchor="start" x="167.25" y="-15.5" font-family="Helvetica,sans-Serif" font-size="10.00">IO::Console::toggle</text>
<text xml:space="preserve" text-anchor="middle" x="209.62" y="-5" font-family="Helvetica,sans-Serif" font-size="10.00">_print</text>
</a>
</g>
</g>
<!-- Node1&#45;&gt;Node10 -->
<g id="edge10_Node000001_Node000010" class="edge">
<title>Node1&#45;&gt;Node10</title>
<g id="a_edge10_Node000001_Node000010"><a xlink:title=" ">
<path fill="none" stroke="#63b8ff" d="M64.39,-140.96C77.16,-119.62 110.82,-67.57 151.75,-37.5 152.91,-36.65 154.1,-35.82 155.33,-35.02"/>
<polygon fill="#63b8ff" stroke="#63b8ff" points="156.91,-38.15 163.85,-30.14 153.43,-32.08 156.91,-38.15"/>
</a>
</g>
</g>
<!-- Node3 -->
<g id="Node000003" class="node">
<title>Node3</title>
<g id="a_Node000003"><a xlink:href="classIO_1_1Console.html#a3264d5b726931694ae11ab745d490300" target="_top" xlink:title=" ">
<polygon fill="white" stroke="#666666" points="400.88,-310.75 306.88,-310.75 306.88,-292.25 400.88,-292.25 400.88,-310.75"/>
<text xml:space="preserve" text-anchor="middle" x="353.88" y="-297.25" font-family="Helvetica,sans-Serif" font-size="10.00">IO::Console::alert</text>
</a>
</g>
</g>
<!-- Node2&#45;&gt;Node3 -->
<g id="edge2_Node000002_Node000003" class="edge">
<title>Node2&#45;&gt;Node3</title>
<g id="a_edge2_Node000002_Node000003"><a xlink:title=" ">
<path fill="none" stroke="#63b8ff" d="M246.89,-273.19C264.78,-277.97 286.58,-283.79 305.75,-288.91"/>
<polygon fill="#63b8ff" stroke="#63b8ff" points="304.65,-292.24 315.22,-291.44 306.46,-285.48 304.65,-292.24"/>
</a>
</g>
</g>
<!-- Node4 -->
<g id="Node000004" class="node">
<title>Node4</title>
<g id="a_Node000004"><a xlink:href="namespaceIO.html#a30cc77fc5c4d45d3b56ef6a299ce2383" target="_top" xlink:title=" ">
<polygon fill="white" stroke="#666666" points="384,-273.75 323.75,-273.75 323.75,-255.25 384,-255.25 384,-273.75"/>
<text xml:space="preserve" text-anchor="middle" x="353.88" y="-260.25" font-family="Helvetica,sans-Serif" font-size="10.00">IO::format</text>
</a>
</g>
</g>
<!-- Node2&#45;&gt;Node4 -->
<g id="edge3_Node000002_Node000004" class="edge">
<title>Node2&#45;&gt;Node4</title>
<g id="a_edge3_Node000002_Node000004"><a xlink:title=" ">
<path fill="none" stroke="#63b8ff" d="M265.22,-263.88C280.8,-263.99 297.5,-264.11 312.1,-264.21"/>
<polygon fill="#63b8ff" stroke="#63b8ff" points="311.75,-267.71 321.78,-264.28 311.8,-260.71 311.75,-267.71"/>
</a>
</g>
</g>
<!-- Node2&#45;&gt;Node5 -->
<g id="edge4_Node000002_Node000005" class="edge">
<title>Node2&#45;&gt;Node5</title>
<g id="a_edge4_Node000002_Node000005"><a xlink:title=" ">
<path fill="none" stroke="#63b8ff" d="M244.34,-253.78C258.76,-249.63 276.05,-244.64 292.55,-239.89"/>
<polygon fill="#63b8ff" stroke="#63b8ff" points="293.14,-243.36 301.78,-237.23 291.21,-236.63 293.14,-243.36"/>
</a>
</g>
</g>
</g>
</svg>
</svg>

<style type='text/css'>
<![CDATA[
[data-mouse-over-selected='false'] { opacity: 0.7; }
[data-mouse-over-selected='true']  { opacity: 1.0; }
]]>
</style>
<script type="application/ecmascript"><![CDATA[
document.addEventListener('DOMContentLoaded', (event) => {
  highlightEdges();
  highlightAdjacentNodes();
});
]]></script>
</svg>
