<?xml version="1.0" encoding="UTF-8" standalone="no"?>
<!DOCTYPE svg PUBLIC "-//W3C//DTD SVG 1.1//EN"
 "http://www.w3.org/Graphics/SVG/1.1/DTD/svg11.dtd">
<!-- Generated by graphviz version 14.0.1 (0)
 -->
<!-- Title: Core::GlobalInitialiser::check_steps Pages: 1 -->
<svg width="409pt" height="311pt"
 viewBox="0.00 0.00 409.00 311.00" xmlns="http://www.w3.org/2000/svg" xmlns:xlink="http://www.w3.org/1999/xlink">

<svg id="main" version="1.1" xmlns="http://www.w3.org/2000/svg" xmlns:xlink="http://www.w3.org/1999/xlink" xml:space="preserve">

<style type="text/css"><![CDATA[
.node, .edge {opacity: 0.7;}
.node.selected, .edge.selected {opacity: 1;}
.edge:hover path { stroke: red; }
.edge:hover polygon { stroke: red; fill: red; }
]]></style>
<script type="application/ecmascript" xlink:href="svg.min.js"/>
<svg id="graph" class="graph">
<g id="graph0" class="graph" transform="scale(1 1) rotate(0) translate(4 307)">
<title>Core::GlobalInitialiser::check_steps</title>
<!-- Node1 -->
<g id="Node000001" class="node">
<title>Node1</title>
<g id="a_Node000001"><a xlink:title="Checks the validity of specified initialization steps.">
<polygon fill="#999999" stroke="#666666" points="401.25,-170 291.5,-170 291.5,-141 401.25,-141 401.25,-170"/>
<text xml:space="preserve" text-anchor="start" x="299.5" y="-156.5" font-family="Helvetica,sans-Serif" font-size="10.00">Core::GlobalInitialiser</text>
<text xml:space="preserve" text-anchor="middle" x="346.38" y="-146" font-family="Helvetica,sans-Serif" font-size="10.00">::check_steps</text>
</a>
</g>
</g>
<!-- Node2 -->
<g id="Node000002" class="node">
<title>Node2</title>
<g id="a_Node000002"><a xlink:href="classCore_1_1GlobalInitialiser.html#aefbbc9e413134e0e080df2218316fe63" target="_top" xlink:title="Initializes a simulation feed.">
<polygon fill="white" stroke="#666666" points="255.5,-303 145.75,-303 145.75,-274 255.5,-274 255.5,-303"/>
<text xml:space="preserve" text-anchor="start" x="153.75" y="-289.5" font-family="Helvetica,sans-Serif" font-size="10.00">Core::GlobalInitialiser</text>
<text xml:space="preserve" text-anchor="middle" x="200.62" y="-279" font-family="Helvetica,sans-Serif" font-size="10.00">::init_feed</text>
</a>
</g>
</g>
<!-- Node1&#45;&gt;Node2 -->
<g id="edge1_Node000001_Node000002" class="edge">
<title>Node1&#45;&gt;Node2</title>
<g id="a_edge1_Node000001_Node000002"><a xlink:title=" ">
<path fill="none" stroke="#63b8ff" d="M330.54,-179.85C314.6,-204.29 287.24,-241.64 255.5,-265.5 251.52,-268.49 247.08,-271.19 242.52,-273.58"/>
<polygon fill="#63b8ff" stroke="#63b8ff" points="333.43,-181.83 335.84,-171.52 327.52,-178.07 333.43,-181.83"/>
</a>
</g>
</g>
<!-- Node3 -->
<g id="Node000003" class="node">
<title>Node3</title>
<g id="a_Node000003"><a xlink:href="classCore_1_1GlobalInitialiser.html#a9b38d15538796d9cc115211890a6c081" target="_top" xlink:title="Initializes a Monte Carlo unit.">
<polygon fill="white" stroke="#666666" points="255.5,-256 145.75,-256 145.75,-227 255.5,-227 255.5,-256"/>
<text xml:space="preserve" text-anchor="start" x="153.75" y="-242.5" font-family="Helvetica,sans-Serif" font-size="10.00">Core::GlobalInitialiser</text>
<text xml:space="preserve" text-anchor="middle" x="200.62" y="-232" font-family="Helvetica,sans-Serif" font-size="10.00">::init_monte_carlo</text>
</a>
</g>
</g>
<!-- Node1&#45;&gt;Node3 -->
<g id="edge2_Node000001_Node000003" class="edge">
<title>Node1&#45;&gt;Node3</title>
<g id="a_edge2_Node000001_Node000003"><a xlink:title=" ">
<path fill="none" stroke="#63b8ff" d="M313.29,-176.63C296.29,-187.62 274.96,-201.11 255.5,-212.5 247.43,-217.22 238.55,-222.12 230.36,-226.52"/>
<polygon fill="#63b8ff" stroke="#63b8ff" points="315.01,-179.69 321.48,-171.31 311.19,-173.82 315.01,-179.69"/>
</a>
</g>
</g>
<!-- Node4 -->
<g id="Node000004" class="node">
<title>Node4</title>
<g id="a_Node000004"><a xlink:href="classCore_1_1GlobalInitialiser.html#a00d0e7a7d549bf06886dfc3ba9de3e3d" target="_top" xlink:title="Initializes a simulation unit.">
<polygon fill="white" stroke="#666666" points="109.75,-213 0,-213 0,-184 109.75,-184 109.75,-213"/>
<text xml:space="preserve" text-anchor="start" x="8" y="-199.5" font-family="Helvetica,sans-Serif" font-size="10.00">Core::GlobalInitialiser</text>
<text xml:space="preserve" text-anchor="middle" x="54.88" y="-189" font-family="Helvetica,sans-Serif" font-size="10.00">::init_simulation</text>
</a>
</g>
</g>
<!-- Node1&#45;&gt;Node4 -->
<g id="edge8_Node000001_Node000004" class="edge">
<title>Node1&#45;&gt;Node4</title>
<g id="a_edge8_Node000001_Node000004"><a xlink:title=" ">
<path fill="none" stroke="#63b8ff" d="M284.25,-173.27C274.69,-175.63 264.87,-177.82 255.5,-179.5 206.67,-188.28 150.35,-193.17 110.01,-195.78"/>
<polygon fill="#63b8ff" stroke="#63b8ff" points="285.03,-176.69 293.85,-170.82 283.3,-169.91 285.03,-176.69"/>
</a>
</g>
</g>
<!-- Node5 -->
<g id="Node000005" class="node">
<title>Node5</title>
<g id="a_Node000005"><a xlink:href="classCore_1_1GlobalInitialiser.html#adf72113e43a445c6afdb993c0fadeeca" target="_top" xlink:title=" ">
<polygon fill="white" stroke="#666666" points="255.5,-170 145.75,-170 145.75,-141 255.5,-141 255.5,-170"/>
<text xml:space="preserve" text-anchor="start" x="153.75" y="-156.5" font-family="Helvetica,sans-Serif" font-size="10.00">Core::GlobalInitialiser</text>
<text xml:space="preserve" text-anchor="middle" x="200.62" y="-146" font-family="Helvetica,sans-Serif" font-size="10.00">::init_mtr_model</text>
</a>
</g>
</g>
<!-- Node1&#45;&gt;Node5 -->
<g id="edge5_Node000001_Node000005" class="edge">
<title>Node1&#45;&gt;Node5</title>
<g id="a_edge5_Node000001_Node000005"><a xlink:title=" ">
<path fill="none" stroke="#63b8ff" d="M279.72,-155.5C271.64,-155.5 263.45,-155.5 255.57,-155.5"/>
<polygon fill="#63b8ff" stroke="#63b8ff" points="279.52,-159 289.52,-155.5 279.52,-152 279.52,-159"/>
</a>
</g>
</g>
<!-- Node6 -->
<g id="Node000006" class="node">
<title>Node6</title>
<g id="a_Node000006"><a xlink:href="classCore_1_1GlobalInitialiser.html#aa84a61b25f475380b38306232e25aff6" target="_top" xlink:title="Initializes a scalar component of the simulation.">
<polygon fill="white" stroke="#666666" points="255.5,-123 145.75,-123 145.75,-94 255.5,-94 255.5,-123"/>
<text xml:space="preserve" text-anchor="start" x="153.75" y="-109.5" font-family="Helvetica,sans-Serif" font-size="10.00">Core::GlobalInitialiser</text>
<text xml:space="preserve" text-anchor="middle" x="200.62" y="-99" font-family="Helvetica,sans-Serif" font-size="10.00">::init_scalar</text>
</a>
</g>
</g>
<!-- Node1&#45;&gt;Node6 -->
<g id="edge6_Node000001_Node000006" class="edge">
<title>Node1&#45;&gt;Node6</title>
<g id="a_edge6_Node000001_Node000006"><a xlink:title=" ">
<path fill="none" stroke="#63b8ff" d="M289.02,-137.07C275.19,-132.55 260.56,-127.77 247.31,-123.44"/>
<polygon fill="#63b8ff" stroke="#63b8ff" points="287.86,-140.38 298.45,-140.16 290.04,-133.72 287.86,-140.38"/>
</a>
</g>
</g>
<!-- Node7 -->
<g id="Node000007" class="node">
<title>Node7</title>
<g id="a_Node000007"><a xlink:href="classCore_1_1GlobalInitialiser.html#a696d0507fb8e2497d05a1fc84302c6dd" target="_top" xlink:title="Initializes a simulation unit with specified parameters.">
<polygon fill="white" stroke="#666666" points="255.5,-76 145.75,-76 145.75,-47 255.5,-47 255.5,-76"/>
<text xml:space="preserve" text-anchor="start" x="153.75" y="-62.5" font-family="Helvetica,sans-Serif" font-size="10.00">Core::GlobalInitialiser</text>
<text xml:space="preserve" text-anchor="middle" x="200.62" y="-52" font-family="Helvetica,sans-Serif" font-size="10.00">::init_simulation</text>
</a>
</g>
</g>
<!-- Node1&#45;&gt;Node7 -->
<g id="edge9_Node000001_Node000007" class="edge">
<title>Node1&#45;&gt;Node7</title>
<g id="a_edge9_Node000001_Node000007"><a xlink:title=" ">
<path fill="none" stroke="#63b8ff" d="M320.27,-133.25C302.88,-118.54 278.75,-99.45 255.5,-85.5 250.14,-82.29 244.28,-79.24 238.46,-76.47"/>
<polygon fill="#63b8ff" stroke="#63b8ff" points="317.7,-135.66 327.56,-139.52 322.26,-130.35 317.7,-135.66"/>
</a>
</g>
</g>
<!-- Node8 -->
<g id="Node000008" class="node">
<title>Node8</title>
<g id="a_Node000008"><a xlink:href="classCore_1_1GlobalInitialiser.html#a97eff5566ced6ba6449eb532f0babadc" target="_top" xlink:title="Initializes a flow iterator.">
<polygon fill="white" stroke="#666666" points="255.5,-29 145.75,-29 145.75,0 255.5,0 255.5,-29"/>
<text xml:space="preserve" text-anchor="start" x="153.75" y="-15.5" font-family="Helvetica,sans-Serif" font-size="10.00">Core::GlobalInitialiser</text>
<text xml:space="preserve" text-anchor="middle" x="200.62" y="-5" font-family="Helvetica,sans-Serif" font-size="10.00">::init_state</text>
</a>
</g>
</g>
<!-- Node1&#45;&gt;Node8 -->
<g id="edge10_Node000001_Node000008" class="edge">
<title>Node1&#45;&gt;Node8</title>
<g id="a_edge10_Node000001_Node000008"><a xlink:title=" ">
<path fill="none" stroke="#63b8ff" d="M331.53,-130.85C315.92,-104.95 288.39,-64.42 255.5,-38.5 251.16,-35.08 246.25,-32.03 241.21,-29.35"/>
<polygon fill="#63b8ff" stroke="#63b8ff" points="328.44,-132.5 336.52,-139.35 334.47,-128.95 328.44,-132.5"/>
</a>
</g>
</g>
<!-- Node3&#45;&gt;Node4 -->
<g id="edge3_Node000003_Node000004" class="edge">
<title>Node3&#45;&gt;Node4</title>
<g id="a_edge3_Node000003_Node000004"><a xlink:title=" ">
<path fill="none" stroke="#63b8ff" d="M138.85,-223.32C127.78,-220.01 116.36,-216.59 105.66,-213.39"/>
<polygon fill="#63b8ff" stroke="#63b8ff" points="137.72,-226.63 148.3,-226.15 139.72,-219.93 137.72,-226.63"/>
</a>
</g>
</g>
<!-- Node4&#45;&gt;Node4 -->
<g id="edge4_Node000004_Node000004" class="edge">
<title>Node4&#45;&gt;Node4</title>
<g id="a_edge4_Node000004_Node000004"><a xlink:title=" ">
<path fill="none" stroke="#63b8ff" d="M79.61,-224.56C75.73,-228.41 67.48,-231 54.88,-231 31.82,-231 23.35,-222.32 29.48,-213.21"/>
<polygon fill="#63b8ff" stroke="#63b8ff" points="83.1,-224.9 80.19,-214.72 76.11,-224.5 83.1,-224.9"/>
</a>
</g>
</g>
<!-- Node6&#45;&gt;Node4 -->
<g id="edge7_Node000006_Node000004" class="edge">
<title>Node6&#45;&gt;Node4</title>
<g id="a_edge7_Node000006_Node000004"><a xlink:title=" ">
<path fill="none" stroke="#63b8ff" d="M152.92,-128.55C150.47,-129.83 148.07,-131.15 145.75,-132.5 119.3,-147.86 91.27,-169.4 73.68,-183.64"/>
<polygon fill="#63b8ff" stroke="#63b8ff" points="154.4,-131.72 161.8,-124.14 151.29,-125.45 154.4,-131.72"/>
</a>
</g>
</g>
<!-- Node9 -->
<g id="Node000009" class="node">
<title>Node9</title>
<g id="a_Node000009"><a xlink:href="classCore_1_1GlobalInitialiser.html#a0dc2da93c4202706b5f37453f355145c" target="_top" xlink:title="Initializes a transitioner with the provided flow iterator.">
<polygon fill="white" stroke="#666666" points="109.75,-29 0,-29 0,0 109.75,0 109.75,-29"/>
<text xml:space="preserve" text-anchor="start" x="8" y="-15.5" font-family="Helvetica,sans-Serif" font-size="10.00">Core::GlobalInitialiser</text>
<text xml:space="preserve" text-anchor="middle" x="54.88" y="-5" font-family="Helvetica,sans-Serif" font-size="10.00">::init_transitionner</text>
</a>
</g>
</g>
<!-- Node8&#45;&gt;Node9 -->
<g id="edge11_Node000008_Node000009" class="edge">
<title>Node8&#45;&gt;Node9</title>
<g id="a_edge11_Node000008_Node000009"><a xlink:title=" ">
<path fill="none" stroke="#63b8ff" d="M133.97,-14.5C125.89,-14.5 117.7,-14.5 109.82,-14.5"/>
<polygon fill="#63b8ff" stroke="#63b8ff" points="133.77,-18 143.77,-14.5 133.77,-11 133.77,-18"/>
</a>
</g>
</g>
</g>
</svg>
</svg>

<style type='text/css'>
<![CDATA[
[data-mouse-over-selected='false'] { opacity: 0.7; }
[data-mouse-over-selected='true']  { opacity: 1.0; }
]]>
</style>
<script type="application/ecmascript"><![CDATA[
document.addEventListener('DOMContentLoaded', (event) => {
  highlightEdges();
  highlightAdjacentNodes();
});
]]></script>
</svg>
