<?xml version="1.0" encoding="UTF-8" standalone="no"?>
<!DOCTYPE svg PUBLIC "-//W3C//DTD SVG 1.1//EN"
 "http://www.w3.org/Graphics/SVG/1.1/DTD/svg11.dtd">
<!-- Generated by graphviz version 14.0.1 (0)
 -->
<!-- Title: Simulation::Getter::operator= Pages: 1 -->
<svg width="269pt" height="601pt"
 viewBox="0.00 0.00 269.00 601.00" xmlns="http://www.w3.org/2000/svg" xmlns:xlink="http://www.w3.org/1999/xlink">
<g id="graph0" class="graph" transform="scale(1 1) rotate(0) translate(4 597)">
<title>Simulation::Getter::operator=</title>
<!-- Node1 -->
<g id="Node000001" class="node">
<title>Node1</title>
<g id="a_Node000001"><a xlink:title=" ">
<polygon fill="#999999" stroke="#666666" points="94.75,-311 0,-311 0,-282 94.75,-282 94.75,-311"/>
<text xml:space="preserve" text-anchor="start" x="8" y="-297.5" font-family="Helvetica,sans-Serif" font-size="10.00">Simulation::Getter</text>
<text xml:space="preserve" text-anchor="middle" x="47.38" y="-287" font-family="Helvetica,sans-Serif" font-size="10.00">::operator=</text>
</a>
</g>
</g>
<!-- Node2 -->
<g id="Node000002" class="node">
<title>Node2</title>
<g id="a_Node000002"><a xlink:href="classSimulation_1_1Getter.html#a461b6a9232f81e4f7d7f530a87b4911c" target="_top" xlink:title=" ">
<polygon fill="white" stroke="#666666" points="243.12,-593 148.38,-593 148.38,-564 243.12,-564 243.12,-593"/>
<text xml:space="preserve" text-anchor="start" x="156.38" y="-579.5" font-family="Helvetica,sans-Serif" font-size="10.00">Simulation::Getter</text>
<text xml:space="preserve" text-anchor="middle" x="195.75" y="-569" font-family="Helvetica,sans-Serif" font-size="10.00">::endtime</text>
</a>
</g>
</g>
<!-- Node1&#45;&gt;Node2 -->
<g id="edge1_Node000001_Node000002" class="edge">
<title>Node1&#45;&gt;Node2</title>
<g id="a_edge1_Node000001_Node000002"><a xlink:title=" ">
<path fill="none" stroke="#63b8ff" d="M48.73,-311.36C50.56,-354.96 61.83,-483.98 130.75,-555.5 133.02,-557.85 135.54,-559.96 138.24,-561.86"/>
<polygon fill="#63b8ff" stroke="#63b8ff" points="136.25,-564.76 146.66,-566.75 139.77,-558.7 136.25,-564.76"/>
</a>
</g>
</g>
<!-- Node3 -->
<g id="Node000003" class="node">
<title>Node3</title>
<g id="a_Node000003"><a xlink:href="classSimulation_1_1Getter.html#a09a7fc1371791dac5a4afa9d48def04a" target="_top" xlink:title=" ">
<polygon fill="white" stroke="#666666" points="243.12,-546 148.38,-546 148.38,-517 243.12,-517 243.12,-546"/>
<text xml:space="preserve" text-anchor="start" x="156.38" y="-532.5" font-family="Helvetica,sans-Serif" font-size="10.00">Simulation::Getter</text>
<text xml:space="preserve" text-anchor="middle" x="195.75" y="-522" font-family="Helvetica,sans-Serif" font-size="10.00">::get_feed</text>
</a>
</g>
</g>
<!-- Node1&#45;&gt;Node3 -->
<g id="edge2_Node000001_Node000003" class="edge">
<title>Node1&#45;&gt;Node3</title>
<g id="a_edge2_Node000001_Node000003"><a xlink:title=" ">
<path fill="none" stroke="#63b8ff" d="M49.94,-311.38C54.74,-349.55 72.64,-451.86 130.75,-508.5 132.97,-510.67 135.41,-512.63 138,-514.41"/>
<polygon fill="#63b8ff" stroke="#63b8ff" points="136.19,-517.4 146.6,-519.33 139.66,-511.33 136.19,-517.4"/>
</a>
</g>
</g>
<!-- Node4 -->
<g id="Node000004" class="node">
<title>Node4</title>
<g id="a_Node000004"><a xlink:href="classSimulation_1_1Getter.html#a5018162385dda22e127a8298c2168a4b" target="_top" xlink:title=" ">
<polygon fill="white" stroke="#666666" points="243.12,-499 148.38,-499 148.38,-470 243.12,-470 243.12,-499"/>
<text xml:space="preserve" text-anchor="start" x="156.38" y="-485.5" font-family="Helvetica,sans-Serif" font-size="10.00">Simulation::Getter</text>
<text xml:space="preserve" text-anchor="middle" x="195.75" y="-475" font-family="Helvetica,sans-Serif" font-size="10.00">::getCgasData</text>
</a>
</g>
</g>
<!-- Node1&#45;&gt;Node4 -->
<g id="edge3_Node000001_Node000004" class="edge">
<title>Node1&#45;&gt;Node4</title>
<g id="a_edge3_Node000001_Node000004"><a xlink:title=" ">
<path fill="none" stroke="#63b8ff" d="M51.72,-311.1C59.76,-342.95 83.12,-419.18 130.75,-461.5 133.03,-463.53 135.5,-465.38 138.1,-467.07"/>
<polygon fill="#63b8ff" stroke="#63b8ff" points="136.2,-470.02 146.65,-471.78 139.59,-463.89 136.2,-470.02"/>
</a>
</g>
</g>
<!-- Node5 -->
<g id="Node000005" class="node">
<title>Node5</title>
<g id="a_Node000005"><a xlink:href="classSimulation_1_1Getter.html#affeda285daf139206d57e11daad9cd73" target="_top" xlink:title=" ">
<polygon fill="white" stroke="#666666" points="243.12,-452 148.38,-452 148.38,-423 243.12,-423 243.12,-452"/>
<text xml:space="preserve" text-anchor="start" x="156.38" y="-438.5" font-family="Helvetica,sans-Serif" font-size="10.00">Simulation::Getter</text>
<text xml:space="preserve" text-anchor="middle" x="195.75" y="-428" font-family="Helvetica,sans-Serif" font-size="10.00">::getCliqData</text>
</a>
</g>
</g>
<!-- Node1&#45;&gt;Node5 -->
<g id="edge4_Node000001_Node000005" class="edge">
<title>Node1&#45;&gt;Node5</title>
<g id="a_edge4_Node000001_Node000005"><a xlink:title=" ">
<path fill="none" stroke="#63b8ff" d="M55.02,-311.41C66.79,-336.23 93.65,-386.11 130.75,-414.5 133.01,-416.23 135.4,-417.83 137.9,-419.32"/>
<polygon fill="#63b8ff" stroke="#63b8ff" points="136.05,-422.31 146.54,-423.83 139.29,-416.1 136.05,-422.31"/>
</a>
</g>
</g>
<!-- Node6 -->
<g id="Node000006" class="node">
<title>Node6</title>
<g id="a_Node000006"><a xlink:href="classSimulation_1_1Getter.html#a7d3492144d2eab3ac04fcd47c380b226" target="_top" xlink:title=" ">
<polygon fill="white" stroke="#666666" points="243.12,-405 148.38,-405 148.38,-376 243.12,-376 243.12,-405"/>
<text xml:space="preserve" text-anchor="start" x="156.38" y="-391.5" font-family="Helvetica,sans-Serif" font-size="10.00">Simulation::Getter</text>
<text xml:space="preserve" text-anchor="middle" x="195.75" y="-381" font-family="Helvetica,sans-Serif" font-size="10.00">::getCliqData_mut</text>
</a>
</g>
</g>
<!-- Node1&#45;&gt;Node6 -->
<g id="edge5_Node000001_Node000006" class="edge">
<title>Node1&#45;&gt;Node6</title>
<g id="a_edge5_Node000001_Node000006"><a xlink:title=" ">
<path fill="none" stroke="#63b8ff" d="M62.28,-311.37C77.72,-327.15 104.01,-351.9 130.75,-367.5 133.03,-368.83 135.4,-370.1 137.83,-371.32"/>
<polygon fill="#63b8ff" stroke="#63b8ff" points="136.11,-374.39 146.66,-375.37 139.03,-368.02 136.11,-374.39"/>
</a>
</g>
</g>
<!-- Node7 -->
<g id="Node000007" class="node">
<title>Node7</title>
<g id="a_Node000007"><a xlink:href="classSimulation_1_1Getter.html#af84b6eec57e97593d9b7673399b187bd" target="_top" xlink:title=" ">
<polygon fill="white" stroke="#666666" points="249.88,-358 141.62,-358 141.62,-329 249.88,-329 249.88,-358"/>
<text xml:space="preserve" text-anchor="start" x="149.62" y="-344.5" font-family="Helvetica,sans-Serif" font-size="10.00">Simulation::Getter</text>
<text xml:space="preserve" text-anchor="middle" x="195.75" y="-334" font-family="Helvetica,sans-Serif" font-size="10.00">::getContributionData</text>
</a>
</g>
</g>
<!-- Node1&#45;&gt;Node7 -->
<g id="edge6_Node000001_Node000007" class="edge">
<title>Node1&#45;&gt;Node7</title>
<g id="a_edge6_Node000001_Node000007"><a xlink:title=" ">
<path fill="none" stroke="#63b8ff" d="M94.69,-311.37C108.3,-315.74 123.36,-320.58 137.57,-325.14"/>
<polygon fill="#63b8ff" stroke="#63b8ff" points="136.2,-328.38 146.79,-328.1 138.34,-321.71 136.2,-328.38"/>
</a>
</g>
</g>
<!-- Node8 -->
<g id="Node000008" class="node">
<title>Node8</title>
<g id="a_Node000008"><a xlink:href="classSimulation_1_1Getter.html#a217cecee21930897d43c55f70b56fb6f" target="_top" xlink:title=" ">
<polygon fill="white" stroke="#666666" points="260.75,-311 130.75,-311 130.75,-282 260.75,-282 260.75,-311"/>
<text xml:space="preserve" text-anchor="start" x="138.75" y="-297.5" font-family="Helvetica,sans-Serif" font-size="10.00">Simulation::Getter</text>
<text xml:space="preserve" text-anchor="middle" x="195.75" y="-287" font-family="Helvetica,sans-Serif" font-size="10.00">::getContributionData_mut</text>
</a>
</g>
</g>
<!-- Node1&#45;&gt;Node8 -->
<g id="edge7_Node000001_Node000008" class="edge">
<title>Node1&#45;&gt;Node8</title>
<g id="a_edge7_Node000001_Node000008"><a xlink:title=" ">
<path fill="none" stroke="#63b8ff" d="M95.09,-296.5C102.71,-296.5 110.77,-296.5 118.88,-296.5"/>
<polygon fill="#63b8ff" stroke="#63b8ff" points="118.82,-300 128.82,-296.5 118.82,-293 118.82,-300"/>
</a>
</g>
</g>
<!-- Node9 -->
<g id="Node000009" class="node">
<title>Node9</title>
<g id="a_Node000009"><a xlink:href="classSimulation_1_1Getter.html#a3eac129361d284ecf0b9c6e1049120ae" target="_top" xlink:title=" ">
<polygon fill="white" stroke="#666666" points="243.12,-264 148.38,-264 148.38,-235 243.12,-235 243.12,-264"/>
<text xml:space="preserve" text-anchor="start" x="156.38" y="-250.5" font-family="Helvetica,sans-Serif" font-size="10.00">Simulation::Getter</text>
<text xml:space="preserve" text-anchor="middle" x="195.75" y="-240" font-family="Helvetica,sans-Serif" font-size="10.00">::getDimensions</text>
</a>
</g>
</g>
<!-- Node1&#45;&gt;Node9 -->
<g id="edge8_Node000001_Node000009" class="edge">
<title>Node1&#45;&gt;Node9</title>
<g id="a_edge8_Node000001_Node000009"><a xlink:title=" ">
<path fill="none" stroke="#63b8ff" d="M94.69,-281.63C108.3,-277.26 123.36,-272.42 137.57,-267.86"/>
<polygon fill="#63b8ff" stroke="#63b8ff" points="138.34,-271.29 146.79,-264.9 136.2,-264.62 138.34,-271.29"/>
</a>
</g>
</g>
<!-- Node10 -->
<g id="Node000010" class="node">
<title>Node10</title>
<g id="a_Node000010"><a xlink:href="classSimulation_1_1Getter.html#ae6be177c881989ecc4fb7a5ebdfbd9ff" target="_top" xlink:title=" ">
<polygon fill="white" stroke="#666666" points="243.12,-217 148.38,-217 148.38,-188 243.12,-188 243.12,-217"/>
<text xml:space="preserve" text-anchor="start" x="156.38" y="-203.5" font-family="Helvetica,sans-Serif" font-size="10.00">Simulation::Getter</text>
<text xml:space="preserve" text-anchor="middle" x="195.75" y="-193" font-family="Helvetica,sans-Serif" font-size="10.00">::getMTRData</text>
</a>
</g>
</g>
<!-- Node1&#45;&gt;Node10 -->
<g id="edge9_Node000001_Node000010" class="edge">
<title>Node1&#45;&gt;Node10</title>
<g id="a_edge9_Node000001_Node000010"><a xlink:title=" ">
<path fill="none" stroke="#63b8ff" d="M62.65,-281.64C78.2,-266.14 104.38,-242.01 130.75,-226.5 133.35,-224.97 136.06,-223.51 138.83,-222.12"/>
<polygon fill="#63b8ff" stroke="#63b8ff" points="140.1,-225.39 147.71,-218.02 137.17,-219.04 140.1,-225.39"/>
</a>
</g>
</g>
<!-- Node11 -->
<g id="Node000011" class="node">
<title>Node11</title>
<g id="a_Node000011"><a xlink:href="classSimulation_1_1Getter.html#a7ae2d7ae9d2a44e7d185a18060d87878" target="_top" xlink:title=" ">
<polygon fill="white" stroke="#666666" points="243.12,-170 148.38,-170 148.38,-141 243.12,-141 243.12,-170"/>
<text xml:space="preserve" text-anchor="start" x="156.38" y="-156.5" font-family="Helvetica,sans-Serif" font-size="10.00">Simulation::Getter</text>
<text xml:space="preserve" text-anchor="middle" x="195.75" y="-146" font-family="Helvetica,sans-Serif" font-size="10.00">::Getter</text>
</a>
</g>
</g>
<!-- Node1&#45;&gt;Node11 -->
<g id="edge10_Node000001_Node000011" class="edge">
<title>Node1&#45;&gt;Node11</title>
<g id="a_edge10_Node000001_Node000011"><a xlink:title=" ">
<path fill="none" stroke="#63b8ff" d="M55.09,-281.77C66.98,-257.24 94,-207.91 130.75,-179.5 133.01,-177.75 135.41,-176.12 137.9,-174.6"/>
<polygon fill="#63b8ff" stroke="#63b8ff" points="139.38,-177.78 146.56,-169.98 136.09,-171.61 139.38,-177.78"/>
</a>
</g>
</g>
<!-- Node12 -->
<g id="Node000012" class="node">
<title>Node12</title>
<g id="a_Node000012"><a xlink:href="classSimulation_1_1Getter.html#ab2fa179687f4810f64d4c1c2beb7800c" target="_top" xlink:title=" ">
<polygon fill="white" stroke="#666666" points="243.12,-123 148.38,-123 148.38,-94 243.12,-94 243.12,-123"/>
<text xml:space="preserve" text-anchor="start" x="156.38" y="-109.5" font-family="Helvetica,sans-Serif" font-size="10.00">Simulation::Getter</text>
<text xml:space="preserve" text-anchor="middle" x="195.75" y="-99" font-family="Helvetica,sans-Serif" font-size="10.00">::it_probes</text>
</a>
</g>
</g>
<!-- Node1&#45;&gt;Node12 -->
<g id="edge11_Node000001_Node000012" class="edge">
<title>Node1&#45;&gt;Node12</title>
<g id="a_edge11_Node000001_Node000012"><a xlink:title=" ">
<path fill="none" stroke="#63b8ff" d="M51.92,-281.55C60.21,-249.71 83.83,-174.67 130.75,-132.5 133.03,-130.45 135.5,-128.57 138.1,-126.85"/>
<polygon fill="#63b8ff" stroke="#63b8ff" points="139.68,-129.98 146.66,-122.01 136.23,-123.89 139.68,-129.98"/>
</a>
</g>
</g>
<!-- Node13 -->
<g id="Node000013" class="node">
<title>Node13</title>
<g id="a_Node000013"><a xlink:href="classSimulation_1_1Getter.html#ae948f113363f8ab858797a17c28a2e86" target="_top" xlink:title=" ">
<polygon fill="white" stroke="#666666" points="243.12,-76 148.38,-76 148.38,-47 243.12,-47 243.12,-76"/>
<text xml:space="preserve" text-anchor="start" x="156.38" y="-62.5" font-family="Helvetica,sans-Serif" font-size="10.00">Simulation::Getter</text>
<text xml:space="preserve" text-anchor="middle" x="195.75" y="-52" font-family="Helvetica,sans-Serif" font-size="10.00">::mc_unit</text>
</a>
</g>
</g>
<!-- Node1&#45;&gt;Node13 -->
<g id="edge12_Node000001_Node000013" class="edge">
<title>Node1&#45;&gt;Node13</title>
<g id="a_edge12_Node000001_Node000013"><a xlink:title=" ">
<path fill="none" stroke="#63b8ff" d="M50.01,-281.73C54.97,-243.86 73.22,-142.26 130.75,-85.5 132.97,-83.31 135.41,-81.32 138,-79.5"/>
<polygon fill="#63b8ff" stroke="#63b8ff" points="139.75,-82.53 146.6,-74.45 136.21,-76.49 139.75,-82.53"/>
</a>
</g>
</g>
<!-- Node14 -->
<g id="Node000014" class="node">
<title>Node14</title>
<g id="a_Node000014"><a xlink:href="classSimulation_1_1Getter.html#a13654b5d78fc3844a5a984902ace6b4d" target="_top" xlink:title=" ">
<polygon fill="white" stroke="#666666" points="243.12,-29 148.38,-29 148.38,0 243.12,0 243.12,-29"/>
<text xml:space="preserve" text-anchor="start" x="156.38" y="-15.5" font-family="Helvetica,sans-Serif" font-size="10.00">Simulation::Getter</text>
<text xml:space="preserve" text-anchor="middle" x="195.75" y="-5" font-family="Helvetica,sans-Serif" font-size="10.00">::two_phase_flow</text>
</a>
</g>
</g>
<!-- Node1&#45;&gt;Node14 -->
<g id="edge13_Node000001_Node000014" class="edge">
<title>Node1&#45;&gt;Node14</title>
<g id="a_edge13_Node000001_Node000014"><a xlink:title=" ">
<path fill="none" stroke="#63b8ff" d="M48.79,-281.74C50.8,-238.43 62.52,-110.2 130.75,-38.5 133.01,-36.12 135.53,-33.98 138.23,-32.05"/>
<polygon fill="#63b8ff" stroke="#63b8ff" points="139.85,-35.15 146.65,-27.03 136.27,-29.14 139.85,-35.15"/>
</a>
</g>
</g>
</g>
</svg>
