<?xml version="1.0" encoding="UTF-8" standalone="no"?>
<!DOCTYPE svg PUBLIC "-//W3C//DTD SVG 1.1//EN"
 "http://www.w3.org/Graphics/SVG/1.1/DTD/svg11.dtd">
<!-- Generated by graphviz version 14.0.1 (0)
 -->
<!-- Title: IO::Console::Console Pages: 1 -->
<svg width="255pt" height="129pt"
 viewBox="0.00 0.00 255.00 129.00" xmlns="http://www.w3.org/2000/svg" xmlns:xlink="http://www.w3.org/1999/xlink">
<g id="graph0" class="graph" transform="scale(1 1) rotate(0) translate(4 124.75)">
<title>IO::Console::Console</title>
<!-- Node1 -->
<g id="Node000001" class="node">
<title>Node1</title>
<g id="a_Node000001"><a xlink:title=" ">
<polygon fill="#999999" stroke="#666666" points="110.5,-65.75 0,-65.75 0,-47.25 110.5,-47.25 110.5,-65.75"/>
<text xml:space="preserve" text-anchor="middle" x="55.25" y="-52.25" font-family="Helvetica,sans-Serif" font-size="10.00">IO::Console::Console</text>
</a>
</g>
</g>
<!-- Node2 -->
<g id="Node000002" class="node">
<title>Node2</title>
<g id="a_Node000002"><a xlink:href="classIO_1_1Console.html#a6916d2842e77159b378551f044ebfd56" target="_top" xlink:title="Log an alert message with a prefix.">
<polygon fill="white" stroke="#666666" points="243.88,-120.75 149.88,-120.75 149.88,-102.25 243.88,-102.25 243.88,-120.75"/>
<text xml:space="preserve" text-anchor="middle" x="196.88" y="-107.25" font-family="Helvetica,sans-Serif" font-size="10.00">IO::Console::alert</text>
</a>
</g>
</g>
<!-- Node1&#45;&gt;Node2 -->
<g id="edge1_Node000001_Node000002" class="edge">
<title>Node1&#45;&gt;Node2</title>
<g id="a_edge1_Node000001_Node000002"><a xlink:title=" ">
<path fill="none" stroke="#63b8ff" d="M80.35,-66.21C98.51,-73.5 124.04,-83.7 146.5,-92.5 150.88,-94.22 155.48,-96 160.04,-97.77"/>
<polygon fill="#63b8ff" stroke="#63b8ff" points="158.48,-100.92 169.07,-101.25 161,-94.39 158.48,-100.92"/>
</a>
</g>
</g>
<!-- Node3 -->
<g id="Node000003" class="node">
<title>Node3</title>
<g id="a_Node000003"><a xlink:href="namespaceIO.html#a30cc77fc5c4d45d3b56ef6a299ce2383" target="_top" xlink:title=" ">
<polygon fill="white" stroke="#666666" points="227,-65.75 166.75,-65.75 166.75,-47.25 227,-47.25 227,-65.75"/>
<text xml:space="preserve" text-anchor="middle" x="196.88" y="-52.25" font-family="Helvetica,sans-Serif" font-size="10.00">IO::format</text>
</a>
</g>
</g>
<!-- Node1&#45;&gt;Node3 -->
<g id="edge2_Node000001_Node000003" class="edge">
<title>Node1&#45;&gt;Node3</title>
<g id="a_edge2_Node000001_Node000003"><a xlink:title=" ">
<path fill="none" stroke="#63b8ff" d="M110.63,-56.5C125.47,-56.5 141.28,-56.5 155.21,-56.5"/>
<polygon fill="#63b8ff" stroke="#63b8ff" points="154.89,-60 164.89,-56.5 154.89,-53 154.89,-60"/>
</a>
</g>
</g>
<!-- Node4 -->
<g id="Node000004" class="node">
<title>Node4</title>
<g id="a_Node000004"><a xlink:href="classIO_1_1Console.html#a6432a263ec2b4a3751b1776d73e2eb6b" target="_top" xlink:title="Toggle the alert logging behavior on or off.">
<polygon fill="white" stroke="#666666" points="247.25,-29 146.5,-29 146.5,0 247.25,0 247.25,-29"/>
<text xml:space="preserve" text-anchor="start" x="154.5" y="-15.5" font-family="Helvetica,sans-Serif" font-size="10.00">IO::Console::toggle</text>
<text xml:space="preserve" text-anchor="middle" x="196.88" y="-5" font-family="Helvetica,sans-Serif" font-size="10.00">_alert</text>
</a>
</g>
</g>
<!-- Node1&#45;&gt;Node4 -->
<g id="edge4_Node000001_Node000004" class="edge">
<title>Node1&#45;&gt;Node4</title>
<g id="a_edge4_Node000001_Node000004"><a xlink:title=" ">
<path fill="none" stroke="#63b8ff" d="M88.63,-46.76C102.51,-42.58 119.19,-37.57 135.21,-32.75"/>
<polygon fill="#63b8ff" stroke="#63b8ff" points="136.14,-36.12 144.71,-29.89 134.12,-29.42 136.14,-36.12"/>
</a>
</g>
</g>
<!-- Node3&#45;&gt;Node3 -->
<g id="edge3_Node000003_Node000003" class="edge">
<title>Node3&#45;&gt;Node3</title>
<g id="a_edge3_Node000003_Node000003"><a xlink:title=" ">
<path fill="none" stroke="#63b8ff" d="M175.05,-66C164.43,-74.57 171.7,-83.75 196.88,-83.75 211.03,-83.75 219.53,-80.84 222.37,-76.78"/>
<polygon fill="#63b8ff" stroke="#63b8ff" points="225.72,-75.77 219.19,-67.43 219.09,-78.02 225.72,-75.77"/>
</a>
</g>
</g>
</g>
</svg>
