<?xml version="1.0" encoding="UTF-8" standalone="no"?>
<!DOCTYPE svg PUBLIC "-//W3C//DTD SVG 1.1//EN"
 "http://www.w3.org/Graphics/SVG/1.1/DTD/svg11.dtd">
<!-- Generated by graphviz version 14.0.1 (0)
 -->
<!-- Title: ExportHandler::pre_post_export Pages: 1 -->
<svg width="237pt" height="178pt"
 viewBox="0.00 0.00 237.00 178.00" xmlns="http://www.w3.org/2000/svg" xmlns:xlink="http://www.w3.org/1999/xlink">
<g id="graph0" class="graph" transform="scale(1 1) rotate(0) translate(4 174)">
<title>ExportHandler::pre_post_export</title>
<!-- Node1 -->
<g id="Node000001" class="node">
<title>Node1</title>
<g id="a_Node000001"><a xlink:title="Prepares and updates the exporter with the current simulation state before/after main loop.">
<polygon fill="#999999" stroke="#666666" points="98.5,-99 0,-99 0,-70 98.5,-70 98.5,-99"/>
<text xml:space="preserve" text-anchor="start" x="8" y="-85.5" font-family="Helvetica,sans-Serif" font-size="10.00">ExportHandler::pre</text>
<text xml:space="preserve" text-anchor="middle" x="49.25" y="-75" font-family="Helvetica,sans-Serif" font-size="10.00">_post_export</text>
</a>
</g>
</g>
<!-- Node2 -->
<g id="Node000002" class="node">
<title>Node2</title>
<g id="a_Node000002"><a xlink:href="classSimulation_1_1Getter.html#aa05e910f612e1029c13e30afd997fd1d" target="_top" xlink:title=" ">
<polygon fill="white" stroke="#666666" points="229.25,-170 134.5,-170 134.5,-141 229.25,-141 229.25,-170"/>
<text xml:space="preserve" text-anchor="start" x="142.5" y="-156.5" font-family="Helvetica,sans-Serif" font-size="10.00">Simulation::Getter</text>
<text xml:space="preserve" text-anchor="middle" x="181.88" y="-146" font-family="Helvetica,sans-Serif" font-size="10.00">::absolute_time</text>
</a>
</g>
</g>
<!-- Node1&#45;&gt;Node2 -->
<g id="edge1_Node000001_Node000002" class="edge">
<title>Node1&#45;&gt;Node2</title>
<g id="a_edge1_Node000001_Node000002"><a xlink:title=" ">
<path fill="none" stroke="#63b8ff" d="M75.48,-99.38C92.11,-109.06 114.44,-121.82 134.5,-132.5 136.4,-133.51 138.36,-134.54 140.34,-135.57"/>
<polygon fill="#63b8ff" stroke="#63b8ff" points="138.47,-138.54 148.97,-139.97 141.65,-132.3 138.47,-138.54"/>
</a>
</g>
</g>
<!-- Node3 -->
<g id="Node000003" class="node">
<title>Node3</title>
<g id="a_Node000003"><a xlink:href="classSimulation_1_1Getter.html#a5018162385dda22e127a8298c2168a4b" target="_top" xlink:title=" ">
<polygon fill="white" stroke="#666666" points="229.25,-123 134.5,-123 134.5,-94 229.25,-94 229.25,-123"/>
<text xml:space="preserve" text-anchor="start" x="142.5" y="-109.5" font-family="Helvetica,sans-Serif" font-size="10.00">Simulation::Getter</text>
<text xml:space="preserve" text-anchor="middle" x="181.88" y="-99" font-family="Helvetica,sans-Serif" font-size="10.00">::getCgasData</text>
</a>
</g>
</g>
<!-- Node1&#45;&gt;Node3 -->
<g id="edge2_Node000001_Node000003" class="edge">
<title>Node1&#45;&gt;Node3</title>
<g id="a_edge2_Node000001_Node000003"><a xlink:title=" ">
<path fill="none" stroke="#63b8ff" d="M98.89,-93.44C106.78,-94.89 115.01,-96.4 123.09,-97.88"/>
<polygon fill="#63b8ff" stroke="#63b8ff" points="122.41,-101.32 132.87,-99.68 123.67,-94.43 122.41,-101.32"/>
</a>
</g>
</g>
<!-- Node4 -->
<g id="Node000004" class="node">
<title>Node4</title>
<g id="a_Node000004"><a xlink:href="classSimulation_1_1Getter.html#affeda285daf139206d57e11daad9cd73" target="_top" xlink:title=" ">
<polygon fill="white" stroke="#666666" points="229.25,-76 134.5,-76 134.5,-47 229.25,-47 229.25,-76"/>
<text xml:space="preserve" text-anchor="start" x="142.5" y="-62.5" font-family="Helvetica,sans-Serif" font-size="10.00">Simulation::Getter</text>
<text xml:space="preserve" text-anchor="middle" x="181.88" y="-52" font-family="Helvetica,sans-Serif" font-size="10.00">::getCliqData</text>
</a>
</g>
</g>
<!-- Node1&#45;&gt;Node4 -->
<g id="edge3_Node000001_Node000004" class="edge">
<title>Node1&#45;&gt;Node4</title>
<g id="a_edge3_Node000001_Node000004"><a xlink:title=" ">
<path fill="none" stroke="#63b8ff" d="M98.89,-75.94C106.78,-74.55 115.01,-73.1 123.09,-71.67"/>
<polygon fill="#63b8ff" stroke="#63b8ff" points="123.63,-75.13 132.87,-69.95 122.42,-68.24 123.63,-75.13"/>
</a>
</g>
</g>
<!-- Node5 -->
<g id="Node000005" class="node">
<title>Node5</title>
<g id="a_Node000005"><a xlink:href="classSimulation_1_1Getter.html#ae6be177c881989ecc4fb7a5ebdfbd9ff" target="_top" xlink:title=" ">
<polygon fill="white" stroke="#666666" points="229.25,-29 134.5,-29 134.5,0 229.25,0 229.25,-29"/>
<text xml:space="preserve" text-anchor="start" x="142.5" y="-15.5" font-family="Helvetica,sans-Serif" font-size="10.00">Simulation::Getter</text>
<text xml:space="preserve" text-anchor="middle" x="181.88" y="-5" font-family="Helvetica,sans-Serif" font-size="10.00">::getMTRData</text>
</a>
</g>
</g>
<!-- Node1&#45;&gt;Node5 -->
<g id="edge4_Node000001_Node000005" class="edge">
<title>Node1&#45;&gt;Node5</title>
<g id="a_edge4_Node000001_Node000005"><a xlink:title=" ">
<path fill="none" stroke="#63b8ff" d="M77.11,-69.64C93.61,-60.55 115.22,-48.75 134.5,-38.5 136.86,-37.24 139.3,-35.96 141.76,-34.66"/>
<polygon fill="#63b8ff" stroke="#63b8ff" points="143.29,-37.81 150.54,-30.08 140.05,-31.61 143.29,-37.81"/>
</a>
</g>
</g>
</g>
</svg>
