<?xml version="1.0" encoding="UTF-8" standalone="no"?>
<!DOCTYPE svg PUBLIC "-//W3C//DTD SVG 1.1//EN"
 "http://www.w3.org/Graphics/SVG/1.1/DTD/svg11.dtd">
<!-- Generated by graphviz version 14.0.1 (0)
 -->
<!-- Title: Core::GlobalInitialiser::mpi_broadcast Pages: 1 -->
<svg width="409pt" height="101pt"
 viewBox="0.00 0.00 409.00 101.00" xmlns="http://www.w3.org/2000/svg" xmlns:xlink="http://www.w3.org/1999/xlink">
<g id="graph0" class="graph" transform="scale(1 1) rotate(0) translate(4 96.5)">
<title>Core::GlobalInitialiser::mpi_broadcast</title>
<!-- Node1 -->
<g id="Node000001" class="node">
<title>Node1</title>
<g id="a_Node000001"><a xlink:title="Performs MPI broadcast for synchronization.">
<polygon fill="#999999" stroke="#666666" points="109.75,-60.75 0,-60.75 0,-31.75 109.75,-31.75 109.75,-60.75"/>
<text xml:space="preserve" text-anchor="start" x="8" y="-47.25" font-family="Helvetica,sans-Serif" font-size="10.00">Core::GlobalInitialiser</text>
<text xml:space="preserve" text-anchor="middle" x="54.88" y="-36.75" font-family="Helvetica,sans-Serif" font-size="10.00">::mpi_broadcast</text>
</a>
</g>
</g>
<!-- Node2 -->
<g id="Node000002" class="node">
<title>Node2</title>
<g id="a_Node000002"><a xlink:href="namespaceWrapMPI.html#a1a08bbe69602ac2f4f38e1a0d45275cb" target="_top" xlink:title=" ">
<polygon fill="white" stroke="#666666" points="242.38,-92.5 153.62,-92.5 153.62,-74 242.38,-74 242.38,-92.5"/>
<text xml:space="preserve" text-anchor="middle" x="198" y="-79" font-family="Helvetica,sans-Serif" font-size="10.00">WrapMPI::barrier</text>
</a>
</g>
</g>
<!-- Node1&#45;&gt;Node2 -->
<g id="edge1_Node000001_Node000002" class="edge">
<title>Node1&#45;&gt;Node2</title>
<g id="a_edge1_Node000001_Node000002"><a xlink:title=" ">
<path fill="none" stroke="#63b8ff" d="M110.03,-60.45C122.77,-63.79 136.26,-67.33 148.72,-70.59"/>
<polygon fill="#63b8ff" stroke="#63b8ff" points="147.79,-73.97 158.35,-73.12 149.57,-67.2 147.79,-73.97"/>
</a>
</g>
</g>
<!-- Node3 -->
<g id="Node000003" class="node">
<title>Node3</title>
<g id="a_Node000003"><a xlink:href="namespaceWrapMPI.html#aa924ad0d911109a9e6e3a20bebc3b316" target="_top" xlink:title=" ">
<polygon fill="white" stroke="#666666" points="401.25,-73.5 286.25,-73.5 286.25,-55 401.25,-55 401.25,-73.5"/>
<text xml:space="preserve" text-anchor="middle" x="343.75" y="-60" font-family="Helvetica,sans-Serif" font-size="10.00">WrapMPI::critical_error</text>
</a>
</g>
</g>
<!-- Node1&#45;&gt;Node3 -->
<g id="edge5_Node000001_Node000003" class="edge">
<title>Node1&#45;&gt;Node3</title>
<g id="a_edge5_Node000001_Node000003"><a xlink:title=" ">
<path fill="none" stroke="#63b8ff" d="M110.17,-49.66C156.89,-52.59 224.51,-56.83 274.8,-59.99"/>
<polygon fill="#63b8ff" stroke="#63b8ff" points="274.51,-63.48 284.71,-60.61 274.95,-56.49 274.51,-63.48"/>
</a>
</g>
</g>
<!-- Node4 -->
<g id="Node000004" class="node">
<title>Node4</title>
<g id="a_Node000004"><a xlink:href="namespaceWrapMPI.html#a372df5351a2085df252cc9f4cceae7de" target="_top" xlink:title="Broadcasts a single data item to all processes.">
<polygon fill="white" stroke="#666666" points="250.25,-18.5 145.75,-18.5 145.75,0 250.25,0 250.25,-18.5"/>
<text xml:space="preserve" text-anchor="middle" x="198" y="-5" font-family="Helvetica,sans-Serif" font-size="10.00">WrapMPI::broadcast</text>
</a>
</g>
</g>
<!-- Node1&#45;&gt;Node4 -->
<g id="edge3_Node000001_Node000004" class="edge">
<title>Node1&#45;&gt;Node4</title>
<g id="a_edge3_Node000001_Node000004"><a xlink:title=" ">
<path fill="none" stroke="#63b8ff" d="M110.03,-32.05C122.77,-28.71 136.26,-25.17 148.72,-21.91"/>
<polygon fill="#63b8ff" stroke="#63b8ff" points="149.57,-25.3 158.35,-19.38 147.79,-18.53 149.57,-25.3"/>
</a>
</g>
</g>
<!-- Node2&#45;&gt;Node3 -->
<g id="edge2_Node000002_Node000003" class="edge">
<title>Node2&#45;&gt;Node3</title>
<g id="a_edge2_Node000002_Node000003"><a xlink:title=" ">
<path fill="none" stroke="#63b8ff" d="M242.52,-77.5C252.64,-76.16 263.65,-74.7 274.55,-73.26"/>
<polygon fill="#63b8ff" stroke="#63b8ff" points="274.87,-76.75 284.33,-71.97 273.95,-69.81 274.87,-76.75"/>
</a>
</g>
</g>
<!-- Node5 -->
<g id="Node000005" class="node">
<title>Node5</title>
<g id="a_Node000005"><a xlink:href="namespaceWrapMPI.html#adab3300a86b8c0227268b23134b57a24" target="_top" xlink:title=" ">
<polygon fill="white" stroke="#666666" points="393.38,-18.5 294.12,-18.5 294.12,0 393.38,0 393.38,-18.5"/>
<text xml:space="preserve" text-anchor="middle" x="343.75" y="-5" font-family="Helvetica,sans-Serif" font-size="10.00">WrapMPI::get_type</text>
</a>
</g>
</g>
<!-- Node4&#45;&gt;Node5 -->
<g id="edge4_Node000004_Node000005" class="edge">
<title>Node4&#45;&gt;Node5</title>
<g id="a_edge4_Node000004_Node000005"><a xlink:title=" ">
<path fill="none" stroke="#63b8ff" d="M250.49,-9.25C260.9,-9.25 271.94,-9.25 282.62,-9.25"/>
<polygon fill="#63b8ff" stroke="#63b8ff" points="282.51,-12.75 292.51,-9.25 282.51,-5.75 282.51,-12.75"/>
</a>
</g>
</g>
</g>
</svg>
