<?xml version="1.0" encoding="UTF-8" standalone="no"?>
<!DOCTYPE svg PUBLIC "-//W3C//DTD SVG 1.1//EN"
 "http://www.w3.org/Graphics/SVG/1.1/DTD/svg11.dtd">
<!-- Generated by graphviz version 14.0.1 (0)
 -->
<!-- Title: MC::ReactorDomain::getNumberCompartments Pages: 1 -->
<svg width="371pt" height="121pt"
 viewBox="0.00 0.00 371.00 121.00" xmlns="http://www.w3.org/2000/svg" xmlns:xlink="http://www.w3.org/1999/xlink">
<g id="graph0" class="graph" transform="scale(1 1) rotate(0) translate(4 116.75)">
<title>MC::ReactorDomain::getNumberCompartments</title>
<!-- Node1 -->
<g id="Node000001" class="node">
<title>Node1</title>
<g id="a_Node000001"><a xlink:title="Return the number of compartment in the domain.">
<polygon fill="#999999" stroke="#666666" points="363,-76 233.75,-76 233.75,-47 363,-47 363,-76"/>
<text xml:space="preserve" text-anchor="start" x="241.75" y="-62.5" font-family="Helvetica,sans-Serif" font-size="10.00">MC::ReactorDomain::</text>
<text xml:space="preserve" text-anchor="middle" x="298.38" y="-52" font-family="Helvetica,sans-Serif" font-size="10.00">getNumberCompartments</text>
</a>
</g>
</g>
<!-- Node2 -->
<g id="Node000002" class="node">
<title>Node2</title>
<g id="a_Node000002"><a xlink:href="namespaceMC.html#aabb3d28b6ac38413f8d34f525d26942f" target="_top" xlink:title=" ">
<polygon fill="white" stroke="#666666" points="179,-112.75 105.25,-112.75 105.25,-94.25 179,-94.25 179,-112.75"/>
<text xml:space="preserve" text-anchor="middle" x="142.12" y="-99.25" font-family="Helvetica,sans-Serif" font-size="10.00">MC::impl_init</text>
</a>
</g>
</g>
<!-- Node1&#45;&gt;Node2 -->
<g id="edge1_Node000001_Node000002" class="edge">
<title>Node1&#45;&gt;Node2</title>
<g id="a_edge1_Node000001_Node000002"><a xlink:title=" ">
<path fill="none" stroke="#63b8ff" d="M231.65,-79.4C213.4,-84.36 194.28,-89.57 178.5,-93.87"/>
<polygon fill="#63b8ff" stroke="#63b8ff" points="232.37,-82.83 241.1,-76.82 230.53,-76.07 232.37,-82.83"/>
</a>
</g>
</g>
<!-- Node4 -->
<g id="Node000004" class="node">
<title>Node4</title>
<g id="a_Node000004"><a xlink:href="classMC_1_1ReactorDomain.html#ab8227f7cb4e6e748e7ab06c31233712a" target="_top" xlink:title=" ">
<polygon fill="white" stroke="#666666" points="197.75,-76 86.5,-76 86.5,-47 197.75,-47 197.75,-76"/>
<text xml:space="preserve" text-anchor="start" x="94.5" y="-62.5" font-family="Helvetica,sans-Serif" font-size="10.00">MC::ReactorDomain::</text>
<text xml:space="preserve" text-anchor="middle" x="142.12" y="-52" font-family="Helvetica,sans-Serif" font-size="10.00">init_inner</text>
</a>
</g>
</g>
<!-- Node1&#45;&gt;Node4 -->
<g id="edge3_Node000001_Node000004" class="edge">
<title>Node1&#45;&gt;Node4</title>
<g id="a_edge3_Node000001_Node000004"><a xlink:title=" ">
<path fill="none" stroke="#63b8ff" d="M221.91,-61.5C213.82,-61.5 205.71,-61.5 197.92,-61.5"/>
<polygon fill="#63b8ff" stroke="#63b8ff" points="221.79,-65 231.79,-61.5 221.79,-58 221.79,-65"/>
</a>
</g>
</g>
<!-- Node5 -->
<g id="Node000005" class="node">
<title>Node5</title>
<g id="a_Node000005"><a xlink:href="classMC_1_1ReactorDomain.html#a0b2fc75ebc4dff8a7eaf9d5b3a349aff" target="_top" xlink:title=" ">
<polygon fill="white" stroke="#666666" points="197.75,-29 86.5,-29 86.5,0 197.75,0 197.75,-29"/>
<text xml:space="preserve" text-anchor="start" x="94.5" y="-15.5" font-family="Helvetica,sans-Serif" font-size="10.00">MC::ReactorDomain::</text>
<text xml:space="preserve" text-anchor="middle" x="142.12" y="-5" font-family="Helvetica,sans-Serif" font-size="10.00">update</text>
</a>
</g>
</g>
<!-- Node1&#45;&gt;Node5 -->
<g id="edge4_Node000001_Node000005" class="edge">
<title>Node1&#45;&gt;Node5</title>
<g id="a_edge4_Node000001_Node000005"><a xlink:title=" ">
<path fill="none" stroke="#63b8ff" d="M237.78,-43.34C222.69,-38.74 206.65,-33.86 192.14,-29.44"/>
<polygon fill="#63b8ff" stroke="#63b8ff" points="236.54,-46.62 247.12,-46.19 238.58,-39.92 236.54,-46.62"/>
</a>
</g>
</g>
<!-- Node3 -->
<g id="Node000003" class="node">
<title>Node3</title>
<g id="a_Node000003"><a xlink:href="namespaceMC.html#a321fdcab9f09e8611b6f76b834d4ba4b" target="_top" xlink:title="Helper function to initialize a MonteCarloUnit.">
<polygon fill="white" stroke="#666666" points="50.5,-112.75 0,-112.75 0,-94.25 50.5,-94.25 50.5,-112.75"/>
<text xml:space="preserve" text-anchor="middle" x="25.25" y="-99.25" font-family="Helvetica,sans-Serif" font-size="10.00">MC::init</text>
</a>
</g>
</g>
<!-- Node2&#45;&gt;Node3 -->
<g id="edge2_Node000002_Node000003" class="edge">
<title>Node2&#45;&gt;Node3</title>
<g id="a_edge2_Node000002_Node000003"><a xlink:title=" ">
<path fill="none" stroke="#63b8ff" d="M93.3,-103.5C78.65,-103.5 63.16,-103.5 50.75,-103.5"/>
<polygon fill="#63b8ff" stroke="#63b8ff" points="93.26,-107 103.26,-103.5 93.26,-100 93.26,-107"/>
</a>
</g>
</g>
</g>
</svg>
