<?xml version="1.0" encoding="UTF-8" standalone="no"?>
<!DOCTYPE svg PUBLIC "-//W3C//DTD SVG 1.1//EN"
 "http://www.w3.org/Graphics/SVG/1.1/DTD/svg11.dtd">
<!-- Generated by graphviz version 14.0.1 (0)
 -->
<!-- Title: CmaUtils::FlowMapTransitionner::get_unchecked Pages: 1 -->
<svg width="945pt" height="120pt"
 viewBox="0.00 0.00 945.00 120.00" xmlns="http://www.w3.org/2000/svg" xmlns:xlink="http://www.w3.org/1999/xlink">
<g id="graph0" class="graph" transform="scale(1 1) rotate(0) translate(4 116)">
<title>CmaUtils::FlowMapTransitionner::get_unchecked</title>
<!-- Node1 -->
<g id="Node000001" class="node">
<title>Node1</title>
<g id="a_Node000001"><a xlink:title="Direct read state from iterator.">
<polygon fill="#999999" stroke="#666666" points="936.5,-70 778,-70 778,-41 936.5,-41 936.5,-70"/>
<text xml:space="preserve" text-anchor="start" x="786" y="-56.5" font-family="Helvetica,sans-Serif" font-size="10.00">CmaUtils::FlowMapTransitionner</text>
<text xml:space="preserve" text-anchor="middle" x="857.25" y="-46" font-family="Helvetica,sans-Serif" font-size="10.00">::get_unchecked</text>
</a>
</g>
</g>
<!-- Node2 -->
<g id="Node000002" class="node">
<title>Node2</title>
<g id="a_Node000002"><a xlink:href="classCmaUtils_1_1FlowMapTransitionner.html#a3dc7a76f36a1a0ada35bb8d1ca8f512c" target="_top" xlink:title="Get current gas state read from CmaRead.">
<polygon fill="white" stroke="#666666" points="742,-94 583.5,-94 583.5,-65 742,-65 742,-94"/>
<text xml:space="preserve" text-anchor="start" x="591.5" y="-80.5" font-family="Helvetica,sans-Serif" font-size="10.00">CmaUtils::FlowMapTransitionner</text>
<text xml:space="preserve" text-anchor="middle" x="662.75" y="-70" font-family="Helvetica,sans-Serif" font-size="10.00">::current_gas_hydro_state</text>
</a>
</g>
</g>
<!-- Node1&#45;&gt;Node2 -->
<g id="edge1_Node000001_Node000002" class="edge">
<title>Node1&#45;&gt;Node2</title>
<g id="a_edge1_Node000001_Node000002"><a xlink:title=" ">
<path fill="none" stroke="#63b8ff" d="M766.4,-66.7C758.38,-67.7 750.3,-68.71 742.39,-69.7"/>
<polygon fill="#63b8ff" stroke="#63b8ff" points="766.68,-70.19 776.17,-65.48 765.82,-63.25 766.68,-70.19"/>
</a>
</g>
</g>
<!-- Node7 -->
<g id="Node000007" class="node">
<title>Node7</title>
<g id="a_Node000007"><a xlink:href="classCmaUtils_1_1DiscontinuousFMT.html#afb3fcc676bcb57682b6fc6e4658e7ae0" target="_top" xlink:title="Provides a const reference to the current reactor state.">
<polygon fill="white" stroke="#666666" points="735.62,-47 589.88,-47 589.88,-18 735.62,-18 735.62,-47"/>
<text xml:space="preserve" text-anchor="start" x="597.88" y="-33.5" font-family="Helvetica,sans-Serif" font-size="10.00">CmaUtils::DiscontinuousFMT</text>
<text xml:space="preserve" text-anchor="middle" x="662.75" y="-23" font-family="Helvetica,sans-Serif" font-size="10.00">::get_current_reactor_state</text>
</a>
</g>
</g>
<!-- Node1&#45;&gt;Node7 -->
<g id="edge9_Node000001_Node000007" class="edge">
<title>Node1&#45;&gt;Node7</title>
<g id="a_edge9_Node000001_Node000007"><a xlink:title=" ">
<path fill="none" stroke="#63b8ff" d="M766.24,-44.75C756.06,-43.53 745.79,-42.3 735.88,-41.12"/>
<polygon fill="#63b8ff" stroke="#63b8ff" points="765.83,-48.22 776.17,-45.93 766.66,-41.27 765.83,-48.22"/>
</a>
</g>
</g>
<!-- Node2&#45;&gt;Node2 -->
<g id="edge8_Node000002_Node000002" class="edge">
<title>Node2&#45;&gt;Node2</title>
<g id="a_edge8_Node000002_Node000002"><a xlink:title=" ">
<path fill="none" stroke="#63b8ff" d="M695.76,-105.56C690.58,-109.41 679.58,-112 662.75,-112 631.98,-112 620.68,-103.32 628.85,-94.21"/>
<polygon fill="#63b8ff" stroke="#63b8ff" points="699.24,-105.96 696.53,-95.72 692.26,-105.41 699.24,-105.96"/>
</a>
</g>
</g>
<!-- Node3 -->
<g id="Node000003" class="node">
<title>Node3</title>
<g id="a_Node000003"><a xlink:href="classCmaUtils_1_1FlowMapTransitionner.html#a52f9717655f1b6aa9891b6c23cc6bf3f" target="_top" xlink:title="Operation required by all methods in order to perform advance function .">
<polygon fill="white" stroke="#666666" points="547.5,-94 389,-94 389,-65 547.5,-65 547.5,-94"/>
<text xml:space="preserve" text-anchor="start" x="397" y="-80.5" font-family="Helvetica,sans-Serif" font-size="10.00">CmaUtils::FlowMapTransitionner</text>
<text xml:space="preserve" text-anchor="middle" x="468.25" y="-70" font-family="Helvetica,sans-Serif" font-size="10.00">::common_advance</text>
</a>
</g>
</g>
<!-- Node2&#45;&gt;Node3 -->
<g id="edge2_Node000002_Node000003" class="edge">
<title>Node2&#45;&gt;Node3</title>
<g id="a_edge2_Node000002_Node000003"><a xlink:title=" ">
<path fill="none" stroke="#63b8ff" d="M571.9,-79.5C563.88,-79.5 555.8,-79.5 547.89,-79.5"/>
<polygon fill="#63b8ff" stroke="#63b8ff" points="571.66,-83 581.66,-79.5 571.66,-76 571.66,-83"/>
</a>
</g>
</g>
<!-- Node4 -->
<g id="Node000004" class="node">
<title>Node4</title>
<g id="a_Node000004"><a xlink:href="classCmaUtils_1_1FlowMapTransitionner.html#aa66bfc8d6b4f0890630a5a20b4664956" target="_top" xlink:title="Advances the simulation by one timestep.">
<polygon fill="white" stroke="#666666" points="158.5,-83 0,-83 0,-54 158.5,-54 158.5,-83"/>
<text xml:space="preserve" text-anchor="start" x="8" y="-69.5" font-family="Helvetica,sans-Serif" font-size="10.00">CmaUtils::FlowMapTransitionner</text>
<text xml:space="preserve" text-anchor="middle" x="79.25" y="-59" font-family="Helvetica,sans-Serif" font-size="10.00">::advance</text>
</a>
</g>
</g>
<!-- Node3&#45;&gt;Node4 -->
<g id="edge3_Node000003_Node000004" class="edge">
<title>Node3&#45;&gt;Node4</title>
<g id="a_edge3_Node000003_Node000004"><a xlink:title=" ">
<path fill="none" stroke="#63b8ff" d="M396.2,-96.8C381.98,-99.59 367.08,-102.04 353,-103.5 282.93,-110.78 264.17,-113.93 194.5,-103.5 168.65,-99.63 140.57,-91.09 118.72,-83.42"/>
<polygon fill="#63b8ff" stroke="#63b8ff" points="396.86,-100.23 405.95,-94.8 395.45,-93.38 396.86,-100.23"/>
</a>
</g>
</g>
<!-- Node5 -->
<g id="Node000005" class="node">
<title>Node5</title>
<g id="a_Node000005"><a xlink:href="classCmaUtils_1_1FlowMapTransitionner.html#ae189e6d1156fa712175a8673e332c480" target="_top" xlink:title="Advances the simulation by one timestep from a MPI Wroker.">
<polygon fill="white" stroke="#666666" points="353,-94 194.5,-94 194.5,-65 353,-65 353,-94"/>
<text xml:space="preserve" text-anchor="start" x="202.5" y="-80.5" font-family="Helvetica,sans-Serif" font-size="10.00">CmaUtils::FlowMapTransitionner</text>
<text xml:space="preserve" text-anchor="middle" x="273.75" y="-70" font-family="Helvetica,sans-Serif" font-size="10.00">::advance_worker</text>
</a>
</g>
</g>
<!-- Node3&#45;&gt;Node5 -->
<g id="edge4_Node000003_Node000005" class="edge">
<title>Node3&#45;&gt;Node5</title>
<g id="a_edge4_Node000003_Node000005"><a xlink:title=" ">
<path fill="none" stroke="#63b8ff" d="M377.4,-79.5C369.38,-79.5 361.3,-79.5 353.39,-79.5"/>
<polygon fill="#63b8ff" stroke="#63b8ff" points="377.16,-83 387.16,-79.5 377.16,-76 377.16,-83"/>
</a>
</g>
</g>
<!-- Node6 -->
<g id="Node000006" class="node">
<title>Node6</title>
<g id="a_Node000006"><a xlink:href="classCmaUtils_1_1FlowMapTransitionner.html#a8b4b87c5ab55650fa16ff5be9f43a609" target="_top" xlink:title="Provides a const reference to the current reactor state.">
<polygon fill="white" stroke="#666666" points="353,-29 194.5,-29 194.5,0 353,0 353,-29"/>
<text xml:space="preserve" text-anchor="start" x="202.5" y="-15.5" font-family="Helvetica,sans-Serif" font-size="10.00">CmaUtils::FlowMapTransitionner</text>
<text xml:space="preserve" text-anchor="middle" x="273.75" y="-5" font-family="Helvetica,sans-Serif" font-size="10.00">::get_current_reactor_state</text>
</a>
</g>
</g>
<!-- Node3&#45;&gt;Node6 -->
<g id="edge5_Node000003_Node000006" class="edge">
<title>Node3&#45;&gt;Node6</title>
<g id="a_edge5_Node000003_Node000006"><a xlink:title=" ">
<path fill="none" stroke="#63b8ff" d="M403.62,-61.18C398.66,-59.64 393.74,-58.07 389,-56.5 363.62,-48.11 335.42,-37.76 313.39,-29.43"/>
<polygon fill="#63b8ff" stroke="#63b8ff" points="402.45,-64.49 413.04,-64.07 404.5,-57.79 402.45,-64.49"/>
</a>
</g>
</g>
<!-- Node6&#45;&gt;Node4 -->
<g id="edge6_Node000006_Node000004" class="edge">
<title>Node6&#45;&gt;Node4</title>
<g id="a_edge6_Node000006_Node000004"><a xlink:title=" ">
<path fill="none" stroke="#63b8ff" d="M208.48,-32.53C184.21,-39.34 156.89,-47 133.72,-53.5"/>
<polygon fill="#63b8ff" stroke="#63b8ff" points="209.24,-35.95 217.93,-29.88 207.35,-29.21 209.24,-35.95"/>
</a>
</g>
</g>
<!-- Node6&#45;&gt;Node6 -->
<g id="edge7_Node000006_Node000006" class="edge">
<title>Node6&#45;&gt;Node6</title>
<g id="a_edge7_Node000006_Node000006"><a xlink:title=" ">
<path fill="none" stroke="#63b8ff" d="M306.76,-40.56C301.58,-44.41 290.58,-47 273.75,-47 242.98,-47 231.68,-38.32 239.85,-29.21"/>
<polygon fill="#63b8ff" stroke="#63b8ff" points="310.24,-40.96 307.53,-30.72 303.26,-40.41 310.24,-40.96"/>
</a>
</g>
</g>
<!-- Node8 -->
<g id="Node000008" class="node">
<title>Node8</title>
<g id="a_Node000008"><a xlink:href="classCmaUtils_1_1DiscontinuousFMT.html#a5b9b0e3ef2d5812a9e605f1dbb9214d6" target="_top" xlink:title="Calculate the current state based on the selected method, may be caching or direct calculation.">
<polygon fill="white" stroke="#666666" points="541.12,-47 395.38,-47 395.38,-18 541.12,-18 541.12,-47"/>
<text xml:space="preserve" text-anchor="start" x="403.38" y="-33.5" font-family="Helvetica,sans-Serif" font-size="10.00">CmaUtils::DiscontinuousFMT</text>
<text xml:space="preserve" text-anchor="middle" x="468.25" y="-23" font-family="Helvetica,sans-Serif" font-size="10.00">::update_flow</text>
</a>
</g>
</g>
<!-- Node7&#45;&gt;Node8 -->
<g id="edge10_Node000007_Node000008" class="edge">
<title>Node7&#45;&gt;Node8</title>
<g id="a_edge10_Node000007_Node000008"><a xlink:title=" ">
<path fill="none" stroke="#63b8ff" d="M578.37,-32.5C566.11,-32.5 553.57,-32.5 541.56,-32.5"/>
<polygon fill="#63b8ff" stroke="#63b8ff" points="578.01,-36 588.01,-32.5 578.01,-29 578.01,-36"/>
</a>
</g>
</g>
</g>
</svg>
