<?xml version="1.0" encoding="UTF-8" standalone="no"?>
<!DOCTYPE svg PUBLIC "-//W3C//DTD SVG 1.1//EN"
 "http://www.w3.org/Graphics/SVG/1.1/DTD/svg11.dtd">
<!-- Generated by graphviz version 14.0.1 (0)
 -->
<!-- Title: Simulation::SimulationUnit::cycleProcess Pages: 1 -->
<svg width="816pt" height="291pt"
 viewBox="0.00 0.00 816.00 291.00" xmlns="http://www.w3.org/2000/svg" xmlns:xlink="http://www.w3.org/1999/xlink">
<g id="graph0" class="graph" transform="scale(1 1) rotate(0) translate(4 287)">
<title>Simulation::SimulationUnit::cycleProcess</title>
<!-- Node1 -->
<g id="Node000001" class="node">
<title>Node1</title>
<g id="a_Node000001"><a xlink:title=" ">
<polygon fill="#999999" stroke="#666666" points="131.5,-123 0,-123 0,-94 131.5,-94 131.5,-123"/>
<text xml:space="preserve" text-anchor="start" x="8" y="-109.5" font-family="Helvetica,sans-Serif" font-size="10.00">Simulation::SimulationUnit</text>
<text xml:space="preserve" text-anchor="middle" x="65.75" y="-99" font-family="Helvetica,sans-Serif" font-size="10.00">::cycleProcess</text>
</a>
</g>
</g>
<!-- Node2 -->
<g id="Node000002" class="node">
<title>Node2</title>
<g id="a_Node000002"><a xlink:href="classSimulation_1_1SimulationUnit.html#a96e8f3fbde370c918a3710b0b910cd42" target="_top" xlink:title=" ">
<polygon fill="white" stroke="#666666" points="299,-170 167.5,-170 167.5,-141 299,-141 299,-170"/>
<text xml:space="preserve" text-anchor="start" x="175.5" y="-156.5" font-family="Helvetica,sans-Serif" font-size="10.00">Simulation::SimulationUnit</text>
<text xml:space="preserve" text-anchor="middle" x="233.25" y="-146" font-family="Helvetica,sans-Serif" font-size="10.00">::post_cycle</text>
</a>
</g>
</g>
<!-- Node1&#45;&gt;Node2 -->
<g id="edge1_Node000001_Node000002" class="edge">
<title>Node1&#45;&gt;Node2</title>
<g id="a_edge1_Node000001_Node000002"><a xlink:title=" ">
<path fill="none" stroke="#63b8ff" d="M119.12,-123.37C134.96,-127.87 152.54,-132.86 169.02,-137.54"/>
<polygon fill="#63b8ff" stroke="#63b8ff" points="167.63,-140.79 178.2,-140.15 169.54,-134.05 167.63,-140.79"/>
</a>
</g>
</g>
<!-- Node11 -->
<g id="Node000011" class="node">
<title>Node11</title>
<g id="a_Node000011"><a xlink:href="classSimulation_1_1SimulationUnit.html#ad984b5d95455d6db475d8b6e20077a0c" target="_top" xlink:title=" ">
<polygon fill="white" stroke="#666666" points="299,-76 167.5,-76 167.5,-47 299,-47 299,-76"/>
<text xml:space="preserve" text-anchor="start" x="175.5" y="-62.5" font-family="Helvetica,sans-Serif" font-size="10.00">Simulation::SimulationUnit</text>
<text xml:space="preserve" text-anchor="middle" x="233.25" y="-52" font-family="Helvetica,sans-Serif" font-size="10.00">::pre_cycle</text>
</a>
</g>
</g>
<!-- Node1&#45;&gt;Node11 -->
<g id="edge11_Node000001_Node000011" class="edge">
<title>Node1&#45;&gt;Node11</title>
<g id="a_edge11_Node000001_Node000011"><a xlink:title=" ">
<path fill="none" stroke="#63b8ff" d="M119.12,-93.63C134.96,-89.13 152.54,-84.14 169.02,-79.46"/>
<polygon fill="#63b8ff" stroke="#63b8ff" points="169.54,-82.95 178.2,-76.85 167.63,-76.21 169.54,-82.95"/>
</a>
</g>
</g>
<!-- Node3 -->
<g id="Node000003" class="node">
<title>Node3</title>
<g id="a_Node000003"><a xlink:href="classMC_1_1ParticlesContainer.html#a8e95993fb1287c04427780d6372be565" target="_top" xlink:title="Insert particle buffer into the main container.">
<polygon fill="white" stroke="#666666" points="468,-264 349.25,-264 349.25,-235 468,-235 468,-264"/>
<text xml:space="preserve" text-anchor="start" x="357.25" y="-250.5" font-family="Helvetica,sans-Serif" font-size="10.00">MC::ParticlesContainer</text>
<text xml:space="preserve" text-anchor="middle" x="408.62" y="-240" font-family="Helvetica,sans-Serif" font-size="10.00">::merge_buffer</text>
</a>
</g>
</g>
<!-- Node2&#45;&gt;Node3 -->
<g id="edge2_Node000002_Node000003" class="edge">
<title>Node2&#45;&gt;Node3</title>
<g id="a_edge2_Node000002_Node000003"><a xlink:title=" ">
<path fill="none" stroke="#63b8ff" d="M251.75,-170.38C271.05,-186.16 303.56,-210.91 335,-226.5 337.74,-227.86 340.57,-229.16 343.47,-230.4"/>
<polygon fill="#63b8ff" stroke="#63b8ff" points="342.13,-233.63 352.72,-234.08 344.72,-227.13 342.13,-233.63"/>
</a>
</g>
</g>
<!-- Node6 -->
<g id="Node000006" class="node">
<title>Node6</title>
<g id="a_Node000006"><a xlink:href="classSimulation_1_1SimulationUnit.html#ae2077067788b0cb0535c62933724a1cf" target="_top" xlink:title=" ">
<polygon fill="white" stroke="#666666" points="474.38,-217 342.88,-217 342.88,-188 474.38,-188 474.38,-217"/>
<text xml:space="preserve" text-anchor="start" x="350.88" y="-203.5" font-family="Helvetica,sans-Serif" font-size="10.00">Simulation::SimulationUnit</text>
<text xml:space="preserve" text-anchor="middle" x="408.62" y="-193" font-family="Helvetica,sans-Serif" font-size="10.00">::scatter_contribute</text>
</a>
</g>
</g>
<!-- Node2&#45;&gt;Node6 -->
<g id="edge5_Node000002_Node000006" class="edge">
<title>Node2&#45;&gt;Node6</title>
<g id="a_edge5_Node000002_Node000006"><a xlink:title=" ">
<path fill="none" stroke="#63b8ff" d="M289.11,-170.37C305.87,-174.91 324.47,-179.96 341.87,-184.68"/>
<polygon fill="#63b8ff" stroke="#63b8ff" points="340.5,-187.93 351.07,-187.17 342.33,-181.17 340.5,-187.93"/>
</a>
</g>
</g>
<!-- Node8 -->
<g id="Node000008" class="node">
<title>Node8</title>
<g id="a_Node000008"><a xlink:href="classSimulation_1_1SimulationUnit.html#ac396f393b4cf318b38364c5067254c80" target="_top" xlink:title=" ">
<polygon fill="white" stroke="#666666" points="480.38,-170 336.88,-170 336.88,-141 480.38,-141 480.38,-170"/>
<text xml:space="preserve" text-anchor="start" x="344.88" y="-156.5" font-family="Helvetica,sans-Serif" font-size="10.00">Simulation::SimulationUnit</text>
<text xml:space="preserve" text-anchor="middle" x="408.62" y="-146" font-family="Helvetica,sans-Serif" font-size="10.00">::set_kernel_contribs_to_host</text>
</a>
</g>
</g>
<!-- Node2&#45;&gt;Node8 -->
<g id="edge7_Node000002_Node000008" class="edge">
<title>Node2&#45;&gt;Node8</title>
<g id="a_edge7_Node000002_Node000008"><a xlink:title=" ">
<path fill="none" stroke="#63b8ff" d="M299.3,-155.5C307.72,-155.5 316.43,-155.5 325.08,-155.5"/>
<polygon fill="#63b8ff" stroke="#63b8ff" points="324.88,-159 334.88,-155.5 324.88,-152 324.88,-159"/>
</a>
</g>
</g>
<!-- Node9 -->
<g id="Node000009" class="node">
<title>Node9</title>
<g id="a_Node000009"><a xlink:href="classMC_1_1ParticlesContainer.html#a0047f4c96b02ae4aeb9ebd8963129687" target="_top" xlink:title="Update the number of non&#45;idle particle and remove if total number exceeds threshold May call : remove...">
<polygon fill="white" stroke="#666666" points="482.25,-123 335,-123 335,-94 482.25,-94 482.25,-123"/>
<text xml:space="preserve" text-anchor="start" x="343" y="-109.5" font-family="Helvetica,sans-Serif" font-size="10.00">MC::ParticlesContainer</text>
<text xml:space="preserve" text-anchor="middle" x="408.62" y="-99" font-family="Helvetica,sans-Serif" font-size="10.00">::update_and_remove_inactive</text>
</a>
</g>
</g>
<!-- Node2&#45;&gt;Node9 -->
<g id="edge8_Node000002_Node000009" class="edge">
<title>Node2&#45;&gt;Node9</title>
<g id="a_edge8_Node000002_Node000009"><a xlink:title=" ">
<path fill="none" stroke="#63b8ff" d="M289.11,-140.63C305.87,-136.09 324.47,-131.04 341.87,-126.32"/>
<polygon fill="#63b8ff" stroke="#63b8ff" points="342.33,-129.83 351.07,-123.83 340.5,-123.07 342.33,-129.83"/>
</a>
</g>
</g>
<!-- Node4 -->
<g id="Node000004" class="node">
<title>Node4</title>
<g id="a_Node000004"><a xlink:href="classMC_1_1ParticlesContainer.html#a57fa06d3225acf04522e3fc2993847f0" target="_top" xlink:title=" ">
<polygon fill="white" stroke="#666666" points="644.88,-283 526.12,-283 526.12,-254 644.88,-254 644.88,-283"/>
<text xml:space="preserve" text-anchor="start" x="534.12" y="-269.5" font-family="Helvetica,sans-Serif" font-size="10.00">MC::ParticlesContainer</text>
<text xml:space="preserve" text-anchor="middle" x="585.5" y="-259" font-family="Helvetica,sans-Serif" font-size="10.00">::__allocate_buffer__</text>
</a>
</g>
</g>
<!-- Node3&#45;&gt;Node4 -->
<g id="edge3_Node000003_Node000004" class="edge">
<title>Node3&#45;&gt;Node4</title>
<g id="a_edge3_Node000003_Node000004"><a xlink:title=" ">
<path fill="none" stroke="#63b8ff" d="M468.34,-255.88C483.19,-257.49 499.29,-259.24 514.63,-260.91"/>
<polygon fill="#63b8ff" stroke="#63b8ff" points="513.82,-264.34 524.14,-261.94 514.57,-257.38 513.82,-264.34"/>
</a>
</g>
</g>
<!-- Node5 -->
<g id="Node000005" class="node">
<title>Node5</title>
<g id="a_Node000005"><a xlink:href="classMC_1_1ParticlesContainer.html#a4fc94ae525191a5d034dce4866986c1e" target="_top" xlink:title=" ">
<polygon fill="white" stroke="#666666" points="807.5,-191 688.75,-191 688.75,-162 807.5,-162 807.5,-191"/>
<text xml:space="preserve" text-anchor="start" x="696.75" y="-177.5" font-family="Helvetica,sans-Serif" font-size="10.00">MC::ParticlesContainer</text>
<text xml:space="preserve" text-anchor="middle" x="748.12" y="-167" font-family="Helvetica,sans-Serif" font-size="10.00">::_resize</text>
</a>
</g>
</g>
<!-- Node3&#45;&gt;Node5 -->
<g id="edge4_Node000003_Node000005" class="edge">
<title>Node3&#45;&gt;Node5</title>
<g id="a_edge4_Node000003_Node000005"><a xlink:title=" ">
<path fill="none" stroke="#63b8ff" d="M468.04,-241.39C517.58,-233.99 590.32,-221.87 652.75,-206.5 666.05,-203.22 680.22,-199.08 693.42,-194.93"/>
<polygon fill="#63b8ff" stroke="#63b8ff" points="694.35,-198.31 702.8,-191.92 692.21,-191.64 694.35,-198.31"/>
</a>
</g>
</g>
<!-- Node7 -->
<g id="Node000007" class="node">
<title>Node7</title>
<g id="a_Node000007"><a xlink:href="classSimulation_1_1SimulationUnit.html#a9ea90cab13d8259f026f57baad1c989f" target="_top" xlink:title=" ">
<polygon fill="white" stroke="#666666" points="651.25,-197 519.75,-197 519.75,-168 651.25,-168 651.25,-197"/>
<text xml:space="preserve" text-anchor="start" x="527.75" y="-183.5" font-family="Helvetica,sans-Serif" font-size="10.00">Simulation::SimulationUnit</text>
<text xml:space="preserve" text-anchor="middle" x="585.5" y="-173" font-family="Helvetica,sans-Serif" font-size="10.00">::get_kernel_contribution</text>
</a>
</g>
</g>
<!-- Node6&#45;&gt;Node7 -->
<g id="edge6_Node000006_Node000007" class="edge">
<title>Node6&#45;&gt;Node7</title>
<g id="a_edge6_Node000006_Node000007"><a xlink:title=" ">
<path fill="none" stroke="#63b8ff" d="M474.74,-195.05C485.55,-193.82 496.85,-192.52 507.91,-191.26"/>
<polygon fill="#63b8ff" stroke="#63b8ff" points="508.29,-194.74 517.82,-190.13 507.49,-187.78 508.29,-194.74"/>
</a>
</g>
</g>
<!-- Node10 -->
<g id="Node000010" class="node">
<title>Node10</title>
<g id="a_Node000010"><a xlink:href="classMC_1_1ParticlesContainer.html#a57353f823ed074869300f29deb5c50b2" target="_top" xlink:title="Removes inactive particles from the container.">
<polygon fill="white" stroke="#666666" points="652.75,-146 518.25,-146 518.25,-117 652.75,-117 652.75,-146"/>
<text xml:space="preserve" text-anchor="start" x="526.25" y="-132.5" font-family="Helvetica,sans-Serif" font-size="10.00">MC::ParticlesContainer</text>
<text xml:space="preserve" text-anchor="middle" x="585.5" y="-122" font-family="Helvetica,sans-Serif" font-size="10.00">::remove_inactive_particles</text>
</a>
</g>
</g>
<!-- Node9&#45;&gt;Node10 -->
<g id="edge9_Node000009_Node000010" class="edge">
<title>Node9&#45;&gt;Node10</title>
<g id="a_edge9_Node000009_Node000010"><a xlink:title=" ">
<path fill="none" stroke="#63b8ff" d="M482.52,-118.09C490.48,-119.13 498.61,-120.2 506.63,-121.26"/>
<polygon fill="#63b8ff" stroke="#63b8ff" points="506,-124.7 516.37,-122.54 506.91,-117.76 506,-124.7"/>
</a>
</g>
</g>
<!-- Node10&#45;&gt;Node5 -->
<g id="edge10_Node000010_Node000005" class="edge">
<title>Node10&#45;&gt;Node5</title>
<g id="a_edge10_Node000010_Node000005"><a xlink:title=" ">
<path fill="none" stroke="#63b8ff" d="M639.99,-146.48C653.73,-150.34 668.66,-154.52 682.89,-158.5"/>
<polygon fill="#63b8ff" stroke="#63b8ff" points="681.57,-161.77 692.14,-161.1 683.46,-155.03 681.57,-161.77"/>
</a>
</g>
</g>
<!-- Node12 -->
<g id="Node000012" class="node">
<title>Node12</title>
<g id="a_Node000012"><a xlink:href="classSimulation_1_1SimulationUnit.html#ac3b83e6fb1638ace3cbfa35833c1affc" target="_top" xlink:title=" ">
<polygon fill="white" stroke="#666666" points="482.25,-76 335,-76 335,-47 482.25,-47 482.25,-76"/>
<text xml:space="preserve" text-anchor="start" x="343" y="-62.5" font-family="Helvetica,sans-Serif" font-size="10.00">Simulation::SimulationUnit</text>
<text xml:space="preserve" text-anchor="middle" x="408.62" y="-52" font-family="Helvetica,sans-Serif" font-size="10.00">::get_kernel_cumulative_proba</text>
</a>
</g>
</g>
<!-- Node11&#45;&gt;Node12 -->
<g id="edge12_Node000011_Node000012" class="edge">
<title>Node11&#45;&gt;Node12</title>
<g id="a_edge12_Node000011_Node000012"><a xlink:title=" ">
<path fill="none" stroke="#63b8ff" d="M299.3,-61.5C307.14,-61.5 315.23,-61.5 323.29,-61.5"/>
<polygon fill="#63b8ff" stroke="#63b8ff" points="323.13,-65 333.13,-61.5 323.13,-58 323.13,-65"/>
</a>
</g>
</g>
<!-- Node13 -->
<g id="Node000013" class="node">
<title>Node13</title>
<g id="a_Node000013"><a xlink:href="classSimulation_1_1SimulationUnit.html#a7f871ecc4425caa53838c0a620f3d686" target="_top" xlink:title=" ">
<polygon fill="white" stroke="#666666" points="474.38,-29 342.88,-29 342.88,0 474.38,0 474.38,-29"/>
<text xml:space="preserve" text-anchor="start" x="350.88" y="-15.5" font-family="Helvetica,sans-Serif" font-size="10.00">Simulation::SimulationUnit</text>
<text xml:space="preserve" text-anchor="middle" x="408.62" y="-5" font-family="Helvetica,sans-Serif" font-size="10.00">::get_kernel_diagonal</text>
</a>
</g>
</g>
<!-- Node11&#45;&gt;Node13 -->
<g id="edge13_Node000011_Node000013" class="edge">
<title>Node11&#45;&gt;Node13</title>
<g id="a_edge13_Node000011_Node000013"><a xlink:title=" ">
<path fill="none" stroke="#63b8ff" d="M289.11,-46.63C305.87,-42.09 324.47,-37.04 341.87,-32.32"/>
<polygon fill="#63b8ff" stroke="#63b8ff" points="342.33,-35.83 351.07,-29.83 340.5,-29.07 342.33,-35.83"/>
</a>
</g>
</g>
</g>
</svg>
