<?xml version="1.0" encoding="UTF-8" standalone="no"?>
<!DOCTYPE svg PUBLIC "-//W3C//DTD SVG 1.1//EN"
 "http://www.w3.org/Graphics/SVG/1.1/DTD/svg11.dtd">
<!-- Generated by graphviz version 14.0.1 (0)
 -->
<!-- Title: Simulation::SimulationUnit::cycleProcess Pages: 1 -->
<!--zoomable 342 -->

<svg id="main" version="1.1" xmlns="http://www.w3.org/2000/svg" xmlns:xlink="http://www.w3.org/1999/xlink" xml:space="preserve" onload="init(evt)">

<style type="text/css"><![CDATA[
.node, .edge {opacity: 0.7;}
.node.selected, .edge.selected {opacity: 1;}
.edge:hover path { stroke: red; }
.edge:hover polygon { stroke: red; fill: red; }
]]></style>

<defs>
  <circle id="rim" cx="0" cy="0" r="7"/>
  <circle id="rim2" cx="0" cy="0" r="3.5"/>
  <g id="zoomPlus">
    <use xlink:href="#rim" fill="#404040"><set attributeName="fill" to="#808080" begin="zoomplus.mouseover" end="zoomplus.mouseout"/></use>
    <path d="M-4,0h8M0,-4v8" fill="none" stroke="white" stroke-width="1.5" pointer-events="none"/>
  </g>
  <g id="zoomMin">
    <use xlink:href="#rim" fill="#404040"><set attributeName="fill" to="#808080" begin="zoomminus.mouseover" end="zoomminus.mouseout"/></use>
    <path d="M-4,0h8" fill="none" stroke="white" stroke-width="1.5" pointer-events="none"/>
  </g>
  <g id="arrowUp" transform="translate(30 24)">
    <use xlink:href="#rim"/>
    <path pointer-events="none" fill="none" stroke="white" stroke-width="1.5" d="M0,-3.0v7 M-2.5,-0.5L0,-3.0L2.5,-0.5"/>
  </g>
  <g id="arrowRight" transform="rotate(90) translate(36 -43)">
    <use xlink:href="#rim"/>
    <path pointer-events="none" fill="none" stroke="white" stroke-width="1.5" d="M0,-3.0v7 M-2.5,-0.5L0,-3.0L2.5,-0.5"/>
  </g>
  <g id="arrowDown" transform="rotate(180) translate(-30 -48)">
    <use xlink:href="#rim"/>
    <path pointer-events="none" fill="none" stroke="white" stroke-width="1.5" d="M0,-3.0v7 M-2.5,-0.5L0,-3.0L2.5,-0.5"/>
  </g>
  <g id="arrowLeft" transform="rotate(270) translate(-36 17)">
    <use xlink:href="#rim"/>
    <path pointer-events="none" fill="none" stroke="white" stroke-width="1.5" d="M0,-3.0v7 M-2.5,-0.5L0,-3.0L2.5,-0.5"/>
  </g>
  <g id="resetDef">
    <use xlink:href="#rim2" fill="#404040"><set attributeName="fill" to="#808080" begin="reset.mouseover" end="reset.mouseout"/></use>
  </g>
</defs>
<script type="application/ecmascript">
var viewWidth = 658;
var viewHeight = 342;
var sectionId = 'dynsection-6';
</script>
<script type="application/ecmascript" xlink:href="svg.min.js"/>
<svg id="graph" class="graph">
<g id="viewport">
<title>Simulation::SimulationUnit::cycleProcess</title>
<!-- Node1 -->
<g id="Node000001" class="node">
<title>Node1</title>
<g id="a_Node000001"><a xlink:title=" ">
<polygon fill="#999999" stroke="#666666" points="131.5,-217 0,-217 0,-188 131.5,-188 131.5,-217"/>
<text xml:space="preserve" text-anchor="start" x="8" y="-203.5" font-family="Helvetica,sans-Serif" font-size="10.00">Simulation::SimulationUnit</text>
<text xml:space="preserve" text-anchor="middle" x="65.75" y="-193" font-family="Helvetica,sans-Serif" font-size="10.00">::cycleProcess</text>
</a>
</g>
</g>
<!-- Node2 -->
<g id="Node000002" class="node">
<title>Node2</title>
<g id="a_Node000002"><a xlink:href="namespaceMC.html#a3f29b6dc7dd9c6f1f2da8461f189e233" target="_top" xlink:title=" ">
<polygon fill="white" stroke="#666666" points="274.25,-253.75 192.25,-253.75 192.25,-235.25 274.25,-235.25 274.25,-253.75"/>
<text xml:space="preserve" text-anchor="middle" x="233.25" y="-240.25" font-family="Helvetica,sans-Serif" font-size="10.00">MC::get_policy</text>
</a>
</g>
</g>
<!-- Node1&#45;&gt;Node2 -->
<g id="edge1_Node000001_Node000002" class="edge">
<title>Node1&#45;&gt;Node2</title>
<g id="a_edge1_Node000001_Node000002"><a xlink:title=" ">
<path fill="none" stroke="#63b8ff" d="M125.57,-217.43C144.49,-222.23 165.25,-227.5 183.38,-232.1"/>
<polygon fill="#63b8ff" stroke="#63b8ff" points="182.27,-235.43 192.82,-234.49 183.99,-228.64 182.27,-235.43"/>
</a>
</g>
</g>
<!-- Node3 -->
<g id="Node000003" class="node">
<title>Node3</title>
<g id="a_Node000003"><a xlink:href="classSimulation_1_1SimulationUnit.html#ac3c769522d65eee17433bb67e4f19dc3" target="_top" xlink:title=" ">
<polygon fill="white" stroke="#666666" points="299,-217 167.5,-217 167.5,-188 299,-188 299,-217"/>
<text xml:space="preserve" text-anchor="start" x="175.5" y="-203.5" font-family="Helvetica,sans-Serif" font-size="10.00">Simulation::SimulationUnit</text>
<text xml:space="preserve" text-anchor="middle" x="233.25" y="-193" font-family="Helvetica,sans-Serif" font-size="10.00">::post_cycle</text>
</a>
</g>
</g>
<!-- Node1&#45;&gt;Node3 -->
<g id="edge2_Node000001_Node000003" class="edge">
<title>Node1&#45;&gt;Node3</title>
<g id="a_edge2_Node000001_Node000003"><a xlink:title=" ">
<path fill="none" stroke="#63b8ff" d="M131.68,-202.5C139.63,-202.5 147.79,-202.5 155.88,-202.5"/>
<polygon fill="#63b8ff" stroke="#63b8ff" points="155.72,-206 165.72,-202.5 155.72,-199 155.72,-206"/>
</a>
</g>
</g>
<!-- Node12 -->
<g id="Node000012" class="node">
<title>Node12</title>
<g id="a_Node000012"><a xlink:href="classSimulation_1_1SimulationUnit.html#ad984b5d95455d6db475d8b6e20077a0c" target="_top" xlink:title=" ">
<polygon fill="white" stroke="#666666" points="299,-100 167.5,-100 167.5,-71 299,-71 299,-100"/>
<text xml:space="preserve" text-anchor="start" x="175.5" y="-86.5" font-family="Helvetica,sans-Serif" font-size="10.00">Simulation::SimulationUnit</text>
<text xml:space="preserve" text-anchor="middle" x="233.25" y="-76" font-family="Helvetica,sans-Serif" font-size="10.00">::pre_cycle</text>
</a>
</g>
</g>
<!-- Node1&#45;&gt;Node12 -->
<g id="edge11_Node000001_Node000012" class="edge">
<title>Node1&#45;&gt;Node12</title>
<g id="a_edge11_Node000001_Node000012"><a xlink:title=" ">
<path fill="none" stroke="#63b8ff" d="M87.71,-187.68C116.61,-167.25 168.85,-130.32 201.99,-106.89"/>
<polygon fill="#63b8ff" stroke="#63b8ff" points="203.82,-109.89 209.96,-101.26 199.78,-104.17 203.82,-109.89"/>
</a>
</g>
</g>
<!-- Node4 -->
<g id="Node000004" class="node">
<title>Node4</title>
<g id="a_Node000004"><a xlink:href="classMC_1_1ParticlesContainer.html#acca450f3c529a6e6962d76f8f39011e8" target="_top" xlink:title=" ">
<polygon fill="white" stroke="#666666" points="468,-323 349.25,-323 349.25,-294 468,-294 468,-323"/>
<text xml:space="preserve" text-anchor="start" x="357.25" y="-309.5" font-family="Helvetica,sans-Serif" font-size="10.00">MC::ParticlesContainer</text>
<text xml:space="preserve" text-anchor="middle" x="408.62" y="-299" font-family="Helvetica,sans-Serif" font-size="10.00">::clean_dead</text>
</a>
</g>
</g>
<!-- Node3&#45;&gt;Node4 -->
<g id="edge3_Node000003_Node000004" class="edge">
<title>Node3&#45;&gt;Node4</title>
<g id="a_edge3_Node000003_Node000004"><a xlink:title=" ">
<path fill="none" stroke="#63b8ff" d="M283.52,-217.35C288.99,-219.98 294.27,-223.01 299,-226.5 320.17,-242.13 314.59,-256.89 335,-273.5 341.95,-279.15 349.96,-284.17 358.07,-288.51"/>
<polygon fill="#63b8ff" stroke="#63b8ff" points="356.46,-291.62 366.96,-292.96 359.59,-285.36 356.46,-291.62"/>
</a>
</g>
</g>
<!-- Node6 -->
<g id="Node000006" class="node">
<title>Node6</title>
<g id="a_Node000006"><a xlink:href="classMC_1_1ParticlesContainer.html#a8e95993fb1287c04427780d6372be565" target="_top" xlink:title=" ">
<polygon fill="white" stroke="#666666" points="468,-264 349.25,-264 349.25,-235 468,-235 468,-264"/>
<text xml:space="preserve" text-anchor="start" x="357.25" y="-250.5" font-family="Helvetica,sans-Serif" font-size="10.00">MC::ParticlesContainer</text>
<text xml:space="preserve" text-anchor="middle" x="408.62" y="-240" font-family="Helvetica,sans-Serif" font-size="10.00">::merge_buffer</text>
</a>
</g>
</g>
<!-- Node3&#45;&gt;Node6 -->
<g id="edge5_Node000003_Node000006" class="edge">
<title>Node3&#45;&gt;Node6</title>
<g id="a_edge5_Node000003_Node000006"><a xlink:title=" ">
<path fill="none" stroke="#63b8ff" d="M289.11,-217.37C305.87,-221.91 324.47,-226.96 341.87,-231.68"/>
<polygon fill="#63b8ff" stroke="#63b8ff" points="340.5,-234.93 351.07,-234.17 342.33,-228.17 340.5,-234.93"/>
</a>
</g>
</g>
<!-- Node9 -->
<g id="Node000009" class="node">
<title>Node9</title>
<g id="a_Node000009"><a xlink:href="classSimulation_1_1SimulationUnit.html#ae2077067788b0cb0535c62933724a1cf" target="_top" xlink:title=" ">
<polygon fill="white" stroke="#666666" points="474.38,-217 342.88,-217 342.88,-188 474.38,-188 474.38,-217"/>
<text xml:space="preserve" text-anchor="start" x="350.88" y="-203.5" font-family="Helvetica,sans-Serif" font-size="10.00">Simulation::SimulationUnit</text>
<text xml:space="preserve" text-anchor="middle" x="408.62" y="-193" font-family="Helvetica,sans-Serif" font-size="10.00">::scatter_contribute</text>
</a>
</g>
</g>
<!-- Node3&#45;&gt;Node9 -->
<g id="edge8_Node000003_Node000009" class="edge">
<title>Node3&#45;&gt;Node9</title>
<g id="a_edge8_Node000003_Node000009"><a xlink:title=" ">
<path fill="none" stroke="#63b8ff" d="M299.3,-202.5C309.67,-202.5 320.49,-202.5 331.1,-202.5"/>
<polygon fill="#63b8ff" stroke="#63b8ff" points="330.98,-206 340.98,-202.5 330.98,-199 330.98,-206"/>
</a>
</g>
</g>
<!-- Node11 -->
<g id="Node000011" class="node">
<title>Node11</title>
<g id="a_Node000011"><a xlink:href="classSimulation_1_1SimulationUnit.html#ac396f393b4cf318b38364c5067254c80" target="_top" xlink:title=" ">
<polygon fill="white" stroke="#666666" points="480.38,-170 336.88,-170 336.88,-141 480.38,-141 480.38,-170"/>
<text xml:space="preserve" text-anchor="start" x="344.88" y="-156.5" font-family="Helvetica,sans-Serif" font-size="10.00">Simulation::SimulationUnit</text>
<text xml:space="preserve" text-anchor="middle" x="408.62" y="-146" font-family="Helvetica,sans-Serif" font-size="10.00">::set_kernel_contribs_to_host</text>
</a>
</g>
</g>
<!-- Node3&#45;&gt;Node11 -->
<g id="edge10_Node000003_Node000011" class="edge">
<title>Node3&#45;&gt;Node11</title>
<g id="a_edge10_Node000003_Node000011"><a xlink:title=" ">
<path fill="none" stroke="#63b8ff" d="M289.11,-187.63C305.87,-183.09 324.47,-178.04 341.87,-173.32"/>
<polygon fill="#63b8ff" stroke="#63b8ff" points="342.33,-176.83 351.07,-170.83 340.5,-170.07 342.33,-176.83"/>
</a>
</g>
</g>
<!-- Node5 -->
<g id="Node000005" class="node">
<title>Node5</title>
<g id="a_Node000005"><a xlink:href="classMC_1_1ParticlesContainer.html#a758b2d11447e82410e4ffe272b509cc2" target="_top" xlink:title=" ">
<polygon fill="white" stroke="#666666" points="643.38,-334 524.62,-334 524.62,-305 643.38,-305 643.38,-334"/>
<text xml:space="preserve" text-anchor="start" x="532.62" y="-320.5" font-family="Helvetica,sans-Serif" font-size="10.00">MC::ParticlesContainer</text>
<text xml:space="preserve" text-anchor="middle" x="584" y="-310" font-family="Helvetica,sans-Serif" font-size="10.00">::__shrink__</text>
</a>
</g>
</g>
<!-- Node4&#45;&gt;Node5 -->
<g id="edge4_Node000004_Node000005" class="edge">
<title>Node4&#45;&gt;Node5</title>
<g id="a_edge4_Node000004_Node000005"><a xlink:title=" ">
<path fill="none" stroke="#63b8ff" d="M468.32,-312.22C482.73,-313.14 498.28,-314.13 513.16,-315.07"/>
<polygon fill="#63b8ff" stroke="#63b8ff" points="512.65,-318.54 522.85,-315.68 513.09,-311.56 512.65,-318.54"/>
</a>
</g>
</g>
<!-- Node7 -->
<g id="Node000007" class="node">
<title>Node7</title>
<g id="a_Node000007"><a xlink:href="classMC_1_1ParticlesContainer.html#a29ff4fbca62d202de6bd8a91f2e7d36b" target="_top" xlink:title=" ">
<polygon fill="white" stroke="#666666" points="643.38,-287 524.62,-287 524.62,-258 643.38,-258 643.38,-287"/>
<text xml:space="preserve" text-anchor="start" x="532.62" y="-273.5" font-family="Helvetica,sans-Serif" font-size="10.00">MC::ParticlesContainer</text>
<text xml:space="preserve" text-anchor="middle" x="584" y="-263" font-family="Helvetica,sans-Serif" font-size="10.00">::__allocate__</text>
</a>
</g>
</g>
<!-- Node6&#45;&gt;Node7 -->
<g id="edge6_Node000006_Node000007" class="edge">
<title>Node6&#45;&gt;Node7</title>
<g id="a_edge6_Node000006_Node000007"><a xlink:title=" ">
<path fill="none" stroke="#63b8ff" d="M468.32,-257.29C482.73,-259.2 498.28,-261.26 513.16,-263.23"/>
<polygon fill="#63b8ff" stroke="#63b8ff" points="512.49,-266.68 522.86,-264.52 513.41,-259.74 512.49,-266.68"/>
</a>
</g>
</g>
<!-- Node8 -->
<g id="Node000008" class="node">
<title>Node8</title>
<g id="a_Node000008"><a xlink:href="classMC_1_1ParticlesContainer.html#a57fa06d3225acf04522e3fc2993847f0" target="_top" xlink:title=" ">
<polygon fill="white" stroke="#666666" points="643.38,-240 524.62,-240 524.62,-211 643.38,-211 643.38,-240"/>
<text xml:space="preserve" text-anchor="start" x="532.62" y="-226.5" font-family="Helvetica,sans-Serif" font-size="10.00">MC::ParticlesContainer</text>
<text xml:space="preserve" text-anchor="middle" x="584" y="-216" font-family="Helvetica,sans-Serif" font-size="10.00">::__allocate_buffer__</text>
</a>
</g>
</g>
<!-- Node6&#45;&gt;Node8 -->
<g id="edge7_Node000006_Node000008" class="edge">
<title>Node6&#45;&gt;Node8</title>
<g id="a_edge7_Node000006_Node000008"><a xlink:title=" ">
<path fill="none" stroke="#63b8ff" d="M468.32,-241.37C482.73,-239.38 498.28,-237.23 513.16,-235.17"/>
<polygon fill="#63b8ff" stroke="#63b8ff" points="513.44,-238.66 522.86,-233.82 512.48,-231.73 513.44,-238.66"/>
</a>
</g>
</g>
<!-- Node10 -->
<g id="Node000010" class="node">
<title>Node10</title>
<g id="a_Node000010"><a xlink:href="classSimulation_1_1SimulationUnit.html#a9ea90cab13d8259f026f57baad1c989f" target="_top" xlink:title=" ">
<polygon fill="white" stroke="#666666" points="649.75,-193 518.25,-193 518.25,-164 649.75,-164 649.75,-193"/>
<text xml:space="preserve" text-anchor="start" x="526.25" y="-179.5" font-family="Helvetica,sans-Serif" font-size="10.00">Simulation::SimulationUnit</text>
<text xml:space="preserve" text-anchor="middle" x="584" y="-169" font-family="Helvetica,sans-Serif" font-size="10.00">::get_kernel_contribution</text>
</a>
</g>
</g>
<!-- Node9&#45;&gt;Node10 -->
<g id="edge9_Node000009_Node000010" class="edge">
<title>Node9&#45;&gt;Node10</title>
<g id="a_edge9_Node000009_Node000010"><a xlink:title=" ">
<path fill="none" stroke="#63b8ff" d="M474.68,-193.5C485.05,-192.06 495.86,-190.56 506.47,-189.09"/>
<polygon fill="#63b8ff" stroke="#63b8ff" points="506.95,-192.56 516.37,-187.72 505.99,-185.63 506.95,-192.56"/>
</a>
</g>
</g>
<!-- Node13 -->
<g id="Node000013" class="node">
<title>Node13</title>
<g id="a_Node000013"><a xlink:href="classSimulation_1_1SimulationUnit.html#ac3b83e6fb1638ace3cbfa35833c1affc" target="_top" xlink:title=" ">
<polygon fill="white" stroke="#666666" points="482.25,-123 335,-123 335,-94 482.25,-94 482.25,-123"/>
<text xml:space="preserve" text-anchor="start" x="343" y="-109.5" font-family="Helvetica,sans-Serif" font-size="10.00">Simulation::SimulationUnit</text>
<text xml:space="preserve" text-anchor="middle" x="408.62" y="-99" font-family="Helvetica,sans-Serif" font-size="10.00">::get_kernel_cumulative_proba</text>
</a>
</g>
</g>
<!-- Node12&#45;&gt;Node13 -->
<g id="edge12_Node000012_Node000013" class="edge">
<title>Node12&#45;&gt;Node13</title>
<g id="a_edge12_Node000012_Node000013"><a xlink:title=" ">
<path fill="none" stroke="#63b8ff" d="M299.3,-94.13C307.14,-95.17 315.23,-96.24 323.29,-97.31"/>
<polygon fill="#63b8ff" stroke="#63b8ff" points="322.77,-100.77 333.14,-98.62 323.69,-93.83 322.77,-100.77"/>
</a>
</g>
</g>
<!-- Node14 -->
<g id="Node000014" class="node">
<title>Node14</title>
<g id="a_Node000014"><a xlink:href="classSimulation_1_1SimulationUnit.html#a7f871ecc4425caa53838c0a620f3d686" target="_top" xlink:title=" ">
<polygon fill="white" stroke="#666666" points="474.38,-76 342.88,-76 342.88,-47 474.38,-47 474.38,-76"/>
<text xml:space="preserve" text-anchor="start" x="350.88" y="-62.5" font-family="Helvetica,sans-Serif" font-size="10.00">Simulation::SimulationUnit</text>
<text xml:space="preserve" text-anchor="middle" x="408.62" y="-52" font-family="Helvetica,sans-Serif" font-size="10.00">::get_kernel_diagonal</text>
</a>
</g>
</g>
<!-- Node12&#45;&gt;Node14 -->
<g id="edge13_Node000012_Node000014" class="edge">
<title>Node12&#45;&gt;Node14</title>
<g id="a_edge13_Node000012_Node000014"><a xlink:title=" ">
<path fill="none" stroke="#63b8ff" d="M299.3,-76.5C309.67,-75.06 320.49,-73.56 331.1,-72.09"/>
<polygon fill="#63b8ff" stroke="#63b8ff" points="331.57,-75.56 341,-70.72 330.61,-68.63 331.57,-75.56"/>
</a>
</g>
</g>
<!-- Node15 -->
<g id="Node000015" class="node">
<title>Node15</title>
<g id="a_Node000015"><a xlink:href="classMC_1_1ParticlesContainer.html#a30b264e87ae019596f9791f2fc60d52f" target="_top" xlink:title="Gets the number of particles in the container.">
<polygon fill="white" stroke="#666666" points="468,-29 349.25,-29 349.25,0 468,0 468,-29"/>
<text xml:space="preserve" text-anchor="start" x="357.25" y="-15.5" font-family="Helvetica,sans-Serif" font-size="10.00">MC::ParticlesContainer</text>
<text xml:space="preserve" text-anchor="middle" x="408.62" y="-5" font-family="Helvetica,sans-Serif" font-size="10.00">::n_particles</text>
</a>
</g>
</g>
<!-- Node12&#45;&gt;Node15 -->
<g id="edge14_Node000012_Node000015" class="edge">
<title>Node12&#45;&gt;Node15</title>
<g id="a_edge14_Node000012_Node000015"><a xlink:title=" ">
<path fill="none" stroke="#63b8ff" d="M263.83,-70.58C283.69,-60.84 310.6,-48.18 335,-38.5 339.57,-36.69 344.33,-34.9 349.14,-33.16"/>
<polygon fill="#63b8ff" stroke="#63b8ff" points="349.97,-36.58 358.25,-29.96 347.65,-29.97 349.97,-36.58"/>
</a>
</g>
</g>
</g>
</svg>

<g id="navigator" transform="translate(0 0)" fill="#404254">
  <rect fill="#f2f5e9" fill-opacity="0.5" stroke="#606060" stroke-width=".5" x="0" y="0" width="60" height="60"/>
  <use id="zoomplus" xlink:href="#zoomPlus" x="17" y="9" onmousedown="handleZoom(evt,'in')"/>
  <use id="zoomminus" xlink:href="#zoomMin" x="42" y="9" onmousedown="handleZoom(evt,'out')"/>
  <use id="reset" xlink:href="#resetDef" x="30" y="36" onmousedown="handleReset()"/>
   <use id="arrowup" xlink:href="#arrowUp" x="0" y="0" onmousedown="handlePan(0,-1)"/>
  <use id="arrowright" xlink:href="#arrowRight" x="0" y="0" onmousedown="handlePan(1,0)"/>
  <use id="arrowdown" xlink:href="#arrowDown" x="0" y="0" onmousedown="handlePan(0,1)"/>
  <use id="arrowleft" xlink:href="#arrowLeft" x="0" y="0" onmousedown="handlePan(-1,0)"/>
</g>
<svg viewBox="0 0 15 15" width="100%" height="30px" preserveAspectRatio="xMaxYMin meet">
 <g id="arrow_out" transform="scale(0.3 0.3)">
  <a xlink:href="classSimulation_1_1SimulationUnit_a7b49fd171d4de8aa3949738da6c3810f_cgraph_org.svg" target="_base">
   <rect id="button" ry="5" rx="5" y="6" x="6" height="38" width="38"
        fill="#f2f5e9" fill-opacity="0.5" stroke="#606060" stroke-width="1.0"/>
   <path id="arrow"
     d="M 11.500037,31.436501 C 11.940474,20.09759 22.043105,11.32322 32.158766,21.979434 L 37.068811,17.246167 C 37.068811,17.246167 37.088388,32 37.088388,32 L 22.160133,31.978069 C 22.160133,31.978069 26.997745,27.140456 26.997745,27.140456 C 18.528582,18.264221 13.291696,25.230495 11.500037,31.436501 z"
     style="fill:#404040;"/>
  </a>
 </g>
</svg>

<style type='text/css'>
<![CDATA[
[data-mouse-over-selected='false'] { opacity: 0.7; }
[data-mouse-over-selected='true']  { opacity: 1.0; }
]]>
</style>
<script type="application/ecmascript"><![CDATA[
document.addEventListener('DOMContentLoaded', (event) => {
  highlightEdges();
  highlightAdjacentNodes();
});
]]></script>
</svg>
