<?xml version="1.0" encoding="UTF-8" standalone="no"?>
<!DOCTYPE svg PUBLIC "-//W3C//DTD SVG 1.1//EN"
 "http://www.w3.org/Graphics/SVG/1.1/DTD/svg11.dtd">
<!-- Generated by graphviz version 14.0.1 (0)
 -->
<!-- Title: MC::ParticlesContainer::load Pages: 1 -->
<svg width="433pt" height="84pt"
 viewBox="0.00 0.00 433.00 84.00" xmlns="http://www.w3.org/2000/svg" xmlns:xlink="http://www.w3.org/1999/xlink">
<g id="graph0" class="graph" transform="scale(1 1) rotate(0) translate(4 80)">
<title>MC::ParticlesContainer::load</title>
<!-- Node1 -->
<g id="Node000001" class="node">
<title>Node1</title>
<g id="a_Node000001"><a xlink:title="Load data from ar for deserialization.">
<polygon fill="#999999" stroke="#666666" points="118.75,-52 0,-52 0,-23 118.75,-23 118.75,-52"/>
<text xml:space="preserve" text-anchor="start" x="8" y="-38.5" font-family="Helvetica,sans-Serif" font-size="10.00">MC::ParticlesContainer</text>
<text xml:space="preserve" text-anchor="middle" x="59.38" y="-28" font-family="Helvetica,sans-Serif" font-size="10.00">::load</text>
</a>
</g>
</g>
<!-- Node2 -->
<g id="Node000002" class="node">
<title>Node2</title>
<g id="a_Node000002"><a xlink:href="classMC_1_1ParticlesContainer.html#a57fa06d3225acf04522e3fc2993847f0" target="_top" xlink:title=" ">
<polygon fill="white" stroke="#666666" points="273.5,-76 154.75,-76 154.75,-47 273.5,-47 273.5,-76"/>
<text xml:space="preserve" text-anchor="start" x="162.75" y="-62.5" font-family="Helvetica,sans-Serif" font-size="10.00">MC::ParticlesContainer</text>
<text xml:space="preserve" text-anchor="middle" x="214.12" y="-52" font-family="Helvetica,sans-Serif" font-size="10.00">::__allocate_buffer__</text>
</a>
</g>
</g>
<!-- Node1&#45;&gt;Node2 -->
<g id="edge1_Node000001_Node000002" class="edge">
<title>Node1&#45;&gt;Node2</title>
<g id="a_edge1_Node000001_Node000002"><a xlink:title=" ">
<path fill="none" stroke="#63b8ff" d="M119,-46.71C126.89,-47.95 135.05,-49.23 143.11,-50.5"/>
<polygon fill="#63b8ff" stroke="#63b8ff" points="142.49,-53.95 152.91,-52.04 143.58,-47.03 142.49,-53.95"/>
</a>
</g>
</g>
<!-- Node3 -->
<g id="Node000003" class="node">
<title>Node3</title>
<g id="a_Node000003"><a xlink:href="classMC_1_1ParticlesContainer.html#a50dddaeafcf0c527adb2a678cee3172e" target="_top" xlink:title=" ">
<polygon fill="white" stroke="#666666" points="273.5,-29 154.75,-29 154.75,0 273.5,0 273.5,-29"/>
<text xml:space="preserve" text-anchor="start" x="162.75" y="-15.5" font-family="Helvetica,sans-Serif" font-size="10.00">MC::ParticlesContainer</text>
<text xml:space="preserve" text-anchor="middle" x="214.12" y="-5" font-family="Helvetica,sans-Serif" font-size="10.00">::load_tuning_constant</text>
</a>
</g>
</g>
<!-- Node1&#45;&gt;Node3 -->
<g id="edge2_Node000001_Node000003" class="edge">
<title>Node1&#45;&gt;Node3</title>
<g id="a_edge2_Node000001_Node000003"><a xlink:title=" ">
<path fill="none" stroke="#63b8ff" d="M119,-28.67C126.89,-27.49 135.05,-26.26 143.11,-25.04"/>
<polygon fill="#63b8ff" stroke="#63b8ff" points="143.55,-28.52 152.91,-23.57 142.5,-21.59 143.55,-28.52"/>
</a>
</g>
</g>
<!-- Node4 -->
<g id="Node000004" class="node">
<title>Node4</title>
<g id="a_Node000004"><a xlink:href="namespaceCommon.html#a7ca16dc3314f89cd1860091731cd7014" target="_top" xlink:title="Wrapper arround get_env to get envariable with fallback to default.">
<polygon fill="white" stroke="#666666" points="424.5,-23.75 309.5,-23.75 309.5,-5.25 424.5,-5.25 424.5,-23.75"/>
<text xml:space="preserve" text-anchor="middle" x="367" y="-10.25" font-family="Helvetica,sans-Serif" font-size="10.00">Common::read_env_or</text>
</a>
</g>
</g>
<!-- Node3&#45;&gt;Node4 -->
<g id="edge3_Node000003_Node000004" class="edge">
<title>Node3&#45;&gt;Node4</title>
<g id="a_edge3_Node000003_Node000004"><a xlink:title=" ">
<path fill="none" stroke="#63b8ff" d="M273.89,-14.5C281.67,-14.5 289.7,-14.5 297.63,-14.5"/>
<polygon fill="#63b8ff" stroke="#63b8ff" points="297.62,-18 307.62,-14.5 297.62,-11 297.62,-18"/>
</a>
</g>
</g>
</g>
</svg>
