<?xml version="1.0" encoding="UTF-8" standalone="no"?>
<!DOCTYPE svg PUBLIC "-//W3C//DTD SVG 1.1//EN"
 "http://www.w3.org/Graphics/SVG/1.1/DTD/svg11.dtd">
<!-- Generated by graphviz version 14.0.1 (0)
 -->
<!-- Title: Core::GlobalInitialiser::init_simulation Pages: 1 -->
<svg width="599pt" height="288pt"
 viewBox="0.00 0.00 599.00 288.00" xmlns="http://www.w3.org/2000/svg" xmlns:xlink="http://www.w3.org/1999/xlink">
<g id="graph0" class="graph" transform="scale(1 1) rotate(0) translate(4 284)">
<title>Core::GlobalInitialiser::init_simulation</title>
<!-- Node1 -->
<g id="Node000001" class="node">
<title>Node1</title>
<g id="a_Node000001"><a xlink:title="Initializes a simulation unit.">
<polygon fill="#999999" stroke="#666666" points="109.75,-76 0,-76 0,-47 109.75,-47 109.75,-76"/>
<text xml:space="preserve" text-anchor="start" x="8" y="-62.5" font-family="Helvetica,sans-Serif" font-size="10.00">Core::GlobalInitialiser</text>
<text xml:space="preserve" text-anchor="middle" x="54.88" y="-52" font-family="Helvetica,sans-Serif" font-size="10.00">::init_simulation</text>
</a>
</g>
</g>
<!-- Node1&#45;&gt;Node1 -->
<g id="edge16_Node000001_Node000001" class="edge">
<title>Node1&#45;&gt;Node1</title>
<g id="a_edge16_Node000001_Node000001"><a xlink:title=" ">
<path fill="none" stroke="#63b8ff" d="M29.48,-76.21C23.35,-85.32 31.82,-94 54.88,-94 67.48,-94 75.73,-91.41 79.61,-87.56"/>
<polygon fill="#63b8ff" stroke="#63b8ff" points="83.1,-87.9 80.19,-77.72 76.11,-87.5 83.1,-87.9"/>
</a>
</g>
</g>
<!-- Node2 -->
<g id="Node000002" class="node">
<title>Node2</title>
<g id="a_Node000002"><a xlink:href="classCore_1_1GlobalInitialiser.html#a5134f9db1f59d9124d5fdec88e3e99f3" target="_top" xlink:title="Checks the validity of specified initialization steps.">
<polygon fill="white" stroke="#666666" points="425.62,-29 315.88,-29 315.88,0 425.62,0 425.62,-29"/>
<text xml:space="preserve" text-anchor="start" x="323.88" y="-15.5" font-family="Helvetica,sans-Serif" font-size="10.00">Core::GlobalInitialiser</text>
<text xml:space="preserve" text-anchor="middle" x="370.75" y="-5" font-family="Helvetica,sans-Serif" font-size="10.00">::check_steps</text>
</a>
</g>
</g>
<!-- Node1&#45;&gt;Node2 -->
<g id="edge1_Node000001_Node000002" class="edge">
<title>Node1&#45;&gt;Node2</title>
<g id="a_edge1_Node000001_Node000002"><a xlink:title=" ">
<path fill="none" stroke="#63b8ff" d="M108.82,-46.6C120.89,-43.59 133.7,-40.67 145.75,-38.5 198.68,-28.94 259.39,-22.73 304.24,-19.02"/>
<polygon fill="#63b8ff" stroke="#63b8ff" points="304.38,-22.52 314.07,-18.23 303.82,-15.54 304.38,-22.52"/>
</a>
</g>
</g>
<!-- Node3 -->
<g id="Node000003" class="node">
<title>Node3</title>
<g id="a_Node000003"><a xlink:href="classCore_1_1GlobalInitialiser.html#a9b38d15538796d9cc115211890a6c081" target="_top" xlink:title="Initializes a Monte Carlo unit.">
<polygon fill="white" stroke="#666666" points="255.5,-144 145.75,-144 145.75,-115 255.5,-115 255.5,-144"/>
<text xml:space="preserve" text-anchor="start" x="153.75" y="-130.5" font-family="Helvetica,sans-Serif" font-size="10.00">Core::GlobalInitialiser</text>
<text xml:space="preserve" text-anchor="middle" x="200.62" y="-120" font-family="Helvetica,sans-Serif" font-size="10.00">::init_monte_carlo</text>
</a>
</g>
</g>
<!-- Node1&#45;&gt;Node3 -->
<g id="edge2_Node000001_Node000003" class="edge">
<title>Node1&#45;&gt;Node3</title>
<g id="a_edge2_Node000001_Node000003"><a xlink:title=" ">
<path fill="none" stroke="#63b8ff" d="M87.42,-76.42C108.11,-86.21 135.4,-99.12 157.88,-109.75"/>
<polygon fill="#63b8ff" stroke="#63b8ff" points="156.25,-112.85 166.78,-113.96 159.24,-106.52 156.25,-112.85"/>
</a>
</g>
</g>
<!-- Node9 -->
<g id="Node000009" class="node">
<title>Node9</title>
<g id="a_Node000009"><a xlink:href="classCore_1_1GlobalInitialiser.html#aa84a61b25f475380b38306232e25aff6" target="_top" xlink:title="Initializes a scalar component of the simulation.">
<polygon fill="white" stroke="#666666" points="255.5,-76 145.75,-76 145.75,-47 255.5,-47 255.5,-76"/>
<text xml:space="preserve" text-anchor="start" x="153.75" y="-62.5" font-family="Helvetica,sans-Serif" font-size="10.00">Core::GlobalInitialiser</text>
<text xml:space="preserve" text-anchor="middle" x="200.62" y="-52" font-family="Helvetica,sans-Serif" font-size="10.00">::init_scalar</text>
</a>
</g>
</g>
<!-- Node1&#45;&gt;Node9 -->
<g id="edge11_Node000001_Node000009" class="edge">
<title>Node1&#45;&gt;Node9</title>
<g id="a_edge11_Node000001_Node000009"><a xlink:title=" ">
<path fill="none" stroke="#63b8ff" d="M110.22,-61.5C118.11,-61.5 126.3,-61.5 134.38,-61.5"/>
<polygon fill="#63b8ff" stroke="#63b8ff" points="134.17,-65 144.17,-61.5 134.17,-58 134.17,-65"/>
</a>
</g>
</g>
<!-- Node3&#45;&gt;Node2 -->
<g id="edge6_Node000003_Node000002" class="edge">
<title>Node3&#45;&gt;Node2</title>
<g id="a_edge6_Node000003_Node000002"><a xlink:title=" ">
<path fill="none" stroke="#63b8ff" d="M222.03,-114.65C232.53,-106.57 245.25,-96.08 255.5,-85.5 273.81,-66.61 269.89,-53.52 291.5,-38.5 295.68,-35.59 300.23,-33.03 304.95,-30.77"/>
<polygon fill="#63b8ff" stroke="#63b8ff" points="306.27,-34.01 314.12,-26.89 303.54,-27.57 306.27,-34.01"/>
</a>
</g>
</g>
<!-- Node4 -->
<g id="Node000004" class="node">
<title>Node4</title>
<g id="a_Node000004"><a xlink:href="namespaceWrapMPI.html#a8237adbb04708d9bf4bae9e904d04f5f" target="_top" xlink:title=" ">
<polygon fill="white" stroke="#666666" points="423.75,-159.75 317.75,-159.75 317.75,-141.25 423.75,-141.25 423.75,-159.75"/>
<text xml:space="preserve" text-anchor="middle" x="370.75" y="-146.25" font-family="Helvetica,sans-Serif" font-size="10.00">WrapMPI::all_reduce</text>
</a>
</g>
</g>
<!-- Node3&#45;&gt;Node4 -->
<g id="edge3_Node000003_Node000004" class="edge">
<title>Node3&#45;&gt;Node4</title>
<g id="a_edge3_Node000003_Node000004"><a xlink:title=" ">
<path fill="none" stroke="#63b8ff" d="M255.75,-136.26C271.81,-138.27 289.56,-140.48 306.17,-142.56"/>
<polygon fill="#63b8ff" stroke="#63b8ff" points="305.59,-146.01 315.95,-143.78 306.46,-139.07 305.59,-146.01"/>
</a>
</g>
</g>
<!-- Node6 -->
<g id="Node000006" class="node">
<title>Node6</title>
<g id="a_Node000006"><a xlink:href="classCmaUtils_1_1FlowMapTransitionner.html#a5ca5151ebfbb3b5dd309309c54652af8" target="_top" xlink:title="Converts the provided neighbors&#39; data into a Kokkos view.">
<polygon fill="white" stroke="#666666" points="450,-262 291.5,-262 291.5,-233 450,-233 450,-262"/>
<text xml:space="preserve" text-anchor="start" x="299.5" y="-248.5" font-family="Helvetica,sans-Serif" font-size="10.00">CmaUtils::FlowMapTransitionner</text>
<text xml:space="preserve" text-anchor="middle" x="370.75" y="-238" font-family="Helvetica,sans-Serif" font-size="10.00">::get_neighbors_view</text>
</a>
</g>
</g>
<!-- Node3&#45;&gt;Node6 -->
<g id="edge7_Node000003_Node000006" class="edge">
<title>Node3&#45;&gt;Node6</title>
<g id="a_edge7_Node000003_Node000006"><a xlink:title=" ">
<path fill="none" stroke="#63b8ff" d="M212.04,-144.49C227.21,-165.2 257.29,-202.4 291.5,-223.5 294.08,-225.09 296.76,-226.58 299.53,-227.98"/>
<polygon fill="#63b8ff" stroke="#63b8ff" points="297.88,-231.07 308.43,-232.02 300.77,-224.7 297.88,-231.07"/>
</a>
</g>
</g>
<!-- Node7 -->
<g id="Node000007" class="node">
<title>Node7</title>
<g id="a_Node000007"><a xlink:href="namespaceMC.html#ac9b6a65d70e4c5007f4bc908509924a0" target="_top" xlink:title=" ">
<polygon fill="white" stroke="#666666" points="424.5,-214.75 317,-214.75 317,-196.25 424.5,-196.25 424.5,-214.75"/>
<text xml:space="preserve" text-anchor="middle" x="370.75" y="-201.25" font-family="Helvetica,sans-Serif" font-size="10.00">MC::post_init_weight</text>
</a>
</g>
</g>
<!-- Node3&#45;&gt;Node7 -->
<g id="edge9_Node000003_Node000007" class="edge">
<title>Node3&#45;&gt;Node7</title>
<g id="a_edge9_Node000003_Node000007"><a xlink:title=" ">
<path fill="none" stroke="#63b8ff" d="M220.93,-144.39C238.46,-157.25 265.48,-175.45 291.5,-186.5 296.97,-188.82 302.78,-190.9 308.66,-192.74"/>
<polygon fill="#63b8ff" stroke="#63b8ff" points="307.25,-195.98 317.83,-195.4 309.2,-189.26 307.25,-195.98"/>
</a>
</g>
</g>
<!-- Node8 -->
<g id="Node000008" class="node">
<title>Node8</title>
<g id="a_Node000008"><a xlink:href="classCore_1_1GlobalInitialiser.html#a3844076c910ed26f60f42bada71cc09e" target="_top" xlink:title="Validates the specified initialization step and any additional steps.">
<polygon fill="white" stroke="#666666" points="425.62,-123 315.88,-123 315.88,-94 425.62,-94 425.62,-123"/>
<text xml:space="preserve" text-anchor="start" x="323.88" y="-109.5" font-family="Helvetica,sans-Serif" font-size="10.00">Core::GlobalInitialiser</text>
<text xml:space="preserve" text-anchor="middle" x="370.75" y="-99" font-family="Helvetica,sans-Serif" font-size="10.00">::validate_step</text>
</a>
</g>
</g>
<!-- Node3&#45;&gt;Node8 -->
<g id="edge10_Node000003_Node000008" class="edge">
<title>Node3&#45;&gt;Node8</title>
<g id="a_edge10_Node000003_Node000008"><a xlink:title=" ">
<path fill="none" stroke="#63b8ff" d="M255.75,-122.74C271.27,-120.8 288.35,-118.67 304.47,-116.65"/>
<polygon fill="#63b8ff" stroke="#63b8ff" points="304.45,-120.18 313.94,-115.47 303.58,-113.24 304.45,-120.18"/>
</a>
</g>
</g>
<!-- Node4&#45;&gt;Node4 -->
<g id="edge4_Node000004_Node000004" class="edge">
<title>Node4&#45;&gt;Node4</title>
<g id="a_edge4_Node000004_Node000004"><a xlink:title=" ">
<path fill="none" stroke="#63b8ff" d="M344.93,-160C332.37,-168.57 340.98,-177.75 370.75,-177.75 387.96,-177.75 398.1,-174.68 401.16,-170.44"/>
<polygon fill="#63b8ff" stroke="#63b8ff" points="404.41,-169.12 397.18,-161.38 398,-171.94 404.41,-169.12"/>
</a>
</g>
</g>
<!-- Node5 -->
<g id="Node000005" class="node">
<title>Node5</title>
<g id="a_Node000005"><a xlink:href="namespaceWrapMPI.html#adab3300a86b8c0227268b23134b57a24" target="_top" xlink:title=" ">
<polygon fill="white" stroke="#666666" points="587.88,-159.75 488.62,-159.75 488.62,-141.25 587.88,-141.25 587.88,-159.75"/>
<text xml:space="preserve" text-anchor="middle" x="538.25" y="-146.25" font-family="Helvetica,sans-Serif" font-size="10.00">WrapMPI::get_type</text>
</a>
</g>
</g>
<!-- Node4&#45;&gt;Node5 -->
<g id="edge5_Node000004_Node000005" class="edge">
<title>Node4&#45;&gt;Node5</title>
<g id="a_edge5_Node000004_Node000005"><a xlink:title=" ">
<path fill="none" stroke="#63b8ff" d="M424.12,-150.5C440.97,-150.5 459.78,-150.5 477.15,-150.5"/>
<polygon fill="#63b8ff" stroke="#63b8ff" points="476.81,-154 486.81,-150.5 476.81,-147 476.81,-154"/>
</a>
</g>
</g>
<!-- Node6&#45;&gt;Node6 -->
<g id="edge8_Node000006_Node000006" class="edge">
<title>Node6&#45;&gt;Node6</title>
<g id="a_edge8_Node000006_Node000006"><a xlink:title=" ">
<path fill="none" stroke="#63b8ff" d="M341.56,-262.21C334.52,-271.32 344.25,-280 370.75,-280 385.24,-280 394.72,-277.41 399.18,-273.56"/>
<polygon fill="#63b8ff" stroke="#63b8ff" points="402.66,-273.93 399.84,-263.72 395.68,-273.46 402.66,-273.93"/>
</a>
</g>
</g>
<!-- Node9&#45;&gt;Node2 -->
<g id="edge12_Node000009_Node000002" class="edge">
<title>Node9&#45;&gt;Node2</title>
<g id="a_edge12_Node000009_Node000002"><a xlink:title=" ">
<path fill="none" stroke="#63b8ff" d="M254.82,-46.63C270.92,-42.13 288.77,-37.14 305.51,-32.46"/>
<polygon fill="#63b8ff" stroke="#63b8ff" points="306.18,-35.91 314.87,-29.84 304.29,-29.16 306.18,-35.91"/>
</a>
</g>
</g>
<!-- Node9&#45;&gt;Node8 -->
<g id="edge15_Node000009_Node000008" class="edge">
<title>Node9&#45;&gt;Node8</title>
<g id="a_edge15_Node000009_Node000008"><a xlink:title=" ">
<path fill="none" stroke="#63b8ff" d="M254.82,-76.37C270.92,-80.87 288.77,-85.86 305.51,-90.54"/>
<polygon fill="#63b8ff" stroke="#63b8ff" points="304.29,-93.84 314.87,-93.16 306.18,-87.09 304.29,-93.84"/>
</a>
</g>
</g>
<!-- Node10 -->
<g id="Node000010" class="node">
<title>Node10</title>
<g id="a_Node000010"><a xlink:href="namespaceCore_1_1ScalarFactory.html#a8fb497033464776a1cda71cce1840cd8" target="_top" xlink:title="Factory function to initialize scalar data based on the specified input source.">
<polygon fill="white" stroke="#666666" points="423,-76 318.5,-76 318.5,-47 423,-47 423,-76"/>
<text xml:space="preserve" text-anchor="start" x="326.5" y="-62.5" font-family="Helvetica,sans-Serif" font-size="10.00">Core::ScalarFactory</text>
<text xml:space="preserve" text-anchor="middle" x="370.75" y="-52" font-family="Helvetica,sans-Serif" font-size="10.00">::scalar_factory</text>
</a>
</g>
</g>
<!-- Node9&#45;&gt;Node10 -->
<g id="edge13_Node000009_Node000010" class="edge">
<title>Node9&#45;&gt;Node10</title>
<g id="a_edge13_Node000009_Node000010"><a xlink:title=" ">
<path fill="none" stroke="#63b8ff" d="M255.75,-61.5C271.97,-61.5 289.9,-61.5 306.65,-61.5"/>
<polygon fill="#63b8ff" stroke="#63b8ff" points="306.51,-65 316.51,-61.5 306.51,-58 306.51,-65"/>
</a>
</g>
</g>
<!-- Node11 -->
<g id="Node000011" class="node">
<title>Node11</title>
<g id="a_Node000011"><a xlink:href="namespaceCore_1_1ScalarFactory.html#a3cd3bf6bf73298a38df48b444e3f0a23" target="_top" xlink:title=" ">
<polygon fill="white" stroke="#666666" points="590.5,-76 486,-76 486,-47 590.5,-47 590.5,-76"/>
<text xml:space="preserve" text-anchor="start" x="494" y="-62.5" font-family="Helvetica,sans-Serif" font-size="10.00">Core::ScalarFactory</text>
<text xml:space="preserve" text-anchor="middle" x="538.25" y="-52" font-family="Helvetica,sans-Serif" font-size="10.00">::sanitize</text>
</a>
</g>
</g>
<!-- Node10&#45;&gt;Node11 -->
<g id="edge14_Node000010_Node000011" class="edge">
<title>Node10&#45;&gt;Node11</title>
<g id="a_edge14_Node000010_Node000011"><a xlink:title=" ">
<path fill="none" stroke="#63b8ff" d="M423.21,-61.5C439.32,-61.5 457.29,-61.5 474.11,-61.5"/>
<polygon fill="#63b8ff" stroke="#63b8ff" points="474.03,-65 484.03,-61.5 474.03,-58 474.03,-65"/>
</a>
</g>
</g>
</g>
</svg>
