<?xml version="1.0" encoding="UTF-8" standalone="no"?>
<!DOCTYPE svg PUBLIC "-//W3C//DTD SVG 1.1//EN"
 "http://www.w3.org/Graphics/SVG/1.1/DTD/svg11.dtd">
<!-- Generated by graphviz version 12.1.2 (0)
 -->
<!-- Title: Core::GlobalInitialiser::init_transitionner Pages: 1 -->
<svg width="409pt" height="84pt"
 viewBox="0.00 0.00 409.25 84.00" xmlns="http://www.w3.org/2000/svg" xmlns:xlink="http://www.w3.org/1999/xlink">

<svg id="main" version="1.1" xmlns="http://www.w3.org/2000/svg" xmlns:xlink="http://www.w3.org/1999/xlink" xml:space="preserve">

<style type="text/css"><![CDATA[
.node, .edge {opacity: 0.7;}
.node.selected, .edge.selected {opacity: 1;}
.edge:hover path { stroke: red; }
.edge:hover polygon { stroke: red; fill: red; }
]]></style>
<script type="application/ecmascript" xlink:href="svg.min.js"/>
<svg id="graph" class="graph">
<g id="graph0" class="graph" transform="scale(1 1) rotate(0) translate(4 80)">
<title>Core::GlobalInitialiser::init_transitionner</title>
<!-- Node1 -->
<g id="Node000001" class="node">
<title>Node1</title>
<g id="a_Node000001"><a xlink:title="Initializes a transitioner without parameters.">
<polygon fill="#999999" stroke="#666666" points="109.75,-52 0,-52 0,-23 109.75,-23 109.75,-52"/>
<text text-anchor="start" x="8" y="-38.5" font-family="Helvetica,sans-Serif" font-size="10.00">Core::GlobalInitialiser</text>
<text text-anchor="middle" x="54.88" y="-28" font-family="Helvetica,sans-Serif" font-size="10.00">::init_transitionner</text>
</a>
</g>
</g>
<!-- Node1&#45;&gt;Node1 -->
<g id="edge4_Node000001_Node000001" class="edge">
<title>Node1&#45;&gt;Node1</title>
<g id="a_edge4_Node000001_Node000001"><a xlink:title=" ">
<path fill="none" stroke="#63b8ff" d="M29.48,-52.21C23.35,-61.32 31.82,-70 54.88,-70 67.48,-70 75.73,-67.41 79.61,-63.56"/>
<polygon fill="#63b8ff" stroke="#63b8ff" points="83.1,-63.9 80.19,-53.72 76.11,-63.5 83.1,-63.9"/>
</a>
</g>
</g>
<!-- Node2 -->
<g id="Node000002" class="node">
<title>Node2</title>
<g id="a_Node000002"><a xlink:href="classCore_1_1GlobalInitialiser.html#a980172ba3bb45d1eaac97d447b87bd4e" target="_top" xlink:title="Initializes a flow iterator.">
<polygon fill="white" stroke="#666666" points="255.5,-52 145.75,-52 145.75,-23 255.5,-23 255.5,-52"/>
<text text-anchor="start" x="153.75" y="-38.5" font-family="Helvetica,sans-Serif" font-size="10.00">Core::GlobalInitialiser</text>
<text text-anchor="middle" x="200.62" y="-28" font-family="Helvetica,sans-Serif" font-size="10.00">::init_flow_iterator</text>
</a>
</g>
</g>
<!-- Node1&#45;&gt;Node2 -->
<g id="edge1_Node000001_Node000002" class="edge">
<title>Node1&#45;&gt;Node2</title>
<g id="a_edge1_Node000001_Node000002"><a xlink:title=" ">
<path fill="none" stroke="#63b8ff" d="M110.22,-37.5C118.11,-37.5 126.3,-37.5 134.38,-37.5"/>
<polygon fill="#63b8ff" stroke="#63b8ff" points="134.17,-41 144.17,-37.5 134.17,-34 134.17,-41"/>
</a>
</g>
</g>
<!-- Node3 -->
<g id="Node000003" class="node">
<title>Node3</title>
<g id="a_Node000003"><a xlink:href="classCore_1_1GlobalInitialiser.html#a751126aaf6e8da709d3b9c98f0a796fb" target="_top" xlink:title="Retrieves path files based on the provided case path.">
<polygon fill="white" stroke="#666666" points="401.25,-76 291.5,-76 291.5,-47 401.25,-47 401.25,-76"/>
<text text-anchor="start" x="299.5" y="-62.5" font-family="Helvetica,sans-Serif" font-size="10.00">Core::GlobalInitialiser</text>
<text text-anchor="middle" x="346.38" y="-52" font-family="Helvetica,sans-Serif" font-size="10.00">::get_path_files</text>
</a>
</g>
</g>
<!-- Node2&#45;&gt;Node3 -->
<g id="edge2_Node000002_Node000003" class="edge">
<title>Node2&#45;&gt;Node3</title>
<g id="a_edge2_Node000002_Node000003"><a xlink:title=" ">
<path fill="none" stroke="#63b8ff" d="M255.97,-46.57C263.86,-47.89 272.05,-49.26 280.13,-50.61"/>
<polygon fill="#63b8ff" stroke="#63b8ff" points="279.5,-54.05 289.94,-52.24 280.65,-47.15 279.5,-54.05"/>
</a>
</g>
</g>
<!-- Node4 -->
<g id="Node000004" class="node">
<title>Node4</title>
<g id="a_Node000004"><a xlink:href="classCore_1_1GlobalInitialiser.html#a3844076c910ed26f60f42bada71cc09e" target="_top" xlink:title="Validates the specified initialization step and any additional steps.">
<polygon fill="white" stroke="#666666" points="401.25,-29 291.5,-29 291.5,0 401.25,0 401.25,-29"/>
<text text-anchor="start" x="299.5" y="-15.5" font-family="Helvetica,sans-Serif" font-size="10.00">Core::GlobalInitialiser</text>
<text text-anchor="middle" x="346.38" y="-5" font-family="Helvetica,sans-Serif" font-size="10.00">::validate_step</text>
</a>
</g>
</g>
<!-- Node2&#45;&gt;Node4 -->
<g id="edge3_Node000002_Node000004" class="edge">
<title>Node2&#45;&gt;Node4</title>
<g id="a_edge3_Node000002_Node000004"><a xlink:title=" ">
<path fill="none" stroke="#63b8ff" d="M255.97,-28.8C263.86,-27.54 272.05,-26.23 280.13,-24.94"/>
<polygon fill="#63b8ff" stroke="#63b8ff" points="280.61,-28.41 289.93,-23.37 279.51,-21.49 280.61,-28.41"/>
</a>
</g>
</g>
</g>
</svg>
</svg>

<style type='text/css'>
<![CDATA[
[data-mouse-over-selected='false'] { opacity: 0.7; }
[data-mouse-over-selected='true']  { opacity: 1.0; }
]]>
</style>
<script type="application/ecmascript"><![CDATA[
document.addEventListener('DOMContentLoaded', (event) => {
  highlightEdges();
  highlightAdjacentNodes();
});
]]></script>
</svg>
