<?xml version="1.0" encoding="UTF-8" standalone="no"?>
<!DOCTYPE svg PUBLIC "-//W3C//DTD SVG 1.1//EN"
 "http://www.w3.org/Graphics/SVG/1.1/DTD/svg11.dtd">
<!-- Generated by graphviz version 14.0.1 (0)
 -->
<!-- Title: Simulation::SimulationUnit::operator= Pages: 1 -->
<svg width="651pt" height="162pt"
 viewBox="0.00 0.00 651.00 162.00" xmlns="http://www.w3.org/2000/svg" xmlns:xlink="http://www.w3.org/1999/xlink">
<g id="graph0" class="graph" transform="scale(1 1) rotate(0) translate(4 158.25)">
<title>Simulation::SimulationUnit::operator=</title>
<!-- Node1 -->
<g id="Node000001" class="node">
<title>Node1</title>
<g id="a_Node000001"><a xlink:title=" ">
<polygon fill="#999999" stroke="#666666" points="131.5,-107.25 0,-107.25 0,-78.25 131.5,-78.25 131.5,-107.25"/>
<text xml:space="preserve" text-anchor="start" x="8" y="-93.75" font-family="Helvetica,sans-Serif" font-size="10.00">Simulation::SimulationUnit</text>
<text xml:space="preserve" text-anchor="middle" x="65.75" y="-83.25" font-family="Helvetica,sans-Serif" font-size="10.00">::operator=</text>
</a>
</g>
</g>
<!-- Node2 -->
<g id="Node000002" class="node">
<title>Node2</title>
<g id="a_Node000002"><a xlink:href="classSimulation_1_1SimulationUnit.html#a366f1f10c6148e01e79d3f10735ea0ea" target="_top" xlink:title=" ">
<polygon fill="white" stroke="#666666" points="299,-107.25 167.5,-107.25 167.5,-78.25 299,-78.25 299,-107.25"/>
<text xml:space="preserve" text-anchor="start" x="175.5" y="-93.75" font-family="Helvetica,sans-Serif" font-size="10.00">Simulation::SimulationUnit</text>
<text xml:space="preserve" text-anchor="middle" x="233.25" y="-83.25" font-family="Helvetica,sans-Serif" font-size="10.00">::SimulationUnit</text>
</a>
</g>
</g>
<!-- Node1&#45;&gt;Node2 -->
<g id="edge1_Node000001_Node000002" class="edge">
<title>Node1&#45;&gt;Node2</title>
<g id="a_edge1_Node000001_Node000002"><a xlink:title=" ">
<path fill="none" stroke="#63b8ff" d="M131.68,-92.75C139.63,-92.75 147.79,-92.75 155.88,-92.75"/>
<polygon fill="#63b8ff" stroke="#63b8ff" points="155.72,-96.25 165.72,-92.75 155.72,-89.25 155.72,-96.25"/>
</a>
</g>
</g>
<!-- Node3 -->
<g id="Node000003" class="node">
<title>Node3</title>
<g id="a_Node000003"><a xlink:href="classSimulation_1_1SimulationUnit.html#a9ea90cab13d8259f026f57baad1c989f" target="_top" xlink:title=" ">
<polygon fill="white" stroke="#666666" points="466.5,-154.25 335,-154.25 335,-125.25 466.5,-125.25 466.5,-154.25"/>
<text xml:space="preserve" text-anchor="start" x="343" y="-140.75" font-family="Helvetica,sans-Serif" font-size="10.00">Simulation::SimulationUnit</text>
<text xml:space="preserve" text-anchor="middle" x="400.75" y="-130.25" font-family="Helvetica,sans-Serif" font-size="10.00">::get_kernel_contribution</text>
</a>
</g>
</g>
<!-- Node2&#45;&gt;Node3 -->
<g id="edge2_Node000002_Node000003" class="edge">
<title>Node2&#45;&gt;Node3</title>
<g id="a_edge2_Node000002_Node000003"><a xlink:title=" ">
<path fill="none" stroke="#63b8ff" d="M286.62,-107.62C302.46,-112.12 320.04,-117.11 336.52,-121.79"/>
<polygon fill="#63b8ff" stroke="#63b8ff" points="335.13,-125.04 345.7,-124.4 337.04,-118.3 335.13,-125.04"/>
</a>
</g>
</g>
<!-- Node4 -->
<g id="Node000004" class="node">
<title>Node4</title>
<g id="a_Node000004"><a xlink:href="classSimulation_1_1SimulationUnit.html#a4d9a0037502fc0784690c11c1a593a1f" target="_top" xlink:title=" ">
<polygon fill="white" stroke="#666666" points="466.5,-107.25 335,-107.25 335,-78.25 466.5,-78.25 466.5,-107.25"/>
<text xml:space="preserve" text-anchor="start" x="343" y="-93.75" font-family="Helvetica,sans-Serif" font-size="10.00">Simulation::SimulationUnit</text>
<text xml:space="preserve" text-anchor="middle" x="400.75" y="-83.25" font-family="Helvetica,sans-Serif" font-size="10.00">::post_init_compartments</text>
</a>
</g>
</g>
<!-- Node2&#45;&gt;Node4 -->
<g id="edge3_Node000002_Node000004" class="edge">
<title>Node2&#45;&gt;Node4</title>
<g id="a_edge3_Node000002_Node000004"><a xlink:title=" ">
<path fill="none" stroke="#63b8ff" d="M299.18,-92.75C307.13,-92.75 315.29,-92.75 323.38,-92.75"/>
<polygon fill="#63b8ff" stroke="#63b8ff" points="323.22,-96.25 333.22,-92.75 323.22,-89.25 323.22,-96.25"/>
</a>
</g>
</g>
<!-- Node5 -->
<g id="Node000005" class="node">
<title>Node5</title>
<g id="a_Node000005"><a xlink:href="classSimulation_1_1SimulationUnit.html#ad3ffc3108a93d7f403e8f2b81cc24e6d" target="_top" xlink:title=" ">
<polygon fill="white" stroke="#666666" points="466.5,-60.25 335,-60.25 335,-31.25 466.5,-31.25 466.5,-60.25"/>
<text xml:space="preserve" text-anchor="start" x="343" y="-46.75" font-family="Helvetica,sans-Serif" font-size="10.00">Simulation::SimulationUnit</text>
<text xml:space="preserve" text-anchor="middle" x="400.75" y="-36.25" font-family="Helvetica,sans-Serif" font-size="10.00">::post_init_concentration</text>
</a>
</g>
</g>
<!-- Node2&#45;&gt;Node5 -->
<g id="edge4_Node000002_Node000005" class="edge">
<title>Node2&#45;&gt;Node5</title>
<g id="a_edge4_Node000002_Node000005"><a xlink:title=" ">
<path fill="none" stroke="#63b8ff" d="M286.62,-77.88C302.46,-73.38 320.04,-68.39 336.52,-63.71"/>
<polygon fill="#63b8ff" stroke="#63b8ff" points="337.04,-67.2 345.7,-61.1 335.13,-60.46 337.04,-67.2"/>
</a>
</g>
</g>
<!-- Node6 -->
<g id="Node000006" class="node">
<title>Node6</title>
<g id="a_Node000006"><a xlink:href="classSimulation_1_1SimulationUnit.html#a449800ba9a7ee67fa9b6bae41869a9de" target="_top" xlink:title=" ">
<polygon fill="white" stroke="#666666" points="643,-86.25 502.5,-86.25 502.5,-57.25 643,-57.25 643,-86.25"/>
<text xml:space="preserve" text-anchor="start" x="510.5" y="-72.75" font-family="Helvetica,sans-Serif" font-size="10.00">Simulation::SimulationUnit</text>
<text xml:space="preserve" text-anchor="middle" x="572.75" y="-62.25" font-family="Helvetica,sans-Serif" font-size="10.00">::post_init_concentration_file</text>
</a>
</g>
</g>
<!-- Node5&#45;&gt;Node6 -->
<g id="edge5_Node000005_Node000006" class="edge">
<title>Node5&#45;&gt;Node6</title>
<g id="a_edge5_Node000005_Node000006"><a xlink:title=" ">
<path fill="none" stroke="#63b8ff" d="M466.99,-55.73C474.82,-56.93 482.88,-58.16 490.9,-59.38"/>
<polygon fill="#63b8ff" stroke="#63b8ff" points="490.26,-62.83 500.67,-60.88 491.32,-55.91 490.26,-62.83"/>
</a>
</g>
</g>
<!-- Node7 -->
<g id="Node000007" class="node">
<title>Node7</title>
<g id="a_Node000007"><a xlink:href="classSimulation_1_1SimulationUnit.html#acdb3001a8070525afefe3298ed738691" target="_top" xlink:title=" ">
<polygon fill="white" stroke="#666666" points="638.5,-39.5 507,-39.5 507,0 638.5,0 638.5,-39.5"/>
<text xml:space="preserve" text-anchor="start" x="515" y="-26" font-family="Helvetica,sans-Serif" font-size="10.00">Simulation::SimulationUnit</text>
<text xml:space="preserve" text-anchor="start" x="515" y="-15.5" font-family="Helvetica,sans-Serif" font-size="10.00">::post_init_concentration</text>
<text xml:space="preserve" text-anchor="middle" x="572.75" y="-5" font-family="Helvetica,sans-Serif" font-size="10.00">_functor</text>
</a>
</g>
</g>
<!-- Node5&#45;&gt;Node7 -->
<g id="edge6_Node000005_Node000007" class="edge">
<title>Node5&#45;&gt;Node7</title>
<g id="a_edge6_Node000005_Node000007"><a xlink:title=" ">
<path fill="none" stroke="#63b8ff" d="M466.99,-35.77C476.34,-34.34 486.04,-32.86 495.58,-31.4"/>
<polygon fill="#63b8ff" stroke="#63b8ff" points="495.83,-34.9 505.19,-29.93 494.77,-27.98 495.83,-34.9"/>
</a>
</g>
</g>
</g>
</svg>
