<?xml version="1.0" encoding="UTF-8" standalone="no"?>
<!DOCTYPE svg PUBLIC "-//W3C//DTD SVG 1.1//EN"
 "http://www.w3.org/Graphics/SVG/1.1/DTD/svg11.dtd">
<!-- Generated by graphviz version 14.0.1 (0)
 -->
<!-- Title: Simulation::ScalarSimulation::~ScalarSimulation Pages: 1 -->
<svg width="683pt" height="783pt"
 viewBox="0.00 0.00 683.00 783.00" xmlns="http://www.w3.org/2000/svg" xmlns:xlink="http://www.w3.org/1999/xlink">
<g id="graph0" class="graph" transform="scale(1 1) rotate(0) translate(4 779)">
<title>Simulation::ScalarSimulation::~ScalarSimulation</title>
<!-- Node1 -->
<g id="Node000001" class="node">
<title>Node1</title>
<g id="a_Node000001"><a xlink:title=" ">
<polygon fill="#999999" stroke="#666666" points="141.25,-397 0,-397 0,-368 141.25,-368 141.25,-397"/>
<text xml:space="preserve" text-anchor="start" x="8" y="-383.5" font-family="Helvetica,sans-Serif" font-size="10.00">Simulation::ScalarSimulation</text>
<text xml:space="preserve" text-anchor="middle" x="70.62" y="-373" font-family="Helvetica,sans-Serif" font-size="10.00">::~ScalarSimulation</text>
</a>
</g>
</g>
<!-- Node2 -->
<g id="Node000002" class="node">
<title>Node2</title>
<g id="a_Node000002"><a xlink:href="classSimulation_1_1ScalarSimulation.html#ab6881cc044f62a769c78b933231e820d" target="_top" xlink:title=" ">
<polygon fill="white" stroke="#666666" points="319.62,-775 178.38,-775 178.38,-746 319.62,-746 319.62,-775"/>
<text xml:space="preserve" text-anchor="start" x="186.38" y="-761.5" font-family="Helvetica,sans-Serif" font-size="10.00">Simulation::ScalarSimulation</text>
<text xml:space="preserve" text-anchor="middle" x="249" y="-751" font-family="Helvetica,sans-Serif" font-size="10.00">::clearNegs</text>
</a>
</g>
</g>
<!-- Node1&#45;&gt;Node2 -->
<g id="edge1_Node000001_Node000002" class="edge">
<title>Node1&#45;&gt;Node2</title>
<g id="a_edge1_Node000001_Node000002"><a xlink:title=" ">
<path fill="none" stroke="#63b8ff" d="M71.45,-397.38C71.64,-451.13 79.61,-637.37 177.25,-737.5 177.73,-737.99 178.22,-738.47 178.72,-738.94"/>
<polygon fill="#63b8ff" stroke="#63b8ff" points="176.3,-741.5 186.38,-744.78 180.55,-735.94 176.3,-741.5"/>
</a>
</g>
</g>
<!-- Node3 -->
<g id="Node000003" class="node">
<title>Node3</title>
<g id="a_Node000003"><a xlink:href="classSimulation_1_1ScalarSimulation.html#a688bdcc99d9b6b6922129e55248a7b66" target="_top" xlink:title=" ">
<polygon fill="white" stroke="#666666" points="319.62,-728 178.38,-728 178.38,-699 319.62,-699 319.62,-728"/>
<text xml:space="preserve" text-anchor="start" x="186.38" y="-714.5" font-family="Helvetica,sans-Serif" font-size="10.00">Simulation::ScalarSimulation</text>
<text xml:space="preserve" text-anchor="middle" x="249" y="-704" font-family="Helvetica,sans-Serif" font-size="10.00">::contribution_span</text>
</a>
</g>
</g>
<!-- Node1&#45;&gt;Node3 -->
<g id="edge2_Node000001_Node000003" class="edge">
<title>Node1&#45;&gt;Node3</title>
<g id="a_edge2_Node000001_Node000003"><a xlink:title=" ">
<path fill="none" stroke="#63b8ff" d="M72.24,-397.45C75.07,-446.69 90.82,-605.45 177.25,-690.5 177.74,-690.98 178.24,-691.45 178.75,-691.91"/>
<polygon fill="#63b8ff" stroke="#63b8ff" points="176.39,-694.52 186.51,-697.66 180.55,-688.9 176.39,-694.52"/>
</a>
</g>
</g>
<!-- Node4 -->
<g id="Node000004" class="node">
<title>Node4</title>
<g id="a_Node000004"><a xlink:href="classSimulation_1_1ScalarSimulation.html#a7febcc0f5298fe8ec74e5080de08e2ac" target="_top" xlink:title=" ">
<polygon fill="white" stroke="#666666" points="319.62,-681 178.38,-681 178.38,-652 319.62,-652 319.62,-681"/>
<text xml:space="preserve" text-anchor="start" x="186.38" y="-667.5" font-family="Helvetica,sans-Serif" font-size="10.00">Simulation::ScalarSimulation</text>
<text xml:space="preserve" text-anchor="middle" x="249" y="-657" font-family="Helvetica,sans-Serif" font-size="10.00">::contribution_span_mut</text>
</a>
</g>
</g>
<!-- Node1&#45;&gt;Node4 -->
<g id="edge3_Node000001_Node000004" class="edge">
<title>Node1&#45;&gt;Node4</title>
<g id="a_edge3_Node000001_Node000004"><a xlink:title=" ">
<path fill="none" stroke="#63b8ff" d="M73.27,-397.34C78.97,-441.47 101.8,-573.17 177.25,-643.5 177.87,-644.08 178.5,-644.64 179.15,-645.19"/>
<polygon fill="#63b8ff" stroke="#63b8ff" points="176.81,-647.82 187.01,-650.69 180.83,-642.09 176.81,-647.82"/>
</a>
</g>
</g>
<!-- Node5 -->
<g id="Node000005" class="node">
<title>Node5</title>
<g id="a_Node000005"><a xlink:href="classSimulation_1_1ScalarSimulation.html#ad512fdf81a2b850d01330c7597a008af" target="_top" xlink:title=" ">
<polygon fill="white" stroke="#666666" points="319.62,-634 178.38,-634 178.38,-605 319.62,-605 319.62,-634"/>
<text xml:space="preserve" text-anchor="start" x="186.38" y="-620.5" font-family="Helvetica,sans-Serif" font-size="10.00">Simulation::ScalarSimulation</text>
<text xml:space="preserve" text-anchor="middle" x="249" y="-610" font-family="Helvetica,sans-Serif" font-size="10.00">::get_device_concentration</text>
</a>
</g>
</g>
<!-- Node1&#45;&gt;Node5 -->
<g id="edge4_Node000001_Node000005" class="edge">
<title>Node1&#45;&gt;Node5</title>
<g id="a_edge4_Node000001_Node000005"><a xlink:title=" ">
<path fill="none" stroke="#63b8ff" d="M74.75,-397.41C83.64,-436.11 112.71,-540.65 177.25,-596.5 178.04,-597.18 178.85,-597.85 179.68,-598.49"/>
<polygon fill="#63b8ff" stroke="#63b8ff" points="177.63,-601.33 187.92,-603.84 181.44,-595.46 177.63,-601.33"/>
</a>
</g>
</g>
<!-- Node6 -->
<g id="Node000006" class="node">
<title>Node6</title>
<g id="a_Node000006"><a xlink:href="classSimulation_1_1ScalarSimulation.html#acbf90360d259eea04a5672e3070cea8f" target="_top" xlink:title=" ">
<polygon fill="white" stroke="#666666" points="319.62,-587 178.38,-587 178.38,-558 319.62,-558 319.62,-587"/>
<text xml:space="preserve" text-anchor="start" x="186.38" y="-573.5" font-family="Helvetica,sans-Serif" font-size="10.00">Simulation::ScalarSimulation</text>
<text xml:space="preserve" text-anchor="middle" x="249" y="-563" font-family="Helvetica,sans-Serif" font-size="10.00">::get_kernel_contribution</text>
</a>
</g>
</g>
<!-- Node1&#45;&gt;Node6 -->
<g id="edge5_Node000001_Node000006" class="edge">
<title>Node1&#45;&gt;Node6</title>
<g id="a_edge5_Node000001_Node000006"><a xlink:title=" ">
<path fill="none" stroke="#63b8ff" d="M77.57,-397.06C90.92,-428.11 126.18,-501.39 177.25,-543.5 181.16,-546.72 185.47,-549.63 189.99,-552.24"/>
<polygon fill="#63b8ff" stroke="#63b8ff" points="188.27,-555.3 198.76,-556.8 191.5,-549.08 188.27,-555.3"/>
</a>
</g>
</g>
<!-- Node7 -->
<g id="Node000007" class="node">
<title>Node7</title>
<g id="a_Node000007"><a xlink:href="classSimulation_1_1ScalarSimulation.html#ae2625817dffc02083227be2b82dfe534" target="_top" xlink:title=" ">
<polygon fill="white" stroke="#666666" points="319.62,-483 178.38,-483 178.38,-454 319.62,-454 319.62,-483"/>
<text xml:space="preserve" text-anchor="start" x="186.38" y="-469.5" font-family="Helvetica,sans-Serif" font-size="10.00">Simulation::ScalarSimulation</text>
<text xml:space="preserve" text-anchor="middle" x="249" y="-459" font-family="Helvetica,sans-Serif" font-size="10.00">::getConcentrationArray</text>
</a>
</g>
</g>
<!-- Node1&#45;&gt;Node7 -->
<g id="edge6_Node000001_Node000007" class="edge">
<title>Node1&#45;&gt;Node7</title>
<g id="a_edge6_Node000001_Node000007"><a xlink:title=" ">
<path fill="none" stroke="#63b8ff" d="M97.28,-397.33C118.43,-409.32 149.37,-426.31 177.25,-439.5 184.18,-442.78 191.59,-446.06 198.91,-449.17"/>
<polygon fill="#63b8ff" stroke="#63b8ff" points="197.52,-452.38 208.09,-453 200.21,-445.92 197.52,-452.38"/>
</a>
</g>
</g>
<!-- Node9 -->
<g id="Node000009" class="node">
<title>Node9</title>
<g id="a_Node000009"><a xlink:href="classSimulation_1_1ScalarSimulation.html#a5ca5e122100fad91f418cbbea5bbb439" target="_top" xlink:title=" ">
<polygon fill="white" stroke="#666666" points="675.25,-438 534,-438 534,-409 675.25,-409 675.25,-438"/>
<text xml:space="preserve" text-anchor="start" x="542" y="-424.5" font-family="Helvetica,sans-Serif" font-size="10.00">Simulation::ScalarSimulation</text>
<text xml:space="preserve" text-anchor="middle" x="604.62" y="-414" font-family="Helvetica,sans-Serif" font-size="10.00">::n_col</text>
</a>
</g>
</g>
<!-- Node1&#45;&gt;Node9 -->
<g id="edge13_Node000001_Node000009" class="edge">
<title>Node1&#45;&gt;Node9</title>
<g id="a_edge13_Node000001_Node000009"><a xlink:title=" ">
<path fill="none" stroke="#63b8ff" d="M71.31,-367.58C71.16,-316.36 78.39,-146.96 177.25,-76.5 229.19,-39.48 263.14,-49.14 320.75,-76.5 466.73,-145.84 562.18,-331.45 592.89,-398.72"/>
<polygon fill="#63b8ff" stroke="#63b8ff" points="589.51,-399.74 596.79,-407.43 595.9,-396.88 589.51,-399.74"/>
</a>
</g>
</g>
<!-- Node10 -->
<g id="Node000010" class="node">
<title>Node10</title>
<g id="a_Node000010"><a xlink:href="classSimulation_1_1ScalarSimulation.html#aab5e48f3385a40d87dd678103097ec06" target="_top" xlink:title=" ">
<polygon fill="white" stroke="#666666" points="675.25,-514 534,-514 534,-485 675.25,-485 675.25,-514"/>
<text xml:space="preserve" text-anchor="start" x="542" y="-500.5" font-family="Helvetica,sans-Serif" font-size="10.00">Simulation::ScalarSimulation</text>
<text xml:space="preserve" text-anchor="middle" x="604.62" y="-490" font-family="Helvetica,sans-Serif" font-size="10.00">::n_row</text>
</a>
</g>
</g>
<!-- Node1&#45;&gt;Node10 -->
<g id="edge14_Node000001_Node000010" class="edge">
<title>Node1&#45;&gt;Node10</title>
<g id="a_edge14_Node000001_Node000010"><a xlink:title=" ">
<path fill="none" stroke="#63b8ff" d="M78.31,-397.19C92.1,-425.45 126.69,-486.67 177.25,-510.5 296.96,-566.92 457.34,-539.2 543.25,-517.32"/>
<polygon fill="#63b8ff" stroke="#63b8ff" points="544.11,-520.72 552.9,-514.8 542.34,-513.95 544.11,-520.72"/>
</a>
</g>
</g>
<!-- Node11 -->
<g id="Node000011" class="node">
<title>Node11</title>
<g id="a_Node000011"><a xlink:href="classSimulation_1_1ScalarSimulation.html#afcf9b11b8de7215be6b83ed6a2aceaf0" target="_top" xlink:title=" ">
<polygon fill="white" stroke="#666666" points="319.62,-397 178.38,-397 178.38,-368 319.62,-368 319.62,-397"/>
<text xml:space="preserve" text-anchor="start" x="186.38" y="-383.5" font-family="Helvetica,sans-Serif" font-size="10.00">Simulation::ScalarSimulation</text>
<text xml:space="preserve" text-anchor="middle" x="249" y="-373" font-family="Helvetica,sans-Serif" font-size="10.00">::getConcentrationData</text>
</a>
</g>
</g>
<!-- Node1&#45;&gt;Node11 -->
<g id="edge11_Node000001_Node000011" class="edge">
<title>Node1&#45;&gt;Node11</title>
<g id="a_edge11_Node000001_Node000011"><a xlink:title=" ">
<path fill="none" stroke="#63b8ff" d="M141.59,-382.5C149.85,-382.5 158.34,-382.5 166.74,-382.5"/>
<polygon fill="#63b8ff" stroke="#63b8ff" points="166.61,-386 176.61,-382.5 166.61,-379 166.61,-386"/>
</a>
</g>
</g>
<!-- Node12 -->
<g id="Node000012" class="node">
<title>Node12</title>
<g id="a_Node000012"><a xlink:href="classSimulation_1_1ScalarSimulation.html#ad1ac665e7224395a20e33e6e5f767b1f" target="_top" xlink:title=" ">
<polygon fill="white" stroke="#666666" points="319.62,-350 178.38,-350 178.38,-321 319.62,-321 319.62,-350"/>
<text xml:space="preserve" text-anchor="start" x="186.38" y="-336.5" font-family="Helvetica,sans-Serif" font-size="10.00">Simulation::ScalarSimulation</text>
<text xml:space="preserve" text-anchor="middle" x="249" y="-326" font-family="Helvetica,sans-Serif" font-size="10.00">::getVolume</text>
</a>
</g>
</g>
<!-- Node1&#45;&gt;Node12 -->
<g id="edge12_Node000001_Node000012" class="edge">
<title>Node1&#45;&gt;Node12</title>
<g id="a_edge12_Node000001_Node000012"><a xlink:title=" ">
<path fill="none" stroke="#63b8ff" d="M127.43,-367.63C144.4,-363.11 163.23,-358.09 180.86,-353.39"/>
<polygon fill="#63b8ff" stroke="#63b8ff" points="181.73,-356.78 190.49,-350.83 179.92,-350.02 181.73,-356.78"/>
</a>
</g>
</g>
<!-- Node13 -->
<g id="Node000013" class="node">
<title>Node13</title>
<g id="a_Node000013"><a xlink:href="classSimulation_1_1ScalarSimulation.html#a5a793304a495454f9969fcd83e70f654" target="_top" xlink:title=" ">
<polygon fill="white" stroke="#666666" points="319.62,-303 178.38,-303 178.38,-274 319.62,-274 319.62,-303"/>
<text xml:space="preserve" text-anchor="start" x="186.38" y="-289.5" font-family="Helvetica,sans-Serif" font-size="10.00">Simulation::ScalarSimulation</text>
<text xml:space="preserve" text-anchor="middle" x="249" y="-279" font-family="Helvetica,sans-Serif" font-size="10.00">::set_feed</text>
</a>
</g>
</g>
<!-- Node1&#45;&gt;Node13 -->
<g id="edge15_Node000001_Node000013" class="edge">
<title>Node1&#45;&gt;Node13</title>
<g id="a_edge15_Node000001_Node000013"><a xlink:title=" ">
<path fill="none" stroke="#63b8ff" d="M90.12,-367.73C110.48,-352.04 144.67,-327.36 177.25,-311.5 179.99,-310.17 182.82,-308.89 185.7,-307.66"/>
<polygon fill="#63b8ff" stroke="#63b8ff" points="186.92,-310.94 194.92,-304 184.33,-304.44 186.92,-310.94"/>
</a>
</g>
</g>
<!-- Node14 -->
<g id="Node000014" class="node">
<title>Node14</title>
<g id="a_Node000014"><a xlink:href="classSimulation_1_1ScalarSimulation.html#afb6dadda99cfce2c2172ad5fabc42682" target="_top" xlink:title=" ">
<polygon fill="white" stroke="#666666" points="320.75,-256 177.25,-256 177.25,-227 320.75,-227 320.75,-256"/>
<text xml:space="preserve" text-anchor="start" x="185.25" y="-242.5" font-family="Helvetica,sans-Serif" font-size="10.00">Simulation::ScalarSimulation</text>
<text xml:space="preserve" text-anchor="middle" x="249" y="-232" font-family="Helvetica,sans-Serif" font-size="10.00">::set_kernel_contribs_to_host</text>
</a>
</g>
</g>
<!-- Node1&#45;&gt;Node14 -->
<g id="edge16_Node000001_Node000014" class="edge">
<title>Node1&#45;&gt;Node14</title>
<g id="a_edge16_Node000001_Node000014"><a xlink:title=" ">
<path fill="none" stroke="#63b8ff" d="M81.12,-367.52C97.67,-342.59 134.17,-292.57 177.25,-264.5 178.85,-263.46 180.5,-262.46 182.19,-261.5"/>
<polygon fill="#63b8ff" stroke="#63b8ff" points="183.5,-264.76 190.88,-257.15 180.37,-258.5 183.5,-264.76"/>
</a>
</g>
</g>
<!-- Node15 -->
<g id="Node000015" class="node">
<title>Node15</title>
<g id="a_Node000015"><a xlink:href="classSimulation_1_1ScalarSimulation.html#ae80baa6cc64f5e0bae5847d0b1b739fc" target="_top" xlink:title=" ">
<polygon fill="white" stroke="#666666" points="319.62,-209 178.38,-209 178.38,-180 319.62,-180 319.62,-209"/>
<text xml:space="preserve" text-anchor="start" x="186.38" y="-195.5" font-family="Helvetica,sans-Serif" font-size="10.00">Simulation::ScalarSimulation</text>
<text xml:space="preserve" text-anchor="middle" x="249" y="-185" font-family="Helvetica,sans-Serif" font-size="10.00">::set_mass</text>
</a>
</g>
</g>
<!-- Node1&#45;&gt;Node15 -->
<g id="edge17_Node000001_Node000015" class="edge">
<title>Node1&#45;&gt;Node15</title>
<g id="a_edge17_Node000001_Node000015"><a xlink:title=" ">
<path fill="none" stroke="#63b8ff" d="M77.04,-367.76C89.57,-335.63 123.69,-258.88 177.25,-217.5 178.37,-216.63 179.53,-215.8 180.71,-215"/>
<polygon fill="#63b8ff" stroke="#63b8ff" points="182.08,-218.25 188.96,-210.19 178.56,-212.2 182.08,-218.25"/>
</a>
</g>
</g>
<!-- Node16 -->
<g id="Node000016" class="node">
<title>Node16</title>
<g id="a_Node000016"><a xlink:href="classSimulation_1_1ScalarSimulation.html#a2ec477ff4779eeeb0fc66eb443c5900a" target="_top" xlink:title=" ">
<polygon fill="white" stroke="#666666" points="319.62,-162 178.38,-162 178.38,-133 319.62,-133 319.62,-162"/>
<text xml:space="preserve" text-anchor="start" x="186.38" y="-148.5" font-family="Helvetica,sans-Serif" font-size="10.00">Simulation::ScalarSimulation</text>
<text xml:space="preserve" text-anchor="middle" x="249" y="-138" font-family="Helvetica,sans-Serif" font-size="10.00">::set_sink</text>
</a>
</g>
</g>
<!-- Node1&#45;&gt;Node16 -->
<g id="edge18_Node000001_Node000016" class="edge">
<title>Node1&#45;&gt;Node16</title>
<g id="a_edge18_Node000001_Node000016"><a xlink:title=" ">
<path fill="none" stroke="#63b8ff" d="M74.8,-367.73C83.79,-329.38 113.09,-225.81 177.25,-170.5 178.04,-169.82 178.85,-169.16 179.69,-168.51"/>
<polygon fill="#63b8ff" stroke="#63b8ff" points="181.44,-171.54 187.93,-163.17 177.64,-165.67 181.44,-171.54"/>
</a>
</g>
</g>
<!-- Node17 -->
<g id="Node000017" class="node">
<title>Node17</title>
<g id="a_Node000017"><a xlink:href="classSimulation_1_1ScalarSimulation.html#a699b0f56e5d0145718249e3b658a146c" target="_top" xlink:title=" ">
<polygon fill="white" stroke="#666666" points="319.62,-115 178.38,-115 178.38,-86 319.62,-86 319.62,-115"/>
<text xml:space="preserve" text-anchor="start" x="186.38" y="-101.5" font-family="Helvetica,sans-Serif" font-size="10.00">Simulation::ScalarSimulation</text>
<text xml:space="preserve" text-anchor="middle" x="249" y="-91" font-family="Helvetica,sans-Serif" font-size="10.00">::set_zero_contribs</text>
</a>
</g>
</g>
<!-- Node1&#45;&gt;Node17 -->
<g id="edge19_Node000001_Node000017" class="edge">
<title>Node1&#45;&gt;Node17</title>
<g id="a_edge19_Node000001_Node000017"><a xlink:title=" ">
<path fill="none" stroke="#63b8ff" d="M73.31,-367.77C79.11,-323.97 102.2,-193.26 177.25,-123.5 177.87,-122.92 178.51,-122.36 179.16,-121.81"/>
<polygon fill="#63b8ff" stroke="#63b8ff" points="180.83,-124.91 187.02,-116.31 176.82,-119.18 180.83,-124.91"/>
</a>
</g>
</g>
<!-- Node18 -->
<g id="Node000018" class="node">
<title>Node18</title>
<g id="a_Node000018"><a xlink:href="classSimulation_1_1ScalarSimulation.html#a45bff3c267cd20371ee730cb07ba4a37" target="_top" xlink:title=" ">
<polygon fill="white" stroke="#666666" points="498,-438 356.75,-438 356.75,-409 498,-409 498,-438"/>
<text xml:space="preserve" text-anchor="start" x="364.75" y="-424.5" font-family="Helvetica,sans-Serif" font-size="10.00">Simulation::ScalarSimulation</text>
<text xml:space="preserve" text-anchor="middle" x="427.38" y="-414" font-family="Helvetica,sans-Serif" font-size="10.00">::setVolumes</text>
</a>
</g>
</g>
<!-- Node1&#45;&gt;Node18 -->
<g id="edge20_Node000001_Node000018" class="edge">
<title>Node1&#45;&gt;Node18</title>
<g id="a_edge20_Node000001_Node000018"><a xlink:title=" ">
<path fill="none" stroke="#63b8ff" d="M129.98,-397.46C145.28,-400.91 161.81,-404.23 177.25,-406.5 232.84,-414.66 296,-418.92 344.81,-421.13"/>
<polygon fill="#63b8ff" stroke="#63b8ff" points="344.61,-424.62 354.75,-421.56 344.91,-417.63 344.61,-424.62"/>
</a>
</g>
</g>
<!-- Node19 -->
<g id="Node000019" class="node">
<title>Node19</title>
<g id="a_Node000019"><a xlink:href="classSimulation_1_1ScalarSimulation.html#ad3a68e95acbaebba654fa2dec2b7cbb8" target="_top" xlink:title=" ">
<polygon fill="white" stroke="#666666" points="319.62,-29 178.38,-29 178.38,0 319.62,0 319.62,-29"/>
<text xml:space="preserve" text-anchor="start" x="186.38" y="-15.5" font-family="Helvetica,sans-Serif" font-size="10.00">Simulation::ScalarSimulation</text>
<text xml:space="preserve" text-anchor="middle" x="249" y="-5" font-family="Helvetica,sans-Serif" font-size="10.00">::volume_span</text>
</a>
</g>
</g>
<!-- Node1&#45;&gt;Node19 -->
<g id="edge22_Node000001_Node000019" class="edge">
<title>Node1&#45;&gt;Node19</title>
<g id="a_edge22_Node000001_Node000019"><a xlink:title=" ">
<path fill="none" stroke="#63b8ff" d="M71.95,-367.81C73.88,-316.32 87.07,-141.88 177.25,-43.5 180.06,-40.43 183.25,-37.68 186.67,-35.22"/>
<polygon fill="#63b8ff" stroke="#63b8ff" points="188.24,-38.36 194.91,-30.13 184.56,-32.4 188.24,-38.36"/>
</a>
</g>
</g>
<!-- Node7&#45;&gt;Node7 -->
<g id="edge7_Node000007_Node000007" class="edge">
<title>Node7&#45;&gt;Node7</title>
<g id="a_edge7_Node000007_Node000007"><a xlink:title=" ">
<path fill="none" stroke="#63b8ff" d="M217.91,-483.21C210.42,-492.32 220.78,-501 249,-501 264.43,-501 274.52,-498.41 279.28,-494.56"/>
<polygon fill="#63b8ff" stroke="#63b8ff" points="282.76,-494.94 279.98,-484.72 275.78,-494.44 282.76,-494.94"/>
</a>
</g>
</g>
<!-- Node8 -->
<g id="Node000008" class="node">
<title>Node8</title>
<g id="a_Node000008"><a xlink:href="classSimulation_1_1ScalarSimulation.html#aa72818956090d90be703c0ba0ed932ee" target="_top" xlink:title=" ">
<polygon fill="white" stroke="#666666" points="498,-485 356.75,-485 356.75,-456 498,-456 498,-485"/>
<text xml:space="preserve" text-anchor="start" x="364.75" y="-471.5" font-family="Helvetica,sans-Serif" font-size="10.00">Simulation::ScalarSimulation</text>
<text xml:space="preserve" text-anchor="middle" x="427.38" y="-461" font-family="Helvetica,sans-Serif" font-size="10.00">::ScalarSimulation</text>
</a>
</g>
</g>
<!-- Node7&#45;&gt;Node8 -->
<g id="edge8_Node000007_Node000008" class="edge">
<title>Node7&#45;&gt;Node8</title>
<g id="a_edge8_Node000007_Node000008"><a xlink:title=" ">
<path fill="none" stroke="#63b8ff" d="M319.96,-469.29C328.23,-469.39 336.72,-469.48 345.12,-469.58"/>
<polygon fill="#63b8ff" stroke="#63b8ff" points="344.95,-473.08 354.98,-469.69 345.03,-466.08 344.95,-473.08"/>
</a>
</g>
</g>
<!-- Node8&#45;&gt;Node9 -->
<g id="edge9_Node000008_Node000009" class="edge">
<title>Node8&#45;&gt;Node9</title>
<g id="a_edge9_Node000008_Node000009"><a xlink:title=" ">
<path fill="none" stroke="#63b8ff" d="M483.83,-455.63C500.77,-451.09 519.57,-446.04 537.16,-441.32"/>
<polygon fill="#63b8ff" stroke="#63b8ff" points="537.72,-444.8 546.47,-438.83 535.91,-438.04 537.72,-444.8"/>
</a>
</g>
</g>
<!-- Node8&#45;&gt;Node10 -->
<g id="edge10_Node000008_Node000010" class="edge">
<title>Node8&#45;&gt;Node10</title>
<g id="a_edge10_Node000008_Node000010"><a xlink:title=" ">
<path fill="none" stroke="#63b8ff" d="M498.39,-482.09C506.3,-483.39 514.4,-484.74 522.44,-486.07"/>
<polygon fill="#63b8ff" stroke="#63b8ff" points="521.79,-489.51 532.22,-487.68 522.93,-482.6 521.79,-489.51"/>
</a>
</g>
</g>
<!-- Node18&#45;&gt;Node9 -->
<g id="edge21_Node000018_Node000009" class="edge">
<title>Node18&#45;&gt;Node9</title>
<g id="a_edge21_Node000018_Node000009"><a xlink:title=" ">
<path fill="none" stroke="#63b8ff" d="M498.39,-423.5C506.3,-423.5 514.4,-423.5 522.44,-423.5"/>
<polygon fill="#63b8ff" stroke="#63b8ff" points="522.2,-427 532.2,-423.5 522.2,-420 522.2,-427"/>
</a>
</g>
</g>
</g>
</svg>
