<?xml version="1.0" encoding="UTF-8" standalone="no"?>
<!DOCTYPE svg PUBLIC "-//W3C//DTD SVG 1.1//EN"
 "http://www.w3.org/Graphics/SVG/1.1/DTD/svg11.dtd">
<!-- Generated by graphviz version 14.0.1 (0)
 -->
<!-- Title: Simulation::Getter::mc_unit Pages: 1 -->
<svg width="1135pt" height="232pt"
 viewBox="0.00 0.00 1135.00 232.00" xmlns="http://www.w3.org/2000/svg" xmlns:xlink="http://www.w3.org/1999/xlink">
<g id="graph0" class="graph" transform="scale(1 1) rotate(0) translate(4 228)">
<title>Simulation::Getter::mc_unit</title>
<!-- Node1 -->
<g id="Node000001" class="node">
<title>Node1</title>
<g id="a_Node000001"><a xlink:title=" ">
<polygon fill="#999999" stroke="#666666" points="1127,-138 1032.25,-138 1032.25,-109 1127,-109 1127,-138"/>
<text xml:space="preserve" text-anchor="start" x="1040.25" y="-124.5" font-family="Helvetica,sans-Serif" font-size="10.00">Simulation::Getter</text>
<text xml:space="preserve" text-anchor="middle" x="1079.62" y="-114" font-family="Helvetica,sans-Serif" font-size="10.00">::mc_unit</text>
</a>
</g>
</g>
<!-- Node2 -->
<g id="Node000002" class="node">
<title>Node2</title>
<g id="a_Node000002"><a xlink:href="namespacePostProcessing.html#a4ab2f40acb429b9c449457ac83604ab7" target="_top" xlink:title=" ">
<polygon fill="white" stroke="#666666" points="995.12,-224 886.12,-224 886.12,-195 995.12,-195 995.12,-224"/>
<text xml:space="preserve" text-anchor="start" x="894.12" y="-210.5" font-family="Helvetica,sans-Serif" font-size="10.00">PostProcessing::final</text>
<text xml:space="preserve" text-anchor="middle" x="940.62" y="-200" font-family="Helvetica,sans-Serif" font-size="10.00">_post_processing</text>
</a>
</g>
</g>
<!-- Node1&#45;&gt;Node2 -->
<g id="edge1_Node000001_Node000002" class="edge">
<title>Node1&#45;&gt;Node2</title>
<g id="a_edge1_Node000001_Node000002"><a xlink:title=" ">
<path fill="none" stroke="#63b8ff" d="M1049.34,-145.01C1033.85,-156.07 1014.34,-169.49 996.25,-180.5 988.27,-185.36 979.41,-190.26 971.18,-194.62"/>
<polygon fill="#63b8ff" stroke="#63b8ff" points="1051.12,-148.04 1057.19,-139.36 1047.03,-142.36 1051.12,-148.04"/>
</a>
</g>
</g>
<!-- Node3 -->
<g id="Node000003" class="node">
<title>Node3</title>
<g id="a_Node000003"><a xlink:href="classExportHandler.html#ac8574bef8f5a8eceaef5d75dbb6e3ad7" target="_top" xlink:title="Handles periodic export of simulation data.">
<polygon fill="white" stroke="#666666" points="849,-151.75 722.75,-151.75 722.75,-133.25 849,-133.25 849,-151.75"/>
<text xml:space="preserve" text-anchor="middle" x="785.88" y="-138.25" font-family="Helvetica,sans-Serif" font-size="10.00">ExportHandler::operator()</text>
</a>
</g>
</g>
<!-- Node1&#45;&gt;Node3 -->
<g id="edge2_Node000001_Node000003" class="edge">
<title>Node1&#45;&gt;Node3</title>
<g id="a_edge2_Node000001_Node000003"><a xlink:title=" ">
<path fill="none" stroke="#63b8ff" d="M1025.03,-141.48C1015.55,-143.98 1005.68,-146.15 996.25,-147.5 947.3,-154.49 891.26,-152.64 849.49,-149.37"/>
<polygon fill="#63b8ff" stroke="#63b8ff" points="1025.81,-144.9 1034.49,-138.83 1023.92,-138.16 1025.81,-144.9"/>
</a>
</g>
</g>
<!-- Node4 -->
<g id="Node000004" class="node">
<title>Node4</title>
<g id="a_Node000004"><a xlink:href="classSimulation_1_1Getter.html#aaa43464497c10db193f48f4f550c4933" target="_top" xlink:title=" ">
<polygon fill="white" stroke="#666666" points="988,-138 893.25,-138 893.25,-109 988,-109 988,-138"/>
<text xml:space="preserve" text-anchor="start" x="901.25" y="-124.5" font-family="Helvetica,sans-Serif" font-size="10.00">Simulation::Getter</text>
<text xml:space="preserve" text-anchor="middle" x="940.62" y="-114" font-family="Helvetica,sans-Serif" font-size="10.00">::operator=</text>
</a>
</g>
</g>
<!-- Node1&#45;&gt;Node4 -->
<g id="edge3_Node000001_Node000004" class="edge">
<title>Node1&#45;&gt;Node4</title>
<g id="a_edge3_Node000001_Node000004"><a xlink:title=" ">
<path fill="none" stroke="#63b8ff" d="M1020.38,-123.5C1009.63,-123.5 998.53,-123.5 988.18,-123.5"/>
<polygon fill="#63b8ff" stroke="#63b8ff" points="1020.35,-127 1030.35,-123.5 1020.35,-120 1020.35,-127"/>
</a>
</g>
</g>
<!-- Node5 -->
<g id="Node000005" class="node">
<title>Node5</title>
<g id="a_Node000005"><a xlink:href="namespacePostProcessing.html#a262aae53c1f4dafed4795c687d6ea817" target="_top" xlink:title=" ">
<polygon fill="white" stroke="#666666" points="996.25,-91 885,-91 885,-62 996.25,-62 996.25,-91"/>
<text xml:space="preserve" text-anchor="start" x="893" y="-77.5" font-family="Helvetica,sans-Serif" font-size="10.00">PostProcessing::save</text>
<text xml:space="preserve" text-anchor="middle" x="940.62" y="-67" font-family="Helvetica,sans-Serif" font-size="10.00">_particle_state</text>
</a>
</g>
</g>
<!-- Node1&#45;&gt;Node5 -->
<g id="edge4_Node000001_Node000005" class="edge">
<title>Node1&#45;&gt;Node5</title>
<g id="a_edge4_Node000001_Node000005"><a xlink:title=" ">
<path fill="none" stroke="#63b8ff" d="M1024.52,-104.94C1011.46,-100.46 997.67,-95.73 985.16,-91.44"/>
<polygon fill="#63b8ff" stroke="#63b8ff" points="1023.25,-108.2 1033.85,-108.14 1025.52,-101.58 1023.25,-108.2"/>
</a>
</g>
</g>
<!-- Node14 -->
<g id="Node000014" class="node">
<title>Node14</title>
<g id="a_Node000014"><a xlink:href="classCore_1_1MainExporter.html#a38765c9b7bcf5a1867e0e947a166e01b" target="_top" xlink:title="Writes final simulation data to the output.">
<polygon fill="white" stroke="#666666" points="991.38,-44 889.88,-44 889.88,-15 991.38,-15 991.38,-44"/>
<text xml:space="preserve" text-anchor="start" x="897.88" y="-30.5" font-family="Helvetica,sans-Serif" font-size="10.00">Core::MainExporter</text>
<text xml:space="preserve" text-anchor="middle" x="940.62" y="-20" font-family="Helvetica,sans-Serif" font-size="10.00">::write_final</text>
</a>
</g>
</g>
<!-- Node1&#45;&gt;Node14 -->
<g id="edge18_Node000001_Node000014" class="edge">
<title>Node1&#45;&gt;Node14</title>
<g id="a_edge18_Node000001_Node000014"><a xlink:title=" ">
<path fill="none" stroke="#63b8ff" d="M1055.79,-100.93C1040,-86.14 1018,-67.11 996.25,-53.5 990.98,-50.2 985.18,-47.13 979.39,-44.37"/>
<polygon fill="#63b8ff" stroke="#63b8ff" points="1053.14,-103.23 1062.79,-107.6 1057.97,-98.16 1053.14,-103.23"/>
</a>
</g>
</g>
<!-- Node5&#45;&gt;Node3 -->
<g id="edge17_Node000005_Node000003" class="edge">
<title>Node5&#45;&gt;Node3</title>
<g id="a_edge17_Node000005_Node000003"><a xlink:title=" ">
<path fill="none" stroke="#63b8ff" d="M894.56,-95.97C866.42,-108.13 831.42,-123.25 809.11,-132.89"/>
<polygon fill="#63b8ff" stroke="#63b8ff" points="895.78,-99.26 903.57,-92.08 893.01,-92.83 895.78,-99.26"/>
</a>
</g>
</g>
<!-- Node6 -->
<g id="Node000006" class="node">
<title>Node6</title>
<g id="a_Node000006"><a xlink:href="namespaceCore.html#afbce0beea293a7ccfdfc34a85b5e5e77" target="_top" xlink:title=" ">
<polygon fill="white" stroke="#666666" points="829.88,-91 741.88,-91 741.88,-62 829.88,-62 829.88,-91"/>
<text xml:space="preserve" text-anchor="start" x="749.88" y="-77.5" font-family="Helvetica,sans-Serif" font-size="10.00">Core::init_partial</text>
<text xml:space="preserve" text-anchor="middle" x="785.88" y="-67" font-family="Helvetica,sans-Serif" font-size="10.00">_exporter</text>
</a>
</g>
</g>
<!-- Node5&#45;&gt;Node6 -->
<g id="edge5_Node000005_Node000006" class="edge">
<title>Node5&#45;&gt;Node6</title>
<g id="a_edge5_Node000005_Node000006"><a xlink:title=" ">
<path fill="none" stroke="#63b8ff" d="M873.78,-76.5C859.03,-76.5 843.75,-76.5 830.2,-76.5"/>
<polygon fill="#63b8ff" stroke="#63b8ff" points="873.4,-80 883.4,-76.5 873.4,-73 873.4,-80"/>
</a>
</g>
</g>
<!-- Node7 -->
<g id="Node000007" class="node">
<title>Node7</title>
<g id="a_Node000007"><a xlink:href="namespaceCore.html#a105cc1fc8005e6139954e3adce14f525" target="_top" xlink:title="Start simulation.">
<polygon fill="white" stroke="#666666" points="686.75,-85.75 623.5,-85.75 623.5,-67.25 686.75,-67.25 686.75,-85.75"/>
<text xml:space="preserve" text-anchor="middle" x="655.12" y="-72.25" font-family="Helvetica,sans-Serif" font-size="10.00">Core::exec</text>
</a>
</g>
</g>
<!-- Node6&#45;&gt;Node7 -->
<g id="edge6_Node000006_Node000007" class="edge">
<title>Node6&#45;&gt;Node7</title>
<g id="a_edge6_Node000006_Node000007"><a xlink:title=" ">
<path fill="none" stroke="#63b8ff" d="M730.54,-76.5C715.75,-76.5 700.25,-76.5 687.24,-76.5"/>
<polygon fill="#63b8ff" stroke="#63b8ff" points="730.13,-80 740.13,-76.5 730.13,-73 730.13,-80"/>
</a>
</g>
</g>
<!-- Node8 -->
<g id="Node000008" class="node">
<title>Node8</title>
<g id="a_Node000008"><a xlink:href="structApi_1_1SimulationInstance.html#a3f04372728be84263fb69f5773ca5bd5" target="_top" xlink:title="Execute the simulation.">
<polygon fill="white" stroke="#666666" points="430.5,-128 311,-128 311,-99 430.5,-99 430.5,-128"/>
<text xml:space="preserve" text-anchor="start" x="319" y="-114.5" font-family="Helvetica,sans-Serif" font-size="10.00">Api::SimulationInstance</text>
<text xml:space="preserve" text-anchor="middle" x="370.75" y="-104" font-family="Helvetica,sans-Serif" font-size="10.00">::exec</text>
</a>
</g>
</g>
<!-- Node7&#45;&gt;Node8 -->
<g id="edge7_Node000007_Node000008" class="edge">
<title>Node7&#45;&gt;Node8</title>
<g id="a_edge7_Node000007_Node000008"><a xlink:title=" ">
<path fill="none" stroke="#63b8ff" d="M612.35,-88.99C604.17,-91.09 595.61,-93.06 587.5,-94.5 534.93,-103.84 474.3,-108.67 430.72,-111.11"/>
<polygon fill="#63b8ff" stroke="#63b8ff" points="612.99,-92.44 621.74,-86.46 611.17,-85.68 612.99,-92.44"/>
</a>
</g>
</g>
<!-- Node10 -->
<g id="Node000010" class="node">
<title>Node10</title>
<g id="a_Node000010"><a xlink:href="namespaceCore.html#a23e6f3d22fc51ef9decabb2c220b27c4" target="_top" xlink:title=" ">
<polygon fill="white" stroke="#666666" points="587.5,-85.75 466.5,-85.75 466.5,-67.25 587.5,-67.25 587.5,-85.75"/>
<text xml:space="preserve" text-anchor="middle" x="527" y="-72.25" font-family="Helvetica,sans-Serif" font-size="10.00">Core::exporter_filename</text>
</a>
</g>
</g>
<!-- Node7&#45;&gt;Node10 -->
<g id="edge9_Node000007_Node000010" class="edge">
<title>Node7&#45;&gt;Node10</title>
<g id="a_edge9_Node000007_Node000010"><a xlink:title=" ">
<path fill="none" stroke="#63b8ff" d="M611.96,-70.09C604.23,-69.83 596.02,-69.72 587.88,-69.76"/>
<polygon fill="#63b8ff" stroke="#63b8ff" points="611.61,-73.58 621.76,-70.53 611.93,-66.59 611.61,-73.58"/>
</a>
</g>
</g>
<!-- Node11 -->
<g id="Node000011" class="node">
<title>Node11</title>
<g id="a_Node000011"><a xlink:href="namespaceCore.html#a877563df5a407318a381e12311022377" target="_top" xlink:title=" ">
<polygon fill="white" stroke="#666666" points="557.5,-48.75 496.5,-48.75 496.5,-30.25 557.5,-30.25 557.5,-48.75"/>
<text xml:space="preserve" text-anchor="middle" x="527" y="-35.25" font-family="Helvetica,sans-Serif" font-size="10.00">Core::load</text>
</a>
</g>
</g>
<!-- Node7&#45;&gt;Node11 -->
<g id="edge11_Node000007_Node000011" class="edge">
<title>Node7&#45;&gt;Node11</title>
<g id="a_edge11_Node000007_Node000011"><a xlink:title=" ">
<path fill="none" stroke="#63b8ff" d="M612.25,-64.22C594.38,-58.97 573.94,-52.98 557.67,-48.2"/>
<polygon fill="#63b8ff" stroke="#63b8ff" points="611.24,-67.57 621.82,-67.02 613.21,-60.85 611.24,-67.57"/>
</a>
</g>
</g>
<!-- Node9 -->
<g id="Node000009" class="node">
<title>Node9</title>
<g id="a_Node000009"><a xlink:href="structApi_1_1SimulationInstance.html#afee07db8a6b57fe7982900ecaa943cc0" target="_top" xlink:title="Default constructor.">
<polygon fill="white" stroke="#666666" points="119.5,-90 0,-90 0,-61 119.5,-61 119.5,-90"/>
<text xml:space="preserve" text-anchor="start" x="8" y="-76.5" font-family="Helvetica,sans-Serif" font-size="10.00">Api::SimulationInstance</text>
<text xml:space="preserve" text-anchor="middle" x="59.75" y="-66" font-family="Helvetica,sans-Serif" font-size="10.00">::SimulationInstance</text>
</a>
</g>
</g>
<!-- Node8&#45;&gt;Node9 -->
<g id="edge8_Node000008_Node000009" class="edge">
<title>Node8&#45;&gt;Node9</title>
<g id="a_edge8_Node000008_Node000009"><a xlink:title=" ">
<path fill="none" stroke="#63b8ff" d="M299.28,-104.83C245.03,-98.16 170.91,-89.05 119.76,-82.76"/>
<polygon fill="#63b8ff" stroke="#63b8ff" points="298.68,-108.29 309.04,-106.03 299.54,-101.34 298.68,-108.29"/>
</a>
</g>
</g>
<!-- Node10&#45;&gt;Node7 -->
<g id="edge10_Node000010_Node000007" class="edge">
<title>Node10&#45;&gt;Node7</title>
<g id="a_edge10_Node000010_Node000007"><a xlink:title=" ">
<path fill="none" stroke="#63b8ff" d="M599.36,-83.2C607.73,-83.09 615.9,-82.83 623.27,-82.4"/>
<polygon fill="#63b8ff" stroke="#63b8ff" points="599.38,-79.7 589.39,-83.24 599.4,-86.7 599.38,-79.7"/>
</a>
</g>
</g>
<!-- Node12 -->
<g id="Node000012" class="node">
<title>Node12</title>
<g id="a_Node000012"><a xlink:href="structApi_1_1SimulationInstance.html#ad2abfa76ac4128d44b7c0c895f78b77b" target="_top" xlink:title="Load ad apply the simulation configuration and prepare for execution based on file.">
<polygon fill="white" stroke="#666666" points="430.5,-54 311,-54 311,-25 430.5,-25 430.5,-54"/>
<text xml:space="preserve" text-anchor="start" x="319" y="-40.5" font-family="Helvetica,sans-Serif" font-size="10.00">Api::SimulationInstance</text>
<text xml:space="preserve" text-anchor="middle" x="370.75" y="-30" font-family="Helvetica,sans-Serif" font-size="10.00">::apply_load</text>
</a>
</g>
</g>
<!-- Node11&#45;&gt;Node12 -->
<g id="edge12_Node000011_Node000012" class="edge">
<title>Node11&#45;&gt;Node12</title>
<g id="a_edge12_Node000011_Node000012"><a xlink:title=" ">
<path fill="none" stroke="#63b8ff" d="M484.76,-39.5C468.2,-39.5 448.79,-39.5 430.78,-39.5"/>
<polygon fill="#63b8ff" stroke="#63b8ff" points="484.75,-43 494.75,-39.5 484.75,-36 484.75,-43"/>
</a>
</g>
</g>
<!-- Node12&#45;&gt;Node9 -->
<g id="edge16_Node000012_Node000009" class="edge">
<title>Node12&#45;&gt;Node9</title>
<g id="a_edge16_Node000012_Node000009"><a xlink:title=" ">
<path fill="none" stroke="#63b8ff" d="M299.56,-52.81C291.29,-54.17 282.97,-55.43 275,-56.5 222.63,-63.51 162.69,-68.57 119.56,-71.7"/>
<polygon fill="#63b8ff" stroke="#63b8ff" points="299.97,-56.29 309.25,-51.18 298.81,-49.39 299.97,-56.29"/>
</a>
</g>
</g>
<!-- Node13 -->
<g id="Node000013" class="node">
<title>Node13</title>
<g id="a_Node000013"><a xlink:href="structApi_1_1SimulationInstance.html#a3398ddd22faa3ceb16b454c51faeced0" target="_top" xlink:title="Apply the simulation configuration and prepare for execution.">
<polygon fill="white" stroke="#666666" points="275,-29 155.5,-29 155.5,0 275,0 275,-29"/>
<text xml:space="preserve" text-anchor="start" x="163.5" y="-15.5" font-family="Helvetica,sans-Serif" font-size="10.00">Api::SimulationInstance</text>
<text xml:space="preserve" text-anchor="middle" x="215.25" y="-5" font-family="Helvetica,sans-Serif" font-size="10.00">::apply</text>
</a>
</g>
</g>
<!-- Node12&#45;&gt;Node13 -->
<g id="edge13_Node000012_Node000013" class="edge">
<title>Node12&#45;&gt;Node13</title>
<g id="a_edge13_Node000012_Node000013"><a xlink:title=" ">
<path fill="none" stroke="#63b8ff" d="M299.49,-28.06C291.39,-26.74 283.19,-25.4 275.25,-24.11"/>
<polygon fill="#63b8ff" stroke="#63b8ff" points="298.92,-31.51 309.35,-29.66 300.04,-24.6 298.92,-31.51"/>
</a>
</g>
</g>
<!-- Node13&#45;&gt;Node9 -->
<g id="edge15_Node000013_Node000009" class="edge">
<title>Node13&#45;&gt;Node9</title>
<g id="a_edge15_Node000013_Node000009"><a xlink:title=" ">
<path fill="none" stroke="#63b8ff" d="M166.3,-33.56C144.43,-42.25 118.91,-52.39 98.44,-60.52"/>
<polygon fill="#63b8ff" stroke="#63b8ff" points="167.29,-36.93 175.29,-29.98 164.71,-30.42 167.29,-36.93"/>
</a>
</g>
</g>
<!-- Node13&#45;&gt;Node13 -->
<g id="edge14_Node000013_Node000013" class="edge">
<title>Node13&#45;&gt;Node13</title>
<g id="a_edge14_Node000013_Node000013"><a xlink:title=" ">
<path fill="none" stroke="#63b8ff" d="M241.64,-40.56C237.5,-44.41 228.7,-47 215.25,-47 190.65,-47 181.62,-38.32 188.15,-29.21"/>
<polygon fill="#63b8ff" stroke="#63b8ff" points="245.13,-40.92 242.26,-30.72 238.14,-40.48 245.13,-40.92"/>
</a>
</g>
</g>
</g>
</svg>
