<?xml version="1.0" encoding="UTF-8" standalone="no"?>
<!DOCTYPE svg PUBLIC "-//W3C//DTD SVG 1.1//EN"
 "http://www.w3.org/Graphics/SVG/1.1/DTD/svg11.dtd">
<!-- Generated by graphviz version 14.0.1 (0)
 -->
<!-- Title: MC::ParticlesContainer::ParticlesContainer Pages: 1 -->
<svg width="282pt" height="225pt"
 viewBox="0.00 0.00 282.00 225.00" xmlns="http://www.w3.org/2000/svg" xmlns:xlink="http://www.w3.org/1999/xlink">
<g id="graph0" class="graph" transform="scale(1 1) rotate(0) translate(4 221)">
<title>MC::ParticlesContainer::ParticlesContainer</title>
<!-- Node1 -->
<g id="Node000001" class="node">
<title>Node1</title>
<g id="a_Node000001"><a xlink:title="Alias for the model used by the container.">
<polygon fill="#999999" stroke="#666666" points="273.5,-123 154.75,-123 154.75,-94 273.5,-94 273.5,-123"/>
<text xml:space="preserve" text-anchor="start" x="162.75" y="-109.5" font-family="Helvetica,sans-Serif" font-size="10.00">MC::ParticlesContainer</text>
<text xml:space="preserve" text-anchor="middle" x="214.12" y="-99" font-family="Helvetica,sans-Serif" font-size="10.00">::ParticlesContainer</text>
</a>
</g>
</g>
<!-- Node2 -->
<g id="Node000002" class="node">
<title>Node2</title>
<g id="a_Node000002"><a xlink:href="classMC_1_1ParticlesContainer.html#ad499de971fbe1a2cf3e1adbe2bb151d6" target="_top" xlink:title=" ">
<polygon fill="white" stroke="#666666" points="118.75,-217 0,-217 0,-188 118.75,-188 118.75,-217"/>
<text xml:space="preserve" text-anchor="start" x="8" y="-203.5" font-family="Helvetica,sans-Serif" font-size="10.00">MC::ParticlesContainer</text>
<text xml:space="preserve" text-anchor="middle" x="59.38" y="-193" font-family="Helvetica,sans-Serif" font-size="10.00">::operator=</text>
</a>
</g>
</g>
<!-- Node1&#45;&gt;Node2 -->
<g id="edge1_Node000001_Node000002" class="edge">
<title>Node1&#45;&gt;Node2</title>
<g id="a_edge1_Node000001_Node000002"><a xlink:title=" ">
<path fill="none" stroke="#63b8ff" d="M187.76,-130.57C169.47,-145.72 143.7,-165.54 118.75,-179.5 113.62,-182.37 108.05,-185.06 102.47,-187.5"/>
<polygon fill="#63b8ff" stroke="#63b8ff" points="189.8,-133.43 195.2,-124.32 185.29,-128.08 189.8,-133.43"/>
</a>
</g>
</g>
<!-- Node3 -->
<g id="Node000003" class="node">
<title>Node3</title>
<g id="a_Node000003"><a xlink:href="classMC_1_1ParticlesContainer.html#a5d93b87f5a6e18c449e0ed62333e9d6e" target="_top" xlink:title=" ">
<polygon fill="white" stroke="#666666" points="118.75,-170 0,-170 0,-141 118.75,-141 118.75,-170"/>
<text xml:space="preserve" text-anchor="start" x="8" y="-156.5" font-family="Helvetica,sans-Serif" font-size="10.00">MC::ParticlesContainer</text>
<text xml:space="preserve" text-anchor="middle" x="59.38" y="-146" font-family="Helvetica,sans-Serif" font-size="10.00">::operator=</text>
</a>
</g>
</g>
<!-- Node1&#45;&gt;Node3 -->
<g id="edge2_Node000001_Node000003" class="edge">
<title>Node1&#45;&gt;Node3</title>
<g id="a_edge2_Node000001_Node000003"><a xlink:title=" ">
<path fill="none" stroke="#63b8ff" d="M154.11,-126.66C139.16,-131.26 123.28,-136.14 108.92,-140.56"/>
<polygon fill="#63b8ff" stroke="#63b8ff" points="154.82,-130.1 163.35,-123.82 152.76,-123.41 154.82,-130.1"/>
</a>
</g>
</g>
<!-- Node4 -->
<g id="Node000004" class="node">
<title>Node4</title>
<g id="a_Node000004"><a xlink:href="classMC_1_1ParticlesContainer.html#a5b4a66b67d3b4942557b22538958480a" target="_top" xlink:title=" ">
<polygon fill="white" stroke="#666666" points="118.75,-123 0,-123 0,-94 118.75,-94 118.75,-123"/>
<text xml:space="preserve" text-anchor="start" x="8" y="-109.5" font-family="Helvetica,sans-Serif" font-size="10.00">MC::ParticlesContainer</text>
<text xml:space="preserve" text-anchor="middle" x="59.38" y="-99" font-family="Helvetica,sans-Serif" font-size="10.00">::ParticlesContainer</text>
</a>
</g>
</g>
<!-- Node1&#45;&gt;Node4 -->
<g id="edge3_Node000001_Node000004" class="edge">
<title>Node1&#45;&gt;Node4</title>
<g id="a_edge3_Node000001_Node000004"><a xlink:title=" ">
<path fill="none" stroke="#63b8ff" d="M143.21,-108.5C135.14,-108.5 126.98,-108.5 119.09,-108.5"/>
<polygon fill="#63b8ff" stroke="#63b8ff" points="142.99,-112 152.99,-108.5 142.99,-105 142.99,-112"/>
</a>
</g>
</g>
<!-- Node5 -->
<g id="Node000005" class="node">
<title>Node5</title>
<g id="a_Node000005"><a xlink:href="classMC_1_1ParticlesContainer.html#adacba063d362632ca0899bae750b628a" target="_top" xlink:title="Default copy and move constructors and assignment operators.">
<polygon fill="white" stroke="#666666" points="118.75,-76 0,-76 0,-47 118.75,-47 118.75,-76"/>
<text xml:space="preserve" text-anchor="start" x="8" y="-62.5" font-family="Helvetica,sans-Serif" font-size="10.00">MC::ParticlesContainer</text>
<text xml:space="preserve" text-anchor="middle" x="59.38" y="-52" font-family="Helvetica,sans-Serif" font-size="10.00">::ParticlesContainer</text>
</a>
</g>
</g>
<!-- Node1&#45;&gt;Node5 -->
<g id="edge4_Node000001_Node000005" class="edge">
<title>Node1&#45;&gt;Node5</title>
<g id="a_edge4_Node000001_Node000005"><a xlink:title=" ">
<path fill="none" stroke="#63b8ff" d="M154.11,-90.34C139.16,-85.74 123.28,-80.86 108.92,-76.44"/>
<polygon fill="#63b8ff" stroke="#63b8ff" points="152.76,-93.59 163.35,-93.18 154.82,-86.9 152.76,-93.59"/>
</a>
</g>
</g>
<!-- Node6 -->
<g id="Node000006" class="node">
<title>Node6</title>
<g id="a_Node000006"><a xlink:href="classMC_1_1ParticlesContainer.html#ae0cd8cf83c2728db495167ec2f10d80a" target="_top" xlink:title=" ">
<polygon fill="white" stroke="#666666" points="118.75,-29 0,-29 0,0 118.75,0 118.75,-29"/>
<text xml:space="preserve" text-anchor="start" x="8" y="-15.5" font-family="Helvetica,sans-Serif" font-size="10.00">MC::ParticlesContainer</text>
<text xml:space="preserve" text-anchor="middle" x="59.38" y="-5" font-family="Helvetica,sans-Serif" font-size="10.00">::ParticlesContainer</text>
</a>
</g>
</g>
<!-- Node1&#45;&gt;Node6 -->
<g id="edge5_Node000001_Node000006" class="edge">
<title>Node1&#45;&gt;Node6</title>
<g id="a_edge5_Node000001_Node000006"><a xlink:title=" ">
<path fill="none" stroke="#63b8ff" d="M187.06,-86.4C168.75,-71.59 143.25,-52.34 118.75,-38.5 113.03,-35.27 106.78,-32.23 100.57,-29.48"/>
<polygon fill="#63b8ff" stroke="#63b8ff" points="184.82,-89.09 194.77,-92.73 189.26,-83.68 184.82,-89.09"/>
</a>
</g>
</g>
</g>
</svg>
