<?xml version="1.0" encoding="UTF-8" standalone="no"?>
<!DOCTYPE svg PUBLIC "-//W3C//DTD SVG 1.1//EN"
 "http://www.w3.org/Graphics/SVG/1.1/DTD/svg11.dtd">
<!-- Generated by graphviz version 14.0.1 (0)
 -->
<!-- Title: Simulation::SimulationUnit::setVolumes Pages: 1 -->
<!--zoomable 96 -->

<svg id="main" version="1.1" xmlns="http://www.w3.org/2000/svg" xmlns:xlink="http://www.w3.org/1999/xlink" xml:space="preserve" onload="init(evt)">

<style type="text/css"><![CDATA[
.node, .edge {opacity: 0.7;}
.node.selected, .edge.selected {opacity: 1;}
.edge:hover path { stroke: red; }
.edge:hover polygon { stroke: red; fill: red; }
]]></style>

<defs>
  <circle id="rim" cx="0" cy="0" r="7"/>
  <circle id="rim2" cx="0" cy="0" r="3.5"/>
  <g id="zoomPlus">
    <use xlink:href="#rim" fill="#404040"><set attributeName="fill" to="#808080" begin="zoomplus.mouseover" end="zoomplus.mouseout"/></use>
    <path d="M-4,0h8M0,-4v8" fill="none" stroke="white" stroke-width="1.5" pointer-events="none"/>
  </g>
  <g id="zoomMin">
    <use xlink:href="#rim" fill="#404040"><set attributeName="fill" to="#808080" begin="zoomminus.mouseover" end="zoomminus.mouseout"/></use>
    <path d="M-4,0h8" fill="none" stroke="white" stroke-width="1.5" pointer-events="none"/>
  </g>
  <g id="arrowUp" transform="translate(30 24)">
    <use xlink:href="#rim"/>
    <path pointer-events="none" fill="none" stroke="white" stroke-width="1.5" d="M0,-3.0v7 M-2.5,-0.5L0,-3.0L2.5,-0.5"/>
  </g>
  <g id="arrowRight" transform="rotate(90) translate(36 -43)">
    <use xlink:href="#rim"/>
    <path pointer-events="none" fill="none" stroke="white" stroke-width="1.5" d="M0,-3.0v7 M-2.5,-0.5L0,-3.0L2.5,-0.5"/>
  </g>
  <g id="arrowDown" transform="rotate(180) translate(-30 -48)">
    <use xlink:href="#rim"/>
    <path pointer-events="none" fill="none" stroke="white" stroke-width="1.5" d="M0,-3.0v7 M-2.5,-0.5L0,-3.0L2.5,-0.5"/>
  </g>
  <g id="arrowLeft" transform="rotate(270) translate(-36 17)">
    <use xlink:href="#rim"/>
    <path pointer-events="none" fill="none" stroke="white" stroke-width="1.5" d="M0,-3.0v7 M-2.5,-0.5L0,-3.0L2.5,-0.5"/>
  </g>
  <g id="resetDef">
    <use xlink:href="#rim2" fill="#404040"><set attributeName="fill" to="#808080" begin="reset.mouseover" end="reset.mouseout"/></use>
  </g>
</defs>
<script type="application/ecmascript">
var viewWidth = 642;
var viewHeight = 96;
var sectionId = 'dynsection-37';
</script>
<script type="application/ecmascript" xlink:href="svg.min.js"/>
<svg id="graph" class="graph">
<g id="viewport">
<title>Simulation::SimulationUnit::setVolumes</title>
<!-- Node1 -->
<g id="Node000001" class="node">
<title>Node1</title>
<g id="a_Node000001"><a xlink:title=" ">
<polygon fill="#999999" stroke="#666666" points="634,-88 502.5,-88 502.5,-59 634,-59 634,-88"/>
<text xml:space="preserve" text-anchor="start" x="510.5" y="-74.5" font-family="Helvetica,sans-Serif" font-size="10.00">Simulation::SimulationUnit</text>
<text xml:space="preserve" text-anchor="middle" x="568.25" y="-64" font-family="Helvetica,sans-Serif" font-size="10.00">::setVolumes</text>
</a>
</g>
</g>
<!-- Node2 -->
<g id="Node000002" class="node">
<title>Node2</title>
<g id="a_Node000002"><a xlink:href="classSimulation_1_1SimulationUnit.html#adc096ee7d35524a8107a3390daa55a1a" target="_top" xlink:title=" ">
<polygon fill="white" stroke="#666666" points="131.5,-72 0,-72 0,-43 131.5,-43 131.5,-72"/>
<text xml:space="preserve" text-anchor="start" x="8" y="-58.5" font-family="Helvetica,sans-Serif" font-size="10.00">Simulation::SimulationUnit</text>
<text xml:space="preserve" text-anchor="middle" x="65.75" y="-48" font-family="Helvetica,sans-Serif" font-size="10.00">::getState</text>
</a>
</g>
</g>
<!-- Node1&#45;&gt;Node2 -->
<g id="edge1_Node000001_Node000002" class="edge">
<title>Node1&#45;&gt;Node2</title>
<g id="a_edge1_Node000001_Node000002"><a xlink:title=" ">
<path fill="none" stroke="#63b8ff" d="M490.71,-76.02C482.54,-76.22 474.35,-76.38 466.5,-76.5 333.59,-78.48 300,-80.14 167.5,-69.5 156,-68.58 143.79,-67.34 131.98,-66.01"/>
<polygon fill="#63b8ff" stroke="#63b8ff" points="490.8,-79.52 500.71,-75.76 490.62,-72.52 490.8,-79.52"/>
</a>
</g>
</g>
<!-- Node3 -->
<g id="Node000003" class="node">
<title>Node3</title>
<g id="a_Node000003"><a xlink:href="classSimulation_1_1SimulationUnit.html#a325bd66b0afbb76176a6f8c607d9902b" target="_top" xlink:title=" ">
<polygon fill="white" stroke="#666666" points="466.5,-67 335,-67 335,-38 466.5,-38 466.5,-67"/>
<text xml:space="preserve" text-anchor="start" x="343" y="-53.5" font-family="Helvetica,sans-Serif" font-size="10.00">Simulation::SimulationUnit</text>
<text xml:space="preserve" text-anchor="middle" x="400.75" y="-43" font-family="Helvetica,sans-Serif" font-size="10.00">::updateScalarHydro</text>
</a>
</g>
</g>
<!-- Node1&#45;&gt;Node3 -->
<g id="edge2_Node000001_Node000003" class="edge">
<title>Node1&#45;&gt;Node3</title>
<g id="a_edge2_Node000001_Node000003"><a xlink:title=" ">
<path fill="none" stroke="#63b8ff" d="M490.97,-63.82C482.88,-62.79 474.71,-61.76 466.77,-60.75"/>
<polygon fill="#63b8ff" stroke="#63b8ff" points="490.45,-67.28 500.81,-65.07 491.33,-60.34 490.45,-67.28"/>
</a>
</g>
</g>
<!-- Node3&#45;&gt;Node2 -->
<g id="edge3_Node000003_Node000002" class="edge">
<title>Node3&#45;&gt;Node2</title>
<g id="a_edge3_Node000003_Node000002"><a xlink:title=" ">
<path fill="none" stroke="#63b8ff" d="M323.47,-53.65C265.57,-54.51 186.82,-55.7 131.87,-56.52"/>
<polygon fill="#63b8ff" stroke="#63b8ff" points="323.29,-57.15 333.24,-53.5 323.19,-50.15 323.29,-57.15"/>
</a>
</g>
</g>
<!-- Node4 -->
<g id="Node000004" class="node">
<title>Node4</title>
<g id="a_Node000004"><a xlink:href="classSimulation_1_1SimulationUnit.html#a57624461bad4807d5cacbd7d17e49b14" target="_top" xlink:title=" ">
<polygon fill="white" stroke="#666666" points="299,-29 167.5,-29 167.5,0 299,0 299,-29"/>
<text xml:space="preserve" text-anchor="start" x="175.5" y="-15.5" font-family="Helvetica,sans-Serif" font-size="10.00">Simulation::SimulationUnit</text>
<text xml:space="preserve" text-anchor="middle" x="233.25" y="-5" font-family="Helvetica,sans-Serif" font-size="10.00">::updateHydro</text>
</a>
</g>
</g>
<!-- Node3&#45;&gt;Node4 -->
<g id="edge4_Node000003_Node000004" class="edge">
<title>Node3&#45;&gt;Node4</title>
<g id="a_edge4_Node000003_Node000004"><a xlink:title=" ">
<path fill="none" stroke="#63b8ff" d="M323.75,-35.05C315.57,-33.17 307.3,-31.27 299.27,-29.43"/>
<polygon fill="#63b8ff" stroke="#63b8ff" points="322.81,-38.43 333.34,-37.25 324.38,-31.6 322.81,-38.43"/>
</a>
</g>
</g>
<!-- Node4&#45;&gt;Node2 -->
<g id="edge5_Node000004_Node000002" class="edge">
<title>Node4&#45;&gt;Node2</title>
<g id="a_edge5_Node000004_Node000002"><a xlink:title=" ">
<path fill="none" stroke="#63b8ff" d="M163.93,-32.25C150.78,-35.67 137.12,-39.22 124.35,-42.53"/>
<polygon fill="#63b8ff" stroke="#63b8ff" points="164.57,-35.7 173.37,-29.8 162.81,-28.93 164.57,-35.7"/>
</a>
</g>
</g>
</g>
</svg>

<g id="navigator" transform="translate(0 0)" fill="#404254">
  <rect fill="#f2f5e9" fill-opacity="0.5" stroke="#606060" stroke-width=".5" x="0" y="0" width="60" height="60"/>
  <use id="zoomplus" xlink:href="#zoomPlus" x="17" y="9" onmousedown="handleZoom(evt,'in')"/>
  <use id="zoomminus" xlink:href="#zoomMin" x="42" y="9" onmousedown="handleZoom(evt,'out')"/>
  <use id="reset" xlink:href="#resetDef" x="30" y="36" onmousedown="handleReset()"/>
   <use id="arrowup" xlink:href="#arrowUp" x="0" y="0" onmousedown="handlePan(0,-1)"/>
  <use id="arrowright" xlink:href="#arrowRight" x="0" y="0" onmousedown="handlePan(1,0)"/>
  <use id="arrowdown" xlink:href="#arrowDown" x="0" y="0" onmousedown="handlePan(0,1)"/>
  <use id="arrowleft" xlink:href="#arrowLeft" x="0" y="0" onmousedown="handlePan(-1,0)"/>
</g>
<svg viewBox="0 0 15 15" width="100%" height="30px" preserveAspectRatio="xMaxYMin meet">
 <g id="arrow_out" transform="scale(0.3 0.3)">
  <a xlink:href="classSimulation_1_1SimulationUnit_aca22d485afff31beaed0ea9b508dac80_icgraph_org.svg" target="_base">
   <rect id="button" ry="5" rx="5" y="6" x="6" height="38" width="38"
        fill="#f2f5e9" fill-opacity="0.5" stroke="#606060" stroke-width="1.0"/>
   <path id="arrow"
     d="M 11.500037,31.436501 C 11.940474,20.09759 22.043105,11.32322 32.158766,21.979434 L 37.068811,17.246167 C 37.068811,17.246167 37.088388,32 37.088388,32 L 22.160133,31.978069 C 22.160133,31.978069 26.997745,27.140456 26.997745,27.140456 C 18.528582,18.264221 13.291696,25.230495 11.500037,31.436501 z"
     style="fill:#404040;"/>
  </a>
 </g>
</svg>

<style type='text/css'>
<![CDATA[
[data-mouse-over-selected='false'] { opacity: 0.7; }
[data-mouse-over-selected='true']  { opacity: 1.0; }
]]>
</style>
<script type="application/ecmascript"><![CDATA[
document.addEventListener('DOMContentLoaded', (event) => {
  highlightEdges();
  highlightAdjacentNodes();
});
]]></script>
</svg>
