<?xml version="1.0" encoding="UTF-8" standalone="no"?>
<!DOCTYPE svg PUBLIC "-//W3C//DTD SVG 1.1//EN"
 "http://www.w3.org/Graphics/SVG/1.1/DTD/svg11.dtd">
<!-- Generated by graphviz version 14.0.1 (0)
 -->
<!-- Title: ILoadBalancer Pages: 1 -->
<svg width="522pt" height="81pt"
 viewBox="0.00 0.00 522.00 81.00" xmlns="http://www.w3.org/2000/svg" xmlns:xlink="http://www.w3.org/1999/xlink">
<g id="graph0" class="graph" transform="scale(1 1) rotate(0) translate(4 77)">
<title>ILoadBalancer</title>
<!-- Node1 -->
<g id="Node000001" class="node">
<title>Node1</title>
<g id="a_Node000001"><a xlink:title=" ">
<polygon fill="#999999" stroke="#666666" points="285.62,-73 207.38,-73 207.38,-54.5 285.62,-54.5 285.62,-73"/>
<text xml:space="preserve" text-anchor="middle" x="246.5" y="-59.5" font-family="Helvetica,sans-Serif" font-size="10.00">ILoadBalancer</text>
</a>
</g>
</g>
<!-- Node2 -->
<g id="Node000002" class="node">
<title>Node2</title>
<g id="a_Node000002"><a xlink:href="classBoundLoadBalancer.html" target="_top" xlink:title=" ">
<polygon fill="white" stroke="#666666" points="103,-18.5 0,-18.5 0,0 103,0 103,-18.5"/>
<text xml:space="preserve" text-anchor="middle" x="51.5" y="-5" font-family="Helvetica,sans-Serif" font-size="10.00">BoundLoadBalancer</text>
</a>
</g>
</g>
<!-- Node1&#45;&gt;Node2 -->
<g id="edge1_Node000001_Node000002" class="edge">
<title>Node1&#45;&gt;Node2</title>
<g id="a_edge1_Node000001_Node000002"><a xlink:title=" ">
<path fill="none" stroke="#63b8ff" d="M203.59,-51.2C167.44,-41.46 116.51,-27.75 83.75,-18.93"/>
<polygon fill="#63b8ff" stroke="#63b8ff" points="202.27,-54.47 212.84,-53.69 204.09,-47.71 202.27,-54.47"/>
</a>
</g>
</g>
<!-- Node3 -->
<g id="Node000003" class="node">
<title>Node3</title>
<g id="a_Node000003"><a xlink:href="classCustomLoadBalancer.html" target="_top" xlink:title=" ">
<polygon fill="white" stroke="#666666" points="230.38,-18.5 120.62,-18.5 120.62,0 230.38,0 230.38,-18.5"/>
<text xml:space="preserve" text-anchor="middle" x="175.5" y="-5" font-family="Helvetica,sans-Serif" font-size="10.00">CustomLoadBalancer</text>
</a>
</g>
</g>
<!-- Node1&#45;&gt;Node3 -->
<g id="edge2_Node000001_Node000003" class="edge">
<title>Node1&#45;&gt;Node3</title>
<g id="a_edge2_Node000001_Node000003"><a xlink:title=" ">
<path fill="none" stroke="#63b8ff" d="M225.84,-47.47C213.19,-38.12 197.48,-26.5 187.01,-18.76"/>
<polygon fill="#63b8ff" stroke="#63b8ff" points="223.44,-50.05 233.56,-53.18 227.6,-44.42 223.44,-50.05"/>
</a>
</g>
</g>
<!-- Node4 -->
<g id="Node000004" class="node">
<title>Node4</title>
<g id="a_Node000004"><a xlink:href="classHostImportantLoadBalancer.html" target="_top" xlink:title=" ">
<polygon fill="white" stroke="#666666" points="386.62,-18.5 248.38,-18.5 248.38,0 386.62,0 386.62,-18.5"/>
<text xml:space="preserve" text-anchor="middle" x="317.5" y="-5" font-family="Helvetica,sans-Serif" font-size="10.00">HostImportantLoadBalancer</text>
</a>
</g>
</g>
<!-- Node1&#45;&gt;Node4 -->
<g id="edge3_Node000001_Node000004" class="edge">
<title>Node1&#45;&gt;Node4</title>
<g id="a_edge3_Node000001_Node000004"><a xlink:title=" ">
<path fill="none" stroke="#63b8ff" d="M267.16,-47.47C279.81,-38.12 295.52,-26.5 305.99,-18.76"/>
<polygon fill="#63b8ff" stroke="#63b8ff" points="265.4,-44.42 259.44,-53.18 269.56,-50.05 265.4,-44.42"/>
</a>
</g>
</g>
<!-- Node5 -->
<g id="Node000005" class="node">
<title>Node5</title>
<g id="a_Node000005"><a xlink:href="classUniformLoadBalancer.html" target="_top" xlink:title=" ">
<polygon fill="white" stroke="#666666" points="514.38,-18.5 404.62,-18.5 404.62,0 514.38,0 514.38,-18.5"/>
<text xml:space="preserve" text-anchor="middle" x="459.5" y="-5" font-family="Helvetica,sans-Serif" font-size="10.00">UniformLoadBalancer</text>
</a>
</g>
</g>
<!-- Node1&#45;&gt;Node5 -->
<g id="edge4_Node000001_Node000005" class="edge">
<title>Node1&#45;&gt;Node5</title>
<g id="a_edge4_Node000001_Node000005"><a xlink:title=" ">
<path fill="none" stroke="#63b8ff" d="M292.61,-51.39C332.14,-41.64 388.26,-27.81 424.28,-18.93"/>
<polygon fill="#63b8ff" stroke="#63b8ff" points="292.01,-47.93 283.14,-53.72 293.69,-54.72 292.01,-47.93"/>
</a>
</g>
</g>
</g>
</svg>
