<?xml version="1.0" encoding="UTF-8" standalone="no"?>
<!DOCTYPE svg PUBLIC "-//W3C//DTD SVG 1.1//EN"
 "http://www.w3.org/Graphics/SVG/1.1/DTD/svg11.dtd">
<!-- Generated by graphviz version 14.0.1 (0)
 -->
<!-- Title: Simulation::SimulationUnit::operator= Pages: 1 -->
<svg width="644pt" height="107pt"
 viewBox="0.00 0.00 644.00 107.00" xmlns="http://www.w3.org/2000/svg" xmlns:xlink="http://www.w3.org/1999/xlink">
<g id="graph0" class="graph" transform="scale(1 1) rotate(0) translate(4 103)">
<title>Simulation::SimulationUnit::operator=</title>
<!-- Node1 -->
<g id="Node000001" class="node">
<title>Node1</title>
<g id="a_Node000001"><a xlink:title=" ">
<polygon fill="#999999" stroke="#666666" points="131.5,-75 0,-75 0,-46 131.5,-46 131.5,-75"/>
<text xml:space="preserve" text-anchor="start" x="8" y="-61.5" font-family="Helvetica,sans-Serif" font-size="10.00">Simulation::SimulationUnit</text>
<text xml:space="preserve" text-anchor="middle" x="65.75" y="-51" font-family="Helvetica,sans-Serif" font-size="10.00">::operator=</text>
</a>
</g>
</g>
<!-- Node2 -->
<g id="Node000002" class="node">
<title>Node2</title>
<g id="a_Node000002"><a xlink:href="classSimulation_1_1SimulationUnit.html#a1278ad223b0cc8509f68a9f7d995bfd2" target="_top" xlink:title=" ">
<polygon fill="white" stroke="#666666" points="299,-75 167.5,-75 167.5,-46 299,-46 299,-75"/>
<text xml:space="preserve" text-anchor="start" x="175.5" y="-61.5" font-family="Helvetica,sans-Serif" font-size="10.00">Simulation::SimulationUnit</text>
<text xml:space="preserve" text-anchor="middle" x="233.25" y="-51" font-family="Helvetica,sans-Serif" font-size="10.00">::SimulationUnit</text>
</a>
</g>
</g>
<!-- Node1&#45;&gt;Node2 -->
<g id="edge1_Node000001_Node000002" class="edge">
<title>Node1&#45;&gt;Node2</title>
<g id="a_edge1_Node000001_Node000002"><a xlink:title=" ">
<path fill="none" stroke="#63b8ff" d="M131.68,-60.5C139.63,-60.5 147.79,-60.5 155.88,-60.5"/>
<polygon fill="#63b8ff" stroke="#63b8ff" points="155.72,-64 165.72,-60.5 155.72,-57 155.72,-64"/>
</a>
</g>
</g>
<!-- Node3 -->
<g id="Node000003" class="node">
<title>Node3</title>
<g id="a_Node000003"><a xlink:href="classSimulation_1_1SimulationUnit.html#af5aeb9c124540ac219001b46b51b74a9" target="_top" xlink:title=" ">
<polygon fill="white" stroke="#666666" points="466.5,-99 335,-99 335,-70 466.5,-70 466.5,-99"/>
<text xml:space="preserve" text-anchor="start" x="343" y="-85.5" font-family="Helvetica,sans-Serif" font-size="10.00">Simulation::SimulationUnit</text>
<text xml:space="preserve" text-anchor="middle" x="400.75" y="-75" font-family="Helvetica,sans-Serif" font-size="10.00">::get_kernel_contribution</text>
</a>
</g>
</g>
<!-- Node2&#45;&gt;Node3 -->
<g id="edge2_Node000002_Node000003" class="edge">
<title>Node2&#45;&gt;Node3</title>
<g id="a_edge2_Node000002_Node000003"><a xlink:title=" ">
<path fill="none" stroke="#63b8ff" d="M299.18,-69.92C307.13,-71.07 315.29,-72.25 323.38,-73.43"/>
<polygon fill="#63b8ff" stroke="#63b8ff" points="322.83,-76.88 333.23,-74.85 323.84,-69.96 322.83,-76.88"/>
</a>
</g>
</g>
<!-- Node4 -->
<g id="Node000004" class="node">
<title>Node4</title>
<g id="a_Node000004"><a xlink:href="classSimulation_1_1SimulationUnit.html#a36fb635150825e63055191740edaba84" target="_top" xlink:title=" ">
<polygon fill="white" stroke="#666666" points="466.5,-52 335,-52 335,-23 466.5,-23 466.5,-52"/>
<text xml:space="preserve" text-anchor="start" x="343" y="-38.5" font-family="Helvetica,sans-Serif" font-size="10.00">Simulation::SimulationUnit</text>
<text xml:space="preserve" text-anchor="middle" x="400.75" y="-28" font-family="Helvetica,sans-Serif" font-size="10.00">::post_init_concentration</text>
</a>
</g>
</g>
<!-- Node2&#45;&gt;Node4 -->
<g id="edge3_Node000002_Node000004" class="edge">
<title>Node2&#45;&gt;Node4</title>
<g id="a_edge3_Node000002_Node000004"><a xlink:title=" ">
<path fill="none" stroke="#63b8ff" d="M299.18,-51.48C307.13,-50.37 315.29,-49.24 323.38,-48.11"/>
<polygon fill="#63b8ff" stroke="#63b8ff" points="323.81,-51.59 333.23,-46.74 322.84,-44.65 323.81,-51.59"/>
</a>
</g>
</g>
<!-- Node5 -->
<g id="Node000005" class="node">
<title>Node5</title>
<g id="a_Node000005"><a xlink:href="namespaceSimulation_1_1impl.html#ab56eb92724f12b4ed6c401939009519c" target="_top" xlink:title=" ">
<polygon fill="white" stroke="#666666" points="626.88,-76 511.12,-76 511.12,-47 626.88,-47 626.88,-76"/>
<text xml:space="preserve" text-anchor="start" x="519.12" y="-62.5" font-family="Helvetica,sans-Serif" font-size="10.00">Simulation::impl::post</text>
<text xml:space="preserve" text-anchor="middle" x="569" y="-52" font-family="Helvetica,sans-Serif" font-size="10.00">_init_concentration_file</text>
</a>
</g>
</g>
<!-- Node4&#45;&gt;Node5 -->
<g id="edge4_Node000004_Node000005" class="edge">
<title>Node4&#45;&gt;Node5</title>
<g id="a_edge4_Node000004_Node000005"><a xlink:title=" ">
<path fill="none" stroke="#63b8ff" d="M466.98,-46.92C477.71,-48.47 488.87,-50.08 499.68,-51.64"/>
<polygon fill="#63b8ff" stroke="#63b8ff" points="498.89,-55.06 509.28,-53.02 499.89,-48.13 498.89,-55.06"/>
</a>
</g>
</g>
<!-- Node6 -->
<g id="Node000006" class="node">
<title>Node6</title>
<g id="a_Node000006"><a xlink:href="namespaceSimulation_1_1impl.html#ae40eba3a10cbceb62fe3e6980dcc193f" target="_top" xlink:title=" ">
<polygon fill="white" stroke="#666666" points="635.5,-29 502.5,-29 502.5,0 635.5,0 635.5,-29"/>
<text xml:space="preserve" text-anchor="start" x="510.5" y="-15.5" font-family="Helvetica,sans-Serif" font-size="10.00">Simulation::impl::post</text>
<text xml:space="preserve" text-anchor="middle" x="569" y="-5" font-family="Helvetica,sans-Serif" font-size="10.00">_init_concentration_functor</text>
</a>
</g>
</g>
<!-- Node4&#45;&gt;Node6 -->
<g id="edge5_Node000004_Node000006" class="edge">
<title>Node4&#45;&gt;Node6</title>
<g id="a_edge5_Node000004_Node000006"><a xlink:title=" ">
<path fill="none" stroke="#63b8ff" d="M466.98,-28.48C474.83,-27.39 482.91,-26.27 490.91,-25.17"/>
<polygon fill="#63b8ff" stroke="#63b8ff" points="491.21,-28.66 500.64,-23.82 490.26,-21.72 491.21,-28.66"/>
</a>
</g>
</g>
</g>
</svg>
