<?xml version="1.0" encoding="UTF-8" standalone="no"?>
<!DOCTYPE svg PUBLIC "-//W3C//DTD SVG 1.1//EN"
 "http://www.w3.org/Graphics/SVG/1.1/DTD/svg11.dtd">
<!-- Generated by graphviz version 14.0.1 (0)
 -->
<!-- Title: IO::Console::Console Pages: 1 -->
<svg width="270pt" height="138pt"
 viewBox="0.00 0.00 270.00 138.00" xmlns="http://www.w3.org/2000/svg" xmlns:xlink="http://www.w3.org/1999/xlink">
<g id="graph0" class="graph" transform="scale(1 1) rotate(0) translate(4 133.5)">
<title>IO::Console::Console</title>
<!-- Node1 -->
<g id="Node000001" class="node">
<title>Node1</title>
<g id="a_Node000001"><a xlink:title=" ">
<polygon fill="#999999" stroke="#666666" points="262.25,-73.5 151.75,-73.5 151.75,-55 262.25,-55 262.25,-73.5"/>
<text xml:space="preserve" text-anchor="middle" x="207" y="-60" font-family="Helvetica,sans-Serif" font-size="10.00">IO::Console::Console</text>
</a>
</g>
</g>
<!-- Node2 -->
<g id="Node000002" class="node">
<title>Node2</title>
<g id="a_Node000002"><a xlink:href="classIO_1_1Console.html#afa53ede48496d2ff21c31a463d4c8e9e" target="_top" xlink:title=" ">
<polygon fill="white" stroke="#666666" points="113.12,-129.5 2.62,-129.5 2.62,-111 113.12,-111 113.12,-129.5"/>
<text xml:space="preserve" text-anchor="middle" x="57.88" y="-116" font-family="Helvetica,sans-Serif" font-size="10.00">IO::Console::Console</text>
</a>
</g>
</g>
<!-- Node1&#45;&gt;Node2 -->
<g id="edge1_Node000001_Node000002" class="edge">
<title>Node1&#45;&gt;Node2</title>
<g id="a_edge1_Node000001_Node000002"><a xlink:title=" ">
<path fill="none" stroke="#63b8ff" d="M173.03,-78.39C156.02,-85.52 134.89,-94.14 115.75,-101.25 107.16,-104.44 97.76,-107.68 89.11,-110.56"/>
<polygon fill="#63b8ff" stroke="#63b8ff" points="174.29,-81.65 182.15,-74.53 171.57,-75.2 174.29,-81.65"/>
</a>
</g>
</g>
<!-- Node3 -->
<g id="Node000003" class="node">
<title>Node3</title>
<g id="a_Node000003"><a xlink:href="classIO_1_1Console.html#af5e8a2459163188ad1da3430b88001b6" target="_top" xlink:title=" ">
<polygon fill="white" stroke="#666666" points="113.12,-92.5 2.62,-92.5 2.62,-74 113.12,-74 113.12,-92.5"/>
<text xml:space="preserve" text-anchor="middle" x="57.88" y="-79" font-family="Helvetica,sans-Serif" font-size="10.00">IO::Console::Console</text>
</a>
</g>
</g>
<!-- Node1&#45;&gt;Node3 -->
<g id="edge2_Node000001_Node000003" class="edge">
<title>Node1&#45;&gt;Node3</title>
<g id="a_edge2_Node000001_Node000003"><a xlink:title=" ">
<path fill="none" stroke="#63b8ff" d="M140.39,-72.72C131.41,-73.88 122.26,-75.06 113.51,-76.19"/>
<polygon fill="#63b8ff" stroke="#63b8ff" points="140.66,-76.22 150.13,-71.46 139.77,-69.27 140.66,-76.22"/>
</a>
</g>
</g>
<!-- Node4 -->
<g id="Node000004" class="node">
<title>Node4</title>
<g id="a_Node000004"><a xlink:href="classIO_1_1Console.html#aac82dc12f9d262c7f44b22fe6f2dd49b" target="_top" xlink:title=" ">
<polygon fill="white" stroke="#666666" points="115.75,-55.5 0,-55.5 0,-37 115.75,-37 115.75,-55.5"/>
<text xml:space="preserve" text-anchor="middle" x="57.88" y="-42" font-family="Helvetica,sans-Serif" font-size="10.00">IO::Console::operator=</text>
</a>
</g>
</g>
<!-- Node1&#45;&gt;Node4 -->
<g id="edge3_Node000001_Node000004" class="edge">
<title>Node1&#45;&gt;Node4</title>
<g id="a_edge3_Node000001_Node000004"><a xlink:title=" ">
<path fill="none" stroke="#63b8ff" d="M140.29,-56.21C132.18,-55.22 123.94,-54.21 115.98,-53.24"/>
<polygon fill="#63b8ff" stroke="#63b8ff" points="139.78,-59.67 150.13,-57.41 140.63,-52.73 139.78,-59.67"/>
</a>
</g>
</g>
<!-- Node5 -->
<g id="Node000005" class="node">
<title>Node5</title>
<g id="a_Node000005"><a xlink:href="classIO_1_1Console.html#a2ae23124d355bfe39da66c91d3417caf" target="_top" xlink:title=" ">
<polygon fill="white" stroke="#666666" points="115.75,-18.5 0,-18.5 0,0 115.75,0 115.75,-18.5"/>
<text xml:space="preserve" text-anchor="middle" x="57.88" y="-5" font-family="Helvetica,sans-Serif" font-size="10.00">IO::Console::operator=</text>
</a>
</g>
</g>
<!-- Node1&#45;&gt;Node5 -->
<g id="edge4_Node000001_Node000005" class="edge">
<title>Node1&#45;&gt;Node5</title>
<g id="a_edge4_Node000001_Node000005"><a xlink:title=" ">
<path fill="none" stroke="#63b8ff" d="M172.3,-50.28C155.41,-43.41 134.59,-35.15 115.75,-28.25 107.15,-25.1 97.74,-21.87 89.09,-18.99"/>
<polygon fill="#63b8ff" stroke="#63b8ff" points="170.78,-53.44 181.37,-53.99 173.44,-46.96 170.78,-53.44"/>
</a>
</g>
</g>
</g>
</svg>
