<?xml version="1.0" encoding="UTF-8" standalone="no"?>
<!DOCTYPE svg PUBLIC "-//W3C//DTD SVG 1.1//EN"
 "http://www.w3.org/Graphics/SVG/1.1/DTD/svg11.dtd">
<!-- Generated by graphviz version 14.0.1 (0)
 -->
<!-- Title: Simulation::SimulationUnit Pages: 1 -->
<svg width="559pt" height="154pt"
 viewBox="0.00 0.00 559.00 154.00" xmlns="http://www.w3.org/2000/svg" xmlns:xlink="http://www.w3.org/1999/xlink">
<g id="graph0" class="graph" transform="scale(1 1) rotate(0) translate(4 149.75)">
<title>Simulation::SimulationUnit</title>
<!-- Node1 -->
<g id="Node000001" class="node">
<title>Node1</title>
<g id="a_Node000001"><a xlink:title=" ">
<polygon fill="#999999" stroke="#666666" points="379.25,-85.75 247.75,-85.75 247.75,-67.25 379.25,-67.25 379.25,-85.75"/>
<text xml:space="preserve" text-anchor="middle" x="313.5" y="-72.25" font-family="Helvetica,sans-Serif" font-size="10.00">Simulation::SimulationUnit</text>
</a>
</g>
</g>
<!-- Node2 -->
<g id="Node000002" class="node">
<title>Node2</title>
<g id="a_Node000002"><a xlink:href="classSimulation_1_1Getter.html" target="_top" xlink:title=" ">
<polygon fill="white" stroke="#666666" points="550.5,-85.75 455.75,-85.75 455.75,-67.25 550.5,-67.25 550.5,-85.75"/>
<text xml:space="preserve" text-anchor="middle" x="503.12" y="-72.25" font-family="Helvetica,sans-Serif" font-size="10.00">Simulation::Getter</text>
</a>
</g>
</g>
<!-- Node1&#45;&gt;Node2 -->
<g id="edge2_Node000002_Node000001" class="edge">
<title>Node1&#45;&gt;Node2</title>
<g id="a_edge2_Node000002_Node000001"><a xlink:title=" ">
<path fill="none" stroke="#9a32cd" stroke-dasharray="5,2" d="M390.89,-76.5C412.77,-76.5 435.96,-76.5 455.47,-76.5"/>
<polygon fill="#9a32cd" stroke="#9a32cd" points="391.11,-73 381.11,-76.5 391.11,-80 391.11,-73"/>
</a>
</g>
<text xml:space="preserve" text-anchor="start" x="412.25" y="-80.5" font-family="Helvetica,sans-Serif" font-size="10.00" fill="grey">a_</text>
</g>
<!-- Node2&#45;&gt;Node1 -->
<g id="edge1_Node000001_Node000002" class="edge">
<title>Node2&#45;&gt;Node1</title>
<g id="a_edge1_Node000001_Node000002"><a xlink:title=" ">
<path fill="none" stroke="#9a32cd" stroke-dasharray="5,2" d="M463.83,-63.6C455.34,-61.27 446.32,-59.21 437.75,-58 406.36,-53.58 370.53,-60.28 345.63,-66.81"/>
<polygon fill="#9a32cd" stroke="#9a32cd" points="462.58,-66.88 473.16,-66.33 464.54,-60.16 462.58,-66.88"/>
</a>
</g>
<text xml:space="preserve" text-anchor="start" x="400.25" y="-62" font-family="Helvetica,sans-Serif" font-size="10.00" fill="grey">accesor</text>
</g>
<!-- Node3 -->
<g id="Node000003" class="node">
<title>Node3</title>
<g id="a_Node000003"><a xlink:href="structSimulation_1_1Dimensions.html" target="_top" xlink:title=" ">
<polygon fill="white" stroke="#666666" points="141.25,-145.75 21.75,-145.75 21.75,-127.25 141.25,-127.25 141.25,-145.75"/>
<text xml:space="preserve" text-anchor="middle" x="81.5" y="-132.25" font-family="Helvetica,sans-Serif" font-size="10.00">Simulation::Dimensions</text>
</a>
</g>
</g>
<!-- Node3&#45;&gt;Node1 -->
<g id="edge3_Node000001_Node000003" class="edge">
<title>Node3&#45;&gt;Node1</title>
<g id="a_edge3_Node000001_Node000003"><a xlink:title=" ">
<path fill="none" stroke="#9a32cd" stroke-dasharray="5,2" d="M152.55,-125.85C177.18,-121.41 204.91,-115.6 229.75,-108.5 250.93,-102.45 274.27,-93.17 290.74,-86.16"/>
<polygon fill="#9a32cd" stroke="#9a32cd" points="152.21,-122.36 142.96,-127.54 153.42,-129.25 152.21,-122.36"/>
</a>
</g>
<text xml:space="preserve" text-anchor="start" x="194.88" y="-124.18" font-family="Helvetica,sans-Serif" font-size="10.00" fill="grey">dims</text>
</g>
<!-- Node4 -->
<g id="Node000004" class="node">
<title>Node4</title>
<g id="a_Node000004"><a xlink:href="classSimulation_1_1Feed_1_1SimulationFeed.html" target="_top" xlink:title=" ">
<polygon fill="white" stroke="#666666" points="163,-105.75 0,-105.75 0,-87.25 163,-87.25 163,-105.75"/>
<text xml:space="preserve" text-anchor="middle" x="81.5" y="-92.25" font-family="Helvetica,sans-Serif" font-size="10.00">Simulation::Feed::SimulationFeed</text>
</a>
</g>
</g>
<!-- Node4&#45;&gt;Node1 -->
<g id="edge4_Node000001_Node000004" class="edge">
<title>Node4&#45;&gt;Node1</title>
<g id="a_edge4_Node000001_Node000004"><a xlink:title=" ">
<path fill="none" stroke="#9a32cd" stroke-dasharray="5,2" d="M174.72,-88.48C199.08,-86.36 224.87,-84.12 247.47,-82.16"/>
<polygon fill="#9a32cd" stroke="#9a32cd" points="174.43,-84.99 164.77,-89.35 175.04,-91.97 174.43,-84.99"/>
</a>
</g>
<text xml:space="preserve" text-anchor="start" x="189.25" y="-91.7" font-family="Helvetica,sans-Serif" font-size="10.00" fill="grey">m_feed</text>
</g>
<!-- Node5 -->
<g id="Node000005" class="node">
<title>Node5</title>
<g id="a_Node000005"><a xlink:href="structSimulation_1_1SimulatimeTimes.html" target="_top" xlink:title=" ">
<polygon fill="white" stroke="#666666" points="153.25,-65.75 9.75,-65.75 9.75,-47.25 153.25,-47.25 153.25,-65.75"/>
<text xml:space="preserve" text-anchor="middle" x="81.5" y="-52.25" font-family="Helvetica,sans-Serif" font-size="10.00">Simulation::SimulatimeTimes</text>
</a>
</g>
</g>
<!-- Node5&#45;&gt;Node1 -->
<g id="edge5_Node000001_Node000005" class="edge">
<title>Node5&#45;&gt;Node1</title>
<g id="a_edge5_Node000001_Node000005"><a xlink:title=" ">
<path fill="none" stroke="#9a32cd" stroke-dasharray="5,2" d="M164.66,-59.24C185.9,-60.35 208.7,-61.88 229.75,-64 237.27,-64.76 245.14,-65.72 252.93,-66.78"/>
<polygon fill="#9a32cd" stroke="#9a32cd" points="165.06,-55.76 154.9,-58.76 164.71,-62.75 165.06,-55.76"/>
</a>
</g>
<text xml:space="preserve" text-anchor="start" x="186.62" y="-68" font-family="Helvetica,sans-Serif" font-size="10.00" fill="grey">m_times</text>
</g>
<!-- Node6 -->
<g id="Node000006" class="node">
<title>Node6</title>
<g id="a_Node000006"><a xlink:href="classSimulation_1_1MassTransfer_1_1MassTransferModel.html" target="_top" xlink:title=" ">
<polygon fill="white" stroke="#666666" points="145,-29 18,-29 18,0 145,0 145,-29"/>
<text xml:space="preserve" text-anchor="start" x="26" y="-15.5" font-family="Helvetica,sans-Serif" font-size="10.00">Simulation::MassTransfer</text>
<text xml:space="preserve" text-anchor="middle" x="81.5" y="-5" font-family="Helvetica,sans-Serif" font-size="10.00">::MassTransferModel</text>
</a>
</g>
</g>
<!-- Node6&#45;&gt;Node1 -->
<g id="edge6_Node000001_Node000006" class="edge">
<title>Node6&#45;&gt;Node1</title>
<g id="a_edge6_Node000001_Node000006"><a xlink:title=" ">
<path fill="none" stroke="#9a32cd" stroke-dasharray="5,2" d="M156.32,-23.67C180.06,-27.57 206.27,-32.91 229.75,-40 252.75,-46.95 277.81,-58.63 294.26,-66.9"/>
<polygon fill="#9a32cd" stroke="#9a32cd" points="157.18,-20.26 146.75,-22.16 156.08,-27.18 157.18,-20.26"/>
</a>
</g>
<text xml:space="preserve" text-anchor="start" x="184" y="-44" font-family="Helvetica,sans-Serif" font-size="10.00" fill="grey">mt_model</text>
</g>
</g>
</svg>
