<?xml version="1.0" encoding="UTF-8" standalone="no"?>
<!DOCTYPE svg PUBLIC "-//W3C//DTD SVG 1.1//EN"
 "http://www.w3.org/Graphics/SVG/1.1/DTD/svg11.dtd">
<!-- Generated by graphviz version 14.0.1 (0)
 -->
<!-- Title: Simulation::Probes::clear Pages: 1 -->
<svg width="1196pt" height="150pt"
 viewBox="0.00 0.00 1196.00 150.00" xmlns="http://www.w3.org/2000/svg" xmlns:xlink="http://www.w3.org/1999/xlink">
<g id="graph0" class="graph" transform="scale(1 1) rotate(0) translate(4 146.25)">
<title>Simulation::Probes::clear</title>
<!-- Node1 -->
<g id="Node000001" class="node">
<title>Node1</title>
<g id="a_Node000001"><a xlink:title=" ">
<polygon fill="#999999" stroke="#666666" points="1187.75,-60.25 1089.25,-60.25 1089.25,-31.25 1187.75,-31.25 1187.75,-60.25"/>
<text xml:space="preserve" text-anchor="start" x="1097.25" y="-46.75" font-family="Helvetica,sans-Serif" font-size="10.00">Simulation::Probes</text>
<text xml:space="preserve" text-anchor="middle" x="1138.5" y="-36.25" font-family="Helvetica,sans-Serif" font-size="10.00">::clear</text>
</a>
</g>
</g>
<!-- Node2 -->
<g id="Node000002" class="node">
<title>Node2</title>
<g id="a_Node000002"><a xlink:href="namespacePostProcessing.html#adae52b6b518e25be1c920f36f196ef65" target="_top" xlink:title=" ">
<polygon fill="white" stroke="#666666" points="1051.38,-86.25 934.88,-86.25 934.88,-57.25 1051.38,-57.25 1051.38,-86.25"/>
<text xml:space="preserve" text-anchor="start" x="942.88" y="-72.75" font-family="Helvetica,sans-Serif" font-size="10.00">PostProcessing::_save</text>
<text xml:space="preserve" text-anchor="middle" x="993.12" y="-62.25" font-family="Helvetica,sans-Serif" font-size="10.00">_probes</text>
</a>
</g>
</g>
<!-- Node1&#45;&gt;Node2 -->
<g id="edge1_Node000001_Node000002" class="edge">
<title>Node1&#45;&gt;Node2</title>
<g id="a_edge1_Node000001_Node000002"><a xlink:title=" ">
<path fill="none" stroke="#63b8ff" d="M1077.82,-56.57C1069.21,-58.13 1060.36,-59.74 1051.79,-61.29"/>
<polygon fill="#63b8ff" stroke="#63b8ff" points="1078.26,-60.05 1087.47,-54.82 1077.01,-53.16 1078.26,-60.05"/>
</a>
</g>
</g>
<!-- Node12 -->
<g id="Node000012" class="node">
<title>Node12</title>
<g id="a_Node000012"><a xlink:href="classSimulation_1_1Probes.html#a0dcf2728472463a78c038986e50322a6" target="_top" xlink:title=" ">
<polygon fill="white" stroke="#666666" points="1053.25,-39.5 933,-39.5 933,0 1053.25,0 1053.25,-39.5"/>
<text xml:space="preserve" text-anchor="start" x="941" y="-26" font-family="Helvetica,sans-Serif" font-size="10.00">Simulation::Probes</text>
<text xml:space="preserve" text-anchor="start" x="941" y="-15.5" font-family="Helvetica,sans-Serif" font-size="10.00">&lt; AutoGenerated::probe</text>
<text xml:space="preserve" text-anchor="middle" x="993.12" y="-5" font-family="Helvetica,sans-Serif" font-size="10.00">_buffer_size &gt;::Probes</text>
</a>
</g>
</g>
<!-- Node1&#45;&gt;Node12 -->
<g id="edge15_Node000001_Node000012" class="edge">
<title>Node1&#45;&gt;Node12</title>
<g id="a_edge15_Node000001_Node000012"><a xlink:title=" ">
<path fill="none" stroke="#63b8ff" d="M1077.81,-34.92C1069.79,-33.47 1061.57,-31.98 1053.55,-30.53"/>
<polygon fill="#63b8ff" stroke="#63b8ff" points="1077.01,-38.34 1087.47,-36.68 1078.26,-31.45 1077.01,-38.34"/>
</a>
</g>
</g>
<!-- Node3 -->
<g id="Node000003" class="node">
<title>Node3</title>
<g id="a_Node000003"><a xlink:href="namespacePostProcessing.html#abfe2a5894fae7c5534274da5d6d33e83" target="_top" xlink:title=" ">
<polygon fill="white" stroke="#666666" points="897,-86.25 785.75,-86.25 785.75,-57.25 897,-57.25 897,-86.25"/>
<text xml:space="preserve" text-anchor="start" x="793.75" y="-72.75" font-family="Helvetica,sans-Serif" font-size="10.00">PostProcessing::save</text>
<text xml:space="preserve" text-anchor="middle" x="841.38" y="-62.25" font-family="Helvetica,sans-Serif" font-size="10.00">_probes</text>
</a>
</g>
</g>
<!-- Node2&#45;&gt;Node3 -->
<g id="edge2_Node000002_Node000003" class="edge">
<title>Node2&#45;&gt;Node3</title>
<g id="a_edge2_Node000002_Node000003"><a xlink:title=" ">
<path fill="none" stroke="#63b8ff" d="M923.36,-71.75C914.68,-71.75 905.9,-71.75 897.47,-71.75"/>
<polygon fill="#63b8ff" stroke="#63b8ff" points="923.14,-75.25 933.14,-71.75 923.14,-68.25 923.14,-75.25"/>
</a>
</g>
</g>
<!-- Node4 -->
<g id="Node000004" class="node">
<title>Node4</title>
<g id="a_Node000004"><a xlink:href="namespaceCore.html#a105cc1fc8005e6139954e3adce14f525" target="_top" xlink:title="Start simulation.">
<polygon fill="white" stroke="#666666" points="718.25,-100 655,-100 655,-81.5 718.25,-81.5 718.25,-100"/>
<text xml:space="preserve" text-anchor="middle" x="686.62" y="-86.5" font-family="Helvetica,sans-Serif" font-size="10.00">Core::exec</text>
</a>
</g>
</g>
<!-- Node3&#45;&gt;Node4 -->
<g id="edge3_Node000003_Node000004" class="edge">
<title>Node3&#45;&gt;Node4</title>
<g id="a_edge3_Node000003_Node000004"><a xlink:title=" ">
<path fill="none" stroke="#63b8ff" d="M774.35,-79.96C754.9,-82.38 734.54,-84.91 718.44,-86.92"/>
<polygon fill="#63b8ff" stroke="#63b8ff" points="774.67,-83.45 784.16,-78.74 773.8,-76.5 774.67,-83.45"/>
</a>
</g>
</g>
<!-- Node11 -->
<g id="Node000011" class="node">
<title>Node11</title>
<g id="a_Node000011"><a xlink:href="classExportHandler.html#ac8574bef8f5a8eceaef5d75dbb6e3ad7" target="_top" xlink:title="Handles periodic export of simulation data.">
<polygon fill="white" stroke="#666666" points="749.75,-63 623.5,-63 623.5,-44.5 749.75,-44.5 749.75,-63"/>
<text xml:space="preserve" text-anchor="middle" x="686.62" y="-49.5" font-family="Helvetica,sans-Serif" font-size="10.00">ExportHandler::operator()</text>
</a>
</g>
</g>
<!-- Node3&#45;&gt;Node11 -->
<g id="edge14_Node000003_Node000011" class="edge">
<title>Node3&#45;&gt;Node11</title>
<g id="a_edge14_Node000003_Node000011"><a xlink:title=" ">
<path fill="none" stroke="#63b8ff" d="M774.37,-63.97C766.29,-63.02 758.04,-62.05 750.01,-61.1"/>
<polygon fill="#63b8ff" stroke="#63b8ff" points="773.82,-67.43 784.16,-65.13 774.64,-60.48 773.82,-67.43"/>
</a>
</g>
</g>
<!-- Node5 -->
<g id="Node000005" class="node">
<title>Node5</title>
<g id="a_Node000005"><a xlink:href="structApi_1_1SimulationInstance.html#a3f04372728be84263fb69f5773ca5bd5" target="_top" xlink:title="Execute the simulation.">
<polygon fill="white" stroke="#666666" points="430.5,-142.25 311,-142.25 311,-113.25 430.5,-113.25 430.5,-142.25"/>
<text xml:space="preserve" text-anchor="start" x="319" y="-128.75" font-family="Helvetica,sans-Serif" font-size="10.00">Api::SimulationInstance</text>
<text xml:space="preserve" text-anchor="middle" x="370.75" y="-118.25" font-family="Helvetica,sans-Serif" font-size="10.00">::exec</text>
</a>
</g>
</g>
<!-- Node4&#45;&gt;Node5 -->
<g id="edge4_Node000004_Node000005" class="edge">
<title>Node4&#45;&gt;Node5</title>
<g id="a_edge4_Node000004_Node000005"><a xlink:title=" ">
<path fill="none" stroke="#63b8ff" d="M643.88,-99.3C626.5,-102.62 606.08,-106.23 587.5,-108.75 534.78,-115.89 474.42,-120.94 430.98,-124.03"/>
<polygon fill="#63b8ff" stroke="#63b8ff" points="644.18,-102.81 653.32,-97.46 642.84,-95.94 644.18,-102.81"/>
</a>
</g>
</g>
<!-- Node7 -->
<g id="Node000007" class="node">
<title>Node7</title>
<g id="a_Node000007"><a xlink:href="namespaceCore.html#a23e6f3d22fc51ef9decabb2c220b27c4" target="_top" xlink:title=" ">
<polygon fill="white" stroke="#666666" points="587.5,-100 466.5,-100 466.5,-81.5 587.5,-81.5 587.5,-100"/>
<text xml:space="preserve" text-anchor="middle" x="527" y="-86.5" font-family="Helvetica,sans-Serif" font-size="10.00">Core::exporter_filename</text>
</a>
</g>
</g>
<!-- Node4&#45;&gt;Node7 -->
<g id="edge6_Node000004_Node000007" class="edge">
<title>Node4&#45;&gt;Node7</title>
<g id="a_edge6_Node000004_Node000007"><a xlink:title=" ">
<path fill="none" stroke="#63b8ff" d="M643.54,-84.7C626.42,-84 606.33,-83.82 587.74,-84.18"/>
<polygon fill="#63b8ff" stroke="#63b8ff" points="643.18,-88.19 653.35,-85.19 643.54,-81.19 643.18,-88.19"/>
</a>
</g>
</g>
<!-- Node8 -->
<g id="Node000008" class="node">
<title>Node8</title>
<g id="a_Node000008"><a xlink:href="namespaceCore.html#a877563df5a407318a381e12311022377" target="_top" xlink:title=" ">
<polygon fill="white" stroke="#666666" points="557.5,-63 496.5,-63 496.5,-44.5 557.5,-44.5 557.5,-63"/>
<text xml:space="preserve" text-anchor="middle" x="527" y="-49.5" font-family="Helvetica,sans-Serif" font-size="10.00">Core::load</text>
</a>
</g>
</g>
<!-- Node4&#45;&gt;Node8 -->
<g id="edge8_Node000004_Node000008" class="edge">
<title>Node4&#45;&gt;Node8</title>
<g id="a_edge8_Node000004_Node000008"><a xlink:title=" ">
<path fill="none" stroke="#63b8ff" d="M643.78,-80.93C616.73,-74.58 582.18,-66.47 557.89,-60.77"/>
<polygon fill="#63b8ff" stroke="#63b8ff" points="642.85,-84.3 653.39,-83.18 644.45,-77.49 642.85,-84.3"/>
</a>
</g>
</g>
<!-- Node6 -->
<g id="Node000006" class="node">
<title>Node6</title>
<g id="a_Node000006"><a xlink:href="structApi_1_1SimulationInstance.html#afee07db8a6b57fe7982900ecaa943cc0" target="_top" xlink:title="Default constructor.">
<polygon fill="white" stroke="#666666" points="119.5,-104.25 0,-104.25 0,-75.25 119.5,-75.25 119.5,-104.25"/>
<text xml:space="preserve" text-anchor="start" x="8" y="-90.75" font-family="Helvetica,sans-Serif" font-size="10.00">Api::SimulationInstance</text>
<text xml:space="preserve" text-anchor="middle" x="59.75" y="-80.25" font-family="Helvetica,sans-Serif" font-size="10.00">::SimulationInstance</text>
</a>
</g>
</g>
<!-- Node5&#45;&gt;Node6 -->
<g id="edge5_Node000005_Node000006" class="edge">
<title>Node5&#45;&gt;Node6</title>
<g id="a_edge5_Node000005_Node000006"><a xlink:title=" ">
<path fill="none" stroke="#63b8ff" d="M299.28,-119.08C245.03,-112.41 170.91,-103.3 119.76,-97.01"/>
<polygon fill="#63b8ff" stroke="#63b8ff" points="298.68,-122.54 309.04,-120.28 299.54,-115.59 298.68,-122.54"/>
</a>
</g>
</g>
<!-- Node7&#45;&gt;Node4 -->
<g id="edge7_Node000007_Node000004" class="edge">
<title>Node7&#45;&gt;Node4</title>
<g id="a_edge7_Node000007_Node000004"><a xlink:title=" ">
<path fill="none" stroke="#63b8ff" d="M599.14,-97.47C618.71,-97.62 638.91,-97.2 654.86,-96.23"/>
<polygon fill="#63b8ff" stroke="#63b8ff" points="599.29,-93.97 589.25,-97.34 599.2,-100.97 599.29,-93.97"/>
</a>
</g>
</g>
<!-- Node9 -->
<g id="Node000009" class="node">
<title>Node9</title>
<g id="a_Node000009"><a xlink:href="structApi_1_1SimulationInstance.html#ad2abfa76ac4128d44b7c0c895f78b77b" target="_top" xlink:title="Load ad apply the simulation configuration and prepare for execution based on file.">
<polygon fill="white" stroke="#666666" points="430.5,-68.25 311,-68.25 311,-39.25 430.5,-39.25 430.5,-68.25"/>
<text xml:space="preserve" text-anchor="start" x="319" y="-54.75" font-family="Helvetica,sans-Serif" font-size="10.00">Api::SimulationInstance</text>
<text xml:space="preserve" text-anchor="middle" x="370.75" y="-44.25" font-family="Helvetica,sans-Serif" font-size="10.00">::apply_load</text>
</a>
</g>
</g>
<!-- Node8&#45;&gt;Node9 -->
<g id="edge9_Node000008_Node000009" class="edge">
<title>Node8&#45;&gt;Node9</title>
<g id="a_edge9_Node000008_Node000009"><a xlink:title=" ">
<path fill="none" stroke="#63b8ff" d="M484.76,-53.75C468.2,-53.75 448.79,-53.75 430.78,-53.75"/>
<polygon fill="#63b8ff" stroke="#63b8ff" points="484.75,-57.25 494.75,-53.75 484.75,-50.25 484.75,-57.25"/>
</a>
</g>
</g>
<!-- Node9&#45;&gt;Node6 -->
<g id="edge13_Node000009_Node000006" class="edge">
<title>Node9&#45;&gt;Node6</title>
<g id="a_edge13_Node000009_Node000006"><a xlink:title=" ">
<path fill="none" stroke="#63b8ff" d="M299.56,-67.06C291.29,-68.42 282.97,-69.68 275,-70.75 222.63,-77.76 162.69,-82.82 119.56,-85.95"/>
<polygon fill="#63b8ff" stroke="#63b8ff" points="299.97,-70.54 309.25,-65.43 298.81,-63.64 299.97,-70.54"/>
</a>
</g>
</g>
<!-- Node10 -->
<g id="Node000010" class="node">
<title>Node10</title>
<g id="a_Node000010"><a xlink:href="structApi_1_1SimulationInstance.html#a3398ddd22faa3ceb16b454c51faeced0" target="_top" xlink:title="Apply the simulation configuration and prepare for execution.">
<polygon fill="white" stroke="#666666" points="275,-43.25 155.5,-43.25 155.5,-14.25 275,-14.25 275,-43.25"/>
<text xml:space="preserve" text-anchor="start" x="163.5" y="-29.75" font-family="Helvetica,sans-Serif" font-size="10.00">Api::SimulationInstance</text>
<text xml:space="preserve" text-anchor="middle" x="215.25" y="-19.25" font-family="Helvetica,sans-Serif" font-size="10.00">::apply</text>
</a>
</g>
</g>
<!-- Node9&#45;&gt;Node10 -->
<g id="edge10_Node000009_Node000010" class="edge">
<title>Node9&#45;&gt;Node10</title>
<g id="a_edge10_Node000009_Node000010"><a xlink:title=" ">
<path fill="none" stroke="#63b8ff" d="M299.49,-42.31C291.39,-40.99 283.19,-39.65 275.25,-38.36"/>
<polygon fill="#63b8ff" stroke="#63b8ff" points="298.92,-45.76 309.35,-43.91 300.04,-38.85 298.92,-45.76"/>
</a>
</g>
</g>
<!-- Node10&#45;&gt;Node6 -->
<g id="edge12_Node000010_Node000006" class="edge">
<title>Node10&#45;&gt;Node6</title>
<g id="a_edge12_Node000010_Node000006"><a xlink:title=" ">
<path fill="none" stroke="#63b8ff" d="M166.3,-47.81C144.43,-56.5 118.91,-66.64 98.44,-74.77"/>
<polygon fill="#63b8ff" stroke="#63b8ff" points="167.29,-51.18 175.29,-44.23 164.71,-44.67 167.29,-51.18"/>
</a>
</g>
</g>
<!-- Node10&#45;&gt;Node10 -->
<g id="edge11_Node000010_Node000010" class="edge">
<title>Node10&#45;&gt;Node10</title>
<g id="a_edge11_Node000010_Node000010"><a xlink:title=" ">
<path fill="none" stroke="#63b8ff" d="M241.64,-54.81C237.5,-58.66 228.7,-61.25 215.25,-61.25 190.65,-61.25 181.62,-52.57 188.15,-43.46"/>
<polygon fill="#63b8ff" stroke="#63b8ff" points="245.13,-55.17 242.26,-44.97 238.14,-54.73 245.13,-55.17"/>
</a>
</g>
</g>
</g>
</svg>
