<?xml version="1.0" encoding="UTF-8" standalone="no"?>
<!DOCTYPE svg PUBLIC "-//W3C//DTD SVG 1.1//EN"
 "http://www.w3.org/Graphics/SVG/1.1/DTD/svg11.dtd">
<!-- Generated by graphviz version 12.1.2 (0)
 -->
<!-- Title: CmaUtils::FlowMapTransitionner::get_unchecked Pages: 1 -->
<svg width="530pt" height="37pt"
 viewBox="0.00 0.00 530.00 37.00" xmlns="http://www.w3.org/2000/svg" xmlns:xlink="http://www.w3.org/1999/xlink">
<g id="graph0" class="graph" transform="scale(1 1) rotate(0) translate(4 33)">
<title>CmaUtils::FlowMapTransitionner::get_unchecked</title>
<!-- Node1 -->
<g id="Node000001" class="node">
<title>Node1</title>
<g id="a_Node000001"><a xlink:title="Direct read state from iterator.">
<polygon fill="#999999" stroke="#666666" points="522,-29 363.5,-29 363.5,0 522,0 522,-29"/>
<text text-anchor="start" x="371.5" y="-15.5" font-family="Helvetica,sans-Serif" font-size="10.00">CmaUtils::FlowMapTransitionner</text>
<text text-anchor="middle" x="442.75" y="-5" font-family="Helvetica,sans-Serif" font-size="10.00">::get_unchecked</text>
</a>
</g>
</g>
<!-- Node2 -->
<g id="Node000002" class="node">
<title>Node2</title>
<g id="a_Node000002"><a xlink:href="classCmaUtils_1_1DiscontinuousFMT.html#afb3fcc676bcb57682b6fc6e4658e7ae0" target="_top" xlink:title="Provides a const reference to the current reactor state.">
<polygon fill="white" stroke="#666666" points="327.5,-29 181.75,-29 181.75,0 327.5,0 327.5,-29"/>
<text text-anchor="start" x="189.75" y="-15.5" font-family="Helvetica,sans-Serif" font-size="10.00">CmaUtils::DiscontinuousFMT</text>
<text text-anchor="middle" x="254.62" y="-5" font-family="Helvetica,sans-Serif" font-size="10.00">::get_current_reactor_state</text>
</a>
</g>
</g>
<!-- Node1&#45;&gt;Node2 -->
<g id="edge1_Node000001_Node000002" class="edge">
<title>Node1&#45;&gt;Node2</title>
<g id="a_edge1_Node000001_Node000002"><a xlink:title=" ">
<path fill="none" stroke="#63b8ff" d="M351.77,-14.5C343.73,-14.5 335.66,-14.5 327.79,-14.5"/>
<polygon fill="#63b8ff" stroke="#63b8ff" points="351.57,-18 361.57,-14.5 351.57,-11 351.57,-18"/>
</a>
</g>
</g>
<!-- Node3 -->
<g id="Node000003" class="node">
<title>Node3</title>
<g id="a_Node000003"><a xlink:href="classCmaUtils_1_1DiscontinuousFMT.html#a5b9b0e3ef2d5812a9e605f1dbb9214d6" target="_top" xlink:title="Calculate the current state based on the selected method, may be caching or direct calculation.">
<polygon fill="white" stroke="#666666" points="145.75,-29 0,-29 0,0 145.75,0 145.75,-29"/>
<text text-anchor="start" x="8" y="-15.5" font-family="Helvetica,sans-Serif" font-size="10.00">CmaUtils::DiscontinuousFMT</text>
<text text-anchor="middle" x="72.88" y="-5" font-family="Helvetica,sans-Serif" font-size="10.00">::update_flow</text>
</a>
</g>
</g>
<!-- Node2&#45;&gt;Node3 -->
<g id="edge2_Node000002_Node000003" class="edge">
<title>Node2&#45;&gt;Node3</title>
<g id="a_edge2_Node000002_Node000003"><a xlink:title=" ">
<path fill="none" stroke="#63b8ff" d="M170.04,-14.5C162.03,-14.5 153.95,-14.5 146.06,-14.5"/>
<polygon fill="#63b8ff" stroke="#63b8ff" points="169.78,-18 179.78,-14.5 169.78,-11 169.78,-18"/>
</a>
</g>
</g>
</g>
</svg>
