<?xml version="1.0" encoding="UTF-8" standalone="no"?>
<!DOCTYPE svg PUBLIC "-//W3C//DTD SVG 1.1//EN"
 "http://www.w3.org/Graphics/SVG/1.1/DTD/svg11.dtd">
<!-- Generated by graphviz version 14.0.1 (0)
 -->
<!-- Title: ILoadBalancer::ILoadBalancer Pages: 1 -->
<svg width="337pt" height="326pt"
 viewBox="0.00 0.00 337.00 326.00" xmlns="http://www.w3.org/2000/svg" xmlns:xlink="http://www.w3.org/1999/xlink">
<g id="graph0" class="graph" transform="scale(1 1) rotate(0) translate(4 322)">
<title>ILoadBalancer::ILoadBalancer</title>
<!-- Node1 -->
<g id="Node000001" class="node">
<title>Node1</title>
<g id="a_Node000001"><a xlink:title=" ">
<polygon fill="#999999" stroke="#666666" points="329,-157.75 182.5,-157.75 182.5,-139.25 329,-139.25 329,-157.75"/>
<text xml:space="preserve" text-anchor="middle" x="255.75" y="-144.25" font-family="Helvetica,sans-Serif" font-size="10.00">ILoadBalancer::ILoadBalancer</text>
</a>
</g>
</g>
<!-- Node2 -->
<g id="Node000002" class="node">
<title>Node2</title>
<g id="a_Node000002"><a xlink:href="classBoundLoadBalancer.html#ae5fb97683fc4a1537402d1d3823fa65a" target="_top" xlink:title=" ">
<polygon fill="white" stroke="#666666" points="127.75,-318 18.75,-318 18.75,-289 127.75,-289 127.75,-318"/>
<text xml:space="preserve" text-anchor="start" x="26.75" y="-304.5" font-family="Helvetica,sans-Serif" font-size="10.00">BoundLoadBalancer::</text>
<text xml:space="preserve" text-anchor="middle" x="73.25" y="-294" font-family="Helvetica,sans-Serif" font-size="10.00">BoundLoadBalancer</text>
</a>
</g>
</g>
<!-- Node1&#45;&gt;Node2 -->
<g id="edge1_Node000001_Node000002" class="edge">
<title>Node1&#45;&gt;Node2</title>
<g id="a_edge1_Node000001_Node000002"><a xlink:title=" ">
<path fill="none" stroke="#63b8ff" d="M243.97,-167.73C226.93,-196.41 191.08,-250.26 146.5,-280.5 140.84,-284.34 134.49,-287.57 127.98,-290.28"/>
<polygon fill="#63b8ff" stroke="#63b8ff" points="246.82,-169.79 248.8,-159.38 240.76,-166.28 246.82,-169.79"/>
</a>
</g>
</g>
<!-- Node3 -->
<g id="Node000003" class="node">
<title>Node3</title>
<g id="a_Node000003"><a xlink:href="classCustomLoadBalancer.html#a46c441272b3fbcd48514cad53d5b51c4" target="_top" xlink:title=" ">
<polygon fill="white" stroke="#666666" points="131.12,-271 15.38,-271 15.38,-242 131.12,-242 131.12,-271"/>
<text xml:space="preserve" text-anchor="start" x="23.38" y="-257.5" font-family="Helvetica,sans-Serif" font-size="10.00">CustomLoadBalancer</text>
<text xml:space="preserve" text-anchor="middle" x="73.25" y="-247" font-family="Helvetica,sans-Serif" font-size="10.00">::CustomLoadBalancer</text>
</a>
</g>
</g>
<!-- Node1&#45;&gt;Node3 -->
<g id="edge2_Node000001_Node000003" class="edge">
<title>Node1&#45;&gt;Node3</title>
<g id="a_edge2_Node000001_Node000003"><a xlink:title=" ">
<path fill="none" stroke="#63b8ff" d="M236.88,-165.87C216.51,-184.84 181.48,-214.98 146.5,-233.5 140.8,-236.52 134.63,-239.22 128.39,-241.63"/>
<polygon fill="#63b8ff" stroke="#63b8ff" points="239.21,-168.49 244.06,-159.07 234.4,-163.41 239.21,-168.49"/>
</a>
</g>
</g>
<!-- Node4 -->
<g id="Node000004" class="node">
<title>Node4</title>
<g id="a_Node000004"><a xlink:href="classHostImportantLoadBalancer.html#a968eb70ea9c0f8e2d0ac9257333b23ee" target="_top" xlink:title=" ">
<polygon fill="white" stroke="#666666" points="145.38,-224 1.12,-224 1.12,-195 145.38,-195 145.38,-224"/>
<text xml:space="preserve" text-anchor="start" x="9.12" y="-210.5" font-family="Helvetica,sans-Serif" font-size="10.00">HostImportantLoadBalancer</text>
<text xml:space="preserve" text-anchor="middle" x="73.25" y="-200" font-family="Helvetica,sans-Serif" font-size="10.00">::HostImportantLoadBalancer</text>
</a>
</g>
</g>
<!-- Node1&#45;&gt;Node4 -->
<g id="edge3_Node000001_Node000004" class="edge">
<title>Node1&#45;&gt;Node4</title>
<g id="a_edge3_Node000001_Node000004"><a xlink:title=" ">
<path fill="none" stroke="#63b8ff" d="M215.87,-161.88C195.27,-168.95 169.53,-177.74 146.5,-185.5 137.73,-188.45 128.36,-191.59 119.36,-194.58"/>
<polygon fill="#63b8ff" stroke="#63b8ff" points="216.98,-165.2 225.3,-158.64 214.71,-158.58 216.98,-165.2"/>
</a>
</g>
</g>
<!-- Node5 -->
<g id="Node000005" class="node">
<title>Node5</title>
<g id="a_Node000005"><a xlink:href="classILoadBalancer.html#a785a63a32bac78b2ed293e3165e24640" target="_top" xlink:title=" ">
<polygon fill="white" stroke="#666666" points="146.5,-176.75 0,-176.75 0,-158.25 146.5,-158.25 146.5,-176.75"/>
<text xml:space="preserve" text-anchor="middle" x="73.25" y="-163.25" font-family="Helvetica,sans-Serif" font-size="10.00">ILoadBalancer::ILoadBalancer</text>
</a>
</g>
</g>
<!-- Node1&#45;&gt;Node5 -->
<g id="edge4_Node000001_Node000005" class="edge">
<title>Node1&#45;&gt;Node5</title>
<g id="a_edge4_Node000001_Node000005"><a xlink:title=" ">
<path fill="none" stroke="#63b8ff" d="M170.81,-157.34C162.77,-158.18 154.66,-159.04 146.74,-159.87"/>
<polygon fill="#63b8ff" stroke="#63b8ff" points="171.03,-160.83 180.61,-156.3 170.3,-153.87 171.03,-160.83"/>
</a>
</g>
</g>
<!-- Node6 -->
<g id="Node000006" class="node">
<title>Node6</title>
<g id="a_Node000006"><a xlink:href="classILoadBalancer.html#a3c702bc154d71fece146e1857d27bf30" target="_top" xlink:title=" ">
<polygon fill="white" stroke="#666666" points="146.5,-139.75 0,-139.75 0,-121.25 146.5,-121.25 146.5,-139.75"/>
<text xml:space="preserve" text-anchor="middle" x="73.25" y="-126.25" font-family="Helvetica,sans-Serif" font-size="10.00">ILoadBalancer::ILoadBalancer</text>
</a>
</g>
</g>
<!-- Node1&#45;&gt;Node6 -->
<g id="edge5_Node000001_Node000006" class="edge">
<title>Node1&#45;&gt;Node6</title>
<g id="a_edge5_Node000001_Node000006"><a xlink:title=" ">
<path fill="none" stroke="#63b8ff" d="M170.81,-140.13C162.77,-139.33 154.66,-138.52 146.74,-137.73"/>
<polygon fill="#63b8ff" stroke="#63b8ff" points="170.31,-143.6 180.61,-141.11 171,-136.63 170.31,-143.6"/>
</a>
</g>
</g>
<!-- Node7 -->
<g id="Node000007" class="node">
<title>Node7</title>
<g id="a_Node000007"><a xlink:href="classILoadBalancer.html#a6c98abba439da620a0957093d84df382" target="_top" xlink:title=" ">
<polygon fill="white" stroke="#666666" points="136,-102.75 10.5,-102.75 10.5,-84.25 136,-84.25 136,-102.75"/>
<text xml:space="preserve" text-anchor="middle" x="73.25" y="-89.25" font-family="Helvetica,sans-Serif" font-size="10.00">ILoadBalancer::operator=</text>
</a>
</g>
</g>
<!-- Node1&#45;&gt;Node7 -->
<g id="edge6_Node000001_Node000007" class="edge">
<title>Node1&#45;&gt;Node7</title>
<g id="a_edge6_Node000001_Node000007"><a xlink:title=" ">
<path fill="none" stroke="#63b8ff" d="M216.46,-135.1C195.83,-128.05 169.89,-119.46 146.5,-112.5 135.68,-109.28 123.88,-106.06 113,-103.2"/>
<polygon fill="#63b8ff" stroke="#63b8ff" points="215.29,-138.4 225.89,-138.35 217.57,-131.78 215.29,-138.4"/>
</a>
</g>
</g>
<!-- Node8 -->
<g id="Node000008" class="node">
<title>Node8</title>
<g id="a_Node000008"><a xlink:href="classILoadBalancer.html#ab44f9a74d7cc9270aab6b5c0a4ad4e05" target="_top" xlink:title=" ">
<polygon fill="white" stroke="#666666" points="136,-65.75 10.5,-65.75 10.5,-47.25 136,-47.25 136,-65.75"/>
<text xml:space="preserve" text-anchor="middle" x="73.25" y="-52.25" font-family="Helvetica,sans-Serif" font-size="10.00">ILoadBalancer::operator=</text>
</a>
</g>
</g>
<!-- Node1&#45;&gt;Node8 -->
<g id="edge7_Node000001_Node000008" class="edge">
<title>Node1&#45;&gt;Node8</title>
<g id="a_edge7_Node000001_Node000008"><a xlink:title=" ">
<path fill="none" stroke="#63b8ff" d="M234.32,-131.62C213.44,-115.15 179.48,-90.43 146.5,-75.5 138.35,-71.81 129.34,-68.73 120.53,-66.19"/>
<polygon fill="#63b8ff" stroke="#63b8ff" points="232.04,-134.28 242.02,-137.81 236.42,-128.82 232.04,-134.28"/>
</a>
</g>
</g>
<!-- Node9 -->
<g id="Node000009" class="node">
<title>Node9</title>
<g id="a_Node000009"><a xlink:href="classUniformLoadBalancer.html#a1fed7b51f21c968e7b5120be870516ca" target="_top" xlink:title=" ">
<polygon fill="white" stroke="#666666" points="131.12,-29 15.38,-29 15.38,0 131.12,0 131.12,-29"/>
<text xml:space="preserve" text-anchor="start" x="23.38" y="-15.5" font-family="Helvetica,sans-Serif" font-size="10.00">UniformLoadBalancer</text>
<text xml:space="preserve" text-anchor="middle" x="73.25" y="-5" font-family="Helvetica,sans-Serif" font-size="10.00">::UniformLoadBalancer</text>
</a>
</g>
</g>
<!-- Node1&#45;&gt;Node9 -->
<g id="edge8_Node000001_Node000009" class="edge">
<title>Node1&#45;&gt;Node9</title>
<g id="a_edge8_Node000001_Node000009"><a xlink:title=" ">
<path fill="none" stroke="#63b8ff" d="M241.02,-129.84C222.23,-105.54 186.28,-63.28 146.5,-38.5 141,-35.08 134.96,-32.08 128.79,-29.48"/>
<polygon fill="#63b8ff" stroke="#63b8ff" points="238.03,-131.69 246.86,-137.55 243.62,-127.47 238.03,-131.69"/>
</a>
</g>
</g>
</g>
</svg>
