<?xml version="1.0" encoding="UTF-8" standalone="no"?>
<!DOCTYPE svg PUBLIC "-//W3C//DTD SVG 1.1//EN"
 "http://www.w3.org/Graphics/SVG/1.1/DTD/svg11.dtd">
<!-- Generated by graphviz version 14.0.1 (0)
 -->
<!-- Title: Simulation::ScalarSimulation::ScalarSimulation Pages: 1 -->
<!--zoomable 262 -->

<svg id="main" version="1.1" xmlns="http://www.w3.org/2000/svg" xmlns:xlink="http://www.w3.org/1999/xlink" xml:space="preserve" onload="init(evt)">

<style type="text/css"><![CDATA[
.node, .edge {opacity: 0.7;}
.node.selected, .edge.selected {opacity: 1;}
.edge:hover path { stroke: red; }
.edge:hover polygon { stroke: red; fill: red; }
]]></style>

<defs>
  <circle id="rim" cx="0" cy="0" r="7"/>
  <circle id="rim2" cx="0" cy="0" r="3.5"/>
  <g id="zoomPlus">
    <use xlink:href="#rim" fill="#404040"><set attributeName="fill" to="#808080" begin="zoomplus.mouseover" end="zoomplus.mouseout"/></use>
    <path d="M-4,0h8M0,-4v8" fill="none" stroke="white" stroke-width="1.5" pointer-events="none"/>
  </g>
  <g id="zoomMin">
    <use xlink:href="#rim" fill="#404040"><set attributeName="fill" to="#808080" begin="zoomminus.mouseover" end="zoomminus.mouseout"/></use>
    <path d="M-4,0h8" fill="none" stroke="white" stroke-width="1.5" pointer-events="none"/>
  </g>
  <g id="arrowUp" transform="translate(30 24)">
    <use xlink:href="#rim"/>
    <path pointer-events="none" fill="none" stroke="white" stroke-width="1.5" d="M0,-3.0v7 M-2.5,-0.5L0,-3.0L2.5,-0.5"/>
  </g>
  <g id="arrowRight" transform="rotate(90) translate(36 -43)">
    <use xlink:href="#rim"/>
    <path pointer-events="none" fill="none" stroke="white" stroke-width="1.5" d="M0,-3.0v7 M-2.5,-0.5L0,-3.0L2.5,-0.5"/>
  </g>
  <g id="arrowDown" transform="rotate(180) translate(-30 -48)">
    <use xlink:href="#rim"/>
    <path pointer-events="none" fill="none" stroke="white" stroke-width="1.5" d="M0,-3.0v7 M-2.5,-0.5L0,-3.0L2.5,-0.5"/>
  </g>
  <g id="arrowLeft" transform="rotate(270) translate(-36 17)">
    <use xlink:href="#rim"/>
    <path pointer-events="none" fill="none" stroke="white" stroke-width="1.5" d="M0,-3.0v7 M-2.5,-0.5L0,-3.0L2.5,-0.5"/>
  </g>
  <g id="resetDef">
    <use xlink:href="#rim2" fill="#404040"><set attributeName="fill" to="#808080" begin="reset.mouseover" end="reset.mouseout"/></use>
  </g>
</defs>
<script type="application/ecmascript">
var viewWidth = 527;
var viewHeight = 262;
var sectionId = 'dynsection-1';
</script>
<script type="application/ecmascript" xlink:href="svg.min.js"/>
<svg id="graph" class="graph">
<g id="viewport">
<title>Simulation::ScalarSimulation::ScalarSimulation</title>
<!-- Node1 -->
<g id="Node000001" class="node">
<title>Node1</title>
<g id="a_Node000001"><a xlink:title=" ">
<polygon fill="#999999" stroke="#666666" points="519,-146.62 377.75,-146.62 377.75,-117.62 519,-117.62 519,-146.62"/>
<text xml:space="preserve" text-anchor="start" x="385.75" y="-133.12" font-family="Helvetica,sans-Serif" font-size="10.00">Simulation::ScalarSimulation</text>
<text xml:space="preserve" text-anchor="middle" x="448.38" y="-122.62" font-family="Helvetica,sans-Serif" font-size="10.00">::ScalarSimulation</text>
</a>
</g>
</g>
<!-- Node2 -->
<g id="Node000002" class="node">
<title>Node2</title>
<g id="a_Node000002"><a xlink:href="namespaceSimulation.html#ae5bb8948e2a0bb4f4aef277baf4c0dff" target="_top" xlink:title=" ">
<polygon fill="white" stroke="#666666" points="341.75,-254.37 177.25,-254.37 177.25,-235.87 341.75,-235.87 341.75,-254.37"/>
<text xml:space="preserve" text-anchor="middle" x="259.5" y="-240.87" font-family="Helvetica,sans-Serif" font-size="10.00">Simulation::makeScalarSimulation</text>
</a>
</g>
</g>
<!-- Node1&#45;&gt;Node2 -->
<g id="edge1_Node000001_Node000002" class="edge">
<title>Node1&#45;&gt;Node2</title>
<g id="a_edge1_Node000001_Node000002"><a xlink:title=" ">
<path fill="none" stroke="#63b8ff" d="M428.1,-155.31C408.6,-177.2 376.44,-209.27 341.75,-227.12 335.2,-230.49 328.03,-233.24 320.76,-235.47"/>
<polygon fill="#63b8ff" stroke="#63b8ff" points="430.5,-157.88 434.42,-148.04 425.21,-153.29 430.5,-157.88"/>
</a>
</g>
</g>
<!-- Node3 -->
<g id="Node000003" class="node">
<title>Node3</title>
<g id="a_Node000003"><a xlink:href="classSimulation_1_1ScalarSimulation.html#a1b2df58cd259dcfc833a28fb41523483" target="_top" xlink:title=" ">
<polygon fill="white" stroke="#666666" points="330.12,-217.62 188.88,-217.62 188.88,-188.62 330.12,-188.62 330.12,-217.62"/>
<text xml:space="preserve" text-anchor="start" x="196.88" y="-204.12" font-family="Helvetica,sans-Serif" font-size="10.00">Simulation::ScalarSimulation</text>
<text xml:space="preserve" text-anchor="middle" x="259.5" y="-193.62" font-family="Helvetica,sans-Serif" font-size="10.00">::operator=</text>
</a>
</g>
</g>
<!-- Node1&#45;&gt;Node3 -->
<g id="edge2_Node000001_Node000003" class="edge">
<title>Node1&#45;&gt;Node3</title>
<g id="a_edge2_Node000001_Node000003"><a xlink:title=" ">
<path fill="none" stroke="#63b8ff" d="M407.48,-151.97C387.96,-161.24 363.93,-172 341.75,-180.12 333.9,-183 325.52,-185.73 317.24,-188.25"/>
<polygon fill="#63b8ff" stroke="#63b8ff" points="408.97,-155.14 416.46,-147.66 405.93,-148.83 408.97,-155.14"/>
</a>
</g>
</g>
<!-- Node4 -->
<g id="Node000004" class="node">
<title>Node4</title>
<g id="a_Node000004"><a xlink:href="classSimulation_1_1ScalarSimulation.html#ad8d40e9ca3fdb498000508921375457b" target="_top" xlink:title=" ">
<polygon fill="white" stroke="#666666" points="330.12,-170.62 188.88,-170.62 188.88,-141.62 330.12,-141.62 330.12,-170.62"/>
<text xml:space="preserve" text-anchor="start" x="196.88" y="-157.12" font-family="Helvetica,sans-Serif" font-size="10.00">Simulation::ScalarSimulation</text>
<text xml:space="preserve" text-anchor="middle" x="259.5" y="-146.62" font-family="Helvetica,sans-Serif" font-size="10.00">::operator=</text>
</a>
</g>
</g>
<!-- Node1&#45;&gt;Node4 -->
<g id="edge3_Node000001_Node000004" class="edge">
<title>Node1&#45;&gt;Node4</title>
<g id="a_edge3_Node000001_Node000004"><a xlink:title=" ">
<path fill="none" stroke="#63b8ff" d="M365.99,-142.57C354.13,-144.1 342,-145.66 330.39,-147.15"/>
<polygon fill="#63b8ff" stroke="#63b8ff" points="366.28,-146.07 375.76,-141.32 365.39,-139.12 366.28,-146.07"/>
</a>
</g>
</g>
<!-- Node5 -->
<g id="Node000005" class="node">
<title>Node5</title>
<g id="a_Node000005"><a xlink:href="classSimulation_1_1ScalarSimulation.html#a5608de40ed00444c146a71642f882473" target="_top" xlink:title=" ">
<polygon fill="white" stroke="#666666" points="330.12,-123.62 188.88,-123.62 188.88,-94.62 330.12,-94.62 330.12,-123.62"/>
<text xml:space="preserve" text-anchor="start" x="196.88" y="-110.12" font-family="Helvetica,sans-Serif" font-size="10.00">Simulation::ScalarSimulation</text>
<text xml:space="preserve" text-anchor="middle" x="259.5" y="-99.62" font-family="Helvetica,sans-Serif" font-size="10.00">::ScalarSimulation</text>
</a>
</g>
</g>
<!-- Node1&#45;&gt;Node5 -->
<g id="edge4_Node000001_Node000005" class="edge">
<title>Node1&#45;&gt;Node5</title>
<g id="a_edge4_Node000001_Node000005"><a xlink:title=" ">
<path fill="none" stroke="#63b8ff" d="M365.99,-122.11C354.13,-120.65 342,-119.15 330.39,-117.72"/>
<polygon fill="#63b8ff" stroke="#63b8ff" points="365.4,-125.56 375.76,-123.31 366.26,-118.61 365.4,-125.56"/>
</a>
</g>
</g>
<!-- Node6 -->
<g id="Node000006" class="node">
<title>Node6</title>
<g id="a_Node000006"><a xlink:href="classSimulation_1_1ScalarSimulation.html#a7e8619d54c7d6a06851b13c92a81953b" target="_top" xlink:title=" ">
<polygon fill="white" stroke="#666666" points="330.12,-58.62 188.88,-58.62 188.88,-29.62 330.12,-29.62 330.12,-58.62"/>
<text xml:space="preserve" text-anchor="start" x="196.88" y="-45.12" font-family="Helvetica,sans-Serif" font-size="10.00">Simulation::ScalarSimulation</text>
<text xml:space="preserve" text-anchor="middle" x="259.5" y="-34.62" font-family="Helvetica,sans-Serif" font-size="10.00">::volume_at</text>
</a>
</g>
</g>
<!-- Node1&#45;&gt;Node6 -->
<g id="edge5_Node000001_Node000006" class="edge">
<title>Node1&#45;&gt;Node6</title>
<g id="a_edge5_Node000001_Node000006"><a xlink:title=" ">
<path fill="none" stroke="#63b8ff" d="M405.48,-112.39C371.12,-96.21 323.22,-73.66 292.04,-58.98"/>
<polygon fill="#63b8ff" stroke="#63b8ff" points="403.77,-115.46 414.3,-116.55 406.75,-109.12 403.77,-115.46"/>
</a>
</g>
</g>
<!-- Node7 -->
<g id="Node000007" class="node">
<title>Node7</title>
<g id="a_Node000007"><a xlink:href="classSimulation_1_1ScalarSimulation.html#a9721b2cf4617bf55c133b7b1527a8879" target="_top" xlink:title=" ">
<polygon fill="white" stroke="#666666" points="141.25,-36.62 0,-36.62 0,-7.62 141.25,-7.62 141.25,-36.62"/>
<text xml:space="preserve" text-anchor="start" x="8" y="-23.12" font-family="Helvetica,sans-Serif" font-size="10.00">Simulation::ScalarSimulation</text>
<text xml:space="preserve" text-anchor="middle" x="70.62" y="-12.62" font-family="Helvetica,sans-Serif" font-size="10.00">::~ScalarSimulation</text>
</a>
</g>
</g>
<!-- Node1&#45;&gt;Node7 -->
<g id="edge8_Node000001_Node000007" class="edge">
<title>Node1&#45;&gt;Node7</title>
<g id="a_edge8_Node000001_Node000007"><a xlink:title=" ">
<path fill="none" stroke="#63b8ff" d="M432.94,-107.84C415.32,-80.83 382.72,-38.69 341.75,-21.12 277.96,6.23 197.64,1.62 141.23,-7.13"/>
<polygon fill="#63b8ff" stroke="#63b8ff" points="429.85,-109.49 438.14,-116.08 435.77,-105.76 429.85,-109.49"/>
</a>
</g>
</g>
<!-- Node6&#45;&gt;Node6 -->
<g id="edge6_Node000006_Node000006" class="edge">
<title>Node6&#45;&gt;Node6</title>
<g id="a_edge6_Node000006_Node000006"><a xlink:title=" ">
<path fill="none" stroke="#63b8ff" d="M291.56,-70.19C286.53,-74.03 275.84,-76.62 259.5,-76.62 229.62,-76.62 218.65,-67.95 226.58,-58.83"/>
<polygon fill="#63b8ff" stroke="#63b8ff" points="295.04,-70.57 292.3,-60.34 288.06,-70.05 295.04,-70.57"/>
</a>
</g>
</g>
<!-- Node6&#45;&gt;Node7 -->
<g id="edge7_Node000006_Node000007" class="edge">
<title>Node6&#45;&gt;Node7</title>
<g id="a_edge7_Node000006_Node000007"><a xlink:title=" ">
<path fill="none" stroke="#63b8ff" d="M177.11,-34.54C165.25,-33.14 153.12,-31.72 141.51,-30.35"/>
<polygon fill="#63b8ff" stroke="#63b8ff" points="176.54,-38 186.88,-35.69 177.36,-31.05 176.54,-38"/>
</a>
</g>
</g>
</g>
</svg>

<g id="navigator" transform="translate(0 0)" fill="#404254">
  <rect fill="#f2f5e9" fill-opacity="0.5" stroke="#606060" stroke-width=".5" x="0" y="0" width="60" height="60"/>
  <use id="zoomplus" xlink:href="#zoomPlus" x="17" y="9" onmousedown="handleZoom(evt,'in')"/>
  <use id="zoomminus" xlink:href="#zoomMin" x="42" y="9" onmousedown="handleZoom(evt,'out')"/>
  <use id="reset" xlink:href="#resetDef" x="30" y="36" onmousedown="handleReset()"/>
   <use id="arrowup" xlink:href="#arrowUp" x="0" y="0" onmousedown="handlePan(0,-1)"/>
  <use id="arrowright" xlink:href="#arrowRight" x="0" y="0" onmousedown="handlePan(1,0)"/>
  <use id="arrowdown" xlink:href="#arrowDown" x="0" y="0" onmousedown="handlePan(0,1)"/>
  <use id="arrowleft" xlink:href="#arrowLeft" x="0" y="0" onmousedown="handlePan(-1,0)"/>
</g>
<svg viewBox="0 0 15 15" width="100%" height="30px" preserveAspectRatio="xMaxYMin meet">
 <g id="arrow_out" transform="scale(0.3 0.3)">
  <a xlink:href="classSimulation_1_1ScalarSimulation_ac3cdfc29cde1cb96d8e7dd2e0cfdcacc_icgraph_org.svg" target="_base">
   <rect id="button" ry="5" rx="5" y="6" x="6" height="38" width="38"
        fill="#f2f5e9" fill-opacity="0.5" stroke="#606060" stroke-width="1.0"/>
   <path id="arrow"
     d="M 11.500037,31.436501 C 11.940474,20.09759 22.043105,11.32322 32.158766,21.979434 L 37.068811,17.246167 C 37.068811,17.246167 37.088388,32 37.088388,32 L 22.160133,31.978069 C 22.160133,31.978069 26.997745,27.140456 26.997745,27.140456 C 18.528582,18.264221 13.291696,25.230495 11.500037,31.436501 z"
     style="fill:#404040;"/>
  </a>
 </g>
</svg>

<style type='text/css'>
<![CDATA[
[data-mouse-over-selected='false'] { opacity: 0.7; }
[data-mouse-over-selected='true']  { opacity: 1.0; }
]]>
</style>
<script type="application/ecmascript"><![CDATA[
document.addEventListener('DOMContentLoaded', (event) => {
  highlightEdges();
  highlightAdjacentNodes();
});
]]></script>
</svg>
