<?xml version="1.0" encoding="UTF-8" standalone="no"?>
<!DOCTYPE svg PUBLIC "-//W3C//DTD SVG 1.1//EN"
 "http://www.w3.org/Graphics/SVG/1.1/DTD/svg11.dtd">
<!-- Generated by graphviz version 14.0.1 (0)
 -->
<!-- Title: MC::ParticlesContainer::_resize Pages: 1 -->
<!--zoomable 311 -->

<svg id="main" version="1.1" xmlns="http://www.w3.org/2000/svg" xmlns:xlink="http://www.w3.org/1999/xlink" xml:space="preserve" onload="init(evt)">

<style type="text/css"><![CDATA[
.node, .edge {opacity: 0.7;}
.node.selected, .edge.selected {opacity: 1;}
.edge:hover path { stroke: red; }
.edge:hover polygon { stroke: red; fill: red; }
]]></style>

<defs>
  <circle id="rim" cx="0" cy="0" r="7"/>
  <circle id="rim2" cx="0" cy="0" r="3.5"/>
  <g id="zoomPlus">
    <use xlink:href="#rim" fill="#404040"><set attributeName="fill" to="#808080" begin="zoomplus.mouseover" end="zoomplus.mouseout"/></use>
    <path d="M-4,0h8M0,-4v8" fill="none" stroke="white" stroke-width="1.5" pointer-events="none"/>
  </g>
  <g id="zoomMin">
    <use xlink:href="#rim" fill="#404040"><set attributeName="fill" to="#808080" begin="zoomminus.mouseover" end="zoomminus.mouseout"/></use>
    <path d="M-4,0h8" fill="none" stroke="white" stroke-width="1.5" pointer-events="none"/>
  </g>
  <g id="arrowUp" transform="translate(30 24)">
    <use xlink:href="#rim"/>
    <path pointer-events="none" fill="none" stroke="white" stroke-width="1.5" d="M0,-3.0v7 M-2.5,-0.5L0,-3.0L2.5,-0.5"/>
  </g>
  <g id="arrowRight" transform="rotate(90) translate(36 -43)">
    <use xlink:href="#rim"/>
    <path pointer-events="none" fill="none" stroke="white" stroke-width="1.5" d="M0,-3.0v7 M-2.5,-0.5L0,-3.0L2.5,-0.5"/>
  </g>
  <g id="arrowDown" transform="rotate(180) translate(-30 -48)">
    <use xlink:href="#rim"/>
    <path pointer-events="none" fill="none" stroke="white" stroke-width="1.5" d="M0,-3.0v7 M-2.5,-0.5L0,-3.0L2.5,-0.5"/>
  </g>
  <g id="arrowLeft" transform="rotate(270) translate(-36 17)">
    <use xlink:href="#rim"/>
    <path pointer-events="none" fill="none" stroke="white" stroke-width="1.5" d="M0,-3.0v7 M-2.5,-0.5L0,-3.0L2.5,-0.5"/>
  </g>
  <g id="resetDef">
    <use xlink:href="#rim2" fill="#404040"><set attributeName="fill" to="#808080" begin="reset.mouseover" end="reset.mouseout"/></use>
  </g>
</defs>
<script type="application/ecmascript">
var viewWidth = 780;
var viewHeight = 311;
var sectionId = 'dynsection-5';
</script>
<script type="application/ecmascript" xlink:href="svg.min.js"/>
<svg id="graph" class="graph">
<g id="viewport">
<title>MC::ParticlesContainer::_resize</title>
<!-- Node1 -->
<g id="Node000001" class="node">
<title>Node1</title>
<g id="a_Node000001"><a xlink:title=" ">
<polygon fill="#999999" stroke="#666666" points="771.5,-211 652.75,-211 652.75,-182 771.5,-182 771.5,-211"/>
<text xml:space="preserve" text-anchor="start" x="660.75" y="-197.5" font-family="Helvetica,sans-Serif" font-size="10.00">MC::ParticlesContainer</text>
<text xml:space="preserve" text-anchor="middle" x="712.12" y="-187" font-family="Helvetica,sans-Serif" font-size="10.00">::_resize</text>
</a>
</g>
</g>
<!-- Node2 -->
<g id="Node000002" class="node">
<title>Node2</title>
<g id="a_Node000002"><a xlink:href="classMC_1_1ParticlesContainer.html#acca450f3c529a6e6962d76f8f39011e8" target="_top" xlink:title=" ">
<polygon fill="white" stroke="#666666" points="616.75,-258 498,-258 498,-229 616.75,-229 616.75,-258"/>
<text xml:space="preserve" text-anchor="start" x="506" y="-244.5" font-family="Helvetica,sans-Serif" font-size="10.00">MC::ParticlesContainer</text>
<text xml:space="preserve" text-anchor="middle" x="557.38" y="-234" font-family="Helvetica,sans-Serif" font-size="10.00">::clean_dead</text>
</a>
</g>
</g>
<!-- Node1&#45;&gt;Node2 -->
<g id="edge1_Node000001_Node000002" class="edge">
<title>Node1&#45;&gt;Node2</title>
<g id="a_edge1_Node000001_Node000002"><a xlink:title=" ">
<path fill="none" stroke="#63b8ff" d="M652.11,-214.66C637.16,-219.26 621.28,-224.14 606.92,-228.56"/>
<polygon fill="#63b8ff" stroke="#63b8ff" points="652.82,-218.1 661.35,-211.82 650.76,-211.41 652.82,-218.1"/>
</a>
</g>
</g>
<!-- Node8 -->
<g id="Node000008" class="node">
<title>Node8</title>
<g id="a_Node000008"><a xlink:href="classMC_1_1ParticlesContainer.html#a8e95993fb1287c04427780d6372be565" target="_top" xlink:title=" ">
<polygon fill="white" stroke="#666666" points="616.75,-211 498,-211 498,-182 616.75,-182 616.75,-211"/>
<text xml:space="preserve" text-anchor="start" x="506" y="-197.5" font-family="Helvetica,sans-Serif" font-size="10.00">MC::ParticlesContainer</text>
<text xml:space="preserve" text-anchor="middle" x="557.38" y="-187" font-family="Helvetica,sans-Serif" font-size="10.00">::merge_buffer</text>
</a>
</g>
</g>
<!-- Node1&#45;&gt;Node8 -->
<g id="edge7_Node000001_Node000008" class="edge">
<title>Node1&#45;&gt;Node8</title>
<g id="a_edge7_Node000001_Node000008"><a xlink:title=" ">
<path fill="none" stroke="#63b8ff" d="M641.21,-196.5C633.14,-196.5 624.98,-196.5 617.09,-196.5"/>
<polygon fill="#63b8ff" stroke="#63b8ff" points="640.99,-200 650.99,-196.5 640.99,-193 640.99,-200"/>
</a>
</g>
</g>
<!-- Node9 -->
<g id="Node000009" class="node">
<title>Node9</title>
<g id="a_Node000009"><a xlink:href="classMC_1_1ParticlesContainer.html#a9fa7f315c1a2245124142e8af60d42cc" target="_top" xlink:title=" ">
<polygon fill="white" stroke="#666666" points="616.75,-123 498,-123 498,-94 616.75,-94 616.75,-123"/>
<text xml:space="preserve" text-anchor="start" x="506" y="-109.5" font-family="Helvetica,sans-Serif" font-size="10.00">MC::ParticlesContainer</text>
<text xml:space="preserve" text-anchor="middle" x="557.38" y="-99" font-family="Helvetica,sans-Serif" font-size="10.00">::ParticlesContainer</text>
</a>
</g>
</g>
<!-- Node1&#45;&gt;Node9 -->
<g id="edge9_Node000001_Node000009" class="edge">
<title>Node1&#45;&gt;Node9</title>
<g id="a_edge9_Node000001_Node000009"><a xlink:title=" ">
<path fill="none" stroke="#63b8ff" d="M675.42,-175.93C647.45,-159.82 609.21,-137.78 584.16,-123.35"/>
<polygon fill="#63b8ff" stroke="#63b8ff" points="673.49,-178.86 683.9,-180.82 676.98,-172.79 673.49,-178.86"/>
</a>
</g>
</g>
<!-- Node3 -->
<g id="Node000003" class="node">
<title>Node3</title>
<g id="a_Node000003"><a xlink:href="classMC_1_1ParticlesContainer.html#a25d64f06c6f66817bc15bac225369a63" target="_top" xlink:title=" ">
<polygon fill="white" stroke="#666666" points="457.88,-303 339.12,-303 339.12,-274 457.88,-274 457.88,-303"/>
<text xml:space="preserve" text-anchor="start" x="347.12" y="-289.5" font-family="Helvetica,sans-Serif" font-size="10.00">MC::ParticlesContainer</text>
<text xml:space="preserve" text-anchor="middle" x="398.5" y="-279" font-family="Helvetica,sans-Serif" font-size="10.00">::force_remove_dead</text>
</a>
</g>
</g>
<!-- Node2&#45;&gt;Node3 -->
<g id="edge2_Node000002_Node000003" class="edge">
<title>Node2&#45;&gt;Node3</title>
<g id="a_edge2_Node000002_Node000003"><a xlink:title=" ">
<path fill="none" stroke="#63b8ff" d="M493.27,-261.6C479.5,-265.55 465.07,-269.69 451.78,-273.5"/>
<polygon fill="#63b8ff" stroke="#63b8ff" points="494.04,-265.02 502.68,-258.9 492.11,-258.29 494.04,-265.02"/>
</a>
</g>
</g>
<!-- Node5 -->
<g id="Node000005" class="node">
<title>Node5</title>
<g id="a_Node000005"><a xlink:href="classMC_1_1ParticlesContainer.html#a3caab0990a6f03d2c06d3a67858f8c30" target="_top" xlink:title=" ">
<polygon fill="white" stroke="#666666" points="462,-256 335,-256 335,-227 462,-227 462,-256"/>
<text xml:space="preserve" text-anchor="start" x="343" y="-242.5" font-family="Helvetica,sans-Serif" font-size="10.00">MC::ParticlesContainer</text>
<text xml:space="preserve" text-anchor="middle" x="398.5" y="-232" font-family="Helvetica,sans-Serif" font-size="10.00">::update_and_clean_dead</text>
</a>
</g>
</g>
<!-- Node2&#45;&gt;Node5 -->
<g id="edge4_Node000002_Node000005" class="edge">
<title>Node2&#45;&gt;Node5</title>
<g id="a_edge4_Node000002_Node000005"><a xlink:title=" ">
<path fill="none" stroke="#63b8ff" d="M486.06,-242.6C478.17,-242.5 470.16,-242.4 462.36,-242.3"/>
<polygon fill="#63b8ff" stroke="#63b8ff" points="485.96,-246.1 496,-242.73 486.05,-239.1 485.96,-246.1"/>
</a>
</g>
</g>
<!-- Node4 -->
<g id="Node000004" class="node">
<title>Node4</title>
<g id="a_Node000004"><a xlink:href="namespacePostProcessing.html#a942419cfbff3ce0870cf761062263ddf" target="_top" xlink:title=" ">
<polygon fill="white" stroke="#666666" points="285.5,-303 181,-303 181,-274 285.5,-274 285.5,-303"/>
<text xml:space="preserve" text-anchor="start" x="189" y="-289.5" font-family="Helvetica,sans-Serif" font-size="10.00">PostProcessing::get</text>
<text xml:space="preserve" text-anchor="middle" x="233.25" y="-279" font-family="Helvetica,sans-Serif" font-size="10.00">_properties</text>
</a>
</g>
</g>
<!-- Node3&#45;&gt;Node4 -->
<g id="edge3_Node000003_Node000004" class="edge">
<title>Node3&#45;&gt;Node4</title>
<g id="a_edge3_Node000003_Node000004"><a xlink:title=" ">
<path fill="none" stroke="#63b8ff" d="M327.85,-288.5C313.75,-288.5 299.16,-288.5 285.82,-288.5"/>
<polygon fill="#63b8ff" stroke="#63b8ff" points="327.51,-292 337.51,-288.5 327.51,-285 327.51,-292"/>
</a>
</g>
</g>
<!-- Node6 -->
<g id="Node000006" class="node">
<title>Node6</title>
<g id="a_Node000006"><a xlink:href="classSimulation_1_1SimulationUnit.html#ac3c769522d65eee17433bb67e4f19dc3" target="_top" xlink:title=" ">
<polygon fill="white" stroke="#666666" points="299,-235 167.5,-235 167.5,-206 299,-206 299,-235"/>
<text xml:space="preserve" text-anchor="start" x="175.5" y="-221.5" font-family="Helvetica,sans-Serif" font-size="10.00">Simulation::SimulationUnit</text>
<text xml:space="preserve" text-anchor="middle" x="233.25" y="-211" font-family="Helvetica,sans-Serif" font-size="10.00">::post_cycle</text>
</a>
</g>
</g>
<!-- Node5&#45;&gt;Node6 -->
<g id="edge5_Node000005_Node000006" class="edge">
<title>Node5&#45;&gt;Node6</title>
<g id="a_edge5_Node000005_Node000006"><a xlink:title=" ">
<path fill="none" stroke="#63b8ff" d="M323.57,-231.99C315.52,-230.95 307.37,-229.91 299.44,-228.89"/>
<polygon fill="#63b8ff" stroke="#63b8ff" points="322.98,-235.44 333.35,-233.25 323.88,-228.5 322.98,-235.44"/>
</a>
</g>
</g>
<!-- Node7 -->
<g id="Node000007" class="node">
<title>Node7</title>
<g id="a_Node000007"><a xlink:href="classSimulation_1_1SimulationUnit.html#a7b49fd171d4de8aa3949738da6c3810f" target="_top" xlink:title=" ">
<polygon fill="white" stroke="#666666" points="131.5,-235 0,-235 0,-206 131.5,-206 131.5,-235"/>
<text xml:space="preserve" text-anchor="start" x="8" y="-221.5" font-family="Helvetica,sans-Serif" font-size="10.00">Simulation::SimulationUnit</text>
<text xml:space="preserve" text-anchor="middle" x="65.75" y="-211" font-family="Helvetica,sans-Serif" font-size="10.00">::cycleProcess</text>
</a>
</g>
</g>
<!-- Node6&#45;&gt;Node7 -->
<g id="edge6_Node000006_Node000007" class="edge">
<title>Node6&#45;&gt;Node7</title>
<g id="a_edge6_Node000006_Node000007"><a xlink:title=" ">
<path fill="none" stroke="#63b8ff" d="M155.97,-220.5C147.88,-220.5 139.71,-220.5 131.77,-220.5"/>
<polygon fill="#63b8ff" stroke="#63b8ff" points="155.8,-224 165.8,-220.5 155.8,-217 155.8,-224"/>
</a>
</g>
</g>
<!-- Node8&#45;&gt;Node6 -->
<g id="edge8_Node000008_Node000006" class="edge">
<title>Node8&#45;&gt;Node6</title>
<g id="a_edge8_Node000008_Node000006"><a xlink:title=" ">
<path fill="none" stroke="#63b8ff" d="M486.51,-201.71C430.94,-205.85 353.79,-211.59 299.48,-215.64"/>
<polygon fill="#63b8ff" stroke="#63b8ff" points="486.45,-205.22 496.16,-200.99 485.93,-198.24 486.45,-205.22"/>
</a>
</g>
</g>
<!-- Node10 -->
<g id="Node000010" class="node">
<title>Node10</title>
<g id="a_Node000010"><a xlink:href="classMC_1_1ParticlesContainer.html#ad499de971fbe1a2cf3e1adbe2bb151d6" target="_top" xlink:title=" ">
<polygon fill="white" stroke="#666666" points="457.88,-170 339.12,-170 339.12,-141 457.88,-141 457.88,-170"/>
<text xml:space="preserve" text-anchor="start" x="347.12" y="-156.5" font-family="Helvetica,sans-Serif" font-size="10.00">MC::ParticlesContainer</text>
<text xml:space="preserve" text-anchor="middle" x="398.5" y="-146" font-family="Helvetica,sans-Serif" font-size="10.00">::operator=</text>
</a>
</g>
</g>
<!-- Node9&#45;&gt;Node10 -->
<g id="edge10_Node000009_Node000010" class="edge">
<title>Node9&#45;&gt;Node10</title>
<g id="a_edge10_Node000009_Node000010"><a xlink:title=" ">
<path fill="none" stroke="#63b8ff" d="M495.77,-126.66C480.42,-131.26 464.1,-136.14 449.35,-140.56"/>
<polygon fill="#63b8ff" stroke="#63b8ff" points="496.71,-130.03 505.29,-123.81 494.71,-123.32 496.71,-130.03"/>
</a>
</g>
</g>
<!-- Node11 -->
<g id="Node000011" class="node">
<title>Node11</title>
<g id="a_Node000011"><a xlink:href="classMC_1_1ParticlesContainer.html#a5d93b87f5a6e18c449e0ed62333e9d6e" target="_top" xlink:title=" ">
<polygon fill="white" stroke="#666666" points="457.88,-123 339.12,-123 339.12,-94 457.88,-94 457.88,-123"/>
<text xml:space="preserve" text-anchor="start" x="347.12" y="-109.5" font-family="Helvetica,sans-Serif" font-size="10.00">MC::ParticlesContainer</text>
<text xml:space="preserve" text-anchor="middle" x="398.5" y="-99" font-family="Helvetica,sans-Serif" font-size="10.00">::operator=</text>
</a>
</g>
</g>
<!-- Node9&#45;&gt;Node11 -->
<g id="edge11_Node000009_Node000011" class="edge">
<title>Node9&#45;&gt;Node11</title>
<g id="a_edge11_Node000009_Node000011"><a xlink:title=" ">
<path fill="none" stroke="#63b8ff" d="M486.2,-108.5C476.84,-108.5 467.31,-108.5 458.17,-108.5"/>
<polygon fill="#63b8ff" stroke="#63b8ff" points="486,-112 496,-108.5 486,-105 486,-112"/>
</a>
</g>
</g>
<!-- Node12 -->
<g id="Node000012" class="node">
<title>Node12</title>
<g id="a_Node000012"><a xlink:href="classMC_1_1ParticlesContainer.html#adacba063d362632ca0899bae750b628a" target="_top" xlink:title="Default copy and move constructors and assignment operators.">
<polygon fill="white" stroke="#666666" points="457.88,-76 339.12,-76 339.12,-47 457.88,-47 457.88,-76"/>
<text xml:space="preserve" text-anchor="start" x="347.12" y="-62.5" font-family="Helvetica,sans-Serif" font-size="10.00">MC::ParticlesContainer</text>
<text xml:space="preserve" text-anchor="middle" x="398.5" y="-52" font-family="Helvetica,sans-Serif" font-size="10.00">::ParticlesContainer</text>
</a>
</g>
</g>
<!-- Node9&#45;&gt;Node12 -->
<g id="edge12_Node000009_Node000012" class="edge">
<title>Node9&#45;&gt;Node12</title>
<g id="a_edge12_Node000009_Node000012"><a xlink:title=" ">
<path fill="none" stroke="#63b8ff" d="M495.77,-90.34C480.42,-85.74 464.1,-80.86 449.35,-76.44"/>
<polygon fill="#63b8ff" stroke="#63b8ff" points="494.71,-93.68 505.29,-93.19 496.71,-86.97 494.71,-93.68"/>
</a>
</g>
</g>
<!-- Node13 -->
<g id="Node000013" class="node">
<title>Node13</title>
<g id="a_Node000013"><a xlink:href="classMC_1_1ParticlesContainer.html#ae0cd8cf83c2728db495167ec2f10d80a" target="_top" xlink:title=" ">
<polygon fill="white" stroke="#666666" points="457.88,-29 339.12,-29 339.12,0 457.88,0 457.88,-29"/>
<text xml:space="preserve" text-anchor="start" x="347.12" y="-15.5" font-family="Helvetica,sans-Serif" font-size="10.00">MC::ParticlesContainer</text>
<text xml:space="preserve" text-anchor="middle" x="398.5" y="-5" font-family="Helvetica,sans-Serif" font-size="10.00">::ParticlesContainer</text>
</a>
</g>
</g>
<!-- Node9&#45;&gt;Node13 -->
<g id="edge13_Node000009_Node000013" class="edge">
<title>Node9&#45;&gt;Node13</title>
<g id="a_edge13_Node000009_Node000013"><a xlink:title=" ">
<path fill="none" stroke="#63b8ff" d="M530.41,-86.22C512.15,-71.33 486.66,-52.05 462,-38.5 455.99,-35.2 449.43,-32.14 442.89,-29.4"/>
<polygon fill="#63b8ff" stroke="#63b8ff" points="528.16,-88.9 538.1,-92.59 532.63,-83.51 528.16,-88.9"/>
</a>
</g>
</g>
</g>
</svg>

<g id="navigator" transform="translate(0 0)" fill="#404254">
  <rect fill="#f2f5e9" fill-opacity="0.5" stroke="#606060" stroke-width=".5" x="0" y="0" width="60" height="60"/>
  <use id="zoomplus" xlink:href="#zoomPlus" x="17" y="9" onmousedown="handleZoom(evt,'in')"/>
  <use id="zoomminus" xlink:href="#zoomMin" x="42" y="9" onmousedown="handleZoom(evt,'out')"/>
  <use id="reset" xlink:href="#resetDef" x="30" y="36" onmousedown="handleReset()"/>
   <use id="arrowup" xlink:href="#arrowUp" x="0" y="0" onmousedown="handlePan(0,-1)"/>
  <use id="arrowright" xlink:href="#arrowRight" x="0" y="0" onmousedown="handlePan(1,0)"/>
  <use id="arrowdown" xlink:href="#arrowDown" x="0" y="0" onmousedown="handlePan(0,1)"/>
  <use id="arrowleft" xlink:href="#arrowLeft" x="0" y="0" onmousedown="handlePan(-1,0)"/>
</g>
<svg viewBox="0 0 15 15" width="100%" height="30px" preserveAspectRatio="xMaxYMin meet">
 <g id="arrow_out" transform="scale(0.3 0.3)">
  <a xlink:href="classMC_1_1ParticlesContainer_a4fc94ae525191a5d034dce4866986c1e_icgraph_org.svg" target="_base">
   <rect id="button" ry="5" rx="5" y="6" x="6" height="38" width="38"
        fill="#f2f5e9" fill-opacity="0.5" stroke="#606060" stroke-width="1.0"/>
   <path id="arrow"
     d="M 11.500037,31.436501 C 11.940474,20.09759 22.043105,11.32322 32.158766,21.979434 L 37.068811,17.246167 C 37.068811,17.246167 37.088388,32 37.088388,32 L 22.160133,31.978069 C 22.160133,31.978069 26.997745,27.140456 26.997745,27.140456 C 18.528582,18.264221 13.291696,25.230495 11.500037,31.436501 z"
     style="fill:#404040;"/>
  </a>
 </g>
</svg>

<style type='text/css'>
<![CDATA[
[data-mouse-over-selected='false'] { opacity: 0.7; }
[data-mouse-over-selected='true']  { opacity: 1.0; }
]]>
</style>
<script type="application/ecmascript"><![CDATA[
document.addEventListener('DOMContentLoaded', (event) => {
  highlightEdges();
  highlightAdjacentNodes();
});
]]></script>
</svg>
