<?xml version="1.0" encoding="UTF-8" standalone="no"?>
<!DOCTYPE svg PUBLIC "-//W3C//DTD SVG 1.1//EN"
 "http://www.w3.org/Graphics/SVG/1.1/DTD/svg11.dtd">
<!-- Generated by graphviz version 14.0.1 (0)
 -->
<!-- Title: Core::PartialExporter::init_fields Pages: 1 -->
<svg width="254pt" height="92pt"
 viewBox="0.00 0.00 254.00 92.00" xmlns="http://www.w3.org/2000/svg" xmlns:xlink="http://www.w3.org/1999/xlink">
<g id="graph0" class="graph" transform="scale(1 1) rotate(0) translate(4 87.75)">
<title>Core::PartialExporter::init_fields</title>
<!-- Node1 -->
<g id="Node000001" class="node">
<title>Node1</title>
<g id="a_Node000001"><a xlink:title="Initializes the fields required for exporting data.">
<polygon fill="#999999" stroke="#666666" points="109,-50 0,-50 0,-21 109,-21 109,-50"/>
<text xml:space="preserve" text-anchor="start" x="8" y="-36.5" font-family="Helvetica,sans-Serif" font-size="10.00">Core::PartialExporter</text>
<text xml:space="preserve" text-anchor="middle" x="54.5" y="-26" font-family="Helvetica,sans-Serif" font-size="10.00">::init_fields</text>
</a>
</g>
</g>
<!-- Node2 -->
<g id="Node000002" class="node">
<title>Node2</title>
<g id="a_Node000002"><a xlink:href="namespaceIO.html#a30cc77fc5c4d45d3b56ef6a299ce2383" target="_top" xlink:title=" ">
<polygon fill="white" stroke="#666666" points="225.5,-65.75 165.25,-65.75 165.25,-47.25 225.5,-47.25 225.5,-65.75"/>
<text xml:space="preserve" text-anchor="middle" x="195.38" y="-52.25" font-family="Helvetica,sans-Serif" font-size="10.00">IO::format</text>
</a>
</g>
</g>
<!-- Node1&#45;&gt;Node2 -->
<g id="edge1_Node000001_Node000002" class="edge">
<title>Node1&#45;&gt;Node2</title>
<g id="a_edge1_Node000001_Node000002"><a xlink:title=" ">
<path fill="none" stroke="#63b8ff" d="M109.19,-43.62C123.98,-45.86 139.78,-48.24 153.7,-50.35"/>
<polygon fill="#63b8ff" stroke="#63b8ff" points="152.98,-53.78 163.39,-51.81 154.03,-46.86 152.98,-53.78"/>
</a>
</g>
</g>
<!-- Node3 -->
<g id="Node000003" class="node">
<title>Node3</title>
<g id="a_Node000003"><a xlink:href="classCore_1_1DataExporter.html#a9c60512b8e80f25d5f1f6cac29b27d07" target="_top" xlink:title=" ">
<polygon fill="white" stroke="#666666" points="245.75,-29 145,-29 145,0 245.75,0 245.75,-29"/>
<text xml:space="preserve" text-anchor="start" x="153" y="-15.5" font-family="Helvetica,sans-Serif" font-size="10.00">Core::DataExporter</text>
<text xml:space="preserve" text-anchor="middle" x="195.38" y="-5" font-family="Helvetica,sans-Serif" font-size="10.00">::prepare_matrix</text>
</a>
</g>
</g>
<!-- Node1&#45;&gt;Node3 -->
<g id="edge3_Node000001_Node000003" class="edge">
<title>Node1&#45;&gt;Node3</title>
<g id="a_edge3_Node000001_Node000003"><a xlink:title=" ">
<path fill="none" stroke="#63b8ff" d="M109.19,-27.38C117.18,-26.17 125.46,-24.92 133.59,-23.69"/>
<polygon fill="#63b8ff" stroke="#63b8ff" points="134.06,-27.16 143.42,-22.21 133.01,-20.24 134.06,-27.16"/>
</a>
</g>
</g>
<!-- Node2&#45;&gt;Node2 -->
<g id="edge2_Node000002_Node000002" class="edge">
<title>Node2&#45;&gt;Node2</title>
<g id="a_edge2_Node000002_Node000002"><a xlink:title=" ">
<path fill="none" stroke="#63b8ff" d="M173.66,-66C163.1,-74.57 170.34,-83.75 195.38,-83.75 209.46,-83.75 217.91,-80.84 220.73,-76.78"/>
<polygon fill="#63b8ff" stroke="#63b8ff" points="224.09,-75.78 217.57,-67.43 217.46,-78.02 224.09,-75.78"/>
</a>
</g>
</g>
</g>
</svg>
