<?xml version="1.0" encoding="UTF-8" standalone="no"?>
<!DOCTYPE svg PUBLIC "-//W3C//DTD SVG 1.1//EN"
 "http://www.w3.org/Graphics/SVG/1.1/DTD/svg11.dtd">
<!-- Generated by graphviz version 14.0.1 (0)
 -->
<!-- Title: MC::ParticlesContainer::__allocate_buffer__ Pages: 1 -->
<svg width="617pt" height="283pt"
 viewBox="0.00 0.00 617.00 283.00" xmlns="http://www.w3.org/2000/svg" xmlns:xlink="http://www.w3.org/1999/xlink">
<g id="graph0" class="graph" transform="scale(1 1) rotate(0) translate(4 279)">
<title>MC::ParticlesContainer::__allocate_buffer__</title>
<!-- Node1 -->
<g id="Node000001" class="node">
<title>Node1</title>
<g id="a_Node000001"><a xlink:title=" ">
<polygon fill="#999999" stroke="#666666" points="608.5,-228 489.75,-228 489.75,-199 608.5,-199 608.5,-228"/>
<text xml:space="preserve" text-anchor="start" x="497.75" y="-214.5" font-family="Helvetica,sans-Serif" font-size="10.00">MC::ParticlesContainer</text>
<text xml:space="preserve" text-anchor="middle" x="549.12" y="-204" font-family="Helvetica,sans-Serif" font-size="10.00">::__allocate_buffer__</text>
</a>
</g>
</g>
<!-- Node2 -->
<g id="Node000002" class="node">
<title>Node2</title>
<g id="a_Node000002"><a xlink:href="classMC_1_1ParticlesContainer.html#adae9af7cbb629530927d504f5fe75c90" target="_top" xlink:title="Load data from ar for deserialization.">
<polygon fill="white" stroke="#666666" points="453.75,-275 335,-275 335,-246 453.75,-246 453.75,-275"/>
<text xml:space="preserve" text-anchor="start" x="343" y="-261.5" font-family="Helvetica,sans-Serif" font-size="10.00">MC::ParticlesContainer</text>
<text xml:space="preserve" text-anchor="middle" x="394.38" y="-251" font-family="Helvetica,sans-Serif" font-size="10.00">::load</text>
</a>
</g>
</g>
<!-- Node1&#45;&gt;Node2 -->
<g id="edge1_Node000001_Node000002" class="edge">
<title>Node1&#45;&gt;Node2</title>
<g id="a_edge1_Node000001_Node000002"><a xlink:title=" ">
<path fill="none" stroke="#63b8ff" d="M489.11,-231.66C474.16,-236.26 458.28,-241.14 443.92,-245.56"/>
<polygon fill="#63b8ff" stroke="#63b8ff" points="489.82,-235.1 498.35,-228.82 487.76,-228.41 489.82,-235.1"/>
</a>
</g>
</g>
<!-- Node3 -->
<g id="Node000003" class="node">
<title>Node3</title>
<g id="a_Node000003"><a xlink:href="classMC_1_1ParticlesContainer.html#a8e95993fb1287c04427780d6372be565" target="_top" xlink:title="Insert particle buffer into the main container.">
<polygon fill="white" stroke="#666666" points="453.75,-228 335,-228 335,-199 453.75,-199 453.75,-228"/>
<text xml:space="preserve" text-anchor="start" x="343" y="-214.5" font-family="Helvetica,sans-Serif" font-size="10.00">MC::ParticlesContainer</text>
<text xml:space="preserve" text-anchor="middle" x="394.38" y="-204" font-family="Helvetica,sans-Serif" font-size="10.00">::merge_buffer</text>
</a>
</g>
</g>
<!-- Node1&#45;&gt;Node3 -->
<g id="edge2_Node000001_Node000003" class="edge">
<title>Node1&#45;&gt;Node3</title>
<g id="a_edge2_Node000001_Node000003"><a xlink:title=" ">
<path fill="none" stroke="#63b8ff" d="M478.21,-213.5C470.14,-213.5 461.98,-213.5 454.09,-213.5"/>
<polygon fill="#63b8ff" stroke="#63b8ff" points="477.99,-217 487.99,-213.5 477.99,-210 477.99,-217"/>
</a>
</g>
</g>
<!-- Node6 -->
<g id="Node000006" class="node">
<title>Node6</title>
<g id="a_Node000006"><a xlink:href="classMC_1_1ParticlesContainer.html#a31cc416a99cf6e26bd4c1cb0a154a5ac" target="_top" xlink:title="Alias for the model used by the container.">
<polygon fill="white" stroke="#666666" points="453.75,-146 335,-146 335,-117 453.75,-117 453.75,-146"/>
<text xml:space="preserve" text-anchor="start" x="343" y="-132.5" font-family="Helvetica,sans-Serif" font-size="10.00">MC::ParticlesContainer</text>
<text xml:space="preserve" text-anchor="middle" x="394.38" y="-122" font-family="Helvetica,sans-Serif" font-size="10.00">::ParticlesContainer</text>
</a>
</g>
</g>
<!-- Node1&#45;&gt;Node6 -->
<g id="edge5_Node000001_Node000006" class="edge">
<title>Node1&#45;&gt;Node6</title>
<g id="a_edge5_Node000001_Node000006"><a xlink:title=" ">
<path fill="none" stroke="#63b8ff" d="M510.57,-193.34C483.5,-178.81 447.58,-159.52 423.09,-146.38"/>
<polygon fill="#63b8ff" stroke="#63b8ff" points="508.66,-196.29 519.13,-197.93 511.97,-190.12 508.66,-196.29"/>
</a>
</g>
</g>
<!-- Node4 -->
<g id="Node000004" class="node">
<title>Node4</title>
<g id="a_Node000004"><a xlink:href="classSimulation_1_1SimulationUnit.html#a96e8f3fbde370c918a3710b0b910cd42" target="_top" xlink:title=" ">
<polygon fill="white" stroke="#666666" points="299,-264 167.5,-264 167.5,-235 299,-235 299,-264"/>
<text xml:space="preserve" text-anchor="start" x="175.5" y="-250.5" font-family="Helvetica,sans-Serif" font-size="10.00">Simulation::SimulationUnit</text>
<text xml:space="preserve" text-anchor="middle" x="233.25" y="-240" font-family="Helvetica,sans-Serif" font-size="10.00">::post_cycle</text>
</a>
</g>
</g>
<!-- Node3&#45;&gt;Node4 -->
<g id="edge3_Node000003_Node000004" class="edge">
<title>Node3&#45;&gt;Node4</title>
<g id="a_edge3_Node000003_Node000004"><a xlink:title=" ">
<path fill="none" stroke="#63b8ff" d="M323.36,-229.34C315.34,-231.15 307.19,-233 299.24,-234.8"/>
<polygon fill="#63b8ff" stroke="#63b8ff" points="324.12,-232.76 333.1,-227.14 322.57,-225.93 324.12,-232.76"/>
</a>
</g>
</g>
<!-- Node5 -->
<g id="Node000005" class="node">
<title>Node5</title>
<g id="a_Node000005"><a xlink:href="classSimulation_1_1SimulationUnit.html#a7b49fd171d4de8aa3949738da6c3810f" target="_top" xlink:title=" ">
<polygon fill="white" stroke="#666666" points="131.5,-264 0,-264 0,-235 131.5,-235 131.5,-264"/>
<text xml:space="preserve" text-anchor="start" x="8" y="-250.5" font-family="Helvetica,sans-Serif" font-size="10.00">Simulation::SimulationUnit</text>
<text xml:space="preserve" text-anchor="middle" x="65.75" y="-240" font-family="Helvetica,sans-Serif" font-size="10.00">::cycleProcess</text>
</a>
</g>
</g>
<!-- Node4&#45;&gt;Node5 -->
<g id="edge4_Node000004_Node000005" class="edge">
<title>Node4&#45;&gt;Node5</title>
<g id="a_edge4_Node000004_Node000005"><a xlink:title=" ">
<path fill="none" stroke="#63b8ff" d="M155.97,-249.5C147.88,-249.5 139.71,-249.5 131.77,-249.5"/>
<polygon fill="#63b8ff" stroke="#63b8ff" points="155.8,-253 165.8,-249.5 155.8,-246 155.8,-253"/>
</a>
</g>
</g>
<!-- Node7 -->
<g id="Node000007" class="node">
<title>Node7</title>
<g id="a_Node000007"><a xlink:href="classMC_1_1ParticlesContainer.html#ad499de971fbe1a2cf3e1adbe2bb151d6" target="_top" xlink:title=" ">
<polygon fill="white" stroke="#666666" points="292.62,-217 173.88,-217 173.88,-188 292.62,-188 292.62,-217"/>
<text xml:space="preserve" text-anchor="start" x="181.88" y="-203.5" font-family="Helvetica,sans-Serif" font-size="10.00">MC::ParticlesContainer</text>
<text xml:space="preserve" text-anchor="middle" x="233.25" y="-193" font-family="Helvetica,sans-Serif" font-size="10.00">::operator=</text>
</a>
</g>
</g>
<!-- Node6&#45;&gt;Node7 -->
<g id="edge6_Node000006_Node000007" class="edge">
<title>Node6&#45;&gt;Node7</title>
<g id="a_edge6_Node000006_Node000007"><a xlink:title=" ">
<path fill="none" stroke="#63b8ff" d="M356.86,-151.46C339.57,-160.55 318.48,-171.13 299,-179.5 292.53,-182.28 285.61,-185 278.78,-187.54"/>
<polygon fill="#63b8ff" stroke="#63b8ff" points="358.04,-154.8 365.22,-147.02 354.75,-148.62 358.04,-154.8"/>
</a>
</g>
</g>
<!-- Node8 -->
<g id="Node000008" class="node">
<title>Node8</title>
<g id="a_Node000008"><a xlink:href="classMC_1_1ParticlesContainer.html#a5d93b87f5a6e18c449e0ed62333e9d6e" target="_top" xlink:title=" ">
<polygon fill="white" stroke="#666666" points="292.62,-170 173.88,-170 173.88,-141 292.62,-141 292.62,-170"/>
<text xml:space="preserve" text-anchor="start" x="181.88" y="-156.5" font-family="Helvetica,sans-Serif" font-size="10.00">MC::ParticlesContainer</text>
<text xml:space="preserve" text-anchor="middle" x="233.25" y="-146" font-family="Helvetica,sans-Serif" font-size="10.00">::operator=</text>
</a>
</g>
</g>
<!-- Node6&#45;&gt;Node8 -->
<g id="edge7_Node000006_Node000008" class="edge">
<title>Node6&#45;&gt;Node8</title>
<g id="a_edge7_Node000006_Node000008"><a xlink:title=" ">
<path fill="none" stroke="#63b8ff" d="M323.3,-142.07C313.21,-143.59 302.92,-145.14 293.07,-146.63"/>
<polygon fill="#63b8ff" stroke="#63b8ff" points="323.71,-145.55 333.08,-140.59 322.67,-138.62 323.71,-145.55"/>
</a>
</g>
</g>
<!-- Node9 -->
<g id="Node000009" class="node">
<title>Node9</title>
<g id="a_Node000009"><a xlink:href="classMC_1_1ParticlesContainer.html#a5b4a66b67d3b4942557b22538958480a" target="_top" xlink:title=" ">
<polygon fill="white" stroke="#666666" points="292.62,-123 173.88,-123 173.88,-94 292.62,-94 292.62,-123"/>
<text xml:space="preserve" text-anchor="start" x="181.88" y="-109.5" font-family="Helvetica,sans-Serif" font-size="10.00">MC::ParticlesContainer</text>
<text xml:space="preserve" text-anchor="middle" x="233.25" y="-99" font-family="Helvetica,sans-Serif" font-size="10.00">::ParticlesContainer</text>
</a>
</g>
</g>
<!-- Node6&#45;&gt;Node9 -->
<g id="edge8_Node000006_Node000009" class="edge">
<title>Node6&#45;&gt;Node9</title>
<g id="a_edge8_Node000006_Node000009"><a xlink:title=" ">
<path fill="none" stroke="#63b8ff" d="M323.3,-121.37C313.21,-119.91 302.92,-118.43 293.07,-117"/>
<polygon fill="#63b8ff" stroke="#63b8ff" points="322.68,-124.82 333.08,-122.78 323.68,-117.89 322.68,-124.82"/>
</a>
</g>
</g>
<!-- Node10 -->
<g id="Node000010" class="node">
<title>Node10</title>
<g id="a_Node000010"><a xlink:href="classMC_1_1ParticlesContainer.html#adacba063d362632ca0899bae750b628a" target="_top" xlink:title="Default copy and move constructors and assignment operators.">
<polygon fill="white" stroke="#666666" points="292.62,-76 173.88,-76 173.88,-47 292.62,-47 292.62,-76"/>
<text xml:space="preserve" text-anchor="start" x="181.88" y="-62.5" font-family="Helvetica,sans-Serif" font-size="10.00">MC::ParticlesContainer</text>
<text xml:space="preserve" text-anchor="middle" x="233.25" y="-52" font-family="Helvetica,sans-Serif" font-size="10.00">::ParticlesContainer</text>
</a>
</g>
</g>
<!-- Node6&#45;&gt;Node10 -->
<g id="edge9_Node000006_Node000010" class="edge">
<title>Node6&#45;&gt;Node10</title>
<g id="a_edge9_Node000006_Node000010"><a xlink:title=" ">
<path fill="none" stroke="#63b8ff" d="M354.73,-111.6C337.8,-103.16 317.6,-93.46 299,-85.5 291.73,-82.39 283.9,-79.29 276.29,-76.39"/>
<polygon fill="#63b8ff" stroke="#63b8ff" points="352.94,-114.62 363.45,-115.98 356.09,-108.36 352.94,-114.62"/>
</a>
</g>
</g>
<!-- Node11 -->
<g id="Node000011" class="node">
<title>Node11</title>
<g id="a_Node000011"><a xlink:href="classMC_1_1ParticlesContainer.html#ae0cd8cf83c2728db495167ec2f10d80a" target="_top" xlink:title=" ">
<polygon fill="white" stroke="#666666" points="292.62,-29 173.88,-29 173.88,0 292.62,0 292.62,-29"/>
<text xml:space="preserve" text-anchor="start" x="181.88" y="-15.5" font-family="Helvetica,sans-Serif" font-size="10.00">MC::ParticlesContainer</text>
<text xml:space="preserve" text-anchor="middle" x="233.25" y="-5" font-family="Helvetica,sans-Serif" font-size="10.00">::ParticlesContainer</text>
</a>
</g>
</g>
<!-- Node6&#45;&gt;Node11 -->
<g id="edge10_Node000006_Node000011" class="edge">
<title>Node6&#45;&gt;Node11</title>
<g id="a_edge10_Node000006_Node000011"><a xlink:title=" ">
<path fill="none" stroke="#63b8ff" d="M374.43,-107.82C356.79,-87.11 328.79,-57.45 299,-38.5 293.64,-35.09 287.72,-32.06 281.71,-29.41"/>
<polygon fill="#63b8ff" stroke="#63b8ff" points="371.72,-110.03 380.81,-115.48 377.09,-105.55 371.72,-110.03"/>
</a>
</g>
</g>
</g>
</svg>
