<?xml version="1.0" encoding="UTF-8" standalone="no"?>
<!DOCTYPE svg PUBLIC "-//W3C//DTD SVG 1.1//EN"
 "http://www.w3.org/Graphics/SVG/1.1/DTD/svg11.dtd">
<!-- Generated by graphviz version 14.0.1 (0)
 -->
<!-- Title: Simulation::SimulationUnit::cycleProcess Pages: 1 -->
<svg width="816pt" height="338pt"
 viewBox="0.00 0.00 816.00 338.00" xmlns="http://www.w3.org/2000/svg" xmlns:xlink="http://www.w3.org/1999/xlink">
<g id="graph0" class="graph" transform="scale(1 1) rotate(0) translate(4 334)">
<title>Simulation::SimulationUnit::cycleProcess</title>
<!-- Node1 -->
<g id="Node000001" class="node">
<title>Node1</title>
<g id="a_Node000001"><a xlink:title=" ">
<polygon fill="#999999" stroke="#666666" points="131.5,-147 0,-147 0,-118 131.5,-118 131.5,-147"/>
<text xml:space="preserve" text-anchor="start" x="8" y="-133.5" font-family="Helvetica,sans-Serif" font-size="10.00">Simulation::SimulationUnit</text>
<text xml:space="preserve" text-anchor="middle" x="65.75" y="-123" font-family="Helvetica,sans-Serif" font-size="10.00">::cycleProcess</text>
</a>
</g>
</g>
<!-- Node2 -->
<g id="Node000002" class="node">
<title>Node2</title>
<g id="a_Node000002"><a xlink:href="classSimulation_1_1SimulationUnit.html#a596360d0966f7694e5ebf0652b61b0e2" target="_top" xlink:title=" ">
<polygon fill="white" stroke="#666666" points="299,-217 167.5,-217 167.5,-188 299,-188 299,-217"/>
<text xml:space="preserve" text-anchor="start" x="175.5" y="-203.5" font-family="Helvetica,sans-Serif" font-size="10.00">Simulation::SimulationUnit</text>
<text xml:space="preserve" text-anchor="middle" x="233.25" y="-193" font-family="Helvetica,sans-Serif" font-size="10.00">::post_cycle</text>
</a>
</g>
</g>
<!-- Node1&#45;&gt;Node2 -->
<g id="edge1_Node000001_Node000002" class="edge">
<title>Node1&#45;&gt;Node2</title>
<g id="a_edge1_Node000001_Node000002"><a xlink:title=" ">
<path fill="none" stroke="#63b8ff" d="M101.85,-147.35C126.56,-157.8 159.87,-171.89 186.64,-183.21"/>
<polygon fill="#63b8ff" stroke="#63b8ff" points="184.95,-186.29 195.52,-186.97 187.68,-179.85 184.95,-186.29"/>
</a>
</g>
</g>
<!-- Node11 -->
<g id="Node000011" class="node">
<title>Node11</title>
<g id="a_Node000011"><a xlink:href="classSimulation_1_1SimulationUnit.html#ad984b5d95455d6db475d8b6e20077a0c" target="_top" xlink:title=" ">
<polygon fill="white" stroke="#666666" points="299,-100 167.5,-100 167.5,-71 299,-71 299,-100"/>
<text xml:space="preserve" text-anchor="start" x="175.5" y="-86.5" font-family="Helvetica,sans-Serif" font-size="10.00">Simulation::SimulationUnit</text>
<text xml:space="preserve" text-anchor="middle" x="233.25" y="-76" font-family="Helvetica,sans-Serif" font-size="10.00">::pre_cycle</text>
</a>
</g>
</g>
<!-- Node1&#45;&gt;Node11 -->
<g id="edge11_Node000001_Node000011" class="edge">
<title>Node1&#45;&gt;Node11</title>
<g id="a_edge11_Node000001_Node000011"><a xlink:title=" ">
<path fill="none" stroke="#63b8ff" d="M119.12,-117.63C134.96,-113.13 152.54,-108.14 169.02,-103.46"/>
<polygon fill="#63b8ff" stroke="#63b8ff" points="169.54,-106.95 178.2,-100.85 167.63,-100.21 169.54,-106.95"/>
</a>
</g>
</g>
<!-- Node3 -->
<g id="Node000003" class="node">
<title>Node3</title>
<g id="a_Node000003"><a xlink:href="classMC_1_1ParticlesContainer.html#a8e95993fb1287c04427780d6372be565" target="_top" xlink:title="Insert particle buffer into the main container.">
<polygon fill="white" stroke="#666666" points="468,-311 349.25,-311 349.25,-282 468,-282 468,-311"/>
<text xml:space="preserve" text-anchor="start" x="357.25" y="-297.5" font-family="Helvetica,sans-Serif" font-size="10.00">MC::ParticlesContainer</text>
<text xml:space="preserve" text-anchor="middle" x="408.62" y="-287" font-family="Helvetica,sans-Serif" font-size="10.00">::merge_buffer</text>
</a>
</g>
</g>
<!-- Node2&#45;&gt;Node3 -->
<g id="edge2_Node000002_Node000003" class="edge">
<title>Node2&#45;&gt;Node3</title>
<g id="a_edge2_Node000002_Node000003"><a xlink:title=" ">
<path fill="none" stroke="#63b8ff" d="M251.75,-217.38C271.05,-233.16 303.56,-257.91 335,-273.5 337.74,-274.86 340.57,-276.16 343.47,-277.4"/>
<polygon fill="#63b8ff" stroke="#63b8ff" points="342.13,-280.63 352.72,-281.08 344.72,-274.13 342.13,-280.63"/>
</a>
</g>
</g>
<!-- Node6 -->
<g id="Node000006" class="node">
<title>Node6</title>
<g id="a_Node000006"><a xlink:href="classSimulation_1_1SimulationUnit.html#ae2077067788b0cb0535c62933724a1cf" target="_top" xlink:title=" ">
<polygon fill="white" stroke="#666666" points="474.38,-264 342.88,-264 342.88,-235 474.38,-235 474.38,-264"/>
<text xml:space="preserve" text-anchor="start" x="350.88" y="-250.5" font-family="Helvetica,sans-Serif" font-size="10.00">Simulation::SimulationUnit</text>
<text xml:space="preserve" text-anchor="middle" x="408.62" y="-240" font-family="Helvetica,sans-Serif" font-size="10.00">::scatter_contribute</text>
</a>
</g>
</g>
<!-- Node2&#45;&gt;Node6 -->
<g id="edge5_Node000002_Node000006" class="edge">
<title>Node2&#45;&gt;Node6</title>
<g id="a_edge5_Node000002_Node000006"><a xlink:title=" ">
<path fill="none" stroke="#63b8ff" d="M289.11,-217.37C305.87,-221.91 324.47,-226.96 341.87,-231.68"/>
<polygon fill="#63b8ff" stroke="#63b8ff" points="340.5,-234.93 351.07,-234.17 342.33,-228.17 340.5,-234.93"/>
</a>
</g>
</g>
<!-- Node8 -->
<g id="Node000008" class="node">
<title>Node8</title>
<g id="a_Node000008"><a xlink:href="classSimulation_1_1SimulationUnit.html#ac396f393b4cf318b38364c5067254c80" target="_top" xlink:title=" ">
<polygon fill="white" stroke="#666666" points="480.38,-217 336.88,-217 336.88,-188 480.38,-188 480.38,-217"/>
<text xml:space="preserve" text-anchor="start" x="344.88" y="-203.5" font-family="Helvetica,sans-Serif" font-size="10.00">Simulation::SimulationUnit</text>
<text xml:space="preserve" text-anchor="middle" x="408.62" y="-193" font-family="Helvetica,sans-Serif" font-size="10.00">::set_kernel_contribs_to_host</text>
</a>
</g>
</g>
<!-- Node2&#45;&gt;Node8 -->
<g id="edge7_Node000002_Node000008" class="edge">
<title>Node2&#45;&gt;Node8</title>
<g id="a_edge7_Node000002_Node000008"><a xlink:title=" ">
<path fill="none" stroke="#63b8ff" d="M299.3,-202.5C307.72,-202.5 316.43,-202.5 325.08,-202.5"/>
<polygon fill="#63b8ff" stroke="#63b8ff" points="324.88,-206 334.88,-202.5 324.88,-199 324.88,-206"/>
</a>
</g>
</g>
<!-- Node9 -->
<g id="Node000009" class="node">
<title>Node9</title>
<g id="a_Node000009"><a xlink:href="classMC_1_1ParticlesContainer.html#a0047f4c96b02ae4aeb9ebd8963129687" target="_top" xlink:title="Update the number of non&#45;idle particle and remove if total number exceeds threshold May call : remove...">
<polygon fill="white" stroke="#666666" points="482.25,-170 335,-170 335,-141 482.25,-141 482.25,-170"/>
<text xml:space="preserve" text-anchor="start" x="343" y="-156.5" font-family="Helvetica,sans-Serif" font-size="10.00">MC::ParticlesContainer</text>
<text xml:space="preserve" text-anchor="middle" x="408.62" y="-146" font-family="Helvetica,sans-Serif" font-size="10.00">::update_and_remove_inactive</text>
</a>
</g>
</g>
<!-- Node2&#45;&gt;Node9 -->
<g id="edge8_Node000002_Node000009" class="edge">
<title>Node2&#45;&gt;Node9</title>
<g id="a_edge8_Node000002_Node000009"><a xlink:title=" ">
<path fill="none" stroke="#63b8ff" d="M289.11,-187.63C305.87,-183.09 324.47,-178.04 341.87,-173.32"/>
<polygon fill="#63b8ff" stroke="#63b8ff" points="342.33,-176.83 351.07,-170.83 340.5,-170.07 342.33,-176.83"/>
</a>
</g>
</g>
<!-- Node4 -->
<g id="Node000004" class="node">
<title>Node4</title>
<g id="a_Node000004"><a xlink:href="classMC_1_1ParticlesContainer.html#a57fa06d3225acf04522e3fc2993847f0" target="_top" xlink:title=" ">
<polygon fill="white" stroke="#666666" points="644.88,-330 526.12,-330 526.12,-301 644.88,-301 644.88,-330"/>
<text xml:space="preserve" text-anchor="start" x="534.12" y="-316.5" font-family="Helvetica,sans-Serif" font-size="10.00">MC::ParticlesContainer</text>
<text xml:space="preserve" text-anchor="middle" x="585.5" y="-306" font-family="Helvetica,sans-Serif" font-size="10.00">::__allocate_buffer__</text>
</a>
</g>
</g>
<!-- Node3&#45;&gt;Node4 -->
<g id="edge3_Node000003_Node000004" class="edge">
<title>Node3&#45;&gt;Node4</title>
<g id="a_edge3_Node000003_Node000004"><a xlink:title=" ">
<path fill="none" stroke="#63b8ff" d="M468.34,-302.88C483.19,-304.49 499.29,-306.24 514.63,-307.91"/>
<polygon fill="#63b8ff" stroke="#63b8ff" points="513.82,-311.34 524.14,-308.94 514.57,-304.38 513.82,-311.34"/>
</a>
</g>
</g>
<!-- Node5 -->
<g id="Node000005" class="node">
<title>Node5</title>
<g id="a_Node000005"><a xlink:href="classMC_1_1ParticlesContainer.html#a4fc94ae525191a5d034dce4866986c1e" target="_top" xlink:title=" ">
<polygon fill="white" stroke="#666666" points="807.5,-238 688.75,-238 688.75,-209 807.5,-209 807.5,-238"/>
<text xml:space="preserve" text-anchor="start" x="696.75" y="-224.5" font-family="Helvetica,sans-Serif" font-size="10.00">MC::ParticlesContainer</text>
<text xml:space="preserve" text-anchor="middle" x="748.12" y="-214" font-family="Helvetica,sans-Serif" font-size="10.00">::_resize</text>
</a>
</g>
</g>
<!-- Node3&#45;&gt;Node5 -->
<g id="edge4_Node000003_Node000005" class="edge">
<title>Node3&#45;&gt;Node5</title>
<g id="a_edge4_Node000003_Node000005"><a xlink:title=" ">
<path fill="none" stroke="#63b8ff" d="M468.04,-288.39C517.58,-280.99 590.32,-268.87 652.75,-253.5 666.05,-250.22 680.22,-246.08 693.42,-241.93"/>
<polygon fill="#63b8ff" stroke="#63b8ff" points="694.35,-245.31 702.8,-238.92 692.21,-238.64 694.35,-245.31"/>
</a>
</g>
</g>
<!-- Node7 -->
<g id="Node000007" class="node">
<title>Node7</title>
<g id="a_Node000007"><a xlink:href="classSimulation_1_1SimulationUnit.html#a9ea90cab13d8259f026f57baad1c989f" target="_top" xlink:title=" ">
<polygon fill="white" stroke="#666666" points="651.25,-244 519.75,-244 519.75,-215 651.25,-215 651.25,-244"/>
<text xml:space="preserve" text-anchor="start" x="527.75" y="-230.5" font-family="Helvetica,sans-Serif" font-size="10.00">Simulation::SimulationUnit</text>
<text xml:space="preserve" text-anchor="middle" x="585.5" y="-220" font-family="Helvetica,sans-Serif" font-size="10.00">::get_kernel_contribution</text>
</a>
</g>
</g>
<!-- Node6&#45;&gt;Node7 -->
<g id="edge6_Node000006_Node000007" class="edge">
<title>Node6&#45;&gt;Node7</title>
<g id="a_edge6_Node000006_Node000007"><a xlink:title=" ">
<path fill="none" stroke="#63b8ff" d="M474.74,-242.05C485.55,-240.82 496.85,-239.52 507.91,-238.26"/>
<polygon fill="#63b8ff" stroke="#63b8ff" points="508.29,-241.74 517.82,-237.13 507.49,-234.78 508.29,-241.74"/>
</a>
</g>
</g>
<!-- Node10 -->
<g id="Node000010" class="node">
<title>Node10</title>
<g id="a_Node000010"><a xlink:href="classMC_1_1ParticlesContainer.html#a57353f823ed074869300f29deb5c50b2" target="_top" xlink:title="Removes inactive particles from the container.">
<polygon fill="white" stroke="#666666" points="652.75,-193 518.25,-193 518.25,-164 652.75,-164 652.75,-193"/>
<text xml:space="preserve" text-anchor="start" x="526.25" y="-179.5" font-family="Helvetica,sans-Serif" font-size="10.00">MC::ParticlesContainer</text>
<text xml:space="preserve" text-anchor="middle" x="585.5" y="-169" font-family="Helvetica,sans-Serif" font-size="10.00">::remove_inactive_particles</text>
</a>
</g>
</g>
<!-- Node9&#45;&gt;Node10 -->
<g id="edge9_Node000009_Node000010" class="edge">
<title>Node9&#45;&gt;Node10</title>
<g id="a_edge9_Node000009_Node000010"><a xlink:title=" ">
<path fill="none" stroke="#63b8ff" d="M482.52,-165.09C490.48,-166.13 498.61,-167.2 506.63,-168.26"/>
<polygon fill="#63b8ff" stroke="#63b8ff" points="506,-171.7 516.37,-169.54 506.91,-164.76 506,-171.7"/>
</a>
</g>
</g>
<!-- Node10&#45;&gt;Node5 -->
<g id="edge10_Node000010_Node000005" class="edge">
<title>Node10&#45;&gt;Node5</title>
<g id="a_edge10_Node000010_Node000005"><a xlink:title=" ">
<path fill="none" stroke="#63b8ff" d="M639.99,-193.48C653.73,-197.34 668.66,-201.52 682.89,-205.5"/>
<polygon fill="#63b8ff" stroke="#63b8ff" points="681.57,-208.77 692.14,-208.1 683.46,-202.03 681.57,-208.77"/>
</a>
</g>
</g>
<!-- Node12 -->
<g id="Node000012" class="node">
<title>Node12</title>
<g id="a_Node000012"><a xlink:href="classSimulation_1_1SimulationUnit.html#ac3b83e6fb1638ace3cbfa35833c1affc" target="_top" xlink:title=" ">
<polygon fill="white" stroke="#666666" points="482.25,-123 335,-123 335,-94 482.25,-94 482.25,-123"/>
<text xml:space="preserve" text-anchor="start" x="343" y="-109.5" font-family="Helvetica,sans-Serif" font-size="10.00">Simulation::SimulationUnit</text>
<text xml:space="preserve" text-anchor="middle" x="408.62" y="-99" font-family="Helvetica,sans-Serif" font-size="10.00">::get_kernel_cumulative_proba</text>
</a>
</g>
</g>
<!-- Node11&#45;&gt;Node12 -->
<g id="edge12_Node000011_Node000012" class="edge">
<title>Node11&#45;&gt;Node12</title>
<g id="a_edge12_Node000011_Node000012"><a xlink:title=" ">
<path fill="none" stroke="#63b8ff" d="M299.3,-94.13C307.14,-95.17 315.23,-96.24 323.29,-97.31"/>
<polygon fill="#63b8ff" stroke="#63b8ff" points="322.77,-100.77 333.14,-98.62 323.69,-93.83 322.77,-100.77"/>
</a>
</g>
</g>
<!-- Node13 -->
<g id="Node000013" class="node">
<title>Node13</title>
<g id="a_Node000013"><a xlink:href="classSimulation_1_1SimulationUnit.html#a7f871ecc4425caa53838c0a620f3d686" target="_top" xlink:title=" ">
<polygon fill="white" stroke="#666666" points="474.38,-76 342.88,-76 342.88,-47 474.38,-47 474.38,-76"/>
<text xml:space="preserve" text-anchor="start" x="350.88" y="-62.5" font-family="Helvetica,sans-Serif" font-size="10.00">Simulation::SimulationUnit</text>
<text xml:space="preserve" text-anchor="middle" x="408.62" y="-52" font-family="Helvetica,sans-Serif" font-size="10.00">::get_kernel_diagonal</text>
</a>
</g>
</g>
<!-- Node11&#45;&gt;Node13 -->
<g id="edge13_Node000011_Node000013" class="edge">
<title>Node11&#45;&gt;Node13</title>
<g id="a_edge13_Node000011_Node000013"><a xlink:title=" ">
<path fill="none" stroke="#63b8ff" d="M299.3,-76.5C309.67,-75.06 320.49,-73.56 331.1,-72.09"/>
<polygon fill="#63b8ff" stroke="#63b8ff" points="331.57,-75.56 341,-70.72 330.61,-68.63 331.57,-75.56"/>
</a>
</g>
</g>
<!-- Node14 -->
<g id="Node000014" class="node">
<title>Node14</title>
<g id="a_Node000014"><a xlink:href="classMC_1_1ParticlesContainer.html#a30b264e87ae019596f9791f2fc60d52f" target="_top" xlink:title="Gets the number of particles in the container.">
<polygon fill="white" stroke="#666666" points="468,-29 349.25,-29 349.25,0 468,0 468,-29"/>
<text xml:space="preserve" text-anchor="start" x="357.25" y="-15.5" font-family="Helvetica,sans-Serif" font-size="10.00">MC::ParticlesContainer</text>
<text xml:space="preserve" text-anchor="middle" x="408.62" y="-5" font-family="Helvetica,sans-Serif" font-size="10.00">::n_particles</text>
</a>
</g>
</g>
<!-- Node11&#45;&gt;Node14 -->
<g id="edge14_Node000011_Node000014" class="edge">
<title>Node11&#45;&gt;Node14</title>
<g id="a_edge14_Node000011_Node000014"><a xlink:title=" ">
<path fill="none" stroke="#63b8ff" d="M263.83,-70.58C283.69,-60.84 310.6,-48.18 335,-38.5 339.57,-36.69 344.33,-34.9 349.14,-33.16"/>
<polygon fill="#63b8ff" stroke="#63b8ff" points="349.97,-36.58 358.25,-29.96 347.65,-29.97 349.97,-36.58"/>
</a>
</g>
</g>
</g>
</svg>
