<?xml version="1.0" encoding="UTF-8" standalone="no"?>
<!DOCTYPE svg PUBLIC "-//W3C//DTD SVG 1.1//EN"
 "http://www.w3.org/Graphics/SVG/1.1/DTD/svg11.dtd">
<!-- Generated by graphviz version 14.0.1 (0)
 -->
<!-- Title: Core::PartialExporter::write_number_particle Pages: 1 -->
<svg width="817pt" height="105pt"
 viewBox="0.00 0.00 817.00 105.00" xmlns="http://www.w3.org/2000/svg" xmlns:xlink="http://www.w3.org/1999/xlink">
<g id="graph0" class="graph" transform="scale(1 1) rotate(0) translate(4 101)">
<title>Core::PartialExporter::write_number_particle</title>
<!-- Node1 -->
<g id="Node000001" class="node">
<title>Node1</title>
<g id="a_Node000001"><a xlink:title="Writes the number of particles in each compartment.">
<polygon fill="#999999" stroke="#666666" points="809.25,-62 691.25,-62 691.25,-33 809.25,-33 809.25,-62"/>
<text xml:space="preserve" text-anchor="start" x="699.25" y="-48.5" font-family="Helvetica,sans-Serif" font-size="10.00">Core::PartialExporter</text>
<text xml:space="preserve" text-anchor="middle" x="750.25" y="-38" font-family="Helvetica,sans-Serif" font-size="10.00">::write_number_particle</text>
</a>
</g>
</g>
<!-- Node2 -->
<g id="Node000002" class="node">
<title>Node2</title>
<g id="a_Node000002"><a xlink:href="namespaceCore.html#afbce0beea293a7ccfdfc34a85b5e5e77" target="_top" xlink:title=" ">
<polygon fill="white" stroke="#666666" points="655.25,-62 567.25,-62 567.25,-33 655.25,-33 655.25,-62"/>
<text xml:space="preserve" text-anchor="start" x="575.25" y="-48.5" font-family="Helvetica,sans-Serif" font-size="10.00">Core::init_partial</text>
<text xml:space="preserve" text-anchor="middle" x="611.25" y="-38" font-family="Helvetica,sans-Serif" font-size="10.00">_exporter</text>
</a>
</g>
</g>
<!-- Node1&#45;&gt;Node2 -->
<g id="edge1_Node000001_Node000002" class="edge">
<title>Node1&#45;&gt;Node2</title>
<g id="a_edge1_Node000001_Node000002"><a xlink:title=" ">
<path fill="none" stroke="#63b8ff" d="M679.35,-47.5C671.27,-47.5 663.21,-47.5 655.63,-47.5"/>
<polygon fill="#63b8ff" stroke="#63b8ff" points="679.24,-51 689.24,-47.5 679.24,-44 679.24,-51"/>
</a>
</g>
</g>
<!-- Node3 -->
<g id="Node000003" class="node">
<title>Node3</title>
<g id="a_Node000003"><a xlink:href="namespaceCore.html#ab6528e76111960864b7e4741327b3049" target="_top" xlink:title="Start simulation.">
<polygon fill="white" stroke="#666666" points="531.25,-56.75 468,-56.75 468,-38.25 531.25,-38.25 531.25,-56.75"/>
<text xml:space="preserve" text-anchor="middle" x="499.62" y="-43.25" font-family="Helvetica,sans-Serif" font-size="10.00">Core::exec</text>
</a>
</g>
</g>
<!-- Node2&#45;&gt;Node3 -->
<g id="edge2_Node000002_Node000003" class="edge">
<title>Node2&#45;&gt;Node3</title>
<g id="a_edge2_Node000002_Node000003"><a xlink:title=" ">
<path fill="none" stroke="#63b8ff" d="M555.67,-47.5C547.36,-47.5 539.04,-47.5 531.48,-47.5"/>
<polygon fill="#63b8ff" stroke="#63b8ff" points="555.41,-51 565.41,-47.5 555.41,-44 555.41,-51"/>
</a>
</g>
</g>
<!-- Node4 -->
<g id="Node000004" class="node">
<title>Node4</title>
<g id="a_Node000004"><a xlink:href="structApi_1_1SimulationInstance.html#a3f04372728be84263fb69f5773ca5bd5" target="_top" xlink:title="Execute the simulation.">
<polygon fill="white" stroke="#666666" points="275,-97 155.5,-97 155.5,-68 275,-68 275,-97"/>
<text xml:space="preserve" text-anchor="start" x="163.5" y="-83.5" font-family="Helvetica,sans-Serif" font-size="10.00">Api::SimulationInstance</text>
<text xml:space="preserve" text-anchor="middle" x="215.25" y="-73" font-family="Helvetica,sans-Serif" font-size="10.00">::exec</text>
</a>
</g>
</g>
<!-- Node3&#45;&gt;Node4 -->
<g id="edge3_Node000003_Node000004" class="edge">
<title>Node3&#45;&gt;Node4</title>
<g id="a_edge3_Node000003_Node000004"><a xlink:title=" ">
<path fill="none" stroke="#63b8ff" d="M456.86,-60.05C448.68,-62.15 440.12,-64.1 432,-65.5 379.43,-74.59 318.8,-78.83 275.22,-80.8"/>
<polygon fill="#63b8ff" stroke="#63b8ff" points="457.5,-63.5 466.25,-57.52 455.68,-56.74 457.5,-63.5"/>
</a>
</g>
</g>
<!-- Node6 -->
<g id="Node000006" class="node">
<title>Node6</title>
<g id="a_Node000006"><a xlink:href="namespaceCore.html#a23e6f3d22fc51ef9decabb2c220b27c4" target="_top" xlink:title=" ">
<polygon fill="white" stroke="#666666" points="432,-56.75 311,-56.75 311,-38.25 432,-38.25 432,-56.75"/>
<text xml:space="preserve" text-anchor="middle" x="371.5" y="-43.25" font-family="Helvetica,sans-Serif" font-size="10.00">Core::exporter_filename</text>
</a>
</g>
</g>
<!-- Node3&#45;&gt;Node6 -->
<g id="edge5_Node000003_Node000006" class="edge">
<title>Node3&#45;&gt;Node6</title>
<g id="a_edge5_Node000003_Node000006"><a xlink:title=" ">
<path fill="none" stroke="#63b8ff" d="M456.46,-41.09C448.73,-40.83 440.52,-40.72 432.38,-40.76"/>
<polygon fill="#63b8ff" stroke="#63b8ff" points="456.11,-44.58 466.26,-41.53 456.43,-37.59 456.11,-44.58"/>
</a>
</g>
</g>
<!-- Node7 -->
<g id="Node000007" class="node">
<title>Node7</title>
<g id="a_Node000007"><a xlink:href="namespaceCore.html#a8a3e4aa1d1921da2e211c43d5368acf1" target="_top" xlink:title=" ">
<polygon fill="white" stroke="#666666" points="402,-19.75 341,-19.75 341,-1.25 402,-1.25 402,-19.75"/>
<text xml:space="preserve" text-anchor="middle" x="371.5" y="-6.25" font-family="Helvetica,sans-Serif" font-size="10.00">Core::load</text>
</a>
</g>
</g>
<!-- Node3&#45;&gt;Node7 -->
<g id="edge7_Node000003_Node000007" class="edge">
<title>Node3&#45;&gt;Node7</title>
<g id="a_edge7_Node000003_Node000007"><a xlink:title=" ">
<path fill="none" stroke="#63b8ff" d="M456.75,-35.22C438.88,-29.97 418.44,-23.98 402.17,-19.2"/>
<polygon fill="#63b8ff" stroke="#63b8ff" points="455.74,-38.57 466.32,-38.02 457.71,-31.85 455.74,-38.57"/>
</a>
</g>
</g>
<!-- Node5 -->
<g id="Node000005" class="node">
<title>Node5</title>
<g id="a_Node000005"><a xlink:href="structApi_1_1SimulationInstance.html#afee07db8a6b57fe7982900ecaa943cc0" target="_top" xlink:title="Default constructor.">
<polygon fill="white" stroke="#666666" points="119.5,-96 0,-96 0,-67 119.5,-67 119.5,-96"/>
<text xml:space="preserve" text-anchor="start" x="8" y="-82.5" font-family="Helvetica,sans-Serif" font-size="10.00">Api::SimulationInstance</text>
<text xml:space="preserve" text-anchor="middle" x="59.75" y="-72" font-family="Helvetica,sans-Serif" font-size="10.00">::SimulationInstance</text>
</a>
</g>
</g>
<!-- Node4&#45;&gt;Node5 -->
<g id="edge4_Node000004_Node000005" class="edge">
<title>Node4&#45;&gt;Node5</title>
<g id="a_edge4_Node000004_Node000005"><a xlink:title=" ">
<path fill="none" stroke="#63b8ff" d="M143.99,-82.04C135.89,-81.99 127.69,-81.94 119.75,-81.88"/>
<polygon fill="#63b8ff" stroke="#63b8ff" points="143.81,-85.54 153.83,-82.11 143.85,-78.54 143.81,-85.54"/>
</a>
</g>
</g>
<!-- Node6&#45;&gt;Node3 -->
<g id="edge6_Node000006_Node000003" class="edge">
<title>Node6&#45;&gt;Node3</title>
<g id="a_edge6_Node000006_Node000003"><a xlink:title=" ">
<path fill="none" stroke="#63b8ff" d="M443.86,-54.2C452.23,-54.09 460.4,-53.83 467.77,-53.4"/>
<polygon fill="#63b8ff" stroke="#63b8ff" points="443.88,-50.7 433.89,-54.24 443.9,-57.7 443.88,-50.7"/>
</a>
</g>
</g>
<!-- Node8 -->
<g id="Node000008" class="node">
<title>Node8</title>
<g id="a_Node000008"><a xlink:href="structApi_1_1SimulationInstance.html#ad2abfa76ac4128d44b7c0c895f78b77b" target="_top" xlink:title="Load ad apply the simulation configuration and prepare for execution based on file.">
<polygon fill="white" stroke="#666666" points="275,-29 155.5,-29 155.5,0 275,0 275,-29"/>
<text xml:space="preserve" text-anchor="start" x="163.5" y="-15.5" font-family="Helvetica,sans-Serif" font-size="10.00">Api::SimulationInstance</text>
<text xml:space="preserve" text-anchor="middle" x="215.25" y="-5" font-family="Helvetica,sans-Serif" font-size="10.00">::apply_load</text>
</a>
</g>
</g>
<!-- Node7&#45;&gt;Node8 -->
<g id="edge8_Node000007_Node000008" class="edge">
<title>Node7&#45;&gt;Node8</title>
<g id="a_edge8_Node000007_Node000008"><a xlink:title=" ">
<path fill="none" stroke="#63b8ff" d="M329.26,-11.57C312.7,-12 293.29,-12.5 275.28,-12.97"/>
<polygon fill="#63b8ff" stroke="#63b8ff" points="329.34,-15.07 339.25,-11.31 329.16,-8.07 329.34,-15.07"/>
</a>
</g>
</g>
<!-- Node8&#45;&gt;Node5 -->
<g id="edge11_Node000008_Node000005" class="edge">
<title>Node8&#45;&gt;Node5</title>
<g id="a_edge11_Node000008_Node000005"><a xlink:title=" ">
<path fill="none" stroke="#63b8ff" d="M170.78,-33.93C154.69,-41.08 136.29,-49.21 119.5,-56.5 111.98,-59.77 103.89,-63.24 96.2,-66.51"/>
<polygon fill="#63b8ff" stroke="#63b8ff" points="171.88,-37.27 179.59,-30.01 169.04,-30.88 171.88,-37.27"/>
</a>
</g>
</g>
<!-- Node9 -->
<g id="Node000009" class="node">
<title>Node9</title>
<g id="a_Node000009"><a xlink:href="structApi_1_1SimulationInstance.html#a3398ddd22faa3ceb16b454c51faeced0" target="_top" xlink:title="Apply the simulation configuration and prepare for execution.">
<polygon fill="white" stroke="#666666" points="119.5,-29 0,-29 0,0 119.5,0 119.5,-29"/>
<text xml:space="preserve" text-anchor="start" x="8" y="-15.5" font-family="Helvetica,sans-Serif" font-size="10.00">Api::SimulationInstance</text>
<text xml:space="preserve" text-anchor="middle" x="59.75" y="-5" font-family="Helvetica,sans-Serif" font-size="10.00">::apply</text>
</a>
</g>
</g>
<!-- Node8&#45;&gt;Node9 -->
<g id="edge9_Node000008_Node000009" class="edge">
<title>Node8&#45;&gt;Node9</title>
<g id="a_edge9_Node000008_Node000009"><a xlink:title=" ">
<path fill="none" stroke="#63b8ff" d="M143.99,-14.5C135.89,-14.5 127.69,-14.5 119.75,-14.5"/>
<polygon fill="#63b8ff" stroke="#63b8ff" points="143.83,-18 153.83,-14.5 143.83,-11 143.83,-18"/>
</a>
</g>
</g>
<!-- Node9&#45;&gt;Node9 -->
<g id="edge10_Node000009_Node000009" class="edge">
<title>Node9&#45;&gt;Node9</title>
<g id="a_edge10_Node000009_Node000009"><a xlink:title=" ">
<path fill="none" stroke="#63b8ff" d="M86.14,-40.56C82,-44.41 73.2,-47 59.75,-47 35.15,-47 26.12,-38.32 32.65,-29.21"/>
<polygon fill="#63b8ff" stroke="#63b8ff" points="89.63,-40.92 86.76,-30.72 82.64,-40.48 89.63,-40.92"/>
</a>
</g>
</g>
</g>
</svg>
