<?xml version="1.0" encoding="UTF-8" standalone="no"?>
<!DOCTYPE svg PUBLIC "-//W3C//DTD SVG 1.1//EN"
 "http://www.w3.org/Graphics/SVG/1.1/DTD/svg11.dtd">
<!-- Generated by graphviz version 12.1.2 (0)
 -->
<!-- Title: Simulation::SimulationUnit::cycleProcess Pages: 1 -->
<svg width="508pt" height="262pt"
 viewBox="0.00 0.00 508.25 262.00" xmlns="http://www.w3.org/2000/svg" xmlns:xlink="http://www.w3.org/1999/xlink">
<g id="graph0" class="graph" transform="scale(1 1) rotate(0) translate(4 258)">
<title>Simulation::SimulationUnit::cycleProcess</title>
<!-- Node1 -->
<g id="Node000001" class="node">
<title>Node1</title>
<g id="a_Node000001"><a xlink:title=" ">
<polygon fill="#999999" stroke="#666666" points="131.5,-139 0,-139 0,-110 131.5,-110 131.5,-139"/>
<text text-anchor="start" x="8" y="-125.5" font-family="Helvetica,sans-Serif" font-size="10.00">Simulation::SimulationUnit</text>
<text text-anchor="middle" x="65.75" y="-115" font-family="Helvetica,sans-Serif" font-size="10.00">::cycleProcess</text>
</a>
</g>
</g>
<!-- Node2 -->
<g id="Node000002" class="node">
<title>Node2</title>
<g id="a_Node000002"><a xlink:href="classSimulation_1_1SimulationUnit.html#a9ea90cab13d8259f026f57baad1c989f" target="_top" xlink:title=" ">
<polygon fill="white" stroke="#666666" points="306.88,-254 175.38,-254 175.38,-225 306.88,-225 306.88,-254"/>
<text text-anchor="start" x="183.38" y="-240.5" font-family="Helvetica,sans-Serif" font-size="10.00">Simulation::SimulationUnit</text>
<text text-anchor="middle" x="241.12" y="-230" font-family="Helvetica,sans-Serif" font-size="10.00">::get_kernel_contribution</text>
</a>
</g>
</g>
<!-- Node1&#45;&gt;Node2 -->
<g id="edge1_Node000001_Node000002" class="edge">
<title>Node1&#45;&gt;Node2</title>
<g id="a_edge1_Node000001_Node000002"><a xlink:title=" ">
<path fill="none" stroke="#63b8ff" d="M79.24,-139.39C96.93,-159.59 131.19,-195.55 167.5,-216.5 169.56,-217.69 171.69,-218.82 173.86,-219.9"/>
<polygon fill="#63b8ff" stroke="#63b8ff" points="172.39,-223.08 182.95,-223.98 175.26,-216.69 172.39,-223.08"/>
</a>
</g>
</g>
<!-- Node3 -->
<g id="Node000003" class="node">
<title>Node3</title>
<g id="a_Node000003"><a xlink:href="classSimulation_1_1SimulationUnit.html#ac3b83e6fb1638ace3cbfa35833c1affc" target="_top" xlink:title=" ">
<polygon fill="white" stroke="#666666" points="314.75,-207 167.5,-207 167.5,-178 314.75,-178 314.75,-207"/>
<text text-anchor="start" x="175.5" y="-193.5" font-family="Helvetica,sans-Serif" font-size="10.00">Simulation::SimulationUnit</text>
<text text-anchor="middle" x="241.12" y="-183" font-family="Helvetica,sans-Serif" font-size="10.00">::get_kernel_cumulative_proba</text>
</a>
</g>
</g>
<!-- Node1&#45;&gt;Node3 -->
<g id="edge2_Node000001_Node000003" class="edge">
<title>Node1&#45;&gt;Node3</title>
<g id="a_edge2_Node000001_Node000003"><a xlink:title=" ">
<path fill="none" stroke="#63b8ff" d="M97.68,-139.41C117.42,-148.65 143.69,-160.44 167.5,-169.5 171.37,-170.97 175.39,-172.43 179.45,-173.85"/>
<polygon fill="#63b8ff" stroke="#63b8ff" points="178.22,-177.13 188.82,-177.04 180.48,-170.51 178.22,-177.13"/>
</a>
</g>
</g>
<!-- Node4 -->
<g id="Node000004" class="node">
<title>Node4</title>
<g id="a_Node000004"><a xlink:href="classSimulation_1_1SimulationUnit.html#a7f871ecc4425caa53838c0a620f3d686" target="_top" xlink:title=" ">
<polygon fill="white" stroke="#666666" points="306.88,-160 175.38,-160 175.38,-131 306.88,-131 306.88,-160"/>
<text text-anchor="start" x="183.38" y="-146.5" font-family="Helvetica,sans-Serif" font-size="10.00">Simulation::SimulationUnit</text>
<text text-anchor="middle" x="241.12" y="-136" font-family="Helvetica,sans-Serif" font-size="10.00">::get_kernel_diagonal</text>
</a>
</g>
</g>
<!-- Node1&#45;&gt;Node4 -->
<g id="edge3_Node000001_Node000004" class="edge">
<title>Node1&#45;&gt;Node4</title>
<g id="a_edge3_Node000001_Node000004"><a xlink:title=" ">
<path fill="none" stroke="#63b8ff" d="M131.8,-132.38C142.17,-133.64 152.99,-134.95 163.6,-136.23"/>
<polygon fill="#63b8ff" stroke="#63b8ff" points="163.15,-139.7 173.49,-137.43 163.99,-132.75 163.15,-139.7"/>
</a>
</g>
</g>
<!-- Node6 -->
<g id="Node000006" class="node">
<title>Node6</title>
<g id="a_Node000006"><a xlink:href="namespaceMC.html#a1364a4ba60d8fa8f050864199abb3369" target="_top" xlink:title=" ">
<polygon fill="white" stroke="#666666" points="283.62,-112.75 198.62,-112.75 198.62,-94.25 283.62,-94.25 283.62,-112.75"/>
<text text-anchor="middle" x="241.12" y="-99.25" font-family="Helvetica,sans-Serif" font-size="10.00">MC::get_policty</text>
</a>
</g>
</g>
<!-- Node1&#45;&gt;Node6 -->
<g id="edge5_Node000001_Node000006" class="edge">
<title>Node1&#45;&gt;Node6</title>
<g id="a_edge5_Node000001_Node000006"><a xlink:title=" ">
<path fill="none" stroke="#63b8ff" d="M131.8,-116.62C150.09,-114.41 169.75,-112.02 187.23,-109.91"/>
<polygon fill="#63b8ff" stroke="#63b8ff" points="187.36,-113.42 196.87,-108.74 186.52,-106.47 187.36,-113.42"/>
</a>
</g>
</g>
<!-- Node7 -->
<g id="Node000007" class="node">
<title>Node7</title>
<g id="a_Node000007"><a xlink:href="classSimulation_1_1SimulationUnit.html#aec187751497e8d91a87a03abbbb3598a" target="_top" xlink:title=" ">
<polygon fill="white" stroke="#666666" points="306.88,-76 175.38,-76 175.38,-47 306.88,-47 306.88,-76"/>
<text text-anchor="start" x="183.38" y="-62.5" font-family="Helvetica,sans-Serif" font-size="10.00">Simulation::SimulationUnit</text>
<text text-anchor="middle" x="241.12" y="-52" font-family="Helvetica,sans-Serif" font-size="10.00">::getkernel_concentration</text>
</a>
</g>
</g>
<!-- Node1&#45;&gt;Node7 -->
<g id="edge6_Node000001_Node000007" class="edge">
<title>Node1&#45;&gt;Node7</title>
<g id="a_edge6_Node000001_Node000007"><a xlink:title=" ">
<path fill="none" stroke="#63b8ff" d="M103.9,-109.61C122.85,-102.14 146.31,-93.1 167.5,-85.5 172.55,-83.69 177.81,-81.85 183.09,-80.05"/>
<polygon fill="#63b8ff" stroke="#63b8ff" points="184.12,-83.39 192.47,-76.87 181.87,-76.76 184.12,-83.39"/>
</a>
</g>
</g>
<!-- Node8 -->
<g id="Node000008" class="node">
<title>Node8</title>
<g id="a_Node000008"><a xlink:href="classSimulation_1_1SimulationUnit.html#ac396f393b4cf318b38364c5067254c80" target="_top" xlink:title=" ">
<polygon fill="white" stroke="#666666" points="312.88,-29 169.38,-29 169.38,0 312.88,0 312.88,-29"/>
<text text-anchor="start" x="177.38" y="-15.5" font-family="Helvetica,sans-Serif" font-size="10.00">Simulation::SimulationUnit</text>
<text text-anchor="middle" x="241.12" y="-5" font-family="Helvetica,sans-Serif" font-size="10.00">::set_kernel_contribs_to_host</text>
</a>
</g>
</g>
<!-- Node1&#45;&gt;Node8 -->
<g id="edge7_Node000001_Node000008" class="edge">
<title>Node1&#45;&gt;Node8</title>
<g id="a_edge7_Node000001_Node000008"><a xlink:title=" ">
<path fill="none" stroke="#63b8ff" d="M80.41,-109.73C98.62,-90.81 132.63,-58.13 167.5,-38.5 170.32,-36.91 173.26,-35.41 176.28,-33.99"/>
<polygon fill="#63b8ff" stroke="#63b8ff" points="177.55,-37.25 185.34,-30.08 174.78,-30.82 177.55,-37.25"/>
</a>
</g>
</g>
<!-- Node5 -->
<g id="Node000005" class="node">
<title>Node5</title>
<g id="a_Node000005"><a xlink:href="classCmaUtils_1_1PreCalculatedHydroState.html#ace3411b38e34196edd7f348454e214a1" target="_top" xlink:title="Get the kernel diagonal view.">
<polygon fill="white" stroke="#666666" points="500.25,-160 350.75,-160 350.75,-131 500.25,-131 500.25,-160"/>
<text text-anchor="start" x="358.75" y="-146.5" font-family="Helvetica,sans-Serif" font-size="10.00">CmaUtils::PreCalculatedHydro</text>
<text text-anchor="middle" x="425.5" y="-136" font-family="Helvetica,sans-Serif" font-size="10.00">State::get_kernel_diagonal</text>
</a>
</g>
</g>
<!-- Node4&#45;&gt;Node5 -->
<g id="edge4_Node000004_Node000005" class="edge">
<title>Node4&#45;&gt;Node5</title>
<g id="a_edge4_Node000004_Node000005"><a xlink:title=" ">
<path fill="none" stroke="#63b8ff" d="M307.19,-145.5C317.6,-145.5 328.49,-145.5 339.28,-145.5"/>
<polygon fill="#63b8ff" stroke="#63b8ff" points="338.94,-149 348.94,-145.5 338.94,-142 338.94,-149"/>
</a>
</g>
</g>
</g>
</svg>
