<?xml version="1.0" encoding="UTF-8" standalone="no"?>
<!DOCTYPE svg PUBLIC "-//W3C//DTD SVG 1.1//EN"
 "http://www.w3.org/Graphics/SVG/1.1/DTD/svg11.dtd">
<!-- Generated by graphviz version 14.0.1 (0)
 -->
<!-- Title: IO::Console::toggle_alert Pages: 1 -->
<svg width="407pt" height="138pt"
 viewBox="0.00 0.00 407.00 138.00" xmlns="http://www.w3.org/2000/svg" xmlns:xlink="http://www.w3.org/1999/xlink">

<svg id="main" version="1.1" xmlns="http://www.w3.org/2000/svg" xmlns:xlink="http://www.w3.org/1999/xlink" xml:space="preserve">

<style type="text/css"><![CDATA[
.node, .edge {opacity: 0.7;}
.node.selected, .edge.selected {opacity: 1;}
.edge:hover path { stroke: red; }
.edge:hover polygon { stroke: red; fill: red; }
]]></style>
<script type="application/ecmascript" xlink:href="svg.min.js"/>
<svg id="graph" class="graph">
<g id="graph0" class="graph" transform="scale(1 1) rotate(0) translate(4 133.5)">
<title>IO::Console::toggle_alert</title>
<!-- Node1 -->
<g id="Node000001" class="node">
<title>Node1</title>
<g id="a_Node000001"><a xlink:title=" ">
<polygon fill="#999999" stroke="#666666" points="399,-41.75 298.25,-41.75 298.25,-12.75 399,-12.75 399,-41.75"/>
<text xml:space="preserve" text-anchor="start" x="306.25" y="-28.25" font-family="Helvetica,sans-Serif" font-size="10.00">IO::Console::toggle</text>
<text xml:space="preserve" text-anchor="middle" x="348.62" y="-17.75" font-family="Helvetica,sans-Serif" font-size="10.00">_alert</text>
</a>
</g>
</g>
<!-- Node2 -->
<g id="Node000002" class="node">
<title>Node2</title>
<g id="a_Node000002"><a xlink:href="classIO_1_1Console.html#ad8e8490ed0b1b321bb75e9702c32fb8a" target="_top" xlink:title=" ">
<polygon fill="white" stroke="#666666" points="262.25,-55.5 151.75,-55.5 151.75,-37 262.25,-37 262.25,-55.5"/>
<text xml:space="preserve" text-anchor="middle" x="207" y="-42" font-family="Helvetica,sans-Serif" font-size="10.00">IO::Console::Console</text>
</a>
</g>
</g>
<!-- Node1&#45;&gt;Node2 -->
<g id="edge1_Node000001_Node000002" class="edge">
<title>Node1&#45;&gt;Node2</title>
<g id="a_edge1_Node000001_Node000002"><a xlink:title=" ">
<path fill="none" stroke="#63b8ff" d="M286.81,-35.53C278.78,-36.62 270.6,-37.73 262.68,-38.81"/>
<polygon fill="#63b8ff" stroke="#63b8ff" points="287.07,-39.02 296.51,-34.21 286.12,-32.09 287.07,-39.02"/>
</a>
</g>
</g>
<!-- Node5 -->
<g id="Node000005" class="node">
<title>Node5</title>
<g id="a_Node000005"><a xlink:href="classIO_1_1Console.html#aac82dc12f9d262c7f44b22fe6f2dd49b" target="_top" xlink:title=" ">
<polygon fill="white" stroke="#666666" points="115.75,-18.5 0,-18.5 0,0 115.75,0 115.75,-18.5"/>
<text xml:space="preserve" text-anchor="middle" x="57.88" y="-5" font-family="Helvetica,sans-Serif" font-size="10.00">IO::Console::operator=</text>
</a>
</g>
</g>
<!-- Node1&#45;&gt;Node5 -->
<g id="edge6_Node000001_Node000005" class="edge">
<title>Node1&#45;&gt;Node5</title>
<g id="a_edge6_Node000001_Node000005"><a xlink:title=" ">
<path fill="none" stroke="#63b8ff" d="M286.61,-23.45C236.25,-20.31 165.31,-15.88 116.03,-12.81"/>
<polygon fill="#63b8ff" stroke="#63b8ff" points="286.28,-26.93 296.48,-24.06 286.71,-19.95 286.28,-26.93"/>
</a>
</g>
</g>
<!-- Node3 -->
<g id="Node000003" class="node">
<title>Node3</title>
<g id="a_Node000003"><a xlink:href="classIO_1_1Console.html#afa53ede48496d2ff21c31a463d4c8e9e" target="_top" xlink:title=" ">
<polygon fill="white" stroke="#666666" points="113.12,-129.5 2.62,-129.5 2.62,-111 113.12,-111 113.12,-129.5"/>
<text xml:space="preserve" text-anchor="middle" x="57.88" y="-116" font-family="Helvetica,sans-Serif" font-size="10.00">IO::Console::Console</text>
</a>
</g>
</g>
<!-- Node2&#45;&gt;Node3 -->
<g id="edge2_Node000002_Node000003" class="edge">
<title>Node2&#45;&gt;Node3</title>
<g id="a_edge2_Node000002_Node000003"><a xlink:title=" ">
<path fill="none" stroke="#63b8ff" d="M182.97,-62.28C165.2,-74.16 139.68,-90.14 115.75,-101.25 108.29,-104.71 100.02,-107.85 92.15,-110.53"/>
<polygon fill="#63b8ff" stroke="#63b8ff" points="184.91,-65.2 191.22,-56.68 180.98,-59.4 184.91,-65.2"/>
</a>
</g>
</g>
<!-- Node4 -->
<g id="Node000004" class="node">
<title>Node4</title>
<g id="a_Node000004"><a xlink:href="classIO_1_1Console.html#af5e8a2459163188ad1da3430b88001b6" target="_top" xlink:title=" ">
<polygon fill="white" stroke="#666666" points="113.12,-92.5 2.62,-92.5 2.62,-74 113.12,-74 113.12,-92.5"/>
<text xml:space="preserve" text-anchor="middle" x="57.88" y="-79" font-family="Helvetica,sans-Serif" font-size="10.00">IO::Console::Console</text>
</a>
</g>
</g>
<!-- Node2&#45;&gt;Node4 -->
<g id="edge3_Node000002_Node000004" class="edge">
<title>Node2&#45;&gt;Node4</title>
<g id="a_edge3_Node000002_Node000004"><a xlink:title=" ">
<path fill="none" stroke="#63b8ff" d="M156.37,-58.73C137.17,-63.56 115.53,-69 97.53,-73.53"/>
<polygon fill="#63b8ff" stroke="#63b8ff" points="157.03,-62.17 165.88,-56.34 155.33,-55.39 157.03,-62.17"/>
</a>
</g>
</g>
<!-- Node2&#45;&gt;Node5 -->
<g id="edge4_Node000002_Node000005" class="edge">
<title>Node2&#45;&gt;Node5</title>
<g id="a_edge4_Node000002_Node000005"><a xlink:title=" ">
<path fill="none" stroke="#63b8ff" d="M156.37,-33.77C137.17,-28.94 115.53,-23.5 97.53,-18.97"/>
<polygon fill="#63b8ff" stroke="#63b8ff" points="155.33,-37.11 165.88,-36.16 157.03,-30.33 155.33,-37.11"/>
</a>
</g>
</g>
<!-- Node6 -->
<g id="Node000006" class="node">
<title>Node6</title>
<g id="a_Node000006"><a xlink:href="classIO_1_1Console.html#a2ae23124d355bfe39da66c91d3417caf" target="_top" xlink:title=" ">
<polygon fill="white" stroke="#666666" points="115.75,-55.5 0,-55.5 0,-37 115.75,-37 115.75,-55.5"/>
<text xml:space="preserve" text-anchor="middle" x="57.88" y="-42" font-family="Helvetica,sans-Serif" font-size="10.00">IO::Console::operator=</text>
</a>
</g>
</g>
<!-- Node2&#45;&gt;Node6 -->
<g id="edge5_Node000002_Node000006" class="edge">
<title>Node2&#45;&gt;Node6</title>
<g id="a_edge5_Node000002_Node000006"><a xlink:title=" ">
<path fill="none" stroke="#63b8ff" d="M140.29,-46.25C132.18,-46.25 123.94,-46.25 115.98,-46.25"/>
<polygon fill="#63b8ff" stroke="#63b8ff" points="140.12,-49.75 150.12,-46.25 140.12,-42.75 140.12,-49.75"/>
</a>
</g>
</g>
</g>
</svg>
</svg>

<style type='text/css'>
<![CDATA[
[data-mouse-over-selected='false'] { opacity: 0.7; }
[data-mouse-over-selected='true']  { opacity: 1.0; }
]]>
</style>
<script type="application/ecmascript"><![CDATA[
document.addEventListener('DOMContentLoaded', (event) => {
  highlightEdges();
  highlightAdjacentNodes();
});
]]></script>
</svg>
