<?xml version="1.0" encoding="UTF-8" standalone="no"?>
<!DOCTYPE svg PUBLIC "-//W3C//DTD SVG 1.1//EN"
 "http://www.w3.org/Graphics/SVG/1.1/DTD/svg11.dtd">
<!-- Generated by graphviz version 14.0.1 (0)
 -->
<!-- Title: Simulation::ScalarSimulation::ScalarSimulation Pages: 1 -->
<svg width="327pt" height="84pt"
 viewBox="0.00 0.00 327.00 84.00" xmlns="http://www.w3.org/2000/svg" xmlns:xlink="http://www.w3.org/1999/xlink">
<g id="graph0" class="graph" transform="scale(1 1) rotate(0) translate(4 80)">
<title>Simulation::ScalarSimulation::ScalarSimulation</title>
<!-- Node1 -->
<g id="Node000001" class="node">
<title>Node1</title>
<g id="a_Node000001"><a xlink:title=" ">
<polygon fill="#999999" stroke="#666666" points="141.25,-52 0,-52 0,-23 141.25,-23 141.25,-52"/>
<text xml:space="preserve" text-anchor="start" x="8" y="-38.5" font-family="Helvetica,sans-Serif" font-size="10.00">Simulation::ScalarSimulation</text>
<text xml:space="preserve" text-anchor="middle" x="70.62" y="-28" font-family="Helvetica,sans-Serif" font-size="10.00">::ScalarSimulation</text>
</a>
</g>
</g>
<!-- Node2 -->
<g id="Node000002" class="node">
<title>Node2</title>
<g id="a_Node000002"><a xlink:href="classSimulation_1_1ScalarSimulation.html#a5ca5e122100fad91f418cbbea5bbb439" target="_top" xlink:title=" ">
<polygon fill="white" stroke="#666666" points="318.5,-76 177.25,-76 177.25,-47 318.5,-47 318.5,-76"/>
<text xml:space="preserve" text-anchor="start" x="185.25" y="-62.5" font-family="Helvetica,sans-Serif" font-size="10.00">Simulation::ScalarSimulation</text>
<text xml:space="preserve" text-anchor="middle" x="247.88" y="-52" font-family="Helvetica,sans-Serif" font-size="10.00">::n_col</text>
</a>
</g>
</g>
<!-- Node1&#45;&gt;Node2 -->
<g id="edge1_Node000001_Node000002" class="edge">
<title>Node1&#45;&gt;Node2</title>
<g id="a_edge1_Node000001_Node000002"><a xlink:title=" ">
<path fill="none" stroke="#63b8ff" d="M141.64,-47.09C149.55,-48.17 157.65,-49.28 165.69,-50.38"/>
<polygon fill="#63b8ff" stroke="#63b8ff" points="165.09,-53.83 175.47,-51.72 166.04,-46.9 165.09,-53.83"/>
</a>
</g>
</g>
<!-- Node3 -->
<g id="Node000003" class="node">
<title>Node3</title>
<g id="a_Node000003"><a xlink:href="classSimulation_1_1ScalarSimulation.html#aab5e48f3385a40d87dd678103097ec06" target="_top" xlink:title=" ">
<polygon fill="white" stroke="#666666" points="318.5,-29 177.25,-29 177.25,0 318.5,0 318.5,-29"/>
<text xml:space="preserve" text-anchor="start" x="185.25" y="-15.5" font-family="Helvetica,sans-Serif" font-size="10.00">Simulation::ScalarSimulation</text>
<text xml:space="preserve" text-anchor="middle" x="247.88" y="-5" font-family="Helvetica,sans-Serif" font-size="10.00">::n_row</text>
</a>
</g>
</g>
<!-- Node1&#45;&gt;Node3 -->
<g id="edge2_Node000001_Node000003" class="edge">
<title>Node1&#45;&gt;Node3</title>
<g id="a_edge2_Node000001_Node000003"><a xlink:title=" ">
<path fill="none" stroke="#63b8ff" d="M141.64,-28.31C149.55,-27.27 157.65,-26.21 165.69,-25.16"/>
<polygon fill="#63b8ff" stroke="#63b8ff" points="166.01,-28.64 175.47,-23.87 165.1,-21.7 166.01,-28.64"/>
</a>
</g>
</g>
</g>
</svg>
