<?xml version="1.0" encoding="UTF-8" standalone="no"?>
<!DOCTYPE svg PUBLIC "-//W3C//DTD SVG 1.1//EN"
 "http://www.w3.org/Graphics/SVG/1.1/DTD/svg11.dtd">
<!-- Generated by graphviz version 14.0.1 (0)
 -->
<!-- Title: Core::GlobalInitialiser::init_transitionner Pages: 1 -->
<svg width="721pt" height="178pt"
 viewBox="0.00 0.00 721.00 178.00" xmlns="http://www.w3.org/2000/svg" xmlns:xlink="http://www.w3.org/1999/xlink">
<g id="graph0" class="graph" transform="scale(1 1) rotate(0) translate(4 174)">
<title>Core::GlobalInitialiser::init_transitionner</title>
<!-- Node1 -->
<g id="Node000001" class="node">
<title>Node1</title>
<g id="a_Node000001"><a xlink:title="Initializes a transitioner with the provided flow iterator.">
<polygon fill="#999999" stroke="#666666" points="109.75,-101 0,-101 0,-72 109.75,-72 109.75,-101"/>
<text xml:space="preserve" text-anchor="start" x="8" y="-87.5" font-family="Helvetica,sans-Serif" font-size="10.00">Core::GlobalInitialiser</text>
<text xml:space="preserve" text-anchor="middle" x="54.88" y="-77" font-family="Helvetica,sans-Serif" font-size="10.00">::init_transitionner</text>
</a>
</g>
</g>
<!-- Node2 -->
<g id="Node000002" class="node">
<title>Node2</title>
<g id="a_Node000002"><a xlink:href="classCore_1_1GlobalInitialiser.html#a5134f9db1f59d9124d5fdec88e3e99f3" target="_top" xlink:title="Checks the validity of specified initialization steps.">
<polygon fill="white" stroke="#666666" points="421.5,-170 311.75,-170 311.75,-141 421.5,-141 421.5,-170"/>
<text xml:space="preserve" text-anchor="start" x="319.75" y="-156.5" font-family="Helvetica,sans-Serif" font-size="10.00">Core::GlobalInitialiser</text>
<text xml:space="preserve" text-anchor="middle" x="366.62" y="-146" font-family="Helvetica,sans-Serif" font-size="10.00">::check_steps</text>
</a>
</g>
</g>
<!-- Node1&#45;&gt;Node2 -->
<g id="edge1_Node000001_Node000002" class="edge">
<title>Node1&#45;&gt;Node2</title>
<g id="a_edge1_Node000001_Node000002"><a xlink:title=" ">
<path fill="none" stroke="#63b8ff" d="M84.68,-101.41C101.96,-109.74 124.62,-119.59 145.75,-125.5 196.61,-139.71 256.04,-147.31 300.28,-151.29"/>
<polygon fill="#63b8ff" stroke="#63b8ff" points="299.7,-154.76 309.97,-152.13 300.3,-147.78 299.7,-154.76"/>
</a>
</g>
</g>
<!-- Node3 -->
<g id="Node000003" class="node">
<title>Node3</title>
<g id="a_Node000003"><a xlink:href="namespaceCmaUtils.html#a4db0dd1b3866bccb91f532fd68959905" target="_top" xlink:title="Transition factory according to the given method.">
<polygon fill="white" stroke="#666666" points="275.75,-116.75 145.75,-116.75 145.75,-98.25 275.75,-98.25 275.75,-116.75"/>
<text xml:space="preserve" text-anchor="middle" x="210.75" y="-103.25" font-family="Helvetica,sans-Serif" font-size="10.00">CmaUtils::get_transitioner</text>
</a>
</g>
</g>
<!-- Node1&#45;&gt;Node3 -->
<g id="edge2_Node000001_Node000003" class="edge">
<title>Node1&#45;&gt;Node3</title>
<g id="a_edge2_Node000001_Node000003"><a xlink:title=" ">
<path fill="none" stroke="#63b8ff" d="M110.13,-93.9C117.89,-94.96 125.99,-96.07 134.07,-97.17"/>
<polygon fill="#63b8ff" stroke="#63b8ff" points="133.57,-100.64 143.95,-98.52 134.52,-93.7 133.57,-100.64"/>
</a>
</g>
</g>
<!-- Node4 -->
<g id="Node000004" class="node">
<title>Node4</title>
<g id="a_Node000004"><a xlink:href="classCore_1_1GlobalInitialiser.html#a212a55abe2b9cb558932ba82e4cf6dbf" target="_top" xlink:title="Initializes the simulation state.">
<polygon fill="white" stroke="#666666" points="265.62,-80 155.88,-80 155.88,-51 265.62,-51 265.62,-80"/>
<text xml:space="preserve" text-anchor="start" x="163.88" y="-66.5" font-family="Helvetica,sans-Serif" font-size="10.00">Core::GlobalInitialiser</text>
<text xml:space="preserve" text-anchor="middle" x="210.75" y="-56" font-family="Helvetica,sans-Serif" font-size="10.00">::init_state</text>
</a>
</g>
</g>
<!-- Node1&#45;&gt;Node4 -->
<g id="edge3_Node000001_Node000004" class="edge">
<title>Node1&#45;&gt;Node4</title>
<g id="a_edge3_Node000001_Node000004"><a xlink:title=" ">
<path fill="none" stroke="#63b8ff" d="M110.13,-79.1C121.16,-77.59 132.87,-75.99 144.25,-74.44"/>
<polygon fill="#63b8ff" stroke="#63b8ff" points="144.54,-77.93 153.97,-73.11 143.59,-71 144.54,-77.93"/>
</a>
</g>
</g>
<!-- Node11 -->
<g id="Node000011" class="node">
<title>Node11</title>
<g id="a_Node000011"><a xlink:href="classCore_1_1GlobalInitialiser.html#a3844076c910ed26f60f42bada71cc09e" target="_top" xlink:title="Validates the specified initialization step and any additional steps.">
<polygon fill="white" stroke="#666666" points="421.5,-29 311.75,-29 311.75,0 421.5,0 421.5,-29"/>
<text xml:space="preserve" text-anchor="start" x="319.75" y="-15.5" font-family="Helvetica,sans-Serif" font-size="10.00">Core::GlobalInitialiser</text>
<text xml:space="preserve" text-anchor="middle" x="366.62" y="-5" font-family="Helvetica,sans-Serif" font-size="10.00">::validate_step</text>
</a>
</g>
</g>
<!-- Node1&#45;&gt;Node11 -->
<g id="edge13_Node000001_Node000011" class="edge">
<title>Node1&#45;&gt;Node11</title>
<g id="a_edge13_Node000001_Node000011"><a xlink:title=" ">
<path fill="none" stroke="#63b8ff" d="M80.54,-71.67C98.11,-61.8 122.62,-49.43 145.75,-42.5 196.28,-27.37 255.73,-20.41 300.07,-17.22"/>
<polygon fill="#63b8ff" stroke="#63b8ff" points="300.03,-20.73 309.78,-16.57 299.56,-13.74 300.03,-20.73"/>
</a>
</g>
</g>
<!-- Node4&#45;&gt;Node2 -->
<g id="edge4_Node000004_Node000002" class="edge">
<title>Node4&#45;&gt;Node2</title>
<g id="a_edge4_Node000004_Node000002"><a xlink:title=" ">
<path fill="none" stroke="#63b8ff" d="M259.97,-80.45C265.52,-83.07 270.91,-86.07 275.75,-89.5 296.09,-103.91 291.74,-117.64 311.75,-132.5 312.88,-133.34 314.04,-134.15 315.22,-134.94"/>
<polygon fill="#63b8ff" stroke="#63b8ff" points="313.06,-137.73 323.46,-139.77 316.6,-131.69 313.06,-137.73"/>
</a>
</g>
</g>
<!-- Node5 -->
<g id="Node000005" class="node">
<title>Node5</title>
<g id="a_Node000005"><a xlink:href="classCore_1_1GlobalInitialiser.html#ad6c43546eb4230a024ef3a43c470a9c5" target="_top" xlink:title="Host speciffic state init.">
<polygon fill="white" stroke="#666666" points="421.5,-123 311.75,-123 311.75,-94 421.5,-94 421.5,-123"/>
<text xml:space="preserve" text-anchor="start" x="319.75" y="-109.5" font-family="Helvetica,sans-Serif" font-size="10.00">Core::GlobalInitialiser</text>
<text xml:space="preserve" text-anchor="middle" x="366.62" y="-99" font-family="Helvetica,sans-Serif" font-size="10.00">::host_init_state</text>
</a>
</g>
</g>
<!-- Node4&#45;&gt;Node5 -->
<g id="edge5_Node000004_Node000005" class="edge">
<title>Node4&#45;&gt;Node5</title>
<g id="a_edge5_Node000004_Node000005"><a xlink:title=" ">
<path fill="none" stroke="#63b8ff" d="M265.14,-80.42C276.77,-83.67 289.19,-87.14 301.2,-90.5"/>
<polygon fill="#63b8ff" stroke="#63b8ff" points="300.04,-93.81 310.62,-93.13 301.93,-87.07 300.04,-93.81"/>
</a>
</g>
</g>
<!-- Node6 -->
<g id="Node000006" class="node">
<title>Node6</title>
<g id="a_Node000006"><a xlink:href="classCore_1_1GlobalInitialiser.html#aa042e8d396a5287c49fb6a8b81eba209" target="_top" xlink:title="Performs MPI broadcast for synchronization.">
<polygon fill="white" stroke="#666666" points="421.5,-76 311.75,-76 311.75,-47 421.5,-47 421.5,-76"/>
<text xml:space="preserve" text-anchor="start" x="319.75" y="-62.5" font-family="Helvetica,sans-Serif" font-size="10.00">Core::GlobalInitialiser</text>
<text xml:space="preserve" text-anchor="middle" x="366.62" y="-52" font-family="Helvetica,sans-Serif" font-size="10.00">::mpi_broadcast</text>
</a>
</g>
</g>
<!-- Node4&#45;&gt;Node6 -->
<g id="edge6_Node000004_Node000006" class="edge">
<title>Node4&#45;&gt;Node6</title>
<g id="a_edge6_Node000004_Node000006"><a xlink:title=" ">
<path fill="none" stroke="#63b8ff" d="M266,-64.09C277.03,-63.8 288.75,-63.5 300.12,-63.2"/>
<polygon fill="#63b8ff" stroke="#63b8ff" points="299.93,-66.71 309.83,-62.95 299.75,-59.71 299.93,-66.71"/>
</a>
</g>
</g>
<!-- Node4&#45;&gt;Node11 -->
<g id="edge12_Node000004_Node000011" class="edge">
<title>Node4&#45;&gt;Node11</title>
<g id="a_edge12_Node000004_Node000011"><a xlink:title=" ">
<path fill="none" stroke="#63b8ff" d="M256.67,-50.61C273.27,-45.11 292.3,-38.8 309.75,-33.02"/>
<polygon fill="#63b8ff" stroke="#63b8ff" points="310.55,-36.44 318.95,-29.97 308.35,-29.8 310.55,-36.44"/>
</a>
</g>
</g>
<!-- Node7 -->
<g id="Node000007" class="node">
<title>Node7</title>
<g id="a_Node000007"><a xlink:href="namespaceWrapMPI.html#a1a08bbe69602ac2f4f38e1a0d45275cb" target="_top" xlink:title=" ">
<polygon fill="white" stroke="#666666" points="554.12,-107.75 465.38,-107.75 465.38,-89.25 554.12,-89.25 554.12,-107.75"/>
<text xml:space="preserve" text-anchor="middle" x="509.75" y="-94.25" font-family="Helvetica,sans-Serif" font-size="10.00">WrapMPI::barrier</text>
</a>
</g>
</g>
<!-- Node6&#45;&gt;Node7 -->
<g id="edge7_Node000006_Node000007" class="edge">
<title>Node6&#45;&gt;Node7</title>
<g id="a_edge7_Node000006_Node000007"><a xlink:title=" ">
<path fill="none" stroke="#63b8ff" d="M421.78,-75.7C434.52,-79.04 448.01,-82.58 460.47,-85.84"/>
<polygon fill="#63b8ff" stroke="#63b8ff" points="459.54,-89.22 470.1,-88.37 461.32,-82.45 459.54,-89.22"/>
</a>
</g>
</g>
<!-- Node8 -->
<g id="Node000008" class="node">
<title>Node8</title>
<g id="a_Node000008"><a xlink:href="namespaceWrapMPI.html#aa924ad0d911109a9e6e3a20bebc3b316" target="_top" xlink:title=" ">
<polygon fill="white" stroke="#666666" points="713,-88.75 598,-88.75 598,-70.25 713,-70.25 713,-88.75"/>
<text xml:space="preserve" text-anchor="middle" x="655.5" y="-75.25" font-family="Helvetica,sans-Serif" font-size="10.00">WrapMPI::critical_error</text>
</a>
</g>
</g>
<!-- Node6&#45;&gt;Node8 -->
<g id="edge11_Node000006_Node000008" class="edge">
<title>Node6&#45;&gt;Node8</title>
<g id="a_edge11_Node000006_Node000008"><a xlink:title=" ">
<path fill="none" stroke="#63b8ff" d="M421.92,-64.91C468.64,-67.84 536.26,-72.08 586.55,-75.24"/>
<polygon fill="#63b8ff" stroke="#63b8ff" points="586.26,-78.73 596.46,-75.86 586.7,-71.74 586.26,-78.73"/>
</a>
</g>
</g>
<!-- Node9 -->
<g id="Node000009" class="node">
<title>Node9</title>
<g id="a_Node000009"><a xlink:href="namespaceWrapMPI.html#a372df5351a2085df252cc9f4cceae7de" target="_top" xlink:title="Broadcasts a single data item to all processes.">
<polygon fill="white" stroke="#666666" points="562,-33.75 457.5,-33.75 457.5,-15.25 562,-15.25 562,-33.75"/>
<text xml:space="preserve" text-anchor="middle" x="509.75" y="-20.25" font-family="Helvetica,sans-Serif" font-size="10.00">WrapMPI::broadcast</text>
</a>
</g>
</g>
<!-- Node6&#45;&gt;Node9 -->
<g id="edge9_Node000006_Node000009" class="edge">
<title>Node6&#45;&gt;Node9</title>
<g id="a_edge9_Node000006_Node000009"><a xlink:title=" ">
<path fill="none" stroke="#63b8ff" d="M421.78,-47.3C434.52,-43.96 448.01,-40.42 460.47,-37.16"/>
<polygon fill="#63b8ff" stroke="#63b8ff" points="461.32,-40.55 470.1,-34.63 459.54,-33.78 461.32,-40.55"/>
</a>
</g>
</g>
<!-- Node7&#45;&gt;Node8 -->
<g id="edge8_Node000007_Node000008" class="edge">
<title>Node7&#45;&gt;Node8</title>
<g id="a_edge8_Node000007_Node000008"><a xlink:title=" ">
<path fill="none" stroke="#63b8ff" d="M554.27,-92.75C564.39,-91.41 575.4,-89.95 586.3,-88.51"/>
<polygon fill="#63b8ff" stroke="#63b8ff" points="586.62,-92 596.08,-87.22 585.7,-85.06 586.62,-92"/>
</a>
</g>
</g>
<!-- Node10 -->
<g id="Node000010" class="node">
<title>Node10</title>
<g id="a_Node000010"><a xlink:href="namespaceWrapMPI.html#adab3300a86b8c0227268b23134b57a24" target="_top" xlink:title=" ">
<polygon fill="white" stroke="#666666" points="705.12,-33.75 605.88,-33.75 605.88,-15.25 705.12,-15.25 705.12,-33.75"/>
<text xml:space="preserve" text-anchor="middle" x="655.5" y="-20.25" font-family="Helvetica,sans-Serif" font-size="10.00">WrapMPI::get_type</text>
</a>
</g>
</g>
<!-- Node9&#45;&gt;Node10 -->
<g id="edge10_Node000009_Node000010" class="edge">
<title>Node9&#45;&gt;Node10</title>
<g id="a_edge10_Node000009_Node000010"><a xlink:title=" ">
<path fill="none" stroke="#63b8ff" d="M562.24,-24.5C572.65,-24.5 583.69,-24.5 594.37,-24.5"/>
<polygon fill="#63b8ff" stroke="#63b8ff" points="594.26,-28 604.26,-24.5 594.26,-21 594.26,-28"/>
</a>
</g>
</g>
</g>
</svg>
