<?xml version="1.0" encoding="UTF-8" standalone="no"?>
<!DOCTYPE svg PUBLIC "-//W3C//DTD SVG 1.1//EN"
 "http://www.w3.org/Graphics/SVG/1.1/DTD/svg11.dtd">
<!-- Generated by graphviz version 12.1.2 (0)
 -->
<!-- Title: CmaUtils::FlowMapTransitionner::need_liquid_state_calculation Pages: 1 -->
<svg width="556pt" height="84pt"
 viewBox="0.00 0.00 555.50 84.00" xmlns="http://www.w3.org/2000/svg" xmlns:xlink="http://www.w3.org/1999/xlink">
<g id="graph0" class="graph" transform="scale(1 1) rotate(0) translate(4 80)">
<title>CmaUtils::FlowMapTransitionner::need_liquid_state_calculation</title>
<!-- Node1 -->
<g id="Node000001" class="node">
<title>Node1</title>
<g id="a_Node000001"><a xlink:title="Check if liquid state has to calculated or can be use via caching.">
<polygon fill="#999999" stroke="#666666" points="547.5,-52 389,-52 389,-23 547.5,-23 547.5,-52"/>
<text text-anchor="start" x="397" y="-38.5" font-family="Helvetica,sans-Serif" font-size="10.00">CmaUtils::FlowMapTransitionner</text>
<text text-anchor="middle" x="468.25" y="-28" font-family="Helvetica,sans-Serif" font-size="10.00">::need_liquid_state_calculation</text>
</a>
</g>
</g>
<!-- Node2 -->
<g id="Node000002" class="node">
<title>Node2</title>
<g id="a_Node000002"><a xlink:href="classCmaUtils_1_1DiscontinuousFMT.html#a5b9b0e3ef2d5812a9e605f1dbb9214d6" target="_top" xlink:title="Calculate the current state based on the selected method, may be caching or direct calculation.">
<polygon fill="white" stroke="#666666" points="346.62,-76 200.88,-76 200.88,-47 346.62,-47 346.62,-76"/>
<text text-anchor="start" x="208.88" y="-62.5" font-family="Helvetica,sans-Serif" font-size="10.00">CmaUtils::DiscontinuousFMT</text>
<text text-anchor="middle" x="273.75" y="-52" font-family="Helvetica,sans-Serif" font-size="10.00">::update_flow</text>
</a>
</g>
</g>
<!-- Node1&#45;&gt;Node2 -->
<g id="edge1_Node000001_Node000002" class="edge">
<title>Node1&#45;&gt;Node2</title>
<g id="a_edge1_Node000001_Node000002"><a xlink:title=" ">
<path fill="none" stroke="#63b8ff" d="M377.57,-48.68C367.28,-49.96 356.89,-51.26 346.88,-52.51"/>
<polygon fill="#63b8ff" stroke="#63b8ff" points="377.68,-52.19 387.17,-47.48 376.82,-45.25 377.68,-52.19"/>
</a>
</g>
</g>
<!-- Node3 -->
<g id="Node000003" class="node">
<title>Node3</title>
<g id="a_Node000003"><a xlink:href="classCmaUtils_1_1FlowMapTransitionner.html#ab55d6efef4c6d0c9e5d42e86f9ff8ae1" target="_top" xlink:title="ONLY for MPI_WORKER Calculate the current state based on the selected method, may be caching or direc...">
<polygon fill="white" stroke="#666666" points="353,-29 194.5,-29 194.5,0 353,0 353,-29"/>
<text text-anchor="start" x="202.5" y="-15.5" font-family="Helvetica,sans-Serif" font-size="10.00">CmaUtils::FlowMapTransitionner</text>
<text text-anchor="middle" x="273.75" y="-5" font-family="Helvetica,sans-Serif" font-size="10.00">::update_flow_worker</text>
</a>
</g>
</g>
<!-- Node1&#45;&gt;Node3 -->
<g id="edge2_Node000001_Node000003" class="edge">
<title>Node1&#45;&gt;Node3</title>
<g id="a_edge2_Node000001_Node000003"><a xlink:title=" ">
<path fill="none" stroke="#63b8ff" d="M377.4,-26.76C369.38,-25.81 361.3,-24.84 353.39,-23.9"/>
<polygon fill="#63b8ff" stroke="#63b8ff" points="376.83,-30.22 387.17,-27.93 377.66,-23.27 376.83,-30.22"/>
</a>
</g>
</g>
<!-- Node4 -->
<g id="Node000004" class="node">
<title>Node4</title>
<g id="a_Node000004"><a xlink:href="classCmaUtils_1_1FlowMapTransitionner.html#ae189e6d1156fa712175a8673e332c480" target="_top" xlink:title="Advances the simulation by one timestep from a MPI Wroker.">
<polygon fill="white" stroke="#666666" points="158.5,-29 0,-29 0,0 158.5,0 158.5,-29"/>
<text text-anchor="start" x="8" y="-15.5" font-family="Helvetica,sans-Serif" font-size="10.00">CmaUtils::FlowMapTransitionner</text>
<text text-anchor="middle" x="79.25" y="-5" font-family="Helvetica,sans-Serif" font-size="10.00">::advance_worker</text>
</a>
</g>
</g>
<!-- Node3&#45;&gt;Node4 -->
<g id="edge3_Node000003_Node000004" class="edge">
<title>Node3&#45;&gt;Node4</title>
<g id="a_edge3_Node000003_Node000004"><a xlink:title=" ">
<path fill="none" stroke="#63b8ff" d="M182.9,-14.5C174.88,-14.5 166.8,-14.5 158.89,-14.5"/>
<polygon fill="#63b8ff" stroke="#63b8ff" points="182.66,-18 192.66,-14.5 182.66,-11 182.66,-18"/>
</a>
</g>
</g>
</g>
</svg>
