<?xml version="1.0" encoding="UTF-8" standalone="no"?>
<!DOCTYPE svg PUBLIC "-//W3C//DTD SVG 1.1//EN"
 "http://www.w3.org/Graphics/SVG/1.1/DTD/svg11.dtd">
<!-- Generated by graphviz version 14.0.1 (0)
 -->
<!-- Title: Simulation::SimulationUnit::getkernel_concentration Pages: 1 -->
<svg width="475pt" height="120pt"
 viewBox="0.00 0.00 475.00 120.00" xmlns="http://www.w3.org/2000/svg" xmlns:xlink="http://www.w3.org/1999/xlink">
<g id="graph0" class="graph" transform="scale(1 1) rotate(0) translate(4 116)">
<title>Simulation::SimulationUnit::getkernel_concentration</title>
<!-- Node1 -->
<g id="Node000001" class="node">
<title>Node1</title>
<g id="a_Node000001"><a xlink:title=" ">
<polygon fill="#999999" stroke="#666666" points="466.5,-61 335,-61 335,-32 466.5,-32 466.5,-61"/>
<text xml:space="preserve" text-anchor="start" x="343" y="-47.5" font-family="Helvetica,sans-Serif" font-size="10.00">Simulation::SimulationUnit</text>
<text xml:space="preserve" text-anchor="middle" x="400.75" y="-37" font-family="Helvetica,sans-Serif" font-size="10.00">::getkernel_concentration</text>
</a>
</g>
</g>
<!-- Node2 -->
<g id="Node000002" class="node">
<title>Node2</title>
<g id="a_Node000002"><a xlink:href="classSimulation_1_1SimulationUnit.html#aa5b0aeaaa6821ce494fe23bd33ae316a" target="_top" xlink:title=" ">
<polygon fill="white" stroke="#666666" points="299,-94 167.5,-94 167.5,-65 299,-65 299,-94"/>
<text xml:space="preserve" text-anchor="start" x="175.5" y="-80.5" font-family="Helvetica,sans-Serif" font-size="10.00">Simulation::SimulationUnit</text>
<text xml:space="preserve" text-anchor="middle" x="233.25" y="-70" font-family="Helvetica,sans-Serif" font-size="10.00">::init_functors</text>
</a>
</g>
</g>
<!-- Node1&#45;&gt;Node2 -->
<g id="edge1_Node000001_Node000002" class="edge">
<title>Node1&#45;&gt;Node2</title>
<g id="a_edge1_Node000001_Node000002"><a xlink:title=" ">
<path fill="none" stroke="#63b8ff" d="M323.75,-61.65C315.57,-63.29 307.3,-64.93 299.27,-66.54"/>
<polygon fill="#63b8ff" stroke="#63b8ff" points="324.21,-65.13 333.33,-59.74 322.84,-58.27 324.21,-65.13"/>
</a>
</g>
</g>
<!-- Node4 -->
<g id="Node000004" class="node">
<title>Node4</title>
<g id="a_Node000004"><a xlink:href="classSimulation_1_1SimulationUnit.html#a6ebf53048a2d93f04504352c79660c79" target="_top" xlink:title=" ">
<polygon fill="white" stroke="#666666" points="299,-29 167.5,-29 167.5,0 299,0 299,-29"/>
<text xml:space="preserve" text-anchor="start" x="175.5" y="-15.5" font-family="Helvetica,sans-Serif" font-size="10.00">Simulation::SimulationUnit</text>
<text xml:space="preserve" text-anchor="middle" x="233.25" y="-5" font-family="Helvetica,sans-Serif" font-size="10.00">::setGasFlow</text>
</a>
</g>
</g>
<!-- Node1&#45;&gt;Node4 -->
<g id="edge4_Node000001_Node000004" class="edge">
<title>Node1&#45;&gt;Node4</title>
<g id="a_edge4_Node000001_Node000004"><a xlink:title=" ">
<path fill="none" stroke="#63b8ff" d="M323.75,-31.8C315.57,-30.22 307.3,-28.62 299.27,-27.07"/>
<polygon fill="#63b8ff" stroke="#63b8ff" points="322.85,-35.2 333.33,-33.66 324.18,-28.32 322.85,-35.2"/>
</a>
</g>
</g>
<!-- Node3 -->
<g id="Node000003" class="node">
<title>Node3</title>
<g id="a_Node000003"><a xlink:href="classSimulation_1_1SimulationUnit.html#a1e1145d8e7deae618cc0452e690c6f7a" target="_top" xlink:title=" ">
<polygon fill="white" stroke="#666666" points="131.5,-94 0,-94 0,-65 131.5,-65 131.5,-94"/>
<text xml:space="preserve" text-anchor="start" x="8" y="-80.5" font-family="Helvetica,sans-Serif" font-size="10.00">Simulation::SimulationUnit</text>
<text xml:space="preserve" text-anchor="middle" x="65.75" y="-70" font-family="Helvetica,sans-Serif" font-size="10.00">::init_functor</text>
</a>
</g>
</g>
<!-- Node2&#45;&gt;Node3 -->
<g id="edge2_Node000002_Node000003" class="edge">
<title>Node2&#45;&gt;Node3</title>
<g id="a_edge2_Node000002_Node000003"><a xlink:title=" ">
<path fill="none" stroke="#63b8ff" d="M155.97,-79.5C147.88,-79.5 139.71,-79.5 131.77,-79.5"/>
<polygon fill="#63b8ff" stroke="#63b8ff" points="155.8,-83 165.8,-79.5 155.8,-76 155.8,-83"/>
</a>
</g>
</g>
<!-- Node3&#45;&gt;Node3 -->
<g id="edge3_Node000003_Node000003" class="edge">
<title>Node3&#45;&gt;Node3</title>
<g id="a_edge3_Node000003_Node000003"><a xlink:title=" ">
<path fill="none" stroke="#63b8ff" d="M94.18,-105.56C89.72,-109.41 80.24,-112 65.75,-112 39.25,-112 29.52,-103.32 36.56,-94.21"/>
<polygon fill="#63b8ff" stroke="#63b8ff" points="97.66,-105.93 94.84,-95.72 90.68,-105.46 97.66,-105.93"/>
</a>
</g>
</g>
<!-- Node4&#45;&gt;Node4 -->
<g id="edge5_Node000004_Node000004" class="edge">
<title>Node4&#45;&gt;Node4</title>
<g id="a_edge5_Node000004_Node000004"><a xlink:title=" ">
<path fill="none" stroke="#63b8ff" d="M261.68,-40.56C257.22,-44.41 247.74,-47 233.25,-47 206.75,-47 197.02,-38.32 204.06,-29.21"/>
<polygon fill="#63b8ff" stroke="#63b8ff" points="265.16,-40.93 262.34,-30.72 258.18,-40.46 265.16,-40.93"/>
</a>
</g>
</g>
</g>
</svg>
