<?xml version="1.0" encoding="UTF-8" standalone="no"?>
<!DOCTYPE svg PUBLIC "-//W3C//DTD SVG 1.1//EN"
 "http://www.w3.org/Graphics/SVG/1.1/DTD/svg11.dtd">
<!-- Generated by graphviz version 14.0.1 (0)
 -->
<!-- Title: HostImportantLoadBalancer::HostImportantLoadBalancer Pages: 1 -->
<svg width="335pt" height="64pt"
 viewBox="0.00 0.00 335.00 64.00" xmlns="http://www.w3.org/2000/svg" xmlns:xlink="http://www.w3.org/1999/xlink">
<g id="graph0" class="graph" transform="scale(1 1) rotate(0) translate(4 59.5)">
<title>HostImportantLoadBalancer::HostImportantLoadBalancer</title>
<!-- Node1 -->
<g id="Node000001" class="node">
<title>Node1</title>
<g id="a_Node000001"><a xlink:title=" ">
<polygon fill="#999999" stroke="#666666" points="144.25,-41.75 0,-41.75 0,-12.75 144.25,-12.75 144.25,-41.75"/>
<text xml:space="preserve" text-anchor="start" x="8" y="-28.25" font-family="Helvetica,sans-Serif" font-size="10.00">HostImportantLoadBalancer</text>
<text xml:space="preserve" text-anchor="middle" x="72.12" y="-17.75" font-family="Helvetica,sans-Serif" font-size="10.00">::HostImportantLoadBalancer</text>
</a>
</g>
</g>
<!-- Node2 -->
<g id="Node000002" class="node">
<title>Node2</title>
<g id="a_Node000002"><a xlink:href="classILoadBalancer.html#ad87b5d27f4c6fff4b1b8fb654b478b0c" target="_top" xlink:title=" ">
<polygon fill="white" stroke="#666666" points="326.75,-55.5 180.25,-55.5 180.25,-37 326.75,-37 326.75,-55.5"/>
<text xml:space="preserve" text-anchor="middle" x="253.5" y="-42" font-family="Helvetica,sans-Serif" font-size="10.00">ILoadBalancer::ILoadBalancer</text>
</a>
</g>
</g>
<!-- Node1&#45;&gt;Node2 -->
<g id="edge1_Node000001_Node000002" class="edge">
<title>Node1&#45;&gt;Node2</title>
<g id="a_edge1_Node000001_Node000002"><a xlink:title=" ">
<path fill="none" stroke="#63b8ff" d="M144.53,-34.81C152.44,-35.65 160.54,-36.51 168.57,-37.36"/>
<polygon fill="#63b8ff" stroke="#63b8ff" points="168.05,-40.82 178.36,-38.4 168.79,-33.86 168.05,-40.82"/>
</a>
</g>
</g>
<!-- Node3 -->
<g id="Node000003" class="node">
<title>Node3</title>
<g id="a_Node000003"><a xlink:href="classILoadBalancer.html#a0ea1f8c452c4cc8ef53c981769fe7947" target="_top" xlink:title=" ">
<polygon fill="white" stroke="#666666" points="304.25,-18.5 202.75,-18.5 202.75,0 304.25,0 304.25,-18.5"/>
<text xml:space="preserve" text-anchor="middle" x="253.5" y="-5" font-family="Helvetica,sans-Serif" font-size="10.00">ILoadBalancer::size</text>
</a>
</g>
</g>
<!-- Node1&#45;&gt;Node3 -->
<g id="edge2_Node000001_Node000003" class="edge">
<title>Node1&#45;&gt;Node3</title>
<g id="a_edge2_Node000001_Node000003"><a xlink:title=" ">
<path fill="none" stroke="#63b8ff" d="M144.53,-20.08C159.95,-18.54 176.12,-16.91 191.11,-15.41"/>
<polygon fill="#63b8ff" stroke="#63b8ff" points="191.21,-18.92 200.81,-14.44 190.51,-11.95 191.21,-18.92"/>
</a>
</g>
</g>
</g>
</svg>
