<?xml version="1.0" encoding="UTF-8" standalone="no"?>
<!DOCTYPE svg PUBLIC "-//W3C//DTD SVG 1.1//EN"
 "http://www.w3.org/Graphics/SVG/1.1/DTD/svg11.dtd">
<!-- Generated by graphviz version 14.0.1 (0)
 -->
<!-- Title: CmaUtils::FlowMapTransitionner::update_flow_worker Pages: 1 -->
<svg width="556pt" height="102pt"
 viewBox="0.00 0.00 556.00 102.00" xmlns="http://www.w3.org/2000/svg" xmlns:xlink="http://www.w3.org/1999/xlink">
<g id="graph0" class="graph" transform="scale(1 1) rotate(0) translate(4 98)">
<title>CmaUtils::FlowMapTransitionner::update_flow_worker</title>
<!-- Node1 -->
<g id="Node000001" class="node">
<title>Node1</title>
<g id="a_Node000001"><a xlink:title="ONLY for MPI_WORKER Calculate the current state based on the selected method, may be caching or direc...">
<polygon fill="#999999" stroke="#666666" points="547.5,-61 389,-61 389,-32 547.5,-32 547.5,-61"/>
<text xml:space="preserve" text-anchor="start" x="397" y="-47.5" font-family="Helvetica,sans-Serif" font-size="10.00">CmaUtils::FlowMapTransitionner</text>
<text xml:space="preserve" text-anchor="middle" x="468.25" y="-37" font-family="Helvetica,sans-Serif" font-size="10.00">::update_flow_worker</text>
</a>
</g>
</g>
<!-- Node2 -->
<g id="Node000002" class="node">
<title>Node2</title>
<g id="a_Node000002"><a xlink:href="classCmaUtils_1_1FlowMapTransitionner.html#ae189e6d1156fa712175a8673e332c480" target="_top" xlink:title="Advances the simulation by one timestep from a MPI Wroker.">
<polygon fill="white" stroke="#666666" points="353,-94 194.5,-94 194.5,-65 353,-65 353,-94"/>
<text xml:space="preserve" text-anchor="start" x="202.5" y="-80.5" font-family="Helvetica,sans-Serif" font-size="10.00">CmaUtils::FlowMapTransitionner</text>
<text xml:space="preserve" text-anchor="middle" x="273.75" y="-70" font-family="Helvetica,sans-Serif" font-size="10.00">::advance_worker</text>
</a>
</g>
</g>
<!-- Node1&#45;&gt;Node2 -->
<g id="edge1_Node000001_Node000002" class="edge">
<title>Node1&#45;&gt;Node2</title>
<g id="a_edge1_Node000001_Node000002"><a xlink:title=" ">
<path fill="none" stroke="#63b8ff" d="M377.4,-61.9C369.38,-63.28 361.3,-64.66 353.39,-66.02"/>
<polygon fill="#63b8ff" stroke="#63b8ff" points="377.92,-65.37 387.18,-60.23 376.74,-58.47 377.92,-65.37"/>
</a>
</g>
</g>
<!-- Node3 -->
<g id="Node000003" class="node">
<title>Node3</title>
<g id="a_Node000003"><a xlink:href="classCmaUtils_1_1FlowMapTransitionner.html#a29756d31f1e3c014ef0aa58925bd3da6" target="_top" xlink:title="Calculate the current state based on the selected method, may be caching or direct calculation.">
<polygon fill="white" stroke="#666666" points="353,-29 194.5,-29 194.5,0 353,0 353,-29"/>
<text xml:space="preserve" text-anchor="start" x="202.5" y="-15.5" font-family="Helvetica,sans-Serif" font-size="10.00">CmaUtils::FlowMapTransitionner</text>
<text xml:space="preserve" text-anchor="middle" x="273.75" y="-5" font-family="Helvetica,sans-Serif" font-size="10.00">::update_flow</text>
</a>
</g>
</g>
<!-- Node1&#45;&gt;Node3 -->
<g id="edge2_Node000001_Node000003" class="edge">
<title>Node1&#45;&gt;Node3</title>
<g id="a_edge2_Node000001_Node000003"><a xlink:title=" ">
<path fill="none" stroke="#63b8ff" d="M377.4,-31.56C369.38,-30.23 361.3,-28.89 353.39,-27.57"/>
<polygon fill="#63b8ff" stroke="#63b8ff" points="376.74,-35 387.18,-33.19 377.89,-28.1 376.74,-35"/>
</a>
</g>
</g>
<!-- Node3&#45;&gt;Node3 -->
<g id="edge4_Node000003_Node000003" class="edge">
<title>Node3&#45;&gt;Node3</title>
<g id="a_edge4_Node000003_Node000003"><a xlink:title=" ">
<path fill="none" stroke="#63b8ff" d="M306.76,-40.56C301.58,-44.41 290.58,-47 273.75,-47 242.98,-47 231.68,-38.32 239.85,-29.21"/>
<polygon fill="#63b8ff" stroke="#63b8ff" points="310.24,-40.96 307.53,-30.72 303.26,-40.41 310.24,-40.96"/>
</a>
</g>
</g>
<!-- Node4 -->
<g id="Node000004" class="node">
<title>Node4</title>
<g id="a_Node000004"><a xlink:href="classCmaUtils_1_1FlowMapTransitionner.html#aa66bfc8d6b4f0890630a5a20b4664956" target="_top" xlink:title="Advances the simulation by one timestep.">
<polygon fill="white" stroke="#666666" points="158.5,-29 0,-29 0,0 158.5,0 158.5,-29"/>
<text xml:space="preserve" text-anchor="start" x="8" y="-15.5" font-family="Helvetica,sans-Serif" font-size="10.00">CmaUtils::FlowMapTransitionner</text>
<text xml:space="preserve" text-anchor="middle" x="79.25" y="-5" font-family="Helvetica,sans-Serif" font-size="10.00">::advance</text>
</a>
</g>
</g>
<!-- Node3&#45;&gt;Node4 -->
<g id="edge3_Node000003_Node000004" class="edge">
<title>Node3&#45;&gt;Node4</title>
<g id="a_edge3_Node000003_Node000004"><a xlink:title=" ">
<path fill="none" stroke="#63b8ff" d="M182.9,-14.5C174.88,-14.5 166.8,-14.5 158.89,-14.5"/>
<polygon fill="#63b8ff" stroke="#63b8ff" points="182.66,-18 192.66,-14.5 182.66,-11 182.66,-18"/>
</a>
</g>
</g>
</g>
</svg>
