<?xml version="1.0" encoding="UTF-8" standalone="no"?>
<!DOCTYPE svg PUBLIC "-//W3C//DTD SVG 1.1//EN"
 "http://www.w3.org/Graphics/SVG/1.1/DTD/svg11.dtd">
<!-- Generated by graphviz version 12.1.2 (0)
 -->
<!-- Title: ILoadBalancer::size Pages: 1 -->
<svg width="290pt" height="84pt"
 viewBox="0.00 0.00 289.75 84.00" xmlns="http://www.w3.org/2000/svg" xmlns:xlink="http://www.w3.org/1999/xlink">
<g id="graph0" class="graph" transform="scale(1 1) rotate(0) translate(4 80)">
<title>ILoadBalancer::size</title>
<!-- Node1 -->
<g id="Node000001" class="node">
<title>Node1</title>
<g id="a_Node000001"><a xlink:title=" ">
<polygon fill="#999999" stroke="#666666" points="281.75,-46.75 180.25,-46.75 180.25,-28.25 281.75,-28.25 281.75,-46.75"/>
<text text-anchor="middle" x="231" y="-33.25" font-family="Helvetica,sans-Serif" font-size="10.00">ILoadBalancer::size</text>
</a>
</g>
</g>
<!-- Node2 -->
<g id="Node000002" class="node">
<title>Node2</title>
<g id="a_Node000002"><a xlink:href="classCustomLoadBalancer.html#a46c441272b3fbcd48514cad53d5b51c4" target="_top" xlink:title=" ">
<polygon fill="white" stroke="#666666" points="130,-76 14.25,-76 14.25,-47 130,-47 130,-76"/>
<text text-anchor="start" x="22.25" y="-62.5" font-family="Helvetica,sans-Serif" font-size="10.00">CustomLoadBalancer</text>
<text text-anchor="middle" x="72.12" y="-52" font-family="Helvetica,sans-Serif" font-size="10.00">::CustomLoadBalancer</text>
</a>
</g>
</g>
<!-- Node1&#45;&gt;Node2 -->
<g id="edge1_Node000001_Node000002" class="edge">
<title>Node1&#45;&gt;Node2</title>
<g id="a_edge1_Node000001_Node000002"><a xlink:title=" ">
<path fill="none" stroke="#63b8ff" d="M168.58,-46.9C155.99,-48.82 142.79,-50.84 130.36,-52.74"/>
<polygon fill="#63b8ff" stroke="#63b8ff" points="169.08,-50.36 178.44,-45.39 168.02,-43.44 169.08,-50.36"/>
</a>
</g>
</g>
<!-- Node3 -->
<g id="Node000003" class="node">
<title>Node3</title>
<g id="a_Node000003"><a xlink:href="classHostImportantLoadBalancer.html#a968eb70ea9c0f8e2d0ac9257333b23ee" target="_top" xlink:title=" ">
<polygon fill="white" stroke="#666666" points="144.25,-29 0,-29 0,0 144.25,0 144.25,-29"/>
<text text-anchor="start" x="8" y="-15.5" font-family="Helvetica,sans-Serif" font-size="10.00">HostImportantLoadBalancer</text>
<text text-anchor="middle" x="72.12" y="-5" font-family="Helvetica,sans-Serif" font-size="10.00">::HostImportantLoadBalancer</text>
</a>
</g>
</g>
<!-- Node1&#45;&gt;Node3 -->
<g id="edge2_Node000001_Node000003" class="edge">
<title>Node1&#45;&gt;Node3</title>
<g id="a_edge2_Node000001_Node000003"><a xlink:title=" ">
<path fill="none" stroke="#63b8ff" d="M168.65,-28.51C160.8,-27.36 152.72,-26.17 144.73,-25"/>
<polygon fill="#63b8ff" stroke="#63b8ff" points="168.03,-31.95 178.43,-29.94 169.05,-25.03 168.03,-31.95"/>
</a>
</g>
</g>
</g>
</svg>
