<?xml version="1.0" encoding="UTF-8" standalone="no"?>
<!DOCTYPE svg PUBLIC "-//W3C//DTD SVG 1.1//EN"
 "http://www.w3.org/Graphics/SVG/1.1/DTD/svg11.dtd">
<!-- Generated by graphviz version 12.1.2 (0)
 -->
<!-- Title: Simulation::SimulationUnit::post_init_concentration_functor Pages: 1 -->
<svg width="475pt" height="48pt"
 viewBox="0.00 0.00 474.50 47.50" xmlns="http://www.w3.org/2000/svg" xmlns:xlink="http://www.w3.org/1999/xlink">
<g id="graph0" class="graph" transform="scale(1 1) rotate(0) translate(4 43.5)">
<title>Simulation::SimulationUnit::post_init_concentration_functor</title>
<!-- Node1 -->
<g id="Node000001" class="node">
<title>Node1</title>
<g id="a_Node000001"><a xlink:title=" ">
<polygon fill="#999999" stroke="#666666" points="466.5,-39.5 335,-39.5 335,0 466.5,0 466.5,-39.5"/>
<text text-anchor="start" x="343" y="-26" font-family="Helvetica,sans-Serif" font-size="10.00">Simulation::SimulationUnit</text>
<text text-anchor="start" x="343" y="-15.5" font-family="Helvetica,sans-Serif" font-size="10.00">::post_init_concentration</text>
<text text-anchor="middle" x="400.75" y="-5" font-family="Helvetica,sans-Serif" font-size="10.00">_functor</text>
</a>
</g>
</g>
<!-- Node2 -->
<g id="Node000002" class="node">
<title>Node2</title>
<g id="a_Node000002"><a xlink:href="classSimulation_1_1SimulationUnit.html#ad3ffc3108a93d7f403e8f2b81cc24e6d" target="_top" xlink:title=" ">
<polygon fill="white" stroke="#666666" points="299,-34.25 167.5,-34.25 167.5,-5.25 299,-5.25 299,-34.25"/>
<text text-anchor="start" x="175.5" y="-20.75" font-family="Helvetica,sans-Serif" font-size="10.00">Simulation::SimulationUnit</text>
<text text-anchor="middle" x="233.25" y="-10.25" font-family="Helvetica,sans-Serif" font-size="10.00">::post_init_concentration</text>
</a>
</g>
</g>
<!-- Node1&#45;&gt;Node2 -->
<g id="edge1_Node000001_Node000002" class="edge">
<title>Node1&#45;&gt;Node2</title>
<g id="a_edge1_Node000001_Node000002"><a xlink:title=" ">
<path fill="none" stroke="#63b8ff" d="M323.47,-19.75C315.38,-19.75 307.21,-19.75 299.27,-19.75"/>
<polygon fill="#63b8ff" stroke="#63b8ff" points="323.3,-23.25 333.3,-19.75 323.3,-16.25 323.3,-23.25"/>
</a>
</g>
</g>
<!-- Node3 -->
<g id="Node000003" class="node">
<title>Node3</title>
<g id="a_Node000003"><a xlink:href="classSimulation_1_1SimulationUnit.html#a366f1f10c6148e01e79d3f10735ea0ea" target="_top" xlink:title=" ">
<polygon fill="white" stroke="#666666" points="131.5,-34.25 0,-34.25 0,-5.25 131.5,-5.25 131.5,-34.25"/>
<text text-anchor="start" x="8" y="-20.75" font-family="Helvetica,sans-Serif" font-size="10.00">Simulation::SimulationUnit</text>
<text text-anchor="middle" x="65.75" y="-10.25" font-family="Helvetica,sans-Serif" font-size="10.00">::SimulationUnit</text>
</a>
</g>
</g>
<!-- Node2&#45;&gt;Node3 -->
<g id="edge2_Node000002_Node000003" class="edge">
<title>Node2&#45;&gt;Node3</title>
<g id="a_edge2_Node000002_Node000003"><a xlink:title=" ">
<path fill="none" stroke="#63b8ff" d="M155.97,-19.75C147.88,-19.75 139.71,-19.75 131.77,-19.75"/>
<polygon fill="#63b8ff" stroke="#63b8ff" points="155.8,-23.25 165.8,-19.75 155.8,-16.25 155.8,-23.25"/>
</a>
</g>
</g>
</g>
</svg>
