<?xml version="1.0" encoding="UTF-8" standalone="no"?>
<!DOCTYPE svg PUBLIC "-//W3C//DTD SVG 1.1//EN"
 "http://www.w3.org/Graphics/SVG/1.1/DTD/svg11.dtd">
<!-- Generated by graphviz version 12.1.2 (0)
 -->
<!-- Title: Simulation::SimulationUnit Pages: 1 -->
<!--zoomable 215 -->

<svg id="main" version="1.1" xmlns="http://www.w3.org/2000/svg" xmlns:xlink="http://www.w3.org/1999/xlink" xml:space="preserve" onload="init(evt)">

<style type="text/css"><![CDATA[
.node, .edge {opacity: 0.7;}
.node.selected, .edge.selected {opacity: 1;}
.edge:hover path { stroke: red; }
.edge:hover polygon { stroke: red; fill: red; }
]]></style>

<defs>
  <circle id="rim" cx="0" cy="0" r="7"/>
  <circle id="rim2" cx="0" cy="0" r="3.5"/>
  <g id="zoomPlus">
    <use xlink:href="#rim" fill="#404040"><set attributeName="fill" to="#808080" begin="zoomplus.mouseover" end="zoomplus.mouseout"/></use>
    <path d="M-4,0h8M0,-4v8" fill="none" stroke="white" stroke-width="1.5" pointer-events="none"/>
  </g>
  <g id="zoomMin">
    <use xlink:href="#rim" fill="#404040"><set attributeName="fill" to="#808080" begin="zoomminus.mouseover" end="zoomminus.mouseout"/></use>
    <path d="M-4,0h8" fill="none" stroke="white" stroke-width="1.5" pointer-events="none"/>
  </g>
  <g id="arrowUp" transform="translate(30 24)">
    <use xlink:href="#rim"/>
    <path pointer-events="none" fill="none" stroke="white" stroke-width="1.5" d="M0,-3.0v7 M-2.5,-0.5L0,-3.0L2.5,-0.5"/>
  </g>
  <g id="arrowRight" transform="rotate(90) translate(36 -43)">
    <use xlink:href="#rim"/>
    <path pointer-events="none" fill="none" stroke="white" stroke-width="1.5" d="M0,-3.0v7 M-2.5,-0.5L0,-3.0L2.5,-0.5"/>
  </g>
  <g id="arrowDown" transform="rotate(180) translate(-30 -48)">
    <use xlink:href="#rim"/>
    <path pointer-events="none" fill="none" stroke="white" stroke-width="1.5" d="M0,-3.0v7 M-2.5,-0.5L0,-3.0L2.5,-0.5"/>
  </g>
  <g id="arrowLeft" transform="rotate(270) translate(-36 17)">
    <use xlink:href="#rim"/>
    <path pointer-events="none" fill="none" stroke="white" stroke-width="1.5" d="M0,-3.0v7 M-2.5,-0.5L0,-3.0L2.5,-0.5"/>
  </g>
  <g id="resetDef">
    <use xlink:href="#rim2" fill="#404040"><set attributeName="fill" to="#808080" begin="reset.mouseover" end="reset.mouseout"/></use>
  </g>
</defs>
<script type="application/ecmascript">
var viewWidth = 590;
var viewHeight = 215;
var sectionId = 'dynsection-0';
</script>
<script type="application/ecmascript" xlink:href="svg.min.js"/>
<svg id="graph" class="graph">
<g id="viewport">
<title>Simulation::SimulationUnit</title>
<!-- Node1 -->
<g id="Node000001" class="node">
<title>Node1</title>
<g id="a_Node000001"><a xlink:title=" ">
<polygon fill="#999999" stroke="#666666" points="582,-112.75 450.5,-112.75 450.5,-94.25 582,-94.25 582,-112.75"/>
<text text-anchor="middle" x="516.25" y="-99.25" font-family="Helvetica,sans-Serif" font-size="10.00">Simulation::SimulationUnit</text>
</a>
</g>
</g>
<!-- Node2 -->
<g id="Node000002" class="node">
<title>Node2</title>
<g id="a_Node000002"><a xlink:href="classSimulation_1_1Probes.html" target="_top" xlink:title=" ">
<polygon fill="white" stroke="#666666" points="345.88,-207.25 225.62,-207.25 225.62,-167.75 345.88,-167.75 345.88,-207.25"/>
<text text-anchor="start" x="233.62" y="-193.75" font-family="Helvetica,sans-Serif" font-size="10.00">Simulation::Probes</text>
<text text-anchor="start" x="233.62" y="-183.25" font-family="Helvetica,sans-Serif" font-size="10.00">&lt; AutoGenerated::probe</text>
<text text-anchor="middle" x="285.75" y="-172.75" font-family="Helvetica,sans-Serif" font-size="10.00">_buffer_size &gt;</text>
</a>
</g>
</g>
<!-- Node2&#45;&gt;Node1 -->
<g id="edge1_Node000001_Node000002" class="edge">
<title>Node2&#45;&gt;Node1</title>
<g id="a_edge1_Node000001_Node000002"><a xlink:title=" ">
<path fill="none" stroke="#9a32cd" stroke-dasharray="5,2" d="M356.98,-166.55C381.12,-158.9 408.17,-149.83 432.5,-140.5 454.25,-132.16 478.51,-121.1 495.1,-113.25"/>
<polygon fill="#9a32cd" stroke="#9a32cd" points="356.06,-163.17 347.56,-169.5 358.15,-169.85 356.06,-163.17"/>
</a>
</g>
<text text-anchor="middle" x="408.88" y="-157.11" font-family="Helvetica,sans-Serif" font-size="10.00" fill="grey"> probes</text>
</g>
<!-- Node3 -->
<g id="Node000003" class="node">
<title>Node3</title>
<g id="a_Node000003"><a xlink:href="structSimulation_1_1Feed_1_1SimulationFeed.html" target="_top" xlink:title=" ">
<polygon fill="white" stroke="#666666" points="367.25,-149.75 204.25,-149.75 204.25,-131.25 367.25,-131.25 367.25,-149.75"/>
<text text-anchor="middle" x="285.75" y="-136.25" font-family="Helvetica,sans-Serif" font-size="10.00">Simulation::Feed::SimulationFeed</text>
</a>
</g>
</g>
<!-- Node3&#45;&gt;Node1 -->
<g id="edge2_Node000001_Node000003" class="edge">
<title>Node3&#45;&gt;Node1</title>
<g id="a_edge2_Node000001_Node000003"><a xlink:title=" ">
<path fill="none" stroke="#9a32cd" stroke-dasharray="5,2" d="M365.16,-129.1C386.98,-125.81 410.68,-122.12 432.5,-118.5 442.44,-116.85 453.03,-115 463.2,-113.18"/>
<polygon fill="#9a32cd" stroke="#9a32cd" points="364.8,-125.61 355.43,-130.56 365.84,-132.54 364.8,-125.61"/>
</a>
</g>
<text text-anchor="middle" x="408.88" y="-126.54" font-family="Helvetica,sans-Serif" font-size="10.00" fill="grey"> feed</text>
</g>
<!-- Node4 -->
<g id="Node000004" class="node">
<title>Node4</title>
<g id="a_Node000004"><a xlink:href="structCmaUtils_1_1IterationState.html" target="_top" xlink:title="Structure to store information about the reactor state during simulation.">
<polygon fill="white" stroke="#666666" points="346.62,-112.75 224.88,-112.75 224.88,-94.25 346.62,-94.25 346.62,-112.75"/>
<text text-anchor="middle" x="285.75" y="-99.25" font-family="Helvetica,sans-Serif" font-size="10.00">CmaUtils::IterationState</text>
</a>
</g>
</g>
<!-- Node4&#45;&gt;Node1 -->
<g id="edge3_Node000001_Node000004" class="edge">
<title>Node4&#45;&gt;Node1</title>
<g id="a_edge3_Node000001_Node000004"><a xlink:title=" ">
<path fill="none" stroke="#9a32cd" stroke-dasharray="5,2" d="M358.52,-103.5C387.85,-103.5 421.55,-103.5 450.16,-103.5"/>
<polygon fill="#9a32cd" stroke="#9a32cd" points="358.6,-100 348.6,-103.5 358.6,-107 358.6,-100"/>
</a>
</g>
<text text-anchor="middle" x="408.88" y="-104.5" font-family="Helvetica,sans-Serif" font-size="10.00" fill="grey"> state</text>
</g>
<!-- Node5 -->
<g id="Node000005" class="node">
<title>Node5</title>
<g id="a_Node000005"><a xlink:href="classCmaUtils_1_1PreCalculatedHydroState.html" target="_top" xlink:title="Structure to store hydrodynamic properties from a compartment mesh.">
<polygon fill="white" stroke="#666666" points="149.5,-118 0,-118 0,-89 149.5,-89 149.5,-118"/>
<text text-anchor="start" x="8" y="-104.5" font-family="Helvetica,sans-Serif" font-size="10.00">CmaUtils::PreCalculatedHydro</text>
<text text-anchor="middle" x="74.75" y="-94" font-family="Helvetica,sans-Serif" font-size="10.00">State</text>
</a>
</g>
</g>
<!-- Node5&#45;&gt;Node4 -->
<g id="edge4_Node000004_Node000005" class="edge">
<title>Node5&#45;&gt;Node4</title>
<g id="a_edge4_Node000004_Node000005"><a xlink:title=" ">
<path fill="none" stroke="#9a32cd" stroke-dasharray="5,2" d="M161.1,-103.5C182.42,-103.5 204.84,-103.5 224.64,-103.5"/>
<polygon fill="#9a32cd" stroke="#9a32cd" points="161.24,-100 151.24,-103.5 161.24,-107 161.24,-100"/>
</a>
</g>
<text text-anchor="middle" x="176.88" y="-115" font-family="Helvetica,sans-Serif" font-size="10.00" fill="grey"> gas</text>
<text text-anchor="middle" x="176.88" y="-104.5" font-family="Helvetica,sans-Serif" font-size="10.00" fill="grey">liq</text>
</g>
<!-- Node6 -->
<g id="Node000006" class="node">
<title>Node6</title>
<g id="a_Node000006"><a xlink:href="classSimulation_1_1MassTransfer_1_1MassTransferModel.html" target="_top" xlink:title=" ">
<polygon fill="white" stroke="#666666" points="349.25,-76 222.25,-76 222.25,-47 349.25,-47 349.25,-76"/>
<text text-anchor="start" x="230.25" y="-62.5" font-family="Helvetica,sans-Serif" font-size="10.00">Simulation::MassTransfer</text>
<text text-anchor="middle" x="285.75" y="-52" font-family="Helvetica,sans-Serif" font-size="10.00">::MassTransferModel</text>
</a>
</g>
</g>
<!-- Node6&#45;&gt;Node1 -->
<g id="edge5_Node000001_Node000006" class="edge">
<title>Node6&#45;&gt;Node1</title>
<g id="a_edge5_Node000001_Node000006"><a xlink:title=" ">
<path fill="none" stroke="#9a32cd" stroke-dasharray="5,2" d="M360.52,-75.06C393.68,-81.16 432.07,-88.21 462.32,-93.77"/>
<polygon fill="#9a32cd" stroke="#9a32cd" points="361.45,-71.67 350.98,-73.31 360.18,-78.56 361.45,-71.67"/>
</a>
</g>
<text text-anchor="middle" x="408.88" y="-88.5" font-family="Helvetica,sans-Serif" font-size="10.00" fill="grey"> mt_model</text>
</g>
<!-- Node7 -->
<g id="Node000007" class="node">
<title>Node7</title>
<g id="a_Node000007"><a xlink:href="structSimulation_1_1KernelInline_1_1MoveInfo.html" target="_top" xlink:title=" ">
<polygon fill="white" stroke="#666666" points="359.38,-29 212.12,-29 212.12,0 359.38,0 359.38,-29"/>
<text text-anchor="start" x="220.12" y="-15.5" font-family="Helvetica,sans-Serif" font-size="10.00">Simulation::KernelInline</text>
<text text-anchor="middle" x="285.75" y="-5" font-family="Helvetica,sans-Serif" font-size="10.00">::MoveInfo&lt; ComputeSpace &gt;</text>
</a>
</g>
</g>
<!-- Node7&#45;&gt;Node1 -->
<g id="edge6_Node000001_Node000007" class="edge">
<title>Node7&#45;&gt;Node1</title>
<g id="a_edge6_Node000001_Node000007"><a xlink:title=" ">
<path fill="none" stroke="#9a32cd" stroke-dasharray="5,2" d="M349.94,-32.71C355.82,-34.59 361.66,-36.54 367.25,-38.5 414.65,-55.15 468.12,-80.29 496,-93.91"/>
<polygon fill="#9a32cd" stroke="#9a32cd" points="351.41,-29.5 340.82,-29.85 349.32,-36.18 351.41,-29.5"/>
</a>
</g>
<text text-anchor="middle" x="408.88" y="-64.04" font-family="Helvetica,sans-Serif" font-size="10.00" fill="grey"> move_info</text>
</g>
</g>
</svg>

<g id="navigator" transform="translate(0 0)" fill="#404254">
  <rect fill="#f2f5e9" fill-opacity="0.5" stroke="#606060" stroke-width=".5" x="0" y="0" width="60" height="60"/>
  <use id="zoomplus" xlink:href="#zoomPlus" x="17" y="9" onmousedown="handleZoom(evt,'in')"/>
  <use id="zoomminus" xlink:href="#zoomMin" x="42" y="9" onmousedown="handleZoom(evt,'out')"/>
  <use id="reset" xlink:href="#resetDef" x="30" y="36" onmousedown="handleReset()"/>
   <use id="arrowup" xlink:href="#arrowUp" x="0" y="0" onmousedown="handlePan(0,-1)"/>
  <use id="arrowright" xlink:href="#arrowRight" x="0" y="0" onmousedown="handlePan(1,0)"/>
  <use id="arrowdown" xlink:href="#arrowDown" x="0" y="0" onmousedown="handlePan(0,1)"/>
  <use id="arrowleft" xlink:href="#arrowLeft" x="0" y="0" onmousedown="handlePan(-1,0)"/>
</g>
<svg viewBox="0 0 15 15" width="100%" height="30px" preserveAspectRatio="xMaxYMin meet">
 <g id="arrow_out" transform="scale(0.3 0.3)">
  <a xlink:href="classSimulation_1_1SimulationUnit__coll__graph_org.svg" target="_base">
   <rect id="button" ry="5" rx="5" y="6" x="6" height="38" width="38"
        fill="#f2f5e9" fill-opacity="0.5" stroke="#606060" stroke-width="1.0"/>
   <path id="arrow"
     d="M 11.500037,31.436501 C 11.940474,20.09759 22.043105,11.32322 32.158766,21.979434 L 37.068811,17.246167 C 37.068811,17.246167 37.088388,32 37.088388,32 L 22.160133,31.978069 C 22.160133,31.978069 26.997745,27.140456 26.997745,27.140456 C 18.528582,18.264221 13.291696,25.230495 11.500037,31.436501 z"
     style="fill:#404040;"/>
  </a>
 </g>
</svg>

<style type='text/css'>
<![CDATA[
[data-mouse-over-selected='false'] { opacity: 0.7; }
[data-mouse-over-selected='true']  { opacity: 1.0; }
]]>
</style>
<script type="application/ecmascript"><![CDATA[
document.addEventListener('DOMContentLoaded', (event) => {
  highlightEdges();
  highlightAdjacentNodes();
});
]]></script>
</svg>
