<?xml version="1.0" encoding="UTF-8" standalone="no"?>
<!DOCTYPE svg PUBLIC "-//W3C//DTD SVG 1.1//EN"
 "http://www.w3.org/Graphics/SVG/1.1/DTD/svg11.dtd">
<!-- Generated by graphviz version 14.0.1 (0)
 -->
<!-- Title: Core::DataExporter::prepare_matrix Pages: 1 -->
<svg width="1101pt" height="146pt"
 viewBox="0.00 0.00 1101.00 146.00" xmlns="http://www.w3.org/2000/svg" xmlns:xlink="http://www.w3.org/1999/xlink">
<g id="graph0" class="graph" transform="scale(1 1) rotate(0) translate(4 142)">
<title>Core::DataExporter::prepare_matrix</title>
<!-- Node1 -->
<g id="Node000001" class="node">
<title>Node1</title>
<g id="a_Node000001"><a xlink:title=" ">
<polygon fill="#999999" stroke="#666666" points="1092.5,-114 991.75,-114 991.75,-85 1092.5,-85 1092.5,-114"/>
<text xml:space="preserve" text-anchor="start" x="999.75" y="-100.5" font-family="Helvetica,sans-Serif" font-size="10.00">Core::DataExporter</text>
<text xml:space="preserve" text-anchor="middle" x="1042.12" y="-90" font-family="Helvetica,sans-Serif" font-size="10.00">::prepare_matrix</text>
</a>
</g>
</g>
<!-- Node2 -->
<g id="Node000002" class="node">
<title>Node2</title>
<g id="a_Node000002"><a xlink:href="classCore_1_1MainExporter.html#a2651efc5b4bd42574fc58f47d66b4c04" target="_top" xlink:title="Initializes fields required for simulation export.">
<polygon fill="white" stroke="#666666" points="952,-138 850.5,-138 850.5,-109 952,-109 952,-138"/>
<text xml:space="preserve" text-anchor="start" x="858.5" y="-124.5" font-family="Helvetica,sans-Serif" font-size="10.00">Core::MainExporter</text>
<text xml:space="preserve" text-anchor="middle" x="901.25" y="-114" font-family="Helvetica,sans-Serif" font-size="10.00">::init_fields</text>
</a>
</g>
</g>
<!-- Node1&#45;&gt;Node2 -->
<g id="edge1_Node000001_Node000002" class="edge">
<title>Node1&#45;&gt;Node2</title>
<g id="a_edge1_Node000001_Node000002"><a xlink:title=" ">
<path fill="none" stroke="#63b8ff" d="M980.12,-110.04C970.76,-111.66 961.19,-113.31 952.11,-114.88"/>
<polygon fill="#63b8ff" stroke="#63b8ff" points="980.63,-113.51 989.89,-108.35 979.44,-106.61 980.63,-113.51"/>
</a>
</g>
</g>
<!-- Node3 -->
<g id="Node000003" class="node">
<title>Node3</title>
<g id="a_Node000003"><a xlink:href="classCore_1_1PartialExporter.html#a05cba8c28abaecce99f586d551a75f80" target="_top" xlink:title="Initializes the fields required for exporting data.">
<polygon fill="white" stroke="#666666" points="955.75,-91 846.75,-91 846.75,-62 955.75,-62 955.75,-91"/>
<text xml:space="preserve" text-anchor="start" x="854.75" y="-77.5" font-family="Helvetica,sans-Serif" font-size="10.00">Core::PartialExporter</text>
<text xml:space="preserve" text-anchor="middle" x="901.25" y="-67" font-family="Helvetica,sans-Serif" font-size="10.00">::init_fields</text>
</a>
</g>
</g>
<!-- Node1&#45;&gt;Node3 -->
<g id="edge2_Node000001_Node000003" class="edge">
<title>Node1&#45;&gt;Node3</title>
<g id="a_edge2_Node000001_Node000003"><a xlink:title=" ">
<path fill="none" stroke="#63b8ff" d="M980.12,-89.4C972.04,-88.06 963.81,-86.7 955.88,-85.38"/>
<polygon fill="#63b8ff" stroke="#63b8ff" points="979.45,-92.83 989.89,-91.01 980.59,-85.93 979.45,-92.83"/>
</a>
</g>
</g>
<!-- Node4 -->
<g id="Node000004" class="node">
<title>Node4</title>
<g id="a_Node000004"><a xlink:href="namespaceCore.html#afbce0beea293a7ccfdfc34a85b5e5e77" target="_top" xlink:title=" ">
<polygon fill="white" stroke="#666666" points="810.75,-91 722.75,-91 722.75,-62 810.75,-62 810.75,-91"/>
<text xml:space="preserve" text-anchor="start" x="730.75" y="-77.5" font-family="Helvetica,sans-Serif" font-size="10.00">Core::init_partial</text>
<text xml:space="preserve" text-anchor="middle" x="766.75" y="-67" font-family="Helvetica,sans-Serif" font-size="10.00">_exporter</text>
</a>
</g>
</g>
<!-- Node3&#45;&gt;Node4 -->
<g id="edge3_Node000003_Node000004" class="edge">
<title>Node3&#45;&gt;Node4</title>
<g id="a_edge3_Node000003_Node000004"><a xlink:title=" ">
<path fill="none" stroke="#63b8ff" d="M834.95,-76.5C826.84,-76.5 818.71,-76.5 811.04,-76.5"/>
<polygon fill="#63b8ff" stroke="#63b8ff" points="834.84,-80 844.84,-76.5 834.84,-73 834.84,-80"/>
</a>
</g>
</g>
<!-- Node5 -->
<g id="Node000005" class="node">
<title>Node5</title>
<g id="a_Node000005"><a xlink:href="namespaceCore.html#a105cc1fc8005e6139954e3adce14f525" target="_top" xlink:title="Start simulation.">
<polygon fill="white" stroke="#666666" points="686.75,-85.75 623.5,-85.75 623.5,-67.25 686.75,-67.25 686.75,-85.75"/>
<text xml:space="preserve" text-anchor="middle" x="655.12" y="-72.25" font-family="Helvetica,sans-Serif" font-size="10.00">Core::exec</text>
</a>
</g>
</g>
<!-- Node4&#45;&gt;Node5 -->
<g id="edge4_Node000004_Node000005" class="edge">
<title>Node4&#45;&gt;Node5</title>
<g id="a_edge4_Node000004_Node000005"><a xlink:title=" ">
<path fill="none" stroke="#63b8ff" d="M711.17,-76.5C702.86,-76.5 694.54,-76.5 686.98,-76.5"/>
<polygon fill="#63b8ff" stroke="#63b8ff" points="710.91,-80 720.91,-76.5 710.91,-73 710.91,-80"/>
</a>
</g>
</g>
<!-- Node6 -->
<g id="Node000006" class="node">
<title>Node6</title>
<g id="a_Node000006"><a xlink:href="structApi_1_1SimulationInstance.html#a3f04372728be84263fb69f5773ca5bd5" target="_top" xlink:title="Execute the simulation.">
<polygon fill="white" stroke="#666666" points="430.5,-128 311,-128 311,-99 430.5,-99 430.5,-128"/>
<text xml:space="preserve" text-anchor="start" x="319" y="-114.5" font-family="Helvetica,sans-Serif" font-size="10.00">Api::SimulationInstance</text>
<text xml:space="preserve" text-anchor="middle" x="370.75" y="-104" font-family="Helvetica,sans-Serif" font-size="10.00">::exec</text>
</a>
</g>
</g>
<!-- Node5&#45;&gt;Node6 -->
<g id="edge5_Node000005_Node000006" class="edge">
<title>Node5&#45;&gt;Node6</title>
<g id="a_edge5_Node000005_Node000006"><a xlink:title=" ">
<path fill="none" stroke="#63b8ff" d="M612.35,-88.99C604.17,-91.09 595.61,-93.06 587.5,-94.5 534.93,-103.84 474.3,-108.67 430.72,-111.11"/>
<polygon fill="#63b8ff" stroke="#63b8ff" points="612.99,-92.44 621.74,-86.46 611.17,-85.68 612.99,-92.44"/>
</a>
</g>
</g>
<!-- Node8 -->
<g id="Node000008" class="node">
<title>Node8</title>
<g id="a_Node000008"><a xlink:href="namespaceCore.html#a23e6f3d22fc51ef9decabb2c220b27c4" target="_top" xlink:title=" ">
<polygon fill="white" stroke="#666666" points="587.5,-85.75 466.5,-85.75 466.5,-67.25 587.5,-67.25 587.5,-85.75"/>
<text xml:space="preserve" text-anchor="middle" x="527" y="-72.25" font-family="Helvetica,sans-Serif" font-size="10.00">Core::exporter_filename</text>
</a>
</g>
</g>
<!-- Node5&#45;&gt;Node8 -->
<g id="edge7_Node000005_Node000008" class="edge">
<title>Node5&#45;&gt;Node8</title>
<g id="a_edge7_Node000005_Node000008"><a xlink:title=" ">
<path fill="none" stroke="#63b8ff" d="M611.96,-70.09C604.23,-69.83 596.02,-69.72 587.88,-69.76"/>
<polygon fill="#63b8ff" stroke="#63b8ff" points="611.61,-73.58 621.76,-70.53 611.93,-66.59 611.61,-73.58"/>
</a>
</g>
</g>
<!-- Node9 -->
<g id="Node000009" class="node">
<title>Node9</title>
<g id="a_Node000009"><a xlink:href="namespaceCore.html#a877563df5a407318a381e12311022377" target="_top" xlink:title=" ">
<polygon fill="white" stroke="#666666" points="557.5,-48.75 496.5,-48.75 496.5,-30.25 557.5,-30.25 557.5,-48.75"/>
<text xml:space="preserve" text-anchor="middle" x="527" y="-35.25" font-family="Helvetica,sans-Serif" font-size="10.00">Core::load</text>
</a>
</g>
</g>
<!-- Node5&#45;&gt;Node9 -->
<g id="edge9_Node000005_Node000009" class="edge">
<title>Node5&#45;&gt;Node9</title>
<g id="a_edge9_Node000005_Node000009"><a xlink:title=" ">
<path fill="none" stroke="#63b8ff" d="M612.25,-64.22C594.38,-58.97 573.94,-52.98 557.67,-48.2"/>
<polygon fill="#63b8ff" stroke="#63b8ff" points="611.24,-67.57 621.82,-67.02 613.21,-60.85 611.24,-67.57"/>
</a>
</g>
</g>
<!-- Node7 -->
<g id="Node000007" class="node">
<title>Node7</title>
<g id="a_Node000007"><a xlink:href="structApi_1_1SimulationInstance.html#afee07db8a6b57fe7982900ecaa943cc0" target="_top" xlink:title="Default constructor.">
<polygon fill="white" stroke="#666666" points="119.5,-90 0,-90 0,-61 119.5,-61 119.5,-90"/>
<text xml:space="preserve" text-anchor="start" x="8" y="-76.5" font-family="Helvetica,sans-Serif" font-size="10.00">Api::SimulationInstance</text>
<text xml:space="preserve" text-anchor="middle" x="59.75" y="-66" font-family="Helvetica,sans-Serif" font-size="10.00">::SimulationInstance</text>
</a>
</g>
</g>
<!-- Node6&#45;&gt;Node7 -->
<g id="edge6_Node000006_Node000007" class="edge">
<title>Node6&#45;&gt;Node7</title>
<g id="a_edge6_Node000006_Node000007"><a xlink:title=" ">
<path fill="none" stroke="#63b8ff" d="M299.28,-104.83C245.03,-98.16 170.91,-89.05 119.76,-82.76"/>
<polygon fill="#63b8ff" stroke="#63b8ff" points="298.68,-108.29 309.04,-106.03 299.54,-101.34 298.68,-108.29"/>
</a>
</g>
</g>
<!-- Node8&#45;&gt;Node5 -->
<g id="edge8_Node000008_Node000005" class="edge">
<title>Node8&#45;&gt;Node5</title>
<g id="a_edge8_Node000008_Node000005"><a xlink:title=" ">
<path fill="none" stroke="#63b8ff" d="M599.36,-83.2C607.73,-83.09 615.9,-82.83 623.27,-82.4"/>
<polygon fill="#63b8ff" stroke="#63b8ff" points="599.38,-79.7 589.39,-83.24 599.4,-86.7 599.38,-79.7"/>
</a>
</g>
</g>
<!-- Node10 -->
<g id="Node000010" class="node">
<title>Node10</title>
<g id="a_Node000010"><a xlink:href="structApi_1_1SimulationInstance.html#ad2abfa76ac4128d44b7c0c895f78b77b" target="_top" xlink:title="Load ad apply the simulation configuration and prepare for execution based on file.">
<polygon fill="white" stroke="#666666" points="430.5,-54 311,-54 311,-25 430.5,-25 430.5,-54"/>
<text xml:space="preserve" text-anchor="start" x="319" y="-40.5" font-family="Helvetica,sans-Serif" font-size="10.00">Api::SimulationInstance</text>
<text xml:space="preserve" text-anchor="middle" x="370.75" y="-30" font-family="Helvetica,sans-Serif" font-size="10.00">::apply_load</text>
</a>
</g>
</g>
<!-- Node9&#45;&gt;Node10 -->
<g id="edge10_Node000009_Node000010" class="edge">
<title>Node9&#45;&gt;Node10</title>
<g id="a_edge10_Node000009_Node000010"><a xlink:title=" ">
<path fill="none" stroke="#63b8ff" d="M484.76,-39.5C468.2,-39.5 448.79,-39.5 430.78,-39.5"/>
<polygon fill="#63b8ff" stroke="#63b8ff" points="484.75,-43 494.75,-39.5 484.75,-36 484.75,-43"/>
</a>
</g>
</g>
<!-- Node10&#45;&gt;Node7 -->
<g id="edge14_Node000010_Node000007" class="edge">
<title>Node10&#45;&gt;Node7</title>
<g id="a_edge14_Node000010_Node000007"><a xlink:title=" ">
<path fill="none" stroke="#63b8ff" d="M299.56,-52.81C291.29,-54.17 282.97,-55.43 275,-56.5 222.63,-63.51 162.69,-68.57 119.56,-71.7"/>
<polygon fill="#63b8ff" stroke="#63b8ff" points="299.97,-56.29 309.25,-51.18 298.81,-49.39 299.97,-56.29"/>
</a>
</g>
</g>
<!-- Node11 -->
<g id="Node000011" class="node">
<title>Node11</title>
<g id="a_Node000011"><a xlink:href="structApi_1_1SimulationInstance.html#a3398ddd22faa3ceb16b454c51faeced0" target="_top" xlink:title="Apply the simulation configuration and prepare for execution.">
<polygon fill="white" stroke="#666666" points="275,-29 155.5,-29 155.5,0 275,0 275,-29"/>
<text xml:space="preserve" text-anchor="start" x="163.5" y="-15.5" font-family="Helvetica,sans-Serif" font-size="10.00">Api::SimulationInstance</text>
<text xml:space="preserve" text-anchor="middle" x="215.25" y="-5" font-family="Helvetica,sans-Serif" font-size="10.00">::apply</text>
</a>
</g>
</g>
<!-- Node10&#45;&gt;Node11 -->
<g id="edge11_Node000010_Node000011" class="edge">
<title>Node10&#45;&gt;Node11</title>
<g id="a_edge11_Node000010_Node000011"><a xlink:title=" ">
<path fill="none" stroke="#63b8ff" d="M299.49,-28.06C291.39,-26.74 283.19,-25.4 275.25,-24.11"/>
<polygon fill="#63b8ff" stroke="#63b8ff" points="298.92,-31.51 309.35,-29.66 300.04,-24.6 298.92,-31.51"/>
</a>
</g>
</g>
<!-- Node11&#45;&gt;Node7 -->
<g id="edge13_Node000011_Node000007" class="edge">
<title>Node11&#45;&gt;Node7</title>
<g id="a_edge13_Node000011_Node000007"><a xlink:title=" ">
<path fill="none" stroke="#63b8ff" d="M166.3,-33.56C144.43,-42.25 118.91,-52.39 98.44,-60.52"/>
<polygon fill="#63b8ff" stroke="#63b8ff" points="167.29,-36.93 175.29,-29.98 164.71,-30.42 167.29,-36.93"/>
</a>
</g>
</g>
<!-- Node11&#45;&gt;Node11 -->
<g id="edge12_Node000011_Node000011" class="edge">
<title>Node11&#45;&gt;Node11</title>
<g id="a_edge12_Node000011_Node000011"><a xlink:title=" ">
<path fill="none" stroke="#63b8ff" d="M241.64,-40.56C237.5,-44.41 228.7,-47 215.25,-47 190.65,-47 181.62,-38.32 188.15,-29.21"/>
<polygon fill="#63b8ff" stroke="#63b8ff" points="245.13,-40.92 242.26,-30.72 238.14,-40.48 245.13,-40.92"/>
</a>
</g>
</g>
</g>
</svg>
