<?xml version="1.0" encoding="UTF-8" standalone="no"?>
<!DOCTYPE svg PUBLIC "-//W3C//DTD SVG 1.1//EN"
 "http://www.w3.org/Graphics/SVG/1.1/DTD/svg11.dtd">
<!-- Generated by graphviz version 14.0.1 (0)
 -->
<!-- Title: Core::MainExporter::write_final Pages: 1 -->
<svg width="277pt" height="225pt"
 viewBox="0.00 0.00 277.00 225.00" xmlns="http://www.w3.org/2000/svg" xmlns:xlink="http://www.w3.org/1999/xlink">
<g id="graph0" class="graph" transform="scale(1 1) rotate(0) translate(4 221)">
<title>Core::MainExporter::write_final</title>
<!-- Node1 -->
<g id="Node000001" class="node">
<title>Node1</title>
<g id="a_Node000001"><a xlink:title="Writes final simulation data to the output.">
<polygon fill="#999999" stroke="#666666" points="101.5,-123 0,-123 0,-94 101.5,-94 101.5,-123"/>
<text xml:space="preserve" text-anchor="start" x="8" y="-109.5" font-family="Helvetica,sans-Serif" font-size="10.00">Core::MainExporter</text>
<text xml:space="preserve" text-anchor="middle" x="50.75" y="-99" font-family="Helvetica,sans-Serif" font-size="10.00">::write_final</text>
</a>
</g>
</g>
<!-- Node2 -->
<g id="Node000002" class="node">
<title>Node2</title>
<g id="a_Node000002"><a xlink:href="classSimulation_1_1SimulationUnit.html#abee4f5b8a764dc6655ee5a91fcab7080" target="_top" xlink:title=" ">
<polygon fill="white" stroke="#666666" points="269,-217 137.5,-217 137.5,-188 269,-188 269,-217"/>
<text xml:space="preserve" text-anchor="start" x="145.5" y="-203.5" font-family="Helvetica,sans-Serif" font-size="10.00">Simulation::SimulationUnit</text>
<text xml:space="preserve" text-anchor="middle" x="203.25" y="-193" font-family="Helvetica,sans-Serif" font-size="10.00">::getCgasData</text>
</a>
</g>
</g>
<!-- Node1&#45;&gt;Node2 -->
<g id="edge1_Node000001_Node000002" class="edge">
<title>Node1&#45;&gt;Node2</title>
<g id="a_edge1_Node000001_Node000002"><a xlink:title=" ">
<path fill="none" stroke="#63b8ff" d="M66.33,-123.35C82.5,-139.11 109.94,-163.85 137.5,-179.5 139.53,-180.65 141.62,-181.76 143.76,-182.83"/>
<polygon fill="#63b8ff" stroke="#63b8ff" points="142.09,-185.91 152.64,-186.88 145,-179.55 142.09,-185.91"/>
</a>
</g>
</g>
<!-- Node3 -->
<g id="Node000003" class="node">
<title>Node3</title>
<g id="a_Node000003"><a xlink:href="classSimulation_1_1SimulationUnit.html#a3d0ee29e0a425f79fa8cbc620d2abb99" target="_top" xlink:title=" ">
<polygon fill="white" stroke="#666666" points="269,-170 137.5,-170 137.5,-141 269,-141 269,-170"/>
<text xml:space="preserve" text-anchor="start" x="145.5" y="-156.5" font-family="Helvetica,sans-Serif" font-size="10.00">Simulation::SimulationUnit</text>
<text xml:space="preserve" text-anchor="middle" x="203.25" y="-146" font-family="Helvetica,sans-Serif" font-size="10.00">::getCliqData</text>
</a>
</g>
</g>
<!-- Node1&#45;&gt;Node3 -->
<g id="edge2_Node000001_Node000003" class="edge">
<title>Node1&#45;&gt;Node3</title>
<g id="a_edge2_Node000001_Node000003"><a xlink:title=" ">
<path fill="none" stroke="#63b8ff" d="M99.37,-123.37C113.37,-127.74 128.85,-132.58 143.46,-137.14"/>
<polygon fill="#63b8ff" stroke="#63b8ff" points="142.39,-140.47 152.98,-140.11 144.48,-133.79 142.39,-140.47"/>
</a>
</g>
</g>
<!-- Node4 -->
<g id="Node000004" class="node">
<title>Node4</title>
<g id="a_Node000004"><a xlink:href="classSimulation_1_1SimulationUnit.html#a7b82dd15ce4828d8ee59ca0a9410f63d" target="_top" xlink:title=" ">
<polygon fill="white" stroke="#666666" points="269,-123 137.5,-123 137.5,-94 269,-94 269,-123"/>
<text xml:space="preserve" text-anchor="start" x="145.5" y="-109.5" font-family="Helvetica,sans-Serif" font-size="10.00">Simulation::SimulationUnit</text>
<text xml:space="preserve" text-anchor="middle" x="203.25" y="-99" font-family="Helvetica,sans-Serif" font-size="10.00">::getDimensions</text>
</a>
</g>
</g>
<!-- Node1&#45;&gt;Node4 -->
<g id="edge3_Node000001_Node000004" class="edge">
<title>Node1&#45;&gt;Node4</title>
<g id="a_edge3_Node000001_Node000004"><a xlink:title=" ">
<path fill="none" stroke="#63b8ff" d="M101.86,-108.5C109.54,-108.5 117.6,-108.5 125.69,-108.5"/>
<polygon fill="#63b8ff" stroke="#63b8ff" points="125.58,-112 135.58,-108.5 125.58,-105 125.58,-112"/>
</a>
</g>
</g>
<!-- Node5 -->
<g id="Node000005" class="node">
<title>Node5</title>
<g id="a_Node000005"><a xlink:href="classCore_1_1DataExporter.html#a6078190744bea0d5319dedc207ab68b2" target="_top" xlink:title=" ">
<polygon fill="white" stroke="#666666" points="253.62,-76 152.88,-76 152.88,-47 253.62,-47 253.62,-76"/>
<text xml:space="preserve" text-anchor="start" x="160.88" y="-62.5" font-family="Helvetica,sans-Serif" font-size="10.00">Core::DataExporter</text>
<text xml:space="preserve" text-anchor="middle" x="203.25" y="-52" font-family="Helvetica,sans-Serif" font-size="10.00">::write_matrix</text>
</a>
</g>
</g>
<!-- Node1&#45;&gt;Node5 -->
<g id="edge4_Node000001_Node000005" class="edge">
<title>Node1&#45;&gt;Node5</title>
<g id="a_edge4_Node000001_Node000005"><a xlink:title=" ">
<path fill="none" stroke="#63b8ff" d="M99.37,-93.63C113.37,-89.26 128.85,-84.42 143.46,-79.86"/>
<polygon fill="#63b8ff" stroke="#63b8ff" points="144.48,-83.21 152.98,-76.89 142.39,-76.53 144.48,-83.21"/>
</a>
</g>
</g>
<!-- Node6 -->
<g id="Node000006" class="node">
<title>Node6</title>
<g id="a_Node000006"><a xlink:href="classCore_1_1DataExporter.html#a32fb6f00d4e951076a626120c1a4d9eb" target="_top" xlink:title=" ">
<polygon fill="white" stroke="#666666" points="253.62,-29 152.88,-29 152.88,0 253.62,0 253.62,-29"/>
<text xml:space="preserve" text-anchor="start" x="160.88" y="-15.5" font-family="Helvetica,sans-Serif" font-size="10.00">Core::DataExporter</text>
<text xml:space="preserve" text-anchor="middle" x="203.25" y="-5" font-family="Helvetica,sans-Serif" font-size="10.00">::write_simple</text>
</a>
</g>
</g>
<!-- Node1&#45;&gt;Node6 -->
<g id="edge5_Node000001_Node000006" class="edge">
<title>Node1&#45;&gt;Node6</title>
<g id="a_edge5_Node000001_Node000006"><a xlink:title=" ">
<path fill="none" stroke="#63b8ff" d="M66.71,-93.66C82.98,-78.18 110.31,-54.06 137.5,-38.5 140.14,-36.99 142.89,-35.54 145.71,-34.16"/>
<polygon fill="#63b8ff" stroke="#63b8ff" points="147.06,-37.39 154.73,-30.08 144.18,-31.01 147.06,-37.39"/>
</a>
</g>
</g>
</g>
</svg>
