<?xml version="1.0" encoding="UTF-8" standalone="no"?>
<!DOCTYPE svg PUBLIC "-//W3C//DTD SVG 1.1//EN"
 "http://www.w3.org/Graphics/SVG/1.1/DTD/svg11.dtd">
<!-- Generated by graphviz version 14.0.1 (0)
 -->
<!-- Title: Simulation::SimulationUnit::post_cycle Pages: 1 -->
<svg width="487pt" height="213pt"
 viewBox="0.00 0.00 487.00 213.00" xmlns="http://www.w3.org/2000/svg" xmlns:xlink="http://www.w3.org/1999/xlink">
<g id="graph0" class="graph" transform="scale(1 1) rotate(0) translate(4 209)">
<title>Simulation::SimulationUnit::post_cycle</title>
<!-- Node1 -->
<g id="Node000001" class="node">
<title>Node1</title>
<g id="a_Node000001"><a xlink:title=" ">
<polygon fill="#999999" stroke="#666666" points="131.5,-99 0,-99 0,-70 131.5,-70 131.5,-99"/>
<text xml:space="preserve" text-anchor="start" x="8" y="-85.5" font-family="Helvetica,sans-Serif" font-size="10.00">Simulation::SimulationUnit</text>
<text xml:space="preserve" text-anchor="middle" x="65.75" y="-75" font-family="Helvetica,sans-Serif" font-size="10.00">::post_cycle</text>
</a>
</g>
</g>
<!-- Node2 -->
<g id="Node000002" class="node">
<title>Node2</title>
<g id="a_Node000002"><a xlink:href="classMC_1_1ParticlesContainer.html#acca450f3c529a6e6962d76f8f39011e8" target="_top" xlink:title=" ">
<polygon fill="white" stroke="#666666" points="298.62,-193 179.88,-193 179.88,-164 298.62,-164 298.62,-193"/>
<text xml:space="preserve" text-anchor="start" x="187.88" y="-179.5" font-family="Helvetica,sans-Serif" font-size="10.00">MC::ParticlesContainer</text>
<text xml:space="preserve" text-anchor="middle" x="239.25" y="-169" font-family="Helvetica,sans-Serif" font-size="10.00">::clean_dead</text>
</a>
</g>
</g>
<!-- Node1&#45;&gt;Node2 -->
<g id="edge1_Node000001_Node000002" class="edge">
<title>Node1&#45;&gt;Node2</title>
<g id="a_edge1_Node000001_Node000002"><a xlink:title=" ">
<path fill="none" stroke="#63b8ff" d="M93.92,-99.39C122.82,-115.23 168.7,-140.38 200.96,-158.06"/>
<polygon fill="#63b8ff" stroke="#63b8ff" points="199.14,-161.06 209.59,-162.79 202.5,-154.92 199.14,-161.06"/>
</a>
</g>
</g>
<!-- Node4 -->
<g id="Node000004" class="node">
<title>Node4</title>
<g id="a_Node000004"><a xlink:href="classMC_1_1ParticlesContainer.html#a8e95993fb1287c04427780d6372be565" target="_top" xlink:title=" ">
<polygon fill="white" stroke="#666666" points="298.62,-123 179.88,-123 179.88,-94 298.62,-94 298.62,-123"/>
<text xml:space="preserve" text-anchor="start" x="187.88" y="-109.5" font-family="Helvetica,sans-Serif" font-size="10.00">MC::ParticlesContainer</text>
<text xml:space="preserve" text-anchor="middle" x="239.25" y="-99" font-family="Helvetica,sans-Serif" font-size="10.00">::merge_buffer</text>
</a>
</g>
</g>
<!-- Node1&#45;&gt;Node4 -->
<g id="edge3_Node000001_Node000004" class="edge">
<title>Node1&#45;&gt;Node4</title>
<g id="a_edge3_Node000001_Node000004"><a xlink:title=" ">
<path fill="none" stroke="#63b8ff" d="M131.59,-93.57C143.64,-95.26 156.29,-97.03 168.48,-98.74"/>
<polygon fill="#63b8ff" stroke="#63b8ff" points="167.64,-102.15 178.03,-100.07 168.61,-95.22 167.64,-102.15"/>
</a>
</g>
</g>
<!-- Node7 -->
<g id="Node000007" class="node">
<title>Node7</title>
<g id="a_Node000007"><a xlink:href="classSimulation_1_1SimulationUnit.html#ae2077067788b0cb0535c62933724a1cf" target="_top" xlink:title=" ">
<polygon fill="white" stroke="#666666" points="305,-76 173.5,-76 173.5,-47 305,-47 305,-76"/>
<text xml:space="preserve" text-anchor="start" x="181.5" y="-62.5" font-family="Helvetica,sans-Serif" font-size="10.00">Simulation::SimulationUnit</text>
<text xml:space="preserve" text-anchor="middle" x="239.25" y="-52" font-family="Helvetica,sans-Serif" font-size="10.00">::scatter_contribute</text>
</a>
</g>
</g>
<!-- Node1&#45;&gt;Node7 -->
<g id="edge6_Node000001_Node000007" class="edge">
<title>Node1&#45;&gt;Node7</title>
<g id="a_edge6_Node000001_Node000007"><a xlink:title=" ">
<path fill="none" stroke="#63b8ff" d="M131.59,-75.8C141.44,-74.48 151.69,-73.11 161.77,-71.76"/>
<polygon fill="#63b8ff" stroke="#63b8ff" points="162.09,-75.25 171.54,-70.45 161.16,-68.31 162.09,-75.25"/>
</a>
</g>
</g>
<!-- Node9 -->
<g id="Node000009" class="node">
<title>Node9</title>
<g id="a_Node000009"><a xlink:href="classSimulation_1_1SimulationUnit.html#ac396f393b4cf318b38364c5067254c80" target="_top" xlink:title=" ">
<polygon fill="white" stroke="#666666" points="311,-29 167.5,-29 167.5,0 311,0 311,-29"/>
<text xml:space="preserve" text-anchor="start" x="175.5" y="-15.5" font-family="Helvetica,sans-Serif" font-size="10.00">Simulation::SimulationUnit</text>
<text xml:space="preserve" text-anchor="middle" x="239.25" y="-5" font-family="Helvetica,sans-Serif" font-size="10.00">::set_kernel_contribs_to_host</text>
</a>
</g>
</g>
<!-- Node1&#45;&gt;Node9 -->
<g id="edge8_Node000001_Node000009" class="edge">
<title>Node1&#45;&gt;Node9</title>
<g id="a_edge8_Node000001_Node000009"><a xlink:title=" ">
<path fill="none" stroke="#63b8ff" d="M96.31,-69.54C116.17,-59.79 143.08,-47.12 167.5,-37.5 171.16,-36.06 174.94,-34.64 178.78,-33.25"/>
<polygon fill="#63b8ff" stroke="#63b8ff" points="179.93,-36.55 188.21,-29.94 177.61,-29.95 179.93,-36.55"/>
</a>
</g>
</g>
<!-- Node3 -->
<g id="Node000003" class="node">
<title>Node3</title>
<g id="a_Node000003"><a xlink:href="classMC_1_1ParticlesContainer.html#a758b2d11447e82410e4ffe272b509cc2" target="_top" xlink:title=" ">
<polygon fill="white" stroke="#666666" points="472.12,-205 353.38,-205 353.38,-176 472.12,-176 472.12,-205"/>
<text xml:space="preserve" text-anchor="start" x="361.38" y="-191.5" font-family="Helvetica,sans-Serif" font-size="10.00">MC::ParticlesContainer</text>
<text xml:space="preserve" text-anchor="middle" x="412.75" y="-181" font-family="Helvetica,sans-Serif" font-size="10.00">::__shrink__</text>
</a>
</g>
</g>
<!-- Node2&#45;&gt;Node3 -->
<g id="edge2_Node000002_Node000003" class="edge">
<title>Node2&#45;&gt;Node3</title>
<g id="a_edge2_Node000002_Node000003"><a xlink:title=" ">
<path fill="none" stroke="#63b8ff" d="M298.79,-182.6C312.57,-183.56 327.4,-184.6 341.63,-185.59"/>
<polygon fill="#63b8ff" stroke="#63b8ff" points="341.16,-189.07 351.38,-186.28 341.65,-182.09 341.16,-189.07"/>
</a>
</g>
</g>
<!-- Node5 -->
<g id="Node000005" class="node">
<title>Node5</title>
<g id="a_Node000005"><a xlink:href="classMC_1_1ParticlesContainer.html#a29ff4fbca62d202de6bd8a91f2e7d36b" target="_top" xlink:title=" ">
<polygon fill="white" stroke="#666666" points="472.12,-158 353.38,-158 353.38,-129 472.12,-129 472.12,-158"/>
<text xml:space="preserve" text-anchor="start" x="361.38" y="-144.5" font-family="Helvetica,sans-Serif" font-size="10.00">MC::ParticlesContainer</text>
<text xml:space="preserve" text-anchor="middle" x="412.75" y="-134" font-family="Helvetica,sans-Serif" font-size="10.00">::__allocate__</text>
</a>
</g>
</g>
<!-- Node4&#45;&gt;Node5 -->
<g id="edge4_Node000004_Node000005" class="edge">
<title>Node4&#45;&gt;Node5</title>
<g id="a_edge4_Node000004_Node000005"><a xlink:title=" ">
<path fill="none" stroke="#63b8ff" d="M298.79,-120.45C312.57,-123.26 327.4,-126.29 341.63,-129.19"/>
<polygon fill="#63b8ff" stroke="#63b8ff" points="340.91,-132.61 351.41,-131.19 342.31,-125.76 340.91,-132.61"/>
</a>
</g>
</g>
<!-- Node6 -->
<g id="Node000006" class="node">
<title>Node6</title>
<g id="a_Node000006"><a xlink:href="classMC_1_1ParticlesContainer.html#a57fa06d3225acf04522e3fc2993847f0" target="_top" xlink:title=" ">
<polygon fill="white" stroke="#666666" points="472.12,-111 353.38,-111 353.38,-82 472.12,-82 472.12,-111"/>
<text xml:space="preserve" text-anchor="start" x="361.38" y="-97.5" font-family="Helvetica,sans-Serif" font-size="10.00">MC::ParticlesContainer</text>
<text xml:space="preserve" text-anchor="middle" x="412.75" y="-87" font-family="Helvetica,sans-Serif" font-size="10.00">::__allocate_buffer__</text>
</a>
</g>
</g>
<!-- Node4&#45;&gt;Node6 -->
<g id="edge5_Node000004_Node000006" class="edge">
<title>Node4&#45;&gt;Node6</title>
<g id="a_edge5_Node000004_Node000006"><a xlink:title=" ">
<path fill="none" stroke="#63b8ff" d="M298.79,-104.4C312.57,-103.44 327.4,-102.4 341.63,-101.41"/>
<polygon fill="#63b8ff" stroke="#63b8ff" points="341.65,-104.91 351.38,-100.72 341.16,-97.93 341.65,-104.91"/>
</a>
</g>
</g>
<!-- Node8 -->
<g id="Node000008" class="node">
<title>Node8</title>
<g id="a_Node000008"><a xlink:href="classSimulation_1_1SimulationUnit.html#a9ea90cab13d8259f026f57baad1c989f" target="_top" xlink:title=" ">
<polygon fill="white" stroke="#666666" points="478.5,-64 347,-64 347,-35 478.5,-35 478.5,-64"/>
<text xml:space="preserve" text-anchor="start" x="355" y="-50.5" font-family="Helvetica,sans-Serif" font-size="10.00">Simulation::SimulationUnit</text>
<text xml:space="preserve" text-anchor="middle" x="412.75" y="-40" font-family="Helvetica,sans-Serif" font-size="10.00">::get_kernel_contribution</text>
</a>
</g>
</g>
<!-- Node7&#45;&gt;Node8 -->
<g id="edge7_Node000007_Node000008" class="edge">
<title>Node7&#45;&gt;Node8</title>
<g id="a_edge7_Node000007_Node000008"><a xlink:title=" ">
<path fill="none" stroke="#63b8ff" d="M305.09,-56.96C314.94,-56.27 325.19,-55.56 335.27,-54.85"/>
<polygon fill="#63b8ff" stroke="#63b8ff" points="335.3,-58.36 345.03,-54.17 334.81,-51.38 335.3,-58.36"/>
</a>
</g>
</g>
</g>
</svg>
