<?xml version="1.0" encoding="UTF-8" standalone="no"?>
<!DOCTYPE svg PUBLIC "-//W3C//DTD SVG 1.1//EN"
 "http://www.w3.org/Graphics/SVG/1.1/DTD/svg11.dtd">
<!-- Generated by graphviz version 14.0.1 (0)
 -->
<!-- Title: Core::GlobalInitialiser::GlobalInitialiser Pages: 1 -->
<svg width="469pt" height="84pt"
 viewBox="0.00 0.00 469.00 84.00" xmlns="http://www.w3.org/2000/svg" xmlns:xlink="http://www.w3.org/1999/xlink">
<g id="graph0" class="graph" transform="scale(1 1) rotate(0) translate(4 80)">
<title>Core::GlobalInitialiser::GlobalInitialiser</title>
<!-- Node1 -->
<g id="Node000001" class="node">
<title>Node1</title>
<g id="a_Node000001"><a xlink:title="Constructs a GlobalInitialiser instance.">
<polygon fill="#999999" stroke="#666666" points="109.75,-52 0,-52 0,-23 109.75,-23 109.75,-52"/>
<text xml:space="preserve" text-anchor="start" x="8" y="-38.5" font-family="Helvetica,sans-Serif" font-size="10.00">Core::GlobalInitialiser</text>
<text xml:space="preserve" text-anchor="middle" x="54.88" y="-28" font-family="Helvetica,sans-Serif" font-size="10.00">::GlobalInitialiser</text>
</a>
</g>
</g>
<!-- Node2 -->
<g id="Node000002" class="node">
<title>Node2</title>
<g id="a_Node000002"><a xlink:href="namespaceCore.html#a6e3ef77e1bc9420c6557ebad29463b75" target="_top" xlink:title=" ">
<polygon fill="white" stroke="#666666" points="267.5,-76 163.75,-76 163.75,-47 267.5,-47 267.5,-76"/>
<text xml:space="preserve" text-anchor="start" x="171.75" y="-62.5" font-family="Helvetica,sans-Serif" font-size="10.00">Core::check_results</text>
<text xml:space="preserve" text-anchor="middle" x="215.62" y="-52" font-family="Helvetica,sans-Serif" font-size="10.00">_file_name</text>
</a>
</g>
</g>
<!-- Node1&#45;&gt;Node2 -->
<g id="edge1_Node000001_Node000002" class="edge">
<title>Node1&#45;&gt;Node2</title>
<g id="a_edge1_Node000001_Node000002"><a xlink:title=" ">
<path fill="none" stroke="#63b8ff" d="M110.06,-45.69C123.67,-47.75 138.38,-49.97 152.35,-52.09"/>
<polygon fill="#63b8ff" stroke="#63b8ff" points="151.45,-55.49 161.86,-53.52 152.5,-48.57 151.45,-55.49"/>
</a>
</g>
</g>
<!-- Node3 -->
<g id="Node000003" class="node">
<title>Node3</title>
<g id="a_Node000003"><a xlink:href="structCore_1_1SimulationParameters.html#aa4af6c014480bad09adc3054a11e7173" target="_top" xlink:title=" ">
<polygon fill="white" stroke="#666666" points="285.5,-29 145.75,-29 145.75,0 285.5,0 285.5,-29"/>
<text xml:space="preserve" text-anchor="start" x="153.75" y="-15.5" font-family="Helvetica,sans-Serif" font-size="10.00">Core::SimulationParameters</text>
<text xml:space="preserve" text-anchor="middle" x="215.62" y="-5" font-family="Helvetica,sans-Serif" font-size="10.00">::init</text>
</a>
</g>
</g>
<!-- Node1&#45;&gt;Node3 -->
<g id="edge2_Node000001_Node000003" class="edge">
<title>Node1&#45;&gt;Node3</title>
<g id="a_edge2_Node000001_Node000003"><a xlink:title=" ">
<path fill="none" stroke="#63b8ff" d="M110.06,-29.65C117.91,-28.51 126.11,-27.32 134.34,-26.13"/>
<polygon fill="#63b8ff" stroke="#63b8ff" points="134.63,-29.63 144.02,-24.73 133.63,-22.7 134.63,-29.63"/>
</a>
</g>
</g>
<!-- Node4 -->
<g id="Node000004" class="node">
<title>Node4</title>
<g id="a_Node000004"><a xlink:href="structCore_1_1SimulationParameters.html#a16fac412f57df6243d2e7b1dc14d6e01" target="_top" xlink:title=" ">
<polygon fill="white" stroke="#666666" points="461.25,-29 321.5,-29 321.5,0 461.25,0 461.25,-29"/>
<text xml:space="preserve" text-anchor="start" x="329.5" y="-15.5" font-family="Helvetica,sans-Serif" font-size="10.00">Core::SimulationParameters</text>
<text xml:space="preserve" text-anchor="middle" x="391.38" y="-5" font-family="Helvetica,sans-Serif" font-size="10.00">::m_default</text>
</a>
</g>
</g>
<!-- Node3&#45;&gt;Node4 -->
<g id="edge3_Node000003_Node000004" class="edge">
<title>Node3&#45;&gt;Node4</title>
<g id="a_edge3_Node000003_Node000004"><a xlink:title=" ">
<path fill="none" stroke="#63b8ff" d="M285.79,-14.5C293.71,-14.5 301.82,-14.5 309.87,-14.5"/>
<polygon fill="#63b8ff" stroke="#63b8ff" points="309.65,-18 319.65,-14.5 309.65,-11 309.65,-18"/>
</a>
</g>
</g>
</g>
</svg>
