<?xml version="1.0" encoding="UTF-8" standalone="no"?>
<!DOCTYPE svg PUBLIC "-//W3C//DTD SVG 1.1//EN"
 "http://www.w3.org/Graphics/SVG/1.1/DTD/svg11.dtd">
<!-- Generated by graphviz version 14.0.1 (0)
 -->
<!-- Title: Canary::Canary Pages: 1 -->
<svg width="222pt" height="138pt"
 viewBox="0.00 0.00 222.00 138.00" xmlns="http://www.w3.org/2000/svg" xmlns:xlink="http://www.w3.org/1999/xlink">
<g id="graph0" class="graph" transform="scale(1 1) rotate(0) translate(4 133.5)">
<title>Canary::Canary</title>
<!-- Node1 -->
<g id="Node000001" class="node">
<title>Node1</title>
<g id="a_Node000001"><a xlink:title=" ">
<polygon fill="#999999" stroke="#666666" points="214.25,-73.5 130,-73.5 130,-55 214.25,-55 214.25,-73.5"/>
<text xml:space="preserve" text-anchor="middle" x="172.12" y="-60" font-family="Helvetica,sans-Serif" font-size="10.00">Canary::Canary</text>
</a>
</g>
</g>
<!-- Node2 -->
<g id="Node000002" class="node">
<title>Node2</title>
<g id="a_Node000002"><a xlink:href="classCanary.html#a1e5c8ddec51f2d92679b0a45e9d20205" target="_top" xlink:title=" ">
<polygon fill="white" stroke="#666666" points="89.12,-129.5 4.88,-129.5 4.88,-111 89.12,-111 89.12,-129.5"/>
<text xml:space="preserve" text-anchor="middle" x="47" y="-116" font-family="Helvetica,sans-Serif" font-size="10.00">Canary::Canary</text>
</a>
</g>
</g>
<!-- Node1&#45;&gt;Node2 -->
<g id="edge1_Node000001_Node000002" class="edge">
<title>Node1&#45;&gt;Node2</title>
<g id="a_edge1_Node000001_Node000002"><a xlink:title=" ">
<path fill="none" stroke="#63b8ff" d="M141.4,-78.99C127.15,-85.93 109.78,-94.21 94,-101.25 86.9,-104.42 79.1,-107.71 71.98,-110.64"/>
<polygon fill="#63b8ff" stroke="#63b8ff" points="142.81,-82.19 150.25,-74.65 139.73,-75.91 142.81,-82.19"/>
</a>
</g>
</g>
<!-- Node3 -->
<g id="Node000003" class="node">
<title>Node3</title>
<g id="a_Node000003"><a xlink:href="classCanary.html#a830bafc8005e456915e1ef25f942274f" target="_top" xlink:title=" ">
<polygon fill="white" stroke="#666666" points="89.12,-92.5 4.88,-92.5 4.88,-74 89.12,-74 89.12,-92.5"/>
<text xml:space="preserve" text-anchor="middle" x="47" y="-79" font-family="Helvetica,sans-Serif" font-size="10.00">Canary::Canary</text>
</a>
</g>
</g>
<!-- Node1&#45;&gt;Node3 -->
<g id="edge2_Node000001_Node000003" class="edge">
<title>Node1&#45;&gt;Node3</title>
<g id="a_edge2_Node000001_Node000003"><a xlink:title=" ">
<path fill="none" stroke="#63b8ff" d="M118.56,-72.36C108.83,-73.86 98.79,-75.41 89.44,-76.85"/>
<polygon fill="#63b8ff" stroke="#63b8ff" points="118.94,-75.84 128.29,-70.86 117.87,-68.93 118.94,-75.84"/>
</a>
</g>
</g>
<!-- Node4 -->
<g id="Node000004" class="node">
<title>Node4</title>
<g id="a_Node000004"><a xlink:href="classCanary.html#aaad76008c7a07737e5c603eb34392708" target="_top" xlink:title=" ">
<polygon fill="white" stroke="#666666" points="94,-55.5 0,-55.5 0,-37 94,-37 94,-55.5"/>
<text xml:space="preserve" text-anchor="middle" x="47" y="-42" font-family="Helvetica,sans-Serif" font-size="10.00">Canary::operator=</text>
</a>
</g>
</g>
<!-- Node1&#45;&gt;Node4 -->
<g id="edge3_Node000001_Node000004" class="edge">
<title>Node1&#45;&gt;Node4</title>
<g id="a_edge3_Node000001_Node000004"><a xlink:title=" ">
<path fill="none" stroke="#63b8ff" d="M118.51,-56.56C110.39,-55.37 102.07,-54.15 94.11,-52.99"/>
<polygon fill="#63b8ff" stroke="#63b8ff" points="117.88,-60 128.29,-57.99 118.9,-53.08 117.88,-60"/>
</a>
</g>
</g>
<!-- Node5 -->
<g id="Node000005" class="node">
<title>Node5</title>
<g id="a_Node000005"><a xlink:href="classCanary.html#a06f29386da5f86299138805328b89bda" target="_top" xlink:title=" ">
<polygon fill="white" stroke="#666666" points="94,-18.5 0,-18.5 0,0 94,0 94,-18.5"/>
<text xml:space="preserve" text-anchor="middle" x="47" y="-5" font-family="Helvetica,sans-Serif" font-size="10.00">Canary::operator=</text>
</a>
</g>
</g>
<!-- Node1&#45;&gt;Node5 -->
<g id="edge4_Node000001_Node000005" class="edge">
<title>Node1&#45;&gt;Node5</title>
<g id="a_edge4_Node000001_Node000005"><a xlink:title=" ">
<path fill="none" stroke="#63b8ff" d="M140.77,-49.7C126.63,-43.01 109.52,-35.07 94,-28.25 86.88,-25.12 79.08,-21.84 71.96,-18.91"/>
<polygon fill="#63b8ff" stroke="#63b8ff" points="139.04,-52.75 149.57,-53.88 142.04,-46.43 139.04,-52.75"/>
</a>
</g>
</g>
</g>
</svg>
