<?xml version="1.0" encoding="UTF-8" standalone="no"?>
<!DOCTYPE svg PUBLIC "-//W3C//DTD SVG 1.1//EN"
 "http://www.w3.org/Graphics/SVG/1.1/DTD/svg11.dtd">
<!-- Generated by graphviz version 14.0.1 (0)
 -->
<!-- Title: Simulation::SimulationUnit::SimulationUnit Pages: 1 -->
<svg width="642pt" height="347pt"
 viewBox="0.00 0.00 642.00 347.00" xmlns="http://www.w3.org/2000/svg" xmlns:xlink="http://www.w3.org/1999/xlink">
<g id="graph0" class="graph" transform="scale(1 1) rotate(0) translate(4 343)">
<title>Simulation::SimulationUnit::SimulationUnit</title>
<!-- Node1 -->
<g id="Node000001" class="node">
<title>Node1</title>
<g id="a_Node000001"><a xlink:title=" ">
<polygon fill="#999999" stroke="#666666" points="634,-170 502.5,-170 502.5,-141 634,-141 634,-170"/>
<text xml:space="preserve" text-anchor="start" x="510.5" y="-156.5" font-family="Helvetica,sans-Serif" font-size="10.00">Simulation::SimulationUnit</text>
<text xml:space="preserve" text-anchor="middle" x="568.25" y="-146" font-family="Helvetica,sans-Serif" font-size="10.00">::SimulationUnit</text>
</a>
</g>
</g>
<!-- Node2 -->
<g id="Node000002" class="node">
<title>Node2</title>
<g id="a_Node000002"><a xlink:href="classSimulation_1_1SimulationUnit.html#aceb670b889811566ad3c159b8ecb5a9f" target="_top" xlink:title=" ">
<polygon fill="white" stroke="#666666" points="299,-321 167.5,-321 167.5,-292 299,-292 299,-321"/>
<text xml:space="preserve" text-anchor="start" x="175.5" y="-307.5" font-family="Helvetica,sans-Serif" font-size="10.00">Simulation::SimulationUnit</text>
<text xml:space="preserve" text-anchor="middle" x="233.25" y="-297" font-family="Helvetica,sans-Serif" font-size="10.00">::Getter</text>
</a>
</g>
</g>
<!-- Node1&#45;&gt;Node2 -->
<g id="edge1_Node000001_Node000002" class="edge">
<title>Node1&#45;&gt;Node2</title>
<g id="a_edge1_Node000001_Node000002"><a xlink:title=" ">
<path fill="none" stroke="#63b8ff" d="M554.45,-180.26C538.19,-208.94 507.27,-255.1 466.5,-277.5 415.22,-305.67 348.14,-311.33 299.27,-310.88"/>
<polygon fill="#63b8ff" stroke="#63b8ff" points="557.5,-182 559.23,-171.54 551.36,-178.63 557.5,-182"/>
</a>
</g>
</g>
<!-- Node3 -->
<g id="Node000003" class="node">
<title>Node3</title>
<g id="a_Node000003"><a xlink:href="classSimulation_1_1SimulationUnit.html#a255b9ef06424a104581e8aab290e8281" target="_top" xlink:title=" ">
<polygon fill="white" stroke="#666666" points="131.5,-278 0,-278 0,-249 131.5,-249 131.5,-278"/>
<text xml:space="preserve" text-anchor="start" x="8" y="-264.5" font-family="Helvetica,sans-Serif" font-size="10.00">Simulation::SimulationUnit</text>
<text xml:space="preserve" text-anchor="middle" x="65.75" y="-254" font-family="Helvetica,sans-Serif" font-size="10.00">::operator=</text>
</a>
</g>
</g>
<!-- Node1&#45;&gt;Node3 -->
<g id="edge4_Node000001_Node000003" class="edge">
<title>Node1&#45;&gt;Node3</title>
<g id="a_edge4_Node000001_Node000003"><a xlink:title=" ">
<path fill="none" stroke="#63b8ff" d="M548.86,-179.04C530.58,-200.45 500.41,-230.74 466.5,-244.5 355.77,-289.44 213.38,-282.57 131.86,-273.22"/>
<polygon fill="#63b8ff" stroke="#63b8ff" points="551.53,-181.3 555.21,-171.36 546.14,-176.84 551.53,-181.3"/>
</a>
</g>
</g>
<!-- Node4 -->
<g id="Node000004" class="node">
<title>Node4</title>
<g id="a_Node000004"><a xlink:href="classSimulation_1_1SimulationUnit.html#aa8a28ba8699f0b719db0558d4eca98cf" target="_top" xlink:title=" ">
<polygon fill="white" stroke="#666666" points="466.5,-235 335,-235 335,-206 466.5,-206 466.5,-235"/>
<text xml:space="preserve" text-anchor="start" x="343" y="-221.5" font-family="Helvetica,sans-Serif" font-size="10.00">Simulation::SimulationUnit</text>
<text xml:space="preserve" text-anchor="middle" x="400.75" y="-211" font-family="Helvetica,sans-Serif" font-size="10.00">::operator=</text>
</a>
</g>
</g>
<!-- Node1&#45;&gt;Node4 -->
<g id="edge5_Node000001_Node000004" class="edge">
<title>Node1&#45;&gt;Node4</title>
<g id="a_edge5_Node000001_Node000004"><a xlink:title=" ">
<path fill="none" stroke="#63b8ff" d="M522.49,-174.76C505.1,-182.09 484.95,-190.38 466.5,-197.5 459.49,-200.2 452.01,-202.97 444.71,-205.61"/>
<polygon fill="#63b8ff" stroke="#63b8ff" points="523.69,-178.06 531.54,-170.93 520.96,-171.61 523.69,-178.06"/>
</a>
</g>
</g>
<!-- Node5 -->
<g id="Node000005" class="node">
<title>Node5</title>
<g id="a_Node000005"><a xlink:href="classSimulation_1_1SimulationUnit.html#ad984b5d95455d6db475d8b6e20077a0c" target="_top" xlink:title=" ">
<polygon fill="white" stroke="#666666" points="466.5,-170 335,-170 335,-141 466.5,-141 466.5,-170"/>
<text xml:space="preserve" text-anchor="start" x="343" y="-156.5" font-family="Helvetica,sans-Serif" font-size="10.00">Simulation::SimulationUnit</text>
<text xml:space="preserve" text-anchor="middle" x="400.75" y="-146" font-family="Helvetica,sans-Serif" font-size="10.00">::pre_cycle</text>
</a>
</g>
</g>
<!-- Node1&#45;&gt;Node5 -->
<g id="edge6_Node000001_Node000005" class="edge">
<title>Node1&#45;&gt;Node5</title>
<g id="a_edge6_Node000001_Node000005"><a xlink:title=" ">
<path fill="none" stroke="#63b8ff" d="M490.97,-155.5C482.88,-155.5 474.71,-155.5 466.77,-155.5"/>
<polygon fill="#63b8ff" stroke="#63b8ff" points="490.8,-159 500.8,-155.5 490.8,-152 490.8,-159"/>
</a>
</g>
</g>
<!-- Node7 -->
<g id="Node000007" class="node">
<title>Node7</title>
<g id="a_Node000007"><a xlink:href="classSimulation_1_1SimulationUnit.html#a8e019e0aff679d5c93b0b0e8a1f4542e" target="_top" xlink:title=" ">
<polygon fill="white" stroke="#666666" points="466.5,-123 335,-123 335,-94 466.5,-94 466.5,-123"/>
<text xml:space="preserve" text-anchor="start" x="343" y="-109.5" font-family="Helvetica,sans-Serif" font-size="10.00">Simulation::SimulationUnit</text>
<text xml:space="preserve" text-anchor="middle" x="400.75" y="-99" font-family="Helvetica,sans-Serif" font-size="10.00">::SimulationUnit</text>
</a>
</g>
</g>
<!-- Node1&#45;&gt;Node7 -->
<g id="edge10_Node000001_Node000007" class="edge">
<title>Node1&#45;&gt;Node7</title>
<g id="a_edge10_Node000001_Node000007"><a xlink:title=" ">
<path fill="none" stroke="#63b8ff" d="M504.25,-137.61C487.78,-132.93 470.21,-127.94 454.34,-123.44"/>
<polygon fill="#63b8ff" stroke="#63b8ff" points="502.85,-140.85 513.43,-140.22 504.77,-134.12 502.85,-140.85"/>
</a>
</g>
</g>
<!-- Node8 -->
<g id="Node000008" class="node">
<title>Node8</title>
<g id="a_Node000008"><a xlink:href="classSimulation_1_1SimulationUnit.html#aa1fba49aec41255dbf01e2c07067df2a" target="_top" xlink:title=" ">
<polygon fill="white" stroke="#666666" points="466.5,-76 335,-76 335,-47 466.5,-47 466.5,-76"/>
<text xml:space="preserve" text-anchor="start" x="343" y="-62.5" font-family="Helvetica,sans-Serif" font-size="10.00">Simulation::SimulationUnit</text>
<text xml:space="preserve" text-anchor="middle" x="400.75" y="-52" font-family="Helvetica,sans-Serif" font-size="10.00">::SimulationUnit</text>
</a>
</g>
</g>
<!-- Node1&#45;&gt;Node8 -->
<g id="edge11_Node000001_Node000008" class="edge">
<title>Node1&#45;&gt;Node8</title>
<g id="a_edge11_Node000001_Node000008"><a xlink:title=" ">
<path fill="none" stroke="#63b8ff" d="M539.89,-133.66C520.28,-118.72 492.79,-99.22 466.5,-85.5 460.23,-82.23 453.41,-79.19 446.63,-76.45"/>
<polygon fill="#63b8ff" stroke="#63b8ff" points="537.6,-136.31 547.65,-139.65 541.88,-130.77 537.6,-136.31"/>
</a>
</g>
</g>
<!-- Node9 -->
<g id="Node000009" class="node">
<title>Node9</title>
<g id="a_Node000009"><a xlink:href="classSimulation_1_1SimulationUnit.html#aa408a657ba5cc3bbd07683d437ea3579" target="_top" xlink:title=" ">
<polygon fill="white" stroke="#666666" points="466.5,-29 335,-29 335,0 466.5,0 466.5,-29"/>
<text xml:space="preserve" text-anchor="start" x="343" y="-15.5" font-family="Helvetica,sans-Serif" font-size="10.00">Simulation::SimulationUnit</text>
<text xml:space="preserve" text-anchor="middle" x="400.75" y="-5" font-family="Helvetica,sans-Serif" font-size="10.00">::~SimulationUnit</text>
</a>
</g>
</g>
<!-- Node1&#45;&gt;Node9 -->
<g id="edge12_Node000001_Node000009" class="edge">
<title>Node1&#45;&gt;Node9</title>
<g id="a_edge12_Node000001_Node000009"><a xlink:title=" ">
<path fill="none" stroke="#63b8ff" d="M551.9,-131.27C534.21,-105.09 502.84,-63.76 466.5,-38.5 461.58,-35.08 456.11,-32.08 450.49,-29.46"/>
<polygon fill="#63b8ff" stroke="#63b8ff" points="548.94,-133.14 557.37,-139.55 554.79,-129.28 548.94,-133.14"/>
</a>
</g>
</g>
<!-- Node2&#45;&gt;Node2 -->
<g id="edge2_Node000002_Node000002" class="edge">
<title>Node2&#45;&gt;Node2</title>
<g id="a_edge2_Node000002_Node000002"><a xlink:title=" ">
<path fill="none" stroke="#63b8ff" d="M261.68,-332.56C257.22,-336.41 247.74,-339 233.25,-339 206.75,-339 197.02,-330.32 204.06,-321.21"/>
<polygon fill="#63b8ff" stroke="#63b8ff" points="265.16,-332.93 262.34,-322.72 258.18,-332.46 265.16,-332.93"/>
</a>
</g>
</g>
<!-- Node2&#45;&gt;Node3 -->
<g id="edge3_Node000002_Node000003" class="edge">
<title>Node2&#45;&gt;Node3</title>
<g id="a_edge3_Node000002_Node000003"><a xlink:title=" ">
<path fill="none" stroke="#63b8ff" d="M163.93,-288.75C150.78,-285.33 137.12,-281.78 124.35,-278.47"/>
<polygon fill="#63b8ff" stroke="#63b8ff" points="162.81,-292.07 173.37,-291.2 164.57,-285.3 162.81,-292.07"/>
</a>
</g>
</g>
<!-- Node5&#45;&gt;Node5 -->
<g id="edge9_Node000005_Node000005" class="edge">
<title>Node5&#45;&gt;Node5</title>
<g id="a_edge9_Node000005_Node000005"><a xlink:title=" ">
<path fill="none" stroke="#63b8ff" d="M429.18,-181.56C424.72,-185.41 415.24,-188 400.75,-188 374.25,-188 364.52,-179.32 371.56,-170.21"/>
<polygon fill="#63b8ff" stroke="#63b8ff" points="432.66,-181.93 429.84,-171.72 425.68,-181.46 432.66,-181.93"/>
</a>
</g>
</g>
<!-- Node6 -->
<g id="Node000006" class="node">
<title>Node6</title>
<g id="a_Node000006"><a xlink:href="classSimulation_1_1SimulationUnit.html#a5512cea54affc3eb0c16380d973348e5" target="_top" xlink:title=" ">
<polygon fill="white" stroke="#666666" points="299,-203 167.5,-203 167.5,-174 299,-174 299,-203"/>
<text xml:space="preserve" text-anchor="start" x="175.5" y="-189.5" font-family="Helvetica,sans-Serif" font-size="10.00">Simulation::SimulationUnit</text>
<text xml:space="preserve" text-anchor="middle" x="233.25" y="-179" font-family="Helvetica,sans-Serif" font-size="10.00">::cycleProcess</text>
</a>
</g>
</g>
<!-- Node5&#45;&gt;Node6 -->
<g id="edge7_Node000005_Node000006" class="edge">
<title>Node5&#45;&gt;Node6</title>
<g id="a_edge7_Node000005_Node000006"><a xlink:title=" ">
<path fill="none" stroke="#63b8ff" d="M323.75,-170.65C315.57,-172.29 307.3,-173.93 299.27,-175.54"/>
<polygon fill="#63b8ff" stroke="#63b8ff" points="324.21,-174.13 333.33,-168.74 322.84,-167.27 324.21,-174.13"/>
</a>
</g>
</g>
<!-- Node6&#45;&gt;Node3 -->
<g id="edge8_Node000006_Node000003" class="edge">
<title>Node6&#45;&gt;Node3</title>
<g id="a_edge8_Node000006_Node000003"><a xlink:title=" ">
<path fill="none" stroke="#63b8ff" d="M188.89,-208.15C161.02,-220.78 125.37,-236.94 99.79,-248.53"/>
<polygon fill="#63b8ff" stroke="#63b8ff" points="190.11,-211.44 197.78,-204.12 187.22,-205.06 190.11,-211.44"/>
</a>
</g>
</g>
</g>
</svg>
