<?xml version="1.0" encoding="UTF-8" standalone="no"?>
<!DOCTYPE svg PUBLIC "-//W3C//DTD SVG 1.1//EN"
 "http://www.w3.org/Graphics/SVG/1.1/DTD/svg11.dtd">
<!-- Generated by graphviz version 14.0.1 (0)
 -->
<!-- Title: Simulation::Getter Pages: 1 -->
<svg width="387pt" height="222pt"
 viewBox="0.00 0.00 387.00 222.00" xmlns="http://www.w3.org/2000/svg" xmlns:xlink="http://www.w3.org/1999/xlink">

<svg id="main" version="1.1" xmlns="http://www.w3.org/2000/svg" xmlns:xlink="http://www.w3.org/1999/xlink" xml:space="preserve">

<style type="text/css"><![CDATA[
.node, .edge {opacity: 0.7;}
.node.selected, .edge.selected {opacity: 1;}
.edge:hover path { stroke: red; }
.edge:hover polygon { stroke: red; fill: red; }
]]></style>
<script type="application/ecmascript" xlink:href="svg.min.js"/>
<svg id="graph" class="graph">
<g id="graph0" class="graph" transform="scale(1 1) rotate(0) translate(4 217.84)">
<title>Simulation::Getter</title>
<!-- Node1 -->
<g id="Node000001" class="node">
<title>Node1</title>
<g id="a_Node000001"><a xlink:title=" ">
<polygon fill="#999999" stroke="#666666" points="128.88,-205.75 34.12,-205.75 34.12,-187.25 128.88,-187.25 128.88,-205.75"/>
<text xml:space="preserve" text-anchor="middle" x="81.5" y="-192.25" font-family="Helvetica,sans-Serif" font-size="10.00">Simulation::Getter</text>
</a>
</g>
</g>
<!-- Node2 -->
<g id="Node000002" class="node">
<title>Node2</title>
<g id="a_Node000002"><a xlink:href="classSimulation_1_1SimulationUnit.html" target="_top" xlink:title=" ">
<polygon fill="white" stroke="#666666" points="379.25,-125.75 247.75,-125.75 247.75,-107.25 379.25,-107.25 379.25,-125.75"/>
<text xml:space="preserve" text-anchor="middle" x="313.5" y="-112.25" font-family="Helvetica,sans-Serif" font-size="10.00">Simulation::SimulationUnit</text>
</a>
</g>
</g>
<!-- Node1&#45;&gt;Node2 -->
<g id="edge2_Node000002_Node000001" class="edge">
<title>Node1&#45;&gt;Node2</title>
<g id="a_edge2_Node000002_Node000001"><a xlink:title=" ">
<path fill="none" stroke="#9a32cd" stroke-dasharray="5,2" d="M140.45,-200.25C168.37,-200.07 201.77,-196.83 229.75,-185.5 262,-172.44 291.07,-141.93 304.56,-126.23"/>
<polygon fill="#9a32cd" stroke="#9a32cd" points="140.8,-196.76 130.77,-200.18 140.75,-203.76 140.8,-196.76"/>
</a>
</g>
<text xml:space="preserve" text-anchor="start" x="188.12" y="-201.34" font-family="Helvetica,sans-Serif" font-size="10.00" fill="grey">accesor</text>
</g>
<!-- Node2&#45;&gt;Node1 -->
<g id="edge1_Node000001_Node000002" class="edge">
<title>Node2&#45;&gt;Node1</title>
<g id="a_edge1_Node000001_Node000002"><a xlink:title=" ">
<path fill="none" stroke="#9a32cd" stroke-dasharray="5,2" d="M277.7,-130.44C262.97,-136.21 245.59,-142.86 229.75,-148.5 190.11,-162.61 143.9,-177.41 113.98,-186.78"/>
<polygon fill="#9a32cd" stroke="#9a32cd" points="278.94,-133.71 286.96,-126.78 276.37,-127.2 278.94,-133.71"/>
</a>
</g>
<text xml:space="preserve" text-anchor="start" x="200.12" y="-169.07" font-family="Helvetica,sans-Serif" font-size="10.00" fill="grey">a_</text>
</g>
<!-- Node3 -->
<g id="Node000003" class="node">
<title>Node3</title>
<g id="a_Node000003"><a xlink:href="structSimulation_1_1Dimensions.html" target="_top" xlink:title=" ">
<polygon fill="white" stroke="#666666" points="141.25,-145.75 21.75,-145.75 21.75,-127.25 141.25,-127.25 141.25,-145.75"/>
<text xml:space="preserve" text-anchor="middle" x="81.5" y="-132.25" font-family="Helvetica,sans-Serif" font-size="10.00">Simulation::Dimensions</text>
</a>
</g>
</g>
<!-- Node3&#45;&gt;Node2 -->
<g id="edge3_Node000002_Node000003" class="edge">
<title>Node3&#45;&gt;Node2</title>
<g id="a_edge3_Node000002_Node000003"><a xlink:title=" ">
<path fill="none" stroke="#9a32cd" stroke-dasharray="5,2" d="M153,-130.37C183.07,-127.75 217.95,-124.72 247.4,-122.16"/>
<polygon fill="#9a32cd" stroke="#9a32cd" points="152.9,-126.87 143.24,-131.22 153.5,-133.84 152.9,-126.87"/>
</a>
</g>
<text xml:space="preserve" text-anchor="start" x="194.88" y="-131.7" font-family="Helvetica,sans-Serif" font-size="10.00" fill="grey">dims</text>
</g>
<!-- Node4 -->
<g id="Node000004" class="node">
<title>Node4</title>
<g id="a_Node000004"><a xlink:href="classSimulation_1_1Feed_1_1SimulationFeed.html" target="_top" xlink:title=" ">
<polygon fill="white" stroke="#666666" points="163,-105.75 0,-105.75 0,-87.25 163,-87.25 163,-105.75"/>
<text xml:space="preserve" text-anchor="middle" x="81.5" y="-92.25" font-family="Helvetica,sans-Serif" font-size="10.00">Simulation::Feed::SimulationFeed</text>
</a>
</g>
</g>
<!-- Node4&#45;&gt;Node2 -->
<g id="edge4_Node000002_Node000004" class="edge">
<title>Node4&#45;&gt;Node2</title>
<g id="a_edge4_Node000002_Node000004"><a xlink:title=" ">
<path fill="none" stroke="#9a32cd" stroke-dasharray="5,2" d="M174.53,-99.78C192.85,-100.83 211.93,-102.2 229.75,-104 237.27,-104.76 245.14,-105.72 252.93,-106.78"/>
<polygon fill="#9a32cd" stroke="#9a32cd" points="174.92,-96.3 164.75,-99.25 174.54,-103.29 174.92,-96.3"/>
</a>
</g>
<text xml:space="preserve" text-anchor="start" x="189.25" y="-108" font-family="Helvetica,sans-Serif" font-size="10.00" fill="grey">m_feed</text>
</g>
<!-- Node5 -->
<g id="Node000005" class="node">
<title>Node5</title>
<g id="a_Node000005"><a xlink:href="structSimulation_1_1SimulatimeTimes.html" target="_top" xlink:title=" ">
<polygon fill="white" stroke="#666666" points="153.25,-65.75 9.75,-65.75 9.75,-47.25 153.25,-47.25 153.25,-65.75"/>
<text xml:space="preserve" text-anchor="middle" x="81.5" y="-52.25" font-family="Helvetica,sans-Serif" font-size="10.00">Simulation::SimulatimeTimes</text>
</a>
</g>
</g>
<!-- Node5&#45;&gt;Node2 -->
<g id="edge5_Node000002_Node000005" class="edge">
<title>Node5&#45;&gt;Node2</title>
<g id="a_edge5_Node000002_Node000005"><a xlink:title=" ">
<path fill="none" stroke="#9a32cd" stroke-dasharray="5,2" d="M165.06,-65.85C186.38,-69.31 209.12,-73.92 229.75,-80 252.79,-86.8 277.85,-98.51 294.28,-106.83"/>
<polygon fill="#9a32cd" stroke="#9a32cd" points="165.64,-62.4 155.22,-64.33 164.57,-69.32 165.64,-62.4"/>
</a>
</g>
<text xml:space="preserve" text-anchor="start" x="186.62" y="-84" font-family="Helvetica,sans-Serif" font-size="10.00" fill="grey">m_times</text>
</g>
<!-- Node6 -->
<g id="Node000006" class="node">
<title>Node6</title>
<g id="a_Node000006"><a xlink:href="classSimulation_1_1MassTransfer_1_1MassTransferModel.html" target="_top" xlink:title=" ">
<polygon fill="white" stroke="#666666" points="145,-29 18,-29 18,0 145,0 145,-29"/>
<text xml:space="preserve" text-anchor="start" x="26" y="-15.5" font-family="Helvetica,sans-Serif" font-size="10.00">Simulation::MassTransfer</text>
<text xml:space="preserve" text-anchor="middle" x="81.5" y="-5" font-family="Helvetica,sans-Serif" font-size="10.00">::MassTransferModel</text>
</a>
</g>
</g>
<!-- Node6&#45;&gt;Node2 -->
<g id="edge6_Node000002_Node000006" class="edge">
<title>Node6&#45;&gt;Node2</title>
<g id="a_edge6_Node000002_Node000006"><a xlink:title=" ">
<path fill="none" stroke="#9a32cd" stroke-dasharray="5,2" d="M156.51,-24.33C180.68,-29.35 207.11,-36.85 229.75,-48 260.54,-63.16 289.82,-91.91 303.85,-106.89"/>
<polygon fill="#9a32cd" stroke="#9a32cd" points="157.19,-20.9 146.7,-22.42 155.85,-27.77 157.19,-20.9"/>
</a>
</g>
<text xml:space="preserve" text-anchor="start" x="184" y="-52" font-family="Helvetica,sans-Serif" font-size="10.00" fill="grey">mt_model</text>
</g>
</g>
</svg>
</svg>

<style type='text/css'>
<![CDATA[
[data-mouse-over-selected='false'] { opacity: 0.7; }
[data-mouse-over-selected='true']  { opacity: 1.0; }
]]>
</style>
<script type="application/ecmascript"><![CDATA[
document.addEventListener('DOMContentLoaded', (event) => {
  highlightEdges();
  highlightAdjacentNodes();
});
]]></script>
</svg>
