<?xml version="1.0" encoding="UTF-8" standalone="no"?>
<!DOCTYPE svg PUBLIC "-//W3C//DTD SVG 1.1//EN"
 "http://www.w3.org/Graphics/SVG/1.1/DTD/svg11.dtd">
<!-- Generated by graphviz version 14.0.1 (0)
 -->
<!-- Title: MC::ParticlesContainer::__allocate_buffer__ Pages: 1 -->
<svg width="784pt" height="283pt"
 viewBox="0.00 0.00 784.00 283.00" xmlns="http://www.w3.org/2000/svg" xmlns:xlink="http://www.w3.org/1999/xlink">
<g id="graph0" class="graph" transform="scale(1 1) rotate(0) translate(4 279)">
<title>MC::ParticlesContainer::__allocate_buffer__</title>
<!-- Node1 -->
<g id="Node000001" class="node">
<title>Node1</title>
<g id="a_Node000001"><a xlink:title=" ">
<polygon fill="#999999" stroke="#666666" points="776,-228 657.25,-228 657.25,-199 776,-199 776,-228"/>
<text xml:space="preserve" text-anchor="start" x="665.25" y="-214.5" font-family="Helvetica,sans-Serif" font-size="10.00">MC::ParticlesContainer</text>
<text xml:space="preserve" text-anchor="middle" x="716.62" y="-204" font-family="Helvetica,sans-Serif" font-size="10.00">::__allocate_buffer__</text>
</a>
</g>
</g>
<!-- Node2 -->
<g id="Node000002" class="node">
<title>Node2</title>
<g id="a_Node000002"><a xlink:href="classMC_1_1ParticlesContainer.html#adae9af7cbb629530927d504f5fe75c90" target="_top" xlink:title="Load data from ar for deserialization.">
<polygon fill="white" stroke="#666666" points="621.25,-275 502.5,-275 502.5,-246 621.25,-246 621.25,-275"/>
<text xml:space="preserve" text-anchor="start" x="510.5" y="-261.5" font-family="Helvetica,sans-Serif" font-size="10.00">MC::ParticlesContainer</text>
<text xml:space="preserve" text-anchor="middle" x="561.88" y="-251" font-family="Helvetica,sans-Serif" font-size="10.00">::load</text>
</a>
</g>
</g>
<!-- Node1&#45;&gt;Node2 -->
<g id="edge1_Node000001_Node000002" class="edge">
<title>Node1&#45;&gt;Node2</title>
<g id="a_edge1_Node000001_Node000002"><a xlink:title=" ">
<path fill="none" stroke="#63b8ff" d="M656.61,-231.66C641.66,-236.26 625.78,-241.14 611.42,-245.56"/>
<polygon fill="#63b8ff" stroke="#63b8ff" points="657.32,-235.1 665.85,-228.82 655.26,-228.41 657.32,-235.1"/>
</a>
</g>
</g>
<!-- Node3 -->
<g id="Node000003" class="node">
<title>Node3</title>
<g id="a_Node000003"><a xlink:href="classMC_1_1ParticlesContainer.html#a8e95993fb1287c04427780d6372be565" target="_top" xlink:title="Insert particle buffer into the main container.">
<polygon fill="white" stroke="#666666" points="621.25,-228 502.5,-228 502.5,-199 621.25,-199 621.25,-228"/>
<text xml:space="preserve" text-anchor="start" x="510.5" y="-214.5" font-family="Helvetica,sans-Serif" font-size="10.00">MC::ParticlesContainer</text>
<text xml:space="preserve" text-anchor="middle" x="561.88" y="-204" font-family="Helvetica,sans-Serif" font-size="10.00">::merge_buffer</text>
</a>
</g>
</g>
<!-- Node1&#45;&gt;Node3 -->
<g id="edge2_Node000001_Node000003" class="edge">
<title>Node1&#45;&gt;Node3</title>
<g id="a_edge2_Node000001_Node000003"><a xlink:title=" ">
<path fill="none" stroke="#63b8ff" d="M645.71,-213.5C637.64,-213.5 629.48,-213.5 621.59,-213.5"/>
<polygon fill="#63b8ff" stroke="#63b8ff" points="645.49,-217 655.49,-213.5 645.49,-210 645.49,-217"/>
</a>
</g>
</g>
<!-- Node7 -->
<g id="Node000007" class="node">
<title>Node7</title>
<g id="a_Node000007"><a xlink:href="classMC_1_1ParticlesContainer.html#a03a343614bef6821b8815902e3185e37" target="_top" xlink:title="Alias for the model used by the container.">
<polygon fill="white" stroke="#666666" points="621.25,-146 502.5,-146 502.5,-117 621.25,-117 621.25,-146"/>
<text xml:space="preserve" text-anchor="start" x="510.5" y="-132.5" font-family="Helvetica,sans-Serif" font-size="10.00">MC::ParticlesContainer</text>
<text xml:space="preserve" text-anchor="middle" x="561.88" y="-122" font-family="Helvetica,sans-Serif" font-size="10.00">::ParticlesContainer</text>
</a>
</g>
</g>
<!-- Node1&#45;&gt;Node7 -->
<g id="edge6_Node000001_Node000007" class="edge">
<title>Node1&#45;&gt;Node7</title>
<g id="a_edge6_Node000001_Node000007"><a xlink:title=" ">
<path fill="none" stroke="#63b8ff" d="M678.07,-193.34C651,-178.81 615.08,-159.52 590.59,-146.38"/>
<polygon fill="#63b8ff" stroke="#63b8ff" points="676.16,-196.29 686.63,-197.93 679.47,-190.12 676.16,-196.29"/>
</a>
</g>
</g>
<!-- Node4 -->
<g id="Node000004" class="node">
<title>Node4</title>
<g id="a_Node000004"><a xlink:href="classSimulation_1_1SimulationUnit.html#a96e8f3fbde370c918a3710b0b910cd42" target="_top" xlink:title=" ">
<polygon fill="white" stroke="#666666" points="466.5,-264 335,-264 335,-235 466.5,-235 466.5,-264"/>
<text xml:space="preserve" text-anchor="start" x="343" y="-250.5" font-family="Helvetica,sans-Serif" font-size="10.00">Simulation::SimulationUnit</text>
<text xml:space="preserve" text-anchor="middle" x="400.75" y="-240" font-family="Helvetica,sans-Serif" font-size="10.00">::post_cycle</text>
</a>
</g>
</g>
<!-- Node3&#45;&gt;Node4 -->
<g id="edge3_Node000003_Node000004" class="edge">
<title>Node3&#45;&gt;Node4</title>
<g id="a_edge3_Node000003_Node000004"><a xlink:title=" ">
<path fill="none" stroke="#63b8ff" d="M490.86,-229.34C482.84,-231.15 474.69,-233 466.74,-234.8"/>
<polygon fill="#63b8ff" stroke="#63b8ff" points="491.62,-232.76 500.6,-227.14 490.07,-225.93 491.62,-232.76"/>
</a>
</g>
</g>
<!-- Node5 -->
<g id="Node000005" class="node">
<title>Node5</title>
<g id="a_Node000005"><a xlink:href="classSimulation_1_1SimulationUnit.html#a7b49fd171d4de8aa3949738da6c3810f" target="_top" xlink:title=" ">
<polygon fill="white" stroke="#666666" points="299,-264 167.5,-264 167.5,-235 299,-235 299,-264"/>
<text xml:space="preserve" text-anchor="start" x="175.5" y="-250.5" font-family="Helvetica,sans-Serif" font-size="10.00">Simulation::SimulationUnit</text>
<text xml:space="preserve" text-anchor="middle" x="233.25" y="-240" font-family="Helvetica,sans-Serif" font-size="10.00">::cycleProcess</text>
</a>
</g>
</g>
<!-- Node4&#45;&gt;Node5 -->
<g id="edge4_Node000004_Node000005" class="edge">
<title>Node4&#45;&gt;Node5</title>
<g id="a_edge4_Node000004_Node000005"><a xlink:title=" ">
<path fill="none" stroke="#63b8ff" d="M323.47,-249.5C315.38,-249.5 307.21,-249.5 299.27,-249.5"/>
<polygon fill="#63b8ff" stroke="#63b8ff" points="323.3,-253 333.3,-249.5 323.3,-246 323.3,-253"/>
</a>
</g>
</g>
<!-- Node6 -->
<g id="Node000006" class="node">
<title>Node6</title>
<g id="a_Node000006"><a xlink:href="classSimulation_1_1SimulationUnit.html#adc096ee7d35524a8107a3390daa55a1a" target="_top" xlink:title=" ">
<polygon fill="white" stroke="#666666" points="131.5,-264 0,-264 0,-235 131.5,-235 131.5,-264"/>
<text xml:space="preserve" text-anchor="start" x="8" y="-250.5" font-family="Helvetica,sans-Serif" font-size="10.00">Simulation::SimulationUnit</text>
<text xml:space="preserve" text-anchor="middle" x="65.75" y="-240" font-family="Helvetica,sans-Serif" font-size="10.00">::getState</text>
</a>
</g>
</g>
<!-- Node5&#45;&gt;Node6 -->
<g id="edge5_Node000005_Node000006" class="edge">
<title>Node5&#45;&gt;Node6</title>
<g id="a_edge5_Node000005_Node000006"><a xlink:title=" ">
<path fill="none" stroke="#63b8ff" d="M155.97,-249.5C147.88,-249.5 139.71,-249.5 131.77,-249.5"/>
<polygon fill="#63b8ff" stroke="#63b8ff" points="155.8,-253 165.8,-249.5 155.8,-246 155.8,-253"/>
</a>
</g>
</g>
<!-- Node8 -->
<g id="Node000008" class="node">
<title>Node8</title>
<g id="a_Node000008"><a xlink:href="classMC_1_1ParticlesContainer.html#ad499de971fbe1a2cf3e1adbe2bb151d6" target="_top" xlink:title=" ">
<polygon fill="white" stroke="#666666" points="460.12,-217 341.38,-217 341.38,-188 460.12,-188 460.12,-217"/>
<text xml:space="preserve" text-anchor="start" x="349.38" y="-203.5" font-family="Helvetica,sans-Serif" font-size="10.00">MC::ParticlesContainer</text>
<text xml:space="preserve" text-anchor="middle" x="400.75" y="-193" font-family="Helvetica,sans-Serif" font-size="10.00">::operator=</text>
</a>
</g>
</g>
<!-- Node7&#45;&gt;Node8 -->
<g id="edge7_Node000007_Node000008" class="edge">
<title>Node7&#45;&gt;Node8</title>
<g id="a_edge7_Node000007_Node000008"><a xlink:title=" ">
<path fill="none" stroke="#63b8ff" d="M524.36,-151.46C507.07,-160.55 485.98,-171.13 466.5,-179.5 460.03,-182.28 453.11,-185 446.28,-187.54"/>
<polygon fill="#63b8ff" stroke="#63b8ff" points="525.54,-154.8 532.72,-147.02 522.25,-148.62 525.54,-154.8"/>
</a>
</g>
</g>
<!-- Node9 -->
<g id="Node000009" class="node">
<title>Node9</title>
<g id="a_Node000009"><a xlink:href="classMC_1_1ParticlesContainer.html#a5d93b87f5a6e18c449e0ed62333e9d6e" target="_top" xlink:title=" ">
<polygon fill="white" stroke="#666666" points="460.12,-170 341.38,-170 341.38,-141 460.12,-141 460.12,-170"/>
<text xml:space="preserve" text-anchor="start" x="349.38" y="-156.5" font-family="Helvetica,sans-Serif" font-size="10.00">MC::ParticlesContainer</text>
<text xml:space="preserve" text-anchor="middle" x="400.75" y="-146" font-family="Helvetica,sans-Serif" font-size="10.00">::operator=</text>
</a>
</g>
</g>
<!-- Node7&#45;&gt;Node9 -->
<g id="edge8_Node000007_Node000009" class="edge">
<title>Node7&#45;&gt;Node9</title>
<g id="a_edge8_Node000007_Node000009"><a xlink:title=" ">
<path fill="none" stroke="#63b8ff" d="M490.8,-142.07C480.71,-143.59 470.42,-145.14 460.57,-146.63"/>
<polygon fill="#63b8ff" stroke="#63b8ff" points="491.21,-145.55 500.58,-140.59 490.17,-138.62 491.21,-145.55"/>
</a>
</g>
</g>
<!-- Node10 -->
<g id="Node000010" class="node">
<title>Node10</title>
<g id="a_Node000010"><a xlink:href="classMC_1_1ParticlesContainer.html#a5b4a66b67d3b4942557b22538958480a" target="_top" xlink:title=" ">
<polygon fill="white" stroke="#666666" points="460.12,-123 341.38,-123 341.38,-94 460.12,-94 460.12,-123"/>
<text xml:space="preserve" text-anchor="start" x="349.38" y="-109.5" font-family="Helvetica,sans-Serif" font-size="10.00">MC::ParticlesContainer</text>
<text xml:space="preserve" text-anchor="middle" x="400.75" y="-99" font-family="Helvetica,sans-Serif" font-size="10.00">::ParticlesContainer</text>
</a>
</g>
</g>
<!-- Node7&#45;&gt;Node10 -->
<g id="edge9_Node000007_Node000010" class="edge">
<title>Node7&#45;&gt;Node10</title>
<g id="a_edge9_Node000007_Node000010"><a xlink:title=" ">
<path fill="none" stroke="#63b8ff" d="M490.8,-121.37C480.71,-119.91 470.42,-118.43 460.57,-117"/>
<polygon fill="#63b8ff" stroke="#63b8ff" points="490.18,-124.82 500.58,-122.78 491.18,-117.89 490.18,-124.82"/>
</a>
</g>
</g>
<!-- Node11 -->
<g id="Node000011" class="node">
<title>Node11</title>
<g id="a_Node000011"><a xlink:href="classMC_1_1ParticlesContainer.html#adacba063d362632ca0899bae750b628a" target="_top" xlink:title="Default copy and move constructors and assignment operators.">
<polygon fill="white" stroke="#666666" points="460.12,-76 341.38,-76 341.38,-47 460.12,-47 460.12,-76"/>
<text xml:space="preserve" text-anchor="start" x="349.38" y="-62.5" font-family="Helvetica,sans-Serif" font-size="10.00">MC::ParticlesContainer</text>
<text xml:space="preserve" text-anchor="middle" x="400.75" y="-52" font-family="Helvetica,sans-Serif" font-size="10.00">::ParticlesContainer</text>
</a>
</g>
</g>
<!-- Node7&#45;&gt;Node11 -->
<g id="edge10_Node000007_Node000011" class="edge">
<title>Node7&#45;&gt;Node11</title>
<g id="a_edge10_Node000007_Node000011"><a xlink:title=" ">
<path fill="none" stroke="#63b8ff" d="M522.23,-111.6C505.3,-103.16 485.1,-93.46 466.5,-85.5 459.23,-82.39 451.4,-79.29 443.79,-76.39"/>
<polygon fill="#63b8ff" stroke="#63b8ff" points="520.44,-114.62 530.95,-115.98 523.59,-108.36 520.44,-114.62"/>
</a>
</g>
</g>
<!-- Node12 -->
<g id="Node000012" class="node">
<title>Node12</title>
<g id="a_Node000012"><a xlink:href="classMC_1_1ParticlesContainer.html#ae0cd8cf83c2728db495167ec2f10d80a" target="_top" xlink:title=" ">
<polygon fill="white" stroke="#666666" points="460.12,-29 341.38,-29 341.38,0 460.12,0 460.12,-29"/>
<text xml:space="preserve" text-anchor="start" x="349.38" y="-15.5" font-family="Helvetica,sans-Serif" font-size="10.00">MC::ParticlesContainer</text>
<text xml:space="preserve" text-anchor="middle" x="400.75" y="-5" font-family="Helvetica,sans-Serif" font-size="10.00">::ParticlesContainer</text>
</a>
</g>
</g>
<!-- Node7&#45;&gt;Node12 -->
<g id="edge11_Node000007_Node000012" class="edge">
<title>Node7&#45;&gt;Node12</title>
<g id="a_edge11_Node000007_Node000012"><a xlink:title=" ">
<path fill="none" stroke="#63b8ff" d="M541.93,-107.82C524.29,-87.11 496.29,-57.45 466.5,-38.5 461.14,-35.09 455.22,-32.06 449.21,-29.41"/>
<polygon fill="#63b8ff" stroke="#63b8ff" points="539.22,-110.03 548.31,-115.48 544.59,-105.55 539.22,-110.03"/>
</a>
</g>
</g>
</g>
</svg>
