<?xml version="1.0" encoding="UTF-8" standalone="no"?>
<!DOCTYPE svg PUBLIC "-//W3C//DTD SVG 1.1//EN"
 "http://www.w3.org/Graphics/SVG/1.1/DTD/svg11.dtd">
<!-- Generated by graphviz version 14.0.1 (0)
 -->
<!-- Title: Simulation::SimulationUnit::post_init_concentration Pages: 1 -->
<!--zoomable 278 -->

<svg id="main" version="1.1" xmlns="http://www.w3.org/2000/svg" xmlns:xlink="http://www.w3.org/1999/xlink" xml:space="preserve" onload="init(evt)">

<style type="text/css"><![CDATA[
.node, .edge {opacity: 0.7;}
.node.selected, .edge.selected {opacity: 1;}
.edge:hover path { stroke: red; }
.edge:hover polygon { stroke: red; fill: red; }
]]></style>

<defs>
  <circle id="rim" cx="0" cy="0" r="7"/>
  <circle id="rim2" cx="0" cy="0" r="3.5"/>
  <g id="zoomPlus">
    <use xlink:href="#rim" fill="#404040"><set attributeName="fill" to="#808080" begin="zoomplus.mouseover" end="zoomplus.mouseout"/></use>
    <path d="M-4,0h8M0,-4v8" fill="none" stroke="white" stroke-width="1.5" pointer-events="none"/>
  </g>
  <g id="zoomMin">
    <use xlink:href="#rim" fill="#404040"><set attributeName="fill" to="#808080" begin="zoomminus.mouseover" end="zoomminus.mouseout"/></use>
    <path d="M-4,0h8" fill="none" stroke="white" stroke-width="1.5" pointer-events="none"/>
  </g>
  <g id="arrowUp" transform="translate(30 24)">
    <use xlink:href="#rim"/>
    <path pointer-events="none" fill="none" stroke="white" stroke-width="1.5" d="M0,-3.0v7 M-2.5,-0.5L0,-3.0L2.5,-0.5"/>
  </g>
  <g id="arrowRight" transform="rotate(90) translate(36 -43)">
    <use xlink:href="#rim"/>
    <path pointer-events="none" fill="none" stroke="white" stroke-width="1.5" d="M0,-3.0v7 M-2.5,-0.5L0,-3.0L2.5,-0.5"/>
  </g>
  <g id="arrowDown" transform="rotate(180) translate(-30 -48)">
    <use xlink:href="#rim"/>
    <path pointer-events="none" fill="none" stroke="white" stroke-width="1.5" d="M0,-3.0v7 M-2.5,-0.5L0,-3.0L2.5,-0.5"/>
  </g>
  <g id="arrowLeft" transform="rotate(270) translate(-36 17)">
    <use xlink:href="#rim"/>
    <path pointer-events="none" fill="none" stroke="white" stroke-width="1.5" d="M0,-3.0v7 M-2.5,-0.5L0,-3.0L2.5,-0.5"/>
  </g>
  <g id="resetDef">
    <use xlink:href="#rim2" fill="#404040"><set attributeName="fill" to="#808080" begin="reset.mouseover" end="reset.mouseout"/></use>
  </g>
</defs>
<script type="application/ecmascript">
var viewWidth = 810;
var viewHeight = 278;
var sectionId = 'dynsection-25';
</script>
<script type="application/ecmascript" xlink:href="svg.min.js"/>
<svg id="graph" class="graph">
<g id="viewport">
<title>Simulation::SimulationUnit::post_init_concentration</title>
<!-- Node1 -->
<g id="Node000001" class="node">
<title>Node1</title>
<g id="a_Node000001"><a xlink:title=" ">
<polygon fill="#999999" stroke="#666666" points="801.5,-146 670,-146 670,-117 801.5,-117 801.5,-146"/>
<text xml:space="preserve" text-anchor="start" x="678" y="-132.5" font-family="Helvetica,sans-Serif" font-size="10.00">Simulation::SimulationUnit</text>
<text xml:space="preserve" text-anchor="middle" x="735.75" y="-122" font-family="Helvetica,sans-Serif" font-size="10.00">::post_init_concentration</text>
</a>
</g>
</g>
<!-- Node2 -->
<g id="Node000002" class="node">
<title>Node2</title>
<g id="a_Node000002"><a xlink:href="classSimulation_1_1SimulationUnit.html#a1278ad223b0cc8509f68a9f7d995bfd2" target="_top" xlink:title=" ">
<polygon fill="white" stroke="#666666" points="634,-146 502.5,-146 502.5,-117 634,-117 634,-146"/>
<text xml:space="preserve" text-anchor="start" x="510.5" y="-132.5" font-family="Helvetica,sans-Serif" font-size="10.00">Simulation::SimulationUnit</text>
<text xml:space="preserve" text-anchor="middle" x="568.25" y="-122" font-family="Helvetica,sans-Serif" font-size="10.00">::SimulationUnit</text>
</a>
</g>
</g>
<!-- Node1&#45;&gt;Node2 -->
<g id="edge1_Node000001_Node000002" class="edge">
<title>Node1&#45;&gt;Node2</title>
<g id="a_edge1_Node000001_Node000002"><a xlink:title=" ">
<path fill="none" stroke="#63b8ff" d="M658.47,-131.5C650.38,-131.5 642.21,-131.5 634.27,-131.5"/>
<polygon fill="#63b8ff" stroke="#63b8ff" points="658.3,-135 668.3,-131.5 658.3,-128 658.3,-135"/>
</a>
</g>
</g>
<!-- Node3 -->
<g id="Node000003" class="node">
<title>Node3</title>
<g id="a_Node000003"><a xlink:href="classSimulation_1_1SimulationUnit.html#a255b9ef06424a104581e8aab290e8281" target="_top" xlink:title=" ">
<polygon fill="white" stroke="#666666" points="131.5,-224 0,-224 0,-195 131.5,-195 131.5,-224"/>
<text xml:space="preserve" text-anchor="start" x="8" y="-210.5" font-family="Helvetica,sans-Serif" font-size="10.00">Simulation::SimulationUnit</text>
<text xml:space="preserve" text-anchor="middle" x="65.75" y="-200" font-family="Helvetica,sans-Serif" font-size="10.00">::operator=</text>
</a>
</g>
</g>
<!-- Node2&#45;&gt;Node3 -->
<g id="edge2_Node000002_Node000003" class="edge">
<title>Node2&#45;&gt;Node3</title>
<g id="a_edge2_Node000002_Node000003"><a xlink:title=" ">
<path fill="none" stroke="#63b8ff" d="M553.88,-156.18C537.44,-183.63 506.7,-226.49 466.5,-244.5 343.33,-299.7 177.62,-251.3 104.32,-224.49"/>
<polygon fill="#63b8ff" stroke="#63b8ff" points="556.75,-158.22 558.72,-147.8 550.69,-154.71 556.75,-158.22"/>
</a>
</g>
</g>
<!-- Node4 -->
<g id="Node000004" class="node">
<title>Node4</title>
<g id="a_Node000004"><a xlink:href="classSimulation_1_1SimulationUnit.html#aa8a28ba8699f0b719db0558d4eca98cf" target="_top" xlink:title=" ">
<polygon fill="white" stroke="#666666" points="466.5,-235 335,-235 335,-206 466.5,-206 466.5,-235"/>
<text xml:space="preserve" text-anchor="start" x="343" y="-221.5" font-family="Helvetica,sans-Serif" font-size="10.00">Simulation::SimulationUnit</text>
<text xml:space="preserve" text-anchor="middle" x="400.75" y="-211" font-family="Helvetica,sans-Serif" font-size="10.00">::operator=</text>
</a>
</g>
</g>
<!-- Node2&#45;&gt;Node4 -->
<g id="edge3_Node000002_Node000004" class="edge">
<title>Node2&#45;&gt;Node4</title>
<g id="a_edge3_Node000002_Node000004"><a xlink:title=" ">
<path fill="none" stroke="#63b8ff" d="M538.39,-153.07C518.82,-167.02 491.98,-184.86 466.5,-197.5 460.62,-200.42 454.28,-203.14 447.95,-205.62"/>
<polygon fill="#63b8ff" stroke="#63b8ff" points="540.37,-155.96 546.42,-147.27 536.26,-150.29 540.37,-155.96"/>
</a>
</g>
</g>
<!-- Node5 -->
<g id="Node000005" class="node">
<title>Node5</title>
<g id="a_Node000005"><a xlink:href="classSimulation_1_1SimulationUnit.html#ad984b5d95455d6db475d8b6e20077a0c" target="_top" xlink:title=" ">
<polygon fill="white" stroke="#666666" points="466.5,-170 335,-170 335,-141 466.5,-141 466.5,-170"/>
<text xml:space="preserve" text-anchor="start" x="343" y="-156.5" font-family="Helvetica,sans-Serif" font-size="10.00">Simulation::SimulationUnit</text>
<text xml:space="preserve" text-anchor="middle" x="400.75" y="-146" font-family="Helvetica,sans-Serif" font-size="10.00">::pre_cycle</text>
</a>
</g>
</g>
<!-- Node2&#45;&gt;Node5 -->
<g id="edge4_Node000002_Node000005" class="edge">
<title>Node2&#45;&gt;Node5</title>
<g id="a_edge4_Node000002_Node000005"><a xlink:title=" ">
<path fill="none" stroke="#63b8ff" d="M490.97,-142.56C482.88,-143.73 474.71,-144.92 466.77,-146.07"/>
<polygon fill="#63b8ff" stroke="#63b8ff" points="491.42,-146.03 500.82,-141.13 490.42,-139.11 491.42,-146.03"/>
</a>
</g>
</g>
<!-- Node7 -->
<g id="Node000007" class="node">
<title>Node7</title>
<g id="a_Node000007"><a xlink:href="classSimulation_1_1SimulationUnit.html#a8e019e0aff679d5c93b0b0e8a1f4542e" target="_top" xlink:title=" ">
<polygon fill="white" stroke="#666666" points="466.5,-123 335,-123 335,-94 466.5,-94 466.5,-123"/>
<text xml:space="preserve" text-anchor="start" x="343" y="-109.5" font-family="Helvetica,sans-Serif" font-size="10.00">Simulation::SimulationUnit</text>
<text xml:space="preserve" text-anchor="middle" x="400.75" y="-99" font-family="Helvetica,sans-Serif" font-size="10.00">::SimulationUnit</text>
</a>
</g>
</g>
<!-- Node2&#45;&gt;Node7 -->
<g id="edge8_Node000002_Node000007" class="edge">
<title>Node2&#45;&gt;Node7</title>
<g id="a_edge8_Node000002_Node000007"><a xlink:title=" ">
<path fill="none" stroke="#63b8ff" d="M490.97,-120.9C482.88,-119.78 474.71,-118.64 466.77,-117.54"/>
<polygon fill="#63b8ff" stroke="#63b8ff" points="490.43,-124.36 500.82,-122.27 491.39,-117.42 490.43,-124.36"/>
</a>
</g>
</g>
<!-- Node8 -->
<g id="Node000008" class="node">
<title>Node8</title>
<g id="a_Node000008"><a xlink:href="classSimulation_1_1SimulationUnit.html#aa1fba49aec41255dbf01e2c07067df2a" target="_top" xlink:title=" ">
<polygon fill="white" stroke="#666666" points="466.5,-76 335,-76 335,-47 466.5,-47 466.5,-76"/>
<text xml:space="preserve" text-anchor="start" x="343" y="-62.5" font-family="Helvetica,sans-Serif" font-size="10.00">Simulation::SimulationUnit</text>
<text xml:space="preserve" text-anchor="middle" x="400.75" y="-52" font-family="Helvetica,sans-Serif" font-size="10.00">::SimulationUnit</text>
</a>
</g>
</g>
<!-- Node2&#45;&gt;Node8 -->
<g id="edge9_Node000002_Node000008" class="edge">
<title>Node2&#45;&gt;Node8</title>
<g id="a_edge9_Node000002_Node000008"><a xlink:title=" ">
<path fill="none" stroke="#63b8ff" d="M525.97,-111.83C507.86,-103.41 486.26,-93.66 466.5,-85.5 459.08,-82.43 451.1,-79.33 443.38,-76.42"/>
<polygon fill="#63b8ff" stroke="#63b8ff" points="524.28,-114.9 534.82,-115.97 527.25,-108.56 524.28,-114.9"/>
</a>
</g>
</g>
<!-- Node9 -->
<g id="Node000009" class="node">
<title>Node9</title>
<g id="a_Node000009"><a xlink:href="classSimulation_1_1SimulationUnit.html#aa408a657ba5cc3bbd07683d437ea3579" target="_top" xlink:title=" ">
<polygon fill="white" stroke="#666666" points="466.5,-29 335,-29 335,0 466.5,0 466.5,-29"/>
<text xml:space="preserve" text-anchor="start" x="343" y="-15.5" font-family="Helvetica,sans-Serif" font-size="10.00">Simulation::SimulationUnit</text>
<text xml:space="preserve" text-anchor="middle" x="400.75" y="-5" font-family="Helvetica,sans-Serif" font-size="10.00">::~SimulationUnit</text>
</a>
</g>
</g>
<!-- Node2&#45;&gt;Node9 -->
<g id="edge10_Node000002_Node000009" class="edge">
<title>Node2&#45;&gt;Node9</title>
<g id="a_edge10_Node000002_Node000009"><a xlink:title=" ">
<path fill="none" stroke="#63b8ff" d="M546.96,-108.18C527.93,-87.5 497.79,-57.69 466.5,-38.5 460.98,-35.12 454.91,-32.09 448.76,-29.42"/>
<polygon fill="#63b8ff" stroke="#63b8ff" points="544.34,-110.49 553.63,-115.57 549.53,-105.8 544.34,-110.49"/>
</a>
</g>
</g>
<!-- Node5&#45;&gt;Node5 -->
<g id="edge7_Node000005_Node000005" class="edge">
<title>Node5&#45;&gt;Node5</title>
<g id="a_edge7_Node000005_Node000005"><a xlink:title=" ">
<path fill="none" stroke="#63b8ff" d="M429.18,-181.56C424.72,-185.41 415.24,-188 400.75,-188 374.25,-188 364.52,-179.32 371.56,-170.21"/>
<polygon fill="#63b8ff" stroke="#63b8ff" points="432.66,-181.93 429.84,-171.72 425.68,-181.46 432.66,-181.93"/>
</a>
</g>
</g>
<!-- Node6 -->
<g id="Node000006" class="node">
<title>Node6</title>
<g id="a_Node000006"><a xlink:href="classSimulation_1_1SimulationUnit.html#a5512cea54affc3eb0c16380d973348e5" target="_top" xlink:title=" ">
<polygon fill="white" stroke="#666666" points="299,-203 167.5,-203 167.5,-174 299,-174 299,-203"/>
<text xml:space="preserve" text-anchor="start" x="175.5" y="-189.5" font-family="Helvetica,sans-Serif" font-size="10.00">Simulation::SimulationUnit</text>
<text xml:space="preserve" text-anchor="middle" x="233.25" y="-179" font-family="Helvetica,sans-Serif" font-size="10.00">::cycleProcess</text>
</a>
</g>
</g>
<!-- Node5&#45;&gt;Node6 -->
<g id="edge5_Node000005_Node000006" class="edge">
<title>Node5&#45;&gt;Node6</title>
<g id="a_edge5_Node000005_Node000006"><a xlink:title=" ">
<path fill="none" stroke="#63b8ff" d="M323.75,-170.65C315.57,-172.29 307.3,-173.93 299.27,-175.54"/>
<polygon fill="#63b8ff" stroke="#63b8ff" points="324.21,-174.13 333.33,-168.74 322.84,-167.27 324.21,-174.13"/>
</a>
</g>
</g>
<!-- Node6&#45;&gt;Node3 -->
<g id="edge6_Node000006_Node000003" class="edge">
<title>Node6&#45;&gt;Node3</title>
<g id="a_edge6_Node000006_Node000003"><a xlink:title=" ">
<path fill="none" stroke="#63b8ff" d="M155.97,-198.18C147.88,-199.21 139.71,-200.24 131.77,-201.25"/>
<polygon fill="#63b8ff" stroke="#63b8ff" points="156.33,-201.66 165.81,-196.93 155.45,-194.72 156.33,-201.66"/>
</a>
</g>
</g>
</g>
</svg>

<g id="navigator" transform="translate(0 0)" fill="#404254">
  <rect fill="#f2f5e9" fill-opacity="0.5" stroke="#606060" stroke-width=".5" x="0" y="0" width="60" height="60"/>
  <use id="zoomplus" xlink:href="#zoomPlus" x="17" y="9" onmousedown="handleZoom(evt,'in')"/>
  <use id="zoomminus" xlink:href="#zoomMin" x="42" y="9" onmousedown="handleZoom(evt,'out')"/>
  <use id="reset" xlink:href="#resetDef" x="30" y="36" onmousedown="handleReset()"/>
   <use id="arrowup" xlink:href="#arrowUp" x="0" y="0" onmousedown="handlePan(0,-1)"/>
  <use id="arrowright" xlink:href="#arrowRight" x="0" y="0" onmousedown="handlePan(1,0)"/>
  <use id="arrowdown" xlink:href="#arrowDown" x="0" y="0" onmousedown="handlePan(0,1)"/>
  <use id="arrowleft" xlink:href="#arrowLeft" x="0" y="0" onmousedown="handlePan(-1,0)"/>
</g>
<svg viewBox="0 0 15 15" width="100%" height="30px" preserveAspectRatio="xMaxYMin meet">
 <g id="arrow_out" transform="scale(0.3 0.3)">
  <a xlink:href="classSimulation_1_1SimulationUnit_a36fb635150825e63055191740edaba84_icgraph_org.svg" target="_base">
   <rect id="button" ry="5" rx="5" y="6" x="6" height="38" width="38"
        fill="#f2f5e9" fill-opacity="0.5" stroke="#606060" stroke-width="1.0"/>
   <path id="arrow"
     d="M 11.500037,31.436501 C 11.940474,20.09759 22.043105,11.32322 32.158766,21.979434 L 37.068811,17.246167 C 37.068811,17.246167 37.088388,32 37.088388,32 L 22.160133,31.978069 C 22.160133,31.978069 26.997745,27.140456 26.997745,27.140456 C 18.528582,18.264221 13.291696,25.230495 11.500037,31.436501 z"
     style="fill:#404040;"/>
  </a>
 </g>
</svg>

<style type='text/css'>
<![CDATA[
[data-mouse-over-selected='false'] { opacity: 0.7; }
[data-mouse-over-selected='true']  { opacity: 1.0; }
]]>
</style>
<script type="application/ecmascript"><![CDATA[
document.addEventListener('DOMContentLoaded', (event) => {
  highlightEdges();
  highlightAdjacentNodes();
});
]]></script>
</svg>
