<?xml version="1.0" encoding="UTF-8" standalone="no"?>
<!DOCTYPE svg PUBLIC "-//W3C//DTD SVG 1.1//EN"
 "http://www.w3.org/Graphics/SVG/1.1/DTD/svg11.dtd">
<!-- Generated by graphviz version 14.0.1 (0)
 -->
<!-- Title: ExportHandler::operator() Pages: 1 -->
<!--zoomable 319 -->

<svg id="main" version="1.1" xmlns="http://www.w3.org/2000/svg" xmlns:xlink="http://www.w3.org/1999/xlink" xml:space="preserve" onload="init(evt)">

<style type="text/css"><![CDATA[
.node, .edge {opacity: 0.7;}
.node.selected, .edge.selected {opacity: 1;}
.edge:hover path { stroke: red; }
.edge:hover polygon { stroke: red; fill: red; }
]]></style>

<defs>
  <circle id="rim" cx="0" cy="0" r="7"/>
  <circle id="rim2" cx="0" cy="0" r="3.5"/>
  <g id="zoomPlus">
    <use xlink:href="#rim" fill="#404040"><set attributeName="fill" to="#808080" begin="zoomplus.mouseover" end="zoomplus.mouseout"/></use>
    <path d="M-4,0h8M0,-4v8" fill="none" stroke="white" stroke-width="1.5" pointer-events="none"/>
  </g>
  <g id="zoomMin">
    <use xlink:href="#rim" fill="#404040"><set attributeName="fill" to="#808080" begin="zoomminus.mouseover" end="zoomminus.mouseout"/></use>
    <path d="M-4,0h8" fill="none" stroke="white" stroke-width="1.5" pointer-events="none"/>
  </g>
  <g id="arrowUp" transform="translate(30 24)">
    <use xlink:href="#rim"/>
    <path pointer-events="none" fill="none" stroke="white" stroke-width="1.5" d="M0,-3.0v7 M-2.5,-0.5L0,-3.0L2.5,-0.5"/>
  </g>
  <g id="arrowRight" transform="rotate(90) translate(36 -43)">
    <use xlink:href="#rim"/>
    <path pointer-events="none" fill="none" stroke="white" stroke-width="1.5" d="M0,-3.0v7 M-2.5,-0.5L0,-3.0L2.5,-0.5"/>
  </g>
  <g id="arrowDown" transform="rotate(180) translate(-30 -48)">
    <use xlink:href="#rim"/>
    <path pointer-events="none" fill="none" stroke="white" stroke-width="1.5" d="M0,-3.0v7 M-2.5,-0.5L0,-3.0L2.5,-0.5"/>
  </g>
  <g id="arrowLeft" transform="rotate(270) translate(-36 17)">
    <use xlink:href="#rim"/>
    <path pointer-events="none" fill="none" stroke="white" stroke-width="1.5" d="M0,-3.0v7 M-2.5,-0.5L0,-3.0L2.5,-0.5"/>
  </g>
  <g id="resetDef">
    <use xlink:href="#rim2" fill="#404040"><set attributeName="fill" to="#808080" begin="reset.mouseover" end="reset.mouseout"/></use>
  </g>
</defs>
<script type="application/ecmascript">
var viewWidth = 760;
var viewHeight = 319;
var sectionId = 'dynsection-1';
</script>
<script type="application/ecmascript" xlink:href="svg.min.js"/>
<svg id="graph" class="graph">
<g id="viewport">
<title>ExportHandler::operator()</title>
<!-- Node1 -->
<g id="Node000001" class="node">
<title>Node1</title>
<g id="a_Node000001"><a xlink:title="Handles periodic export of simulation data.">
<polygon fill="#999999" stroke="#666666" points="126.25,-164.75 0,-164.75 0,-146.25 126.25,-146.25 126.25,-164.75"/>
<text xml:space="preserve" text-anchor="middle" x="63.12" y="-151.25" font-family="Helvetica,sans-Serif" font-size="10.00">ExportHandler::operator()</text>
</a>
</g>
</g>
<!-- Node2 -->
<g id="Node000002" class="node">
<title>Node2</title>
<g id="a_Node000002"><a xlink:href="classSimulation_1_1SimulationUnit.html#abee4f5b8a764dc6655ee5a91fcab7080" target="_top" xlink:title=" ">
<polygon fill="white" stroke="#666666" points="293.75,-311 162.25,-311 162.25,-282 293.75,-282 293.75,-311"/>
<text xml:space="preserve" text-anchor="start" x="170.25" y="-297.5" font-family="Helvetica,sans-Serif" font-size="10.00">Simulation::SimulationUnit</text>
<text xml:space="preserve" text-anchor="middle" x="228" y="-287" font-family="Helvetica,sans-Serif" font-size="10.00">::getCgasData</text>
</a>
</g>
</g>
<!-- Node1&#45;&gt;Node2 -->
<g id="edge1_Node000001_Node000002" class="edge">
<title>Node1&#45;&gt;Node2</title>
<g id="a_edge1_Node000001_Node000002"><a xlink:title=" ">
<path fill="none" stroke="#63b8ff" d="M69.49,-164.93C82.53,-187.04 118.11,-242.7 162.25,-273.5 163.63,-274.46 165.05,-275.38 166.5,-276.27"/>
<polygon fill="#63b8ff" stroke="#63b8ff" points="164.72,-279.29 175.19,-280.93 168.03,-273.12 164.72,-279.29"/>
</a>
</g>
</g>
<!-- Node3 -->
<g id="Node000003" class="node">
<title>Node3</title>
<g id="a_Node000003"><a xlink:href="classSimulation_1_1SimulationUnit.html#a3d0ee29e0a425f79fa8cbc620d2abb99" target="_top" xlink:title=" ">
<polygon fill="white" stroke="#666666" points="293.75,-264 162.25,-264 162.25,-235 293.75,-235 293.75,-264"/>
<text xml:space="preserve" text-anchor="start" x="170.25" y="-250.5" font-family="Helvetica,sans-Serif" font-size="10.00">Simulation::SimulationUnit</text>
<text xml:space="preserve" text-anchor="middle" x="228" y="-240" font-family="Helvetica,sans-Serif" font-size="10.00">::getCliqData</text>
</a>
</g>
</g>
<!-- Node1&#45;&gt;Node3 -->
<g id="edge2_Node000001_Node000003" class="edge">
<title>Node1&#45;&gt;Node3</title>
<g id="a_edge2_Node000001_Node000003"><a xlink:title=" ">
<path fill="none" stroke="#63b8ff" d="M75.2,-165.16C92.68,-180.01 128.19,-208.6 162.25,-226.5 164.61,-227.74 167.05,-228.94 169.55,-230.1"/>
<polygon fill="#63b8ff" stroke="#63b8ff" points="168.03,-233.25 178.59,-234 170.8,-226.82 168.03,-233.25"/>
</a>
</g>
</g>
<!-- Node4 -->
<g id="Node000004" class="node">
<title>Node4</title>
<g id="a_Node000004"><a xlink:href="classSimulation_1_1SimulationUnit.html#a95e094f9921c520f4a41e3b9a308b187" target="_top" xlink:title=" ">
<polygon fill="white" stroke="#666666" points="293.75,-217 162.25,-217 162.25,-188 293.75,-188 293.75,-217"/>
<text xml:space="preserve" text-anchor="start" x="170.25" y="-203.5" font-family="Helvetica,sans-Serif" font-size="10.00">Simulation::SimulationUnit</text>
<text xml:space="preserve" text-anchor="middle" x="228" y="-193" font-family="Helvetica,sans-Serif" font-size="10.00">::getMTRData</text>
</a>
</g>
</g>
<!-- Node1&#45;&gt;Node4 -->
<g id="edge3_Node000001_Node000004" class="edge">
<title>Node1&#45;&gt;Node4</title>
<g id="a_edge3_Node000001_Node000004"><a xlink:title=" ">
<path fill="none" stroke="#63b8ff" d="M97.87,-165.24C117.09,-170.78 141.78,-177.91 164.41,-184.44"/>
<polygon fill="#63b8ff" stroke="#63b8ff" points="163.29,-187.76 173.87,-187.17 165.23,-181.03 163.29,-187.76"/>
</a>
</g>
</g>
<!-- Node5 -->
<g id="Node000005" class="node">
<title>Node5</title>
<g id="a_Node000005"><a xlink:href="namespacePostProcessing.html#a9ff9231cbdf2a3c4e539c4638aba2445" target="_top" xlink:title=" ">
<polygon fill="white" stroke="#666666" points="283.62,-170 172.38,-170 172.38,-141 283.62,-141 283.62,-170"/>
<text xml:space="preserve" text-anchor="start" x="180.38" y="-156.5" font-family="Helvetica,sans-Serif" font-size="10.00">PostProcessing::save</text>
<text xml:space="preserve" text-anchor="middle" x="228" y="-146" font-family="Helvetica,sans-Serif" font-size="10.00">_particle_state</text>
</a>
</g>
</g>
<!-- Node1&#45;&gt;Node5 -->
<g id="edge4_Node000001_Node000005" class="edge">
<title>Node1&#45;&gt;Node5</title>
<g id="a_edge4_Node000001_Node000005"><a xlink:title=" ">
<path fill="none" stroke="#63b8ff" d="M126.63,-155.5C137.87,-155.5 149.61,-155.5 160.95,-155.5"/>
<polygon fill="#63b8ff" stroke="#63b8ff" points="160.59,-159 170.59,-155.5 160.59,-152 160.59,-159"/>
</a>
</g>
</g>
<!-- Node6 -->
<g id="Node000006" class="node">
<title>Node6</title>
<g id="a_Node000006"><a xlink:href="namespacePostProcessing.html#a0e06c75e06cf43e767d5e3e8afab62f2" target="_top" xlink:title=" ">
<polygon fill="white" stroke="#666666" points="283.62,-123 172.38,-123 172.38,-94 283.62,-94 283.62,-123"/>
<text xml:space="preserve" text-anchor="start" x="180.38" y="-109.5" font-family="Helvetica,sans-Serif" font-size="10.00">PostProcessing::save</text>
<text xml:space="preserve" text-anchor="middle" x="228" y="-99" font-family="Helvetica,sans-Serif" font-size="10.00">_probes</text>
</a>
</g>
</g>
<!-- Node1&#45;&gt;Node6 -->
<g id="edge5_Node000001_Node000006" class="edge">
<title>Node1&#45;&gt;Node6</title>
<g id="a_edge5_Node000001_Node000006"><a xlink:title=" ">
<path fill="none" stroke="#63b8ff" d="M97.87,-145.76C117.09,-140.22 141.78,-133.09 164.41,-126.56"/>
<polygon fill="#63b8ff" stroke="#63b8ff" points="165.23,-129.97 173.87,-123.83 163.29,-123.24 165.23,-129.97"/>
</a>
</g>
</g>
<!-- Node15 -->
<g id="Node000015" class="node">
<title>Node15</title>
<g id="a_Node000015"><a xlink:href="classCore_1_1PartialExporter.html#a450fb0c92efa4ee81b4083fc01f5e665" target="_top" xlink:title="Writes the number of particles in each compartment.">
<polygon fill="white" stroke="#666666" points="287,-76 169,-76 169,-47 287,-47 287,-76"/>
<text xml:space="preserve" text-anchor="start" x="177" y="-62.5" font-family="Helvetica,sans-Serif" font-size="10.00">Core::PartialExporter</text>
<text xml:space="preserve" text-anchor="middle" x="228" y="-52" font-family="Helvetica,sans-Serif" font-size="10.00">::write_number_particle</text>
</a>
</g>
</g>
<!-- Node1&#45;&gt;Node15 -->
<g id="edge15_Node000001_Node000015" class="edge">
<title>Node1&#45;&gt;Node15</title>
<g id="a_edge15_Node000001_Node000015"><a xlink:title=" ">
<path fill="none" stroke="#63b8ff" d="M75.55,-145.8C93.2,-131.19 128.6,-103.33 162.25,-85.5 165.28,-83.9 168.44,-82.35 171.66,-80.87"/>
<polygon fill="#63b8ff" stroke="#63b8ff" points="172.9,-84.15 180.7,-76.98 170.13,-77.72 172.9,-84.15"/>
</a>
</g>
</g>
<!-- Node17 -->
<g id="Node000017" class="node">
<title>Node17</title>
<g id="a_Node000017"><a xlink:href="classCore_1_1PartialExporter.html#ad8a5d2f9287f5f077e362d4b073c8082" target="_top" xlink:title="Writes tally.">
<polygon fill="white" stroke="#666666" points="282.5,-29 173.5,-29 173.5,0 282.5,0 282.5,-29"/>
<text xml:space="preserve" text-anchor="start" x="181.5" y="-15.5" font-family="Helvetica,sans-Serif" font-size="10.00">Core::PartialExporter</text>
<text xml:space="preserve" text-anchor="middle" x="228" y="-5" font-family="Helvetica,sans-Serif" font-size="10.00">::write_tally</text>
</a>
</g>
</g>
<!-- Node1&#45;&gt;Node17 -->
<g id="edge17_Node000001_Node000017" class="edge">
<title>Node1&#45;&gt;Node17</title>
<g id="a_edge17_Node000001_Node000017"><a xlink:title=" ">
<path fill="none" stroke="#63b8ff" d="M69.74,-145.87C83.04,-123.82 118.69,-69.2 162.25,-38.5 164.24,-37.1 166.32,-35.77 168.47,-34.5"/>
<polygon fill="#63b8ff" stroke="#63b8ff" points="169.64,-37.84 176.87,-30.1 166.39,-31.64 169.64,-37.84"/>
</a>
</g>
</g>
<!-- Node7 -->
<g id="Node000007" class="node">
<title>Node7</title>
<g id="a_Node000007"><a xlink:href="namespacePostProcessing.html#adae52b6b518e25be1c920f36f196ef65" target="_top" xlink:title=" ">
<polygon fill="white" stroke="#666666" points="453.75,-158 337.25,-158 337.25,-129 453.75,-129 453.75,-158"/>
<text xml:space="preserve" text-anchor="start" x="345.25" y="-144.5" font-family="Helvetica,sans-Serif" font-size="10.00">PostProcessing::_save</text>
<text xml:space="preserve" text-anchor="middle" x="395.5" y="-134" font-family="Helvetica,sans-Serif" font-size="10.00">_probes</text>
</a>
</g>
</g>
<!-- Node6&#45;&gt;Node7 -->
<g id="edge6_Node000006_Node000007" class="edge">
<title>Node6&#45;&gt;Node7</title>
<g id="a_edge6_Node000006_Node000007"><a xlink:title=" ">
<path fill="none" stroke="#63b8ff" d="M284.11,-120.15C297.46,-122.98 311.91,-126.03 325.8,-128.97"/>
<polygon fill="#63b8ff" stroke="#63b8ff" points="324.81,-132.34 335.32,-130.98 326.26,-125.49 324.81,-132.34"/>
</a>
</g>
</g>
<!-- Node14 -->
<g id="Node000014" class="node">
<title>Node14</title>
<g id="a_Node000014"><a xlink:href="classSimulation_1_1SimulationUnit.html#a299bc32317c5f302dc16df3a3d7d6149" target="_top" xlink:title=" ">
<polygon fill="white" stroke="#666666" points="461.25,-111 329.75,-111 329.75,-82 461.25,-82 461.25,-111"/>
<text xml:space="preserve" text-anchor="start" x="337.75" y="-97.5" font-family="Helvetica,sans-Serif" font-size="10.00">Simulation::SimulationUnit</text>
<text xml:space="preserve" text-anchor="middle" x="395.5" y="-87" font-family="Helvetica,sans-Serif" font-size="10.00">::it_probes</text>
</a>
</g>
</g>
<!-- Node6&#45;&gt;Node14 -->
<g id="edge14_Node000006_Node000014" class="edge">
<title>Node6&#45;&gt;Node14</title>
<g id="a_edge14_Node000006_Node000014"><a xlink:title=" ">
<path fill="none" stroke="#63b8ff" d="M284.11,-104.5C294.97,-103.72 306.55,-102.88 317.97,-102.05"/>
<polygon fill="#63b8ff" stroke="#63b8ff" points="318.07,-105.55 327.79,-101.34 317.57,-98.57 318.07,-105.55"/>
</a>
</g>
</g>
<!-- Node8 -->
<g id="Node000008" class="node">
<title>Node8</title>
<g id="a_Node000008"><a xlink:href="classSimulation_1_1Probes.html#af54f1c8be6e49f63e8533d6a4e91cad3" target="_top" xlink:title=" ">
<polygon fill="white" stroke="#666666" points="605.5,-221 507,-221 507,-192 605.5,-192 605.5,-221"/>
<text xml:space="preserve" text-anchor="start" x="515" y="-207.5" font-family="Helvetica,sans-Serif" font-size="10.00">Simulation::Probes</text>
<text xml:space="preserve" text-anchor="middle" x="556.25" y="-197" font-family="Helvetica,sans-Serif" font-size="10.00">::clear</text>
</a>
</g>
</g>
<!-- Node7&#45;&gt;Node8 -->
<g id="edge7_Node000007_Node000008" class="edge">
<title>Node7&#45;&gt;Node8</title>
<g id="a_edge7_Node000007_Node000008"><a xlink:title=" ">
<path fill="none" stroke="#63b8ff" d="M434.12,-158.43C455.99,-167.11 483.76,-178.13 507.2,-187.43"/>
<polygon fill="#63b8ff" stroke="#63b8ff" points="505.63,-190.57 516.22,-191.01 508.21,-184.07 505.63,-190.57"/>
</a>
</g>
</g>
<!-- Node9 -->
<g id="Node000009" class="node">
<title>Node9</title>
<g id="a_Node000009"><a xlink:href="classSimulation_1_1Probes.html#a6345c8304e772a314dae935f742d518a" target="_top" xlink:title=" ">
<polygon fill="white" stroke="#666666" points="615.25,-173.75 497.25,-173.75 497.25,-155.25 615.25,-155.25 615.25,-173.75"/>
<text xml:space="preserve" text-anchor="middle" x="556.25" y="-160.25" font-family="Helvetica,sans-Serif" font-size="10.00">Simulation::Probes::get</text>
</a>
</g>
</g>
<!-- Node7&#45;&gt;Node9 -->
<g id="edge8_Node000007_Node000009" class="edge">
<title>Node7&#45;&gt;Node9</title>
<g id="a_edge8_Node000007_Node000009"><a xlink:title=" ">
<path fill="none" stroke="#63b8ff" d="M453.81,-151.08C464.12,-152.44 474.96,-153.88 485.57,-155.28"/>
<polygon fill="#63b8ff" stroke="#63b8ff" points="485.08,-158.75 495.45,-156.59 486,-151.81 485.08,-158.75"/>
</a>
</g>
</g>
<!-- Node10 -->
<g id="Node000010" class="node">
<title>Node10</title>
<g id="a_Node000010"><a xlink:href="classSimulation_1_1Probes.html#a2b8541ff7ad653204a955ff1feb78757" target="_top" xlink:title=" ">
<polygon fill="white" stroke="#666666" points="605.5,-137 507,-137 507,-108 605.5,-108 605.5,-137"/>
<text xml:space="preserve" text-anchor="start" x="515" y="-123.5" font-family="Helvetica,sans-Serif" font-size="10.00">Simulation::Probes</text>
<text xml:space="preserve" text-anchor="middle" x="556.25" y="-113" font-family="Helvetica,sans-Serif" font-size="10.00">::need_export</text>
</a>
</g>
</g>
<!-- Node7&#45;&gt;Node10 -->
<g id="edge9_Node000007_Node000010" class="edge">
<title>Node7&#45;&gt;Node10</title>
<g id="a_edge9_Node000007_Node000010"><a xlink:title=" ">
<path fill="none" stroke="#63b8ff" d="M453.81,-135.92C467.34,-134.13 481.8,-132.22 495.44,-130.41"/>
<polygon fill="#63b8ff" stroke="#63b8ff" points="495.71,-133.91 505.16,-129.13 494.79,-126.97 495.71,-133.91"/>
</a>
</g>
</g>
<!-- Node11 -->
<g id="Node000011" class="node">
<title>Node11</title>
<g id="a_Node000011"><a xlink:href="classCore_1_1PartialExporter.html#a53c54ce796df99b407f410beb01074c5" target="_top" xlink:title="Writes probe data to the export.">
<polygon fill="white" stroke="#666666" points="610.75,-90 501.75,-90 501.75,-61 610.75,-61 610.75,-90"/>
<text xml:space="preserve" text-anchor="start" x="509.75" y="-76.5" font-family="Helvetica,sans-Serif" font-size="10.00">Core::PartialExporter</text>
<text xml:space="preserve" text-anchor="middle" x="556.25" y="-66" font-family="Helvetica,sans-Serif" font-size="10.00">::write_probe</text>
</a>
</g>
</g>
<!-- Node7&#45;&gt;Node11 -->
<g id="edge10_Node000007_Node000011" class="edge">
<title>Node7&#45;&gt;Node11</title>
<g id="a_edge10_Node000007_Node000011"><a xlink:title=" ">
<path fill="none" stroke="#63b8ff" d="M441.87,-128.6C448.45,-126.09 455.08,-123.36 461.25,-120.5 478.05,-112.7 480.65,-107.73 497.25,-99.5 500.32,-97.98 503.52,-96.46 506.76,-94.98"/>
<polygon fill="#63b8ff" stroke="#63b8ff" points="508.05,-98.24 515.78,-91 505.22,-91.84 508.05,-98.24"/>
</a>
</g>
</g>
<!-- Node12 -->
<g id="Node000012" class="node">
<title>Node12</title>
<g id="a_Node000012"><a xlink:href="classCore_1_1DataExporter.html#a0b0b79f3932c4eb905704a852248c857" target="_top" xlink:title=" ">
<polygon fill="white" stroke="#666666" points="752,-120 651.25,-120 651.25,-91 752,-91 752,-120"/>
<text xml:space="preserve" text-anchor="start" x="659.25" y="-106.5" font-family="Helvetica,sans-Serif" font-size="10.00">Core::DataExporter</text>
<text xml:space="preserve" text-anchor="middle" x="701.62" y="-96" font-family="Helvetica,sans-Serif" font-size="10.00">::append_array</text>
</a>
</g>
</g>
<!-- Node11&#45;&gt;Node12 -->
<g id="edge11_Node000011_Node000012" class="edge">
<title>Node11&#45;&gt;Node12</title>
<g id="a_edge11_Node000011_Node000012"><a xlink:title=" ">
<path fill="none" stroke="#63b8ff" d="M611.05,-86.76C620.41,-88.72 630.21,-90.77 639.75,-92.76"/>
<polygon fill="#63b8ff" stroke="#63b8ff" points="638.8,-96.14 649.31,-94.76 640.24,-89.29 638.8,-96.14"/>
</a>
</g>
</g>
<!-- Node13 -->
<g id="Node000013" class="node">
<title>Node13</title>
<g id="a_Node000013"><a xlink:href="namespaceIO.html#a30cc77fc5c4d45d3b56ef6a299ce2383" target="_top" xlink:title=" ">
<polygon fill="white" stroke="#666666" points="731.75,-54.75 671.5,-54.75 671.5,-36.25 731.75,-36.25 731.75,-54.75"/>
<text xml:space="preserve" text-anchor="middle" x="701.62" y="-41.25" font-family="Helvetica,sans-Serif" font-size="10.00">IO::format</text>
</a>
</g>
</g>
<!-- Node11&#45;&gt;Node13 -->
<g id="edge12_Node000011_Node000013" class="edge">
<title>Node11&#45;&gt;Node13</title>
<g id="a_edge12_Node000011_Node000013"><a xlink:title=" ">
<path fill="none" stroke="#63b8ff" d="M611.05,-64.24C627.26,-60.85 644.77,-57.19 659.97,-54.01"/>
<polygon fill="#63b8ff" stroke="#63b8ff" points="660.54,-57.46 669.61,-51.99 659.11,-50.61 660.54,-57.46"/>
</a>
</g>
</g>
<!-- Node13&#45;&gt;Node13 -->
<g id="edge13_Node000013_Node000013" class="edge">
<title>Node13&#45;&gt;Node13</title>
<g id="a_edge13_Node000013_Node000013"><a xlink:title=" ">
<path fill="none" stroke="#63b8ff" d="M679.22,-55C668.32,-63.57 675.79,-72.75 701.62,-72.75 716.16,-72.75 724.88,-69.84 727.79,-65.78"/>
<polygon fill="#63b8ff" stroke="#63b8ff" points="731.13,-64.72 724.53,-56.42 724.52,-67.02 731.13,-64.72"/>
</a>
</g>
</g>
<!-- Node16 -->
<g id="Node000016" class="node">
<title>Node16</title>
<g id="a_Node000016"><a xlink:href="classCore_1_1DataExporter.html#a0af9b5e13d16339af1918f8e845193f9" target="_top" xlink:title=" ">
<polygon fill="white" stroke="#666666" points="445.88,-52 345.12,-52 345.12,-23 445.88,-23 445.88,-52"/>
<text xml:space="preserve" text-anchor="start" x="353.12" y="-38.5" font-family="Helvetica,sans-Serif" font-size="10.00">Core::DataExporter</text>
<text xml:space="preserve" text-anchor="middle" x="395.5" y="-28" font-family="Helvetica,sans-Serif" font-size="10.00">::append_matrix</text>
</a>
</g>
</g>
<!-- Node15&#45;&gt;Node16 -->
<g id="edge16_Node000015_Node000016" class="edge">
<title>Node15&#45;&gt;Node16</title>
<g id="a_edge16_Node000015_Node000016"><a xlink:title=" ">
<path fill="none" stroke="#63b8ff" d="M287.35,-53.04C302.26,-50.88 318.32,-48.55 333.36,-46.37"/>
<polygon fill="#63b8ff" stroke="#63b8ff" points="333.74,-49.85 343.13,-44.95 332.73,-42.92 333.74,-49.85"/>
</a>
</g>
</g>
<!-- Node17&#45;&gt;Node16 -->
<g id="edge18_Node000017_Node000016" class="edge">
<title>Node17&#45;&gt;Node16</title>
<g id="a_edge18_Node000017_Node000016"><a xlink:title=" ">
<path fill="none" stroke="#63b8ff" d="M282.73,-21.97C298.91,-24.22 316.79,-26.7 333.41,-29.01"/>
<polygon fill="#63b8ff" stroke="#63b8ff" points="332.8,-32.46 343.18,-30.37 333.76,-25.53 332.8,-32.46"/>
</a>
</g>
</g>
</g>
</svg>

<g id="navigator" transform="translate(0 0)" fill="#404254">
  <rect fill="#f2f5e9" fill-opacity="0.5" stroke="#606060" stroke-width=".5" x="0" y="0" width="60" height="60"/>
  <use id="zoomplus" xlink:href="#zoomPlus" x="17" y="9" onmousedown="handleZoom(evt,'in')"/>
  <use id="zoomminus" xlink:href="#zoomMin" x="42" y="9" onmousedown="handleZoom(evt,'out')"/>
  <use id="reset" xlink:href="#resetDef" x="30" y="36" onmousedown="handleReset()"/>
   <use id="arrowup" xlink:href="#arrowUp" x="0" y="0" onmousedown="handlePan(0,-1)"/>
  <use id="arrowright" xlink:href="#arrowRight" x="0" y="0" onmousedown="handlePan(1,0)"/>
  <use id="arrowdown" xlink:href="#arrowDown" x="0" y="0" onmousedown="handlePan(0,1)"/>
  <use id="arrowleft" xlink:href="#arrowLeft" x="0" y="0" onmousedown="handlePan(-1,0)"/>
</g>
<svg viewBox="0 0 15 15" width="100%" height="30px" preserveAspectRatio="xMaxYMin meet">
 <g id="arrow_out" transform="scale(0.3 0.3)">
  <a xlink:href="classExportHandler_ad66ddd83a4245acb73446a86f3fcde6a_cgraph_org.svg" target="_base">
   <rect id="button" ry="5" rx="5" y="6" x="6" height="38" width="38"
        fill="#f2f5e9" fill-opacity="0.5" stroke="#606060" stroke-width="1.0"/>
   <path id="arrow"
     d="M 11.500037,31.436501 C 11.940474,20.09759 22.043105,11.32322 32.158766,21.979434 L 37.068811,17.246167 C 37.068811,17.246167 37.088388,32 37.088388,32 L 22.160133,31.978069 C 22.160133,31.978069 26.997745,27.140456 26.997745,27.140456 C 18.528582,18.264221 13.291696,25.230495 11.500037,31.436501 z"
     style="fill:#404040;"/>
  </a>
 </g>
</svg>

<style type='text/css'>
<![CDATA[
[data-mouse-over-selected='false'] { opacity: 0.7; }
[data-mouse-over-selected='true']  { opacity: 1.0; }
]]>
</style>
<script type="application/ecmascript"><![CDATA[
document.addEventListener('DOMContentLoaded', (event) => {
  highlightEdges();
  highlightAdjacentNodes();
});
]]></script>
</svg>
