<?xml version="1.0" encoding="UTF-8" standalone="no"?>
<!DOCTYPE svg PUBLIC "-//W3C//DTD SVG 1.1//EN"
 "http://www.w3.org/Graphics/SVG/1.1/DTD/svg11.dtd">
<!-- Generated by graphviz version 14.0.1 (0)
 -->
<!-- Title: Simulation::SimulationUnit::init_functors Pages: 1 -->
<svg width="596pt" height="74pt"
 viewBox="0.00 0.00 596.00 74.00" xmlns="http://www.w3.org/2000/svg" xmlns:xlink="http://www.w3.org/1999/xlink">
<g id="graph0" class="graph" transform="scale(1 1) rotate(0) translate(4 69.75)">
<title>Simulation::SimulationUnit::init_functors</title>
<!-- Node1 -->
<g id="Node000001" class="node">
<title>Node1</title>
<g id="a_Node000001"><a xlink:title=" ">
<polygon fill="#999999" stroke="#666666" points="131.5,-44.75 0,-44.75 0,-15.75 131.5,-15.75 131.5,-44.75"/>
<text xml:space="preserve" text-anchor="start" x="8" y="-31.25" font-family="Helvetica,sans-Serif" font-size="10.00">Simulation::SimulationUnit</text>
<text xml:space="preserve" text-anchor="middle" x="65.75" y="-20.75" font-family="Helvetica,sans-Serif" font-size="10.00">::init_functors</text>
</a>
</g>
</g>
<!-- Node2 -->
<g id="Node000002" class="node">
<title>Node2</title>
<g id="a_Node000002"><a xlink:href="classSimulation_1_1SimulationUnit.html#a4295618336e99606be4e87b31feb848a" target="_top" xlink:title=" ">
<polygon fill="white" stroke="#666666" points="299,-65.75 167.5,-65.75 167.5,-36.75 299,-36.75 299,-65.75"/>
<text xml:space="preserve" text-anchor="start" x="175.5" y="-52.25" font-family="Helvetica,sans-Serif" font-size="10.00">Simulation::SimulationUnit</text>
<text xml:space="preserve" text-anchor="middle" x="233.25" y="-41.75" font-family="Helvetica,sans-Serif" font-size="10.00">::getkernel_concentration</text>
</a>
</g>
</g>
<!-- Node1&#45;&gt;Node2 -->
<g id="edge1_Node000001_Node000002" class="edge">
<title>Node1&#45;&gt;Node2</title>
<g id="a_edge1_Node000001_Node000002"><a xlink:title=" ">
<path fill="none" stroke="#63b8ff" d="M131.68,-38.49C139.63,-39.5 147.79,-40.53 155.88,-41.56"/>
<polygon fill="#63b8ff" stroke="#63b8ff" points="155.37,-45.02 165.73,-42.81 156.25,-38.08 155.37,-45.02"/>
</a>
</g>
</g>
<!-- Node3 -->
<g id="Node000003" class="node">
<title>Node3</title>
<g id="a_Node000003"><a xlink:href="namespaceSimulation.html#ac368de50ad1e634ea2d7ab3410f429ad" target="_top" xlink:title=" ">
<polygon fill="white" stroke="#666666" points="294.88,-18.5 171.62,-18.5 171.62,0 294.88,0 294.88,-18.5"/>
<text xml:space="preserve" text-anchor="middle" x="233.25" y="-5" font-family="Helvetica,sans-Serif" font-size="10.00">Simulation::read_options</text>
</a>
</g>
</g>
<!-- Node1&#45;&gt;Node3 -->
<g id="edge2_Node000001_Node000003" class="edge">
<title>Node1&#45;&gt;Node3</title>
<g id="a_edge2_Node000001_Node000003"><a xlink:title=" ">
<path fill="none" stroke="#63b8ff" d="M131.68,-22.01C140.96,-20.83 150.54,-19.62 159.94,-18.43"/>
<polygon fill="#63b8ff" stroke="#63b8ff" points="160.3,-21.91 169.78,-17.18 159.42,-14.96 160.3,-21.91"/>
</a>
</g>
</g>
<!-- Node4 -->
<g id="Node000004" class="node">
<title>Node4</title>
<g id="a_Node000004"><a xlink:href="namespaceCommon.html#a7ca16dc3314f89cd1860091731cd7014" target="_top" xlink:title="Wrapper arround get_env to get envariable with fallback to default.">
<polygon fill="white" stroke="#666666" points="450,-18.5 335,-18.5 335,0 450,0 450,-18.5"/>
<text xml:space="preserve" text-anchor="middle" x="392.5" y="-5" font-family="Helvetica,sans-Serif" font-size="10.00">Common::read_env_or</text>
</a>
</g>
</g>
<!-- Node3&#45;&gt;Node4 -->
<g id="edge3_Node000003_Node000004" class="edge">
<title>Node3&#45;&gt;Node4</title>
<g id="a_edge3_Node000003_Node000004"><a xlink:title=" ">
<path fill="none" stroke="#63b8ff" d="M295.05,-9.25C304.32,-9.25 313.95,-9.25 323.38,-9.25"/>
<polygon fill="#63b8ff" stroke="#63b8ff" points="323.22,-12.75 333.22,-9.25 323.22,-5.75 323.22,-12.75"/>
</a>
</g>
</g>
<!-- Node5 -->
<g id="Node000005" class="node">
<title>Node5</title>
<g id="a_Node000005"><a xlink:href="namespaceCommon.html#a7e29bd7117dd8bfc651a1dc215923379" target="_top" xlink:title="Wrapper arround get_env to get optional envariable.">
<polygon fill="white" stroke="#666666" points="587.5,-18.5 486,-18.5 486,0 587.5,0 587.5,-18.5"/>
<text xml:space="preserve" text-anchor="middle" x="536.75" y="-5" font-family="Helvetica,sans-Serif" font-size="10.00">Common::read_env</text>
</a>
</g>
</g>
<!-- Node4&#45;&gt;Node5 -->
<g id="edge4_Node000004_Node000005" class="edge">
<title>Node4&#45;&gt;Node5</title>
<g id="a_edge4_Node000004_Node000005"><a xlink:title=" ">
<path fill="none" stroke="#63b8ff" d="M450.13,-9.25C458.13,-9.25 466.39,-9.25 474.48,-9.25"/>
<polygon fill="#63b8ff" stroke="#63b8ff" points="474.24,-12.75 484.24,-9.25 474.24,-5.75 474.24,-12.75"/>
</a>
</g>
</g>
</g>
</svg>
