<?xml version="1.0" encoding="UTF-8" standalone="no"?>
<!DOCTYPE svg PUBLIC "-//W3C//DTD SVG 1.1//EN"
 "http://www.w3.org/Graphics/SVG/1.1/DTD/svg11.dtd">
<!-- Generated by graphviz version 14.0.1 (0)
 -->
<!-- Title: Simulation::ScalarSimulation::~ScalarSimulation Pages: 1 -->
<svg width="683pt" height="736pt"
 viewBox="0.00 0.00 683.00 736.00" xmlns="http://www.w3.org/2000/svg" xmlns:xlink="http://www.w3.org/1999/xlink">
<g id="graph0" class="graph" transform="scale(1 1) rotate(0) translate(4 732)">
<title>Simulation::ScalarSimulation::~ScalarSimulation</title>
<!-- Node1 -->
<g id="Node000001" class="node">
<title>Node1</title>
<g id="a_Node000001"><a xlink:title=" ">
<polygon fill="#999999" stroke="#666666" points="141.25,-373 0,-373 0,-344 141.25,-344 141.25,-373"/>
<text xml:space="preserve" text-anchor="start" x="8" y="-359.5" font-family="Helvetica,sans-Serif" font-size="10.00">Simulation::ScalarSimulation</text>
<text xml:space="preserve" text-anchor="middle" x="70.62" y="-349" font-family="Helvetica,sans-Serif" font-size="10.00">::~ScalarSimulation</text>
</a>
</g>
</g>
<!-- Node2 -->
<g id="Node000002" class="node">
<title>Node2</title>
<g id="a_Node000002"><a xlink:href="classSimulation_1_1ScalarSimulation.html#a688bdcc99d9b6b6922129e55248a7b66" target="_top" xlink:title=" ">
<polygon fill="white" stroke="#666666" points="319.62,-728 178.38,-728 178.38,-699 319.62,-699 319.62,-728"/>
<text xml:space="preserve" text-anchor="start" x="186.38" y="-714.5" font-family="Helvetica,sans-Serif" font-size="10.00">Simulation::ScalarSimulation</text>
<text xml:space="preserve" text-anchor="middle" x="249" y="-704" font-family="Helvetica,sans-Serif" font-size="10.00">::contribution_span</text>
</a>
</g>
</g>
<!-- Node1&#45;&gt;Node2 -->
<g id="edge1_Node000001_Node000002" class="edge">
<title>Node1&#45;&gt;Node2</title>
<g id="a_edge1_Node000001_Node000002"><a xlink:title=" ">
<path fill="none" stroke="#63b8ff" d="M71.81,-373.5C73.28,-425.18 85.16,-597.83 177.25,-690.5 177.73,-690.99 178.23,-691.46 178.73,-691.93"/>
<polygon fill="#63b8ff" stroke="#63b8ff" points="176.34,-694.51 186.44,-697.73 180.55,-688.92 176.34,-694.51"/>
</a>
</g>
</g>
<!-- Node3 -->
<g id="Node000003" class="node">
<title>Node3</title>
<g id="a_Node000003"><a xlink:href="classSimulation_1_1ScalarSimulation.html#a7febcc0f5298fe8ec74e5080de08e2ac" target="_top" xlink:title=" ">
<polygon fill="white" stroke="#666666" points="319.62,-681 178.38,-681 178.38,-652 319.62,-652 319.62,-681"/>
<text xml:space="preserve" text-anchor="start" x="186.38" y="-667.5" font-family="Helvetica,sans-Serif" font-size="10.00">Simulation::ScalarSimulation</text>
<text xml:space="preserve" text-anchor="middle" x="249" y="-657" font-family="Helvetica,sans-Serif" font-size="10.00">::contribution_span_mut</text>
</a>
</g>
</g>
<!-- Node1&#45;&gt;Node3 -->
<g id="edge2_Node000001_Node000003" class="edge">
<title>Node1&#45;&gt;Node3</title>
<g id="a_edge2_Node000001_Node000003"><a xlink:title=" ">
<path fill="none" stroke="#63b8ff" d="M72.7,-373.33C76.89,-420.05 96.18,-565.65 177.25,-643.5 177.76,-643.99 178.28,-644.47 178.81,-644.94"/>
<polygon fill="#63b8ff" stroke="#63b8ff" points="176.76,-647.77 186.92,-650.79 180.86,-642.1 176.76,-647.77"/>
</a>
</g>
</g>
<!-- Node4 -->
<g id="Node000004" class="node">
<title>Node4</title>
<g id="a_Node000004"><a xlink:href="classSimulation_1_1ScalarSimulation.html#ad512fdf81a2b850d01330c7597a008af" target="_top" xlink:title=" ">
<polygon fill="white" stroke="#666666" points="319.62,-634 178.38,-634 178.38,-605 319.62,-605 319.62,-634"/>
<text xml:space="preserve" text-anchor="start" x="186.38" y="-620.5" font-family="Helvetica,sans-Serif" font-size="10.00">Simulation::ScalarSimulation</text>
<text xml:space="preserve" text-anchor="middle" x="249" y="-610" font-family="Helvetica,sans-Serif" font-size="10.00">::get_device_concentration</text>
</a>
</g>
</g>
<!-- Node1&#45;&gt;Node4 -->
<g id="edge3_Node000001_Node000004" class="edge">
<title>Node1&#45;&gt;Node4</title>
<g id="a_edge3_Node000001_Node000004"><a xlink:title=" ">
<path fill="none" stroke="#63b8ff" d="M73.9,-373.22C81.08,-414.64 107.08,-533.23 177.25,-596.5 177.9,-597.08 178.56,-597.65 179.24,-598.21"/>
<polygon fill="#63b8ff" stroke="#63b8ff" points="177.21,-601.06 187.45,-603.78 181.14,-595.27 177.21,-601.06"/>
</a>
</g>
</g>
<!-- Node5 -->
<g id="Node000005" class="node">
<title>Node5</title>
<g id="a_Node000005"><a xlink:href="classSimulation_1_1ScalarSimulation.html#acbf90360d259eea04a5672e3070cea8f" target="_top" xlink:title=" ">
<polygon fill="white" stroke="#666666" points="319.62,-587 178.38,-587 178.38,-558 319.62,-558 319.62,-587"/>
<text xml:space="preserve" text-anchor="start" x="186.38" y="-573.5" font-family="Helvetica,sans-Serif" font-size="10.00">Simulation::ScalarSimulation</text>
<text xml:space="preserve" text-anchor="middle" x="249" y="-563" font-family="Helvetica,sans-Serif" font-size="10.00">::get_kernel_contribution</text>
</a>
</g>
</g>
<!-- Node1&#45;&gt;Node5 -->
<g id="edge4_Node000001_Node000005" class="edge">
<title>Node1&#45;&gt;Node5</title>
<g id="a_edge4_Node000001_Node000005"><a xlink:title=" ">
<path fill="none" stroke="#63b8ff" d="M76.33,-373.4C87.97,-407.95 121.25,-494.33 177.25,-543.5 181,-546.79 185.17,-549.74 189.56,-552.38"/>
<polygon fill="#63b8ff" stroke="#63b8ff" points="187.64,-555.32 198.11,-556.95 190.94,-549.15 187.64,-555.32"/>
</a>
</g>
</g>
<!-- Node6 -->
<g id="Node000006" class="node">
<title>Node6</title>
<g id="a_Node000006"><a xlink:href="classSimulation_1_1ScalarSimulation.html#ae2625817dffc02083227be2b82dfe534" target="_top" xlink:title=" ">
<polygon fill="white" stroke="#666666" points="319.62,-483 178.38,-483 178.38,-454 319.62,-454 319.62,-483"/>
<text xml:space="preserve" text-anchor="start" x="186.38" y="-469.5" font-family="Helvetica,sans-Serif" font-size="10.00">Simulation::ScalarSimulation</text>
<text xml:space="preserve" text-anchor="middle" x="249" y="-459" font-family="Helvetica,sans-Serif" font-size="10.00">::getConcentrationArray</text>
</a>
</g>
</g>
<!-- Node1&#45;&gt;Node6 -->
<g id="edge5_Node000001_Node000006" class="edge">
<title>Node1&#45;&gt;Node6</title>
<g id="a_edge5_Node000001_Node000006"><a xlink:title=" ">
<path fill="none" stroke="#63b8ff" d="M88.2,-373.46C108.2,-390.97 143.39,-420.04 177.25,-439.5 183.22,-442.93 189.67,-446.16 196.16,-449.13"/>
<polygon fill="#63b8ff" stroke="#63b8ff" points="194.39,-452.17 204.96,-452.97 197.19,-445.76 194.39,-452.17"/>
</a>
</g>
</g>
<!-- Node8 -->
<g id="Node000008" class="node">
<title>Node8</title>
<g id="a_Node000008"><a xlink:href="classSimulation_1_1ScalarSimulation.html#a5ca5e122100fad91f418cbbea5bbb439" target="_top" xlink:title=" ">
<polygon fill="white" stroke="#666666" points="675.25,-438 534,-438 534,-409 675.25,-409 675.25,-438"/>
<text xml:space="preserve" text-anchor="start" x="542" y="-424.5" font-family="Helvetica,sans-Serif" font-size="10.00">Simulation::ScalarSimulation</text>
<text xml:space="preserve" text-anchor="middle" x="604.62" y="-414" font-family="Helvetica,sans-Serif" font-size="10.00">::n_col</text>
</a>
</g>
</g>
<!-- Node1&#45;&gt;Node8 -->
<g id="edge12_Node000001_Node000008" class="edge">
<title>Node1&#45;&gt;Node8</title>
<g id="a_edge12_Node000001_Node000008"><a xlink:title=" ">
<path fill="none" stroke="#63b8ff" d="M71.79,-343.71C73.22,-295.2 85.09,-140.39 177.25,-76.5 229.66,-40.16 263.14,-49.14 320.75,-76.5 466.73,-145.84 562.18,-331.45 592.89,-398.72"/>
<polygon fill="#63b8ff" stroke="#63b8ff" points="589.51,-399.74 596.79,-407.43 595.9,-396.88 589.51,-399.74"/>
</a>
</g>
</g>
<!-- Node9 -->
<g id="Node000009" class="node">
<title>Node9</title>
<g id="a_Node000009"><a xlink:href="classSimulation_1_1ScalarSimulation.html#aab5e48f3385a40d87dd678103097ec06" target="_top" xlink:title=" ">
<polygon fill="white" stroke="#666666" points="675.25,-514 534,-514 534,-485 675.25,-485 675.25,-514"/>
<text xml:space="preserve" text-anchor="start" x="542" y="-500.5" font-family="Helvetica,sans-Serif" font-size="10.00">Simulation::ScalarSimulation</text>
<text xml:space="preserve" text-anchor="middle" x="604.62" y="-490" font-family="Helvetica,sans-Serif" font-size="10.00">::n_row</text>
</a>
</g>
</g>
<!-- Node1&#45;&gt;Node9 -->
<g id="edge13_Node000001_Node000009" class="edge">
<title>Node1&#45;&gt;Node9</title>
<g id="a_edge13_Node000001_Node000009"><a xlink:title=" ">
<path fill="none" stroke="#63b8ff" d="M76.57,-373.34C88.19,-405.46 120.58,-480.87 177.25,-510.5 296.41,-572.8 461.07,-541.18 546.71,-517.54"/>
<polygon fill="#63b8ff" stroke="#63b8ff" points="547.63,-520.91 556.3,-514.82 545.72,-514.18 547.63,-520.91"/>
</a>
</g>
</g>
<!-- Node10 -->
<g id="Node000010" class="node">
<title>Node10</title>
<g id="a_Node000010"><a xlink:href="classSimulation_1_1ScalarSimulation.html#afcf9b11b8de7215be6b83ed6a2aceaf0" target="_top" xlink:title=" ">
<polygon fill="white" stroke="#666666" points="319.62,-397 178.38,-397 178.38,-368 319.62,-368 319.62,-397"/>
<text xml:space="preserve" text-anchor="start" x="186.38" y="-383.5" font-family="Helvetica,sans-Serif" font-size="10.00">Simulation::ScalarSimulation</text>
<text xml:space="preserve" text-anchor="middle" x="249" y="-373" font-family="Helvetica,sans-Serif" font-size="10.00">::getConcentrationData</text>
</a>
</g>
</g>
<!-- Node1&#45;&gt;Node10 -->
<g id="edge10_Node000001_Node000010" class="edge">
<title>Node1&#45;&gt;Node10</title>
<g id="a_edge10_Node000001_Node000010"><a xlink:title=" ">
<path fill="none" stroke="#63b8ff" d="M141.59,-368.02C149.85,-369.14 158.34,-370.3 166.74,-371.44"/>
<polygon fill="#63b8ff" stroke="#63b8ff" points="166.24,-374.91 176.62,-372.79 167.19,-367.97 166.24,-374.91"/>
</a>
</g>
</g>
<!-- Node11 -->
<g id="Node000011" class="node">
<title>Node11</title>
<g id="a_Node000011"><a xlink:href="classSimulation_1_1ScalarSimulation.html#ad1ac665e7224395a20e33e6e5f767b1f" target="_top" xlink:title=" ">
<polygon fill="white" stroke="#666666" points="319.62,-350 178.38,-350 178.38,-321 319.62,-321 319.62,-350"/>
<text xml:space="preserve" text-anchor="start" x="186.38" y="-336.5" font-family="Helvetica,sans-Serif" font-size="10.00">Simulation::ScalarSimulation</text>
<text xml:space="preserve" text-anchor="middle" x="249" y="-326" font-family="Helvetica,sans-Serif" font-size="10.00">::getVolume</text>
</a>
</g>
</g>
<!-- Node1&#45;&gt;Node11 -->
<g id="edge11_Node000001_Node000011" class="edge">
<title>Node1&#45;&gt;Node11</title>
<g id="a_edge11_Node000001_Node000011"><a xlink:title=" ">
<path fill="none" stroke="#63b8ff" d="M141.59,-349.38C149.85,-348.3 158.34,-347.19 166.74,-346.1"/>
<polygon fill="#63b8ff" stroke="#63b8ff" points="167.16,-349.57 176.62,-344.81 166.25,-342.63 167.16,-349.57"/>
</a>
</g>
</g>
<!-- Node12 -->
<g id="Node000012" class="node">
<title>Node12</title>
<g id="a_Node000012"><a xlink:href="classSimulation_1_1ScalarSimulation.html#a5a793304a495454f9969fcd83e70f654" target="_top" xlink:title=" ">
<polygon fill="white" stroke="#666666" points="319.62,-303 178.38,-303 178.38,-274 319.62,-274 319.62,-303"/>
<text xml:space="preserve" text-anchor="start" x="186.38" y="-289.5" font-family="Helvetica,sans-Serif" font-size="10.00">Simulation::ScalarSimulation</text>
<text xml:space="preserve" text-anchor="middle" x="249" y="-279" font-family="Helvetica,sans-Serif" font-size="10.00">::set_feed</text>
</a>
</g>
</g>
<!-- Node1&#45;&gt;Node12 -->
<g id="edge14_Node000001_Node000012" class="edge">
<title>Node1&#45;&gt;Node12</title>
<g id="a_edge14_Node000001_Node000012"><a xlink:title=" ">
<path fill="none" stroke="#63b8ff" d="M102.69,-343.65C123.55,-333.93 151.77,-321.28 177.25,-311.5 181.09,-310.02 185.08,-308.56 189.11,-307.13"/>
<polygon fill="#63b8ff" stroke="#63b8ff" points="190.08,-310.49 198.38,-303.91 187.79,-303.88 190.08,-310.49"/>
</a>
</g>
</g>
<!-- Node13 -->
<g id="Node000013" class="node">
<title>Node13</title>
<g id="a_Node000013"><a xlink:href="classSimulation_1_1ScalarSimulation.html#afb6dadda99cfce2c2172ad5fabc42682" target="_top" xlink:title=" ">
<polygon fill="white" stroke="#666666" points="320.75,-256 177.25,-256 177.25,-227 320.75,-227 320.75,-256"/>
<text xml:space="preserve" text-anchor="start" x="185.25" y="-242.5" font-family="Helvetica,sans-Serif" font-size="10.00">Simulation::ScalarSimulation</text>
<text xml:space="preserve" text-anchor="middle" x="249" y="-232" font-family="Helvetica,sans-Serif" font-size="10.00">::set_kernel_contribs_to_host</text>
</a>
</g>
</g>
<!-- Node1&#45;&gt;Node13 -->
<g id="edge15_Node000001_Node000013" class="edge">
<title>Node1&#45;&gt;Node13</title>
<g id="a_edge15_Node000001_Node000013"><a xlink:title=" ">
<path fill="none" stroke="#63b8ff" d="M84.51,-343.69C103.09,-323.19 139.35,-286.24 177.25,-264.5 179.31,-263.32 181.43,-262.19 183.61,-261.11"/>
<polygon fill="#63b8ff" stroke="#63b8ff" points="184.99,-264.33 192.68,-257.04 182.12,-257.94 184.99,-264.33"/>
</a>
</g>
</g>
<!-- Node14 -->
<g id="Node000014" class="node">
<title>Node14</title>
<g id="a_Node000014"><a xlink:href="classSimulation_1_1ScalarSimulation.html#ae80baa6cc64f5e0bae5847d0b1b739fc" target="_top" xlink:title=" ">
<polygon fill="white" stroke="#666666" points="319.62,-209 178.38,-209 178.38,-180 319.62,-180 319.62,-209"/>
<text xml:space="preserve" text-anchor="start" x="186.38" y="-195.5" font-family="Helvetica,sans-Serif" font-size="10.00">Simulation::ScalarSimulation</text>
<text xml:space="preserve" text-anchor="middle" x="249" y="-185" font-family="Helvetica,sans-Serif" font-size="10.00">::set_mass</text>
</a>
</g>
</g>
<!-- Node1&#45;&gt;Node14 -->
<g id="edge16_Node000001_Node000014" class="edge">
<title>Node1&#45;&gt;Node14</title>
<g id="a_edge16_Node000001_Node000014"><a xlink:title=" ">
<path fill="none" stroke="#63b8ff" d="M78.72,-343.77C93.22,-315.2 128.99,-252.03 177.25,-217.5 178.6,-216.54 179.98,-215.61 181.41,-214.73"/>
<polygon fill="#63b8ff" stroke="#63b8ff" points="182.77,-217.97 189.9,-210.12 179.44,-211.81 182.77,-217.97"/>
</a>
</g>
</g>
<!-- Node15 -->
<g id="Node000015" class="node">
<title>Node15</title>
<g id="a_Node000015"><a xlink:href="classSimulation_1_1ScalarSimulation.html#a2ec477ff4779eeeb0fc66eb443c5900a" target="_top" xlink:title=" ">
<polygon fill="white" stroke="#666666" points="319.62,-162 178.38,-162 178.38,-133 319.62,-133 319.62,-162"/>
<text xml:space="preserve" text-anchor="start" x="186.38" y="-148.5" font-family="Helvetica,sans-Serif" font-size="10.00">Simulation::ScalarSimulation</text>
<text xml:space="preserve" text-anchor="middle" x="249" y="-138" font-family="Helvetica,sans-Serif" font-size="10.00">::set_sink</text>
</a>
</g>
</g>
<!-- Node1&#45;&gt;Node15 -->
<g id="edge17_Node000001_Node000015" class="edge">
<title>Node1&#45;&gt;Node15</title>
<g id="a_edge17_Node000001_Node000015"><a xlink:title=" ">
<path fill="none" stroke="#63b8ff" d="M75.85,-343.6C86.65,-308.22 118.62,-218.56 177.25,-170.5 178.2,-169.72 179.17,-168.97 180.17,-168.24"/>
<polygon fill="#63b8ff" stroke="#63b8ff" points="181.76,-171.38 188.43,-163.16 178.08,-165.42 181.76,-171.38"/>
</a>
</g>
</g>
<!-- Node16 -->
<g id="Node000016" class="node">
<title>Node16</title>
<g id="a_Node000016"><a xlink:href="classSimulation_1_1ScalarSimulation.html#a699b0f56e5d0145718249e3b658a146c" target="_top" xlink:title=" ">
<polygon fill="white" stroke="#666666" points="319.62,-115 178.38,-115 178.38,-86 319.62,-86 319.62,-115"/>
<text xml:space="preserve" text-anchor="start" x="186.38" y="-101.5" font-family="Helvetica,sans-Serif" font-size="10.00">Simulation::ScalarSimulation</text>
<text xml:space="preserve" text-anchor="middle" x="249" y="-91" font-family="Helvetica,sans-Serif" font-size="10.00">::set_zero_contribs</text>
</a>
</g>
</g>
<!-- Node1&#45;&gt;Node16 -->
<g id="edge18_Node000001_Node000016" class="edge">
<title>Node1&#45;&gt;Node16</title>
<g id="a_edge18_Node000001_Node000016"><a xlink:title=" ">
<path fill="none" stroke="#63b8ff" d="M74.02,-343.66C81.43,-302.5 107.84,-185.79 177.25,-123.5 177.9,-122.92 178.56,-122.35 179.24,-121.8"/>
<polygon fill="#63b8ff" stroke="#63b8ff" points="181.15,-124.73 187.47,-116.23 177.22,-118.94 181.15,-124.73"/>
</a>
</g>
</g>
<!-- Node17 -->
<g id="Node000017" class="node">
<title>Node17</title>
<g id="a_Node000017"><a xlink:href="classSimulation_1_1ScalarSimulation.html#a45bff3c267cd20371ee730cb07ba4a37" target="_top" xlink:title=" ">
<polygon fill="white" stroke="#666666" points="498,-438 356.75,-438 356.75,-409 498,-409 498,-438"/>
<text xml:space="preserve" text-anchor="start" x="364.75" y="-424.5" font-family="Helvetica,sans-Serif" font-size="10.00">Simulation::ScalarSimulation</text>
<text xml:space="preserve" text-anchor="middle" x="427.38" y="-414" font-family="Helvetica,sans-Serif" font-size="10.00">::setVolumes</text>
</a>
</g>
</g>
<!-- Node1&#45;&gt;Node17 -->
<g id="edge19_Node000001_Node000017" class="edge">
<title>Node1&#45;&gt;Node17</title>
<g id="a_edge19_Node000001_Node000017"><a xlink:title=" ">
<path fill="none" stroke="#63b8ff" d="M97.58,-373.48C118.39,-384.7 148.74,-399.3 177.25,-406.5 232.14,-420.36 295.85,-424.5 345.1,-425.24"/>
<polygon fill="#63b8ff" stroke="#63b8ff" points="344.79,-428.73 354.82,-425.33 344.86,-421.73 344.79,-428.73"/>
</a>
</g>
</g>
<!-- Node18 -->
<g id="Node000018" class="node">
<title>Node18</title>
<g id="a_Node000018"><a xlink:href="classSimulation_1_1ScalarSimulation.html#ad3a68e95acbaebba654fa2dec2b7cbb8" target="_top" xlink:title=" ">
<polygon fill="white" stroke="#666666" points="319.62,-29 178.38,-29 178.38,0 319.62,0 319.62,-29"/>
<text xml:space="preserve" text-anchor="start" x="186.38" y="-15.5" font-family="Helvetica,sans-Serif" font-size="10.00">Simulation::ScalarSimulation</text>
<text xml:space="preserve" text-anchor="middle" x="249" y="-5" font-family="Helvetica,sans-Serif" font-size="10.00">::volume_span</text>
</a>
</g>
</g>
<!-- Node1&#45;&gt;Node18 -->
<g id="edge21_Node000001_Node000018" class="edge">
<title>Node1&#45;&gt;Node18</title>
<g id="a_edge21_Node000001_Node000018"><a xlink:title=" ">
<path fill="none" stroke="#63b8ff" d="M72.36,-343.81C75.59,-294.67 92.48,-134.01 177.25,-43.5 180.09,-40.46 183.3,-37.74 186.74,-35.29"/>
<polygon fill="#63b8ff" stroke="#63b8ff" points="188.31,-38.43 195.01,-30.22 184.66,-32.46 188.31,-38.43"/>
</a>
</g>
</g>
<!-- Node6&#45;&gt;Node6 -->
<g id="edge6_Node000006_Node000006" class="edge">
<title>Node6&#45;&gt;Node6</title>
<g id="a_edge6_Node000006_Node000006"><a xlink:title=" ">
<path fill="none" stroke="#63b8ff" d="M217.91,-483.21C210.42,-492.32 220.78,-501 249,-501 264.43,-501 274.52,-498.41 279.28,-494.56"/>
<polygon fill="#63b8ff" stroke="#63b8ff" points="282.76,-494.94 279.98,-484.72 275.78,-494.44 282.76,-494.94"/>
</a>
</g>
</g>
<!-- Node7 -->
<g id="Node000007" class="node">
<title>Node7</title>
<g id="a_Node000007"><a xlink:href="classSimulation_1_1ScalarSimulation.html#aa72818956090d90be703c0ba0ed932ee" target="_top" xlink:title=" ">
<polygon fill="white" stroke="#666666" points="498,-485 356.75,-485 356.75,-456 498,-456 498,-485"/>
<text xml:space="preserve" text-anchor="start" x="364.75" y="-471.5" font-family="Helvetica,sans-Serif" font-size="10.00">Simulation::ScalarSimulation</text>
<text xml:space="preserve" text-anchor="middle" x="427.38" y="-461" font-family="Helvetica,sans-Serif" font-size="10.00">::ScalarSimulation</text>
</a>
</g>
</g>
<!-- Node6&#45;&gt;Node7 -->
<g id="edge7_Node000006_Node000007" class="edge">
<title>Node6&#45;&gt;Node7</title>
<g id="a_edge7_Node000006_Node000007"><a xlink:title=" ">
<path fill="none" stroke="#63b8ff" d="M319.96,-469.29C328.23,-469.39 336.72,-469.48 345.12,-469.58"/>
<polygon fill="#63b8ff" stroke="#63b8ff" points="344.95,-473.08 354.98,-469.69 345.03,-466.08 344.95,-473.08"/>
</a>
</g>
</g>
<!-- Node7&#45;&gt;Node8 -->
<g id="edge8_Node000007_Node000008" class="edge">
<title>Node7&#45;&gt;Node8</title>
<g id="a_edge8_Node000007_Node000008"><a xlink:title=" ">
<path fill="none" stroke="#63b8ff" d="M483.83,-455.63C500.77,-451.09 519.57,-446.04 537.16,-441.32"/>
<polygon fill="#63b8ff" stroke="#63b8ff" points="537.72,-444.8 546.47,-438.83 535.91,-438.04 537.72,-444.8"/>
</a>
</g>
</g>
<!-- Node7&#45;&gt;Node9 -->
<g id="edge9_Node000007_Node000009" class="edge">
<title>Node7&#45;&gt;Node9</title>
<g id="a_edge9_Node000007_Node000009"><a xlink:title=" ">
<path fill="none" stroke="#63b8ff" d="M498.39,-482.09C506.3,-483.39 514.4,-484.74 522.44,-486.07"/>
<polygon fill="#63b8ff" stroke="#63b8ff" points="521.79,-489.51 532.22,-487.68 522.93,-482.6 521.79,-489.51"/>
</a>
</g>
</g>
<!-- Node17&#45;&gt;Node8 -->
<g id="edge20_Node000017_Node000008" class="edge">
<title>Node17&#45;&gt;Node8</title>
<g id="a_edge20_Node000017_Node000008"><a xlink:title=" ">
<path fill="none" stroke="#63b8ff" d="M498.39,-423.5C506.3,-423.5 514.4,-423.5 522.44,-423.5"/>
<polygon fill="#63b8ff" stroke="#63b8ff" points="522.2,-427 532.2,-423.5 522.2,-420 522.2,-427"/>
</a>
</g>
</g>
</g>
</svg>
