<?xml version="1.0" encoding="UTF-8" standalone="no"?>
<!DOCTYPE svg PUBLIC "-//W3C//DTD SVG 1.1//EN"
 "http://www.w3.org/Graphics/SVG/1.1/DTD/svg11.dtd">
<!-- Generated by graphviz version 14.0.1 (0)
 -->
<!-- Title: CmaUtils::FlowMapTransitionner::get_neighbors_view Pages: 1 -->
<svg width="711pt" height="115pt"
 viewBox="0.00 0.00 711.00 115.00" xmlns="http://www.w3.org/2000/svg" xmlns:xlink="http://www.w3.org/1999/xlink">
<g id="graph0" class="graph" transform="scale(1 1) rotate(0) translate(4 111)">
<title>CmaUtils::FlowMapTransitionner::get_neighbors_view</title>
<!-- Node1 -->
<g id="Node000001" class="node">
<title>Node1</title>
<g id="a_Node000001"><a xlink:title="Converts the provided neighbors&#39; data into a Kokkos view.">
<polygon fill="#999999" stroke="#666666" points="703,-61 544.5,-61 544.5,-32 703,-32 703,-61"/>
<text xml:space="preserve" text-anchor="start" x="552.5" y="-47.5" font-family="Helvetica,sans-Serif" font-size="10.00">CmaUtils::FlowMapTransitionner</text>
<text xml:space="preserve" text-anchor="middle" x="623.75" y="-37" font-family="Helvetica,sans-Serif" font-size="10.00">::get_neighbors_view</text>
</a>
</g>
</g>
<!-- Node1&#45;&gt;Node1 -->
<g id="edge4_Node000001_Node000001" class="edge">
<title>Node1&#45;&gt;Node1</title>
<g id="a_edge4_Node000001_Node000001"><a xlink:title=" ">
<path fill="none" stroke="#63b8ff" d="M656.76,-72.56C651.58,-76.41 640.58,-79 623.75,-79 592.98,-79 581.68,-70.32 589.85,-61.21"/>
<polygon fill="#63b8ff" stroke="#63b8ff" points="660.24,-72.96 657.53,-62.72 653.26,-72.41 660.24,-72.96"/>
</a>
</g>
</g>
<!-- Node2 -->
<g id="Node000002" class="node">
<title>Node2</title>
<g id="a_Node000002"><a xlink:href="classCmaUtils_1_1FlowMapTransitionner.html#a8b4b87c5ab55650fa16ff5be9f43a609" target="_top" xlink:title="Provides a const reference to the current reactor state.">
<polygon fill="white" stroke="#666666" points="508.5,-89 350,-89 350,-60 508.5,-60 508.5,-89"/>
<text xml:space="preserve" text-anchor="start" x="358" y="-75.5" font-family="Helvetica,sans-Serif" font-size="10.00">CmaUtils::FlowMapTransitionner</text>
<text xml:space="preserve" text-anchor="middle" x="429.25" y="-65" font-family="Helvetica,sans-Serif" font-size="10.00">::get_current_reactor_state</text>
</a>
</g>
</g>
<!-- Node1&#45;&gt;Node2 -->
<g id="edge1_Node000001_Node000002" class="edge">
<title>Node1&#45;&gt;Node2</title>
<g id="a_edge1_Node000001_Node000002"><a xlink:title=" ">
<path fill="none" stroke="#63b8ff" d="M532.9,-59.57C524.88,-60.74 516.8,-61.91 508.89,-63.06"/>
<polygon fill="#63b8ff" stroke="#63b8ff" points="533.29,-63.05 542.68,-58.15 532.28,-56.12 533.29,-63.05"/>
</a>
</g>
</g>
<!-- Node4 -->
<g id="Node000004" class="node">
<title>Node4</title>
<g id="a_Node000004"><a xlink:href="classCore_1_1GlobalInitialiser.html#a9b38d15538796d9cc115211890a6c081" target="_top" xlink:title="Initializes a Monte Carlo unit.">
<polygon fill="white" stroke="#666666" points="484.12,-38 374.38,-38 374.38,-9 484.12,-9 484.12,-38"/>
<text xml:space="preserve" text-anchor="start" x="382.38" y="-24.5" font-family="Helvetica,sans-Serif" font-size="10.00">Core::GlobalInitialiser</text>
<text xml:space="preserve" text-anchor="middle" x="429.25" y="-14" font-family="Helvetica,sans-Serif" font-size="10.00">::init_monte_carlo</text>
</a>
</g>
</g>
<!-- Node1&#45;&gt;Node4 -->
<g id="edge5_Node000001_Node000004" class="edge">
<title>Node1&#45;&gt;Node4</title>
<g id="a_edge5_Node000001_Node000004"><a xlink:title=" ">
<path fill="none" stroke="#63b8ff" d="M532.8,-35.75C516.28,-33.78 499.51,-31.78 484.45,-29.98"/>
<polygon fill="#63b8ff" stroke="#63b8ff" points="532.33,-39.22 542.67,-36.93 533.16,-32.27 532.33,-39.22"/>
</a>
</g>
</g>
<!-- Node2&#45;&gt;Node2 -->
<g id="edge3_Node000002_Node000002" class="edge">
<title>Node2&#45;&gt;Node2</title>
<g id="a_edge3_Node000002_Node000002"><a xlink:title=" ">
<path fill="none" stroke="#63b8ff" d="M462.26,-100.56C457.08,-104.41 446.08,-107 429.25,-107 398.48,-107 387.18,-98.32 395.35,-89.21"/>
<polygon fill="#63b8ff" stroke="#63b8ff" points="465.74,-100.96 463.03,-90.72 458.76,-100.41 465.74,-100.96"/>
</a>
</g>
</g>
<!-- Node3 -->
<g id="Node000003" class="node">
<title>Node3</title>
<g id="a_Node000003"><a xlink:href="classCmaUtils_1_1FlowMapTransitionner.html#aa66bfc8d6b4f0890630a5a20b4664956" target="_top" xlink:title="Advances the simulation by one timestep.">
<polygon fill="white" stroke="#666666" points="314,-94 155.5,-94 155.5,-65 314,-65 314,-94"/>
<text xml:space="preserve" text-anchor="start" x="163.5" y="-80.5" font-family="Helvetica,sans-Serif" font-size="10.00">CmaUtils::FlowMapTransitionner</text>
<text xml:space="preserve" text-anchor="middle" x="234.75" y="-70" font-family="Helvetica,sans-Serif" font-size="10.00">::advance</text>
</a>
</g>
</g>
<!-- Node2&#45;&gt;Node3 -->
<g id="edge2_Node000002_Node000003" class="edge">
<title>Node2&#45;&gt;Node3</title>
<g id="a_edge2_Node000002_Node000003"><a xlink:title=" ">
<path fill="none" stroke="#63b8ff" d="M338.4,-76.83C330.38,-77.04 322.3,-77.25 314.39,-77.46"/>
<polygon fill="#63b8ff" stroke="#63b8ff" points="338.26,-80.34 348.16,-76.58 338.07,-73.34 338.26,-80.34"/>
</a>
</g>
</g>
<!-- Node5 -->
<g id="Node000005" class="node">
<title>Node5</title>
<g id="a_Node000005"><a xlink:href="classCore_1_1GlobalInitialiser.html#a00d0e7a7d549bf06886dfc3ba9de3e3d" target="_top" xlink:title="Initializes a simulation unit.">
<polygon fill="white" stroke="#666666" points="289.62,-29 179.88,-29 179.88,0 289.62,0 289.62,-29"/>
<text xml:space="preserve" text-anchor="start" x="187.88" y="-15.5" font-family="Helvetica,sans-Serif" font-size="10.00">Core::GlobalInitialiser</text>
<text xml:space="preserve" text-anchor="middle" x="234.75" y="-5" font-family="Helvetica,sans-Serif" font-size="10.00">::init_simulation</text>
</a>
</g>
</g>
<!-- Node4&#45;&gt;Node5 -->
<g id="edge6_Node000004_Node000005" class="edge">
<title>Node4&#45;&gt;Node5</title>
<g id="a_edge6_Node000004_Node000005"><a xlink:title=" ">
<path fill="none" stroke="#63b8ff" d="M362.71,-20.44C338.98,-19.33 312.45,-18.09 289.81,-17.03"/>
<polygon fill="#63b8ff" stroke="#63b8ff" points="362.45,-23.93 372.6,-20.9 362.78,-16.94 362.45,-23.93"/>
</a>
</g>
</g>
<!-- Node5&#45;&gt;Node5 -->
<g id="edge8_Node000005_Node000005" class="edge">
<title>Node5&#45;&gt;Node5</title>
<g id="a_edge8_Node000005_Node000005"><a xlink:title=" ">
<path fill="none" stroke="#63b8ff" d="M264.45,-40.56C259.79,-44.41 249.89,-47 234.75,-47 207.06,-47 196.9,-38.32 204.25,-29.21"/>
<polygon fill="#63b8ff" stroke="#63b8ff" points="267.93,-40.94 265.14,-30.72 260.95,-40.45 267.93,-40.94"/>
</a>
</g>
</g>
<!-- Node6 -->
<g id="Node000006" class="node">
<title>Node6</title>
<g id="a_Node000006"><a xlink:href="structApi_1_1SimulationInstance.html#ae9bdd54076170f50eadcb7966d64c19d" target="_top" xlink:title="Apply the simulation configuration and prepare for execution.">
<polygon fill="white" stroke="#666666" points="119.5,-29 0,-29 0,0 119.5,0 119.5,-29"/>
<text xml:space="preserve" text-anchor="start" x="8" y="-15.5" font-family="Helvetica,sans-Serif" font-size="10.00">Api::SimulationInstance</text>
<text xml:space="preserve" text-anchor="middle" x="59.75" y="-5" font-family="Helvetica,sans-Serif" font-size="10.00">::apply</text>
</a>
</g>
</g>
<!-- Node5&#45;&gt;Node6 -->
<g id="edge7_Node000005_Node000006" class="edge">
<title>Node5&#45;&gt;Node6</title>
<g id="a_edge7_Node000005_Node000006"><a xlink:title=" ">
<path fill="none" stroke="#63b8ff" d="M168.15,-14.5C152.31,-14.5 135.46,-14.5 119.92,-14.5"/>
<polygon fill="#63b8ff" stroke="#63b8ff" points="167.97,-18 177.97,-14.5 167.97,-11 167.97,-18"/>
</a>
</g>
</g>
</g>
</svg>
