<?xml version="1.0" encoding="UTF-8" standalone="no"?>
<!DOCTYPE svg PUBLIC "-//W3C//DTD SVG 1.1//EN"
 "http://www.w3.org/Graphics/SVG/1.1/DTD/svg11.dtd">
<!-- Generated by graphviz version 14.0.1 (0)
 -->
<!-- Title: Simulation::Probes::clear Pages: 1 -->
<!--zoomable 140 -->

<svg id="main" version="1.1" xmlns="http://www.w3.org/2000/svg" xmlns:xlink="http://www.w3.org/1999/xlink" xml:space="preserve" onload="init(evt)">

<style type="text/css"><![CDATA[
.node, .edge {opacity: 0.7;}
.node.selected, .edge.selected {opacity: 1;}
.edge:hover path { stroke: red; }
.edge:hover polygon { stroke: red; fill: red; }
]]></style>

<defs>
  <circle id="rim" cx="0" cy="0" r="7"/>
  <circle id="rim2" cx="0" cy="0" r="3.5"/>
  <g id="zoomPlus">
    <use xlink:href="#rim" fill="#404040"><set attributeName="fill" to="#808080" begin="zoomplus.mouseover" end="zoomplus.mouseout"/></use>
    <path d="M-4,0h8M0,-4v8" fill="none" stroke="white" stroke-width="1.5" pointer-events="none"/>
  </g>
  <g id="zoomMin">
    <use xlink:href="#rim" fill="#404040"><set attributeName="fill" to="#808080" begin="zoomminus.mouseover" end="zoomminus.mouseout"/></use>
    <path d="M-4,0h8" fill="none" stroke="white" stroke-width="1.5" pointer-events="none"/>
  </g>
  <g id="arrowUp" transform="translate(30 24)">
    <use xlink:href="#rim"/>
    <path pointer-events="none" fill="none" stroke="white" stroke-width="1.5" d="M0,-3.0v7 M-2.5,-0.5L0,-3.0L2.5,-0.5"/>
  </g>
  <g id="arrowRight" transform="rotate(90) translate(36 -43)">
    <use xlink:href="#rim"/>
    <path pointer-events="none" fill="none" stroke="white" stroke-width="1.5" d="M0,-3.0v7 M-2.5,-0.5L0,-3.0L2.5,-0.5"/>
  </g>
  <g id="arrowDown" transform="rotate(180) translate(-30 -48)">
    <use xlink:href="#rim"/>
    <path pointer-events="none" fill="none" stroke="white" stroke-width="1.5" d="M0,-3.0v7 M-2.5,-0.5L0,-3.0L2.5,-0.5"/>
  </g>
  <g id="arrowLeft" transform="rotate(270) translate(-36 17)">
    <use xlink:href="#rim"/>
    <path pointer-events="none" fill="none" stroke="white" stroke-width="1.5" d="M0,-3.0v7 M-2.5,-0.5L0,-3.0L2.5,-0.5"/>
  </g>
  <g id="resetDef">
    <use xlink:href="#rim2" fill="#404040"><set attributeName="fill" to="#808080" begin="reset.mouseover" end="reset.mouseout"/></use>
  </g>
</defs>
<script type="application/ecmascript">
var viewWidth = 1192;
var viewHeight = 140;
var sectionId = 'dynsection-1';
</script>
<script type="application/ecmascript" xlink:href="svg.min.js"/>
<svg id="graph" class="graph">
<g id="viewport">
<title>Simulation::Probes::clear</title>
<!-- Node1 -->
<g id="Node000001" class="node">
<title>Node1</title>
<g id="a_Node000001"><a xlink:title=" ">
<polygon fill="#999999" stroke="#666666" points="1184,-52 1085.5,-52 1085.5,-23 1184,-23 1184,-52"/>
<text xml:space="preserve" text-anchor="start" x="1093.5" y="-38.5" font-family="Helvetica,sans-Serif" font-size="10.00">Simulation::Probes</text>
<text xml:space="preserve" text-anchor="middle" x="1134.75" y="-28" font-family="Helvetica,sans-Serif" font-size="10.00">::clear</text>
</a>
</g>
</g>
<!-- Node2 -->
<g id="Node000002" class="node">
<title>Node2</title>
<g id="a_Node000002"><a xlink:href="namespacePostProcessing.html#adae52b6b518e25be1c920f36f196ef65" target="_top" xlink:title=" ">
<polygon fill="white" stroke="#666666" points="1049.5,-76 933,-76 933,-47 1049.5,-47 1049.5,-76"/>
<text xml:space="preserve" text-anchor="start" x="941" y="-62.5" font-family="Helvetica,sans-Serif" font-size="10.00">PostProcessing::_save</text>
<text xml:space="preserve" text-anchor="middle" x="991.25" y="-52" font-family="Helvetica,sans-Serif" font-size="10.00">_probes</text>
</a>
</g>
</g>
<!-- Node1&#45;&gt;Node2 -->
<g id="edge1_Node000001_Node000002" class="edge">
<title>Node1&#45;&gt;Node2</title>
<g id="a_edge1_Node000001_Node000002"><a xlink:title=" ">
<path fill="none" stroke="#63b8ff" d="M1073.93,-47.65C1065.94,-49 1057.76,-50.39 1049.81,-51.74"/>
<polygon fill="#63b8ff" stroke="#63b8ff" points="1074.29,-51.14 1083.56,-46.01 1073.12,-44.23 1074.29,-51.14"/>
</a>
</g>
</g>
<!-- Node12 -->
<g id="Node000012" class="node">
<title>Node12</title>
<g id="a_Node000012"><a xlink:href="classSimulation_1_1Probes.html#a0dcf2728472463a78c038986e50322a6" target="_top" xlink:title=" ">
<polygon fill="white" stroke="#666666" points="1040.5,-29 942,-29 942,0 1040.5,0 1040.5,-29"/>
<text xml:space="preserve" text-anchor="start" x="950" y="-15.5" font-family="Helvetica,sans-Serif" font-size="10.00">Simulation::Probes</text>
<text xml:space="preserve" text-anchor="middle" x="991.25" y="-5" font-family="Helvetica,sans-Serif" font-size="10.00">::Probes</text>
</a>
</g>
</g>
<!-- Node1&#45;&gt;Node12 -->
<g id="edge15_Node000001_Node000012" class="edge">
<title>Node1&#45;&gt;Node12</title>
<g id="a_edge15_Node000001_Node000012"><a xlink:title=" ">
<path fill="none" stroke="#63b8ff" d="M1073.7,-27.74C1062.64,-25.94 1051.22,-24.08 1040.56,-22.35"/>
<polygon fill="#63b8ff" stroke="#63b8ff" points="1073.13,-31.19 1083.56,-29.34 1074.25,-24.28 1073.13,-31.19"/>
</a>
</g>
</g>
<!-- Node3 -->
<g id="Node000003" class="node">
<title>Node3</title>
<g id="a_Node000003"><a xlink:href="namespacePostProcessing.html#a0e06c75e06cf43e767d5e3e8afab62f2" target="_top" xlink:title=" ">
<polygon fill="white" stroke="#666666" points="897,-76 785.75,-76 785.75,-47 897,-47 897,-76"/>
<text xml:space="preserve" text-anchor="start" x="793.75" y="-62.5" font-family="Helvetica,sans-Serif" font-size="10.00">PostProcessing::save</text>
<text xml:space="preserve" text-anchor="middle" x="841.38" y="-52" font-family="Helvetica,sans-Serif" font-size="10.00">_probes</text>
</a>
</g>
</g>
<!-- Node2&#45;&gt;Node3 -->
<g id="edge2_Node000002_Node000003" class="edge">
<title>Node2&#45;&gt;Node3</title>
<g id="a_edge2_Node000002_Node000003"><a xlink:title=" ">
<path fill="none" stroke="#63b8ff" d="M921.3,-61.5C913.2,-61.5 905.02,-61.5 897.15,-61.5"/>
<polygon fill="#63b8ff" stroke="#63b8ff" points="921.14,-65 931.14,-61.5 921.14,-58 921.14,-65"/>
</a>
</g>
</g>
<!-- Node4 -->
<g id="Node000004" class="node">
<title>Node4</title>
<g id="a_Node000004"><a xlink:href="namespaceCore.html#ab6528e76111960864b7e4741327b3049" target="_top" xlink:title="Start simulation.">
<polygon fill="white" stroke="#666666" points="718.25,-89.75 655,-89.75 655,-71.25 718.25,-71.25 718.25,-89.75"/>
<text xml:space="preserve" text-anchor="middle" x="686.62" y="-76.25" font-family="Helvetica,sans-Serif" font-size="10.00">Core::exec</text>
</a>
</g>
</g>
<!-- Node3&#45;&gt;Node4 -->
<g id="edge3_Node000003_Node000004" class="edge">
<title>Node3&#45;&gt;Node4</title>
<g id="a_edge3_Node000003_Node000004"><a xlink:title=" ">
<path fill="none" stroke="#63b8ff" d="M774.35,-69.71C754.9,-72.13 734.54,-74.66 718.44,-76.67"/>
<polygon fill="#63b8ff" stroke="#63b8ff" points="774.67,-73.2 784.16,-68.49 773.8,-66.25 774.67,-73.2"/>
</a>
</g>
</g>
<!-- Node11 -->
<g id="Node000011" class="node">
<title>Node11</title>
<g id="a_Node000011"><a xlink:href="classExportHandler.html#ad66ddd83a4245acb73446a86f3fcde6a" target="_top" xlink:title="Handles periodic export of simulation data.">
<polygon fill="white" stroke="#666666" points="749.75,-52.75 623.5,-52.75 623.5,-34.25 749.75,-34.25 749.75,-52.75"/>
<text xml:space="preserve" text-anchor="middle" x="686.62" y="-39.25" font-family="Helvetica,sans-Serif" font-size="10.00">ExportHandler::operator()</text>
</a>
</g>
</g>
<!-- Node3&#45;&gt;Node11 -->
<g id="edge14_Node000003_Node000011" class="edge">
<title>Node3&#45;&gt;Node11</title>
<g id="a_edge14_Node000003_Node000011"><a xlink:title=" ">
<path fill="none" stroke="#63b8ff" d="M774.37,-53.72C766.29,-52.77 758.04,-51.8 750.01,-50.85"/>
<polygon fill="#63b8ff" stroke="#63b8ff" points="773.82,-57.18 784.16,-54.88 774.64,-50.23 773.82,-57.18"/>
</a>
</g>
</g>
<!-- Node5 -->
<g id="Node000005" class="node">
<title>Node5</title>
<g id="a_Node000005"><a xlink:href="structApi_1_1SimulationInstance.html#a3f04372728be84263fb69f5773ca5bd5" target="_top" xlink:title="Execute the simulation.">
<polygon fill="white" stroke="#666666" points="430.5,-132 311,-132 311,-103 430.5,-103 430.5,-132"/>
<text xml:space="preserve" text-anchor="start" x="319" y="-118.5" font-family="Helvetica,sans-Serif" font-size="10.00">Api::SimulationInstance</text>
<text xml:space="preserve" text-anchor="middle" x="370.75" y="-108" font-family="Helvetica,sans-Serif" font-size="10.00">::exec</text>
</a>
</g>
</g>
<!-- Node4&#45;&gt;Node5 -->
<g id="edge4_Node000004_Node000005" class="edge">
<title>Node4&#45;&gt;Node5</title>
<g id="a_edge4_Node000004_Node000005"><a xlink:title=" ">
<path fill="none" stroke="#63b8ff" d="M643.88,-89.05C626.5,-92.37 606.08,-95.98 587.5,-98.5 534.78,-105.64 474.42,-110.69 430.98,-113.78"/>
<polygon fill="#63b8ff" stroke="#63b8ff" points="644.18,-92.56 653.32,-87.21 642.84,-85.69 644.18,-92.56"/>
</a>
</g>
</g>
<!-- Node7 -->
<g id="Node000007" class="node">
<title>Node7</title>
<g id="a_Node000007"><a xlink:href="namespaceCore.html#a23e6f3d22fc51ef9decabb2c220b27c4" target="_top" xlink:title=" ">
<polygon fill="white" stroke="#666666" points="587.5,-89.75 466.5,-89.75 466.5,-71.25 587.5,-71.25 587.5,-89.75"/>
<text xml:space="preserve" text-anchor="middle" x="527" y="-76.25" font-family="Helvetica,sans-Serif" font-size="10.00">Core::exporter_filename</text>
</a>
</g>
</g>
<!-- Node4&#45;&gt;Node7 -->
<g id="edge6_Node000004_Node000007" class="edge">
<title>Node4&#45;&gt;Node7</title>
<g id="a_edge6_Node000004_Node000007"><a xlink:title=" ">
<path fill="none" stroke="#63b8ff" d="M643.54,-74.45C626.42,-73.75 606.33,-73.57 587.74,-73.93"/>
<polygon fill="#63b8ff" stroke="#63b8ff" points="643.18,-77.94 653.35,-74.94 643.54,-70.94 643.18,-77.94"/>
</a>
</g>
</g>
<!-- Node8 -->
<g id="Node000008" class="node">
<title>Node8</title>
<g id="a_Node000008"><a xlink:href="namespaceCore.html#a877563df5a407318a381e12311022377" target="_top" xlink:title=" ">
<polygon fill="white" stroke="#666666" points="557.5,-52.75 496.5,-52.75 496.5,-34.25 557.5,-34.25 557.5,-52.75"/>
<text xml:space="preserve" text-anchor="middle" x="527" y="-39.25" font-family="Helvetica,sans-Serif" font-size="10.00">Core::load</text>
</a>
</g>
</g>
<!-- Node4&#45;&gt;Node8 -->
<g id="edge8_Node000004_Node000008" class="edge">
<title>Node4&#45;&gt;Node8</title>
<g id="a_edge8_Node000004_Node000008"><a xlink:title=" ">
<path fill="none" stroke="#63b8ff" d="M643.78,-70.68C616.73,-64.33 582.18,-56.22 557.89,-50.52"/>
<polygon fill="#63b8ff" stroke="#63b8ff" points="642.85,-74.05 653.39,-72.93 644.45,-67.24 642.85,-74.05"/>
</a>
</g>
</g>
<!-- Node6 -->
<g id="Node000006" class="node">
<title>Node6</title>
<g id="a_Node000006"><a xlink:href="structApi_1_1SimulationInstance.html#afee07db8a6b57fe7982900ecaa943cc0" target="_top" xlink:title="Default constructor.">
<polygon fill="white" stroke="#666666" points="119.5,-94 0,-94 0,-65 119.5,-65 119.5,-94"/>
<text xml:space="preserve" text-anchor="start" x="8" y="-80.5" font-family="Helvetica,sans-Serif" font-size="10.00">Api::SimulationInstance</text>
<text xml:space="preserve" text-anchor="middle" x="59.75" y="-70" font-family="Helvetica,sans-Serif" font-size="10.00">::SimulationInstance</text>
</a>
</g>
</g>
<!-- Node5&#45;&gt;Node6 -->
<g id="edge5_Node000005_Node000006" class="edge">
<title>Node5&#45;&gt;Node6</title>
<g id="a_edge5_Node000005_Node000006"><a xlink:title=" ">
<path fill="none" stroke="#63b8ff" d="M299.28,-108.83C245.03,-102.16 170.91,-93.05 119.76,-86.76"/>
<polygon fill="#63b8ff" stroke="#63b8ff" points="298.68,-112.29 309.04,-110.03 299.54,-105.34 298.68,-112.29"/>
</a>
</g>
</g>
<!-- Node7&#45;&gt;Node4 -->
<g id="edge7_Node000007_Node000004" class="edge">
<title>Node7&#45;&gt;Node4</title>
<g id="a_edge7_Node000007_Node000004"><a xlink:title=" ">
<path fill="none" stroke="#63b8ff" d="M599.14,-87.22C618.71,-87.37 638.91,-86.95 654.86,-85.98"/>
<polygon fill="#63b8ff" stroke="#63b8ff" points="599.29,-83.72 589.25,-87.09 599.2,-90.72 599.29,-83.72"/>
</a>
</g>
</g>
<!-- Node9 -->
<g id="Node000009" class="node">
<title>Node9</title>
<g id="a_Node000009"><a xlink:href="structApi_1_1SimulationInstance.html#ad2abfa76ac4128d44b7c0c895f78b77b" target="_top" xlink:title="Load ad apply the simulation configuration and prepare for execution based on file.">
<polygon fill="white" stroke="#666666" points="430.5,-58 311,-58 311,-29 430.5,-29 430.5,-58"/>
<text xml:space="preserve" text-anchor="start" x="319" y="-44.5" font-family="Helvetica,sans-Serif" font-size="10.00">Api::SimulationInstance</text>
<text xml:space="preserve" text-anchor="middle" x="370.75" y="-34" font-family="Helvetica,sans-Serif" font-size="10.00">::apply_load</text>
</a>
</g>
</g>
<!-- Node8&#45;&gt;Node9 -->
<g id="edge9_Node000008_Node000009" class="edge">
<title>Node8&#45;&gt;Node9</title>
<g id="a_edge9_Node000008_Node000009"><a xlink:title=" ">
<path fill="none" stroke="#63b8ff" d="M484.76,-43.5C468.2,-43.5 448.79,-43.5 430.78,-43.5"/>
<polygon fill="#63b8ff" stroke="#63b8ff" points="484.75,-47 494.75,-43.5 484.75,-40 484.75,-47"/>
</a>
</g>
</g>
<!-- Node9&#45;&gt;Node6 -->
<g id="edge13_Node000009_Node000006" class="edge">
<title>Node9&#45;&gt;Node6</title>
<g id="a_edge13_Node000009_Node000006"><a xlink:title=" ">
<path fill="none" stroke="#63b8ff" d="M299.56,-56.81C291.29,-58.17 282.97,-59.43 275,-60.5 222.63,-67.51 162.69,-72.57 119.56,-75.7"/>
<polygon fill="#63b8ff" stroke="#63b8ff" points="299.97,-60.29 309.25,-55.18 298.81,-53.39 299.97,-60.29"/>
</a>
</g>
</g>
<!-- Node10 -->
<g id="Node000010" class="node">
<title>Node10</title>
<g id="a_Node000010"><a xlink:href="structApi_1_1SimulationInstance.html#a3398ddd22faa3ceb16b454c51faeced0" target="_top" xlink:title="Apply the simulation configuration and prepare for execution.">
<polygon fill="white" stroke="#666666" points="275,-33 155.5,-33 155.5,-4 275,-4 275,-33"/>
<text xml:space="preserve" text-anchor="start" x="163.5" y="-19.5" font-family="Helvetica,sans-Serif" font-size="10.00">Api::SimulationInstance</text>
<text xml:space="preserve" text-anchor="middle" x="215.25" y="-9" font-family="Helvetica,sans-Serif" font-size="10.00">::apply</text>
</a>
</g>
</g>
<!-- Node9&#45;&gt;Node10 -->
<g id="edge10_Node000009_Node000010" class="edge">
<title>Node9&#45;&gt;Node10</title>
<g id="a_edge10_Node000009_Node000010"><a xlink:title=" ">
<path fill="none" stroke="#63b8ff" d="M299.49,-32.06C291.39,-30.74 283.19,-29.4 275.25,-28.11"/>
<polygon fill="#63b8ff" stroke="#63b8ff" points="298.92,-35.51 309.35,-33.66 300.04,-28.6 298.92,-35.51"/>
</a>
</g>
</g>
<!-- Node10&#45;&gt;Node6 -->
<g id="edge12_Node000010_Node000006" class="edge">
<title>Node10&#45;&gt;Node6</title>
<g id="a_edge12_Node000010_Node000006"><a xlink:title=" ">
<path fill="none" stroke="#63b8ff" d="M166.3,-37.56C144.43,-46.25 118.91,-56.39 98.44,-64.52"/>
<polygon fill="#63b8ff" stroke="#63b8ff" points="167.29,-40.93 175.29,-33.98 164.71,-34.42 167.29,-40.93"/>
</a>
</g>
</g>
<!-- Node10&#45;&gt;Node10 -->
<g id="edge11_Node000010_Node000010" class="edge">
<title>Node10&#45;&gt;Node10</title>
<g id="a_edge11_Node000010_Node000010"><a xlink:title=" ">
<path fill="none" stroke="#63b8ff" d="M241.64,-44.56C237.5,-48.41 228.7,-51 215.25,-51 190.65,-51 181.62,-42.32 188.15,-33.21"/>
<polygon fill="#63b8ff" stroke="#63b8ff" points="245.13,-44.92 242.26,-34.72 238.14,-44.48 245.13,-44.92"/>
</a>
</g>
</g>
</g>
</svg>

<g id="navigator" transform="translate(0 0)" fill="#404254">
  <rect fill="#f2f5e9" fill-opacity="0.5" stroke="#606060" stroke-width=".5" x="0" y="0" width="60" height="60"/>
  <use id="zoomplus" xlink:href="#zoomPlus" x="17" y="9" onmousedown="handleZoom(evt,'in')"/>
  <use id="zoomminus" xlink:href="#zoomMin" x="42" y="9" onmousedown="handleZoom(evt,'out')"/>
  <use id="reset" xlink:href="#resetDef" x="30" y="36" onmousedown="handleReset()"/>
   <use id="arrowup" xlink:href="#arrowUp" x="0" y="0" onmousedown="handlePan(0,-1)"/>
  <use id="arrowright" xlink:href="#arrowRight" x="0" y="0" onmousedown="handlePan(1,0)"/>
  <use id="arrowdown" xlink:href="#arrowDown" x="0" y="0" onmousedown="handlePan(0,1)"/>
  <use id="arrowleft" xlink:href="#arrowLeft" x="0" y="0" onmousedown="handlePan(-1,0)"/>
</g>
<svg viewBox="0 0 15 15" width="100%" height="30px" preserveAspectRatio="xMaxYMin meet">
 <g id="arrow_out" transform="scale(0.3 0.3)">
  <a xlink:href="classSimulation_1_1Probes_af54f1c8be6e49f63e8533d6a4e91cad3_icgraph_org.svg" target="_base">
   <rect id="button" ry="5" rx="5" y="6" x="6" height="38" width="38"
        fill="#f2f5e9" fill-opacity="0.5" stroke="#606060" stroke-width="1.0"/>
   <path id="arrow"
     d="M 11.500037,31.436501 C 11.940474,20.09759 22.043105,11.32322 32.158766,21.979434 L 37.068811,17.246167 C 37.068811,17.246167 37.088388,32 37.088388,32 L 22.160133,31.978069 C 22.160133,31.978069 26.997745,27.140456 26.997745,27.140456 C 18.528582,18.264221 13.291696,25.230495 11.500037,31.436501 z"
     style="fill:#404040;"/>
  </a>
 </g>
</svg>

<style type='text/css'>
<![CDATA[
[data-mouse-over-selected='false'] { opacity: 0.7; }
[data-mouse-over-selected='true']  { opacity: 1.0; }
]]>
</style>
<script type="application/ecmascript"><![CDATA[
document.addEventListener('DOMContentLoaded', (event) => {
  highlightEdges();
  highlightAdjacentNodes();
});
]]></script>
</svg>
