<?xml version="1.0" encoding="UTF-8" standalone="no"?>
<!DOCTYPE svg PUBLIC "-//W3C//DTD SVG 1.1//EN"
 "http://www.w3.org/Graphics/SVG/1.1/DTD/svg11.dtd">
<!-- Generated by graphviz version 12.1.2 (0)
 -->
<!-- Title: Core::DataExporter::write_simple Pages: 1 -->
<svg width="246pt" height="131pt"
 viewBox="0.00 0.00 246.25 131.00" xmlns="http://www.w3.org/2000/svg" xmlns:xlink="http://www.w3.org/1999/xlink">
<g id="graph0" class="graph" transform="scale(1 1) rotate(0) translate(4 127)">
<title>Core::DataExporter::write_simple</title>
<!-- Node1 -->
<g id="Node000001" class="node">
<title>Node1</title>
<g id="a_Node000001"><a xlink:title=" ">
<polygon fill="#999999" stroke="#666666" points="238.25,-76 137.5,-76 137.5,-47 238.25,-47 238.25,-76"/>
<text text-anchor="start" x="145.5" y="-62.5" font-family="Helvetica,sans-Serif" font-size="10.00">Core::DataExporter</text>
<text text-anchor="middle" x="187.88" y="-52" font-family="Helvetica,sans-Serif" font-size="10.00">::write_simple</text>
</a>
</g>
</g>
<!-- Node2 -->
<g id="Node000002" class="node">
<title>Node2</title>
<g id="a_Node000002"><a xlink:href="classCore_1_1MainExporter.html#aff142237053600bcd6c586c42c7c6bfb" target="_top" xlink:title="Constructs a MainExporter instance.">
<polygon fill="white" stroke="#666666" points="101.5,-123 0,-123 0,-94 101.5,-94 101.5,-123"/>
<text text-anchor="start" x="8" y="-109.5" font-family="Helvetica,sans-Serif" font-size="10.00">Core::MainExporter</text>
<text text-anchor="middle" x="50.75" y="-99" font-family="Helvetica,sans-Serif" font-size="10.00">::MainExporter</text>
</a>
</g>
</g>
<!-- Node1&#45;&gt;Node2 -->
<g id="edge1_Node000001_Node000002" class="edge">
<title>Node1&#45;&gt;Node2</title>
<g id="a_edge1_Node000001_Node000002"><a xlink:title=" ">
<path fill="none" stroke="#63b8ff" d="M133.51,-80.06C120.63,-84.54 107.03,-89.27 94.69,-93.56"/>
<polygon fill="#63b8ff" stroke="#63b8ff" points="134.4,-83.46 142.69,-76.87 132.1,-76.85 134.4,-83.46"/>
</a>
</g>
</g>
<!-- Node3 -->
<g id="Node000003" class="node">
<title>Node3</title>
<g id="a_Node000003"><a xlink:href="classCore_1_1MainExporter.html#ac2c33b07c7eb59392ad524a9b48b0312" target="_top" xlink:title="Writes final simulation data to the output.">
<polygon fill="white" stroke="#666666" points="101.5,-76 0,-76 0,-47 101.5,-47 101.5,-76"/>
<text text-anchor="start" x="8" y="-62.5" font-family="Helvetica,sans-Serif" font-size="10.00">Core::MainExporter</text>
<text text-anchor="middle" x="50.75" y="-52" font-family="Helvetica,sans-Serif" font-size="10.00">::write_final</text>
</a>
</g>
</g>
<!-- Node1&#45;&gt;Node3 -->
<g id="edge2_Node000001_Node000003" class="edge">
<title>Node1&#45;&gt;Node3</title>
<g id="a_edge2_Node000001_Node000003"><a xlink:title=" ">
<path fill="none" stroke="#63b8ff" d="M125.99,-61.5C117.88,-61.5 109.64,-61.5 101.74,-61.5"/>
<polygon fill="#63b8ff" stroke="#63b8ff" points="125.81,-65 135.81,-61.5 125.81,-58 125.81,-65"/>
</a>
</g>
</g>
<!-- Node4 -->
<g id="Node000004" class="node">
<title>Node4</title>
<g id="a_Node000004"><a xlink:href="classCore_1_1MainExporter.html#a652f5d26bbd6d056fb532cd09280bbbe" target="_top" xlink:title="Writes initial simulation data to the output.">
<polygon fill="white" stroke="#666666" points="101.5,-29 0,-29 0,0 101.5,0 101.5,-29"/>
<text text-anchor="start" x="8" y="-15.5" font-family="Helvetica,sans-Serif" font-size="10.00">Core::MainExporter</text>
<text text-anchor="middle" x="50.75" y="-5" font-family="Helvetica,sans-Serif" font-size="10.00">::write_initial</text>
</a>
</g>
</g>
<!-- Node1&#45;&gt;Node4 -->
<g id="edge3_Node000001_Node000004" class="edge">
<title>Node1&#45;&gt;Node4</title>
<g id="a_edge3_Node000001_Node000004"><a xlink:title=" ">
<path fill="none" stroke="#63b8ff" d="M133.51,-42.94C120.63,-38.46 107.03,-33.73 94.69,-29.44"/>
<polygon fill="#63b8ff" stroke="#63b8ff" points="132.1,-46.15 142.69,-46.13 134.4,-39.54 132.1,-46.15"/>
</a>
</g>
</g>
</g>
</svg>
