<?xml version="1.0" encoding="UTF-8" standalone="no"?>
<!DOCTYPE svg PUBLIC "-//W3C//DTD SVG 1.1//EN"
 "http://www.w3.org/Graphics/SVG/1.1/DTD/svg11.dtd">
<!-- Generated by graphviz version 14.0.1 (0)
 -->
<!-- Title: Core::GlobalInitialiser::init_flow_iterator Pages: 1 -->
<svg width="264pt" height="121pt"
 viewBox="0.00 0.00 264.00 121.00" xmlns="http://www.w3.org/2000/svg" xmlns:xlink="http://www.w3.org/1999/xlink">
<g id="graph0" class="graph" transform="scale(1 1) rotate(0) translate(4 116.75)">
<title>Core::GlobalInitialiser::init_flow_iterator</title>
<!-- Node1 -->
<g id="Node000001" class="node">
<title>Node1</title>
<g id="a_Node000001"><a xlink:title="Initializes a flow iterator.">
<polygon fill="#999999" stroke="#666666" points="109.75,-76 0,-76 0,-47 109.75,-47 109.75,-76"/>
<text xml:space="preserve" text-anchor="start" x="8" y="-62.5" font-family="Helvetica,sans-Serif" font-size="10.00">Core::GlobalInitialiser</text>
<text xml:space="preserve" text-anchor="middle" x="54.88" y="-52" font-family="Helvetica,sans-Serif" font-size="10.00">::init_flow_iterator</text>
</a>
</g>
</g>
<!-- Node2 -->
<g id="Node000002" class="node">
<title>Node2</title>
<g id="a_Node000002"><a xlink:href="namespaceIO.html#a30cc77fc5c4d45d3b56ef6a299ce2383" target="_top" xlink:title=" ">
<polygon fill="white" stroke="#666666" points="230.75,-112.75 170.5,-112.75 170.5,-94.25 230.75,-94.25 230.75,-112.75"/>
<text xml:space="preserve" text-anchor="middle" x="200.62" y="-99.25" font-family="Helvetica,sans-Serif" font-size="10.00">IO::format</text>
</a>
</g>
</g>
<!-- Node1&#45;&gt;Node2 -->
<g id="edge1_Node000001_Node000002" class="edge">
<title>Node1&#45;&gt;Node2</title>
<g id="a_edge1_Node000001_Node000002"><a xlink:title=" ">
<path fill="none" stroke="#63b8ff" d="M106.96,-76.43C124.14,-81.45 143.05,-86.97 159.29,-91.71"/>
<polygon fill="#63b8ff" stroke="#63b8ff" points="158.01,-94.99 168.59,-94.43 159.97,-88.27 158.01,-94.99"/>
</a>
</g>
</g>
<!-- Node3 -->
<g id="Node000003" class="node">
<title>Node3</title>
<g id="a_Node000003"><a xlink:href="classCore_1_1GlobalInitialiser.html#a751126aaf6e8da709d3b9c98f0a796fb" target="_top" xlink:title="Retrieves path files based on the provided case path.">
<polygon fill="white" stroke="#666666" points="255.5,-76 145.75,-76 145.75,-47 255.5,-47 255.5,-76"/>
<text xml:space="preserve" text-anchor="start" x="153.75" y="-62.5" font-family="Helvetica,sans-Serif" font-size="10.00">Core::GlobalInitialiser</text>
<text xml:space="preserve" text-anchor="middle" x="200.62" y="-52" font-family="Helvetica,sans-Serif" font-size="10.00">::get_path_files</text>
</a>
</g>
</g>
<!-- Node1&#45;&gt;Node3 -->
<g id="edge2_Node000001_Node000003" class="edge">
<title>Node1&#45;&gt;Node3</title>
<g id="a_edge2_Node000001_Node000003"><a xlink:title=" ">
<path fill="none" stroke="#63b8ff" d="M110.22,-61.5C118.11,-61.5 126.3,-61.5 134.38,-61.5"/>
<polygon fill="#63b8ff" stroke="#63b8ff" points="134.17,-65 144.17,-61.5 134.17,-58 134.17,-65"/>
</a>
</g>
</g>
<!-- Node4 -->
<g id="Node000004" class="node">
<title>Node4</title>
<g id="a_Node000004"><a xlink:href="classCore_1_1GlobalInitialiser.html#a3844076c910ed26f60f42bada71cc09e" target="_top" xlink:title="Validates the specified initialization step and any additional steps.">
<polygon fill="white" stroke="#666666" points="255.5,-29 145.75,-29 145.75,0 255.5,0 255.5,-29"/>
<text xml:space="preserve" text-anchor="start" x="153.75" y="-15.5" font-family="Helvetica,sans-Serif" font-size="10.00">Core::GlobalInitialiser</text>
<text xml:space="preserve" text-anchor="middle" x="200.62" y="-5" font-family="Helvetica,sans-Serif" font-size="10.00">::validate_step</text>
</a>
</g>
</g>
<!-- Node1&#45;&gt;Node4 -->
<g id="edge3_Node000001_Node000004" class="edge">
<title>Node1&#45;&gt;Node4</title>
<g id="a_edge3_Node000001_Node000004"><a xlink:title=" ">
<path fill="none" stroke="#63b8ff" d="M101.36,-46.63C114.6,-42.3 129.23,-37.52 143.06,-32.99"/>
<polygon fill="#63b8ff" stroke="#63b8ff" points="144.09,-36.34 152.51,-29.91 141.91,-29.69 144.09,-36.34"/>
</a>
</g>
</g>
</g>
</svg>
