<?xml version="1.0" encoding="UTF-8" standalone="no"?>
<!DOCTYPE svg PUBLIC "-//W3C//DTD SVG 1.1//EN"
 "http://www.w3.org/Graphics/SVG/1.1/DTD/svg11.dtd">
<!-- Generated by graphviz version 14.0.1 (0)
 -->
<!-- Title: Simulation::SimulationUnit Pages: 1 -->
<svg width="596pt" height="159pt"
 viewBox="0.00 0.00 596.00 159.00" xmlns="http://www.w3.org/2000/svg" xmlns:xlink="http://www.w3.org/1999/xlink">
<g id="graph0" class="graph" transform="scale(1 1) rotate(0) translate(4 154.75)">
<title>Simulation::SimulationUnit</title>
<!-- Node1 -->
<g id="Node000001" class="node">
<title>Node1</title>
<g id="a_Node000001"><a xlink:title=" ">
<polygon fill="#999999" stroke="#666666" points="588,-90.75 456.5,-90.75 456.5,-72.25 588,-72.25 588,-90.75"/>
<text xml:space="preserve" text-anchor="middle" x="522.25" y="-77.25" font-family="Helvetica,sans-Serif" font-size="10.00">Simulation::SimulationUnit</text>
</a>
</g>
</g>
<!-- Node2 -->
<g id="Node000002" class="node">
<title>Node2</title>
<g id="a_Node000002"><a xlink:href="classSimulation_1_1Feed_1_1SimulationFeed.html" target="_top" xlink:title=" ">
<polygon fill="white" stroke="#666666" points="370.25,-150.75 207.25,-150.75 207.25,-132.25 370.25,-132.25 370.25,-150.75"/>
<text xml:space="preserve" text-anchor="middle" x="288.75" y="-137.25" font-family="Helvetica,sans-Serif" font-size="10.00">Simulation::Feed::SimulationFeed</text>
</a>
</g>
</g>
<!-- Node2&#45;&gt;Node1 -->
<g id="edge1_Node000001_Node000002" class="edge">
<title>Node2&#45;&gt;Node1</title>
<g id="a_edge1_Node000001_Node000002"><a xlink:title=" ">
<path fill="none" stroke="#9a32cd" stroke-dasharray="5,2" d="M370.73,-129.83C392.91,-125.81 416.81,-120.73 438.5,-114.5 460.06,-108.31 483.74,-98.55 500.23,-91.24"/>
<polygon fill="#9a32cd" stroke="#9a32cd" points="370.4,-126.33 361.15,-131.51 371.61,-133.23 370.4,-126.33"/>
</a>
</g>
<text xml:space="preserve" text-anchor="start" x="404" y="-130.13" font-family="Helvetica,sans-Serif" font-size="10.00" fill="grey">feed</text>
</g>
<!-- Node3 -->
<g id="Node000003" class="node">
<title>Node3</title>
<g id="a_Node000003"><a xlink:href="structCmaUtils_1_1IterationState.html" target="_top" xlink:title="Structure to store information about the reactor state during simulation.">
<polygon fill="white" stroke="#666666" points="349.62,-112.75 227.88,-112.75 227.88,-94.25 349.62,-94.25 349.62,-112.75"/>
<text xml:space="preserve" text-anchor="middle" x="288.75" y="-99.25" font-family="Helvetica,sans-Serif" font-size="10.00">CmaUtils::IterationState</text>
</a>
</g>
</g>
<!-- Node3&#45;&gt;Node1 -->
<g id="edge2_Node000001_Node000003" class="edge">
<title>Node3&#45;&gt;Node1</title>
<g id="a_edge2_Node000001_Node000003"><a xlink:title=" ">
<path fill="none" stroke="#9a32cd" stroke-dasharray="5,2" d="M361.31,-96.7C391.55,-93.83 426.53,-90.5 456.05,-87.7"/>
<polygon fill="#9a32cd" stroke="#9a32cd" points="361.1,-93.2 351.48,-97.63 361.76,-100.17 361.1,-93.2"/>
</a>
</g>
<text xml:space="preserve" text-anchor="start" x="402.5" y="-97.82" font-family="Helvetica,sans-Serif" font-size="10.00" fill="grey">state</text>
</g>
<!-- Node4 -->
<g id="Node000004" class="node">
<title>Node4</title>
<g id="a_Node000004"><a xlink:href="classCmaUtils_1_1PreCalculatedHydroState.html" target="_top" xlink:title="Structure to store hydrodynamic properties from a compartment mesh.">
<polygon fill="white" stroke="#666666" points="149.5,-118 0,-118 0,-89 149.5,-89 149.5,-118"/>
<text xml:space="preserve" text-anchor="start" x="8" y="-104.5" font-family="Helvetica,sans-Serif" font-size="10.00">CmaUtils::PreCalculatedHydro</text>
<text xml:space="preserve" text-anchor="middle" x="74.75" y="-94" font-family="Helvetica,sans-Serif" font-size="10.00">State</text>
</a>
</g>
</g>
<!-- Node4&#45;&gt;Node3 -->
<g id="edge3_Node000003_Node000004" class="edge">
<title>Node4&#45;&gt;Node3</title>
<g id="a_edge3_Node000003_Node000004"><a xlink:title=" ">
<path fill="none" stroke="#9a32cd" stroke-dasharray="5,2" d="M161.38,-103.5C183.59,-103.5 207.05,-103.5 227.64,-103.5"/>
<polygon fill="#9a32cd" stroke="#9a32cd" points="161.41,-100 151.41,-103.5 161.41,-107 161.41,-100"/>
</a>
</g>
<text xml:space="preserve" text-anchor="start" x="170.5" y="-122" font-family="Helvetica,sans-Serif" font-size="10.00" fill="grey">gas</text>
<text xml:space="preserve" text-anchor="start" x="170.5" y="-107.5" font-family="Helvetica,sans-Serif" font-size="10.00" fill="grey">liq</text>
</g>
<!-- Node5 -->
<g id="Node000005" class="node">
<title>Node5</title>
<g id="a_Node000005"><a xlink:href="classSimulation_1_1MassTransfer_1_1MassTransferModel.html" target="_top" xlink:title=" ">
<polygon fill="white" stroke="#666666" points="352.25,-76 225.25,-76 225.25,-47 352.25,-47 352.25,-76"/>
<text xml:space="preserve" text-anchor="start" x="233.25" y="-62.5" font-family="Helvetica,sans-Serif" font-size="10.00">Simulation::MassTransfer</text>
<text xml:space="preserve" text-anchor="middle" x="288.75" y="-52" font-family="Helvetica,sans-Serif" font-size="10.00">::MassTransferModel</text>
</a>
</g>
</g>
<!-- Node5&#45;&gt;Node1 -->
<g id="edge4_Node000001_Node000005" class="edge">
<title>Node5&#45;&gt;Node1</title>
<g id="a_edge4_Node000001_Node000005"><a xlink:title=" ">
<path fill="none" stroke="#9a32cd" stroke-dasharray="5,2" d="M364.01,-59.19C387.87,-59.27 414.36,-60.21 438.5,-63 454.15,-64.81 471.17,-68.34 485.69,-71.83"/>
<polygon fill="#9a32cd" stroke="#9a32cd" points="364.04,-55.69 354.05,-59.22 364.06,-62.69 364.04,-55.69"/>
</a>
</g>
<text xml:space="preserve" text-anchor="start" x="392" y="-67" font-family="Helvetica,sans-Serif" font-size="10.00" fill="grey">mt_model</text>
</g>
<!-- Node6 -->
<g id="Node000006" class="node">
<title>Node6</title>
<g id="a_Node000006"><a xlink:href="structSimulation_1_1KernelInline_1_1MoveInfo.html" target="_top" xlink:title=" ">
<polygon fill="white" stroke="#666666" points="362.38,-29 215.12,-29 215.12,0 362.38,0 362.38,-29"/>
<text xml:space="preserve" text-anchor="start" x="223.12" y="-15.5" font-family="Helvetica,sans-Serif" font-size="10.00">Simulation::KernelInline</text>
<text xml:space="preserve" text-anchor="middle" x="288.75" y="-5" font-family="Helvetica,sans-Serif" font-size="10.00">::MoveInfo&lt; ComputeSpace &gt;</text>
</a>
</g>
</g>
<!-- Node6&#45;&gt;Node1 -->
<g id="edge5_Node000001_Node000006" class="edge">
<title>Node6&#45;&gt;Node1</title>
<g id="a_edge5_Node000001_Node000006"><a xlink:title=" ">
<path fill="none" stroke="#9a32cd" stroke-dasharray="5,2" d="M374.07,-23.72C395.41,-27.31 418.06,-32.25 438.5,-39 463.34,-47.2 489.88,-62.04 506.02,-71.84"/>
<polygon fill="#9a32cd" stroke="#9a32cd" points="374.64,-20.26 364.21,-22.14 373.53,-27.17 374.64,-20.26"/>
</a>
</g>
<text xml:space="preserve" text-anchor="start" x="391.25" y="-43" font-family="Helvetica,sans-Serif" font-size="10.00" fill="grey">move_info</text>
</g>
</g>
</svg>
