<?xml version="1.0" encoding="UTF-8" standalone="no"?>
<!DOCTYPE svg PUBLIC "-//W3C//DTD SVG 1.1//EN"
 "http://www.w3.org/Graphics/SVG/1.1/DTD/svg11.dtd">
<!-- Generated by graphviz version 14.0.1 (0)
 -->
<!-- Title: IO::Console::Console Pages: 1 -->
<svg width="402pt" height="129pt"
 viewBox="0.00 0.00 402.00 129.00" xmlns="http://www.w3.org/2000/svg" xmlns:xlink="http://www.w3.org/1999/xlink">
<g id="graph0" class="graph" transform="scale(1 1) rotate(0) translate(4 124.75)">
<title>IO::Console::Console</title>
<!-- Node1 -->
<g id="Node000001" class="node">
<title>Node1</title>
<g id="a_Node000001"><a xlink:title=" ">
<polygon fill="#999999" stroke="#666666" points="110.5,-65.75 0,-65.75 0,-47.25 110.5,-47.25 110.5,-65.75"/>
<text xml:space="preserve" text-anchor="middle" x="55.25" y="-52.25" font-family="Helvetica,sans-Serif" font-size="10.00">IO::Console::Console</text>
</a>
</g>
</g>
<!-- Node2 -->
<g id="Node000002" class="node">
<title>Node2</title>
<g id="a_Node000002"><a xlink:href="classIO_1_1Console.html#ad8e8490ed0b1b321bb75e9702c32fb8a" target="_top" xlink:title="CONSOLE.">
<polygon fill="white" stroke="#666666" points="257,-65.75 146.5,-65.75 146.5,-47.25 257,-47.25 257,-65.75"/>
<text xml:space="preserve" text-anchor="middle" x="201.75" y="-52.25" font-family="Helvetica,sans-Serif" font-size="10.00">IO::Console::Console</text>
</a>
</g>
</g>
<!-- Node1&#45;&gt;Node2 -->
<g id="edge1_Node000001_Node000002" class="edge">
<title>Node1&#45;&gt;Node2</title>
<g id="a_edge1_Node000001_Node000002"><a xlink:title=" ">
<path fill="none" stroke="#63b8ff" d="M110.88,-56.5C118.61,-56.5 126.63,-56.5 134.55,-56.5"/>
<polygon fill="#63b8ff" stroke="#63b8ff" points="134.53,-60 144.53,-56.5 134.53,-53 134.53,-60"/>
</a>
</g>
</g>
<!-- Node3 -->
<g id="Node000003" class="node">
<title>Node3</title>
<g id="a_Node000003"><a xlink:href="classIO_1_1Console.html#a6916d2842e77159b378551f044ebfd56" target="_top" xlink:title="Log an alert message with a prefix.">
<polygon fill="white" stroke="#666666" points="390.38,-120.75 296.38,-120.75 296.38,-102.25 390.38,-102.25 390.38,-120.75"/>
<text xml:space="preserve" text-anchor="middle" x="343.38" y="-107.25" font-family="Helvetica,sans-Serif" font-size="10.00">IO::Console::alert</text>
</a>
</g>
</g>
<!-- Node2&#45;&gt;Node3 -->
<g id="edge2_Node000002_Node000003" class="edge">
<title>Node2&#45;&gt;Node3</title>
<g id="a_edge2_Node000002_Node000003"><a xlink:title=" ">
<path fill="none" stroke="#63b8ff" d="M226.85,-66.21C245.01,-73.5 270.54,-83.7 293,-92.5 297.38,-94.22 301.98,-96 306.54,-97.77"/>
<polygon fill="#63b8ff" stroke="#63b8ff" points="304.98,-100.92 315.57,-101.25 307.5,-94.39 304.98,-100.92"/>
</a>
</g>
</g>
<!-- Node4 -->
<g id="Node000004" class="node">
<title>Node4</title>
<g id="a_Node000004"><a xlink:href="namespaceIO.html#a30cc77fc5c4d45d3b56ef6a299ce2383" target="_top" xlink:title=" ">
<polygon fill="white" stroke="#666666" points="373.5,-65.75 313.25,-65.75 313.25,-47.25 373.5,-47.25 373.5,-65.75"/>
<text xml:space="preserve" text-anchor="middle" x="343.38" y="-52.25" font-family="Helvetica,sans-Serif" font-size="10.00">IO::format</text>
</a>
</g>
</g>
<!-- Node2&#45;&gt;Node4 -->
<g id="edge3_Node000002_Node000004" class="edge">
<title>Node2&#45;&gt;Node4</title>
<g id="a_edge3_Node000002_Node000004"><a xlink:title=" ">
<path fill="none" stroke="#63b8ff" d="M257.13,-56.5C271.97,-56.5 287.78,-56.5 301.71,-56.5"/>
<polygon fill="#63b8ff" stroke="#63b8ff" points="301.39,-60 311.39,-56.5 301.39,-53 301.39,-60"/>
</a>
</g>
</g>
<!-- Node5 -->
<g id="Node000005" class="node">
<title>Node5</title>
<g id="a_Node000005"><a xlink:href="classIO_1_1Console.html#a6432a263ec2b4a3751b1776d73e2eb6b" target="_top" xlink:title="Toggle the alert logging behavior on or off.">
<polygon fill="white" stroke="#666666" points="393.75,-29 293,-29 293,0 393.75,0 393.75,-29"/>
<text xml:space="preserve" text-anchor="start" x="301" y="-15.5" font-family="Helvetica,sans-Serif" font-size="10.00">IO::Console::toggle</text>
<text xml:space="preserve" text-anchor="middle" x="343.38" y="-5" font-family="Helvetica,sans-Serif" font-size="10.00">_alert</text>
</a>
</g>
</g>
<!-- Node2&#45;&gt;Node5 -->
<g id="edge5_Node000002_Node000005" class="edge">
<title>Node2&#45;&gt;Node5</title>
<g id="a_edge5_Node000002_Node000005"><a xlink:title=" ">
<path fill="none" stroke="#63b8ff" d="M235.13,-46.76C249.01,-42.58 265.69,-37.57 281.71,-32.75"/>
<polygon fill="#63b8ff" stroke="#63b8ff" points="282.64,-36.12 291.21,-29.89 280.62,-29.42 282.64,-36.12"/>
</a>
</g>
</g>
<!-- Node4&#45;&gt;Node4 -->
<g id="edge4_Node000004_Node000004" class="edge">
<title>Node4&#45;&gt;Node4</title>
<g id="a_edge4_Node000004_Node000004"><a xlink:title=" ">
<path fill="none" stroke="#63b8ff" d="M321.55,-66C310.93,-74.57 318.2,-83.75 343.38,-83.75 357.53,-83.75 366.03,-80.84 368.87,-76.78"/>
<polygon fill="#63b8ff" stroke="#63b8ff" points="372.22,-75.77 365.69,-67.43 365.59,-78.02 372.22,-75.77"/>
</a>
</g>
</g>
</g>
</svg>
