<?xml version="1.0" encoding="UTF-8" standalone="no"?>
<!DOCTYPE svg PUBLIC "-//W3C//DTD SVG 1.1//EN"
 "http://www.w3.org/Graphics/SVG/1.1/DTD/svg11.dtd">
<!-- Generated by graphviz version 12.1.2 (0)
 -->
<!-- Title: Core::GlobalInitialiser::get_path_files Pages: 1 -->
<svg width="409pt" height="55pt"
 viewBox="0.00 0.00 409.25 55.00" xmlns="http://www.w3.org/2000/svg" xmlns:xlink="http://www.w3.org/1999/xlink">
<g id="graph0" class="graph" transform="scale(1 1) rotate(0) translate(4 51)">
<title>Core::GlobalInitialiser::get_path_files</title>
<!-- Node1 -->
<g id="Node000001" class="node">
<title>Node1</title>
<g id="a_Node000001"><a xlink:title="Retrieves path files based on the provided case path.">
<polygon fill="#999999" stroke="#666666" points="401.25,-29 291.5,-29 291.5,0 401.25,0 401.25,-29"/>
<text text-anchor="start" x="299.5" y="-15.5" font-family="Helvetica,sans-Serif" font-size="10.00">Core::GlobalInitialiser</text>
<text text-anchor="middle" x="346.38" y="-5" font-family="Helvetica,sans-Serif" font-size="10.00">::get_path_files</text>
</a>
</g>
</g>
<!-- Node2 -->
<g id="Node000002" class="node">
<title>Node2</title>
<g id="a_Node000002"><a xlink:href="classCore_1_1GlobalInitialiser.html#a980172ba3bb45d1eaac97d447b87bd4e" target="_top" xlink:title="Initializes a flow iterator.">
<polygon fill="white" stroke="#666666" points="255.5,-29 145.75,-29 145.75,0 255.5,0 255.5,-29"/>
<text text-anchor="start" x="153.75" y="-15.5" font-family="Helvetica,sans-Serif" font-size="10.00">Core::GlobalInitialiser</text>
<text text-anchor="middle" x="200.62" y="-5" font-family="Helvetica,sans-Serif" font-size="10.00">::init_flow_iterator</text>
</a>
</g>
</g>
<!-- Node1&#45;&gt;Node2 -->
<g id="edge1_Node000001_Node000002" class="edge">
<title>Node1&#45;&gt;Node2</title>
<g id="a_edge1_Node000001_Node000002"><a xlink:title=" ">
<path fill="none" stroke="#63b8ff" d="M279.72,-14.5C271.64,-14.5 263.45,-14.5 255.57,-14.5"/>
<polygon fill="#63b8ff" stroke="#63b8ff" points="279.52,-18 289.52,-14.5 279.52,-11 279.52,-18"/>
</a>
</g>
</g>
<!-- Node3 -->
<g id="Node000003" class="node">
<title>Node3</title>
<g id="a_Node000003"><a xlink:href="classCore_1_1GlobalInitialiser.html#a970cd4b504a4cbc3e066922d6944bc1f" target="_top" xlink:title="Initializes a transitioner without parameters.">
<polygon fill="white" stroke="#666666" points="109.75,-29 0,-29 0,0 109.75,0 109.75,-29"/>
<text text-anchor="start" x="8" y="-15.5" font-family="Helvetica,sans-Serif" font-size="10.00">Core::GlobalInitialiser</text>
<text text-anchor="middle" x="54.88" y="-5" font-family="Helvetica,sans-Serif" font-size="10.00">::init_transitionner</text>
</a>
</g>
</g>
<!-- Node2&#45;&gt;Node3 -->
<g id="edge2_Node000002_Node000003" class="edge">
<title>Node2&#45;&gt;Node3</title>
<g id="a_edge2_Node000002_Node000003"><a xlink:title=" ">
<path fill="none" stroke="#63b8ff" d="M133.97,-14.5C125.89,-14.5 117.7,-14.5 109.82,-14.5"/>
<polygon fill="#63b8ff" stroke="#63b8ff" points="133.77,-18 143.77,-14.5 133.77,-11 133.77,-18"/>
</a>
</g>
</g>
<!-- Node3&#45;&gt;Node3 -->
<g id="edge3_Node000003_Node000003" class="edge">
<title>Node3&#45;&gt;Node3</title>
<g id="a_edge3_Node000003_Node000003"><a xlink:title=" ">
<path fill="none" stroke="#63b8ff" d="M79.61,-40.56C75.73,-44.41 67.48,-47 54.88,-47 31.82,-47 23.35,-38.32 29.48,-29.21"/>
<polygon fill="#63b8ff" stroke="#63b8ff" points="83.1,-40.9 80.19,-30.72 76.11,-40.5 83.1,-40.9"/>
</a>
</g>
</g>
</g>
</svg>
