<?xml version="1.0" encoding="UTF-8" standalone="no"?>
<!DOCTYPE svg PUBLIC "-//W3C//DTD SVG 1.1//EN"
 "http://www.w3.org/Graphics/SVG/1.1/DTD/svg11.dtd">
<!-- Generated by graphviz version 14.0.1 (0)
 -->
<!-- Title: CmaUtils::DiscontinuousFMT::update_flow Pages: 1 -->
<svg width="543pt" height="225pt"
 viewBox="0.00 0.00 543.00 225.00" xmlns="http://www.w3.org/2000/svg" xmlns:xlink="http://www.w3.org/1999/xlink">
<g id="graph0" class="graph" transform="scale(1 1) rotate(0) translate(4 221)">
<title>CmaUtils::DiscontinuousFMT::update_flow</title>
<!-- Node1 -->
<g id="Node000001" class="node">
<title>Node1</title>
<g id="a_Node000001"><a xlink:title="Calculate the current state based on the selected method, may be caching or direct calculation.">
<polygon fill="#999999" stroke="#666666" points="145.75,-123 0,-123 0,-94 145.75,-94 145.75,-123"/>
<text xml:space="preserve" text-anchor="start" x="8" y="-109.5" font-family="Helvetica,sans-Serif" font-size="10.00">CmaUtils::DiscontinuousFMT</text>
<text xml:space="preserve" text-anchor="middle" x="72.88" y="-99" font-family="Helvetica,sans-Serif" font-size="10.00">::update_flow</text>
</a>
</g>
</g>
<!-- Node2 -->
<g id="Node000002" class="node">
<title>Node2</title>
<g id="a_Node000002"><a xlink:href="classCmaUtils_1_1FlowMapTransitionner.html#ae24d277adf0085d83cd09644149f31b6" target="_top" xlink:title="Calculate the whole state (liquid+gas+neighbor) for the current time step.">
<polygon fill="white" stroke="#666666" points="340.25,-217 181.75,-217 181.75,-188 340.25,-188 340.25,-217"/>
<text xml:space="preserve" text-anchor="start" x="189.75" y="-203.5" font-family="Helvetica,sans-Serif" font-size="10.00">CmaUtils::FlowMapTransitionner</text>
<text xml:space="preserve" text-anchor="middle" x="261" y="-193" font-family="Helvetica,sans-Serif" font-size="10.00">::calculate_full_state</text>
</a>
</g>
</g>
<!-- Node1&#45;&gt;Node2 -->
<g id="edge1_Node000001_Node000002" class="edge">
<title>Node1&#45;&gt;Node2</title>
<g id="a_edge1_Node000001_Node000002"><a xlink:title=" ">
<path fill="none" stroke="#63b8ff" d="M92.73,-123.43C113.5,-139.25 148.39,-164.04 181.75,-179.5 184.86,-180.94 188.08,-182.32 191.37,-183.62"/>
<polygon fill="#63b8ff" stroke="#63b8ff" points="190,-186.85 200.6,-187.05 192.44,-180.29 190,-186.85"/>
</a>
</g>
</g>
<!-- Node4 -->
<g id="Node000004" class="node">
<title>Node4</title>
<g id="a_Node000004"><a xlink:href="classCmaUtils_1_1DiscontinuousFMT.html#a6c8dd6ddccce5fc099aa3a24ff3120b4" target="_top" xlink:title="Get current gas state read from CmaRead.">
<polygon fill="white" stroke="#666666" points="333.88,-170 188.12,-170 188.12,-141 333.88,-141 333.88,-170"/>
<text xml:space="preserve" text-anchor="start" x="196.12" y="-156.5" font-family="Helvetica,sans-Serif" font-size="10.00">CmaUtils::DiscontinuousFMT</text>
<text xml:space="preserve" text-anchor="middle" x="261" y="-146" font-family="Helvetica,sans-Serif" font-size="10.00">::current_gas_hydro_state</text>
</a>
</g>
</g>
<!-- Node1&#45;&gt;Node4 -->
<g id="edge3_Node000001_Node000004" class="edge">
<title>Node1&#45;&gt;Node4</title>
<g id="a_edge3_Node000001_Node000004"><a xlink:title=" ">
<path fill="none" stroke="#63b8ff" d="M133.02,-123.44C151,-127.98 170.94,-133.01 189.58,-137.72"/>
<polygon fill="#63b8ff" stroke="#63b8ff" points="188.67,-141.1 199.22,-140.15 190.38,-134.31 188.67,-141.1"/>
</a>
</g>
</g>
<!-- Node6 -->
<g id="Node000006" class="node">
<title>Node6</title>
<g id="a_Node000006"><a xlink:href="classCmaUtils_1_1DiscontinuousFMT.html#a6e942b1caf7ddc68b29c8d24b185b594" target="_top" xlink:title="Get current liquid state read from CmaRead.">
<polygon fill="white" stroke="#666666" points="333.88,-123 188.12,-123 188.12,-94 333.88,-94 333.88,-123"/>
<text xml:space="preserve" text-anchor="start" x="196.12" y="-109.5" font-family="Helvetica,sans-Serif" font-size="10.00">CmaUtils::DiscontinuousFMT</text>
<text xml:space="preserve" text-anchor="middle" x="261" y="-99" font-family="Helvetica,sans-Serif" font-size="10.00">::current_liq_hydro_state</text>
</a>
</g>
</g>
<!-- Node1&#45;&gt;Node6 -->
<g id="edge5_Node000001_Node000006" class="edge">
<title>Node1&#45;&gt;Node6</title>
<g id="a_edge5_Node000001_Node000006"><a xlink:title=" ">
<path fill="none" stroke="#63b8ff" d="M146.1,-108.5C156.05,-108.5 166.33,-108.5 176.47,-108.5"/>
<polygon fill="#63b8ff" stroke="#63b8ff" points="176.3,-112 186.3,-108.5 176.3,-105 176.3,-112"/>
</a>
</g>
</g>
<!-- Node7 -->
<g id="Node000007" class="node">
<title>Node7</title>
<g id="a_Node000007"><a xlink:href="classCmaUtils_1_1DiscontinuousFMT.html#afb3fcc676bcb57682b6fc6e4658e7ae0" target="_top" xlink:title="Provides a const reference to the current reactor state.">
<polygon fill="white" stroke="#666666" points="333.88,-76 188.12,-76 188.12,-47 333.88,-47 333.88,-76"/>
<text xml:space="preserve" text-anchor="start" x="196.12" y="-62.5" font-family="Helvetica,sans-Serif" font-size="10.00">CmaUtils::DiscontinuousFMT</text>
<text xml:space="preserve" text-anchor="middle" x="261" y="-52" font-family="Helvetica,sans-Serif" font-size="10.00">::get_current_reactor_state</text>
</a>
</g>
</g>
<!-- Node1&#45;&gt;Node7 -->
<g id="edge7_Node000001_Node000007" class="edge">
<title>Node1&#45;&gt;Node7</title>
<g id="a_edge7_Node000001_Node000007"><a xlink:title=" ">
<path fill="none" stroke="#63b8ff" d="M133.02,-93.56C151,-89.02 170.94,-83.99 189.58,-79.28"/>
<polygon fill="#63b8ff" stroke="#63b8ff" points="190.38,-82.69 199.22,-76.85 188.67,-75.9 190.38,-82.69"/>
</a>
</g>
</g>
<!-- Node9 -->
<g id="Node000009" class="node">
<title>Node9</title>
<g id="a_Node000009"><a xlink:href="classCmaUtils_1_1FlowMapTransitionner.html#a2b977307d10c78474830d7776030665c" target="_top" xlink:title="Check if liquid state has to calculated or can be use via caching.">
<polygon fill="white" stroke="#666666" points="340.25,-29 181.75,-29 181.75,0 340.25,0 340.25,-29"/>
<text xml:space="preserve" text-anchor="start" x="189.75" y="-15.5" font-family="Helvetica,sans-Serif" font-size="10.00">CmaUtils::FlowMapTransitionner</text>
<text xml:space="preserve" text-anchor="middle" x="261" y="-5" font-family="Helvetica,sans-Serif" font-size="10.00">::need_liquid_state_calculation</text>
</a>
</g>
</g>
<!-- Node1&#45;&gt;Node9 -->
<g id="edge10_Node000001_Node000009" class="edge">
<title>Node1&#45;&gt;Node9</title>
<g id="a_edge10_Node000001_Node000009"><a xlink:title=" ">
<path fill="none" stroke="#63b8ff" d="M92.73,-93.57C113.5,-77.75 148.39,-52.96 181.75,-37.5 184.86,-36.06 188.08,-34.68 191.37,-33.38"/>
<polygon fill="#63b8ff" stroke="#63b8ff" points="192.44,-36.71 200.6,-29.95 190,-30.15 192.44,-36.71"/>
</a>
</g>
</g>
<!-- Node3 -->
<g id="Node000003" class="node">
<title>Node3</title>
<g id="a_Node000003"><a xlink:href="classCmaUtils_1_1FlowMapTransitionner.html#abb98a83b7db34307ef4e59ed7e33a71a" target="_top" xlink:title="Checks whether a gas flowmap is provided.">
<polygon fill="white" stroke="#666666" points="534.75,-217 376.25,-217 376.25,-188 534.75,-188 534.75,-217"/>
<text xml:space="preserve" text-anchor="start" x="384.25" y="-203.5" font-family="Helvetica,sans-Serif" font-size="10.00">CmaUtils::FlowMapTransitionner</text>
<text xml:space="preserve" text-anchor="middle" x="455.5" y="-193" font-family="Helvetica,sans-Serif" font-size="10.00">::is_two_phase_flow</text>
</a>
</g>
</g>
<!-- Node2&#45;&gt;Node3 -->
<g id="edge2_Node000002_Node000003" class="edge">
<title>Node2&#45;&gt;Node3</title>
<g id="a_edge2_Node000002_Node000003"><a xlink:title=" ">
<path fill="none" stroke="#63b8ff" d="M340.57,-202.5C348.49,-202.5 356.57,-202.5 364.59,-202.5"/>
<polygon fill="#63b8ff" stroke="#63b8ff" points="364.35,-206 374.35,-202.5 364.35,-199 364.35,-206"/>
</a>
</g>
</g>
<!-- Node5 -->
<g id="Node000005" class="node">
<title>Node5</title>
<g id="a_Node000005"><a xlink:href="classCmaUtils_1_1FlowMapTransitionner.html#a95f2c1ce2a5c0dcccb0e0be0341fa466" target="_top" xlink:title="Return the index of the current ProxyPreCalculatedHydroState.">
<polygon fill="white" stroke="#666666" points="534.75,-123 376.25,-123 376.25,-94 534.75,-94 534.75,-123"/>
<text xml:space="preserve" text-anchor="start" x="384.25" y="-109.5" font-family="Helvetica,sans-Serif" font-size="10.00">CmaUtils::FlowMapTransitionner</text>
<text xml:space="preserve" text-anchor="middle" x="455.5" y="-99" font-family="Helvetica,sans-Serif" font-size="10.00">::getFlowIndex</text>
</a>
</g>
</g>
<!-- Node4&#45;&gt;Node5 -->
<g id="edge4_Node000004_Node000005" class="edge">
<title>Node4&#45;&gt;Node5</title>
<g id="a_edge4_Node000004_Node000005"><a xlink:title=" ">
<path fill="none" stroke="#63b8ff" d="M323.17,-140.56C341.94,-135.98 362.77,-130.9 382.21,-126.15"/>
<polygon fill="#63b8ff" stroke="#63b8ff" points="382.8,-129.61 391.69,-123.84 381.14,-122.81 382.8,-129.61"/>
</a>
</g>
</g>
<!-- Node6&#45;&gt;Node5 -->
<g id="edge6_Node000006_Node000005" class="edge">
<title>Node6&#45;&gt;Node5</title>
<g id="a_edge6_Node000006_Node000005"><a xlink:title=" ">
<path fill="none" stroke="#63b8ff" d="M334.23,-108.5C344.15,-108.5 354.43,-108.5 364.62,-108.5"/>
<polygon fill="#63b8ff" stroke="#63b8ff" points="364.55,-112 374.55,-108.5 364.55,-105 364.55,-112"/>
</a>
</g>
</g>
<!-- Node7&#45;&gt;Node5 -->
<g id="edge9_Node000007_Node000005" class="edge">
<title>Node7&#45;&gt;Node5</title>
<g id="a_edge9_Node000007_Node000005"><a xlink:title=" ">
<path fill="none" stroke="#63b8ff" d="M323.17,-76.44C341.94,-81.02 362.77,-86.1 382.21,-90.85"/>
<polygon fill="#63b8ff" stroke="#63b8ff" points="381.14,-94.19 391.69,-93.16 382.8,-87.39 381.14,-94.19"/>
</a>
</g>
</g>
<!-- Node8 -->
<g id="Node000008" class="node">
<title>Node8</title>
<g id="a_Node000008"><a xlink:href="classCmaUtils_1_1FlowMapTransitionner.html#adef8e20a97054d14eba0521ca20829f6" target="_top" xlink:title="Direct read state from iterator.">
<polygon fill="white" stroke="#666666" points="534.75,-76 376.25,-76 376.25,-47 534.75,-47 534.75,-76"/>
<text xml:space="preserve" text-anchor="start" x="384.25" y="-62.5" font-family="Helvetica,sans-Serif" font-size="10.00">CmaUtils::FlowMapTransitionner</text>
<text xml:space="preserve" text-anchor="middle" x="455.5" y="-52" font-family="Helvetica,sans-Serif" font-size="10.00">::get_unchecked</text>
</a>
</g>
</g>
<!-- Node7&#45;&gt;Node8 -->
<g id="edge8_Node000007_Node000008" class="edge">
<title>Node7&#45;&gt;Node8</title>
<g id="a_edge8_Node000007_Node000008"><a xlink:title=" ">
<path fill="none" stroke="#63b8ff" d="M334.23,-61.5C344.15,-61.5 354.43,-61.5 364.62,-61.5"/>
<polygon fill="#63b8ff" stroke="#63b8ff" points="364.55,-65 374.55,-61.5 364.55,-58 364.55,-65"/>
</a>
</g>
</g>
</g>
</svg>
