<?xml version="1.0" encoding="UTF-8" standalone="no"?>
<!DOCTYPE svg PUBLIC "-//W3C//DTD SVG 1.1//EN"
 "http://www.w3.org/Graphics/SVG/1.1/DTD/svg11.dtd">
<!-- Generated by graphviz version 14.0.1 (0)
 -->
<!-- Title: Simulation::ScalarSimulation::n_col Pages: 1 -->
<svg width="504pt" height="59pt"
 viewBox="0.00 0.00 504.00 59.00" xmlns="http://www.w3.org/2000/svg" xmlns:xlink="http://www.w3.org/1999/xlink">
<g id="graph0" class="graph" transform="scale(1 1) rotate(0) translate(4 55)">
<title>Simulation::ScalarSimulation::n_col</title>
<!-- Node1 -->
<g id="Node000001" class="node">
<title>Node1</title>
<g id="a_Node000001"><a xlink:title=" ">
<polygon fill="#999999" stroke="#666666" points="495.75,-29 354.5,-29 354.5,0 495.75,0 495.75,-29"/>
<text xml:space="preserve" text-anchor="start" x="362.5" y="-15.5" font-family="Helvetica,sans-Serif" font-size="10.00">Simulation::ScalarSimulation</text>
<text xml:space="preserve" text-anchor="middle" x="425.12" y="-5" font-family="Helvetica,sans-Serif" font-size="10.00">::n_col</text>
</a>
</g>
</g>
<!-- Node2 -->
<g id="Node000002" class="node">
<title>Node2</title>
<g id="a_Node000002"><a xlink:href="classSimulation_1_1ScalarSimulation.html#a45bff3c267cd20371ee730cb07ba4a37" target="_top" xlink:title=" ">
<polygon fill="white" stroke="#666666" points="318.5,-51 177.25,-51 177.25,-22 318.5,-22 318.5,-51"/>
<text xml:space="preserve" text-anchor="start" x="185.25" y="-37.5" font-family="Helvetica,sans-Serif" font-size="10.00">Simulation::ScalarSimulation</text>
<text xml:space="preserve" text-anchor="middle" x="247.88" y="-27" font-family="Helvetica,sans-Serif" font-size="10.00">::setVolumes</text>
</a>
</g>
</g>
<!-- Node1&#45;&gt;Node2 -->
<g id="edge1_Node000001_Node000002" class="edge">
<title>Node1&#45;&gt;Node2</title>
<g id="a_edge1_Node000001_Node000002"><a xlink:title=" ">
<path fill="none" stroke="#63b8ff" d="M342.82,-24.71C334.79,-25.71 326.69,-26.73 318.78,-27.72"/>
<polygon fill="#63b8ff" stroke="#63b8ff" points="343.12,-28.2 352.6,-23.48 342.25,-21.25 343.12,-28.2"/>
</a>
</g>
</g>
<!-- Node3 -->
<g id="Node000003" class="node">
<title>Node3</title>
<g id="a_Node000003"><a xlink:href="classSimulation_1_1ScalarSimulation.html#a9721b2cf4617bf55c133b7b1527a8879" target="_top" xlink:title=" ">
<polygon fill="white" stroke="#666666" points="141.25,-29 0,-29 0,0 141.25,0 141.25,-29"/>
<text xml:space="preserve" text-anchor="start" x="8" y="-15.5" font-family="Helvetica,sans-Serif" font-size="10.00">Simulation::ScalarSimulation</text>
<text xml:space="preserve" text-anchor="middle" x="70.62" y="-5" font-family="Helvetica,sans-Serif" font-size="10.00">::~ScalarSimulation</text>
</a>
</g>
</g>
<!-- Node1&#45;&gt;Node3 -->
<g id="edge3_Node000001_Node000003" class="edge">
<title>Node1&#45;&gt;Node3</title>
<g id="a_edge3_Node000001_Node000003"><a xlink:title=" ">
<path fill="none" stroke="#63b8ff" d="M342.99,-13.65C334.72,-13.59 326.44,-13.54 318.5,-13.5 255.72,-13.2 240.03,-13.2 177.25,-13.5 165.7,-13.55 153.43,-13.64 141.51,-13.75"/>
<polygon fill="#63b8ff" stroke="#63b8ff" points="342.7,-17.15 352.73,-13.73 342.76,-10.15 342.7,-17.15"/>
</a>
</g>
</g>
<!-- Node2&#45;&gt;Node3 -->
<g id="edge2_Node000002_Node000003" class="edge">
<title>Node2&#45;&gt;Node3</title>
<g id="a_edge2_Node000002_Node000003"><a xlink:title=" ">
<path fill="none" stroke="#63b8ff" d="M165.57,-26.29C157.54,-25.29 149.44,-24.27 141.53,-23.28"/>
<polygon fill="#63b8ff" stroke="#63b8ff" points="165,-29.75 175.35,-27.52 165.87,-22.8 165,-29.75"/>
</a>
</g>
</g>
</g>
</svg>
