<?xml version="1.0" encoding="UTF-8" standalone="no"?>
<!DOCTYPE svg PUBLIC "-//W3C//DTD SVG 1.1//EN"
 "http://www.w3.org/Graphics/SVG/1.1/DTD/svg11.dtd">
<!-- Generated by graphviz version 14.0.1 (0)
 -->
<!-- Title: ExportHandler::operator() Pages: 1 -->
<!--zoomable 358 -->

<svg id="main" version="1.1" xmlns="http://www.w3.org/2000/svg" xmlns:xlink="http://www.w3.org/1999/xlink" xml:space="preserve" onload="init(evt)">

<style type="text/css"><![CDATA[
.node, .edge {opacity: 0.7;}
.node.selected, .edge.selected {opacity: 1;}
.edge:hover path { stroke: red; }
.edge:hover polygon { stroke: red; fill: red; }
]]></style>

<defs>
  <circle id="rim" cx="0" cy="0" r="7"/>
  <circle id="rim2" cx="0" cy="0" r="3.5"/>
  <g id="zoomPlus">
    <use xlink:href="#rim" fill="#404040"><set attributeName="fill" to="#808080" begin="zoomplus.mouseover" end="zoomplus.mouseout"/></use>
    <path d="M-4,0h8M0,-4v8" fill="none" stroke="white" stroke-width="1.5" pointer-events="none"/>
  </g>
  <g id="zoomMin">
    <use xlink:href="#rim" fill="#404040"><set attributeName="fill" to="#808080" begin="zoomminus.mouseover" end="zoomminus.mouseout"/></use>
    <path d="M-4,0h8" fill="none" stroke="white" stroke-width="1.5" pointer-events="none"/>
  </g>
  <g id="arrowUp" transform="translate(30 24)">
    <use xlink:href="#rim"/>
    <path pointer-events="none" fill="none" stroke="white" stroke-width="1.5" d="M0,-3.0v7 M-2.5,-0.5L0,-3.0L2.5,-0.5"/>
  </g>
  <g id="arrowRight" transform="rotate(90) translate(36 -43)">
    <use xlink:href="#rim"/>
    <path pointer-events="none" fill="none" stroke="white" stroke-width="1.5" d="M0,-3.0v7 M-2.5,-0.5L0,-3.0L2.5,-0.5"/>
  </g>
  <g id="arrowDown" transform="rotate(180) translate(-30 -48)">
    <use xlink:href="#rim"/>
    <path pointer-events="none" fill="none" stroke="white" stroke-width="1.5" d="M0,-3.0v7 M-2.5,-0.5L0,-3.0L2.5,-0.5"/>
  </g>
  <g id="arrowLeft" transform="rotate(270) translate(-36 17)">
    <use xlink:href="#rim"/>
    <path pointer-events="none" fill="none" stroke="white" stroke-width="1.5" d="M0,-3.0v7 M-2.5,-0.5L0,-3.0L2.5,-0.5"/>
  </g>
  <g id="resetDef">
    <use xlink:href="#rim2" fill="#404040"><set attributeName="fill" to="#808080" begin="reset.mouseover" end="reset.mouseout"/></use>
  </g>
</defs>
<script type="application/ecmascript">
var viewWidth = 732;
var viewHeight = 358;
var sectionId = 'dynsection-1';
</script>
<script type="application/ecmascript" xlink:href="svg.min.js"/>
<svg id="graph" class="graph">
<g id="viewport">
<title>ExportHandler::operator()</title>
<!-- Node1 -->
<g id="Node000001" class="node">
<title>Node1</title>
<g id="a_Node000001"><a xlink:title="Handles periodic export of simulation data.">
<polygon fill="#999999" stroke="#666666" points="126.25,-185.75 0,-185.75 0,-167.25 126.25,-167.25 126.25,-185.75"/>
<text xml:space="preserve" text-anchor="middle" x="63.12" y="-172.25" font-family="Helvetica,sans-Serif" font-size="10.00">ExportHandler::operator()</text>
</a>
</g>
</g>
<!-- Node2 -->
<g id="Node000002" class="node">
<title>Node2</title>
<g id="a_Node000002"><a xlink:href="classSimulation_1_1Getter.html#a5018162385dda22e127a8298c2168a4b" target="_top" xlink:title=" ">
<polygon fill="white" stroke="#666666" points="268.62,-350 173.88,-350 173.88,-321 268.62,-321 268.62,-350"/>
<text xml:space="preserve" text-anchor="start" x="181.88" y="-336.5" font-family="Helvetica,sans-Serif" font-size="10.00">Simulation::Getter</text>
<text xml:space="preserve" text-anchor="middle" x="221.25" y="-326" font-family="Helvetica,sans-Serif" font-size="10.00">::getCgasData</text>
</a>
</g>
</g>
<!-- Node1&#45;&gt;Node2 -->
<g id="edge1_Node000001_Node000002" class="edge">
<title>Node1&#45;&gt;Node2</title>
<g id="a_edge1_Node000001_Node000002"><a xlink:title=" ">
<path fill="none" stroke="#63b8ff" d="M68.65,-186.18C80.56,-210.68 115.16,-275.83 162.25,-312.5 163.23,-313.27 164.24,-314.01 165.28,-314.73"/>
<polygon fill="#63b8ff" stroke="#63b8ff" points="163.46,-317.72 173.83,-319.86 167.06,-311.72 163.46,-317.72"/>
</a>
</g>
</g>
<!-- Node3 -->
<g id="Node000003" class="node">
<title>Node3</title>
<g id="a_Node000003"><a xlink:href="classSimulation_1_1Getter.html#affeda285daf139206d57e11daad9cd73" target="_top" xlink:title=" ">
<polygon fill="white" stroke="#666666" points="268.62,-303 173.88,-303 173.88,-274 268.62,-274 268.62,-303"/>
<text xml:space="preserve" text-anchor="start" x="181.88" y="-289.5" font-family="Helvetica,sans-Serif" font-size="10.00">Simulation::Getter</text>
<text xml:space="preserve" text-anchor="middle" x="221.25" y="-279" font-family="Helvetica,sans-Serif" font-size="10.00">::getCliqData</text>
</a>
</g>
</g>
<!-- Node1&#45;&gt;Node3 -->
<g id="edge2_Node000001_Node000003" class="edge">
<title>Node1&#45;&gt;Node3</title>
<g id="a_edge2_Node000001_Node000003"><a xlink:title=" ">
<path fill="none" stroke="#63b8ff" d="M72.43,-186.03C88.31,-203.76 124.77,-242.15 162.25,-265.5 163.89,-266.52 165.59,-267.52 167.32,-268.48"/>
<polygon fill="#63b8ff" stroke="#63b8ff" points="165.71,-271.58 176.21,-272.95 168.86,-265.33 165.71,-271.58"/>
</a>
</g>
</g>
<!-- Node4 -->
<g id="Node000004" class="node">
<title>Node4</title>
<g id="a_Node000004"><a xlink:href="classSimulation_1_1Getter.html#ae6be177c881989ecc4fb7a5ebdfbd9ff" target="_top" xlink:title=" ">
<polygon fill="white" stroke="#666666" points="268.62,-256 173.88,-256 173.88,-227 268.62,-227 268.62,-256"/>
<text xml:space="preserve" text-anchor="start" x="181.88" y="-242.5" font-family="Helvetica,sans-Serif" font-size="10.00">Simulation::Getter</text>
<text xml:space="preserve" text-anchor="middle" x="221.25" y="-232" font-family="Helvetica,sans-Serif" font-size="10.00">::getMTRData</text>
</a>
</g>
</g>
<!-- Node1&#45;&gt;Node4 -->
<g id="edge3_Node000001_Node000004" class="edge">
<title>Node1&#45;&gt;Node4</title>
<g id="a_edge3_Node000001_Node000004"><a xlink:title=" ">
<path fill="none" stroke="#63b8ff" d="M87.5,-186.23C110.2,-195.68 145.31,-210.3 173.72,-222.13"/>
<polygon fill="#63b8ff" stroke="#63b8ff" points="172.27,-225.31 182.84,-225.93 174.96,-218.85 172.27,-225.31"/>
</a>
</g>
</g>
<!-- Node5 -->
<g id="Node000005" class="node">
<title>Node5</title>
<g id="a_Node000005"><a xlink:href="classSimulation_1_1Getter.html#ae948f113363f8ab858797a17c28a2e86" target="_top" xlink:title=" ">
<polygon fill="white" stroke="#666666" points="421.88,-207 327.12,-207 327.12,-178 421.88,-178 421.88,-207"/>
<text xml:space="preserve" text-anchor="start" x="335.12" y="-193.5" font-family="Helvetica,sans-Serif" font-size="10.00">Simulation::Getter</text>
<text xml:space="preserve" text-anchor="middle" x="374.5" y="-183" font-family="Helvetica,sans-Serif" font-size="10.00">::mc_unit</text>
</a>
</g>
</g>
<!-- Node1&#45;&gt;Node5 -->
<g id="edge4_Node000001_Node000005" class="edge">
<title>Node1&#45;&gt;Node5</title>
<g id="a_edge4_Node000001_Node000005"><a xlink:title=" ">
<path fill="none" stroke="#63b8ff" d="M126.73,-179.74C182,-182.6 261.93,-186.73 315.7,-189.51"/>
<polygon fill="#63b8ff" stroke="#63b8ff" points="315.42,-193 325.59,-190.02 315.78,-186.01 315.42,-193"/>
</a>
</g>
</g>
<!-- Node6 -->
<g id="Node000006" class="node">
<title>Node6</title>
<g id="a_Node000006"><a xlink:href="namespacePostProcessing.html#a262aae53c1f4dafed4795c687d6ea817" target="_top" xlink:title=" ">
<polygon fill="white" stroke="#666666" points="276.88,-170 165.62,-170 165.62,-141 276.88,-141 276.88,-170"/>
<text xml:space="preserve" text-anchor="start" x="173.62" y="-156.5" font-family="Helvetica,sans-Serif" font-size="10.00">PostProcessing::save</text>
<text xml:space="preserve" text-anchor="middle" x="221.25" y="-146" font-family="Helvetica,sans-Serif" font-size="10.00">_particle_state</text>
</a>
</g>
</g>
<!-- Node1&#45;&gt;Node6 -->
<g id="edge5_Node000001_Node000006" class="edge">
<title>Node1&#45;&gt;Node6</title>
<g id="a_edge5_Node000001_Node000006"><a xlink:title=" ">
<path fill="none" stroke="#63b8ff" d="M126.73,-168.08C135.67,-166.88 144.9,-165.63 153.92,-164.42"/>
<polygon fill="#63b8ff" stroke="#63b8ff" points="154.24,-167.91 163.69,-163.11 153.31,-160.97 154.24,-167.91"/>
</a>
</g>
</g>
<!-- Node7 -->
<g id="Node000007" class="node">
<title>Node7</title>
<g id="a_Node000007"><a xlink:href="namespacePostProcessing.html#abfe2a5894fae7c5534274da5d6d33e83" target="_top" xlink:title=" ">
<polygon fill="white" stroke="#666666" points="276.88,-123 165.62,-123 165.62,-94 276.88,-94 276.88,-123"/>
<text xml:space="preserve" text-anchor="start" x="173.62" y="-109.5" font-family="Helvetica,sans-Serif" font-size="10.00">PostProcessing::save</text>
<text xml:space="preserve" text-anchor="middle" x="221.25" y="-99" font-family="Helvetica,sans-Serif" font-size="10.00">_probes</text>
</a>
</g>
</g>
<!-- Node1&#45;&gt;Node7 -->
<g id="edge7_Node000001_Node000007" class="edge">
<title>Node1&#45;&gt;Node7</title>
<g id="a_edge7_Node000001_Node000007"><a xlink:title=" ">
<path fill="none" stroke="#63b8ff" d="M85.1,-166.88C104.92,-157.84 135.5,-144.03 162.25,-132.5 165.81,-130.97 169.5,-129.39 173.22,-127.83"/>
<polygon fill="#63b8ff" stroke="#63b8ff" points="174.41,-131.12 182.28,-124.03 171.7,-124.67 174.41,-131.12"/>
</a>
</g>
</g>
<!-- Node16 -->
<g id="Node000016" class="node">
<title>Node16</title>
<g id="a_Node000016"><a xlink:href="classCore_1_1PartialExporter.html#a450fb0c92efa4ee81b4083fc01f5e665" target="_top" xlink:title="Writes the number of particles in each compartment.">
<polygon fill="white" stroke="#666666" points="280.25,-76 162.25,-76 162.25,-47 280.25,-47 280.25,-76"/>
<text xml:space="preserve" text-anchor="start" x="170.25" y="-62.5" font-family="Helvetica,sans-Serif" font-size="10.00">Core::PartialExporter</text>
<text xml:space="preserve" text-anchor="middle" x="221.25" y="-52" font-family="Helvetica,sans-Serif" font-size="10.00">::write_number_particle</text>
</a>
</g>
</g>
<!-- Node1&#45;&gt;Node16 -->
<g id="edge17_Node000001_Node000016" class="edge">
<title>Node1&#45;&gt;Node16</title>
<g id="a_edge17_Node000001_Node000016"><a xlink:title=" ">
<path fill="none" stroke="#63b8ff" d="M72.42,-166.8C88.28,-148.72 124.69,-109.57 162.25,-85.5 164.37,-84.14 166.59,-82.83 168.86,-81.57"/>
<polygon fill="#63b8ff" stroke="#63b8ff" points="170.39,-84.71 177.73,-77.07 167.22,-78.47 170.39,-84.71"/>
</a>
</g>
</g>
<!-- Node18 -->
<g id="Node000018" class="node">
<title>Node18</title>
<g id="a_Node000018"><a xlink:href="classCore_1_1PartialExporter.html#ad8a5d2f9287f5f077e362d4b073c8082" target="_top" xlink:title="Writes tally.">
<polygon fill="white" stroke="#666666" points="275.75,-29 166.75,-29 166.75,0 275.75,0 275.75,-29"/>
<text xml:space="preserve" text-anchor="start" x="174.75" y="-15.5" font-family="Helvetica,sans-Serif" font-size="10.00">Core::PartialExporter</text>
<text xml:space="preserve" text-anchor="middle" x="221.25" y="-5" font-family="Helvetica,sans-Serif" font-size="10.00">::write_tally</text>
</a>
</g>
</g>
<!-- Node1&#45;&gt;Node18 -->
<g id="edge19_Node000001_Node000018" class="edge">
<title>Node1&#45;&gt;Node18</title>
<g id="a_edge19_Node000001_Node000018"><a xlink:title=" ">
<path fill="none" stroke="#63b8ff" d="M68.47,-167.08C80.21,-142.59 114.88,-76.23 162.25,-38.5 163.74,-37.31 165.31,-36.17 166.92,-35.08"/>
<polygon fill="#63b8ff" stroke="#63b8ff" points="168.47,-38.23 175.3,-30.13 164.91,-32.2 168.47,-38.23"/>
</a>
</g>
</g>
<!-- Node6&#45;&gt;Node5 -->
<g id="edge6_Node000006_Node000005" class="edge">
<title>Node6&#45;&gt;Node5</title>
<g id="a_edge6_Node000006_Node000005"><a xlink:title=" ">
<path fill="none" stroke="#63b8ff" d="M277.28,-168.96C289.83,-172.03 303.19,-175.3 315.84,-178.39"/>
<polygon fill="#63b8ff" stroke="#63b8ff" points="314.72,-181.72 325.26,-180.7 316.38,-174.92 314.72,-181.72"/>
</a>
</g>
</g>
<!-- Node8 -->
<g id="Node000008" class="node">
<title>Node8</title>
<g id="a_Node000008"><a xlink:href="namespacePostProcessing.html#adae52b6b518e25be1c920f36f196ef65" target="_top" xlink:title=" ">
<polygon fill="white" stroke="#666666" points="432.75,-155 316.25,-155 316.25,-126 432.75,-126 432.75,-155"/>
<text xml:space="preserve" text-anchor="start" x="324.25" y="-141.5" font-family="Helvetica,sans-Serif" font-size="10.00">PostProcessing::_save</text>
<text xml:space="preserve" text-anchor="middle" x="374.5" y="-131" font-family="Helvetica,sans-Serif" font-size="10.00">_probes</text>
</a>
</g>
</g>
<!-- Node7&#45;&gt;Node8 -->
<g id="edge8_Node000007_Node000008" class="edge">
<title>Node7&#45;&gt;Node8</title>
<g id="a_edge8_Node000007_Node000008"><a xlink:title=" ">
<path fill="none" stroke="#63b8ff" d="M277.28,-120.14C286.23,-122.04 295.59,-124.02 304.82,-125.97"/>
<polygon fill="#63b8ff" stroke="#63b8ff" points="303.98,-129.37 314.48,-128.01 305.42,-122.52 303.98,-129.37"/>
</a>
</g>
</g>
<!-- Node15 -->
<g id="Node000015" class="node">
<title>Node15</title>
<g id="a_Node000015"><a xlink:href="classSimulation_1_1Getter.html#ab2fa179687f4810f64d4c1c2beb7800c" target="_top" xlink:title=" ">
<polygon fill="white" stroke="#666666" points="421.88,-108 327.12,-108 327.12,-79 421.88,-79 421.88,-108"/>
<text xml:space="preserve" text-anchor="start" x="335.12" y="-94.5" font-family="Helvetica,sans-Serif" font-size="10.00">Simulation::Getter</text>
<text xml:space="preserve" text-anchor="middle" x="374.5" y="-84" font-family="Helvetica,sans-Serif" font-size="10.00">::it_probes</text>
</a>
</g>
</g>
<!-- Node7&#45;&gt;Node15 -->
<g id="edge16_Node000007_Node000015" class="edge">
<title>Node7&#45;&gt;Node15</title>
<g id="a_edge16_Node000007_Node000015"><a xlink:title=" ">
<path fill="none" stroke="#63b8ff" d="M277.28,-103.04C289.7,-101.81 302.92,-100.5 315.45,-99.26"/>
<polygon fill="#63b8ff" stroke="#63b8ff" points="315.62,-102.76 325.22,-98.29 314.93,-95.79 315.62,-102.76"/>
</a>
</g>
</g>
<!-- Node9 -->
<g id="Node000009" class="node">
<title>Node9</title>
<g id="a_Node000009"><a xlink:href="classSimulation_1_1Probes.html#af54f1c8be6e49f63e8533d6a4e91cad3" target="_top" xlink:title=" ">
<polygon fill="white" stroke="#666666" points="577,-218 478.5,-218 478.5,-189 577,-189 577,-218"/>
<text xml:space="preserve" text-anchor="start" x="486.5" y="-204.5" font-family="Helvetica,sans-Serif" font-size="10.00">Simulation::Probes</text>
<text xml:space="preserve" text-anchor="middle" x="527.75" y="-194" font-family="Helvetica,sans-Serif" font-size="10.00">::clear</text>
</a>
</g>
</g>
<!-- Node8&#45;&gt;Node9 -->
<g id="edge9_Node000008_Node000009" class="edge">
<title>Node8&#45;&gt;Node9</title>
<g id="a_edge9_Node000008_Node000009"><a xlink:title=" ">
<path fill="none" stroke="#63b8ff" d="M410.91,-155.35C428.33,-162.64 449.63,-171.55 468.75,-179.5 472.38,-181.01 476.14,-182.57 479.92,-184.14"/>
<polygon fill="#63b8ff" stroke="#63b8ff" points="478.57,-187.37 489.14,-187.96 481.25,-180.9 478.57,-187.37"/>
</a>
</g>
</g>
<!-- Node10 -->
<g id="Node000010" class="node">
<title>Node10</title>
<g id="a_Node000010"><a xlink:href="classSimulation_1_1Probes.html#a6345c8304e772a314dae935f742d518a" target="_top" xlink:title=" ">
<polygon fill="white" stroke="#666666" points="586.75,-170.75 468.75,-170.75 468.75,-152.25 586.75,-152.25 586.75,-170.75"/>
<text xml:space="preserve" text-anchor="middle" x="527.75" y="-157.25" font-family="Helvetica,sans-Serif" font-size="10.00">Simulation::Probes::get</text>
</a>
</g>
</g>
<!-- Node8&#45;&gt;Node10 -->
<g id="edge10_Node000008_Node000010" class="edge">
<title>Node8&#45;&gt;Node10</title>
<g id="a_edge10_Node000008_Node000010"><a xlink:title=" ">
<path fill="none" stroke="#63b8ff" d="M433.11,-148.5C440.94,-149.59 449.05,-150.71 457.06,-151.82"/>
<polygon fill="#63b8ff" stroke="#63b8ff" points="456.41,-155.27 466.8,-153.18 457.37,-148.33 456.41,-155.27"/>
</a>
</g>
</g>
<!-- Node11 -->
<g id="Node000011" class="node">
<title>Node11</title>
<g id="a_Node000011"><a xlink:href="classSimulation_1_1Probes.html#a2b8541ff7ad653204a955ff1feb78757" target="_top" xlink:title=" ">
<polygon fill="white" stroke="#666666" points="577,-134 478.5,-134 478.5,-105 577,-105 577,-134"/>
<text xml:space="preserve" text-anchor="start" x="486.5" y="-120.5" font-family="Helvetica,sans-Serif" font-size="10.00">Simulation::Probes</text>
<text xml:space="preserve" text-anchor="middle" x="527.75" y="-110" font-family="Helvetica,sans-Serif" font-size="10.00">::need_export</text>
</a>
</g>
</g>
<!-- Node8&#45;&gt;Node11 -->
<g id="edge11_Node000008_Node000011" class="edge">
<title>Node8&#45;&gt;Node11</title>
<g id="a_edge11_Node000008_Node000011"><a xlink:title=" ">
<path fill="none" stroke="#63b8ff" d="M433.11,-132.5C444.14,-130.97 455.71,-129.36 466.81,-127.82"/>
<polygon fill="#63b8ff" stroke="#63b8ff" points="467.24,-131.3 476.67,-126.45 466.28,-124.36 467.24,-131.3"/>
</a>
</g>
</g>
<!-- Node12 -->
<g id="Node000012" class="node">
<title>Node12</title>
<g id="a_Node000012"><a xlink:href="classCore_1_1PartialExporter.html#a53c54ce796df99b407f410beb01074c5" target="_top" xlink:title="Writes probe data to the export.">
<polygon fill="white" stroke="#666666" points="582.25,-87 473.25,-87 473.25,-58 582.25,-58 582.25,-87"/>
<text xml:space="preserve" text-anchor="start" x="481.25" y="-73.5" font-family="Helvetica,sans-Serif" font-size="10.00">Core::PartialExporter</text>
<text xml:space="preserve" text-anchor="middle" x="527.75" y="-63" font-family="Helvetica,sans-Serif" font-size="10.00">::write_probe</text>
</a>
</g>
</g>
<!-- Node8&#45;&gt;Node12 -->
<g id="edge12_Node000008_Node000012" class="edge">
<title>Node8&#45;&gt;Node12</title>
<g id="a_edge12_Node000008_Node000012"><a xlink:title=" ">
<path fill="none" stroke="#63b8ff" d="M414.94,-125.54C420.97,-123 427.07,-120.28 432.75,-117.5 449.39,-109.36 452.15,-104.73 468.75,-96.5 471.82,-94.98 475.02,-93.46 478.26,-91.98"/>
<polygon fill="#63b8ff" stroke="#63b8ff" points="479.55,-95.24 487.28,-88 476.72,-88.84 479.55,-95.24"/>
</a>
</g>
</g>
<!-- Node13 -->
<g id="Node000013" class="node">
<title>Node13</title>
<g id="a_Node000013"><a xlink:href="classCore_1_1DataExporter.html#a0b0b79f3932c4eb905704a852248c857" target="_top" xlink:title=" ">
<polygon fill="white" stroke="#666666" points="723.5,-117 622.75,-117 622.75,-88 723.5,-88 723.5,-117"/>
<text xml:space="preserve" text-anchor="start" x="630.75" y="-103.5" font-family="Helvetica,sans-Serif" font-size="10.00">Core::DataExporter</text>
<text xml:space="preserve" text-anchor="middle" x="673.12" y="-93" font-family="Helvetica,sans-Serif" font-size="10.00">::append_array</text>
</a>
</g>
</g>
<!-- Node12&#45;&gt;Node13 -->
<g id="edge13_Node000012_Node000013" class="edge">
<title>Node12&#45;&gt;Node13</title>
<g id="a_edge13_Node000012_Node000013"><a xlink:title=" ">
<path fill="none" stroke="#63b8ff" d="M582.55,-83.76C591.91,-85.72 601.71,-87.77 611.25,-89.76"/>
<polygon fill="#63b8ff" stroke="#63b8ff" points="610.3,-93.14 620.81,-91.76 611.74,-86.29 610.3,-93.14"/>
</a>
</g>
</g>
<!-- Node14 -->
<g id="Node000014" class="node">
<title>Node14</title>
<g id="a_Node000014"><a xlink:href="namespaceIO.html#a30cc77fc5c4d45d3b56ef6a299ce2383" target="_top" xlink:title=" ">
<polygon fill="white" stroke="#666666" points="703.25,-51.75 643,-51.75 643,-33.25 703.25,-33.25 703.25,-51.75"/>
<text xml:space="preserve" text-anchor="middle" x="673.12" y="-38.25" font-family="Helvetica,sans-Serif" font-size="10.00">IO::format</text>
</a>
</g>
</g>
<!-- Node12&#45;&gt;Node14 -->
<g id="edge14_Node000012_Node000014" class="edge">
<title>Node12&#45;&gt;Node14</title>
<g id="a_edge14_Node000012_Node000014"><a xlink:title=" ">
<path fill="none" stroke="#63b8ff" d="M582.55,-61.24C598.76,-57.85 616.27,-54.19 631.47,-51.01"/>
<polygon fill="#63b8ff" stroke="#63b8ff" points="632.04,-54.46 641.11,-48.99 630.61,-47.61 632.04,-54.46"/>
</a>
</g>
</g>
<!-- Node14&#45;&gt;Node14 -->
<g id="edge15_Node000014_Node000014" class="edge">
<title>Node14&#45;&gt;Node14</title>
<g id="a_edge15_Node000014_Node000014"><a xlink:title=" ">
<path fill="none" stroke="#63b8ff" d="M650.72,-52C639.82,-60.57 647.29,-69.75 673.12,-69.75 687.66,-69.75 696.38,-66.84 699.29,-62.78"/>
<polygon fill="#63b8ff" stroke="#63b8ff" points="702.63,-61.72 696.03,-53.42 696.02,-64.02 702.63,-61.72"/>
</a>
</g>
</g>
<!-- Node17 -->
<g id="Node000017" class="node">
<title>Node17</title>
<g id="a_Node000017"><a xlink:href="classCore_1_1DataExporter.html#a0af9b5e13d16339af1918f8e845193f9" target="_top" xlink:title=" ">
<polygon fill="white" stroke="#666666" points="424.88,-50 324.12,-50 324.12,-21 424.88,-21 424.88,-50"/>
<text xml:space="preserve" text-anchor="start" x="332.12" y="-36.5" font-family="Helvetica,sans-Serif" font-size="10.00">Core::DataExporter</text>
<text xml:space="preserve" text-anchor="middle" x="374.5" y="-26" font-family="Helvetica,sans-Serif" font-size="10.00">::append_matrix</text>
</a>
</g>
</g>
<!-- Node16&#45;&gt;Node17 -->
<g id="edge18_Node000016_Node000017" class="edge">
<title>Node16&#45;&gt;Node17</title>
<g id="a_edge18_Node000016_Node000017"><a xlink:title=" ">
<path fill="none" stroke="#63b8ff" d="M280.73,-51.45C291.23,-49.64 302.19,-47.76 312.76,-45.94"/>
<polygon fill="#63b8ff" stroke="#63b8ff" points="313.26,-49.41 322.53,-44.26 312.08,-42.51 313.26,-49.41"/>
</a>
</g>
</g>
<!-- Node18&#45;&gt;Node17 -->
<g id="edge20_Node000018_Node000017" class="edge">
<title>Node18&#45;&gt;Node17</title>
<g id="a_edge20_Node000018_Node000017"><a xlink:title=" ">
<path fill="none" stroke="#63b8ff" d="M276,-21.96C287.78,-23.6 300.33,-25.34 312.37,-27.01"/>
<polygon fill="#63b8ff" stroke="#63b8ff" points="311.83,-30.47 322.21,-28.38 312.79,-23.54 311.83,-30.47"/>
</a>
</g>
</g>
</g>
</svg>

<g id="navigator" transform="translate(0 0)" fill="#404254">
  <rect fill="#f2f5e9" fill-opacity="0.5" stroke="#606060" stroke-width=".5" x="0" y="0" width="60" height="60"/>
  <use id="zoomplus" xlink:href="#zoomPlus" x="17" y="9" onmousedown="handleZoom(evt,'in')"/>
  <use id="zoomminus" xlink:href="#zoomMin" x="42" y="9" onmousedown="handleZoom(evt,'out')"/>
  <use id="reset" xlink:href="#resetDef" x="30" y="36" onmousedown="handleReset()"/>
   <use id="arrowup" xlink:href="#arrowUp" x="0" y="0" onmousedown="handlePan(0,-1)"/>
  <use id="arrowright" xlink:href="#arrowRight" x="0" y="0" onmousedown="handlePan(1,0)"/>
  <use id="arrowdown" xlink:href="#arrowDown" x="0" y="0" onmousedown="handlePan(0,1)"/>
  <use id="arrowleft" xlink:href="#arrowLeft" x="0" y="0" onmousedown="handlePan(-1,0)"/>
</g>
<svg viewBox="0 0 15 15" width="100%" height="30px" preserveAspectRatio="xMaxYMin meet">
 <g id="arrow_out" transform="scale(0.3 0.3)">
  <a xlink:href="classExportHandler_a45d2f59eda0b665fe42c157adc4ee585_cgraph_org.svg" target="_base">
   <rect id="button" ry="5" rx="5" y="6" x="6" height="38" width="38"
        fill="#f2f5e9" fill-opacity="0.5" stroke="#606060" stroke-width="1.0"/>
   <path id="arrow"
     d="M 11.500037,31.436501 C 11.940474,20.09759 22.043105,11.32322 32.158766,21.979434 L 37.068811,17.246167 C 37.068811,17.246167 37.088388,32 37.088388,32 L 22.160133,31.978069 C 22.160133,31.978069 26.997745,27.140456 26.997745,27.140456 C 18.528582,18.264221 13.291696,25.230495 11.500037,31.436501 z"
     style="fill:#404040;"/>
  </a>
 </g>
</svg>

<style type='text/css'>
<![CDATA[
[data-mouse-over-selected='false'] { opacity: 0.7; }
[data-mouse-over-selected='true']  { opacity: 1.0; }
]]>
</style>
<script type="application/ecmascript"><![CDATA[
document.addEventListener('DOMContentLoaded', (event) => {
  highlightEdges();
  highlightAdjacentNodes();
});
]]></script>
</svg>
