<?xml version="1.0" encoding="UTF-8" standalone="no"?>
<!DOCTYPE svg PUBLIC "-//W3C//DTD SVG 1.1//EN"
 "http://www.w3.org/Graphics/SVG/1.1/DTD/svg11.dtd">
<!-- Generated by graphviz version 14.0.1 (0)
 -->
<!-- Title: Simulation::SimulationUnit::operator= Pages: 1 -->
<svg width="997pt" height="571pt"
 viewBox="0.00 0.00 997.00 571.00" xmlns="http://www.w3.org/2000/svg" xmlns:xlink="http://www.w3.org/1999/xlink">
<g id="graph0" class="graph" transform="scale(1 1) rotate(0) translate(4 567)">
<title>Simulation::SimulationUnit::operator=</title>
<!-- Node1 -->
<g id="Node000001" class="node">
<title>Node1</title>
<g id="a_Node000001"><a xlink:title=" ">
<polygon fill="#999999" stroke="#666666" points="131.5,-260 0,-260 0,-231 131.5,-231 131.5,-260"/>
<text xml:space="preserve" text-anchor="start" x="8" y="-246.5" font-family="Helvetica,sans-Serif" font-size="10.00">Simulation::SimulationUnit</text>
<text xml:space="preserve" text-anchor="middle" x="65.75" y="-236" font-family="Helvetica,sans-Serif" font-size="10.00">::operator=</text>
</a>
</g>
</g>
<!-- Node2 -->
<g id="Node000002" class="node">
<title>Node2</title>
<g id="a_Node000002"><a xlink:href="classSimulation_1_1SimulationUnit.html#ad964b9f706ae4cac2e0d5d852131a7d2" target="_top" xlink:title=" ">
<polygon fill="white" stroke="#666666" points="299,-505 167.5,-505 167.5,-476 299,-476 299,-505"/>
<text xml:space="preserve" text-anchor="start" x="175.5" y="-491.5" font-family="Helvetica,sans-Serif" font-size="10.00">Simulation::SimulationUnit</text>
<text xml:space="preserve" text-anchor="middle" x="233.25" y="-481" font-family="Helvetica,sans-Serif" font-size="10.00">::checkScalar</text>
</a>
</g>
</g>
<!-- Node1&#45;&gt;Node2 -->
<g id="edge1_Node000001_Node000002" class="edge">
<title>Node1&#45;&gt;Node2</title>
<g id="a_edge1_Node000001_Node000002"><a xlink:title=" ">
<path fill="none" stroke="#63b8ff" d="M69.32,-260.27C76.93,-299.66 102.98,-408.23 167.5,-467.5 168.13,-468.08 168.77,-468.64 169.42,-469.18"/>
<polygon fill="#63b8ff" stroke="#63b8ff" points="167.16,-471.87 177.37,-474.68 171.14,-466.11 167.16,-471.87"/>
</a>
</g>
</g>
<!-- Node3 -->
<g id="Node000003" class="node">
<title>Node3</title>
<g id="a_Node000003"><a xlink:href="classSimulation_1_1SimulationUnit.html#aeb968caf58812bcab01534e72a63d552" target="_top" xlink:title=" ">
<polygon fill="white" stroke="#666666" points="299,-458 167.5,-458 167.5,-429 299,-429 299,-458"/>
<text xml:space="preserve" text-anchor="start" x="175.5" y="-444.5" font-family="Helvetica,sans-Serif" font-size="10.00">Simulation::SimulationUnit</text>
<text xml:space="preserve" text-anchor="middle" x="233.25" y="-434" font-family="Helvetica,sans-Serif" font-size="10.00">::clearContribution</text>
</a>
</g>
</g>
<!-- Node1&#45;&gt;Node3 -->
<g id="edge2_Node000001_Node000003" class="edge">
<title>Node1&#45;&gt;Node3</title>
<g id="a_edge2_Node000001_Node000003"><a xlink:title=" ">
<path fill="none" stroke="#63b8ff" d="M71.21,-260.01C82.13,-293.23 113.37,-375.38 167.5,-420.5 168.3,-421.17 169.12,-421.82 169.97,-422.45"/>
<polygon fill="#63b8ff" stroke="#63b8ff" points="167.98,-425.33 178.3,-427.72 171.72,-419.42 167.98,-425.33"/>
</a>
</g>
</g>
<!-- Node4 -->
<g id="Node000004" class="node">
<title>Node4</title>
<g id="a_Node000004"><a xlink:href="classSimulation_1_1SimulationUnit.html#a5512cea54affc3eb0c16380d973348e5" target="_top" xlink:title=" ">
<polygon fill="white" stroke="#666666" points="299,-411 167.5,-411 167.5,-382 299,-382 299,-411"/>
<text xml:space="preserve" text-anchor="start" x="175.5" y="-397.5" font-family="Helvetica,sans-Serif" font-size="10.00">Simulation::SimulationUnit</text>
<text xml:space="preserve" text-anchor="middle" x="233.25" y="-387" font-family="Helvetica,sans-Serif" font-size="10.00">::cycleProcess</text>
</a>
</g>
</g>
<!-- Node1&#45;&gt;Node4 -->
<g id="edge3_Node000001_Node000004" class="edge">
<title>Node1&#45;&gt;Node4</title>
<g id="a_edge3_Node000001_Node000004"><a xlink:title=" ">
<path fill="none" stroke="#63b8ff" d="M75.6,-260.13C91.34,-285.08 126.41,-336.21 167.5,-367.5 171.75,-370.73 176.41,-373.7 181.23,-376.41"/>
<polygon fill="#63b8ff" stroke="#63b8ff" points="179.42,-379.41 189.91,-380.89 182.63,-373.19 179.42,-379.41"/>
</a>
</g>
</g>
<!-- Node15 -->
<g id="Node000015" class="node">
<title>Node15</title>
<g id="a_Node000015"><a xlink:href="classSimulation_1_1SimulationUnit.html#a1278ad223b0cc8509f68a9f7d995bfd2" target="_top" xlink:title=" ">
<polygon fill="white" stroke="#666666" points="641.88,-375 510.38,-375 510.38,-346 641.88,-346 641.88,-375"/>
<text xml:space="preserve" text-anchor="start" x="518.38" y="-361.5" font-family="Helvetica,sans-Serif" font-size="10.00">Simulation::SimulationUnit</text>
<text xml:space="preserve" text-anchor="middle" x="576.12" y="-351" font-family="Helvetica,sans-Serif" font-size="10.00">::SimulationUnit</text>
</a>
</g>
</g>
<!-- Node1&#45;&gt;Node15 -->
<g id="edge26_Node000001_Node000015" class="edge">
<title>Node1&#45;&gt;Node15</title>
<g id="a_edge26_Node000001_Node000015"><a xlink:title=" ">
<path fill="none" stroke="#63b8ff" d="M78.14,-260.46C95.03,-281.35 128.92,-318.48 167.5,-334.5 225.36,-358.53 397.53,-361.77 498.66,-361.48"/>
<polygon fill="#63b8ff" stroke="#63b8ff" points="498.52,-364.98 508.51,-361.44 498.49,-357.98 498.52,-364.98"/>
</a>
</g>
</g>
<!-- Node19 -->
<g id="Node000019" class="node">
<title>Node19</title>
<g id="a_Node000019"><a xlink:href="classSimulation_1_1SimulationUnit.html#aceb670b889811566ad3c159b8ecb5a9f" target="_top" xlink:title=" ">
<polygon fill="white" stroke="#666666" points="299,-307 167.5,-307 167.5,-278 299,-278 299,-307"/>
<text xml:space="preserve" text-anchor="start" x="175.5" y="-293.5" font-family="Helvetica,sans-Serif" font-size="10.00">Simulation::SimulationUnit</text>
<text xml:space="preserve" text-anchor="middle" x="233.25" y="-283" font-family="Helvetica,sans-Serif" font-size="10.00">::Getter</text>
</a>
</g>
</g>
<!-- Node1&#45;&gt;Node19 -->
<g id="edge21_Node000001_Node000019" class="edge">
<title>Node1&#45;&gt;Node19</title>
<g id="a_edge21_Node000001_Node000019"><a xlink:title=" ">
<path fill="none" stroke="#63b8ff" d="M119.12,-260.37C134.96,-264.87 152.54,-269.86 169.02,-274.54"/>
<polygon fill="#63b8ff" stroke="#63b8ff" points="167.63,-277.79 178.2,-277.15 169.54,-271.05 167.63,-277.79"/>
</a>
</g>
</g>
<!-- Node20 -->
<g id="Node000020" class="node">
<title>Node20</title>
<g id="a_Node000020"><a xlink:href="classSimulation_1_1SimulationUnit.html#a50e613289a3b6ca1abea7173e3eac01e" target="_top" xlink:title=" ">
<polygon fill="white" stroke="#666666" points="299,-260 167.5,-260 167.5,-231 299,-231 299,-260"/>
<text xml:space="preserve" text-anchor="start" x="175.5" y="-246.5" font-family="Helvetica,sans-Serif" font-size="10.00">Simulation::SimulationUnit</text>
<text xml:space="preserve" text-anchor="middle" x="233.25" y="-236" font-family="Helvetica,sans-Serif" font-size="10.00">::init_functors</text>
</a>
</g>
</g>
<!-- Node1&#45;&gt;Node20 -->
<g id="edge23_Node000001_Node000020" class="edge">
<title>Node1&#45;&gt;Node20</title>
<g id="a_edge23_Node000001_Node000020"><a xlink:title=" ">
<path fill="none" stroke="#63b8ff" d="M131.68,-245.5C139.63,-245.5 147.79,-245.5 155.88,-245.5"/>
<polygon fill="#63b8ff" stroke="#63b8ff" points="155.72,-249 165.72,-245.5 155.72,-242 155.72,-249"/>
</a>
</g>
</g>
<!-- Node22 -->
<g id="Node000022" class="node">
<title>Node22</title>
<g id="a_Node000022"><a xlink:href="classSimulation_1_1SimulationUnit.html#aa12b65d19fa7e3eb74152b0252591a4d" target="_top" xlink:title=" ">
<polygon fill="white" stroke="#666666" points="299,-213 167.5,-213 167.5,-184 299,-184 299,-213"/>
<text xml:space="preserve" text-anchor="start" x="175.5" y="-199.5" font-family="Helvetica,sans-Serif" font-size="10.00">Simulation::SimulationUnit</text>
<text xml:space="preserve" text-anchor="middle" x="233.25" y="-189" font-family="Helvetica,sans-Serif" font-size="10.00">::reset</text>
</a>
</g>
</g>
<!-- Node1&#45;&gt;Node22 -->
<g id="edge25_Node000001_Node000022" class="edge">
<title>Node1&#45;&gt;Node22</title>
<g id="a_edge25_Node000001_Node000022"><a xlink:title=" ">
<path fill="none" stroke="#63b8ff" d="M119.12,-230.63C134.96,-226.13 152.54,-221.14 169.02,-216.46"/>
<polygon fill="#63b8ff" stroke="#63b8ff" points="169.54,-219.95 178.2,-213.85 167.63,-213.21 169.54,-219.95"/>
</a>
</g>
</g>
<!-- Node23 -->
<g id="Node000023" class="node">
<title>Node23</title>
<g id="a_Node000023"><a xlink:href="classSimulation_1_1SimulationUnit.html#af4d179bd1bf0d8da69d83f63fdd72412" target="_top" xlink:title=" ">
<polygon fill="white" stroke="#666666" points="299,-166 167.5,-166 167.5,-137 299,-137 299,-166"/>
<text xml:space="preserve" text-anchor="start" x="175.5" y="-152.5" font-family="Helvetica,sans-Serif" font-size="10.00">Simulation::SimulationUnit</text>
<text xml:space="preserve" text-anchor="middle" x="233.25" y="-142" font-family="Helvetica,sans-Serif" font-size="10.00">::step</text>
</a>
</g>
</g>
<!-- Node1&#45;&gt;Node23 -->
<g id="edge27_Node000001_Node000023" class="edge">
<title>Node1&#45;&gt;Node23</title>
<g id="a_edge27_Node000001_Node000023"><a xlink:title=" ">
<path fill="none" stroke="#63b8ff" d="M85.15,-230.58C104.69,-215.26 136.91,-191.47 167.5,-175.5 170.54,-173.91 173.7,-172.38 176.93,-170.92"/>
<polygon fill="#63b8ff" stroke="#63b8ff" points="178.16,-174.2 185.98,-167.04 175.41,-167.76 178.16,-174.2"/>
</a>
</g>
</g>
<!-- Node24 -->
<g id="Node000024" class="node">
<title>Node24</title>
<g id="a_Node000024"><a xlink:href="classSimulation_1_1SimulationUnit.html#a6fecb0563822fae0ef26d9f6209d0779" target="_top" xlink:title=" ">
<polygon fill="white" stroke="#666666" points="299,-119 167.5,-119 167.5,-90 299,-90 299,-119"/>
<text xml:space="preserve" text-anchor="start" x="175.5" y="-105.5" font-family="Helvetica,sans-Serif" font-size="10.00">Simulation::SimulationUnit</text>
<text xml:space="preserve" text-anchor="middle" x="233.25" y="-95" font-family="Helvetica,sans-Serif" font-size="10.00">::update_feed</text>
</a>
</g>
</g>
<!-- Node1&#45;&gt;Node24 -->
<g id="edge28_Node000001_Node000024" class="edge">
<title>Node1&#45;&gt;Node24</title>
<g id="a_edge28_Node000001_Node000024"><a xlink:title=" ">
<path fill="none" stroke="#63b8ff" d="M75.79,-230.82C91.55,-206.35 126.34,-157.11 167.5,-128.5 169.5,-127.11 171.59,-125.79 173.74,-124.54"/>
<polygon fill="#63b8ff" stroke="#63b8ff" points="174.9,-127.88 182.16,-120.16 171.68,-121.67 174.9,-127.88"/>
</a>
</g>
</g>
<!-- Node25 -->
<g id="Node000025" class="node">
<title>Node25</title>
<g id="a_Node000025"><a xlink:href="classSimulation_1_1SimulationUnit.html#a57624461bad4807d5cacbd7d17e49b14" target="_top" xlink:title=" ">
<polygon fill="white" stroke="#666666" points="299,-33 167.5,-33 167.5,-4 299,-4 299,-33"/>
<text xml:space="preserve" text-anchor="start" x="175.5" y="-19.5" font-family="Helvetica,sans-Serif" font-size="10.00">Simulation::SimulationUnit</text>
<text xml:space="preserve" text-anchor="middle" x="233.25" y="-9" font-family="Helvetica,sans-Serif" font-size="10.00">::updateHydro</text>
</a>
</g>
</g>
<!-- Node1&#45;&gt;Node25 -->
<g id="edge29_Node000001_Node000025" class="edge">
<title>Node1&#45;&gt;Node25</title>
<g id="a_edge29_Node000001_Node000025"><a xlink:title=" ">
<path fill="none" stroke="#63b8ff" d="M70.55,-230.76C80.51,-194.81 110.64,-101.61 167.5,-47.5 170.72,-44.44 174.32,-41.66 178.13,-39.15"/>
<polygon fill="#63b8ff" stroke="#63b8ff" points="179.73,-42.27 186.62,-34.21 176.21,-36.21 179.73,-42.27"/>
</a>
</g>
</g>
<!-- Node26 -->
<g id="Node000026" class="node">
<title>Node26</title>
<g id="a_Node000026"><a xlink:href="classSimulation_1_1SimulationUnit.html#a30514b0d71df785a793a60b5ea2f1b17" target="_top" xlink:title=" ">
<polygon fill="white" stroke="#666666" points="466.5,-76 335,-76 335,-47 466.5,-47 466.5,-76"/>
<text xml:space="preserve" text-anchor="start" x="343" y="-62.5" font-family="Helvetica,sans-Serif" font-size="10.00">Simulation::SimulationUnit</text>
<text xml:space="preserve" text-anchor="middle" x="400.75" y="-52" font-family="Helvetica,sans-Serif" font-size="10.00">::updateMCHydro</text>
</a>
</g>
</g>
<!-- Node1&#45;&gt;Node26 -->
<g id="edge32_Node000001_Node000026" class="edge">
<title>Node1&#45;&gt;Node26</title>
<g id="a_edge32_Node000001_Node000026"><a xlink:title=" ">
<path fill="none" stroke="#63b8ff" d="M70.79,-230.93C80.83,-197.76 110.34,-116.77 167.5,-81.5 213.65,-53.02 275.13,-48.88 323.24,-51.39"/>
<polygon fill="#63b8ff" stroke="#63b8ff" points="322.82,-54.87 333.02,-52.02 323.27,-47.89 322.82,-54.87"/>
</a>
</g>
</g>
<!-- Node5 -->
<g id="Node000005" class="node">
<title>Node5</title>
<g id="a_Node000005"><a xlink:href="classSimulation_1_1SimulationUnit.html#a96e8f3fbde370c918a3710b0b910cd42" target="_top" xlink:title=" ">
<polygon fill="white" stroke="#666666" points="466.5,-476 335,-476 335,-447 466.5,-447 466.5,-476"/>
<text xml:space="preserve" text-anchor="start" x="343" y="-462.5" font-family="Helvetica,sans-Serif" font-size="10.00">Simulation::SimulationUnit</text>
<text xml:space="preserve" text-anchor="middle" x="400.75" y="-452" font-family="Helvetica,sans-Serif" font-size="10.00">::post_cycle</text>
</a>
</g>
</g>
<!-- Node4&#45;&gt;Node5 -->
<g id="edge4_Node000004_Node000005" class="edge">
<title>Node4&#45;&gt;Node5</title>
<g id="a_edge4_Node000004_Node000005"><a xlink:title=" ">
<path fill="none" stroke="#63b8ff" d="M276.66,-411.47C284.16,-414.33 291.85,-417.4 299,-420.5 315.41,-427.62 318.54,-431.49 335,-438.5 338.19,-439.86 341.49,-441.2 344.83,-442.52"/>
<polygon fill="#63b8ff" stroke="#63b8ff" points="343.58,-445.79 354.17,-446.09 346.08,-439.25 343.58,-445.79"/>
</a>
</g>
</g>
<!-- Node14 -->
<g id="Node000014" class="node">
<title>Node14</title>
<g id="a_Node000014"><a xlink:href="classSimulation_1_1SimulationUnit.html#ad984b5d95455d6db475d8b6e20077a0c" target="_top" xlink:title=" ">
<polygon fill="white" stroke="#666666" points="466.5,-411 335,-411 335,-382 466.5,-382 466.5,-411"/>
<text xml:space="preserve" text-anchor="start" x="343" y="-397.5" font-family="Helvetica,sans-Serif" font-size="10.00">Simulation::SimulationUnit</text>
<text xml:space="preserve" text-anchor="middle" x="400.75" y="-387" font-family="Helvetica,sans-Serif" font-size="10.00">::pre_cycle</text>
</a>
</g>
</g>
<!-- Node4&#45;&gt;Node14 -->
<g id="edge14_Node000004_Node000014" class="edge">
<title>Node4&#45;&gt;Node14</title>
<g id="a_edge14_Node000004_Node000014"><a xlink:title=" ">
<path fill="none" stroke="#63b8ff" d="M299.18,-396.5C307.13,-396.5 315.29,-396.5 323.38,-396.5"/>
<polygon fill="#63b8ff" stroke="#63b8ff" points="323.22,-400 333.22,-396.5 323.22,-393 323.22,-400"/>
</a>
</g>
</g>
<!-- Node6 -->
<g id="Node000006" class="node">
<title>Node6</title>
<g id="a_Node000006"><a xlink:href="classMC_1_1ParticlesContainer.html#a8e95993fb1287c04427780d6372be565" target="_top" xlink:title="Insert particle buffer into the main container.">
<polygon fill="white" stroke="#666666" points="635.5,-516 516.75,-516 516.75,-487 635.5,-487 635.5,-516"/>
<text xml:space="preserve" text-anchor="start" x="524.75" y="-502.5" font-family="Helvetica,sans-Serif" font-size="10.00">MC::ParticlesContainer</text>
<text xml:space="preserve" text-anchor="middle" x="576.12" y="-492" font-family="Helvetica,sans-Serif" font-size="10.00">::merge_buffer</text>
</a>
</g>
</g>
<!-- Node5&#45;&gt;Node6 -->
<g id="edge5_Node000005_Node000006" class="edge">
<title>Node5&#45;&gt;Node6</title>
<g id="a_edge5_Node000005_Node000006"><a xlink:title=" ">
<path fill="none" stroke="#63b8ff" d="M466.31,-476.39C479.04,-479.33 492.46,-482.43 505.35,-485.4"/>
<polygon fill="#63b8ff" stroke="#63b8ff" points="504.52,-488.8 515.05,-487.64 506.09,-481.98 504.52,-488.8"/>
</a>
</g>
</g>
<!-- Node9 -->
<g id="Node000009" class="node">
<title>Node9</title>
<g id="a_Node000009"><a xlink:href="classSimulation_1_1SimulationUnit.html#ae2077067788b0cb0535c62933724a1cf" target="_top" xlink:title=" ">
<polygon fill="white" stroke="#666666" points="641.88,-469 510.38,-469 510.38,-440 641.88,-440 641.88,-469"/>
<text xml:space="preserve" text-anchor="start" x="518.38" y="-455.5" font-family="Helvetica,sans-Serif" font-size="10.00">Simulation::SimulationUnit</text>
<text xml:space="preserve" text-anchor="middle" x="576.12" y="-445" font-family="Helvetica,sans-Serif" font-size="10.00">::scatter_contribute</text>
</a>
</g>
</g>
<!-- Node5&#45;&gt;Node9 -->
<g id="edge8_Node000005_Node000009" class="edge">
<title>Node5&#45;&gt;Node9</title>
<g id="a_edge8_Node000005_Node000009"><a xlink:title=" ">
<path fill="none" stroke="#63b8ff" d="M466.8,-458.87C477.17,-458.45 487.99,-458.02 498.6,-457.59"/>
<polygon fill="#63b8ff" stroke="#63b8ff" points="498.63,-461.09 508.48,-457.19 498.35,-454.1 498.63,-461.09"/>
</a>
</g>
</g>
<!-- Node11 -->
<g id="Node000011" class="node">
<title>Node11</title>
<g id="a_Node000011"><a xlink:href="classSimulation_1_1SimulationUnit.html#ac396f393b4cf318b38364c5067254c80" target="_top" xlink:title=" ">
<polygon fill="white" stroke="#666666" points="647.88,-422 504.38,-422 504.38,-393 647.88,-393 647.88,-422"/>
<text xml:space="preserve" text-anchor="start" x="512.38" y="-408.5" font-family="Helvetica,sans-Serif" font-size="10.00">Simulation::SimulationUnit</text>
<text xml:space="preserve" text-anchor="middle" x="576.12" y="-398" font-family="Helvetica,sans-Serif" font-size="10.00">::set_kernel_contribs_to_host</text>
</a>
</g>
</g>
<!-- Node5&#45;&gt;Node11 -->
<g id="edge10_Node000005_Node000011" class="edge">
<title>Node5&#45;&gt;Node11</title>
<g id="a_edge10_Node000005_Node000011"><a xlink:title=" ">
<path fill="none" stroke="#63b8ff" d="M449.58,-446.6C470.25,-440.17 494.63,-432.57 516.38,-425.8"/>
<polygon fill="#63b8ff" stroke="#63b8ff" points="517.19,-429.21 525.7,-422.89 515.11,-422.53 517.19,-429.21"/>
</a>
</g>
</g>
<!-- Node12 -->
<g id="Node000012" class="node">
<title>Node12</title>
<g id="a_Node000012"><a xlink:href="classMC_1_1ParticlesContainer.html#a0047f4c96b02ae4aeb9ebd8963129687" target="_top" xlink:title="Update the number of non&#45;idle particle and remove if total number exceeds threshold May call : remove...">
<polygon fill="white" stroke="#666666" points="649.75,-563 502.5,-563 502.5,-534 649.75,-534 649.75,-563"/>
<text xml:space="preserve" text-anchor="start" x="510.5" y="-549.5" font-family="Helvetica,sans-Serif" font-size="10.00">MC::ParticlesContainer</text>
<text xml:space="preserve" text-anchor="middle" x="576.12" y="-539" font-family="Helvetica,sans-Serif" font-size="10.00">::update_and_remove_inactive</text>
</a>
</g>
</g>
<!-- Node5&#45;&gt;Node12 -->
<g id="edge11_Node000005_Node000012" class="edge">
<title>Node5&#45;&gt;Node12</title>
<g id="a_edge11_Node000005_Node000012"><a xlink:title=" ">
<path fill="none" stroke="#63b8ff" d="M421.69,-476.37C441.4,-490.53 472.83,-511.66 502.5,-525.5 505.58,-526.93 508.77,-528.31 512.02,-529.63"/>
<polygon fill="#63b8ff" stroke="#63b8ff" points="510.53,-532.81 521.12,-533.1 513.02,-526.27 510.53,-532.81"/>
</a>
</g>
</g>
<!-- Node7 -->
<g id="Node000007" class="node">
<title>Node7</title>
<g id="a_Node000007"><a xlink:href="classMC_1_1ParticlesContainer.html#a57fa06d3225acf04522e3fc2993847f0" target="_top" xlink:title=" ">
<polygon fill="white" stroke="#666666" points="812.38,-516 693.62,-516 693.62,-487 812.38,-487 812.38,-516"/>
<text xml:space="preserve" text-anchor="start" x="701.62" y="-502.5" font-family="Helvetica,sans-Serif" font-size="10.00">MC::ParticlesContainer</text>
<text xml:space="preserve" text-anchor="middle" x="753" y="-492" font-family="Helvetica,sans-Serif" font-size="10.00">::__allocate_buffer__</text>
</a>
</g>
</g>
<!-- Node6&#45;&gt;Node7 -->
<g id="edge6_Node000006_Node000007" class="edge">
<title>Node6&#45;&gt;Node7</title>
<g id="a_edge6_Node000006_Node000007"><a xlink:title=" ">
<path fill="none" stroke="#63b8ff" d="M635.84,-501.5C650.55,-501.5 666.48,-501.5 681.68,-501.5"/>
<polygon fill="#63b8ff" stroke="#63b8ff" points="681.63,-505 691.63,-501.5 681.63,-498 681.63,-505"/>
</a>
</g>
</g>
<!-- Node8 -->
<g id="Node000008" class="node">
<title>Node8</title>
<g id="a_Node000008"><a xlink:href="classMC_1_1ParticlesContainer.html#a4fc94ae525191a5d034dce4866986c1e" target="_top" xlink:title=" ">
<polygon fill="white" stroke="#666666" points="982.12,-518 863.38,-518 863.38,-489 982.12,-489 982.12,-518"/>
<text xml:space="preserve" text-anchor="start" x="871.38" y="-504.5" font-family="Helvetica,sans-Serif" font-size="10.00">MC::ParticlesContainer</text>
<text xml:space="preserve" text-anchor="middle" x="922.75" y="-494" font-family="Helvetica,sans-Serif" font-size="10.00">::_resize</text>
</a>
</g>
</g>
<!-- Node6&#45;&gt;Node8 -->
<g id="edge7_Node000006_Node000008" class="edge">
<title>Node6&#45;&gt;Node8</title>
<g id="a_edge7_Node000006_Node000008"><a xlink:title=" ">
<path fill="none" stroke="#63b8ff" d="M635.96,-486.71C652,-483.32 669.45,-480.21 685.75,-478.5 745.2,-472.27 760.91,-471.3 820.25,-478.5 833.41,-480.1 847.32,-482.82 860.49,-485.89"/>
<polygon fill="#63b8ff" stroke="#63b8ff" points="859.33,-489.21 869.87,-488.18 860.99,-482.41 859.33,-489.21"/>
</a>
</g>
</g>
<!-- Node10 -->
<g id="Node000010" class="node">
<title>Node10</title>
<g id="a_Node000010"><a xlink:href="classSimulation_1_1SimulationUnit.html#a9ea90cab13d8259f026f57baad1c989f" target="_top" xlink:title=" ">
<polygon fill="white" stroke="#666666" points="818.75,-426 687.25,-426 687.25,-397 818.75,-397 818.75,-426"/>
<text xml:space="preserve" text-anchor="start" x="695.25" y="-412.5" font-family="Helvetica,sans-Serif" font-size="10.00">Simulation::SimulationUnit</text>
<text xml:space="preserve" text-anchor="middle" x="753" y="-402" font-family="Helvetica,sans-Serif" font-size="10.00">::get_kernel_contribution</text>
</a>
</g>
</g>
<!-- Node9&#45;&gt;Node10 -->
<g id="edge9_Node000009_Node000010" class="edge">
<title>Node9&#45;&gt;Node10</title>
<g id="a_edge9_Node000009_Node000010"><a xlink:title=" ">
<path fill="none" stroke="#63b8ff" d="M637.8,-439.58C651.42,-436.23 666,-432.65 680.03,-429.2"/>
<polygon fill="#63b8ff" stroke="#63b8ff" points="680.79,-432.61 689.67,-426.83 679.12,-425.82 680.79,-432.61"/>
</a>
</g>
</g>
<!-- Node13 -->
<g id="Node000013" class="node">
<title>Node13</title>
<g id="a_Node000013"><a xlink:href="classMC_1_1ParticlesContainer.html#a57353f823ed074869300f29deb5c50b2" target="_top" xlink:title="Removes inactive particles from the container.">
<polygon fill="white" stroke="#666666" points="820.25,-563 685.75,-563 685.75,-534 820.25,-534 820.25,-563"/>
<text xml:space="preserve" text-anchor="start" x="693.75" y="-549.5" font-family="Helvetica,sans-Serif" font-size="10.00">MC::ParticlesContainer</text>
<text xml:space="preserve" text-anchor="middle" x="753" y="-539" font-family="Helvetica,sans-Serif" font-size="10.00">::remove_inactive_particles</text>
</a>
</g>
</g>
<!-- Node12&#45;&gt;Node13 -->
<g id="edge12_Node000012_Node000013" class="edge">
<title>Node12&#45;&gt;Node13</title>
<g id="a_edge12_Node000012_Node000013"><a xlink:title=" ">
<path fill="none" stroke="#63b8ff" d="M650.02,-548.5C657.89,-548.5 665.92,-548.5 673.85,-548.5"/>
<polygon fill="#63b8ff" stroke="#63b8ff" points="673.85,-552 683.85,-548.5 673.85,-545 673.85,-552"/>
</a>
</g>
</g>
<!-- Node13&#45;&gt;Node8 -->
<g id="edge13_Node000013_Node000008" class="edge">
<title>Node13&#45;&gt;Node8</title>
<g id="a_edge13_Node000013_Node000008"><a xlink:title=" ">
<path fill="none" stroke="#63b8ff" d="M809.86,-533.52C824.35,-529.63 840.11,-525.4 855.1,-521.38"/>
<polygon fill="#63b8ff" stroke="#63b8ff" points="855.64,-524.86 864.39,-518.89 853.82,-518.1 855.64,-524.86"/>
</a>
</g>
</g>
<!-- Node14&#45;&gt;Node14 -->
<g id="edge15_Node000014_Node000014" class="edge">
<title>Node14&#45;&gt;Node14</title>
<g id="a_edge15_Node000014_Node000014"><a xlink:title=" ">
<path fill="none" stroke="#63b8ff" d="M371.56,-411.21C364.52,-420.32 374.25,-429 400.75,-429 415.24,-429 424.72,-426.41 429.18,-422.56"/>
<polygon fill="#63b8ff" stroke="#63b8ff" points="432.66,-422.93 429.84,-412.72 425.68,-422.46 432.66,-422.93"/>
</a>
</g>
</g>
<!-- Node14&#45;&gt;Node15 -->
<g id="edge16_Node000014_Node000015" class="edge">
<title>Node14&#45;&gt;Node15</title>
<g id="a_edge16_Node000014_Node000015"><a xlink:title=" ">
<path fill="none" stroke="#63b8ff" d="M466.8,-382.99C477.28,-380.82 488.22,-378.55 498.94,-376.32"/>
<polygon fill="#63b8ff" stroke="#63b8ff" points="499.44,-379.79 508.52,-374.33 498.01,-372.94 499.44,-379.79"/>
</a>
</g>
</g>
<!-- Node15&#45;&gt;Node10 -->
<g id="edge17_Node000015_Node000010" class="edge">
<title>Node15&#45;&gt;Node10</title>
<g id="a_edge17_Node000015_Node000010"><a xlink:title=" ">
<path fill="none" stroke="#63b8ff" d="M628.18,-375.39C647.4,-380.99 669.48,-387.43 689.62,-393.31"/>
<polygon fill="#63b8ff" stroke="#63b8ff" points="688.55,-396.64 699.13,-396.08 690.51,-389.92 688.55,-396.64"/>
</a>
</g>
</g>
<!-- Node16 -->
<g id="Node000016" class="node">
<title>Node16</title>
<g id="a_Node000016"><a xlink:href="classSimulation_1_1SimulationUnit.html#a36fb635150825e63055191740edaba84" target="_top" xlink:title=" ">
<polygon fill="white" stroke="#666666" points="818.75,-375 687.25,-375 687.25,-346 818.75,-346 818.75,-375"/>
<text xml:space="preserve" text-anchor="start" x="695.25" y="-361.5" font-family="Helvetica,sans-Serif" font-size="10.00">Simulation::SimulationUnit</text>
<text xml:space="preserve" text-anchor="middle" x="753" y="-351" font-family="Helvetica,sans-Serif" font-size="10.00">::post_init_concentration</text>
</a>
</g>
</g>
<!-- Node15&#45;&gt;Node16 -->
<g id="edge18_Node000015_Node000016" class="edge">
<title>Node15&#45;&gt;Node16</title>
<g id="a_edge18_Node000015_Node000016"><a xlink:title=" ">
<path fill="none" stroke="#63b8ff" d="M642.24,-360.5C653.05,-360.5 664.35,-360.5 675.41,-360.5"/>
<polygon fill="#63b8ff" stroke="#63b8ff" points="675.32,-364 685.32,-360.5 675.32,-357 675.32,-364"/>
</a>
</g>
</g>
<!-- Node17 -->
<g id="Node000017" class="node">
<title>Node17</title>
<g id="a_Node000017"><a xlink:href="namespaceSimulation_1_1impl.html#ab56eb92724f12b4ed6c401939009519c" target="_top" xlink:title=" ">
<polygon fill="white" stroke="#666666" points="980.62,-352 864.88,-352 864.88,-323 980.62,-323 980.62,-352"/>
<text xml:space="preserve" text-anchor="start" x="872.88" y="-338.5" font-family="Helvetica,sans-Serif" font-size="10.00">Simulation::impl::post</text>
<text xml:space="preserve" text-anchor="middle" x="922.75" y="-328" font-family="Helvetica,sans-Serif" font-size="10.00">_init_concentration_file</text>
</a>
</g>
</g>
<!-- Node16&#45;&gt;Node17 -->
<g id="edge19_Node000016_Node000017" class="edge">
<title>Node16&#45;&gt;Node17</title>
<g id="a_edge19_Node000016_Node000017"><a xlink:title=" ">
<path fill="none" stroke="#63b8ff" d="M818.86,-351.61C830.13,-350.06 841.88,-348.45 853.25,-346.89"/>
<polygon fill="#63b8ff" stroke="#63b8ff" points="853.52,-350.39 862.95,-345.56 852.57,-343.45 853.52,-350.39"/>
</a>
</g>
</g>
<!-- Node18 -->
<g id="Node000018" class="node">
<title>Node18</title>
<g id="a_Node000018"><a xlink:href="namespaceSimulation_1_1impl.html#ae40eba3a10cbceb62fe3e6980dcc193f" target="_top" xlink:title=" ">
<polygon fill="white" stroke="#666666" points="989.25,-399 856.25,-399 856.25,-370 989.25,-370 989.25,-399"/>
<text xml:space="preserve" text-anchor="start" x="864.25" y="-385.5" font-family="Helvetica,sans-Serif" font-size="10.00">Simulation::impl::post</text>
<text xml:space="preserve" text-anchor="middle" x="922.75" y="-375" font-family="Helvetica,sans-Serif" font-size="10.00">_init_concentration_functor</text>
</a>
</g>
</g>
<!-- Node16&#45;&gt;Node18 -->
<g id="edge20_Node000016_Node000018" class="edge">
<title>Node16&#45;&gt;Node18</title>
<g id="a_edge20_Node000016_Node000018"><a xlink:title=" ">
<path fill="none" stroke="#63b8ff" d="M818.86,-369.78C827.32,-370.99 836.05,-372.24 844.69,-373.48"/>
<polygon fill="#63b8ff" stroke="#63b8ff" points="844.07,-376.92 854.46,-374.87 845.06,-369.99 844.07,-376.92"/>
</a>
</g>
</g>
<!-- Node19&#45;&gt;Node19 -->
<g id="edge22_Node000019_Node000019" class="edge">
<title>Node19&#45;&gt;Node19</title>
<g id="a_edge22_Node000019_Node000019"><a xlink:title=" ">
<path fill="none" stroke="#63b8ff" d="M204.06,-307.21C197.02,-316.32 206.75,-325 233.25,-325 247.74,-325 257.22,-322.41 261.68,-318.56"/>
<polygon fill="#63b8ff" stroke="#63b8ff" points="265.16,-318.93 262.34,-308.72 258.18,-318.46 265.16,-318.93"/>
</a>
</g>
</g>
<!-- Node21 -->
<g id="Node000021" class="node">
<title>Node21</title>
<g id="a_Node000021"><a xlink:href="classSimulation_1_1SimulationUnit.html#a4295618336e99606be4e87b31feb848a" target="_top" xlink:title=" ">
<polygon fill="white" stroke="#666666" points="466.5,-260 335,-260 335,-231 466.5,-231 466.5,-260"/>
<text xml:space="preserve" text-anchor="start" x="343" y="-246.5" font-family="Helvetica,sans-Serif" font-size="10.00">Simulation::SimulationUnit</text>
<text xml:space="preserve" text-anchor="middle" x="400.75" y="-236" font-family="Helvetica,sans-Serif" font-size="10.00">::getkernel_concentration</text>
</a>
</g>
</g>
<!-- Node20&#45;&gt;Node21 -->
<g id="edge24_Node000020_Node000021" class="edge">
<title>Node20&#45;&gt;Node21</title>
<g id="a_edge24_Node000020_Node000021"><a xlink:title=" ">
<path fill="none" stroke="#63b8ff" d="M299.18,-245.5C307.13,-245.5 315.29,-245.5 323.38,-245.5"/>
<polygon fill="#63b8ff" stroke="#63b8ff" points="323.22,-249 333.22,-245.5 323.22,-242 323.22,-249"/>
</a>
</g>
</g>
<!-- Node25&#45;&gt;Node26 -->
<g id="edge30_Node000025_Node000026" class="edge">
<title>Node25&#45;&gt;Node26</title>
<g id="a_edge30_Node000025_Node000026"><a xlink:title=" ">
<path fill="none" stroke="#63b8ff" d="M291.67,-33.42C304.43,-36.73 318.09,-40.28 331.25,-43.7"/>
<polygon fill="#63b8ff" stroke="#63b8ff" points="330.13,-47.03 340.69,-46.15 331.89,-40.25 330.13,-47.03"/>
</a>
</g>
</g>
<!-- Node27 -->
<g id="Node000027" class="node">
<title>Node27</title>
<g id="a_Node000027"><a xlink:href="classSimulation_1_1SimulationUnit.html#a325bd66b0afbb76176a6f8c607d9902b" target="_top" xlink:title=" ">
<polygon fill="white" stroke="#666666" points="466.5,-29 335,-29 335,0 466.5,0 466.5,-29"/>
<text xml:space="preserve" text-anchor="start" x="343" y="-15.5" font-family="Helvetica,sans-Serif" font-size="10.00">Simulation::SimulationUnit</text>
<text xml:space="preserve" text-anchor="middle" x="400.75" y="-5" font-family="Helvetica,sans-Serif" font-size="10.00">::updateScalarHydro</text>
</a>
</g>
</g>
<!-- Node25&#45;&gt;Node27 -->
<g id="edge31_Node000025_Node000027" class="edge">
<title>Node25&#45;&gt;Node27</title>
<g id="a_edge31_Node000025_Node000027"><a xlink:title=" ">
<path fill="none" stroke="#63b8ff" d="M299.18,-16.93C307.13,-16.74 315.29,-16.54 323.38,-16.35"/>
<polygon fill="#63b8ff" stroke="#63b8ff" points="323.31,-19.85 333.22,-16.11 323.14,-12.85 323.31,-19.85"/>
</a>
</g>
</g>
</g>
</svg>
