<?xml version="1.0" encoding="UTF-8" standalone="no"?>
<!DOCTYPE svg PUBLIC "-//W3C//DTD SVG 1.1//EN"
 "http://www.w3.org/Graphics/SVG/1.1/DTD/svg11.dtd">
<!-- Generated by graphviz version 14.0.1 (0)
 -->
<!-- Title: CmaUtils::FlowMapTransitionner::common_advance Pages: 1 -->
<!--zoomable 219 -->

<svg id="main" version="1.1" xmlns="http://www.w3.org/2000/svg" xmlns:xlink="http://www.w3.org/1999/xlink" xml:space="preserve" onload="init(evt)">

<style type="text/css"><![CDATA[
.node, .edge {opacity: 0.7;}
.node.selected, .edge.selected {opacity: 1;}
.edge:hover path { stroke: red; }
.edge:hover polygon { stroke: red; fill: red; }
]]></style>

<defs>
  <circle id="rim" cx="0" cy="0" r="7"/>
  <circle id="rim2" cx="0" cy="0" r="3.5"/>
  <g id="zoomPlus">
    <use xlink:href="#rim" fill="#404040"><set attributeName="fill" to="#808080" begin="zoomplus.mouseover" end="zoomplus.mouseout"/></use>
    <path d="M-4,0h8M0,-4v8" fill="none" stroke="white" stroke-width="1.5" pointer-events="none"/>
  </g>
  <g id="zoomMin">
    <use xlink:href="#rim" fill="#404040"><set attributeName="fill" to="#808080" begin="zoomminus.mouseover" end="zoomminus.mouseout"/></use>
    <path d="M-4,0h8" fill="none" stroke="white" stroke-width="1.5" pointer-events="none"/>
  </g>
  <g id="arrowUp" transform="translate(30 24)">
    <use xlink:href="#rim"/>
    <path pointer-events="none" fill="none" stroke="white" stroke-width="1.5" d="M0,-3.0v7 M-2.5,-0.5L0,-3.0L2.5,-0.5"/>
  </g>
  <g id="arrowRight" transform="rotate(90) translate(36 -43)">
    <use xlink:href="#rim"/>
    <path pointer-events="none" fill="none" stroke="white" stroke-width="1.5" d="M0,-3.0v7 M-2.5,-0.5L0,-3.0L2.5,-0.5"/>
  </g>
  <g id="arrowDown" transform="rotate(180) translate(-30 -48)">
    <use xlink:href="#rim"/>
    <path pointer-events="none" fill="none" stroke="white" stroke-width="1.5" d="M0,-3.0v7 M-2.5,-0.5L0,-3.0L2.5,-0.5"/>
  </g>
  <g id="arrowLeft" transform="rotate(270) translate(-36 17)">
    <use xlink:href="#rim"/>
    <path pointer-events="none" fill="none" stroke="white" stroke-width="1.5" d="M0,-3.0v7 M-2.5,-0.5L0,-3.0L2.5,-0.5"/>
  </g>
  <g id="resetDef">
    <use xlink:href="#rim2" fill="#404040"><set attributeName="fill" to="#808080" begin="reset.mouseover" end="reset.mouseout"/></use>
  </g>
</defs>
<script type="application/ecmascript">
var viewWidth = 750;
var viewHeight = 219;
var sectionId = 'dynsection-10';
</script>
<script type="application/ecmascript" xlink:href="svg.min.js"/>
<svg id="graph" class="graph">
<g id="viewport">
<title>CmaUtils::FlowMapTransitionner::common_advance</title>
<!-- Node1 -->
<g id="Node000001" class="node">
<title>Node1</title>
<g id="a_Node000001"><a xlink:title="Operation required by all methods in order to perform advance function .">
<polygon fill="#999999" stroke="#666666" points="158.5,-76 0,-76 0,-47 158.5,-47 158.5,-76"/>
<text xml:space="preserve" text-anchor="start" x="8" y="-62.5" font-family="Helvetica,sans-Serif" font-size="10.00">CmaUtils::FlowMapTransitionner</text>
<text xml:space="preserve" text-anchor="middle" x="79.25" y="-52" font-family="Helvetica,sans-Serif" font-size="10.00">::common_advance</text>
</a>
</g>
</g>
<!-- Node2 -->
<g id="Node000002" class="node">
<title>Node2</title>
<g id="a_Node000002"><a xlink:href="classCmaUtils_1_1FlowMapTransitionner.html#a3dc7a76f36a1a0ada35bb8d1ca8f512c" target="_top" xlink:title="Get current gas state read from CmaRead.">
<polygon fill="white" stroke="#666666" points="353,-141 194.5,-141 194.5,-112 353,-112 353,-141"/>
<text xml:space="preserve" text-anchor="start" x="202.5" y="-127.5" font-family="Helvetica,sans-Serif" font-size="10.00">CmaUtils::FlowMapTransitionner</text>
<text xml:space="preserve" text-anchor="middle" x="273.75" y="-117" font-family="Helvetica,sans-Serif" font-size="10.00">::current_gas_hydro_state</text>
</a>
</g>
</g>
<!-- Node1&#45;&gt;Node2 -->
<g id="edge1_Node000001_Node000002" class="edge">
<title>Node1&#45;&gt;Node2</title>
<g id="a_edge1_Node000001_Node000002"><a xlink:title=" ">
<path fill="none" stroke="#63b8ff" d="M118.89,-76.43C140.92,-84.76 169.12,-95.11 194.5,-103.5 199.24,-105.07 204.16,-106.64 209.12,-108.18"/>
<polygon fill="#63b8ff" stroke="#63b8ff" points="207.95,-111.49 218.54,-111.07 210,-104.79 207.95,-111.49"/>
</a>
</g>
</g>
<!-- Node8 -->
<g id="Node000008" class="node">
<title>Node8</title>
<g id="a_Node000008"><a xlink:href="classCmaUtils_1_1FlowMapTransitionner.html#a33ea0931034223c04f4c1074ad1ee5aa" target="_top" xlink:title="Get current liquid state read from CmaRead.">
<polygon fill="white" stroke="#666666" points="353,-76 194.5,-76 194.5,-47 353,-47 353,-76"/>
<text xml:space="preserve" text-anchor="start" x="202.5" y="-62.5" font-family="Helvetica,sans-Serif" font-size="10.00">CmaUtils::FlowMapTransitionner</text>
<text xml:space="preserve" text-anchor="middle" x="273.75" y="-52" font-family="Helvetica,sans-Serif" font-size="10.00">::current_liq_hydro_state</text>
</a>
</g>
</g>
<!-- Node1&#45;&gt;Node8 -->
<g id="edge8_Node000001_Node000008" class="edge">
<title>Node1&#45;&gt;Node8</title>
<g id="a_edge8_Node000001_Node000008"><a xlink:title=" ">
<path fill="none" stroke="#63b8ff" d="M158.82,-61.5C166.74,-61.5 174.82,-61.5 182.84,-61.5"/>
<polygon fill="#63b8ff" stroke="#63b8ff" points="182.6,-65 192.6,-61.5 182.6,-58 182.6,-65"/>
</a>
</g>
</g>
<!-- Node9 -->
<g id="Node000009" class="node">
<title>Node9</title>
<g id="a_Node000009"><a xlink:href="classCmaUtils_1_1FlowMapTransitionner.html#adc33f9f202442f07fede2ffe1bb0ee6d" target="_top" xlink:title="Update flow and iteration counters.">
<polygon fill="white" stroke="#666666" points="353,-29 194.5,-29 194.5,0 353,0 353,-29"/>
<text xml:space="preserve" text-anchor="start" x="202.5" y="-15.5" font-family="Helvetica,sans-Serif" font-size="10.00">CmaUtils::FlowMapTransitionner</text>
<text xml:space="preserve" text-anchor="middle" x="273.75" y="-5" font-family="Helvetica,sans-Serif" font-size="10.00">::update_counters</text>
</a>
</g>
</g>
<!-- Node1&#45;&gt;Node9 -->
<g id="edge10_Node000001_Node000009" class="edge">
<title>Node1&#45;&gt;Node9</title>
<g id="a_edge10_Node000001_Node000009"><a xlink:title=" ">
<path fill="none" stroke="#63b8ff" d="M141.42,-46.56C160.19,-41.98 181.02,-36.9 200.46,-32.15"/>
<polygon fill="#63b8ff" stroke="#63b8ff" points="201.05,-35.61 209.94,-29.84 199.39,-28.81 201.05,-35.61"/>
</a>
</g>
</g>
<!-- Node2&#45;&gt;Node2 -->
<g id="edge4_Node000002_Node000002" class="edge">
<title>Node2&#45;&gt;Node2</title>
<g id="a_edge4_Node000002_Node000002"><a xlink:title=" ">
<path fill="none" stroke="#63b8ff" d="M239.85,-141.21C231.68,-150.32 242.98,-159 273.75,-159 290.58,-159 301.58,-156.41 306.76,-152.56"/>
<polygon fill="#63b8ff" stroke="#63b8ff" points="310.24,-152.96 307.53,-142.72 303.26,-152.41 310.24,-152.96"/>
</a>
</g>
</g>
<!-- Node3 -->
<g id="Node000003" class="node">
<title>Node3</title>
<g id="a_Node000003"><a xlink:href="classCmaUtils_1_1FlowMapTransitionner.html#ae24d277adf0085d83cd09644149f31b6" target="_top" xlink:title="Calculate the whole state (liquid+gas+neighbor) for the current time step.">
<polygon fill="white" stroke="#666666" points="547.5,-211 389,-211 389,-182 547.5,-182 547.5,-211"/>
<text xml:space="preserve" text-anchor="start" x="397" y="-197.5" font-family="Helvetica,sans-Serif" font-size="10.00">CmaUtils::FlowMapTransitionner</text>
<text xml:space="preserve" text-anchor="middle" x="468.25" y="-187" font-family="Helvetica,sans-Serif" font-size="10.00">::calculate_full_state</text>
</a>
</g>
</g>
<!-- Node2&#45;&gt;Node3 -->
<g id="edge2_Node000002_Node000003" class="edge">
<title>Node2&#45;&gt;Node3</title>
<g id="a_edge2_Node000002_Node000003"><a xlink:title=" ">
<path fill="none" stroke="#63b8ff" d="M308.39,-141.42C330.96,-151.17 361.48,-163.83 389,-173.5 393.43,-175.06 398.03,-176.6 402.68,-178.1"/>
<polygon fill="#63b8ff" stroke="#63b8ff" points="401.52,-181.41 412.11,-181.07 403.62,-174.73 401.52,-181.41"/>
</a>
</g>
</g>
<!-- Node5 -->
<g id="Node000005" class="node">
<title>Node5</title>
<g id="a_Node000005"><a xlink:href="classCmaUtils_1_1FlowMapTransitionner.html#adef8e20a97054d14eba0521ca20829f6" target="_top" xlink:title="Direct read state from iterator.">
<polygon fill="white" stroke="#666666" points="547.5,-164 389,-164 389,-135 547.5,-135 547.5,-164"/>
<text xml:space="preserve" text-anchor="start" x="397" y="-150.5" font-family="Helvetica,sans-Serif" font-size="10.00">CmaUtils::FlowMapTransitionner</text>
<text xml:space="preserve" text-anchor="middle" x="468.25" y="-140" font-family="Helvetica,sans-Serif" font-size="10.00">::get_unchecked</text>
</a>
</g>
</g>
<!-- Node2&#45;&gt;Node5 -->
<g id="edge5_Node000002_Node000005" class="edge">
<title>Node2&#45;&gt;Node5</title>
<g id="a_edge5_Node000002_Node000005"><a xlink:title=" ">
<path fill="none" stroke="#63b8ff" d="M353.32,-135.89C361.24,-136.83 369.32,-137.8 377.34,-138.76"/>
<polygon fill="#63b8ff" stroke="#63b8ff" points="376.77,-142.21 387.11,-139.93 377.6,-135.26 376.77,-142.21"/>
</a>
</g>
</g>
<!-- Node6 -->
<g id="Node000006" class="node">
<title>Node6</title>
<g id="a_Node000006"><a xlink:href="classCmaUtils_1_1FlowMapTransitionner.html#a95f2c1ce2a5c0dcccb0e0be0341fa466" target="_top" xlink:title="Return the index of the current ProxyPreCalculatedHydroState.">
<polygon fill="white" stroke="#666666" points="547.5,-117 389,-117 389,-88 547.5,-88 547.5,-117"/>
<text xml:space="preserve" text-anchor="start" x="397" y="-103.5" font-family="Helvetica,sans-Serif" font-size="10.00">CmaUtils::FlowMapTransitionner</text>
<text xml:space="preserve" text-anchor="middle" x="468.25" y="-93" font-family="Helvetica,sans-Serif" font-size="10.00">::getFlowIndex</text>
</a>
</g>
</g>
<!-- Node2&#45;&gt;Node6 -->
<g id="edge6_Node000002_Node000006" class="edge">
<title>Node2&#45;&gt;Node6</title>
<g id="a_edge6_Node000002_Node000006"><a xlink:title=" ">
<path fill="none" stroke="#63b8ff" d="M353.32,-116.7C361.24,-115.72 369.32,-114.71 377.34,-113.71"/>
<polygon fill="#63b8ff" stroke="#63b8ff" points="377.62,-117.2 387.11,-112.49 376.76,-110.26 377.62,-117.2"/>
</a>
</g>
</g>
<!-- Node7 -->
<g id="Node000007" class="node">
<title>Node7</title>
<g id="a_Node000007"><a xlink:href="classCmaUtils_1_1FlowMapTransitionner.html#acac9006d49f9cee106f3b6769ed29ba2" target="_top" xlink:title="Get the number of load flowmap.">
<polygon fill="white" stroke="#666666" points="547.5,-70 389,-70 389,-41 547.5,-41 547.5,-70"/>
<text xml:space="preserve" text-anchor="start" x="397" y="-56.5" font-family="Helvetica,sans-Serif" font-size="10.00">CmaUtils::FlowMapTransitionner</text>
<text xml:space="preserve" text-anchor="middle" x="468.25" y="-46" font-family="Helvetica,sans-Serif" font-size="10.00">::size</text>
</a>
</g>
</g>
<!-- Node2&#45;&gt;Node7 -->
<g id="edge7_Node000002_Node000007" class="edge">
<title>Node2&#45;&gt;Node7</title>
<g id="a_edge7_Node000002_Node000007"><a xlink:title=" ">
<path fill="none" stroke="#63b8ff" d="M332.75,-111.61C339.69,-109.2 346.59,-106.5 353,-103.5 370.42,-95.36 371.62,-87.74 389,-79.5 392.75,-77.72 396.67,-76.04 400.66,-74.45"/>
<polygon fill="#63b8ff" stroke="#63b8ff" points="401.78,-77.76 409.93,-70.99 399.33,-71.2 401.78,-77.76"/>
</a>
</g>
</g>
<!-- Node4 -->
<g id="Node000004" class="node">
<title>Node4</title>
<g id="a_Node000004"><a xlink:href="classCmaUtils_1_1FlowMapTransitionner.html#abb98a83b7db34307ef4e59ed7e33a71a" target="_top" xlink:title="Checks whether a gas flowmap is provided.">
<polygon fill="white" stroke="#666666" points="742,-211 583.5,-211 583.5,-182 742,-182 742,-211"/>
<text xml:space="preserve" text-anchor="start" x="591.5" y="-197.5" font-family="Helvetica,sans-Serif" font-size="10.00">CmaUtils::FlowMapTransitionner</text>
<text xml:space="preserve" text-anchor="middle" x="662.75" y="-187" font-family="Helvetica,sans-Serif" font-size="10.00">::is_two_phase_flow</text>
</a>
</g>
</g>
<!-- Node3&#45;&gt;Node4 -->
<g id="edge3_Node000003_Node000004" class="edge">
<title>Node3&#45;&gt;Node4</title>
<g id="a_edge3_Node000003_Node000004"><a xlink:title=" ">
<path fill="none" stroke="#63b8ff" d="M547.82,-196.5C555.74,-196.5 563.82,-196.5 571.84,-196.5"/>
<polygon fill="#63b8ff" stroke="#63b8ff" points="571.6,-200 581.6,-196.5 571.6,-193 571.6,-200"/>
</a>
</g>
</g>
<!-- Node8&#45;&gt;Node8 -->
<g id="edge9_Node000008_Node000008" class="edge">
<title>Node8&#45;&gt;Node8</title>
<g id="a_edge9_Node000008_Node000008"><a xlink:title=" ">
<path fill="none" stroke="#63b8ff" d="M239.85,-76.21C231.68,-85.32 242.98,-94 273.75,-94 290.58,-94 301.58,-91.41 306.76,-87.56"/>
<polygon fill="#63b8ff" stroke="#63b8ff" points="310.24,-87.96 307.53,-77.72 303.26,-87.41 310.24,-87.96"/>
</a>
</g>
</g>
</g>
</svg>

<g id="navigator" transform="translate(0 0)" fill="#404254">
  <rect fill="#f2f5e9" fill-opacity="0.5" stroke="#606060" stroke-width=".5" x="0" y="0" width="60" height="60"/>
  <use id="zoomplus" xlink:href="#zoomPlus" x="17" y="9" onmousedown="handleZoom(evt,'in')"/>
  <use id="zoomminus" xlink:href="#zoomMin" x="42" y="9" onmousedown="handleZoom(evt,'out')"/>
  <use id="reset" xlink:href="#resetDef" x="30" y="36" onmousedown="handleReset()"/>
   <use id="arrowup" xlink:href="#arrowUp" x="0" y="0" onmousedown="handlePan(0,-1)"/>
  <use id="arrowright" xlink:href="#arrowRight" x="0" y="0" onmousedown="handlePan(1,0)"/>
  <use id="arrowdown" xlink:href="#arrowDown" x="0" y="0" onmousedown="handlePan(0,1)"/>
  <use id="arrowleft" xlink:href="#arrowLeft" x="0" y="0" onmousedown="handlePan(-1,0)"/>
</g>
<svg viewBox="0 0 15 15" width="100%" height="30px" preserveAspectRatio="xMaxYMin meet">
 <g id="arrow_out" transform="scale(0.3 0.3)">
  <a xlink:href="classCmaUtils_1_1FlowMapTransitionner_a52f9717655f1b6aa9891b6c23cc6bf3f_cgraph_org.svg" target="_base">
   <rect id="button" ry="5" rx="5" y="6" x="6" height="38" width="38"
        fill="#f2f5e9" fill-opacity="0.5" stroke="#606060" stroke-width="1.0"/>
   <path id="arrow"
     d="M 11.500037,31.436501 C 11.940474,20.09759 22.043105,11.32322 32.158766,21.979434 L 37.068811,17.246167 C 37.068811,17.246167 37.088388,32 37.088388,32 L 22.160133,31.978069 C 22.160133,31.978069 26.997745,27.140456 26.997745,27.140456 C 18.528582,18.264221 13.291696,25.230495 11.500037,31.436501 z"
     style="fill:#404040;"/>
  </a>
 </g>
</svg>

<style type='text/css'>
<![CDATA[
[data-mouse-over-selected='false'] { opacity: 0.7; }
[data-mouse-over-selected='true']  { opacity: 1.0; }
]]>
</style>
<script type="application/ecmascript"><![CDATA[
document.addEventListener('DOMContentLoaded', (event) => {
  highlightEdges();
  highlightAdjacentNodes();
});
]]></script>
</svg>
