<?xml version="1.0" encoding="UTF-8" standalone="no"?>
<!DOCTYPE svg PUBLIC "-//W3C//DTD SVG 1.1//EN"
 "http://www.w3.org/Graphics/SVG/1.1/DTD/svg11.dtd">
<!-- Generated by graphviz version 14.0.1 (0)
 -->
<!-- Title: Simulation::SimulationUnit::post_cycle Pages: 1 -->
<svg width="648pt" height="197pt"
 viewBox="0.00 0.00 648.00 197.00" xmlns="http://www.w3.org/2000/svg" xmlns:xlink="http://www.w3.org/1999/xlink">
<g id="graph0" class="graph" transform="scale(1 1) rotate(0) translate(4 193)">
<title>Simulation::SimulationUnit::post_cycle</title>
<!-- Node1 -->
<g id="Node000001" class="node">
<title>Node1</title>
<g id="a_Node000001"><a xlink:title=" ">
<polygon fill="#999999" stroke="#666666" points="131.5,-99 0,-99 0,-70 131.5,-70 131.5,-99"/>
<text xml:space="preserve" text-anchor="start" x="8" y="-85.5" font-family="Helvetica,sans-Serif" font-size="10.00">Simulation::SimulationUnit</text>
<text xml:space="preserve" text-anchor="middle" x="65.75" y="-75" font-family="Helvetica,sans-Serif" font-size="10.00">::post_cycle</text>
</a>
</g>
</g>
<!-- Node2 -->
<g id="Node000002" class="node">
<title>Node2</title>
<g id="a_Node000002"><a xlink:href="classMC_1_1ParticlesContainer.html#a8e95993fb1287c04427780d6372be565" target="_top" xlink:title="Insert particle buffer into the main container.">
<polygon fill="white" stroke="#666666" points="300.5,-170 181.75,-170 181.75,-141 300.5,-141 300.5,-170"/>
<text xml:space="preserve" text-anchor="start" x="189.75" y="-156.5" font-family="Helvetica,sans-Serif" font-size="10.00">MC::ParticlesContainer</text>
<text xml:space="preserve" text-anchor="middle" x="241.12" y="-146" font-family="Helvetica,sans-Serif" font-size="10.00">::merge_buffer</text>
</a>
</g>
</g>
<!-- Node1&#45;&gt;Node2 -->
<g id="edge1_Node000001_Node000002" class="edge">
<title>Node1&#45;&gt;Node2</title>
<g id="a_edge1_Node000001_Node000002"><a xlink:title=" ">
<path fill="none" stroke="#63b8ff" d="M95.38,-99.44C115.29,-109.51 142.63,-122.69 167.5,-132.5 171.29,-134 175.22,-135.46 179.2,-136.89"/>
<polygon fill="#63b8ff" stroke="#63b8ff" points="177.78,-140.1 188.37,-140.06 180.07,-133.48 177.78,-140.1"/>
</a>
</g>
</g>
<!-- Node5 -->
<g id="Node000005" class="node">
<title>Node5</title>
<g id="a_Node000005"><a xlink:href="classSimulation_1_1SimulationUnit.html#ae2077067788b0cb0535c62933724a1cf" target="_top" xlink:title=" ">
<polygon fill="white" stroke="#666666" points="306.88,-123 175.38,-123 175.38,-94 306.88,-94 306.88,-123"/>
<text xml:space="preserve" text-anchor="start" x="183.38" y="-109.5" font-family="Helvetica,sans-Serif" font-size="10.00">Simulation::SimulationUnit</text>
<text xml:space="preserve" text-anchor="middle" x="241.12" y="-99" font-family="Helvetica,sans-Serif" font-size="10.00">::scatter_contribute</text>
</a>
</g>
</g>
<!-- Node1&#45;&gt;Node5 -->
<g id="edge4_Node000001_Node000005" class="edge">
<title>Node1&#45;&gt;Node5</title>
<g id="a_edge4_Node000001_Node000005"><a xlink:title=" ">
<path fill="none" stroke="#63b8ff" d="M131.8,-93.5C142.17,-94.94 152.99,-96.44 163.6,-97.91"/>
<polygon fill="#63b8ff" stroke="#63b8ff" points="163.11,-101.37 173.5,-99.28 164.07,-94.44 163.11,-101.37"/>
</a>
</g>
</g>
<!-- Node7 -->
<g id="Node000007" class="node">
<title>Node7</title>
<g id="a_Node000007"><a xlink:href="classSimulation_1_1SimulationUnit.html#ac396f393b4cf318b38364c5067254c80" target="_top" xlink:title=" ">
<polygon fill="white" stroke="#666666" points="312.88,-76 169.38,-76 169.38,-47 312.88,-47 312.88,-76"/>
<text xml:space="preserve" text-anchor="start" x="177.38" y="-62.5" font-family="Helvetica,sans-Serif" font-size="10.00">Simulation::SimulationUnit</text>
<text xml:space="preserve" text-anchor="middle" x="241.12" y="-52" font-family="Helvetica,sans-Serif" font-size="10.00">::set_kernel_contribs_to_host</text>
</a>
</g>
</g>
<!-- Node1&#45;&gt;Node7 -->
<g id="edge6_Node000001_Node000007" class="edge">
<title>Node1&#45;&gt;Node7</title>
<g id="a_edge6_Node000001_Node000007"><a xlink:title=" ">
<path fill="none" stroke="#63b8ff" d="M131.8,-75.87C140.22,-74.75 148.93,-73.6 157.58,-72.45"/>
<polygon fill="#63b8ff" stroke="#63b8ff" points="157.94,-75.93 167.4,-71.15 157.02,-68.99 157.94,-75.93"/>
</a>
</g>
</g>
<!-- Node8 -->
<g id="Node000008" class="node">
<title>Node8</title>
<g id="a_Node000008"><a xlink:href="classMC_1_1ParticlesContainer.html#a0047f4c96b02ae4aeb9ebd8963129687" target="_top" xlink:title="Update the number of non&#45;idle particle and remove if total number exceeds threshold May call : remove...">
<polygon fill="white" stroke="#666666" points="314.75,-29 167.5,-29 167.5,0 314.75,0 314.75,-29"/>
<text xml:space="preserve" text-anchor="start" x="175.5" y="-15.5" font-family="Helvetica,sans-Serif" font-size="10.00">MC::ParticlesContainer</text>
<text xml:space="preserve" text-anchor="middle" x="241.12" y="-5" font-family="Helvetica,sans-Serif" font-size="10.00">::update_and_remove_inactive</text>
</a>
</g>
</g>
<!-- Node1&#45;&gt;Node8 -->
<g id="edge7_Node000001_Node000008" class="edge">
<title>Node1&#45;&gt;Node8</title>
<g id="a_edge7_Node000001_Node000008"><a xlink:title=" ">
<path fill="none" stroke="#63b8ff" d="M95.85,-69.7C115.74,-59.89 142.86,-47.1 167.5,-37.5 171.3,-36.02 175.23,-34.56 179.22,-33.15"/>
<polygon fill="#63b8ff" stroke="#63b8ff" points="180.07,-36.55 188.39,-29.99 177.8,-29.93 180.07,-36.55"/>
</a>
</g>
</g>
<!-- Node3 -->
<g id="Node000003" class="node">
<title>Node3</title>
<g id="a_Node000003"><a xlink:href="classMC_1_1ParticlesContainer.html#a57fa06d3225acf04522e3fc2993847f0" target="_top" xlink:title=" ">
<polygon fill="white" stroke="#666666" points="477.38,-189 358.62,-189 358.62,-160 477.38,-160 477.38,-189"/>
<text xml:space="preserve" text-anchor="start" x="366.62" y="-175.5" font-family="Helvetica,sans-Serif" font-size="10.00">MC::ParticlesContainer</text>
<text xml:space="preserve" text-anchor="middle" x="418" y="-165" font-family="Helvetica,sans-Serif" font-size="10.00">::__allocate_buffer__</text>
</a>
</g>
</g>
<!-- Node2&#45;&gt;Node3 -->
<g id="edge2_Node000002_Node000003" class="edge">
<title>Node2&#45;&gt;Node3</title>
<g id="a_edge2_Node000002_Node000003"><a xlink:title=" ">
<path fill="none" stroke="#63b8ff" d="M300.84,-161.88C315.69,-163.49 331.79,-165.24 347.13,-166.91"/>
<polygon fill="#63b8ff" stroke="#63b8ff" points="346.32,-170.34 356.64,-167.94 347.07,-163.38 346.32,-170.34"/>
</a>
</g>
</g>
<!-- Node4 -->
<g id="Node000004" class="node">
<title>Node4</title>
<g id="a_Node000004"><a xlink:href="classMC_1_1ParticlesContainer.html#a4fc94ae525191a5d034dce4866986c1e" target="_top" xlink:title=" ">
<polygon fill="white" stroke="#666666" points="640,-97 521.25,-97 521.25,-68 640,-68 640,-97"/>
<text xml:space="preserve" text-anchor="start" x="529.25" y="-83.5" font-family="Helvetica,sans-Serif" font-size="10.00">MC::ParticlesContainer</text>
<text xml:space="preserve" text-anchor="middle" x="580.62" y="-73" font-family="Helvetica,sans-Serif" font-size="10.00">::_resize</text>
</a>
</g>
</g>
<!-- Node2&#45;&gt;Node4 -->
<g id="edge3_Node000002_Node000004" class="edge">
<title>Node2&#45;&gt;Node4</title>
<g id="a_edge3_Node000002_Node000004"><a xlink:title=" ">
<path fill="none" stroke="#63b8ff" d="M300.54,-147.39C350.08,-139.99 422.82,-127.87 485.25,-112.5 498.55,-109.22 512.72,-105.08 525.92,-100.93"/>
<polygon fill="#63b8ff" stroke="#63b8ff" points="526.85,-104.31 535.3,-97.92 524.71,-97.64 526.85,-104.31"/>
</a>
</g>
</g>
<!-- Node6 -->
<g id="Node000006" class="node">
<title>Node6</title>
<g id="a_Node000006"><a xlink:href="classSimulation_1_1SimulationUnit.html#a9ea90cab13d8259f026f57baad1c989f" target="_top" xlink:title=" ">
<polygon fill="white" stroke="#666666" points="483.75,-103 352.25,-103 352.25,-74 483.75,-74 483.75,-103"/>
<text xml:space="preserve" text-anchor="start" x="360.25" y="-89.5" font-family="Helvetica,sans-Serif" font-size="10.00">Simulation::SimulationUnit</text>
<text xml:space="preserve" text-anchor="middle" x="418" y="-79" font-family="Helvetica,sans-Serif" font-size="10.00">::get_kernel_contribution</text>
</a>
</g>
</g>
<!-- Node5&#45;&gt;Node6 -->
<g id="edge5_Node000005_Node000006" class="edge">
<title>Node5&#45;&gt;Node6</title>
<g id="a_edge5_Node000005_Node000006"><a xlink:title=" ">
<path fill="none" stroke="#63b8ff" d="M307.24,-101.05C318.05,-99.82 329.35,-98.52 340.41,-97.26"/>
<polygon fill="#63b8ff" stroke="#63b8ff" points="340.79,-100.74 350.32,-96.13 339.99,-93.78 340.79,-100.74"/>
</a>
</g>
</g>
<!-- Node9 -->
<g id="Node000009" class="node">
<title>Node9</title>
<g id="a_Node000009"><a xlink:href="classMC_1_1ParticlesContainer.html#a57353f823ed074869300f29deb5c50b2" target="_top" xlink:title="Removes inactive particles from the container.">
<polygon fill="white" stroke="#666666" points="485.25,-52 350.75,-52 350.75,-23 485.25,-23 485.25,-52"/>
<text xml:space="preserve" text-anchor="start" x="358.75" y="-38.5" font-family="Helvetica,sans-Serif" font-size="10.00">MC::ParticlesContainer</text>
<text xml:space="preserve" text-anchor="middle" x="418" y="-28" font-family="Helvetica,sans-Serif" font-size="10.00">::remove_inactive_particles</text>
</a>
</g>
</g>
<!-- Node8&#45;&gt;Node9 -->
<g id="edge8_Node000008_Node000009" class="edge">
<title>Node8&#45;&gt;Node9</title>
<g id="a_edge8_Node000008_Node000009"><a xlink:title=" ">
<path fill="none" stroke="#63b8ff" d="M315.02,-24.09C322.98,-25.13 331.11,-26.2 339.13,-27.26"/>
<polygon fill="#63b8ff" stroke="#63b8ff" points="338.5,-30.7 348.87,-28.54 339.41,-23.76 338.5,-30.7"/>
</a>
</g>
</g>
<!-- Node9&#45;&gt;Node4 -->
<g id="edge9_Node000009_Node000004" class="edge">
<title>Node9&#45;&gt;Node4</title>
<g id="a_edge9_Node000009_Node000004"><a xlink:title=" ">
<path fill="none" stroke="#63b8ff" d="M472.49,-52.48C486.23,-56.34 501.16,-60.52 515.39,-64.5"/>
<polygon fill="#63b8ff" stroke="#63b8ff" points="514.07,-67.77 524.64,-67.1 515.96,-61.03 514.07,-67.77"/>
</a>
</g>
</g>
</g>
</svg>
