<?xml version="1.0" encoding="UTF-8" standalone="no"?>
<!DOCTYPE svg PUBLIC "-//W3C//DTD SVG 1.1//EN"
 "http://www.w3.org/Graphics/SVG/1.1/DTD/svg11.dtd">
<!-- Generated by graphviz version 14.0.1 (0)
 -->
<!-- Title: Simulation::SimulationUnit Pages: 1 -->
<svg width="389pt" height="121pt"
 viewBox="0.00 0.00 389.00 121.00" xmlns="http://www.w3.org/2000/svg" xmlns:xlink="http://www.w3.org/1999/xlink">
<g id="graph0" class="graph" transform="scale(1 1) rotate(0) translate(4 116.75)">
<title>Simulation::SimulationUnit</title>
<!-- Node1 -->
<g id="Node000001" class="node">
<title>Node1</title>
<g id="a_Node000001"><a xlink:title=" ">
<polygon fill="#999999" stroke="#666666" points="380.75,-70.75 249.25,-70.75 249.25,-52.25 380.75,-52.25 380.75,-70.75"/>
<text xml:space="preserve" text-anchor="middle" x="315" y="-57.25" font-family="Helvetica,sans-Serif" font-size="10.00">Simulation::SimulationUnit</text>
</a>
</g>
</g>
<!-- Node2 -->
<g id="Node000002" class="node">
<title>Node2</title>
<g id="a_Node000002"><a xlink:href="classSimulation_1_1Feed_1_1SimulationFeed.html" target="_top" xlink:title=" ">
<polygon fill="white" stroke="#666666" points="163,-112.75 0,-112.75 0,-94.25 163,-94.25 163,-112.75"/>
<text xml:space="preserve" text-anchor="middle" x="81.5" y="-99.25" font-family="Helvetica,sans-Serif" font-size="10.00">Simulation::Feed::SimulationFeed</text>
</a>
</g>
</g>
<!-- Node2&#45;&gt;Node1 -->
<g id="edge1_Node000001_Node000002" class="edge">
<title>Node2&#45;&gt;Node1</title>
<g id="a_edge1_Node000001_Node000002"><a xlink:title=" ">
<path fill="none" stroke="#9a32cd" stroke-dasharray="5,2" d="M168.55,-92.12C189.15,-89.03 211.03,-85.43 231.25,-81.5 246.34,-78.57 262.82,-74.72 277.08,-71.18"/>
<polygon fill="#9a32cd" stroke="#9a32cd" points="168.13,-88.65 158.75,-93.57 169.15,-95.57 168.13,-88.65"/>
</a>
</g>
<text xml:space="preserve" text-anchor="start" x="196.75" y="-94" font-family="Helvetica,sans-Serif" font-size="10.00" fill="grey">feed</text>
</g>
<!-- Node3 -->
<g id="Node000003" class="node">
<title>Node3</title>
<g id="a_Node000003"><a xlink:href="classSimulation_1_1MassTransfer_1_1MassTransferModel.html" target="_top" xlink:title=" ">
<polygon fill="white" stroke="#666666" points="145,-76 18,-76 18,-47 145,-47 145,-76"/>
<text xml:space="preserve" text-anchor="start" x="26" y="-62.5" font-family="Helvetica,sans-Serif" font-size="10.00">Simulation::MassTransfer</text>
<text xml:space="preserve" text-anchor="middle" x="81.5" y="-52" font-family="Helvetica,sans-Serif" font-size="10.00">::MassTransferModel</text>
</a>
</g>
</g>
<!-- Node3&#45;&gt;Node1 -->
<g id="edge2_Node000001_Node000003" class="edge">
<title>Node3&#45;&gt;Node1</title>
<g id="a_edge2_Node000001_Node000003"><a xlink:title=" ">
<path fill="none" stroke="#9a32cd" stroke-dasharray="5,2" d="M156.62,-61.5C186.35,-61.5 220.3,-61.5 249.04,-61.5"/>
<polygon fill="#9a32cd" stroke="#9a32cd" points="156.97,-58 146.97,-61.5 156.97,-65 156.97,-58"/>
</a>
</g>
<text xml:space="preserve" text-anchor="start" x="184.75" y="-65.5" font-family="Helvetica,sans-Serif" font-size="10.00" fill="grey">mt_model</text>
</g>
<!-- Node4 -->
<g id="Node000004" class="node">
<title>Node4</title>
<g id="a_Node000004"><a xlink:href="structSimulation_1_1KernelInline_1_1MoveInfo.html" target="_top" xlink:title=" ">
<polygon fill="white" stroke="#666666" points="155.12,-29 7.88,-29 7.88,0 155.12,0 155.12,-29"/>
<text xml:space="preserve" text-anchor="start" x="15.88" y="-15.5" font-family="Helvetica,sans-Serif" font-size="10.00">Simulation::KernelInline</text>
<text xml:space="preserve" text-anchor="middle" x="81.5" y="-5" font-family="Helvetica,sans-Serif" font-size="10.00">::MoveInfo&lt; ComputeSpace &gt;</text>
</a>
</g>
</g>
<!-- Node4&#45;&gt;Node1 -->
<g id="edge3_Node000001_Node000004" class="edge">
<title>Node4&#45;&gt;Node1</title>
<g id="a_edge3_Node000001_Node000004"><a xlink:title=" ">
<path fill="none" stroke="#9a32cd" stroke-dasharray="5,2" d="M166.57,-28.47C187.74,-32.26 210.37,-36.56 231.25,-41 246.31,-44.2 262.79,-48.19 277.05,-51.79"/>
<polygon fill="#9a32cd" stroke="#9a32cd" points="167.27,-25.04 156.81,-26.74 166.05,-31.93 167.27,-25.04"/>
</a>
</g>
<text xml:space="preserve" text-anchor="start" x="184" y="-45" font-family="Helvetica,sans-Serif" font-size="10.00" fill="grey">move_info</text>
</g>
</g>
</svg>
