<?xml version="1.0" encoding="UTF-8" standalone="no"?>
<!DOCTYPE svg PUBLIC "-//W3C//DTD SVG 1.1//EN"
 "http://www.w3.org/Graphics/SVG/1.1/DTD/svg11.dtd">
<!-- Generated by graphviz version 14.0.1 (0)
 -->
<!-- Title: MC::ParticlesContainer::__shrink__ Pages: 1 -->
<svg width="617pt" height="84pt"
 viewBox="0.00 0.00 617.00 84.00" xmlns="http://www.w3.org/2000/svg" xmlns:xlink="http://www.w3.org/1999/xlink">
<g id="graph0" class="graph" transform="scale(1 1) rotate(0) translate(4 80)">
<title>MC::ParticlesContainer::__shrink__</title>
<!-- Node1 -->
<g id="Node000001" class="node">
<title>Node1</title>
<g id="a_Node000001"><a xlink:title=" ">
<polygon fill="#999999" stroke="#666666" points="608.5,-52 489.75,-52 489.75,-23 608.5,-23 608.5,-52"/>
<text xml:space="preserve" text-anchor="start" x="497.75" y="-38.5" font-family="Helvetica,sans-Serif" font-size="10.00">MC::ParticlesContainer</text>
<text xml:space="preserve" text-anchor="middle" x="549.12" y="-28" font-family="Helvetica,sans-Serif" font-size="10.00">::__shrink__</text>
</a>
</g>
</g>
<!-- Node2 -->
<g id="Node000002" class="node">
<title>Node2</title>
<g id="a_Node000002"><a xlink:href="classMC_1_1ParticlesContainer.html#acca450f3c529a6e6962d76f8f39011e8" target="_top" xlink:title=" ">
<polygon fill="white" stroke="#666666" points="453.75,-52 335,-52 335,-23 453.75,-23 453.75,-52"/>
<text xml:space="preserve" text-anchor="start" x="343" y="-38.5" font-family="Helvetica,sans-Serif" font-size="10.00">MC::ParticlesContainer</text>
<text xml:space="preserve" text-anchor="middle" x="394.38" y="-28" font-family="Helvetica,sans-Serif" font-size="10.00">::clean_dead</text>
</a>
</g>
</g>
<!-- Node1&#45;&gt;Node2 -->
<g id="edge1_Node000001_Node000002" class="edge">
<title>Node1&#45;&gt;Node2</title>
<g id="a_edge1_Node000001_Node000002"><a xlink:title=" ">
<path fill="none" stroke="#63b8ff" d="M478.21,-37.5C470.14,-37.5 461.98,-37.5 454.09,-37.5"/>
<polygon fill="#63b8ff" stroke="#63b8ff" points="477.99,-41 487.99,-37.5 477.99,-34 477.99,-41"/>
</a>
</g>
</g>
<!-- Node3 -->
<g id="Node000003" class="node">
<title>Node3</title>
<g id="a_Node000003"><a xlink:href="namespacePostProcessing.html#a942419cfbff3ce0870cf761062263ddf" target="_top" xlink:title=" ">
<polygon fill="white" stroke="#666666" points="285.5,-76 181,-76 181,-47 285.5,-47 285.5,-76"/>
<text xml:space="preserve" text-anchor="start" x="189" y="-62.5" font-family="Helvetica,sans-Serif" font-size="10.00">PostProcessing::get</text>
<text xml:space="preserve" text-anchor="middle" x="233.25" y="-52" font-family="Helvetica,sans-Serif" font-size="10.00">_properties</text>
</a>
</g>
</g>
<!-- Node2&#45;&gt;Node3 -->
<g id="edge2_Node000002_Node000003" class="edge">
<title>Node2&#45;&gt;Node3</title>
<g id="a_edge2_Node000002_Node000003"><a xlink:title=" ">
<path fill="none" stroke="#63b8ff" d="M323.21,-48.08C310.7,-49.97 297.87,-51.9 285.99,-53.7"/>
<polygon fill="#63b8ff" stroke="#63b8ff" points="323.71,-51.55 333.08,-46.59 322.67,-44.62 323.71,-51.55"/>
</a>
</g>
</g>
<!-- Node4 -->
<g id="Node000004" class="node">
<title>Node4</title>
<g id="a_Node000004"><a xlink:href="classSimulation_1_1SimulationUnit.html#ac3c769522d65eee17433bb67e4f19dc3" target="_top" xlink:title=" ">
<polygon fill="white" stroke="#666666" points="299,-29 167.5,-29 167.5,0 299,0 299,-29"/>
<text xml:space="preserve" text-anchor="start" x="175.5" y="-15.5" font-family="Helvetica,sans-Serif" font-size="10.00">Simulation::SimulationUnit</text>
<text xml:space="preserve" text-anchor="middle" x="233.25" y="-5" font-family="Helvetica,sans-Serif" font-size="10.00">::post_cycle</text>
</a>
</g>
</g>
<!-- Node2&#45;&gt;Node4 -->
<g id="edge3_Node000002_Node000004" class="edge">
<title>Node2&#45;&gt;Node4</title>
<g id="a_edge3_Node000002_Node000004"><a xlink:title=" ">
<path fill="none" stroke="#63b8ff" d="M323.36,-27.38C315.34,-26.22 307.19,-25.04 299.24,-23.89"/>
<polygon fill="#63b8ff" stroke="#63b8ff" points="322.68,-30.82 333.08,-28.78 323.68,-23.89 322.68,-30.82"/>
</a>
</g>
</g>
<!-- Node5 -->
<g id="Node000005" class="node">
<title>Node5</title>
<g id="a_Node000005"><a xlink:href="classSimulation_1_1SimulationUnit.html#a7b49fd171d4de8aa3949738da6c3810f" target="_top" xlink:title=" ">
<polygon fill="white" stroke="#666666" points="131.5,-29 0,-29 0,0 131.5,0 131.5,-29"/>
<text xml:space="preserve" text-anchor="start" x="8" y="-15.5" font-family="Helvetica,sans-Serif" font-size="10.00">Simulation::SimulationUnit</text>
<text xml:space="preserve" text-anchor="middle" x="65.75" y="-5" font-family="Helvetica,sans-Serif" font-size="10.00">::cycleProcess</text>
</a>
</g>
</g>
<!-- Node4&#45;&gt;Node5 -->
<g id="edge4_Node000004_Node000005" class="edge">
<title>Node4&#45;&gt;Node5</title>
<g id="a_edge4_Node000004_Node000005"><a xlink:title=" ">
<path fill="none" stroke="#63b8ff" d="M155.97,-14.5C147.88,-14.5 139.71,-14.5 131.77,-14.5"/>
<polygon fill="#63b8ff" stroke="#63b8ff" points="155.8,-18 165.8,-14.5 155.8,-11 155.8,-18"/>
</a>
</g>
</g>
</g>
</svg>
