<?xml version="1.0" encoding="UTF-8" standalone="no"?>
<!DOCTYPE svg PUBLIC "-//W3C//DTD SVG 1.1//EN"
 "http://www.w3.org/Graphics/SVG/1.1/DTD/svg11.dtd">
<!-- Generated by graphviz version 14.0.1 (0)
 -->
<!-- Title: CmaUtils::FlowMapTransitionner::get_current_reactor_state Pages: 1 -->
<svg width="945pt" height="284pt"
 viewBox="0.00 0.00 945.00 284.00" xmlns="http://www.w3.org/2000/svg" xmlns:xlink="http://www.w3.org/1999/xlink">
<g id="graph0" class="graph" transform="scale(1 1) rotate(0) translate(4 280)">
<title>CmaUtils::FlowMapTransitionner::get_current_reactor_state</title>
<!-- Node1 -->
<g id="Node000001" class="node">
<title>Node1</title>
<g id="a_Node000001"><a xlink:title="Provides a const reference to the current reactor state.">
<polygon fill="#999999" stroke="#666666" points="158.5,-76 0,-76 0,-47 158.5,-47 158.5,-76"/>
<text xml:space="preserve" text-anchor="start" x="8" y="-62.5" font-family="Helvetica,sans-Serif" font-size="10.00">CmaUtils::FlowMapTransitionner</text>
<text xml:space="preserve" text-anchor="middle" x="79.25" y="-52" font-family="Helvetica,sans-Serif" font-size="10.00">::get_current_reactor_state</text>
</a>
</g>
</g>
<!-- Node1&#45;&gt;Node1 -->
<g id="edge12_Node000001_Node000001" class="edge">
<title>Node1&#45;&gt;Node1</title>
<g id="a_edge12_Node000001_Node000001"><a xlink:title=" ">
<path fill="none" stroke="#63b8ff" d="M45.35,-76.21C37.18,-85.32 48.48,-94 79.25,-94 96.08,-94 107.08,-91.41 112.26,-87.56"/>
<polygon fill="#63b8ff" stroke="#63b8ff" points="115.74,-87.96 113.03,-77.72 108.76,-87.41 115.74,-87.96"/>
</a>
</g>
</g>
<!-- Node2 -->
<g id="Node000002" class="node">
<title>Node2</title>
<g id="a_Node000002"><a xlink:href="classCmaUtils_1_1FlowMapTransitionner.html#a52f9717655f1b6aa9891b6c23cc6bf3f" target="_top" xlink:title="Operation required by all methods in order to perform advance function .">
<polygon fill="white" stroke="#666666" points="353,-141 194.5,-141 194.5,-112 353,-112 353,-141"/>
<text xml:space="preserve" text-anchor="start" x="202.5" y="-127.5" font-family="Helvetica,sans-Serif" font-size="10.00">CmaUtils::FlowMapTransitionner</text>
<text xml:space="preserve" text-anchor="middle" x="273.75" y="-117" font-family="Helvetica,sans-Serif" font-size="10.00">::common_advance</text>
</a>
</g>
</g>
<!-- Node1&#45;&gt;Node2 -->
<g id="edge1_Node000001_Node000002" class="edge">
<title>Node1&#45;&gt;Node2</title>
<g id="a_edge1_Node000001_Node000002"><a xlink:title=" ">
<path fill="none" stroke="#63b8ff" d="M118.89,-76.43C140.92,-84.76 169.12,-95.11 194.5,-103.5 199.24,-105.07 204.16,-106.64 209.12,-108.18"/>
<polygon fill="#63b8ff" stroke="#63b8ff" points="207.95,-111.49 218.54,-111.07 210,-104.79 207.95,-111.49"/>
</a>
</g>
</g>
<!-- Node11 -->
<g id="Node000011" class="node">
<title>Node11</title>
<g id="a_Node000011"><a xlink:href="classCmaUtils_1_1FlowMapTransitionner.html#a5ca5151ebfbb3b5dd309309c54652af8" target="_top" xlink:title="Converts the provided neighbors&#39; data into a Kokkos view.">
<polygon fill="white" stroke="#666666" points="353,-76 194.5,-76 194.5,-47 353,-47 353,-76"/>
<text xml:space="preserve" text-anchor="start" x="202.5" y="-62.5" font-family="Helvetica,sans-Serif" font-size="10.00">CmaUtils::FlowMapTransitionner</text>
<text xml:space="preserve" text-anchor="middle" x="273.75" y="-52" font-family="Helvetica,sans-Serif" font-size="10.00">::get_neighbors_view</text>
</a>
</g>
</g>
<!-- Node1&#45;&gt;Node11 -->
<g id="edge13_Node000001_Node000011" class="edge">
<title>Node1&#45;&gt;Node11</title>
<g id="a_edge13_Node000001_Node000011"><a xlink:title=" ">
<path fill="none" stroke="#63b8ff" d="M158.82,-61.5C166.74,-61.5 174.82,-61.5 182.84,-61.5"/>
<polygon fill="#63b8ff" stroke="#63b8ff" points="182.6,-65 192.6,-61.5 182.6,-58 182.6,-65"/>
</a>
</g>
</g>
<!-- Node12 -->
<g id="Node000012" class="node">
<title>Node12</title>
<g id="a_Node000012"><a xlink:href="classCmaUtils_1_1FlowMapTransitionner.html#a2b977307d10c78474830d7776030665c" target="_top" xlink:title="Check if liquid state has to calculated or can be use via caching.">
<polygon fill="white" stroke="#666666" points="353,-29 194.5,-29 194.5,0 353,0 353,-29"/>
<text xml:space="preserve" text-anchor="start" x="202.5" y="-15.5" font-family="Helvetica,sans-Serif" font-size="10.00">CmaUtils::FlowMapTransitionner</text>
<text xml:space="preserve" text-anchor="middle" x="273.75" y="-5" font-family="Helvetica,sans-Serif" font-size="10.00">::need_liquid_state_calculation</text>
</a>
</g>
</g>
<!-- Node1&#45;&gt;Node12 -->
<g id="edge15_Node000001_Node000012" class="edge">
<title>Node1&#45;&gt;Node12</title>
<g id="a_edge15_Node000001_Node000012"><a xlink:title=" ">
<path fill="none" stroke="#63b8ff" d="M141.42,-46.56C160.19,-41.98 181.02,-36.9 200.46,-32.15"/>
<polygon fill="#63b8ff" stroke="#63b8ff" points="201.05,-35.61 209.94,-29.84 199.39,-28.81 201.05,-35.61"/>
</a>
</g>
</g>
<!-- Node3 -->
<g id="Node000003" class="node">
<title>Node3</title>
<g id="a_Node000003"><a xlink:href="classCmaUtils_1_1FlowMapTransitionner.html#a3dc7a76f36a1a0ada35bb8d1ca8f512c" target="_top" xlink:title="Get current gas state read from CmaRead.">
<polygon fill="white" stroke="#666666" points="547.5,-206 389,-206 389,-177 547.5,-177 547.5,-206"/>
<text xml:space="preserve" text-anchor="start" x="397" y="-192.5" font-family="Helvetica,sans-Serif" font-size="10.00">CmaUtils::FlowMapTransitionner</text>
<text xml:space="preserve" text-anchor="middle" x="468.25" y="-182" font-family="Helvetica,sans-Serif" font-size="10.00">::current_gas_hydro_state</text>
</a>
</g>
</g>
<!-- Node2&#45;&gt;Node3 -->
<g id="edge2_Node000002_Node000003" class="edge">
<title>Node2&#45;&gt;Node3</title>
<g id="a_edge2_Node000002_Node000003"><a xlink:title=" ">
<path fill="none" stroke="#63b8ff" d="M313.39,-141.43C335.42,-149.76 363.62,-160.11 389,-168.5 393.74,-170.07 398.66,-171.64 403.62,-173.18"/>
<polygon fill="#63b8ff" stroke="#63b8ff" points="402.45,-176.49 413.04,-176.07 404.5,-169.79 402.45,-176.49"/>
</a>
</g>
</g>
<!-- Node9 -->
<g id="Node000009" class="node">
<title>Node9</title>
<g id="a_Node000009"><a xlink:href="classCmaUtils_1_1FlowMapTransitionner.html#a33ea0931034223c04f4c1074ad1ee5aa" target="_top" xlink:title="Get current liquid state read from CmaRead.">
<polygon fill="white" stroke="#666666" points="547.5,-141 389,-141 389,-112 547.5,-112 547.5,-141"/>
<text xml:space="preserve" text-anchor="start" x="397" y="-127.5" font-family="Helvetica,sans-Serif" font-size="10.00">CmaUtils::FlowMapTransitionner</text>
<text xml:space="preserve" text-anchor="middle" x="468.25" y="-117" font-family="Helvetica,sans-Serif" font-size="10.00">::current_liq_hydro_state</text>
</a>
</g>
</g>
<!-- Node2&#45;&gt;Node9 -->
<g id="edge9_Node000002_Node000009" class="edge">
<title>Node2&#45;&gt;Node9</title>
<g id="a_edge9_Node000002_Node000009"><a xlink:title=" ">
<path fill="none" stroke="#63b8ff" d="M353.32,-126.5C361.24,-126.5 369.32,-126.5 377.34,-126.5"/>
<polygon fill="#63b8ff" stroke="#63b8ff" points="377.1,-130 387.1,-126.5 377.1,-123 377.1,-130"/>
</a>
</g>
</g>
<!-- Node10 -->
<g id="Node000010" class="node">
<title>Node10</title>
<g id="a_Node000010"><a xlink:href="classCmaUtils_1_1FlowMapTransitionner.html#adc33f9f202442f07fede2ffe1bb0ee6d" target="_top" xlink:title="Update flow and iteration counters.">
<polygon fill="white" stroke="#666666" points="547.5,-94 389,-94 389,-65 547.5,-65 547.5,-94"/>
<text xml:space="preserve" text-anchor="start" x="397" y="-80.5" font-family="Helvetica,sans-Serif" font-size="10.00">CmaUtils::FlowMapTransitionner</text>
<text xml:space="preserve" text-anchor="middle" x="468.25" y="-70" font-family="Helvetica,sans-Serif" font-size="10.00">::update_counters</text>
</a>
</g>
</g>
<!-- Node2&#45;&gt;Node10 -->
<g id="edge11_Node000002_Node000010" class="edge">
<title>Node2&#45;&gt;Node10</title>
<g id="a_edge11_Node000002_Node000010"><a xlink:title=" ">
<path fill="none" stroke="#63b8ff" d="M335.92,-111.56C354.69,-106.98 375.52,-101.9 394.96,-97.15"/>
<polygon fill="#63b8ff" stroke="#63b8ff" points="395.55,-100.61 404.44,-94.84 393.89,-93.81 395.55,-100.61"/>
</a>
</g>
</g>
<!-- Node3&#45;&gt;Node3 -->
<g id="edge5_Node000003_Node000003" class="edge">
<title>Node3&#45;&gt;Node3</title>
<g id="a_edge5_Node000003_Node000003"><a xlink:title=" ">
<path fill="none" stroke="#63b8ff" d="M434.35,-206.21C426.18,-215.32 437.48,-224 468.25,-224 485.08,-224 496.08,-221.41 501.26,-217.56"/>
<polygon fill="#63b8ff" stroke="#63b8ff" points="504.74,-217.96 502.03,-207.72 497.76,-217.41 504.74,-217.96"/>
</a>
</g>
</g>
<!-- Node4 -->
<g id="Node000004" class="node">
<title>Node4</title>
<g id="a_Node000004"><a xlink:href="classCmaUtils_1_1FlowMapTransitionner.html#ae24d277adf0085d83cd09644149f31b6" target="_top" xlink:title="Calculate the whole state (liquid+gas+neighbor) for the current time step.">
<polygon fill="white" stroke="#666666" points="742,-276 583.5,-276 583.5,-247 742,-247 742,-276"/>
<text xml:space="preserve" text-anchor="start" x="591.5" y="-262.5" font-family="Helvetica,sans-Serif" font-size="10.00">CmaUtils::FlowMapTransitionner</text>
<text xml:space="preserve" text-anchor="middle" x="662.75" y="-252" font-family="Helvetica,sans-Serif" font-size="10.00">::calculate_full_state</text>
</a>
</g>
</g>
<!-- Node3&#45;&gt;Node4 -->
<g id="edge3_Node000003_Node000004" class="edge">
<title>Node3&#45;&gt;Node4</title>
<g id="a_edge3_Node000003_Node000004"><a xlink:title=" ">
<path fill="none" stroke="#63b8ff" d="M502.89,-206.42C525.46,-216.17 555.98,-228.83 583.5,-238.5 587.93,-240.06 592.53,-241.6 597.18,-243.1"/>
<polygon fill="#63b8ff" stroke="#63b8ff" points="596.02,-246.41 606.61,-246.07 598.12,-239.73 596.02,-246.41"/>
</a>
</g>
</g>
<!-- Node6 -->
<g id="Node000006" class="node">
<title>Node6</title>
<g id="a_Node000006"><a xlink:href="classCmaUtils_1_1FlowMapTransitionner.html#adef8e20a97054d14eba0521ca20829f6" target="_top" xlink:title="Direct read state from iterator.">
<polygon fill="white" stroke="#666666" points="742,-229 583.5,-229 583.5,-200 742,-200 742,-229"/>
<text xml:space="preserve" text-anchor="start" x="591.5" y="-215.5" font-family="Helvetica,sans-Serif" font-size="10.00">CmaUtils::FlowMapTransitionner</text>
<text xml:space="preserve" text-anchor="middle" x="662.75" y="-205" font-family="Helvetica,sans-Serif" font-size="10.00">::get_unchecked</text>
</a>
</g>
</g>
<!-- Node3&#45;&gt;Node6 -->
<g id="edge6_Node000003_Node000006" class="edge">
<title>Node3&#45;&gt;Node6</title>
<g id="a_edge6_Node000003_Node000006"><a xlink:title=" ">
<path fill="none" stroke="#63b8ff" d="M547.82,-200.89C555.74,-201.83 563.82,-202.8 571.84,-203.76"/>
<polygon fill="#63b8ff" stroke="#63b8ff" points="571.27,-207.21 581.61,-204.93 572.1,-200.26 571.27,-207.21"/>
</a>
</g>
</g>
<!-- Node7 -->
<g id="Node000007" class="node">
<title>Node7</title>
<g id="a_Node000007"><a xlink:href="classCmaUtils_1_1FlowMapTransitionner.html#a95f2c1ce2a5c0dcccb0e0be0341fa466" target="_top" xlink:title="Return the index of the current ProxyPreCalculatedHydroState.">
<polygon fill="white" stroke="#666666" points="742,-182 583.5,-182 583.5,-153 742,-153 742,-182"/>
<text xml:space="preserve" text-anchor="start" x="591.5" y="-168.5" font-family="Helvetica,sans-Serif" font-size="10.00">CmaUtils::FlowMapTransitionner</text>
<text xml:space="preserve" text-anchor="middle" x="662.75" y="-158" font-family="Helvetica,sans-Serif" font-size="10.00">::getFlowIndex</text>
</a>
</g>
</g>
<!-- Node3&#45;&gt;Node7 -->
<g id="edge7_Node000003_Node000007" class="edge">
<title>Node3&#45;&gt;Node7</title>
<g id="a_edge7_Node000003_Node000007"><a xlink:title=" ">
<path fill="none" stroke="#63b8ff" d="M547.82,-181.7C555.74,-180.72 563.82,-179.71 571.84,-178.71"/>
<polygon fill="#63b8ff" stroke="#63b8ff" points="572.12,-182.2 581.61,-177.49 571.26,-175.26 572.12,-182.2"/>
</a>
</g>
</g>
<!-- Node8 -->
<g id="Node000008" class="node">
<title>Node8</title>
<g id="a_Node000008"><a xlink:href="classCmaUtils_1_1FlowMapTransitionner.html#acac9006d49f9cee106f3b6769ed29ba2" target="_top" xlink:title="Get the number of load flowmap.">
<polygon fill="white" stroke="#666666" points="742,-135 583.5,-135 583.5,-106 742,-106 742,-135"/>
<text xml:space="preserve" text-anchor="start" x="591.5" y="-121.5" font-family="Helvetica,sans-Serif" font-size="10.00">CmaUtils::FlowMapTransitionner</text>
<text xml:space="preserve" text-anchor="middle" x="662.75" y="-111" font-family="Helvetica,sans-Serif" font-size="10.00">::size</text>
</a>
</g>
</g>
<!-- Node3&#45;&gt;Node8 -->
<g id="edge8_Node000003_Node000008" class="edge">
<title>Node3&#45;&gt;Node8</title>
<g id="a_edge8_Node000003_Node000008"><a xlink:title=" ">
<path fill="none" stroke="#63b8ff" d="M527.25,-176.61C534.19,-174.2 541.09,-171.5 547.5,-168.5 564.92,-160.36 566.12,-152.74 583.5,-144.5 587.25,-142.72 591.17,-141.04 595.16,-139.45"/>
<polygon fill="#63b8ff" stroke="#63b8ff" points="596.28,-142.76 604.43,-135.99 593.83,-136.2 596.28,-142.76"/>
</a>
</g>
</g>
<!-- Node5 -->
<g id="Node000005" class="node">
<title>Node5</title>
<g id="a_Node000005"><a xlink:href="classCmaUtils_1_1FlowMapTransitionner.html#abb98a83b7db34307ef4e59ed7e33a71a" target="_top" xlink:title="Checks whether a gas flowmap is provided.">
<polygon fill="white" stroke="#666666" points="936.5,-276 778,-276 778,-247 936.5,-247 936.5,-276"/>
<text xml:space="preserve" text-anchor="start" x="786" y="-262.5" font-family="Helvetica,sans-Serif" font-size="10.00">CmaUtils::FlowMapTransitionner</text>
<text xml:space="preserve" text-anchor="middle" x="857.25" y="-252" font-family="Helvetica,sans-Serif" font-size="10.00">::is_two_phase_flow</text>
</a>
</g>
</g>
<!-- Node4&#45;&gt;Node5 -->
<g id="edge4_Node000004_Node000005" class="edge">
<title>Node4&#45;&gt;Node5</title>
<g id="a_edge4_Node000004_Node000005"><a xlink:title=" ">
<path fill="none" stroke="#63b8ff" d="M742.32,-261.5C750.24,-261.5 758.32,-261.5 766.34,-261.5"/>
<polygon fill="#63b8ff" stroke="#63b8ff" points="766.1,-265 776.1,-261.5 766.1,-258 766.1,-265"/>
</a>
</g>
</g>
<!-- Node9&#45;&gt;Node9 -->
<g id="edge10_Node000009_Node000009" class="edge">
<title>Node9&#45;&gt;Node9</title>
<g id="a_edge10_Node000009_Node000009"><a xlink:title=" ">
<path fill="none" stroke="#63b8ff" d="M434.35,-141.21C426.18,-150.32 437.48,-159 468.25,-159 485.08,-159 496.08,-156.41 501.26,-152.56"/>
<polygon fill="#63b8ff" stroke="#63b8ff" points="504.74,-152.96 502.03,-142.72 497.76,-152.41 504.74,-152.96"/>
</a>
</g>
</g>
<!-- Node11&#45;&gt;Node11 -->
<g id="edge14_Node000011_Node000011" class="edge">
<title>Node11&#45;&gt;Node11</title>
<g id="a_edge14_Node000011_Node000011"><a xlink:title=" ">
<path fill="none" stroke="#63b8ff" d="M239.85,-76.21C231.68,-85.32 242.98,-94 273.75,-94 290.58,-94 301.58,-91.41 306.76,-87.56"/>
<polygon fill="#63b8ff" stroke="#63b8ff" points="310.24,-87.96 307.53,-77.72 303.26,-87.41 310.24,-87.96"/>
</a>
</g>
</g>
</g>
</svg>
