<?xml version="1.0" encoding="UTF-8" standalone="no"?>
<!DOCTYPE svg PUBLIC "-//W3C//DTD SVG 1.1//EN"
 "http://www.w3.org/Graphics/SVG/1.1/DTD/svg11.dtd">
<!-- Generated by graphviz version 14.0.1 (0)
 -->
<!-- Title: Core::DataExporter::DataExporter Pages: 1 -->
<svg width="254pt" height="225pt"
 viewBox="0.00 0.00 254.00 225.00" xmlns="http://www.w3.org/2000/svg" xmlns:xlink="http://www.w3.org/1999/xlink">
<g id="graph0" class="graph" transform="scale(1 1) rotate(0) translate(4 221)">
<title>Core::DataExporter::DataExporter</title>
<!-- Node1 -->
<g id="Node000001" class="node">
<title>Node1</title>
<g id="a_Node000001"><a xlink:title=" ">
<polygon fill="#999999" stroke="#666666" points="245.75,-123 145,-123 145,-94 245.75,-94 245.75,-123"/>
<text xml:space="preserve" text-anchor="start" x="153" y="-109.5" font-family="Helvetica,sans-Serif" font-size="10.00">Core::DataExporter</text>
<text xml:space="preserve" text-anchor="middle" x="195.38" y="-99" font-family="Helvetica,sans-Serif" font-size="10.00">::DataExporter</text>
</a>
</g>
</g>
<!-- Node1&#45;&gt;Node1 -->
<g id="edge1_Node000001_Node000001" class="edge">
<title>Node1&#45;&gt;Node1</title>
<g id="a_edge1_Node000001_Node000001"><a xlink:title=" ">
<path fill="none" stroke="#63b8ff" d="M219.29,-134.56C215.53,-138.41 207.56,-141 195.38,-141 173.09,-141 164.9,-132.32 170.82,-123.21"/>
<polygon fill="#63b8ff" stroke="#63b8ff" points="222.77,-134.9 219.84,-124.72 215.78,-134.5 222.77,-134.9"/>
</a>
</g>
</g>
<!-- Node2 -->
<g id="Node000002" class="node">
<title>Node2</title>
<g id="a_Node000002"><a xlink:href="classCore_1_1DataExporter.html#ae48b541f166924ffb872b168fb09bc43" target="_top" xlink:title=" ">
<polygon fill="white" stroke="#666666" points="104.88,-217 4.12,-217 4.12,-188 104.88,-188 104.88,-217"/>
<text xml:space="preserve" text-anchor="start" x="12.12" y="-203.5" font-family="Helvetica,sans-Serif" font-size="10.00">Core::DataExporter</text>
<text xml:space="preserve" text-anchor="middle" x="54.5" y="-193" font-family="Helvetica,sans-Serif" font-size="10.00">::DataExporter</text>
</a>
</g>
</g>
<!-- Node1&#45;&gt;Node2 -->
<g id="edge2_Node000001_Node000002" class="edge">
<title>Node1&#45;&gt;Node2</title>
<g id="a_edge2_Node000001_Node000002"><a xlink:title=" ">
<path fill="none" stroke="#63b8ff" d="M170.97,-131.14C154.56,-146.18 131.6,-165.64 109,-179.5 104.26,-182.41 99.09,-185.12 93.88,-187.6"/>
<polygon fill="#63b8ff" stroke="#63b8ff" points="173.34,-133.72 178.26,-124.33 168.56,-128.6 173.34,-133.72"/>
</a>
</g>
</g>
<!-- Node3 -->
<g id="Node000003" class="node">
<title>Node3</title>
<g id="a_Node000003"><a xlink:href="classCore_1_1MainExporter.html#aff142237053600bcd6c586c42c7c6bfb" target="_top" xlink:title="Constructs a MainExporter instance.">
<polygon fill="white" stroke="#666666" points="105.25,-170 3.75,-170 3.75,-141 105.25,-141 105.25,-170"/>
<text xml:space="preserve" text-anchor="start" x="11.75" y="-156.5" font-family="Helvetica,sans-Serif" font-size="10.00">Core::MainExporter</text>
<text xml:space="preserve" text-anchor="middle" x="54.5" y="-146" font-family="Helvetica,sans-Serif" font-size="10.00">::MainExporter</text>
</a>
</g>
</g>
<!-- Node1&#45;&gt;Node3 -->
<g id="edge3_Node000001_Node000003" class="edge">
<title>Node1&#45;&gt;Node3</title>
<g id="a_edge3_Node000001_Node000003"><a xlink:title=" ">
<path fill="none" stroke="#63b8ff" d="M139.53,-127.06C126.29,-131.54 112.31,-136.27 99.63,-140.56"/>
<polygon fill="#63b8ff" stroke="#63b8ff" points="140.65,-130.38 149,-123.86 138.41,-123.75 140.65,-130.38"/>
</a>
</g>
</g>
<!-- Node4 -->
<g id="Node000004" class="node">
<title>Node4</title>
<g id="a_Node000004"><a xlink:href="classCore_1_1DataExporter.html#afa2762f3923d101b037451effdd73c97" target="_top" xlink:title=" ">
<polygon fill="white" stroke="#666666" points="104.88,-123 4.12,-123 4.12,-94 104.88,-94 104.88,-123"/>
<text xml:space="preserve" text-anchor="start" x="12.12" y="-109.5" font-family="Helvetica,sans-Serif" font-size="10.00">Core::DataExporter</text>
<text xml:space="preserve" text-anchor="middle" x="54.5" y="-99" font-family="Helvetica,sans-Serif" font-size="10.00">::operator=</text>
</a>
</g>
</g>
<!-- Node1&#45;&gt;Node4 -->
<g id="edge4_Node000001_Node000004" class="edge">
<title>Node1&#45;&gt;Node4</title>
<g id="a_edge4_Node000001_Node000004"><a xlink:title=" ">
<path fill="none" stroke="#63b8ff" d="M133.37,-108.5C124.01,-108.5 114.44,-108.5 105.36,-108.5"/>
<polygon fill="#63b8ff" stroke="#63b8ff" points="133.12,-112 143.12,-108.5 133.12,-105 133.12,-112"/>
</a>
</g>
</g>
<!-- Node5 -->
<g id="Node000005" class="node">
<title>Node5</title>
<g id="a_Node000005"><a xlink:href="classCore_1_1DataExporter.html#ab1ebc3cb19a86b7ef00e731e4b6d5322" target="_top" xlink:title=" ">
<polygon fill="white" stroke="#666666" points="104.88,-76 4.12,-76 4.12,-47 104.88,-47 104.88,-76"/>
<text xml:space="preserve" text-anchor="start" x="12.12" y="-62.5" font-family="Helvetica,sans-Serif" font-size="10.00">Core::DataExporter</text>
<text xml:space="preserve" text-anchor="middle" x="54.5" y="-52" font-family="Helvetica,sans-Serif" font-size="10.00">::operator=</text>
</a>
</g>
</g>
<!-- Node1&#45;&gt;Node5 -->
<g id="edge5_Node000001_Node000005" class="edge">
<title>Node1&#45;&gt;Node5</title>
<g id="a_edge5_Node000001_Node000005"><a xlink:title=" ">
<path fill="none" stroke="#63b8ff" d="M139.53,-89.94C126.29,-85.46 112.31,-80.73 99.63,-76.44"/>
<polygon fill="#63b8ff" stroke="#63b8ff" points="138.41,-93.25 149,-93.14 140.65,-86.62 138.41,-93.25"/>
</a>
</g>
</g>
<!-- Node6 -->
<g id="Node000006" class="node">
<title>Node6</title>
<g id="a_Node000006"><a xlink:href="classCore_1_1PartialExporter.html#a229594aed8ebd366f6bcef6fcb2faae9" target="_top" xlink:title="Constructs a PartialExporter instance.">
<polygon fill="white" stroke="#666666" points="109,-29 0,-29 0,0 109,0 109,-29"/>
<text xml:space="preserve" text-anchor="start" x="8" y="-15.5" font-family="Helvetica,sans-Serif" font-size="10.00">Core::PartialExporter</text>
<text xml:space="preserve" text-anchor="middle" x="54.5" y="-5" font-family="Helvetica,sans-Serif" font-size="10.00">::PartialExporter</text>
</a>
</g>
</g>
<!-- Node1&#45;&gt;Node6 -->
<g id="edge6_Node000001_Node000006" class="edge">
<title>Node1&#45;&gt;Node6</title>
<g id="a_edge6_Node000001_Node000006"><a xlink:title=" ">
<path fill="none" stroke="#63b8ff" d="M170.54,-86.04C154.1,-71.31 131.28,-52.29 109,-38.5 103.72,-35.23 97.92,-32.16 92.14,-29.37"/>
<polygon fill="#63b8ff" stroke="#63b8ff" points="168.11,-88.56 177.86,-92.71 172.82,-83.38 168.11,-88.56"/>
</a>
</g>
</g>
</g>
</svg>
