<?xml version="1.0" encoding="UTF-8" standalone="no"?>
<!DOCTYPE svg PUBLIC "-//W3C//DTD SVG 1.1//EN"
 "http://www.w3.org/Graphics/SVG/1.1/DTD/svg11.dtd">
<!-- Generated by graphviz version 14.0.1 (0)
 -->
<!-- Title: MC::ParticlesContainer::update_and_clean_dead Pages: 1 -->
<svg width="445pt" height="37pt"
 viewBox="0.00 0.00 445.00 37.00" xmlns="http://www.w3.org/2000/svg" xmlns:xlink="http://www.w3.org/1999/xlink">
<g id="graph0" class="graph" transform="scale(1 1) rotate(0) translate(4 33)">
<title>MC::ParticlesContainer::update_and_clean_dead</title>
<!-- Node1 -->
<g id="Node000001" class="node">
<title>Node1</title>
<g id="a_Node000001"><a xlink:title=" ">
<polygon fill="#999999" stroke="#666666" points="127,-29 0,-29 0,0 127,0 127,-29"/>
<text xml:space="preserve" text-anchor="start" x="8" y="-15.5" font-family="Helvetica,sans-Serif" font-size="10.00">MC::ParticlesContainer</text>
<text xml:space="preserve" text-anchor="middle" x="63.5" y="-5" font-family="Helvetica,sans-Serif" font-size="10.00">::update_and_clean_dead</text>
</a>
</g>
</g>
<!-- Node2 -->
<g id="Node000002" class="node">
<title>Node2</title>
<g id="a_Node000002"><a xlink:href="classMC_1_1ParticlesContainer.html#acca450f3c529a6e6962d76f8f39011e8" target="_top" xlink:title=" ">
<polygon fill="white" stroke="#666666" points="281.75,-29 163,-29 163,0 281.75,0 281.75,-29"/>
<text xml:space="preserve" text-anchor="start" x="171" y="-15.5" font-family="Helvetica,sans-Serif" font-size="10.00">MC::ParticlesContainer</text>
<text xml:space="preserve" text-anchor="middle" x="222.38" y="-5" font-family="Helvetica,sans-Serif" font-size="10.00">::clean_dead</text>
</a>
</g>
</g>
<!-- Node1&#45;&gt;Node2 -->
<g id="edge1_Node000001_Node000002" class="edge">
<title>Node1&#45;&gt;Node2</title>
<g id="a_edge1_Node000001_Node000002"><a xlink:title=" ">
<path fill="none" stroke="#63b8ff" d="M127.4,-14.5C135.19,-14.5 143.19,-14.5 151.08,-14.5"/>
<polygon fill="#63b8ff" stroke="#63b8ff" points="151.01,-18 161.01,-14.5 151.01,-11 151.01,-18"/>
</a>
</g>
</g>
<!-- Node3 -->
<g id="Node000003" class="node">
<title>Node3</title>
<g id="a_Node000003"><a xlink:href="classMC_1_1ParticlesContainer.html#a4fc94ae525191a5d034dce4866986c1e" target="_top" xlink:title=" ">
<polygon fill="white" stroke="#666666" points="436.5,-29 317.75,-29 317.75,0 436.5,0 436.5,-29"/>
<text xml:space="preserve" text-anchor="start" x="325.75" y="-15.5" font-family="Helvetica,sans-Serif" font-size="10.00">MC::ParticlesContainer</text>
<text xml:space="preserve" text-anchor="middle" x="377.12" y="-5" font-family="Helvetica,sans-Serif" font-size="10.00">::_resize</text>
</a>
</g>
</g>
<!-- Node2&#45;&gt;Node3 -->
<g id="edge2_Node000002_Node000003" class="edge">
<title>Node2&#45;&gt;Node3</title>
<g id="a_edge2_Node000002_Node000003"><a xlink:title=" ">
<path fill="none" stroke="#63b8ff" d="M282,-14.5C289.89,-14.5 298.05,-14.5 306.11,-14.5"/>
<polygon fill="#63b8ff" stroke="#63b8ff" points="305.9,-18 315.9,-14.5 305.9,-11 305.9,-18"/>
</a>
</g>
</g>
</g>
</svg>
