<?xml version="1.0" encoding="UTF-8" standalone="no"?>
<!DOCTYPE svg PUBLIC "-//W3C//DTD SVG 1.1//EN"
 "http://www.w3.org/Graphics/SVG/1.1/DTD/svg11.dtd">
<!-- Generated by graphviz version 12.1.2 (0)
 -->
<!-- Title: Simulation::SimulationUnit::post_init_concentration Pages: 1 -->
<svg width="316pt" height="94pt"
 viewBox="0.00 0.00 316.00 94.25" xmlns="http://www.w3.org/2000/svg" xmlns:xlink="http://www.w3.org/1999/xlink">
<g id="graph0" class="graph" transform="scale(1 1) rotate(0) translate(4 90.25)">
<title>Simulation::SimulationUnit::post_init_concentration</title>
<!-- Node1 -->
<g id="Node000001" class="node">
<title>Node1</title>
<g id="a_Node000001"><a xlink:title=" ">
<polygon fill="#999999" stroke="#666666" points="131.5,-60.25 0,-60.25 0,-31.25 131.5,-31.25 131.5,-60.25"/>
<text text-anchor="start" x="8" y="-46.75" font-family="Helvetica,sans-Serif" font-size="10.00">Simulation::SimulationUnit</text>
<text text-anchor="middle" x="65.75" y="-36.25" font-family="Helvetica,sans-Serif" font-size="10.00">::post_init_concentration</text>
</a>
</g>
</g>
<!-- Node2 -->
<g id="Node000002" class="node">
<title>Node2</title>
<g id="a_Node000002"><a xlink:href="classSimulation_1_1SimulationUnit.html#a449800ba9a7ee67fa9b6bae41869a9de" target="_top" xlink:title=" ">
<polygon fill="white" stroke="#666666" points="308,-86.25 167.5,-86.25 167.5,-57.25 308,-57.25 308,-86.25"/>
<text text-anchor="start" x="175.5" y="-72.75" font-family="Helvetica,sans-Serif" font-size="10.00">Simulation::SimulationUnit</text>
<text text-anchor="middle" x="237.75" y="-62.25" font-family="Helvetica,sans-Serif" font-size="10.00">::post_init_concentration_file</text>
</a>
</g>
</g>
<!-- Node1&#45;&gt;Node2 -->
<g id="edge1_Node000001_Node000002" class="edge">
<title>Node1&#45;&gt;Node2</title>
<g id="a_edge1_Node000001_Node000002"><a xlink:title=" ">
<path fill="none" stroke="#63b8ff" d="M131.99,-55.73C139.82,-56.93 147.88,-58.16 155.9,-59.38"/>
<polygon fill="#63b8ff" stroke="#63b8ff" points="155.26,-62.83 165.67,-60.88 156.32,-55.91 155.26,-62.83"/>
</a>
</g>
</g>
<!-- Node3 -->
<g id="Node000003" class="node">
<title>Node3</title>
<g id="a_Node000003"><a xlink:href="classSimulation_1_1SimulationUnit.html#acdb3001a8070525afefe3298ed738691" target="_top" xlink:title=" ">
<polygon fill="white" stroke="#666666" points="303.5,-39.5 172,-39.5 172,0 303.5,0 303.5,-39.5"/>
<text text-anchor="start" x="180" y="-26" font-family="Helvetica,sans-Serif" font-size="10.00">Simulation::SimulationUnit</text>
<text text-anchor="start" x="180" y="-15.5" font-family="Helvetica,sans-Serif" font-size="10.00">::post_init_concentration</text>
<text text-anchor="middle" x="237.75" y="-5" font-family="Helvetica,sans-Serif" font-size="10.00">_functor</text>
</a>
</g>
</g>
<!-- Node1&#45;&gt;Node3 -->
<g id="edge2_Node000001_Node000003" class="edge">
<title>Node1&#45;&gt;Node3</title>
<g id="a_edge2_Node000001_Node000003"><a xlink:title=" ">
<path fill="none" stroke="#63b8ff" d="M131.99,-35.77C141.34,-34.34 151.04,-32.86 160.58,-31.4"/>
<polygon fill="#63b8ff" stroke="#63b8ff" points="160.83,-34.9 170.19,-29.93 159.77,-27.98 160.83,-34.9"/>
</a>
</g>
</g>
</g>
</svg>
