<?xml version="1.0" encoding="UTF-8" standalone="no"?>
<!DOCTYPE svg PUBLIC "-//W3C//DTD SVG 1.1//EN"
 "http://www.w3.org/Graphics/SVG/1.1/DTD/svg11.dtd">
<!-- Generated by graphviz version 12.1.2 (0)
 -->
<!-- Title: Core::DataExporter::write_properties Pages: 1 -->
<svg width="254pt" height="84pt"
 viewBox="0.00 0.00 253.75 84.00" xmlns="http://www.w3.org/2000/svg" xmlns:xlink="http://www.w3.org/1999/xlink">
<g id="graph0" class="graph" transform="scale(1 1) rotate(0) translate(4 80)">
<title>Core::DataExporter::write_properties</title>
<!-- Node1 -->
<g id="Node000001" class="node">
<title>Node1</title>
<g id="a_Node000001"><a xlink:title=" ">
<polygon fill="#999999" stroke="#666666" points="245.75,-52 145,-52 145,-23 245.75,-23 245.75,-52"/>
<text text-anchor="start" x="153" y="-38.5" font-family="Helvetica,sans-Serif" font-size="10.00">Core::DataExporter</text>
<text text-anchor="middle" x="195.38" y="-28" font-family="Helvetica,sans-Serif" font-size="10.00">::write_properties</text>
</a>
</g>
</g>
<!-- Node2 -->
<g id="Node000002" class="node">
<title>Node2</title>
<g id="a_Node000002"><a xlink:href="classCore_1_1MainExporter.html#aff142237053600bcd6c586c42c7c6bfb" target="_top" xlink:title="Constructs a MainExporter instance.">
<polygon fill="white" stroke="#666666" points="105.25,-76 3.75,-76 3.75,-47 105.25,-47 105.25,-76"/>
<text text-anchor="start" x="11.75" y="-62.5" font-family="Helvetica,sans-Serif" font-size="10.00">Core::MainExporter</text>
<text text-anchor="middle" x="54.5" y="-52" font-family="Helvetica,sans-Serif" font-size="10.00">::MainExporter</text>
</a>
</g>
</g>
<!-- Node1&#45;&gt;Node2 -->
<g id="edge1_Node000001_Node000002" class="edge">
<title>Node1&#45;&gt;Node2</title>
<g id="a_edge1_Node000001_Node000002"><a xlink:title=" ">
<path fill="none" stroke="#63b8ff" d="M133.37,-48.04C124.01,-49.66 114.44,-51.31 105.36,-52.88"/>
<polygon fill="#63b8ff" stroke="#63b8ff" points="133.88,-51.51 143.14,-46.35 132.69,-44.61 133.88,-51.51"/>
</a>
</g>
</g>
<!-- Node3 -->
<g id="Node000003" class="node">
<title>Node3</title>
<g id="a_Node000003"><a xlink:href="classCore_1_1PartialExporter.html#a229594aed8ebd366f6bcef6fcb2faae9" target="_top" xlink:title="Constructs a PartialExporter instance.">
<polygon fill="white" stroke="#666666" points="109,-29 0,-29 0,0 109,0 109,-29"/>
<text text-anchor="start" x="8" y="-15.5" font-family="Helvetica,sans-Serif" font-size="10.00">Core::PartialExporter</text>
<text text-anchor="middle" x="54.5" y="-5" font-family="Helvetica,sans-Serif" font-size="10.00">::PartialExporter</text>
</a>
</g>
</g>
<!-- Node1&#45;&gt;Node3 -->
<g id="edge2_Node000001_Node000003" class="edge">
<title>Node1&#45;&gt;Node3</title>
<g id="a_edge2_Node000001_Node000003"><a xlink:title=" ">
<path fill="none" stroke="#63b8ff" d="M133.37,-27.4C125.29,-26.06 117.06,-24.7 109.13,-23.38"/>
<polygon fill="#63b8ff" stroke="#63b8ff" points="132.7,-30.83 143.14,-29.01 133.84,-23.93 132.7,-30.83"/>
</a>
</g>
</g>
</g>
</svg>
