<?xml version="1.0" encoding="UTF-8" standalone="no"?>
<!DOCTYPE svg PUBLIC "-//W3C//DTD SVG 1.1//EN"
 "http://www.w3.org/Graphics/SVG/1.1/DTD/svg11.dtd">
<!-- Generated by graphviz version 14.0.1 (0)
 -->
<!-- Title: ILoadBalancer::getRatio Pages: 1 -->
<svg width="429pt" height="74pt"
 viewBox="0.00 0.00 429.00 74.00" xmlns="http://www.w3.org/2000/svg" xmlns:xlink="http://www.w3.org/1999/xlink">
<g id="graph0" class="graph" transform="scale(1 1) rotate(0) translate(4 69.75)">
<title>ILoadBalancer::getRatio</title>
<!-- Node1 -->
<g id="Node000001" class="node">
<title>Node1</title>
<g id="a_Node000001"><a xlink:title=" ">
<polygon fill="#999999" stroke="#666666" points="420.75,-44.75 300.5,-44.75 300.5,-26.25 420.75,-26.25 420.75,-44.75"/>
<text xml:space="preserve" text-anchor="middle" x="360.62" y="-31.25" font-family="Helvetica,sans-Serif" font-size="10.00">ILoadBalancer::getRatio</text>
</a>
</g>
</g>
<!-- Node2 -->
<g id="Node000002" class="node">
<title>Node2</title>
<g id="a_Node000002"><a xlink:href="classILoadBalancer.html#a27fb1f345c6d7b6e428b2bd012429dc2" target="_top" xlink:title=" ">
<polygon fill="white" stroke="#666666" points="264.5,-65.75 154,-65.75 154,-47.25 264.5,-47.25 264.5,-65.75"/>
<text xml:space="preserve" text-anchor="middle" x="209.25" y="-52.25" font-family="Helvetica,sans-Serif" font-size="10.00">ILoadBalancer::check</text>
</a>
</g>
</g>
<!-- Node1&#45;&gt;Node2 -->
<g id="edge1_Node000001_Node000002" class="edge">
<title>Node1&#45;&gt;Node2</title>
<g id="a_edge1_Node000001_Node000002"><a xlink:title=" ">
<path fill="none" stroke="#63b8ff" d="M288.78,-45.46C280.68,-46.6 272.51,-47.75 264.67,-48.85"/>
<polygon fill="#63b8ff" stroke="#63b8ff" points="289.24,-48.93 298.66,-44.07 288.27,-42 289.24,-48.93"/>
</a>
</g>
</g>
<!-- Node3 -->
<g id="Node000003" class="node">
<title>Node3</title>
<g id="a_Node000003"><a xlink:href="classILoadBalancer.html#aa10d0dcff513a3ce26f47ce671401d5b" target="_top" xlink:title=" ">
<polygon fill="white" stroke="#666666" points="258.12,-29 160.38,-29 160.38,0 258.12,0 258.12,-29"/>
<text xml:space="preserve" text-anchor="start" x="168.38" y="-15.5" font-family="Helvetica,sans-Serif" font-size="10.00">ILoadBalancer::get</text>
<text xml:space="preserve" text-anchor="middle" x="209.25" y="-5" font-family="Helvetica,sans-Serif" font-size="10.00">_alloc</text>
</a>
</g>
</g>
<!-- Node1&#45;&gt;Node3 -->
<g id="edge2_Node000001_Node000003" class="edge">
<title>Node1&#45;&gt;Node3</title>
<g id="a_edge2_Node000001_Node000003"><a xlink:title=" ">
<path fill="none" stroke="#63b8ff" d="M289.02,-25.57C278.68,-24.12 268.24,-22.65 258.49,-21.28"/>
<polygon fill="#63b8ff" stroke="#63b8ff" points="288.27,-29 298.66,-26.93 289.24,-22.07 288.27,-29"/>
</a>
</g>
</g>
<!-- Node4 -->
<g id="Node000004" class="node">
<title>Node4</title>
<g id="a_Node000004"><a xlink:href="classILoadBalancer.html#a11305fecea49664648595dd5d61027b3" target="_top" xlink:title=" ">
<polygon fill="white" stroke="#666666" points="118,-23.75 0,-23.75 0,-5.25 118,-5.25 118,-23.75"/>
<text xml:space="preserve" text-anchor="middle" x="59" y="-10.25" font-family="Helvetica,sans-Serif" font-size="10.00">ILoadBalancer::balance</text>
</a>
</g>
</g>
<!-- Node3&#45;&gt;Node4 -->
<g id="edge3_Node000003_Node000004" class="edge">
<title>Node3&#45;&gt;Node4</title>
<g id="a_edge3_Node000003_Node000004"><a xlink:title=" ">
<path fill="none" stroke="#63b8ff" d="M148.91,-14.5C138.81,-14.5 128.32,-14.5 118.24,-14.5"/>
<polygon fill="#63b8ff" stroke="#63b8ff" points="148.6,-18 158.6,-14.5 148.6,-11 148.6,-18"/>
</a>
</g>
</g>
</g>
</svg>
