<?xml version="1.0" encoding="UTF-8" standalone="no"?>
<!DOCTYPE svg PUBLIC "-//W3C//DTD SVG 1.1//EN"
 "http://www.w3.org/Graphics/SVG/1.1/DTD/svg11.dtd">
<!-- Generated by graphviz version 14.0.1 (0)
 -->
<!-- Title: Core::PartialExporter::write_probe Pages: 1 -->
<svg width="254pt" height="92pt"
 viewBox="0.00 0.00 254.00 92.00" xmlns="http://www.w3.org/2000/svg" xmlns:xlink="http://www.w3.org/1999/xlink">
<g id="graph0" class="graph" transform="scale(1 1) rotate(0) translate(4 87.75)">
<title>Core::PartialExporter::write_probe</title>
<!-- Node1 -->
<g id="Node000001" class="node">
<title>Node1</title>
<g id="a_Node000001"><a xlink:title="Writes probe data to the export.">
<polygon fill="#999999" stroke="#666666" points="109,-53.75 0,-53.75 0,-24.75 109,-24.75 109,-53.75"/>
<text xml:space="preserve" text-anchor="start" x="8" y="-40.25" font-family="Helvetica,sans-Serif" font-size="10.00">Core::PartialExporter</text>
<text xml:space="preserve" text-anchor="middle" x="54.5" y="-29.75" font-family="Helvetica,sans-Serif" font-size="10.00">::write_probe</text>
</a>
</g>
</g>
<!-- Node2 -->
<g id="Node000002" class="node">
<title>Node2</title>
<g id="a_Node000002"><a xlink:href="classCore_1_1DataExporter.html#a0b0b79f3932c4eb905704a852248c857" target="_top" xlink:title=" ">
<polygon fill="white" stroke="#666666" points="245.75,-83.75 145,-83.75 145,-54.75 245.75,-54.75 245.75,-83.75"/>
<text xml:space="preserve" text-anchor="start" x="153" y="-70.25" font-family="Helvetica,sans-Serif" font-size="10.00">Core::DataExporter</text>
<text xml:space="preserve" text-anchor="middle" x="195.38" y="-59.75" font-family="Helvetica,sans-Serif" font-size="10.00">::append_array</text>
</a>
</g>
</g>
<!-- Node1&#45;&gt;Node2 -->
<g id="edge1_Node000001_Node000002" class="edge">
<title>Node1&#45;&gt;Node2</title>
<g id="a_edge1_Node000001_Node000002"><a xlink:title=" ">
<path fill="none" stroke="#63b8ff" d="M109.19,-50.85C117.27,-52.59 125.66,-54.41 133.87,-56.18"/>
<polygon fill="#63b8ff" stroke="#63b8ff" points="132.92,-59.56 143.44,-58.25 134.4,-52.71 132.92,-59.56"/>
</a>
</g>
</g>
<!-- Node3 -->
<g id="Node000003" class="node">
<title>Node3</title>
<g id="a_Node000003"><a xlink:href="namespaceIO.html#a30cc77fc5c4d45d3b56ef6a299ce2383" target="_top" xlink:title=" ">
<polygon fill="white" stroke="#666666" points="225.5,-18.5 165.25,-18.5 165.25,0 225.5,0 225.5,-18.5"/>
<text xml:space="preserve" text-anchor="middle" x="195.38" y="-5" font-family="Helvetica,sans-Serif" font-size="10.00">IO::format</text>
</a>
</g>
</g>
<!-- Node1&#45;&gt;Node3 -->
<g id="edge2_Node000001_Node000003" class="edge">
<title>Node1&#45;&gt;Node3</title>
<g id="a_edge2_Node000001_Node000003"><a xlink:title=" ">
<path fill="none" stroke="#63b8ff" d="M109.19,-27.65C123.98,-24.46 139.78,-21.04 153.7,-18.04"/>
<polygon fill="#63b8ff" stroke="#63b8ff" points="154.37,-21.47 163.41,-15.94 152.89,-14.63 154.37,-21.47"/>
</a>
</g>
</g>
<!-- Node3&#45;&gt;Node3 -->
<g id="edge3_Node000003_Node000003" class="edge">
<title>Node3&#45;&gt;Node3</title>
<g id="a_edge3_Node000003_Node000003"><a xlink:title=" ">
<path fill="none" stroke="#63b8ff" d="M173.66,-18.75C163.1,-27.32 170.34,-36.5 195.38,-36.5 209.46,-36.5 217.91,-33.59 220.73,-29.53"/>
<polygon fill="#63b8ff" stroke="#63b8ff" points="224.09,-28.53 217.57,-20.18 217.46,-30.77 224.09,-28.53"/>
</a>
</g>
</g>
</g>
</svg>
