<?xml version="1.0" encoding="UTF-8" standalone="no"?>
<!DOCTYPE svg PUBLIC "-//W3C//DTD SVG 1.1//EN"
 "http://www.w3.org/Graphics/SVG/1.1/DTD/svg11.dtd">
<!-- Generated by graphviz version 14.0.1 (0)
 -->
<!-- Title: Core::GlobalInitialiser::init_monte_carlo Pages: 1 -->
<svg width="419pt" height="55pt"
 viewBox="0.00 0.00 419.00 55.00" xmlns="http://www.w3.org/2000/svg" xmlns:xlink="http://www.w3.org/1999/xlink">
<g id="graph0" class="graph" transform="scale(1 1) rotate(0) translate(4 51)">
<title>Core::GlobalInitialiser::init_monte_carlo</title>
<!-- Node1 -->
<g id="Node000001" class="node">
<title>Node1</title>
<g id="a_Node000001"><a xlink:title="Initializes a Monte Carlo unit.">
<polygon fill="#999999" stroke="#666666" points="411,-29 301.25,-29 301.25,0 411,0 411,-29"/>
<text xml:space="preserve" text-anchor="start" x="309.25" y="-15.5" font-family="Helvetica,sans-Serif" font-size="10.00">Core::GlobalInitialiser</text>
<text xml:space="preserve" text-anchor="middle" x="356.12" y="-5" font-family="Helvetica,sans-Serif" font-size="10.00">::init_monte_carlo</text>
</a>
</g>
</g>
<!-- Node2 -->
<g id="Node000002" class="node">
<title>Node2</title>
<g id="a_Node000002"><a xlink:href="classCore_1_1GlobalInitialiser.html#a00d0e7a7d549bf06886dfc3ba9de3e3d" target="_top" xlink:title="Initializes a simulation unit.">
<polygon fill="white" stroke="#666666" points="265.25,-29 155.5,-29 155.5,0 265.25,0 265.25,-29"/>
<text xml:space="preserve" text-anchor="start" x="163.5" y="-15.5" font-family="Helvetica,sans-Serif" font-size="10.00">Core::GlobalInitialiser</text>
<text xml:space="preserve" text-anchor="middle" x="210.38" y="-5" font-family="Helvetica,sans-Serif" font-size="10.00">::init_simulation</text>
</a>
</g>
</g>
<!-- Node1&#45;&gt;Node2 -->
<g id="edge1_Node000001_Node000002" class="edge">
<title>Node1&#45;&gt;Node2</title>
<g id="a_edge1_Node000001_Node000002"><a xlink:title=" ">
<path fill="none" stroke="#63b8ff" d="M289.47,-14.5C281.39,-14.5 273.2,-14.5 265.32,-14.5"/>
<polygon fill="#63b8ff" stroke="#63b8ff" points="289.27,-18 299.27,-14.5 289.27,-11 289.27,-18"/>
</a>
</g>
</g>
<!-- Node2&#45;&gt;Node2 -->
<g id="edge3_Node000002_Node000002" class="edge">
<title>Node2&#45;&gt;Node2</title>
<g id="a_edge3_Node000002_Node000002"><a xlink:title=" ">
<path fill="none" stroke="#63b8ff" d="M235.11,-40.56C231.23,-44.41 222.98,-47 210.38,-47 187.32,-47 178.85,-38.32 184.98,-29.21"/>
<polygon fill="#63b8ff" stroke="#63b8ff" points="238.6,-40.9 235.69,-30.72 231.61,-40.5 238.6,-40.9"/>
</a>
</g>
</g>
<!-- Node3 -->
<g id="Node000003" class="node">
<title>Node3</title>
<g id="a_Node000003"><a xlink:href="structApi_1_1SimulationInstance.html#ae9bdd54076170f50eadcb7966d64c19d" target="_top" xlink:title="Apply the simulation configuration and prepare for execution.">
<polygon fill="white" stroke="#666666" points="119.5,-29 0,-29 0,0 119.5,0 119.5,-29"/>
<text xml:space="preserve" text-anchor="start" x="8" y="-15.5" font-family="Helvetica,sans-Serif" font-size="10.00">Api::SimulationInstance</text>
<text xml:space="preserve" text-anchor="middle" x="59.75" y="-5" font-family="Helvetica,sans-Serif" font-size="10.00">::apply</text>
</a>
</g>
</g>
<!-- Node2&#45;&gt;Node3 -->
<g id="edge2_Node000002_Node000003" class="edge">
<title>Node2&#45;&gt;Node3</title>
<g id="a_edge2_Node000002_Node000003"><a xlink:title=" ">
<path fill="none" stroke="#63b8ff" d="M144.04,-14.5C135.97,-14.5 127.77,-14.5 119.81,-14.5"/>
<polygon fill="#63b8ff" stroke="#63b8ff" points="143.78,-18 153.78,-14.5 143.78,-11 143.78,-18"/>
</a>
</g>
</g>
</g>
</svg>
