<?xml version="1.0" encoding="UTF-8" standalone="no"?>
<!DOCTYPE svg PUBLIC "-//W3C//DTD SVG 1.1//EN"
 "http://www.w3.org/Graphics/SVG/1.1/DTD/svg11.dtd">
<!-- Generated by graphviz version 14.0.1 (0)
 -->
<!-- Title: Core::MainExporter::MainExporter Pages: 1 -->
<svg width="246pt" height="149pt"
 viewBox="0.00 0.00 246.00 149.00" xmlns="http://www.w3.org/2000/svg" xmlns:xlink="http://www.w3.org/1999/xlink">

<svg id="main" version="1.1" xmlns="http://www.w3.org/2000/svg" xmlns:xlink="http://www.w3.org/1999/xlink" xml:space="preserve">

<style type="text/css"><![CDATA[
.node, .edge {opacity: 0.7;}
.node.selected, .edge.selected {opacity: 1;}
.edge:hover path { stroke: red; }
.edge:hover polygon { stroke: red; fill: red; }
]]></style>
<script type="application/ecmascript" xlink:href="svg.min.js"/>
<svg id="graph" class="graph">
<g id="graph0" class="graph" transform="scale(1 1) rotate(0) translate(4 145)">
<title>Core::MainExporter::MainExporter</title>
<!-- Node1 -->
<g id="Node000001" class="node">
<title>Node1</title>
<g id="a_Node000001"><a xlink:title="Constructs a MainExporter instance.">
<polygon fill="#999999" stroke="#666666" points="101.5,-76 0,-76 0,-47 101.5,-47 101.5,-76"/>
<text xml:space="preserve" text-anchor="start" x="8" y="-62.5" font-family="Helvetica,sans-Serif" font-size="10.00">Core::MainExporter</text>
<text xml:space="preserve" text-anchor="middle" x="50.75" y="-52" font-family="Helvetica,sans-Serif" font-size="10.00">::MainExporter</text>
</a>
</g>
</g>
<!-- Node2 -->
<g id="Node000002" class="node">
<title>Node2</title>
<g id="a_Node000002"><a xlink:href="classCore_1_1DataExporter.html#aa39b5e7514dd7c25024bb31c72e2e8e7" target="_top" xlink:title=" ">
<polygon fill="white" stroke="#666666" points="238.25,-123 137.5,-123 137.5,-94 238.25,-94 238.25,-123"/>
<text xml:space="preserve" text-anchor="start" x="145.5" y="-109.5" font-family="Helvetica,sans-Serif" font-size="10.00">Core::DataExporter</text>
<text xml:space="preserve" text-anchor="middle" x="187.88" y="-99" font-family="Helvetica,sans-Serif" font-size="10.00">::DataExporter</text>
</a>
</g>
</g>
<!-- Node1&#45;&gt;Node2 -->
<g id="edge1_Node000001_Node000002" class="edge">
<title>Node1&#45;&gt;Node2</title>
<g id="a_edge1_Node000001_Node000002"><a xlink:title=" ">
<path fill="none" stroke="#63b8ff" d="M94.5,-76.37C106.83,-80.66 120.43,-85.39 133.32,-89.87"/>
<polygon fill="#63b8ff" stroke="#63b8ff" points="131.91,-93.09 142.51,-93.07 134.21,-86.48 131.91,-93.09"/>
</a>
</g>
</g>
<!-- Node3 -->
<g id="Node000003" class="node">
<title>Node3</title>
<g id="a_Node000003"><a xlink:href="classCore_1_1DataExporter.html#a7c1ccdd8fd75dacdf621d0a42757a555" target="_top" xlink:title=" ">
<polygon fill="white" stroke="#666666" points="238.25,-76 137.5,-76 137.5,-47 238.25,-47 238.25,-76"/>
<text xml:space="preserve" text-anchor="start" x="145.5" y="-62.5" font-family="Helvetica,sans-Serif" font-size="10.00">Core::DataExporter</text>
<text xml:space="preserve" text-anchor="middle" x="187.88" y="-52" font-family="Helvetica,sans-Serif" font-size="10.00">::write_properties</text>
</a>
</g>
</g>
<!-- Node1&#45;&gt;Node3 -->
<g id="edge3_Node000001_Node000003" class="edge">
<title>Node1&#45;&gt;Node3</title>
<g id="a_edge3_Node000001_Node000003"><a xlink:title=" ">
<path fill="none" stroke="#63b8ff" d="M101.68,-61.5C109.55,-61.5 117.76,-61.5 125.85,-61.5"/>
<polygon fill="#63b8ff" stroke="#63b8ff" points="125.64,-65 135.64,-61.5 125.64,-58 125.64,-65"/>
</a>
</g>
</g>
<!-- Node4 -->
<g id="Node000004" class="node">
<title>Node4</title>
<g id="a_Node000004"><a xlink:href="classCore_1_1DataExporter.html#a32fb6f00d4e951076a626120c1a4d9eb" target="_top" xlink:title=" ">
<polygon fill="white" stroke="#666666" points="238.25,-29 137.5,-29 137.5,0 238.25,0 238.25,-29"/>
<text xml:space="preserve" text-anchor="start" x="145.5" y="-15.5" font-family="Helvetica,sans-Serif" font-size="10.00">Core::DataExporter</text>
<text xml:space="preserve" text-anchor="middle" x="187.88" y="-5" font-family="Helvetica,sans-Serif" font-size="10.00">::write_simple</text>
</a>
</g>
</g>
<!-- Node1&#45;&gt;Node4 -->
<g id="edge4_Node000001_Node000004" class="edge">
<title>Node1&#45;&gt;Node4</title>
<g id="a_edge4_Node000001_Node000004"><a xlink:title=" ">
<path fill="none" stroke="#63b8ff" d="M94.5,-46.63C106.83,-42.34 120.43,-37.61 133.32,-33.13"/>
<polygon fill="#63b8ff" stroke="#63b8ff" points="134.21,-36.52 142.51,-29.93 131.91,-29.91 134.21,-36.52"/>
</a>
</g>
</g>
<!-- Node2&#45;&gt;Node2 -->
<g id="edge2_Node000002_Node000002" class="edge">
<title>Node2&#45;&gt;Node2</title>
<g id="a_edge2_Node000002_Node000002"><a xlink:title=" ">
<path fill="none" stroke="#63b8ff" d="M163.98,-123.21C158.22,-132.32 166.18,-141 187.88,-141 199.74,-141 207.5,-138.41 211.15,-134.56"/>
<polygon fill="#63b8ff" stroke="#63b8ff" points="214.64,-134.89 211.69,-124.72 207.65,-134.51 214.64,-134.89"/>
</a>
</g>
</g>
</g>
</svg>
</svg>

<style type='text/css'>
<![CDATA[
[data-mouse-over-selected='false'] { opacity: 0.7; }
[data-mouse-over-selected='true']  { opacity: 1.0; }
]]>
</style>
<script type="application/ecmascript"><![CDATA[
document.addEventListener('DOMContentLoaded', (event) => {
  highlightEdges();
  highlightAdjacentNodes();
});
]]></script>
</svg>
