<?xml version="1.0" encoding="UTF-8" standalone="no"?>
<!DOCTYPE svg PUBLIC "-//W3C//DTD SVG 1.1//EN"
 "http://www.w3.org/Graphics/SVG/1.1/DTD/svg11.dtd">
<!-- Generated by graphviz version 14.0.1 (0)
 -->
<!-- Title: PythonWrap::PimpModel::PimpModel Pages: 1 -->
<svg width="292pt" height="178pt"
 viewBox="0.00 0.00 292.00 178.00" xmlns="http://www.w3.org/2000/svg" xmlns:xlink="http://www.w3.org/1999/xlink">

<svg id="main" version="1.1" xmlns="http://www.w3.org/2000/svg" xmlns:xlink="http://www.w3.org/1999/xlink" xml:space="preserve">

<style type="text/css"><![CDATA[
.node, .edge {opacity: 0.7;}
.node.selected, .edge.selected {opacity: 1;}
.edge:hover path { stroke: red; }
.edge:hover polygon { stroke: red; fill: red; }
]]></style>
<script type="application/ecmascript" xlink:href="svg.min.js"/>
<svg id="graph" class="graph">
<g id="graph0" class="graph" transform="scale(1 1) rotate(0) translate(4 174)">
<title>PythonWrap::PimpModel::PimpModel</title>
<!-- Node1 -->
<g id="Node000001" class="node">
<title>Node1</title>
<g id="a_Node000001"><a xlink:title=" ">
<polygon fill="#999999" stroke="#666666" points="284,-99 160,-99 160,-70 284,-70 284,-99"/>
<text xml:space="preserve" text-anchor="start" x="168" y="-85.5" font-family="Helvetica,sans-Serif" font-size="10.00">PythonWrap::PimpModel</text>
<text xml:space="preserve" text-anchor="middle" x="222" y="-75" font-family="Helvetica,sans-Serif" font-size="10.00">::PimpModel</text>
</a>
</g>
</g>
<!-- Node1&#45;&gt;Node1 -->
<g id="edge4_Node000001_Node000001" class="edge">
<title>Node1&#45;&gt;Node1</title>
<g id="a_edge4_Node000001_Node000001"><a xlink:title=" ">
<path fill="none" stroke="#63b8ff" d="M249.16,-110.56C244.89,-114.41 235.84,-117 222,-117 196.69,-117 187.39,-108.32 194.12,-99.21"/>
<polygon fill="#63b8ff" stroke="#63b8ff" points="252.64,-110.92 249.79,-100.72 245.66,-110.47 252.64,-110.92"/>
</a>
</g>
</g>
<!-- Node2 -->
<g id="Node000002" class="node">
<title>Node2</title>
<g id="a_Node000002"><a xlink:href="classPythonWrap_1_1PimpModel.html#a483e83faf0af3f179dd4b1015377971d" target="_top" xlink:title=" ">
<polygon fill="white" stroke="#666666" points="124,-170 0,-170 0,-141 124,-141 124,-170"/>
<text xml:space="preserve" text-anchor="start" x="8" y="-156.5" font-family="Helvetica,sans-Serif" font-size="10.00">PythonWrap::PimpModel</text>
<text xml:space="preserve" text-anchor="middle" x="62" y="-146" font-family="Helvetica,sans-Serif" font-size="10.00">::division</text>
</a>
</g>
</g>
<!-- Node1&#45;&gt;Node2 -->
<g id="edge1_Node000001_Node000002" class="edge">
<title>Node1&#45;&gt;Node2</title>
<g id="a_edge1_Node000001_Node000002"><a xlink:title=" ">
<path fill="none" stroke="#63b8ff" d="M182.95,-104.42C165.22,-113.41 143.73,-123.92 124,-132.5 117.67,-135.25 110.89,-138 104.24,-140.59"/>
<polygon fill="#63b8ff" stroke="#63b8ff" points="184.25,-107.68 191.56,-100.01 181.07,-101.45 184.25,-107.68"/>
</a>
</g>
</g>
<!-- Node3 -->
<g id="Node000003" class="node">
<title>Node3</title>
<g id="a_Node000003"><a xlink:href="classPythonWrap_1_1PimpModel.html#a4a8a2897e06899858361456de5795fad" target="_top" xlink:title=" ">
<polygon fill="white" stroke="#666666" points="124,-123 0,-123 0,-94 124,-94 124,-123"/>
<text xml:space="preserve" text-anchor="start" x="8" y="-109.5" font-family="Helvetica,sans-Serif" font-size="10.00">PythonWrap::PimpModel</text>
<text xml:space="preserve" text-anchor="middle" x="62" y="-99" font-family="Helvetica,sans-Serif" font-size="10.00">::operator=</text>
</a>
</g>
</g>
<!-- Node1&#45;&gt;Node3 -->
<g id="edge2_Node000001_Node000003" class="edge">
<title>Node1&#45;&gt;Node3</title>
<g id="a_edge2_Node000001_Node000003"><a xlink:title=" ">
<path fill="none" stroke="#63b8ff" d="M148.6,-95.5C140.53,-96.72 132.36,-97.96 124.45,-99.17"/>
<polygon fill="#63b8ff" stroke="#63b8ff" points="149.06,-98.97 158.42,-94.01 148,-92.05 149.06,-98.97"/>
</a>
</g>
</g>
<!-- Node4 -->
<g id="Node000004" class="node">
<title>Node4</title>
<g id="a_Node000004"><a xlink:href="classPythonWrap_1_1PimpModel.html#a3a2bf174f7e60a209b2c37552bc22ff9" target="_top" xlink:title=" ">
<polygon fill="white" stroke="#666666" points="124,-76 0,-76 0,-47 124,-47 124,-76"/>
<text xml:space="preserve" text-anchor="start" x="8" y="-62.5" font-family="Helvetica,sans-Serif" font-size="10.00">PythonWrap::PimpModel</text>
<text xml:space="preserve" text-anchor="middle" x="62" y="-52" font-family="Helvetica,sans-Serif" font-size="10.00">::operator=</text>
</a>
</g>
</g>
<!-- Node1&#45;&gt;Node4 -->
<g id="edge3_Node000001_Node000004" class="edge">
<title>Node1&#45;&gt;Node4</title>
<g id="a_edge3_Node000001_Node000004"><a xlink:title=" ">
<path fill="none" stroke="#63b8ff" d="M148.6,-73.96C140.53,-72.79 132.36,-71.6 124.45,-70.44"/>
<polygon fill="#63b8ff" stroke="#63b8ff" points="148.02,-77.41 158.42,-75.39 149.02,-70.49 148.02,-77.41"/>
</a>
</g>
</g>
<!-- Node5 -->
<g id="Node000005" class="node">
<title>Node5</title>
<g id="a_Node000005"><a xlink:href="classPythonWrap_1_1PimpModel.html#a5d168d7122657ce062ca0cf60f93965c" target="_top" xlink:title=" ">
<polygon fill="white" stroke="#666666" points="124,-29 0,-29 0,0 124,0 124,-29"/>
<text xml:space="preserve" text-anchor="start" x="8" y="-15.5" font-family="Helvetica,sans-Serif" font-size="10.00">PythonWrap::PimpModel</text>
<text xml:space="preserve" text-anchor="middle" x="62" y="-5" font-family="Helvetica,sans-Serif" font-size="10.00">::PimpModel</text>
</a>
</g>
</g>
<!-- Node1&#45;&gt;Node5 -->
<g id="edge5_Node000001_Node000005" class="edge">
<title>Node1&#45;&gt;Node5</title>
<g id="a_edge5_Node000001_Node000005"><a xlink:title=" ">
<path fill="none" stroke="#63b8ff" d="M180.76,-64.67C163.42,-56.31 142.84,-46.66 124,-38.5 117,-35.47 109.49,-32.38 102.21,-29.47"/>
<polygon fill="#63b8ff" stroke="#63b8ff" points="179.21,-67.8 189.73,-69.01 182.26,-61.5 179.21,-67.8"/>
</a>
</g>
</g>
</g>
</svg>
</svg>

<style type='text/css'>
<![CDATA[
[data-mouse-over-selected='false'] { opacity: 0.7; }
[data-mouse-over-selected='true']  { opacity: 1.0; }
]]>
</style>
<script type="application/ecmascript"><![CDATA[
document.addEventListener('DOMContentLoaded', (event) => {
  highlightEdges();
  highlightAdjacentNodes();
});
]]></script>
</svg>
