<?xml version="1.0" encoding="UTF-8" standalone="no"?>
<!DOCTYPE svg PUBLIC "-//W3C//DTD SVG 1.1//EN"
 "http://www.w3.org/Graphics/SVG/1.1/DTD/svg11.dtd">
<!-- Generated by graphviz version 14.0.1 (0)
 -->
<!-- Title: Simulation::SimulationUnit::post_init_concentration_functor Pages: 1 -->
<svg width="642pt" height="178pt"
 viewBox="0.00 0.00 642.00 178.00" xmlns="http://www.w3.org/2000/svg" xmlns:xlink="http://www.w3.org/1999/xlink">
<g id="graph0" class="graph" transform="scale(1 1) rotate(0) translate(4 174)">
<title>Simulation::SimulationUnit::post_init_concentration_functor</title>
<!-- Node1 -->
<g id="Node000001" class="node">
<title>Node1</title>
<g id="a_Node000001"><a xlink:title=" ">
<polygon fill="#999999" stroke="#666666" points="634,-104.25 502.5,-104.25 502.5,-64.75 634,-64.75 634,-104.25"/>
<text xml:space="preserve" text-anchor="start" x="510.5" y="-90.75" font-family="Helvetica,sans-Serif" font-size="10.00">Simulation::SimulationUnit</text>
<text xml:space="preserve" text-anchor="start" x="510.5" y="-80.25" font-family="Helvetica,sans-Serif" font-size="10.00">::post_init_concentration</text>
<text xml:space="preserve" text-anchor="middle" x="568.25" y="-69.75" font-family="Helvetica,sans-Serif" font-size="10.00">_functor</text>
</a>
</g>
</g>
<!-- Node2 -->
<g id="Node000002" class="node">
<title>Node2</title>
<g id="a_Node000002"><a xlink:href="classSimulation_1_1SimulationUnit.html#ad3ffc3108a93d7f403e8f2b81cc24e6d" target="_top" xlink:title=" ">
<polygon fill="white" stroke="#666666" points="466.5,-99 335,-99 335,-70 466.5,-70 466.5,-99"/>
<text xml:space="preserve" text-anchor="start" x="343" y="-85.5" font-family="Helvetica,sans-Serif" font-size="10.00">Simulation::SimulationUnit</text>
<text xml:space="preserve" text-anchor="middle" x="400.75" y="-75" font-family="Helvetica,sans-Serif" font-size="10.00">::post_init_concentration</text>
</a>
</g>
</g>
<!-- Node1&#45;&gt;Node2 -->
<g id="edge1_Node000001_Node000002" class="edge">
<title>Node1&#45;&gt;Node2</title>
<g id="a_edge1_Node000001_Node000002"><a xlink:title=" ">
<path fill="none" stroke="#63b8ff" d="M490.97,-84.5C482.88,-84.5 474.71,-84.5 466.77,-84.5"/>
<polygon fill="#63b8ff" stroke="#63b8ff" points="490.8,-88 500.8,-84.5 490.8,-81 490.8,-88"/>
</a>
</g>
</g>
<!-- Node3 -->
<g id="Node000003" class="node">
<title>Node3</title>
<g id="a_Node000003"><a xlink:href="classSimulation_1_1SimulationUnit.html#a366f1f10c6148e01e79d3f10735ea0ea" target="_top" xlink:title=" ">
<polygon fill="white" stroke="#666666" points="299,-99 167.5,-99 167.5,-70 299,-70 299,-99"/>
<text xml:space="preserve" text-anchor="start" x="175.5" y="-85.5" font-family="Helvetica,sans-Serif" font-size="10.00">Simulation::SimulationUnit</text>
<text xml:space="preserve" text-anchor="middle" x="233.25" y="-75" font-family="Helvetica,sans-Serif" font-size="10.00">::SimulationUnit</text>
</a>
</g>
</g>
<!-- Node2&#45;&gt;Node3 -->
<g id="edge2_Node000002_Node000003" class="edge">
<title>Node2&#45;&gt;Node3</title>
<g id="a_edge2_Node000002_Node000003"><a xlink:title=" ">
<path fill="none" stroke="#63b8ff" d="M323.47,-84.5C315.38,-84.5 307.21,-84.5 299.27,-84.5"/>
<polygon fill="#63b8ff" stroke="#63b8ff" points="323.3,-88 333.3,-84.5 323.3,-81 323.3,-88"/>
</a>
</g>
</g>
<!-- Node4 -->
<g id="Node000004" class="node">
<title>Node4</title>
<g id="a_Node000004"><a xlink:href="classSimulation_1_1SimulationUnit.html#a255b9ef06424a104581e8aab290e8281" target="_top" xlink:title=" ">
<polygon fill="white" stroke="#666666" points="131.5,-170 0,-170 0,-141 131.5,-141 131.5,-170"/>
<text xml:space="preserve" text-anchor="start" x="8" y="-156.5" font-family="Helvetica,sans-Serif" font-size="10.00">Simulation::SimulationUnit</text>
<text xml:space="preserve" text-anchor="middle" x="65.75" y="-146" font-family="Helvetica,sans-Serif" font-size="10.00">::operator=</text>
</a>
</g>
</g>
<!-- Node3&#45;&gt;Node4 -->
<g id="edge3_Node000003_Node000004" class="edge">
<title>Node3&#45;&gt;Node4</title>
<g id="a_edge3_Node000003_Node000004"><a xlink:title=" ">
<path fill="none" stroke="#63b8ff" d="M192.99,-104.37C174.53,-113.4 152.09,-123.96 131.5,-132.5 124.89,-135.24 117.82,-137.96 110.87,-140.52"/>
<polygon fill="#63b8ff" stroke="#63b8ff" points="194.3,-107.62 201.72,-100.05 191.2,-101.34 194.3,-107.62"/>
</a>
</g>
</g>
<!-- Node5 -->
<g id="Node000005" class="node">
<title>Node5</title>
<g id="a_Node000005"><a xlink:href="classSimulation_1_1SimulationUnit.html#aa8a28ba8699f0b719db0558d4eca98cf" target="_top" xlink:title=" ">
<polygon fill="white" stroke="#666666" points="131.5,-123 0,-123 0,-94 131.5,-94 131.5,-123"/>
<text xml:space="preserve" text-anchor="start" x="8" y="-109.5" font-family="Helvetica,sans-Serif" font-size="10.00">Simulation::SimulationUnit</text>
<text xml:space="preserve" text-anchor="middle" x="65.75" y="-99" font-family="Helvetica,sans-Serif" font-size="10.00">::operator=</text>
</a>
</g>
</g>
<!-- Node3&#45;&gt;Node5 -->
<g id="edge4_Node000003_Node000005" class="edge">
<title>Node3&#45;&gt;Node5</title>
<g id="a_edge4_Node000003_Node000005"><a xlink:title=" ">
<path fill="none" stroke="#63b8ff" d="M155.97,-95.56C147.88,-96.73 139.71,-97.92 131.77,-99.07"/>
<polygon fill="#63b8ff" stroke="#63b8ff" points="156.42,-99.03 165.82,-94.13 155.42,-92.11 156.42,-99.03"/>
</a>
</g>
</g>
<!-- Node6 -->
<g id="Node000006" class="node">
<title>Node6</title>
<g id="a_Node000006"><a xlink:href="classSimulation_1_1SimulationUnit.html#a8e019e0aff679d5c93b0b0e8a1f4542e" target="_top" xlink:title=" ">
<polygon fill="white" stroke="#666666" points="131.5,-76 0,-76 0,-47 131.5,-47 131.5,-76"/>
<text xml:space="preserve" text-anchor="start" x="8" y="-62.5" font-family="Helvetica,sans-Serif" font-size="10.00">Simulation::SimulationUnit</text>
<text xml:space="preserve" text-anchor="middle" x="65.75" y="-52" font-family="Helvetica,sans-Serif" font-size="10.00">::SimulationUnit</text>
</a>
</g>
</g>
<!-- Node3&#45;&gt;Node6 -->
<g id="edge5_Node000003_Node000006" class="edge">
<title>Node3&#45;&gt;Node6</title>
<g id="a_edge5_Node000003_Node000006"><a xlink:title=" ">
<path fill="none" stroke="#63b8ff" d="M155.97,-73.9C147.88,-72.78 139.71,-71.64 131.77,-70.54"/>
<polygon fill="#63b8ff" stroke="#63b8ff" points="155.43,-77.36 165.82,-75.27 156.39,-70.42 155.43,-77.36"/>
</a>
</g>
</g>
<!-- Node7 -->
<g id="Node000007" class="node">
<title>Node7</title>
<g id="a_Node000007"><a xlink:href="classSimulation_1_1SimulationUnit.html#aa1fba49aec41255dbf01e2c07067df2a" target="_top" xlink:title=" ">
<polygon fill="white" stroke="#666666" points="131.5,-29 0,-29 0,0 131.5,0 131.5,-29"/>
<text xml:space="preserve" text-anchor="start" x="8" y="-15.5" font-family="Helvetica,sans-Serif" font-size="10.00">Simulation::SimulationUnit</text>
<text xml:space="preserve" text-anchor="middle" x="65.75" y="-5" font-family="Helvetica,sans-Serif" font-size="10.00">::SimulationUnit</text>
</a>
</g>
</g>
<!-- Node3&#45;&gt;Node7 -->
<g id="edge6_Node000003_Node000007" class="edge">
<title>Node3&#45;&gt;Node7</title>
<g id="a_edge6_Node000003_Node000007"><a xlink:title=" ">
<path fill="none" stroke="#63b8ff" d="M190.97,-64.83C172.86,-56.41 151.26,-46.66 131.5,-38.5 124.08,-35.43 116.1,-32.33 108.38,-29.42"/>
<polygon fill="#63b8ff" stroke="#63b8ff" points="189.28,-67.9 199.82,-68.97 192.25,-61.56 189.28,-67.9"/>
</a>
</g>
</g>
</g>
</svg>
