<?xml version="1.0" encoding="UTF-8" standalone="no"?>
<!DOCTYPE svg PUBLIC "-//W3C//DTD SVG 1.1//EN"
 "http://www.w3.org/Graphics/SVG/1.1/DTD/svg11.dtd">
<!-- Generated by graphviz version 14.0.1 (0)
 -->
<!-- Title: MC::ParticlesContainer::remove_inactive_particles Pages: 1 -->
<svg width="828pt" height="84pt"
 viewBox="0.00 0.00 828.00 84.00" xmlns="http://www.w3.org/2000/svg" xmlns:xlink="http://www.w3.org/1999/xlink">
<g id="graph0" class="graph" transform="scale(1 1) rotate(0) translate(4 80)">
<title>MC::ParticlesContainer::remove_inactive_particles</title>
<!-- Node1 -->
<g id="Node000001" class="node">
<title>Node1</title>
<g id="a_Node000001"><a xlink:title="Removes inactive particles from the container.">
<polygon fill="#999999" stroke="#666666" points="820.25,-52 685.75,-52 685.75,-23 820.25,-23 820.25,-52"/>
<text xml:space="preserve" text-anchor="start" x="693.75" y="-38.5" font-family="Helvetica,sans-Serif" font-size="10.00">MC::ParticlesContainer</text>
<text xml:space="preserve" text-anchor="middle" x="753" y="-28" font-family="Helvetica,sans-Serif" font-size="10.00">::remove_inactive_particles</text>
</a>
</g>
</g>
<!-- Node2 -->
<g id="Node000002" class="node">
<title>Node2</title>
<g id="a_Node000002"><a xlink:href="classMC_1_1ParticlesContainer.html#a25d64f06c6f66817bc15bac225369a63" target="_top" xlink:title="Clean all the non&#45;idle particle even if number smaller than threshold.">
<polygon fill="white" stroke="#666666" points="635.5,-76 516.75,-76 516.75,-47 635.5,-47 635.5,-76"/>
<text xml:space="preserve" text-anchor="start" x="524.75" y="-62.5" font-family="Helvetica,sans-Serif" font-size="10.00">MC::ParticlesContainer</text>
<text xml:space="preserve" text-anchor="middle" x="576.12" y="-52" font-family="Helvetica,sans-Serif" font-size="10.00">::force_remove_dead</text>
</a>
</g>
</g>
<!-- Node1&#45;&gt;Node2 -->
<g id="edge1_Node000001_Node000002" class="edge">
<title>Node1&#45;&gt;Node2</title>
<g id="a_edge1_Node000001_Node000002"><a xlink:title=" ">
<path fill="none" stroke="#63b8ff" d="M674.17,-48.18C661.29,-49.95 648.13,-51.75 635.83,-53.44"/>
<polygon fill="#63b8ff" stroke="#63b8ff" points="674.46,-51.67 683.89,-46.85 673.51,-44.74 674.46,-51.67"/>
</a>
</g>
</g>
<!-- Node4 -->
<g id="Node000004" class="node">
<title>Node4</title>
<g id="a_Node000004"><a xlink:href="classMC_1_1ParticlesContainer.html#a0047f4c96b02ae4aeb9ebd8963129687" target="_top" xlink:title="Update the number of non&#45;idle particle and remove if total number exceeds threshold May call : remove...">
<polygon fill="white" stroke="#666666" points="649.75,-29 502.5,-29 502.5,0 649.75,0 649.75,-29"/>
<text xml:space="preserve" text-anchor="start" x="510.5" y="-15.5" font-family="Helvetica,sans-Serif" font-size="10.00">MC::ParticlesContainer</text>
<text xml:space="preserve" text-anchor="middle" x="576.12" y="-5" font-family="Helvetica,sans-Serif" font-size="10.00">::update_and_remove_inactive</text>
</a>
</g>
</g>
<!-- Node1&#45;&gt;Node4 -->
<g id="edge3_Node000001_Node000004" class="edge">
<title>Node1&#45;&gt;Node4</title>
<g id="a_edge3_Node000001_Node000004"><a xlink:title=" ">
<path fill="none" stroke="#63b8ff" d="M674.13,-27.26C666.09,-26.2 657.95,-25.13 649.97,-24.08"/>
<polygon fill="#63b8ff" stroke="#63b8ff" points="673.52,-30.71 683.89,-28.54 674.43,-23.77 673.52,-30.71"/>
</a>
</g>
</g>
<!-- Node3 -->
<g id="Node000003" class="node">
<title>Node3</title>
<g id="a_Node000003"><a xlink:href="namespacePostProcessing.html#a5c1775fa34193199d9c989e5740e2f84" target="_top" xlink:title=" ">
<polygon fill="white" stroke="#666666" points="453,-76 348.5,-76 348.5,-47 453,-47 453,-76"/>
<text xml:space="preserve" text-anchor="start" x="356.5" y="-62.5" font-family="Helvetica,sans-Serif" font-size="10.00">PostProcessing::get</text>
<text xml:space="preserve" text-anchor="middle" x="400.75" y="-52" font-family="Helvetica,sans-Serif" font-size="10.00">_properties</text>
</a>
</g>
</g>
<!-- Node2&#45;&gt;Node3 -->
<g id="edge2_Node000002_Node000003" class="edge">
<title>Node2&#45;&gt;Node3</title>
<g id="a_edge2_Node000002_Node000003"><a xlink:title=" ">
<path fill="none" stroke="#63b8ff" d="M505.22,-61.5C487.91,-61.5 469.68,-61.5 453.42,-61.5"/>
<polygon fill="#63b8ff" stroke="#63b8ff" points="504.91,-65 514.91,-61.5 504.91,-58 504.91,-65"/>
</a>
</g>
</g>
<!-- Node5 -->
<g id="Node000005" class="node">
<title>Node5</title>
<g id="a_Node000005"><a xlink:href="classSimulation_1_1SimulationUnit.html#a96e8f3fbde370c918a3710b0b910cd42" target="_top" xlink:title=" ">
<polygon fill="white" stroke="#666666" points="466.5,-29 335,-29 335,0 466.5,0 466.5,-29"/>
<text xml:space="preserve" text-anchor="start" x="343" y="-15.5" font-family="Helvetica,sans-Serif" font-size="10.00">Simulation::SimulationUnit</text>
<text xml:space="preserve" text-anchor="middle" x="400.75" y="-5" font-family="Helvetica,sans-Serif" font-size="10.00">::post_cycle</text>
</a>
</g>
</g>
<!-- Node4&#45;&gt;Node5 -->
<g id="edge4_Node000004_Node000005" class="edge">
<title>Node4&#45;&gt;Node5</title>
<g id="a_edge4_Node000004_Node000005"><a xlink:title=" ">
<path fill="none" stroke="#63b8ff" d="M490.82,-14.5C482.81,-14.5 474.77,-14.5 466.98,-14.5"/>
<polygon fill="#63b8ff" stroke="#63b8ff" points="490.59,-18 500.59,-14.5 490.59,-11 490.59,-18"/>
</a>
</g>
</g>
<!-- Node6 -->
<g id="Node000006" class="node">
<title>Node6</title>
<g id="a_Node000006"><a xlink:href="classSimulation_1_1SimulationUnit.html#a7b49fd171d4de8aa3949738da6c3810f" target="_top" xlink:title=" ">
<polygon fill="white" stroke="#666666" points="299,-29 167.5,-29 167.5,0 299,0 299,-29"/>
<text xml:space="preserve" text-anchor="start" x="175.5" y="-15.5" font-family="Helvetica,sans-Serif" font-size="10.00">Simulation::SimulationUnit</text>
<text xml:space="preserve" text-anchor="middle" x="233.25" y="-5" font-family="Helvetica,sans-Serif" font-size="10.00">::cycleProcess</text>
</a>
</g>
</g>
<!-- Node5&#45;&gt;Node6 -->
<g id="edge5_Node000005_Node000006" class="edge">
<title>Node5&#45;&gt;Node6</title>
<g id="a_edge5_Node000005_Node000006"><a xlink:title=" ">
<path fill="none" stroke="#63b8ff" d="M323.47,-14.5C315.38,-14.5 307.21,-14.5 299.27,-14.5"/>
<polygon fill="#63b8ff" stroke="#63b8ff" points="323.3,-18 333.3,-14.5 323.3,-11 323.3,-18"/>
</a>
</g>
</g>
<!-- Node7 -->
<g id="Node000007" class="node">
<title>Node7</title>
<g id="a_Node000007"><a xlink:href="classSimulation_1_1SimulationUnit.html#adc096ee7d35524a8107a3390daa55a1a" target="_top" xlink:title=" ">
<polygon fill="white" stroke="#666666" points="131.5,-29 0,-29 0,0 131.5,0 131.5,-29"/>
<text xml:space="preserve" text-anchor="start" x="8" y="-15.5" font-family="Helvetica,sans-Serif" font-size="10.00">Simulation::SimulationUnit</text>
<text xml:space="preserve" text-anchor="middle" x="65.75" y="-5" font-family="Helvetica,sans-Serif" font-size="10.00">::getState</text>
</a>
</g>
</g>
<!-- Node6&#45;&gt;Node7 -->
<g id="edge6_Node000006_Node000007" class="edge">
<title>Node6&#45;&gt;Node7</title>
<g id="a_edge6_Node000006_Node000007"><a xlink:title=" ">
<path fill="none" stroke="#63b8ff" d="M155.97,-14.5C147.88,-14.5 139.71,-14.5 131.77,-14.5"/>
<polygon fill="#63b8ff" stroke="#63b8ff" points="155.8,-18 165.8,-14.5 155.8,-11 155.8,-18"/>
</a>
</g>
</g>
</g>
</svg>
