<?xml version="1.0" encoding="UTF-8" standalone="no"?>
<!DOCTYPE svg PUBLIC "-//W3C//DTD SVG 1.1//EN"
 "http://www.w3.org/Graphics/SVG/1.1/DTD/svg11.dtd">
<!-- Generated by graphviz version 14.0.1 (0)
 -->
<!-- Title: Simulation::SimulationUnit::operator= Pages: 1 -->
<svg width="997pt" height="522pt"
 viewBox="0.00 0.00 997.00 522.00" xmlns="http://www.w3.org/2000/svg" xmlns:xlink="http://www.w3.org/1999/xlink">
<g id="graph0" class="graph" transform="scale(1 1) rotate(0) translate(4 518)">
<title>Simulation::SimulationUnit::operator=</title>
<!-- Node1 -->
<g id="Node000001" class="node">
<title>Node1</title>
<g id="a_Node000001"><a xlink:title=" ">
<polygon fill="#999999" stroke="#666666" points="131.5,-260 0,-260 0,-231 131.5,-231 131.5,-260"/>
<text xml:space="preserve" text-anchor="start" x="8" y="-246.5" font-family="Helvetica,sans-Serif" font-size="10.00">Simulation::SimulationUnit</text>
<text xml:space="preserve" text-anchor="middle" x="65.75" y="-236" font-family="Helvetica,sans-Serif" font-size="10.00">::operator=</text>
</a>
</g>
</g>
<!-- Node2 -->
<g id="Node000002" class="node">
<title>Node2</title>
<g id="a_Node000002"><a xlink:href="classSimulation_1_1SimulationUnit.html#ad964b9f706ae4cac2e0d5d852131a7d2" target="_top" xlink:title=" ">
<polygon fill="white" stroke="#666666" points="299,-514 167.5,-514 167.5,-485 299,-485 299,-514"/>
<text xml:space="preserve" text-anchor="start" x="175.5" y="-500.5" font-family="Helvetica,sans-Serif" font-size="10.00">Simulation::SimulationUnit</text>
<text xml:space="preserve" text-anchor="middle" x="233.25" y="-490" font-family="Helvetica,sans-Serif" font-size="10.00">::checkScalar</text>
</a>
</g>
</g>
<!-- Node1&#45;&gt;Node2 -->
<g id="edge1_Node000001_Node000002" class="edge">
<title>Node1&#45;&gt;Node2</title>
<g id="a_edge1_Node000001_Node000002"><a xlink:title=" ">
<path fill="none" stroke="#63b8ff" d="M69.03,-260.27C76.03,-300.73 100.94,-414.44 167.5,-476.5 168.12,-477.08 168.76,-477.64 169.41,-478.2"/>
<polygon fill="#63b8ff" stroke="#63b8ff" points="167.13,-480.87 177.33,-483.73 171.14,-475.13 167.13,-480.87"/>
</a>
</g>
</g>
<!-- Node3 -->
<g id="Node000003" class="node">
<title>Node3</title>
<g id="a_Node000003"><a xlink:href="classSimulation_1_1SimulationUnit.html#aeb968caf58812bcab01534e72a63d552" target="_top" xlink:title=" ">
<polygon fill="white" stroke="#666666" points="299,-467 167.5,-467 167.5,-438 299,-438 299,-467"/>
<text xml:space="preserve" text-anchor="start" x="175.5" y="-453.5" font-family="Helvetica,sans-Serif" font-size="10.00">Simulation::SimulationUnit</text>
<text xml:space="preserve" text-anchor="middle" x="233.25" y="-443" font-family="Helvetica,sans-Serif" font-size="10.00">::clearContribution</text>
</a>
</g>
</g>
<!-- Node1&#45;&gt;Node3 -->
<g id="edge2_Node000001_Node000003" class="edge">
<title>Node1&#45;&gt;Node3</title>
<g id="a_edge2_Node000001_Node000003"><a xlink:title=" ">
<path fill="none" stroke="#63b8ff" d="M71.56,-260.46C83.03,-293.94 114.98,-375.7 167.5,-423.5 170.93,-426.62 174.76,-429.46 178.79,-432.02"/>
<polygon fill="#63b8ff" stroke="#63b8ff" points="176.72,-434.87 187.15,-436.76 180.17,-428.78 176.72,-434.87"/>
</a>
</g>
</g>
<!-- Node4 -->
<g id="Node000004" class="node">
<title>Node4</title>
<g id="a_Node000004"><a xlink:href="classSimulation_1_1SimulationUnit.html#a5512cea54affc3eb0c16380d973348e5" target="_top" xlink:title=" ">
<polygon fill="white" stroke="#666666" points="299,-372 167.5,-372 167.5,-343 299,-343 299,-372"/>
<text xml:space="preserve" text-anchor="start" x="175.5" y="-358.5" font-family="Helvetica,sans-Serif" font-size="10.00">Simulation::SimulationUnit</text>
<text xml:space="preserve" text-anchor="middle" x="233.25" y="-348" font-family="Helvetica,sans-Serif" font-size="10.00">::cycleProcess</text>
</a>
</g>
</g>
<!-- Node1&#45;&gt;Node4 -->
<g id="edge3_Node000001_Node000004" class="edge">
<title>Node1&#45;&gt;Node4</title>
<g id="a_edge3_Node000001_Node000004"><a xlink:title=" ">
<path fill="none" stroke="#63b8ff" d="M80.06,-260.36C98.15,-279.79 132.31,-313.77 167.5,-334.5 169.39,-335.61 171.34,-336.68 173.33,-337.71"/>
<polygon fill="#63b8ff" stroke="#63b8ff" points="171.68,-340.8 182.22,-341.88 174.65,-334.47 171.68,-340.8"/>
</a>
</g>
</g>
<!-- Node15 -->
<g id="Node000015" class="node">
<title>Node15</title>
<g id="a_Node000015"><a xlink:href="classSimulation_1_1SimulationUnit.html#a1278ad223b0cc8509f68a9f7d995bfd2" target="_top" xlink:title=" ">
<polygon fill="white" stroke="#666666" points="641.88,-424 510.38,-424 510.38,-395 641.88,-395 641.88,-424"/>
<text xml:space="preserve" text-anchor="start" x="518.38" y="-410.5" font-family="Helvetica,sans-Serif" font-size="10.00">Simulation::SimulationUnit</text>
<text xml:space="preserve" text-anchor="middle" x="576.12" y="-400" font-family="Helvetica,sans-Serif" font-size="10.00">::SimulationUnit</text>
</a>
</g>
</g>
<!-- Node1&#45;&gt;Node15 -->
<g id="edge28_Node000001_Node000015" class="edge">
<title>Node1&#45;&gt;Node15</title>
<g id="a_edge28_Node000001_Node000015"><a xlink:title=" ">
<path fill="none" stroke="#63b8ff" d="M72.62,-260.3C85.09,-289.48 117.24,-353.98 167.5,-381.5 271.26,-438.31 412.81,-432.98 498.89,-422.37"/>
<polygon fill="#63b8ff" stroke="#63b8ff" points="499.17,-425.87 508.64,-421.11 498.27,-418.92 499.17,-425.87"/>
</a>
</g>
</g>
<!-- Node19 -->
<g id="Node000019" class="node">
<title>Node19</title>
<g id="a_Node000019"><a xlink:href="classSimulation_1_1SimulationUnit.html#aceb670b889811566ad3c159b8ecb5a9f" target="_top" xlink:title=" ">
<polygon fill="white" stroke="#666666" points="299,-307 167.5,-307 167.5,-278 299,-278 299,-307"/>
<text xml:space="preserve" text-anchor="start" x="175.5" y="-293.5" font-family="Helvetica,sans-Serif" font-size="10.00">Simulation::SimulationUnit</text>
<text xml:space="preserve" text-anchor="middle" x="233.25" y="-283" font-family="Helvetica,sans-Serif" font-size="10.00">::Getter</text>
</a>
</g>
</g>
<!-- Node1&#45;&gt;Node19 -->
<g id="edge21_Node000001_Node000019" class="edge">
<title>Node1&#45;&gt;Node19</title>
<g id="a_edge21_Node000001_Node000019"><a xlink:title=" ">
<path fill="none" stroke="#63b8ff" d="M119.12,-260.37C134.96,-264.87 152.54,-269.86 169.02,-274.54"/>
<polygon fill="#63b8ff" stroke="#63b8ff" points="167.63,-277.79 178.2,-277.15 169.54,-271.05 167.63,-277.79"/>
</a>
</g>
</g>
<!-- Node20 -->
<g id="Node000020" class="node">
<title>Node20</title>
<g id="a_Node000020"><a xlink:href="classSimulation_1_1SimulationUnit.html#a50e613289a3b6ca1abea7173e3eac01e" target="_top" xlink:title=" ">
<polygon fill="white" stroke="#666666" points="299,-260 167.5,-260 167.5,-231 299,-231 299,-260"/>
<text xml:space="preserve" text-anchor="start" x="175.5" y="-246.5" font-family="Helvetica,sans-Serif" font-size="10.00">Simulation::SimulationUnit</text>
<text xml:space="preserve" text-anchor="middle" x="233.25" y="-236" font-family="Helvetica,sans-Serif" font-size="10.00">::init_functors</text>
</a>
</g>
</g>
<!-- Node1&#45;&gt;Node20 -->
<g id="edge23_Node000001_Node000020" class="edge">
<title>Node1&#45;&gt;Node20</title>
<g id="a_edge23_Node000001_Node000020"><a xlink:title=" ">
<path fill="none" stroke="#63b8ff" d="M131.68,-245.5C139.63,-245.5 147.79,-245.5 155.88,-245.5"/>
<polygon fill="#63b8ff" stroke="#63b8ff" points="155.72,-249 165.72,-245.5 155.72,-242 155.72,-249"/>
</a>
</g>
</g>
<!-- Node24 -->
<g id="Node000024" class="node">
<title>Node24</title>
<g id="a_Node000024"><a xlink:href="classSimulation_1_1SimulationUnit.html#aa12b65d19fa7e3eb74152b0252591a4d" target="_top" xlink:title=" ">
<polygon fill="white" stroke="#666666" points="299,-213 167.5,-213 167.5,-184 299,-184 299,-213"/>
<text xml:space="preserve" text-anchor="start" x="175.5" y="-199.5" font-family="Helvetica,sans-Serif" font-size="10.00">Simulation::SimulationUnit</text>
<text xml:space="preserve" text-anchor="middle" x="233.25" y="-189" font-family="Helvetica,sans-Serif" font-size="10.00">::reset</text>
</a>
</g>
</g>
<!-- Node1&#45;&gt;Node24 -->
<g id="edge27_Node000001_Node000024" class="edge">
<title>Node1&#45;&gt;Node24</title>
<g id="a_edge27_Node000001_Node000024"><a xlink:title=" ">
<path fill="none" stroke="#63b8ff" d="M119.12,-230.63C134.96,-226.13 152.54,-221.14 169.02,-216.46"/>
<polygon fill="#63b8ff" stroke="#63b8ff" points="169.54,-219.95 178.2,-213.85 167.63,-213.21 169.54,-219.95"/>
</a>
</g>
</g>
<!-- Node25 -->
<g id="Node000025" class="node">
<title>Node25</title>
<g id="a_Node000025"><a xlink:href="classSimulation_1_1SimulationUnit.html#af4d179bd1bf0d8da69d83f63fdd72412" target="_top" xlink:title=" ">
<polygon fill="white" stroke="#666666" points="299,-166 167.5,-166 167.5,-137 299,-137 299,-166"/>
<text xml:space="preserve" text-anchor="start" x="175.5" y="-152.5" font-family="Helvetica,sans-Serif" font-size="10.00">Simulation::SimulationUnit</text>
<text xml:space="preserve" text-anchor="middle" x="233.25" y="-142" font-family="Helvetica,sans-Serif" font-size="10.00">::step</text>
</a>
</g>
</g>
<!-- Node1&#45;&gt;Node25 -->
<g id="edge29_Node000001_Node000025" class="edge">
<title>Node1&#45;&gt;Node25</title>
<g id="a_edge29_Node000001_Node000025"><a xlink:title=" ">
<path fill="none" stroke="#63b8ff" d="M85.15,-230.58C104.69,-215.26 136.91,-191.47 167.5,-175.5 170.54,-173.91 173.7,-172.38 176.93,-170.92"/>
<polygon fill="#63b8ff" stroke="#63b8ff" points="178.16,-174.2 185.98,-167.04 175.41,-167.76 178.16,-174.2"/>
</a>
</g>
</g>
<!-- Node26 -->
<g id="Node000026" class="node">
<title>Node26</title>
<g id="a_Node000026"><a xlink:href="classSimulation_1_1SimulationUnit.html#a6fecb0563822fae0ef26d9f6209d0779" target="_top" xlink:title=" ">
<polygon fill="white" stroke="#666666" points="299,-119 167.5,-119 167.5,-90 299,-90 299,-119"/>
<text xml:space="preserve" text-anchor="start" x="175.5" y="-105.5" font-family="Helvetica,sans-Serif" font-size="10.00">Simulation::SimulationUnit</text>
<text xml:space="preserve" text-anchor="middle" x="233.25" y="-95" font-family="Helvetica,sans-Serif" font-size="10.00">::update_feed</text>
</a>
</g>
</g>
<!-- Node1&#45;&gt;Node26 -->
<g id="edge30_Node000001_Node000026" class="edge">
<title>Node1&#45;&gt;Node26</title>
<g id="a_edge30_Node000001_Node000026"><a xlink:title=" ">
<path fill="none" stroke="#63b8ff" d="M75.79,-230.82C91.55,-206.35 126.34,-157.11 167.5,-128.5 169.5,-127.11 171.59,-125.79 173.74,-124.54"/>
<polygon fill="#63b8ff" stroke="#63b8ff" points="174.9,-127.88 182.16,-120.16 171.68,-121.67 174.9,-127.88"/>
</a>
</g>
</g>
<!-- Node27 -->
<g id="Node000027" class="node">
<title>Node27</title>
<g id="a_Node000027"><a xlink:href="classSimulation_1_1SimulationUnit.html#a57624461bad4807d5cacbd7d17e49b14" target="_top" xlink:title=" ">
<polygon fill="white" stroke="#666666" points="299,-33 167.5,-33 167.5,-4 299,-4 299,-33"/>
<text xml:space="preserve" text-anchor="start" x="175.5" y="-19.5" font-family="Helvetica,sans-Serif" font-size="10.00">Simulation::SimulationUnit</text>
<text xml:space="preserve" text-anchor="middle" x="233.25" y="-9" font-family="Helvetica,sans-Serif" font-size="10.00">::updateHydro</text>
</a>
</g>
</g>
<!-- Node1&#45;&gt;Node27 -->
<g id="edge31_Node000001_Node000027" class="edge">
<title>Node1&#45;&gt;Node27</title>
<g id="a_edge31_Node000001_Node000027"><a xlink:title=" ">
<path fill="none" stroke="#63b8ff" d="M70.55,-230.76C80.51,-194.81 110.64,-101.61 167.5,-47.5 170.72,-44.44 174.32,-41.66 178.13,-39.15"/>
<polygon fill="#63b8ff" stroke="#63b8ff" points="179.73,-42.27 186.62,-34.21 176.21,-36.21 179.73,-42.27"/>
</a>
</g>
</g>
<!-- Node28 -->
<g id="Node000028" class="node">
<title>Node28</title>
<g id="a_Node000028"><a xlink:href="classSimulation_1_1SimulationUnit.html#a30514b0d71df785a793a60b5ea2f1b17" target="_top" xlink:title=" ">
<polygon fill="white" stroke="#666666" points="466.5,-76 335,-76 335,-47 466.5,-47 466.5,-76"/>
<text xml:space="preserve" text-anchor="start" x="343" y="-62.5" font-family="Helvetica,sans-Serif" font-size="10.00">Simulation::SimulationUnit</text>
<text xml:space="preserve" text-anchor="middle" x="400.75" y="-52" font-family="Helvetica,sans-Serif" font-size="10.00">::updateMCHydro</text>
</a>
</g>
</g>
<!-- Node1&#45;&gt;Node28 -->
<g id="edge34_Node000001_Node000028" class="edge">
<title>Node1&#45;&gt;Node28</title>
<g id="a_edge34_Node000001_Node000028"><a xlink:title=" ">
<path fill="none" stroke="#63b8ff" d="M70.79,-230.93C80.83,-197.76 110.34,-116.77 167.5,-81.5 213.65,-53.02 275.13,-48.88 323.24,-51.39"/>
<polygon fill="#63b8ff" stroke="#63b8ff" points="322.82,-54.87 333.02,-52.02 323.27,-47.89 322.82,-54.87"/>
</a>
</g>
</g>
<!-- Node5 -->
<g id="Node000005" class="node">
<title>Node5</title>
<g id="a_Node000005"><a xlink:href="classSimulation_1_1SimulationUnit.html#a96e8f3fbde370c918a3710b0b910cd42" target="_top" xlink:title=" ">
<polygon fill="white" stroke="#666666" points="466.5,-316 335,-316 335,-287 466.5,-287 466.5,-316"/>
<text xml:space="preserve" text-anchor="start" x="343" y="-302.5" font-family="Helvetica,sans-Serif" font-size="10.00">Simulation::SimulationUnit</text>
<text xml:space="preserve" text-anchor="middle" x="400.75" y="-292" font-family="Helvetica,sans-Serif" font-size="10.00">::post_cycle</text>
</a>
</g>
</g>
<!-- Node4&#45;&gt;Node5 -->
<g id="edge4_Node000004_Node000005" class="edge">
<title>Node4&#45;&gt;Node5</title>
<g id="a_edge4_Node000004_Node000005"><a xlink:title=" ">
<path fill="none" stroke="#63b8ff" d="M278.17,-342.64C298.65,-335.71 323.23,-327.39 344.92,-320.05"/>
<polygon fill="#63b8ff" stroke="#63b8ff" points="345.84,-323.44 354.19,-316.91 343.6,-316.8 345.84,-323.44"/>
</a>
</g>
</g>
<!-- Node14 -->
<g id="Node000014" class="node">
<title>Node14</title>
<g id="a_Node000014"><a xlink:href="classSimulation_1_1SimulationUnit.html#ad984b5d95455d6db475d8b6e20077a0c" target="_top" xlink:title=" ">
<polygon fill="white" stroke="#666666" points="466.5,-363 335,-363 335,-334 466.5,-334 466.5,-363"/>
<text xml:space="preserve" text-anchor="start" x="343" y="-349.5" font-family="Helvetica,sans-Serif" font-size="10.00">Simulation::SimulationUnit</text>
<text xml:space="preserve" text-anchor="middle" x="400.75" y="-339" font-family="Helvetica,sans-Serif" font-size="10.00">::pre_cycle</text>
</a>
</g>
</g>
<!-- Node4&#45;&gt;Node14 -->
<g id="edge14_Node000004_Node000014" class="edge">
<title>Node4&#45;&gt;Node14</title>
<g id="a_edge14_Node000004_Node000014"><a xlink:title=" ">
<path fill="none" stroke="#63b8ff" d="M299.18,-353.97C307.13,-353.54 315.29,-353.09 323.38,-352.65"/>
<polygon fill="#63b8ff" stroke="#63b8ff" points="323.42,-356.16 333.22,-352.12 323.04,-349.17 323.42,-356.16"/>
</a>
</g>
</g>
<!-- Node6 -->
<g id="Node000006" class="node">
<title>Node6</title>
<g id="a_Node000006"><a xlink:href="classMC_1_1ParticlesContainer.html#a8e95993fb1287c04427780d6372be565" target="_top" xlink:title="Insert particle buffer into the main container.">
<polygon fill="white" stroke="#666666" points="635.5,-330 516.75,-330 516.75,-301 635.5,-301 635.5,-330"/>
<text xml:space="preserve" text-anchor="start" x="524.75" y="-316.5" font-family="Helvetica,sans-Serif" font-size="10.00">MC::ParticlesContainer</text>
<text xml:space="preserve" text-anchor="middle" x="576.12" y="-306" font-family="Helvetica,sans-Serif" font-size="10.00">::merge_buffer</text>
</a>
</g>
</g>
<!-- Node5&#45;&gt;Node6 -->
<g id="edge5_Node000005_Node000006" class="edge">
<title>Node5&#45;&gt;Node6</title>
<g id="a_edge5_Node000005_Node000006"><a xlink:title=" ">
<path fill="none" stroke="#63b8ff" d="M466.8,-306.75C479.23,-307.76 492.3,-308.81 504.89,-309.83"/>
<polygon fill="#63b8ff" stroke="#63b8ff" points="504.52,-313.31 514.77,-310.63 505.09,-306.33 504.52,-313.31"/>
</a>
</g>
</g>
<!-- Node9 -->
<g id="Node000009" class="node">
<title>Node9</title>
<g id="a_Node000009"><a xlink:href="classSimulation_1_1SimulationUnit.html#ae2077067788b0cb0535c62933724a1cf" target="_top" xlink:title=" ">
<polygon fill="white" stroke="#666666" points="641.88,-377 510.38,-377 510.38,-348 641.88,-348 641.88,-377"/>
<text xml:space="preserve" text-anchor="start" x="518.38" y="-363.5" font-family="Helvetica,sans-Serif" font-size="10.00">Simulation::SimulationUnit</text>
<text xml:space="preserve" text-anchor="middle" x="576.12" y="-353" font-family="Helvetica,sans-Serif" font-size="10.00">::scatter_contribute</text>
</a>
</g>
</g>
<!-- Node5&#45;&gt;Node9 -->
<g id="edge8_Node000005_Node000009" class="edge">
<title>Node5&#45;&gt;Node9</title>
<g id="a_edge8_Node000005_Node000009"><a xlink:title=" ">
<path fill="none" stroke="#63b8ff" d="M442.2,-316.38C450.26,-319.38 458.65,-322.52 466.5,-325.5 482.55,-331.59 486.31,-333.79 502.5,-339.5 506.85,-341.03 511.36,-342.58 515.91,-344.1"/>
<polygon fill="#63b8ff" stroke="#63b8ff" points="514.51,-347.32 525.1,-347.12 516.7,-340.67 514.51,-347.32"/>
</a>
</g>
</g>
<!-- Node11 -->
<g id="Node000011" class="node">
<title>Node11</title>
<g id="a_Node000011"><a xlink:href="classSimulation_1_1SimulationUnit.html#ac396f393b4cf318b38364c5067254c80" target="_top" xlink:title=" ">
<polygon fill="white" stroke="#666666" points="647.88,-283 504.38,-283 504.38,-254 647.88,-254 647.88,-283"/>
<text xml:space="preserve" text-anchor="start" x="512.38" y="-269.5" font-family="Helvetica,sans-Serif" font-size="10.00">Simulation::SimulationUnit</text>
<text xml:space="preserve" text-anchor="middle" x="576.12" y="-259" font-family="Helvetica,sans-Serif" font-size="10.00">::set_kernel_contribs_to_host</text>
</a>
</g>
</g>
<!-- Node5&#45;&gt;Node11 -->
<g id="edge10_Node000005_Node000011" class="edge">
<title>Node5&#45;&gt;Node11</title>
<g id="a_edge10_Node000005_Node000011"><a xlink:title=" ">
<path fill="none" stroke="#63b8ff" d="M466.8,-289.12C475.31,-287.5 484.12,-285.82 492.87,-284.16"/>
<polygon fill="#63b8ff" stroke="#63b8ff" points="493.24,-287.65 502.41,-282.34 491.93,-280.77 493.24,-287.65"/>
</a>
</g>
</g>
<!-- Node12 -->
<g id="Node000012" class="node">
<title>Node12</title>
<g id="a_Node000012"><a xlink:href="classMC_1_1ParticlesContainer.html#a0047f4c96b02ae4aeb9ebd8963129687" target="_top" xlink:title="Update the number of non&#45;idle particle and remove if total number exceeds threshold May call : remove...">
<polygon fill="white" stroke="#666666" points="649.75,-236 502.5,-236 502.5,-207 649.75,-207 649.75,-236"/>
<text xml:space="preserve" text-anchor="start" x="510.5" y="-222.5" font-family="Helvetica,sans-Serif" font-size="10.00">MC::ParticlesContainer</text>
<text xml:space="preserve" text-anchor="middle" x="576.12" y="-212" font-family="Helvetica,sans-Serif" font-size="10.00">::update_and_remove_inactive</text>
</a>
</g>
</g>
<!-- Node5&#45;&gt;Node12 -->
<g id="edge11_Node000005_Node000012" class="edge">
<title>Node5&#45;&gt;Node12</title>
<g id="a_edge11_Node000005_Node000012"><a xlink:title=" ">
<path fill="none" stroke="#63b8ff" d="M426.98,-286.76C451.7,-272.45 487.75,-251.97 502.5,-245.5 506.56,-243.72 510.79,-242 515.08,-240.35"/>
<polygon fill="#63b8ff" stroke="#63b8ff" points="516.22,-243.66 524.4,-236.92 513.8,-237.09 516.22,-243.66"/>
</a>
</g>
</g>
<!-- Node7 -->
<g id="Node000007" class="node">
<title>Node7</title>
<g id="a_Node000007"><a xlink:href="classMC_1_1ParticlesContainer.html#a57fa06d3225acf04522e3fc2993847f0" target="_top" xlink:title=" ">
<polygon fill="white" stroke="#666666" points="812.38,-330 693.62,-330 693.62,-301 812.38,-301 812.38,-330"/>
<text xml:space="preserve" text-anchor="start" x="701.62" y="-316.5" font-family="Helvetica,sans-Serif" font-size="10.00">MC::ParticlesContainer</text>
<text xml:space="preserve" text-anchor="middle" x="753" y="-306" font-family="Helvetica,sans-Serif" font-size="10.00">::__allocate_buffer__</text>
</a>
</g>
</g>
<!-- Node6&#45;&gt;Node7 -->
<g id="edge6_Node000006_Node000007" class="edge">
<title>Node6&#45;&gt;Node7</title>
<g id="a_edge6_Node000006_Node000007"><a xlink:title=" ">
<path fill="none" stroke="#63b8ff" d="M635.84,-315.5C650.55,-315.5 666.48,-315.5 681.68,-315.5"/>
<polygon fill="#63b8ff" stroke="#63b8ff" points="681.63,-319 691.63,-315.5 681.63,-312 681.63,-319"/>
</a>
</g>
</g>
<!-- Node8 -->
<g id="Node000008" class="node">
<title>Node8</title>
<g id="a_Node000008"><a xlink:href="classMC_1_1ParticlesContainer.html#a4fc94ae525191a5d034dce4866986c1e" target="_top" xlink:title=" ">
<polygon fill="white" stroke="#666666" points="982.12,-264 863.38,-264 863.38,-235 982.12,-235 982.12,-264"/>
<text xml:space="preserve" text-anchor="start" x="871.38" y="-250.5" font-family="Helvetica,sans-Serif" font-size="10.00">MC::ParticlesContainer</text>
<text xml:space="preserve" text-anchor="middle" x="922.75" y="-240" font-family="Helvetica,sans-Serif" font-size="10.00">::_resize</text>
</a>
</g>
</g>
<!-- Node6&#45;&gt;Node8 -->
<g id="edge7_Node000006_Node000008" class="edge">
<title>Node6&#45;&gt;Node8</title>
<g id="a_edge7_Node000006_Node000008"><a xlink:title=" ">
<path fill="none" stroke="#63b8ff" d="M635.97,-302.72C652.09,-299.31 669.58,-295.68 685.75,-292.5 741.43,-281.53 804.7,-270.06 851.7,-261.72"/>
<polygon fill="#63b8ff" stroke="#63b8ff" points="852.26,-265.18 861.5,-259.99 851.04,-258.29 852.26,-265.18"/>
</a>
</g>
</g>
<!-- Node10 -->
<g id="Node000010" class="node">
<title>Node10</title>
<g id="a_Node000010"><a xlink:href="classSimulation_1_1SimulationUnit.html#a9ea90cab13d8259f026f57baad1c989f" target="_top" xlink:title=" ">
<polygon fill="white" stroke="#666666" points="818.75,-377 687.25,-377 687.25,-348 818.75,-348 818.75,-377"/>
<text xml:space="preserve" text-anchor="start" x="695.25" y="-363.5" font-family="Helvetica,sans-Serif" font-size="10.00">Simulation::SimulationUnit</text>
<text xml:space="preserve" text-anchor="middle" x="753" y="-353" font-family="Helvetica,sans-Serif" font-size="10.00">::get_kernel_contribution</text>
</a>
</g>
</g>
<!-- Node9&#45;&gt;Node10 -->
<g id="edge9_Node000009_Node000010" class="edge">
<title>Node9&#45;&gt;Node10</title>
<g id="a_edge9_Node000009_Node000010"><a xlink:title=" ">
<path fill="none" stroke="#63b8ff" d="M642.24,-362.5C653.05,-362.5 664.35,-362.5 675.41,-362.5"/>
<polygon fill="#63b8ff" stroke="#63b8ff" points="675.32,-366 685.32,-362.5 675.32,-359 675.32,-366"/>
</a>
</g>
</g>
<!-- Node13 -->
<g id="Node000013" class="node">
<title>Node13</title>
<g id="a_Node000013"><a xlink:href="classMC_1_1ParticlesContainer.html#a57353f823ed074869300f29deb5c50b2" target="_top" xlink:title="Removes inactive particles from the container.">
<polygon fill="white" stroke="#666666" points="820.25,-238 685.75,-238 685.75,-209 820.25,-209 820.25,-238"/>
<text xml:space="preserve" text-anchor="start" x="693.75" y="-224.5" font-family="Helvetica,sans-Serif" font-size="10.00">MC::ParticlesContainer</text>
<text xml:space="preserve" text-anchor="middle" x="753" y="-214" font-family="Helvetica,sans-Serif" font-size="10.00">::remove_inactive_particles</text>
</a>
</g>
</g>
<!-- Node12&#45;&gt;Node13 -->
<g id="edge12_Node000012_Node000013" class="edge">
<title>Node12&#45;&gt;Node13</title>
<g id="a_edge12_Node000012_Node000013"><a xlink:title=" ">
<path fill="none" stroke="#63b8ff" d="M650.02,-222.33C657.98,-222.42 666.11,-222.52 674.13,-222.61"/>
<polygon fill="#63b8ff" stroke="#63b8ff" points="673.81,-226.11 683.85,-222.72 673.89,-219.11 673.81,-226.11"/>
</a>
</g>
</g>
<!-- Node13&#45;&gt;Node8 -->
<g id="edge13_Node000013_Node000008" class="edge">
<title>Node13&#45;&gt;Node8</title>
<g id="a_edge13_Node000013_Node000008"><a xlink:title=" ">
<path fill="none" stroke="#63b8ff" d="M820.3,-233.78C830.66,-235.38 841.39,-237.04 851.82,-238.66"/>
<polygon fill="#63b8ff" stroke="#63b8ff" points="851.08,-242.09 861.5,-240.16 852.16,-235.17 851.08,-242.09"/>
</a>
</g>
</g>
<!-- Node14&#45;&gt;Node14 -->
<g id="edge15_Node000014_Node000014" class="edge">
<title>Node14&#45;&gt;Node14</title>
<g id="a_edge15_Node000014_Node000014"><a xlink:title=" ">
<path fill="none" stroke="#63b8ff" d="M371.56,-363.21C364.52,-372.32 374.25,-381 400.75,-381 415.24,-381 424.72,-378.41 429.18,-374.56"/>
<polygon fill="#63b8ff" stroke="#63b8ff" points="432.66,-374.93 429.84,-364.72 425.68,-374.46 432.66,-374.93"/>
</a>
</g>
</g>
<!-- Node14&#45;&gt;Node15 -->
<g id="edge16_Node000014_Node000015" class="edge">
<title>Node14&#45;&gt;Node15</title>
<g id="a_edge16_Node000014_Node000015"><a xlink:title=" ">
<path fill="none" stroke="#63b8ff" d="M439.85,-363.42C458.62,-370.64 481.66,-379.28 502.5,-386.5 506.86,-388.01 511.38,-389.54 515.93,-391.05"/>
<polygon fill="#63b8ff" stroke="#63b8ff" points="514.53,-394.27 525.13,-394.05 516.71,-387.62 514.53,-394.27"/>
</a>
</g>
</g>
<!-- Node15&#45;&gt;Node10 -->
<g id="edge17_Node000015_Node000010" class="edge">
<title>Node15&#45;&gt;Node10</title>
<g id="a_edge17_Node000015_Node000010"><a xlink:title=" ">
<path fill="none" stroke="#63b8ff" d="M632.46,-394.63C649.36,-390.09 668.13,-385.04 685.68,-380.32"/>
<polygon fill="#63b8ff" stroke="#63b8ff" points="686.22,-383.8 694.97,-377.83 684.4,-377.04 686.22,-383.8"/>
</a>
</g>
</g>
<!-- Node16 -->
<g id="Node000016" class="node">
<title>Node16</title>
<g id="a_Node000016"><a xlink:href="classSimulation_1_1SimulationUnit.html#a36fb635150825e63055191740edaba84" target="_top" xlink:title=" ">
<polygon fill="white" stroke="#666666" points="818.75,-424 687.25,-424 687.25,-395 818.75,-395 818.75,-424"/>
<text xml:space="preserve" text-anchor="start" x="695.25" y="-410.5" font-family="Helvetica,sans-Serif" font-size="10.00">Simulation::SimulationUnit</text>
<text xml:space="preserve" text-anchor="middle" x="753" y="-400" font-family="Helvetica,sans-Serif" font-size="10.00">::post_init_concentration</text>
</a>
</g>
</g>
<!-- Node15&#45;&gt;Node16 -->
<g id="edge18_Node000015_Node000016" class="edge">
<title>Node15&#45;&gt;Node16</title>
<g id="a_edge18_Node000015_Node000016"><a xlink:title=" ">
<path fill="none" stroke="#63b8ff" d="M642.24,-409.5C653.05,-409.5 664.35,-409.5 675.41,-409.5"/>
<polygon fill="#63b8ff" stroke="#63b8ff" points="675.32,-413 685.32,-409.5 675.32,-406 675.32,-413"/>
</a>
</g>
</g>
<!-- Node17 -->
<g id="Node000017" class="node">
<title>Node17</title>
<g id="a_Node000017"><a xlink:href="namespaceSimulation_1_1impl.html#ab56eb92724f12b4ed6c401939009519c" target="_top" xlink:title=" ">
<polygon fill="white" stroke="#666666" points="980.62,-400 864.88,-400 864.88,-371 980.62,-371 980.62,-400"/>
<text xml:space="preserve" text-anchor="start" x="872.88" y="-386.5" font-family="Helvetica,sans-Serif" font-size="10.00">Simulation::impl::post</text>
<text xml:space="preserve" text-anchor="middle" x="922.75" y="-376" font-family="Helvetica,sans-Serif" font-size="10.00">_init_concentration_file</text>
</a>
</g>
</g>
<!-- Node16&#45;&gt;Node17 -->
<g id="edge19_Node000016_Node000017" class="edge">
<title>Node16&#45;&gt;Node17</title>
<g id="a_edge19_Node000016_Node000017"><a xlink:title=" ">
<path fill="none" stroke="#63b8ff" d="M818.86,-400.22C830.13,-398.61 841.88,-396.93 853.25,-395.3"/>
<polygon fill="#63b8ff" stroke="#63b8ff" points="853.55,-398.79 862.95,-393.91 852.56,-391.86 853.55,-398.79"/>
</a>
</g>
</g>
<!-- Node18 -->
<g id="Node000018" class="node">
<title>Node18</title>
<g id="a_Node000018"><a xlink:href="namespaceSimulation_1_1impl.html#ae40eba3a10cbceb62fe3e6980dcc193f" target="_top" xlink:title=" ">
<polygon fill="white" stroke="#666666" points="989.25,-447 856.25,-447 856.25,-418 989.25,-418 989.25,-447"/>
<text xml:space="preserve" text-anchor="start" x="864.25" y="-433.5" font-family="Helvetica,sans-Serif" font-size="10.00">Simulation::impl::post</text>
<text xml:space="preserve" text-anchor="middle" x="922.75" y="-423" font-family="Helvetica,sans-Serif" font-size="10.00">_init_concentration_functor</text>
</a>
</g>
</g>
<!-- Node16&#45;&gt;Node18 -->
<g id="edge20_Node000016_Node000018" class="edge">
<title>Node16&#45;&gt;Node18</title>
<g id="a_edge20_Node000016_Node000018"><a xlink:title=" ">
<path fill="none" stroke="#63b8ff" d="M818.86,-418.39C827.32,-419.55 836.05,-420.75 844.69,-421.93"/>
<polygon fill="#63b8ff" stroke="#63b8ff" points="844.08,-425.38 854.46,-423.27 845.03,-418.45 844.08,-425.38"/>
</a>
</g>
</g>
<!-- Node19&#45;&gt;Node19 -->
<g id="edge22_Node000019_Node000019" class="edge">
<title>Node19&#45;&gt;Node19</title>
<g id="a_edge22_Node000019_Node000019"><a xlink:title=" ">
<path fill="none" stroke="#63b8ff" d="M204.06,-307.21C197.02,-316.32 206.75,-325 233.25,-325 247.74,-325 257.22,-322.41 261.68,-318.56"/>
<polygon fill="#63b8ff" stroke="#63b8ff" points="265.16,-318.93 262.34,-308.72 258.18,-318.46 265.16,-318.93"/>
</a>
</g>
</g>
<!-- Node21 -->
<g id="Node000021" class="node">
<title>Node21</title>
<g id="a_Node000021"><a xlink:href="classSimulation_1_1SimulationUnit.html#a4295618336e99606be4e87b31feb848a" target="_top" xlink:title=" ">
<polygon fill="white" stroke="#666666" points="466.5,-218 335,-218 335,-189 466.5,-189 466.5,-218"/>
<text xml:space="preserve" text-anchor="start" x="343" y="-204.5" font-family="Helvetica,sans-Serif" font-size="10.00">Simulation::SimulationUnit</text>
<text xml:space="preserve" text-anchor="middle" x="400.75" y="-194" font-family="Helvetica,sans-Serif" font-size="10.00">::getkernel_concentration</text>
</a>
</g>
</g>
<!-- Node20&#45;&gt;Node21 -->
<g id="edge24_Node000020_Node000021" class="edge">
<title>Node20&#45;&gt;Node21</title>
<g id="a_edge24_Node000020_Node000021"><a xlink:title=" ">
<path fill="none" stroke="#63b8ff" d="M293.07,-230.57C304.94,-227.56 317.54,-224.36 329.76,-221.26"/>
<polygon fill="#63b8ff" stroke="#63b8ff" points="330.55,-224.67 339.38,-218.82 328.82,-217.89 330.55,-224.67"/>
</a>
</g>
</g>
<!-- Node22 -->
<g id="Node000022" class="node">
<title>Node22</title>
<g id="a_Node000022"><a xlink:href="namespaceCommon.html#a7ca16dc3314f89cd1860091731cd7014" target="_top" xlink:title="Wrapper arround get_env to get envariable with fallback to default.">
<polygon fill="white" stroke="#666666" points="458.25,-254.75 343.25,-254.75 343.25,-236.25 458.25,-236.25 458.25,-254.75"/>
<text xml:space="preserve" text-anchor="middle" x="400.75" y="-241.25" font-family="Helvetica,sans-Serif" font-size="10.00">Common::read_env_or</text>
</a>
</g>
</g>
<!-- Node20&#45;&gt;Node22 -->
<g id="edge25_Node000020_Node000022" class="edge">
<title>Node20&#45;&gt;Node22</title>
<g id="a_edge25_Node000020_Node000022"><a xlink:title=" ">
<path fill="none" stroke="#63b8ff" d="M299.18,-245.5C309.76,-245.5 320.74,-245.5 331.39,-245.5"/>
<polygon fill="#63b8ff" stroke="#63b8ff" points="331.28,-249 341.28,-245.5 331.28,-242 331.28,-249"/>
</a>
</g>
</g>
<!-- Node23 -->
<g id="Node000023" class="node">
<title>Node23</title>
<g id="a_Node000023"><a xlink:href="namespaceCommon.html#a7e29bd7117dd8bfc651a1dc215923379" target="_top" xlink:title="Wrapper arround get_env to get optional envariable.">
<polygon fill="white" stroke="#666666" points="626.88,-188.75 525.38,-188.75 525.38,-170.25 626.88,-170.25 626.88,-188.75"/>
<text xml:space="preserve" text-anchor="middle" x="576.12" y="-175.25" font-family="Helvetica,sans-Serif" font-size="10.00">Common::read_env</text>
</a>
</g>
</g>
<!-- Node22&#45;&gt;Node23 -->
<g id="edge26_Node000022_Node000023" class="edge">
<title>Node22&#45;&gt;Node23</title>
<g id="a_edge26_Node000022_Node000023"><a xlink:title=" ">
<path fill="none" stroke="#63b8ff" d="M445.86,-235.85C452.95,-233.57 460.07,-230.81 466.5,-227.5 484.77,-218.11 484.15,-207.75 502.5,-198.5 506.69,-196.39 511.14,-194.49 515.69,-192.8"/>
<polygon fill="#63b8ff" stroke="#63b8ff" points="516.62,-196.18 524.98,-189.68 514.39,-189.54 516.62,-196.18"/>
</a>
</g>
</g>
<!-- Node27&#45;&gt;Node28 -->
<g id="edge32_Node000027_Node000028" class="edge">
<title>Node27&#45;&gt;Node28</title>
<g id="a_edge32_Node000027_Node000028"><a xlink:title=" ">
<path fill="none" stroke="#63b8ff" d="M291.67,-33.42C304.43,-36.73 318.09,-40.28 331.25,-43.7"/>
<polygon fill="#63b8ff" stroke="#63b8ff" points="330.13,-47.03 340.69,-46.15 331.89,-40.25 330.13,-47.03"/>
</a>
</g>
</g>
<!-- Node29 -->
<g id="Node000029" class="node">
<title>Node29</title>
<g id="a_Node000029"><a xlink:href="classSimulation_1_1SimulationUnit.html#a325bd66b0afbb76176a6f8c607d9902b" target="_top" xlink:title=" ">
<polygon fill="white" stroke="#666666" points="466.5,-29 335,-29 335,0 466.5,0 466.5,-29"/>
<text xml:space="preserve" text-anchor="start" x="343" y="-15.5" font-family="Helvetica,sans-Serif" font-size="10.00">Simulation::SimulationUnit</text>
<text xml:space="preserve" text-anchor="middle" x="400.75" y="-5" font-family="Helvetica,sans-Serif" font-size="10.00">::updateScalarHydro</text>
</a>
</g>
</g>
<!-- Node27&#45;&gt;Node29 -->
<g id="edge33_Node000027_Node000029" class="edge">
<title>Node27&#45;&gt;Node29</title>
<g id="a_edge33_Node000027_Node000029"><a xlink:title=" ">
<path fill="none" stroke="#63b8ff" d="M299.18,-16.93C307.13,-16.74 315.29,-16.54 323.38,-16.35"/>
<polygon fill="#63b8ff" stroke="#63b8ff" points="323.31,-19.85 333.22,-16.11 323.14,-12.85 323.31,-19.85"/>
</a>
</g>
</g>
</g>
</svg>
