<?xml version="1.0" encoding="UTF-8" standalone="no"?>
<!DOCTYPE svg PUBLIC "-//W3C//DTD SVG 1.1//EN"
 "http://www.w3.org/Graphics/SVG/1.1/DTD/svg11.dtd">
<!-- Generated by graphviz version 14.0.1 (0)
 -->
<!-- Title: Simulation::ScalarSimulation::ScalarSimulation Pages: 1 -->
<svg width="527pt" height="280pt"
 viewBox="0.00 0.00 527.00 280.00" xmlns="http://www.w3.org/2000/svg" xmlns:xlink="http://www.w3.org/1999/xlink">
<g id="graph0" class="graph" transform="scale(1 1) rotate(0) translate(4 276)">
<title>Simulation::ScalarSimulation::ScalarSimulation</title>
<!-- Node1 -->
<g id="Node000001" class="node">
<title>Node1</title>
<g id="a_Node000001"><a xlink:title=" ">
<polygon fill="#999999" stroke="#666666" points="519,-146 377.75,-146 377.75,-117 519,-117 519,-146"/>
<text xml:space="preserve" text-anchor="start" x="385.75" y="-132.5" font-family="Helvetica,sans-Serif" font-size="10.00">Simulation::ScalarSimulation</text>
<text xml:space="preserve" text-anchor="middle" x="448.38" y="-122" font-family="Helvetica,sans-Serif" font-size="10.00">::ScalarSimulation</text>
</a>
</g>
</g>
<!-- Node2 -->
<g id="Node000002" class="node">
<title>Node2</title>
<g id="a_Node000002"><a xlink:href="classSimulation_1_1ScalarSimulation.html#ae2625817dffc02083227be2b82dfe534" target="_top" xlink:title=" ">
<polygon fill="white" stroke="#666666" points="330.12,-254 188.88,-254 188.88,-225 330.12,-225 330.12,-254"/>
<text xml:space="preserve" text-anchor="start" x="196.88" y="-240.5" font-family="Helvetica,sans-Serif" font-size="10.00">Simulation::ScalarSimulation</text>
<text xml:space="preserve" text-anchor="middle" x="259.5" y="-230" font-family="Helvetica,sans-Serif" font-size="10.00">::getConcentrationArray</text>
</a>
</g>
</g>
<!-- Node1&#45;&gt;Node2 -->
<g id="edge1_Node000001_Node000002" class="edge">
<title>Node1&#45;&gt;Node2</title>
<g id="a_edge1_Node000001_Node000002"><a xlink:title=" ">
<path fill="none" stroke="#63b8ff" d="M424.36,-154.18C404.12,-172.99 373.08,-199.21 341.75,-215.5 335.09,-218.96 327.87,-222 320.56,-224.64"/>
<polygon fill="#63b8ff" stroke="#63b8ff" points="426.66,-156.83 431.51,-147.41 421.84,-151.75 426.66,-156.83"/>
</a>
</g>
</g>
<!-- Node4 -->
<g id="Node000004" class="node">
<title>Node4</title>
<g id="a_Node000004"><a xlink:href="namespaceSimulation.html#ae5bb8948e2a0bb4f4aef277baf4c0dff" target="_top" xlink:title=" ">
<polygon fill="white" stroke="#666666" points="341.75,-206.75 177.25,-206.75 177.25,-188.25 341.75,-188.25 341.75,-206.75"/>
<text xml:space="preserve" text-anchor="middle" x="259.5" y="-193.25" font-family="Helvetica,sans-Serif" font-size="10.00">Simulation::makeScalarSimulation</text>
</a>
</g>
</g>
<!-- Node1&#45;&gt;Node4 -->
<g id="edge4_Node000001_Node000004" class="edge">
<title>Node1&#45;&gt;Node4</title>
<g id="a_edge4_Node000001_Node000004"><a xlink:title=" ">
<path fill="none" stroke="#63b8ff" d="M408.79,-151.38C389.12,-160.91 364.58,-171.88 341.75,-179.5 332.29,-182.66 322.03,-185.42 312.09,-187.77"/>
<polygon fill="#63b8ff" stroke="#63b8ff" points="410.1,-154.64 417.53,-147.08 407.01,-148.35 410.1,-154.64"/>
</a>
</g>
</g>
<!-- Node5 -->
<g id="Node000005" class="node">
<title>Node5</title>
<g id="a_Node000005"><a xlink:href="classSimulation_1_1ScalarSimulation.html#a1b2df58cd259dcfc833a28fb41523483" target="_top" xlink:title=" ">
<polygon fill="white" stroke="#666666" points="330.12,-170 188.88,-170 188.88,-141 330.12,-141 330.12,-170"/>
<text xml:space="preserve" text-anchor="start" x="196.88" y="-156.5" font-family="Helvetica,sans-Serif" font-size="10.00">Simulation::ScalarSimulation</text>
<text xml:space="preserve" text-anchor="middle" x="259.5" y="-146" font-family="Helvetica,sans-Serif" font-size="10.00">::operator=</text>
</a>
</g>
</g>
<!-- Node1&#45;&gt;Node5 -->
<g id="edge5_Node000001_Node000005" class="edge">
<title>Node1&#45;&gt;Node5</title>
<g id="a_edge5_Node000001_Node000005"><a xlink:title=" ">
<path fill="none" stroke="#63b8ff" d="M365.99,-141.95C354.13,-143.48 342,-145.03 330.39,-146.52"/>
<polygon fill="#63b8ff" stroke="#63b8ff" points="366.28,-145.44 375.76,-140.7 365.39,-138.5 366.28,-145.44"/>
</a>
</g>
</g>
<!-- Node6 -->
<g id="Node000006" class="node">
<title>Node6</title>
<g id="a_Node000006"><a xlink:href="classSimulation_1_1ScalarSimulation.html#ad8d40e9ca3fdb498000508921375457b" target="_top" xlink:title=" ">
<polygon fill="white" stroke="#666666" points="330.12,-123 188.88,-123 188.88,-94 330.12,-94 330.12,-123"/>
<text xml:space="preserve" text-anchor="start" x="196.88" y="-109.5" font-family="Helvetica,sans-Serif" font-size="10.00">Simulation::ScalarSimulation</text>
<text xml:space="preserve" text-anchor="middle" x="259.5" y="-99" font-family="Helvetica,sans-Serif" font-size="10.00">::operator=</text>
</a>
</g>
</g>
<!-- Node1&#45;&gt;Node6 -->
<g id="edge6_Node000001_Node000006" class="edge">
<title>Node1&#45;&gt;Node6</title>
<g id="a_edge6_Node000001_Node000006"><a xlink:title=" ">
<path fill="none" stroke="#63b8ff" d="M365.99,-121.48C354.13,-120.02 342,-118.53 330.39,-117.1"/>
<polygon fill="#63b8ff" stroke="#63b8ff" points="365.4,-124.94 375.76,-122.69 366.26,-117.99 365.4,-124.94"/>
</a>
</g>
</g>
<!-- Node7 -->
<g id="Node000007" class="node">
<title>Node7</title>
<g id="a_Node000007"><a xlink:href="classSimulation_1_1ScalarSimulation.html#a5608de40ed00444c146a71642f882473" target="_top" xlink:title=" ">
<polygon fill="white" stroke="#666666" points="330.12,-76 188.88,-76 188.88,-47 330.12,-47 330.12,-76"/>
<text xml:space="preserve" text-anchor="start" x="196.88" y="-62.5" font-family="Helvetica,sans-Serif" font-size="10.00">Simulation::ScalarSimulation</text>
<text xml:space="preserve" text-anchor="middle" x="259.5" y="-52" font-family="Helvetica,sans-Serif" font-size="10.00">::ScalarSimulation</text>
</a>
</g>
</g>
<!-- Node1&#45;&gt;Node7 -->
<g id="edge7_Node000001_Node000007" class="edge">
<title>Node1&#45;&gt;Node7</title>
<g id="a_edge7_Node000001_Node000007"><a xlink:title=" ">
<path fill="none" stroke="#63b8ff" d="M405.66,-111.92C386.43,-103.25 363.16,-93.29 341.75,-85.5 333.04,-82.33 323.7,-79.27 314.56,-76.45"/>
<polygon fill="#63b8ff" stroke="#63b8ff" points="403.97,-114.99 414.52,-115.95 406.87,-108.62 403.97,-114.99"/>
</a>
</g>
</g>
<!-- Node8 -->
<g id="Node000008" class="node">
<title>Node8</title>
<g id="a_Node000008"><a xlink:href="classSimulation_1_1ScalarSimulation.html#a165176fdcee47d58d6ad3471ada56136" target="_top" xlink:title=" ">
<polygon fill="white" stroke="#666666" points="330.12,-29 188.88,-29 188.88,0 330.12,0 330.12,-29"/>
<text xml:space="preserve" text-anchor="start" x="196.88" y="-15.5" font-family="Helvetica,sans-Serif" font-size="10.00">Simulation::ScalarSimulation</text>
<text xml:space="preserve" text-anchor="middle" x="259.5" y="-5" font-family="Helvetica,sans-Serif" font-size="10.00">::ScalarSimulation</text>
</a>
</g>
</g>
<!-- Node1&#45;&gt;Node8 -->
<g id="edge8_Node000001_Node000008" class="edge">
<title>Node1&#45;&gt;Node8</title>
<g id="a_edge8_Node000001_Node000008"><a xlink:title=" ">
<path fill="none" stroke="#63b8ff" d="M426.79,-108.35C406.94,-87.33 375.06,-56.9 341.75,-38.5 335.44,-35.02 328.57,-31.99 321.58,-29.36"/>
<polygon fill="#63b8ff" stroke="#63b8ff" points="424.15,-110.64 433.51,-115.6 429.29,-105.89 424.15,-110.64"/>
</a>
</g>
</g>
<!-- Node2&#45;&gt;Node2 -->
<g id="edge2_Node000002_Node000002" class="edge">
<title>Node2&#45;&gt;Node2</title>
<g id="a_edge2_Node000002_Node000002"><a xlink:title=" ">
<path fill="none" stroke="#63b8ff" d="M291.56,-265.56C286.53,-269.41 275.84,-272 259.5,-272 229.62,-272 218.65,-263.32 226.58,-254.21"/>
<polygon fill="#63b8ff" stroke="#63b8ff" points="295.04,-265.95 292.3,-255.72 288.06,-265.42 295.04,-265.95"/>
</a>
</g>
</g>
<!-- Node3 -->
<g id="Node000003" class="node">
<title>Node3</title>
<g id="a_Node000003"><a xlink:href="classSimulation_1_1ScalarSimulation.html#a9721b2cf4617bf55c133b7b1527a8879" target="_top" xlink:title=" ">
<polygon fill="white" stroke="#666666" points="141.25,-254 0,-254 0,-225 141.25,-225 141.25,-254"/>
<text xml:space="preserve" text-anchor="start" x="8" y="-240.5" font-family="Helvetica,sans-Serif" font-size="10.00">Simulation::ScalarSimulation</text>
<text xml:space="preserve" text-anchor="middle" x="70.62" y="-230" font-family="Helvetica,sans-Serif" font-size="10.00">::~ScalarSimulation</text>
</a>
</g>
</g>
<!-- Node2&#45;&gt;Node3 -->
<g id="edge3_Node000002_Node000003" class="edge">
<title>Node2&#45;&gt;Node3</title>
<g id="a_edge3_Node000002_Node000003"><a xlink:title=" ">
<path fill="none" stroke="#63b8ff" d="M177.11,-239.5C165.25,-239.5 153.12,-239.5 141.51,-239.5"/>
<polygon fill="#63b8ff" stroke="#63b8ff" points="176.87,-243 186.87,-239.5 176.87,-236 176.87,-243"/>
</a>
</g>
</g>
</g>
</svg>
