<?xml version="1.0" encoding="UTF-8" standalone="no"?>
<!DOCTYPE svg PUBLIC "-//W3C//DTD SVG 1.1//EN"
 "http://www.w3.org/Graphics/SVG/1.1/DTD/svg11.dtd">
<!-- Generated by graphviz version 14.0.1 (0)
 -->
<!-- Title: ILoadBalancer::size Pages: 1 -->
<svg width="290pt" height="225pt"
 viewBox="0.00 0.00 290.00 225.00" xmlns="http://www.w3.org/2000/svg" xmlns:xlink="http://www.w3.org/1999/xlink">

<svg id="main" version="1.1" xmlns="http://www.w3.org/2000/svg" xmlns:xlink="http://www.w3.org/1999/xlink" xml:space="preserve">

<style type="text/css"><![CDATA[
.node, .edge {opacity: 0.7;}
.node.selected, .edge.selected {opacity: 1;}
.edge:hover path { stroke: red; }
.edge:hover polygon { stroke: red; fill: red; }
]]></style>
<script type="application/ecmascript" xlink:href="svg.min.js"/>
<svg id="graph" class="graph">
<g id="graph0" class="graph" transform="scale(1 1) rotate(0) translate(4 221)">
<title>ILoadBalancer::size</title>
<!-- Node1 -->
<g id="Node000001" class="node">
<title>Node1</title>
<g id="a_Node000001"><a xlink:title=" ">
<polygon fill="#999999" stroke="#666666" points="281.75,-117.75 180.25,-117.75 180.25,-99.25 281.75,-99.25 281.75,-117.75"/>
<text xml:space="preserve" text-anchor="middle" x="231" y="-104.25" font-family="Helvetica,sans-Serif" font-size="10.00">ILoadBalancer::size</text>
</a>
</g>
</g>
<!-- Node2 -->
<g id="Node000002" class="node">
<title>Node2</title>
<g id="a_Node000002"><a xlink:href="classCustomLoadBalancer.html#a46c441272b3fbcd48514cad53d5b51c4" target="_top" xlink:title=" ">
<polygon fill="white" stroke="#666666" points="130,-217 14.25,-217 14.25,-188 130,-188 130,-217"/>
<text xml:space="preserve" text-anchor="start" x="22.25" y="-203.5" font-family="Helvetica,sans-Serif" font-size="10.00">CustomLoadBalancer</text>
<text xml:space="preserve" text-anchor="middle" x="72.12" y="-193" font-family="Helvetica,sans-Serif" font-size="10.00">::CustomLoadBalancer</text>
</a>
</g>
</g>
<!-- Node1&#45;&gt;Node2 -->
<g id="edge1_Node000001_Node000002" class="edge">
<title>Node1&#45;&gt;Node2</title>
<g id="a_edge1_Node000001_Node000002"><a xlink:title=" ">
<path fill="none" stroke="#63b8ff" d="M212.83,-126.12C196.49,-142.02 170.55,-165.06 144.25,-179.5 138.79,-182.5 132.88,-185.18 126.87,-187.56"/>
<polygon fill="#63b8ff" stroke="#63b8ff" points="215.17,-128.73 219.79,-119.2 210.23,-123.77 215.17,-128.73"/>
</a>
</g>
</g>
<!-- Node3 -->
<g id="Node000003" class="node">
<title>Node3</title>
<g id="a_Node000003"><a xlink:href="classBoundLoadBalancer.html#a98fceab7666ed5c0d6c0687e4c76e150" target="_top" xlink:title=" ">
<polygon fill="white" stroke="#666666" points="126.62,-170 17.62,-170 17.62,-141 126.62,-141 126.62,-170"/>
<text xml:space="preserve" text-anchor="start" x="25.62" y="-156.5" font-family="Helvetica,sans-Serif" font-size="10.00">BoundLoadBalancer::</text>
<text xml:space="preserve" text-anchor="middle" x="72.12" y="-146" font-family="Helvetica,sans-Serif" font-size="10.00">getRatio</text>
</a>
</g>
</g>
<!-- Node1&#45;&gt;Node3 -->
<g id="edge2_Node000001_Node000003" class="edge">
<title>Node1&#45;&gt;Node3</title>
<g id="a_edge2_Node000001_Node000003"><a xlink:title=" ">
<path fill="none" stroke="#63b8ff" d="M186.64,-121.49C166.88,-127.41 143.38,-134.45 122.9,-140.59"/>
<polygon fill="#63b8ff" stroke="#63b8ff" points="187.47,-124.9 196.05,-118.67 185.46,-118.19 187.47,-124.9"/>
</a>
</g>
</g>
<!-- Node4 -->
<g id="Node000004" class="node">
<title>Node4</title>
<g id="a_Node000004"><a xlink:href="classHostImportantLoadBalancer.html#a1e17060ec1afd7d914ee01f23b80fb7f" target="_top" xlink:title=" ">
<polygon fill="white" stroke="#666666" points="141.25,-123 3,-123 3,-94 141.25,-94 141.25,-123"/>
<text xml:space="preserve" text-anchor="start" x="11" y="-109.5" font-family="Helvetica,sans-Serif" font-size="10.00">HostImportantLoadBalancer</text>
<text xml:space="preserve" text-anchor="middle" x="72.12" y="-99" font-family="Helvetica,sans-Serif" font-size="10.00">::getRatio</text>
</a>
</g>
</g>
<!-- Node1&#45;&gt;Node4 -->
<g id="edge3_Node000001_Node000004" class="edge">
<title>Node1&#45;&gt;Node4</title>
<g id="a_edge3_Node000001_Node000004"><a xlink:title=" ">
<path fill="none" stroke="#63b8ff" d="M168.53,-108.5C159.7,-108.5 150.56,-108.5 141.6,-108.5"/>
<polygon fill="#63b8ff" stroke="#63b8ff" points="168.42,-112 178.42,-108.5 168.42,-105 168.42,-112"/>
</a>
</g>
</g>
<!-- Node5 -->
<g id="Node000005" class="node">
<title>Node5</title>
<g id="a_Node000005"><a xlink:href="classUniformLoadBalancer.html#a51f2aad072402a9de2cd8ad64ca4c04c" target="_top" xlink:title=" ">
<polygon fill="white" stroke="#666666" points="127,-76 17.25,-76 17.25,-47 127,-47 127,-76"/>
<text xml:space="preserve" text-anchor="start" x="25.25" y="-62.5" font-family="Helvetica,sans-Serif" font-size="10.00">UniformLoadBalancer</text>
<text xml:space="preserve" text-anchor="middle" x="72.12" y="-52" font-family="Helvetica,sans-Serif" font-size="10.00">::getRatio</text>
</a>
</g>
</g>
<!-- Node1&#45;&gt;Node5 -->
<g id="edge4_Node000001_Node000005" class="edge">
<title>Node1&#45;&gt;Node5</title>
<g id="a_edge4_Node000001_Node000005"><a xlink:title=" ">
<path fill="none" stroke="#63b8ff" d="M186.64,-95.51C166.88,-89.59 143.38,-82.55 122.9,-76.41"/>
<polygon fill="#63b8ff" stroke="#63b8ff" points="185.46,-98.81 196.05,-98.33 187.47,-92.1 185.46,-98.81"/>
</a>
</g>
</g>
<!-- Node6 -->
<g id="Node000006" class="node">
<title>Node6</title>
<g id="a_Node000006"><a xlink:href="classHostImportantLoadBalancer.html#a968eb70ea9c0f8e2d0ac9257333b23ee" target="_top" xlink:title=" ">
<polygon fill="white" stroke="#666666" points="144.25,-29 0,-29 0,0 144.25,0 144.25,-29"/>
<text xml:space="preserve" text-anchor="start" x="8" y="-15.5" font-family="Helvetica,sans-Serif" font-size="10.00">HostImportantLoadBalancer</text>
<text xml:space="preserve" text-anchor="middle" x="72.12" y="-5" font-family="Helvetica,sans-Serif" font-size="10.00">::HostImportantLoadBalancer</text>
</a>
</g>
</g>
<!-- Node1&#45;&gt;Node6 -->
<g id="edge5_Node000001_Node000006" class="edge">
<title>Node1&#45;&gt;Node6</title>
<g id="a_edge5_Node000001_Node000006"><a xlink:title=" ">
<path fill="none" stroke="#63b8ff" d="M212.47,-90.96C196.06,-75.36 170.22,-52.86 144.25,-38.5 138.09,-35.1 131.37,-32.06 124.59,-29.39"/>
<polygon fill="#63b8ff" stroke="#63b8ff" points="209.87,-93.31 219.48,-97.77 214.75,-88.29 209.87,-93.31"/>
</a>
</g>
</g>
</g>
</svg>
</svg>

<style type='text/css'>
<![CDATA[
[data-mouse-over-selected='false'] { opacity: 0.7; }
[data-mouse-over-selected='true']  { opacity: 1.0; }
]]>
</style>
<script type="application/ecmascript"><![CDATA[
document.addEventListener('DOMContentLoaded', (event) => {
  highlightEdges();
  highlightAdjacentNodes();
});
]]></script>
</svg>
