<?xml version="1.0" encoding="UTF-8" standalone="no"?>
<!DOCTYPE svg PUBLIC "-//W3C//DTD SVG 1.1//EN"
 "http://www.w3.org/Graphics/SVG/1.1/DTD/svg11.dtd">
<!-- Generated by graphviz version 14.0.1 (0)
 -->
<!-- Title: Core::DataExporter::append_matrix Pages: 1 -->
<svg width="1148pt" height="146pt"
 viewBox="0.00 0.00 1148.00 146.00" xmlns="http://www.w3.org/2000/svg" xmlns:xlink="http://www.w3.org/1999/xlink">
<g id="graph0" class="graph" transform="scale(1 1) rotate(0) translate(4 142)">
<title>Core::DataExporter::append_matrix</title>
<!-- Node1 -->
<g id="Node000001" class="node">
<title>Node1</title>
<g id="a_Node000001"><a xlink:title=" ">
<polygon fill="#999999" stroke="#666666" points="1139.75,-91 1039,-91 1039,-62 1139.75,-62 1139.75,-91"/>
<text xml:space="preserve" text-anchor="start" x="1047" y="-77.5" font-family="Helvetica,sans-Serif" font-size="10.00">Core::DataExporter</text>
<text xml:space="preserve" text-anchor="middle" x="1089.38" y="-67" font-family="Helvetica,sans-Serif" font-size="10.00">::append_matrix</text>
</a>
</g>
</g>
<!-- Node2 -->
<g id="Node000002" class="node">
<title>Node2</title>
<g id="a_Node000002"><a xlink:href="classCore_1_1MainExporter.html#a254d405eb56c60864f2d1614b93927e5" target="_top" xlink:title="Updates fields with the current simulation state.">
<polygon fill="white" stroke="#666666" points="994.75,-138 893.25,-138 893.25,-109 994.75,-109 994.75,-138"/>
<text xml:space="preserve" text-anchor="start" x="901.25" y="-124.5" font-family="Helvetica,sans-Serif" font-size="10.00">Core::MainExporter</text>
<text xml:space="preserve" text-anchor="middle" x="944" y="-114" font-family="Helvetica,sans-Serif" font-size="10.00">::update_fields</text>
</a>
</g>
</g>
<!-- Node1&#45;&gt;Node2 -->
<g id="edge1_Node000001_Node000002" class="edge">
<title>Node1&#45;&gt;Node2</title>
<g id="a_edge1_Node000001_Node000002"><a xlink:title=" ">
<path fill="none" stroke="#63b8ff" d="M1032.16,-94.93C1018.37,-99.45 1003.78,-104.23 990.56,-108.56"/>
<polygon fill="#63b8ff" stroke="#63b8ff" points="1033.16,-98.28 1041.57,-91.84 1030.98,-91.63 1033.16,-98.28"/>
</a>
</g>
</g>
<!-- Node3 -->
<g id="Node000003" class="node">
<title>Node3</title>
<g id="a_Node000003"><a xlink:href="classCore_1_1PartialExporter.html#a450fb0c92efa4ee81b4083fc01f5e665" target="_top" xlink:title="Writes the number of particles in each compartment.">
<polygon fill="white" stroke="#666666" points="1003,-91 885,-91 885,-62 1003,-62 1003,-91"/>
<text xml:space="preserve" text-anchor="start" x="893" y="-77.5" font-family="Helvetica,sans-Serif" font-size="10.00">Core::PartialExporter</text>
<text xml:space="preserve" text-anchor="middle" x="944" y="-67" font-family="Helvetica,sans-Serif" font-size="10.00">::write_number_particle</text>
</a>
</g>
</g>
<!-- Node1&#45;&gt;Node3 -->
<g id="edge2_Node000001_Node000003" class="edge">
<title>Node1&#45;&gt;Node3</title>
<g id="a_edge2_Node000001_Node000003"><a xlink:title=" ">
<path fill="none" stroke="#63b8ff" d="M1027.38,-76.5C1019.31,-76.5 1011.05,-76.5 1003.03,-76.5"/>
<polygon fill="#63b8ff" stroke="#63b8ff" points="1027.12,-80 1037.12,-76.5 1027.12,-73 1027.12,-80"/>
</a>
</g>
</g>
<!-- Node13 -->
<g id="Node000013" class="node">
<title>Node13</title>
<g id="a_Node000013"><a xlink:href="classCore_1_1PartialExporter.html#ad8a5d2f9287f5f077e362d4b073c8082" target="_top" xlink:title="Writes tally.">
<polygon fill="white" stroke="#666666" points="998.5,-44 889.5,-44 889.5,-15 998.5,-15 998.5,-44"/>
<text xml:space="preserve" text-anchor="start" x="897.5" y="-30.5" font-family="Helvetica,sans-Serif" font-size="10.00">Core::PartialExporter</text>
<text xml:space="preserve" text-anchor="middle" x="944" y="-20" font-family="Helvetica,sans-Serif" font-size="10.00">::write_tally</text>
</a>
</g>
</g>
<!-- Node1&#45;&gt;Node13 -->
<g id="edge16_Node000001_Node000013" class="edge">
<title>Node1&#45;&gt;Node13</title>
<g id="a_edge16_Node000001_Node000013"><a xlink:title=" ">
<path fill="none" stroke="#63b8ff" d="M1032.16,-58.07C1018.37,-53.55 1003.78,-48.77 990.56,-44.44"/>
<polygon fill="#63b8ff" stroke="#63b8ff" points="1030.98,-61.37 1041.57,-61.16 1033.16,-54.72 1030.98,-61.37"/>
</a>
</g>
</g>
<!-- Node4 -->
<g id="Node000004" class="node">
<title>Node4</title>
<g id="a_Node000004"><a xlink:href="namespaceCore.html#afbce0beea293a7ccfdfc34a85b5e5e77" target="_top" xlink:title=" ">
<polygon fill="white" stroke="#666666" points="829.88,-91 741.88,-91 741.88,-62 829.88,-62 829.88,-91"/>
<text xml:space="preserve" text-anchor="start" x="749.88" y="-77.5" font-family="Helvetica,sans-Serif" font-size="10.00">Core::init_partial</text>
<text xml:space="preserve" text-anchor="middle" x="785.88" y="-67" font-family="Helvetica,sans-Serif" font-size="10.00">_exporter</text>
</a>
</g>
</g>
<!-- Node3&#45;&gt;Node4 -->
<g id="edge3_Node000003_Node000004" class="edge">
<title>Node3&#45;&gt;Node4</title>
<g id="a_edge3_Node000003_Node000004"><a xlink:title=" ">
<path fill="none" stroke="#63b8ff" d="M873.61,-76.5C858.75,-76.5 843.46,-76.5 829.93,-76.5"/>
<polygon fill="#63b8ff" stroke="#63b8ff" points="873.35,-80 883.35,-76.5 873.35,-73 873.35,-80"/>
</a>
</g>
</g>
<!-- Node12 -->
<g id="Node000012" class="node">
<title>Node12</title>
<g id="a_Node000012"><a xlink:href="classExportHandler.html#ad66ddd83a4245acb73446a86f3fcde6a" target="_top" xlink:title="Handles periodic export of simulation data.">
<polygon fill="white" stroke="#666666" points="849,-41.75 722.75,-41.75 722.75,-23.25 849,-23.25 849,-41.75"/>
<text xml:space="preserve" text-anchor="middle" x="785.88" y="-28.25" font-family="Helvetica,sans-Serif" font-size="10.00">ExportHandler::operator()</text>
</a>
</g>
</g>
<!-- Node3&#45;&gt;Node12 -->
<g id="edge15_Node000003_Node000012" class="edge">
<title>Node3&#45;&gt;Node12</title>
<g id="a_edge15_Node000003_Node000012"><a xlink:title=" ">
<path fill="none" stroke="#63b8ff" d="M879.24,-58.53C859.32,-52.92 838.12,-46.94 821.05,-42.13"/>
<polygon fill="#63b8ff" stroke="#63b8ff" points="878.11,-61.85 888.69,-61.19 880.01,-55.11 878.11,-61.85"/>
</a>
</g>
</g>
<!-- Node5 -->
<g id="Node000005" class="node">
<title>Node5</title>
<g id="a_Node000005"><a xlink:href="namespaceCore.html#ab6528e76111960864b7e4741327b3049" target="_top" xlink:title="Start simulation.">
<polygon fill="white" stroke="#666666" points="686.75,-85.75 623.5,-85.75 623.5,-67.25 686.75,-67.25 686.75,-85.75"/>
<text xml:space="preserve" text-anchor="middle" x="655.12" y="-72.25" font-family="Helvetica,sans-Serif" font-size="10.00">Core::exec</text>
</a>
</g>
</g>
<!-- Node4&#45;&gt;Node5 -->
<g id="edge4_Node000004_Node000005" class="edge">
<title>Node4&#45;&gt;Node5</title>
<g id="a_edge4_Node000004_Node000005"><a xlink:title=" ">
<path fill="none" stroke="#63b8ff" d="M730.54,-76.5C715.75,-76.5 700.25,-76.5 687.24,-76.5"/>
<polygon fill="#63b8ff" stroke="#63b8ff" points="730.13,-80 740.13,-76.5 730.13,-73 730.13,-80"/>
</a>
</g>
</g>
<!-- Node6 -->
<g id="Node000006" class="node">
<title>Node6</title>
<g id="a_Node000006"><a xlink:href="structApi_1_1SimulationInstance.html#a3f04372728be84263fb69f5773ca5bd5" target="_top" xlink:title="Execute the simulation.">
<polygon fill="white" stroke="#666666" points="430.5,-128 311,-128 311,-99 430.5,-99 430.5,-128"/>
<text xml:space="preserve" text-anchor="start" x="319" y="-114.5" font-family="Helvetica,sans-Serif" font-size="10.00">Api::SimulationInstance</text>
<text xml:space="preserve" text-anchor="middle" x="370.75" y="-104" font-family="Helvetica,sans-Serif" font-size="10.00">::exec</text>
</a>
</g>
</g>
<!-- Node5&#45;&gt;Node6 -->
<g id="edge5_Node000005_Node000006" class="edge">
<title>Node5&#45;&gt;Node6</title>
<g id="a_edge5_Node000005_Node000006"><a xlink:title=" ">
<path fill="none" stroke="#63b8ff" d="M612.35,-88.99C604.17,-91.09 595.61,-93.06 587.5,-94.5 534.93,-103.84 474.3,-108.67 430.72,-111.11"/>
<polygon fill="#63b8ff" stroke="#63b8ff" points="612.99,-92.44 621.74,-86.46 611.17,-85.68 612.99,-92.44"/>
</a>
</g>
</g>
<!-- Node8 -->
<g id="Node000008" class="node">
<title>Node8</title>
<g id="a_Node000008"><a xlink:href="namespaceCore.html#a23e6f3d22fc51ef9decabb2c220b27c4" target="_top" xlink:title=" ">
<polygon fill="white" stroke="#666666" points="587.5,-85.75 466.5,-85.75 466.5,-67.25 587.5,-67.25 587.5,-85.75"/>
<text xml:space="preserve" text-anchor="middle" x="527" y="-72.25" font-family="Helvetica,sans-Serif" font-size="10.00">Core::exporter_filename</text>
</a>
</g>
</g>
<!-- Node5&#45;&gt;Node8 -->
<g id="edge7_Node000005_Node000008" class="edge">
<title>Node5&#45;&gt;Node8</title>
<g id="a_edge7_Node000005_Node000008"><a xlink:title=" ">
<path fill="none" stroke="#63b8ff" d="M611.96,-70.09C604.23,-69.83 596.02,-69.72 587.88,-69.76"/>
<polygon fill="#63b8ff" stroke="#63b8ff" points="611.61,-73.58 621.76,-70.53 611.93,-66.59 611.61,-73.58"/>
</a>
</g>
</g>
<!-- Node9 -->
<g id="Node000009" class="node">
<title>Node9</title>
<g id="a_Node000009"><a xlink:href="namespaceCore.html#a877563df5a407318a381e12311022377" target="_top" xlink:title=" ">
<polygon fill="white" stroke="#666666" points="557.5,-48.75 496.5,-48.75 496.5,-30.25 557.5,-30.25 557.5,-48.75"/>
<text xml:space="preserve" text-anchor="middle" x="527" y="-35.25" font-family="Helvetica,sans-Serif" font-size="10.00">Core::load</text>
</a>
</g>
</g>
<!-- Node5&#45;&gt;Node9 -->
<g id="edge9_Node000005_Node000009" class="edge">
<title>Node5&#45;&gt;Node9</title>
<g id="a_edge9_Node000005_Node000009"><a xlink:title=" ">
<path fill="none" stroke="#63b8ff" d="M612.25,-64.22C594.38,-58.97 573.94,-52.98 557.67,-48.2"/>
<polygon fill="#63b8ff" stroke="#63b8ff" points="611.24,-67.57 621.82,-67.02 613.21,-60.85 611.24,-67.57"/>
</a>
</g>
</g>
<!-- Node7 -->
<g id="Node000007" class="node">
<title>Node7</title>
<g id="a_Node000007"><a xlink:href="structApi_1_1SimulationInstance.html#afee07db8a6b57fe7982900ecaa943cc0" target="_top" xlink:title="Default constructor.">
<polygon fill="white" stroke="#666666" points="119.5,-90 0,-90 0,-61 119.5,-61 119.5,-90"/>
<text xml:space="preserve" text-anchor="start" x="8" y="-76.5" font-family="Helvetica,sans-Serif" font-size="10.00">Api::SimulationInstance</text>
<text xml:space="preserve" text-anchor="middle" x="59.75" y="-66" font-family="Helvetica,sans-Serif" font-size="10.00">::SimulationInstance</text>
</a>
</g>
</g>
<!-- Node6&#45;&gt;Node7 -->
<g id="edge6_Node000006_Node000007" class="edge">
<title>Node6&#45;&gt;Node7</title>
<g id="a_edge6_Node000006_Node000007"><a xlink:title=" ">
<path fill="none" stroke="#63b8ff" d="M299.28,-104.83C245.03,-98.16 170.91,-89.05 119.76,-82.76"/>
<polygon fill="#63b8ff" stroke="#63b8ff" points="298.68,-108.29 309.04,-106.03 299.54,-101.34 298.68,-108.29"/>
</a>
</g>
</g>
<!-- Node8&#45;&gt;Node5 -->
<g id="edge8_Node000008_Node000005" class="edge">
<title>Node8&#45;&gt;Node5</title>
<g id="a_edge8_Node000008_Node000005"><a xlink:title=" ">
<path fill="none" stroke="#63b8ff" d="M599.36,-83.2C607.73,-83.09 615.9,-82.83 623.27,-82.4"/>
<polygon fill="#63b8ff" stroke="#63b8ff" points="599.38,-79.7 589.39,-83.24 599.4,-86.7 599.38,-79.7"/>
</a>
</g>
</g>
<!-- Node10 -->
<g id="Node000010" class="node">
<title>Node10</title>
<g id="a_Node000010"><a xlink:href="structApi_1_1SimulationInstance.html#ad2abfa76ac4128d44b7c0c895f78b77b" target="_top" xlink:title="Load ad apply the simulation configuration and prepare for execution based on file.">
<polygon fill="white" stroke="#666666" points="430.5,-54 311,-54 311,-25 430.5,-25 430.5,-54"/>
<text xml:space="preserve" text-anchor="start" x="319" y="-40.5" font-family="Helvetica,sans-Serif" font-size="10.00">Api::SimulationInstance</text>
<text xml:space="preserve" text-anchor="middle" x="370.75" y="-30" font-family="Helvetica,sans-Serif" font-size="10.00">::apply_load</text>
</a>
</g>
</g>
<!-- Node9&#45;&gt;Node10 -->
<g id="edge10_Node000009_Node000010" class="edge">
<title>Node9&#45;&gt;Node10</title>
<g id="a_edge10_Node000009_Node000010"><a xlink:title=" ">
<path fill="none" stroke="#63b8ff" d="M484.76,-39.5C468.2,-39.5 448.79,-39.5 430.78,-39.5"/>
<polygon fill="#63b8ff" stroke="#63b8ff" points="484.75,-43 494.75,-39.5 484.75,-36 484.75,-43"/>
</a>
</g>
</g>
<!-- Node10&#45;&gt;Node7 -->
<g id="edge14_Node000010_Node000007" class="edge">
<title>Node10&#45;&gt;Node7</title>
<g id="a_edge14_Node000010_Node000007"><a xlink:title=" ">
<path fill="none" stroke="#63b8ff" d="M299.53,-51.95C291.28,-53.24 282.96,-54.46 275,-55.5 222.77,-62.34 163.08,-67.71 119.99,-71.16"/>
<polygon fill="#63b8ff" stroke="#63b8ff" points="299.9,-55.44 309.22,-50.4 298.79,-48.53 299.9,-55.44"/>
</a>
</g>
</g>
<!-- Node11 -->
<g id="Node000011" class="node">
<title>Node11</title>
<g id="a_Node000011"><a xlink:href="structApi_1_1SimulationInstance.html#a3398ddd22faa3ceb16b454c51faeced0" target="_top" xlink:title="Apply the simulation configuration and prepare for execution.">
<polygon fill="white" stroke="#666666" points="275,-29 155.5,-29 155.5,0 275,0 275,-29"/>
<text xml:space="preserve" text-anchor="start" x="163.5" y="-15.5" font-family="Helvetica,sans-Serif" font-size="10.00">Api::SimulationInstance</text>
<text xml:space="preserve" text-anchor="middle" x="215.25" y="-5" font-family="Helvetica,sans-Serif" font-size="10.00">::apply</text>
</a>
</g>
</g>
<!-- Node10&#45;&gt;Node11 -->
<g id="edge11_Node000010_Node000011" class="edge">
<title>Node10&#45;&gt;Node11</title>
<g id="a_edge11_Node000010_Node000011"><a xlink:title=" ">
<path fill="none" stroke="#63b8ff" d="M299.49,-28.06C291.39,-26.74 283.19,-25.4 275.25,-24.11"/>
<polygon fill="#63b8ff" stroke="#63b8ff" points="298.92,-31.51 309.35,-29.66 300.04,-24.6 298.92,-31.51"/>
</a>
</g>
</g>
<!-- Node11&#45;&gt;Node7 -->
<g id="edge13_Node000011_Node000007" class="edge">
<title>Node11&#45;&gt;Node7</title>
<g id="a_edge13_Node000011_Node000007"><a xlink:title=" ">
<path fill="none" stroke="#63b8ff" d="M166.3,-33.56C144.43,-42.25 118.91,-52.39 98.44,-60.52"/>
<polygon fill="#63b8ff" stroke="#63b8ff" points="167.29,-36.93 175.29,-29.98 164.71,-30.42 167.29,-36.93"/>
</a>
</g>
</g>
<!-- Node11&#45;&gt;Node11 -->
<g id="edge12_Node000011_Node000011" class="edge">
<title>Node11&#45;&gt;Node11</title>
<g id="a_edge12_Node000011_Node000011"><a xlink:title=" ">
<path fill="none" stroke="#63b8ff" d="M241.64,-40.56C237.5,-44.41 228.7,-47 215.25,-47 190.65,-47 181.62,-38.32 188.15,-29.21"/>
<polygon fill="#63b8ff" stroke="#63b8ff" points="245.13,-40.92 242.26,-30.72 238.14,-40.48 245.13,-40.92"/>
</a>
</g>
</g>
<!-- Node13&#45;&gt;Node12 -->
<g id="edge17_Node000013_Node000012" class="edge">
<title>Node13&#45;&gt;Node12</title>
<g id="a_edge17_Node000013_Node000012"><a xlink:title=" ">
<path fill="none" stroke="#63b8ff" d="M877.9,-30.75C868.43,-30.93 858.71,-31.12 849.3,-31.3"/>
<polygon fill="#63b8ff" stroke="#63b8ff" points="877.83,-34.25 887.76,-30.56 877.69,-27.25 877.83,-34.25"/>
</a>
</g>
</g>
</g>
</svg>
