<?xml version="1.0" encoding="UTF-8" standalone="no"?>
<!DOCTYPE svg PUBLIC "-//W3C//DTD SVG 1.1//EN"
 "http://www.w3.org/Graphics/SVG/1.1/DTD/svg11.dtd">
<!-- Generated by graphviz version 12.1.2 (0)
 -->
<!-- Title: Simulation::SimulationUnit Pages: 1 -->
<svg width="590pt" height="158pt"
 viewBox="0.00 0.00 590.00 157.75" xmlns="http://www.w3.org/2000/svg" xmlns:xlink="http://www.w3.org/1999/xlink">
<g id="graph0" class="graph" transform="scale(1 1) rotate(0) translate(4 153.75)">
<title>Simulation::SimulationUnit</title>
<!-- Node1 -->
<g id="Node000001" class="node">
<title>Node1</title>
<g id="a_Node000001"><a xlink:title=" ">
<polygon fill="#999999" stroke="#666666" points="582,-91.75 450.5,-91.75 450.5,-73.25 582,-73.25 582,-91.75"/>
<text text-anchor="middle" x="516.25" y="-78.25" font-family="Helvetica,sans-Serif" font-size="10.00">Simulation::SimulationUnit</text>
</a>
</g>
</g>
<!-- Node2 -->
<g id="Node000002" class="node">
<title>Node2</title>
<g id="a_Node000002"><a xlink:href="structSimulation_1_1Feed_1_1SimulationFeed.html" target="_top" xlink:title=" ">
<polygon fill="white" stroke="#666666" points="367.25,-149.75 204.25,-149.75 204.25,-131.25 367.25,-131.25 367.25,-149.75"/>
<text text-anchor="middle" x="285.75" y="-136.25" font-family="Helvetica,sans-Serif" font-size="10.00">Simulation::Feed::SimulationFeed</text>
</a>
</g>
</g>
<!-- Node2&#45;&gt;Node1 -->
<g id="edge1_Node000001_Node000002" class="edge">
<title>Node2&#45;&gt;Node1</title>
<g id="a_edge1_Node000001_Node000002"><a xlink:title=" ">
<path fill="none" stroke="#9a32cd" stroke-dasharray="5,2" d="M347.22,-128.47C373.55,-122.92 404.68,-115.91 432.5,-108.5 450.69,-103.66 470.84,-97.34 486.71,-92.15"/>
<polygon fill="#9a32cd" stroke="#9a32cd" points="346.81,-124.98 337.74,-130.45 348.25,-131.83 346.81,-124.98"/>
</a>
</g>
<text text-anchor="middle" x="408.88" y="-120.32" font-family="Helvetica,sans-Serif" font-size="10.00" fill="grey"> feed</text>
</g>
<!-- Node3 -->
<g id="Node000003" class="node">
<title>Node3</title>
<g id="a_Node000003"><a xlink:href="structCmaUtils_1_1IterationState.html" target="_top" xlink:title="Structure to store information about the reactor state during simulation.">
<polygon fill="white" stroke="#666666" points="346.62,-112.75 224.88,-112.75 224.88,-94.25 346.62,-94.25 346.62,-112.75"/>
<text text-anchor="middle" x="285.75" y="-99.25" font-family="Helvetica,sans-Serif" font-size="10.00">CmaUtils::IterationState</text>
</a>
</g>
</g>
<!-- Node3&#45;&gt;Node1 -->
<g id="edge2_Node000001_Node000003" class="edge">
<title>Node3&#45;&gt;Node1</title>
<g id="a_edge2_Node000001_Node000003"><a xlink:title=" ">
<path fill="none" stroke="#9a32cd" stroke-dasharray="5,2" d="M358.52,-96.9C387.85,-94.21 421.55,-91.11 450.16,-88.48"/>
<polygon fill="#9a32cd" stroke="#9a32cd" points="358.23,-93.42 348.59,-97.82 358.87,-100.39 358.23,-93.42"/>
</a>
</g>
<text text-anchor="middle" x="408.88" y="-95.26" font-family="Helvetica,sans-Serif" font-size="10.00" fill="grey"> state</text>
</g>
<!-- Node4 -->
<g id="Node000004" class="node">
<title>Node4</title>
<g id="a_Node000004"><a xlink:href="classCmaUtils_1_1PreCalculatedHydroState.html" target="_top" xlink:title="Structure to store hydrodynamic properties from a compartment mesh.">
<polygon fill="white" stroke="#666666" points="149.5,-118 0,-118 0,-89 149.5,-89 149.5,-118"/>
<text text-anchor="start" x="8" y="-104.5" font-family="Helvetica,sans-Serif" font-size="10.00">CmaUtils::PreCalculatedHydro</text>
<text text-anchor="middle" x="74.75" y="-94" font-family="Helvetica,sans-Serif" font-size="10.00">State</text>
</a>
</g>
</g>
<!-- Node4&#45;&gt;Node3 -->
<g id="edge3_Node000003_Node000004" class="edge">
<title>Node4&#45;&gt;Node3</title>
<g id="a_edge3_Node000003_Node000004"><a xlink:title=" ">
<path fill="none" stroke="#9a32cd" stroke-dasharray="5,2" d="M161.1,-103.5C182.42,-103.5 204.84,-103.5 224.64,-103.5"/>
<polygon fill="#9a32cd" stroke="#9a32cd" points="161.24,-100 151.24,-103.5 161.24,-107 161.24,-100"/>
</a>
</g>
<text text-anchor="middle" x="176.88" y="-115" font-family="Helvetica,sans-Serif" font-size="10.00" fill="grey"> gas</text>
<text text-anchor="middle" x="176.88" y="-104.5" font-family="Helvetica,sans-Serif" font-size="10.00" fill="grey">liq</text>
</g>
<!-- Node5 -->
<g id="Node000005" class="node">
<title>Node5</title>
<g id="a_Node000005"><a xlink:href="classSimulation_1_1MassTransfer_1_1MassTransferModel.html" target="_top" xlink:title=" ">
<polygon fill="white" stroke="#666666" points="349.25,-76 222.25,-76 222.25,-47 349.25,-47 349.25,-76"/>
<text text-anchor="start" x="230.25" y="-62.5" font-family="Helvetica,sans-Serif" font-size="10.00">Simulation::MassTransfer</text>
<text text-anchor="middle" x="285.75" y="-52" font-family="Helvetica,sans-Serif" font-size="10.00">::MassTransferModel</text>
</a>
</g>
</g>
<!-- Node5&#45;&gt;Node1 -->
<g id="edge4_Node000001_Node000005" class="edge">
<title>Node5&#45;&gt;Node1</title>
<g id="a_edge4_Node000001_Node000005"><a xlink:title=" ">
<path fill="none" stroke="#9a32cd" stroke-dasharray="5,2" d="M360.75,-68.3C389.59,-70.95 422.35,-73.96 450.26,-76.53"/>
<polygon fill="#9a32cd" stroke="#9a32cd" points="361.28,-64.83 351,-67.4 360.64,-71.81 361.28,-64.83"/>
</a>
</g>
<text text-anchor="middle" x="408.88" y="-75.5" font-family="Helvetica,sans-Serif" font-size="10.00" fill="grey"> mt_model</text>
</g>
<!-- Node6 -->
<g id="Node000006" class="node">
<title>Node6</title>
<g id="a_Node000006"><a xlink:href="structSimulation_1_1KernelInline_1_1MoveInfo.html" target="_top" xlink:title=" ">
<polygon fill="white" stroke="#666666" points="359.38,-29 212.12,-29 212.12,0 359.38,0 359.38,-29"/>
<text text-anchor="start" x="220.12" y="-15.5" font-family="Helvetica,sans-Serif" font-size="10.00">Simulation::KernelInline</text>
<text text-anchor="middle" x="285.75" y="-5" font-family="Helvetica,sans-Serif" font-size="10.00">::MoveInfo&lt; ComputeSpace &gt;</text>
</a>
</g>
</g>
<!-- Node6&#45;&gt;Node1 -->
<g id="edge5_Node000001_Node000006" class="edge">
<title>Node6&#45;&gt;Node1</title>
<g id="a_edge5_Node000001_Node000006"><a xlink:title=" ">
<path fill="none" stroke="#9a32cd" stroke-dasharray="5,2" d="M351.8,-32.53C377.05,-39.66 406.18,-48.04 432.5,-56 450.26,-61.37 470.06,-67.7 485.83,-72.82"/>
<polygon fill="#9a32cd" stroke="#9a32cd" points="352.89,-29.21 342.32,-29.87 351,-35.94 352.89,-29.21"/>
</a>
</g>
<text text-anchor="middle" x="408.88" y="-57" font-family="Helvetica,sans-Serif" font-size="10.00" fill="grey"> move_info</text>
</g>
</g>
</svg>
