<?xml version="1.0" encoding="UTF-8" standalone="no"?>
<!DOCTYPE svg PUBLIC "-//W3C//DTD SVG 1.1//EN"
 "http://www.w3.org/Graphics/SVG/1.1/DTD/svg11.dtd">
<!-- Generated by graphviz version 14.0.1 (0)
 -->
<!-- Title: Core::GlobalInitialiser Pages: 1 -->
<svg width="384pt" height="98pt"
 viewBox="0.00 0.00 384.00 98.00" xmlns="http://www.w3.org/2000/svg" xmlns:xlink="http://www.w3.org/1999/xlink">
<g id="graph0" class="graph" transform="scale(1 1) rotate(0) translate(4 93.5)">
<title>Core::GlobalInitialiser</title>
<!-- Node1 -->
<g id="Node000001" class="node">
<title>Node1</title>
<g id="a_Node000001"><a xlink:title="A class responsible for initializing various components of a simulation framework.">
<polygon fill="#999999" stroke="#666666" points="197,-18.5 87.25,-18.5 87.25,0 197,0 197,-18.5"/>
<text xml:space="preserve" text-anchor="middle" x="142.12" y="-5" font-family="Helvetica,sans-Serif" font-size="10.00">Core::GlobalInitialiser</text>
</a>
</g>
</g>
<!-- Node2 -->
<g id="Node000002" class="node">
<title>Node2</title>
<g id="a_Node000002"><a xlink:href="structExecInfo.html" target="_top" xlink:title=" ">
<polygon fill="white" stroke="#666666" points="54.25,-89.5 0,-89.5 0,-71 54.25,-71 54.25,-89.5"/>
<text xml:space="preserve" text-anchor="middle" x="27.12" y="-76" font-family="Helvetica,sans-Serif" font-size="10.00">ExecInfo</text>
</a>
</g>
</g>
<!-- Node2&#45;&gt;Node1 -->
<g id="edge1_Node000001_Node000002" class="edge">
<title>Node2&#45;&gt;Node1</title>
<g id="a_edge1_Node000001_Node000002"><a xlink:title=" ">
<path fill="none" stroke="#9a32cd" stroke-dasharray="5,2" d="M51.45,-64.65C74.57,-50.78 108.56,-30.39 127.68,-18.92"/>
<polygon fill="#9a32cd" stroke="#9a32cd" points="49.76,-61.59 42.99,-69.73 53.36,-67.59 49.76,-61.59"/>
</a>
</g>
<text xml:space="preserve" text-anchor="start" x="101.31" y="-40.5" font-family="Helvetica,sans-Serif" font-size="10.00" fill="grey">info</text>
</g>
<!-- Node3 -->
<g id="Node000003" class="node">
<title>Node3</title>
<g id="a_Node000003"><a xlink:href="structCore_1_1SimulationParameters.html" target="_top" xlink:title=" ">
<polygon fill="white" stroke="#666666" points="212,-89.5 72.25,-89.5 72.25,-71 212,-71 212,-89.5"/>
<text xml:space="preserve" text-anchor="middle" x="142.12" y="-76" font-family="Helvetica,sans-Serif" font-size="10.00">Core::SimulationParameters</text>
</a>
</g>
</g>
<!-- Node3&#45;&gt;Node1 -->
<g id="edge2_Node000001_Node000003" class="edge">
<title>Node3&#45;&gt;Node1</title>
<g id="a_edge2_Node000001_Node000003"><a xlink:title=" ">
<path fill="none" stroke="#9a32cd" stroke-dasharray="5,2" d="M142.12,-59.05C142.12,-45.63 142.12,-28.68 142.12,-18.7"/>
<polygon fill="#9a32cd" stroke="#9a32cd" points="138.63,-59 142.13,-69 145.63,-59 138.63,-59"/>
</a>
</g>
<text xml:space="preserve" text-anchor="start" x="145.12" y="-40.5" font-family="Helvetica,sans-Serif" font-size="10.00" fill="grey">params</text>
</g>
<!-- Node4 -->
<g id="Node000004" class="node">
<title>Node4</title>
<g id="a_Node000004"><a xlink:href="structCore_1_1UserControlParameters.html" target="_top" xlink:title="A structure to hold user&#45;defined control parameters for simulation settings.">
<polygon fill="white" stroke="#666666" points="376.38,-89.5 229.88,-89.5 229.88,-71 376.38,-71 376.38,-89.5"/>
<text xml:space="preserve" text-anchor="middle" x="303.12" y="-76" font-family="Helvetica,sans-Serif" font-size="10.00">Core::UserControlParameters</text>
</a>
</g>
</g>
<!-- Node4&#45;&gt;Node1 -->
<g id="edge3_Node000001_Node000004" class="edge">
<title>Node4&#45;&gt;Node1</title>
<g id="a_edge3_Node000001_Node000004"><a xlink:title=" ">
<path fill="none" stroke="#9a32cd" stroke-dasharray="5,2" d="M272.5,-66.13C240.16,-52.26 190.09,-30.8 162.35,-18.92"/>
<polygon fill="#9a32cd" stroke="#9a32cd" points="270.77,-69.19 281.34,-69.91 273.53,-62.76 270.77,-69.19"/>
</a>
</g>
<text xml:space="preserve" text-anchor="start" x="244.78" y="-40.5" font-family="Helvetica,sans-Serif" font-size="10.00" fill="grey">user_params</text>
</g>
</g>
</svg>
