<?xml version="1.0" encoding="UTF-8" standalone="no"?>
<!DOCTYPE svg PUBLIC "-//W3C//DTD SVG 1.1//EN"
 "http://www.w3.org/Graphics/SVG/1.1/DTD/svg11.dtd">
<!-- Generated by graphviz version 14.0.1 (0)
 -->
<!-- Title: Simulation::FeedException Pages: 1 -->
<svg width="164pt" height="136pt"
 viewBox="0.00 0.00 164.00 136.00" xmlns="http://www.w3.org/2000/svg" xmlns:xlink="http://www.w3.org/1999/xlink">
<g id="graph0" class="graph" transform="scale(1 1) rotate(0) translate(4 131.5)">
<title>Simulation::FeedException</title>
<!-- Node1 -->
<g id="Node000001" class="node">
<title>Node1</title>
<g id="a_Node000001"><a xlink:title=" ">
<polygon fill="#999999" stroke="#666666" points="144.25,-18.5 12,-18.5 12,0 144.25,0 144.25,-18.5"/>
<text xml:space="preserve" text-anchor="middle" x="78.12" y="-5" font-family="Helvetica,sans-Serif" font-size="10.00">Simulation::FeedException</text>
</a>
</g>
</g>
<!-- Node2 -->
<g id="Node000002" class="node">
<title>Node2</title>
<g id="a_Node000002"><a xlink:href="classSimulation_1_1SimulationException.html" target="_top" xlink:title=" ">
<polygon fill="white" stroke="#666666" points="156.25,-73 0,-73 0,-54.5 156.25,-54.5 156.25,-73"/>
<text xml:space="preserve" text-anchor="middle" x="78.12" y="-59.5" font-family="Helvetica,sans-Serif" font-size="10.00">Simulation::SimulationException</text>
</a>
</g>
</g>
<!-- Node2&#45;&gt;Node1 -->
<g id="edge1_Node000001_Node000002" class="edge">
<title>Node2&#45;&gt;Node1</title>
<g id="a_edge1_Node000001_Node000002"><a xlink:title=" ">
<path fill="none" stroke="#63b8ff" d="M78.12,-42.64C78.12,-34.36 78.12,-25.21 78.12,-18.76"/>
<polygon fill="#63b8ff" stroke="#63b8ff" points="74.63,-42.57 78.13,-52.57 81.63,-42.57 74.63,-42.57"/>
</a>
</g>
</g>
<!-- Node3 -->
<g id="Node000003" class="node">
<title>Node3</title>
<g id="a_Node000003"><a xlink:title=" ">
<polygon fill="white" stroke="#666666" points="116.5,-127.5 39.75,-127.5 39.75,-109 116.5,-109 116.5,-127.5"/>
<text xml:space="preserve" text-anchor="middle" x="78.12" y="-114" font-family="Helvetica,sans-Serif" font-size="10.00">std::exception</text>
</a>
</g>
</g>
<!-- Node3&#45;&gt;Node2 -->
<g id="edge2_Node000002_Node000003" class="edge">
<title>Node3&#45;&gt;Node2</title>
<g id="a_edge2_Node000002_Node000003"><a xlink:title=" ">
<path fill="none" stroke="#63b8ff" d="M78.12,-97.14C78.12,-88.86 78.12,-79.71 78.12,-73.26"/>
<polygon fill="#63b8ff" stroke="#63b8ff" points="74.63,-97.07 78.13,-107.07 81.63,-97.07 74.63,-97.07"/>
</a>
</g>
</g>
</g>
</svg>
