<?xml version="1.0" encoding="UTF-8" standalone="no"?>
<!DOCTYPE svg PUBLIC "-//W3C//DTD SVG 1.1//EN"
 "http://www.w3.org/Graphics/SVG/1.1/DTD/svg11.dtd">
<!-- Generated by graphviz version 14.0.1 (0)
 -->
<!-- Title: Simulation::SimulationUnit::operator= Pages: 1 -->
<svg width="644pt" height="154pt"
 viewBox="0.00 0.00 644.00 154.00" xmlns="http://www.w3.org/2000/svg" xmlns:xlink="http://www.w3.org/1999/xlink">
<g id="graph0" class="graph" transform="scale(1 1) rotate(0) translate(4 150)">
<title>Simulation::SimulationUnit::operator=</title>
<!-- Node1 -->
<g id="Node000001" class="node">
<title>Node1</title>
<g id="a_Node000001"><a xlink:title=" ">
<polygon fill="#999999" stroke="#666666" points="131.5,-99 0,-99 0,-70 131.5,-70 131.5,-99"/>
<text xml:space="preserve" text-anchor="start" x="8" y="-85.5" font-family="Helvetica,sans-Serif" font-size="10.00">Simulation::SimulationUnit</text>
<text xml:space="preserve" text-anchor="middle" x="65.75" y="-75" font-family="Helvetica,sans-Serif" font-size="10.00">::operator=</text>
</a>
</g>
</g>
<!-- Node2 -->
<g id="Node000002" class="node">
<title>Node2</title>
<g id="a_Node000002"><a xlink:href="classSimulation_1_1SimulationUnit.html#a366f1f10c6148e01e79d3f10735ea0ea" target="_top" xlink:title=" ">
<polygon fill="white" stroke="#666666" points="299,-99 167.5,-99 167.5,-70 299,-70 299,-99"/>
<text xml:space="preserve" text-anchor="start" x="175.5" y="-85.5" font-family="Helvetica,sans-Serif" font-size="10.00">Simulation::SimulationUnit</text>
<text xml:space="preserve" text-anchor="middle" x="233.25" y="-75" font-family="Helvetica,sans-Serif" font-size="10.00">::SimulationUnit</text>
</a>
</g>
</g>
<!-- Node1&#45;&gt;Node2 -->
<g id="edge1_Node000001_Node000002" class="edge">
<title>Node1&#45;&gt;Node2</title>
<g id="a_edge1_Node000001_Node000002"><a xlink:title=" ">
<path fill="none" stroke="#63b8ff" d="M131.68,-84.5C139.63,-84.5 147.79,-84.5 155.88,-84.5"/>
<polygon fill="#63b8ff" stroke="#63b8ff" points="155.72,-88 165.72,-84.5 155.72,-81 155.72,-88"/>
</a>
</g>
</g>
<!-- Node3 -->
<g id="Node000003" class="node">
<title>Node3</title>
<g id="a_Node000003"><a xlink:href="classSimulation_1_1SimulationUnit.html#a9ea90cab13d8259f026f57baad1c989f" target="_top" xlink:title=" ">
<polygon fill="white" stroke="#666666" points="466.5,-146 335,-146 335,-117 466.5,-117 466.5,-146"/>
<text xml:space="preserve" text-anchor="start" x="343" y="-132.5" font-family="Helvetica,sans-Serif" font-size="10.00">Simulation::SimulationUnit</text>
<text xml:space="preserve" text-anchor="middle" x="400.75" y="-122" font-family="Helvetica,sans-Serif" font-size="10.00">::get_kernel_contribution</text>
</a>
</g>
</g>
<!-- Node2&#45;&gt;Node3 -->
<g id="edge2_Node000002_Node000003" class="edge">
<title>Node2&#45;&gt;Node3</title>
<g id="a_edge2_Node000002_Node000003"><a xlink:title=" ">
<path fill="none" stroke="#63b8ff" d="M286.62,-99.37C302.46,-103.87 320.04,-108.86 336.52,-113.54"/>
<polygon fill="#63b8ff" stroke="#63b8ff" points="335.13,-116.79 345.7,-116.15 337.04,-110.05 335.13,-116.79"/>
</a>
</g>
</g>
<!-- Node4 -->
<g id="Node000004" class="node">
<title>Node4</title>
<g id="a_Node000004"><a xlink:href="classSimulation_1_1SimulationUnit.html#a4d9a0037502fc0784690c11c1a593a1f" target="_top" xlink:title=" ">
<polygon fill="white" stroke="#666666" points="466.5,-99 335,-99 335,-70 466.5,-70 466.5,-99"/>
<text xml:space="preserve" text-anchor="start" x="343" y="-85.5" font-family="Helvetica,sans-Serif" font-size="10.00">Simulation::SimulationUnit</text>
<text xml:space="preserve" text-anchor="middle" x="400.75" y="-75" font-family="Helvetica,sans-Serif" font-size="10.00">::post_init_compartments</text>
</a>
</g>
</g>
<!-- Node2&#45;&gt;Node4 -->
<g id="edge3_Node000002_Node000004" class="edge">
<title>Node2&#45;&gt;Node4</title>
<g id="a_edge3_Node000002_Node000004"><a xlink:title=" ">
<path fill="none" stroke="#63b8ff" d="M299.18,-84.5C307.13,-84.5 315.29,-84.5 323.38,-84.5"/>
<polygon fill="#63b8ff" stroke="#63b8ff" points="323.22,-88 333.22,-84.5 323.22,-81 323.22,-88"/>
</a>
</g>
</g>
<!-- Node5 -->
<g id="Node000005" class="node">
<title>Node5</title>
<g id="a_Node000005"><a xlink:href="classSimulation_1_1SimulationUnit.html#ad3ffc3108a93d7f403e8f2b81cc24e6d" target="_top" xlink:title=" ">
<polygon fill="white" stroke="#666666" points="466.5,-52 335,-52 335,-23 466.5,-23 466.5,-52"/>
<text xml:space="preserve" text-anchor="start" x="343" y="-38.5" font-family="Helvetica,sans-Serif" font-size="10.00">Simulation::SimulationUnit</text>
<text xml:space="preserve" text-anchor="middle" x="400.75" y="-28" font-family="Helvetica,sans-Serif" font-size="10.00">::post_init_concentration</text>
</a>
</g>
</g>
<!-- Node2&#45;&gt;Node5 -->
<g id="edge4_Node000002_Node000005" class="edge">
<title>Node2&#45;&gt;Node5</title>
<g id="a_edge4_Node000002_Node000005"><a xlink:title=" ">
<path fill="none" stroke="#63b8ff" d="M286.62,-69.63C302.46,-65.13 320.04,-60.14 336.52,-55.46"/>
<polygon fill="#63b8ff" stroke="#63b8ff" points="337.04,-58.95 345.7,-52.85 335.13,-52.21 337.04,-58.95"/>
</a>
</g>
</g>
<!-- Node6 -->
<g id="Node000006" class="node">
<title>Node6</title>
<g id="a_Node000006"><a xlink:href="namespaceSimulation_1_1impl.html#ae758467dce9da6b2605e79579b54db29" target="_top" xlink:title=" ">
<polygon fill="white" stroke="#666666" points="626.88,-76 511.12,-76 511.12,-47 626.88,-47 626.88,-76"/>
<text xml:space="preserve" text-anchor="start" x="519.12" y="-62.5" font-family="Helvetica,sans-Serif" font-size="10.00">Simulation::impl::post</text>
<text xml:space="preserve" text-anchor="middle" x="569" y="-52" font-family="Helvetica,sans-Serif" font-size="10.00">_init_concentration_file</text>
</a>
</g>
</g>
<!-- Node5&#45;&gt;Node6 -->
<g id="edge5_Node000005_Node000006" class="edge">
<title>Node5&#45;&gt;Node6</title>
<g id="a_edge5_Node000005_Node000006"><a xlink:title=" ">
<path fill="none" stroke="#63b8ff" d="M466.98,-46.92C477.71,-48.47 488.87,-50.08 499.68,-51.64"/>
<polygon fill="#63b8ff" stroke="#63b8ff" points="498.89,-55.06 509.28,-53.02 499.89,-48.13 498.89,-55.06"/>
</a>
</g>
</g>
<!-- Node7 -->
<g id="Node000007" class="node">
<title>Node7</title>
<g id="a_Node000007"><a xlink:href="namespaceSimulation_1_1impl.html#a8621c7c62e95e65b4403bbf991f30719" target="_top" xlink:title=" ">
<polygon fill="white" stroke="#666666" points="635.5,-29 502.5,-29 502.5,0 635.5,0 635.5,-29"/>
<text xml:space="preserve" text-anchor="start" x="510.5" y="-15.5" font-family="Helvetica,sans-Serif" font-size="10.00">Simulation::impl::post</text>
<text xml:space="preserve" text-anchor="middle" x="569" y="-5" font-family="Helvetica,sans-Serif" font-size="10.00">_init_concentration_functor</text>
</a>
</g>
</g>
<!-- Node5&#45;&gt;Node7 -->
<g id="edge6_Node000005_Node000007" class="edge">
<title>Node5&#45;&gt;Node7</title>
<g id="a_edge6_Node000005_Node000007"><a xlink:title=" ">
<path fill="none" stroke="#63b8ff" d="M466.98,-28.48C474.83,-27.39 482.91,-26.27 490.91,-25.17"/>
<polygon fill="#63b8ff" stroke="#63b8ff" points="491.21,-28.66 500.64,-23.82 490.26,-21.72 491.21,-28.66"/>
</a>
</g>
</g>
</g>
</svg>
