<?xml version="1.0" encoding="UTF-8" standalone="no"?>
<!DOCTYPE svg PUBLIC "-//W3C//DTD SVG 1.1//EN"
 "http://www.w3.org/Graphics/SVG/1.1/DTD/svg11.dtd">
<!-- Generated by graphviz version 14.0.1 (0)
 -->
<!-- Title: Simulation::SimulationUnit::operator= Pages: 1 -->
<!--zoomable 811 -->

<svg id="main" version="1.1" xmlns="http://www.w3.org/2000/svg" xmlns:xlink="http://www.w3.org/1999/xlink" xml:space="preserve" onload="init(evt)">

<style type="text/css"><![CDATA[
.node, .edge {opacity: 0.7;}
.node.selected, .edge.selected {opacity: 1;}
.edge:hover path { stroke: red; }
.edge:hover polygon { stroke: red; fill: red; }
]]></style>

<defs>
  <circle id="rim" cx="0" cy="0" r="7"/>
  <circle id="rim2" cx="0" cy="0" r="3.5"/>
  <g id="zoomPlus">
    <use xlink:href="#rim" fill="#404040"><set attributeName="fill" to="#808080" begin="zoomplus.mouseover" end="zoomplus.mouseout"/></use>
    <path d="M-4,0h8M0,-4v8" fill="none" stroke="white" stroke-width="1.5" pointer-events="none"/>
  </g>
  <g id="zoomMin">
    <use xlink:href="#rim" fill="#404040"><set attributeName="fill" to="#808080" begin="zoomminus.mouseover" end="zoomminus.mouseout"/></use>
    <path d="M-4,0h8" fill="none" stroke="white" stroke-width="1.5" pointer-events="none"/>
  </g>
  <g id="arrowUp" transform="translate(30 24)">
    <use xlink:href="#rim"/>
    <path pointer-events="none" fill="none" stroke="white" stroke-width="1.5" d="M0,-3.0v7 M-2.5,-0.5L0,-3.0L2.5,-0.5"/>
  </g>
  <g id="arrowRight" transform="rotate(90) translate(36 -43)">
    <use xlink:href="#rim"/>
    <path pointer-events="none" fill="none" stroke="white" stroke-width="1.5" d="M0,-3.0v7 M-2.5,-0.5L0,-3.0L2.5,-0.5"/>
  </g>
  <g id="arrowDown" transform="rotate(180) translate(-30 -48)">
    <use xlink:href="#rim"/>
    <path pointer-events="none" fill="none" stroke="white" stroke-width="1.5" d="M0,-3.0v7 M-2.5,-0.5L0,-3.0L2.5,-0.5"/>
  </g>
  <g id="arrowLeft" transform="rotate(270) translate(-36 17)">
    <use xlink:href="#rim"/>
    <path pointer-events="none" fill="none" stroke="white" stroke-width="1.5" d="M0,-3.0v7 M-2.5,-0.5L0,-3.0L2.5,-0.5"/>
  </g>
  <g id="resetDef">
    <use xlink:href="#rim2" fill="#404040"><set attributeName="fill" to="#808080" begin="reset.mouseover" end="reset.mouseout"/></use>
  </g>
</defs>
<script type="application/ecmascript">
var viewWidth = 997;
var viewHeight = 811;
var sectionId = 'dynsection-15';
</script>
<script type="application/ecmascript" xlink:href="svg.min.js"/>
<svg id="graph" class="graph">
<g id="viewport">
<title>Simulation::SimulationUnit::operator=</title>
<!-- Node1 -->
<g id="Node000001" class="node">
<title>Node1</title>
<g id="a_Node000001"><a xlink:title=" ">
<polygon fill="#999999" stroke="#666666" points="131.5,-401 0,-401 0,-372 131.5,-372 131.5,-401"/>
<text xml:space="preserve" text-anchor="start" x="8" y="-387.5" font-family="Helvetica,sans-Serif" font-size="10.00">Simulation::SimulationUnit</text>
<text xml:space="preserve" text-anchor="middle" x="65.75" y="-377" font-family="Helvetica,sans-Serif" font-size="10.00">::operator=</text>
</a>
</g>
</g>
<!-- Node2 -->
<g id="Node000002" class="node">
<title>Node2</title>
<g id="a_Node000002"><a xlink:href="classSimulation_1_1SimulationUnit.html#ad964b9f706ae4cac2e0d5d852131a7d2" target="_top" xlink:title=" ">
<polygon fill="white" stroke="#666666" points="299,-760 167.5,-760 167.5,-731 299,-731 299,-760"/>
<text xml:space="preserve" text-anchor="start" x="175.5" y="-746.5" font-family="Helvetica,sans-Serif" font-size="10.00">Simulation::SimulationUnit</text>
<text xml:space="preserve" text-anchor="middle" x="233.25" y="-736" font-family="Helvetica,sans-Serif" font-size="10.00">::checkScalar</text>
</a>
</g>
</g>
<!-- Node1&#45;&gt;Node2 -->
<g id="edge1_Node000001_Node000002" class="edge">
<title>Node1&#45;&gt;Node2</title>
<g id="a_edge1_Node000001_Node000002"><a xlink:title=" ">
<path fill="none" stroke="#63b8ff" d="M66.72,-401.21C67.4,-452.71 76.63,-626.97 167.5,-722.5 167.87,-722.89 168.25,-723.27 168.63,-723.65"/>
<polygon fill="#63b8ff" stroke="#63b8ff" points="166.32,-726.28 176.35,-729.7 170.64,-720.77 166.32,-726.28"/>
</a>
</g>
</g>
<!-- Node3 -->
<g id="Node000003" class="node">
<title>Node3</title>
<g id="a_Node000003"><a xlink:href="classSimulation_1_1SimulationUnit.html#aeb968caf58812bcab01534e72a63d552" target="_top" xlink:title=" ">
<polygon fill="white" stroke="#666666" points="299,-713 167.5,-713 167.5,-684 299,-684 299,-713"/>
<text xml:space="preserve" text-anchor="start" x="175.5" y="-699.5" font-family="Helvetica,sans-Serif" font-size="10.00">Simulation::SimulationUnit</text>
<text xml:space="preserve" text-anchor="middle" x="233.25" y="-689" font-family="Helvetica,sans-Serif" font-size="10.00">::clearContribution</text>
</a>
</g>
</g>
<!-- Node1&#45;&gt;Node3 -->
<g id="edge2_Node000001_Node000003" class="edge">
<title>Node1&#45;&gt;Node3</title>
<g id="a_edge2_Node000001_Node000003"><a xlink:title=" ">
<path fill="none" stroke="#63b8ff" d="M67.57,-401.43C70.95,-448.47 87.71,-595.24 167.5,-675.5 167.99,-675.99 168.48,-676.47 168.99,-676.94"/>
<polygon fill="#63b8ff" stroke="#63b8ff" points="166.68,-679.58 176.79,-682.77 170.88,-673.98 166.68,-679.58"/>
</a>
</g>
</g>
<!-- Node4 -->
<g id="Node000004" class="node">
<title>Node4</title>
<g id="a_Node000004"><a xlink:href="classSimulation_1_1SimulationUnit.html#a5512cea54affc3eb0c16380d973348e5" target="_top" xlink:title=" ">
<polygon fill="white" stroke="#666666" points="299,-666 167.5,-666 167.5,-637 299,-637 299,-666"/>
<text xml:space="preserve" text-anchor="start" x="175.5" y="-652.5" font-family="Helvetica,sans-Serif" font-size="10.00">Simulation::SimulationUnit</text>
<text xml:space="preserve" text-anchor="middle" x="233.25" y="-642" font-family="Helvetica,sans-Serif" font-size="10.00">::cycleProcess</text>
</a>
</g>
</g>
<!-- Node1&#45;&gt;Node4 -->
<g id="edge3_Node000001_Node000004" class="edge">
<title>Node1&#45;&gt;Node4</title>
<g id="a_edge3_Node000001_Node000004"><a xlink:title=" ">
<path fill="none" stroke="#63b8ff" d="M69.2,-401.31C76.64,-441.92 102.56,-556.4 167.5,-622.5 170.44,-625.49 173.73,-628.19 177.24,-630.64"/>
<polygon fill="#63b8ff" stroke="#63b8ff" points="175.28,-633.54 185.65,-635.74 178.91,-627.56 175.28,-633.54"/>
</a>
</g>
</g>
<!-- Node14 -->
<g id="Node000014" class="node">
<title>Node14</title>
<g id="a_Node000014"><a xlink:href="classSimulation_1_1SimulationUnit.html#a1278ad223b0cc8509f68a9f7d995bfd2" target="_top" xlink:title=" ">
<polygon fill="white" stroke="#666666" points="641.88,-623 510.38,-623 510.38,-594 641.88,-594 641.88,-623"/>
<text xml:space="preserve" text-anchor="start" x="518.38" y="-609.5" font-family="Helvetica,sans-Serif" font-size="10.00">Simulation::SimulationUnit</text>
<text xml:space="preserve" text-anchor="middle" x="576.12" y="-599" font-family="Helvetica,sans-Serif" font-size="10.00">::SimulationUnit</text>
</a>
</g>
</g>
<!-- Node1&#45;&gt;Node14 -->
<g id="edge35_Node000001_Node000014" class="edge">
<title>Node1&#45;&gt;Node14</title>
<g id="a_edge35_Node000001_Node000014"><a xlink:title=" ">
<path fill="none" stroke="#63b8ff" d="M69.59,-401.39C77.53,-438.4 103.67,-534.61 167.5,-576.5 220.2,-611.09 395.95,-613.09 498.66,-611.07"/>
<polygon fill="#63b8ff" stroke="#63b8ff" points="498.46,-614.57 508.38,-610.86 498.31,-607.57 498.46,-614.57"/>
</a>
</g>
</g>
<!-- Node18 -->
<g id="Node000018" class="node">
<title>Node18</title>
<g id="a_Node000018"><a xlink:href="classSimulation_1_1SimulationUnit.html#aceb670b889811566ad3c159b8ecb5a9f" target="_top" xlink:title=" ">
<polygon fill="white" stroke="#666666" points="466.5,-562 335,-562 335,-533 466.5,-533 466.5,-562"/>
<text xml:space="preserve" text-anchor="start" x="343" y="-548.5" font-family="Helvetica,sans-Serif" font-size="10.00">Simulation::SimulationUnit</text>
<text xml:space="preserve" text-anchor="middle" x="400.75" y="-538" font-family="Helvetica,sans-Serif" font-size="10.00">::Getter</text>
</a>
</g>
</g>
<!-- Node1&#45;&gt;Node18 -->
<g id="edge20_Node000001_Node000018" class="edge">
<title>Node1&#45;&gt;Node18</title>
<g id="a_edge20_Node000001_Node000018"><a xlink:title=" ">
<path fill="none" stroke="#63b8ff" d="M70.48,-401.25C79.97,-435.19 108.52,-518.41 167.5,-551.5 219.22,-580.52 288.15,-574.88 337.45,-564.82"/>
<polygon fill="#63b8ff" stroke="#63b8ff" points="338.09,-568.27 347.12,-562.73 336.61,-561.43 338.09,-568.27"/>
</a>
</g>
</g>
<!-- Node19 -->
<g id="Node000019" class="node">
<title>Node19</title>
<g id="a_Node000019"><a xlink:href="classSimulation_1_1SimulationUnit.html#a531f02efbffc1b6d63b52b7e1a4969be" target="_top" xlink:title=" ">
<polygon fill="white" stroke="#666666" points="299,-542 167.5,-542 167.5,-513 299,-513 299,-542"/>
<text xml:space="preserve" text-anchor="start" x="175.5" y="-528.5" font-family="Helvetica,sans-Serif" font-size="10.00">Simulation::SimulationUnit</text>
<text xml:space="preserve" text-anchor="middle" x="233.25" y="-518" font-family="Helvetica,sans-Serif" font-size="10.00">::getter</text>
</a>
</g>
</g>
<!-- Node1&#45;&gt;Node19 -->
<g id="edge23_Node000001_Node000019" class="edge">
<title>Node1&#45;&gt;Node19</title>
<g id="a_edge23_Node000001_Node000019"><a xlink:title=" ">
<path fill="none" stroke="#63b8ff" d="M75.72,-401.37C91.37,-426.14 126,-475.95 167.5,-504.5 168.88,-505.45 170.31,-506.37 171.77,-507.25"/>
<polygon fill="#63b8ff" stroke="#63b8ff" points="170,-510.27 180.48,-511.87 173.29,-504.09 170,-510.27"/>
</a>
</g>
</g>
<!-- Node20 -->
<g id="Node000020" class="node">
<title>Node20</title>
<g id="a_Node000020"><a xlink:href="classSimulation_1_1SimulationUnit.html#a50e613289a3b6ca1abea7173e3eac01e" target="_top" xlink:title=" ">
<polygon fill="white" stroke="#666666" points="299,-495 167.5,-495 167.5,-466 299,-466 299,-495"/>
<text xml:space="preserve" text-anchor="start" x="175.5" y="-481.5" font-family="Helvetica,sans-Serif" font-size="10.00">Simulation::SimulationUnit</text>
<text xml:space="preserve" text-anchor="middle" x="233.25" y="-471" font-family="Helvetica,sans-Serif" font-size="10.00">::init_functors</text>
</a>
</g>
</g>
<!-- Node1&#45;&gt;Node20 -->
<g id="edge24_Node000001_Node000020" class="edge">
<title>Node1&#45;&gt;Node20</title>
<g id="a_edge24_Node000001_Node000020"><a xlink:title=" ">
<path fill="none" stroke="#63b8ff" d="M84.71,-401.45C104.15,-417.07 136.52,-441.47 167.5,-457.5 169.87,-458.73 172.32,-459.91 174.81,-461.06"/>
<polygon fill="#63b8ff" stroke="#63b8ff" points="173.31,-464.22 183.88,-464.94 176.06,-457.79 173.31,-464.22"/>
</a>
</g>
</g>
<!-- Node25 -->
<g id="Node000025" class="node">
<title>Node25</title>
<g id="a_Node000025"><a xlink:href="classSimulation_1_1SimulationUnit.html#a78ae42cfcc795bbf921e2bc6cfe3df88" target="_top" xlink:title=" ">
<polygon fill="white" stroke="#666666" points="299,-448 167.5,-448 167.5,-419 299,-419 299,-448"/>
<text xml:space="preserve" text-anchor="start" x="175.5" y="-434.5" font-family="Helvetica,sans-Serif" font-size="10.00">Simulation::SimulationUnit</text>
<text xml:space="preserve" text-anchor="middle" x="233.25" y="-424" font-family="Helvetica,sans-Serif" font-size="10.00">::overwriteStartTime</text>
</a>
</g>
</g>
<!-- Node1&#45;&gt;Node25 -->
<g id="edge29_Node000001_Node000025" class="edge">
<title>Node1&#45;&gt;Node25</title>
<g id="a_edge29_Node000001_Node000025"><a xlink:title=" ">
<path fill="none" stroke="#63b8ff" d="M119.12,-401.37C134.96,-405.87 152.54,-410.86 169.02,-415.54"/>
<polygon fill="#63b8ff" stroke="#63b8ff" points="167.63,-418.79 178.2,-418.15 169.54,-412.05 167.63,-418.79"/>
</a>
</g>
</g>
<!-- Node26 -->
<g id="Node000026" class="node">
<title>Node26</title>
<g id="a_Node000026"><a xlink:href="classSimulation_1_1SimulationUnit.html#aa12b65d19fa7e3eb74152b0252591a4d" target="_top" xlink:title=" ">
<polygon fill="white" stroke="#666666" points="299,-401 167.5,-401 167.5,-372 299,-372 299,-401"/>
<text xml:space="preserve" text-anchor="start" x="175.5" y="-387.5" font-family="Helvetica,sans-Serif" font-size="10.00">Simulation::SimulationUnit</text>
<text xml:space="preserve" text-anchor="middle" x="233.25" y="-377" font-family="Helvetica,sans-Serif" font-size="10.00">::reset</text>
</a>
</g>
</g>
<!-- Node1&#45;&gt;Node26 -->
<g id="edge30_Node000001_Node000026" class="edge">
<title>Node1&#45;&gt;Node26</title>
<g id="a_edge30_Node000001_Node000026"><a xlink:title=" ">
<path fill="none" stroke="#63b8ff" d="M131.68,-386.5C139.63,-386.5 147.79,-386.5 155.88,-386.5"/>
<polygon fill="#63b8ff" stroke="#63b8ff" points="155.72,-390 165.72,-386.5 155.72,-383 155.72,-390"/>
</a>
</g>
</g>
<!-- Node27 -->
<g id="Node000027" class="node">
<title>Node27</title>
<g id="a_Node000027"><a xlink:href="classSimulation_1_1SimulationUnit.html#ab9dee9ba0754be0f02d44401693fd464" target="_top" xlink:title=" ">
<polygon fill="white" stroke="#666666" points="299,-354 167.5,-354 167.5,-325 299,-325 299,-354"/>
<text xml:space="preserve" text-anchor="start" x="175.5" y="-340.5" font-family="Helvetica,sans-Serif" font-size="10.00">Simulation::SimulationUnit</text>
<text xml:space="preserve" text-anchor="middle" x="233.25" y="-330" font-family="Helvetica,sans-Serif" font-size="10.00">::setEndTime</text>
</a>
</g>
</g>
<!-- Node1&#45;&gt;Node27 -->
<g id="edge31_Node000001_Node000027" class="edge">
<title>Node1&#45;&gt;Node27</title>
<g id="a_edge31_Node000001_Node000027"><a xlink:title=" ">
<path fill="none" stroke="#63b8ff" d="M119.12,-371.63C134.96,-367.13 152.54,-362.14 169.02,-357.46"/>
<polygon fill="#63b8ff" stroke="#63b8ff" points="169.54,-360.95 178.2,-354.85 167.63,-354.21 169.54,-360.95"/>
</a>
</g>
</g>
<!-- Node28 -->
<g id="Node000028" class="node">
<title>Node28</title>
<g id="a_Node000028"><a xlink:href="classSimulation_1_1SimulationUnit.html#a3feb4071ee1e31a6a0972fa5dedf657f" target="_top" xlink:title=" ">
<polygon fill="white" stroke="#666666" points="299,-307 167.5,-307 167.5,-278 299,-278 299,-307"/>
<text xml:space="preserve" text-anchor="start" x="175.5" y="-293.5" font-family="Helvetica,sans-Serif" font-size="10.00">Simulation::SimulationUnit</text>
<text xml:space="preserve" text-anchor="middle" x="233.25" y="-283" font-family="Helvetica,sans-Serif" font-size="10.00">::setLogger</text>
</a>
</g>
</g>
<!-- Node1&#45;&gt;Node28 -->
<g id="edge32_Node000001_Node000028" class="edge">
<title>Node1&#45;&gt;Node28</title>
<g id="a_edge32_Node000001_Node000028"><a xlink:title=" ">
<path fill="none" stroke="#63b8ff" d="M85.15,-371.58C104.69,-356.26 136.91,-332.47 167.5,-316.5 170.54,-314.91 173.7,-313.38 176.93,-311.92"/>
<polygon fill="#63b8ff" stroke="#63b8ff" points="178.16,-315.2 185.98,-308.04 175.41,-308.76 178.16,-315.2"/>
</a>
</g>
</g>
<!-- Node29 -->
<g id="Node000029" class="node">
<title>Node29</title>
<g id="a_Node000029"><a xlink:href="classSimulation_1_1SimulationUnit.html#a94cfe4657d93316bd4609e1ddd2d64cc" target="_top" xlink:title=" ">
<polygon fill="white" stroke="#666666" points="299,-260 167.5,-260 167.5,-231 299,-231 299,-260"/>
<text xml:space="preserve" text-anchor="start" x="175.5" y="-246.5" font-family="Helvetica,sans-Serif" font-size="10.00">Simulation::SimulationUnit</text>
<text xml:space="preserve" text-anchor="middle" x="233.25" y="-236" font-family="Helvetica,sans-Serif" font-size="10.00">::setMtrModel</text>
</a>
</g>
</g>
<!-- Node1&#45;&gt;Node29 -->
<g id="edge33_Node000001_Node000029" class="edge">
<title>Node1&#45;&gt;Node29</title>
<g id="a_edge33_Node000001_Node000029"><a xlink:title=" ">
<path fill="none" stroke="#63b8ff" d="M75.79,-371.82C91.55,-347.35 126.34,-298.11 167.5,-269.5 169.5,-268.11 171.59,-266.79 173.74,-265.54"/>
<polygon fill="#63b8ff" stroke="#63b8ff" points="174.9,-268.88 182.16,-261.16 171.68,-262.67 174.9,-268.88"/>
</a>
</g>
</g>
<!-- Node30 -->
<g id="Node000030" class="node">
<title>Node30</title>
<g id="a_Node000030"><a xlink:href="classSimulation_1_1SimulationUnit.html#a74e5c7824f255af6c8f37ebba38f1d33" target="_top" xlink:title=" ">
<polygon fill="white" stroke="#666666" points="299,-213 167.5,-213 167.5,-184 299,-184 299,-213"/>
<text xml:space="preserve" text-anchor="start" x="175.5" y="-199.5" font-family="Helvetica,sans-Serif" font-size="10.00">Simulation::SimulationUnit</text>
<text xml:space="preserve" text-anchor="middle" x="233.25" y="-189" font-family="Helvetica,sans-Serif" font-size="10.00">::setProbes</text>
</a>
</g>
</g>
<!-- Node1&#45;&gt;Node30 -->
<g id="edge34_Node000001_Node000030" class="edge">
<title>Node1&#45;&gt;Node30</title>
<g id="a_edge34_Node000001_Node000030"><a xlink:title=" ">
<path fill="none" stroke="#63b8ff" d="M72.05,-371.53C84.06,-339.63 116.36,-264.48 167.5,-222.5 168.97,-221.3 170.5,-220.15 172.08,-219.06"/>
<polygon fill="#63b8ff" stroke="#63b8ff" points="173.51,-222.28 180.32,-214.16 169.94,-216.26 173.51,-222.28"/>
</a>
</g>
</g>
<!-- Node31 -->
<g id="Node000031" class="node">
<title>Node31</title>
<g id="a_Node000031"><a xlink:href="classSimulation_1_1SimulationUnit.html#af4d179bd1bf0d8da69d83f63fdd72412" target="_top" xlink:title=" ">
<polygon fill="white" stroke="#666666" points="299,-166 167.5,-166 167.5,-137 299,-137 299,-166"/>
<text xml:space="preserve" text-anchor="start" x="175.5" y="-152.5" font-family="Helvetica,sans-Serif" font-size="10.00">Simulation::SimulationUnit</text>
<text xml:space="preserve" text-anchor="middle" x="233.25" y="-142" font-family="Helvetica,sans-Serif" font-size="10.00">::step</text>
</a>
</g>
</g>
<!-- Node1&#45;&gt;Node31 -->
<g id="edge36_Node000001_Node000031" class="edge">
<title>Node1&#45;&gt;Node31</title>
<g id="a_edge36_Node000001_Node000031"><a xlink:title=" ">
<path fill="none" stroke="#63b8ff" d="M69.77,-371.67C78.28,-333.66 105.9,-231.76 167.5,-175.5 168.57,-174.52 169.68,-173.58 170.84,-172.68"/>
<polygon fill="#63b8ff" stroke="#63b8ff" points="172.58,-175.73 179.01,-167.31 168.73,-169.88 172.58,-175.73"/>
</a>
</g>
</g>
<!-- Node32 -->
<g id="Node000032" class="node">
<title>Node32</title>
<g id="a_Node000032"><a xlink:href="classSimulation_1_1SimulationUnit.html#a6fecb0563822fae0ef26d9f6209d0779" target="_top" xlink:title=" ">
<polygon fill="white" stroke="#666666" points="299,-119 167.5,-119 167.5,-90 299,-90 299,-119"/>
<text xml:space="preserve" text-anchor="start" x="175.5" y="-105.5" font-family="Helvetica,sans-Serif" font-size="10.00">Simulation::SimulationUnit</text>
<text xml:space="preserve" text-anchor="middle" x="233.25" y="-95" font-family="Helvetica,sans-Serif" font-size="10.00">::update_feed</text>
</a>
</g>
</g>
<!-- Node1&#45;&gt;Node32 -->
<g id="edge37_Node000001_Node000032" class="edge">
<title>Node1&#45;&gt;Node32</title>
<g id="a_edge37_Node000001_Node000032"><a xlink:title=" ">
<path fill="none" stroke="#63b8ff" d="M68.33,-371.67C73.72,-328.16 95.31,-199.45 167.5,-128.5 168.4,-127.62 169.33,-126.77 170.29,-125.95"/>
<polygon fill="#63b8ff" stroke="#63b8ff" points="172.26,-128.84 178.45,-120.24 168.25,-123.11 172.26,-128.84"/>
</a>
</g>
</g>
<!-- Node33 -->
<g id="Node000033" class="node">
<title>Node33</title>
<g id="a_Node000033"><a xlink:href="classSimulation_1_1SimulationUnit.html#a57624461bad4807d5cacbd7d17e49b14" target="_top" xlink:title=" ">
<polygon fill="white" stroke="#666666" points="299,-33 167.5,-33 167.5,-4 299,-4 299,-33"/>
<text xml:space="preserve" text-anchor="start" x="175.5" y="-19.5" font-family="Helvetica,sans-Serif" font-size="10.00">Simulation::SimulationUnit</text>
<text xml:space="preserve" text-anchor="middle" x="233.25" y="-9" font-family="Helvetica,sans-Serif" font-size="10.00">::updateHydro</text>
</a>
</g>
</g>
<!-- Node1&#45;&gt;Node33 -->
<g id="edge38_Node000001_Node000033" class="edge">
<title>Node1&#45;&gt;Node33</title>
<g id="a_edge38_Node000001_Node000033"><a xlink:title=" ">
<path fill="none" stroke="#63b8ff" d="M66.96,-371.56C68.47,-320.02 80.12,-147.27 167.5,-47.5 170.09,-44.54 173.05,-41.86 176.24,-39.45"/>
<polygon fill="#63b8ff" stroke="#63b8ff" points="177.95,-42.51 184.45,-34.14 174.15,-36.63 177.95,-42.51"/>
</a>
</g>
</g>
<!-- Node34 -->
<g id="Node000034" class="node">
<title>Node34</title>
<g id="a_Node000034"><a xlink:href="classSimulation_1_1SimulationUnit.html#a30514b0d71df785a793a60b5ea2f1b17" target="_top" xlink:title=" ">
<polygon fill="white" stroke="#666666" points="466.5,-76 335,-76 335,-47 466.5,-47 466.5,-76"/>
<text xml:space="preserve" text-anchor="start" x="343" y="-62.5" font-family="Helvetica,sans-Serif" font-size="10.00">Simulation::SimulationUnit</text>
<text xml:space="preserve" text-anchor="middle" x="400.75" y="-52" font-family="Helvetica,sans-Serif" font-size="10.00">::updateMCHydro</text>
</a>
</g>
</g>
<!-- Node1&#45;&gt;Node34 -->
<g id="edge41_Node000001_Node000034" class="edge">
<title>Node1&#45;&gt;Node34</title>
<g id="a_edge41_Node000001_Node000034"><a xlink:title=" ">
<path fill="none" stroke="#63b8ff" d="M66.44,-371.61C66.27,-321.21 73.22,-156.02 167.5,-81.5 210.8,-47.28 273.88,-43.84 323.37,-48.1"/>
<polygon fill="#63b8ff" stroke="#63b8ff" points="322.87,-51.57 333.17,-49.08 323.57,-44.6 322.87,-51.57"/>
</a>
</g>
</g>
<!-- Node5 -->
<g id="Node000005" class="node">
<title>Node5</title>
<g id="a_Node000005"><a xlink:href="classSimulation_1_1SimulationUnit.html#a96e8f3fbde370c918a3710b0b910cd42" target="_top" xlink:title=" ">
<polygon fill="white" stroke="#666666" points="466.5,-731 335,-731 335,-702 466.5,-702 466.5,-731"/>
<text xml:space="preserve" text-anchor="start" x="343" y="-717.5" font-family="Helvetica,sans-Serif" font-size="10.00">Simulation::SimulationUnit</text>
<text xml:space="preserve" text-anchor="middle" x="400.75" y="-707" font-family="Helvetica,sans-Serif" font-size="10.00">::post_cycle</text>
</a>
</g>
</g>
<!-- Node4&#45;&gt;Node5 -->
<g id="edge4_Node000004_Node000005" class="edge">
<title>Node4&#45;&gt;Node5</title>
<g id="a_edge4_Node000004_Node000005"><a xlink:title=" ">
<path fill="none" stroke="#63b8ff" d="M276.66,-666.47C284.16,-669.33 291.85,-672.4 299,-675.5 315.41,-682.62 318.54,-686.49 335,-693.5 338.19,-694.86 341.49,-696.2 344.83,-697.52"/>
<polygon fill="#63b8ff" stroke="#63b8ff" points="343.58,-700.79 354.17,-701.09 346.08,-694.25 343.58,-700.79"/>
</a>
</g>
</g>
<!-- Node13 -->
<g id="Node000013" class="node">
<title>Node13</title>
<g id="a_Node000013"><a xlink:href="classSimulation_1_1SimulationUnit.html#ad984b5d95455d6db475d8b6e20077a0c" target="_top" xlink:title=" ">
<polygon fill="white" stroke="#666666" points="466.5,-666 335,-666 335,-637 466.5,-637 466.5,-666"/>
<text xml:space="preserve" text-anchor="start" x="343" y="-652.5" font-family="Helvetica,sans-Serif" font-size="10.00">Simulation::SimulationUnit</text>
<text xml:space="preserve" text-anchor="middle" x="400.75" y="-642" font-family="Helvetica,sans-Serif" font-size="10.00">::pre_cycle</text>
</a>
</g>
</g>
<!-- Node4&#45;&gt;Node13 -->
<g id="edge13_Node000004_Node000013" class="edge">
<title>Node4&#45;&gt;Node13</title>
<g id="a_edge13_Node000004_Node000013"><a xlink:title=" ">
<path fill="none" stroke="#63b8ff" d="M299.18,-651.5C307.13,-651.5 315.29,-651.5 323.38,-651.5"/>
<polygon fill="#63b8ff" stroke="#63b8ff" points="323.22,-655 333.22,-651.5 323.22,-648 323.22,-655"/>
</a>
</g>
</g>
<!-- Node6 -->
<g id="Node000006" class="node">
<title>Node6</title>
<g id="a_Node000006"><a xlink:href="classMC_1_1ParticlesContainer.html#a8e95993fb1287c04427780d6372be565" target="_top" xlink:title="Insert particle buffer into the main container.">
<polygon fill="white" stroke="#666666" points="635.5,-731 516.75,-731 516.75,-702 635.5,-702 635.5,-731"/>
<text xml:space="preserve" text-anchor="start" x="524.75" y="-717.5" font-family="Helvetica,sans-Serif" font-size="10.00">MC::ParticlesContainer</text>
<text xml:space="preserve" text-anchor="middle" x="576.12" y="-707" font-family="Helvetica,sans-Serif" font-size="10.00">::merge_buffer</text>
</a>
</g>
</g>
<!-- Node5&#45;&gt;Node6 -->
<g id="edge5_Node000005_Node000006" class="edge">
<title>Node5&#45;&gt;Node6</title>
<g id="a_edge5_Node000005_Node000006"><a xlink:title=" ">
<path fill="none" stroke="#63b8ff" d="M466.8,-716.5C479.23,-716.5 492.3,-716.5 504.89,-716.5"/>
<polygon fill="#63b8ff" stroke="#63b8ff" points="504.77,-720 514.77,-716.5 504.77,-713 504.77,-720"/>
</a>
</g>
</g>
<!-- Node9 -->
<g id="Node000009" class="node">
<title>Node9</title>
<g id="a_Node000009"><a xlink:href="classSimulation_1_1SimulationUnit.html#ae2077067788b0cb0535c62933724a1cf" target="_top" xlink:title=" ">
<polygon fill="white" stroke="#666666" points="641.88,-677 510.38,-677 510.38,-648 641.88,-648 641.88,-677"/>
<text xml:space="preserve" text-anchor="start" x="518.38" y="-663.5" font-family="Helvetica,sans-Serif" font-size="10.00">Simulation::SimulationUnit</text>
<text xml:space="preserve" text-anchor="middle" x="576.12" y="-653" font-family="Helvetica,sans-Serif" font-size="10.00">::scatter_contribute</text>
</a>
</g>
</g>
<!-- Node5&#45;&gt;Node9 -->
<g id="edge8_Node000005_Node000009" class="edge">
<title>Node5&#45;&gt;Node9</title>
<g id="a_edge8_Node000005_Node000009"><a xlink:title=" ">
<path fill="none" stroke="#63b8ff" d="M449.58,-701.6C470.25,-695.17 494.63,-687.57 516.38,-680.8"/>
<polygon fill="#63b8ff" stroke="#63b8ff" points="517.19,-684.21 525.7,-677.89 515.11,-677.53 517.19,-684.21"/>
</a>
</g>
</g>
<!-- Node11 -->
<g id="Node000011" class="node">
<title>Node11</title>
<g id="a_Node000011"><a xlink:href="classMC_1_1ParticlesContainer.html#a0047f4c96b02ae4aeb9ebd8963129687" target="_top" xlink:title="Update the number of non&#45;idle particle and remove if total number exceeds threshold May call : remove...">
<polygon fill="white" stroke="#666666" points="649.75,-790 502.5,-790 502.5,-761 649.75,-761 649.75,-790"/>
<text xml:space="preserve" text-anchor="start" x="510.5" y="-776.5" font-family="Helvetica,sans-Serif" font-size="10.00">MC::ParticlesContainer</text>
<text xml:space="preserve" text-anchor="middle" x="576.12" y="-766" font-family="Helvetica,sans-Serif" font-size="10.00">::update_and_remove_inactive</text>
</a>
</g>
</g>
<!-- Node5&#45;&gt;Node11 -->
<g id="edge10_Node000005_Node000011" class="edge">
<title>Node5&#45;&gt;Node11</title>
<g id="a_edge10_Node000005_Node000011"><a xlink:title=" ">
<path fill="none" stroke="#63b8ff" d="M445.5,-731.39C468.2,-739.11 496.17,-748.63 520.3,-756.84"/>
<polygon fill="#63b8ff" stroke="#63b8ff" points="519.06,-760.12 529.66,-760.03 521.32,-753.49 519.06,-760.12"/>
</a>
</g>
</g>
<!-- Node7 -->
<g id="Node000007" class="node">
<title>Node7</title>
<g id="a_Node000007"><a xlink:href="classMC_1_1ParticlesContainer.html#a57fa06d3225acf04522e3fc2993847f0" target="_top" xlink:title=" ">
<polygon fill="white" stroke="#666666" points="812.38,-756 693.62,-756 693.62,-727 812.38,-727 812.38,-756"/>
<text xml:space="preserve" text-anchor="start" x="701.62" y="-742.5" font-family="Helvetica,sans-Serif" font-size="10.00">MC::ParticlesContainer</text>
<text xml:space="preserve" text-anchor="middle" x="753" y="-732" font-family="Helvetica,sans-Serif" font-size="10.00">::__allocate_buffer__</text>
</a>
</g>
</g>
<!-- Node6&#45;&gt;Node7 -->
<g id="edge6_Node000006_Node000007" class="edge">
<title>Node6&#45;&gt;Node7</title>
<g id="a_edge6_Node000006_Node000007"><a xlink:title=" ">
<path fill="none" stroke="#63b8ff" d="M635.84,-724.89C650.69,-727.02 666.79,-729.32 682.13,-731.51"/>
<polygon fill="#63b8ff" stroke="#63b8ff" points="681.25,-734.92 691.64,-732.87 682.24,-727.99 681.25,-734.92"/>
</a>
</g>
</g>
<!-- Node8 -->
<g id="Node000008" class="node">
<title>Node8</title>
<g id="a_Node000008"><a xlink:href="classMC_1_1ParticlesContainer.html#a4fc94ae525191a5d034dce4866986c1e" target="_top" xlink:title=" ">
<polygon fill="white" stroke="#666666" points="982.12,-758 863.38,-758 863.38,-729 982.12,-729 982.12,-758"/>
<text xml:space="preserve" text-anchor="start" x="871.38" y="-744.5" font-family="Helvetica,sans-Serif" font-size="10.00">MC::ParticlesContainer</text>
<text xml:space="preserve" text-anchor="middle" x="922.75" y="-734" font-family="Helvetica,sans-Serif" font-size="10.00">::_resize</text>
</a>
</g>
</g>
<!-- Node6&#45;&gt;Node8 -->
<g id="edge7_Node000006_Node000008" class="edge">
<title>Node6&#45;&gt;Node8</title>
<g id="a_edge7_Node000006_Node000008"><a xlink:title=" ">
<path fill="none" stroke="#63b8ff" d="M635.84,-713.17C685.24,-711.28 757.64,-710.64 820.25,-718.5 833.33,-720.14 847.17,-722.87 860.27,-725.93"/>
<polygon fill="#63b8ff" stroke="#63b8ff" points="859.06,-729.23 869.6,-728.2 860.71,-722.43 859.06,-729.23"/>
</a>
</g>
</g>
<!-- Node10 -->
<g id="Node000010" class="node">
<title>Node10</title>
<g id="a_Node000010"><a xlink:href="classSimulation_1_1SimulationUnit.html#af5aeb9c124540ac219001b46b51b74a9" target="_top" xlink:title=" ">
<polygon fill="white" stroke="#666666" points="818.75,-670 687.25,-670 687.25,-641 818.75,-641 818.75,-670"/>
<text xml:space="preserve" text-anchor="start" x="695.25" y="-656.5" font-family="Helvetica,sans-Serif" font-size="10.00">Simulation::SimulationUnit</text>
<text xml:space="preserve" text-anchor="middle" x="753" y="-646" font-family="Helvetica,sans-Serif" font-size="10.00">::get_kernel_contribution</text>
</a>
</g>
</g>
<!-- Node9&#45;&gt;Node10 -->
<g id="edge9_Node000009_Node000010" class="edge">
<title>Node9&#45;&gt;Node10</title>
<g id="a_edge9_Node000009_Node000010"><a xlink:title=" ">
<path fill="none" stroke="#63b8ff" d="M642.24,-659.89C653.05,-659.46 664.35,-659.01 675.41,-658.57"/>
<polygon fill="#63b8ff" stroke="#63b8ff" points="675.46,-662.07 685.32,-658.17 675.18,-655.07 675.46,-662.07"/>
</a>
</g>
</g>
<!-- Node12 -->
<g id="Node000012" class="node">
<title>Node12</title>
<g id="a_Node000012"><a xlink:href="classMC_1_1ParticlesContainer.html#a57353f823ed074869300f29deb5c50b2" target="_top" xlink:title="Removes inactive particles from the container.">
<polygon fill="white" stroke="#666666" points="820.25,-803 685.75,-803 685.75,-774 820.25,-774 820.25,-803"/>
<text xml:space="preserve" text-anchor="start" x="693.75" y="-789.5" font-family="Helvetica,sans-Serif" font-size="10.00">MC::ParticlesContainer</text>
<text xml:space="preserve" text-anchor="middle" x="753" y="-779" font-family="Helvetica,sans-Serif" font-size="10.00">::remove_inactive_particles</text>
</a>
</g>
</g>
<!-- Node11&#45;&gt;Node12 -->
<g id="edge11_Node000011_Node000012" class="edge">
<title>Node11&#45;&gt;Node12</title>
<g id="a_edge11_Node000011_Node000012"><a xlink:title=" ">
<path fill="none" stroke="#63b8ff" d="M650.02,-780.92C657.98,-781.51 666.11,-782.12 674.13,-782.71"/>
<polygon fill="#63b8ff" stroke="#63b8ff" points="673.63,-786.18 683.86,-783.43 674.15,-779.2 673.63,-786.18"/>
</a>
</g>
</g>
<!-- Node12&#45;&gt;Node8 -->
<g id="edge12_Node000012_Node000008" class="edge">
<title>Node12&#45;&gt;Node8</title>
<g id="a_edge12_Node000012_Node000008"><a xlink:title=" ">
<path fill="none" stroke="#63b8ff" d="M809.86,-773.52C824.35,-769.63 840.11,-765.4 855.1,-761.38"/>
<polygon fill="#63b8ff" stroke="#63b8ff" points="855.64,-764.86 864.39,-758.89 853.82,-758.1 855.64,-764.86"/>
</a>
</g>
</g>
<!-- Node13&#45;&gt;Node13 -->
<g id="edge14_Node000013_Node000013" class="edge">
<title>Node13&#45;&gt;Node13</title>
<g id="a_edge14_Node000013_Node000013"><a xlink:title=" ">
<path fill="none" stroke="#63b8ff" d="M371.56,-666.21C364.52,-675.32 374.25,-684 400.75,-684 415.24,-684 424.72,-681.41 429.18,-677.56"/>
<polygon fill="#63b8ff" stroke="#63b8ff" points="432.66,-677.93 429.84,-667.72 425.68,-677.46 432.66,-677.93"/>
</a>
</g>
</g>
<!-- Node13&#45;&gt;Node14 -->
<g id="edge15_Node000013_Node000014" class="edge">
<title>Node13&#45;&gt;Node14</title>
<g id="a_edge15_Node000013_Node000014"><a xlink:title=" ">
<path fill="none" stroke="#63b8ff" d="M461.9,-636.58C475.41,-633.23 489.86,-629.65 503.77,-626.2"/>
<polygon fill="#63b8ff" stroke="#63b8ff" points="504.45,-629.63 513.32,-623.83 502.77,-622.84 504.45,-629.63"/>
</a>
</g>
</g>
<!-- Node14&#45;&gt;Node10 -->
<g id="edge16_Node000014_Node000010" class="edge">
<title>Node14&#45;&gt;Node10</title>
<g id="a_edge16_Node000014_Node000010"><a xlink:title=" ">
<path fill="none" stroke="#63b8ff" d="M632.46,-623.37C649.36,-627.91 668.13,-632.96 685.68,-637.68"/>
<polygon fill="#63b8ff" stroke="#63b8ff" points="684.4,-640.96 694.97,-640.17 686.22,-634.2 684.4,-640.96"/>
</a>
</g>
</g>
<!-- Node15 -->
<g id="Node000015" class="node">
<title>Node15</title>
<g id="a_Node000015"><a xlink:href="classSimulation_1_1SimulationUnit.html#a36fb635150825e63055191740edaba84" target="_top" xlink:title=" ">
<polygon fill="white" stroke="#666666" points="818.75,-623 687.25,-623 687.25,-594 818.75,-594 818.75,-623"/>
<text xml:space="preserve" text-anchor="start" x="695.25" y="-609.5" font-family="Helvetica,sans-Serif" font-size="10.00">Simulation::SimulationUnit</text>
<text xml:space="preserve" text-anchor="middle" x="753" y="-599" font-family="Helvetica,sans-Serif" font-size="10.00">::post_init_concentration</text>
</a>
</g>
</g>
<!-- Node14&#45;&gt;Node15 -->
<g id="edge17_Node000014_Node000015" class="edge">
<title>Node14&#45;&gt;Node15</title>
<g id="a_edge17_Node000014_Node000015"><a xlink:title=" ">
<path fill="none" stroke="#63b8ff" d="M642.24,-608.5C653.05,-608.5 664.35,-608.5 675.41,-608.5"/>
<polygon fill="#63b8ff" stroke="#63b8ff" points="675.32,-612 685.32,-608.5 675.32,-605 675.32,-612"/>
</a>
</g>
</g>
<!-- Node16 -->
<g id="Node000016" class="node">
<title>Node16</title>
<g id="a_Node000016"><a xlink:href="namespaceSimulation_1_1impl.html#ab56eb92724f12b4ed6c401939009519c" target="_top" xlink:title=" ">
<polygon fill="white" stroke="#666666" points="980.62,-599 864.88,-599 864.88,-570 980.62,-570 980.62,-599"/>
<text xml:space="preserve" text-anchor="start" x="872.88" y="-585.5" font-family="Helvetica,sans-Serif" font-size="10.00">Simulation::impl::post</text>
<text xml:space="preserve" text-anchor="middle" x="922.75" y="-575" font-family="Helvetica,sans-Serif" font-size="10.00">_init_concentration_file</text>
</a>
</g>
</g>
<!-- Node15&#45;&gt;Node16 -->
<g id="edge18_Node000015_Node000016" class="edge">
<title>Node15&#45;&gt;Node16</title>
<g id="a_edge18_Node000015_Node000016"><a xlink:title=" ">
<path fill="none" stroke="#63b8ff" d="M818.86,-599.22C830.13,-597.61 841.88,-595.93 853.25,-594.3"/>
<polygon fill="#63b8ff" stroke="#63b8ff" points="853.55,-597.79 862.95,-592.91 852.56,-590.86 853.55,-597.79"/>
</a>
</g>
</g>
<!-- Node17 -->
<g id="Node000017" class="node">
<title>Node17</title>
<g id="a_Node000017"><a xlink:href="namespaceSimulation_1_1impl.html#ae40eba3a10cbceb62fe3e6980dcc193f" target="_top" xlink:title=" ">
<polygon fill="white" stroke="#666666" points="989.25,-646 856.25,-646 856.25,-617 989.25,-617 989.25,-646"/>
<text xml:space="preserve" text-anchor="start" x="864.25" y="-632.5" font-family="Helvetica,sans-Serif" font-size="10.00">Simulation::impl::post</text>
<text xml:space="preserve" text-anchor="middle" x="922.75" y="-622" font-family="Helvetica,sans-Serif" font-size="10.00">_init_concentration_functor</text>
</a>
</g>
</g>
<!-- Node15&#45;&gt;Node17 -->
<g id="edge19_Node000015_Node000017" class="edge">
<title>Node15&#45;&gt;Node17</title>
<g id="a_edge19_Node000015_Node000017"><a xlink:title=" ">
<path fill="none" stroke="#63b8ff" d="M818.86,-617.39C827.32,-618.55 836.05,-619.75 844.69,-620.93"/>
<polygon fill="#63b8ff" stroke="#63b8ff" points="844.08,-624.38 854.46,-622.27 845.03,-617.45 844.08,-624.38"/>
</a>
</g>
</g>
<!-- Node18&#45;&gt;Node14 -->
<g id="edge22_Node000018_Node000014" class="edge">
<title>Node18&#45;&gt;Node14</title>
<g id="a_edge22_Node000018_Node000014"><a xlink:title=" ">
<path fill="none" stroke="#63b8ff" d="M444.16,-562.42C467.57,-570.66 496.85,-580.96 521.8,-589.74"/>
<polygon fill="#63b8ff" stroke="#63b8ff" points="520.53,-593 531.12,-593.02 522.85,-586.4 520.53,-593"/>
</a>
</g>
</g>
<!-- Node18&#45;&gt;Node18 -->
<g id="edge21_Node000018_Node000018" class="edge">
<title>Node18&#45;&gt;Node18</title>
<g id="a_edge21_Node000018_Node000018"><a xlink:title=" ">
<path fill="none" stroke="#63b8ff" d="M371.56,-562.21C364.52,-571.32 374.25,-580 400.75,-580 415.24,-580 424.72,-577.41 429.18,-573.56"/>
<polygon fill="#63b8ff" stroke="#63b8ff" points="432.66,-573.93 429.84,-563.72 425.68,-573.46 432.66,-573.93"/>
</a>
</g>
</g>
<!-- Node21 -->
<g id="Node000021" class="node">
<title>Node21</title>
<g id="a_Node000021"><a xlink:href="classSimulation_1_1SimulationUnit.html#a4295618336e99606be4e87b31feb848a" target="_top" xlink:title=" ">
<polygon fill="white" stroke="#666666" points="466.5,-505 335,-505 335,-476 466.5,-476 466.5,-505"/>
<text xml:space="preserve" text-anchor="start" x="343" y="-491.5" font-family="Helvetica,sans-Serif" font-size="10.00">Simulation::SimulationUnit</text>
<text xml:space="preserve" text-anchor="middle" x="400.75" y="-481" font-family="Helvetica,sans-Serif" font-size="10.00">::getkernel_concentration</text>
</a>
</g>
</g>
<!-- Node20&#45;&gt;Node21 -->
<g id="edge25_Node000020_Node000021" class="edge">
<title>Node20&#45;&gt;Node21</title>
<g id="a_edge25_Node000020_Node000021"><a xlink:title=" ">
<path fill="none" stroke="#63b8ff" d="M299.18,-484.42C307.13,-484.9 315.29,-485.4 323.38,-485.89"/>
<polygon fill="#63b8ff" stroke="#63b8ff" points="323.03,-489.37 333.22,-486.48 323.45,-482.38 323.03,-489.37"/>
</a>
</g>
</g>
<!-- Node22 -->
<g id="Node000022" class="node">
<title>Node22</title>
<g id="a_Node000022"><a xlink:href="namespaceSimulation.html#ac368de50ad1e634ea2d7ab3410f429ad" target="_top" xlink:title=" ">
<polygon fill="white" stroke="#666666" points="462.38,-457.75 339.12,-457.75 339.12,-439.25 462.38,-439.25 462.38,-457.75"/>
<text xml:space="preserve" text-anchor="middle" x="400.75" y="-444.25" font-family="Helvetica,sans-Serif" font-size="10.00">Simulation::read_options</text>
</a>
</g>
</g>
<!-- Node20&#45;&gt;Node22 -->
<g id="edge26_Node000020_Node000022" class="edge">
<title>Node20&#45;&gt;Node22</title>
<g id="a_edge26_Node000020_Node000022"><a xlink:title=" ">
<path fill="none" stroke="#63b8ff" d="M299.18,-467.94C312.07,-465.45 325.57,-462.84 338.33,-460.38"/>
<polygon fill="#63b8ff" stroke="#63b8ff" points="338.69,-463.87 347.84,-458.54 337.36,-457 338.69,-463.87"/>
</a>
</g>
</g>
<!-- Node23 -->
<g id="Node000023" class="node">
<title>Node23</title>
<g id="a_Node000023"><a xlink:href="namespaceCommon.html#a7ca16dc3314f89cd1860091731cd7014" target="_top" xlink:title="Wrapper arround get_env to get envariable with fallback to default.">
<polygon fill="white" stroke="#666666" points="633.62,-457.75 518.62,-457.75 518.62,-439.25 633.62,-439.25 633.62,-457.75"/>
<text xml:space="preserve" text-anchor="middle" x="576.12" y="-444.25" font-family="Helvetica,sans-Serif" font-size="10.00">Common::read_env_or</text>
</a>
</g>
</g>
<!-- Node22&#45;&gt;Node23 -->
<g id="edge27_Node000022_Node000023" class="edge">
<title>Node22&#45;&gt;Node23</title>
<g id="a_edge27_Node000022_Node000023"><a xlink:title=" ">
<path fill="none" stroke="#63b8ff" d="M462.39,-448.5C476.86,-448.5 492.4,-448.5 507.18,-448.5"/>
<polygon fill="#63b8ff" stroke="#63b8ff" points="506.79,-452 516.79,-448.5 506.79,-445 506.79,-452"/>
</a>
</g>
</g>
<!-- Node24 -->
<g id="Node000024" class="node">
<title>Node24</title>
<g id="a_Node000024"><a xlink:href="namespaceCommon.html#a7e29bd7117dd8bfc651a1dc215923379" target="_top" xlink:title="Wrapper arround get_env to get optional envariable.">
<polygon fill="white" stroke="#666666" points="803.75,-457.75 702.25,-457.75 702.25,-439.25 803.75,-439.25 803.75,-457.75"/>
<text xml:space="preserve" text-anchor="middle" x="753" y="-444.25" font-family="Helvetica,sans-Serif" font-size="10.00">Common::read_env</text>
</a>
</g>
</g>
<!-- Node23&#45;&gt;Node24 -->
<g id="edge28_Node000023_Node000024" class="edge">
<title>Node23&#45;&gt;Node24</title>
<g id="a_edge28_Node000023_Node000024"><a xlink:title=" ">
<path fill="none" stroke="#63b8ff" d="M633.9,-448.5C651.99,-448.5 672.07,-448.5 690.48,-448.5"/>
<polygon fill="#63b8ff" stroke="#63b8ff" points="690.47,-452 700.47,-448.5 690.47,-445 690.47,-452"/>
</a>
</g>
</g>
<!-- Node33&#45;&gt;Node34 -->
<g id="edge39_Node000033_Node000034" class="edge">
<title>Node33&#45;&gt;Node34</title>
<g id="a_edge39_Node000033_Node000034"><a xlink:title=" ">
<path fill="none" stroke="#63b8ff" d="M291.67,-33.42C304.43,-36.73 318.09,-40.28 331.25,-43.7"/>
<polygon fill="#63b8ff" stroke="#63b8ff" points="330.13,-47.03 340.69,-46.15 331.89,-40.25 330.13,-47.03"/>
</a>
</g>
</g>
<!-- Node35 -->
<g id="Node000035" class="node">
<title>Node35</title>
<g id="a_Node000035"><a xlink:href="classSimulation_1_1SimulationUnit.html#a325bd66b0afbb76176a6f8c607d9902b" target="_top" xlink:title=" ">
<polygon fill="white" stroke="#666666" points="466.5,-29 335,-29 335,0 466.5,0 466.5,-29"/>
<text xml:space="preserve" text-anchor="start" x="343" y="-15.5" font-family="Helvetica,sans-Serif" font-size="10.00">Simulation::SimulationUnit</text>
<text xml:space="preserve" text-anchor="middle" x="400.75" y="-5" font-family="Helvetica,sans-Serif" font-size="10.00">::updateScalarHydro</text>
</a>
</g>
</g>
<!-- Node33&#45;&gt;Node35 -->
<g id="edge40_Node000033_Node000035" class="edge">
<title>Node33&#45;&gt;Node35</title>
<g id="a_edge40_Node000033_Node000035"><a xlink:title=" ">
<path fill="none" stroke="#63b8ff" d="M299.18,-16.93C307.13,-16.74 315.29,-16.54 323.38,-16.35"/>
<polygon fill="#63b8ff" stroke="#63b8ff" points="323.31,-19.85 333.22,-16.11 323.14,-12.85 323.31,-19.85"/>
</a>
</g>
</g>
</g>
</svg>

<g id="navigator" transform="translate(0 0)" fill="#404254">
  <rect fill="#f2f5e9" fill-opacity="0.5" stroke="#606060" stroke-width=".5" x="0" y="0" width="60" height="60"/>
  <use id="zoomplus" xlink:href="#zoomPlus" x="17" y="9" onmousedown="handleZoom(evt,'in')"/>
  <use id="zoomminus" xlink:href="#zoomMin" x="42" y="9" onmousedown="handleZoom(evt,'out')"/>
  <use id="reset" xlink:href="#resetDef" x="30" y="36" onmousedown="handleReset()"/>
   <use id="arrowup" xlink:href="#arrowUp" x="0" y="0" onmousedown="handlePan(0,-1)"/>
  <use id="arrowright" xlink:href="#arrowRight" x="0" y="0" onmousedown="handlePan(1,0)"/>
  <use id="arrowdown" xlink:href="#arrowDown" x="0" y="0" onmousedown="handlePan(0,1)"/>
  <use id="arrowleft" xlink:href="#arrowLeft" x="0" y="0" onmousedown="handlePan(-1,0)"/>
</g>
<svg viewBox="0 0 15 15" width="100%" height="30px" preserveAspectRatio="xMaxYMin meet">
 <g id="arrow_out" transform="scale(0.3 0.3)">
  <a xlink:href="classSimulation_1_1SimulationUnit_a255b9ef06424a104581e8aab290e8281_cgraph_org.svg" target="_base">
   <rect id="button" ry="5" rx="5" y="6" x="6" height="38" width="38"
        fill="#f2f5e9" fill-opacity="0.5" stroke="#606060" stroke-width="1.0"/>
   <path id="arrow"
     d="M 11.500037,31.436501 C 11.940474,20.09759 22.043105,11.32322 32.158766,21.979434 L 37.068811,17.246167 C 37.068811,17.246167 37.088388,32 37.088388,32 L 22.160133,31.978069 C 22.160133,31.978069 26.997745,27.140456 26.997745,27.140456 C 18.528582,18.264221 13.291696,25.230495 11.500037,31.436501 z"
     style="fill:#404040;"/>
  </a>
 </g>
</svg>

<style type='text/css'>
<![CDATA[
[data-mouse-over-selected='false'] { opacity: 0.7; }
[data-mouse-over-selected='true']  { opacity: 1.0; }
]]>
</style>
<script type="application/ecmascript"><![CDATA[
document.addEventListener('DOMContentLoaded', (event) => {
  highlightEdges();
  highlightAdjacentNodes();
});
]]></script>
</svg>
