<?xml version="1.0" encoding="UTF-8" standalone="no"?>
<!DOCTYPE svg PUBLIC "-//W3C//DTD SVG 1.1//EN"
 "http://www.w3.org/Graphics/SVG/1.1/DTD/svg11.dtd">
<!-- Generated by graphviz version 14.0.1 (0)
 -->
<!-- Title: Simulation::SimulationUnit::getCliqData Pages: 1 -->
<svg width="302pt" height="121pt"
 viewBox="0.00 0.00 302.00 121.00" xmlns="http://www.w3.org/2000/svg" xmlns:xlink="http://www.w3.org/1999/xlink">
<g id="graph0" class="graph" transform="scale(1 1) rotate(0) translate(4 116.75)">
<title>Simulation::SimulationUnit::getCliqData</title>
<!-- Node1 -->
<g id="Node000001" class="node">
<title>Node1</title>
<g id="a_Node000001"><a xlink:title=" ">
<polygon fill="#999999" stroke="#666666" points="293.75,-76 162.25,-76 162.25,-47 293.75,-47 293.75,-76"/>
<text xml:space="preserve" text-anchor="start" x="170.25" y="-62.5" font-family="Helvetica,sans-Serif" font-size="10.00">Simulation::SimulationUnit</text>
<text xml:space="preserve" text-anchor="middle" x="228" y="-52" font-family="Helvetica,sans-Serif" font-size="10.00">::getCliqData</text>
</a>
</g>
</g>
<!-- Node2 -->
<g id="Node000002" class="node">
<title>Node2</title>
<g id="a_Node000002"><a xlink:href="classExportHandler.html#a51e7bc3719685192c28df6b57b7a9f37" target="_top" xlink:title="Handles periodic export of simulation data.">
<polygon fill="white" stroke="#666666" points="126.25,-112.75 0,-112.75 0,-94.25 126.25,-94.25 126.25,-112.75"/>
<text xml:space="preserve" text-anchor="middle" x="63.12" y="-99.25" font-family="Helvetica,sans-Serif" font-size="10.00">ExportHandler::operator()</text>
</a>
</g>
</g>
<!-- Node1&#45;&gt;Node2 -->
<g id="edge1_Node000001_Node000002" class="edge">
<title>Node1&#45;&gt;Node2</title>
<g id="a_edge1_Node000001_Node000002"><a xlink:title=" ">
<path fill="none" stroke="#63b8ff" d="M158.14,-79.26C138.71,-84.27 118.3,-89.53 101.48,-93.87"/>
<polygon fill="#63b8ff" stroke="#63b8ff" points="158.84,-82.69 167.65,-76.8 157.09,-75.91 158.84,-82.69"/>
</a>
</g>
</g>
<!-- Node3 -->
<g id="Node000003" class="node">
<title>Node3</title>
<g id="a_Node000003"><a xlink:href="classExportHandler.html#a840c47e423fb45dee277bbc0b3a0092c" target="_top" xlink:title="Prepares and updates the exporter with the current simulation state before/after main loop.">
<polygon fill="white" stroke="#666666" points="112.38,-76 13.88,-76 13.88,-47 112.38,-47 112.38,-76"/>
<text xml:space="preserve" text-anchor="start" x="21.88" y="-62.5" font-family="Helvetica,sans-Serif" font-size="10.00">ExportHandler::pre</text>
<text xml:space="preserve" text-anchor="middle" x="63.12" y="-52" font-family="Helvetica,sans-Serif" font-size="10.00">_post_export</text>
</a>
</g>
</g>
<!-- Node1&#45;&gt;Node3 -->
<g id="edge2_Node000001_Node000003" class="edge">
<title>Node1&#45;&gt;Node3</title>
<g id="a_edge2_Node000001_Node000003"><a xlink:title=" ">
<path fill="none" stroke="#63b8ff" d="M150.83,-61.5C137.85,-61.5 124.69,-61.5 112.68,-61.5"/>
<polygon fill="#63b8ff" stroke="#63b8ff" points="150.65,-65 160.65,-61.5 150.65,-58 150.65,-65"/>
</a>
</g>
</g>
<!-- Node4 -->
<g id="Node000004" class="node">
<title>Node4</title>
<g id="a_Node000004"><a xlink:href="classCore_1_1MainExporter.html#ac2c33b07c7eb59392ad524a9b48b0312" target="_top" xlink:title="Writes final simulation data to the output.">
<polygon fill="white" stroke="#666666" points="113.88,-29 12.38,-29 12.38,0 113.88,0 113.88,-29"/>
<text xml:space="preserve" text-anchor="start" x="20.38" y="-15.5" font-family="Helvetica,sans-Serif" font-size="10.00">Core::MainExporter</text>
<text xml:space="preserve" text-anchor="middle" x="63.12" y="-5" font-family="Helvetica,sans-Serif" font-size="10.00">::write_final</text>
</a>
</g>
</g>
<!-- Node1&#45;&gt;Node4 -->
<g id="edge3_Node000001_Node000004" class="edge">
<title>Node1&#45;&gt;Node4</title>
<g id="a_edge3_Node000001_Node000004"><a xlink:title=" ">
<path fill="none" stroke="#63b8ff" d="M164.69,-43.52C147.99,-38.7 130.15,-33.55 114.21,-28.95"/>
<polygon fill="#63b8ff" stroke="#63b8ff" points="163.43,-46.8 174.01,-46.21 165.37,-40.07 163.43,-46.8"/>
</a>
</g>
</g>
</g>
</svg>
