<?xml version="1.0" encoding="UTF-8" standalone="no"?>
<!DOCTYPE svg PUBLIC "-//W3C//DTD SVG 1.1//EN"
 "http://www.w3.org/Graphics/SVG/1.1/DTD/svg11.dtd">
<!-- Generated by graphviz version 14.0.1 (0)
 -->
<!-- Title: IO::Logger::Logger Pages: 1 -->
<svg width="250pt" height="138pt"
 viewBox="0.00 0.00 250.00 138.00" xmlns="http://www.w3.org/2000/svg" xmlns:xlink="http://www.w3.org/1999/xlink">

<svg id="main" version="1.1" xmlns="http://www.w3.org/2000/svg" xmlns:xlink="http://www.w3.org/1999/xlink" xml:space="preserve">

<style type="text/css"><![CDATA[
.node, .edge {opacity: 0.7;}
.node.selected, .edge.selected {opacity: 1;}
.edge:hover path { stroke: red; }
.edge:hover polygon { stroke: red; fill: red; }
]]></style>
<script type="application/ecmascript" xlink:href="svg.min.js"/>
<svg id="graph" class="graph">
<g id="graph0" class="graph" transform="scale(1 1) rotate(0) translate(4 133.5)">
<title>IO::Logger::Logger</title>
<!-- Node1 -->
<g id="Node000001" class="node">
<title>Node1</title>
<g id="a_Node000001"><a xlink:title=" ">
<polygon fill="#999999" stroke="#666666" points="242,-73.5 145,-73.5 145,-55 242,-55 242,-73.5"/>
<text xml:space="preserve" text-anchor="middle" x="193.5" y="-60" font-family="Helvetica,sans-Serif" font-size="10.00">IO::Logger::Logger</text>
</a>
</g>
</g>
<!-- Node2 -->
<g id="Node000002" class="node">
<title>Node2</title>
<g id="a_Node000002"><a xlink:href="classIO_1_1Logger.html#a65b8328d5ff4d12db12a2c14523fdff3" target="_top" xlink:title=" ">
<polygon fill="white" stroke="#666666" points="103,-129.5 6,-129.5 6,-111 103,-111 103,-129.5"/>
<text xml:space="preserve" text-anchor="middle" x="54.5" y="-116" font-family="Helvetica,sans-Serif" font-size="10.00">IO::Logger::Logger</text>
</a>
</g>
</g>
<!-- Node1&#45;&gt;Node2 -->
<g id="edge1_Node000001_Node000002" class="edge">
<title>Node1&#45;&gt;Node2</title>
<g id="a_edge1_Node000001_Node000002"><a xlink:title=" ">
<path fill="none" stroke="#63b8ff" d="M161.59,-78.62C145.95,-85.72 126.59,-94.24 109,-101.25 100.94,-104.46 92.1,-107.71 83.97,-110.59"/>
<polygon fill="#63b8ff" stroke="#63b8ff" points="162.74,-81.94 170.38,-74.6 159.83,-75.57 162.74,-81.94"/>
</a>
</g>
</g>
<!-- Node3 -->
<g id="Node000003" class="node">
<title>Node3</title>
<g id="a_Node000003"><a xlink:href="classIO_1_1Logger.html#ac626c1a1dd4ed0039a570ad133140816" target="_top" xlink:title=" ">
<polygon fill="white" stroke="#666666" points="103,-92.5 6,-92.5 6,-74 103,-74 103,-92.5"/>
<text xml:space="preserve" text-anchor="middle" x="54.5" y="-79" font-family="Helvetica,sans-Serif" font-size="10.00">IO::Logger::Logger</text>
</a>
</g>
</g>
<!-- Node1&#45;&gt;Node3 -->
<g id="edge2_Node000001_Node000003" class="edge">
<title>Node1&#45;&gt;Node3</title>
<g id="a_edge2_Node000001_Node000003"><a xlink:title=" ">
<path fill="none" stroke="#63b8ff" d="M133.36,-72.45C123.27,-73.85 112.9,-75.29 103.16,-76.64"/>
<polygon fill="#63b8ff" stroke="#63b8ff" points="133.66,-75.94 143.08,-71.1 132.7,-69.01 133.66,-75.94"/>
</a>
</g>
</g>
<!-- Node4 -->
<g id="Node000004" class="node">
<title>Node4</title>
<g id="a_Node000004"><a xlink:href="classIO_1_1Logger.html#a080a54b8e00c81d33b9a31b217b82cf5" target="_top" xlink:title=" ">
<polygon fill="white" stroke="#666666" points="109,-55.5 0,-55.5 0,-37 109,-37 109,-55.5"/>
<text xml:space="preserve" text-anchor="middle" x="54.5" y="-42" font-family="Helvetica,sans-Serif" font-size="10.00">IO::Logger::operator=</text>
</a>
</g>
</g>
<!-- Node1&#45;&gt;Node4 -->
<g id="edge3_Node000001_Node000004" class="edge">
<title>Node1&#45;&gt;Node4</title>
<g id="a_edge3_Node000001_Node000004"><a xlink:title=" ">
<path fill="none" stroke="#63b8ff" d="M133.4,-56.48C125.37,-55.43 117.17,-54.35 109.24,-53.31"/>
<polygon fill="#63b8ff" stroke="#63b8ff" points="132.71,-59.92 143.08,-57.76 133.62,-52.98 132.71,-59.92"/>
</a>
</g>
</g>
<!-- Node5 -->
<g id="Node000005" class="node">
<title>Node5</title>
<g id="a_Node000005"><a xlink:href="classIO_1_1Logger.html#a986fe4844161a9dbe0f8004794a0f02f" target="_top" xlink:title=" ">
<polygon fill="white" stroke="#666666" points="109,-18.5 0,-18.5 0,0 109,0 109,-18.5"/>
<text xml:space="preserve" text-anchor="middle" x="54.5" y="-5" font-family="Helvetica,sans-Serif" font-size="10.00">IO::Logger::operator=</text>
</a>
</g>
</g>
<!-- Node1&#45;&gt;Node5 -->
<g id="edge4_Node000001_Node000005" class="edge">
<title>Node1&#45;&gt;Node5</title>
<g id="a_edge4_Node000001_Node000005"><a xlink:title=" ">
<path fill="none" stroke="#63b8ff" d="M160.91,-50.05C145.37,-43.21 126.31,-35.05 109,-28.25 100.93,-25.08 92.08,-21.84 83.95,-18.96"/>
<polygon fill="#63b8ff" stroke="#63b8ff" points="159.09,-53.07 169.65,-53.92 161.93,-46.67 159.09,-53.07"/>
</a>
</g>
</g>
</g>
</svg>
</svg>

<style type='text/css'>
<![CDATA[
[data-mouse-over-selected='false'] { opacity: 0.7; }
[data-mouse-over-selected='true']  { opacity: 1.0; }
]]>
</style>
<script type="application/ecmascript"><![CDATA[
document.addEventListener('DOMContentLoaded', (event) => {
  highlightEdges();
  highlightAdjacentNodes();
});
]]></script>
</svg>
