<?xml version="1.0" encoding="UTF-8" standalone="no"?>
<!DOCTYPE svg PUBLIC "-//W3C//DTD SVG 1.1//EN"
 "http://www.w3.org/Graphics/SVG/1.1/DTD/svg11.dtd">
<!-- Generated by graphviz version 14.0.1 (0)
 -->
<!-- Title: Simulation::SimulationUnit::init_functor Pages: 1 -->
<svg width="475pt" height="311pt"
 viewBox="0.00 0.00 475.00 311.00" xmlns="http://www.w3.org/2000/svg" xmlns:xlink="http://www.w3.org/1999/xlink">

<svg id="main" version="1.1" xmlns="http://www.w3.org/2000/svg" xmlns:xlink="http://www.w3.org/1999/xlink" xml:space="preserve">

<style type="text/css"><![CDATA[
.node, .edge {opacity: 0.7;}
.node.selected, .edge.selected {opacity: 1;}
.edge:hover path { stroke: red; }
.edge:hover polygon { stroke: red; fill: red; }
]]></style>
<script type="application/ecmascript" xlink:href="svg.min.js"/>
<svg id="graph" class="graph">
<g id="graph0" class="graph" transform="scale(1 1) rotate(0) translate(4 307)">
<title>Simulation::SimulationUnit::init_functor</title>
<!-- Node1 -->
<g id="Node000001" class="node">
<title>Node1</title>
<g id="a_Node000001"><a xlink:title=" ">
<polygon fill="#999999" stroke="#666666" points="131.5,-162 0,-162 0,-133 131.5,-133 131.5,-162"/>
<text xml:space="preserve" text-anchor="start" x="8" y="-148.5" font-family="Helvetica,sans-Serif" font-size="10.00">Simulation::SimulationUnit</text>
<text xml:space="preserve" text-anchor="middle" x="65.75" y="-138" font-family="Helvetica,sans-Serif" font-size="10.00">::init_functor</text>
</a>
</g>
</g>
<!-- Node1&#45;&gt;Node1 -->
<g id="edge2_Node000001_Node000001" class="edge">
<title>Node1&#45;&gt;Node1</title>
<g id="a_edge2_Node000001_Node000001"><a xlink:title=" ">
<path fill="none" stroke="#63b8ff" d="M36.56,-162.21C29.52,-171.32 39.25,-180 65.75,-180 80.24,-180 89.72,-177.41 94.18,-173.56"/>
<polygon fill="#63b8ff" stroke="#63b8ff" points="97.66,-173.93 94.84,-163.72 90.68,-173.46 97.66,-173.93"/>
</a>
</g>
</g>
<!-- Node2 -->
<g id="Node000002" class="node">
<title>Node2</title>
<g id="a_Node000002"><a xlink:href="classSimulation_1_1SimulationUnit.html#a2a1623edb613aafcad4138001ae3ce97" target="_top" xlink:title=" ">
<polygon fill="white" stroke="#666666" points="299,-303 167.5,-303 167.5,-274 299,-274 299,-303"/>
<text xml:space="preserve" text-anchor="start" x="175.5" y="-289.5" font-family="Helvetica,sans-Serif" font-size="10.00">Simulation::SimulationUnit</text>
<text xml:space="preserve" text-anchor="middle" x="233.25" y="-279" font-family="Helvetica,sans-Serif" font-size="10.00">::clear_mc</text>
</a>
</g>
</g>
<!-- Node1&#45;&gt;Node2 -->
<g id="edge1_Node000001_Node000002" class="edge">
<title>Node1&#45;&gt;Node2</title>
<g id="a_edge1_Node000001_Node000002"><a xlink:title=" ">
<path fill="none" stroke="#63b8ff" d="M75.72,-162.37C91.37,-187.14 126,-236.95 167.5,-265.5 168.88,-266.45 170.31,-267.37 171.77,-268.25"/>
<polygon fill="#63b8ff" stroke="#63b8ff" points="170,-271.27 180.48,-272.87 173.29,-265.09 170,-271.27"/>
</a>
</g>
</g>
<!-- Node3 -->
<g id="Node000003" class="node">
<title>Node3</title>
<g id="a_Node000003"><a xlink:href="classSimulation_1_1SimulationUnit.html#aa5b0aeaaa6821ce494fe23bd33ae316a" target="_top" xlink:title=" ">
<polygon fill="white" stroke="#666666" points="299,-256 167.5,-256 167.5,-227 299,-227 299,-256"/>
<text xml:space="preserve" text-anchor="start" x="175.5" y="-242.5" font-family="Helvetica,sans-Serif" font-size="10.00">Simulation::SimulationUnit</text>
<text xml:space="preserve" text-anchor="middle" x="233.25" y="-232" font-family="Helvetica,sans-Serif" font-size="10.00">::init_functors</text>
</a>
</g>
</g>
<!-- Node1&#45;&gt;Node3 -->
<g id="edge3_Node000001_Node000003" class="edge">
<title>Node1&#45;&gt;Node3</title>
<g id="a_edge3_Node000001_Node000003"><a xlink:title=" ">
<path fill="none" stroke="#63b8ff" d="M84.71,-162.45C104.15,-178.07 136.52,-202.47 167.5,-218.5 169.87,-219.73 172.32,-220.91 174.81,-222.06"/>
<polygon fill="#63b8ff" stroke="#63b8ff" points="173.31,-225.22 183.88,-225.94 176.06,-218.79 173.31,-225.22"/>
</a>
</g>
</g>
<!-- Node5 -->
<g id="Node000005" class="node">
<title>Node5</title>
<g id="a_Node000005"><a xlink:href="classSimulation_1_1SimulationUnit.html#a4d9a0037502fc0784690c11c1a593a1f" target="_top" xlink:title=" ">
<polygon fill="white" stroke="#666666" points="299,-209 167.5,-209 167.5,-180 299,-180 299,-209"/>
<text xml:space="preserve" text-anchor="start" x="175.5" y="-195.5" font-family="Helvetica,sans-Serif" font-size="10.00">Simulation::SimulationUnit</text>
<text xml:space="preserve" text-anchor="middle" x="233.25" y="-185" font-family="Helvetica,sans-Serif" font-size="10.00">::post_init_compartments</text>
</a>
</g>
</g>
<!-- Node1&#45;&gt;Node5 -->
<g id="edge5_Node000001_Node000005" class="edge">
<title>Node1&#45;&gt;Node5</title>
<g id="a_edge5_Node000001_Node000005"><a xlink:title=" ">
<path fill="none" stroke="#63b8ff" d="M119.12,-162.37C134.96,-166.87 152.54,-171.86 169.02,-176.54"/>
<polygon fill="#63b8ff" stroke="#63b8ff" points="167.63,-179.79 178.2,-179.15 169.54,-173.05 167.63,-179.79"/>
</a>
</g>
</g>
<!-- Node6 -->
<g id="Node000006" class="node">
<title>Node6</title>
<g id="a_Node000006"><a xlink:href="classSimulation_1_1SimulationUnit.html#aa12b65d19fa7e3eb74152b0252591a4d" target="_top" xlink:title=" ">
<polygon fill="white" stroke="#666666" points="299,-162 167.5,-162 167.5,-133 299,-133 299,-162"/>
<text xml:space="preserve" text-anchor="start" x="175.5" y="-148.5" font-family="Helvetica,sans-Serif" font-size="10.00">Simulation::SimulationUnit</text>
<text xml:space="preserve" text-anchor="middle" x="233.25" y="-138" font-family="Helvetica,sans-Serif" font-size="10.00">::reset</text>
</a>
</g>
</g>
<!-- Node1&#45;&gt;Node6 -->
<g id="edge6_Node000001_Node000006" class="edge">
<title>Node1&#45;&gt;Node6</title>
<g id="a_edge6_Node000001_Node000006"><a xlink:title=" ">
<path fill="none" stroke="#63b8ff" d="M131.68,-147.5C139.63,-147.5 147.79,-147.5 155.88,-147.5"/>
<polygon fill="#63b8ff" stroke="#63b8ff" points="155.72,-151 165.72,-147.5 155.72,-144 155.72,-151"/>
</a>
</g>
</g>
<!-- Node7 -->
<g id="Node000007" class="node">
<title>Node7</title>
<g id="a_Node000007"><a xlink:href="classSimulation_1_1SimulationUnit.html#aeb4997de646b6897f7879e1ad0a0b036" target="_top" xlink:title=" ">
<polygon fill="white" stroke="#666666" points="466.5,-98 335,-98 335,-69 466.5,-69 466.5,-98"/>
<text xml:space="preserve" text-anchor="start" x="343" y="-84.5" font-family="Helvetica,sans-Serif" font-size="10.00">Simulation::SimulationUnit</text>
<text xml:space="preserve" text-anchor="middle" x="400.75" y="-74" font-family="Helvetica,sans-Serif" font-size="10.00">::setVolumes</text>
</a>
</g>
</g>
<!-- Node1&#45;&gt;Node7 -->
<g id="edge7_Node000001_Node000007" class="edge">
<title>Node1&#45;&gt;Node7</title>
<g id="a_edge7_Node000001_Node000007"><a xlink:title=" ">
<path fill="none" stroke="#63b8ff" d="M130.06,-132.54C142.45,-129.76 155.37,-126.95 167.5,-124.5 219.3,-114.02 277.9,-103.69 323.27,-96.02"/>
<polygon fill="#63b8ff" stroke="#63b8ff" points="323.74,-99.49 333.02,-94.38 322.58,-92.58 323.74,-99.49"/>
</a>
</g>
</g>
<!-- Node8 -->
<g id="Node000008" class="node">
<title>Node8</title>
<g id="a_Node000008"><a xlink:href="classSimulation_1_1SimulationUnit.html#ad68b5b710ed62a511e10dd6dd1a920f7" target="_top" xlink:title=" ">
<polygon fill="white" stroke="#666666" points="299,-76 167.5,-76 167.5,-47 299,-47 299,-76"/>
<text xml:space="preserve" text-anchor="start" x="175.5" y="-62.5" font-family="Helvetica,sans-Serif" font-size="10.00">Simulation::SimulationUnit</text>
<text xml:space="preserve" text-anchor="middle" x="233.25" y="-52" font-family="Helvetica,sans-Serif" font-size="10.00">::update</text>
</a>
</g>
</g>
<!-- Node1&#45;&gt;Node8 -->
<g id="edge8_Node000001_Node000008" class="edge">
<title>Node1&#45;&gt;Node8</title>
<g id="a_edge8_Node000001_Node000008"><a xlink:title=" ">
<path fill="none" stroke="#63b8ff" d="M91.65,-132.55C111.83,-120.64 141.13,-103.83 167.5,-90.5 173.78,-87.33 180.47,-84.13 187.09,-81.07"/>
<polygon fill="#63b8ff" stroke="#63b8ff" points="188.32,-84.36 195.98,-77.03 185.43,-77.98 188.32,-84.36"/>
</a>
</g>
</g>
<!-- Node9 -->
<g id="Node000009" class="node">
<title>Node9</title>
<g id="a_Node000009"><a xlink:href="classSimulation_1_1SimulationUnit.html#a6fecb0563822fae0ef26d9f6209d0779" target="_top" xlink:title=" ">
<polygon fill="white" stroke="#666666" points="299,-29 167.5,-29 167.5,0 299,0 299,-29"/>
<text xml:space="preserve" text-anchor="start" x="175.5" y="-15.5" font-family="Helvetica,sans-Serif" font-size="10.00">Simulation::SimulationUnit</text>
<text xml:space="preserve" text-anchor="middle" x="233.25" y="-5" font-family="Helvetica,sans-Serif" font-size="10.00">::update_feed</text>
</a>
</g>
</g>
<!-- Node1&#45;&gt;Node9 -->
<g id="edge10_Node000001_Node000009" class="edge">
<title>Node1&#45;&gt;Node9</title>
<g id="a_edge10_Node000001_Node000009"><a xlink:title=" ">
<path fill="none" stroke="#63b8ff" d="M76.82,-132.74C93.29,-109.64 128.1,-64.87 167.5,-38.5 169.56,-37.12 171.72,-35.8 173.93,-34.55"/>
<polygon fill="#63b8ff" stroke="#63b8ff" points="175.27,-37.8 182.61,-30.16 172.11,-31.56 175.27,-37.8"/>
</a>
</g>
</g>
<!-- Node4 -->
<g id="Node000004" class="node">
<title>Node4</title>
<g id="a_Node000004"><a xlink:href="classSimulation_1_1SimulationUnit.html#a4295618336e99606be4e87b31feb848a" target="_top" xlink:title=" ">
<polygon fill="white" stroke="#666666" points="466.5,-256 335,-256 335,-227 466.5,-227 466.5,-256"/>
<text xml:space="preserve" text-anchor="start" x="343" y="-242.5" font-family="Helvetica,sans-Serif" font-size="10.00">Simulation::SimulationUnit</text>
<text xml:space="preserve" text-anchor="middle" x="400.75" y="-232" font-family="Helvetica,sans-Serif" font-size="10.00">::getkernel_concentration</text>
</a>
</g>
</g>
<!-- Node3&#45;&gt;Node4 -->
<g id="edge4_Node000003_Node000004" class="edge">
<title>Node3&#45;&gt;Node4</title>
<g id="a_edge4_Node000003_Node000004"><a xlink:title=" ">
<path fill="none" stroke="#63b8ff" d="M299.18,-241.5C307.13,-241.5 315.29,-241.5 323.38,-241.5"/>
<polygon fill="#63b8ff" stroke="#63b8ff" points="323.22,-245 333.22,-241.5 323.22,-238 323.22,-245"/>
</a>
</g>
</g>
<!-- Node8&#45;&gt;Node7 -->
<g id="edge9_Node000008_Node000007" class="edge">
<title>Node8&#45;&gt;Node7</title>
<g id="a_edge9_Node000008_Node000007"><a xlink:title=" ">
<path fill="none" stroke="#63b8ff" d="M299.18,-70.13C307.13,-71.19 315.29,-72.27 323.38,-73.35"/>
<polygon fill="#63b8ff" stroke="#63b8ff" points="322.86,-76.81 333.23,-74.66 323.78,-69.87 322.86,-76.81"/>
</a>
</g>
</g>
</g>
</svg>
</svg>

<style type='text/css'>
<![CDATA[
[data-mouse-over-selected='false'] { opacity: 0.7; }
[data-mouse-over-selected='true']  { opacity: 1.0; }
]]>
</style>
<script type="application/ecmascript"><![CDATA[
document.addEventListener('DOMContentLoaded', (event) => {
  highlightEdges();
  highlightAdjacentNodes();
});
]]></script>
</svg>
