<?xml version="1.0" encoding="UTF-8" standalone="no"?>
<!DOCTYPE svg PUBLIC "-//W3C//DTD SVG 1.1//EN"
 "http://www.w3.org/Graphics/SVG/1.1/DTD/svg11.dtd">
<!-- Generated by graphviz version 14.0.1 (0)
 -->
<!-- Title: MC::ParticlesContainer::operator= Pages: 1 -->
<svg width="587pt" height="131pt"
 viewBox="0.00 0.00 587.00 131.00" xmlns="http://www.w3.org/2000/svg" xmlns:xlink="http://www.w3.org/1999/xlink">
<g id="graph0" class="graph" transform="scale(1 1) rotate(0) translate(4 127)">
<title>MC::ParticlesContainer::operator=</title>
<!-- Node1 -->
<g id="Node000001" class="node">
<title>Node1</title>
<g id="a_Node000001"><a xlink:title=" ">
<polygon fill="#999999" stroke="#666666" points="118.75,-76 0,-76 0,-47 118.75,-47 118.75,-76"/>
<text xml:space="preserve" text-anchor="start" x="8" y="-62.5" font-family="Helvetica,sans-Serif" font-size="10.00">MC::ParticlesContainer</text>
<text xml:space="preserve" text-anchor="middle" x="59.38" y="-52" font-family="Helvetica,sans-Serif" font-size="10.00">::operator=</text>
</a>
</g>
</g>
<!-- Node2 -->
<g id="Node000002" class="node">
<title>Node2</title>
<g id="a_Node000002"><a xlink:href="classMC_1_1ParticlesContainer.html#a31cc416a99cf6e26bd4c1cb0a154a5ac" target="_top" xlink:title="Alias for the model used by the container.">
<polygon fill="white" stroke="#666666" points="273.5,-76 154.75,-76 154.75,-47 273.5,-47 273.5,-76"/>
<text xml:space="preserve" text-anchor="start" x="162.75" y="-62.5" font-family="Helvetica,sans-Serif" font-size="10.00">MC::ParticlesContainer</text>
<text xml:space="preserve" text-anchor="middle" x="214.12" y="-52" font-family="Helvetica,sans-Serif" font-size="10.00">::ParticlesContainer</text>
</a>
</g>
</g>
<!-- Node1&#45;&gt;Node2 -->
<g id="edge1_Node000001_Node000002" class="edge">
<title>Node1&#45;&gt;Node2</title>
<g id="a_edge1_Node000001_Node000002"><a xlink:title=" ">
<path fill="none" stroke="#63b8ff" d="M119,-61.5C126.89,-61.5 135.05,-61.5 143.11,-61.5"/>
<polygon fill="#63b8ff" stroke="#63b8ff" points="142.9,-65 152.9,-61.5 142.9,-58 142.9,-65"/>
</a>
</g>
</g>
<!-- Node3 -->
<g id="Node000003" class="node">
<title>Node3</title>
<g id="a_Node000003"><a xlink:href="classMC_1_1ParticlesContainer.html#a57fa06d3225acf04522e3fc2993847f0" target="_top" xlink:title=" ">
<polygon fill="white" stroke="#666666" points="428.25,-123 309.5,-123 309.5,-94 428.25,-94 428.25,-123"/>
<text xml:space="preserve" text-anchor="start" x="317.5" y="-109.5" font-family="Helvetica,sans-Serif" font-size="10.00">MC::ParticlesContainer</text>
<text xml:space="preserve" text-anchor="middle" x="368.88" y="-99" font-family="Helvetica,sans-Serif" font-size="10.00">::__allocate_buffer__</text>
</a>
</g>
</g>
<!-- Node2&#45;&gt;Node3 -->
<g id="edge2_Node000002_Node000003" class="edge">
<title>Node2&#45;&gt;Node3</title>
<g id="a_edge2_Node000002_Node000003"><a xlink:title=" ">
<path fill="none" stroke="#63b8ff" d="M263.46,-76.37C277.8,-80.79 293.69,-85.67 308.64,-90.27"/>
<polygon fill="#63b8ff" stroke="#63b8ff" points="307.3,-93.52 317.89,-93.12 309.36,-86.83 307.3,-93.52"/>
</a>
</g>
</g>
<!-- Node4 -->
<g id="Node000004" class="node">
<title>Node4</title>
<g id="a_Node000004"><a xlink:href="classMC_1_1ParticlesContainer.html#a4fc94ae525191a5d034dce4866986c1e" target="_top" xlink:title=" ">
<polygon fill="white" stroke="#666666" points="428.25,-76 309.5,-76 309.5,-47 428.25,-47 428.25,-76"/>
<text xml:space="preserve" text-anchor="start" x="317.5" y="-62.5" font-family="Helvetica,sans-Serif" font-size="10.00">MC::ParticlesContainer</text>
<text xml:space="preserve" text-anchor="middle" x="368.88" y="-52" font-family="Helvetica,sans-Serif" font-size="10.00">::_resize</text>
</a>
</g>
</g>
<!-- Node2&#45;&gt;Node4 -->
<g id="edge3_Node000002_Node000004" class="edge">
<title>Node2&#45;&gt;Node4</title>
<g id="a_edge3_Node000002_Node000004"><a xlink:title=" ">
<path fill="none" stroke="#63b8ff" d="M273.75,-61.5C281.64,-61.5 289.8,-61.5 297.86,-61.5"/>
<polygon fill="#63b8ff" stroke="#63b8ff" points="297.65,-65 307.65,-61.5 297.65,-58 297.65,-65"/>
</a>
</g>
</g>
<!-- Node5 -->
<g id="Node000005" class="node">
<title>Node5</title>
<g id="a_Node000005"><a xlink:href="classMC_1_1ParticlesContainer.html#a50dddaeafcf0c527adb2a678cee3172e" target="_top" xlink:title=" ">
<polygon fill="white" stroke="#666666" points="428.25,-29 309.5,-29 309.5,0 428.25,0 428.25,-29"/>
<text xml:space="preserve" text-anchor="start" x="317.5" y="-15.5" font-family="Helvetica,sans-Serif" font-size="10.00">MC::ParticlesContainer</text>
<text xml:space="preserve" text-anchor="middle" x="368.88" y="-5" font-family="Helvetica,sans-Serif" font-size="10.00">::load_tuning_constant</text>
</a>
</g>
</g>
<!-- Node2&#45;&gt;Node5 -->
<g id="edge4_Node000002_Node000005" class="edge">
<title>Node2&#45;&gt;Node5</title>
<g id="a_edge4_Node000002_Node000005"><a xlink:title=" ">
<path fill="none" stroke="#63b8ff" d="M263.46,-46.63C277.8,-42.21 293.69,-37.33 308.64,-32.73"/>
<polygon fill="#63b8ff" stroke="#63b8ff" points="309.36,-36.17 317.89,-29.88 307.3,-29.48 309.36,-36.17"/>
</a>
</g>
</g>
<!-- Node6 -->
<g id="Node000006" class="node">
<title>Node6</title>
<g id="a_Node000006"><a xlink:href="namespaceCommon.html#a7ca16dc3314f89cd1860091731cd7014" target="_top" xlink:title="Wrapper arround get_env to get envariable with fallback to default.">
<polygon fill="white" stroke="#666666" points="579.25,-23.75 464.25,-23.75 464.25,-5.25 579.25,-5.25 579.25,-23.75"/>
<text xml:space="preserve" text-anchor="middle" x="521.75" y="-10.25" font-family="Helvetica,sans-Serif" font-size="10.00">Common::read_env_or</text>
</a>
</g>
</g>
<!-- Node5&#45;&gt;Node6 -->
<g id="edge5_Node000005_Node000006" class="edge">
<title>Node5&#45;&gt;Node6</title>
<g id="a_edge5_Node000005_Node000006"><a xlink:title=" ">
<path fill="none" stroke="#63b8ff" d="M428.64,-14.5C436.42,-14.5 444.45,-14.5 452.38,-14.5"/>
<polygon fill="#63b8ff" stroke="#63b8ff" points="452.37,-18 462.37,-14.5 452.37,-11 452.37,-18"/>
</a>
</g>
</g>
</g>
</svg>
