<?xml version="1.0" encoding="UTF-8" standalone="no"?>
<!DOCTYPE svg PUBLIC "-//W3C//DTD SVG 1.1//EN"
 "http://www.w3.org/Graphics/SVG/1.1/DTD/svg11.dtd">
<!-- Generated by graphviz version 14.0.1 (0)
 -->
<!-- Title: MC::ParticlesContainer::_resize Pages: 1 -->
<svg width="983pt" height="344pt"
 viewBox="0.00 0.00 983.00 344.00" xmlns="http://www.w3.org/2000/svg" xmlns:xlink="http://www.w3.org/1999/xlink">
<g id="graph0" class="graph" transform="scale(1 1) rotate(0) translate(4 340.32)">
<title>MC::ParticlesContainer::_resize</title>
<!-- Node1 -->
<g id="Node000001" class="node">
<title>Node1</title>
<g id="a_Node000001"><a xlink:title=" ">
<polygon fill="#999999" stroke="#666666" points="975,-217 856.25,-217 856.25,-188 975,-188 975,-217"/>
<text xml:space="preserve" text-anchor="start" x="864.25" y="-203.5" font-family="Helvetica,sans-Serif" font-size="10.00">MC::ParticlesContainer</text>
<text xml:space="preserve" text-anchor="middle" x="915.62" y="-193" font-family="Helvetica,sans-Serif" font-size="10.00">::_resize</text>
</a>
</g>
</g>
<!-- Node2 -->
<g id="Node000002" class="node">
<title>Node2</title>
<g id="a_Node000002"><a xlink:href="classMC_1_1ParticlesContainer.html#a8e95993fb1287c04427780d6372be565" target="_top" xlink:title="Insert particle buffer into the main container.">
<polygon fill="white" stroke="#666666" points="812.38,-309 693.62,-309 693.62,-280 812.38,-280 812.38,-309"/>
<text xml:space="preserve" text-anchor="start" x="701.62" y="-295.5" font-family="Helvetica,sans-Serif" font-size="10.00">MC::ParticlesContainer</text>
<text xml:space="preserve" text-anchor="middle" x="753" y="-285" font-family="Helvetica,sans-Serif" font-size="10.00">::merge_buffer</text>
</a>
</g>
</g>
<!-- Node1&#45;&gt;Node2 -->
<g id="edge1_Node000001_Node000002" class="edge">
<title>Node1&#45;&gt;Node2</title>
<g id="a_edge1_Node000001_Node000002"><a xlink:title=" ">
<path fill="none" stroke="#63b8ff" d="M878.82,-223.01C848.92,-240.13 806.98,-264.15 780.15,-279.52"/>
<polygon fill="#63b8ff" stroke="#63b8ff" points="880.21,-226.25 887.15,-218.24 876.73,-220.17 880.21,-226.25"/>
</a>
</g>
</g>
<!-- Node6 -->
<g id="Node000006" class="node">
<title>Node6</title>
<g id="a_Node000006"><a xlink:href="classMC_1_1ParticlesContainer.html#a03a343614bef6821b8815902e3185e37" target="_top" xlink:title="Alias for the model used by the container.">
<polygon fill="white" stroke="#666666" points="812.38,-217 693.62,-217 693.62,-188 812.38,-188 812.38,-217"/>
<text xml:space="preserve" text-anchor="start" x="701.62" y="-203.5" font-family="Helvetica,sans-Serif" font-size="10.00">MC::ParticlesContainer</text>
<text xml:space="preserve" text-anchor="middle" x="753" y="-193" font-family="Helvetica,sans-Serif" font-size="10.00">::ParticlesContainer</text>
</a>
</g>
</g>
<!-- Node1&#45;&gt;Node6 -->
<g id="edge5_Node000001_Node000006" class="edge">
<title>Node1&#45;&gt;Node6</title>
<g id="a_edge5_Node000001_Node000006"><a xlink:title=" ">
<path fill="none" stroke="#63b8ff" d="M844.72,-202.5C834.03,-202.5 823.09,-202.5 812.67,-202.5"/>
<polygon fill="#63b8ff" stroke="#63b8ff" points="844.67,-206 854.67,-202.5 844.67,-199 844.67,-206"/>
</a>
</g>
</g>
<!-- Node12 -->
<g id="Node000012" class="node">
<title>Node12</title>
<g id="a_Node000012"><a xlink:href="classMC_1_1ParticlesContainer.html#a57353f823ed074869300f29deb5c50b2" target="_top" xlink:title="Removes inactive particles from the container.">
<polygon fill="white" stroke="#666666" points="820.25,-76 685.75,-76 685.75,-47 820.25,-47 820.25,-76"/>
<text xml:space="preserve" text-anchor="start" x="693.75" y="-62.5" font-family="Helvetica,sans-Serif" font-size="10.00">MC::ParticlesContainer</text>
<text xml:space="preserve" text-anchor="middle" x="753" y="-52" font-family="Helvetica,sans-Serif" font-size="10.00">::remove_inactive_particles</text>
</a>
</g>
</g>
<!-- Node1&#45;&gt;Node12 -->
<g id="edge11_Node000001_Node000012" class="edge">
<title>Node1&#45;&gt;Node12</title>
<g id="a_edge11_Node000001_Node000012"><a xlink:title=" ">
<path fill="none" stroke="#63b8ff" d="M889.47,-180.42C856.31,-151.31 798.9,-100.91 770.66,-76.12"/>
<polygon fill="#63b8ff" stroke="#63b8ff" points="886.78,-182.71 896.6,-186.68 891.4,-177.45 886.78,-182.71"/>
</a>
</g>
</g>
<!-- Node3 -->
<g id="Node000003" class="node">
<title>Node3</title>
<g id="a_Node000003"><a xlink:href="classSimulation_1_1SimulationUnit.html#a96e8f3fbde370c918a3710b0b910cd42" target="_top" xlink:title=" ">
<polygon fill="white" stroke="#666666" points="466.5,-215 335,-215 335,-186 466.5,-186 466.5,-215"/>
<text xml:space="preserve" text-anchor="start" x="343" y="-201.5" font-family="Helvetica,sans-Serif" font-size="10.00">Simulation::SimulationUnit</text>
<text xml:space="preserve" text-anchor="middle" x="400.75" y="-191" font-family="Helvetica,sans-Serif" font-size="10.00">::post_cycle</text>
</a>
</g>
</g>
<!-- Node2&#45;&gt;Node3 -->
<g id="edge2_Node000002_Node000003" class="edge">
<title>Node2&#45;&gt;Node3</title>
<g id="a_edge2_Node000002_Node000003"><a xlink:title=" ">
<path fill="none" stroke="#63b8ff" d="M705.64,-313.15C653.66,-331 568.1,-351.08 502.5,-320.5 455.16,-298.43 422.16,-241.97 408.62,-215.11"/>
<polygon fill="#63b8ff" stroke="#63b8ff" points="706.52,-316.55 714.77,-309.9 704.18,-309.95 706.52,-316.55"/>
</a>
</g>
</g>
<!-- Node4 -->
<g id="Node000004" class="node">
<title>Node4</title>
<g id="a_Node000004"><a xlink:href="classSimulation_1_1SimulationUnit.html#a7b49fd171d4de8aa3949738da6c3810f" target="_top" xlink:title=" ">
<polygon fill="white" stroke="#666666" points="299,-215 167.5,-215 167.5,-186 299,-186 299,-215"/>
<text xml:space="preserve" text-anchor="start" x="175.5" y="-201.5" font-family="Helvetica,sans-Serif" font-size="10.00">Simulation::SimulationUnit</text>
<text xml:space="preserve" text-anchor="middle" x="233.25" y="-191" font-family="Helvetica,sans-Serif" font-size="10.00">::cycleProcess</text>
</a>
</g>
</g>
<!-- Node3&#45;&gt;Node4 -->
<g id="edge3_Node000003_Node000004" class="edge">
<title>Node3&#45;&gt;Node4</title>
<g id="a_edge3_Node000003_Node000004"><a xlink:title=" ">
<path fill="none" stroke="#63b8ff" d="M323.47,-200.5C315.38,-200.5 307.21,-200.5 299.27,-200.5"/>
<polygon fill="#63b8ff" stroke="#63b8ff" points="323.3,-204 333.3,-200.5 323.3,-197 323.3,-204"/>
</a>
</g>
</g>
<!-- Node5 -->
<g id="Node000005" class="node">
<title>Node5</title>
<g id="a_Node000005"><a xlink:href="classSimulation_1_1SimulationUnit.html#adc096ee7d35524a8107a3390daa55a1a" target="_top" xlink:title=" ">
<polygon fill="white" stroke="#666666" points="131.5,-215 0,-215 0,-186 131.5,-186 131.5,-215"/>
<text xml:space="preserve" text-anchor="start" x="8" y="-201.5" font-family="Helvetica,sans-Serif" font-size="10.00">Simulation::SimulationUnit</text>
<text xml:space="preserve" text-anchor="middle" x="65.75" y="-191" font-family="Helvetica,sans-Serif" font-size="10.00">::getState</text>
</a>
</g>
</g>
<!-- Node4&#45;&gt;Node5 -->
<g id="edge4_Node000004_Node000005" class="edge">
<title>Node4&#45;&gt;Node5</title>
<g id="a_edge4_Node000004_Node000005"><a xlink:title=" ">
<path fill="none" stroke="#63b8ff" d="M155.97,-200.5C147.88,-200.5 139.71,-200.5 131.77,-200.5"/>
<polygon fill="#63b8ff" stroke="#63b8ff" points="155.8,-204 165.8,-200.5 155.8,-197 155.8,-204"/>
</a>
</g>
</g>
<!-- Node7 -->
<g id="Node000007" class="node">
<title>Node7</title>
<g id="a_Node000007"><a xlink:href="classMC_1_1ParticlesContainer.html#ad499de971fbe1a2cf3e1adbe2bb151d6" target="_top" xlink:title=" ">
<polygon fill="white" stroke="#666666" points="635.5,-311 516.75,-311 516.75,-282 635.5,-282 635.5,-311"/>
<text xml:space="preserve" text-anchor="start" x="524.75" y="-297.5" font-family="Helvetica,sans-Serif" font-size="10.00">MC::ParticlesContainer</text>
<text xml:space="preserve" text-anchor="middle" x="576.12" y="-287" font-family="Helvetica,sans-Serif" font-size="10.00">::operator=</text>
</a>
</g>
</g>
<!-- Node6&#45;&gt;Node7 -->
<g id="edge6_Node000006_Node000007" class="edge">
<title>Node6&#45;&gt;Node7</title>
<g id="a_edge6_Node000006_Node000007"><a xlink:title=" ">
<path fill="none" stroke="#63b8ff" d="M725.17,-224.49C705.31,-239.9 677.09,-260.06 649.75,-273.5 643.7,-276.48 637.17,-279.18 630.61,-281.6"/>
<polygon fill="#63b8ff" stroke="#63b8ff" points="727.33,-227.24 733.01,-218.3 722.99,-221.75 727.33,-227.24"/>
</a>
</g>
</g>
<!-- Node8 -->
<g id="Node000008" class="node">
<title>Node8</title>
<g id="a_Node000008"><a xlink:href="classMC_1_1ParticlesContainer.html#a5d93b87f5a6e18c449e0ed62333e9d6e" target="_top" xlink:title=" ">
<polygon fill="white" stroke="#666666" points="635.5,-264 516.75,-264 516.75,-235 635.5,-235 635.5,-264"/>
<text xml:space="preserve" text-anchor="start" x="524.75" y="-250.5" font-family="Helvetica,sans-Serif" font-size="10.00">MC::ParticlesContainer</text>
<text xml:space="preserve" text-anchor="middle" x="576.12" y="-240" font-family="Helvetica,sans-Serif" font-size="10.00">::operator=</text>
</a>
</g>
</g>
<!-- Node6&#45;&gt;Node8 -->
<g id="edge7_Node000006_Node000008" class="edge">
<title>Node6&#45;&gt;Node8</title>
<g id="a_edge7_Node000006_Node000008"><a xlink:title=" ">
<path fill="none" stroke="#63b8ff" d="M685.93,-220.26C668.39,-224.97 649.62,-230.02 632.7,-234.56"/>
<polygon fill="#63b8ff" stroke="#63b8ff" points="686.46,-223.74 695.21,-217.76 684.64,-216.98 686.46,-223.74"/>
</a>
</g>
</g>
<!-- Node9 -->
<g id="Node000009" class="node">
<title>Node9</title>
<g id="a_Node000009"><a xlink:href="classMC_1_1ParticlesContainer.html#a5b4a66b67d3b4942557b22538958480a" target="_top" xlink:title=" ">
<polygon fill="white" stroke="#666666" points="635.5,-217 516.75,-217 516.75,-188 635.5,-188 635.5,-217"/>
<text xml:space="preserve" text-anchor="start" x="524.75" y="-203.5" font-family="Helvetica,sans-Serif" font-size="10.00">MC::ParticlesContainer</text>
<text xml:space="preserve" text-anchor="middle" x="576.12" y="-193" font-family="Helvetica,sans-Serif" font-size="10.00">::ParticlesContainer</text>
</a>
</g>
</g>
<!-- Node6&#45;&gt;Node9 -->
<g id="edge8_Node000006_Node000009" class="edge">
<title>Node6&#45;&gt;Node9</title>
<g id="a_edge8_Node000006_Node000009"><a xlink:title=" ">
<path fill="none" stroke="#63b8ff" d="M681.83,-202.5C666.63,-202.5 650.7,-202.5 635.99,-202.5"/>
<polygon fill="#63b8ff" stroke="#63b8ff" points="681.77,-206 691.77,-202.5 681.77,-199 681.77,-206"/>
</a>
</g>
</g>
<!-- Node10 -->
<g id="Node000010" class="node">
<title>Node10</title>
<g id="a_Node000010"><a xlink:href="classMC_1_1ParticlesContainer.html#adacba063d362632ca0899bae750b628a" target="_top" xlink:title="Default copy and move constructors and assignment operators.">
<polygon fill="white" stroke="#666666" points="635.5,-170 516.75,-170 516.75,-141 635.5,-141 635.5,-170"/>
<text xml:space="preserve" text-anchor="start" x="524.75" y="-156.5" font-family="Helvetica,sans-Serif" font-size="10.00">MC::ParticlesContainer</text>
<text xml:space="preserve" text-anchor="middle" x="576.12" y="-146" font-family="Helvetica,sans-Serif" font-size="10.00">::ParticlesContainer</text>
</a>
</g>
</g>
<!-- Node6&#45;&gt;Node10 -->
<g id="edge9_Node000006_Node000010" class="edge">
<title>Node6&#45;&gt;Node10</title>
<g id="a_edge9_Node000006_Node000010"><a xlink:title=" ">
<path fill="none" stroke="#63b8ff" d="M685.93,-184.74C668.39,-180.03 649.62,-174.98 632.7,-170.44"/>
<polygon fill="#63b8ff" stroke="#63b8ff" points="684.64,-188.02 695.21,-187.24 686.46,-181.26 684.64,-188.02"/>
</a>
</g>
</g>
<!-- Node11 -->
<g id="Node000011" class="node">
<title>Node11</title>
<g id="a_Node000011"><a xlink:href="classMC_1_1ParticlesContainer.html#ae0cd8cf83c2728db495167ec2f10d80a" target="_top" xlink:title=" ">
<polygon fill="white" stroke="#666666" points="635.5,-123 516.75,-123 516.75,-94 635.5,-94 635.5,-123"/>
<text xml:space="preserve" text-anchor="start" x="524.75" y="-109.5" font-family="Helvetica,sans-Serif" font-size="10.00">MC::ParticlesContainer</text>
<text xml:space="preserve" text-anchor="middle" x="576.12" y="-99" font-family="Helvetica,sans-Serif" font-size="10.00">::ParticlesContainer</text>
</a>
</g>
</g>
<!-- Node6&#45;&gt;Node11 -->
<g id="edge10_Node000006_Node000011" class="edge">
<title>Node6&#45;&gt;Node11</title>
<g id="a_edge10_Node000006_Node000011"><a xlink:title=" ">
<path fill="none" stroke="#63b8ff" d="M724.7,-180.66C704.82,-165.57 676.76,-145.87 649.75,-132.5 642.97,-129.14 635.6,-126.09 628.26,-123.37"/>
<polygon fill="#63b8ff" stroke="#63b8ff" points="722.51,-183.39 732.57,-186.73 726.79,-177.85 722.51,-183.39"/>
</a>
</g>
</g>
<!-- Node13 -->
<g id="Node000013" class="node">
<title>Node13</title>
<g id="a_Node000013"><a xlink:href="classMC_1_1ParticlesContainer.html#a25d64f06c6f66817bc15bac225369a63" target="_top" xlink:title="Clean all the non&#45;idle particle even if number smaller than threshold.">
<polygon fill="white" stroke="#666666" points="635.5,-29 516.75,-29 516.75,0 635.5,0 635.5,-29"/>
<text xml:space="preserve" text-anchor="start" x="524.75" y="-15.5" font-family="Helvetica,sans-Serif" font-size="10.00">MC::ParticlesContainer</text>
<text xml:space="preserve" text-anchor="middle" x="576.12" y="-5" font-family="Helvetica,sans-Serif" font-size="10.00">::force_remove_dead</text>
</a>
</g>
</g>
<!-- Node12&#45;&gt;Node13 -->
<g id="edge12_Node000012_Node000013" class="edge">
<title>Node12&#45;&gt;Node13</title>
<g id="a_edge12_Node000012_Node000013"><a xlink:title=" ">
<path fill="none" stroke="#63b8ff" d="M685.93,-43.74C668.39,-39.03 649.62,-33.98 632.7,-29.44"/>
<polygon fill="#63b8ff" stroke="#63b8ff" points="684.64,-47.02 695.21,-46.24 686.46,-40.26 684.64,-47.02"/>
</a>
</g>
</g>
<!-- Node15 -->
<g id="Node000015" class="node">
<title>Node15</title>
<g id="a_Node000015"><a xlink:href="classMC_1_1ParticlesContainer.html#a0047f4c96b02ae4aeb9ebd8963129687" target="_top" xlink:title="Update the number of non&#45;idle particle and remove if total number exceeds threshold May call : remove...">
<polygon fill="white" stroke="#666666" points="649.75,-76 502.5,-76 502.5,-47 649.75,-47 649.75,-76"/>
<text xml:space="preserve" text-anchor="start" x="510.5" y="-62.5" font-family="Helvetica,sans-Serif" font-size="10.00">MC::ParticlesContainer</text>
<text xml:space="preserve" text-anchor="middle" x="576.12" y="-52" font-family="Helvetica,sans-Serif" font-size="10.00">::update_and_remove_inactive</text>
</a>
</g>
</g>
<!-- Node12&#45;&gt;Node15 -->
<g id="edge14_Node000012_Node000015" class="edge">
<title>Node12&#45;&gt;Node15</title>
<g id="a_edge14_Node000012_Node000015"><a xlink:title=" ">
<path fill="none" stroke="#63b8ff" d="M674.13,-61.5C666.09,-61.5 657.95,-61.5 649.97,-61.5"/>
<polygon fill="#63b8ff" stroke="#63b8ff" points="673.87,-65 683.87,-61.5 673.87,-58 673.87,-65"/>
</a>
</g>
</g>
<!-- Node14 -->
<g id="Node000014" class="node">
<title>Node14</title>
<g id="a_Node000014"><a xlink:href="namespacePostProcessing.html#a5c1775fa34193199d9c989e5740e2f84" target="_top" xlink:title=" ">
<polygon fill="white" stroke="#666666" points="453,-29 348.5,-29 348.5,0 453,0 453,-29"/>
<text xml:space="preserve" text-anchor="start" x="356.5" y="-15.5" font-family="Helvetica,sans-Serif" font-size="10.00">PostProcessing::get</text>
<text xml:space="preserve" text-anchor="middle" x="400.75" y="-5" font-family="Helvetica,sans-Serif" font-size="10.00">_properties</text>
</a>
</g>
</g>
<!-- Node13&#45;&gt;Node14 -->
<g id="edge13_Node000013_Node000014" class="edge">
<title>Node13&#45;&gt;Node14</title>
<g id="a_edge13_Node000013_Node000014"><a xlink:title=" ">
<path fill="none" stroke="#63b8ff" d="M505.22,-14.5C487.91,-14.5 469.68,-14.5 453.42,-14.5"/>
<polygon fill="#63b8ff" stroke="#63b8ff" points="504.91,-18 514.91,-14.5 504.91,-11 504.91,-18"/>
</a>
</g>
</g>
<!-- Node15&#45;&gt;Node3 -->
<g id="edge15_Node000015_Node000003" class="edge">
<title>Node15&#45;&gt;Node3</title>
<g id="a_edge15_Node000015_Node000003"><a xlink:title=" ">
<path fill="none" stroke="#63b8ff" d="M509.08,-81.52C506.82,-82.77 504.61,-84.1 502.5,-85.5 461.35,-112.77 426.81,-161.12 411,-185.52"/>
<polygon fill="#63b8ff" stroke="#63b8ff" points="510.56,-84.7 517.99,-77.14 507.47,-78.41 510.56,-84.7"/>
</a>
</g>
</g>
</g>
</svg>
