<?xml version="1.0" encoding="UTF-8" standalone="no"?>
<!DOCTYPE svg PUBLIC "-//W3C//DTD SVG 1.1//EN"
 "http://www.w3.org/Graphics/SVG/1.1/DTD/svg11.dtd">
<!-- Generated by graphviz version 14.0.1 (0)
 -->
<!-- Title: Core::GlobalInitialiser::check_steps Pages: 1 -->
<svg width="565pt" height="288pt"
 viewBox="0.00 0.00 565.00 288.00" xmlns="http://www.w3.org/2000/svg" xmlns:xlink="http://www.w3.org/1999/xlink">
<g id="graph0" class="graph" transform="scale(1 1) rotate(0) translate(4 284)">
<title>Core::GlobalInitialiser::check_steps</title>
<!-- Node1 -->
<g id="Node000001" class="node">
<title>Node1</title>
<g id="a_Node000001"><a xlink:title="Checks the validity of specified initialization steps.">
<polygon fill="#999999" stroke="#666666" points="556.75,-162 447,-162 447,-133 556.75,-133 556.75,-162"/>
<text xml:space="preserve" text-anchor="start" x="455" y="-148.5" font-family="Helvetica,sans-Serif" font-size="10.00">Core::GlobalInitialiser</text>
<text xml:space="preserve" text-anchor="middle" x="501.88" y="-138" font-family="Helvetica,sans-Serif" font-size="10.00">::check_steps</text>
</a>
</g>
</g>
<!-- Node2 -->
<g id="Node000002" class="node">
<title>Node2</title>
<g id="a_Node000002"><a xlink:href="classCore_1_1GlobalInitialiser.html#aefbbc9e413134e0e080df2218316fe63" target="_top" xlink:title="Initializes a simulation feed.">
<polygon fill="white" stroke="#666666" points="265.25,-280 155.5,-280 155.5,-251 265.25,-251 265.25,-280"/>
<text xml:space="preserve" text-anchor="start" x="163.5" y="-266.5" font-family="Helvetica,sans-Serif" font-size="10.00">Core::GlobalInitialiser</text>
<text xml:space="preserve" text-anchor="middle" x="210.38" y="-256" font-family="Helvetica,sans-Serif" font-size="10.00">::init_feed</text>
</a>
</g>
</g>
<!-- Node1&#45;&gt;Node2 -->
<g id="edge1_Node000001_Node000002" class="edge">
<title>Node1&#45;&gt;Node2</title>
<g id="a_edge1_Node000001_Node000002"><a xlink:title=" ">
<path fill="none" stroke="#63b8ff" d="M488.74,-172.32C474.3,-198.77 447.46,-239.3 411,-257.5 365.84,-280.04 307.53,-279.54 265.61,-274.91"/>
<polygon fill="#63b8ff" stroke="#63b8ff" points="491.76,-174.1 493.3,-163.62 485.56,-170.85 491.76,-174.1"/>
</a>
</g>
</g>
<!-- Node4 -->
<g id="Node000004" class="node">
<title>Node4</title>
<g id="a_Node000004"><a xlink:href="classCore_1_1GlobalInitialiser.html#a9b38d15538796d9cc115211890a6c081" target="_top" xlink:title="Initializes a Monte Carlo unit.">
<polygon fill="white" stroke="#666666" points="411,-248 301.25,-248 301.25,-219 411,-219 411,-248"/>
<text xml:space="preserve" text-anchor="start" x="309.25" y="-234.5" font-family="Helvetica,sans-Serif" font-size="10.00">Core::GlobalInitialiser</text>
<text xml:space="preserve" text-anchor="middle" x="356.12" y="-224" font-family="Helvetica,sans-Serif" font-size="10.00">::init_monte_carlo</text>
</a>
</g>
</g>
<!-- Node1&#45;&gt;Node4 -->
<g id="edge3_Node000001_Node000004" class="edge">
<title>Node1&#45;&gt;Node4</title>
<g id="a_edge3_Node000001_Node000004"><a xlink:title=" ">
<path fill="none" stroke="#63b8ff" d="M468.79,-168.63C451.79,-179.62 430.46,-193.11 411,-204.5 402.93,-209.22 394.05,-214.12 385.86,-218.52"/>
<polygon fill="#63b8ff" stroke="#63b8ff" points="470.51,-171.69 476.98,-163.31 466.69,-165.82 470.51,-171.69"/>
</a>
</g>
</g>
<!-- Node5 -->
<g id="Node000005" class="node">
<title>Node5</title>
<g id="a_Node000005"><a xlink:href="classCore_1_1GlobalInitialiser.html#a00d0e7a7d549bf06886dfc3ba9de3e3d" target="_top" xlink:title="Initializes a simulation unit.">
<polygon fill="white" stroke="#666666" points="265.25,-195 155.5,-195 155.5,-166 265.25,-166 265.25,-195"/>
<text xml:space="preserve" text-anchor="start" x="163.5" y="-181.5" font-family="Helvetica,sans-Serif" font-size="10.00">Core::GlobalInitialiser</text>
<text xml:space="preserve" text-anchor="middle" x="210.38" y="-171" font-family="Helvetica,sans-Serif" font-size="10.00">::init_simulation</text>
</a>
</g>
</g>
<!-- Node1&#45;&gt;Node5 -->
<g id="edge11_Node000001_Node000005" class="edge">
<title>Node1&#45;&gt;Node5</title>
<g id="a_edge11_Node000001_Node000005"><a xlink:title=" ">
<path fill="none" stroke="#63b8ff" d="M441.87,-165.19C431.66,-167.7 421.08,-169.95 411,-171.5 362.14,-179.03 305.82,-180.97 265.49,-181.2"/>
<polygon fill="#63b8ff" stroke="#63b8ff" points="442.49,-168.65 451.31,-162.77 440.75,-161.87 442.49,-168.65"/>
</a>
</g>
</g>
<!-- Node6 -->
<g id="Node000006" class="node">
<title>Node6</title>
<g id="a_Node000006"><a xlink:href="classCore_1_1GlobalInitialiser.html#a8b048fcce504154ce95e4b5a92689d5e" target="_top" xlink:title=" ">
<polygon fill="white" stroke="#666666" points="265.25,-129 155.5,-129 155.5,-100 265.25,-100 265.25,-129"/>
<text xml:space="preserve" text-anchor="start" x="163.5" y="-115.5" font-family="Helvetica,sans-Serif" font-size="10.00">Core::GlobalInitialiser</text>
<text xml:space="preserve" text-anchor="middle" x="210.38" y="-105" font-family="Helvetica,sans-Serif" font-size="10.00">::init_mtr_model</text>
</a>
</g>
</g>
<!-- Node1&#45;&gt;Node6 -->
<g id="edge7_Node000001_Node000006" class="edge">
<title>Node1&#45;&gt;Node6</title>
<g id="a_edge7_Node000001_Node000006"><a xlink:title=" ">
<path fill="none" stroke="#63b8ff" d="M438.78,-129.89C429.53,-127.77 420.06,-125.87 411,-124.5 362.11,-117.1 305.79,-114.84 265.47,-114.29"/>
<polygon fill="#63b8ff" stroke="#63b8ff" points="437.9,-133.28 448.44,-132.22 439.53,-126.47 437.9,-133.28"/>
</a>
</g>
</g>
<!-- Node7 -->
<g id="Node000007" class="node">
<title>Node7</title>
<g id="a_Node000007"><a xlink:href="classCore_1_1GlobalInitialiser.html#aa84a61b25f475380b38306232e25aff6" target="_top" xlink:title="Initializes a scalar component of the simulation.">
<polygon fill="white" stroke="#666666" points="411,-162 301.25,-162 301.25,-133 411,-133 411,-162"/>
<text xml:space="preserve" text-anchor="start" x="309.25" y="-148.5" font-family="Helvetica,sans-Serif" font-size="10.00">Core::GlobalInitialiser</text>
<text xml:space="preserve" text-anchor="middle" x="356.12" y="-138" font-family="Helvetica,sans-Serif" font-size="10.00">::init_scalar</text>
</a>
</g>
</g>
<!-- Node1&#45;&gt;Node7 -->
<g id="edge9_Node000001_Node000007" class="edge">
<title>Node1&#45;&gt;Node7</title>
<g id="a_edge9_Node000001_Node000007"><a xlink:title=" ">
<path fill="none" stroke="#63b8ff" d="M435.22,-147.5C427.14,-147.5 418.95,-147.5 411.07,-147.5"/>
<polygon fill="#63b8ff" stroke="#63b8ff" points="435.02,-151 445.02,-147.5 435.02,-144 435.02,-151"/>
</a>
</g>
</g>
<!-- Node8 -->
<g id="Node000008" class="node">
<title>Node8</title>
<g id="a_Node000008"><a xlink:href="classCore_1_1GlobalInitialiser.html#afa96dd38c29284ca8a70bdb67017c70b" target="_top" xlink:title="Initializes a simulation unit with specified parameters.">
<polygon fill="white" stroke="#666666" points="411,-76 301.25,-76 301.25,-47 411,-47 411,-76"/>
<text xml:space="preserve" text-anchor="start" x="309.25" y="-62.5" font-family="Helvetica,sans-Serif" font-size="10.00">Core::GlobalInitialiser</text>
<text xml:space="preserve" text-anchor="middle" x="356.12" y="-52" font-family="Helvetica,sans-Serif" font-size="10.00">::init_simulation</text>
</a>
</g>
</g>
<!-- Node1&#45;&gt;Node8 -->
<g id="edge12_Node000001_Node000008" class="edge">
<title>Node1&#45;&gt;Node8</title>
<g id="a_edge12_Node000001_Node000008"><a xlink:title=" ">
<path fill="none" stroke="#63b8ff" d="M468.79,-126.37C451.79,-115.38 430.46,-101.89 411,-90.5 402.93,-85.78 394.05,-80.88 385.86,-76.48"/>
<polygon fill="#63b8ff" stroke="#63b8ff" points="466.69,-129.18 476.98,-131.69 470.51,-123.31 466.69,-129.18"/>
</a>
</g>
</g>
<!-- Node9 -->
<g id="Node000009" class="node">
<title>Node9</title>
<g id="a_Node000009"><a xlink:href="classCore_1_1GlobalInitialiser.html#a97eff5566ced6ba6449eb532f0babadc" target="_top" xlink:title="Initializes a flow iterator.">
<polygon fill="white" stroke="#666666" points="411,-29 301.25,-29 301.25,0 411,0 411,-29"/>
<text xml:space="preserve" text-anchor="start" x="309.25" y="-15.5" font-family="Helvetica,sans-Serif" font-size="10.00">Core::GlobalInitialiser</text>
<text xml:space="preserve" text-anchor="middle" x="356.12" y="-5" font-family="Helvetica,sans-Serif" font-size="10.00">::init_state</text>
</a>
</g>
</g>
<!-- Node1&#45;&gt;Node9 -->
<g id="edge13_Node000001_Node000009" class="edge">
<title>Node1&#45;&gt;Node9</title>
<g id="a_edge13_Node000001_Node000009"><a xlink:title=" ">
<path fill="none" stroke="#63b8ff" d="M485.65,-123.09C469.58,-98.95 442.26,-62.27 411,-38.5 406.6,-35.15 401.66,-32.15 396.6,-29.5"/>
<polygon fill="#63b8ff" stroke="#63b8ff" points="482.62,-124.85 491.01,-131.32 488.49,-121.03 482.62,-124.85"/>
</a>
</g>
</g>
<!-- Node3 -->
<g id="Node000003" class="node">
<title>Node3</title>
<g id="a_Node000003"><a xlink:href="structApi_1_1SimulationInstance.html#ae9bdd54076170f50eadcb7966d64c19d" target="_top" xlink:title="Apply the simulation configuration and prepare for execution.">
<polygon fill="white" stroke="#666666" points="119.5,-152 0,-152 0,-123 119.5,-123 119.5,-152"/>
<text xml:space="preserve" text-anchor="start" x="8" y="-138.5" font-family="Helvetica,sans-Serif" font-size="10.00">Api::SimulationInstance</text>
<text xml:space="preserve" text-anchor="middle" x="59.75" y="-128" font-family="Helvetica,sans-Serif" font-size="10.00">::apply</text>
</a>
</g>
</g>
<!-- Node2&#45;&gt;Node3 -->
<g id="edge2_Node000002_Node000003" class="edge">
<title>Node2&#45;&gt;Node3</title>
<g id="a_edge2_Node000002_Node000003"><a xlink:title=" ">
<path fill="none" stroke="#63b8ff" d="M181.19,-243.51C172.84,-236.85 163.73,-229.47 155.5,-222.5 127.16,-198.51 95.21,-169.4 76.6,-152.22"/>
<polygon fill="#63b8ff" stroke="#63b8ff" points="179.01,-246.24 189.02,-249.7 183.35,-240.75 179.01,-246.24"/>
</a>
</g>
</g>
<!-- Node4&#45;&gt;Node5 -->
<g id="edge4_Node000004_Node000005" class="edge">
<title>Node4&#45;&gt;Node5</title>
<g id="a_edge4_Node000004_Node000005"><a xlink:title=" ">
<path fill="none" stroke="#63b8ff" d="M304.29,-214.76C287.14,-208.44 268.25,-201.47 251.99,-195.48"/>
<polygon fill="#63b8ff" stroke="#63b8ff" points="302.69,-217.9 313.28,-218.07 305.11,-211.33 302.69,-217.9"/>
</a>
</g>
</g>
<!-- Node5&#45;&gt;Node3 -->
<g id="edge5_Node000005_Node000003" class="edge">
<title>Node5&#45;&gt;Node3</title>
<g id="a_edge5_Node000005_Node000003"><a xlink:title=" ">
<path fill="none" stroke="#63b8ff" d="M146.96,-162.44C135.47,-159.12 123.6,-155.68 112.48,-152.47"/>
<polygon fill="#63b8ff" stroke="#63b8ff" points="145.78,-165.74 156.36,-165.16 147.72,-159.02 145.78,-165.74"/>
</a>
</g>
</g>
<!-- Node5&#45;&gt;Node5 -->
<g id="edge6_Node000005_Node000005" class="edge">
<title>Node5&#45;&gt;Node5</title>
<g id="a_edge6_Node000005_Node000005"><a xlink:title=" ">
<path fill="none" stroke="#63b8ff" d="M235.11,-206.56C231.23,-210.41 222.98,-213 210.38,-213 187.32,-213 178.85,-204.32 184.98,-195.21"/>
<polygon fill="#63b8ff" stroke="#63b8ff" points="238.6,-206.9 235.69,-196.72 231.61,-206.5 238.6,-206.9"/>
</a>
</g>
</g>
<!-- Node6&#45;&gt;Node3 -->
<g id="edge8_Node000006_Node000003" class="edge">
<title>Node6&#45;&gt;Node3</title>
<g id="a_edge8_Node000006_Node000003"><a xlink:title=" ">
<path fill="none" stroke="#63b8ff" d="M144.04,-124.61C135.97,-125.86 127.77,-127.13 119.81,-128.36"/>
<polygon fill="#63b8ff" stroke="#63b8ff" points="144.45,-128.09 153.8,-123.1 143.38,-121.17 144.45,-128.09"/>
</a>
</g>
</g>
<!-- Node7&#45;&gt;Node5 -->
<g id="edge10_Node000007_Node000005" class="edge">
<title>Node7&#45;&gt;Node5</title>
<g id="a_edge10_Node000007_Node000005"><a xlink:title=" ">
<path fill="none" stroke="#63b8ff" d="M289.75,-162.51C281.58,-164.38 273.29,-166.29 265.32,-168.12"/>
<polygon fill="#63b8ff" stroke="#63b8ff" points="290.34,-165.96 299.3,-160.31 288.77,-159.14 290.34,-165.96"/>
</a>
</g>
</g>
<!-- Node10 -->
<g id="Node000010" class="node">
<title>Node10</title>
<g id="a_Node000010"><a xlink:href="classCore_1_1GlobalInitialiser.html#a0dc2da93c4202706b5f37453f355145c" target="_top" xlink:title="Initializes a transitioner with the provided flow iterator.">
<polygon fill="white" stroke="#666666" points="265.25,-61 155.5,-61 155.5,-32 265.25,-32 265.25,-61"/>
<text xml:space="preserve" text-anchor="start" x="163.5" y="-47.5" font-family="Helvetica,sans-Serif" font-size="10.00">Core::GlobalInitialiser</text>
<text xml:space="preserve" text-anchor="middle" x="210.38" y="-37" font-family="Helvetica,sans-Serif" font-size="10.00">::init_transitionner</text>
</a>
</g>
</g>
<!-- Node9&#45;&gt;Node10 -->
<g id="edge14_Node000009_Node000010" class="edge">
<title>Node9&#45;&gt;Node10</title>
<g id="a_edge14_Node000009_Node000010"><a xlink:title=" ">
<path fill="none" stroke="#63b8ff" d="M289.75,-29.05C281.58,-30.87 273.29,-32.72 265.32,-34.49"/>
<polygon fill="#63b8ff" stroke="#63b8ff" points="290.3,-32.52 299.3,-26.93 288.78,-25.68 290.3,-32.52"/>
</a>
</g>
</g>
<!-- Node10&#45;&gt;Node3 -->
<g id="edge15_Node000010_Node000003" class="edge">
<title>Node10&#45;&gt;Node3</title>
<g id="a_edge15_Node000010_Node000003"><a xlink:title=" ">
<path fill="none" stroke="#63b8ff" d="M175.52,-67.23C147.9,-84.14 109.56,-107.61 84.95,-122.68"/>
<polygon fill="#63b8ff" stroke="#63b8ff" points="177.17,-70.32 183.87,-62.11 173.52,-64.35 177.17,-70.32"/>
</a>
</g>
</g>
</g>
</svg>
