<?xml version="1.0" encoding="UTF-8" standalone="no"?>
<!DOCTYPE svg PUBLIC "-//W3C//DTD SVG 1.1//EN"
 "http://www.w3.org/Graphics/SVG/1.1/DTD/svg11.dtd">
<!-- Generated by graphviz version 14.0.1 (0)
 -->
<!-- Title: CmaUtils::FlowMapTransitionner::advance_worker Pages: 1 -->
<svg width="945pt" height="282pt"
 viewBox="0.00 0.00 945.00 282.00" xmlns="http://www.w3.org/2000/svg" xmlns:xlink="http://www.w3.org/1999/xlink">
<g id="graph0" class="graph" transform="scale(1 1) rotate(0) translate(4 278)">
<title>CmaUtils::FlowMapTransitionner::advance_worker</title>
<!-- Node1 -->
<g id="Node000001" class="node">
<title>Node1</title>
<g id="a_Node000001"><a xlink:title="Advances the simulation by one timestep from a MPI Wroker.">
<polygon fill="#999999" stroke="#666666" points="158.5,-116 0,-116 0,-87 158.5,-87 158.5,-116"/>
<text xml:space="preserve" text-anchor="start" x="8" y="-102.5" font-family="Helvetica,sans-Serif" font-size="10.00">CmaUtils::FlowMapTransitionner</text>
<text xml:space="preserve" text-anchor="middle" x="79.25" y="-92" font-family="Helvetica,sans-Serif" font-size="10.00">::advance_worker</text>
</a>
</g>
</g>
<!-- Node2 -->
<g id="Node000002" class="node">
<title>Node2</title>
<g id="a_Node000002"><a xlink:href="classCmaUtils_1_1FlowMapTransitionner.html#a52f9717655f1b6aa9891b6c23cc6bf3f" target="_top" xlink:title="Operation required by all methods in order to perform advance function .">
<polygon fill="white" stroke="#666666" points="353,-160 194.5,-160 194.5,-131 353,-131 353,-160"/>
<text xml:space="preserve" text-anchor="start" x="202.5" y="-146.5" font-family="Helvetica,sans-Serif" font-size="10.00">CmaUtils::FlowMapTransitionner</text>
<text xml:space="preserve" text-anchor="middle" x="273.75" y="-136" font-family="Helvetica,sans-Serif" font-size="10.00">::common_advance</text>
</a>
</g>
</g>
<!-- Node1&#45;&gt;Node2 -->
<g id="edge1_Node000001_Node000002" class="edge">
<title>Node1&#45;&gt;Node2</title>
<g id="a_edge1_Node000001_Node000002"><a xlink:title=" ">
<path fill="none" stroke="#63b8ff" d="M145.69,-116.46C161.96,-120.18 179.55,-124.2 196.3,-128.03"/>
<polygon fill="#63b8ff" stroke="#63b8ff" points="195.16,-131.36 205.69,-130.17 196.72,-124.53 195.16,-131.36"/>
</a>
</g>
</g>
<!-- Node11 -->
<g id="Node000011" class="node">
<title>Node11</title>
<g id="a_Node000011"><a xlink:href="classCmaUtils_1_1FlowMapTransitionner.html#ab55d6efef4c6d0c9e5d42e86f9ff8ae1" target="_top" xlink:title="ONLY for MPI_WORKER Calculate the current state based on the selected method, may be caching or direc...">
<polygon fill="white" stroke="#666666" points="353,-93 194.5,-93 194.5,-64 353,-64 353,-93"/>
<text xml:space="preserve" text-anchor="start" x="202.5" y="-79.5" font-family="Helvetica,sans-Serif" font-size="10.00">CmaUtils::FlowMapTransitionner</text>
<text xml:space="preserve" text-anchor="middle" x="273.75" y="-69" font-family="Helvetica,sans-Serif" font-size="10.00">::update_flow_worker</text>
</a>
</g>
</g>
<!-- Node1&#45;&gt;Node11 -->
<g id="edge12_Node000001_Node000011" class="edge">
<title>Node1&#45;&gt;Node11</title>
<g id="a_edge12_Node000001_Node000011"><a xlink:title=" ">
<path fill="none" stroke="#63b8ff" d="M158.82,-92.11C166.74,-91.17 174.82,-90.2 182.84,-89.24"/>
<polygon fill="#63b8ff" stroke="#63b8ff" points="183.1,-92.74 192.61,-88.07 182.27,-85.79 183.1,-92.74"/>
</a>
</g>
</g>
<!-- Node3 -->
<g id="Node000003" class="node">
<title>Node3</title>
<g id="a_Node000003"><a xlink:href="classCmaUtils_1_1FlowMapTransitionner.html#a3dc7a76f36a1a0ada35bb8d1ca8f512c" target="_top" xlink:title="Get current gas state read from CmaRead.">
<polygon fill="white" stroke="#666666" points="547.5,-227 389,-227 389,-198 547.5,-198 547.5,-227"/>
<text xml:space="preserve" text-anchor="start" x="397" y="-213.5" font-family="Helvetica,sans-Serif" font-size="10.00">CmaUtils::FlowMapTransitionner</text>
<text xml:space="preserve" text-anchor="middle" x="468.25" y="-203" font-family="Helvetica,sans-Serif" font-size="10.00">::current_gas_hydro_state</text>
</a>
</g>
</g>
<!-- Node2&#45;&gt;Node3 -->
<g id="edge2_Node000002_Node000003" class="edge">
<title>Node2&#45;&gt;Node3</title>
<g id="a_edge2_Node000002_Node000003"><a xlink:title=" ">
<path fill="none" stroke="#63b8ff" d="M311.26,-160.44C333.55,-169.34 362.73,-180.6 389,-189.5 393.73,-191.1 398.64,-192.7 403.59,-194.26"/>
<polygon fill="#63b8ff" stroke="#63b8ff" points="402.42,-197.56 413,-197.17 404.48,-190.88 402.42,-197.56"/>
</a>
</g>
</g>
<!-- Node9 -->
<g id="Node000009" class="node">
<title>Node9</title>
<g id="a_Node000009"><a xlink:href="classCmaUtils_1_1FlowMapTransitionner.html#a33ea0931034223c04f4c1074ad1ee5aa" target="_top" xlink:title="Get current liquid state read from CmaRead.">
<polygon fill="white" stroke="#666666" points="547.5,-115 389,-115 389,-86 547.5,-86 547.5,-115"/>
<text xml:space="preserve" text-anchor="start" x="397" y="-101.5" font-family="Helvetica,sans-Serif" font-size="10.00">CmaUtils::FlowMapTransitionner</text>
<text xml:space="preserve" text-anchor="middle" x="468.25" y="-91" font-family="Helvetica,sans-Serif" font-size="10.00">::current_liq_hydro_state</text>
</a>
</g>
</g>
<!-- Node2&#45;&gt;Node9 -->
<g id="edge9_Node000002_Node000009" class="edge">
<title>Node2&#45;&gt;Node9</title>
<g id="a_edge9_Node000002_Node000009"><a xlink:title=" ">
<path fill="none" stroke="#63b8ff" d="M338.85,-130.52C355.97,-126.51 374.62,-122.15 392.27,-118.03"/>
<polygon fill="#63b8ff" stroke="#63b8ff" points="392.69,-121.52 401.63,-115.84 391.09,-114.71 392.69,-121.52"/>
</a>
</g>
</g>
<!-- Node10 -->
<g id="Node000010" class="node">
<title>Node10</title>
<g id="a_Node000010"><a xlink:href="classCmaUtils_1_1FlowMapTransitionner.html#adc33f9f202442f07fede2ffe1bb0ee6d" target="_top" xlink:title="Update flow and iteration counters.">
<polygon fill="white" stroke="#666666" points="547.5,-180 389,-180 389,-151 547.5,-151 547.5,-180"/>
<text xml:space="preserve" text-anchor="start" x="397" y="-166.5" font-family="Helvetica,sans-Serif" font-size="10.00">CmaUtils::FlowMapTransitionner</text>
<text xml:space="preserve" text-anchor="middle" x="468.25" y="-156" font-family="Helvetica,sans-Serif" font-size="10.00">::update_counters</text>
</a>
</g>
</g>
<!-- Node2&#45;&gt;Node10 -->
<g id="edge11_Node000002_Node000010" class="edge">
<title>Node2&#45;&gt;Node10</title>
<g id="a_edge11_Node000002_Node000010"><a xlink:title=" ">
<path fill="none" stroke="#63b8ff" d="M353.32,-153.66C361.24,-154.49 369.32,-155.33 377.34,-156.16"/>
<polygon fill="#63b8ff" stroke="#63b8ff" points="376.8,-159.62 387.11,-157.17 377.52,-152.66 376.8,-159.62"/>
</a>
</g>
</g>
<!-- Node3&#45;&gt;Node3 -->
<g id="edge5_Node000003_Node000003" class="edge">
<title>Node3&#45;&gt;Node3</title>
<g id="a_edge5_Node000003_Node000003"><a xlink:title=" ">
<path fill="none" stroke="#63b8ff" d="M434.35,-227.21C426.18,-236.32 437.48,-245 468.25,-245 485.08,-245 496.08,-242.41 501.26,-238.56"/>
<polygon fill="#63b8ff" stroke="#63b8ff" points="504.74,-238.96 502.03,-228.72 497.76,-238.41 504.74,-238.96"/>
</a>
</g>
</g>
<!-- Node4 -->
<g id="Node000004" class="node">
<title>Node4</title>
<g id="a_Node000004"><a xlink:href="classCmaUtils_1_1FlowMapTransitionner.html#ae24d277adf0085d83cd09644149f31b6" target="_top" xlink:title="Calculate the whole state (liquid+gas+neighbor) for the current time step.">
<polygon fill="white" stroke="#666666" points="742,-274 583.5,-274 583.5,-245 742,-245 742,-274"/>
<text xml:space="preserve" text-anchor="start" x="591.5" y="-260.5" font-family="Helvetica,sans-Serif" font-size="10.00">CmaUtils::FlowMapTransitionner</text>
<text xml:space="preserve" text-anchor="middle" x="662.75" y="-250" font-family="Helvetica,sans-Serif" font-size="10.00">::calculate_full_state</text>
</a>
</g>
</g>
<!-- Node3&#45;&gt;Node4 -->
<g id="edge3_Node000003_Node000004" class="edge">
<title>Node3&#45;&gt;Node4</title>
<g id="a_edge3_Node000003_Node000004"><a xlink:title=" ">
<path fill="none" stroke="#63b8ff" d="M530.42,-227.44C549.19,-232.02 570.02,-237.1 589.46,-241.85"/>
<polygon fill="#63b8ff" stroke="#63b8ff" points="588.39,-245.19 598.94,-244.16 590.05,-238.39 588.39,-245.19"/>
</a>
</g>
</g>
<!-- Node6 -->
<g id="Node000006" class="node">
<title>Node6</title>
<g id="a_Node000006"><a xlink:href="classCmaUtils_1_1FlowMapTransitionner.html#adef8e20a97054d14eba0521ca20829f6" target="_top" xlink:title="Direct read state from iterator.">
<polygon fill="white" stroke="#666666" points="742,-227 583.5,-227 583.5,-198 742,-198 742,-227"/>
<text xml:space="preserve" text-anchor="start" x="591.5" y="-213.5" font-family="Helvetica,sans-Serif" font-size="10.00">CmaUtils::FlowMapTransitionner</text>
<text xml:space="preserve" text-anchor="middle" x="662.75" y="-203" font-family="Helvetica,sans-Serif" font-size="10.00">::get_unchecked</text>
</a>
</g>
</g>
<!-- Node3&#45;&gt;Node6 -->
<g id="edge6_Node000003_Node000006" class="edge">
<title>Node3&#45;&gt;Node6</title>
<g id="a_edge6_Node000003_Node000006"><a xlink:title=" ">
<path fill="none" stroke="#63b8ff" d="M547.82,-212.5C555.74,-212.5 563.82,-212.5 571.84,-212.5"/>
<polygon fill="#63b8ff" stroke="#63b8ff" points="571.6,-216 581.6,-212.5 571.6,-209 571.6,-216"/>
</a>
</g>
</g>
<!-- Node7 -->
<g id="Node000007" class="node">
<title>Node7</title>
<g id="a_Node000007"><a xlink:href="classCmaUtils_1_1FlowMapTransitionner.html#a95f2c1ce2a5c0dcccb0e0be0341fa466" target="_top" xlink:title="Return the index of the current ProxyPreCalculatedHydroState.">
<polygon fill="white" stroke="#666666" points="742,-180 583.5,-180 583.5,-151 742,-151 742,-180"/>
<text xml:space="preserve" text-anchor="start" x="591.5" y="-166.5" font-family="Helvetica,sans-Serif" font-size="10.00">CmaUtils::FlowMapTransitionner</text>
<text xml:space="preserve" text-anchor="middle" x="662.75" y="-156" font-family="Helvetica,sans-Serif" font-size="10.00">::getFlowIndex</text>
</a>
</g>
</g>
<!-- Node3&#45;&gt;Node7 -->
<g id="edge7_Node000003_Node000007" class="edge">
<title>Node3&#45;&gt;Node7</title>
<g id="a_edge7_Node000003_Node000007"><a xlink:title=" ">
<path fill="none" stroke="#63b8ff" d="M530.42,-197.56C549.19,-192.98 570.02,-187.9 589.46,-183.15"/>
<polygon fill="#63b8ff" stroke="#63b8ff" points="590.05,-186.61 598.94,-180.84 588.39,-179.81 590.05,-186.61"/>
</a>
</g>
</g>
<!-- Node8 -->
<g id="Node000008" class="node">
<title>Node8</title>
<g id="a_Node000008"><a xlink:href="classCmaUtils_1_1FlowMapTransitionner.html#acac9006d49f9cee106f3b6769ed29ba2" target="_top" xlink:title="Get the number of load flowmap.">
<polygon fill="white" stroke="#666666" points="742,-133 583.5,-133 583.5,-104 742,-104 742,-133"/>
<text xml:space="preserve" text-anchor="start" x="591.5" y="-119.5" font-family="Helvetica,sans-Serif" font-size="10.00">CmaUtils::FlowMapTransitionner</text>
<text xml:space="preserve" text-anchor="middle" x="662.75" y="-109" font-family="Helvetica,sans-Serif" font-size="10.00">::size</text>
</a>
</g>
</g>
<!-- Node3&#45;&gt;Node8 -->
<g id="edge8_Node000003_Node000008" class="edge">
<title>Node3&#45;&gt;Node8</title>
<g id="a_edge8_Node000003_Node000008"><a xlink:title=" ">
<path fill="none" stroke="#63b8ff" d="M532.79,-197.67C537.97,-195.33 542.95,-192.63 547.5,-189.5 569.19,-174.61 561.89,-157.52 583.5,-142.5 585.46,-141.14 587.5,-139.85 589.6,-138.64"/>
<polygon fill="#63b8ff" stroke="#63b8ff" points="591.12,-141.79 598.45,-134.14 587.95,-135.55 591.12,-141.79"/>
</a>
</g>
</g>
<!-- Node5 -->
<g id="Node000005" class="node">
<title>Node5</title>
<g id="a_Node000005"><a xlink:href="classCmaUtils_1_1FlowMapTransitionner.html#abb98a83b7db34307ef4e59ed7e33a71a" target="_top" xlink:title="Checks whether a gas flowmap is provided.">
<polygon fill="white" stroke="#666666" points="936.5,-173 778,-173 778,-144 936.5,-144 936.5,-173"/>
<text xml:space="preserve" text-anchor="start" x="786" y="-159.5" font-family="Helvetica,sans-Serif" font-size="10.00">CmaUtils::FlowMapTransitionner</text>
<text xml:space="preserve" text-anchor="middle" x="857.25" y="-149" font-family="Helvetica,sans-Serif" font-size="10.00">::is_two_phase_flow</text>
</a>
</g>
</g>
<!-- Node4&#45;&gt;Node5 -->
<g id="edge4_Node000004_Node000005" class="edge">
<title>Node4&#45;&gt;Node5</title>
<g id="a_edge4_Node000004_Node000005"><a xlink:title=" ">
<path fill="none" stroke="#63b8ff" d="M722.2,-244.53C728.99,-242.15 735.73,-239.47 742,-236.5 774.09,-221.29 807.23,-197.63 829.5,-180.35"/>
<polygon fill="#63b8ff" stroke="#63b8ff" points="831.47,-183.26 837.15,-174.32 827.13,-177.76 831.47,-183.26"/>
</a>
</g>
</g>
<!-- Node9&#45;&gt;Node9 -->
<g id="edge10_Node000009_Node000009" class="edge">
<title>Node9&#45;&gt;Node9</title>
<g id="a_edge10_Node000009_Node000009"><a xlink:title=" ">
<path fill="none" stroke="#63b8ff" d="M434.35,-115.21C426.18,-124.32 437.48,-133 468.25,-133 485.08,-133 496.08,-130.41 501.26,-126.56"/>
<polygon fill="#63b8ff" stroke="#63b8ff" points="504.74,-126.96 502.03,-116.72 497.76,-126.41 504.74,-126.96"/>
</a>
</g>
</g>
<!-- Node11&#45;&gt;Node5 -->
<g id="edge14_Node000011_Node000005" class="edge">
<title>Node11&#45;&gt;Node5</title>
<g id="a_edge14_Node000011_Node000005"><a xlink:title=" ">
<path fill="none" stroke="#63b8ff" d="M353.27,-69.21C447.81,-60.75 610.29,-55.03 742,-95.5 772.42,-104.85 803.86,-122.91 826.04,-137.3"/>
<polygon fill="#63b8ff" stroke="#63b8ff" points="824.01,-140.16 834.28,-142.78 827.88,-134.33 824.01,-140.16"/>
</a>
</g>
</g>
<!-- Node11&#45;&gt;Node9 -->
<g id="edge13_Node000011_Node000009" class="edge">
<title>Node11&#45;&gt;Node9</title>
<g id="a_edge13_Node000011_Node000009"><a xlink:title=" ">
<path fill="none" stroke="#63b8ff" d="M353.32,-87.48C361.24,-88.38 369.32,-89.31 377.34,-90.22"/>
<polygon fill="#63b8ff" stroke="#63b8ff" points="376.78,-93.68 387.11,-91.34 377.57,-86.73 376.78,-93.68"/>
</a>
</g>
</g>
<!-- Node12 -->
<g id="Node000012" class="node">
<title>Node12</title>
<g id="a_Node000012"><a xlink:href="classCmaUtils_1_1FlowMapTransitionner.html#a2b977307d10c78474830d7776030665c" target="_top" xlink:title="Check if liquid state has to calculated or can be use via caching.">
<polygon fill="white" stroke="#666666" points="547.5,-29 389,-29 389,0 547.5,0 547.5,-29"/>
<text xml:space="preserve" text-anchor="start" x="397" y="-15.5" font-family="Helvetica,sans-Serif" font-size="10.00">CmaUtils::FlowMapTransitionner</text>
<text xml:space="preserve" text-anchor="middle" x="468.25" y="-5" font-family="Helvetica,sans-Serif" font-size="10.00">::need_liquid_state_calculation</text>
</a>
</g>
</g>
<!-- Node11&#45;&gt;Node12 -->
<g id="edge15_Node000011_Node000012" class="edge">
<title>Node11&#45;&gt;Node12</title>
<g id="a_edge15_Node000011_Node000012"><a xlink:title=" ">
<path fill="none" stroke="#63b8ff" d="M319.4,-63.66C346.78,-54.55 382.06,-42.82 411.3,-33.1"/>
<polygon fill="#63b8ff" stroke="#63b8ff" points="412.36,-36.44 420.74,-29.96 410.15,-29.8 412.36,-36.44"/>
</a>
</g>
</g>
</g>
</svg>
