<?xml version="1.0" encoding="UTF-8" standalone="no"?>
<!DOCTYPE svg PUBLIC "-//W3C//DTD SVG 1.1//EN"
 "http://www.w3.org/Graphics/SVG/1.1/DTD/svg11.dtd">
<!-- Generated by graphviz version 14.0.1 (0)
 -->
<!-- Title: Simulation::SimulationUnit::SimulationUnit Pages: 1 -->
<svg width="476pt" height="107pt"
 viewBox="0.00 0.00 476.00 107.00" xmlns="http://www.w3.org/2000/svg" xmlns:xlink="http://www.w3.org/1999/xlink">
<g id="graph0" class="graph" transform="scale(1 1) rotate(0) translate(4 103)">
<title>Simulation::SimulationUnit::SimulationUnit</title>
<!-- Node1 -->
<g id="Node000001" class="node">
<title>Node1</title>
<g id="a_Node000001"><a xlink:title=" ">
<polygon fill="#999999" stroke="#666666" points="131.5,-75 0,-75 0,-46 131.5,-46 131.5,-75"/>
<text xml:space="preserve" text-anchor="start" x="8" y="-61.5" font-family="Helvetica,sans-Serif" font-size="10.00">Simulation::SimulationUnit</text>
<text xml:space="preserve" text-anchor="middle" x="65.75" y="-51" font-family="Helvetica,sans-Serif" font-size="10.00">::SimulationUnit</text>
</a>
</g>
</g>
<!-- Node2 -->
<g id="Node000002" class="node">
<title>Node2</title>
<g id="a_Node000002"><a xlink:href="classSimulation_1_1SimulationUnit.html#a9ea90cab13d8259f026f57baad1c989f" target="_top" xlink:title=" ">
<polygon fill="white" stroke="#666666" points="299,-99 167.5,-99 167.5,-70 299,-70 299,-99"/>
<text xml:space="preserve" text-anchor="start" x="175.5" y="-85.5" font-family="Helvetica,sans-Serif" font-size="10.00">Simulation::SimulationUnit</text>
<text xml:space="preserve" text-anchor="middle" x="233.25" y="-75" font-family="Helvetica,sans-Serif" font-size="10.00">::get_kernel_contribution</text>
</a>
</g>
</g>
<!-- Node1&#45;&gt;Node2 -->
<g id="edge1_Node000001_Node000002" class="edge">
<title>Node1&#45;&gt;Node2</title>
<g id="a_edge1_Node000001_Node000002"><a xlink:title=" ">
<path fill="none" stroke="#63b8ff" d="M131.68,-69.92C139.63,-71.07 147.79,-72.25 155.88,-73.43"/>
<polygon fill="#63b8ff" stroke="#63b8ff" points="155.33,-76.88 165.73,-74.85 156.34,-69.96 155.33,-76.88"/>
</a>
</g>
</g>
<!-- Node3 -->
<g id="Node000003" class="node">
<title>Node3</title>
<g id="a_Node000003"><a xlink:href="classSimulation_1_1SimulationUnit.html#a36fb635150825e63055191740edaba84" target="_top" xlink:title=" ">
<polygon fill="white" stroke="#666666" points="299,-52 167.5,-52 167.5,-23 299,-23 299,-52"/>
<text xml:space="preserve" text-anchor="start" x="175.5" y="-38.5" font-family="Helvetica,sans-Serif" font-size="10.00">Simulation::SimulationUnit</text>
<text xml:space="preserve" text-anchor="middle" x="233.25" y="-28" font-family="Helvetica,sans-Serif" font-size="10.00">::post_init_concentration</text>
</a>
</g>
</g>
<!-- Node1&#45;&gt;Node3 -->
<g id="edge2_Node000001_Node000003" class="edge">
<title>Node1&#45;&gt;Node3</title>
<g id="a_edge2_Node000001_Node000003"><a xlink:title=" ">
<path fill="none" stroke="#63b8ff" d="M131.68,-51.48C139.63,-50.37 147.79,-49.24 155.88,-48.11"/>
<polygon fill="#63b8ff" stroke="#63b8ff" points="156.31,-51.59 165.73,-46.74 155.34,-44.65 156.31,-51.59"/>
</a>
</g>
</g>
<!-- Node4 -->
<g id="Node000004" class="node">
<title>Node4</title>
<g id="a_Node000004"><a xlink:href="namespaceSimulation_1_1impl.html#ab56eb92724f12b4ed6c401939009519c" target="_top" xlink:title=" ">
<polygon fill="white" stroke="#666666" points="459.38,-76 343.62,-76 343.62,-47 459.38,-47 459.38,-76"/>
<text xml:space="preserve" text-anchor="start" x="351.62" y="-62.5" font-family="Helvetica,sans-Serif" font-size="10.00">Simulation::impl::post</text>
<text xml:space="preserve" text-anchor="middle" x="401.5" y="-52" font-family="Helvetica,sans-Serif" font-size="10.00">_init_concentration_file</text>
</a>
</g>
</g>
<!-- Node3&#45;&gt;Node4 -->
<g id="edge3_Node000003_Node000004" class="edge">
<title>Node3&#45;&gt;Node4</title>
<g id="a_edge3_Node000003_Node000004"><a xlink:title=" ">
<path fill="none" stroke="#63b8ff" d="M299.48,-46.92C310.21,-48.47 321.37,-50.08 332.18,-51.64"/>
<polygon fill="#63b8ff" stroke="#63b8ff" points="331.39,-55.06 341.78,-53.02 332.39,-48.13 331.39,-55.06"/>
</a>
</g>
</g>
<!-- Node5 -->
<g id="Node000005" class="node">
<title>Node5</title>
<g id="a_Node000005"><a xlink:href="namespaceSimulation_1_1impl.html#ae40eba3a10cbceb62fe3e6980dcc193f" target="_top" xlink:title=" ">
<polygon fill="white" stroke="#666666" points="468,-29 335,-29 335,0 468,0 468,-29"/>
<text xml:space="preserve" text-anchor="start" x="343" y="-15.5" font-family="Helvetica,sans-Serif" font-size="10.00">Simulation::impl::post</text>
<text xml:space="preserve" text-anchor="middle" x="401.5" y="-5" font-family="Helvetica,sans-Serif" font-size="10.00">_init_concentration_functor</text>
</a>
</g>
</g>
<!-- Node3&#45;&gt;Node5 -->
<g id="edge4_Node000003_Node000005" class="edge">
<title>Node3&#45;&gt;Node5</title>
<g id="a_edge4_Node000003_Node000005"><a xlink:title=" ">
<path fill="none" stroke="#63b8ff" d="M299.48,-28.48C307.33,-27.39 315.41,-26.27 323.41,-25.17"/>
<polygon fill="#63b8ff" stroke="#63b8ff" points="323.71,-28.66 333.14,-23.82 322.76,-21.72 323.71,-28.66"/>
</a>
</g>
</g>
</g>
</svg>
