<?xml version="1.0" encoding="UTF-8" standalone="no"?>
<!DOCTYPE svg PUBLIC "-//W3C//DTD SVG 1.1//EN"
 "http://www.w3.org/Graphics/SVG/1.1/DTD/svg11.dtd">
<!-- Generated by graphviz version 14.0.1 (0)
 -->
<!-- Title: Simulation::SimulationUnit::getState Pages: 1 -->
<!--zoomable 776 -->

<svg id="main" version="1.1" xmlns="http://www.w3.org/2000/svg" xmlns:xlink="http://www.w3.org/1999/xlink" xml:space="preserve" onload="init(evt)">

<style type="text/css"><![CDATA[
.node, .edge {opacity: 0.7;}
.node.selected, .edge.selected {opacity: 1;}
.edge:hover path { stroke: red; }
.edge:hover polygon { stroke: red; fill: red; }
]]></style>

<defs>
  <circle id="rim" cx="0" cy="0" r="7"/>
  <circle id="rim2" cx="0" cy="0" r="3.5"/>
  <g id="zoomPlus">
    <use xlink:href="#rim" fill="#404040"><set attributeName="fill" to="#808080" begin="zoomplus.mouseover" end="zoomplus.mouseout"/></use>
    <path d="M-4,0h8M0,-4v8" fill="none" stroke="white" stroke-width="1.5" pointer-events="none"/>
  </g>
  <g id="zoomMin">
    <use xlink:href="#rim" fill="#404040"><set attributeName="fill" to="#808080" begin="zoomminus.mouseover" end="zoomminus.mouseout"/></use>
    <path d="M-4,0h8" fill="none" stroke="white" stroke-width="1.5" pointer-events="none"/>
  </g>
  <g id="arrowUp" transform="translate(30 24)">
    <use xlink:href="#rim"/>
    <path pointer-events="none" fill="none" stroke="white" stroke-width="1.5" d="M0,-3.0v7 M-2.5,-0.5L0,-3.0L2.5,-0.5"/>
  </g>
  <g id="arrowRight" transform="rotate(90) translate(36 -43)">
    <use xlink:href="#rim"/>
    <path pointer-events="none" fill="none" stroke="white" stroke-width="1.5" d="M0,-3.0v7 M-2.5,-0.5L0,-3.0L2.5,-0.5"/>
  </g>
  <g id="arrowDown" transform="rotate(180) translate(-30 -48)">
    <use xlink:href="#rim"/>
    <path pointer-events="none" fill="none" stroke="white" stroke-width="1.5" d="M0,-3.0v7 M-2.5,-0.5L0,-3.0L2.5,-0.5"/>
  </g>
  <g id="arrowLeft" transform="rotate(270) translate(-36 17)">
    <use xlink:href="#rim"/>
    <path pointer-events="none" fill="none" stroke="white" stroke-width="1.5" d="M0,-3.0v7 M-2.5,-0.5L0,-3.0L2.5,-0.5"/>
  </g>
  <g id="resetDef">
    <use xlink:href="#rim2" fill="#404040"><set attributeName="fill" to="#808080" begin="reset.mouseover" end="reset.mouseout"/></use>
  </g>
</defs>
<script type="application/ecmascript">
var viewWidth = 983;
var viewHeight = 776;
var sectionId = 'dynsection-17';
</script>
<script type="application/ecmascript" xlink:href="svg.min.js"/>
<svg id="graph" class="graph">
<g id="viewport">
<title>Simulation::SimulationUnit::getState</title>
<!-- Node1 -->
<g id="Node000001" class="node">
<title>Node1</title>
<g id="a_Node000001"><a xlink:title=" ">
<polygon fill="#999999" stroke="#666666" points="131.5,-350.44 0,-350.44 0,-321.44 131.5,-321.44 131.5,-350.44"/>
<text xml:space="preserve" text-anchor="start" x="8" y="-336.94" font-family="Helvetica,sans-Serif" font-size="10.00">Simulation::SimulationUnit</text>
<text xml:space="preserve" text-anchor="middle" x="65.75" y="-326.44" font-family="Helvetica,sans-Serif" font-size="10.00">::getState</text>
</a>
</g>
</g>
<!-- Node2 -->
<g id="Node000002" class="node">
<title>Node2</title>
<g id="a_Node000002"><a xlink:href="classSimulation_1_1SimulationUnit.html#aeb968caf58812bcab01534e72a63d552" target="_top" xlink:title=" ">
<polygon fill="white" stroke="#666666" points="299,-703.44 167.5,-703.44 167.5,-674.44 299,-674.44 299,-703.44"/>
<text xml:space="preserve" text-anchor="start" x="175.5" y="-689.94" font-family="Helvetica,sans-Serif" font-size="10.00">Simulation::SimulationUnit</text>
<text xml:space="preserve" text-anchor="middle" x="233.25" y="-679.44" font-family="Helvetica,sans-Serif" font-size="10.00">::clearContribution</text>
</a>
</g>
</g>
<!-- Node1&#45;&gt;Node2 -->
<g id="edge1_Node000001_Node000002" class="edge">
<title>Node1&#45;&gt;Node2</title>
<g id="a_edge1_Node000001_Node000002"><a xlink:title=" ">
<path fill="none" stroke="#63b8ff" d="M66.81,-350.75C67.83,-401.79 78.09,-572.42 167.5,-665.94 167.87,-666.33 168.25,-666.71 168.63,-667.09"/>
<polygon fill="#63b8ff" stroke="#63b8ff" points="166.33,-669.73 176.36,-673.13 170.64,-664.21 166.33,-669.73"/>
</a>
</g>
</g>
<!-- Node3 -->
<g id="Node000003" class="node">
<title>Node3</title>
<g id="a_Node000003"><a xlink:href="classSimulation_1_1SimulationUnit.html#a7b49fd171d4de8aa3949738da6c3810f" target="_top" xlink:title=" ">
<polygon fill="white" stroke="#666666" points="299,-656.44 167.5,-656.44 167.5,-627.44 299,-627.44 299,-656.44"/>
<text xml:space="preserve" text-anchor="start" x="175.5" y="-642.94" font-family="Helvetica,sans-Serif" font-size="10.00">Simulation::SimulationUnit</text>
<text xml:space="preserve" text-anchor="middle" x="233.25" y="-632.44" font-family="Helvetica,sans-Serif" font-size="10.00">::cycleProcess</text>
</a>
</g>
</g>
<!-- Node1&#45;&gt;Node3 -->
<g id="edge2_Node000001_Node000003" class="edge">
<title>Node1&#45;&gt;Node3</title>
<g id="a_edge2_Node000001_Node000003"><a xlink:title=" ">
<path fill="none" stroke="#63b8ff" d="M67.7,-350.9C71.44,-397.33 89.11,-540.61 167.5,-618.94 167.99,-619.43 168.49,-619.91 169,-620.38"/>
<polygon fill="#63b8ff" stroke="#63b8ff" points="166.7,-623.03 176.81,-626.19 170.88,-617.41 166.7,-623.03"/>
</a>
</g>
</g>
<!-- Node14 -->
<g id="Node000014" class="node">
<title>Node14</title>
<g id="a_Node000014"><a xlink:href="classSimulation_1_1SimulationUnit.html#abee4f5b8a764dc6655ee5a91fcab7080" target="_top" xlink:title=" ">
<polygon fill="white" stroke="#666666" points="299,-609.44 167.5,-609.44 167.5,-580.44 299,-580.44 299,-609.44"/>
<text xml:space="preserve" text-anchor="start" x="175.5" y="-595.94" font-family="Helvetica,sans-Serif" font-size="10.00">Simulation::SimulationUnit</text>
<text xml:space="preserve" text-anchor="middle" x="233.25" y="-585.44" font-family="Helvetica,sans-Serif" font-size="10.00">::getCgasData</text>
</a>
</g>
</g>
<!-- Node1&#45;&gt;Node14 -->
<g id="edge14_Node000001_Node000014" class="edge">
<title>Node1&#45;&gt;Node14</title>
<g id="a_edge14_Node000001_Node000014"><a xlink:title=" ">
<path fill="none" stroke="#63b8ff" d="M68.88,-350.73C75.55,-391.79 99.81,-508.34 167.5,-571.94 168.12,-572.53 168.75,-573.09 169.4,-573.65"/>
<polygon fill="#63b8ff" stroke="#63b8ff" points="167.11,-576.31 177.3,-579.2 171.13,-570.58 167.11,-576.31"/>
</a>
</g>
</g>
<!-- Node15 -->
<g id="Node000015" class="node">
<title>Node15</title>
<g id="a_Node000015"><a xlink:href="classSimulation_1_1SimulationUnit.html#a3d0ee29e0a425f79fa8cbc620d2abb99" target="_top" xlink:title=" ">
<polygon fill="white" stroke="#666666" points="299,-562.44 167.5,-562.44 167.5,-533.44 299,-533.44 299,-562.44"/>
<text xml:space="preserve" text-anchor="start" x="175.5" y="-548.94" font-family="Helvetica,sans-Serif" font-size="10.00">Simulation::SimulationUnit</text>
<text xml:space="preserve" text-anchor="middle" x="233.25" y="-538.44" font-family="Helvetica,sans-Serif" font-size="10.00">::getCliqData</text>
</a>
</g>
</g>
<!-- Node1&#45;&gt;Node15 -->
<g id="edge15_Node000001_Node000015" class="edge">
<title>Node1&#45;&gt;Node15</title>
<g id="a_edge15_Node000001_Node000015"><a xlink:title=" ">
<path fill="none" stroke="#63b8ff" d="M70.64,-350.82C80.62,-386.14 110.46,-475.8 167.5,-524.94 168.29,-525.63 169.1,-526.29 169.93,-526.93"/>
<polygon fill="#63b8ff" stroke="#63b8ff" points="167.9,-529.78 178.2,-532.28 171.71,-523.91 167.9,-529.78"/>
</a>
</g>
</g>
<!-- Node16 -->
<g id="Node000016" class="node">
<title>Node16</title>
<g id="a_Node000016"><a xlink:href="classSimulation_1_1SimulationUnit.html#a36218d1f9912967dd9a559cbf40c0b55" target="_top" xlink:title=" ">
<polygon fill="white" stroke="#666666" points="299,-515.44 167.5,-515.44 167.5,-486.44 299,-486.44 299,-515.44"/>
<text xml:space="preserve" text-anchor="start" x="175.5" y="-501.94" font-family="Helvetica,sans-Serif" font-size="10.00">Simulation::SimulationUnit</text>
<text xml:space="preserve" text-anchor="middle" x="233.25" y="-491.44" font-family="Helvetica,sans-Serif" font-size="10.00">::getContributionData</text>
</a>
</g>
</g>
<!-- Node1&#45;&gt;Node16 -->
<g id="edge16_Node000001_Node000016" class="edge">
<title>Node1&#45;&gt;Node16</title>
<g id="a_edge16_Node000001_Node000016"><a xlink:title=" ">
<path fill="none" stroke="#63b8ff" d="M73.39,-350.67C86.99,-379.26 120.73,-442.57 167.5,-477.94 168.65,-478.81 169.84,-479.65 171.05,-480.46"/>
<polygon fill="#63b8ff" stroke="#63b8ff" points="169.14,-483.4 179.55,-485.35 172.62,-477.33 169.14,-483.4"/>
</a>
</g>
</g>
<!-- Node17 -->
<g id="Node000017" class="node">
<title>Node17</title>
<g id="a_Node000017"><a xlink:href="classSimulation_1_1SimulationUnit.html#a401844c1e2eee70c2b043b949d86895d" target="_top" xlink:title=" ">
<polygon fill="white" stroke="#666666" points="299,-468.44 167.5,-468.44 167.5,-439.44 299,-439.44 299,-468.44"/>
<text xml:space="preserve" text-anchor="start" x="175.5" y="-454.94" font-family="Helvetica,sans-Serif" font-size="10.00">Simulation::SimulationUnit</text>
<text xml:space="preserve" text-anchor="middle" x="233.25" y="-444.44" font-family="Helvetica,sans-Serif" font-size="10.00">::getContributionData_mut</text>
</a>
</g>
</g>
<!-- Node1&#45;&gt;Node17 -->
<g id="edge17_Node000001_Node000017" class="edge">
<title>Node1&#45;&gt;Node17</title>
<g id="a_edge17_Node000001_Node000017"><a xlink:title=" ">
<path fill="none" stroke="#63b8ff" d="M78.94,-350.81C96.54,-371.41 130.99,-408.63 167.5,-430.94 169.33,-432.06 171.23,-433.14 173.17,-434.17"/>
<polygon fill="#63b8ff" stroke="#63b8ff" points="171.26,-437.14 181.79,-438.32 174.3,-430.83 171.26,-437.14"/>
</a>
</g>
</g>
<!-- Node18 -->
<g id="Node000018" class="node">
<title>Node18</title>
<g id="a_Node000018"><a xlink:href="classSimulation_1_1SimulationUnit.html#a95e094f9921c520f4a41e3b9a308b187" target="_top" xlink:title=" ">
<polygon fill="white" stroke="#666666" points="299,-421.44 167.5,-421.44 167.5,-392.44 299,-392.44 299,-421.44"/>
<text xml:space="preserve" text-anchor="start" x="175.5" y="-407.94" font-family="Helvetica,sans-Serif" font-size="10.00">Simulation::SimulationUnit</text>
<text xml:space="preserve" text-anchor="middle" x="233.25" y="-397.44" font-family="Helvetica,sans-Serif" font-size="10.00">::getMTRData</text>
</a>
</g>
</g>
<!-- Node1&#45;&gt;Node18 -->
<g id="edge18_Node000001_Node000018" class="edge">
<title>Node1&#45;&gt;Node18</title>
<g id="a_edge18_Node000001_Node000018"><a xlink:title=" ">
<path fill="none" stroke="#63b8ff" d="M95.93,-350.83C115.85,-360.75 142.98,-373.78 167.5,-383.94 170.7,-385.27 174.01,-386.59 177.36,-387.9"/>
<polygon fill="#63b8ff" stroke="#63b8ff" points="176.12,-391.17 186.71,-391.43 178.6,-384.62 176.12,-391.17"/>
</a>
</g>
</g>
<!-- Node19 -->
<g id="Node000019" class="node">
<title>Node19</title>
<g id="a_Node000019"><a xlink:href="classSimulation_1_1SimulationUnit.html#a50e613289a3b6ca1abea7173e3eac01e" target="_top" xlink:title=" ">
<polygon fill="white" stroke="#666666" points="299,-374.44 167.5,-374.44 167.5,-345.44 299,-345.44 299,-374.44"/>
<text xml:space="preserve" text-anchor="start" x="175.5" y="-360.94" font-family="Helvetica,sans-Serif" font-size="10.00">Simulation::SimulationUnit</text>
<text xml:space="preserve" text-anchor="middle" x="233.25" y="-350.44" font-family="Helvetica,sans-Serif" font-size="10.00">::init_functors</text>
</a>
</g>
</g>
<!-- Node1&#45;&gt;Node19 -->
<g id="edge19_Node000001_Node000019" class="edge">
<title>Node1&#45;&gt;Node19</title>
<g id="a_edge19_Node000001_Node000019"><a xlink:title=" ">
<path fill="none" stroke="#63b8ff" d="M131.68,-345.36C139.63,-346.51 147.79,-347.7 155.88,-348.87"/>
<polygon fill="#63b8ff" stroke="#63b8ff" points="155.33,-352.33 165.73,-350.3 156.34,-345.4 155.33,-352.33"/>
</a>
</g>
</g>
<!-- Node21 -->
<g id="Node000021" class="node">
<title>Node21</title>
<g id="a_Node000021"><a xlink:href="classSimulation_1_1SimulationUnit.html#aa12b65d19fa7e3eb74152b0252591a4d" target="_top" xlink:title=" ">
<polygon fill="white" stroke="#666666" points="299,-327.44 167.5,-327.44 167.5,-298.44 299,-298.44 299,-327.44"/>
<text xml:space="preserve" text-anchor="start" x="175.5" y="-313.94" font-family="Helvetica,sans-Serif" font-size="10.00">Simulation::SimulationUnit</text>
<text xml:space="preserve" text-anchor="middle" x="233.25" y="-303.44" font-family="Helvetica,sans-Serif" font-size="10.00">::reset</text>
</a>
</g>
</g>
<!-- Node1&#45;&gt;Node21 -->
<g id="edge21_Node000001_Node000021" class="edge">
<title>Node1&#45;&gt;Node21</title>
<g id="a_edge21_Node000001_Node000021"><a xlink:title=" ">
<path fill="none" stroke="#63b8ff" d="M131.68,-326.92C139.63,-325.82 147.79,-324.68 155.88,-323.56"/>
<polygon fill="#63b8ff" stroke="#63b8ff" points="156.31,-327.03 165.73,-322.19 155.34,-320.1 156.31,-327.03"/>
</a>
</g>
</g>
<!-- Node22 -->
<g id="Node000022" class="node">
<title>Node22</title>
<g id="a_Node000022"><a xlink:href="classSimulation_1_1SimulationUnit.html#aca22d485afff31beaed0ea9b508dac80" target="_top" xlink:title=" ">
<polygon fill="white" stroke="#666666" points="641.88,-171.44 510.38,-171.44 510.38,-142.44 641.88,-142.44 641.88,-171.44"/>
<text xml:space="preserve" text-anchor="start" x="518.38" y="-157.94" font-family="Helvetica,sans-Serif" font-size="10.00">Simulation::SimulationUnit</text>
<text xml:space="preserve" text-anchor="middle" x="576.12" y="-147.44" font-family="Helvetica,sans-Serif" font-size="10.00">::setVolumes</text>
</a>
</g>
</g>
<!-- Node1&#45;&gt;Node22 -->
<g id="edge22_Node000001_Node000022" class="edge">
<title>Node1&#45;&gt;Node22</title>
<g id="a_edge22_Node000001_Node000022"><a xlink:title=" ">
<path fill="none" stroke="#63b8ff" d="M96.27,-321.14C116.11,-311.52 143.01,-299.11 167.5,-289.94 224.59,-268.57 240.91,-269.44 299,-250.94 377.26,-226.03 467.19,-194.95 522.59,-175.52"/>
<polygon fill="#63b8ff" stroke="#63b8ff" points="523.49,-178.92 531.77,-172.3 521.17,-172.31 523.49,-178.92"/>
</a>
</g>
</g>
<!-- Node23 -->
<g id="Node000023" class="node">
<title>Node23</title>
<g id="a_Node000023"><a xlink:href="classSimulation_1_1SimulationUnit.html#af4d179bd1bf0d8da69d83f63fdd72412" target="_top" xlink:title=" ">
<polygon fill="white" stroke="#666666" points="299,-241.44 167.5,-241.44 167.5,-212.44 299,-212.44 299,-241.44"/>
<text xml:space="preserve" text-anchor="start" x="175.5" y="-227.94" font-family="Helvetica,sans-Serif" font-size="10.00">Simulation::SimulationUnit</text>
<text xml:space="preserve" text-anchor="middle" x="233.25" y="-217.44" font-family="Helvetica,sans-Serif" font-size="10.00">::step</text>
</a>
</g>
</g>
<!-- Node1&#45;&gt;Node23 -->
<g id="edge23_Node000001_Node000023" class="edge">
<title>Node1&#45;&gt;Node23</title>
<g id="a_edge23_Node000001_Node000023"><a xlink:title=" ">
<path fill="none" stroke="#63b8ff" d="M82.91,-320.99C102.07,-303.79 135.43,-275.43 167.5,-255.94 172.96,-252.62 178.87,-249.46 184.82,-246.52"/>
<polygon fill="#63b8ff" stroke="#63b8ff" points="185.88,-249.89 193.43,-242.45 182.89,-243.56 185.88,-249.89"/>
</a>
</g>
</g>
<!-- Node24 -->
<g id="Node000024" class="node">
<title>Node24</title>
<g id="a_Node000024"><a xlink:href="classSimulation_1_1SimulationUnit.html#a87b7ba2681ea64a4f8fa68dd423a3221" target="_top" xlink:title=" ">
<polygon fill="white" stroke="#666666" points="299,-194.44 167.5,-194.44 167.5,-165.44 299,-165.44 299,-194.44"/>
<text xml:space="preserve" text-anchor="start" x="175.5" y="-180.94" font-family="Helvetica,sans-Serif" font-size="10.00">Simulation::SimulationUnit</text>
<text xml:space="preserve" text-anchor="middle" x="233.25" y="-170.44" font-family="Helvetica,sans-Serif" font-size="10.00">::two_phase_flow</text>
</a>
</g>
</g>
<!-- Node1&#45;&gt;Node24 -->
<g id="edge24_Node000001_Node000024" class="edge">
<title>Node1&#45;&gt;Node24</title>
<g id="a_edge24_Node000001_Node000024"><a xlink:title=" ">
<path fill="none" stroke="#63b8ff" d="M74.38,-321.07C88.94,-294.05 123.23,-236.69 167.5,-203.94 169.27,-202.63 171.12,-201.39 173.03,-200.2"/>
<polygon fill="#63b8ff" stroke="#63b8ff" points="174.53,-203.37 181.64,-195.51 171.19,-197.22 174.53,-203.37"/>
</a>
</g>
</g>
<!-- Node25 -->
<g id="Node000025" class="node">
<title>Node25</title>
<g id="a_Node000025"><a xlink:href="classSimulation_1_1SimulationUnit.html#a6fecb0563822fae0ef26d9f6209d0779" target="_top" xlink:title=" ">
<polygon fill="white" stroke="#666666" points="299,-147.44 167.5,-147.44 167.5,-118.44 299,-118.44 299,-147.44"/>
<text xml:space="preserve" text-anchor="start" x="175.5" y="-133.94" font-family="Helvetica,sans-Serif" font-size="10.00">Simulation::SimulationUnit</text>
<text xml:space="preserve" text-anchor="middle" x="233.25" y="-123.44" font-family="Helvetica,sans-Serif" font-size="10.00">::update_feed</text>
</a>
</g>
</g>
<!-- Node1&#45;&gt;Node25 -->
<g id="edge25_Node000001_Node000025" class="edge">
<title>Node1&#45;&gt;Node25</title>
<g id="a_edge25_Node000001_Node000025"><a xlink:title=" ">
<path fill="none" stroke="#63b8ff" d="M71.15,-321.15C81.96,-287.29 112.98,-203.48 167.5,-156.94 168.78,-155.85 170.12,-154.8 171.5,-153.8"/>
<polygon fill="#63b8ff" stroke="#63b8ff" points="173.2,-156.87 179.87,-148.64 169.52,-150.91 173.2,-156.87"/>
</a>
</g>
</g>
<!-- Node26 -->
<g id="Node000026" class="node">
<title>Node26</title>
<g id="a_Node000026"><a xlink:href="classSimulation_1_1SimulationUnit.html#a57624461bad4807d5cacbd7d17e49b14" target="_top" xlink:title=" ">
<polygon fill="white" stroke="#666666" points="299,-61.44 167.5,-61.44 167.5,-32.44 299,-32.44 299,-61.44"/>
<text xml:space="preserve" text-anchor="start" x="175.5" y="-47.94" font-family="Helvetica,sans-Serif" font-size="10.00">Simulation::SimulationUnit</text>
<text xml:space="preserve" text-anchor="middle" x="233.25" y="-37.44" font-family="Helvetica,sans-Serif" font-size="10.00">::updateHydro</text>
</a>
</g>
</g>
<!-- Node1&#45;&gt;Node26 -->
<g id="edge26_Node000001_Node000026" class="edge">
<title>Node1&#45;&gt;Node26</title>
<g id="a_edge26_Node000001_Node000026"><a xlink:title=" ">
<path fill="none" stroke="#63b8ff" d="M68.52,-321.23C74.43,-278 97.32,-149.83 167.5,-75.94 170.38,-72.91 173.64,-70.17 177.13,-67.7"/>
<polygon fill="#63b8ff" stroke="#63b8ff" points="178.8,-70.78 185.49,-62.56 175.14,-64.81 178.8,-70.78"/>
</a>
</g>
</g>
<!-- Node27 -->
<g id="Node000027" class="node">
<title>Node27</title>
<g id="a_Node000027"><a xlink:href="classSimulation_1_1SimulationUnit.html#ac4417bd6943588aa09a442f6b89e388f" target="_top" xlink:title=" ">
<polygon fill="white" stroke="#666666" points="466.5,-104.44 335,-104.44 335,-75.44 466.5,-75.44 466.5,-104.44"/>
<text xml:space="preserve" text-anchor="start" x="343" y="-90.94" font-family="Helvetica,sans-Serif" font-size="10.00">Simulation::SimulationUnit</text>
<text xml:space="preserve" text-anchor="middle" x="400.75" y="-80.44" font-family="Helvetica,sans-Serif" font-size="10.00">::updateMCHydro</text>
</a>
</g>
</g>
<!-- Node1&#45;&gt;Node27 -->
<g id="edge30_Node000001_Node000027" class="edge">
<title>Node1&#45;&gt;Node27</title>
<g id="a_edge30_Node000001_Node000027"><a xlink:title=" ">
<path fill="none" stroke="#63b8ff" d="M68.29,-321.15C73.49,-279.7 94.36,-162.01 167.5,-109.94 212.06,-78.22 274.31,-74.42 323.15,-77.9"/>
<polygon fill="#63b8ff" stroke="#63b8ff" points="322.85,-81.39 333.11,-78.74 323.44,-74.41 322.85,-81.39"/>
</a>
</g>
</g>
<!-- Node28 -->
<g id="Node000028" class="node">
<title>Node28</title>
<g id="a_Node000028"><a xlink:href="classSimulation_1_1SimulationUnit.html#a325bd66b0afbb76176a6f8c607d9902b" target="_top" xlink:title=" ">
<polygon fill="white" stroke="#666666" points="466.5,-57.44 335,-57.44 335,-28.44 466.5,-28.44 466.5,-57.44"/>
<text xml:space="preserve" text-anchor="start" x="343" y="-43.94" font-family="Helvetica,sans-Serif" font-size="10.00">Simulation::SimulationUnit</text>
<text xml:space="preserve" text-anchor="middle" x="400.75" y="-33.44" font-family="Helvetica,sans-Serif" font-size="10.00">::updateScalarHydro</text>
</a>
</g>
</g>
<!-- Node1&#45;&gt;Node28 -->
<g id="edge31_Node000001_Node000028" class="edge">
<title>Node1&#45;&gt;Node28</title>
<g id="a_edge31_Node000001_Node000028"><a xlink:title=" ">
<path fill="none" stroke="#63b8ff" d="M66.07,-321.09C64.62,-269.27 67.61,-95.73 167.5,-22.94 222.96,17.47 306.84,-4.43 357.16,-23.82"/>
<polygon fill="#63b8ff" stroke="#63b8ff" points="355.68,-27 366.27,-27.46 358.28,-20.5 355.68,-27"/>
</a>
</g>
</g>
<!-- Node4 -->
<g id="Node000004" class="node">
<title>Node4</title>
<g id="a_Node000004"><a xlink:href="classSimulation_1_1SimulationUnit.html#a96e8f3fbde370c918a3710b0b910cd42" target="_top" xlink:title=" ">
<polygon fill="white" stroke="#666666" points="466.5,-679.44 335,-679.44 335,-650.44 466.5,-650.44 466.5,-679.44"/>
<text xml:space="preserve" text-anchor="start" x="343" y="-665.94" font-family="Helvetica,sans-Serif" font-size="10.00">Simulation::SimulationUnit</text>
<text xml:space="preserve" text-anchor="middle" x="400.75" y="-655.44" font-family="Helvetica,sans-Serif" font-size="10.00">::post_cycle</text>
</a>
</g>
</g>
<!-- Node3&#45;&gt;Node4 -->
<g id="edge3_Node000003_Node000004" class="edge">
<title>Node3&#45;&gt;Node4</title>
<g id="a_edge3_Node000003_Node000004"><a xlink:title=" ">
<path fill="none" stroke="#63b8ff" d="M299.18,-650.97C307.13,-652.07 315.29,-653.21 323.38,-654.33"/>
<polygon fill="#63b8ff" stroke="#63b8ff" points="322.84,-657.79 333.23,-655.7 323.81,-650.86 322.84,-657.79"/>
</a>
</g>
</g>
<!-- Node13 -->
<g id="Node000013" class="node">
<title>Node13</title>
<g id="a_Node000013"><a xlink:href="classSimulation_1_1SimulationUnit.html#ad984b5d95455d6db475d8b6e20077a0c" target="_top" xlink:title=" ">
<polygon fill="white" stroke="#666666" points="466.5,-632.44 335,-632.44 335,-603.44 466.5,-603.44 466.5,-632.44"/>
<text xml:space="preserve" text-anchor="start" x="343" y="-618.94" font-family="Helvetica,sans-Serif" font-size="10.00">Simulation::SimulationUnit</text>
<text xml:space="preserve" text-anchor="middle" x="400.75" y="-608.44" font-family="Helvetica,sans-Serif" font-size="10.00">::pre_cycle</text>
</a>
</g>
</g>
<!-- Node3&#45;&gt;Node13 -->
<g id="edge13_Node000003_Node000013" class="edge">
<title>Node3&#45;&gt;Node13</title>
<g id="a_edge13_Node000003_Node000013"><a xlink:title=" ">
<path fill="none" stroke="#63b8ff" d="M299.18,-632.53C307.13,-631.38 315.29,-630.19 323.38,-629.02"/>
<polygon fill="#63b8ff" stroke="#63b8ff" points="323.84,-632.49 333.23,-627.59 322.83,-625.56 323.84,-632.49"/>
</a>
</g>
</g>
<!-- Node5 -->
<g id="Node000005" class="node">
<title>Node5</title>
<g id="a_Node000005"><a xlink:href="classMC_1_1ParticlesContainer.html#a8e95993fb1287c04427780d6372be565" target="_top" xlink:title="Insert particle buffer into the main container.">
<polygon fill="white" stroke="#666666" points="635.5,-749.44 516.75,-749.44 516.75,-720.44 635.5,-720.44 635.5,-749.44"/>
<text xml:space="preserve" text-anchor="start" x="524.75" y="-735.94" font-family="Helvetica,sans-Serif" font-size="10.00">MC::ParticlesContainer</text>
<text xml:space="preserve" text-anchor="middle" x="576.12" y="-725.44" font-family="Helvetica,sans-Serif" font-size="10.00">::merge_buffer</text>
</a>
</g>
</g>
<!-- Node4&#45;&gt;Node5 -->
<g id="edge4_Node000004_Node000005" class="edge">
<title>Node4&#45;&gt;Node5</title>
<g id="a_edge4_Node000004_Node000005"><a xlink:title=" ">
<path fill="none" stroke="#63b8ff" d="M430.85,-679.75C450.74,-689.56 477.86,-702.34 502.5,-711.94 506.3,-713.42 510.23,-714.88 514.22,-716.3"/>
<polygon fill="#63b8ff" stroke="#63b8ff" points="512.8,-719.51 523.39,-719.46 515.07,-712.89 512.8,-719.51"/>
</a>
</g>
</g>
<!-- Node8 -->
<g id="Node000008" class="node">
<title>Node8</title>
<g id="a_Node000008"><a xlink:href="classSimulation_1_1SimulationUnit.html#ae2077067788b0cb0535c62933724a1cf" target="_top" xlink:title=" ">
<polygon fill="white" stroke="#666666" points="641.88,-702.44 510.38,-702.44 510.38,-673.44 641.88,-673.44 641.88,-702.44"/>
<text xml:space="preserve" text-anchor="start" x="518.38" y="-688.94" font-family="Helvetica,sans-Serif" font-size="10.00">Simulation::SimulationUnit</text>
<text xml:space="preserve" text-anchor="middle" x="576.12" y="-678.44" font-family="Helvetica,sans-Serif" font-size="10.00">::scatter_contribute</text>
</a>
</g>
</g>
<!-- Node4&#45;&gt;Node8 -->
<g id="edge7_Node000004_Node000008" class="edge">
<title>Node4&#45;&gt;Node8</title>
<g id="a_edge7_Node000004_Node000008"><a xlink:title=" ">
<path fill="none" stroke="#63b8ff" d="M466.8,-673.57C477.17,-674.95 487.99,-676.38 498.6,-677.79"/>
<polygon fill="#63b8ff" stroke="#63b8ff" points="498.12,-681.26 508.5,-679.11 499.04,-674.32 498.12,-681.26"/>
</a>
</g>
</g>
<!-- Node10 -->
<g id="Node000010" class="node">
<title>Node10</title>
<g id="a_Node000010"><a xlink:href="classSimulation_1_1SimulationUnit.html#ac396f393b4cf318b38364c5067254c80" target="_top" xlink:title=" ">
<polygon fill="white" stroke="#666666" points="647.88,-655.44 504.38,-655.44 504.38,-626.44 647.88,-626.44 647.88,-655.44"/>
<text xml:space="preserve" text-anchor="start" x="512.38" y="-641.94" font-family="Helvetica,sans-Serif" font-size="10.00">Simulation::SimulationUnit</text>
<text xml:space="preserve" text-anchor="middle" x="576.12" y="-631.44" font-family="Helvetica,sans-Serif" font-size="10.00">::set_kernel_contribs_to_host</text>
</a>
</g>
</g>
<!-- Node4&#45;&gt;Node10 -->
<g id="edge9_Node000004_Node000010" class="edge">
<title>Node4&#45;&gt;Node10</title>
<g id="a_edge9_Node000004_Node000010"><a xlink:title=" ">
<path fill="none" stroke="#63b8ff" d="M466.8,-655.94C475.22,-654.77 483.93,-653.57 492.58,-652.37"/>
<polygon fill="#63b8ff" stroke="#63b8ff" points="492.97,-655.85 502.4,-651.01 492.01,-648.92 492.97,-655.85"/>
</a>
</g>
</g>
<!-- Node11 -->
<g id="Node000011" class="node">
<title>Node11</title>
<g id="a_Node000011"><a xlink:href="classMC_1_1ParticlesContainer.html#a0047f4c96b02ae4aeb9ebd8963129687" target="_top" xlink:title="Update the number of non&#45;idle particle and remove if total number exceeds threshold May call : remove...">
<polygon fill="white" stroke="#666666" points="649.75,-608.44 502.5,-608.44 502.5,-579.44 649.75,-579.44 649.75,-608.44"/>
<text xml:space="preserve" text-anchor="start" x="510.5" y="-594.94" font-family="Helvetica,sans-Serif" font-size="10.00">MC::ParticlesContainer</text>
<text xml:space="preserve" text-anchor="middle" x="576.12" y="-584.44" font-family="Helvetica,sans-Serif" font-size="10.00">::update_and_remove_inactive</text>
</a>
</g>
</g>
<!-- Node4&#45;&gt;Node11 -->
<g id="edge10_Node000004_Node000011" class="edge">
<title>Node4&#45;&gt;Node11</title>
<g id="a_edge10_Node000004_Node000011"><a xlink:title=" ">
<path fill="none" stroke="#63b8ff" d="M448.32,-649.97C454.53,-647.52 460.74,-644.83 466.5,-641.94 483.69,-633.33 485.21,-626.37 502.5,-617.94 506.01,-616.23 509.67,-614.6 513.4,-613.05"/>
<polygon fill="#63b8ff" stroke="#63b8ff" points="514.58,-616.34 522.62,-609.44 512.03,-609.82 514.58,-616.34"/>
</a>
</g>
</g>
<!-- Node6 -->
<g id="Node000006" class="node">
<title>Node6</title>
<g id="a_Node000006"><a xlink:href="classMC_1_1ParticlesContainer.html#a57fa06d3225acf04522e3fc2993847f0" target="_top" xlink:title=" ">
<polygon fill="white" stroke="#666666" points="812.38,-768.44 693.62,-768.44 693.62,-739.44 812.38,-739.44 812.38,-768.44"/>
<text xml:space="preserve" text-anchor="start" x="701.62" y="-754.94" font-family="Helvetica,sans-Serif" font-size="10.00">MC::ParticlesContainer</text>
<text xml:space="preserve" text-anchor="middle" x="753" y="-744.44" font-family="Helvetica,sans-Serif" font-size="10.00">::__allocate_buffer__</text>
</a>
</g>
</g>
<!-- Node5&#45;&gt;Node6 -->
<g id="edge5_Node000005_Node000006" class="edge">
<title>Node5&#45;&gt;Node6</title>
<g id="a_edge5_Node000005_Node000006"><a xlink:title=" ">
<path fill="none" stroke="#63b8ff" d="M635.84,-741.32C650.69,-742.94 666.79,-744.69 682.13,-746.35"/>
<polygon fill="#63b8ff" stroke="#63b8ff" points="681.32,-749.78 691.64,-747.39 682.07,-742.83 681.32,-749.78"/>
</a>
</g>
</g>
<!-- Node7 -->
<g id="Node000007" class="node">
<title>Node7</title>
<g id="a_Node000007"><a xlink:href="classMC_1_1ParticlesContainer.html#a4fc94ae525191a5d034dce4866986c1e" target="_top" xlink:title=" ">
<polygon fill="white" stroke="#666666" points="975,-676.44 856.25,-676.44 856.25,-647.44 975,-647.44 975,-676.44"/>
<text xml:space="preserve" text-anchor="start" x="864.25" y="-662.94" font-family="Helvetica,sans-Serif" font-size="10.00">MC::ParticlesContainer</text>
<text xml:space="preserve" text-anchor="middle" x="915.62" y="-652.44" font-family="Helvetica,sans-Serif" font-size="10.00">::_resize</text>
</a>
</g>
</g>
<!-- Node5&#45;&gt;Node7 -->
<g id="edge6_Node000005_Node000007" class="edge">
<title>Node5&#45;&gt;Node7</title>
<g id="a_edge6_Node000005_Node000007"><a xlink:title=" ">
<path fill="none" stroke="#63b8ff" d="M635.54,-726.84C685.08,-719.44 757.82,-707.32 820.25,-691.94 833.55,-688.67 847.72,-684.53 860.92,-680.37"/>
<polygon fill="#63b8ff" stroke="#63b8ff" points="861.85,-683.75 870.3,-677.36 859.71,-677.08 861.85,-683.75"/>
</a>
</g>
</g>
<!-- Node9 -->
<g id="Node000009" class="node">
<title>Node9</title>
<g id="a_Node000009"><a xlink:href="classSimulation_1_1SimulationUnit.html#a9ea90cab13d8259f026f57baad1c989f" target="_top" xlink:title=" ">
<polygon fill="white" stroke="#666666" points="818.75,-682.44 687.25,-682.44 687.25,-653.44 818.75,-653.44 818.75,-682.44"/>
<text xml:space="preserve" text-anchor="start" x="695.25" y="-668.94" font-family="Helvetica,sans-Serif" font-size="10.00">Simulation::SimulationUnit</text>
<text xml:space="preserve" text-anchor="middle" x="753" y="-658.44" font-family="Helvetica,sans-Serif" font-size="10.00">::get_kernel_contribution</text>
</a>
</g>
</g>
<!-- Node8&#45;&gt;Node9 -->
<g id="edge8_Node000008_Node000009" class="edge">
<title>Node8&#45;&gt;Node9</title>
<g id="a_edge8_Node000008_Node000009"><a xlink:title=" ">
<path fill="none" stroke="#63b8ff" d="M642.24,-680.5C653.05,-679.26 664.35,-677.97 675.41,-676.7"/>
<polygon fill="#63b8ff" stroke="#63b8ff" points="675.79,-680.18 685.32,-675.57 674.99,-673.23 675.79,-680.18"/>
</a>
</g>
</g>
<!-- Node12 -->
<g id="Node000012" class="node">
<title>Node12</title>
<g id="a_Node000012"><a xlink:href="classMC_1_1ParticlesContainer.html#a57353f823ed074869300f29deb5c50b2" target="_top" xlink:title="Removes inactive particles from the container.">
<polygon fill="white" stroke="#666666" points="820.25,-631.44 685.75,-631.44 685.75,-602.44 820.25,-602.44 820.25,-631.44"/>
<text xml:space="preserve" text-anchor="start" x="693.75" y="-617.94" font-family="Helvetica,sans-Serif" font-size="10.00">MC::ParticlesContainer</text>
<text xml:space="preserve" text-anchor="middle" x="753" y="-607.44" font-family="Helvetica,sans-Serif" font-size="10.00">::remove_inactive_particles</text>
</a>
</g>
</g>
<!-- Node11&#45;&gt;Node12 -->
<g id="edge11_Node000011_Node000012" class="edge">
<title>Node11&#45;&gt;Node12</title>
<g id="a_edge11_Node000011_Node000012"><a xlink:title=" ">
<path fill="none" stroke="#63b8ff" d="M650.02,-603.53C657.98,-604.58 666.11,-605.65 674.13,-606.7"/>
<polygon fill="#63b8ff" stroke="#63b8ff" points="673.5,-610.15 683.87,-607.98 674.41,-603.21 673.5,-610.15"/>
</a>
</g>
</g>
<!-- Node12&#45;&gt;Node7 -->
<g id="edge12_Node000012_Node000007" class="edge">
<title>Node12&#45;&gt;Node7</title>
<g id="a_edge12_Node000012_Node000007"><a xlink:title=" ">
<path fill="none" stroke="#63b8ff" d="M807.49,-631.93C821.23,-635.78 836.16,-639.96 850.39,-643.95"/>
<polygon fill="#63b8ff" stroke="#63b8ff" points="849.07,-647.21 859.64,-646.54 850.96,-640.47 849.07,-647.21"/>
</a>
</g>
</g>
<!-- Node20 -->
<g id="Node000020" class="node">
<title>Node20</title>
<g id="a_Node000020"><a xlink:href="classSimulation_1_1SimulationUnit.html#a4295618336e99606be4e87b31feb848a" target="_top" xlink:title=" ">
<polygon fill="white" stroke="#666666" points="466.5,-374.44 335,-374.44 335,-345.44 466.5,-345.44 466.5,-374.44"/>
<text xml:space="preserve" text-anchor="start" x="343" y="-360.94" font-family="Helvetica,sans-Serif" font-size="10.00">Simulation::SimulationUnit</text>
<text xml:space="preserve" text-anchor="middle" x="400.75" y="-350.44" font-family="Helvetica,sans-Serif" font-size="10.00">::getkernel_concentration</text>
</a>
</g>
</g>
<!-- Node19&#45;&gt;Node20 -->
<g id="edge20_Node000019_Node000020" class="edge">
<title>Node19&#45;&gt;Node20</title>
<g id="a_edge20_Node000019_Node000020"><a xlink:title=" ">
<path fill="none" stroke="#63b8ff" d="M299.18,-359.94C307.13,-359.94 315.29,-359.94 323.38,-359.94"/>
<polygon fill="#63b8ff" stroke="#63b8ff" points="323.22,-363.44 333.22,-359.94 323.22,-356.44 323.22,-363.44"/>
</a>
</g>
</g>
<!-- Node26&#45;&gt;Node27 -->
<g id="edge27_Node000026_Node000027" class="edge">
<title>Node26&#45;&gt;Node27</title>
<g id="a_edge27_Node000026_Node000027"><a xlink:title=" ">
<path fill="none" stroke="#63b8ff" d="M291.67,-61.86C304.43,-65.18 318.09,-68.73 331.25,-72.15"/>
<polygon fill="#63b8ff" stroke="#63b8ff" points="330.13,-75.47 340.69,-74.6 331.89,-68.7 330.13,-75.47"/>
</a>
</g>
</g>
<!-- Node26&#45;&gt;Node28 -->
<g id="edge28_Node000026_Node000028" class="edge">
<title>Node26&#45;&gt;Node28</title>
<g id="a_edge28_Node000026_Node000028"><a xlink:title=" ">
<path fill="none" stroke="#63b8ff" d="M299.18,-45.37C307.13,-45.18 315.29,-44.99 323.38,-44.79"/>
<polygon fill="#63b8ff" stroke="#63b8ff" points="323.31,-48.29 333.22,-44.55 323.14,-41.29 323.31,-48.29"/>
</a>
</g>
</g>
<!-- Node28&#45;&gt;Node22 -->
<g id="edge29_Node000028_Node000022" class="edge">
<title>Node28&#45;&gt;Node22</title>
<g id="a_edge29_Node000028_Node000022"><a xlink:title=" ">
<path fill="none" stroke="#63b8ff" d="M447.91,-57.86C454.32,-60.55 460.69,-63.59 466.5,-66.94 498.98,-85.69 531.47,-114.21 552.33,-134.1"/>
<polygon fill="#63b8ff" stroke="#63b8ff" points="549.83,-136.55 559.44,-141 554.7,-131.52 549.83,-136.55"/>
</a>
</g>
</g>
</g>
</svg>

<g id="navigator" transform="translate(0 0)" fill="#404254">
  <rect fill="#f2f5e9" fill-opacity="0.5" stroke="#606060" stroke-width=".5" x="0" y="0" width="60" height="60"/>
  <use id="zoomplus" xlink:href="#zoomPlus" x="17" y="9" onmousedown="handleZoom(evt,'in')"/>
  <use id="zoomminus" xlink:href="#zoomMin" x="42" y="9" onmousedown="handleZoom(evt,'out')"/>
  <use id="reset" xlink:href="#resetDef" x="30" y="36" onmousedown="handleReset()"/>
   <use id="arrowup" xlink:href="#arrowUp" x="0" y="0" onmousedown="handlePan(0,-1)"/>
  <use id="arrowright" xlink:href="#arrowRight" x="0" y="0" onmousedown="handlePan(1,0)"/>
  <use id="arrowdown" xlink:href="#arrowDown" x="0" y="0" onmousedown="handlePan(0,1)"/>
  <use id="arrowleft" xlink:href="#arrowLeft" x="0" y="0" onmousedown="handlePan(-1,0)"/>
</g>
<svg viewBox="0 0 15 15" width="100%" height="30px" preserveAspectRatio="xMaxYMin meet">
 <g id="arrow_out" transform="scale(0.3 0.3)">
  <a xlink:href="classSimulation_1_1SimulationUnit_adc096ee7d35524a8107a3390daa55a1a_cgraph_org.svg" target="_base">
   <rect id="button" ry="5" rx="5" y="6" x="6" height="38" width="38"
        fill="#f2f5e9" fill-opacity="0.5" stroke="#606060" stroke-width="1.0"/>
   <path id="arrow"
     d="M 11.500037,31.436501 C 11.940474,20.09759 22.043105,11.32322 32.158766,21.979434 L 37.068811,17.246167 C 37.068811,17.246167 37.088388,32 37.088388,32 L 22.160133,31.978069 C 22.160133,31.978069 26.997745,27.140456 26.997745,27.140456 C 18.528582,18.264221 13.291696,25.230495 11.500037,31.436501 z"
     style="fill:#404040;"/>
  </a>
 </g>
</svg>

<style type='text/css'>
<![CDATA[
[data-mouse-over-selected='false'] { opacity: 0.7; }
[data-mouse-over-selected='true']  { opacity: 1.0; }
]]>
</style>
<script type="application/ecmascript"><![CDATA[
document.addEventListener('DOMContentLoaded', (event) => {
  highlightEdges();
  highlightAdjacentNodes();
});
]]></script>
</svg>
