<?xml version="1.0" encoding="UTF-8" standalone="no"?>
<!DOCTYPE svg PUBLIC "-//W3C//DTD SVG 1.1//EN"
 "http://www.w3.org/Graphics/SVG/1.1/DTD/svg11.dtd">
<!-- Generated by graphviz version 14.0.1 (0)
 -->
<!-- Title: Simulation::SimulationUnit Pages: 1 -->
<svg width="559pt" height="114pt"
 viewBox="0.00 0.00 559.00 114.00" xmlns="http://www.w3.org/2000/svg" xmlns:xlink="http://www.w3.org/1999/xlink">
<g id="graph0" class="graph" transform="scale(1 1) rotate(0) translate(4 109.75)">
<title>Simulation::SimulationUnit</title>
<!-- Node1 -->
<g id="Node000001" class="node">
<title>Node1</title>
<g id="a_Node000001"><a xlink:title=" ">
<polygon fill="#999999" stroke="#666666" points="379.25,-65.75 247.75,-65.75 247.75,-47.25 379.25,-47.25 379.25,-65.75"/>
<text xml:space="preserve" text-anchor="middle" x="313.5" y="-52.25" font-family="Helvetica,sans-Serif" font-size="10.00">Simulation::SimulationUnit</text>
</a>
</g>
</g>
<!-- Node2 -->
<g id="Node000002" class="node">
<title>Node2</title>
<g id="a_Node000002"><a xlink:href="classSimulation_1_1Getter.html" target="_top" xlink:title=" ">
<polygon fill="white" stroke="#666666" points="550.5,-65.75 455.75,-65.75 455.75,-47.25 550.5,-47.25 550.5,-65.75"/>
<text xml:space="preserve" text-anchor="middle" x="503.12" y="-52.25" font-family="Helvetica,sans-Serif" font-size="10.00">Simulation::Getter</text>
</a>
</g>
</g>
<!-- Node1&#45;&gt;Node2 -->
<g id="edge2_Node000002_Node000001" class="edge">
<title>Node1&#45;&gt;Node2</title>
<g id="a_edge2_Node000002_Node000001"><a xlink:title=" ">
<path fill="none" stroke="#9a32cd" stroke-dasharray="5,2" d="M390.89,-56.5C412.77,-56.5 435.96,-56.5 455.47,-56.5"/>
<polygon fill="#9a32cd" stroke="#9a32cd" points="391.11,-53 381.11,-56.5 391.11,-60 391.11,-53"/>
</a>
</g>
<text xml:space="preserve" text-anchor="start" x="412.25" y="-60.5" font-family="Helvetica,sans-Serif" font-size="10.00" fill="grey">a_</text>
</g>
<!-- Node2&#45;&gt;Node1 -->
<g id="edge1_Node000001_Node000002" class="edge">
<title>Node2&#45;&gt;Node1</title>
<g id="a_edge1_Node000001_Node000002"><a xlink:title=" ">
<path fill="none" stroke="#9a32cd" stroke-dasharray="5,2" d="M463.83,-43.6C455.34,-41.27 446.32,-39.21 437.75,-38 406.36,-33.58 370.53,-40.28 345.63,-46.81"/>
<polygon fill="#9a32cd" stroke="#9a32cd" points="462.58,-46.88 473.16,-46.33 464.54,-40.16 462.58,-46.88"/>
</a>
</g>
<text xml:space="preserve" text-anchor="start" x="400.25" y="-42" font-family="Helvetica,sans-Serif" font-size="10.00" fill="grey">accesor</text>
</g>
<!-- Node3 -->
<g id="Node000003" class="node">
<title>Node3</title>
<g id="a_Node000003"><a xlink:href="structSimulation_1_1Dimensions.html" target="_top" xlink:title=" ">
<polygon fill="white" stroke="#666666" points="141.25,-105.75 21.75,-105.75 21.75,-87.25 141.25,-87.25 141.25,-105.75"/>
<text xml:space="preserve" text-anchor="middle" x="81.5" y="-92.25" font-family="Helvetica,sans-Serif" font-size="10.00">Simulation::Dimensions</text>
</a>
</g>
</g>
<!-- Node3&#45;&gt;Node1 -->
<g id="edge3_Node000001_Node000003" class="edge">
<title>Node3&#45;&gt;Node1</title>
<g id="a_edge3_Node000001_Node000003"><a xlink:title=" ">
<path fill="none" stroke="#9a32cd" stroke-dasharray="5,2" d="M152.75,-86.97C177.18,-83.4 204.73,-79.09 229.75,-74.5 243.05,-72.06 257.48,-69.05 270.51,-66.19"/>
<polygon fill="#9a32cd" stroke="#9a32cd" points="152.3,-83.5 142.9,-88.39 153.3,-90.42 152.3,-83.5"/>
</a>
</g>
<text xml:space="preserve" text-anchor="start" x="194.88" y="-86.65" font-family="Helvetica,sans-Serif" font-size="10.00" fill="grey">dims</text>
</g>
<!-- Node4 -->
<g id="Node000004" class="node">
<title>Node4</title>
<g id="a_Node000004"><a xlink:href="classSimulation_1_1Feed_1_1SimulationFeed.html" target="_top" xlink:title=" ">
<polygon fill="white" stroke="#666666" points="163,-65.75 0,-65.75 0,-47.25 163,-47.25 163,-65.75"/>
<text xml:space="preserve" text-anchor="middle" x="81.5" y="-52.25" font-family="Helvetica,sans-Serif" font-size="10.00">Simulation::Feed::SimulationFeed</text>
</a>
</g>
</g>
<!-- Node4&#45;&gt;Node1 -->
<g id="edge4_Node000001_Node000004" class="edge">
<title>Node4&#45;&gt;Node1</title>
<g id="a_edge4_Node000001_Node000004"><a xlink:title=" ">
<path fill="none" stroke="#9a32cd" stroke-dasharray="5,2" d="M174.72,-56.5C199.08,-56.5 224.87,-56.5 247.47,-56.5"/>
<polygon fill="#9a32cd" stroke="#9a32cd" points="174.78,-53 164.78,-56.5 174.78,-60 174.78,-53"/>
</a>
</g>
<text xml:space="preserve" text-anchor="start" x="196" y="-60.5" font-family="Helvetica,sans-Serif" font-size="10.00" fill="grey">feed</text>
</g>
<!-- Node5 -->
<g id="Node000005" class="node">
<title>Node5</title>
<g id="a_Node000005"><a xlink:href="classSimulation_1_1MassTransfer_1_1MassTransferModel.html" target="_top" xlink:title=" ">
<polygon fill="white" stroke="#666666" points="145,-29 18,-29 18,0 145,0 145,-29"/>
<text xml:space="preserve" text-anchor="start" x="26" y="-15.5" font-family="Helvetica,sans-Serif" font-size="10.00">Simulation::MassTransfer</text>
<text xml:space="preserve" text-anchor="middle" x="81.5" y="-5" font-family="Helvetica,sans-Serif" font-size="10.00">::MassTransferModel</text>
</a>
</g>
</g>
<!-- Node5&#45;&gt;Node1 -->
<g id="edge5_Node000001_Node000005" class="edge">
<title>Node5&#45;&gt;Node1</title>
<g id="a_edge5_Node000001_Node000005"><a xlink:title=" ">
<path fill="none" stroke="#9a32cd" stroke-dasharray="5,2" d="M156.71,-23.89C180.16,-27.25 206.11,-31.36 229.75,-36 245.29,-39.05 262.3,-43.13 276.83,-46.85"/>
<polygon fill="#9a32cd" stroke="#9a32cd" points="157.31,-20.44 146.92,-22.52 156.34,-27.37 157.31,-20.44"/>
</a>
</g>
<text xml:space="preserve" text-anchor="start" x="184" y="-40" font-family="Helvetica,sans-Serif" font-size="10.00" fill="grey">mt_model</text>
</g>
</g>
</svg>
