<?xml version="1.0" encoding="UTF-8" standalone="no"?>
<!DOCTYPE svg PUBLIC "-//W3C//DTD SVG 1.1//EN"
 "http://www.w3.org/Graphics/SVG/1.1/DTD/svg11.dtd">
<!-- Generated by graphviz version 14.0.1 (0)
 -->
<!-- Title: Simulation::SimulationUnit::cycleProcess Pages: 1 -->
<svg width="830pt" height="219pt"
 viewBox="0.00 0.00 830.00 219.00" xmlns="http://www.w3.org/2000/svg" xmlns:xlink="http://www.w3.org/1999/xlink">
<g id="graph0" class="graph" transform="scale(1 1) rotate(0) translate(4 215)">
<title>Simulation::SimulationUnit::cycleProcess</title>
<!-- Node1 -->
<g id="Node000001" class="node">
<title>Node1</title>
<g id="a_Node000001"><a xlink:title=" ">
<polygon fill="#999999" stroke="#666666" points="131.5,-87 0,-87 0,-58 131.5,-58 131.5,-87"/>
<text xml:space="preserve" text-anchor="start" x="8" y="-73.5" font-family="Helvetica,sans-Serif" font-size="10.00">Simulation::SimulationUnit</text>
<text xml:space="preserve" text-anchor="middle" x="65.75" y="-63" font-family="Helvetica,sans-Serif" font-size="10.00">::cycleProcess</text>
</a>
</g>
</g>
<!-- Node2 -->
<g id="Node000002" class="node">
<title>Node2</title>
<g id="a_Node000002"><a xlink:href="classSimulation_1_1SimulationUnit.html#a96e8f3fbde370c918a3710b0b910cd42" target="_top" xlink:title=" ">
<polygon fill="white" stroke="#666666" points="299,-127 167.5,-127 167.5,-98 299,-98 299,-127"/>
<text xml:space="preserve" text-anchor="start" x="175.5" y="-113.5" font-family="Helvetica,sans-Serif" font-size="10.00">Simulation::SimulationUnit</text>
<text xml:space="preserve" text-anchor="middle" x="233.25" y="-103" font-family="Helvetica,sans-Serif" font-size="10.00">::post_cycle</text>
</a>
</g>
</g>
<!-- Node1&#45;&gt;Node2 -->
<g id="edge1_Node000001_Node000002" class="edge">
<title>Node1&#45;&gt;Node2</title>
<g id="a_edge1_Node000001_Node000002"><a xlink:title=" ">
<path fill="none" stroke="#63b8ff" d="M128.38,-87.39C138.43,-89.83 148.93,-92.36 159.23,-94.85"/>
<polygon fill="#63b8ff" stroke="#63b8ff" points="158.28,-98.22 168.83,-97.17 159.93,-91.42 158.28,-98.22"/>
</a>
</g>
</g>
<!-- Node10 -->
<g id="Node000010" class="node">
<title>Node10</title>
<g id="a_Node000010"><a xlink:href="classSimulation_1_1SimulationUnit.html#ad984b5d95455d6db475d8b6e20077a0c" target="_top" xlink:title=" ">
<polygon fill="white" stroke="#666666" points="299,-55 167.5,-55 167.5,-26 299,-26 299,-55"/>
<text xml:space="preserve" text-anchor="start" x="175.5" y="-41.5" font-family="Helvetica,sans-Serif" font-size="10.00">Simulation::SimulationUnit</text>
<text xml:space="preserve" text-anchor="middle" x="233.25" y="-31" font-family="Helvetica,sans-Serif" font-size="10.00">::pre_cycle</text>
</a>
</g>
</g>
<!-- Node1&#45;&gt;Node10 -->
<g id="edge10_Node000001_Node000010" class="edge">
<title>Node1&#45;&gt;Node10</title>
<g id="a_edge10_Node000001_Node000010"><a xlink:title=" ">
<path fill="none" stroke="#63b8ff" d="M131.68,-59.94C139.72,-58.39 147.98,-56.79 156.16,-55.21"/>
<polygon fill="#63b8ff" stroke="#63b8ff" points="156.59,-58.69 165.74,-53.36 155.26,-51.82 156.59,-58.69"/>
</a>
</g>
</g>
<!-- Node3 -->
<g id="Node000003" class="node">
<title>Node3</title>
<g id="a_Node000003"><a xlink:href="classMC_1_1ParticlesContainer.html#a8e95993fb1287c04427780d6372be565" target="_top" xlink:title="Insert particle buffer into the main container.">
<polygon fill="white" stroke="#666666" points="468,-135 349.25,-135 349.25,-106 468,-106 468,-135"/>
<text xml:space="preserve" text-anchor="start" x="357.25" y="-121.5" font-family="Helvetica,sans-Serif" font-size="10.00">MC::ParticlesContainer</text>
<text xml:space="preserve" text-anchor="middle" x="408.62" y="-111" font-family="Helvetica,sans-Serif" font-size="10.00">::merge_buffer</text>
</a>
</g>
</g>
<!-- Node2&#45;&gt;Node3 -->
<g id="edge2_Node000002_Node000003" class="edge">
<title>Node2&#45;&gt;Node3</title>
<g id="a_edge2_Node000002_Node000003"><a xlink:title=" ">
<path fill="none" stroke="#63b8ff" d="M299.3,-115.5C311.73,-116.08 324.8,-116.68 337.39,-117.26"/>
<polygon fill="#63b8ff" stroke="#63b8ff" points="337.12,-120.75 347.27,-117.71 337.44,-113.76 337.12,-120.75"/>
</a>
</g>
</g>
<!-- Node6 -->
<g id="Node000006" class="node">
<title>Node6</title>
<g id="a_Node000006"><a xlink:href="classSimulation_1_1SimulationUnit.html#ae2077067788b0cb0535c62933724a1cf" target="_top" xlink:title=" ">
<polygon fill="white" stroke="#666666" points="474.38,-88 342.88,-88 342.88,-59 474.38,-59 474.38,-88"/>
<text xml:space="preserve" text-anchor="start" x="350.88" y="-74.5" font-family="Helvetica,sans-Serif" font-size="10.00">Simulation::SimulationUnit</text>
<text xml:space="preserve" text-anchor="middle" x="408.62" y="-64" font-family="Helvetica,sans-Serif" font-size="10.00">::scatter_contribute</text>
</a>
</g>
</g>
<!-- Node2&#45;&gt;Node6 -->
<g id="edge5_Node000002_Node000006" class="edge">
<title>Node2&#45;&gt;Node6</title>
<g id="a_edge5_Node000002_Node000006"><a xlink:title=" ">
<path fill="none" stroke="#63b8ff" d="M299.3,-97.87C309.78,-95.51 320.72,-93.05 331.44,-90.64"/>
<polygon fill="#63b8ff" stroke="#63b8ff" points="332.03,-94.09 341.02,-88.48 330.5,-87.26 332.03,-94.09"/>
</a>
</g>
</g>
<!-- Node8 -->
<g id="Node000008" class="node">
<title>Node8</title>
<g id="a_Node000008"><a xlink:href="classMC_1_1ParticlesContainer.html#a0047f4c96b02ae4aeb9ebd8963129687" target="_top" xlink:title="Update the number of non&#45;idle particle and remove if total number exceeds threshold May call : remove...">
<polygon fill="white" stroke="#666666" points="482.25,-201 335,-201 335,-172 482.25,-172 482.25,-201"/>
<text xml:space="preserve" text-anchor="start" x="343" y="-187.5" font-family="Helvetica,sans-Serif" font-size="10.00">MC::ParticlesContainer</text>
<text xml:space="preserve" text-anchor="middle" x="408.62" y="-177" font-family="Helvetica,sans-Serif" font-size="10.00">::update_and_remove_inactive</text>
</a>
</g>
</g>
<!-- Node2&#45;&gt;Node8 -->
<g id="edge7_Node000002_Node000008" class="edge">
<title>Node2&#45;&gt;Node8</title>
<g id="a_edge7_Node000002_Node000008"><a xlink:title=" ">
<path fill="none" stroke="#63b8ff" d="M269.34,-127.48C296.12,-138.91 333.25,-154.76 362.29,-167.15"/>
<polygon fill="#63b8ff" stroke="#63b8ff" points="360.63,-170.25 371.2,-170.95 363.38,-163.81 360.63,-170.25"/>
</a>
</g>
</g>
<!-- Node4 -->
<g id="Node000004" class="node">
<title>Node4</title>
<g id="a_Node000004"><a xlink:href="classMC_1_1ParticlesContainer.html#a57fa06d3225acf04522e3fc2993847f0" target="_top" xlink:title=" ">
<polygon fill="white" stroke="#666666" points="644.88,-164 526.12,-164 526.12,-135 644.88,-135 644.88,-164"/>
<text xml:space="preserve" text-anchor="start" x="534.12" y="-150.5" font-family="Helvetica,sans-Serif" font-size="10.00">MC::ParticlesContainer</text>
<text xml:space="preserve" text-anchor="middle" x="585.5" y="-140" font-family="Helvetica,sans-Serif" font-size="10.00">::__allocate_buffer__</text>
</a>
</g>
</g>
<!-- Node3&#45;&gt;Node4 -->
<g id="edge3_Node000003_Node000004" class="edge">
<title>Node3&#45;&gt;Node4</title>
<g id="a_edge3_Node000003_Node000004"><a xlink:title=" ">
<path fill="none" stroke="#63b8ff" d="M468.34,-130.24C483.19,-132.7 499.29,-135.37 514.63,-137.91"/>
<polygon fill="#63b8ff" stroke="#63b8ff" points="513.71,-141.31 524.15,-139.49 514.85,-134.4 513.71,-141.31"/>
</a>
</g>
</g>
<!-- Node5 -->
<g id="Node000005" class="node">
<title>Node5</title>
<g id="a_Node000005"><a xlink:href="classMC_1_1ParticlesContainer.html#a4fc94ae525191a5d034dce4866986c1e" target="_top" xlink:title=" ">
<polygon fill="white" stroke="#666666" points="814.62,-167 695.88,-167 695.88,-138 814.62,-138 814.62,-167"/>
<text xml:space="preserve" text-anchor="start" x="703.88" y="-153.5" font-family="Helvetica,sans-Serif" font-size="10.00">MC::ParticlesContainer</text>
<text xml:space="preserve" text-anchor="middle" x="755.25" y="-143" font-family="Helvetica,sans-Serif" font-size="10.00">::_resize</text>
</a>
</g>
</g>
<!-- Node3&#45;&gt;Node5 -->
<g id="edge4_Node000003_Node000005" class="edge">
<title>Node3&#45;&gt;Node5</title>
<g id="a_edge4_Node000003_Node000005"><a xlink:title=" ">
<path fill="none" stroke="#63b8ff" d="M468.38,-118.25C517.81,-117.24 590.23,-117.83 652.75,-126.5 666.26,-128.37 680.57,-131.38 694.05,-134.7"/>
<polygon fill="#63b8ff" stroke="#63b8ff" points="693.11,-138.07 703.67,-137.16 694.85,-131.29 693.11,-138.07"/>
</a>
</g>
</g>
<!-- Node7 -->
<g id="Node000007" class="node">
<title>Node7</title>
<g id="a_Node000007"><a xlink:href="classSimulation_1_1SimulationUnit.html#af5aeb9c124540ac219001b46b51b74a9" target="_top" xlink:title=" ">
<polygon fill="white" stroke="#666666" points="651.25,-78 519.75,-78 519.75,-49 651.25,-49 651.25,-78"/>
<text xml:space="preserve" text-anchor="start" x="527.75" y="-64.5" font-family="Helvetica,sans-Serif" font-size="10.00">Simulation::SimulationUnit</text>
<text xml:space="preserve" text-anchor="middle" x="585.5" y="-54" font-family="Helvetica,sans-Serif" font-size="10.00">::get_kernel_contribution</text>
</a>
</g>
</g>
<!-- Node6&#45;&gt;Node7 -->
<g id="edge6_Node000006_Node000007" class="edge">
<title>Node6&#45;&gt;Node7</title>
<g id="a_edge6_Node000006_Node000007"><a xlink:title=" ">
<path fill="none" stroke="#63b8ff" d="M474.74,-69.78C485.55,-69.16 496.85,-68.51 507.91,-67.88"/>
<polygon fill="#63b8ff" stroke="#63b8ff" points="508.03,-71.38 517.82,-67.31 507.63,-64.39 508.03,-71.38"/>
</a>
</g>
</g>
<!-- Node9 -->
<g id="Node000009" class="node">
<title>Node9</title>
<g id="a_Node000009"><a xlink:href="classMC_1_1ParticlesContainer.html#a57353f823ed074869300f29deb5c50b2" target="_top" xlink:title="Removes inactive particles from the container.">
<polygon fill="white" stroke="#666666" points="652.75,-211 518.25,-211 518.25,-182 652.75,-182 652.75,-211"/>
<text xml:space="preserve" text-anchor="start" x="526.25" y="-197.5" font-family="Helvetica,sans-Serif" font-size="10.00">MC::ParticlesContainer</text>
<text xml:space="preserve" text-anchor="middle" x="585.5" y="-187" font-family="Helvetica,sans-Serif" font-size="10.00">::remove_inactive_particles</text>
</a>
</g>
</g>
<!-- Node8&#45;&gt;Node9 -->
<g id="edge8_Node000008_Node000009" class="edge">
<title>Node8&#45;&gt;Node9</title>
<g id="a_edge8_Node000008_Node000009"><a xlink:title=" ">
<path fill="none" stroke="#63b8ff" d="M482.52,-190.67C490.48,-191.12 498.61,-191.59 506.63,-192.05"/>
<polygon fill="#63b8ff" stroke="#63b8ff" points="506.17,-195.53 516.36,-192.6 506.57,-188.54 506.17,-195.53"/>
</a>
</g>
</g>
<!-- Node9&#45;&gt;Node5 -->
<g id="edge9_Node000009_Node000005" class="edge">
<title>Node9&#45;&gt;Node5</title>
<g id="a_edge9_Node000009_Node000005"><a xlink:title=" ">
<path fill="none" stroke="#63b8ff" d="M643.29,-181.6C657.15,-177.97 672.12,-174.04 686.44,-170.29"/>
<polygon fill="#63b8ff" stroke="#63b8ff" points="686.98,-173.76 695.77,-167.84 685.21,-166.99 686.98,-173.76"/>
</a>
</g>
</g>
<!-- Node10&#45;&gt;Node10 -->
<g id="edge11_Node000010_Node000010" class="edge">
<title>Node10&#45;&gt;Node10</title>
<g id="a_edge11_Node000010_Node000010"><a xlink:title=" ">
<path fill="none" stroke="#63b8ff" d="M204.06,-55.21C197.02,-64.32 206.75,-73 233.25,-73 247.74,-73 257.22,-70.41 261.68,-66.56"/>
<polygon fill="#63b8ff" stroke="#63b8ff" points="265.16,-66.93 262.34,-56.72 258.18,-66.46 265.16,-66.93"/>
</a>
</g>
</g>
<!-- Node11 -->
<g id="Node000011" class="node">
<title>Node11</title>
<g id="a_Node000011"><a xlink:href="classSimulation_1_1SimulationUnit.html#a1278ad223b0cc8509f68a9f7d995bfd2" target="_top" xlink:title=" ">
<polygon fill="white" stroke="#666666" points="474.38,-41 342.88,-41 342.88,-12 474.38,-12 474.38,-41"/>
<text xml:space="preserve" text-anchor="start" x="350.88" y="-27.5" font-family="Helvetica,sans-Serif" font-size="10.00">Simulation::SimulationUnit</text>
<text xml:space="preserve" text-anchor="middle" x="408.62" y="-17" font-family="Helvetica,sans-Serif" font-size="10.00">::SimulationUnit</text>
</a>
</g>
</g>
<!-- Node10&#45;&gt;Node11 -->
<g id="edge12_Node000010_Node000011" class="edge">
<title>Node10&#45;&gt;Node11</title>
<g id="a_edge12_Node000010_Node000011"><a xlink:title=" ">
<path fill="none" stroke="#63b8ff" d="M299.3,-35.25C309.67,-34.41 320.49,-33.54 331.1,-32.68"/>
<polygon fill="#63b8ff" stroke="#63b8ff" points="331.3,-36.17 340.99,-31.88 330.74,-29.2 331.3,-36.17"/>
</a>
</g>
</g>
<!-- Node11&#45;&gt;Node7 -->
<g id="edge13_Node000011_Node000007" class="edge">
<title>Node11&#45;&gt;Node7</title>
<g id="a_edge13_Node000011_Node000007"><a xlink:title=" ">
<path fill="none" stroke="#63b8ff" d="M474.74,-40.28C485.67,-42.59 497.09,-45.01 508.26,-47.37"/>
<polygon fill="#63b8ff" stroke="#63b8ff" points="507.34,-50.75 517.85,-49.4 508.79,-43.9 507.34,-50.75"/>
</a>
</g>
</g>
<!-- Node12 -->
<g id="Node000012" class="node">
<title>Node12</title>
<g id="a_Node000012"><a xlink:href="classSimulation_1_1SimulationUnit.html#a36fb635150825e63055191740edaba84" target="_top" xlink:title=" ">
<polygon fill="white" stroke="#666666" points="651.25,-31 519.75,-31 519.75,-2 651.25,-2 651.25,-31"/>
<text xml:space="preserve" text-anchor="start" x="527.75" y="-17.5" font-family="Helvetica,sans-Serif" font-size="10.00">Simulation::SimulationUnit</text>
<text xml:space="preserve" text-anchor="middle" x="585.5" y="-7" font-family="Helvetica,sans-Serif" font-size="10.00">::post_init_concentration</text>
</a>
</g>
</g>
<!-- Node11&#45;&gt;Node12 -->
<g id="edge14_Node000011_Node000012" class="edge">
<title>Node11&#45;&gt;Node12</title>
<g id="a_edge14_Node000011_Node000012"><a xlink:title=" ">
<path fill="none" stroke="#63b8ff" d="M474.74,-22.78C485.55,-22.16 496.85,-21.51 507.91,-20.88"/>
<polygon fill="#63b8ff" stroke="#63b8ff" points="508.03,-24.38 517.82,-20.31 507.63,-17.39 508.03,-24.38"/>
</a>
</g>
</g>
<!-- Node13 -->
<g id="Node000013" class="node">
<title>Node13</title>
<g id="a_Node000013"><a xlink:href="namespaceSimulation_1_1impl.html#ab56eb92724f12b4ed6c401939009519c" target="_top" xlink:title=" ">
<polygon fill="white" stroke="#666666" points="813.12,-29 697.38,-29 697.38,0 813.12,0 813.12,-29"/>
<text xml:space="preserve" text-anchor="start" x="705.38" y="-15.5" font-family="Helvetica,sans-Serif" font-size="10.00">Simulation::impl::post</text>
<text xml:space="preserve" text-anchor="middle" x="755.25" y="-5" font-family="Helvetica,sans-Serif" font-size="10.00">_init_concentration_file</text>
</a>
</g>
</g>
<!-- Node12&#45;&gt;Node13 -->
<g id="edge15_Node000012_Node000013" class="edge">
<title>Node12&#45;&gt;Node13</title>
<g id="a_edge15_Node000012_Node000013"><a xlink:title=" ">
<path fill="none" stroke="#63b8ff" d="M651.36,-15.73C662.63,-15.59 674.38,-15.45 685.75,-15.32"/>
<polygon fill="#63b8ff" stroke="#63b8ff" points="685.48,-18.82 695.44,-15.2 685.4,-11.82 685.48,-18.82"/>
</a>
</g>
</g>
<!-- Node14 -->
<g id="Node000014" class="node">
<title>Node14</title>
<g id="a_Node000014"><a xlink:href="namespaceSimulation_1_1impl.html#ae40eba3a10cbceb62fe3e6980dcc193f" target="_top" xlink:title=" ">
<polygon fill="white" stroke="#666666" points="821.75,-76 688.75,-76 688.75,-47 821.75,-47 821.75,-76"/>
<text xml:space="preserve" text-anchor="start" x="696.75" y="-62.5" font-family="Helvetica,sans-Serif" font-size="10.00">Simulation::impl::post</text>
<text xml:space="preserve" text-anchor="middle" x="755.25" y="-52" font-family="Helvetica,sans-Serif" font-size="10.00">_init_concentration_functor</text>
</a>
</g>
</g>
<!-- Node12&#45;&gt;Node14 -->
<g id="edge16_Node000012_Node000014" class="edge">
<title>Node12&#45;&gt;Node14</title>
<g id="a_edge16_Node000012_Node000014"><a xlink:title=" ">
<path fill="none" stroke="#63b8ff" d="M642.36,-31.48C656.85,-35.37 672.61,-39.6 687.6,-43.62"/>
<polygon fill="#63b8ff" stroke="#63b8ff" points="686.32,-46.9 696.89,-46.11 688.14,-40.14 686.32,-46.9"/>
</a>
</g>
</g>
</g>
</svg>
