<?xml version="1.0" encoding="UTF-8" standalone="no"?>
<!DOCTYPE svg PUBLIC "-//W3C//DTD SVG 1.1//EN"
 "http://www.w3.org/Graphics/SVG/1.1/DTD/svg11.dtd">
<!-- Generated by graphviz version 14.0.1 (0)
 -->
<!-- Title: Simulation::ScalarSimulation::n_row Pages: 1 -->
<!--zoomable 280 -->

<svg id="main" version="1.1" xmlns="http://www.w3.org/2000/svg" xmlns:xlink="http://www.w3.org/1999/xlink" xml:space="preserve" onload="init(evt)">

<style type="text/css"><![CDATA[
.node, .edge {opacity: 0.7;}
.node.selected, .edge.selected {opacity: 1;}
.edge:hover path { stroke: red; }
.edge:hover polygon { stroke: red; fill: red; }
]]></style>

<defs>
  <circle id="rim" cx="0" cy="0" r="7"/>
  <circle id="rim2" cx="0" cy="0" r="3.5"/>
  <g id="zoomPlus">
    <use xlink:href="#rim" fill="#404040"><set attributeName="fill" to="#808080" begin="zoomplus.mouseover" end="zoomplus.mouseout"/></use>
    <path d="M-4,0h8M0,-4v8" fill="none" stroke="white" stroke-width="1.5" pointer-events="none"/>
  </g>
  <g id="zoomMin">
    <use xlink:href="#rim" fill="#404040"><set attributeName="fill" to="#808080" begin="zoomminus.mouseover" end="zoomminus.mouseout"/></use>
    <path d="M-4,0h8" fill="none" stroke="white" stroke-width="1.5" pointer-events="none"/>
  </g>
  <g id="arrowUp" transform="translate(30 24)">
    <use xlink:href="#rim"/>
    <path pointer-events="none" fill="none" stroke="white" stroke-width="1.5" d="M0,-3.0v7 M-2.5,-0.5L0,-3.0L2.5,-0.5"/>
  </g>
  <g id="arrowRight" transform="rotate(90) translate(36 -43)">
    <use xlink:href="#rim"/>
    <path pointer-events="none" fill="none" stroke="white" stroke-width="1.5" d="M0,-3.0v7 M-2.5,-0.5L0,-3.0L2.5,-0.5"/>
  </g>
  <g id="arrowDown" transform="rotate(180) translate(-30 -48)">
    <use xlink:href="#rim"/>
    <path pointer-events="none" fill="none" stroke="white" stroke-width="1.5" d="M0,-3.0v7 M-2.5,-0.5L0,-3.0L2.5,-0.5"/>
  </g>
  <g id="arrowLeft" transform="rotate(270) translate(-36 17)">
    <use xlink:href="#rim"/>
    <path pointer-events="none" fill="none" stroke="white" stroke-width="1.5" d="M0,-3.0v7 M-2.5,-0.5L0,-3.0L2.5,-0.5"/>
  </g>
  <g id="resetDef">
    <use xlink:href="#rim2" fill="#404040"><set attributeName="fill" to="#808080" begin="reset.mouseover" end="reset.mouseout"/></use>
  </g>
</defs>
<script type="application/ecmascript">
var viewWidth = 527;
var viewHeight = 280;
var sectionId = 'dynsection-8';
</script>
<script type="application/ecmascript" xlink:href="svg.min.js"/>
<svg id="graph" class="graph">
<g id="viewport">
<title>Simulation::ScalarSimulation::n_row</title>
<!-- Node1 -->
<g id="Node000001" class="node">
<title>Node1</title>
<g id="a_Node000001"><a xlink:title=" ">
<polygon fill="#999999" stroke="#666666" points="519,-146 377.75,-146 377.75,-117 519,-117 519,-146"/>
<text xml:space="preserve" text-anchor="start" x="385.75" y="-132.5" font-family="Helvetica,sans-Serif" font-size="10.00">Simulation::ScalarSimulation</text>
<text xml:space="preserve" text-anchor="middle" x="448.38" y="-122" font-family="Helvetica,sans-Serif" font-size="10.00">::n_row</text>
</a>
</g>
</g>
<!-- Node2 -->
<g id="Node000002" class="node">
<title>Node2</title>
<g id="a_Node000002"><a xlink:href="classSimulation_1_1ScalarSimulation.html#aa72818956090d90be703c0ba0ed932ee" target="_top" xlink:title=" ">
<polygon fill="white" stroke="#666666" points="341.75,-146 200.5,-146 200.5,-117 341.75,-117 341.75,-146"/>
<text xml:space="preserve" text-anchor="start" x="208.5" y="-132.5" font-family="Helvetica,sans-Serif" font-size="10.00">Simulation::ScalarSimulation</text>
<text xml:space="preserve" text-anchor="middle" x="271.12" y="-122" font-family="Helvetica,sans-Serif" font-size="10.00">::ScalarSimulation</text>
</a>
</g>
</g>
<!-- Node1&#45;&gt;Node2 -->
<g id="edge1_Node000001_Node000002" class="edge">
<title>Node1&#45;&gt;Node2</title>
<g id="a_edge1_Node000001_Node000002"><a xlink:title=" ">
<path fill="none" stroke="#63b8ff" d="M366.07,-131.5C358.04,-131.5 349.94,-131.5 342.03,-131.5"/>
<polygon fill="#63b8ff" stroke="#63b8ff" points="365.84,-135 375.84,-131.5 365.84,-128 365.84,-135"/>
</a>
</g>
</g>
<!-- Node3 -->
<g id="Node000003" class="node">
<title>Node3</title>
<g id="a_Node000003"><a xlink:href="classSimulation_1_1ScalarSimulation.html#ae2625817dffc02083227be2b82dfe534" target="_top" xlink:title=" ">
<polygon fill="white" stroke="#666666" points="152.88,-254 11.62,-254 11.62,-225 152.88,-225 152.88,-254"/>
<text xml:space="preserve" text-anchor="start" x="19.62" y="-240.5" font-family="Helvetica,sans-Serif" font-size="10.00">Simulation::ScalarSimulation</text>
<text xml:space="preserve" text-anchor="middle" x="82.25" y="-230" font-family="Helvetica,sans-Serif" font-size="10.00">::getConcentrationArray</text>
</a>
</g>
</g>
<!-- Node2&#45;&gt;Node3 -->
<g id="edge2_Node000002_Node000003" class="edge">
<title>Node2&#45;&gt;Node3</title>
<g id="a_edge2_Node000002_Node000003"><a xlink:title=" ">
<path fill="none" stroke="#63b8ff" d="M247.11,-154.18C226.87,-172.99 195.83,-199.21 164.5,-215.5 157.84,-218.96 150.62,-222 143.31,-224.64"/>
<polygon fill="#63b8ff" stroke="#63b8ff" points="249.41,-156.83 254.26,-147.41 244.59,-151.75 249.41,-156.83"/>
</a>
</g>
</g>
<!-- Node4 -->
<g id="Node000004" class="node">
<title>Node4</title>
<g id="a_Node000004"><a xlink:href="namespaceSimulation.html#ae5bb8948e2a0bb4f4aef277baf4c0dff" target="_top" xlink:title=" ">
<polygon fill="white" stroke="#666666" points="164.5,-206.75 0,-206.75 0,-188.25 164.5,-188.25 164.5,-206.75"/>
<text xml:space="preserve" text-anchor="middle" x="82.25" y="-193.25" font-family="Helvetica,sans-Serif" font-size="10.00">Simulation::makeScalarSimulation</text>
</a>
</g>
</g>
<!-- Node2&#45;&gt;Node4 -->
<g id="edge4_Node000002_Node000004" class="edge">
<title>Node2&#45;&gt;Node4</title>
<g id="a_edge4_Node000002_Node000004"><a xlink:title=" ">
<path fill="none" stroke="#63b8ff" d="M231.54,-151.38C211.87,-160.91 187.33,-171.88 164.5,-179.5 155.04,-182.66 144.78,-185.42 134.84,-187.77"/>
<polygon fill="#63b8ff" stroke="#63b8ff" points="232.85,-154.64 240.28,-147.08 229.76,-148.35 232.85,-154.64"/>
</a>
</g>
</g>
<!-- Node5 -->
<g id="Node000005" class="node">
<title>Node5</title>
<g id="a_Node000005"><a xlink:href="classSimulation_1_1ScalarSimulation.html#a1b2df58cd259dcfc833a28fb41523483" target="_top" xlink:title=" ">
<polygon fill="white" stroke="#666666" points="152.88,-170 11.62,-170 11.62,-141 152.88,-141 152.88,-170"/>
<text xml:space="preserve" text-anchor="start" x="19.62" y="-156.5" font-family="Helvetica,sans-Serif" font-size="10.00">Simulation::ScalarSimulation</text>
<text xml:space="preserve" text-anchor="middle" x="82.25" y="-146" font-family="Helvetica,sans-Serif" font-size="10.00">::operator=</text>
</a>
</g>
</g>
<!-- Node2&#45;&gt;Node5 -->
<g id="edge5_Node000002_Node000005" class="edge">
<title>Node2&#45;&gt;Node5</title>
<g id="a_edge5_Node000002_Node000005"><a xlink:title=" ">
<path fill="none" stroke="#63b8ff" d="M188.74,-141.95C176.88,-143.48 164.75,-145.03 153.14,-146.52"/>
<polygon fill="#63b8ff" stroke="#63b8ff" points="189.03,-145.44 198.51,-140.7 188.14,-138.5 189.03,-145.44"/>
</a>
</g>
</g>
<!-- Node6 -->
<g id="Node000006" class="node">
<title>Node6</title>
<g id="a_Node000006"><a xlink:href="classSimulation_1_1ScalarSimulation.html#ad8d40e9ca3fdb498000508921375457b" target="_top" xlink:title=" ">
<polygon fill="white" stroke="#666666" points="152.88,-123 11.62,-123 11.62,-94 152.88,-94 152.88,-123"/>
<text xml:space="preserve" text-anchor="start" x="19.62" y="-109.5" font-family="Helvetica,sans-Serif" font-size="10.00">Simulation::ScalarSimulation</text>
<text xml:space="preserve" text-anchor="middle" x="82.25" y="-99" font-family="Helvetica,sans-Serif" font-size="10.00">::operator=</text>
</a>
</g>
</g>
<!-- Node2&#45;&gt;Node6 -->
<g id="edge6_Node000002_Node000006" class="edge">
<title>Node2&#45;&gt;Node6</title>
<g id="a_edge6_Node000002_Node000006"><a xlink:title=" ">
<path fill="none" stroke="#63b8ff" d="M188.74,-121.48C176.88,-120.02 164.75,-118.53 153.14,-117.1"/>
<polygon fill="#63b8ff" stroke="#63b8ff" points="188.15,-124.94 198.51,-122.69 189.01,-117.99 188.15,-124.94"/>
</a>
</g>
</g>
<!-- Node7 -->
<g id="Node000007" class="node">
<title>Node7</title>
<g id="a_Node000007"><a xlink:href="classSimulation_1_1ScalarSimulation.html#a5608de40ed00444c146a71642f882473" target="_top" xlink:title=" ">
<polygon fill="white" stroke="#666666" points="152.88,-76 11.62,-76 11.62,-47 152.88,-47 152.88,-76"/>
<text xml:space="preserve" text-anchor="start" x="19.62" y="-62.5" font-family="Helvetica,sans-Serif" font-size="10.00">Simulation::ScalarSimulation</text>
<text xml:space="preserve" text-anchor="middle" x="82.25" y="-52" font-family="Helvetica,sans-Serif" font-size="10.00">::ScalarSimulation</text>
</a>
</g>
</g>
<!-- Node2&#45;&gt;Node7 -->
<g id="edge7_Node000002_Node000007" class="edge">
<title>Node2&#45;&gt;Node7</title>
<g id="a_edge7_Node000002_Node000007"><a xlink:title=" ">
<path fill="none" stroke="#63b8ff" d="M228.41,-111.92C209.18,-103.25 185.91,-93.29 164.5,-85.5 155.79,-82.33 146.45,-79.27 137.31,-76.45"/>
<polygon fill="#63b8ff" stroke="#63b8ff" points="226.72,-114.99 237.27,-115.95 229.62,-108.62 226.72,-114.99"/>
</a>
</g>
</g>
<!-- Node8 -->
<g id="Node000008" class="node">
<title>Node8</title>
<g id="a_Node000008"><a xlink:href="classSimulation_1_1ScalarSimulation.html#a165176fdcee47d58d6ad3471ada56136" target="_top" xlink:title=" ">
<polygon fill="white" stroke="#666666" points="152.88,-29 11.62,-29 11.62,0 152.88,0 152.88,-29"/>
<text xml:space="preserve" text-anchor="start" x="19.62" y="-15.5" font-family="Helvetica,sans-Serif" font-size="10.00">Simulation::ScalarSimulation</text>
<text xml:space="preserve" text-anchor="middle" x="82.25" y="-5" font-family="Helvetica,sans-Serif" font-size="10.00">::ScalarSimulation</text>
</a>
</g>
</g>
<!-- Node2&#45;&gt;Node8 -->
<g id="edge8_Node000002_Node000008" class="edge">
<title>Node2&#45;&gt;Node8</title>
<g id="a_edge8_Node000002_Node000008"><a xlink:title=" ">
<path fill="none" stroke="#63b8ff" d="M249.54,-108.35C229.69,-87.33 197.81,-56.9 164.5,-38.5 158.19,-35.02 151.32,-31.99 144.33,-29.36"/>
<polygon fill="#63b8ff" stroke="#63b8ff" points="246.9,-110.64 256.26,-115.6 252.04,-105.89 246.9,-110.64"/>
</a>
</g>
</g>
<!-- Node3&#45;&gt;Node3 -->
<g id="edge3_Node000003_Node000003" class="edge">
<title>Node3&#45;&gt;Node3</title>
<g id="a_edge3_Node000003_Node000003"><a xlink:title=" ">
<path fill="none" stroke="#63b8ff" d="M114.31,-265.56C109.28,-269.41 98.59,-272 82.25,-272 52.37,-272 41.4,-263.32 49.33,-254.21"/>
<polygon fill="#63b8ff" stroke="#63b8ff" points="117.79,-265.95 115.05,-255.72 110.81,-265.42 117.79,-265.95"/>
</a>
</g>
</g>
</g>
</svg>

<g id="navigator" transform="translate(0 0)" fill="#404254">
  <rect fill="#f2f5e9" fill-opacity="0.5" stroke="#606060" stroke-width=".5" x="0" y="0" width="60" height="60"/>
  <use id="zoomplus" xlink:href="#zoomPlus" x="17" y="9" onmousedown="handleZoom(evt,'in')"/>
  <use id="zoomminus" xlink:href="#zoomMin" x="42" y="9" onmousedown="handleZoom(evt,'out')"/>
  <use id="reset" xlink:href="#resetDef" x="30" y="36" onmousedown="handleReset()"/>
   <use id="arrowup" xlink:href="#arrowUp" x="0" y="0" onmousedown="handlePan(0,-1)"/>
  <use id="arrowright" xlink:href="#arrowRight" x="0" y="0" onmousedown="handlePan(1,0)"/>
  <use id="arrowdown" xlink:href="#arrowDown" x="0" y="0" onmousedown="handlePan(0,1)"/>
  <use id="arrowleft" xlink:href="#arrowLeft" x="0" y="0" onmousedown="handlePan(-1,0)"/>
</g>
<svg viewBox="0 0 15 15" width="100%" height="30px" preserveAspectRatio="xMaxYMin meet">
 <g id="arrow_out" transform="scale(0.3 0.3)">
  <a xlink:href="classSimulation_1_1ScalarSimulation_aab5e48f3385a40d87dd678103097ec06_icgraph_org.svg" target="_base">
   <rect id="button" ry="5" rx="5" y="6" x="6" height="38" width="38"
        fill="#f2f5e9" fill-opacity="0.5" stroke="#606060" stroke-width="1.0"/>
   <path id="arrow"
     d="M 11.500037,31.436501 C 11.940474,20.09759 22.043105,11.32322 32.158766,21.979434 L 37.068811,17.246167 C 37.068811,17.246167 37.088388,32 37.088388,32 L 22.160133,31.978069 C 22.160133,31.978069 26.997745,27.140456 26.997745,27.140456 C 18.528582,18.264221 13.291696,25.230495 11.500037,31.436501 z"
     style="fill:#404040;"/>
  </a>
 </g>
</svg>

<style type='text/css'>
<![CDATA[
[data-mouse-over-selected='false'] { opacity: 0.7; }
[data-mouse-over-selected='true']  { opacity: 1.0; }
]]>
</style>
<script type="application/ecmascript"><![CDATA[
document.addEventListener('DOMContentLoaded', (event) => {
  highlightEdges();
  highlightAdjacentNodes();
});
]]></script>
</svg>
