<?xml version="1.0" encoding="UTF-8" standalone="no"?>
<!DOCTYPE svg PUBLIC "-//W3C//DTD SVG 1.1//EN"
 "http://www.w3.org/Graphics/SVG/1.1/DTD/svg11.dtd">
<!-- Generated by graphviz version 14.0.1 (0)
 -->
<!-- Title: IO::RedirectHandle::RedirectHandle Pages: 1 -->
<svg width="243pt" height="178pt"
 viewBox="0.00 0.00 243.00 178.00" xmlns="http://www.w3.org/2000/svg" xmlns:xlink="http://www.w3.org/1999/xlink">
<g id="graph0" class="graph" transform="scale(1 1) rotate(0) translate(4 174)">
<title>IO::RedirectHandle::RedirectHandle</title>
<!-- Node1 -->
<g id="Node000001" class="node">
<title>Node1</title>
<g id="a_Node000001"><a xlink:title=" ">
<polygon fill="#999999" stroke="#666666" points="234.5,-99 135.25,-99 135.25,-70 234.5,-70 234.5,-99"/>
<text xml:space="preserve" text-anchor="start" x="143.25" y="-85.5" font-family="Helvetica,sans-Serif" font-size="10.00">IO::RedirectHandle</text>
<text xml:space="preserve" text-anchor="middle" x="184.88" y="-75" font-family="Helvetica,sans-Serif" font-size="10.00">::RedirectHandle</text>
</a>
</g>
</g>
<!-- Node2 -->
<g id="Node000002" class="node">
<title>Node2</title>
<g id="a_Node000002"><a xlink:href="classIO_1_1RedirectHandle.html#a3541ef93b6f5e994797273da71390625" target="_top" xlink:title=" ">
<polygon fill="white" stroke="#666666" points="99.25,-170 0,-170 0,-141 99.25,-141 99.25,-170"/>
<text xml:space="preserve" text-anchor="start" x="8" y="-156.5" font-family="Helvetica,sans-Serif" font-size="10.00">IO::RedirectHandle</text>
<text xml:space="preserve" text-anchor="middle" x="49.62" y="-146" font-family="Helvetica,sans-Serif" font-size="10.00">::operator=</text>
</a>
</g>
</g>
<!-- Node1&#45;&gt;Node2 -->
<g id="edge1_Node000001_Node000002" class="edge">
<title>Node1&#45;&gt;Node2</title>
<g id="a_edge1_Node000001_Node000002"><a xlink:title=" ">
<path fill="none" stroke="#63b8ff" d="M148.66,-105.25C133.58,-113.93 115.69,-123.96 99.25,-132.5 94.03,-135.21 88.43,-137.98 82.96,-140.62"/>
<polygon fill="#63b8ff" stroke="#63b8ff" points="150.39,-108.29 157.28,-100.25 146.88,-102.24 150.39,-108.29"/>
</a>
</g>
</g>
<!-- Node3 -->
<g id="Node000003" class="node">
<title>Node3</title>
<g id="a_Node000003"><a xlink:href="classIO_1_1RedirectHandle.html#ae6b647f3190650f10d52e872d01f4cee" target="_top" xlink:title=" ">
<polygon fill="white" stroke="#666666" points="99.25,-123 0,-123 0,-94 99.25,-94 99.25,-123"/>
<text xml:space="preserve" text-anchor="start" x="8" y="-109.5" font-family="Helvetica,sans-Serif" font-size="10.00">IO::RedirectHandle</text>
<text xml:space="preserve" text-anchor="middle" x="49.62" y="-99" font-family="Helvetica,sans-Serif" font-size="10.00">::operator=</text>
</a>
</g>
</g>
<!-- Node1&#45;&gt;Node3 -->
<g id="edge2_Node000001_Node000003" class="edge">
<title>Node1&#45;&gt;Node3</title>
<g id="a_edge2_Node000001_Node000003"><a xlink:title=" ">
<path fill="none" stroke="#63b8ff" d="M123.69,-95.34C115.59,-96.8 107.36,-98.28 99.48,-99.7"/>
<polygon fill="#63b8ff" stroke="#63b8ff" points="124.3,-98.79 133.52,-93.57 123.06,-91.9 124.3,-98.79"/>
</a>
</g>
</g>
<!-- Node4 -->
<g id="Node000004" class="node">
<title>Node4</title>
<g id="a_Node000004"><a xlink:href="classIO_1_1RedirectHandle.html#abcd003239b71c442a3e2164722760a0f" target="_top" xlink:title=" ">
<polygon fill="white" stroke="#666666" points="99.25,-76 0,-76 0,-47 99.25,-47 99.25,-76"/>
<text xml:space="preserve" text-anchor="start" x="8" y="-62.5" font-family="Helvetica,sans-Serif" font-size="10.00">IO::RedirectHandle</text>
<text xml:space="preserve" text-anchor="middle" x="49.62" y="-52" font-family="Helvetica,sans-Serif" font-size="10.00">::RedirectHandle</text>
</a>
</g>
</g>
<!-- Node1&#45;&gt;Node4 -->
<g id="edge3_Node000001_Node000004" class="edge">
<title>Node1&#45;&gt;Node4</title>
<g id="a_edge3_Node000001_Node000004"><a xlink:title=" ">
<path fill="none" stroke="#63b8ff" d="M123.69,-74.11C115.59,-72.71 107.36,-71.29 99.48,-69.93"/>
<polygon fill="#63b8ff" stroke="#63b8ff" points="123.07,-77.56 133.52,-75.81 124.26,-70.66 123.07,-77.56"/>
</a>
</g>
</g>
<!-- Node5 -->
<g id="Node000005" class="node">
<title>Node5</title>
<g id="a_Node000005"><a xlink:href="classIO_1_1RedirectHandle.html#a18c0b3a06e52dde1359461dd7f6bc030" target="_top" xlink:title=" ">
<polygon fill="white" stroke="#666666" points="99.25,-29 0,-29 0,0 99.25,0 99.25,-29"/>
<text xml:space="preserve" text-anchor="start" x="8" y="-15.5" font-family="Helvetica,sans-Serif" font-size="10.00">IO::RedirectHandle</text>
<text xml:space="preserve" text-anchor="middle" x="49.62" y="-5" font-family="Helvetica,sans-Serif" font-size="10.00">::RedirectHandle</text>
</a>
</g>
</g>
<!-- Node1&#45;&gt;Node5 -->
<g id="edge4_Node000001_Node000005" class="edge">
<title>Node1&#45;&gt;Node5</title>
<g id="a_edge4_Node000001_Node000005"><a xlink:title=" ">
<path fill="none" stroke="#63b8ff" d="M147.15,-64.13C132.34,-56.02 115.05,-46.69 99.25,-38.5 93.48,-35.51 87.29,-32.39 81.33,-29.42"/>
<polygon fill="#63b8ff" stroke="#63b8ff" points="145.18,-67.04 155.63,-68.79 148.56,-60.91 145.18,-67.04"/>
</a>
</g>
</g>
</g>
</svg>
