<?xml version="1.0" encoding="UTF-8" standalone="no"?>
<!DOCTYPE svg PUBLIC "-//W3C//DTD SVG 1.1//EN"
 "http://www.w3.org/Graphics/SVG/1.1/DTD/svg11.dtd">
<!-- Generated by graphviz version 14.0.1 (0)
 -->
<!-- Title: Core::GlobalInitialiser Pages: 1 -->
<svg width="415pt" height="169pt"
 viewBox="0.00 0.00 415.00 169.00" xmlns="http://www.w3.org/2000/svg" xmlns:xlink="http://www.w3.org/1999/xlink">
<g id="graph0" class="graph" transform="scale(1 1) rotate(0) translate(4 164.5)">
<title>Core::GlobalInitialiser</title>
<!-- Node1 -->
<g id="Node000001" class="node">
<title>Node1</title>
<g id="a_Node000001"><a xlink:title="A class responsible for initializing various components of a simulation framework.">
<polygon fill="#999999" stroke="#666666" points="227.75,-18.5 118,-18.5 118,0 227.75,0 227.75,-18.5"/>
<text xml:space="preserve" text-anchor="middle" x="172.88" y="-5" font-family="Helvetica,sans-Serif" font-size="10.00">Core::GlobalInitialiser</text>
</a>
</g>
</g>
<!-- Node2 -->
<g id="Node000002" class="node">
<title>Node2</title>
<g id="a_Node000002"><a xlink:href="structExecInfo.html" target="_top" xlink:title=" ">
<polygon fill="white" stroke="#666666" points="85,-89.5 30.75,-89.5 30.75,-71 85,-71 85,-89.5"/>
<text xml:space="preserve" text-anchor="middle" x="57.88" y="-76" font-family="Helvetica,sans-Serif" font-size="10.00">ExecInfo</text>
</a>
</g>
</g>
<!-- Node2&#45;&gt;Node1 -->
<g id="edge1_Node000001_Node000002" class="edge">
<title>Node2&#45;&gt;Node1</title>
<g id="a_edge1_Node000001_Node000002"><a xlink:title=" ">
<path fill="none" stroke="#9a32cd" stroke-dasharray="5,2" d="M82.2,-64.65C105.32,-50.78 139.31,-30.39 158.43,-18.92"/>
<polygon fill="#9a32cd" stroke="#9a32cd" points="80.51,-61.59 73.74,-69.73 84.11,-67.59 80.51,-61.59"/>
</a>
</g>
<text xml:space="preserve" text-anchor="start" x="132.06" y="-40.5" font-family="Helvetica,sans-Serif" font-size="10.00" fill="grey">info</text>
</g>
<!-- Node3 -->
<g id="Node000003" class="node">
<title>Node3</title>
<g id="a_Node000003"><a xlink:href="structKernelDispatchOptions.html" target="_top" xlink:title=" ">
<polygon fill="white" stroke="#666666" points="115.75,-160.5 0,-160.5 0,-142 115.75,-142 115.75,-160.5"/>
<text xml:space="preserve" text-anchor="middle" x="57.88" y="-147" font-family="Helvetica,sans-Serif" font-size="10.00">KernelDispatchOptions</text>
</a>
</g>
</g>
<!-- Node3&#45;&gt;Node2 -->
<g id="edge2_Node000002_Node000003" class="edge">
<title>Node3&#45;&gt;Node2</title>
<g id="a_edge2_Node000002_Node000003"><a xlink:title=" ">
<path fill="none" stroke="#9a32cd" stroke-dasharray="5,2" d="M57.88,-130.05C57.88,-116.63 57.88,-99.68 57.88,-89.7"/>
<polygon fill="#9a32cd" stroke="#9a32cd" points="54.38,-130 57.88,-140 61.38,-130 54.38,-130"/>
</a>
</g>
<text xml:space="preserve" text-anchor="start" x="60.88" y="-111.5" font-family="Helvetica,sans-Serif" font-size="10.00" fill="grey">kernel_options</text>
</g>
<!-- Node4 -->
<g id="Node000004" class="node">
<title>Node4</title>
<g id="a_Node000004"><a xlink:href="structCore_1_1SimulationParameters.html" target="_top" xlink:title=" ">
<polygon fill="white" stroke="#666666" points="242.75,-89.5 103,-89.5 103,-71 242.75,-71 242.75,-89.5"/>
<text xml:space="preserve" text-anchor="middle" x="172.88" y="-76" font-family="Helvetica,sans-Serif" font-size="10.00">Core::SimulationParameters</text>
</a>
</g>
</g>
<!-- Node4&#45;&gt;Node1 -->
<g id="edge3_Node000001_Node000004" class="edge">
<title>Node4&#45;&gt;Node1</title>
<g id="a_edge3_Node000001_Node000004"><a xlink:title=" ">
<path fill="none" stroke="#9a32cd" stroke-dasharray="5,2" d="M172.88,-59.05C172.88,-45.63 172.88,-28.68 172.88,-18.7"/>
<polygon fill="#9a32cd" stroke="#9a32cd" points="169.38,-59 172.88,-69 176.38,-59 169.38,-59"/>
</a>
</g>
<text xml:space="preserve" text-anchor="start" x="175.88" y="-40.5" font-family="Helvetica,sans-Serif" font-size="10.00" fill="grey">params</text>
</g>
<!-- Node5 -->
<g id="Node000005" class="node">
<title>Node5</title>
<g id="a_Node000005"><a xlink:href="structCore_1_1UserControlParameters.html" target="_top" xlink:title="A structure to hold user&#45;defined control parameters for simulation settings.">
<polygon fill="white" stroke="#666666" points="407.12,-89.5 260.62,-89.5 260.62,-71 407.12,-71 407.12,-89.5"/>
<text xml:space="preserve" text-anchor="middle" x="333.88" y="-76" font-family="Helvetica,sans-Serif" font-size="10.00">Core::UserControlParameters</text>
</a>
</g>
</g>
<!-- Node5&#45;&gt;Node1 -->
<g id="edge4_Node000001_Node000005" class="edge">
<title>Node5&#45;&gt;Node1</title>
<g id="a_edge4_Node000001_Node000005"><a xlink:title=" ">
<path fill="none" stroke="#9a32cd" stroke-dasharray="5,2" d="M303.25,-66.13C270.91,-52.26 220.84,-30.8 193.1,-18.92"/>
<polygon fill="#9a32cd" stroke="#9a32cd" points="301.52,-69.19 312.09,-69.91 304.28,-62.76 301.52,-69.19"/>
</a>
</g>
<text xml:space="preserve" text-anchor="start" x="275.53" y="-40.5" font-family="Helvetica,sans-Serif" font-size="10.00" fill="grey">user_params</text>
</g>
</g>
</svg>
