<?xml version="1.0" encoding="UTF-8" standalone="no"?>
<!DOCTYPE svg PUBLIC "-//W3C//DTD SVG 1.1//EN"
 "http://www.w3.org/Graphics/SVG/1.1/DTD/svg11.dtd">
<!-- Generated by graphviz version 14.0.1 (0)
 -->
<!-- Title: apps/libs Pages: 1 -->
<!--zoomable 93 -->

<svg id="main" version="1.1" xmlns="http://www.w3.org/2000/svg" xmlns:xlink="http://www.w3.org/1999/xlink" xml:space="preserve" onload="init(evt)">

<style type="text/css"><![CDATA[
.node, .edge {opacity: 0.7;}
.node.selected, .edge.selected {opacity: 1;}
.edge:hover path { stroke: red; }
.edge:hover polygon { stroke: red; fill: red; }
]]></style>

<defs>
  <circle id="rim" cx="0" cy="0" r="7"/>
  <circle id="rim2" cx="0" cy="0" r="3.5"/>
  <g id="zoomPlus">
    <use xlink:href="#rim" fill="#404040"><set attributeName="fill" to="#808080" begin="zoomplus.mouseover" end="zoomplus.mouseout"/></use>
    <path d="M-4,0h8M0,-4v8" fill="none" stroke="white" stroke-width="1.5" pointer-events="none"/>
  </g>
  <g id="zoomMin">
    <use xlink:href="#rim" fill="#404040"><set attributeName="fill" to="#808080" begin="zoomminus.mouseover" end="zoomminus.mouseout"/></use>
    <path d="M-4,0h8" fill="none" stroke="white" stroke-width="1.5" pointer-events="none"/>
  </g>
  <g id="arrowUp" transform="translate(30 24)">
    <use xlink:href="#rim"/>
    <path pointer-events="none" fill="none" stroke="white" stroke-width="1.5" d="M0,-3.0v7 M-2.5,-0.5L0,-3.0L2.5,-0.5"/>
  </g>
  <g id="arrowRight" transform="rotate(90) translate(36 -43)">
    <use xlink:href="#rim"/>
    <path pointer-events="none" fill="none" stroke="white" stroke-width="1.5" d="M0,-3.0v7 M-2.5,-0.5L0,-3.0L2.5,-0.5"/>
  </g>
  <g id="arrowDown" transform="rotate(180) translate(-30 -48)">
    <use xlink:href="#rim"/>
    <path pointer-events="none" fill="none" stroke="white" stroke-width="1.5" d="M0,-3.0v7 M-2.5,-0.5L0,-3.0L2.5,-0.5"/>
  </g>
  <g id="arrowLeft" transform="rotate(270) translate(-36 17)">
    <use xlink:href="#rim"/>
    <path pointer-events="none" fill="none" stroke="white" stroke-width="1.5" d="M0,-3.0v7 M-2.5,-0.5L0,-3.0L2.5,-0.5"/>
  </g>
  <g id="resetDef">
    <use xlink:href="#rim2" fill="#404040"><set attributeName="fill" to="#808080" begin="reset.mouseover" end="reset.mouseout"/></use>
  </g>
</defs>
<script type="application/ecmascript">
var viewWidth = 566;
var viewHeight = 93;
var sectionId = 'dynsection-0';
</script>
<script type="application/ecmascript" xlink:href="svg.min.js"/>
<svg id="graph" class="graph">
<g id="viewport">
<title>apps/libs</title>
<g id="clust1" class="cluster">
<title>clusterdir_9654b8d08f4bba4e84b362c5fd320bee</title>
<g id="a_clust1"><a xlink:href="dir_9654b8d08f4bba4e84b362c5fd320bee.html" target="_top" xlink:title="apps">
<polygon fill="#edf0f7" stroke="#404040" stroke-dasharray="5,2" points="8,-8 8,-77 550,-77 550,-8 8,-8"/>
<text xml:space="preserve" text-anchor="middle" x="279" y="-63.5" font-family="Helvetica,sans-Serif" font-size="10.00">apps</text>
</a>
</g>
</g>
<g id="clust2" class="cluster">
<title>clusterdir_875b80e4933768785723d9192abcaf1c</title>
<g id="a_clust2"><a xlink:href="dir_875b80e4933768785723d9192abcaf1c.html" target="_top">
<polygon fill="#edf0f7" stroke="#404040" stroke-width="2" points="16,-16 16,-50.5 542,-50.5 542,-16 16,-16"/>
</a>
</g>
</g>
<!-- dir_875b80e4933768785723d9192abcaf1c -->
<g id="node1" class="node">
<title>dir_875b80e4933768785723d9192abcaf1c</title>
<text xml:space="preserve" text-anchor="middle" x="40" y="-29" font-family="Helvetica,sans-Serif" font-size="10.00">libs</text>
</g>
<!-- dir_e91db715cd85cec840e4cbc81ddde6e0 -->
<g id="node2" class="node">
<title>dir_e91db715cd85cec840e4cbc81ddde6e0</title>
<g id="a_node2"><a xlink:href="dir_e91db715cd85cec840e4cbc81ddde6e0.html" target="_top" xlink:title="cma_utils">
<polygon fill="#a2b4d6" stroke="#404040" points="132,-42.5 74,-42.5 74,-24 132,-24 132,-42.5"/>
<text xml:space="preserve" text-anchor="middle" x="103" y="-29" font-family="Helvetica,sans-Serif" font-size="10.00">cma_utils</text>
</a>
</g>
</g>
<!-- dir_440a6e0c199f9fd5229030ee98715f34 -->
<g id="node3" class="node">
<title>dir_440a6e0c199f9fd5229030ee98715f34</title>
<g id="a_node3"><a xlink:href="dir_440a6e0c199f9fd5229030ee98715f34.html" target="_top" xlink:title="common">
<polygon fill="#a2b4d6" stroke="#404040" points="203.75,-42.5 150.25,-42.5 150.25,-24 203.75,-24 203.75,-42.5"/>
<text xml:space="preserve" text-anchor="middle" x="177" y="-29" font-family="Helvetica,sans-Serif" font-size="10.00">common</text>
</a>
</g>
</g>
<!-- dir_b3aee08c82db6e268468a31e4c00331a -->
<g id="node4" class="node">
<title>dir_b3aee08c82db6e268468a31e4c00331a</title>
<g id="a_node4"><a xlink:href="dir_b3aee08c82db6e268468a31e4c00331a.html" target="_top" xlink:title="mc">
<polygon fill="#a2b4d6" stroke="#404040" points="251.75,-42.5 222.25,-42.5 222.25,-24 251.75,-24 251.75,-42.5"/>
<text xml:space="preserve" text-anchor="middle" x="237" y="-29" font-family="Helvetica,sans-Serif" font-size="10.00">mc</text>
</a>
</g>
</g>
<!-- dir_91a6d07b4542a8359abc1082128cc34d -->
<g id="node5" class="node">
<title>dir_91a6d07b4542a8359abc1082128cc34d</title>
<g id="a_node5"><a xlink:href="dir_91a6d07b4542a8359abc1082128cc34d.html" target="_top" xlink:title="models">
<polygon fill="#a2b4d6" stroke="#404040" points="317.75,-42.5 270.25,-42.5 270.25,-24 317.75,-24 317.75,-42.5"/>
<text xml:space="preserve" text-anchor="middle" x="294" y="-29" font-family="Helvetica,sans-Serif" font-size="10.00">models</text>
</a>
</g>
</g>
<!-- dir_285f1f0daf0fc7b30a880bc5fd8e3315 -->
<g id="node6" class="node">
<title>dir_285f1f0daf0fc7b30a880bc5fd8e3315</title>
<g id="a_node6"><a xlink:href="dir_285f1f0daf0fc7b30a880bc5fd8e3315.html" target="_top" xlink:title="mpi_w">
<polygon fill="#a2b4d6" stroke="#404040" points="380.25,-42.5 335.75,-42.5 335.75,-24 380.25,-24 380.25,-42.5"/>
<text xml:space="preserve" text-anchor="middle" x="358" y="-29" font-family="Helvetica,sans-Serif" font-size="10.00">mpi_w</text>
</a>
</g>
</g>
<!-- dir_c0c8886e0ab8fd718e19719b9c9d0bfe -->
<g id="node7" class="node">
<title>dir_c0c8886e0ab8fd718e19719b9c9d0bfe</title>
<g id="a_node7"><a xlink:href="dir_c0c8886e0ab8fd718e19719b9c9d0bfe.html" target="_top" xlink:title="pymodule">
<polygon fill="#a2b4d6" stroke="#404040" points="456,-42.5 398,-42.5 398,-24 456,-24 456,-42.5"/>
<text xml:space="preserve" text-anchor="middle" x="427" y="-29" font-family="Helvetica,sans-Serif" font-size="10.00">pymodule</text>
</a>
</g>
</g>
<!-- dir_025087c2f06cd1d8ba2849de0aaee01b -->
<g id="node8" class="node">
<title>dir_025087c2f06cd1d8ba2849de0aaee01b</title>
<g id="a_node8"><a xlink:href="dir_025087c2f06cd1d8ba2849de0aaee01b.html" target="_top" xlink:title="simulation">
<polygon fill="#a2b4d6" stroke="#404040" points="534.12,-42.5 473.88,-42.5 473.88,-24 534.12,-24 534.12,-42.5"/>
<text xml:space="preserve" text-anchor="middle" x="504" y="-29" font-family="Helvetica,sans-Serif" font-size="10.00">simulation</text>
</a>
</g>
</g>
</g>
</svg>

<g id="navigator" transform="translate(0 0)" fill="#404254">
  <rect fill="#f2f5e9" fill-opacity="0.5" stroke="#606060" stroke-width=".5" x="0" y="0" width="60" height="60"/>
  <use id="zoomplus" xlink:href="#zoomPlus" x="17" y="9" onmousedown="handleZoom(evt,'in')"/>
  <use id="zoomminus" xlink:href="#zoomMin" x="42" y="9" onmousedown="handleZoom(evt,'out')"/>
  <use id="reset" xlink:href="#resetDef" x="30" y="36" onmousedown="handleReset()"/>
   <use id="arrowup" xlink:href="#arrowUp" x="0" y="0" onmousedown="handlePan(0,-1)"/>
  <use id="arrowright" xlink:href="#arrowRight" x="0" y="0" onmousedown="handlePan(1,0)"/>
  <use id="arrowdown" xlink:href="#arrowDown" x="0" y="0" onmousedown="handlePan(0,1)"/>
  <use id="arrowleft" xlink:href="#arrowLeft" x="0" y="0" onmousedown="handlePan(-1,0)"/>
</g>
<svg viewBox="0 0 15 15" width="100%" height="30px" preserveAspectRatio="xMaxYMin meet">
 <g id="arrow_out" transform="scale(0.3 0.3)">
  <a xlink:href="dir_875b80e4933768785723d9192abcaf1c_dep_org.svg" target="_base">
   <rect id="button" ry="5" rx="5" y="6" x="6" height="38" width="38"
        fill="#f2f5e9" fill-opacity="0.5" stroke="#606060" stroke-width="1.0"/>
   <path id="arrow"
     d="M 11.500037,31.436501 C 11.940474,20.09759 22.043105,11.32322 32.158766,21.979434 L 37.068811,17.246167 C 37.068811,17.246167 37.088388,32 37.088388,32 L 22.160133,31.978069 C 22.160133,31.978069 26.997745,27.140456 26.997745,27.140456 C 18.528582,18.264221 13.291696,25.230495 11.500037,31.436501 z"
     style="fill:#404040;"/>
  </a>
 </g>
</svg>

<style type='text/css'>
<![CDATA[
[data-mouse-over-selected='false'] { opacity: 0.7; }
[data-mouse-over-selected='true']  { opacity: 1.0; }
]]>
</style>
<script type="application/ecmascript"><![CDATA[
document.addEventListener('DOMContentLoaded', (event) => {
  highlightEdges();
  highlightAdjacentNodes();
});
]]></script>
</svg>
