<?xml version="1.0" encoding="UTF-8" standalone="no"?>
<!DOCTYPE svg PUBLIC "-//W3C//DTD SVG 1.1//EN"
 "http://www.w3.org/Graphics/SVG/1.1/DTD/svg11.dtd">
<!-- Generated by graphviz version 14.0.1 (0)
 -->
<!-- Title: Graphical Class Hierarchy Pages: 1 -->
<svg width="258pt" height="94pt"
 viewBox="0.00 0.00 258.00 94.00" xmlns="http://www.w3.org/2000/svg" xmlns:xlink="http://www.w3.org/1999/xlink">
<g id="graph0" class="graph" transform="scale(1 1) rotate(0) translate(4 90.25)">
<title>Graphical Class Hierarchy</title>
<!-- Node0 -->
<g id="Node000000" class="node">
<title>Node0</title>
<g id="a_Node000000"><a xlink:title=" ">
<polygon fill="#e0e0e0" stroke="#999999" points="80.5,-31.75 0,-31.75 0,-13.25 80.5,-13.25 80.5,-31.75"/>
<text xml:space="preserve" text-anchor="middle" x="40.25" y="-18.25" font-family="Helvetica,sans-Serif" font-size="10.00">std::false_type</text>
</a>
</g>
</g>
<!-- Node1 -->
<g id="Node000001" class="node">
<title>Node1</title>
<g id="a_Node000001"><a xlink:href="structhas__uniform__weight_3_01T_00_01std_1_1void__t_3_01typename_01T_1_1uniform__weight_01_4_01_4.html" target="_top" xlink:title=" ">
<polygon fill="white" stroke="#666666" points="249.5,-86.25 116.5,-86.25 116.5,-46.75 249.5,-46.75 249.5,-86.25"/>
<text xml:space="preserve" text-anchor="start" x="124.5" y="-72.75" font-family="Helvetica,sans-Serif" font-size="10.00">has_uniform_weight</text>
<text xml:space="preserve" text-anchor="start" x="124.5" y="-62.25" font-family="Helvetica,sans-Serif" font-size="10.00">&lt; T, std::void_t&lt; typename</text>
<text xml:space="preserve" text-anchor="middle" x="183" y="-51.75" font-family="Helvetica,sans-Serif" font-size="10.00"> T::uniform_weight &gt; &gt;</text>
</a>
</g>
</g>
<!-- Node0&#45;&gt;Node1 -->
<g id="edge12_Node000000_Node000001" class="edge">
<title>Node0&#45;&gt;Node1</title>
<g id="a_edge12_Node000000_Node000001"><a xlink:title=" ">
<path fill="none" stroke="#63b8ff" d="M82.97,-35.54C93.79,-38.93 105.71,-42.65 117.41,-46.31"/>
<polygon fill="#63b8ff" stroke="#63b8ff" points="84.17,-32.25 73.58,-32.61 82.08,-38.93 84.17,-32.25"/>
</a>
</g>
</g>
<!-- Node3 -->
<g id="Node000003" class="node">
<title>Node3</title>
<g id="a_Node000003"><a xlink:href="structhas__uniform__weight.html" target="_top" xlink:title=" ">
<polygon fill="white" stroke="#666666" points="234.12,-29 131.88,-29 131.88,0 234.12,0 234.12,-29"/>
<text xml:space="preserve" text-anchor="start" x="139.88" y="-15.5" font-family="Helvetica,sans-Serif" font-size="10.00">has_uniform_weight</text>
<text xml:space="preserve" text-anchor="middle" x="183" y="-5" font-family="Helvetica,sans-Serif" font-size="10.00">&lt; T, typename &gt;</text>
</a>
</g>
</g>
<!-- Node0&#45;&gt;Node3 -->
<g id="edge13_Node000000_Node000003" class="edge">
<title>Node0&#45;&gt;Node3</title>
<g id="a_edge13_Node000000_Node000003"><a xlink:title=" ">
<path fill="none" stroke="#63b8ff" d="M92.23,-19.6C104.98,-18.88 118.66,-18.1 131.39,-17.38"/>
<polygon fill="#63b8ff" stroke="#63b8ff" points="92.13,-16.1 82.34,-20.16 92.52,-23.09 92.13,-16.1"/>
</a>
</g>
</g>
<!-- Node2 -->
<g id="Node000002" class="node">
<title>Node2</title>
<g id="a_Node000002"><a xlink:title=" ">
<polygon fill="#e0e0e0" stroke="#999999" points="78.25,-75.75 2.25,-75.75 2.25,-57.25 78.25,-57.25 78.25,-75.75"/>
<text xml:space="preserve" text-anchor="middle" x="40.25" y="-62.25" font-family="Helvetica,sans-Serif" font-size="10.00">std::true_type</text>
</a>
</g>
</g>
<!-- Node2&#45;&gt;Node1 -->
<g id="edge14_Node000002_Node000001" class="edge">
<title>Node2&#45;&gt;Node1</title>
<g id="a_edge14_Node000002_Node000001"><a xlink:title=" ">
<path fill="none" stroke="#63b8ff" d="M89.84,-66.5C98.33,-66.5 107.3,-66.5 116.17,-66.5"/>
<polygon fill="#63b8ff" stroke="#63b8ff" points="90.11,-63 80.11,-66.5 90.11,-70 90.11,-63"/>
</a>
</g>
</g>
</g>
</svg>
