<?xml version="1.0" encoding="UTF-8" standalone="no"?>
<!DOCTYPE svg PUBLIC "-//W3C//DTD SVG 1.1//EN"
 "http://www.w3.org/Graphics/SVG/1.1/DTD/svg11.dtd">
<!-- Generated by graphviz version 12.1.2 (0)
 -->
<!-- Title: Graphical Class Hierarchy Pages: 1 -->
<svg width="348pt" height="64pt"
 viewBox="0.00 0.00 348.25 63.50" xmlns="http://www.w3.org/2000/svg" xmlns:xlink="http://www.w3.org/1999/xlink">
<g id="graph0" class="graph" transform="scale(1 1) rotate(0) translate(4 59.5)">
<title>Graphical Class Hierarchy</title>
<!-- Node0 -->
<g id="Node000000" class="node">
<title>Node0</title>
<g id="a_Node000000"><a xlink:href="classCmaUtils_1_1FlowMapTransitionner.html" target="_top" xlink:title="Manages the reading, caching, and transitioning of flowmaps for simulation timesteps.">
<polygon fill="white" stroke="#666666" points="158.5,-36.5 0,-36.5 0,-18 158.5,-18 158.5,-36.5"/>
<text text-anchor="middle" x="79.25" y="-23" font-family="Helvetica,sans-Serif" font-size="10.00">CmaUtils::FlowMapTransitionner</text>
</a>
</g>
</g>
<!-- Node1 -->
<g id="Node000001" class="node">
<title>Node1</title>
<g id="a_Node000001"><a xlink:href="classCmaUtils_1_1DiscontinuousFMT.html" target="_top" xlink:title="Derived class to handle Discontinuous transition between flowmaps.">
<polygon fill="white" stroke="#666666" points="340.25,-55.5 194.5,-55.5 194.5,-37 340.25,-37 340.25,-55.5"/>
<text text-anchor="middle" x="267.38" y="-42" font-family="Helvetica,sans-Serif" font-size="10.00">CmaUtils::DiscontinuousFMT</text>
</a>
</g>
</g>
<!-- Node0&#45;&gt;Node1 -->
<g id="edge1_Node000000_Node000001" class="edge">
<title>Node0&#45;&gt;Node1</title>
<g id="a_edge1_Node000000_Node000001"><a xlink:title=" ">
<path fill="none" stroke="#63b8ff" d="M170.23,-36.44C178.27,-37.26 186.34,-38.08 194.21,-38.88"/>
<polygon fill="#63b8ff" stroke="#63b8ff" points="170.72,-32.97 160.42,-35.43 170.01,-39.93 170.72,-32.97"/>
</a>
</g>
</g>
<!-- Node2 -->
<g id="Node000002" class="node">
<title>Node2</title>
<g id="a_Node000002"><a xlink:href="classCmaUtils_1_1LinterFMT.html" target="_top" xlink:title="Derived class to handle Linear interpolation transition between flowmaps.">
<polygon fill="white" stroke="#666666" points="321.12,-18.5 213.62,-18.5 213.62,0 321.12,0 321.12,-18.5"/>
<text text-anchor="middle" x="267.38" y="-5" font-family="Helvetica,sans-Serif" font-size="10.00">CmaUtils::LinterFMT</text>
</a>
</g>
</g>
<!-- Node0&#45;&gt;Node2 -->
<g id="edge2_Node000000_Node000002" class="edge">
<title>Node0&#45;&gt;Node2</title>
<g id="a_edge2_Node000000_Node000002"><a xlink:title=" ">
<path fill="none" stroke="#63b8ff" d="M170.17,-18.55C184.95,-17.12 199.83,-15.69 213.33,-14.38"/>
<polygon fill="#63b8ff" stroke="#63b8ff" points="170.04,-15.05 160.42,-19.5 170.71,-22.02 170.04,-15.05"/>
</a>
</g>
</g>
</g>
</svg>
