<?xml version="1.0" encoding="UTF-8" standalone="no"?>
<!DOCTYPE svg PUBLIC "-//W3C//DTD SVG 1.1//EN"
 "http://www.w3.org/Graphics/SVG/1.1/DTD/svg11.dtd">
<!-- Generated by graphviz version 12.1.2 (0)
 -->
<!-- Title: Graphical Class Hierarchy Pages: 1 -->
<svg width="261pt" height="138pt"
 viewBox="0.00 0.00 260.50 137.50" xmlns="http://www.w3.org/2000/svg" xmlns:xlink="http://www.w3.org/1999/xlink">
<g id="graph0" class="graph" transform="scale(1 1) rotate(0) translate(4 133.5)">
<title>Graphical Class Hierarchy</title>
<!-- Node0 -->
<g id="Node000000" class="node">
<title>Node0</title>
<g id="a_Node000000"><a xlink:href="classILoadBalancer.html" target="_top" xlink:title=" ">
<polygon fill="white" stroke="#666666" points="78.25,-73.5 0,-73.5 0,-55 78.25,-55 78.25,-73.5"/>
<text text-anchor="middle" x="39.12" y="-60" font-family="Helvetica,sans-Serif" font-size="10.00">ILoadBalancer</text>
</a>
</g>
</g>
<!-- Node1 -->
<g id="Node000001" class="node">
<title>Node1</title>
<g id="a_Node000001"><a xlink:href="classBoundLoadBalancer.html" target="_top" xlink:title=" ">
<polygon fill="white" stroke="#666666" points="234.88,-129.5 131.88,-129.5 131.88,-111 234.88,-111 234.88,-129.5"/>
<text text-anchor="middle" x="183.38" y="-116" font-family="Helvetica,sans-Serif" font-size="10.00">BoundLoadBalancer</text>
</a>
</g>
</g>
<!-- Node0&#45;&gt;Node1 -->
<g id="edge5_Node000000_Node000001" class="edge">
<title>Node0&#45;&gt;Node1</title>
<g id="a_edge5_Node000000_Node000001"><a xlink:title=" ">
<path fill="none" stroke="#63b8ff" d="M66.91,-79.17C80.75,-86.49 98.1,-95.03 114.25,-101.25 123.3,-104.73 133.26,-107.88 142.69,-110.56"/>
<polygon fill="#63b8ff" stroke="#63b8ff" points="68.87,-76.26 58.41,-74.6 65.55,-82.42 68.87,-76.26"/>
</a>
</g>
</g>
<!-- Node2 -->
<g id="Node000002" class="node">
<title>Node2</title>
<g id="a_Node000002"><a xlink:href="classCustomLoadBalancer.html" target="_top" xlink:title=" ">
<polygon fill="white" stroke="#666666" points="238.25,-92.5 128.5,-92.5 128.5,-74 238.25,-74 238.25,-92.5"/>
<text text-anchor="middle" x="183.38" y="-79" font-family="Helvetica,sans-Serif" font-size="10.00">CustomLoadBalancer</text>
</a>
</g>
</g>
<!-- Node0&#45;&gt;Node2 -->
<g id="edge6_Node000000_Node000002" class="edge">
<title>Node0&#45;&gt;Node2</title>
<g id="a_edge6_Node000000_Node000002"><a xlink:title=" ">
<path fill="none" stroke="#63b8ff" d="M89.69,-70.87C102.1,-72.53 115.47,-74.31 128.1,-76"/>
<polygon fill="#63b8ff" stroke="#63b8ff" points="90.5,-67.45 80.12,-69.59 89.57,-74.39 90.5,-67.45"/>
</a>
</g>
</g>
<!-- Node3 -->
<g id="Node000003" class="node">
<title>Node3</title>
<g id="a_Node000003"><a xlink:href="classHostImportantLoadBalancer.html" target="_top" xlink:title=" ">
<polygon fill="white" stroke="#666666" points="252.5,-55.5 114.25,-55.5 114.25,-37 252.5,-37 252.5,-55.5"/>
<text text-anchor="middle" x="183.38" y="-42" font-family="Helvetica,sans-Serif" font-size="10.00">HostImportantLoadBalancer</text>
</a>
</g>
</g>
<!-- Node0&#45;&gt;Node3 -->
<g id="edge7_Node000000_Node000003" class="edge">
<title>Node0&#45;&gt;Node3</title>
<g id="a_edge7_Node000000_Node000003"><a xlink:title=" ">
<path fill="none" stroke="#63b8ff" d="M90.04,-57.93C97.79,-56.95 105.91,-55.93 113.98,-54.91"/>
<polygon fill="#63b8ff" stroke="#63b8ff" points="89.6,-54.46 80.12,-59.19 90.48,-61.41 89.6,-54.46"/>
</a>
</g>
</g>
<!-- Node4 -->
<g id="Node000004" class="node">
<title>Node4</title>
<g id="a_Node000004"><a xlink:href="classUniformLoadBalancer.html" target="_top" xlink:title=" ">
<polygon fill="white" stroke="#666666" points="238.25,-18.5 128.5,-18.5 128.5,0 238.25,0 238.25,-18.5"/>
<text text-anchor="middle" x="183.38" y="-5" font-family="Helvetica,sans-Serif" font-size="10.00">UniformLoadBalancer</text>
</a>
</g>
</g>
<!-- Node0&#45;&gt;Node4 -->
<g id="edge8_Node000000_Node000004" class="edge">
<title>Node0&#45;&gt;Node4</title>
<g id="a_edge8_Node000000_Node000004"><a xlink:title=" ">
<path fill="none" stroke="#63b8ff" d="M67.91,-49.28C81.6,-42.29 98.52,-34.21 114.25,-28.25 123.44,-24.77 133.53,-21.61 143.08,-18.91"/>
<polygon fill="#63b8ff" stroke="#63b8ff" points="66.3,-46.17 59.04,-53.9 69.53,-52.38 66.3,-46.17"/>
</a>
</g>
</g>
</g>
</svg>
