<?xml version="1.0" encoding="UTF-8" standalone="no"?>
<!DOCTYPE svg PUBLIC "-//W3C//DTD SVG 1.1//EN"
 "http://www.w3.org/Graphics/SVG/1.1/DTD/svg11.dtd">
<!-- Generated by graphviz version 14.0.1 (0)
 -->
<!-- Title: Graphical Class Hierarchy Pages: 1 -->
<svg width="254pt" height="64pt"
 viewBox="0.00 0.00 254.00 64.00" xmlns="http://www.w3.org/2000/svg" xmlns:xlink="http://www.w3.org/1999/xlink">
<g id="graph0" class="graph" transform="scale(1 1) rotate(0) translate(4 59.5)">
<title>Graphical Class Hierarchy</title>
<!-- Node0 -->
<g id="Node000000" class="node">
<title>Node0</title>
<g id="a_Node000000"><a xlink:href="classCore_1_1DataExporter.html" target="_top" xlink:title="A class responsible for exporting various types of data such as matrices, arrays, and metadata in a s...">
<polygon fill="white" stroke="#666666" points="100.75,-36.5 0,-36.5 0,-18 100.75,-18 100.75,-36.5"/>
<text xml:space="preserve" text-anchor="middle" x="50.38" y="-23" font-family="Helvetica,sans-Serif" font-size="10.00">Core::DataExporter</text>
</a>
</g>
</g>
<!-- Node1 -->
<g id="Node000001" class="node">
<title>Node1</title>
<g id="a_Node000001"><a xlink:href="classCore_1_1MainExporter.html" target="_top" xlink:title="Exporter for host&#45;only data related to general&#45;purpose simulation data (e.g., concentration,...">
<polygon fill="white" stroke="#666666" points="242,-55.5 140.5,-55.5 140.5,-37 242,-37 242,-55.5"/>
<text xml:space="preserve" text-anchor="middle" x="191.25" y="-42" font-family="Helvetica,sans-Serif" font-size="10.00">Core::MainExporter</text>
</a>
</g>
</g>
<!-- Node0&#45;&gt;Node1 -->
<g id="edge1_Node000000_Node000001" class="edge">
<title>Node0&#45;&gt;Node1</title>
<g id="a_edge1_Node000000_Node000001"><a xlink:title=" ">
<path fill="none" stroke="#63b8ff" d="M112.38,-35.6C121.74,-36.88 131.31,-38.19 140.39,-39.43"/>
<polygon fill="#63b8ff" stroke="#63b8ff" points="113,-32.15 102.62,-34.26 112.05,-39.08 113,-32.15"/>
</a>
</g>
</g>
<!-- Node2 -->
<g id="Node000002" class="node">
<title>Node2</title>
<g id="a_Node000002"><a xlink:href="classCore_1_1PartialExporter.html" target="_top" xlink:title="Exporter for each MPI worker (including host) that exports data relative to particle state.">
<polygon fill="white" stroke="#666666" points="245.75,-18.5 136.75,-18.5 136.75,0 245.75,0 245.75,-18.5"/>
<text xml:space="preserve" text-anchor="middle" x="191.25" y="-5" font-family="Helvetica,sans-Serif" font-size="10.00">Core::PartialExporter</text>
</a>
</g>
</g>
<!-- Node0&#45;&gt;Node2 -->
<g id="edge2_Node000000_Node000002" class="edge">
<title>Node0&#45;&gt;Node2</title>
<g id="a_edge2_Node000000_Node000002"><a xlink:title=" ">
<path fill="none" stroke="#63b8ff" d="M112.38,-19.34C120.46,-18.3 128.69,-17.23 136.62,-16.2"/>
<polygon fill="#63b8ff" stroke="#63b8ff" points="112.09,-15.85 102.62,-20.61 112.99,-22.79 112.09,-15.85"/>
</a>
</g>
</g>
</g>
</svg>
