<?xml version="1.0" encoding="UTF-8" standalone="no"?>
<!DOCTYPE svg PUBLIC "-//W3C//DTD SVG 1.1//EN"
 "http://www.w3.org/Graphics/SVG/1.1/DTD/svg11.dtd">
<!-- Generated by graphviz version 14.0.1 (0)
 -->
<!-- Title: Simulation::read_options Pages: 1 -->
<svg width="420pt" height="27pt"
 viewBox="0.00 0.00 420.00 27.00" xmlns="http://www.w3.org/2000/svg" xmlns:xlink="http://www.w3.org/1999/xlink">
<g id="graph0" class="graph" transform="scale(1 1) rotate(0) translate(4 22.5)">
<title>Simulation::read_options</title>
<!-- Node1 -->
<g id="Node000001" class="node">
<title>Node1</title>
<g id="a_Node000001"><a xlink:title=" ">
<polygon fill="#999999" stroke="#666666" points="123.25,-18.5 0,-18.5 0,0 123.25,0 123.25,-18.5"/>
<text xml:space="preserve" text-anchor="middle" x="61.62" y="-5" font-family="Helvetica,sans-Serif" font-size="10.00">Simulation::read_options</text>
</a>
</g>
</g>
<!-- Node2 -->
<g id="Node000002" class="node">
<title>Node2</title>
<g id="a_Node000002"><a xlink:href="namespaceCommon.html#a7ca16dc3314f89cd1860091731cd7014" target="_top" xlink:title="Wrapper arround get_env to get envariable with fallback to default.">
<polygon fill="white" stroke="#666666" points="274.25,-18.5 159.25,-18.5 159.25,0 274.25,0 274.25,-18.5"/>
<text xml:space="preserve" text-anchor="middle" x="216.75" y="-5" font-family="Helvetica,sans-Serif" font-size="10.00">Common::read_env_or</text>
</a>
</g>
</g>
<!-- Node1&#45;&gt;Node2 -->
<g id="edge1_Node000001_Node000002" class="edge">
<title>Node1&#45;&gt;Node2</title>
<g id="a_edge1_Node000001_Node000002"><a xlink:title=" ">
<path fill="none" stroke="#63b8ff" d="M123.58,-9.25C131.52,-9.25 139.69,-9.25 147.73,-9.25"/>
<polygon fill="#63b8ff" stroke="#63b8ff" points="147.47,-12.75 157.47,-9.25 147.47,-5.75 147.47,-12.75"/>
</a>
</g>
</g>
<!-- Node3 -->
<g id="Node000003" class="node">
<title>Node3</title>
<g id="a_Node000003"><a xlink:href="namespaceCommon.html#a7e29bd7117dd8bfc651a1dc215923379" target="_top" xlink:title="Wrapper arround get_env to get optional envariable.">
<polygon fill="white" stroke="#666666" points="411.75,-18.5 310.25,-18.5 310.25,0 411.75,0 411.75,-18.5"/>
<text xml:space="preserve" text-anchor="middle" x="361" y="-5" font-family="Helvetica,sans-Serif" font-size="10.00">Common::read_env</text>
</a>
</g>
</g>
<!-- Node2&#45;&gt;Node3 -->
<g id="edge2_Node000002_Node000003" class="edge">
<title>Node2&#45;&gt;Node3</title>
<g id="a_edge2_Node000002_Node000003"><a xlink:title=" ">
<path fill="none" stroke="#63b8ff" d="M274.38,-9.25C282.38,-9.25 290.64,-9.25 298.73,-9.25"/>
<polygon fill="#63b8ff" stroke="#63b8ff" points="298.49,-12.75 308.49,-9.25 298.49,-5.75 298.49,-12.75"/>
</a>
</g>
</g>
</g>
</svg>
