<?xml version="1.0" encoding="UTF-8" standalone="no"?>
<!DOCTYPE svg PUBLIC "-//W3C//DTD SVG 1.1//EN"
 "http://www.w3.org/Graphics/SVG/1.1/DTD/svg11.dtd">
<!-- Generated by graphviz version 14.0.1 (0)
 -->
<!-- Title: MC::Distributions::erfinv Pages: 1 -->
<!--zoomable 191 -->

<svg id="main" version="1.1" xmlns="http://www.w3.org/2000/svg" xmlns:xlink="http://www.w3.org/1999/xlink" xml:space="preserve" onload="init(evt)">

<style type="text/css"><![CDATA[
.node, .edge {opacity: 0.7;}
.node.selected, .edge.selected {opacity: 1;}
.edge:hover path { stroke: red; }
.edge:hover polygon { stroke: red; fill: red; }
]]></style>

<defs>
  <circle id="rim" cx="0" cy="0" r="7"/>
  <circle id="rim2" cx="0" cy="0" r="3.5"/>
  <g id="zoomPlus">
    <use xlink:href="#rim" fill="#404040"><set attributeName="fill" to="#808080" begin="zoomplus.mouseover" end="zoomplus.mouseout"/></use>
    <path d="M-4,0h8M0,-4v8" fill="none" stroke="white" stroke-width="1.5" pointer-events="none"/>
  </g>
  <g id="zoomMin">
    <use xlink:href="#rim" fill="#404040"><set attributeName="fill" to="#808080" begin="zoomminus.mouseover" end="zoomminus.mouseout"/></use>
    <path d="M-4,0h8" fill="none" stroke="white" stroke-width="1.5" pointer-events="none"/>
  </g>
  <g id="arrowUp" transform="translate(30 24)">
    <use xlink:href="#rim"/>
    <path pointer-events="none" fill="none" stroke="white" stroke-width="1.5" d="M0,-3.0v7 M-2.5,-0.5L0,-3.0L2.5,-0.5"/>
  </g>
  <g id="arrowRight" transform="rotate(90) translate(36 -43)">
    <use xlink:href="#rim"/>
    <path pointer-events="none" fill="none" stroke="white" stroke-width="1.5" d="M0,-3.0v7 M-2.5,-0.5L0,-3.0L2.5,-0.5"/>
  </g>
  <g id="arrowDown" transform="rotate(180) translate(-30 -48)">
    <use xlink:href="#rim"/>
    <path pointer-events="none" fill="none" stroke="white" stroke-width="1.5" d="M0,-3.0v7 M-2.5,-0.5L0,-3.0L2.5,-0.5"/>
  </g>
  <g id="arrowLeft" transform="rotate(270) translate(-36 17)">
    <use xlink:href="#rim"/>
    <path pointer-events="none" fill="none" stroke="white" stroke-width="1.5" d="M0,-3.0v7 M-2.5,-0.5L0,-3.0L2.5,-0.5"/>
  </g>
  <g id="resetDef">
    <use xlink:href="#rim2" fill="#404040"><set attributeName="fill" to="#808080" begin="reset.mouseover" end="reset.mouseout"/></use>
  </g>
</defs>
<script type="application/ecmascript">
var viewWidth = 738;
var viewHeight = 191;
var sectionId = 'dynsection-0';
</script>
<script type="application/ecmascript" xlink:href="svg.min.js"/>
<svg id="graph" class="graph">
<g id="viewport">
<title>MC::Distributions::erfinv</title>
<!-- Node1 -->
<g id="Node000001" class="node">
<title>Node1</title>
<g id="a_Node000001"><a xlink:title="Computes an approximation of the inverse error function.">
<polygon fill="#999999" stroke="#666666" points="730.25,-122.75 631.75,-122.75 631.75,-93.75 730.25,-93.75 730.25,-122.75"/>
<text xml:space="preserve" text-anchor="start" x="639.75" y="-109.25" font-family="Helvetica,sans-Serif" font-size="10.00">MC::Distributions::</text>
<text xml:space="preserve" text-anchor="middle" x="681" y="-98.75" font-family="Helvetica,sans-Serif" font-size="10.00">erfinv</text>
</a>
</g>
</g>
<!-- Node2 -->
<g id="Node000002" class="node">
<title>Node2</title>
<g id="a_Node000002"><a xlink:href="namespaceMC_1_1Distributions.html#a3c07f6cf61b1c67ea9b2b3e0d6c42cc7" target="_top" xlink:title="Computes the inverse CDF (probit function) of a normal distribution.">
<polygon fill="white" stroke="#666666" points="595.75,-122.75 497.25,-122.75 497.25,-93.75 595.75,-93.75 595.75,-122.75"/>
<text xml:space="preserve" text-anchor="start" x="505.25" y="-109.25" font-family="Helvetica,sans-Serif" font-size="10.00">MC::Distributions::</text>
<text xml:space="preserve" text-anchor="middle" x="546.5" y="-98.75" font-family="Helvetica,sans-Serif" font-size="10.00">norminv</text>
</a>
</g>
</g>
<!-- Node1&#45;&gt;Node2 -->
<g id="edge1_Node000001_Node000002" class="edge">
<title>Node1&#45;&gt;Node2</title>
<g id="a_edge1_Node000001_Node000002"><a xlink:title=" ">
<path fill="none" stroke="#63b8ff" d="M620.16,-108.25C612.1,-108.25 603.91,-108.25 596.08,-108.25"/>
<polygon fill="#63b8ff" stroke="#63b8ff" points="619.9,-111.75 629.9,-108.25 619.9,-104.75 619.9,-111.75"/>
</a>
</g>
</g>
<!-- Node3 -->
<g id="Node000003" class="node">
<title>Node3</title>
<g id="a_Node000003"><a xlink:href="structMC_1_1Distributions_1_1TruncatedNormal.html#af6cfcdb1f39978352e55fc5c5f729462" target="_top" xlink:title=" ">
<polygon fill="white" stroke="#666666" points="461.25,-122.75 319.25,-122.75 319.25,-93.75 461.25,-93.75 461.25,-122.75"/>
<text xml:space="preserve" text-anchor="start" x="327.25" y="-109.25" font-family="Helvetica,sans-Serif" font-size="10.00">MC::Distributions::</text>
<text xml:space="preserve" text-anchor="middle" x="390.25" y="-98.75" font-family="Helvetica,sans-Serif" font-size="10.00">TruncatedNormal::draw_from</text>
</a>
</g>
</g>
<!-- Node2&#45;&gt;Node3 -->
<g id="edge2_Node000002_Node000003" class="edge">
<title>Node2&#45;&gt;Node3</title>
<g id="a_edge2_Node000002_Node000003"><a xlink:title=" ">
<path fill="none" stroke="#63b8ff" d="M485.72,-108.25C477.78,-108.25 469.58,-108.25 461.49,-108.25"/>
<polygon fill="#63b8ff" stroke="#63b8ff" points="485.6,-111.75 495.6,-108.25 485.6,-104.75 485.6,-111.75"/>
</a>
</g>
</g>
<!-- Node4 -->
<g id="Node000004" class="node">
<title>Node4</title>
<g id="a_Node000004"><a xlink:href="structModels_1_1TwoMetaNb.html#a329f6d4a53ae6e8315a49c35ebd6bdc4" target="_top" xlink:title=" ">
<polygon fill="white" stroke="#666666" points="117.62,-182.75 6.38,-182.75 6.38,-153.75 117.62,-153.75 117.62,-182.75"/>
<text xml:space="preserve" text-anchor="start" x="14.38" y="-169.25" font-family="Helvetica,sans-Serif" font-size="10.00">Models::TwoMetaNb::</text>
<text xml:space="preserve" text-anchor="middle" x="62" y="-158.75" font-family="Helvetica,sans-Serif" font-size="10.00">division</text>
</a>
</g>
</g>
<!-- Node3&#45;&gt;Node4 -->
<g id="edge3_Node000003_Node000004" class="edge">
<title>Node3&#45;&gt;Node4</title>
<g id="a_edge3_Node000003_Node000004"><a xlink:title=" ">
<path fill="none" stroke="#63b8ff" d="M360.97,-129.63C340.57,-143.66 311.72,-160.75 283.25,-168.25 228.34,-182.71 163.02,-180.4 117.85,-175.9"/>
<polygon fill="#63b8ff" stroke="#63b8ff" points="362.9,-132.56 369.03,-123.92 358.85,-126.85 362.9,-132.56"/>
</a>
</g>
</g>
<!-- Node5 -->
<g id="Node000005" class="node">
<title>Node5</title>
<g id="a_Node000005"><a xlink:href="structModels_1_1Uptake.html#a24e2b8c243d651080c131379e044bc15" target="_top" xlink:title=" ">
<polygon fill="white" stroke="#666666" points="283.25,-159.5 160,-159.5 160,-141 283.25,-141 283.25,-159.5"/>
<text xml:space="preserve" text-anchor="middle" x="221.62" y="-146" font-family="Helvetica,sans-Serif" font-size="10.00">Models::Uptake::division</text>
</a>
</g>
</g>
<!-- Node3&#45;&gt;Node5 -->
<g id="edge4_Node000003_Node000005" class="edge">
<title>Node3&#45;&gt;Node5</title>
<g id="a_edge4_Node000003_Node000005"><a xlink:title=" ">
<path fill="none" stroke="#63b8ff" d="M319.13,-125.93C299.25,-130.94 278.34,-136.21 261.09,-140.55"/>
<polygon fill="#63b8ff" stroke="#63b8ff" points="319.73,-129.38 328.57,-123.55 318.02,-122.6 319.73,-129.38"/>
</a>
</g>
</g>
<!-- Node6 -->
<g id="Node000006" class="node">
<title>Node6</title>
<g id="a_Node000006"><a xlink:href="structMC_1_1Distributions_1_1TruncatedNormal.html#a5c5cc899d8c3986ea0ae4b4789fbc533" target="_top" xlink:title=" ">
<polygon fill="white" stroke="#666666" points="280.25,-122.75 163,-122.75 163,-93.75 280.25,-93.75 280.25,-122.75"/>
<text xml:space="preserve" text-anchor="start" x="171" y="-109.25" font-family="Helvetica,sans-Serif" font-size="10.00">MC::Distributions::</text>
<text xml:space="preserve" text-anchor="middle" x="221.62" y="-98.75" font-family="Helvetica,sans-Serif" font-size="10.00">TruncatedNormal::draw</text>
</a>
</g>
</g>
<!-- Node3&#45;&gt;Node6 -->
<g id="edge6_Node000003_Node000006" class="edge">
<title>Node3&#45;&gt;Node6</title>
<g id="a_edge6_Node000003_Node000006"><a xlink:title=" ">
<path fill="none" stroke="#63b8ff" d="M307.58,-108.25C298.48,-108.25 289.35,-108.25 280.62,-108.25"/>
<polygon fill="#63b8ff" stroke="#63b8ff" points="307.56,-111.75 317.56,-108.25 307.56,-104.75 307.56,-111.75"/>
</a>
</g>
</g>
<!-- Node7 -->
<g id="Node000007" class="node">
<title>Node7</title>
<g id="a_Node000007"><a xlink:href="structMC_1_1Distributions_1_1ScaledTruncatedNormal.html#ac66c440e3d39d95509ab84a43455029b" target="_top" xlink:title=" ">
<polygon fill="white" stroke="#666666" points="281.75,-76 161.5,-76 161.5,-36.5 281.75,-36.5 281.75,-76"/>
<text xml:space="preserve" text-anchor="start" x="169.5" y="-62.5" font-family="Helvetica,sans-Serif" font-size="10.00">MC::Distributions::</text>
<text xml:space="preserve" text-anchor="start" x="169.5" y="-52" font-family="Helvetica,sans-Serif" font-size="10.00">ScaledTruncatedNormal</text>
<text xml:space="preserve" text-anchor="middle" x="221.62" y="-41.5" font-family="Helvetica,sans-Serif" font-size="10.00">::draw_from</text>
</a>
</g>
</g>
<!-- Node3&#45;&gt;Node7 -->
<g id="edge7_Node000003_Node000007" class="edge">
<title>Node3&#45;&gt;Node7</title>
<g id="a_edge7_Node000003_Node000007"><a xlink:title=" ">
<path fill="none" stroke="#63b8ff" d="M330.79,-90.01C314.96,-85.07 297.82,-79.72 281.95,-74.76"/>
<polygon fill="#63b8ff" stroke="#63b8ff" points="329.47,-93.26 340.06,-92.9 331.55,-86.58 329.47,-93.26"/>
</a>
</g>
</g>
<!-- Node8 -->
<g id="Node000008" class="node">
<title>Node8</title>
<g id="a_Node000008"><a xlink:href="structModels_1_1Uptake.html#a25452dbd4d5aadf1ef74d5745d8fbd9f" target="_top" xlink:title=" ">
<polygon fill="white" stroke="#666666" points="273.12,-18.5 170.12,-18.5 170.12,0 273.12,0 273.12,-18.5"/>
<text xml:space="preserve" text-anchor="middle" x="221.62" y="-5" font-family="Helvetica,sans-Serif" font-size="10.00">Models::Uptake::init</text>
</a>
</g>
</g>
<!-- Node3&#45;&gt;Node8 -->
<g id="edge8_Node000003_Node000008" class="edge">
<title>Node3&#45;&gt;Node8</title>
<g id="a_edge8_Node000003_Node000008"><a xlink:title=" ">
<path fill="none" stroke="#63b8ff" d="M365.28,-85.81C344.85,-67.75 314,-42.89 283.25,-27.25 276.89,-24.01 269.85,-21.26 262.89,-18.95"/>
<polygon fill="#63b8ff" stroke="#63b8ff" points="362.73,-88.23 372.5,-92.32 367.41,-83.02 362.73,-88.23"/>
</a>
</g>
</g>
<!-- Node5&#45;&gt;Node4 -->
<g id="edge5_Node000005_Node000004" class="edge">
<title>Node5&#45;&gt;Node4</title>
<g id="a_edge5_Node000005_Node000004"><a xlink:title=" ">
<path fill="none" stroke="#63b8ff" d="M148.32,-158.51C138.17,-159.67 127.87,-160.84 118.11,-161.96"/>
<polygon fill="#63b8ff" stroke="#63b8ff" points="148.64,-161.99 158.18,-157.38 147.85,-155.04 148.64,-161.99"/>
</a>
</g>
</g>
<!-- Node9 -->
<g id="Node000009" class="node">
<title>Node9</title>
<g id="a_Node000009"><a xlink:href="structModels_1_1TwoMetaNb.html#afd8730470d275a0dc5757f7ca5c894d4" target="_top" xlink:title=" ">
<polygon fill="white" stroke="#666666" points="124,-18.5 0,-18.5 0,0 124,0 124,-18.5"/>
<text xml:space="preserve" text-anchor="middle" x="62" y="-5" font-family="Helvetica,sans-Serif" font-size="10.00">Models::TwoMetaNb::init</text>
</a>
</g>
</g>
<!-- Node8&#45;&gt;Node9 -->
<g id="edge9_Node000008_Node000009" class="edge">
<title>Node8&#45;&gt;Node9</title>
<g id="a_edge9_Node000008_Node000009"><a xlink:title=" ">
<path fill="none" stroke="#63b8ff" d="M158.43,-9.25C147.23,-9.25 135.57,-9.25 124.4,-9.25"/>
<polygon fill="#63b8ff" stroke="#63b8ff" points="158.37,-12.75 168.37,-9.25 158.37,-5.75 158.37,-12.75"/>
</a>
</g>
</g>
</g>
</svg>

<g id="navigator" transform="translate(0 0)" fill="#404254">
  <rect fill="#f2f5e9" fill-opacity="0.5" stroke="#606060" stroke-width=".5" x="0" y="0" width="60" height="60"/>
  <use id="zoomplus" xlink:href="#zoomPlus" x="17" y="9" onmousedown="handleZoom(evt,'in')"/>
  <use id="zoomminus" xlink:href="#zoomMin" x="42" y="9" onmousedown="handleZoom(evt,'out')"/>
  <use id="reset" xlink:href="#resetDef" x="30" y="36" onmousedown="handleReset()"/>
   <use id="arrowup" xlink:href="#arrowUp" x="0" y="0" onmousedown="handlePan(0,-1)"/>
  <use id="arrowright" xlink:href="#arrowRight" x="0" y="0" onmousedown="handlePan(1,0)"/>
  <use id="arrowdown" xlink:href="#arrowDown" x="0" y="0" onmousedown="handlePan(0,1)"/>
  <use id="arrowleft" xlink:href="#arrowLeft" x="0" y="0" onmousedown="handlePan(-1,0)"/>
</g>
<svg viewBox="0 0 15 15" width="100%" height="30px" preserveAspectRatio="xMaxYMin meet">
 <g id="arrow_out" transform="scale(0.3 0.3)">
  <a xlink:href="namespaceMC_1_1Distributions_a351272c0fa13e73d23c7b1caf92e858f_icgraph_org.svg" target="_base">
   <rect id="button" ry="5" rx="5" y="6" x="6" height="38" width="38"
        fill="#f2f5e9" fill-opacity="0.5" stroke="#606060" stroke-width="1.0"/>
   <path id="arrow"
     d="M 11.500037,31.436501 C 11.940474,20.09759 22.043105,11.32322 32.158766,21.979434 L 37.068811,17.246167 C 37.068811,17.246167 37.088388,32 37.088388,32 L 22.160133,31.978069 C 22.160133,31.978069 26.997745,27.140456 26.997745,27.140456 C 18.528582,18.264221 13.291696,25.230495 11.500037,31.436501 z"
     style="fill:#404040;"/>
  </a>
 </g>
</svg>

<style type='text/css'>
<![CDATA[
[data-mouse-over-selected='false'] { opacity: 0.7; }
[data-mouse-over-selected='true']  { opacity: 1.0; }
]]>
</style>
<script type="application/ecmascript"><![CDATA[
document.addEventListener('DOMContentLoaded', (event) => {
  highlightEdges();
  highlightAdjacentNodes();
});
]]></script>
</svg>
