<?xml version="1.0" encoding="UTF-8" standalone="no"?>
<!DOCTYPE svg PUBLIC "-//W3C//DTD SVG 1.1//EN"
 "http://www.w3.org/Graphics/SVG/1.1/DTD/svg11.dtd">
<!-- Generated by graphviz version 12.1.2 (0)
 -->
<!-- Title: PostProcessing::save_probes Pages: 1 -->
<svg width="424pt" height="84pt"
 viewBox="0.00 0.00 423.50 84.00" xmlns="http://www.w3.org/2000/svg" xmlns:xlink="http://www.w3.org/1999/xlink">
<g id="graph0" class="graph" transform="scale(1 1) rotate(0) translate(4 80)">
<title>PostProcessing::save_probes</title>
<!-- Node1 -->
<g id="Node000001" class="node">
<title>Node1</title>
<g id="a_Node000001"><a xlink:title=" ">
<polygon fill="#999999" stroke="#666666" points="111.25,-52 0,-52 0,-23 111.25,-23 111.25,-52"/>
<text text-anchor="start" x="8" y="-38.5" font-family="Helvetica,sans-Serif" font-size="10.00">PostProcessing::save</text>
<text text-anchor="middle" x="55.62" y="-28" font-family="Helvetica,sans-Serif" font-size="10.00">_probes</text>
</a>
</g>
</g>
<!-- Node2 -->
<g id="Node000002" class="node">
<title>Node2</title>
<g id="a_Node000002"><a xlink:href="classSimulation_1_1SimulationUnit.html#a0d675ed463b0caaeea75be8bd87d72cc" target="_top" xlink:title=" ">
<polygon fill="white" stroke="#666666" points="278.75,-76 147.25,-76 147.25,-47 278.75,-47 278.75,-76"/>
<text text-anchor="start" x="155.25" y="-62.5" font-family="Helvetica,sans-Serif" font-size="10.00">Simulation::SimulationUnit</text>
<text text-anchor="middle" x="213" y="-52" font-family="Helvetica,sans-Serif" font-size="10.00">::get_probes</text>
</a>
</g>
</g>
<!-- Node1&#45;&gt;Node2 -->
<g id="edge1_Node000001_Node000002" class="edge">
<title>Node1&#45;&gt;Node2</title>
<g id="a_edge1_Node000001_Node000002"><a xlink:title=" ">
<path fill="none" stroke="#63b8ff" d="M111.4,-45.96C119.27,-47.18 127.49,-48.45 135.68,-49.71"/>
<polygon fill="#63b8ff" stroke="#63b8ff" points="134.89,-53.13 145.31,-51.2 135.96,-46.21 134.89,-53.13"/>
</a>
</g>
</g>
<!-- Node3 -->
<g id="Node000003" class="node">
<title>Node3</title>
<g id="a_Node000003"><a xlink:href="classCore_1_1PartialExporter.html#a9927dbf1350349f090606134043e190c" target="_top" xlink:title="Writes probe data to the export.">
<polygon fill="white" stroke="#666666" points="267.5,-29 158.5,-29 158.5,0 267.5,0 267.5,-29"/>
<text text-anchor="start" x="166.5" y="-15.5" font-family="Helvetica,sans-Serif" font-size="10.00">Core::PartialExporter</text>
<text text-anchor="middle" x="213" y="-5" font-family="Helvetica,sans-Serif" font-size="10.00">::write_probe</text>
</a>
</g>
</g>
<!-- Node1&#45;&gt;Node3 -->
<g id="edge2_Node000001_Node000003" class="edge">
<title>Node1&#45;&gt;Node3</title>
<g id="a_edge2_Node000001_Node000003"><a xlink:title=" ">
<path fill="none" stroke="#63b8ff" d="M111.4,-29.39C122.92,-27.69 135.18,-25.87 147.04,-24.12"/>
<polygon fill="#63b8ff" stroke="#63b8ff" points="147.36,-27.61 156.74,-22.68 146.34,-20.68 147.36,-27.61"/>
</a>
</g>
</g>
<!-- Node4 -->
<g id="Node000004" class="node">
<title>Node4</title>
<g id="a_Node000004"><a xlink:href="classCore_1_1DataExporter.html#a0b0b79f3932c4eb905704a852248c857" target="_top" xlink:title=" ">
<polygon fill="white" stroke="#666666" points="415.5,-29 314.75,-29 314.75,0 415.5,0 415.5,-29"/>
<text text-anchor="start" x="322.75" y="-15.5" font-family="Helvetica,sans-Serif" font-size="10.00">Core::DataExporter</text>
<text text-anchor="middle" x="365.12" y="-5" font-family="Helvetica,sans-Serif" font-size="10.00">::append_array</text>
</a>
</g>
</g>
<!-- Node3&#45;&gt;Node4 -->
<g id="edge3_Node000003_Node000004" class="edge">
<title>Node3&#45;&gt;Node4</title>
<g id="a_edge3_Node000003_Node000004"><a xlink:title=" ">
<path fill="none" stroke="#63b8ff" d="M267.77,-14.5C279.38,-14.5 291.72,-14.5 303.57,-14.5"/>
<polygon fill="#63b8ff" stroke="#63b8ff" points="303.21,-18 313.21,-14.5 303.21,-11 303.21,-18"/>
</a>
</g>
</g>
</g>
</svg>
