<?xml version="1.0" encoding="UTF-8" standalone="no"?>
<!DOCTYPE svg PUBLIC "-//W3C//DTD SVG 1.1//EN"
 "http://www.w3.org/Graphics/SVG/1.1/DTD/svg11.dtd">
<!-- Generated by graphviz version 12.1.2 (0)
 -->
<!-- Title: WrapMPI::try_recv_v Pages: 1 -->
<svg width="403pt" height="82pt"
 viewBox="0.00 0.00 402.50 81.50" xmlns="http://www.w3.org/2000/svg" xmlns:xlink="http://www.w3.org/1999/xlink">

<svg id="main" version="1.1" xmlns="http://www.w3.org/2000/svg" xmlns:xlink="http://www.w3.org/1999/xlink" xml:space="preserve">

<style type="text/css"><![CDATA[
.node, .edge {opacity: 0.7;}
.node.selected, .edge.selected {opacity: 1;}
.edge:hover path { stroke: red; }
.edge:hover polygon { stroke: red; fill: red; }
]]></style>
<script type="application/ecmascript" xlink:href="svg.min.js"/>
<svg id="graph" class="graph">
<g id="graph0" class="graph" transform="scale(1 1) rotate(0) translate(4 77.5)">
<title>WrapMPI::try_recv_v</title>
<!-- Node1 -->
<g id="Node000001" class="node">
<title>Node1</title>
<g id="a_Node000001"><a xlink:title="Attempts to receive a vector of data items from a source.">
<polygon fill="#999999" stroke="#666666" points="108.25,-54.5 0,-54.5 0,-36 108.25,-36 108.25,-54.5"/>
<text text-anchor="middle" x="54.12" y="-41" font-family="Helvetica,sans-Serif" font-size="10.00">WrapMPI::try_recv_v</text>
</a>
</g>
</g>
<!-- Node2 -->
<g id="Node000002" class="node">
<title>Node2</title>
<g id="a_Node000002"><a xlink:href="namespaceWrapMPI.html#aa924ad0d911109a9e6e3a20bebc3b316" target="_top" xlink:title=" ">
<polygon fill="white" stroke="#666666" points="259.25,-73.5 144.25,-73.5 144.25,-55 259.25,-55 259.25,-73.5"/>
<text text-anchor="middle" x="201.75" y="-60" font-family="Helvetica,sans-Serif" font-size="10.00">WrapMPI::critical_error</text>
</a>
</g>
</g>
<!-- Node1&#45;&gt;Node2 -->
<g id="edge1_Node000001_Node000002" class="edge">
<title>Node1&#45;&gt;Node2</title>
<g id="a_edge1_Node000001_Node000002"><a xlink:title=" ">
<path fill="none" stroke="#63b8ff" d="M108.52,-52.22C116.36,-53.24 124.52,-54.3 132.6,-55.36"/>
<polygon fill="#63b8ff" stroke="#63b8ff" points="132.06,-58.82 142.43,-56.64 132.97,-51.88 132.06,-58.82"/>
</a>
</g>
</g>
<!-- Node3 -->
<g id="Node000003" class="node">
<title>Node3</title>
<g id="a_Node000003"><a xlink:href="namespaceWrapMPI.html#adfe55cebcaa7d941006e23c69a5a3bcf" target="_top" xlink:title="Receives a vector of data items from a source.">
<polygon fill="white" stroke="#666666" points="247.25,-36.5 156.25,-36.5 156.25,-18 247.25,-18 247.25,-36.5"/>
<text text-anchor="middle" x="201.75" y="-23" font-family="Helvetica,sans-Serif" font-size="10.00">WrapMPI::recv_v</text>
</a>
</g>
</g>
<!-- Node1&#45;&gt;Node3 -->
<g id="edge2_Node000001_Node000003" class="edge">
<title>Node1&#45;&gt;Node3</title>
<g id="a_edge2_Node000001_Node000003"><a xlink:title=" ">
<path fill="none" stroke="#63b8ff" d="M108.52,-38.65C120.33,-37.19 132.88,-35.64 144.79,-34.17"/>
<polygon fill="#63b8ff" stroke="#63b8ff" points="144.97,-37.67 154.47,-32.97 144.11,-30.72 144.97,-37.67"/>
</a>
</g>
</g>
<!-- Node4 -->
<g id="Node000004" class="node">
<title>Node4</title>
<g id="a_Node000004"><a xlink:href="namespaceWrapMPI.html#adab3300a86b8c0227268b23134b57a24" target="_top" xlink:title=" ">
<polygon fill="white" stroke="#666666" points="394.5,-55.5 295.25,-55.5 295.25,-37 394.5,-37 394.5,-55.5"/>
<text text-anchor="middle" x="344.88" y="-42" font-family="Helvetica,sans-Serif" font-size="10.00">WrapMPI::get_type</text>
</a>
</g>
</g>
<!-- Node3&#45;&gt;Node4 -->
<g id="edge3_Node000003_Node000004" class="edge">
<title>Node3&#45;&gt;Node4</title>
<g id="a_edge3_Node000003_Node000004"><a xlink:title=" ">
<path fill="none" stroke="#63b8ff" d="M247.4,-33.26C259.03,-34.83 271.74,-36.54 284.01,-38.19"/>
<polygon fill="#63b8ff" stroke="#63b8ff" points="283.23,-41.62 293.61,-39.48 284.17,-34.68 283.23,-41.62"/>
</a>
</g>
</g>
<!-- Node5 -->
<g id="Node000005" class="node">
<title>Node5</title>
<g id="a_Node000005"><a xlink:href="namespaceWrapMPI.html#ac43482d706c8ce2d9022c54784820197" target="_top" xlink:title="Receives a single data item from a source.">
<polygon fill="white" stroke="#666666" points="385.12,-18.5 304.62,-18.5 304.62,0 385.12,0 385.12,-18.5"/>
<text text-anchor="middle" x="344.88" y="-5" font-family="Helvetica,sans-Serif" font-size="10.00">WrapMPI::recv</text>
</a>
</g>
</g>
<!-- Node3&#45;&gt;Node5 -->
<g id="edge4_Node000003_Node000005" class="edge">
<title>Node3&#45;&gt;Node5</title>
<g id="a_edge4_Node000003_Node000005"><a xlink:title=" ">
<path fill="none" stroke="#63b8ff" d="M247.4,-21.55C261.95,-19.7 278.19,-17.63 293.15,-15.72"/>
<polygon fill="#63b8ff" stroke="#63b8ff" points="293.3,-19.23 302.78,-14.49 292.42,-12.28 293.3,-19.23"/>
</a>
</g>
</g>
</g>
</svg>
</svg>

<style type='text/css'>
<![CDATA[
[data-mouse-over-selected='false'] { opacity: 0.7; }
[data-mouse-over-selected='true']  { opacity: 1.0; }
]]>
</style>
<script type="application/ecmascript"><![CDATA[
document.addEventListener('DOMContentLoaded', (event) => {
  highlightEdges();
  highlightAdjacentNodes();
});
]]></script>
</svg>
