<?xml version="1.0" encoding="UTF-8" standalone="no"?>
<!DOCTYPE svg PUBLIC "-//W3C//DTD SVG 1.1//EN"
 "http://www.w3.org/Graphics/SVG/1.1/DTD/svg11.dtd">
<!-- Generated by graphviz version 14.0.1 (0)
 -->
<!-- Title: CommonMaths::_ln Pages: 1 -->
<svg width="621pt" height="107pt"
 viewBox="0.00 0.00 621.00 107.00" xmlns="http://www.w3.org/2000/svg" xmlns:xlink="http://www.w3.org/1999/xlink">
<g id="graph0" class="graph" transform="scale(1 1) rotate(0) translate(4 103)">
<title>CommonMaths::_ln</title>
<!-- Node1 -->
<g id="Node000001" class="node">
<title>Node1</title>
<g id="a_Node000001"><a xlink:title=" ">
<polygon fill="#999999" stroke="#666666" points="613,-69.75 511.5,-69.75 511.5,-51.25 613,-51.25 613,-69.75"/>
<text xml:space="preserve" text-anchor="middle" x="562.25" y="-56.25" font-family="Helvetica,sans-Serif" font-size="10.00">CommonMaths::_ln</text>
</a>
</g>
</g>
<!-- Node2 -->
<g id="Node000002" class="node">
<title>Node2</title>
<g id="a_Node000002"><a xlink:href="structMC_1_1Distributions_1_1Exponential.html#ac3639218708bbfa0c357c328851f021d" target="_top" xlink:title=" ">
<polygon fill="white" stroke="#666666" points="465.75,-99 367.25,-99 367.25,-70 465.75,-70 465.75,-99"/>
<text xml:space="preserve" text-anchor="start" x="375.25" y="-85.5" font-family="Helvetica,sans-Serif" font-size="10.00">MC::Distributions::</text>
<text xml:space="preserve" text-anchor="middle" x="416.5" y="-75" font-family="Helvetica,sans-Serif" font-size="10.00">Exponential::draw</text>
</a>
</g>
</g>
<!-- Node1&#45;&gt;Node2 -->
<g id="edge1_Node000001_Node000002" class="edge">
<title>Node1&#45;&gt;Node2</title>
<g id="a_edge1_Node000001_Node000002"><a xlink:title=" ">
<path fill="none" stroke="#63b8ff" d="M500.1,-70.71C488.65,-72.62 476.83,-74.6 465.83,-76.43"/>
<polygon fill="#63b8ff" stroke="#63b8ff" points="500.6,-74.17 509.88,-69.08 499.44,-67.27 500.6,-74.17"/>
</a>
</g>
</g>
<!-- Node3 -->
<g id="Node000003" class="node">
<title>Node3</title>
<g id="a_Node000003"><a xlink:href="namespaceSimulation_1_1KernelInline.html#a648521674ead158dd3776a946da6722a" target="_top" xlink:title=" ">
<polygon fill="white" stroke="#666666" points="475.5,-52 357.5,-52 357.5,-23 475.5,-23 475.5,-52"/>
<text xml:space="preserve" text-anchor="start" x="365.5" y="-38.5" font-family="Helvetica,sans-Serif" font-size="10.00">Simulation::KernelInline</text>
<text xml:space="preserve" text-anchor="middle" x="416.5" y="-28" font-family="Helvetica,sans-Serif" font-size="10.00">::probability_leaving</text>
</a>
</g>
</g>
<!-- Node1&#45;&gt;Node3 -->
<g id="edge2_Node000001_Node000003" class="edge">
<title>Node1&#45;&gt;Node3</title>
<g id="a_edge2_Node000001_Node000003"><a xlink:title=" ">
<path fill="none" stroke="#63b8ff" d="M500.18,-50.73C492.14,-49.44 483.92,-48.13 475.93,-46.85"/>
<polygon fill="#63b8ff" stroke="#63b8ff" points="499.45,-54.16 509.88,-52.28 500.56,-47.25 499.45,-54.16"/>
</a>
</g>
</g>
<!-- Node4 -->
<g id="Node000004" class="node">
<title>Node4</title>
<g id="a_Node000004"><a xlink:href="structSimulation_1_1KernelInline_1_1MoveFunctor.html#a50974bf6ba57832adef349fe00f5ff52" target="_top" xlink:title=" ">
<polygon fill="white" stroke="#666666" points="308.38,-76 174.62,-76 174.62,-47 308.38,-47 308.38,-76"/>
<text xml:space="preserve" text-anchor="start" x="182.62" y="-62.5" font-family="Helvetica,sans-Serif" font-size="10.00">Simulation::KernelInline</text>
<text xml:space="preserve" text-anchor="middle" x="241.5" y="-52" font-family="Helvetica,sans-Serif" font-size="10.00">::MoveFunctor::handle_exit</text>
</a>
</g>
</g>
<!-- Node3&#45;&gt;Node4 -->
<g id="edge3_Node000003_Node000004" class="edge">
<title>Node3&#45;&gt;Node4</title>
<g id="a_edge3_Node000003_Node000004"><a xlink:title=" ">
<path fill="none" stroke="#63b8ff" d="M346.24,-47.11C333.89,-48.82 321.05,-50.6 308.79,-52.3"/>
<polygon fill="#63b8ff" stroke="#63b8ff" points="346.49,-50.61 355.91,-45.77 345.53,-43.67 346.49,-50.61"/>
</a>
</g>
</g>
<!-- Node6 -->
<g id="Node000006" class="node">
<title>Node6</title>
<g id="a_Node000006"><a xlink:href="structSimulation_1_1KernelInline_1_1MoveFunctor.html#ad2169ac8529da243e8484321a333eec4" target="_top" xlink:title=" ">
<polygon fill="white" stroke="#666666" points="321.5,-29 161.5,-29 161.5,0 321.5,0 321.5,-29"/>
<text xml:space="preserve" text-anchor="start" x="169.5" y="-15.5" font-family="Helvetica,sans-Serif" font-size="10.00">Simulation::KernelInline</text>
<text xml:space="preserve" text-anchor="middle" x="241.5" y="-5" font-family="Helvetica,sans-Serif" font-size="10.00">::MoveFunctor::inner_handle_exit</text>
</a>
</g>
</g>
<!-- Node3&#45;&gt;Node6 -->
<g id="edge5_Node000003_Node000006" class="edge">
<title>Node3&#45;&gt;Node6</title>
<g id="a_edge5_Node000003_Node000006"><a xlink:title=" ">
<path fill="none" stroke="#63b8ff" d="M346.27,-28.3C338.28,-27.23 330.07,-26.14 321.95,-25.06"/>
<polygon fill="#63b8ff" stroke="#63b8ff" points="345.54,-31.73 355.91,-29.58 346.46,-24.79 345.54,-31.73"/>
</a>
</g>
</g>
<!-- Node5 -->
<g id="Node000005" class="node">
<title>Node5</title>
<g id="a_Node000005"><a xlink:href="structSimulation_1_1KernelInline_1_1MoveFunctor.html#a2013c3c924c8db817100a85a61175859" target="_top" xlink:title=" ">
<polygon fill="white" stroke="#666666" points="125.5,-76 0,-76 0,-47 125.5,-47 125.5,-76"/>
<text xml:space="preserve" text-anchor="start" x="8" y="-62.5" font-family="Helvetica,sans-Serif" font-size="10.00">Simulation::KernelInline</text>
<text xml:space="preserve" text-anchor="middle" x="62.75" y="-52" font-family="Helvetica,sans-Serif" font-size="10.00">::MoveFunctor::operator()</text>
</a>
</g>
</g>
<!-- Node4&#45;&gt;Node5 -->
<g id="edge4_Node000004_Node000005" class="edge">
<title>Node4&#45;&gt;Node5</title>
<g id="a_edge4_Node000004_Node000005"><a xlink:title=" ">
<path fill="none" stroke="#63b8ff" d="M162.89,-61.5C150.47,-61.5 137.76,-61.5 125.76,-61.5"/>
<polygon fill="#63b8ff" stroke="#63b8ff" points="162.67,-65 172.67,-61.5 162.67,-58 162.67,-65"/>
</a>
</g>
</g>
</g>
</svg>
