<?xml version="1.0" encoding="UTF-8" standalone="no"?>
<!DOCTYPE svg PUBLIC "-//W3C//DTD SVG 1.1//EN"
 "http://www.w3.org/Graphics/SVG/1.1/DTD/svg11.dtd">
<!-- Generated by graphviz version 14.0.1 (0)
 -->
<!-- Title: Common::read_env_or Pages: 1 -->
<!--zoomable 118 -->

<svg id="main" version="1.1" xmlns="http://www.w3.org/2000/svg" xmlns:xlink="http://www.w3.org/1999/xlink" xml:space="preserve" onload="init(evt)">

<style type="text/css"><![CDATA[
.node, .edge {opacity: 0.7;}
.node.selected, .edge.selected {opacity: 1;}
.edge:hover path { stroke: red; }
.edge:hover polygon { stroke: red; fill: red; }
]]></style>

<defs>
  <circle id="rim" cx="0" cy="0" r="7"/>
  <circle id="rim2" cx="0" cy="0" r="3.5"/>
  <g id="zoomPlus">
    <use xlink:href="#rim" fill="#404040"><set attributeName="fill" to="#808080" begin="zoomplus.mouseover" end="zoomplus.mouseout"/></use>
    <path d="M-4,0h8M0,-4v8" fill="none" stroke="white" stroke-width="1.5" pointer-events="none"/>
  </g>
  <g id="zoomMin">
    <use xlink:href="#rim" fill="#404040"><set attributeName="fill" to="#808080" begin="zoomminus.mouseover" end="zoomminus.mouseout"/></use>
    <path d="M-4,0h8" fill="none" stroke="white" stroke-width="1.5" pointer-events="none"/>
  </g>
  <g id="arrowUp" transform="translate(30 24)">
    <use xlink:href="#rim"/>
    <path pointer-events="none" fill="none" stroke="white" stroke-width="1.5" d="M0,-3.0v7 M-2.5,-0.5L0,-3.0L2.5,-0.5"/>
  </g>
  <g id="arrowRight" transform="rotate(90) translate(36 -43)">
    <use xlink:href="#rim"/>
    <path pointer-events="none" fill="none" stroke="white" stroke-width="1.5" d="M0,-3.0v7 M-2.5,-0.5L0,-3.0L2.5,-0.5"/>
  </g>
  <g id="arrowDown" transform="rotate(180) translate(-30 -48)">
    <use xlink:href="#rim"/>
    <path pointer-events="none" fill="none" stroke="white" stroke-width="1.5" d="M0,-3.0v7 M-2.5,-0.5L0,-3.0L2.5,-0.5"/>
  </g>
  <g id="arrowLeft" transform="rotate(270) translate(-36 17)">
    <use xlink:href="#rim"/>
    <path pointer-events="none" fill="none" stroke="white" stroke-width="1.5" d="M0,-3.0v7 M-2.5,-0.5L0,-3.0L2.5,-0.5"/>
  </g>
  <g id="resetDef">
    <use xlink:href="#rim2" fill="#404040"><set attributeName="fill" to="#808080" begin="reset.mouseover" end="reset.mouseout"/></use>
  </g>
</defs>
<script type="application/ecmascript">
var viewWidth = 599;
var viewHeight = 118;
var sectionId = 'dynsection-7';
</script>
<script type="application/ecmascript" xlink:href="svg.min.js"/>
<svg id="graph" class="graph">
<g id="viewport">
<title>Common::read_env_or</title>
<!-- Node1 -->
<g id="Node000001" class="node">
<title>Node1</title>
<g id="a_Node000001"><a xlink:title="Wrapper arround get_env to get envariable with fallback to default.">
<polygon fill="#999999" stroke="#666666" points="591.25,-72.75 476.25,-72.75 476.25,-54.25 591.25,-54.25 591.25,-72.75"/>
<text xml:space="preserve" text-anchor="middle" x="533.75" y="-59.25" font-family="Helvetica,sans-Serif" font-size="10.00">Common::read_env_or</text>
</a>
</g>
</g>
<!-- Node2 -->
<g id="Node000002" class="node">
<title>Node2</title>
<g id="a_Node000002"><a xlink:href="namespaceCommon.html#ad9c9fe6434c0c09218a2e33e17beee28" target="_top" xlink:title=" ">
<polygon fill="white" stroke="#666666" points="440.25,-109.75 307.25,-109.75 307.25,-91.25 440.25,-91.25 440.25,-109.75"/>
<text xml:space="preserve" text-anchor="middle" x="373.75" y="-96.25" font-family="Helvetica,sans-Serif" font-size="10.00">Common::get_policy_team</text>
</a>
</g>
</g>
<!-- Node1&#45;&gt;Node2 -->
<g id="edge1_Node000001_Node000002" class="edge">
<title>Node1&#45;&gt;Node2</title>
<g id="a_edge1_Node000001_Node000002"><a xlink:title=" ">
<path fill="none" stroke="#63b8ff" d="M480.03,-75.85C459.27,-80.71 435.78,-86.21 416.26,-90.78"/>
<polygon fill="#63b8ff" stroke="#63b8ff" points="480.83,-79.25 489.76,-73.57 479.23,-72.44 480.83,-79.25"/>
</a>
</g>
</g>
<!-- Node3 -->
<g id="Node000003" class="node">
<title>Node3</title>
<g id="a_Node000003"><a xlink:href="namespaceMC.html#a607ded472d094b72eaa4e7d0cc01bce0" target="_top" xlink:title=" ">
<polygon fill="white" stroke="#666666" points="432.38,-72.75 315.12,-72.75 315.12,-54.25 432.38,-54.25 432.38,-72.75"/>
<text xml:space="preserve" text-anchor="middle" x="373.75" y="-59.25" font-family="Helvetica,sans-Serif" font-size="10.00">MC::get_valid_value_or</text>
</a>
</g>
</g>
<!-- Node1&#45;&gt;Node3 -->
<g id="edge2_Node000001_Node000003" class="edge">
<title>Node1&#45;&gt;Node3</title>
<g id="a_edge2_Node000001_Node000003"><a xlink:title=" ">
<path fill="none" stroke="#63b8ff" d="M464.75,-63.5C454.11,-63.5 443.2,-63.5 432.81,-63.5"/>
<polygon fill="#63b8ff" stroke="#63b8ff" points="464.64,-67 474.64,-63.5 464.64,-60 464.64,-67"/>
</a>
</g>
</g>
<!-- Node4 -->
<g id="Node000004" class="node">
<title>Node4</title>
<g id="a_Node000004"><a xlink:href="namespaceMC.html#a67a8a8fb99f617a67dd3702cd0f0b47f" target="_top" xlink:title=" ">
<polygon fill="white" stroke="#666666" points="271.25,-53.75 141.25,-53.75 141.25,-35.25 271.25,-35.25 271.25,-53.75"/>
<text xml:space="preserve" text-anchor="middle" x="206.25" y="-40.25" font-family="Helvetica,sans-Serif" font-size="10.00">MC::load_tuning_constant</text>
</a>
</g>
</g>
<!-- Node1&#45;&gt;Node4 -->
<g id="edge7_Node000001_Node000004" class="edge">
<title>Node1&#45;&gt;Node4</title>
<g id="a_edge7_Node000001_Node000004"><a xlink:title=" ">
<path fill="none" stroke="#63b8ff" d="M480.39,-51.54C467.34,-49.05 453.35,-46.79 440.25,-45.5 383.49,-39.91 318.57,-40.17 271.7,-41.54"/>
<polygon fill="#63b8ff" stroke="#63b8ff" points="479.58,-54.94 490.07,-53.47 480.95,-48.08 479.58,-54.94"/>
</a>
</g>
</g>
<!-- Node3&#45;&gt;Node4 -->
<g id="edge3_Node000003_Node000004" class="edge">
<title>Node3&#45;&gt;Node4</title>
<g id="a_edge3_Node000003_Node000004"><a xlink:title=" ">
<path fill="none" stroke="#63b8ff" d="M303.54,-55.55C292.96,-54.34 282.07,-53.09 271.6,-51.89"/>
<polygon fill="#63b8ff" stroke="#63b8ff" points="303.03,-59.02 313.36,-56.68 303.83,-52.06 303.03,-59.02"/>
</a>
</g>
</g>
<!-- Node5 -->
<g id="Node000005" class="node">
<title>Node5</title>
<g id="a_Node000005"><a xlink:href="namespaceMC.html#a321fdcab9f09e8611b6f76b834d4ba4b" target="_top" xlink:title="Helper function to initialize a MonteCarloUnit.">
<polygon fill="white" stroke="#666666" points="77.88,-83.75 27.38,-83.75 27.38,-65.25 77.88,-65.25 77.88,-83.75"/>
<text xml:space="preserve" text-anchor="middle" x="52.62" y="-70.25" font-family="Helvetica,sans-Serif" font-size="10.00">MC::init</text>
</a>
</g>
</g>
<!-- Node4&#45;&gt;Node5 -->
<g id="edge4_Node000004_Node000005" class="edge">
<title>Node4&#45;&gt;Node5</title>
<g id="a_edge4_Node000004_Node000005"><a xlink:title=" ">
<path fill="none" stroke="#63b8ff" d="M144.76,-56.47C121.4,-61.09 96.02,-66.11 77.99,-69.68"/>
<polygon fill="#63b8ff" stroke="#63b8ff" points="145.41,-59.91 154.54,-54.53 144.05,-53.04 145.41,-59.91"/>
</a>
</g>
</g>
<!-- Node6 -->
<g id="Node000006" class="node">
<title>Node6</title>
<g id="a_Node000006"><a xlink:href="structMC_1_1MonteCarloUnit.html#a98a680cfc3356b197d4cd8fd453e0a17" target="_top" xlink:title=" ">
<polygon fill="white" stroke="#666666" points="105.25,-29 0,-29 0,0 105.25,0 105.25,-29"/>
<text xml:space="preserve" text-anchor="start" x="8" y="-15.5" font-family="Helvetica,sans-Serif" font-size="10.00">MC::MonteCarloUnit</text>
<text xml:space="preserve" text-anchor="middle" x="52.62" y="-5" font-family="Helvetica,sans-Serif" font-size="10.00">::serialize</text>
</a>
</g>
</g>
<!-- Node4&#45;&gt;Node6 -->
<g id="edge5_Node000004_Node000006" class="edge">
<title>Node4&#45;&gt;Node6</title>
<g id="a_edge5_Node000004_Node000006"><a xlink:title=" ">
<path fill="none" stroke="#63b8ff" d="M144.85,-32.55C131.91,-29.99 118.34,-27.3 105.74,-24.81"/>
<polygon fill="#63b8ff" stroke="#63b8ff" points="144.05,-35.96 154.54,-34.47 145.41,-29.09 144.05,-35.96"/>
</a>
</g>
</g>
<!-- Node6&#45;&gt;Node6 -->
<g id="edge6_Node000006_Node000006" class="edge">
<title>Node6&#45;&gt;Node6</title>
<g id="a_edge6_Node000006_Node000006"><a xlink:title=" ">
<path fill="none" stroke="#63b8ff" d="M78.7,-40.56C74.61,-44.41 65.92,-47 52.62,-47 28.32,-47 19.4,-38.32 25.85,-29.21"/>
<polygon fill="#63b8ff" stroke="#63b8ff" points="82.18,-40.91 79.3,-30.72 75.2,-40.48 82.18,-40.91"/>
</a>
</g>
</g>
</g>
</svg>

<g id="navigator" transform="translate(0 0)" fill="#404254">
  <rect fill="#f2f5e9" fill-opacity="0.5" stroke="#606060" stroke-width=".5" x="0" y="0" width="60" height="60"/>
  <use id="zoomplus" xlink:href="#zoomPlus" x="17" y="9" onmousedown="handleZoom(evt,'in')"/>
  <use id="zoomminus" xlink:href="#zoomMin" x="42" y="9" onmousedown="handleZoom(evt,'out')"/>
  <use id="reset" xlink:href="#resetDef" x="30" y="36" onmousedown="handleReset()"/>
   <use id="arrowup" xlink:href="#arrowUp" x="0" y="0" onmousedown="handlePan(0,-1)"/>
  <use id="arrowright" xlink:href="#arrowRight" x="0" y="0" onmousedown="handlePan(1,0)"/>
  <use id="arrowdown" xlink:href="#arrowDown" x="0" y="0" onmousedown="handlePan(0,1)"/>
  <use id="arrowleft" xlink:href="#arrowLeft" x="0" y="0" onmousedown="handlePan(-1,0)"/>
</g>
<svg viewBox="0 0 15 15" width="100%" height="30px" preserveAspectRatio="xMaxYMin meet">
 <g id="arrow_out" transform="scale(0.3 0.3)">
  <a xlink:href="namespaceCommon_a7ca16dc3314f89cd1860091731cd7014_icgraph_org.svg" target="_base">
   <rect id="button" ry="5" rx="5" y="6" x="6" height="38" width="38"
        fill="#f2f5e9" fill-opacity="0.5" stroke="#606060" stroke-width="1.0"/>
   <path id="arrow"
     d="M 11.500037,31.436501 C 11.940474,20.09759 22.043105,11.32322 32.158766,21.979434 L 37.068811,17.246167 C 37.068811,17.246167 37.088388,32 37.088388,32 L 22.160133,31.978069 C 22.160133,31.978069 26.997745,27.140456 26.997745,27.140456 C 18.528582,18.264221 13.291696,25.230495 11.500037,31.436501 z"
     style="fill:#404040;"/>
  </a>
 </g>
</svg>

<style type='text/css'>
<![CDATA[
[data-mouse-over-selected='false'] { opacity: 0.7; }
[data-mouse-over-selected='true']  { opacity: 1.0; }
]]>
</style>
<script type="application/ecmascript"><![CDATA[
document.addEventListener('DOMContentLoaded', (event) => {
  highlightEdges();
  highlightAdjacentNodes();
});
]]></script>
</svg>
