<?xml version="1.0" encoding="UTF-8" standalone="no"?>
<!DOCTYPE svg PUBLIC "-//W3C//DTD SVG 1.1//EN"
 "http://www.w3.org/Graphics/SVG/1.1/DTD/svg11.dtd">
<!-- Generated by graphviz version 12.1.2 (0)
 -->
<!-- Title: Core::exporter_filename Pages: 1 -->
<svg width="539pt" height="79pt"
 viewBox="0.00 0.00 539.25 79.00" xmlns="http://www.w3.org/2000/svg" xmlns:xlink="http://www.w3.org/1999/xlink">
<g id="graph0" class="graph" transform="scale(1 1) rotate(0) translate(4 75)">
<title>Core::exporter_filename</title>
<!-- Node1 -->
<g id="Node000001" class="node">
<title>Node1</title>
<g id="a_Node000001"><a xlink:title=" ">
<polygon fill="#999999" stroke="#666666" points="531.25,-44.75 410.25,-44.75 410.25,-26.25 531.25,-26.25 531.25,-44.75"/>
<text text-anchor="middle" x="470.75" y="-31.25" font-family="Helvetica,sans-Serif" font-size="10.00">Core::exporter_filename</text>
</a>
</g>
</g>
<!-- Node2 -->
<g id="Node000002" class="node">
<title>Node2</title>
<g id="a_Node000002"><a xlink:href="namespaceCore.html#acd849e9c1dbf0aef00c45cfdcb0194b3" target="_top" xlink:title="Start simulation.">
<polygon fill="white" stroke="#666666" points="374.25,-44.75 311,-44.75 311,-26.25 374.25,-26.25 374.25,-44.75"/>
<text text-anchor="middle" x="342.62" y="-31.25" font-family="Helvetica,sans-Serif" font-size="10.00">Core::exec</text>
</a>
</g>
</g>
<!-- Node1&#45;&gt;Node2 -->
<g id="edge1_Node000001_Node000002" class="edge">
<title>Node1&#45;&gt;Node2</title>
<g id="a_edge1_Node000001_Node000002"><a xlink:title=" ">
<path fill="none" stroke="#63b8ff" d="M398.56,-28.8C390.21,-28.9 382.05,-29.17 374.68,-29.59"/>
<polygon fill="#63b8ff" stroke="#63b8ff" points="398.51,-32.3 408.5,-28.76 398.49,-25.3 398.51,-32.3"/>
</a>
</g>
</g>
<!-- Node2&#45;&gt;Node1 -->
<g id="edge3_Node000002_Node000001" class="edge">
<title>Node2&#45;&gt;Node1</title>
<g id="a_edge3_Node000002_Node000001"><a xlink:title=" ">
<path fill="none" stroke="#63b8ff" d="M385.98,-41.92C393.7,-42.17 401.89,-42.28 410.01,-42.24"/>
<polygon fill="#63b8ff" stroke="#63b8ff" points="386.34,-38.43 376.19,-41.48 386.03,-45.42 386.34,-38.43"/>
</a>
</g>
</g>
<!-- Node3 -->
<g id="Node000003" class="node">
<title>Node3</title>
<g id="a_Node000003"><a xlink:href="structApi_1_1SimulationInstance.html#a3f04372728be84263fb69f5773ca5bd5" target="_top" xlink:title="Execute the simulation.">
<polygon fill="white" stroke="#666666" points="275,-71 155.5,-71 155.5,-42 275,-42 275,-71"/>
<text text-anchor="start" x="163.5" y="-57.5" font-family="Helvetica,sans-Serif" font-size="10.00">Api::SimulationInstance</text>
<text text-anchor="middle" x="215.25" y="-47" font-family="Helvetica,sans-Serif" font-size="10.00">::exec</text>
</a>
</g>
</g>
<!-- Node2&#45;&gt;Node3 -->
<g id="edge2_Node000002_Node000003" class="edge">
<title>Node2&#45;&gt;Node3</title>
<g id="a_edge2_Node000002_Node000003"><a xlink:title=" ">
<path fill="none" stroke="#63b8ff" d="M299.32,-42.59C291.58,-43.88 283.38,-45.26 275.26,-46.62"/>
<polygon fill="#63b8ff" stroke="#63b8ff" points="299.86,-46.05 309.14,-40.94 298.7,-39.14 299.86,-46.05"/>
</a>
</g>
</g>
<!-- Node4 -->
<g id="Node000004" class="node">
<title>Node4</title>
<g id="a_Node000004"><a xlink:href="namespaceCore.html#a8a3e4aa1d1921da2e211c43d5368acf1" target="_top" xlink:title=" ">
<polygon fill="white" stroke="#666666" points="245.75,-23.75 184.75,-23.75 184.75,-5.25 245.75,-5.25 245.75,-23.75"/>
<text text-anchor="middle" x="215.25" y="-10.25" font-family="Helvetica,sans-Serif" font-size="10.00">Core::load</text>
</a>
</g>
</g>
<!-- Node2&#45;&gt;Node4 -->
<g id="edge4_Node000002_Node000004" class="edge">
<title>Node2&#45;&gt;Node4</title>
<g id="a_edge4_Node000002_Node000004"><a xlink:title=" ">
<path fill="none" stroke="#63b8ff" d="M299.52,-28.45C281.97,-25.51 262,-22.16 246.02,-19.49"/>
<polygon fill="#63b8ff" stroke="#63b8ff" points="298.7,-31.86 309.14,-30.06 299.86,-24.95 298.7,-31.86"/>
</a>
</g>
</g>
<!-- Node5 -->
<g id="Node000005" class="node">
<title>Node5</title>
<g id="a_Node000005"><a xlink:href="structApi_1_1SimulationInstance.html#ad2abfa76ac4128d44b7c0c895f78b77b" target="_top" xlink:title="Load ad apply the simulation configuration and prepare for execution based on file.">
<polygon fill="white" stroke="#666666" points="119.5,-29 0,-29 0,0 119.5,0 119.5,-29"/>
<text text-anchor="start" x="8" y="-15.5" font-family="Helvetica,sans-Serif" font-size="10.00">Api::SimulationInstance</text>
<text text-anchor="middle" x="59.75" y="-5" font-family="Helvetica,sans-Serif" font-size="10.00">::apply_load</text>
</a>
</g>
</g>
<!-- Node4&#45;&gt;Node5 -->
<g id="edge5_Node000004_Node000005" class="edge">
<title>Node4&#45;&gt;Node5</title>
<g id="a_edge5_Node000004_Node000005"><a xlink:title=" ">
<path fill="none" stroke="#63b8ff" d="M172.95,-14.5C156.64,-14.5 137.59,-14.5 119.87,-14.5"/>
<polygon fill="#63b8ff" stroke="#63b8ff" points="172.78,-18 182.78,-14.5 172.78,-11 172.78,-18"/>
</a>
</g>
</g>
</g>
</svg>
