<?xml version="1.0" encoding="UTF-8" standalone="no"?>
<!DOCTYPE svg PUBLIC "-//W3C//DTD SVG 1.1//EN"
 "http://www.w3.org/Graphics/SVG/1.1/DTD/svg11.dtd">
<!-- Generated by graphviz version 14.0.1 (0)
 -->
<!-- Title: MC::get_policy Pages: 1 -->
<svg width="253pt" height="84pt"
 viewBox="0.00 0.00 253.00 84.00" xmlns="http://www.w3.org/2000/svg" xmlns:xlink="http://www.w3.org/1999/xlink">
<g id="graph0" class="graph" transform="scale(1 1) rotate(0) translate(4 80)">
<title>MC::get_policy</title>
<!-- Node1 -->
<g id="Node000001" class="node">
<title>Node1</title>
<g id="a_Node000001"><a xlink:title=" ">
<polygon fill="#999999" stroke="#666666" points="245,-46.75 163,-46.75 163,-28.25 245,-28.25 245,-46.75"/>
<text xml:space="preserve" text-anchor="middle" x="204" y="-33.25" font-family="Helvetica,sans-Serif" font-size="10.00">MC::get_policy</text>
</a>
</g>
</g>
<!-- Node2 -->
<g id="Node000002" class="node">
<title>Node2</title>
<g id="a_Node000002"><a xlink:href="structSimulation_1_1KernelInline_1_1Functors.html#aa66689dede66c789611bbf17b7722f1a" target="_top" xlink:title=" ">
<polygon fill="white" stroke="#666666" points="127,-76 0,-76 0,-47 127,-47 127,-76"/>
<text xml:space="preserve" text-anchor="start" x="8" y="-62.5" font-family="Helvetica,sans-Serif" font-size="10.00">Simulation::KernelInline</text>
<text xml:space="preserve" text-anchor="middle" x="63.5" y="-52" font-family="Helvetica,sans-Serif" font-size="10.00">::Functors::launch_model</text>
</a>
</g>
</g>
<!-- Node1&#45;&gt;Node2 -->
<g id="edge1_Node000001_Node000002" class="edge">
<title>Node1&#45;&gt;Node2</title>
<g id="a_edge1_Node000001_Node000002"><a xlink:title=" ">
<path fill="none" stroke="#63b8ff" d="M151.39,-46.44C143.57,-47.8 135.43,-49.21 127.4,-50.6"/>
<polygon fill="#63b8ff" stroke="#63b8ff" points="151.82,-49.92 161.08,-44.76 150.63,-43.02 151.82,-49.92"/>
</a>
</g>
</g>
<!-- Node3 -->
<g id="Node000003" class="node">
<title>Node3</title>
<g id="a_Node000003"><a xlink:href="structSimulation_1_1KernelInline_1_1Functors.html#a16c338907c7929e62157dcc30dcbbb15" target="_top" xlink:title=" ">
<polygon fill="white" stroke="#666666" points="125.5,-29 1.5,-29 1.5,0 125.5,0 125.5,-29"/>
<text xml:space="preserve" text-anchor="start" x="9.5" y="-15.5" font-family="Helvetica,sans-Serif" font-size="10.00">Simulation::KernelInline</text>
<text xml:space="preserve" text-anchor="middle" x="63.5" y="-5" font-family="Helvetica,sans-Serif" font-size="10.00">::Functors::launch_move</text>
</a>
</g>
</g>
<!-- Node1&#45;&gt;Node3 -->
<g id="edge2_Node000001_Node000003" class="edge">
<title>Node1&#45;&gt;Node3</title>
<g id="a_edge2_Node000001_Node000003"><a xlink:title=" ">
<path fill="none" stroke="#63b8ff" d="M151.46,-28.94C143.11,-27.55 134.39,-26.11 125.84,-24.69"/>
<polygon fill="#63b8ff" stroke="#63b8ff" points="150.64,-32.35 161.07,-30.54 151.78,-25.45 150.64,-32.35"/>
</a>
</g>
</g>
</g>
</svg>
