<?xml version="1.0" encoding="UTF-8" standalone="no"?>
<!DOCTYPE svg PUBLIC "-//W3C//DTD SVG 1.1//EN"
 "http://www.w3.org/Graphics/SVG/1.1/DTD/svg11.dtd">
<!-- Generated by graphviz version 14.0.1 (0)
 -->
<!-- Title: Common::read_env Pages: 1 -->
<!--zoomable 192 -->

<svg id="main" version="1.1" xmlns="http://www.w3.org/2000/svg" xmlns:xlink="http://www.w3.org/1999/xlink" xml:space="preserve" onload="init(evt)">

<style type="text/css"><![CDATA[
.node, .edge {opacity: 0.7;}
.node.selected, .edge.selected {opacity: 1;}
.edge:hover path { stroke: red; }
.edge:hover polygon { stroke: red; fill: red; }
]]></style>

<defs>
  <circle id="rim" cx="0" cy="0" r="7"/>
  <circle id="rim2" cx="0" cy="0" r="3.5"/>
  <g id="zoomPlus">
    <use xlink:href="#rim" fill="#404040"><set attributeName="fill" to="#808080" begin="zoomplus.mouseover" end="zoomplus.mouseout"/></use>
    <path d="M-4,0h8M0,-4v8" fill="none" stroke="white" stroke-width="1.5" pointer-events="none"/>
  </g>
  <g id="zoomMin">
    <use xlink:href="#rim" fill="#404040"><set attributeName="fill" to="#808080" begin="zoomminus.mouseover" end="zoomminus.mouseout"/></use>
    <path d="M-4,0h8" fill="none" stroke="white" stroke-width="1.5" pointer-events="none"/>
  </g>
  <g id="arrowUp" transform="translate(30 24)">
    <use xlink:href="#rim"/>
    <path pointer-events="none" fill="none" stroke="white" stroke-width="1.5" d="M0,-3.0v7 M-2.5,-0.5L0,-3.0L2.5,-0.5"/>
  </g>
  <g id="arrowRight" transform="rotate(90) translate(36 -43)">
    <use xlink:href="#rim"/>
    <path pointer-events="none" fill="none" stroke="white" stroke-width="1.5" d="M0,-3.0v7 M-2.5,-0.5L0,-3.0L2.5,-0.5"/>
  </g>
  <g id="arrowDown" transform="rotate(180) translate(-30 -48)">
    <use xlink:href="#rim"/>
    <path pointer-events="none" fill="none" stroke="white" stroke-width="1.5" d="M0,-3.0v7 M-2.5,-0.5L0,-3.0L2.5,-0.5"/>
  </g>
  <g id="arrowLeft" transform="rotate(270) translate(-36 17)">
    <use xlink:href="#rim"/>
    <path pointer-events="none" fill="none" stroke="white" stroke-width="1.5" d="M0,-3.0v7 M-2.5,-0.5L0,-3.0L2.5,-0.5"/>
  </g>
  <g id="resetDef">
    <use xlink:href="#rim2" fill="#404040"><set attributeName="fill" to="#808080" begin="reset.mouseover" end="reset.mouseout"/></use>
  </g>
</defs>
<script type="application/ecmascript">
var viewWidth = 614;
var viewHeight = 192;
var sectionId = 'dynsection-4';
</script>
<script type="application/ecmascript" xlink:href="svg.min.js"/>
<svg id="graph" class="graph">
<g id="viewport">
<title>Common::read_env</title>
<!-- Node1 -->
<g id="Node000001" class="node">
<title>Node1</title>
<g id="a_Node000001"><a xlink:title=" ">
<polygon fill="#999999" stroke="#666666" points="606.25,-112.75 504.75,-112.75 504.75,-94.25 606.25,-94.25 606.25,-112.75"/>
<text xml:space="preserve" text-anchor="middle" x="555.5" y="-99.25" font-family="Helvetica,sans-Serif" font-size="10.00">Common::read_env</text>
</a>
</g>
</g>
<!-- Node2 -->
<g id="Node000002" class="node">
<title>Node2</title>
<g id="a_Node000002"><a xlink:href="namespaceCommon.html#a7ca16dc3314f89cd1860091731cd7014" target="_top" xlink:title="Wrapper arround get_env to get envariable with fallback to default.">
<polygon fill="white" stroke="#666666" points="468.75,-112.75 353.75,-112.75 353.75,-94.25 468.75,-94.25 468.75,-112.75"/>
<text xml:space="preserve" text-anchor="middle" x="411.25" y="-99.25" font-family="Helvetica,sans-Serif" font-size="10.00">Common::read_env_or</text>
</a>
</g>
</g>
<!-- Node1&#45;&gt;Node2 -->
<g id="edge1_Node000001_Node000002" class="edge">
<title>Node1&#45;&gt;Node2</title>
<g id="a_edge1_Node000001_Node000002"><a xlink:title=" ">
<path fill="none" stroke="#63b8ff" d="M492.96,-103.5C485.08,-103.5 477.04,-103.5 469.23,-103.5"/>
<polygon fill="#63b8ff" stroke="#63b8ff" points="492.83,-107 502.83,-103.5 492.83,-100 492.83,-107"/>
</a>
</g>
</g>
<!-- Node3 -->
<g id="Node000003" class="node">
<title>Node3</title>
<g id="a_Node000003"><a xlink:href="namespaceCommon.html#ad3d68e79e4dbd7836f3090e662e01dba" target="_top" xlink:title=" ">
<polygon fill="white" stroke="#666666" points="304.25,-149.75 198.25,-149.75 198.25,-131.25 304.25,-131.25 304.25,-149.75"/>
<text xml:space="preserve" text-anchor="middle" x="251.25" y="-136.25" font-family="Helvetica,sans-Serif" font-size="10.00">Common::get_policy</text>
</a>
</g>
</g>
<!-- Node2&#45;&gt;Node3 -->
<g id="edge2_Node000002_Node000003" class="edge">
<title>Node2&#45;&gt;Node3</title>
<g id="a_edge2_Node000002_Node000003"><a xlink:title=" ">
<path fill="none" stroke="#63b8ff" d="M357.53,-115.85C336.77,-120.71 313.28,-126.21 293.76,-130.78"/>
<polygon fill="#63b8ff" stroke="#63b8ff" points="358.33,-119.25 367.26,-113.57 356.73,-112.44 358.33,-119.25"/>
</a>
</g>
</g>
<!-- Node6 -->
<g id="Node000006" class="node">
<title>Node6</title>
<g id="a_Node000006"><a xlink:href="namespaceCommon.html#ad9c9fe6434c0c09218a2e33e17beee28" target="_top" xlink:title=" ">
<polygon fill="white" stroke="#666666" points="317.75,-112.75 184.75,-112.75 184.75,-94.25 317.75,-94.25 317.75,-112.75"/>
<text xml:space="preserve" text-anchor="middle" x="251.25" y="-99.25" font-family="Helvetica,sans-Serif" font-size="10.00">Common::get_policy_team</text>
</a>
</g>
</g>
<!-- Node2&#45;&gt;Node6 -->
<g id="edge5_Node000002_Node000006" class="edge">
<title>Node2&#45;&gt;Node6</title>
<g id="a_edge5_Node000002_Node000006"><a xlink:title=" ">
<path fill="none" stroke="#63b8ff" d="M342.42,-103.5C334.37,-103.5 326.16,-103.5 318.14,-103.5"/>
<polygon fill="#63b8ff" stroke="#63b8ff" points="342.14,-107 352.14,-103.5 342.14,-100 342.14,-107"/>
</a>
</g>
</g>
<!-- Node7 -->
<g id="Node000007" class="node">
<title>Node7</title>
<g id="a_Node000007"><a xlink:href="namespaceMC.html#a67a8a8fb99f617a67dd3702cd0f0b47f" target="_top" xlink:title=" ">
<polygon fill="white" stroke="#666666" points="316.25,-75.75 186.25,-75.75 186.25,-57.25 316.25,-57.25 316.25,-75.75"/>
<text xml:space="preserve" text-anchor="middle" x="251.25" y="-62.25" font-family="Helvetica,sans-Serif" font-size="10.00">MC::load_tuning_constant</text>
</a>
</g>
</g>
<!-- Node2&#45;&gt;Node7 -->
<g id="edge6_Node000002_Node000007" class="edge">
<title>Node2&#45;&gt;Node7</title>
<g id="a_edge6_Node000002_Node000007"><a xlink:title=" ">
<path fill="none" stroke="#63b8ff" d="M357.53,-91.15C336.77,-86.29 313.28,-80.79 293.76,-76.22"/>
<polygon fill="#63b8ff" stroke="#63b8ff" points="356.73,-94.56 367.26,-93.43 358.33,-87.75 356.73,-94.56"/>
</a>
</g>
</g>
<!-- Node4 -->
<g id="Node000004" class="node">
<title>Node4</title>
<g id="a_Node000004"><a xlink:href="namespaceCommon.html#a9322a1455f0f2a0626d66eae67412bda" target="_top" xlink:title=" ">
<polygon fill="white" stroke="#666666" points="127.38,-183.75 21.38,-183.75 21.38,-165.25 127.38,-165.25 127.38,-183.75"/>
<text xml:space="preserve" text-anchor="middle" x="74.38" y="-170.25" font-family="Helvetica,sans-Serif" font-size="10.00">Common::get_policy</text>
</a>
</g>
</g>
<!-- Node3&#45;&gt;Node4 -->
<g id="edge3_Node000003_Node000004" class="edge">
<title>Node3&#45;&gt;Node4</title>
<g id="a_edge3_Node000003_Node000004"><a xlink:title=" ">
<path fill="none" stroke="#63b8ff" d="M188.87,-152.43C168.14,-156.46 145.25,-160.91 125.49,-164.76"/>
<polygon fill="#63b8ff" stroke="#63b8ff" points="189.5,-155.88 198.65,-150.53 188.17,-149 189.5,-155.88"/>
</a>
</g>
</g>
<!-- Node5 -->
<g id="Node000005" class="node">
<title>Node5</title>
<g id="a_Node000005"><a xlink:href="structSimulation_1_1KernelInline_1_1CycleFunctors.html#aa180fb540dd548aefdc0cead1e7c8205" target="_top" xlink:title=" ">
<polygon fill="white" stroke="#666666" points="148.75,-147 0,-147 0,-118 148.75,-118 148.75,-147"/>
<text xml:space="preserve" text-anchor="start" x="8" y="-133.5" font-family="Helvetica,sans-Serif" font-size="10.00">Simulation::KernelInline</text>
<text xml:space="preserve" text-anchor="middle" x="74.38" y="-123" font-family="Helvetica,sans-Serif" font-size="10.00">::CycleFunctors::launch_move</text>
</a>
</g>
</g>
<!-- Node3&#45;&gt;Node5 -->
<g id="edge4_Node000003_Node000005" class="edge">
<title>Node3&#45;&gt;Node5</title>
<g id="a_edge4_Node000003_Node000005"><a xlink:title=" ">
<path fill="none" stroke="#63b8ff" d="M186.4,-137.58C174.29,-137.03 161.53,-136.44 149.14,-135.87"/>
<polygon fill="#63b8ff" stroke="#63b8ff" points="186.12,-141.07 196.27,-138.03 186.44,-134.08 186.12,-141.07"/>
</a>
</g>
</g>
<!-- Node8 -->
<g id="Node000008" class="node">
<title>Node8</title>
<g id="a_Node000008"><a xlink:href="namespaceMC.html#ade0c0af584516d4dfc554b9d6c045a74" target="_top" xlink:title="Helper function to initialize a MonteCarloUnit.">
<polygon fill="white" stroke="#666666" points="99.62,-83.75 49.12,-83.75 49.12,-65.25 99.62,-65.25 99.62,-83.75"/>
<text xml:space="preserve" text-anchor="middle" x="74.38" y="-70.25" font-family="Helvetica,sans-Serif" font-size="10.00">MC::init</text>
</a>
</g>
</g>
<!-- Node7&#45;&gt;Node8 -->
<g id="edge7_Node000007_Node000008" class="edge">
<title>Node7&#45;&gt;Node8</title>
<g id="a_edge7_Node000007_Node000008"><a xlink:title=" ">
<path fill="none" stroke="#63b8ff" d="M174.71,-69.96C147.79,-71.19 119.33,-72.49 99.81,-73.38"/>
<polygon fill="#63b8ff" stroke="#63b8ff" points="174.78,-73.46 184.61,-69.5 174.46,-66.46 174.78,-73.46"/>
</a>
</g>
</g>
<!-- Node9 -->
<g id="Node000009" class="node">
<title>Node9</title>
<g id="a_Node000009"><a xlink:href="structMC_1_1MonteCarloUnit.html#a98a680cfc3356b197d4cd8fd453e0a17" target="_top" xlink:title=" ">
<polygon fill="white" stroke="#666666" points="127,-29 21.75,-29 21.75,0 127,0 127,-29"/>
<text xml:space="preserve" text-anchor="start" x="29.75" y="-15.5" font-family="Helvetica,sans-Serif" font-size="10.00">MC::MonteCarloUnit</text>
<text xml:space="preserve" text-anchor="middle" x="74.38" y="-5" font-family="Helvetica,sans-Serif" font-size="10.00">::serialize</text>
</a>
</g>
</g>
<!-- Node7&#45;&gt;Node9 -->
<g id="edge8_Node000007_Node000009" class="edge">
<title>Node7&#45;&gt;Node9</title>
<g id="a_edge8_Node000007_Node000009"><a xlink:title=" ">
<path fill="none" stroke="#63b8ff" d="M206.93,-53.62C182.27,-46.29 151.27,-37.07 125.56,-29.42"/>
<polygon fill="#63b8ff" stroke="#63b8ff" points="205.73,-56.91 216.32,-56.41 207.73,-50.2 205.73,-56.91"/>
</a>
</g>
</g>
<!-- Node9&#45;&gt;Node9 -->
<g id="edge9_Node000009_Node000009" class="edge">
<title>Node9&#45;&gt;Node9</title>
<g id="a_edge9_Node000009_Node000009"><a xlink:title=" ">
<path fill="none" stroke="#63b8ff" d="M104.4,-40.56C99.68,-44.41 89.68,-47 74.38,-47 46.39,-47 36.12,-38.32 43.55,-29.21"/>
<polygon fill="#63b8ff" stroke="#63b8ff" points="107.88,-40.94 105.09,-30.72 100.9,-40.44 107.88,-40.94"/>
</a>
</g>
</g>
</g>
</svg>

<g id="navigator" transform="translate(0 0)" fill="#404254">
  <rect fill="#f2f5e9" fill-opacity="0.5" stroke="#606060" stroke-width=".5" x="0" y="0" width="60" height="60"/>
  <use id="zoomplus" xlink:href="#zoomPlus" x="17" y="9" onmousedown="handleZoom(evt,'in')"/>
  <use id="zoomminus" xlink:href="#zoomMin" x="42" y="9" onmousedown="handleZoom(evt,'out')"/>
  <use id="reset" xlink:href="#resetDef" x="30" y="36" onmousedown="handleReset()"/>
   <use id="arrowup" xlink:href="#arrowUp" x="0" y="0" onmousedown="handlePan(0,-1)"/>
  <use id="arrowright" xlink:href="#arrowRight" x="0" y="0" onmousedown="handlePan(1,0)"/>
  <use id="arrowdown" xlink:href="#arrowDown" x="0" y="0" onmousedown="handlePan(0,1)"/>
  <use id="arrowleft" xlink:href="#arrowLeft" x="0" y="0" onmousedown="handlePan(-1,0)"/>
</g>
<svg viewBox="0 0 15 15" width="100%" height="30px" preserveAspectRatio="xMaxYMin meet">
 <g id="arrow_out" transform="scale(0.3 0.3)">
  <a xlink:href="namespaceCommon_a7e29bd7117dd8bfc651a1dc215923379_icgraph_org.svg" target="_base">
   <rect id="button" ry="5" rx="5" y="6" x="6" height="38" width="38"
        fill="#f2f5e9" fill-opacity="0.5" stroke="#606060" stroke-width="1.0"/>
   <path id="arrow"
     d="M 11.500037,31.436501 C 11.940474,20.09759 22.043105,11.32322 32.158766,21.979434 L 37.068811,17.246167 C 37.068811,17.246167 37.088388,32 37.088388,32 L 22.160133,31.978069 C 22.160133,31.978069 26.997745,27.140456 26.997745,27.140456 C 18.528582,18.264221 13.291696,25.230495 11.500037,31.436501 z"
     style="fill:#404040;"/>
  </a>
 </g>
</svg>

<style type='text/css'>
<![CDATA[
[data-mouse-over-selected='false'] { opacity: 0.7; }
[data-mouse-over-selected='true']  { opacity: 1.0; }
]]>
</style>
<script type="application/ecmascript"><![CDATA[
document.addEventListener('DOMContentLoaded', (event) => {
  highlightEdges();
  highlightAdjacentNodes();
});
]]></script>
</svg>
