<?xml version="1.0" encoding="UTF-8" standalone="no"?>
<!DOCTYPE svg PUBLIC "-//W3C//DTD SVG 1.1//EN"
 "http://www.w3.org/Graphics/SVG/1.1/DTD/svg11.dtd">
<!-- Generated by graphviz version 14.0.1 (0)
 -->
<!-- Title: WrapMPI::send Pages: 1 -->
<svg width="280pt" height="74pt"
 viewBox="0.00 0.00 280.00 74.00" xmlns="http://www.w3.org/2000/svg" xmlns:xlink="http://www.w3.org/1999/xlink">
<g id="graph0" class="graph" transform="scale(1 1) rotate(0) translate(4 69.75)">
<title>WrapMPI::send</title>
<!-- Node1 -->
<g id="Node000001" class="node">
<title>Node1</title>
<g id="a_Node000001"><a xlink:title="Sends a single instance of data to a destination.">
<polygon fill="#999999" stroke="#666666" points="272,-44.75 189.25,-44.75 189.25,-26.25 272,-26.25 272,-44.75"/>
<text xml:space="preserve" text-anchor="middle" x="230.62" y="-31.25" font-family="Helvetica,sans-Serif" font-size="10.00">WrapMPI::send</text>
</a>
</g>
</g>
<!-- Node2 -->
<g id="Node000002" class="node">
<title>Node2</title>
<g id="a_Node000002"><a xlink:href="namespaceWrapMPI.html#a22a26e394ab9485f5b50a6be7d277940" target="_top" xlink:title="Sends a vector of data to a destination.">
<polygon fill="white" stroke="#666666" points="123.25,-65.75 30,-65.75 30,-47.25 123.25,-47.25 123.25,-65.75"/>
<text xml:space="preserve" text-anchor="middle" x="76.62" y="-52.25" font-family="Helvetica,sans-Serif" font-size="10.00">WrapMPI::send_v</text>
</a>
</g>
</g>
<!-- Node1&#45;&gt;Node2 -->
<g id="edge1_Node000001_Node000002" class="edge">
<title>Node1&#45;&gt;Node2</title>
<g id="a_edge1_Node000001_Node000002"><a xlink:title=" ">
<path fill="none" stroke="#63b8ff" d="M177.67,-42.68C160.11,-45.1 140.63,-47.79 123.57,-50.15"/>
<polygon fill="#63b8ff" stroke="#63b8ff" points="177.97,-46.17 187.39,-41.33 177.01,-39.24 177.97,-46.17"/>
</a>
</g>
</g>
<!-- Node3 -->
<g id="Node000003" class="node">
<title>Node3</title>
<g id="a_Node000003"><a xlink:href="classWrapMPI_1_1HostIterationPayload.html#aeab0cc5f0ddfccc7fc3584a873072882" target="_top" xlink:title=" ">
<polygon fill="white" stroke="#666666" points="153.25,-29 0,-29 0,0 153.25,0 153.25,-29"/>
<text xml:space="preserve" text-anchor="start" x="8" y="-15.5" font-family="Helvetica,sans-Serif" font-size="10.00">WrapMPI::HostIterationPayload</text>
<text xml:space="preserve" text-anchor="middle" x="76.62" y="-5" font-family="Helvetica,sans-Serif" font-size="10.00">::sendAll</text>
</a>
</g>
</g>
<!-- Node1&#45;&gt;Node3 -->
<g id="edge2_Node000001_Node000003" class="edge">
<title>Node1&#45;&gt;Node3</title>
<g id="a_edge2_Node000001_Node000003"><a xlink:title=" ">
<path fill="none" stroke="#63b8ff" d="M177.53,-28.3C169.82,-27.24 161.76,-26.12 153.69,-25.01"/>
<polygon fill="#63b8ff" stroke="#63b8ff" points="177.01,-31.76 187.39,-29.67 177.97,-24.83 177.01,-31.76"/>
</a>
</g>
</g>
</g>
</svg>
