<?xml version="1.0" encoding="UTF-8" standalone="no"?>
<!DOCTYPE svg PUBLIC "-//W3C//DTD SVG 1.1//EN"
 "http://www.w3.org/Graphics/SVG/1.1/DTD/svg11.dtd">
<!-- Generated by graphviz version 12.1.2 (0)
 -->
<!-- Title: PostProcessing::get_properties Pages: 1 -->
<svg width="267pt" height="168pt"
 viewBox="0.00 0.00 267.25 168.00" xmlns="http://www.w3.org/2000/svg" xmlns:xlink="http://www.w3.org/1999/xlink">
<g id="graph0" class="graph" transform="scale(1 1) rotate(0) translate(4 164)">
<title>PostProcessing::get_properties</title>
<!-- Node1 -->
<g id="Node000001" class="node">
<title>Node1</title>
<g id="a_Node000001"><a xlink:title=" ">
<polygon fill="#999999" stroke="#666666" points="104.5,-97 0,-97 0,-68 104.5,-68 104.5,-97"/>
<text text-anchor="start" x="8" y="-83.5" font-family="Helvetica,sans-Serif" font-size="10.00">PostProcessing::get</text>
<text text-anchor="middle" x="52.25" y="-73" font-family="Helvetica,sans-Serif" font-size="10.00">_properties</text>
</a>
</g>
</g>
<!-- Node2 -->
<g id="Node000002" class="node">
<title>Node2</title>
<g id="a_Node000002"><a xlink:href="classMC_1_1ParticlesContainer.html#acca450f3c529a6e6962d76f8f39011e8" target="_top" xlink:title=" ">
<polygon fill="white" stroke="#666666" points="259.25,-160 140.5,-160 140.5,-131 259.25,-131 259.25,-160"/>
<text text-anchor="start" x="148.5" y="-146.5" font-family="Helvetica,sans-Serif" font-size="10.00">MC::ParticlesContainer</text>
<text text-anchor="middle" x="199.88" y="-136" font-family="Helvetica,sans-Serif" font-size="10.00">::clean_dead</text>
</a>
</g>
</g>
<!-- Node1&#45;&gt;Node2 -->
<g id="edge1_Node000001_Node000002" class="edge">
<title>Node1&#45;&gt;Node2</title>
<g id="a_edge1_Node000001_Node000002"><a xlink:title=" ">
<path fill="none" stroke="#63b8ff" d="M85.88,-97.37C102.23,-104.74 122.35,-113.72 140.5,-121.5 144.08,-123.04 147.8,-124.61 151.54,-126.18"/>
<polygon fill="#63b8ff" stroke="#63b8ff" points="150.08,-129.37 160.66,-129.98 152.78,-122.9 150.08,-129.37"/>
</a>
</g>
</g>
<!-- Node3 -->
<g id="Node000003" class="node">
<title>Node3</title>
<g id="a_Node000003"><a xlink:href="namespacePostProcessing.html#a7b24c0cbc25e014d92006a5ebdcfeb22" target="_top" xlink:title=" ">
<polygon fill="white" stroke="#666666" points="255.88,-112.75 143.88,-112.75 143.88,-94.25 255.88,-94.25 255.88,-112.75"/>
<text text-anchor="middle" x="199.88" y="-99.25" font-family="Helvetica,sans-Serif" font-size="10.00">PostProcessing::inner</text>
</a>
</g>
</g>
<!-- Node1&#45;&gt;Node3 -->
<g id="edge2_Node000001_Node000003" class="edge">
<title>Node1&#45;&gt;Node3</title>
<g id="a_edge2_Node000001_Node000003"><a xlink:title=" ">
<path fill="none" stroke="#63b8ff" d="M104.59,-89.9C113.56,-91.2 123,-92.56 132.3,-93.9"/>
<polygon fill="#63b8ff" stroke="#63b8ff" points="131.65,-97.34 142.05,-95.31 132.65,-90.41 131.65,-97.34"/>
</a>
</g>
</g>
<!-- Node4 -->
<g id="Node000004" class="node">
<title>Node4</title>
<g id="a_Node000004"><a xlink:href="namespacePostProcessing.html#ae7f761591bedad44bd0af2a85bd0aad6" target="_top" xlink:title=" ">
<polygon fill="white" stroke="#666666" points="255.88,-76 143.88,-76 143.88,-47 255.88,-47 255.88,-76"/>
<text text-anchor="start" x="151.88" y="-62.5" font-family="Helvetica,sans-Serif" font-size="10.00">PostProcessing::inner</text>
<text text-anchor="middle" x="199.88" y="-52" font-family="Helvetica,sans-Serif" font-size="10.00">_partial</text>
</a>
</g>
</g>
<!-- Node1&#45;&gt;Node4 -->
<g id="edge3_Node000001_Node000004" class="edge">
<title>Node1&#45;&gt;Node4</title>
<g id="a_edge3_Node000001_Node000004"><a xlink:title=" ">
<path fill="none" stroke="#63b8ff" d="M104.59,-75.1C113.56,-73.8 123,-72.44 132.3,-71.1"/>
<polygon fill="#63b8ff" stroke="#63b8ff" points="132.65,-74.59 142.05,-69.69 131.65,-67.66 132.65,-74.59"/>
</a>
</g>
</g>
<!-- Node5 -->
<g id="Node000005" class="node">
<title>Node5</title>
<g id="a_Node000005"><a xlink:href="classMC_1_1ParticlesContainer.html#a30b264e87ae019596f9791f2fc60d52f" target="_top" xlink:title="Gets the number of particles in the container.">
<polygon fill="white" stroke="#666666" points="259.25,-29 140.5,-29 140.5,0 259.25,0 259.25,-29"/>
<text text-anchor="start" x="148.5" y="-15.5" font-family="Helvetica,sans-Serif" font-size="10.00">MC::ParticlesContainer</text>
<text text-anchor="middle" x="199.88" y="-5" font-family="Helvetica,sans-Serif" font-size="10.00">::n_particles</text>
</a>
</g>
</g>
<!-- Node1&#45;&gt;Node5 -->
<g id="edge4_Node000001_Node000005" class="edge">
<title>Node1&#45;&gt;Node5</title>
<g id="a_edge4_Node000001_Node000005"><a xlink:title=" ">
<path fill="none" stroke="#63b8ff" d="M81.27,-67.68C98.25,-58.87 120.44,-47.67 140.5,-38.5 143.84,-36.97 147.3,-35.44 150.8,-33.92"/>
<polygon fill="#63b8ff" stroke="#63b8ff" points="152.1,-37.17 159.93,-30.03 149.36,-30.73 152.1,-37.17"/>
</a>
</g>
</g>
</g>
</svg>
