<?xml version="1.0" encoding="UTF-8" standalone="no"?>
<!DOCTYPE svg PUBLIC "-//W3C//DTD SVG 1.1//EN"
 "http://www.w3.org/Graphics/SVG/1.1/DTD/svg11.dtd">
<!-- Generated by graphviz version 12.1.2 (0)
 -->
<!-- Title: Core::runtime_init Pages: 1 -->
<svg width="403pt" height="101pt"
 viewBox="0.00 0.00 402.50 100.50" xmlns="http://www.w3.org/2000/svg" xmlns:xlink="http://www.w3.org/1999/xlink">

<svg id="main" version="1.1" xmlns="http://www.w3.org/2000/svg" xmlns:xlink="http://www.w3.org/1999/xlink" xml:space="preserve">

<style type="text/css"><![CDATA[
.node, .edge {opacity: 0.7;}
.node.selected, .edge.selected {opacity: 1;}
.edge:hover path { stroke: red; }
.edge:hover polygon { stroke: red; fill: red; }
]]></style>
<script type="application/ecmascript" xlink:href="svg.min.js"/>
<svg id="graph" class="graph">
<g id="graph0" class="graph" transform="scale(1 1) rotate(0) translate(4 96.5)">
<title>Core::runtime_init</title>
<!-- Node1 -->
<g id="Node000001" class="node">
<title>Node1</title>
<g id="a_Node000001"><a xlink:title="Initializes the runtime environment based on command&#45;line arguments and simulation parameters.">
<polygon fill="#999999" stroke="#666666" points="93.25,-55.5 0,-55.5 0,-37 93.25,-37 93.25,-55.5"/>
<text text-anchor="middle" x="46.62" y="-42" font-family="Helvetica,sans-Serif" font-size="10.00">Core::runtime_init</text>
</a>
</g>
</g>
<!-- Node2 -->
<g id="Node000002" class="node">
<title>Node2</title>
<g id="a_Node000002"><a xlink:href="namespaceWrapMPI.html#a1a08bbe69602ac2f4f38e1a0d45275cb" target="_top" xlink:title=" ">
<polygon fill="white" stroke="#666666" points="230.75,-92.5 142,-92.5 142,-74 230.75,-74 230.75,-92.5"/>
<text text-anchor="middle" x="186.38" y="-79" font-family="Helvetica,sans-Serif" font-size="10.00">WrapMPI::barrier</text>
</a>
</g>
</g>
<!-- Node1&#45;&gt;Node2 -->
<g id="edge1_Node000001_Node000002" class="edge">
<title>Node1&#45;&gt;Node2</title>
<g id="a_edge1_Node000001_Node000002"><a xlink:title=" ">
<path fill="none" stroke="#63b8ff" d="M83.82,-55.97C100.51,-60.45 120.53,-65.83 138.36,-70.62"/>
<polygon fill="#63b8ff" stroke="#63b8ff" points="137.4,-73.99 147.96,-73.2 139.21,-67.23 137.4,-73.99"/>
</a>
</g>
</g>
<!-- Node4 -->
<g id="Node000004" class="node">
<title>Node4</title>
<g id="a_Node000004"><a xlink:href="namespaceWrapMPI.html#aadc3308a0cd9aa92fb555a4eb2f26c97" target="_top" xlink:title=" ">
<polygon fill="white" stroke="#666666" points="232.25,-55.5 140.5,-55.5 140.5,-37 232.25,-37 232.25,-55.5"/>
<text text-anchor="middle" x="186.38" y="-42" font-family="Helvetica,sans-Serif" font-size="10.00">WrapMPI::finalize</text>
</a>
</g>
</g>
<!-- Node1&#45;&gt;Node4 -->
<g id="edge3_Node000001_Node000004" class="edge">
<title>Node1&#45;&gt;Node4</title>
<g id="a_edge3_Node000001_Node000004"><a xlink:title=" ">
<path fill="none" stroke="#63b8ff" d="M93.49,-46.25C104.76,-46.25 116.96,-46.25 128.68,-46.25"/>
<polygon fill="#63b8ff" stroke="#63b8ff" points="128.66,-49.75 138.66,-46.25 128.66,-42.75 128.66,-49.75"/>
</a>
</g>
</g>
<!-- Node5 -->
<g id="Node000005" class="node">
<title>Node5</title>
<g id="a_Node000005"><a xlink:href="namespaceWrapMPI.html#a35940eb9d8521af86ea7383b1eaa6925" target="_top" xlink:title=" ">
<polygon fill="white" stroke="#666666" points="243.5,-18.5 129.25,-18.5 129.25,0 243.5,0 243.5,-18.5"/>
<text text-anchor="middle" x="186.38" y="-5" font-family="Helvetica,sans-Serif" font-size="10.00">WrapMPI::is_initialized</text>
</a>
</g>
</g>
<!-- Node1&#45;&gt;Node5 -->
<g id="edge4_Node000001_Node000005" class="edge">
<title>Node1&#45;&gt;Node5</title>
<g id="a_edge4_Node000001_Node000005"><a xlink:title=" ">
<path fill="none" stroke="#63b8ff" d="M83.82,-36.53C100.51,-32.05 120.53,-26.67 138.36,-21.88"/>
<polygon fill="#63b8ff" stroke="#63b8ff" points="139.21,-25.27 147.96,-19.3 137.4,-18.51 139.21,-25.27"/>
</a>
</g>
</g>
<!-- Node3 -->
<g id="Node000003" class="node">
<title>Node3</title>
<g id="a_Node000003"><a xlink:href="namespaceWrapMPI.html#aa924ad0d911109a9e6e3a20bebc3b316" target="_top" xlink:title=" ">
<polygon fill="white" stroke="#666666" points="394.5,-92.5 279.5,-92.5 279.5,-74 394.5,-74 394.5,-92.5"/>
<text text-anchor="middle" x="337" y="-79" font-family="Helvetica,sans-Serif" font-size="10.00">WrapMPI::critical_error</text>
</a>
</g>
</g>
<!-- Node2&#45;&gt;Node3 -->
<g id="edge2_Node000002_Node000003" class="edge">
<title>Node2&#45;&gt;Node3</title>
<g id="a_edge2_Node000002_Node000003"><a xlink:title=" ">
<path fill="none" stroke="#63b8ff" d="M231.16,-83.25C242.64,-83.25 255.28,-83.25 267.71,-83.25"/>
<polygon fill="#63b8ff" stroke="#63b8ff" points="267.5,-86.75 277.5,-83.25 267.5,-79.75 267.5,-86.75"/>
</a>
</g>
</g>
</g>
</svg>
</svg>

<style type='text/css'>
<![CDATA[
[data-mouse-over-selected='false'] { opacity: 0.7; }
[data-mouse-over-selected='true']  { opacity: 1.0; }
]]>
</style>
<script type="application/ecmascript"><![CDATA[
document.addEventListener('DOMContentLoaded', (event) => {
  highlightEdges();
  highlightAdjacentNodes();
});
]]></script>
</svg>
