<?xml version="1.0" encoding="UTF-8" standalone="no"?>
<!DOCTYPE svg PUBLIC "-//W3C//DTD SVG 1.1//EN"
 "http://www.w3.org/Graphics/SVG/1.1/DTD/svg11.dtd">
<!-- Generated by graphviz version 14.0.1 (0)
 -->
<!-- Title: Common::read_env_or Pages: 1 -->
<svg width="477pt" height="192pt"
 viewBox="0.00 0.00 477.00 192.00" xmlns="http://www.w3.org/2000/svg" xmlns:xlink="http://www.w3.org/1999/xlink">
<g id="graph0" class="graph" transform="scale(1 1) rotate(0) translate(4 187.75)">
<title>Common::read_env_or</title>
<!-- Node1 -->
<g id="Node000001" class="node">
<title>Node1</title>
<g id="a_Node000001"><a xlink:title="Wrapper arround get_env to get envariable with fallback to default.">
<polygon fill="#999999" stroke="#666666" points="468.75,-112.75 353.75,-112.75 353.75,-94.25 468.75,-94.25 468.75,-112.75"/>
<text xml:space="preserve" text-anchor="middle" x="411.25" y="-99.25" font-family="Helvetica,sans-Serif" font-size="10.00">Common::read_env_or</text>
</a>
</g>
</g>
<!-- Node2 -->
<g id="Node000002" class="node">
<title>Node2</title>
<g id="a_Node000002"><a xlink:href="namespaceCommon.html#ad3d68e79e4dbd7836f3090e662e01dba" target="_top" xlink:title=" ">
<polygon fill="white" stroke="#666666" points="304.25,-149.75 198.25,-149.75 198.25,-131.25 304.25,-131.25 304.25,-149.75"/>
<text xml:space="preserve" text-anchor="middle" x="251.25" y="-136.25" font-family="Helvetica,sans-Serif" font-size="10.00">Common::get_policy</text>
</a>
</g>
</g>
<!-- Node1&#45;&gt;Node2 -->
<g id="edge1_Node000001_Node000002" class="edge">
<title>Node1&#45;&gt;Node2</title>
<g id="a_edge1_Node000001_Node000002"><a xlink:title=" ">
<path fill="none" stroke="#63b8ff" d="M357.53,-115.85C336.77,-120.71 313.28,-126.21 293.76,-130.78"/>
<polygon fill="#63b8ff" stroke="#63b8ff" points="358.33,-119.25 367.26,-113.57 356.73,-112.44 358.33,-119.25"/>
</a>
</g>
</g>
<!-- Node5 -->
<g id="Node000005" class="node">
<title>Node5</title>
<g id="a_Node000005"><a xlink:href="namespaceCommon.html#ad9c9fe6434c0c09218a2e33e17beee28" target="_top" xlink:title=" ">
<polygon fill="white" stroke="#666666" points="317.75,-112.75 184.75,-112.75 184.75,-94.25 317.75,-94.25 317.75,-112.75"/>
<text xml:space="preserve" text-anchor="middle" x="251.25" y="-99.25" font-family="Helvetica,sans-Serif" font-size="10.00">Common::get_policy_team</text>
</a>
</g>
</g>
<!-- Node1&#45;&gt;Node5 -->
<g id="edge4_Node000001_Node000005" class="edge">
<title>Node1&#45;&gt;Node5</title>
<g id="a_edge4_Node000001_Node000005"><a xlink:title=" ">
<path fill="none" stroke="#63b8ff" d="M342.42,-103.5C334.37,-103.5 326.16,-103.5 318.14,-103.5"/>
<polygon fill="#63b8ff" stroke="#63b8ff" points="342.14,-107 352.14,-103.5 342.14,-100 342.14,-107"/>
</a>
</g>
</g>
<!-- Node6 -->
<g id="Node000006" class="node">
<title>Node6</title>
<g id="a_Node000006"><a xlink:href="namespaceMC.html#a67a8a8fb99f617a67dd3702cd0f0b47f" target="_top" xlink:title=" ">
<polygon fill="white" stroke="#666666" points="316.25,-75.75 186.25,-75.75 186.25,-57.25 316.25,-57.25 316.25,-75.75"/>
<text xml:space="preserve" text-anchor="middle" x="251.25" y="-62.25" font-family="Helvetica,sans-Serif" font-size="10.00">MC::load_tuning_constant</text>
</a>
</g>
</g>
<!-- Node1&#45;&gt;Node6 -->
<g id="edge5_Node000001_Node000006" class="edge">
<title>Node1&#45;&gt;Node6</title>
<g id="a_edge5_Node000001_Node000006"><a xlink:title=" ">
<path fill="none" stroke="#63b8ff" d="M357.53,-91.15C336.77,-86.29 313.28,-80.79 293.76,-76.22"/>
<polygon fill="#63b8ff" stroke="#63b8ff" points="356.73,-94.56 367.26,-93.43 358.33,-87.75 356.73,-94.56"/>
</a>
</g>
</g>
<!-- Node3 -->
<g id="Node000003" class="node">
<title>Node3</title>
<g id="a_Node000003"><a xlink:href="namespaceCommon.html#a9322a1455f0f2a0626d66eae67412bda" target="_top" xlink:title=" ">
<polygon fill="white" stroke="#666666" points="127.38,-183.75 21.38,-183.75 21.38,-165.25 127.38,-165.25 127.38,-183.75"/>
<text xml:space="preserve" text-anchor="middle" x="74.38" y="-170.25" font-family="Helvetica,sans-Serif" font-size="10.00">Common::get_policy</text>
</a>
</g>
</g>
<!-- Node2&#45;&gt;Node3 -->
<g id="edge2_Node000002_Node000003" class="edge">
<title>Node2&#45;&gt;Node3</title>
<g id="a_edge2_Node000002_Node000003"><a xlink:title=" ">
<path fill="none" stroke="#63b8ff" d="M188.87,-152.43C168.14,-156.46 145.25,-160.91 125.49,-164.76"/>
<polygon fill="#63b8ff" stroke="#63b8ff" points="189.5,-155.88 198.65,-150.53 188.17,-149 189.5,-155.88"/>
</a>
</g>
</g>
<!-- Node4 -->
<g id="Node000004" class="node">
<title>Node4</title>
<g id="a_Node000004"><a xlink:href="structSimulation_1_1KernelInline_1_1CycleFunctors.html#aa180fb540dd548aefdc0cead1e7c8205" target="_top" xlink:title=" ">
<polygon fill="white" stroke="#666666" points="148.75,-147 0,-147 0,-118 148.75,-118 148.75,-147"/>
<text xml:space="preserve" text-anchor="start" x="8" y="-133.5" font-family="Helvetica,sans-Serif" font-size="10.00">Simulation::KernelInline</text>
<text xml:space="preserve" text-anchor="middle" x="74.38" y="-123" font-family="Helvetica,sans-Serif" font-size="10.00">::CycleFunctors::launch_move</text>
</a>
</g>
</g>
<!-- Node2&#45;&gt;Node4 -->
<g id="edge3_Node000002_Node000004" class="edge">
<title>Node2&#45;&gt;Node4</title>
<g id="a_edge3_Node000002_Node000004"><a xlink:title=" ">
<path fill="none" stroke="#63b8ff" d="M186.4,-137.58C174.29,-137.03 161.53,-136.44 149.14,-135.87"/>
<polygon fill="#63b8ff" stroke="#63b8ff" points="186.12,-141.07 196.27,-138.03 186.44,-134.08 186.12,-141.07"/>
</a>
</g>
</g>
<!-- Node7 -->
<g id="Node000007" class="node">
<title>Node7</title>
<g id="a_Node000007"><a xlink:href="namespaceMC.html#ade0c0af584516d4dfc554b9d6c045a74" target="_top" xlink:title="Helper function to initialize a MonteCarloUnit.">
<polygon fill="white" stroke="#666666" points="99.62,-83.75 49.12,-83.75 49.12,-65.25 99.62,-65.25 99.62,-83.75"/>
<text xml:space="preserve" text-anchor="middle" x="74.38" y="-70.25" font-family="Helvetica,sans-Serif" font-size="10.00">MC::init</text>
</a>
</g>
</g>
<!-- Node6&#45;&gt;Node7 -->
<g id="edge6_Node000006_Node000007" class="edge">
<title>Node6&#45;&gt;Node7</title>
<g id="a_edge6_Node000006_Node000007"><a xlink:title=" ">
<path fill="none" stroke="#63b8ff" d="M174.71,-69.96C147.79,-71.19 119.33,-72.49 99.81,-73.38"/>
<polygon fill="#63b8ff" stroke="#63b8ff" points="174.78,-73.46 184.61,-69.5 174.46,-66.46 174.78,-73.46"/>
</a>
</g>
</g>
<!-- Node8 -->
<g id="Node000008" class="node">
<title>Node8</title>
<g id="a_Node000008"><a xlink:href="structMC_1_1MonteCarloUnit.html#a98a680cfc3356b197d4cd8fd453e0a17" target="_top" xlink:title=" ">
<polygon fill="white" stroke="#666666" points="127,-29 21.75,-29 21.75,0 127,0 127,-29"/>
<text xml:space="preserve" text-anchor="start" x="29.75" y="-15.5" font-family="Helvetica,sans-Serif" font-size="10.00">MC::MonteCarloUnit</text>
<text xml:space="preserve" text-anchor="middle" x="74.38" y="-5" font-family="Helvetica,sans-Serif" font-size="10.00">::serialize</text>
</a>
</g>
</g>
<!-- Node6&#45;&gt;Node8 -->
<g id="edge7_Node000006_Node000008" class="edge">
<title>Node6&#45;&gt;Node8</title>
<g id="a_edge7_Node000006_Node000008"><a xlink:title=" ">
<path fill="none" stroke="#63b8ff" d="M206.93,-53.62C182.27,-46.29 151.27,-37.07 125.56,-29.42"/>
<polygon fill="#63b8ff" stroke="#63b8ff" points="205.73,-56.91 216.32,-56.41 207.73,-50.2 205.73,-56.91"/>
</a>
</g>
</g>
<!-- Node8&#45;&gt;Node8 -->
<g id="edge8_Node000008_Node000008" class="edge">
<title>Node8&#45;&gt;Node8</title>
<g id="a_edge8_Node000008_Node000008"><a xlink:title=" ">
<path fill="none" stroke="#63b8ff" d="M104.4,-40.56C99.68,-44.41 89.68,-47 74.38,-47 46.39,-47 36.12,-38.32 43.55,-29.21"/>
<polygon fill="#63b8ff" stroke="#63b8ff" points="107.88,-40.94 105.09,-30.72 100.9,-40.44 107.88,-40.94"/>
</a>
</g>
</g>
</g>
</svg>
