<?xml version="1.0" encoding="UTF-8" standalone="no"?>
<!DOCTYPE svg PUBLIC "-//W3C//DTD SVG 1.1//EN"
 "http://www.w3.org/Graphics/SVG/1.1/DTD/svg11.dtd">
<!-- Generated by graphviz version 14.0.1 (0)
 -->
<!-- Title: PostProcessing::_save_probes Pages: 1 -->
<svg width="415pt" height="193pt"
 viewBox="0.00 0.00 415.00 193.00" xmlns="http://www.w3.org/2000/svg" xmlns:xlink="http://www.w3.org/1999/xlink">

<svg id="main" version="1.1" xmlns="http://www.w3.org/2000/svg" xmlns:xlink="http://www.w3.org/1999/xlink" xml:space="preserve">

<style type="text/css"><![CDATA[
.node, .edge {opacity: 0.7;}
.node.selected, .edge.selected {opacity: 1;}
.edge:hover path { stroke: red; }
.edge:hover polygon { stroke: red; fill: red; }
]]></style>
<script type="application/ecmascript" xlink:href="svg.min.js"/>
<svg id="graph" class="graph">
<g id="graph0" class="graph" transform="scale(1 1) rotate(0) translate(4 188.75)">
<title>PostProcessing::_save_probes</title>
<!-- Node1 -->
<g id="Node000001" class="node">
<title>Node1</title>
<g id="a_Node000001"><a xlink:title=" ">
<polygon fill="#999999" stroke="#666666" points="116.5,-121.75 0,-121.75 0,-92.75 116.5,-92.75 116.5,-121.75"/>
<text xml:space="preserve" text-anchor="start" x="8" y="-108.25" font-family="Helvetica,sans-Serif" font-size="10.00">PostProcessing::_save</text>
<text xml:space="preserve" text-anchor="middle" x="58.25" y="-97.75" font-family="Helvetica,sans-Serif" font-size="10.00">_probes</text>
</a>
</g>
</g>
<!-- Node2 -->
<g id="Node000002" class="node">
<title>Node2</title>
<g id="a_Node000002"><a xlink:href="classSimulation_1_1Probes.html#af54f1c8be6e49f63e8533d6a4e91cad3" target="_top" xlink:title=" ">
<polygon fill="white" stroke="#666666" points="260.75,-184.75 162.25,-184.75 162.25,-155.75 260.75,-155.75 260.75,-184.75"/>
<text xml:space="preserve" text-anchor="start" x="170.25" y="-171.25" font-family="Helvetica,sans-Serif" font-size="10.00">Simulation::Probes</text>
<text xml:space="preserve" text-anchor="middle" x="211.5" y="-160.75" font-family="Helvetica,sans-Serif" font-size="10.00">::clear</text>
</a>
</g>
</g>
<!-- Node1&#45;&gt;Node2 -->
<g id="edge1_Node000001_Node000002" class="edge">
<title>Node1&#45;&gt;Node2</title>
<g id="a_edge1_Node000001_Node000002"><a xlink:title=" ">
<path fill="none" stroke="#63b8ff" d="M94.66,-122.1C112.08,-129.39 133.38,-138.3 152.5,-146.25 156.13,-147.76 159.89,-149.32 163.67,-150.89"/>
<polygon fill="#63b8ff" stroke="#63b8ff" points="162.32,-154.12 172.89,-154.71 165,-147.65 162.32,-154.12"/>
</a>
</g>
</g>
<!-- Node3 -->
<g id="Node000003" class="node">
<title>Node3</title>
<g id="a_Node000003"><a xlink:href="classSimulation_1_1Probes.html#a6345c8304e772a314dae935f742d518a" target="_top" xlink:title=" ">
<polygon fill="white" stroke="#666666" points="270.5,-137.5 152.5,-137.5 152.5,-119 270.5,-119 270.5,-137.5"/>
<text xml:space="preserve" text-anchor="middle" x="211.5" y="-124" font-family="Helvetica,sans-Serif" font-size="10.00">Simulation::Probes::get</text>
</a>
</g>
</g>
<!-- Node1&#45;&gt;Node3 -->
<g id="edge2_Node000001_Node000003" class="edge">
<title>Node1&#45;&gt;Node3</title>
<g id="a_edge2_Node000001_Node000003"><a xlink:title=" ">
<path fill="none" stroke="#63b8ff" d="M116.86,-115.25C124.69,-116.34 132.8,-117.46 140.81,-118.57"/>
<polygon fill="#63b8ff" stroke="#63b8ff" points="140.16,-122.02 150.55,-119.93 141.12,-115.08 140.16,-122.02"/>
</a>
</g>
</g>
<!-- Node4 -->
<g id="Node000004" class="node">
<title>Node4</title>
<g id="a_Node000004"><a xlink:href="classSimulation_1_1Probes.html#a2b8541ff7ad653204a955ff1feb78757" target="_top" xlink:title=" ">
<polygon fill="white" stroke="#666666" points="260.75,-100.75 162.25,-100.75 162.25,-71.75 260.75,-71.75 260.75,-100.75"/>
<text xml:space="preserve" text-anchor="start" x="170.25" y="-87.25" font-family="Helvetica,sans-Serif" font-size="10.00">Simulation::Probes</text>
<text xml:space="preserve" text-anchor="middle" x="211.5" y="-76.75" font-family="Helvetica,sans-Serif" font-size="10.00">::need_export</text>
</a>
</g>
</g>
<!-- Node1&#45;&gt;Node4 -->
<g id="edge3_Node000001_Node000004" class="edge">
<title>Node1&#45;&gt;Node4</title>
<g id="a_edge3_Node000001_Node000004"><a xlink:title=" ">
<path fill="none" stroke="#63b8ff" d="M116.86,-99.25C127.89,-97.72 139.46,-96.11 150.56,-94.57"/>
<polygon fill="#63b8ff" stroke="#63b8ff" points="150.99,-98.05 160.42,-93.2 150.03,-91.11 150.99,-98.05"/>
</a>
</g>
</g>
<!-- Node5 -->
<g id="Node000005" class="node">
<title>Node5</title>
<g id="a_Node000005"><a xlink:href="classCore_1_1PartialExporter.html#a53c54ce796df99b407f410beb01074c5" target="_top" xlink:title="Writes probe data to the export.">
<polygon fill="white" stroke="#666666" points="266,-53.75 157,-53.75 157,-24.75 266,-24.75 266,-53.75"/>
<text xml:space="preserve" text-anchor="start" x="165" y="-40.25" font-family="Helvetica,sans-Serif" font-size="10.00">Core::PartialExporter</text>
<text xml:space="preserve" text-anchor="middle" x="211.5" y="-29.75" font-family="Helvetica,sans-Serif" font-size="10.00">::write_probe</text>
</a>
</g>
</g>
<!-- Node1&#45;&gt;Node5 -->
<g id="edge4_Node000001_Node000005" class="edge">
<title>Node1&#45;&gt;Node5</title>
<g id="a_edge4_Node000001_Node000005"><a xlink:title=" ">
<path fill="none" stroke="#63b8ff" d="M89.74,-92.41C107.87,-83.69 131.38,-72.59 152.5,-63.25 155.99,-61.7 159.62,-60.13 163.27,-58.57"/>
<polygon fill="#63b8ff" stroke="#63b8ff" points="164.32,-61.92 172.17,-54.81 161.6,-55.48 164.32,-61.92"/>
</a>
</g>
</g>
<!-- Node6 -->
<g id="Node000006" class="node">
<title>Node6</title>
<g id="a_Node000006"><a xlink:href="classCore_1_1DataExporter.html#a0b0b79f3932c4eb905704a852248c857" target="_top" xlink:title=" ">
<polygon fill="white" stroke="#666666" points="407.25,-83.75 306.5,-83.75 306.5,-54.75 407.25,-54.75 407.25,-83.75"/>
<text xml:space="preserve" text-anchor="start" x="314.5" y="-70.25" font-family="Helvetica,sans-Serif" font-size="10.00">Core::DataExporter</text>
<text xml:space="preserve" text-anchor="middle" x="356.88" y="-59.75" font-family="Helvetica,sans-Serif" font-size="10.00">::append_array</text>
</a>
</g>
</g>
<!-- Node5&#45;&gt;Node6 -->
<g id="edge5_Node000005_Node000006" class="edge">
<title>Node5&#45;&gt;Node6</title>
<g id="a_edge5_Node000005_Node000006"><a xlink:title=" ">
<path fill="none" stroke="#63b8ff" d="M266.3,-50.51C275.66,-52.47 285.46,-54.52 295,-56.51"/>
<polygon fill="#63b8ff" stroke="#63b8ff" points="294.05,-59.89 304.56,-58.51 295.49,-53.04 294.05,-59.89"/>
</a>
</g>
</g>
<!-- Node7 -->
<g id="Node000007" class="node">
<title>Node7</title>
<g id="a_Node000007"><a xlink:href="namespaceIO.html#a30cc77fc5c4d45d3b56ef6a299ce2383" target="_top" xlink:title=" ">
<polygon fill="white" stroke="#666666" points="387,-18.5 326.75,-18.5 326.75,0 387,0 387,-18.5"/>
<text xml:space="preserve" text-anchor="middle" x="356.88" y="-5" font-family="Helvetica,sans-Serif" font-size="10.00">IO::format</text>
</a>
</g>
</g>
<!-- Node5&#45;&gt;Node7 -->
<g id="edge6_Node000005_Node000007" class="edge">
<title>Node5&#45;&gt;Node7</title>
<g id="a_edge6_Node000005_Node000007"><a xlink:title=" ">
<path fill="none" stroke="#63b8ff" d="M266.3,-27.99C282.51,-24.6 300.02,-20.94 315.22,-17.76"/>
<polygon fill="#63b8ff" stroke="#63b8ff" points="315.79,-21.21 324.86,-15.74 314.36,-14.36 315.79,-21.21"/>
</a>
</g>
</g>
<!-- Node7&#45;&gt;Node7 -->
<g id="edge7_Node000007_Node000007" class="edge">
<title>Node7&#45;&gt;Node7</title>
<g id="a_edge7_Node000007_Node000007"><a xlink:title=" ">
<path fill="none" stroke="#63b8ff" d="M334.47,-18.75C323.57,-27.32 331.04,-36.5 356.88,-36.5 371.41,-36.5 380.13,-33.59 383.04,-29.53"/>
<polygon fill="#63b8ff" stroke="#63b8ff" points="386.38,-28.47 379.78,-20.17 379.77,-30.77 386.38,-28.47"/>
</a>
</g>
</g>
</g>
</svg>
</svg>

<style type='text/css'>
<![CDATA[
[data-mouse-over-selected='false'] { opacity: 0.7; }
[data-mouse-over-selected='true']  { opacity: 1.0; }
]]>
</style>
<script type="application/ecmascript"><![CDATA[
document.addEventListener('DOMContentLoaded', (event) => {
  highlightEdges();
  highlightAdjacentNodes();
});
]]></script>
</svg>
