<?xml version="1.0" encoding="UTF-8" standalone="no"?>
<!DOCTYPE svg PUBLIC "-//W3C//DTD SVG 1.1//EN"
 "http://www.w3.org/Graphics/SVG/1.1/DTD/svg11.dtd">
<!-- Generated by graphviz version 14.0.1 (0)
 -->
<!-- Title: WrapMPI::try_recv Pages: 1 -->
<svg width="257pt" height="64pt"
 viewBox="0.00 0.00 257.00 64.00" xmlns="http://www.w3.org/2000/svg" xmlns:xlink="http://www.w3.org/1999/xlink">
<g id="graph0" class="graph" transform="scale(1 1) rotate(0) translate(4 59.5)">
<title>WrapMPI::try_recv</title>
<!-- Node1 -->
<g id="Node000001" class="node">
<title>Node1</title>
<g id="a_Node000001"><a xlink:title="Attempts to receive a single data item from a source.">
<polygon fill="#999999" stroke="#666666" points="97.75,-36.5 0,-36.5 0,-18 97.75,-18 97.75,-36.5"/>
<text xml:space="preserve" text-anchor="middle" x="48.88" y="-23" font-family="Helvetica,sans-Serif" font-size="10.00">WrapMPI::try_recv</text>
</a>
</g>
</g>
<!-- Node2 -->
<g id="Node000002" class="node">
<title>Node2</title>
<g id="a_Node000002"><a xlink:href="namespaceWrapMPI.html#aa924ad0d911109a9e6e3a20bebc3b316" target="_top" xlink:title=" ">
<polygon fill="white" stroke="#666666" points="248.75,-55.5 133.75,-55.5 133.75,-37 248.75,-37 248.75,-55.5"/>
<text xml:space="preserve" text-anchor="middle" x="191.25" y="-42" font-family="Helvetica,sans-Serif" font-size="10.00">WrapMPI::critical_error</text>
</a>
</g>
</g>
<!-- Node1&#45;&gt;Node2 -->
<g id="edge1_Node000001_Node000002" class="edge">
<title>Node1&#45;&gt;Node2</title>
<g id="a_edge1_Node000001_Node000002"><a xlink:title=" ">
<path fill="none" stroke="#63b8ff" d="M98.18,-33.79C105.95,-34.84 114.11,-35.94 122.23,-37.04"/>
<polygon fill="#63b8ff" stroke="#63b8ff" points="121.76,-40.51 132.13,-38.38 122.69,-33.57 121.76,-40.51"/>
</a>
</g>
</g>
<!-- Node3 -->
<g id="Node000003" class="node">
<title>Node3</title>
<g id="a_Node000003"><a xlink:href="namespaceWrapMPI.html#ac43482d706c8ce2d9022c54784820197" target="_top" xlink:title="Receives a single data item from a source.">
<polygon fill="white" stroke="#666666" points="231.5,-18.5 151,-18.5 151,0 231.5,0 231.5,-18.5"/>
<text xml:space="preserve" text-anchor="middle" x="191.25" y="-5" font-family="Helvetica,sans-Serif" font-size="10.00">WrapMPI::recv</text>
</a>
</g>
</g>
<!-- Node1&#45;&gt;Node3 -->
<g id="edge2_Node000001_Node000003" class="edge">
<title>Node1&#45;&gt;Node3</title>
<g id="a_edge2_Node000001_Node000003"><a xlink:title=" ">
<path fill="none" stroke="#63b8ff" d="M98.18,-21.06C111.57,-19.34 126.13,-17.47 139.64,-15.74"/>
<polygon fill="#63b8ff" stroke="#63b8ff" points="139.72,-19.26 149.19,-14.51 138.83,-12.32 139.72,-19.26"/>
</a>
</g>
</g>
</g>
</svg>
