<?xml version="1.0" encoding="UTF-8" standalone="no"?>
<!DOCTYPE svg PUBLIC "-//W3C//DTD SVG 1.1//EN"
 "http://www.w3.org/Graphics/SVG/1.1/DTD/svg11.dtd">
<!-- Generated by graphviz version 14.0.1 (0)
 -->
<!-- Title: CommonMaths::_ln Pages: 1 -->
<svg width="602pt" height="107pt"
 viewBox="0.00 0.00 602.00 107.00" xmlns="http://www.w3.org/2000/svg" xmlns:xlink="http://www.w3.org/1999/xlink">
<g id="graph0" class="graph" transform="scale(1 1) rotate(0) translate(4 103)">
<title>CommonMaths::_ln</title>
<!-- Node1 -->
<g id="Node000001" class="node">
<title>Node1</title>
<g id="a_Node000001"><a xlink:title=" ">
<polygon fill="#999999" stroke="#666666" points="594.25,-69.75 492.75,-69.75 492.75,-51.25 594.25,-51.25 594.25,-69.75"/>
<text xml:space="preserve" text-anchor="middle" x="543.5" y="-56.25" font-family="Helvetica,sans-Serif" font-size="10.00">CommonMaths::_ln</text>
</a>
</g>
</g>
<!-- Node2 -->
<g id="Node000002" class="node">
<title>Node2</title>
<g id="a_Node000002"><a xlink:href="structMC_1_1Distributions_1_1Exponential.html#ac3639218708bbfa0c357c328851f021d" target="_top" xlink:title=" ">
<polygon fill="white" stroke="#666666" points="447,-99 348.5,-99 348.5,-70 447,-70 447,-99"/>
<text xml:space="preserve" text-anchor="start" x="356.5" y="-85.5" font-family="Helvetica,sans-Serif" font-size="10.00">MC::Distributions::</text>
<text xml:space="preserve" text-anchor="middle" x="397.75" y="-75" font-family="Helvetica,sans-Serif" font-size="10.00">Exponential::draw</text>
</a>
</g>
</g>
<!-- Node1&#45;&gt;Node2 -->
<g id="edge1_Node000001_Node000002" class="edge">
<title>Node1&#45;&gt;Node2</title>
<g id="a_edge1_Node000001_Node000002"><a xlink:title=" ">
<path fill="none" stroke="#63b8ff" d="M481.35,-70.71C469.9,-72.62 458.08,-74.6 447.08,-76.43"/>
<polygon fill="#63b8ff" stroke="#63b8ff" points="481.85,-74.17 491.13,-69.08 480.69,-67.27 481.85,-74.17"/>
</a>
</g>
</g>
<!-- Node3 -->
<g id="Node000003" class="node">
<title>Node3</title>
<g id="a_Node000003"><a xlink:href="namespaceSimulation_1_1KernelInline.html#a648521674ead158dd3776a946da6722a" target="_top" xlink:title=" ">
<polygon fill="white" stroke="#666666" points="456.75,-52 338.75,-52 338.75,-23 456.75,-23 456.75,-52"/>
<text xml:space="preserve" text-anchor="start" x="346.75" y="-38.5" font-family="Helvetica,sans-Serif" font-size="10.00">Simulation::KernelInline</text>
<text xml:space="preserve" text-anchor="middle" x="397.75" y="-28" font-family="Helvetica,sans-Serif" font-size="10.00">::probability_leaving</text>
</a>
</g>
</g>
<!-- Node1&#45;&gt;Node3 -->
<g id="edge2_Node000001_Node000003" class="edge">
<title>Node1&#45;&gt;Node3</title>
<g id="a_edge2_Node000001_Node000003"><a xlink:title=" ">
<path fill="none" stroke="#63b8ff" d="M481.43,-50.73C473.39,-49.44 465.17,-48.13 457.18,-46.85"/>
<polygon fill="#63b8ff" stroke="#63b8ff" points="480.7,-54.16 491.13,-52.28 481.81,-47.25 480.7,-54.16"/>
</a>
</g>
</g>
<!-- Node4 -->
<g id="Node000004" class="node">
<title>Node4</title>
<g id="a_Node000004"><a xlink:href="structSimulation_1_1KernelInline_1_1MoveFunctor.html#abfafc032139a43b466331db3cea91e83" target="_top" xlink:title=" ">
<polygon fill="white" stroke="#666666" points="299,-76 165.25,-76 165.25,-47 299,-47 299,-76"/>
<text xml:space="preserve" text-anchor="start" x="173.25" y="-62.5" font-family="Helvetica,sans-Serif" font-size="10.00">Simulation::KernelInline</text>
<text xml:space="preserve" text-anchor="middle" x="232.12" y="-52" font-family="Helvetica,sans-Serif" font-size="10.00">::MoveFunctor::handle_exit</text>
</a>
</g>
</g>
<!-- Node3&#45;&gt;Node4 -->
<g id="edge3_Node000003_Node000004" class="edge">
<title>Node3&#45;&gt;Node4</title>
<g id="a_edge3_Node000003_Node000004"><a xlink:title=" ">
<path fill="none" stroke="#63b8ff" d="M327.43,-47.67C318.16,-49.03 308.67,-50.42 299.45,-51.77"/>
<polygon fill="#63b8ff" stroke="#63b8ff" points="327.72,-51.16 337.1,-46.25 326.7,-44.24 327.72,-51.16"/>
</a>
</g>
</g>
<!-- Node6 -->
<g id="Node000006" class="node">
<title>Node6</title>
<g id="a_Node000006"><a xlink:href="structSimulation_1_1KernelInline_1_1MoveFunctor.html#a2f5c4626adae4fe3d1c114dcb5f2c08b" target="_top" xlink:title=" ">
<polygon fill="white" stroke="#666666" points="302.75,-29 161.5,-29 161.5,0 302.75,0 302.75,-29"/>
<text xml:space="preserve" text-anchor="start" x="169.5" y="-15.5" font-family="Helvetica,sans-Serif" font-size="10.00">Simulation::KernelInline</text>
<text xml:space="preserve" text-anchor="middle" x="232.12" y="-5" font-family="Helvetica,sans-Serif" font-size="10.00">::MoveFunctor::handle_move</text>
</a>
</g>
</g>
<!-- Node3&#45;&gt;Node6 -->
<g id="edge5_Node000003_Node000006" class="edge">
<title>Node3&#45;&gt;Node6</title>
<g id="a_edge5_Node000003_Node000006"><a xlink:title=" ">
<path fill="none" stroke="#63b8ff" d="M327.39,-27.75C319.36,-26.62 311.17,-25.47 303.13,-24.34"/>
<polygon fill="#63b8ff" stroke="#63b8ff" points="326.71,-31.19 337.1,-29.12 327.69,-24.26 326.71,-31.19"/>
</a>
</g>
</g>
<!-- Node5 -->
<g id="Node000005" class="node">
<title>Node5</title>
<g id="a_Node000005"><a xlink:href="structSimulation_1_1KernelInline_1_1MoveFunctor.html#a5aaf80d98e2418095ed0890e1568f38b" target="_top" xlink:title=" ">
<polygon fill="white" stroke="#666666" points="125.5,-76 0,-76 0,-47 125.5,-47 125.5,-76"/>
<text xml:space="preserve" text-anchor="start" x="8" y="-62.5" font-family="Helvetica,sans-Serif" font-size="10.00">Simulation::KernelInline</text>
<text xml:space="preserve" text-anchor="middle" x="62.75" y="-52" font-family="Helvetica,sans-Serif" font-size="10.00">::MoveFunctor::operator()</text>
</a>
</g>
</g>
<!-- Node4&#45;&gt;Node5 -->
<g id="edge4_Node000004_Node000005" class="edge">
<title>Node4&#45;&gt;Node5</title>
<g id="a_edge4_Node000004_Node000005"><a xlink:title=" ">
<path fill="none" stroke="#63b8ff" d="M153.69,-61.5C144.37,-61.5 134.94,-61.5 125.88,-61.5"/>
<polygon fill="#63b8ff" stroke="#63b8ff" points="153.46,-65 163.46,-61.5 153.46,-58 153.46,-65"/>
</a>
</g>
</g>
<!-- Node7 -->
<g id="Node000007" class="node">
<title>Node7</title>
<g id="a_Node000007"><a xlink:href="structSimulation_1_1KernelInline_1_1MoveFunctor.html#afa5da75e40c38337bf911c63d25c261d" target="_top" xlink:title=" ">
<polygon fill="white" stroke="#666666" points="125.5,-29 0,-29 0,0 125.5,0 125.5,-29"/>
<text xml:space="preserve" text-anchor="start" x="8" y="-15.5" font-family="Helvetica,sans-Serif" font-size="10.00">Simulation::KernelInline</text>
<text xml:space="preserve" text-anchor="middle" x="62.75" y="-5" font-family="Helvetica,sans-Serif" font-size="10.00">::MoveFunctor::operator()</text>
</a>
</g>
</g>
<!-- Node6&#45;&gt;Node7 -->
<g id="edge6_Node000006_Node000007" class="edge">
<title>Node6&#45;&gt;Node7</title>
<g id="a_edge6_Node000006_Node000007"><a xlink:title=" ">
<path fill="none" stroke="#63b8ff" d="M149.75,-14.5C141.68,-14.5 133.59,-14.5 125.76,-14.5"/>
<polygon fill="#63b8ff" stroke="#63b8ff" points="149.6,-18 159.6,-14.5 149.6,-11 149.6,-18"/>
</a>
</g>
</g>
</g>
</svg>
