<?xml version="1.0" encoding="UTF-8" standalone="no"?>
<!DOCTYPE svg PUBLIC "-//W3C//DTD SVG 1.1//EN"
 "http://www.w3.org/Graphics/SVG/1.1/DTD/svg11.dtd">
<!-- Generated by graphviz version 14.0.1 (0)
 -->
<!-- Title: Core::exec Pages: 1 -->
<svg width="673pt" height="333pt"
 viewBox="0.00 0.00 673.00 333.00" xmlns="http://www.w3.org/2000/svg" xmlns:xlink="http://www.w3.org/1999/xlink">
<g id="graph0" class="graph" transform="scale(1 1) rotate(0) translate(4 329.06)">
<title>Core::exec</title>
<!-- Node1 -->
<g id="Node000001" class="node">
<title>Node1</title>
<g id="a_Node000001"><a xlink:title="Start simulation.">
<polygon fill="#999999" stroke="#666666" points="63.25,-201.75 0,-201.75 0,-183.25 63.25,-183.25 63.25,-201.75"/>
<text xml:space="preserve" text-anchor="middle" x="31.62" y="-188.25" font-family="Helvetica,sans-Serif" font-size="10.00">Core::exec</text>
</a>
</g>
</g>
<!-- Node2 -->
<g id="Node000002" class="node">
<title>Node2</title>
<g id="a_Node000002"><a xlink:href="namespaceCore.html#a23e6f3d22fc51ef9decabb2c220b27c4" target="_top" xlink:title=" ">
<polygon fill="white" stroke="#666666" points="220.25,-243.75 99.25,-243.75 99.25,-225.25 220.25,-225.25 220.25,-243.75"/>
<text xml:space="preserve" text-anchor="middle" x="159.75" y="-230.25" font-family="Helvetica,sans-Serif" font-size="10.00">Core::exporter_filename</text>
</a>
</g>
</g>
<!-- Node1&#45;&gt;Node2 -->
<g id="edge1_Node000001_Node000002" class="edge">
<title>Node1&#45;&gt;Node2</title>
<g id="a_edge1_Node000001_Node000002"><a xlink:title=" ">
<path fill="none" stroke="#63b8ff" d="M63.69,-195.61C74.86,-199.13 87.58,-203.64 99.25,-207.5 112.01,-211.72 126.43,-216.1 137.88,-220.51"/>
<polygon fill="#63b8ff" stroke="#63b8ff" points="136.2,-223.6 146.77,-224.33 138.97,-217.17 136.2,-223.6"/>
</a>
</g>
</g>
<!-- Node3 -->
<g id="Node000003" class="node">
<title>Node3</title>
<g id="a_Node000003"><a xlink:href="namespaceCore.html#afbce0beea293a7ccfdfc34a85b5e5e77" target="_top" xlink:title=" ">
<polygon fill="white" stroke="#666666" points="203.75,-207 115.75,-207 115.75,-178 203.75,-178 203.75,-207"/>
<text xml:space="preserve" text-anchor="start" x="123.75" y="-193.5" font-family="Helvetica,sans-Serif" font-size="10.00">Core::init_partial</text>
<text xml:space="preserve" text-anchor="middle" x="159.75" y="-183" font-family="Helvetica,sans-Serif" font-size="10.00">_exporter</text>
</a>
</g>
</g>
<!-- Node1&#45;&gt;Node3 -->
<g id="edge3_Node000001_Node000003" class="edge">
<title>Node1&#45;&gt;Node3</title>
<g id="a_edge3_Node000001_Node000003"><a xlink:title=" ">
<path fill="none" stroke="#63b8ff" d="M63.48,-192.5C75.67,-192.5 90.06,-192.5 103.91,-192.5"/>
<polygon fill="#63b8ff" stroke="#63b8ff" points="103.84,-196 113.84,-192.5 103.84,-189 103.84,-196"/>
</a>
</g>
</g>
<!-- Node11 -->
<g id="Node000011" class="node">
<title>Node11</title>
<g id="a_Node000011"><a xlink:href="namespacePostProcessing.html#abfe2a5894fae7c5534274da5d6d33e83" target="_top" xlink:title=" ">
<polygon fill="white" stroke="#666666" points="215.38,-139 104.12,-139 104.12,-110 215.38,-110 215.38,-139"/>
<text xml:space="preserve" text-anchor="start" x="112.12" y="-125.5" font-family="Helvetica,sans-Serif" font-size="10.00">PostProcessing::save</text>
<text xml:space="preserve" text-anchor="middle" x="159.75" y="-115" font-family="Helvetica,sans-Serif" font-size="10.00">_probes</text>
</a>
</g>
</g>
<!-- Node1&#45;&gt;Node11 -->
<g id="edge12_Node000001_Node000011" class="edge">
<title>Node1&#45;&gt;Node11</title>
<g id="a_edge12_Node000001_Node000011"><a xlink:title=" ">
<path fill="none" stroke="#63b8ff" d="M50.7,-182.76C68.97,-172.9 97.76,-157.38 121.03,-144.83"/>
<polygon fill="#63b8ff" stroke="#63b8ff" points="122.48,-148.03 129.62,-140.21 119.15,-141.87 122.48,-148.03"/>
</a>
</g>
</g>
<!-- Node19 -->
<g id="Node000019" class="node">
<title>Node19</title>
<g id="a_Node000019"><a xlink:href="classCore_1_1DataExporter.html#ad3b98151595b0962c089a7afcdb2a642" target="_top" xlink:title=" ">
<polygon fill="white" stroke="#666666" points="210.12,-92 109.38,-92 109.38,-63 210.12,-63 210.12,-92"/>
<text xml:space="preserve" text-anchor="start" x="117.38" y="-78.5" font-family="Helvetica,sans-Serif" font-size="10.00">Core::DataExporter</text>
<text xml:space="preserve" text-anchor="middle" x="159.75" y="-68" font-family="Helvetica,sans-Serif" font-size="10.00">::set_logger</text>
</a>
</g>
</g>
<!-- Node1&#45;&gt;Node19 -->
<g id="edge21_Node000001_Node000019" class="edge">
<title>Node1&#45;&gt;Node19</title>
<g id="a_edge21_Node000001_Node000019"><a xlink:title=" ">
<path fill="none" stroke="#63b8ff" d="M37.32,-182.89C46.7,-164.64 69.42,-124.7 99.25,-101.5 100.76,-100.32 102.34,-99.2 103.96,-98.12"/>
<polygon fill="#63b8ff" stroke="#63b8ff" points="105.51,-101.27 112.4,-93.23 102,-95.22 105.51,-101.27"/>
</a>
</g>
</g>
<!-- Node2&#45;&gt;Node1 -->
<g id="edge2_Node000002_Node000001" class="edge">
<title>Node2&#45;&gt;Node1</title>
<g id="a_edge2_Node000002_Node000001"><a xlink:title=" ">
<path fill="none" stroke="#63b8ff" d="M98.77,-225.34C82.97,-220.1 65.32,-213.69 52.23,-207.5"/>
<polygon fill="#63b8ff" stroke="#63b8ff" points="53.88,-204.42 43.4,-202.85 50.62,-210.61 53.88,-204.42"/>
</a>
</g>
</g>
<!-- Node4 -->
<g id="Node000004" class="node">
<title>Node4</title>
<g id="a_Node000004"><a xlink:href="classCore_1_1PartialExporter.html#a05cba8c28abaecce99f586d551a75f80" target="_top" xlink:title="Initializes the fields required for exporting data.">
<polygon fill="white" stroke="#666666" points="369.75,-301 260.75,-301 260.75,-272 369.75,-272 369.75,-301"/>
<text xml:space="preserve" text-anchor="start" x="268.75" y="-287.5" font-family="Helvetica,sans-Serif" font-size="10.00">Core::PartialExporter</text>
<text xml:space="preserve" text-anchor="middle" x="315.25" y="-277" font-family="Helvetica,sans-Serif" font-size="10.00">::init_fields</text>
</a>
</g>
</g>
<!-- Node3&#45;&gt;Node4 -->
<g id="edge4_Node000003_Node000004" class="edge">
<title>Node3&#45;&gt;Node4</title>
<g id="a_edge4_Node000003_Node000004"><a xlink:title=" ">
<path fill="none" stroke="#63b8ff" d="M204.17,-206.79C209.85,-209.57 215.37,-212.79 220.25,-216.5 241.19,-232.43 235.26,-247.63 256.25,-263.5 257.24,-264.25 258.27,-264.98 259.31,-265.69"/>
<polygon fill="#63b8ff" stroke="#63b8ff" points="257.52,-268.7 267.91,-270.76 261.07,-262.67 257.52,-268.7"/>
</a>
</g>
</g>
<!-- Node7 -->
<g id="Node000007" class="node">
<title>Node7</title>
<g id="a_Node000007"><a xlink:href="namespacePostProcessing.html#a262aae53c1f4dafed4795c687d6ea817" target="_top" xlink:title=" ">
<polygon fill="white" stroke="#666666" points="370.88,-254 259.62,-254 259.62,-225 370.88,-225 370.88,-254"/>
<text xml:space="preserve" text-anchor="start" x="267.62" y="-240.5" font-family="Helvetica,sans-Serif" font-size="10.00">PostProcessing::save</text>
<text xml:space="preserve" text-anchor="middle" x="315.25" y="-230" font-family="Helvetica,sans-Serif" font-size="10.00">_particle_state</text>
</a>
</g>
</g>
<!-- Node3&#45;&gt;Node7 -->
<g id="edge8_Node000003_Node000007" class="edge">
<title>Node3&#45;&gt;Node7</title>
<g id="a_edge8_Node000003_Node000007"><a xlink:title=" ">
<path fill="none" stroke="#63b8ff" d="M203.92,-205.72C219.63,-210.53 237.68,-216.06 254.57,-221.23"/>
<polygon fill="#63b8ff" stroke="#63b8ff" points="253.43,-224.54 264.02,-224.12 255.48,-217.84 253.43,-224.54"/>
</a>
</g>
</g>
<!-- Node9 -->
<g id="Node000009" class="node">
<title>Node9</title>
<g id="a_Node000009"><a xlink:href="classCore_1_1PartialExporter.html#a450fb0c92efa4ee81b4083fc01f5e665" target="_top" xlink:title="Writes the number of particles in each compartment.">
<polygon fill="white" stroke="#666666" points="374.25,-207 256.25,-207 256.25,-178 374.25,-178 374.25,-207"/>
<text xml:space="preserve" text-anchor="start" x="264.25" y="-193.5" font-family="Helvetica,sans-Serif" font-size="10.00">Core::PartialExporter</text>
<text xml:space="preserve" text-anchor="middle" x="315.25" y="-183" font-family="Helvetica,sans-Serif" font-size="10.00">::write_number_particle</text>
</a>
</g>
</g>
<!-- Node3&#45;&gt;Node9 -->
<g id="edge10_Node000003_Node000009" class="edge">
<title>Node3&#45;&gt;Node9</title>
<g id="a_edge10_Node000003_Node000009"><a xlink:title=" ">
<path fill="none" stroke="#63b8ff" d="M203.92,-192.5C216.53,-192.5 230.64,-192.5 244.45,-192.5"/>
<polygon fill="#63b8ff" stroke="#63b8ff" points="244.43,-196 254.43,-192.5 244.43,-189 244.43,-196"/>
</a>
</g>
</g>
<!-- Node5 -->
<g id="Node000005" class="node">
<title>Node5</title>
<g id="a_Node000005"><a xlink:href="namespaceIO.html#a30cc77fc5c4d45d3b56ef6a299ce2383" target="_top" xlink:title=" ">
<polygon fill="white" stroke="#666666" points="644.75,-201.75 584.5,-201.75 584.5,-183.25 644.75,-183.25 644.75,-201.75"/>
<text xml:space="preserve" text-anchor="middle" x="614.62" y="-188.25" font-family="Helvetica,sans-Serif" font-size="10.00">IO::format</text>
</a>
</g>
</g>
<!-- Node4&#45;&gt;Node5 -->
<g id="edge5_Node000004_Node000005" class="edge">
<title>Node4&#45;&gt;Node5</title>
<g id="a_edge5_Node000004_Node000005"><a xlink:title=" ">
<path fill="none" stroke="#63b8ff" d="M350.28,-301.48C393.99,-318.32 471.02,-339.73 528.25,-310.5 568.45,-289.97 594.09,-240.7 605.94,-212.75"/>
<polygon fill="#63b8ff" stroke="#63b8ff" points="609.13,-214.21 609.61,-203.63 602.63,-211.6 609.13,-214.21"/>
</a>
</g>
</g>
<!-- Node6 -->
<g id="Node000006" class="node">
<title>Node6</title>
<g id="a_Node000006"><a xlink:href="classCore_1_1DataExporter.html#a9c60512b8e80f25d5f1f6cac29b27d07" target="_top" xlink:title=" ">
<polygon fill="white" stroke="#666666" points="519.62,-301 418.88,-301 418.88,-272 519.62,-272 519.62,-301"/>
<text xml:space="preserve" text-anchor="start" x="426.88" y="-287.5" font-family="Helvetica,sans-Serif" font-size="10.00">Core::DataExporter</text>
<text xml:space="preserve" text-anchor="middle" x="469.25" y="-277" font-family="Helvetica,sans-Serif" font-size="10.00">::prepare_matrix</text>
</a>
</g>
</g>
<!-- Node4&#45;&gt;Node6 -->
<g id="edge7_Node000004_Node000006" class="edge">
<title>Node4&#45;&gt;Node6</title>
<g id="a_edge7_Node000004_Node000006"><a xlink:title=" ">
<path fill="none" stroke="#63b8ff" d="M369.84,-286.5C381.95,-286.5 394.89,-286.5 407.27,-286.5"/>
<polygon fill="#63b8ff" stroke="#63b8ff" points="406.94,-290 416.94,-286.5 406.94,-283 406.94,-290"/>
</a>
</g>
</g>
<!-- Node5&#45;&gt;Node5 -->
<g id="edge6_Node000005_Node000005" class="edge">
<title>Node5&#45;&gt;Node5</title>
<g id="a_edge6_Node000005_Node000005"><a xlink:title=" ">
<path fill="none" stroke="#63b8ff" d="M592.22,-202C581.32,-210.57 588.79,-219.75 614.62,-219.75 629.16,-219.75 637.88,-216.84 640.79,-212.78"/>
<polygon fill="#63b8ff" stroke="#63b8ff" points="644.13,-211.72 637.53,-203.42 637.52,-214.02 644.13,-211.72"/>
</a>
</g>
</g>
<!-- Node8 -->
<g id="Node000008" class="node">
<title>Node8</title>
<g id="a_Node000008"><a xlink:href="classSimulation_1_1Getter.html#ae948f113363f8ab858797a17c28a2e86" target="_top" xlink:title=" ">
<polygon fill="white" stroke="#666666" points="516.62,-254 421.88,-254 421.88,-225 516.62,-225 516.62,-254"/>
<text xml:space="preserve" text-anchor="start" x="429.88" y="-240.5" font-family="Helvetica,sans-Serif" font-size="10.00">Simulation::Getter</text>
<text xml:space="preserve" text-anchor="middle" x="469.25" y="-230" font-family="Helvetica,sans-Serif" font-size="10.00">::mc_unit</text>
</a>
</g>
</g>
<!-- Node7&#45;&gt;Node8 -->
<g id="edge9_Node000007_Node000008" class="edge">
<title>Node7&#45;&gt;Node8</title>
<g id="a_edge9_Node000007_Node000008"><a xlink:title=" ">
<path fill="none" stroke="#63b8ff" d="M371.13,-239.5C383.76,-239.5 397.23,-239.5 410,-239.5"/>
<polygon fill="#63b8ff" stroke="#63b8ff" points="409.97,-243 419.97,-239.5 409.97,-236 409.97,-243"/>
</a>
</g>
</g>
<!-- Node10 -->
<g id="Node000010" class="node">
<title>Node10</title>
<g id="a_Node000010"><a xlink:href="classCore_1_1DataExporter.html#a0af9b5e13d16339af1918f8e845193f9" target="_top" xlink:title=" ">
<polygon fill="white" stroke="#666666" points="519.62,-207 418.88,-207 418.88,-178 519.62,-178 519.62,-207"/>
<text xml:space="preserve" text-anchor="start" x="426.88" y="-193.5" font-family="Helvetica,sans-Serif" font-size="10.00">Core::DataExporter</text>
<text xml:space="preserve" text-anchor="middle" x="469.25" y="-183" font-family="Helvetica,sans-Serif" font-size="10.00">::append_matrix</text>
</a>
</g>
</g>
<!-- Node9&#45;&gt;Node10 -->
<g id="edge11_Node000009_Node000010" class="edge">
<title>Node9&#45;&gt;Node10</title>
<g id="a_edge11_Node000009_Node000010"><a xlink:title=" ">
<path fill="none" stroke="#63b8ff" d="M374.58,-192.5C385.28,-192.5 396.47,-192.5 407.25,-192.5"/>
<polygon fill="#63b8ff" stroke="#63b8ff" points="407.22,-196 417.22,-192.5 407.22,-189 407.22,-196"/>
</a>
</g>
</g>
<!-- Node12 -->
<g id="Node000012" class="node">
<title>Node12</title>
<g id="a_Node000012"><a xlink:href="namespacePostProcessing.html#adae52b6b518e25be1c920f36f196ef65" target="_top" xlink:title=" ">
<polygon fill="white" stroke="#666666" points="373.5,-128 257,-128 257,-99 373.5,-99 373.5,-128"/>
<text xml:space="preserve" text-anchor="start" x="265" y="-114.5" font-family="Helvetica,sans-Serif" font-size="10.00">PostProcessing::_save</text>
<text xml:space="preserve" text-anchor="middle" x="315.25" y="-104" font-family="Helvetica,sans-Serif" font-size="10.00">_probes</text>
</a>
</g>
</g>
<!-- Node11&#45;&gt;Node12 -->
<g id="edge13_Node000011_Node000012" class="edge">
<title>Node11&#45;&gt;Node12</title>
<g id="a_edge13_Node000011_Node000012"><a xlink:title=" ">
<path fill="none" stroke="#63b8ff" d="M215.73,-120.56C225.26,-119.88 235.26,-119.16 245.11,-118.45"/>
<polygon fill="#63b8ff" stroke="#63b8ff" points="245.31,-121.95 255.03,-117.74 244.81,-114.97 245.31,-121.95"/>
</a>
</g>
</g>
<!-- Node18 -->
<g id="Node000018" class="node">
<title>Node18</title>
<g id="a_Node000018"><a xlink:href="classSimulation_1_1Getter.html#ab2fa179687f4810f64d4c1c2beb7800c" target="_top" xlink:title=" ">
<polygon fill="white" stroke="#666666" points="362.62,-81 267.88,-81 267.88,-52 362.62,-52 362.62,-81"/>
<text xml:space="preserve" text-anchor="start" x="275.88" y="-67.5" font-family="Helvetica,sans-Serif" font-size="10.00">Simulation::Getter</text>
<text xml:space="preserve" text-anchor="middle" x="315.25" y="-57" font-family="Helvetica,sans-Serif" font-size="10.00">::it_probes</text>
</a>
</g>
</g>
<!-- Node11&#45;&gt;Node18 -->
<g id="edge20_Node000011_Node000018" class="edge">
<title>Node11&#45;&gt;Node18</title>
<g id="a_edge20_Node000011_Node000018"><a xlink:title=" ">
<path fill="none" stroke="#63b8ff" d="M200.28,-109.56C219.72,-102.22 243.36,-93.28 264.07,-85.46"/>
<polygon fill="#63b8ff" stroke="#63b8ff" points="265.05,-88.83 273.17,-82.02 262.58,-82.28 265.05,-88.83"/>
</a>
</g>
</g>
<!-- Node13 -->
<g id="Node000013" class="node">
<title>Node13</title>
<g id="a_Node000013"><a xlink:href="classSimulation_1_1Probes.html#af54f1c8be6e49f63e8533d6a4e91cad3" target="_top" xlink:title=" ">
<polygon fill="white" stroke="#666666" points="518.5,-160 420,-160 420,-131 518.5,-131 518.5,-160"/>
<text xml:space="preserve" text-anchor="start" x="428" y="-146.5" font-family="Helvetica,sans-Serif" font-size="10.00">Simulation::Probes</text>
<text xml:space="preserve" text-anchor="middle" x="469.25" y="-136" font-family="Helvetica,sans-Serif" font-size="10.00">::clear</text>
</a>
</g>
</g>
<!-- Node12&#45;&gt;Node13 -->
<g id="edge14_Node000012_Node000013" class="edge">
<title>Node12&#45;&gt;Node13</title>
<g id="a_edge14_Node000012_Node000013"><a xlink:title=" ">
<path fill="none" stroke="#63b8ff" d="M373.71,-125.6C385.06,-127.99 397,-130.5 408.43,-132.91"/>
<polygon fill="#63b8ff" stroke="#63b8ff" points="407.65,-136.32 418.16,-134.95 409.09,-129.47 407.65,-136.32"/>
</a>
</g>
</g>
<!-- Node14 -->
<g id="Node000014" class="node">
<title>Node14</title>
<g id="a_Node000014"><a xlink:href="classSimulation_1_1Probes.html#a6345c8304e772a314dae935f742d518a" target="_top" xlink:title=" ">
<polygon fill="white" stroke="#666666" points="528.25,-112.75 410.25,-112.75 410.25,-94.25 528.25,-94.25 528.25,-112.75"/>
<text xml:space="preserve" text-anchor="middle" x="469.25" y="-99.25" font-family="Helvetica,sans-Serif" font-size="10.00">Simulation::Probes::get</text>
</a>
</g>
</g>
<!-- Node12&#45;&gt;Node14 -->
<g id="edge15_Node000012_Node000014" class="edge">
<title>Node12&#45;&gt;Node14</title>
<g id="a_edge15_Node000012_Node000014"><a xlink:title=" ">
<path fill="none" stroke="#63b8ff" d="M373.71,-109.72C381.86,-109.18 390.32,-108.63 398.66,-108.08"/>
<polygon fill="#63b8ff" stroke="#63b8ff" points="398.69,-111.58 408.44,-107.44 398.23,-104.6 398.69,-111.58"/>
</a>
</g>
</g>
<!-- Node15 -->
<g id="Node000015" class="node">
<title>Node15</title>
<g id="a_Node000015"><a xlink:href="classSimulation_1_1Probes.html#a2b8541ff7ad653204a955ff1feb78757" target="_top" xlink:title=" ">
<polygon fill="white" stroke="#666666" points="518.5,-76 420,-76 420,-47 518.5,-47 518.5,-76"/>
<text xml:space="preserve" text-anchor="start" x="428" y="-62.5" font-family="Helvetica,sans-Serif" font-size="10.00">Simulation::Probes</text>
<text xml:space="preserve" text-anchor="middle" x="469.25" y="-52" font-family="Helvetica,sans-Serif" font-size="10.00">::need_export</text>
</a>
</g>
</g>
<!-- Node12&#45;&gt;Node15 -->
<g id="edge16_Node000012_Node000015" class="edge">
<title>Node12&#45;&gt;Node15</title>
<g id="a_edge16_Node000012_Node000015"><a xlink:title=" ">
<path fill="none" stroke="#63b8ff" d="M359.81,-98.6C376.59,-92.86 395.97,-86.23 413.66,-80.17"/>
<polygon fill="#63b8ff" stroke="#63b8ff" points="414.66,-83.53 422.99,-76.98 412.4,-76.91 414.66,-83.53"/>
</a>
</g>
</g>
<!-- Node16 -->
<g id="Node000016" class="node">
<title>Node16</title>
<g id="a_Node000016"><a xlink:href="classCore_1_1PartialExporter.html#a53c54ce796df99b407f410beb01074c5" target="_top" xlink:title="Writes probe data to the export.">
<polygon fill="white" stroke="#666666" points="523.75,-29 414.75,-29 414.75,0 523.75,0 523.75,-29"/>
<text xml:space="preserve" text-anchor="start" x="422.75" y="-15.5" font-family="Helvetica,sans-Serif" font-size="10.00">Core::PartialExporter</text>
<text xml:space="preserve" text-anchor="middle" x="469.25" y="-5" font-family="Helvetica,sans-Serif" font-size="10.00">::write_probe</text>
</a>
</g>
</g>
<!-- Node12&#45;&gt;Node16 -->
<g id="edge17_Node000012_Node000016" class="edge">
<title>Node12&#45;&gt;Node16</title>
<g id="a_edge17_Node000012_Node000016"><a xlink:title=" ">
<path fill="none" stroke="#63b8ff" d="M360.24,-98.53C365.21,-95.92 370.01,-92.92 374.25,-89.5 396.13,-71.85 388.24,-54.99 410.25,-37.5 411.2,-36.74 412.19,-36.01 413.19,-35.29"/>
<polygon fill="#63b8ff" stroke="#63b8ff" points="414.77,-38.43 421.48,-30.23 411.12,-32.45 414.77,-38.43"/>
</a>
</g>
</g>
<!-- Node16&#45;&gt;Node5 -->
<g id="edge19_Node000016_Node000005" class="edge">
<title>Node16&#45;&gt;Node5</title>
<g id="a_edge19_Node000016_Node000005"><a xlink:title=" ">
<path fill="none" stroke="#63b8ff" d="M516.63,-29.37C520.8,-31.73 524.76,-34.42 528.25,-37.5 570.96,-75.15 596.58,-139.52 607.46,-172.19"/>
<polygon fill="#63b8ff" stroke="#63b8ff" points="604.09,-173.13 610.46,-181.6 610.76,-171.01 604.09,-173.13"/>
</a>
</g>
</g>
<!-- Node17 -->
<g id="Node000017" class="node">
<title>Node17</title>
<g id="a_Node000017"><a xlink:href="classCore_1_1DataExporter.html#a0b0b79f3932c4eb905704a852248c857" target="_top" xlink:title=" ">
<polygon fill="white" stroke="#666666" points="665,-29 564.25,-29 564.25,0 665,0 665,-29"/>
<text xml:space="preserve" text-anchor="start" x="572.25" y="-15.5" font-family="Helvetica,sans-Serif" font-size="10.00">Core::DataExporter</text>
<text xml:space="preserve" text-anchor="middle" x="614.62" y="-5" font-family="Helvetica,sans-Serif" font-size="10.00">::append_array</text>
</a>
</g>
</g>
<!-- Node16&#45;&gt;Node17 -->
<g id="edge18_Node000016_Node000017" class="edge">
<title>Node16&#45;&gt;Node17</title>
<g id="a_edge18_Node000016_Node000017"><a xlink:title=" ">
<path fill="none" stroke="#63b8ff" d="M524.05,-14.5C533.31,-14.5 543,-14.5 552.44,-14.5"/>
<polygon fill="#63b8ff" stroke="#63b8ff" points="552.28,-18 562.28,-14.5 552.28,-11 552.28,-18"/>
</a>
</g>
</g>
</g>
</svg>
