<?xml version="1.0" encoding="UTF-8" standalone="no"?>
<!DOCTYPE svg PUBLIC "-//W3C//DTD SVG 1.1//EN"
 "http://www.w3.org/Graphics/SVG/1.1/DTD/svg11.dtd">
<!-- Generated by graphviz version 12.1.2 (0)
 -->
<!-- Title: WrapMPI::get_type Pages: 1 -->
<!--zoomable 487 -->

<svg id="main" version="1.1" xmlns="http://www.w3.org/2000/svg" xmlns:xlink="http://www.w3.org/1999/xlink" xml:space="preserve" onload="init(evt)">

<style type="text/css"><![CDATA[
.node, .edge {opacity: 0.7;}
.node.selected, .edge.selected {opacity: 1;}
.edge:hover path { stroke: red; }
.edge:hover polygon { stroke: red; fill: red; }
]]></style>

<defs>
  <circle id="rim" cx="0" cy="0" r="7"/>
  <circle id="rim2" cx="0" cy="0" r="3.5"/>
  <g id="zoomPlus">
    <use xlink:href="#rim" fill="#404040"><set attributeName="fill" to="#808080" begin="zoomplus.mouseover" end="zoomplus.mouseout"/></use>
    <path d="M-4,0h8M0,-4v8" fill="none" stroke="white" stroke-width="1.5" pointer-events="none"/>
  </g>
  <g id="zoomMin">
    <use xlink:href="#rim" fill="#404040"><set attributeName="fill" to="#808080" begin="zoomminus.mouseover" end="zoomminus.mouseout"/></use>
    <path d="M-4,0h8" fill="none" stroke="white" stroke-width="1.5" pointer-events="none"/>
  </g>
  <g id="arrowUp" transform="translate(30 24)">
    <use xlink:href="#rim"/>
    <path pointer-events="none" fill="none" stroke="white" stroke-width="1.5" d="M0,-3.0v7 M-2.5,-0.5L0,-3.0L2.5,-0.5"/>
  </g>
  <g id="arrowRight" transform="rotate(90) translate(36 -43)">
    <use xlink:href="#rim"/>
    <path pointer-events="none" fill="none" stroke="white" stroke-width="1.5" d="M0,-3.0v7 M-2.5,-0.5L0,-3.0L2.5,-0.5"/>
  </g>
  <g id="arrowDown" transform="rotate(180) translate(-30 -48)">
    <use xlink:href="#rim"/>
    <path pointer-events="none" fill="none" stroke="white" stroke-width="1.5" d="M0,-3.0v7 M-2.5,-0.5L0,-3.0L2.5,-0.5"/>
  </g>
  <g id="arrowLeft" transform="rotate(270) translate(-36 17)">
    <use xlink:href="#rim"/>
    <path pointer-events="none" fill="none" stroke="white" stroke-width="1.5" d="M0,-3.0v7 M-2.5,-0.5L0,-3.0L2.5,-0.5"/>
  </g>
  <g id="resetDef">
    <use xlink:href="#rim2" fill="#404040"><set attributeName="fill" to="#808080" begin="reset.mouseover" end="reset.mouseout"/></use>
  </g>
</defs>
<script type="application/ecmascript">
var viewWidth = 985;
var viewHeight = 487;
var sectionId = 'dynsection-22';
</script>
<script type="application/ecmascript" xlink:href="svg.min.js"/>
<svg id="graph" class="graph">
<g id="viewport">
<title>WrapMPI::get_type</title>
<!-- Node1 -->
<g id="Node000001" class="node">
<title>Node1</title>
<g id="a_Node000001"><a xlink:title=" ">
<polygon fill="#999999" stroke="#666666" points="977.25,-208.5 878,-208.5 878,-190 977.25,-190 977.25,-208.5"/>
<text text-anchor="middle" x="927.62" y="-195" font-family="Helvetica,sans-Serif" font-size="10.00">WrapMPI::get_type</text>
</a>
</g>
</g>
<!-- Node2 -->
<g id="Node000002" class="node">
<title>Node2</title>
<g id="a_Node000002"><a xlink:href="namespaceWrapMPI.html#aa70b62df6aa5755b0c794d24afa1cfdf" target="_top" xlink:title="Broadcasts raw data to all processes in an unsafe manner.">
<polygon fill="white" stroke="#666666" points="827,-469.75 717.25,-469.75 717.25,-440.75 827,-440.75 827,-469.75"/>
<text text-anchor="start" x="725.25" y="-456.25" font-family="Helvetica,sans-Serif" font-size="10.00">WrapMPI::_broadcast</text>
<text text-anchor="middle" x="772.12" y="-445.75" font-family="Helvetica,sans-Serif" font-size="10.00">_unsafe</text>
</a>
</g>
</g>
<!-- Node1&#45;&gt;Node2 -->
<g id="edge1_Node000001_Node000002" class="edge">
<title>Node1&#45;&gt;Node2</title>
<g id="a_edge1_Node000001_Node000002"><a xlink:title=" ">
<path fill="none" stroke="#63b8ff" d="M923.63,-220.14C916.57,-262.48 895.31,-359.46 842,-419.25 834.19,-428.01 823.73,-434.98 813.33,-440.35"/>
<polygon fill="#63b8ff" stroke="#63b8ff" points="927.07,-220.77 925.15,-210.35 920.15,-219.69 927.07,-220.77"/>
</a>
</g>
</g>
<!-- Node4 -->
<g id="Node000004" class="node">
<title>Node4</title>
<g id="a_Node000004"><a xlink:href="namespaceWrapMPI.html#abbfbd4027c90508fdf9fb2e8ec46958a" target="_top" xlink:title=" ">
<polygon fill="white" stroke="#666666" points="836.38,-409.75 707.88,-409.75 707.88,-380.75 836.38,-380.75 836.38,-409.75"/>
<text text-anchor="start" x="715.88" y="-396.25" font-family="Helvetica,sans-Serif" font-size="10.00">WrapMPI::_gather_unsafe</text>
<text text-anchor="middle" x="772.12" y="-385.75" font-family="Helvetica,sans-Serif" font-size="10.00">_to_buffer</text>
</a>
</g>
</g>
<!-- Node1&#45;&gt;Node4 -->
<g id="edge3_Node000001_Node000004" class="edge">
<title>Node1&#45;&gt;Node4</title>
<g id="a_edge3_Node000001_Node000004"><a xlink:title=" ">
<path fill="none" stroke="#63b8ff" d="M917.39,-219.08C903.54,-247.55 875.42,-300.83 842,-339.25 828.24,-355.06 809.67,-369.88 795.27,-380.3"/>
<polygon fill="#63b8ff" stroke="#63b8ff" points="920.48,-220.72 921.62,-210.19 914.16,-217.71 920.48,-220.72"/>
</a>
</g>
</g>
<!-- Node9 -->
<g id="Node000009" class="node">
<title>Node9</title>
<g id="a_Node000009"><a xlink:href="namespaceWrapMPI.html#afbb56a1725c132d2e3f12bfb01634d55" target="_top" xlink:title="Sends raw data to a destination in an unsafe manner.">
<polygon fill="white" stroke="#666666" points="833.38,-330.5 710.88,-330.5 710.88,-312 833.38,-312 833.38,-330.5"/>
<text text-anchor="middle" x="772.12" y="-317" font-family="Helvetica,sans-Serif" font-size="10.00">WrapMPI::_send_unsafe</text>
</a>
</g>
</g>
<!-- Node1&#45;&gt;Node9 -->
<g id="edge8_Node000001_Node000009" class="edge">
<title>Node1&#45;&gt;Node9</title>
<g id="a_edge8_Node000001_Node000009"><a xlink:title=" ">
<path fill="none" stroke="#63b8ff" d="M915.79,-218.67C901.77,-242.01 875.17,-280.7 842,-302.25 836.17,-306.03 829.6,-309.07 822.89,-311.51"/>
<polygon fill="#63b8ff" stroke="#63b8ff" points="918.73,-220.59 920.72,-210.18 912.67,-217.07 918.73,-220.59"/>
</a>
</g>
</g>
<!-- Node13 -->
<g id="Node000013" class="node">
<title>Node13</title>
<g id="a_Node000013"><a xlink:href="namespaceWrapMPI_1_1Async.html#a59ad59e497d926c7bdc45585bd715410" target="_top" xlink:title=" ">
<polygon fill="white" stroke="#666666" points="832.62,-292.75 711.62,-292.75 711.62,-263.75 832.62,-263.75 832.62,-292.75"/>
<text text-anchor="start" x="719.62" y="-279.25" font-family="Helvetica,sans-Serif" font-size="10.00">WrapMPI::Async::_send</text>
<text text-anchor="middle" x="772.12" y="-268.75" font-family="Helvetica,sans-Serif" font-size="10.00">_unsafe</text>
</a>
</g>
</g>
<!-- Node1&#45;&gt;Node13 -->
<g id="edge13_Node000001_Node000013" class="edge">
<title>Node1&#45;&gt;Node13</title>
<g id="a_edge13_Node000001_Node000013"><a xlink:title=" ">
<path fill="none" stroke="#63b8ff" d="M905.14,-215.3C888.53,-227.18 864.62,-243.16 842,-254.25 835.29,-257.54 828.02,-260.59 820.79,-263.33"/>
<polygon fill="#63b8ff" stroke="#63b8ff" points="906.76,-218.45 912.79,-209.73 902.64,-212.79 906.76,-218.45"/>
</a>
</g>
</g>
<!-- Node17 -->
<g id="Node000017" class="node">
<title>Node17</title>
<g id="a_Node000017"><a xlink:href="namespaceWrapMPI.html#a8237adbb04708d9bf4bae9e904d04f5f" target="_top" xlink:title=" ">
<polygon fill="white" stroke="#666666" points="825.12,-245.5 719.12,-245.5 719.12,-227 825.12,-227 825.12,-245.5"/>
<text text-anchor="middle" x="772.12" y="-232" font-family="Helvetica,sans-Serif" font-size="10.00">WrapMPI::all_reduce</text>
</a>
</g>
</g>
<!-- Node1&#45;&gt;Node17 -->
<g id="edge18_Node000001_Node000017" class="edge">
<title>Node1&#45;&gt;Node17</title>
<g id="a_edge18_Node000001_Node000017"><a xlink:title=" ">
<path fill="none" stroke="#63b8ff" d="M875.12,-211.66C855.02,-216.51 832.33,-221.98 813.45,-226.53"/>
<polygon fill="#63b8ff" stroke="#63b8ff" points="875.92,-215.07 884.82,-209.33 874.28,-208.27 875.92,-215.07"/>
</a>
</g>
</g>
<!-- Node21 -->
<g id="Node000021" class="node">
<title>Node21</title>
<g id="a_Node000021"><a xlink:href="namespaceWrapMPI.html#a372df5351a2085df252cc9f4cceae7de" target="_top" xlink:title="Broadcasts a single data item to all processes.">
<polygon fill="white" stroke="#666666" points="824.38,-171.5 719.88,-171.5 719.88,-153 824.38,-153 824.38,-171.5"/>
<text text-anchor="middle" x="772.12" y="-158" font-family="Helvetica,sans-Serif" font-size="10.00">WrapMPI::broadcast</text>
</a>
</g>
</g>
<!-- Node1&#45;&gt;Node21 -->
<g id="edge23_Node000001_Node000021" class="edge">
<title>Node1&#45;&gt;Node21</title>
<g id="a_edge23_Node000001_Node000021"><a xlink:title=" ">
<path fill="none" stroke="#63b8ff" d="M875.12,-186.84C855.02,-181.99 832.33,-176.52 813.45,-171.97"/>
<polygon fill="#63b8ff" stroke="#63b8ff" points="874.28,-190.23 884.82,-189.17 875.92,-183.43 874.28,-190.23"/>
</a>
</g>
</g>
<!-- Node22 -->
<g id="Node000022" class="node">
<title>Node22</title>
<g id="a_Node000022"><a xlink:href="namespaceWrapMPI.html#a166c6e5ac2d338a1d6f554532dd43b80" target="_top" xlink:title=" ">
<polygon fill="white" stroke="#666666" points="652.38,-171.5 547.88,-171.5 547.88,-153 652.38,-153 652.38,-171.5"/>
<text text-anchor="middle" x="600.12" y="-158" font-family="Helvetica,sans-Serif" font-size="10.00">WrapMPI::broadcast</text>
</a>
</g>
</g>
<!-- Node1&#45;&gt;Node22 -->
<g id="edge29_Node000001_Node000022" class="edge">
<title>Node1&#45;&gt;Node22</title>
<g id="a_edge29_Node000001_Node000022"><a xlink:title=" ">
<path fill="none" stroke="#63b8ff" d="M866.51,-195.66C821.24,-192.6 757.7,-187.52 702.25,-180.25 685.36,-178.04 667,-174.97 650.62,-171.99"/>
<polygon fill="#63b8ff" stroke="#63b8ff" points="866.18,-199.15 876.39,-196.32 866.65,-192.16 866.18,-199.15"/>
</a>
</g>
</g>
<!-- Node26 -->
<g id="Node000026" class="node">
<title>Node26</title>
<g id="a_Node000026"><a xlink:href="namespaceWrapMPI.html#a89ff50c459e42b25a69f4a3d45443fe3" target="_top" xlink:title="Gathers and reduces data to a single value.">
<polygon fill="white" stroke="#666666" points="833.75,-134.5 710.5,-134.5 710.5,-116 833.75,-116 833.75,-134.5"/>
<text text-anchor="middle" x="772.12" y="-121" font-family="Helvetica,sans-Serif" font-size="10.00">WrapMPI::gather_reduce</text>
</a>
</g>
</g>
<!-- Node1&#45;&gt;Node26 -->
<g id="edge30_Node000001_Node000026" class="edge">
<title>Node1&#45;&gt;Node26</title>
<g id="a_edge30_Node000001_Node000026"><a xlink:title=" ">
<path fill="none" stroke="#63b8ff" d="M905.63,-182.98C889.12,-170.85 865.11,-154.65 842,-144.25 833.86,-140.59 824.84,-137.48 816.1,-134.91"/>
<polygon fill="#63b8ff" stroke="#63b8ff" points="903.11,-185.47 913.21,-188.67 907.31,-179.87 903.11,-185.47"/>
</a>
</g>
</g>
<!-- Node27 -->
<g id="Node000027" class="node">
<title>Node27</title>
<g id="a_Node000027"><a xlink:href="namespaceWrapMPI_1_1Async.html#a1c9861a120adf6ce7bd019204d20dafb" target="_top" xlink:title=" ">
<polygon fill="white" stroke="#666666" points="842,-97.5 702.25,-97.5 702.25,-79 842,-79 842,-97.5"/>
<text text-anchor="middle" x="772.12" y="-84" font-family="Helvetica,sans-Serif" font-size="10.00">WrapMPI::Async::recv_span</text>
</a>
</g>
</g>
<!-- Node1&#45;&gt;Node27 -->
<g id="edge31_Node000001_Node000027" class="edge">
<title>Node1&#45;&gt;Node27</title>
<g id="a_edge31_Node000001_Node000027"><a xlink:title=" ">
<path fill="none" stroke="#63b8ff" d="M913.99,-180.08C899.19,-159.12 872.74,-126.02 842,-107.25 835.75,-103.44 828.73,-100.37 821.61,-97.91"/>
<polygon fill="#63b8ff" stroke="#63b8ff" points="911.07,-182.01 919.61,-188.29 916.85,-178.06 911.07,-182.01"/>
</a>
</g>
</g>
<!-- Node28 -->
<g id="Node000028" class="node">
<title>Node28</title>
<g id="a_Node000028"><a xlink:href="namespaceWrapMPI.html#a74f34d02c61dba38e414425bdf71d74c" target="_top" xlink:title="Receives data into a span buffer.">
<polygon fill="white" stroke="#666666" points="825.5,-60.5 718.75,-60.5 718.75,-42 825.5,-42 825.5,-60.5"/>
<text text-anchor="middle" x="772.12" y="-47" font-family="Helvetica,sans-Serif" font-size="10.00">WrapMPI::recv_span</text>
</a>
</g>
</g>
<!-- Node1&#45;&gt;Node28 -->
<g id="edge32_Node000001_Node000028" class="edge">
<title>Node1&#45;&gt;Node28</title>
<g id="a_edge32_Node000001_Node000028"><a xlink:title=" ">
<path fill="none" stroke="#63b8ff" d="M919.02,-179.48C907.02,-150.99 881,-98.67 842,-70.25 836.79,-66.45 830.85,-63.41 824.7,-60.98"/>
<polygon fill="#63b8ff" stroke="#63b8ff" points="915.62,-180.41 922.6,-188.38 922.11,-177.79 915.62,-180.41"/>
</a>
</g>
</g>
<!-- Node30 -->
<g id="Node000030" class="node">
<title>Node30</title>
<g id="a_Node000030"><a xlink:href="namespaceWrapMPI.html#adfe55cebcaa7d941006e23c69a5a3bcf" target="_top" xlink:title="Receives a vector of data items from a source.">
<polygon fill="white" stroke="#666666" points="817.62,-23.5 726.62,-23.5 726.62,-5 817.62,-5 817.62,-23.5"/>
<text text-anchor="middle" x="772.12" y="-10" font-family="Helvetica,sans-Serif" font-size="10.00">WrapMPI::recv_v</text>
</a>
</g>
</g>
<!-- Node1&#45;&gt;Node30 -->
<g id="edge34_Node000001_Node000030" class="edge">
<title>Node1&#45;&gt;Node30</title>
<g id="a_edge34_Node000001_Node000030"><a xlink:title=" ">
<path fill="none" stroke="#63b8ff" d="M921.97,-178.89C912.86,-143.76 889.31,-71.84 842,-33.25 835.08,-27.6 826.6,-23.63 817.99,-20.84"/>
<polygon fill="#63b8ff" stroke="#63b8ff" points="918.47,-179.31 924.24,-188.19 925.27,-177.65 918.47,-179.31"/>
</a>
</g>
</g>
<!-- Node3 -->
<g id="Node000003" class="node">
<title>Node3</title>
<g id="a_Node000003"><a xlink:href="namespaceWrapMPI.html#a02249d7a05ab6697d5c9dd3f06f681a0" target="_top" xlink:title="Broadcasts data stored in a span to all processes.">
<polygon fill="white" stroke="#666666" points="665.5,-478.5 534.75,-478.5 534.75,-460 665.5,-460 665.5,-478.5"/>
<text text-anchor="middle" x="600.12" y="-465" font-family="Helvetica,sans-Serif" font-size="10.00">WrapMPI::broadcast_span</text>
</a>
</g>
</g>
<!-- Node2&#45;&gt;Node3 -->
<g id="edge2_Node000002_Node000003" class="edge">
<title>Node2&#45;&gt;Node3</title>
<g id="a_edge2_Node000002_Node000003"><a xlink:title=" ">
<path fill="none" stroke="#63b8ff" d="M705.61,-460.65C692.56,-461.72 678.87,-462.85 665.86,-463.92"/>
<polygon fill="#63b8ff" stroke="#63b8ff" points="705.68,-464.15 715.36,-459.84 705.11,-457.18 705.68,-464.15"/>
</a>
</g>
</g>
<!-- Node5 -->
<g id="Node000005" class="node">
<title>Node5</title>
<g id="a_Node000005"><a xlink:href="namespaceWrapMPI.html#af35b85e638478a00672758818ade9e38" target="_top" xlink:title="Gathers raw data from all processes in an unsafe manner.">
<polygon fill="white" stroke="#666666" points="664.38,-441.5 535.88,-441.5 535.88,-423 664.38,-423 664.38,-441.5"/>
<text text-anchor="middle" x="600.12" y="-428" font-family="Helvetica,sans-Serif" font-size="10.00">WrapMPI::_gather_unsafe</text>
</a>
</g>
</g>
<!-- Node4&#45;&gt;Node5 -->
<g id="edge4_Node000004_Node000005" class="edge">
<title>Node4&#45;&gt;Node5</title>
<g id="a_edge4_Node000004_Node000005"><a xlink:title=" ">
<path fill="none" stroke="#63b8ff" d="M696.58,-411.47C679.31,-415.23 661.44,-419.12 645.91,-422.5"/>
<polygon fill="#63b8ff" stroke="#63b8ff" points="697.32,-414.9 706.34,-409.35 695.83,-408.06 697.32,-414.9"/>
</a>
</g>
</g>
<!-- Node8 -->
<g id="Node000008" class="node">
<title>Node8</title>
<g id="a_Node000008"><a xlink:href="namespaceWrapMPI.html#af7356272883f4a6063a5f393042201dd" target="_top" xlink:title=" ">
<polygon fill="white" stroke="#666666" points="657.62,-404.5 542.62,-404.5 542.62,-386 657.62,-386 657.62,-404.5"/>
<text text-anchor="middle" x="600.12" y="-391" font-family="Helvetica,sans-Serif" font-size="10.00">WrapMPI::gather_span</text>
</a>
</g>
</g>
<!-- Node4&#45;&gt;Node8 -->
<g id="edge7_Node000004_Node000008" class="edge">
<title>Node4&#45;&gt;Node8</title>
<g id="a_edge7_Node000004_Node000008"><a xlink:title=" ">
<path fill="none" stroke="#63b8ff" d="M696.58,-395.25C683.65,-395.25 670.39,-395.25 658.03,-395.25"/>
<polygon fill="#63b8ff" stroke="#63b8ff" points="696.31,-398.75 706.31,-395.25 696.31,-391.75 696.31,-398.75"/>
</a>
</g>
</g>
<!-- Node6 -->
<g id="Node000006" class="node">
<title>Node6</title>
<g id="a_Node000006"><a xlink:href="namespaceWrapMPI.html#a5cd65b924b505503f88fae43fb8270ee" target="_top" xlink:title="Gathers data from all processes.">
<polygon fill="white" stroke="#666666" points="465.75,-459.5 377,-459.5 377,-441 465.75,-441 465.75,-459.5"/>
<text text-anchor="middle" x="421.38" y="-446" font-family="Helvetica,sans-Serif" font-size="10.00">WrapMPI::gather</text>
</a>
</g>
</g>
<!-- Node5&#45;&gt;Node6 -->
<g id="edge5_Node000005_Node000006" class="edge">
<title>Node5&#45;&gt;Node6</title>
<g id="a_edge5_Node000005_Node000006"><a xlink:title=" ">
<path fill="none" stroke="#63b8ff" d="M524.56,-439.84C504.66,-441.87 483.8,-443.99 466.16,-445.79"/>
<polygon fill="#63b8ff" stroke="#63b8ff" points="524.71,-443.35 534.31,-438.85 524,-436.38 524.71,-443.35"/>
</a>
</g>
</g>
<!-- Node7 -->
<g id="Node000007" class="node">
<title>Node7</title>
<g id="a_Node000007"><a xlink:href="namespaceWrapMPI.html#a6c82ee24a6d0fe8ee85a173f65f39907" target="_top" xlink:title="Gathers a vector of data from all processes.">
<polygon fill="white" stroke="#666666" points="471,-422.5 371.75,-422.5 371.75,-404 471,-404 471,-422.5"/>
<text text-anchor="middle" x="421.38" y="-409" font-family="Helvetica,sans-Serif" font-size="10.00">WrapMPI::gather_v</text>
</a>
</g>
</g>
<!-- Node5&#45;&gt;Node7 -->
<g id="edge6_Node000005_Node000007" class="edge">
<title>Node5&#45;&gt;Node7</title>
<g id="a_edge6_Node000005_Node000007"><a xlink:title=" ">
<path fill="none" stroke="#63b8ff" d="M524.47,-424.22C506.53,-422.3 487.82,-420.28 471.38,-418.52"/>
<polygon fill="#63b8ff" stroke="#63b8ff" points="523.99,-427.69 534.31,-425.28 524.74,-420.73 523.99,-427.69"/>
</a>
</g>
</g>
<!-- Node10 -->
<g id="Node000010" class="node">
<title>Node10</title>
<g id="a_Node000010"><a xlink:href="namespaceWrapMPI.html#a86bfb7bf3cbf18f5f0371c497167cfad" target="_top" xlink:title="Sends a single instance of data to a destination.">
<polygon fill="white" stroke="#666666" points="641.5,-330.5 558.75,-330.5 558.75,-312 641.5,-312 641.5,-330.5"/>
<text text-anchor="middle" x="600.12" y="-317" font-family="Helvetica,sans-Serif" font-size="10.00">WrapMPI::send</text>
</a>
</g>
</g>
<!-- Node9&#45;&gt;Node10 -->
<g id="edge9_Node000009_Node000010" class="edge">
<title>Node9&#45;&gt;Node10</title>
<g id="a_edge9_Node000009_Node000010"><a xlink:title=" ">
<path fill="none" stroke="#63b8ff" d="M699.31,-321.25C679.7,-321.25 659.13,-321.25 641.91,-321.25"/>
<polygon fill="#63b8ff" stroke="#63b8ff" points="699.2,-324.75 709.2,-321.25 699.2,-317.75 699.2,-324.75"/>
</a>
</g>
</g>
<!-- Node11 -->
<g id="Node000011" class="node">
<title>Node11</title>
<g id="a_Node000011"><a xlink:href="namespaceWrapMPI.html#a22a26e394ab9485f5b50a6be7d277940" target="_top" xlink:title="Sends a vector of data to a destination.">
<polygon fill="white" stroke="#666666" points="468,-367.5 374.75,-367.5 374.75,-349 468,-349 468,-367.5"/>
<text text-anchor="middle" x="421.38" y="-354" font-family="Helvetica,sans-Serif" font-size="10.00">WrapMPI::send_v</text>
</a>
</g>
</g>
<!-- Node9&#45;&gt;Node11 -->
<g id="edge12_Node000009_Node000011" class="edge">
<title>Node9&#45;&gt;Node11</title>
<g id="a_edge12_Node000009_Node000011"><a xlink:title=" ">
<path fill="none" stroke="#63b8ff" d="M709.02,-332.88C694.99,-335.24 680.14,-337.52 666.25,-339.25 597.56,-347.8 517.47,-353.17 468.35,-355.94"/>
<polygon fill="#63b8ff" stroke="#63b8ff" points="709.3,-336.39 718.57,-331.24 708.12,-329.49 709.3,-336.39"/>
</a>
</g>
</g>
<!-- Node10&#45;&gt;Node11 -->
<g id="edge10_Node000010_Node000011" class="edge">
<title>Node10&#45;&gt;Node11</title>
<g id="a_edge10_Node000010_Node000011"><a xlink:title=" ">
<path fill="none" stroke="#63b8ff" d="M547.44,-332.07C522.4,-337.31 492.59,-343.55 468.35,-348.63"/>
<polygon fill="#63b8ff" stroke="#63b8ff" points="548.02,-335.52 557.09,-330.05 546.59,-328.67 548.02,-335.52"/>
</a>
</g>
</g>
<!-- Node12 -->
<g id="Node000012" class="node">
<title>Node12</title>
<g id="a_Node000012"><a xlink:href="classWrapMPI_1_1HostIterationPayload.html#aeab0cc5f0ddfccc7fc3584a873072882" target="_top" xlink:title=" ">
<polygon fill="white" stroke="#666666" points="498,-330.75 344.75,-330.75 344.75,-301.75 498,-301.75 498,-330.75"/>
<text text-anchor="start" x="352.75" y="-317.25" font-family="Helvetica,sans-Serif" font-size="10.00">WrapMPI::HostIterationPayload</text>
<text text-anchor="middle" x="421.38" y="-306.75" font-family="Helvetica,sans-Serif" font-size="10.00">::sendAll</text>
</a>
</g>
</g>
<!-- Node10&#45;&gt;Node12 -->
<g id="edge11_Node000010_Node000012" class="edge">
<title>Node10&#45;&gt;Node12</title>
<g id="a_edge11_Node000010_Node000012"><a xlink:title=" ">
<path fill="none" stroke="#63b8ff" d="M547.22,-319.78C531.86,-319.35 514.72,-318.86 498.18,-318.39"/>
<polygon fill="#63b8ff" stroke="#63b8ff" points="546.97,-323.28 557.06,-320.06 547.17,-316.28 546.97,-323.28"/>
</a>
</g>
</g>
<!-- Node14 -->
<g id="Node000014" class="node">
<title>Node14</title>
<g id="a_Node000014"><a xlink:href="namespaceWrapMPI_1_1Async.html#aea9ea25d4513c086000ad935de0c2a63" target="_top" xlink:title=" ">
<polygon fill="white" stroke="#666666" points="658,-293.5 542.25,-293.5 542.25,-275 658,-275 658,-293.5"/>
<text text-anchor="middle" x="600.12" y="-280" font-family="Helvetica,sans-Serif" font-size="10.00">WrapMPI::Async::send</text>
</a>
</g>
</g>
<!-- Node13&#45;&gt;Node14 -->
<g id="edge14_Node000013_Node000014" class="edge">
<title>Node13&#45;&gt;Node14</title>
<g id="a_edge14_Node000013_Node000014"><a xlink:title=" ">
<path fill="none" stroke="#63b8ff" d="M699.71,-280.77C685.88,-281.26 671.54,-281.76 658.24,-282.23"/>
<polygon fill="#63b8ff" stroke="#63b8ff" points="699.81,-284.27 709.68,-280.42 699.56,-277.27 699.81,-284.27"/>
</a>
</g>
</g>
<!-- Node15 -->
<g id="Node000015" class="node">
<title>Node15</title>
<g id="a_Node000015"><a xlink:href="namespaceWrapMPI_1_1Async.html#a14ced5fc699f316ee5512f66052ec8ad" target="_top" xlink:title=" ">
<polygon fill="white" stroke="#666666" points="484.5,-268.5 358.25,-268.5 358.25,-250 484.5,-250 484.5,-268.5"/>
<text text-anchor="middle" x="421.38" y="-255" font-family="Helvetica,sans-Serif" font-size="10.00">WrapMPI::Async::send_v</text>
</a>
</g>
</g>
<!-- Node13&#45;&gt;Node15 -->
<g id="edge17_Node000013_Node000015" class="edge">
<title>Node13&#45;&gt;Node15</title>
<g id="a_edge17_Node000013_Node000015"><a xlink:title=" ">
<path fill="none" stroke="#63b8ff" d="M700.12,-269.3C688.81,-268.11 677.22,-267.03 666.25,-266.25 604.67,-261.85 534.16,-260.19 484.85,-259.58"/>
<polygon fill="#63b8ff" stroke="#63b8ff" points="699.49,-272.75 709.81,-270.35 700.24,-265.79 699.49,-272.75"/>
</a>
</g>
</g>
<!-- Node14&#45;&gt;Node15 -->
<g id="edge15_Node000014_Node000015" class="edge">
<title>Node14&#45;&gt;Node15</title>
<g id="a_edge15_Node000014_Node000015"><a xlink:title=" ">
<path fill="none" stroke="#63b8ff" d="M530.87,-274.6C515.77,-272.46 499.84,-270.21 484.98,-268.11"/>
<polygon fill="#63b8ff" stroke="#63b8ff" points="530.34,-278.06 540.73,-275.99 531.32,-271.12 530.34,-278.06"/>
</a>
</g>
</g>
<!-- Node16 -->
<g id="Node000016" class="node">
<title>Node16</title>
<g id="a_Node000016"><a xlink:href="classWrapMPI_1_1HostIterationPayload.html#a360c9268019c8ce8573f0abfe974414f" target="_top" xlink:title="Sends this payload to a specified MPI rank.">
<polygon fill="white" stroke="#666666" points="308.75,-273.75 155.5,-273.75 155.5,-244.75 308.75,-244.75 308.75,-273.75"/>
<text text-anchor="start" x="163.5" y="-260.25" font-family="Helvetica,sans-Serif" font-size="10.00">WrapMPI::HostIterationPayload</text>
<text text-anchor="middle" x="232.12" y="-249.75" font-family="Helvetica,sans-Serif" font-size="10.00">::send</text>
</a>
</g>
</g>
<!-- Node15&#45;&gt;Node16 -->
<g id="edge16_Node000015_Node000016" class="edge">
<title>Node15&#45;&gt;Node16</title>
<g id="a_edge16_Node000015_Node000016"><a xlink:title=" ">
<path fill="none" stroke="#63b8ff" d="M346.59,-259.25C334.24,-259.25 321.41,-259.25 309.01,-259.25"/>
<polygon fill="#63b8ff" stroke="#63b8ff" points="346.25,-262.75 356.25,-259.25 346.25,-255.75 346.25,-262.75"/>
</a>
</g>
</g>
<!-- Node18 -->
<g id="Node000018" class="node">
<title>Node18</title>
<g id="a_Node000018"><a xlink:href="classCore_1_1GlobalInitialiser.html#a9b38d15538796d9cc115211890a6c081" target="_top" xlink:title="Initializes a Monte Carlo unit.">
<polygon fill="white" stroke="#666666" points="655,-218.75 545.25,-218.75 545.25,-189.75 655,-189.75 655,-218.75"/>
<text text-anchor="start" x="553.25" y="-205.25" font-family="Helvetica,sans-Serif" font-size="10.00">Core::GlobalInitialiser</text>
<text text-anchor="middle" x="600.12" y="-194.75" font-family="Helvetica,sans-Serif" font-size="10.00">::init_monte_carlo</text>
</a>
</g>
</g>
<!-- Node17&#45;&gt;Node18 -->
<g id="edge19_Node000017_Node000018" class="edge">
<title>Node17&#45;&gt;Node18</title>
<g id="a_edge19_Node000017_Node000018"><a xlink:title=" ">
<path fill="none" stroke="#63b8ff" d="M708.44,-224.45C691.02,-221.17 672.26,-217.64 655.37,-214.46"/>
<polygon fill="#63b8ff" stroke="#63b8ff" points="707.7,-227.87 718.17,-226.28 708.99,-220.99 707.7,-227.87"/>
</a>
</g>
</g>
<!-- Node19 -->
<g id="Node000019" class="node">
<title>Node19</title>
<g id="a_Node000019"><a xlink:href="classCore_1_1GlobalInitialiser.html#a5e218058a79920784be9d299856e867b" target="_top" xlink:title="Initializes a simulation unit.">
<polygon fill="white" stroke="#666666" points="287,-206.75 177.25,-206.75 177.25,-177.75 287,-177.75 287,-206.75"/>
<text text-anchor="start" x="185.25" y="-193.25" font-family="Helvetica,sans-Serif" font-size="10.00">Core::GlobalInitialiser</text>
<text text-anchor="middle" x="232.12" y="-182.75" font-family="Helvetica,sans-Serif" font-size="10.00">::init_simulation</text>
</a>
</g>
</g>
<!-- Node18&#45;&gt;Node19 -->
<g id="edge20_Node000018_Node000019" class="edge">
<title>Node18&#45;&gt;Node19</title>
<g id="a_edge20_Node000018_Node000019"><a xlink:title=" ">
<path fill="none" stroke="#63b8ff" d="M533.77,-202.11C463.48,-199.8 353,-196.18 287.35,-194.03"/>
<polygon fill="#63b8ff" stroke="#63b8ff" points="533.5,-205.6 543.61,-202.43 533.73,-198.6 533.5,-205.6"/>
</a>
</g>
</g>
<!-- Node19&#45;&gt;Node19 -->
<g id="edge22_Node000019_Node000019" class="edge">
<title>Node19&#45;&gt;Node19</title>
<g id="a_edge22_Node000019_Node000019"><a xlink:title=" ">
<path fill="none" stroke="#63b8ff" d="M261.38,-218.31C256.79,-222.16 247.04,-224.75 232.12,-224.75 204.85,-224.75 194.84,-216.07 202.09,-206.96"/>
<polygon fill="#63b8ff" stroke="#63b8ff" points="264.86,-218.68 262.06,-208.47 257.88,-218.2 264.86,-218.68"/>
</a>
</g>
</g>
<!-- Node20 -->
<g id="Node000020" class="node">
<title>Node20</title>
<g id="a_Node000020"><a xlink:href="structApi_1_1SimulationInstance.html#ae9bdd54076170f50eadcb7966d64c19d" target="_top" xlink:title="Apply the simulation configuration and prepare for execution.">
<polygon fill="white" stroke="#666666" points="119.5,-178.75 0,-178.75 0,-149.75 119.5,-149.75 119.5,-178.75"/>
<text text-anchor="start" x="8" y="-165.25" font-family="Helvetica,sans-Serif" font-size="10.00">Api::SimulationInstance</text>
<text text-anchor="middle" x="59.75" y="-154.75" font-family="Helvetica,sans-Serif" font-size="10.00">::apply</text>
</a>
</g>
</g>
<!-- Node19&#45;&gt;Node20 -->
<g id="edge21_Node000019_Node000020" class="edge">
<title>Node19&#45;&gt;Node20</title>
<g id="a_edge21_Node000019_Node000020"><a xlink:title=" ">
<path fill="none" stroke="#63b8ff" d="M165.87,-181.53C150.75,-179.04 134.76,-176.41 119.92,-173.97"/>
<polygon fill="#63b8ff" stroke="#63b8ff" points="165.29,-184.98 175.72,-183.15 166.42,-178.07 165.29,-184.98"/>
</a>
</g>
</g>
<!-- Node21&#45;&gt;Node22 -->
<g id="edge24_Node000021_Node000022" class="edge">
<title>Node21&#45;&gt;Node22</title>
<g id="a_edge24_Node000021_Node000022"><a xlink:title=" ">
<path fill="none" stroke="#63b8ff" d="M708.2,-162.25C689.93,-162.25 670.2,-162.25 652.71,-162.25"/>
<polygon fill="#63b8ff" stroke="#63b8ff" points="708.14,-165.75 718.14,-162.25 708.14,-158.75 708.14,-165.75"/>
</a>
</g>
</g>
<!-- Node23 -->
<g id="Node000023" class="node">
<title>Node23</title>
<g id="a_Node000023"><a xlink:href="classCore_1_1GlobalInitialiser.html#aa042e8d396a5287c49fb6a8b81eba209" target="_top" xlink:title="Performs MPI broadcast for synchronization.">
<polygon fill="white" stroke="#666666" points="655,-134.75 545.25,-134.75 545.25,-105.75 655,-105.75 655,-134.75"/>
<text text-anchor="start" x="553.25" y="-121.25" font-family="Helvetica,sans-Serif" font-size="10.00">Core::GlobalInitialiser</text>
<text text-anchor="middle" x="600.12" y="-110.75" font-family="Helvetica,sans-Serif" font-size="10.00">::mpi_broadcast</text>
</a>
</g>
</g>
<!-- Node21&#45;&gt;Node23 -->
<g id="edge25_Node000021_Node000023" class="edge">
<title>Node21&#45;&gt;Node23</title>
<g id="a_edge25_Node000021_Node000023"><a xlink:title=" ">
<path fill="none" stroke="#63b8ff" d="M720.66,-149.78C700.14,-144.71 676.38,-138.84 655.47,-133.68"/>
<polygon fill="#63b8ff" stroke="#63b8ff" points="719.68,-153.15 730.23,-152.15 721.36,-146.35 719.68,-153.15"/>
</a>
</g>
</g>
<!-- Node24 -->
<g id="Node000024" class="node">
<title>Node24</title>
<g id="a_Node000024"><a xlink:href="classCore_1_1GlobalInitialiser.html#a212a55abe2b9cb558932ba82e4cf6dbf" target="_top" xlink:title="Initializes the simulation state.">
<polygon fill="white" stroke="#666666" points="476.25,-148.75 366.5,-148.75 366.5,-119.75 476.25,-119.75 476.25,-148.75"/>
<text text-anchor="start" x="374.5" y="-135.25" font-family="Helvetica,sans-Serif" font-size="10.00">Core::GlobalInitialiser</text>
<text text-anchor="middle" x="421.38" y="-124.75" font-family="Helvetica,sans-Serif" font-size="10.00">::init_state</text>
</a>
</g>
</g>
<!-- Node23&#45;&gt;Node24 -->
<g id="edge26_Node000023_Node000024" class="edge">
<title>Node23&#45;&gt;Node24</title>
<g id="a_edge26_Node000023_Node000024"><a xlink:title=" ">
<path fill="none" stroke="#63b8ff" d="M533.67,-125.43C514.91,-126.92 494.66,-128.52 476.64,-129.95"/>
<polygon fill="#63b8ff" stroke="#63b8ff" points="533.93,-128.92 543.62,-124.65 533.38,-121.95 533.93,-128.92"/>
</a>
</g>
</g>
<!-- Node25 -->
<g id="Node000025" class="node">
<title>Node25</title>
<g id="a_Node000025"><a xlink:href="classCore_1_1GlobalInitialiser.html#a4fa32007b34a9e448be11ebd7d5e695f" target="_top" xlink:title="Initializes a transitioner with the provided flow iterator.">
<polygon fill="white" stroke="#666666" points="287,-155.75 177.25,-155.75 177.25,-126.75 287,-126.75 287,-155.75"/>
<text text-anchor="start" x="185.25" y="-142.25" font-family="Helvetica,sans-Serif" font-size="10.00">Core::GlobalInitialiser</text>
<text text-anchor="middle" x="232.12" y="-131.75" font-family="Helvetica,sans-Serif" font-size="10.00">::init_transitionner</text>
</a>
</g>
</g>
<!-- Node24&#45;&gt;Node25 -->
<g id="edge27_Node000024_Node000025" class="edge">
<title>Node24&#45;&gt;Node25</title>
<g id="a_edge27_Node000024_Node000025"><a xlink:title=" ">
<path fill="none" stroke="#63b8ff" d="M354.93,-136.7C332.9,-137.52 308.57,-138.43 287.49,-139.22"/>
<polygon fill="#63b8ff" stroke="#63b8ff" points="354.84,-140.2 364.7,-136.33 354.58,-133.21 354.84,-140.2"/>
</a>
</g>
</g>
<!-- Node25&#45;&gt;Node20 -->
<g id="edge28_Node000025_Node000020" class="edge">
<title>Node25&#45;&gt;Node20</title>
<g id="a_edge28_Node000025_Node000020"><a xlink:title=" ">
<path fill="none" stroke="#63b8ff" d="M165.87,-150.06C150.75,-152.1 134.76,-154.26 119.92,-156.26"/>
<polygon fill="#63b8ff" stroke="#63b8ff" points="166.28,-153.54 175.72,-148.73 165.34,-146.6 166.28,-153.54"/>
</a>
</g>
</g>
<!-- Node29 -->
<g id="Node000029" class="node">
<title>Node29</title>
<g id="a_Node000029"><a xlink:href="classWrapMPI_1_1IterationPayload.html#a136036d66a6c16c18d4115905448380f" target="_top" xlink:title="Receives data for this payload from a specified source.">
<polygon fill="white" stroke="#666666" points="666.25,-65.75 534,-65.75 534,-36.75 666.25,-36.75 666.25,-65.75"/>
<text text-anchor="start" x="542" y="-52.25" font-family="Helvetica,sans-Serif" font-size="10.00">WrapMPI::IterationPayload</text>
<text text-anchor="middle" x="600.12" y="-41.75" font-family="Helvetica,sans-Serif" font-size="10.00">::recv</text>
</a>
</g>
</g>
<!-- Node28&#45;&gt;Node29 -->
<g id="edge33_Node000028_Node000029" class="edge">
<title>Node28&#45;&gt;Node29</title>
<g id="a_edge33_Node000028_Node000029"><a xlink:title=" ">
<path fill="none" stroke="#63b8ff" d="M706.89,-51.25C693.69,-51.25 679.77,-51.25 666.53,-51.25"/>
<polygon fill="#63b8ff" stroke="#63b8ff" points="706.75,-54.75 716.75,-51.25 706.75,-47.75 706.75,-54.75"/>
</a>
</g>
</g>
<!-- Node30&#45;&gt;Node29 -->
<g id="edge35_Node000030_Node000029" class="edge">
<title>Node30&#45;&gt;Node29</title>
<g id="a_edge35_Node000030_Node000029"><a xlink:title=" ">
<path fill="none" stroke="#63b8ff" d="M715.4,-26.38C699.8,-29.77 682.71,-33.49 666.6,-37"/>
<polygon fill="#63b8ff" stroke="#63b8ff" points="715.95,-29.84 724.98,-24.29 714.46,-23 715.95,-29.84"/>
</a>
</g>
</g>
<!-- Node31 -->
<g id="Node000031" class="node">
<title>Node31</title>
<g id="a_Node000031"><a xlink:href="namespaceWrapMPI.html#a0dd428096701cba57a4230514acaf0b1" target="_top" xlink:title="Attempts to receive a vector of data items from a source.">
<polygon fill="white" stroke="#666666" points="654.25,-18.5 546,-18.5 546,0 654.25,0 654.25,-18.5"/>
<text text-anchor="middle" x="600.12" y="-5" font-family="Helvetica,sans-Serif" font-size="10.00">WrapMPI::try_recv_v</text>
</a>
</g>
</g>
<!-- Node30&#45;&gt;Node31 -->
<g id="edge36_Node000030_Node000031" class="edge">
<title>Node30&#45;&gt;Node31</title>
<g id="a_edge36_Node000030_Node000031"><a xlink:title=" ">
<path fill="none" stroke="#63b8ff" d="M715,-12.6C695.54,-12.03 673.8,-11.39 654.56,-10.82"/>
<polygon fill="#63b8ff" stroke="#63b8ff" points="714.85,-16.1 724.95,-12.89 715.05,-9.1 714.85,-16.1"/>
</a>
</g>
</g>
</g>
</svg>

<g id="navigator" transform="translate(0 0)" fill="#404254">
  <rect fill="#f2f5e9" fill-opacity="0.5" stroke="#606060" stroke-width=".5" x="0" y="0" width="60" height="60"/>
  <use id="zoomplus" xlink:href="#zoomPlus" x="17" y="9" onmousedown="handleZoom(evt,'in')"/>
  <use id="zoomminus" xlink:href="#zoomMin" x="42" y="9" onmousedown="handleZoom(evt,'out')"/>
  <use id="reset" xlink:href="#resetDef" x="30" y="36" onmousedown="handleReset()"/>
   <use id="arrowup" xlink:href="#arrowUp" x="0" y="0" onmousedown="handlePan(0,-1)"/>
  <use id="arrowright" xlink:href="#arrowRight" x="0" y="0" onmousedown="handlePan(1,0)"/>
  <use id="arrowdown" xlink:href="#arrowDown" x="0" y="0" onmousedown="handlePan(0,1)"/>
  <use id="arrowleft" xlink:href="#arrowLeft" x="0" y="0" onmousedown="handlePan(-1,0)"/>
</g>
<svg viewBox="0 0 15 15" width="100%" height="30px" preserveAspectRatio="xMaxYMin meet">
 <g id="arrow_out" transform="scale(0.3 0.3)">
  <a xlink:href="namespaceWrapMPI_adab3300a86b8c0227268b23134b57a24_icgraph_org.svg" target="_base">
   <rect id="button" ry="5" rx="5" y="6" x="6" height="38" width="38"
        fill="#f2f5e9" fill-opacity="0.5" stroke="#606060" stroke-width="1.0"/>
   <path id="arrow"
     d="M 11.500037,31.436501 C 11.940474,20.09759 22.043105,11.32322 32.158766,21.979434 L 37.068811,17.246167 C 37.068811,17.246167 37.088388,32 37.088388,32 L 22.160133,31.978069 C 22.160133,31.978069 26.997745,27.140456 26.997745,27.140456 C 18.528582,18.264221 13.291696,25.230495 11.500037,31.436501 z"
     style="fill:#404040;"/>
  </a>
 </g>
</svg>

<style type='text/css'>
<![CDATA[
[data-mouse-over-selected='false'] { opacity: 0.7; }
[data-mouse-over-selected='true']  { opacity: 1.0; }
]]>
</style>
<script type="application/ecmascript"><![CDATA[
document.addEventListener('DOMContentLoaded', (event) => {
  highlightEdges();
  highlightAdjacentNodes();
});
]]></script>
</svg>
