<?xml version="1.0" encoding="UTF-8" standalone="no"?>
<!DOCTYPE svg PUBLIC "-//W3C//DTD SVG 1.1//EN"
 "http://www.w3.org/Graphics/SVG/1.1/DTD/svg11.dtd">
<!-- Generated by graphviz version 12.1.2 (0)
 -->
<!-- Title: Core::init_partial_exporter Pages: 1 -->
<svg width="387pt" height="131pt"
 viewBox="0.00 0.00 386.75 131.00" xmlns="http://www.w3.org/2000/svg" xmlns:xlink="http://www.w3.org/1999/xlink">
<g id="graph0" class="graph" transform="scale(1 1) rotate(0) translate(4 127)">
<title>Core::init_partial_exporter</title>
<!-- Node1 -->
<g id="Node000001" class="node">
<title>Node1</title>
<g id="a_Node000001"><a xlink:title=" ">
<polygon fill="#999999" stroke="#666666" points="88,-76 0,-76 0,-47 88,-47 88,-76"/>
<text text-anchor="start" x="8" y="-62.5" font-family="Helvetica,sans-Serif" font-size="10.00">Core::init_partial</text>
<text text-anchor="middle" x="44" y="-52" font-family="Helvetica,sans-Serif" font-size="10.00">_exporter</text>
</a>
</g>
</g>
<!-- Node2 -->
<g id="Node000002" class="node">
<title>Node2</title>
<g id="a_Node000002"><a xlink:href="classCore_1_1PartialExporter.html#a05cba8c28abaecce99f586d551a75f80" target="_top" xlink:title="Initializes the fields required for exporting data.">
<polygon fill="white" stroke="#666666" points="237.5,-123 128.5,-123 128.5,-94 237.5,-94 237.5,-123"/>
<text text-anchor="start" x="136.5" y="-109.5" font-family="Helvetica,sans-Serif" font-size="10.00">Core::PartialExporter</text>
<text text-anchor="middle" x="183" y="-99" font-family="Helvetica,sans-Serif" font-size="10.00">::init_fields</text>
</a>
</g>
</g>
<!-- Node1&#45;&gt;Node2 -->
<g id="edge1_Node000001_Node000002" class="edge">
<title>Node1&#45;&gt;Node2</title>
<g id="a_edge1_Node000001_Node000002"><a xlink:title=" ">
<path fill="none" stroke="#63b8ff" d="M88.35,-76.37C100.84,-80.66 114.63,-85.39 127.7,-89.87"/>
<polygon fill="#63b8ff" stroke="#63b8ff" points="126.44,-93.14 137.03,-93.07 128.71,-86.52 126.44,-93.14"/>
</a>
</g>
</g>
<!-- Node4 -->
<g id="Node000004" class="node">
<title>Node4</title>
<g id="a_Node000004"><a xlink:href="namespacePostProcessing.html#a9ff9231cbdf2a3c4e539c4638aba2445" target="_top" xlink:title=" ">
<polygon fill="white" stroke="#666666" points="238.62,-76 127.38,-76 127.38,-47 238.62,-47 238.62,-76"/>
<text text-anchor="start" x="135.38" y="-62.5" font-family="Helvetica,sans-Serif" font-size="10.00">PostProcessing::save</text>
<text text-anchor="middle" x="183" y="-52" font-family="Helvetica,sans-Serif" font-size="10.00">_particle_state</text>
</a>
</g>
</g>
<!-- Node1&#45;&gt;Node4 -->
<g id="edge3_Node000001_Node000004" class="edge">
<title>Node1&#45;&gt;Node4</title>
<g id="a_edge3_Node000001_Node000004"><a xlink:title=" ">
<path fill="none" stroke="#63b8ff" d="M88.35,-61.5C97.15,-61.5 106.6,-61.5 115.99,-61.5"/>
<polygon fill="#63b8ff" stroke="#63b8ff" points="115.85,-65 125.85,-61.5 115.85,-58 115.85,-65"/>
</a>
</g>
</g>
<!-- Node5 -->
<g id="Node000005" class="node">
<title>Node5</title>
<g id="a_Node000005"><a xlink:href="classCore_1_1PartialExporter.html#a450fb0c92efa4ee81b4083fc01f5e665" target="_top" xlink:title="Writes the number of particles in each compartment.">
<polygon fill="white" stroke="#666666" points="242,-29 124,-29 124,0 242,0 242,-29"/>
<text text-anchor="start" x="132" y="-15.5" font-family="Helvetica,sans-Serif" font-size="10.00">Core::PartialExporter</text>
<text text-anchor="middle" x="183" y="-5" font-family="Helvetica,sans-Serif" font-size="10.00">::write_number_particle</text>
</a>
</g>
</g>
<!-- Node1&#45;&gt;Node5 -->
<g id="edge4_Node000001_Node000005" class="edge">
<title>Node1&#45;&gt;Node5</title>
<g id="a_edge4_Node000001_Node000005"><a xlink:title=" ">
<path fill="none" stroke="#63b8ff" d="M88.35,-46.63C100.84,-42.34 114.63,-37.61 127.7,-33.13"/>
<polygon fill="#63b8ff" stroke="#63b8ff" points="128.71,-36.48 137.03,-29.93 126.44,-29.86 128.71,-36.48"/>
</a>
</g>
</g>
<!-- Node3 -->
<g id="Node000003" class="node">
<title>Node3</title>
<g id="a_Node000003"><a xlink:href="classCore_1_1DataExporter.html#a9c60512b8e80f25d5f1f6cac29b27d07" target="_top" xlink:title=" ">
<polygon fill="white" stroke="#666666" points="378.75,-123 278,-123 278,-94 378.75,-94 378.75,-123"/>
<text text-anchor="start" x="286" y="-109.5" font-family="Helvetica,sans-Serif" font-size="10.00">Core::DataExporter</text>
<text text-anchor="middle" x="328.38" y="-99" font-family="Helvetica,sans-Serif" font-size="10.00">::prepare_matrix</text>
</a>
</g>
</g>
<!-- Node2&#45;&gt;Node3 -->
<g id="edge2_Node000002_Node000003" class="edge">
<title>Node2&#45;&gt;Node3</title>
<g id="a_edge2_Node000002_Node000003"><a xlink:title=" ">
<path fill="none" stroke="#63b8ff" d="M237.8,-108.5C247.06,-108.5 256.75,-108.5 266.19,-108.5"/>
<polygon fill="#63b8ff" stroke="#63b8ff" points="266.03,-112 276.03,-108.5 266.03,-105 266.03,-112"/>
</a>
</g>
</g>
<!-- Node6 -->
<g id="Node000006" class="node">
<title>Node6</title>
<g id="a_Node000006"><a xlink:href="classCore_1_1DataExporter.html#a0af9b5e13d16339af1918f8e845193f9" target="_top" xlink:title=" ">
<polygon fill="white" stroke="#666666" points="378.75,-29 278,-29 278,0 378.75,0 378.75,-29"/>
<text text-anchor="start" x="286" y="-15.5" font-family="Helvetica,sans-Serif" font-size="10.00">Core::DataExporter</text>
<text text-anchor="middle" x="328.38" y="-5" font-family="Helvetica,sans-Serif" font-size="10.00">::append_matrix</text>
</a>
</g>
</g>
<!-- Node5&#45;&gt;Node6 -->
<g id="edge5_Node000005_Node000006" class="edge">
<title>Node5&#45;&gt;Node6</title>
<g id="a_edge5_Node000005_Node000006"><a xlink:title=" ">
<path fill="none" stroke="#63b8ff" d="M242.32,-14.5C250.23,-14.5 258.38,-14.5 266.34,-14.5"/>
<polygon fill="#63b8ff" stroke="#63b8ff" points="266.32,-18 276.32,-14.5 266.32,-11 266.32,-18"/>
</a>
</g>
</g>
</g>
</svg>
