<?xml version="1.0" encoding="UTF-8" standalone="no"?>
<!DOCTYPE svg PUBLIC "-//W3C//DTD SVG 1.1//EN"
 "http://www.w3.org/Graphics/SVG/1.1/DTD/svg11.dtd">
<!-- Generated by graphviz version 14.0.1 (0)
 -->
<!-- Title: Common::is_power_of_2 Pages: 1 -->
<!--zoomable 400 -->

<svg id="main" version="1.1" xmlns="http://www.w3.org/2000/svg" xmlns:xlink="http://www.w3.org/1999/xlink" xml:space="preserve" onload="init(evt)">

<style type="text/css"><![CDATA[
.node, .edge {opacity: 0.7;}
.node.selected, .edge.selected {opacity: 1;}
.edge:hover path { stroke: red; }
.edge:hover polygon { stroke: red; fill: red; }
]]></style>

<defs>
  <circle id="rim" cx="0" cy="0" r="7"/>
  <circle id="rim2" cx="0" cy="0" r="3.5"/>
  <g id="zoomPlus">
    <use xlink:href="#rim" fill="#404040"><set attributeName="fill" to="#808080" begin="zoomplus.mouseover" end="zoomplus.mouseout"/></use>
    <path d="M-4,0h8M0,-4v8" fill="none" stroke="white" stroke-width="1.5" pointer-events="none"/>
  </g>
  <g id="zoomMin">
    <use xlink:href="#rim" fill="#404040"><set attributeName="fill" to="#808080" begin="zoomminus.mouseover" end="zoomminus.mouseout"/></use>
    <path d="M-4,0h8" fill="none" stroke="white" stroke-width="1.5" pointer-events="none"/>
  </g>
  <g id="arrowUp" transform="translate(30 24)">
    <use xlink:href="#rim"/>
    <path pointer-events="none" fill="none" stroke="white" stroke-width="1.5" d="M0,-3.0v7 M-2.5,-0.5L0,-3.0L2.5,-0.5"/>
  </g>
  <g id="arrowRight" transform="rotate(90) translate(36 -43)">
    <use xlink:href="#rim"/>
    <path pointer-events="none" fill="none" stroke="white" stroke-width="1.5" d="M0,-3.0v7 M-2.5,-0.5L0,-3.0L2.5,-0.5"/>
  </g>
  <g id="arrowDown" transform="rotate(180) translate(-30 -48)">
    <use xlink:href="#rim"/>
    <path pointer-events="none" fill="none" stroke="white" stroke-width="1.5" d="M0,-3.0v7 M-2.5,-0.5L0,-3.0L2.5,-0.5"/>
  </g>
  <g id="arrowLeft" transform="rotate(270) translate(-36 17)">
    <use xlink:href="#rim"/>
    <path pointer-events="none" fill="none" stroke="white" stroke-width="1.5" d="M0,-3.0v7 M-2.5,-0.5L0,-3.0L2.5,-0.5"/>
  </g>
  <g id="resetDef">
    <use xlink:href="#rim2" fill="#404040"><set attributeName="fill" to="#808080" begin="reset.mouseover" end="reset.mouseout"/></use>
  </g>
</defs>
<script type="application/ecmascript">
var viewWidth = 1675;
var viewHeight = 400;
var sectionId = 'dynsection-4';
</script>
<script type="application/ecmascript" xlink:href="svg.min.js"/>
<svg id="graph" class="graph">
<g id="viewport">
<title>Common::is_power_of_2</title>
<!-- Node1 -->
<g id="Node000001" class="node">
<title>Node1</title>
<g id="a_Node000001"><a xlink:title=" ">
<polygon fill="#999999" stroke="#666666" points="1666.75,-162.75 1542.75,-162.75 1542.75,-144.25 1666.75,-144.25 1666.75,-162.75"/>
<text xml:space="preserve" text-anchor="middle" x="1604.75" y="-149.25" font-family="Helvetica,sans-Serif" font-size="10.00">Common::is_power_of_2</text>
</a>
</g>
</g>
<!-- Node2 -->
<g id="Node000002" class="node">
<title>Node2</title>
<g id="a_Node000002"><a xlink:href="namespaceCommon.html#a618180f8964b0ffef461c9ff2f44d295" target="_top" xlink:title=" ">
<polygon fill="white" stroke="#666666" points="1506.75,-162.75 1383.5,-162.75 1383.5,-144.25 1506.75,-144.25 1506.75,-162.75"/>
<text xml:space="preserve" text-anchor="middle" x="1445.12" y="-149.25" font-family="Helvetica,sans-Serif" font-size="10.00">Common::c_league_size</text>
</a>
</g>
</g>
<!-- Node1&#45;&gt;Node2 -->
<g id="edge1_Node000001_Node000002" class="edge">
<title>Node1&#45;&gt;Node2</title>
<g id="a_edge1_Node000001_Node000002"><a xlink:title=" ">
<path fill="none" stroke="#63b8ff" d="M1531.1,-153.5C1523.07,-153.5 1514.96,-153.5 1507.09,-153.5"/>
<polygon fill="#63b8ff" stroke="#63b8ff" points="1530.84,-157 1540.84,-153.5 1530.84,-150 1530.84,-157"/>
</a>
</g>
</g>
<!-- Node3 -->
<g id="Node000003" class="node">
<title>Node3</title>
<g id="a_Node000003"><a xlink:href="namespaceMC.html#afce410cbcc9bdb026806eeb0f4e0c7c1" target="_top" xlink:title="Write&#45;touch [begin, end) with the move kernel&#39;s team decomposition.">
<polygon fill="white" stroke="#666666" points="1313.75,-285.75 1229.5,-285.75 1229.5,-267.25 1313.75,-267.25 1313.75,-285.75"/>
<text xml:space="preserve" text-anchor="middle" x="1271.62" y="-272.25" font-family="Helvetica,sans-Serif" font-size="10.00">MC::first_touch</text>
</a>
</g>
</g>
<!-- Node2&#45;&gt;Node3 -->
<g id="edge2_Node000002_Node000003" class="edge">
<title>Node2&#45;&gt;Node3</title>
<g id="a_edge2_Node000002_Node000003"><a xlink:title=" ">
<path fill="none" stroke="#63b8ff" d="M1431.99,-172.46C1415.71,-196.3 1384.52,-236.74 1347.5,-258.5 1337.36,-264.46 1325.34,-268.45 1313.94,-271.12"/>
<polygon fill="#63b8ff" stroke="#63b8ff" points="1434.76,-174.61 1437.37,-164.34 1428.93,-170.74 1434.76,-174.61"/>
</a>
</g>
</g>
<!-- Node22 -->
<g id="Node000022" class="node">
<title>Node22</title>
<g id="a_Node000022"><a xlink:href="namespaceCommon.html#adb49dd62a0b04177404cae67015110cc" target="_top" xlink:title=" ">
<polygon fill="white" stroke="#666666" points="1324.62,-249 1218.62,-249 1218.62,-220 1324.62,-220 1324.62,-249"/>
<text xml:space="preserve" text-anchor="start" x="1226.62" y="-235.5" font-family="Helvetica,sans-Serif" font-size="10.00">Common::get_policy</text>
<text xml:space="preserve" text-anchor="middle" x="1271.62" y="-225" font-family="Helvetica,sans-Serif" font-size="10.00">_team_from_npt</text>
</a>
</g>
</g>
<!-- Node2&#45;&gt;Node22 -->
<g id="edge24_Node000002_Node000022" class="edge">
<title>Node2&#45;&gt;Node22</title>
<g id="a_edge24_Node000002_Node000022"><a xlink:title=" ">
<path fill="none" stroke="#63b8ff" d="M1421.3,-169.38C1402.24,-182.09 1374.01,-199.68 1347.5,-211.5 1340.3,-214.71 1332.51,-217.65 1324.78,-220.27"/>
<polygon fill="#63b8ff" stroke="#63b8ff" points="1423.05,-172.41 1429.37,-163.91 1419.12,-166.62 1423.05,-172.41"/>
</a>
</g>
</g>
<!-- Node23 -->
<g id="Node000023" class="node">
<title>Node23</title>
<g id="a_Node000023"><a xlink:href="structSimulation_1_1KernelInline_1_1CycleFunctors.html#a00681a246788ed7eec758ec6f2ae8f82" target="_top" xlink:title=" ">
<polygon fill="white" stroke="#666666" points="1331.75,-202.25 1211.5,-202.25 1211.5,-162.75 1331.75,-162.75 1331.75,-202.25"/>
<text xml:space="preserve" text-anchor="start" x="1219.5" y="-188.75" font-family="Helvetica,sans-Serif" font-size="10.00">Simulation::KernelInline</text>
<text xml:space="preserve" text-anchor="start" x="1219.5" y="-178.25" font-family="Helvetica,sans-Serif" font-size="10.00">::CycleFunctors::launch</text>
<text xml:space="preserve" text-anchor="middle" x="1271.62" y="-167.75" font-family="Helvetica,sans-Serif" font-size="10.00">_leave_0d</text>
</a>
</g>
</g>
<!-- Node2&#45;&gt;Node23 -->
<g id="edge25_Node000002_Node000023" class="edge">
<title>Node2&#45;&gt;Node23</title>
<g id="a_edge25_Node000002_Node000023"><a xlink:title=" ">
<path fill="none" stroke="#63b8ff" d="M1375.25,-165.15C1360.96,-167.56 1346.03,-170.09 1332.11,-172.44"/>
<polygon fill="#63b8ff" stroke="#63b8ff" points="1375.77,-168.61 1385.05,-163.49 1374.6,-161.71 1375.77,-168.61"/>
</a>
</g>
</g>
<!-- Node25 -->
<g id="Node000025" class="node">
<title>Node25</title>
<g id="a_Node000025"><a xlink:href="structSimulation_1_1KernelInline_1_1CycleFunctors.html#a6c90aea19ce14cae37799d53e12d70e6" target="_top" xlink:title=" ">
<polygon fill="white" stroke="#666666" points="1347.5,-29 1195.75,-29 1195.75,0 1347.5,0 1347.5,-29"/>
<text xml:space="preserve" text-anchor="start" x="1203.75" y="-15.5" font-family="Helvetica,sans-Serif" font-size="10.00">Simulation::KernelInline</text>
<text xml:space="preserve" text-anchor="middle" x="1271.62" y="-5" font-family="Helvetica,sans-Serif" font-size="10.00">::CycleFunctors::launch_model</text>
</a>
</g>
</g>
<!-- Node2&#45;&gt;Node25 -->
<g id="edge27_Node000002_Node000025" class="edge">
<title>Node2&#45;&gt;Node25</title>
<g id="a_edge27_Node000002_Node000025"><a xlink:title=" ">
<path fill="none" stroke="#63b8ff" d="M1432.93,-134.03C1417.13,-108.24 1385.88,-63.04 1347.5,-37.5 1342.86,-34.41 1337.78,-31.72 1332.53,-29.38"/>
<polygon fill="#63b8ff" stroke="#63b8ff" points="1429.84,-135.67 1437.96,-142.48 1435.85,-132.1 1429.84,-135.67"/>
</a>
</g>
</g>
<!-- Node26 -->
<g id="Node000026" class="node">
<title>Node26</title>
<g id="a_Node000026"><a xlink:href="structSimulation_1_1KernelInline_1_1CycleFunctors.html#a93806164ba8ca7f9488220d50c086911" target="_top" xlink:title="Move&#45;only, multi&#45;compartment domain.">
<polygon fill="white" stroke="#666666" points="1331.75,-144.25 1211.5,-144.25 1211.5,-104.75 1331.75,-104.75 1331.75,-144.25"/>
<text xml:space="preserve" text-anchor="start" x="1219.5" y="-130.75" font-family="Helvetica,sans-Serif" font-size="10.00">Simulation::KernelInline</text>
<text xml:space="preserve" text-anchor="start" x="1219.5" y="-120.25" font-family="Helvetica,sans-Serif" font-size="10.00">::CycleFunctors::launch</text>
<text xml:space="preserve" text-anchor="middle" x="1271.62" y="-109.75" font-family="Helvetica,sans-Serif" font-size="10.00">_move_3d</text>
</a>
</g>
</g>
<!-- Node2&#45;&gt;Node26 -->
<g id="edge28_Node000002_Node000026" class="edge">
<title>Node2&#45;&gt;Node26</title>
<g id="a_edge28_Node000002_Node000026"><a xlink:title=" ">
<path fill="none" stroke="#63b8ff" d="M1375.25,-141.85C1360.96,-139.44 1346.03,-136.91 1332.11,-134.56"/>
<polygon fill="#63b8ff" stroke="#63b8ff" points="1374.6,-145.29 1385.05,-143.51 1375.77,-138.39 1374.6,-145.29"/>
</a>
</g>
</g>
<!-- Node27 -->
<g id="Node000027" class="node">
<title>Node27</title>
<g id="a_Node000027"><a xlink:href="structSimulation_1_1KernelInline_1_1CycleFunctors.html#aeec086c1c5c1c7032496f0a7ac67f801" target="_top" xlink:title=" ">
<polygon fill="white" stroke="#666666" points="1331.75,-86.25 1211.5,-86.25 1211.5,-46.75 1331.75,-46.75 1331.75,-86.25"/>
<text xml:space="preserve" text-anchor="start" x="1219.5" y="-72.75" font-family="Helvetica,sans-Serif" font-size="10.00">Simulation::KernelInline</text>
<text xml:space="preserve" text-anchor="start" x="1219.5" y="-62.25" font-family="Helvetica,sans-Serif" font-size="10.00">::CycleFunctors::launch</text>
<text xml:space="preserve" text-anchor="middle" x="1271.62" y="-51.75" font-family="Helvetica,sans-Serif" font-size="10.00">_move_leave_3d</text>
</a>
</g>
</g>
<!-- Node2&#45;&gt;Node27 -->
<g id="edge30_Node000002_Node000027" class="edge">
<title>Node2&#45;&gt;Node27</title>
<g id="a_edge30_Node000002_Node000027"><a xlink:title=" ">
<path fill="none" stroke="#63b8ff" d="M1420.4,-137.69C1401.22,-125.31 1373.27,-108.11 1347.5,-95.5 1341.24,-92.44 1334.57,-89.46 1327.89,-86.66"/>
<polygon fill="#63b8ff" stroke="#63b8ff" points="1418.28,-140.49 1428.56,-143.03 1422.1,-134.63 1418.28,-140.49"/>
</a>
</g>
</g>
<!-- Node4 -->
<g id="Node000004" class="node">
<title>Node4</title>
<g id="a_Node000004"><a xlink:href="namespaceMC.html#ae7cda00073d6a197d3dbfc25ff32fad8" target="_top" xlink:title="Kokkos::resize, but with the first touch placed by us.">
<polygon fill="white" stroke="#666666" points="1142.88,-285.75 1027.88,-285.75 1027.88,-267.25 1142.88,-267.25 1142.88,-285.75"/>
<text xml:space="preserve" text-anchor="middle" x="1085.38" y="-272.25" font-family="Helvetica,sans-Serif" font-size="10.00">MC::resize_first_touch</text>
</a>
</g>
</g>
<!-- Node3&#45;&gt;Node4 -->
<g id="edge3_Node000003_Node000004" class="edge">
<title>Node3&#45;&gt;Node4</title>
<g id="a_edge3_Node000003_Node000004"><a xlink:title=" ">
<path fill="none" stroke="#63b8ff" d="M1217.85,-276.5C1194.54,-276.5 1167.08,-276.5 1143.3,-276.5"/>
<polygon fill="#63b8ff" stroke="#63b8ff" points="1217.76,-280 1227.76,-276.5 1217.76,-273 1217.76,-280"/>
</a>
</g>
</g>
<!-- Node5 -->
<g id="Node000005" class="node">
<title>Node5</title>
<g id="a_Node000005"><a xlink:href="classMC_1_1ParticlesContainer.html#a57fa06d3225acf04522e3fc2993847f0" target="_top" xlink:title=" ">
<polygon fill="white" stroke="#666666" points="975,-314 856.25,-314 856.25,-285 975,-285 975,-314"/>
<text xml:space="preserve" text-anchor="start" x="864.25" y="-300.5" font-family="Helvetica,sans-Serif" font-size="10.00">MC::ParticlesContainer</text>
<text xml:space="preserve" text-anchor="middle" x="915.62" y="-290" font-family="Helvetica,sans-Serif" font-size="10.00">::__allocate_buffer__</text>
</a>
</g>
</g>
<!-- Node4&#45;&gt;Node5 -->
<g id="edge4_Node000004_Node000005" class="edge">
<title>Node4&#45;&gt;Node5</title>
<g id="a_edge4_Node000004_Node000005"><a xlink:title=" ">
<path fill="none" stroke="#63b8ff" d="M1016.34,-285.83C1002.76,-287.69 988.6,-289.63 975.36,-291.45"/>
<polygon fill="#63b8ff" stroke="#63b8ff" points="1016.65,-289.32 1026.08,-284.49 1015.7,-282.38 1016.65,-289.32"/>
</a>
</g>
</g>
<!-- Node17 -->
<g id="Node000017" class="node">
<title>Node17</title>
<g id="a_Node000017"><a xlink:href="classMC_1_1ParticlesContainer.html#a4fc94ae525191a5d034dce4866986c1e" target="_top" xlink:title=" ">
<polygon fill="white" stroke="#666666" points="975,-267 856.25,-267 856.25,-238 975,-238 975,-267"/>
<text xml:space="preserve" text-anchor="start" x="864.25" y="-253.5" font-family="Helvetica,sans-Serif" font-size="10.00">MC::ParticlesContainer</text>
<text xml:space="preserve" text-anchor="middle" x="915.62" y="-243" font-family="Helvetica,sans-Serif" font-size="10.00">::_resize</text>
</a>
</g>
</g>
<!-- Node4&#45;&gt;Node17 -->
<g id="edge16_Node000004_Node000017" class="edge">
<title>Node4&#45;&gt;Node17</title>
<g id="a_edge16_Node000004_Node000017"><a xlink:title=" ">
<path fill="none" stroke="#63b8ff" d="M1016.34,-266.77C1002.76,-264.82 988.6,-262.8 975.36,-260.9"/>
<polygon fill="#63b8ff" stroke="#63b8ff" points="1015.69,-270.21 1026.08,-268.16 1016.68,-263.28 1015.69,-270.21"/>
</a>
</g>
</g>
<!-- Node6 -->
<g id="Node000006" class="node">
<title>Node6</title>
<g id="a_Node000006"><a xlink:href="classMC_1_1ParticlesContainer.html#adae9af7cbb629530927d504f5fe75c90" target="_top" xlink:title="Load data from ar for deserialization.">
<polygon fill="white" stroke="#666666" points="812.38,-361 693.62,-361 693.62,-332 812.38,-332 812.38,-361"/>
<text xml:space="preserve" text-anchor="start" x="701.62" y="-347.5" font-family="Helvetica,sans-Serif" font-size="10.00">MC::ParticlesContainer</text>
<text xml:space="preserve" text-anchor="middle" x="753" y="-337" font-family="Helvetica,sans-Serif" font-size="10.00">::load</text>
</a>
</g>
</g>
<!-- Node5&#45;&gt;Node6 -->
<g id="edge5_Node000005_Node000006" class="edge">
<title>Node5&#45;&gt;Node6</title>
<g id="a_edge5_Node000005_Node000006"><a xlink:title=" ">
<path fill="none" stroke="#63b8ff" d="M853.03,-317.52C837.17,-322.16 820.29,-327.1 805.04,-331.56"/>
<polygon fill="#63b8ff" stroke="#63b8ff" points="853.73,-320.96 862.35,-314.8 851.77,-314.25 853.73,-320.96"/>
</a>
</g>
</g>
<!-- Node7 -->
<g id="Node000007" class="node">
<title>Node7</title>
<g id="a_Node000007"><a xlink:href="classMC_1_1ParticlesContainer.html#a8e95993fb1287c04427780d6372be565" target="_top" xlink:title="Insert particle buffer into the main container.">
<polygon fill="white" stroke="#666666" points="812.38,-314 693.62,-314 693.62,-285 812.38,-285 812.38,-314"/>
<text xml:space="preserve" text-anchor="start" x="701.62" y="-300.5" font-family="Helvetica,sans-Serif" font-size="10.00">MC::ParticlesContainer</text>
<text xml:space="preserve" text-anchor="middle" x="753" y="-290" font-family="Helvetica,sans-Serif" font-size="10.00">::merge_buffer</text>
</a>
</g>
</g>
<!-- Node5&#45;&gt;Node7 -->
<g id="edge6_Node000005_Node000007" class="edge">
<title>Node5&#45;&gt;Node7</title>
<g id="a_edge6_Node000005_Node000007"><a xlink:title=" ">
<path fill="none" stroke="#63b8ff" d="M844.72,-299.5C834.03,-299.5 823.09,-299.5 812.67,-299.5"/>
<polygon fill="#63b8ff" stroke="#63b8ff" points="844.67,-303 854.67,-299.5 844.67,-296 844.67,-303"/>
</a>
</g>
</g>
<!-- Node11 -->
<g id="Node000011" class="node">
<title>Node11</title>
<g id="a_Node000011"><a xlink:href="classMC_1_1ParticlesContainer.html#ae05e5dc4d00760e72cf22ae921f3bbfd" target="_top" xlink:title="Alias for the model used by the container.">
<polygon fill="white" stroke="#666666" points="812.38,-267 693.62,-267 693.62,-238 812.38,-238 812.38,-267"/>
<text xml:space="preserve" text-anchor="start" x="701.62" y="-253.5" font-family="Helvetica,sans-Serif" font-size="10.00">MC::ParticlesContainer</text>
<text xml:space="preserve" text-anchor="middle" x="753" y="-243" font-family="Helvetica,sans-Serif" font-size="10.00">::ParticlesContainer</text>
</a>
</g>
</g>
<!-- Node5&#45;&gt;Node11 -->
<g id="edge10_Node000005_Node000011" class="edge">
<title>Node5&#45;&gt;Node11</title>
<g id="a_edge10_Node000005_Node000011"><a xlink:title=" ">
<path fill="none" stroke="#63b8ff" d="M853.03,-281.48C837.17,-276.84 820.29,-271.9 805.04,-267.44"/>
<polygon fill="#63b8ff" stroke="#63b8ff" points="851.77,-284.75 862.35,-284.2 853.73,-278.04 851.77,-284.75"/>
</a>
</g>
</g>
<!-- Node8 -->
<g id="Node000008" class="node">
<title>Node8</title>
<g id="a_Node000008"><a xlink:href="classSimulation_1_1SimulationUnit.html#a96e8f3fbde370c918a3710b0b910cd42" target="_top" xlink:title=" ">
<polygon fill="white" stroke="#666666" points="466.5,-265 335,-265 335,-236 466.5,-236 466.5,-265"/>
<text xml:space="preserve" text-anchor="start" x="343" y="-251.5" font-family="Helvetica,sans-Serif" font-size="10.00">Simulation::SimulationUnit</text>
<text xml:space="preserve" text-anchor="middle" x="400.75" y="-241" font-family="Helvetica,sans-Serif" font-size="10.00">::post_cycle</text>
</a>
</g>
</g>
<!-- Node7&#45;&gt;Node8 -->
<g id="edge7_Node000007_Node000008" class="edge">
<title>Node7&#45;&gt;Node8</title>
<g id="a_edge7_Node000007_Node000008"><a xlink:title=" ">
<path fill="none" stroke="#63b8ff" d="M691.29,-319.79C689.38,-320.96 687.53,-322.2 685.75,-323.5 664.53,-339.05 673.34,-358.85 649.75,-370.5 591.07,-399.47 561.82,-398.15 502.5,-370.5 455.16,-348.43 422.16,-291.97 408.62,-265.11"/>
<polygon fill="#63b8ff" stroke="#63b8ff" points="692.78,-322.96 699.91,-315.13 689.45,-316.8 692.78,-322.96"/>
</a>
</g>
</g>
<!-- Node9 -->
<g id="Node000009" class="node">
<title>Node9</title>
<g id="a_Node000009"><a xlink:href="classSimulation_1_1SimulationUnit.html#a5512cea54affc3eb0c16380d973348e5" target="_top" xlink:title=" ">
<polygon fill="white" stroke="#666666" points="299,-265 167.5,-265 167.5,-236 299,-236 299,-265"/>
<text xml:space="preserve" text-anchor="start" x="175.5" y="-251.5" font-family="Helvetica,sans-Serif" font-size="10.00">Simulation::SimulationUnit</text>
<text xml:space="preserve" text-anchor="middle" x="233.25" y="-241" font-family="Helvetica,sans-Serif" font-size="10.00">::cycleProcess</text>
</a>
</g>
</g>
<!-- Node8&#45;&gt;Node9 -->
<g id="edge8_Node000008_Node000009" class="edge">
<title>Node8&#45;&gt;Node9</title>
<g id="a_edge8_Node000008_Node000009"><a xlink:title=" ">
<path fill="none" stroke="#63b8ff" d="M323.47,-250.5C315.38,-250.5 307.21,-250.5 299.27,-250.5"/>
<polygon fill="#63b8ff" stroke="#63b8ff" points="323.3,-254 333.3,-250.5 323.3,-247 323.3,-254"/>
</a>
</g>
</g>
<!-- Node10 -->
<g id="Node000010" class="node">
<title>Node10</title>
<g id="a_Node000010"><a xlink:href="classSimulation_1_1SimulationUnit.html#a255b9ef06424a104581e8aab290e8281" target="_top" xlink:title=" ">
<polygon fill="white" stroke="#666666" points="131.5,-265 0,-265 0,-236 131.5,-236 131.5,-265"/>
<text xml:space="preserve" text-anchor="start" x="8" y="-251.5" font-family="Helvetica,sans-Serif" font-size="10.00">Simulation::SimulationUnit</text>
<text xml:space="preserve" text-anchor="middle" x="65.75" y="-241" font-family="Helvetica,sans-Serif" font-size="10.00">::operator=</text>
</a>
</g>
</g>
<!-- Node9&#45;&gt;Node10 -->
<g id="edge9_Node000009_Node000010" class="edge">
<title>Node9&#45;&gt;Node10</title>
<g id="a_edge9_Node000009_Node000010"><a xlink:title=" ">
<path fill="none" stroke="#63b8ff" d="M155.97,-250.5C147.88,-250.5 139.71,-250.5 131.77,-250.5"/>
<polygon fill="#63b8ff" stroke="#63b8ff" points="155.8,-254 165.8,-250.5 155.8,-247 155.8,-254"/>
</a>
</g>
</g>
<!-- Node12 -->
<g id="Node000012" class="node">
<title>Node12</title>
<g id="a_Node000012"><a xlink:href="classMC_1_1ParticlesContainer.html#ad499de971fbe1a2cf3e1adbe2bb151d6" target="_top" xlink:title=" ">
<polygon fill="white" stroke="#666666" points="635.5,-173 516.75,-173 516.75,-144 635.5,-144 635.5,-173"/>
<text xml:space="preserve" text-anchor="start" x="524.75" y="-159.5" font-family="Helvetica,sans-Serif" font-size="10.00">MC::ParticlesContainer</text>
<text xml:space="preserve" text-anchor="middle" x="576.12" y="-149" font-family="Helvetica,sans-Serif" font-size="10.00">::operator=</text>
</a>
</g>
</g>
<!-- Node11&#45;&gt;Node12 -->
<g id="edge11_Node000011_Node000012" class="edge">
<title>Node11&#45;&gt;Node12</title>
<g id="a_edge11_Node000011_Node000012"><a xlink:title=" ">
<path fill="none" stroke="#63b8ff" d="M724.7,-230.66C704.82,-215.57 676.76,-195.87 649.75,-182.5 642.97,-179.14 635.6,-176.09 628.26,-173.37"/>
<polygon fill="#63b8ff" stroke="#63b8ff" points="722.51,-233.39 732.57,-236.73 726.79,-227.85 722.51,-233.39"/>
</a>
</g>
</g>
<!-- Node13 -->
<g id="Node000013" class="node">
<title>Node13</title>
<g id="a_Node000013"><a xlink:href="classMC_1_1ParticlesContainer.html#a5d93b87f5a6e18c449e0ed62333e9d6e" target="_top" xlink:title=" ">
<polygon fill="white" stroke="#666666" points="635.5,-361 516.75,-361 516.75,-332 635.5,-332 635.5,-361"/>
<text xml:space="preserve" text-anchor="start" x="524.75" y="-347.5" font-family="Helvetica,sans-Serif" font-size="10.00">MC::ParticlesContainer</text>
<text xml:space="preserve" text-anchor="middle" x="576.12" y="-337" font-family="Helvetica,sans-Serif" font-size="10.00">::operator=</text>
</a>
</g>
</g>
<!-- Node11&#45;&gt;Node13 -->
<g id="edge12_Node000011_Node000013" class="edge">
<title>Node11&#45;&gt;Node13</title>
<g id="a_edge12_Node000011_Node000013"><a xlink:title=" ">
<path fill="none" stroke="#63b8ff" d="M691.29,-272.79C689.38,-273.96 687.53,-275.2 685.75,-276.5 664.53,-292.05 671.29,-308.38 649.75,-323.5 645.31,-326.61 640.43,-329.32 635.37,-331.67"/>
<polygon fill="#63b8ff" stroke="#63b8ff" points="692.78,-275.96 699.91,-268.13 689.45,-269.8 692.78,-275.96"/>
</a>
</g>
</g>
<!-- Node14 -->
<g id="Node000014" class="node">
<title>Node14</title>
<g id="a_Node000014"><a xlink:href="classMC_1_1ParticlesContainer.html#a5b4a66b67d3b4942557b22538958480a" target="_top" xlink:title=" ">
<polygon fill="white" stroke="#666666" points="635.5,-314 516.75,-314 516.75,-285 635.5,-285 635.5,-314"/>
<text xml:space="preserve" text-anchor="start" x="524.75" y="-300.5" font-family="Helvetica,sans-Serif" font-size="10.00">MC::ParticlesContainer</text>
<text xml:space="preserve" text-anchor="middle" x="576.12" y="-290" font-family="Helvetica,sans-Serif" font-size="10.00">::ParticlesContainer</text>
</a>
</g>
</g>
<!-- Node11&#45;&gt;Node14 -->
<g id="edge13_Node000011_Node000014" class="edge">
<title>Node11&#45;&gt;Node14</title>
<g id="a_edge13_Node000011_Node000014"><a xlink:title=" ">
<path fill="none" stroke="#63b8ff" d="M685.93,-270.26C668.39,-274.97 649.62,-280.02 632.7,-284.56"/>
<polygon fill="#63b8ff" stroke="#63b8ff" points="686.46,-273.74 695.21,-267.76 684.64,-266.98 686.46,-273.74"/>
</a>
</g>
</g>
<!-- Node15 -->
<g id="Node000015" class="node">
<title>Node15</title>
<g id="a_Node000015"><a xlink:href="classMC_1_1ParticlesContainer.html#adacba063d362632ca0899bae750b628a" target="_top" xlink:title="Default copy and move constructors and assignment operators.">
<polygon fill="white" stroke="#666666" points="635.5,-267 516.75,-267 516.75,-238 635.5,-238 635.5,-267"/>
<text xml:space="preserve" text-anchor="start" x="524.75" y="-253.5" font-family="Helvetica,sans-Serif" font-size="10.00">MC::ParticlesContainer</text>
<text xml:space="preserve" text-anchor="middle" x="576.12" y="-243" font-family="Helvetica,sans-Serif" font-size="10.00">::ParticlesContainer</text>
</a>
</g>
</g>
<!-- Node11&#45;&gt;Node15 -->
<g id="edge14_Node000011_Node000015" class="edge">
<title>Node11&#45;&gt;Node15</title>
<g id="a_edge14_Node000011_Node000015"><a xlink:title=" ">
<path fill="none" stroke="#63b8ff" d="M681.83,-252.5C666.63,-252.5 650.7,-252.5 635.99,-252.5"/>
<polygon fill="#63b8ff" stroke="#63b8ff" points="681.77,-256 691.77,-252.5 681.77,-249 681.77,-256"/>
</a>
</g>
</g>
<!-- Node16 -->
<g id="Node000016" class="node">
<title>Node16</title>
<g id="a_Node000016"><a xlink:href="classMC_1_1ParticlesContainer.html#ae0cd8cf83c2728db495167ec2f10d80a" target="_top" xlink:title=" ">
<polygon fill="white" stroke="#666666" points="635.5,-220 516.75,-220 516.75,-191 635.5,-191 635.5,-220"/>
<text xml:space="preserve" text-anchor="start" x="524.75" y="-206.5" font-family="Helvetica,sans-Serif" font-size="10.00">MC::ParticlesContainer</text>
<text xml:space="preserve" text-anchor="middle" x="576.12" y="-196" font-family="Helvetica,sans-Serif" font-size="10.00">::ParticlesContainer</text>
</a>
</g>
</g>
<!-- Node11&#45;&gt;Node16 -->
<g id="edge15_Node000011_Node000016" class="edge">
<title>Node11&#45;&gt;Node16</title>
<g id="a_edge15_Node000011_Node000016"><a xlink:title=" ">
<path fill="none" stroke="#63b8ff" d="M685.93,-234.74C668.39,-230.03 649.62,-224.98 632.7,-220.44"/>
<polygon fill="#63b8ff" stroke="#63b8ff" points="684.64,-238.02 695.21,-237.24 686.46,-231.26 684.64,-238.02"/>
</a>
</g>
</g>
<!-- Node17&#45;&gt;Node7 -->
<g id="edge17_Node000017_Node000007" class="edge">
<title>Node17&#45;&gt;Node7</title>
<g id="a_edge17_Node000017_Node000007"><a xlink:title=" ">
<path fill="none" stroke="#63b8ff" d="M853.03,-270.52C837.17,-275.16 820.29,-280.1 805.04,-284.56"/>
<polygon fill="#63b8ff" stroke="#63b8ff" points="853.73,-273.96 862.35,-267.8 851.77,-267.25 853.73,-273.96"/>
</a>
</g>
</g>
<!-- Node17&#45;&gt;Node11 -->
<g id="edge18_Node000017_Node000011" class="edge">
<title>Node17&#45;&gt;Node11</title>
<g id="a_edge18_Node000017_Node000011"><a xlink:title=" ">
<path fill="none" stroke="#63b8ff" d="M844.72,-252.5C834.03,-252.5 823.09,-252.5 812.67,-252.5"/>
<polygon fill="#63b8ff" stroke="#63b8ff" points="844.67,-256 854.67,-252.5 844.67,-249 844.67,-256"/>
</a>
</g>
</g>
<!-- Node18 -->
<g id="Node000018" class="node">
<title>Node18</title>
<g id="a_Node000018"><a xlink:href="classMC_1_1ParticlesContainer.html#a57353f823ed074869300f29deb5c50b2" target="_top" xlink:title="Removes inactive particles from the container.">
<polygon fill="white" stroke="#666666" points="820.25,-126 685.75,-126 685.75,-97 820.25,-97 820.25,-126"/>
<text xml:space="preserve" text-anchor="start" x="693.75" y="-112.5" font-family="Helvetica,sans-Serif" font-size="10.00">MC::ParticlesContainer</text>
<text xml:space="preserve" text-anchor="middle" x="753" y="-102" font-family="Helvetica,sans-Serif" font-size="10.00">::remove_inactive_particles</text>
</a>
</g>
</g>
<!-- Node17&#45;&gt;Node18 -->
<g id="edge19_Node000017_Node000018" class="edge">
<title>Node17&#45;&gt;Node18</title>
<g id="a_edge19_Node000017_Node000018"><a xlink:title=" ">
<path fill="none" stroke="#63b8ff" d="M889.47,-230.42C856.31,-201.31 798.9,-150.91 770.66,-126.12"/>
<polygon fill="#63b8ff" stroke="#63b8ff" points="886.78,-232.71 896.6,-236.68 891.4,-227.45 886.78,-232.71"/>
</a>
</g>
</g>
<!-- Node19 -->
<g id="Node000019" class="node">
<title>Node19</title>
<g id="a_Node000019"><a xlink:href="classMC_1_1ParticlesContainer.html#a25d64f06c6f66817bc15bac225369a63" target="_top" xlink:title="Clean all the non&#45;idle particle even if number smaller than threshold.">
<polygon fill="white" stroke="#666666" points="635.5,-79 516.75,-79 516.75,-50 635.5,-50 635.5,-79"/>
<text xml:space="preserve" text-anchor="start" x="524.75" y="-65.5" font-family="Helvetica,sans-Serif" font-size="10.00">MC::ParticlesContainer</text>
<text xml:space="preserve" text-anchor="middle" x="576.12" y="-55" font-family="Helvetica,sans-Serif" font-size="10.00">::force_remove_dead</text>
</a>
</g>
</g>
<!-- Node18&#45;&gt;Node19 -->
<g id="edge20_Node000018_Node000019" class="edge">
<title>Node18&#45;&gt;Node19</title>
<g id="a_edge20_Node000018_Node000019"><a xlink:title=" ">
<path fill="none" stroke="#63b8ff" d="M685.93,-93.74C668.39,-89.03 649.62,-83.98 632.7,-79.44"/>
<polygon fill="#63b8ff" stroke="#63b8ff" points="684.64,-97.02 695.21,-96.24 686.46,-90.26 684.64,-97.02"/>
</a>
</g>
</g>
<!-- Node21 -->
<g id="Node000021" class="node">
<title>Node21</title>
<g id="a_Node000021"><a xlink:href="classMC_1_1ParticlesContainer.html#a0047f4c96b02ae4aeb9ebd8963129687" target="_top" xlink:title="Update the number of non&#45;idle particle and remove if total number exceeds threshold May call : remove...">
<polygon fill="white" stroke="#666666" points="649.75,-126 502.5,-126 502.5,-97 649.75,-97 649.75,-126"/>
<text xml:space="preserve" text-anchor="start" x="510.5" y="-112.5" font-family="Helvetica,sans-Serif" font-size="10.00">MC::ParticlesContainer</text>
<text xml:space="preserve" text-anchor="middle" x="576.12" y="-102" font-family="Helvetica,sans-Serif" font-size="10.00">::update_and_remove_inactive</text>
</a>
</g>
</g>
<!-- Node18&#45;&gt;Node21 -->
<g id="edge22_Node000018_Node000021" class="edge">
<title>Node18&#45;&gt;Node21</title>
<g id="a_edge22_Node000018_Node000021"><a xlink:title=" ">
<path fill="none" stroke="#63b8ff" d="M674.13,-111.5C666.09,-111.5 657.95,-111.5 649.97,-111.5"/>
<polygon fill="#63b8ff" stroke="#63b8ff" points="673.87,-115 683.87,-111.5 673.87,-108 673.87,-115"/>
</a>
</g>
</g>
<!-- Node20 -->
<g id="Node000020" class="node">
<title>Node20</title>
<g id="a_Node000020"><a xlink:href="namespacePostProcessing.html#a5c1775fa34193199d9c989e5740e2f84" target="_top" xlink:title=" ">
<polygon fill="white" stroke="#666666" points="453,-79 348.5,-79 348.5,-50 453,-50 453,-79"/>
<text xml:space="preserve" text-anchor="start" x="356.5" y="-65.5" font-family="Helvetica,sans-Serif" font-size="10.00">PostProcessing::get</text>
<text xml:space="preserve" text-anchor="middle" x="400.75" y="-55" font-family="Helvetica,sans-Serif" font-size="10.00">_properties</text>
</a>
</g>
</g>
<!-- Node19&#45;&gt;Node20 -->
<g id="edge21_Node000019_Node000020" class="edge">
<title>Node19&#45;&gt;Node20</title>
<g id="a_edge21_Node000019_Node000020"><a xlink:title=" ">
<path fill="none" stroke="#63b8ff" d="M505.22,-64.5C487.91,-64.5 469.68,-64.5 453.42,-64.5"/>
<polygon fill="#63b8ff" stroke="#63b8ff" points="504.91,-68 514.91,-64.5 504.91,-61 504.91,-68"/>
</a>
</g>
</g>
<!-- Node21&#45;&gt;Node8 -->
<g id="edge23_Node000021_Node000008" class="edge">
<title>Node21&#45;&gt;Node8</title>
<g id="a_edge23_Node000021_Node000008"><a xlink:title=" ">
<path fill="none" stroke="#63b8ff" d="M509.08,-131.52C506.82,-132.77 504.61,-134.1 502.5,-135.5 461.35,-162.77 426.81,-211.12 411,-235.52"/>
<polygon fill="#63b8ff" stroke="#63b8ff" points="510.56,-134.7 517.99,-127.14 507.47,-128.41 510.56,-134.7"/>
</a>
</g>
</g>
<!-- Node24 -->
<g id="Node000024" class="node">
<title>Node24</title>
<g id="a_Node000024"><a xlink:href="structSimulation_1_1KernelInline_1_1CycleFunctors.html#ad2fc32bf23892ce86533e9f069051003" target="_top" xlink:title=" ">
<polygon fill="white" stroke="#666666" points="1159.75,-139 1011,-139 1011,-110 1159.75,-110 1159.75,-139"/>
<text xml:space="preserve" text-anchor="start" x="1019" y="-125.5" font-family="Helvetica,sans-Serif" font-size="10.00">Simulation::KernelInline</text>
<text xml:space="preserve" text-anchor="middle" x="1085.38" y="-115" font-family="Helvetica,sans-Serif" font-size="10.00">::CycleFunctors::launch_move</text>
</a>
</g>
</g>
<!-- Node23&#45;&gt;Node24 -->
<g id="edge26_Node000023_Node000024" class="edge">
<title>Node23&#45;&gt;Node24</title>
<g id="a_edge26_Node000023_Node000024"><a xlink:title=" ">
<path fill="none" stroke="#63b8ff" d="M1200.31,-160.37C1178.07,-153.36 1154.02,-145.79 1133.78,-139.42"/>
<polygon fill="#63b8ff" stroke="#63b8ff" points="1199.03,-163.63 1209.62,-163.29 1201.13,-156.95 1199.03,-163.63"/>
</a>
</g>
</g>
<!-- Node26&#45;&gt;Node24 -->
<g id="edge29_Node000026_Node000024" class="edge">
<title>Node26&#45;&gt;Node24</title>
<g id="a_edge29_Node000026_Node000024"><a xlink:title=" ">
<path fill="none" stroke="#63b8ff" d="M1199.77,-124.5C1186.72,-124.5 1173.06,-124.5 1159.93,-124.5"/>
<polygon fill="#63b8ff" stroke="#63b8ff" points="1199.55,-128 1209.55,-124.5 1199.55,-121 1199.55,-128"/>
</a>
</g>
</g>
<!-- Node27&#45;&gt;Node24 -->
<g id="edge31_Node000027_Node000024" class="edge">
<title>Node27&#45;&gt;Node24</title>
<g id="a_edge31_Node000027_Node000024"><a xlink:title=" ">
<path fill="none" stroke="#63b8ff" d="M1200.31,-88.63C1178.07,-95.64 1154.02,-103.21 1133.78,-109.58"/>
<polygon fill="#63b8ff" stroke="#63b8ff" points="1201.13,-92.05 1209.62,-85.71 1199.03,-85.37 1201.13,-92.05"/>
</a>
</g>
</g>
</g>
</svg>

<g id="navigator" transform="translate(0 0)" fill="#404254">
  <rect fill="#f2f5e9" fill-opacity="0.5" stroke="#606060" stroke-width=".5" x="0" y="0" width="60" height="60"/>
  <use id="zoomplus" xlink:href="#zoomPlus" x="17" y="9" onmousedown="handleZoom(evt,'in')"/>
  <use id="zoomminus" xlink:href="#zoomMin" x="42" y="9" onmousedown="handleZoom(evt,'out')"/>
  <use id="reset" xlink:href="#resetDef" x="30" y="36" onmousedown="handleReset()"/>
   <use id="arrowup" xlink:href="#arrowUp" x="0" y="0" onmousedown="handlePan(0,-1)"/>
  <use id="arrowright" xlink:href="#arrowRight" x="0" y="0" onmousedown="handlePan(1,0)"/>
  <use id="arrowdown" xlink:href="#arrowDown" x="0" y="0" onmousedown="handlePan(0,1)"/>
  <use id="arrowleft" xlink:href="#arrowLeft" x="0" y="0" onmousedown="handlePan(-1,0)"/>
</g>
<svg viewBox="0 0 15 15" width="100%" height="30px" preserveAspectRatio="xMaxYMin meet">
 <g id="arrow_out" transform="scale(0.3 0.3)">
  <a xlink:href="namespaceCommon_aef3f5fadf729a92859657cacc3ab9f53_icgraph_org.svg" target="_base">
   <rect id="button" ry="5" rx="5" y="6" x="6" height="38" width="38"
        fill="#f2f5e9" fill-opacity="0.5" stroke="#606060" stroke-width="1.0"/>
   <path id="arrow"
     d="M 11.500037,31.436501 C 11.940474,20.09759 22.043105,11.32322 32.158766,21.979434 L 37.068811,17.246167 C 37.068811,17.246167 37.088388,32 37.088388,32 L 22.160133,31.978069 C 22.160133,31.978069 26.997745,27.140456 26.997745,27.140456 C 18.528582,18.264221 13.291696,25.230495 11.500037,31.436501 z"
     style="fill:#404040;"/>
  </a>
 </g>
</svg>

<style type='text/css'>
<![CDATA[
[data-mouse-over-selected='false'] { opacity: 0.7; }
[data-mouse-over-selected='true']  { opacity: 1.0; }
]]>
</style>
<script type="application/ecmascript"><![CDATA[
document.addEventListener('DOMContentLoaded', (event) => {
  highlightEdges();
  highlightAdjacentNodes();
});
]]></script>
</svg>
