<?xml version="1.0" encoding="UTF-8" standalone="no"?>
<!DOCTYPE svg PUBLIC "-//W3C//DTD SVG 1.1//EN"
 "http://www.w3.org/Graphics/SVG/1.1/DTD/svg11.dtd">
<!-- Generated by graphviz version 14.0.1 (0)
 -->
<!-- Title: PostProcessing::get_properties Pages: 1 -->
<svg width="593pt" height="105pt"
 viewBox="0.00 0.00 593.00 105.00" xmlns="http://www.w3.org/2000/svg" xmlns:xlink="http://www.w3.org/1999/xlink">
<g id="graph0" class="graph" transform="scale(1 1) rotate(0) translate(4 101)">
<title>PostProcessing::get_properties</title>
<!-- Node1 -->
<g id="Node000001" class="node">
<title>Node1</title>
<g id="a_Node000001"><a xlink:title=" ">
<polygon fill="#999999" stroke="#666666" points="104.5,-50 0,-50 0,-21 104.5,-21 104.5,-50"/>
<text xml:space="preserve" text-anchor="start" x="8" y="-36.5" font-family="Helvetica,sans-Serif" font-size="10.00">PostProcessing::get</text>
<text xml:space="preserve" text-anchor="middle" x="52.25" y="-26" font-family="Helvetica,sans-Serif" font-size="10.00">_properties</text>
</a>
</g>
</g>
<!-- Node2 -->
<g id="Node000002" class="node">
<title>Node2</title>
<g id="a_Node000002"><a xlink:href="classMC_1_1ParticlesContainer.html#a25d64f06c6f66817bc15bac225369a63" target="_top" xlink:title="Clean all the non&#45;idle particle even if number smaller than threshold.">
<polygon fill="white" stroke="#666666" points="259.25,-97 140.5,-97 140.5,-68 259.25,-68 259.25,-97"/>
<text xml:space="preserve" text-anchor="start" x="148.5" y="-83.5" font-family="Helvetica,sans-Serif" font-size="10.00">MC::ParticlesContainer</text>
<text xml:space="preserve" text-anchor="middle" x="199.88" y="-73" font-family="Helvetica,sans-Serif" font-size="10.00">::force_remove_dead</text>
</a>
</g>
</g>
<!-- Node1&#45;&gt;Node2 -->
<g id="edge1_Node000001_Node000002" class="edge">
<title>Node1&#45;&gt;Node2</title>
<g id="a_edge1_Node000001_Node000002"><a xlink:title=" ">
<path fill="none" stroke="#63b8ff" d="M99.33,-50.37C112.87,-54.74 127.85,-59.58 141.99,-64.14"/>
<polygon fill="#63b8ff" stroke="#63b8ff" points="140.57,-67.36 151.16,-67.1 142.72,-60.7 140.57,-67.36"/>
</a>
</g>
</g>
<!-- Node5 -->
<g id="Node000005" class="node">
<title>Node5</title>
<g id="a_Node000005"><a xlink:href="namespacePostProcessing.html#a80f3f8d7143933b6b2d9e58ff0de40d8" target="_top" xlink:title=" ">
<polygon fill="white" stroke="#666666" points="252.12,-50 147.62,-50 147.62,-21 252.12,-21 252.12,-50"/>
<text xml:space="preserve" text-anchor="start" x="155.62" y="-36.5" font-family="Helvetica,sans-Serif" font-size="10.00">PostProcessing::get</text>
<text xml:space="preserve" text-anchor="middle" x="199.88" y="-26" font-family="Helvetica,sans-Serif" font-size="10.00">_particle_age_only</text>
</a>
</g>
</g>
<!-- Node1&#45;&gt;Node5 -->
<g id="edge4_Node000001_Node000005" class="edge">
<title>Node1&#45;&gt;Node5</title>
<g id="a_edge4_Node000001_Node000005"><a xlink:title=" ">
<path fill="none" stroke="#63b8ff" d="M104.59,-35.5C114.82,-35.5 125.66,-35.5 136.21,-35.5"/>
<polygon fill="#63b8ff" stroke="#63b8ff" points="135.99,-39 145.99,-35.5 135.99,-32 135.99,-39"/>
</a>
</g>
</g>
<!-- Node6 -->
<g id="Node000006" class="node">
<title>Node6</title>
<g id="a_Node000006"><a xlink:href="classMC_1_1ParticlesContainer.html#a30b264e87ae019596f9791f2fc60d52f" target="_top" xlink:title="Gets the number of particles in the container.">
<polygon fill="white" stroke="#666666" points="421.88,-29 303.12,-29 303.12,0 421.88,0 421.88,-29"/>
<text xml:space="preserve" text-anchor="start" x="311.12" y="-15.5" font-family="Helvetica,sans-Serif" font-size="10.00">MC::ParticlesContainer</text>
<text xml:space="preserve" text-anchor="middle" x="362.5" y="-5" font-family="Helvetica,sans-Serif" font-size="10.00">::n_particles</text>
</a>
</g>
</g>
<!-- Node1&#45;&gt;Node6 -->
<g id="edge6_Node000001_Node000006" class="edge">
<title>Node1&#45;&gt;Node6</title>
<g id="a_edge6_Node000001_Node000006"><a xlink:title=" ">
<path fill="none" stroke="#63b8ff" d="M100.81,-20.59C113.57,-17.25 127.45,-14.19 140.5,-12.5 190.8,-5.98 248.08,-6.73 291.72,-8.97"/>
<polygon fill="#63b8ff" stroke="#63b8ff" points="291.38,-12.46 301.56,-9.52 291.77,-5.47 291.38,-12.46"/>
</a>
</g>
</g>
<!-- Node3 -->
<g id="Node000003" class="node">
<title>Node3</title>
<g id="a_Node000003"><a xlink:href="classMC_1_1ParticlesContainer.html#a57353f823ed074869300f29deb5c50b2" target="_top" xlink:title="Removes inactive particles from the container.">
<polygon fill="white" stroke="#666666" points="429.75,-97 295.25,-97 295.25,-68 429.75,-68 429.75,-97"/>
<text xml:space="preserve" text-anchor="start" x="303.25" y="-83.5" font-family="Helvetica,sans-Serif" font-size="10.00">MC::ParticlesContainer</text>
<text xml:space="preserve" text-anchor="middle" x="362.5" y="-73" font-family="Helvetica,sans-Serif" font-size="10.00">::remove_inactive_particles</text>
</a>
</g>
</g>
<!-- Node2&#45;&gt;Node3 -->
<g id="edge2_Node000002_Node000003" class="edge">
<title>Node2&#45;&gt;Node3</title>
<g id="a_edge2_Node000002_Node000003"><a xlink:title=" ">
<path fill="none" stroke="#63b8ff" d="M259.32,-82.5C267.18,-82.5 275.35,-82.5 283.49,-82.5"/>
<polygon fill="#63b8ff" stroke="#63b8ff" points="283.42,-86 293.42,-82.5 283.42,-79 283.42,-86"/>
</a>
</g>
</g>
<!-- Node4 -->
<g id="Node000004" class="node">
<title>Node4</title>
<g id="a_Node000004"><a xlink:href="classMC_1_1ParticlesContainer.html#a4fc94ae525191a5d034dce4866986c1e" target="_top" xlink:title=" ">
<polygon fill="white" stroke="#666666" points="584.5,-97 465.75,-97 465.75,-68 584.5,-68 584.5,-97"/>
<text xml:space="preserve" text-anchor="start" x="473.75" y="-83.5" font-family="Helvetica,sans-Serif" font-size="10.00">MC::ParticlesContainer</text>
<text xml:space="preserve" text-anchor="middle" x="525.12" y="-73" font-family="Helvetica,sans-Serif" font-size="10.00">::_resize</text>
</a>
</g>
</g>
<!-- Node3&#45;&gt;Node4 -->
<g id="edge3_Node000003_Node000004" class="edge">
<title>Node3&#45;&gt;Node4</title>
<g id="a_edge3_Node000003_Node000004"><a xlink:title=" ">
<path fill="none" stroke="#63b8ff" d="M430.22,-82.5C438.04,-82.5 446.04,-82.5 453.9,-82.5"/>
<polygon fill="#63b8ff" stroke="#63b8ff" points="453.78,-86 463.78,-82.5 453.78,-79 453.78,-86"/>
</a>
</g>
</g>
<!-- Node5&#45;&gt;Node6 -->
<g id="edge5_Node000005_Node000006" class="edge">
<title>Node5&#45;&gt;Node6</title>
<g id="a_edge5_Node000005_Node000006"><a xlink:title=" ">
<path fill="none" stroke="#63b8ff" d="M252.58,-28.74C264.92,-27.13 278.3,-25.38 291.32,-23.68"/>
<polygon fill="#63b8ff" stroke="#63b8ff" points="291.67,-27.16 301.13,-22.39 290.76,-20.22 291.67,-27.16"/>
</a>
</g>
</g>
</g>
</svg>
