<?xml version="1.0" encoding="UTF-8" standalone="no"?>
<!DOCTYPE svg PUBLIC "-//W3C//DTD SVG 1.1//EN"
 "http://www.w3.org/Graphics/SVG/1.1/DTD/svg11.dtd">
<!-- Generated by graphviz version 14.0.1 (0)
 -->
<!-- Title: IO::format Pages: 1 -->
<svg width="379pt" height="340pt"
 viewBox="0.00 0.00 379.00 340.00" xmlns="http://www.w3.org/2000/svg" xmlns:xlink="http://www.w3.org/1999/xlink">
<g id="graph0" class="graph" transform="scale(1 1) rotate(0) translate(4 336)">
<title>IO::format</title>
<!-- Node1 -->
<g id="Node000001" class="node">
<title>Node1</title>
<g id="a_Node000001"><a xlink:title=" ">
<polygon fill="#999999" stroke="#666666" points="371.25,-140.75 311,-140.75 311,-122.25 371.25,-122.25 371.25,-140.75"/>
<text xml:space="preserve" text-anchor="middle" x="341.12" y="-127.25" font-family="Helvetica,sans-Serif" font-size="10.00">IO::format</text>
</a>
</g>
</g>
<!-- Node2 -->
<g id="Node000002" class="node">
<title>Node2</title>
<g id="a_Node000002"><a xlink:href="classCore_1_1GlobalInitialiser.html#af0e3ff388be6a2cb08edf9f69dd200b0" target="_top" xlink:title="Checks if all initialization steps have been validated.">
<polygon fill="white" stroke="#666666" points="271.25,-295 159.25,-295 159.25,-266 271.25,-266 271.25,-295"/>
<text xml:space="preserve" text-anchor="start" x="167.25" y="-281.5" font-family="Helvetica,sans-Serif" font-size="10.00">Core::GlobalInitialiser</text>
<text xml:space="preserve" text-anchor="middle" x="215.25" y="-271" font-family="Helvetica,sans-Serif" font-size="10.00">::check_init_terminate</text>
</a>
</g>
</g>
<!-- Node1&#45;&gt;Node2 -->
<g id="edge1_Node000001_Node000002" class="edge">
<title>Node1&#45;&gt;Node2</title>
<g id="a_edge1_Node000001_Node000002"><a xlink:title=" ">
<path fill="none" stroke="#63b8ff" d="M327.12,-150.52C314.44,-168.72 294.29,-196.69 275,-219.5 260.95,-236.12 243.51,-253.91 231.29,-265.96"/>
<polygon fill="#63b8ff" stroke="#63b8ff" points="330,-152.52 332.8,-142.3 324.24,-148.54 330,-152.52"/>
</a>
</g>
</g>
<!-- Node4 -->
<g id="Node000004" class="node">
<title>Node4</title>
<g id="a_Node000004"><a xlink:href="classIO_1_1Console.html#ad8e8490ed0b1b321bb75e9702c32fb8a" target="_top" xlink:title=" ">
<polygon fill="white" stroke="#666666" points="270.5,-210.75 160,-210.75 160,-192.25 270.5,-192.25 270.5,-210.75"/>
<text xml:space="preserve" text-anchor="middle" x="215.25" y="-197.25" font-family="Helvetica,sans-Serif" font-size="10.00">IO::Console::Console</text>
</a>
</g>
</g>
<!-- Node1&#45;&gt;Node4 -->
<g id="edge3_Node000001_Node000004" class="edge">
<title>Node1&#45;&gt;Node4</title>
<g id="a_edge3_Node000001_Node000004"><a xlink:title=" ">
<path fill="none" stroke="#63b8ff" d="M320.64,-148.09C308.18,-158.13 291.33,-170.65 275,-179.5 266.19,-184.28 256.13,-188.46 246.85,-191.86"/>
<polygon fill="#63b8ff" stroke="#63b8ff" points="322.58,-151.03 328.07,-141.97 318.13,-145.63 322.58,-151.03"/>
</a>
</g>
</g>
<!-- Node9 -->
<g id="Node000009" class="node">
<title>Node9</title>
<g id="a_Node000009"><a xlink:href="structApi_1_1SimulationInstance.html#a3f04372728be84263fb69f5773ca5bd5" target="_top" xlink:title="Execute the simulation.">
<polygon fill="white" stroke="#666666" points="275,-170 155.5,-170 155.5,-141 275,-141 275,-170"/>
<text xml:space="preserve" text-anchor="start" x="163.5" y="-156.5" font-family="Helvetica,sans-Serif" font-size="10.00">Api::SimulationInstance</text>
<text xml:space="preserve" text-anchor="middle" x="215.25" y="-146" font-family="Helvetica,sans-Serif" font-size="10.00">::exec</text>
</a>
</g>
</g>
<!-- Node1&#45;&gt;Node9 -->
<g id="edge8_Node000001_Node000009" class="edge">
<title>Node1&#45;&gt;Node9</title>
<g id="a_edge8_Node000001_Node000009"><a xlink:title=" ">
<path fill="none" stroke="#63b8ff" d="M299.69,-139.33C291.81,-140.86 283.41,-142.49 275.09,-144.1"/>
<polygon fill="#63b8ff" stroke="#63b8ff" points="300.13,-142.81 309.28,-137.48 298.8,-135.94 300.13,-142.81"/>
</a>
</g>
</g>
<!-- Node11 -->
<g id="Node000011" class="node">
<title>Node11</title>
<g id="a_Node000011"><a xlink:href="namespacePostProcessing.html#afbff253eb23a3c39d46b760425ad5ded" target="_top" xlink:title=" ">
<polygon fill="white" stroke="#666666" points="269.75,-123 160.75,-123 160.75,-94 269.75,-94 269.75,-123"/>
<text xml:space="preserve" text-anchor="start" x="168.75" y="-109.5" font-family="Helvetica,sans-Serif" font-size="10.00">PostProcessing::final</text>
<text xml:space="preserve" text-anchor="middle" x="215.25" y="-99" font-family="Helvetica,sans-Serif" font-size="10.00">_post_processing</text>
</a>
</g>
</g>
<!-- Node1&#45;&gt;Node11 -->
<g id="edge10_Node000001_Node000011" class="edge">
<title>Node1&#45;&gt;Node11</title>
<g id="a_edge10_Node000001_Node000011"><a xlink:title=" ">
<path fill="none" stroke="#63b8ff" d="M299.7,-123.99C290.27,-122.24 280.07,-120.35 270.15,-118.51"/>
<polygon fill="#63b8ff" stroke="#63b8ff" points="298.81,-127.39 309.28,-125.77 300.09,-120.51 298.81,-127.39"/>
</a>
</g>
</g>
<!-- Node12 -->
<g id="Node000012" class="node">
<title>Node12</title>
<g id="a_Node000012"><a xlink:href="classCore_1_1GlobalInitialiser.html#a980172ba3bb45d1eaac97d447b87bd4e" target="_top" xlink:title="Initializes a flow iterator.">
<polygon fill="white" stroke="#666666" points="270.12,-76 160.38,-76 160.38,-47 270.12,-47 270.12,-76"/>
<text xml:space="preserve" text-anchor="start" x="168.38" y="-62.5" font-family="Helvetica,sans-Serif" font-size="10.00">Core::GlobalInitialiser</text>
<text xml:space="preserve" text-anchor="middle" x="215.25" y="-52" font-family="Helvetica,sans-Serif" font-size="10.00">::init_flow_iterator</text>
</a>
</g>
</g>
<!-- Node1&#45;&gt;Node12 -->
<g id="edge11_Node000001_Node000012" class="edge">
<title>Node1&#45;&gt;Node12</title>
<g id="a_edge11_Node000001_Node000012"><a xlink:title=" ">
<path fill="none" stroke="#63b8ff" d="M319.17,-114.85C306.77,-105.49 290.52,-94 275,-85.5 269.11,-82.27 262.69,-79.22 256.32,-76.44"/>
<polygon fill="#63b8ff" stroke="#63b8ff" points="316.93,-117.55 326.99,-120.88 321.21,-112 316.93,-117.55"/>
</a>
</g>
</g>
<!-- Node14 -->
<g id="Node000014" class="node">
<title>Node14</title>
<g id="a_Node000014"><a xlink:href="namespacePostProcessing.html#aa0ae24f0ce5645b2835220796b2d7ff7" target="_top" xlink:title=" ">
<polygon fill="white" stroke="#666666" points="272.38,-29 158.12,-29 158.12,0 272.38,0 272.38,-29"/>
<text xml:space="preserve" text-anchor="start" x="166.12" y="-15.5" font-family="Helvetica,sans-Serif" font-size="10.00">PostProcessing::show</text>
<text xml:space="preserve" text-anchor="middle" x="215.25" y="-5" font-family="Helvetica,sans-Serif" font-size="10.00">_sumup_state</text>
</a>
</g>
</g>
<!-- Node1&#45;&gt;Node14 -->
<g id="edge14_Node000001_Node000014" class="edge">
<title>Node1&#45;&gt;Node14</title>
<g id="a_edge14_Node000001_Node000014"><a xlink:title=" ">
<path fill="none" stroke="#63b8ff" d="M330.77,-111.51C320.01,-90.47 300.49,-57.66 275,-37.5 271.13,-34.44 266.81,-31.75 262.31,-29.39"/>
<polygon fill="#63b8ff" stroke="#63b8ff" points="327.62,-113.04 335.17,-120.47 333.91,-109.95 327.62,-113.04"/>
</a>
</g>
</g>
<!-- Node3 -->
<g id="Node000003" class="node">
<title>Node3</title>
<g id="a_Node000003"><a xlink:href="structApi_1_1SimulationInstance.html#ae9bdd54076170f50eadcb7966d64c19d" target="_top" xlink:title="Apply the simulation configuration and prepare for execution.">
<polygon fill="white" stroke="#666666" points="119.5,-332 0,-332 0,-303 119.5,-303 119.5,-332"/>
<text xml:space="preserve" text-anchor="start" x="8" y="-318.5" font-family="Helvetica,sans-Serif" font-size="10.00">Api::SimulationInstance</text>
<text xml:space="preserve" text-anchor="middle" x="59.75" y="-308" font-family="Helvetica,sans-Serif" font-size="10.00">::apply</text>
</a>
</g>
</g>
<!-- Node2&#45;&gt;Node3 -->
<g id="edge2_Node000002_Node000003" class="edge">
<title>Node2&#45;&gt;Node3</title>
<g id="a_edge2_Node000002_Node000003"><a xlink:title=" ">
<path fill="none" stroke="#63b8ff" d="M147.71,-296.54C138.48,-298.76 129.06,-301.04 119.97,-303.22"/>
<polygon fill="#63b8ff" stroke="#63b8ff" points="148.46,-299.96 157.36,-294.21 146.82,-293.15 148.46,-299.96"/>
</a>
</g>
</g>
<!-- Node5 -->
<g id="Node000005" class="node">
<title>Node5</title>
<g id="a_Node000005"><a xlink:href="classIO_1_1Console.html#afa53ede48496d2ff21c31a463d4c8e9e" target="_top" xlink:title=" ">
<polygon fill="white" stroke="#666666" points="115,-284.75 4.5,-284.75 4.5,-266.25 115,-266.25 115,-284.75"/>
<text xml:space="preserve" text-anchor="middle" x="59.75" y="-271.25" font-family="Helvetica,sans-Serif" font-size="10.00">IO::Console::Console</text>
</a>
</g>
</g>
<!-- Node4&#45;&gt;Node5 -->
<g id="edge4_Node000004_Node000005" class="edge">
<title>Node4&#45;&gt;Node5</title>
<g id="a_edge4_Node000004_Node000005"><a xlink:title=" ">
<path fill="none" stroke="#63b8ff" d="M190.51,-217.19C171.79,-229.09 144.71,-245.26 119.5,-256.5 111.77,-259.95 103.21,-263.08 95.08,-265.76"/>
<polygon fill="#63b8ff" stroke="#63b8ff" points="192.21,-220.26 198.72,-211.9 188.42,-214.38 192.21,-220.26"/>
</a>
</g>
</g>
<!-- Node6 -->
<g id="Node000006" class="node">
<title>Node6</title>
<g id="a_Node000006"><a xlink:href="classIO_1_1Console.html#af5e8a2459163188ad1da3430b88001b6" target="_top" xlink:title=" ">
<polygon fill="white" stroke="#666666" points="115,-247.75 4.5,-247.75 4.5,-229.25 115,-229.25 115,-247.75"/>
<text xml:space="preserve" text-anchor="middle" x="59.75" y="-234.25" font-family="Helvetica,sans-Serif" font-size="10.00">IO::Console::Console</text>
</a>
</g>
</g>
<!-- Node4&#45;&gt;Node6 -->
<g id="edge5_Node000004_Node000006" class="edge">
<title>Node4&#45;&gt;Node6</title>
<g id="a_edge5_Node000004_Node000006"><a xlink:title=" ">
<path fill="none" stroke="#63b8ff" d="M162.75,-213.91C142.65,-218.76 119.95,-224.23 101.08,-228.78"/>
<polygon fill="#63b8ff" stroke="#63b8ff" points="163.55,-217.32 172.45,-211.58 161.91,-210.52 163.55,-217.32"/>
</a>
</g>
</g>
<!-- Node7 -->
<g id="Node000007" class="node">
<title>Node7</title>
<g id="a_Node000007"><a xlink:href="classIO_1_1Console.html#aac82dc12f9d262c7f44b22fe6f2dd49b" target="_top" xlink:title=" ">
<polygon fill="white" stroke="#666666" points="117.62,-210.75 1.88,-210.75 1.88,-192.25 117.62,-192.25 117.62,-210.75"/>
<text xml:space="preserve" text-anchor="middle" x="59.75" y="-197.25" font-family="Helvetica,sans-Serif" font-size="10.00">IO::Console::operator=</text>
</a>
</g>
</g>
<!-- Node4&#45;&gt;Node7 -->
<g id="edge6_Node000004_Node000007" class="edge">
<title>Node4&#45;&gt;Node7</title>
<g id="a_edge6_Node000004_Node000007"><a xlink:title=" ">
<path fill="none" stroke="#63b8ff" d="M148.41,-201.5C138.29,-201.5 127.9,-201.5 117.98,-201.5"/>
<polygon fill="#63b8ff" stroke="#63b8ff" points="148.19,-205 158.19,-201.5 148.19,-198 148.19,-205"/>
</a>
</g>
</g>
<!-- Node8 -->
<g id="Node000008" class="node">
<title>Node8</title>
<g id="a_Node000008"><a xlink:href="classIO_1_1Console.html#a2ae23124d355bfe39da66c91d3417caf" target="_top" xlink:title=" ">
<polygon fill="white" stroke="#666666" points="117.62,-173.75 1.88,-173.75 1.88,-155.25 117.62,-155.25 117.62,-173.75"/>
<text xml:space="preserve" text-anchor="middle" x="59.75" y="-160.25" font-family="Helvetica,sans-Serif" font-size="10.00">IO::Console::operator=</text>
</a>
</g>
</g>
<!-- Node4&#45;&gt;Node8 -->
<g id="edge7_Node000004_Node000008" class="edge">
<title>Node4&#45;&gt;Node8</title>
<g id="a_edge7_Node000004_Node000008"><a xlink:title=" ">
<path fill="none" stroke="#63b8ff" d="M162.75,-189.09C142.65,-184.24 119.95,-178.77 101.08,-174.22"/>
<polygon fill="#63b8ff" stroke="#63b8ff" points="161.91,-192.48 172.45,-191.42 163.55,-185.68 161.91,-192.48"/>
</a>
</g>
</g>
<!-- Node10 -->
<g id="Node000010" class="node">
<title>Node10</title>
<g id="a_Node000010"><a xlink:href="structApi_1_1SimulationInstance.html#afee07db8a6b57fe7982900ecaa943cc0" target="_top" xlink:title="Default constructor.">
<polygon fill="white" stroke="#666666" points="119.5,-137 0,-137 0,-108 119.5,-108 119.5,-137"/>
<text xml:space="preserve" text-anchor="start" x="8" y="-123.5" font-family="Helvetica,sans-Serif" font-size="10.00">Api::SimulationInstance</text>
<text xml:space="preserve" text-anchor="middle" x="59.75" y="-113" font-family="Helvetica,sans-Serif" font-size="10.00">::SimulationInstance</text>
</a>
</g>
</g>
<!-- Node9&#45;&gt;Node10 -->
<g id="edge9_Node000009_Node000010" class="edge">
<title>Node9&#45;&gt;Node10</title>
<g id="a_edge9_Node000009_Node000010"><a xlink:title=" ">
<path fill="none" stroke="#63b8ff" d="M144.27,-140.46C136.07,-138.69 127.78,-136.91 119.75,-135.18"/>
<polygon fill="#63b8ff" stroke="#63b8ff" points="143.35,-143.84 153.86,-142.52 144.82,-136.99 143.35,-143.84"/>
</a>
</g>
</g>
<!-- Node13 -->
<g id="Node000013" class="node">
<title>Node13</title>
<g id="a_Node000013"><a xlink:href="classCore_1_1GlobalInitialiser.html#a970cd4b504a4cbc3e066922d6944bc1f" target="_top" xlink:title="Initializes a transitioner without parameters.">
<polygon fill="white" stroke="#666666" points="114.62,-72 4.88,-72 4.88,-43 114.62,-43 114.62,-72"/>
<text xml:space="preserve" text-anchor="start" x="12.88" y="-58.5" font-family="Helvetica,sans-Serif" font-size="10.00">Core::GlobalInitialiser</text>
<text xml:space="preserve" text-anchor="middle" x="59.75" y="-48" font-family="Helvetica,sans-Serif" font-size="10.00">::init_transitionner</text>
</a>
</g>
</g>
<!-- Node12&#45;&gt;Node13 -->
<g id="edge12_Node000012_Node000013" class="edge">
<title>Node12&#45;&gt;Node13</title>
<g id="a_edge12_Node000012_Node000013"><a xlink:title=" ">
<path fill="none" stroke="#63b8ff" d="M148.94,-59.8C137.59,-59.5 125.9,-59.2 114.9,-58.91"/>
<polygon fill="#63b8ff" stroke="#63b8ff" points="148.53,-63.29 158.62,-60.05 148.71,-56.29 148.53,-63.29"/>
</a>
</g>
</g>
<!-- Node13&#45;&gt;Node13 -->
<g id="edge13_Node000013_Node000013" class="edge">
<title>Node13&#45;&gt;Node13</title>
<g id="a_edge13_Node000013_Node000013"><a xlink:title=" ">
<path fill="none" stroke="#63b8ff" d="M86.14,-83.56C82,-87.41 73.2,-90 59.75,-90 35.15,-90 26.12,-81.32 32.65,-72.21"/>
<polygon fill="#63b8ff" stroke="#63b8ff" points="89.63,-83.92 86.76,-73.72 82.64,-83.48 89.63,-83.92"/>
</a>
</g>
</g>
</g>
</svg>
