<?xml version="1.0" encoding="UTF-8" standalone="no"?>
<!DOCTYPE svg PUBLIC "-//W3C//DTD SVG 1.1//EN"
 "http://www.w3.org/Graphics/SVG/1.1/DTD/svg11.dtd">
<!-- Generated by graphviz version 14.0.1 (0)
 -->
<!-- Title: WrapMPI::get_type Pages: 1 -->
<!--zoomable 413 -->

<svg id="main" version="1.1" xmlns="http://www.w3.org/2000/svg" xmlns:xlink="http://www.w3.org/1999/xlink" xml:space="preserve" onload="init(evt)">

<style type="text/css"><![CDATA[
.node, .edge {opacity: 0.7;}
.node.selected, .edge.selected {opacity: 1;}
.edge:hover path { stroke: red; }
.edge:hover polygon { stroke: red; fill: red; }
]]></style>

<defs>
  <circle id="rim" cx="0" cy="0" r="7"/>
  <circle id="rim2" cx="0" cy="0" r="3.5"/>
  <g id="zoomPlus">
    <use xlink:href="#rim" fill="#404040"><set attributeName="fill" to="#808080" begin="zoomplus.mouseover" end="zoomplus.mouseout"/></use>
    <path d="M-4,0h8M0,-4v8" fill="none" stroke="white" stroke-width="1.5" pointer-events="none"/>
  </g>
  <g id="zoomMin">
    <use xlink:href="#rim" fill="#404040"><set attributeName="fill" to="#808080" begin="zoomminus.mouseover" end="zoomminus.mouseout"/></use>
    <path d="M-4,0h8" fill="none" stroke="white" stroke-width="1.5" pointer-events="none"/>
  </g>
  <g id="arrowUp" transform="translate(30 24)">
    <use xlink:href="#rim"/>
    <path pointer-events="none" fill="none" stroke="white" stroke-width="1.5" d="M0,-3.0v7 M-2.5,-0.5L0,-3.0L2.5,-0.5"/>
  </g>
  <g id="arrowRight" transform="rotate(90) translate(36 -43)">
    <use xlink:href="#rim"/>
    <path pointer-events="none" fill="none" stroke="white" stroke-width="1.5" d="M0,-3.0v7 M-2.5,-0.5L0,-3.0L2.5,-0.5"/>
  </g>
  <g id="arrowDown" transform="rotate(180) translate(-30 -48)">
    <use xlink:href="#rim"/>
    <path pointer-events="none" fill="none" stroke="white" stroke-width="1.5" d="M0,-3.0v7 M-2.5,-0.5L0,-3.0L2.5,-0.5"/>
  </g>
  <g id="arrowLeft" transform="rotate(270) translate(-36 17)">
    <use xlink:href="#rim"/>
    <path pointer-events="none" fill="none" stroke="white" stroke-width="1.5" d="M0,-3.0v7 M-2.5,-0.5L0,-3.0L2.5,-0.5"/>
  </g>
  <g id="resetDef">
    <use xlink:href="#rim2" fill="#404040"><set attributeName="fill" to="#808080" begin="reset.mouseover" end="reset.mouseout"/></use>
  </g>
</defs>
<script type="application/ecmascript">
var viewWidth = 777;
var viewHeight = 413;
var sectionId = 'dynsection-21';
</script>
<script type="application/ecmascript" xlink:href="svg.min.js"/>
<svg id="graph" class="graph">
<g id="viewport">
<title>WrapMPI::get_type</title>
<!-- Node1 -->
<g id="Node000001" class="node">
<title>Node1</title>
<g id="a_Node000001"><a xlink:title=" ">
<polygon fill="#999999" stroke="#666666" points="769.25,-189.5 670,-189.5 670,-171 769.25,-171 769.25,-189.5"/>
<text xml:space="preserve" text-anchor="middle" x="719.62" y="-176" font-family="Helvetica,sans-Serif" font-size="10.00">WrapMPI::get_type</text>
</a>
</g>
</g>
<!-- Node2 -->
<g id="Node000002" class="node">
<title>Node2</title>
<g id="a_Node000002"><a xlink:href="namespaceWrapMPI.html#aa70b62df6aa5755b0c794d24afa1cfdf" target="_top" xlink:title="Broadcasts raw data to all processes in an unsafe manner.">
<polygon fill="white" stroke="#666666" points="617.5,-404.75 507.75,-404.75 507.75,-375.75 617.5,-375.75 617.5,-404.75"/>
<text xml:space="preserve" text-anchor="start" x="515.75" y="-391.25" font-family="Helvetica,sans-Serif" font-size="10.00">WrapMPI::_broadcast</text>
<text xml:space="preserve" text-anchor="middle" x="562.62" y="-380.75" font-family="Helvetica,sans-Serif" font-size="10.00">_unsafe</text>
</a>
</g>
</g>
<!-- Node1&#45;&gt;Node2 -->
<g id="edge1_Node000001_Node000002" class="edge">
<title>Node1&#45;&gt;Node2</title>
<g id="a_edge1_Node000001_Node000002"><a xlink:title=" ">
<path fill="none" stroke="#63b8ff" d="M714.99,-200.75C707.14,-239 685.02,-321.52 634,-367.25 629.21,-371.54 623.61,-375.03 617.7,-377.87"/>
<polygon fill="#63b8ff" stroke="#63b8ff" points="718.4,-201.55 716.84,-191.07 711.52,-200.24 718.4,-201.55"/>
</a>
</g>
</g>
<!-- Node4 -->
<g id="Node000004" class="node">
<title>Node4</title>
<g id="a_Node000004"><a xlink:href="namespaceWrapMPI_1_1Async.html#ac5fbf6f40e01dc061922ca4f674b317e" target="_top" xlink:title=" ">
<polygon fill="white" stroke="#666666" points="634,-357.75 491.25,-357.75 491.25,-328.75 634,-328.75 634,-357.75"/>
<text xml:space="preserve" text-anchor="start" x="499.25" y="-344.25" font-family="Helvetica,sans-Serif" font-size="10.00">WrapMPI::Async::_broadcast</text>
<text xml:space="preserve" text-anchor="middle" x="562.62" y="-333.75" font-family="Helvetica,sans-Serif" font-size="10.00">_unsafe</text>
</a>
</g>
</g>
<!-- Node1&#45;&gt;Node4 -->
<g id="edge3_Node000001_Node000004" class="edge">
<title>Node1&#45;&gt;Node4</title>
<g id="a_edge3_Node000001_Node000004"><a xlink:title=" ">
<path fill="none" stroke="#63b8ff" d="M711.78,-200.15C700.38,-230.43 674.63,-287.96 634,-320.25 630.08,-323.37 625.71,-326.07 621.14,-328.41"/>
<polygon fill="#63b8ff" stroke="#63b8ff" points="714.96,-201.67 715.06,-191.08 708.37,-199.3 714.96,-201.67"/>
</a>
</g>
</g>
<!-- Node6 -->
<g id="Node000006" class="node">
<title>Node6</title>
<g id="a_Node000006"><a xlink:href="namespaceWrapMPI.html#abbfbd4027c90508fdf9fb2e8ec46958a" target="_top" xlink:title=" ">
<polygon fill="white" stroke="#666666" points="626.88,-310.75 498.38,-310.75 498.38,-281.75 626.88,-281.75 626.88,-310.75"/>
<text xml:space="preserve" text-anchor="start" x="506.38" y="-297.25" font-family="Helvetica,sans-Serif" font-size="10.00">WrapMPI::_gather_unsafe</text>
<text xml:space="preserve" text-anchor="middle" x="562.62" y="-286.75" font-family="Helvetica,sans-Serif" font-size="10.00">_to_buffer</text>
</a>
</g>
</g>
<!-- Node1&#45;&gt;Node6 -->
<g id="edge5_Node000001_Node000006" class="edge">
<title>Node1&#45;&gt;Node6</title>
<g id="a_edge5_Node000001_Node000006"><a xlink:title=" ">
<path fill="none" stroke="#63b8ff" d="M705.78,-199.09C690.79,-219.75 664.17,-252.58 634,-272.25 628.7,-275.71 622.85,-278.72 616.86,-281.33"/>
<polygon fill="#63b8ff" stroke="#63b8ff" points="708.57,-201.2 711.47,-191.01 702.85,-197.17 708.57,-201.2"/>
</a>
</g>
</g>
<!-- Node11 -->
<g id="Node000011" class="node">
<title>Node11</title>
<g id="a_Node000011"><a xlink:href="namespaceWrapMPI.html#a8237adbb04708d9bf4bae9e904d04f5f" target="_top" xlink:title=" ">
<polygon fill="white" stroke="#666666" points="615.62,-245.5 509.62,-245.5 509.62,-227 615.62,-227 615.62,-245.5"/>
<text xml:space="preserve" text-anchor="middle" x="562.62" y="-232" font-family="Helvetica,sans-Serif" font-size="10.00">WrapMPI::all_reduce</text>
</a>
</g>
</g>
<!-- Node1&#45;&gt;Node11 -->
<g id="edge10_Node000001_Node000011" class="edge">
<title>Node1&#45;&gt;Node11</title>
<g id="a_edge10_Node000001_Node000011"><a xlink:title=" ">
<path fill="none" stroke="#63b8ff" d="M684.14,-194.2C668.86,-200.25 650.61,-207.3 634,-213.25 621.17,-217.84 606.9,-222.58 594.58,-226.55"/>
<polygon fill="#63b8ff" stroke="#63b8ff" points="685.29,-197.51 693.28,-190.56 682.69,-191.01 685.29,-197.51"/>
</a>
</g>
</g>
<!-- Node14 -->
<g id="Node000014" class="node">
<title>Node14</title>
<g id="a_Node000014"><a xlink:href="namespaceWrapMPI.html#a372df5351a2085df252cc9f4cceae7de" target="_top" xlink:title="Broadcasts a single data item to all processes.">
<polygon fill="white" stroke="#666666" points="614.88,-171.5 510.38,-171.5 510.38,-153 614.88,-153 614.88,-171.5"/>
<text xml:space="preserve" text-anchor="middle" x="562.62" y="-158" font-family="Helvetica,sans-Serif" font-size="10.00">WrapMPI::broadcast</text>
</a>
</g>
</g>
<!-- Node1&#45;&gt;Node14 -->
<g id="edge15_Node000001_Node000014" class="edge">
<title>Node1&#45;&gt;Node14</title>
<g id="a_edge15_Node000001_Node000014"><a xlink:title=" ">
<path fill="none" stroke="#63b8ff" d="M658.38,-173.25C644.15,-171.6 629.1,-169.85 615.29,-168.25"/>
<polygon fill="#63b8ff" stroke="#63b8ff" points="657.74,-176.7 668.08,-174.38 658.55,-169.75 657.74,-176.7"/>
</a>
</g>
</g>
<!-- Node15 -->
<g id="Node000015" class="node">
<title>Node15</title>
<g id="a_Node000015"><a xlink:href="namespaceWrapMPI.html#a166c6e5ac2d338a1d6f554532dd43b80" target="_top" xlink:title=" ">
<polygon fill="white" stroke="#666666" points="425.62,-203.5 321.12,-203.5 321.12,-185 425.62,-185 425.62,-203.5"/>
<text xml:space="preserve" text-anchor="middle" x="373.38" y="-190" font-family="Helvetica,sans-Serif" font-size="10.00">WrapMPI::broadcast</text>
</a>
</g>
</g>
<!-- Node1&#45;&gt;Node15 -->
<g id="edge20_Node000001_Node000015" class="edge">
<title>Node1&#45;&gt;Node15</title>
<g id="a_edge20_Node000001_Node000015"><a xlink:title=" ">
<path fill="none" stroke="#63b8ff" d="M658.24,-182.71C592.4,-185.38 488.13,-189.62 425.97,-192.15"/>
<polygon fill="#63b8ff" stroke="#63b8ff" points="658.31,-186.21 668.16,-182.3 658.02,-179.21 658.31,-186.21"/>
</a>
</g>
</g>
<!-- Node19 -->
<g id="Node000019" class="node">
<title>Node19</title>
<g id="a_Node000019"><a xlink:href="namespaceWrapMPI.html#a89ff50c459e42b25a69f4a3d45443fe3" target="_top" xlink:title="Gathers and reduces data to a single value.">
<polygon fill="white" stroke="#666666" points="624.25,-134.5 501,-134.5 501,-116 624.25,-116 624.25,-134.5"/>
<text xml:space="preserve" text-anchor="middle" x="562.62" y="-121" font-family="Helvetica,sans-Serif" font-size="10.00">WrapMPI::gather_reduce</text>
</a>
</g>
</g>
<!-- Node1&#45;&gt;Node19 -->
<g id="edge21_Node000001_Node000019" class="edge">
<title>Node1&#45;&gt;Node19</title>
<g id="a_edge21_Node000001_Node000019"><a xlink:title=" ">
<path fill="none" stroke="#63b8ff" d="M687.78,-165.91C671.92,-158.85 652.14,-150.52 634,-144.25 624.19,-140.86 613.45,-137.69 603.37,-134.95"/>
<polygon fill="#63b8ff" stroke="#63b8ff" points="686.14,-169.01 696.69,-169.94 689.02,-162.63 686.14,-169.01"/>
</a>
</g>
</g>
<!-- Node20 -->
<g id="Node000020" class="node">
<title>Node20</title>
<g id="a_Node000020"><a xlink:href="namespaceWrapMPI_1_1Async.html#a1c9861a120adf6ce7bd019204d20dafb" target="_top" xlink:title=" ">
<polygon fill="white" stroke="#666666" points="632.5,-97.5 492.75,-97.5 492.75,-79 632.5,-79 632.5,-97.5"/>
<text xml:space="preserve" text-anchor="middle" x="562.62" y="-84" font-family="Helvetica,sans-Serif" font-size="10.00">WrapMPI::Async::recv_span</text>
</a>
</g>
</g>
<!-- Node1&#45;&gt;Node20 -->
<g id="edge22_Node000001_Node000020" class="edge">
<title>Node1&#45;&gt;Node20</title>
<g id="a_edge22_Node000001_Node000020"><a xlink:title=" ">
<path fill="none" stroke="#63b8ff" d="M702.5,-162.33C686.62,-145.73 660.9,-121.52 634,-107.25 626.96,-103.51 619.12,-100.47 611.3,-97.99"/>
<polygon fill="#63b8ff" stroke="#63b8ff" points="699.85,-164.61 709.22,-169.55 704.97,-159.84 699.85,-164.61"/>
</a>
</g>
</g>
<!-- Node21 -->
<g id="Node000021" class="node">
<title>Node21</title>
<g id="a_Node000021"><a xlink:href="namespaceWrapMPI.html#a74f34d02c61dba38e414425bdf71d74c" target="_top" xlink:title="Receives data into a span buffer.">
<polygon fill="white" stroke="#666666" points="616,-60.5 509.25,-60.5 509.25,-42 616,-42 616,-60.5"/>
<text xml:space="preserve" text-anchor="middle" x="562.62" y="-47" font-family="Helvetica,sans-Serif" font-size="10.00">WrapMPI::recv_span</text>
</a>
</g>
</g>
<!-- Node1&#45;&gt;Node21 -->
<g id="edge23_Node000001_Node000021" class="edge">
<title>Node1&#45;&gt;Node21</title>
<g id="a_edge23_Node000001_Node000021"><a xlink:title=" ">
<path fill="none" stroke="#63b8ff" d="M708.74,-160.55C695.25,-135.72 668.74,-93.48 634,-70.25 628.32,-66.45 621.9,-63.41 615.32,-60.98"/>
<polygon fill="#63b8ff" stroke="#63b8ff" points="705.56,-162.03 713.3,-169.27 711.76,-158.78 705.56,-162.03"/>
</a>
</g>
</g>
<!-- Node23 -->
<g id="Node000023" class="node">
<title>Node23</title>
<g id="a_Node000023"><a xlink:href="namespaceWrapMPI.html#adfe55cebcaa7d941006e23c69a5a3bcf" target="_top" xlink:title="Receives a vector of data items from a source.">
<polygon fill="white" stroke="#666666" points="608.12,-23.5 517.12,-23.5 517.12,-5 608.12,-5 608.12,-23.5"/>
<text xml:space="preserve" text-anchor="middle" x="562.62" y="-10" font-family="Helvetica,sans-Serif" font-size="10.00">WrapMPI::recv_v</text>
</a>
</g>
</g>
<!-- Node1&#45;&gt;Node23 -->
<g id="edge25_Node000001_Node000023" class="edge">
<title>Node1&#45;&gt;Node23</title>
<g id="a_edge25_Node000001_Node000023"><a xlink:title=" ">
<path fill="none" stroke="#63b8ff" d="M712.57,-159.98C701.99,-128.08 677.04,-66.38 634,-33.25 626.58,-27.54 617.57,-23.54 608.51,-20.74"/>
<polygon fill="#63b8ff" stroke="#63b8ff" points="709.13,-160.7 715.48,-169.18 715.81,-158.59 709.13,-160.7"/>
</a>
</g>
</g>
<!-- Node3 -->
<g id="Node000003" class="node">
<title>Node3</title>
<g id="a_Node000003"><a xlink:href="namespaceWrapMPI.html#a02249d7a05ab6697d5c9dd3f06f681a0" target="_top" xlink:title="Broadcasts data stored in a span to all processes.">
<polygon fill="white" stroke="#666666" points="438.75,-399.5 308,-399.5 308,-381 438.75,-381 438.75,-399.5"/>
<text xml:space="preserve" text-anchor="middle" x="373.38" y="-386" font-family="Helvetica,sans-Serif" font-size="10.00">WrapMPI::broadcast_span</text>
</a>
</g>
</g>
<!-- Node2&#45;&gt;Node3 -->
<g id="edge2_Node000002_Node000003" class="edge">
<title>Node2&#45;&gt;Node3</title>
<g id="a_edge2_Node000002_Node000003"><a xlink:title=" ">
<path fill="none" stroke="#63b8ff" d="M496.17,-390.25C477.64,-390.25 457.49,-390.25 439.02,-390.25"/>
<polygon fill="#63b8ff" stroke="#63b8ff" points="495.95,-393.75 505.95,-390.25 495.95,-386.75 495.95,-393.75"/>
</a>
</g>
</g>
<!-- Node5 -->
<g id="Node000005" class="node">
<title>Node5</title>
<g id="a_Node000005"><a xlink:href="namespaceWrapMPI_1_1Async.html#a44540918e862462a382d03720d97e19a" target="_top" xlink:title=" ">
<polygon fill="white" stroke="#666666" points="455.25,-361.5 291.5,-361.5 291.5,-343 455.25,-343 455.25,-361.5"/>
<text xml:space="preserve" text-anchor="middle" x="373.38" y="-348" font-family="Helvetica,sans-Serif" font-size="10.00">WrapMPI::Async::broadcast_span</text>
</a>
</g>
</g>
<!-- Node4&#45;&gt;Node5 -->
<g id="edge4_Node000004_Node000005" class="edge">
<title>Node4&#45;&gt;Node5</title>
<g id="a_edge4_Node000004_Node000005"><a xlink:title=" ">
<path fill="none" stroke="#63b8ff" d="M479.39,-347.2C471.5,-347.58 463.51,-347.97 455.63,-348.34"/>
<polygon fill="#63b8ff" stroke="#63b8ff" points="479.5,-350.7 489.32,-346.73 479.17,-343.71 479.5,-350.7"/>
</a>
</g>
</g>
<!-- Node7 -->
<g id="Node000007" class="node">
<title>Node7</title>
<g id="a_Node000007"><a xlink:href="namespaceWrapMPI.html#af35b85e638478a00672758818ade9e38" target="_top" xlink:title="Gathers raw data from all processes in an unsafe manner.">
<polygon fill="white" stroke="#666666" points="437.62,-324.5 309.12,-324.5 309.12,-306 437.62,-306 437.62,-324.5"/>
<text xml:space="preserve" text-anchor="middle" x="373.38" y="-311" font-family="Helvetica,sans-Serif" font-size="10.00">WrapMPI::_gather_unsafe</text>
</a>
</g>
</g>
<!-- Node6&#45;&gt;Node7 -->
<g id="edge6_Node000006_Node000007" class="edge">
<title>Node6&#45;&gt;Node7</title>
<g id="a_edge6_Node000006_Node000007"><a xlink:title=" ">
<path fill="none" stroke="#63b8ff" d="M486.88,-303.83C470.64,-305.48 453.61,-307.21 437.85,-308.81"/>
<polygon fill="#63b8ff" stroke="#63b8ff" points="486.87,-307.35 496.46,-302.86 486.16,-300.39 486.87,-307.35"/>
</a>
</g>
</g>
<!-- Node10 -->
<g id="Node000010" class="node">
<title>Node10</title>
<g id="a_Node000010"><a xlink:href="namespaceWrapMPI.html#af7356272883f4a6063a5f393042201dd" target="_top" xlink:title=" ">
<polygon fill="white" stroke="#666666" points="430.88,-287.5 315.88,-287.5 315.88,-269 430.88,-269 430.88,-287.5"/>
<text xml:space="preserve" text-anchor="middle" x="373.38" y="-274" font-family="Helvetica,sans-Serif" font-size="10.00">WrapMPI::gather_span</text>
</a>
</g>
</g>
<!-- Node6&#45;&gt;Node10 -->
<g id="edge9_Node000006_Node000010" class="edge">
<title>Node6&#45;&gt;Node10</title>
<g id="a_edge9_Node000006_Node000010"><a xlink:title=" ">
<path fill="none" stroke="#63b8ff" d="M486.63,-289.04C468.17,-287.27 448.71,-285.4 431.26,-283.72"/>
<polygon fill="#63b8ff" stroke="#63b8ff" points="486.17,-292.51 496.46,-289.99 486.84,-285.55 486.17,-292.51"/>
</a>
</g>
</g>
<!-- Node8 -->
<g id="Node000008" class="node">
<title>Node8</title>
<g id="a_Node000008"><a xlink:href="namespaceWrapMPI.html#a5cd65b924b505503f88fae43fb8270ee" target="_top" xlink:title="Gathers data from all processes.">
<polygon fill="white" stroke="#666666" points="245,-351.5 156.25,-351.5 156.25,-333 245,-333 245,-351.5"/>
<text xml:space="preserve" text-anchor="middle" x="200.62" y="-338" font-family="Helvetica,sans-Serif" font-size="10.00">WrapMPI::gather</text>
</a>
</g>
</g>
<!-- Node7&#45;&gt;Node8 -->
<g id="edge7_Node000007_Node000008" class="edge">
<title>Node7&#45;&gt;Node8</title>
<g id="a_edge7_Node000007_Node000008"><a xlink:title=" ">
<path fill="none" stroke="#63b8ff" d="M299.38,-326.79C280.95,-329.71 261.72,-332.75 245.25,-335.35"/>
<polygon fill="#63b8ff" stroke="#63b8ff" points="299.9,-330.25 309.24,-325.23 298.81,-323.34 299.9,-330.25"/>
</a>
</g>
</g>
<!-- Node9 -->
<g id="Node000009" class="node">
<title>Node9</title>
<g id="a_Node000009"><a xlink:href="namespaceWrapMPI.html#a6c82ee24a6d0fe8ee85a173f65f39907" target="_top" xlink:title="Gathers a vector of data from all processes.">
<polygon fill="white" stroke="#666666" points="250.25,-314.5 151,-314.5 151,-296 250.25,-296 250.25,-314.5"/>
<text xml:space="preserve" text-anchor="middle" x="200.62" y="-301" font-family="Helvetica,sans-Serif" font-size="10.00">WrapMPI::gather_v</text>
</a>
</g>
</g>
<!-- Node7&#45;&gt;Node9 -->
<g id="edge8_Node000007_Node000009" class="edge">
<title>Node7&#45;&gt;Node9</title>
<g id="a_edge8_Node000007_Node000009"><a xlink:title=" ">
<path fill="none" stroke="#63b8ff" d="M297.37,-310.86C281.51,-309.93 265.17,-308.97 250.58,-308.12"/>
<polygon fill="#63b8ff" stroke="#63b8ff" points="297.1,-314.35 307.28,-311.44 297.5,-307.36 297.1,-314.35"/>
</a>
</g>
</g>
<!-- Node11&#45;&gt;Node11 -->
<g id="edge11_Node000011_Node000011" class="edge">
<title>Node11&#45;&gt;Node11</title>
<g id="a_edge11_Node000011_Node000011"><a xlink:title=" ">
<path fill="none" stroke="#63b8ff" d="M591.13,-256.19C588.26,-260.43 578.76,-263.5 562.62,-263.5 534.72,-263.5 526.65,-254.32 538.43,-245.75"/>
<polygon fill="#63b8ff" stroke="#63b8ff" points="594.45,-255.05 587.4,-247.14 587.98,-257.72 594.45,-255.05"/>
</a>
</g>
</g>
<!-- Node12 -->
<g id="Node000012" class="node">
<title>Node12</title>
<g id="a_Node000012"><a xlink:href="classCore_1_1GlobalInitialiser.html#a9b38d15538796d9cc115211890a6c081" target="_top" xlink:title="Initializes a Monte Carlo unit.">
<polygon fill="white" stroke="#666666" points="428.25,-250.75 318.5,-250.75 318.5,-221.75 428.25,-221.75 428.25,-250.75"/>
<text xml:space="preserve" text-anchor="start" x="326.5" y="-237.25" font-family="Helvetica,sans-Serif" font-size="10.00">Core::GlobalInitialiser</text>
<text xml:space="preserve" text-anchor="middle" x="373.38" y="-226.75" font-family="Helvetica,sans-Serif" font-size="10.00">::init_monte_carlo</text>
</a>
</g>
</g>
<!-- Node11&#45;&gt;Node12 -->
<g id="edge12_Node000011_Node000012" class="edge">
<title>Node11&#45;&gt;Node12</title>
<g id="a_edge12_Node000011_Node000012"><a xlink:title=" ">
<path fill="none" stroke="#63b8ff" d="M498.25,-236.25C475.61,-236.25 450.33,-236.25 428.54,-236.25"/>
<polygon fill="#63b8ff" stroke="#63b8ff" points="497.95,-239.75 507.95,-236.25 497.95,-232.75 497.95,-239.75"/>
</a>
</g>
</g>
<!-- Node13 -->
<g id="Node000013" class="node">
<title>Node13</title>
<g id="a_Node000013"><a xlink:href="classCore_1_1GlobalInitialiser.html#a00d0e7a7d549bf06886dfc3ba9de3e3d" target="_top" xlink:title="Initializes a simulation unit.">
<polygon fill="white" stroke="#666666" points="255.5,-250.75 145.75,-250.75 145.75,-221.75 255.5,-221.75 255.5,-250.75"/>
<text xml:space="preserve" text-anchor="start" x="153.75" y="-237.25" font-family="Helvetica,sans-Serif" font-size="10.00">Core::GlobalInitialiser</text>
<text xml:space="preserve" text-anchor="middle" x="200.62" y="-226.75" font-family="Helvetica,sans-Serif" font-size="10.00">::init_simulation</text>
</a>
</g>
</g>
<!-- Node12&#45;&gt;Node13 -->
<g id="edge13_Node000012_Node000013" class="edge">
<title>Node12&#45;&gt;Node13</title>
<g id="a_edge13_Node000012_Node000013"><a xlink:title=" ">
<path fill="none" stroke="#63b8ff" d="M306.89,-236.25C290.04,-236.25 272.1,-236.25 255.89,-236.25"/>
<polygon fill="#63b8ff" stroke="#63b8ff" points="306.84,-239.75 316.84,-236.25 306.84,-232.75 306.84,-239.75"/>
</a>
</g>
</g>
<!-- Node13&#45;&gt;Node13 -->
<g id="edge14_Node000013_Node000013" class="edge">
<title>Node13&#45;&gt;Node13</title>
<g id="a_edge14_Node000013_Node000013"><a xlink:title=" ">
<path fill="none" stroke="#63b8ff" d="M225.36,-262.31C221.48,-266.16 213.23,-268.75 200.62,-268.75 177.57,-268.75 169.1,-260.07 175.23,-250.96"/>
<polygon fill="#63b8ff" stroke="#63b8ff" points="228.85,-262.65 225.94,-252.47 221.86,-262.25 228.85,-262.65"/>
</a>
</g>
</g>
<!-- Node14&#45;&gt;Node15 -->
<g id="edge16_Node000014_Node000015" class="edge">
<title>Node14&#45;&gt;Node15</title>
<g id="a_edge16_Node000014_Node000015"><a xlink:title=" ">
<path fill="none" stroke="#63b8ff" d="M498.61,-173.02C474.95,-177.06 448.36,-181.61 425.87,-185.45"/>
<polygon fill="#63b8ff" stroke="#63b8ff" points="499.2,-176.47 508.47,-171.33 498.02,-169.57 499.2,-176.47"/>
</a>
</g>
</g>
<!-- Node16 -->
<g id="Node000016" class="node">
<title>Node16</title>
<g id="a_Node000016"><a xlink:href="classCore_1_1GlobalInitialiser.html#aa042e8d396a5287c49fb6a8b81eba209" target="_top" xlink:title="Performs MPI broadcast for synchronization.">
<polygon fill="white" stroke="#666666" points="428.25,-166.75 318.5,-166.75 318.5,-137.75 428.25,-137.75 428.25,-166.75"/>
<text xml:space="preserve" text-anchor="start" x="326.5" y="-153.25" font-family="Helvetica,sans-Serif" font-size="10.00">Core::GlobalInitialiser</text>
<text xml:space="preserve" text-anchor="middle" x="373.38" y="-142.75" font-family="Helvetica,sans-Serif" font-size="10.00">::mpi_broadcast</text>
</a>
</g>
</g>
<!-- Node14&#45;&gt;Node16 -->
<g id="edge17_Node000014_Node000016" class="edge">
<title>Node14&#45;&gt;Node16</title>
<g id="a_edge17_Node000014_Node000016"><a xlink:title=" ">
<path fill="none" stroke="#63b8ff" d="M498.69,-158.89C475.92,-157.67 450.43,-156.31 428.48,-155.14"/>
<polygon fill="#63b8ff" stroke="#63b8ff" points="498.28,-162.37 508.45,-159.41 498.65,-155.38 498.28,-162.37"/>
</a>
</g>
</g>
<!-- Node17 -->
<g id="Node000017" class="node">
<title>Node17</title>
<g id="a_Node000017"><a xlink:href="classCore_1_1GlobalInitialiser.html#a97eff5566ced6ba6449eb532f0babadc" target="_top" xlink:title="Initializes a flow iterator.">
<polygon fill="white" stroke="#666666" points="255.5,-166.75 145.75,-166.75 145.75,-137.75 255.5,-137.75 255.5,-166.75"/>
<text xml:space="preserve" text-anchor="start" x="153.75" y="-153.25" font-family="Helvetica,sans-Serif" font-size="10.00">Core::GlobalInitialiser</text>
<text xml:space="preserve" text-anchor="middle" x="200.62" y="-142.75" font-family="Helvetica,sans-Serif" font-size="10.00">::init_state</text>
</a>
</g>
</g>
<!-- Node16&#45;&gt;Node17 -->
<g id="edge18_Node000016_Node000017" class="edge">
<title>Node16&#45;&gt;Node17</title>
<g id="a_edge18_Node000016_Node000017"><a xlink:title=" ">
<path fill="none" stroke="#63b8ff" d="M306.89,-152.25C290.04,-152.25 272.1,-152.25 255.89,-152.25"/>
<polygon fill="#63b8ff" stroke="#63b8ff" points="306.84,-155.75 316.84,-152.25 306.84,-148.75 306.84,-155.75"/>
</a>
</g>
</g>
<!-- Node18 -->
<g id="Node000018" class="node">
<title>Node18</title>
<g id="a_Node000018"><a xlink:href="classCore_1_1GlobalInitialiser.html#a0dc2da93c4202706b5f37453f355145c" target="_top" xlink:title="Initializes a transitioner with the provided flow iterator.">
<polygon fill="white" stroke="#666666" points="109.75,-166.75 0,-166.75 0,-137.75 109.75,-137.75 109.75,-166.75"/>
<text xml:space="preserve" text-anchor="start" x="8" y="-153.25" font-family="Helvetica,sans-Serif" font-size="10.00">Core::GlobalInitialiser</text>
<text xml:space="preserve" text-anchor="middle" x="54.88" y="-142.75" font-family="Helvetica,sans-Serif" font-size="10.00">::init_transitionner</text>
</a>
</g>
</g>
<!-- Node17&#45;&gt;Node18 -->
<g id="edge19_Node000017_Node000018" class="edge">
<title>Node17&#45;&gt;Node18</title>
<g id="a_edge19_Node000017_Node000018"><a xlink:title=" ">
<path fill="none" stroke="#63b8ff" d="M133.97,-152.25C125.89,-152.25 117.7,-152.25 109.82,-152.25"/>
<polygon fill="#63b8ff" stroke="#63b8ff" points="133.77,-155.75 143.77,-152.25 133.77,-148.75 133.77,-155.75"/>
</a>
</g>
</g>
<!-- Node22 -->
<g id="Node000022" class="node">
<title>Node22</title>
<g id="a_Node000022"><a xlink:href="classWrapMPI_1_1IterationPayload.html#a136036d66a6c16c18d4115905448380f" target="_top" xlink:title="Receives data for this payload from a specified source.">
<polygon fill="white" stroke="#666666" points="439.5,-65.75 307.25,-65.75 307.25,-36.75 439.5,-36.75 439.5,-65.75"/>
<text xml:space="preserve" text-anchor="start" x="315.25" y="-52.25" font-family="Helvetica,sans-Serif" font-size="10.00">WrapMPI::IterationPayload</text>
<text xml:space="preserve" text-anchor="middle" x="373.38" y="-41.75" font-family="Helvetica,sans-Serif" font-size="10.00">::recv</text>
</a>
</g>
</g>
<!-- Node21&#45;&gt;Node22 -->
<g id="edge24_Node000021_Node000022" class="edge">
<title>Node21&#45;&gt;Node22</title>
<g id="a_edge24_Node000021_Node000022"><a xlink:title=" ">
<path fill="none" stroke="#63b8ff" d="M497.64,-51.25C479.03,-51.25 458.69,-51.25 439.98,-51.25"/>
<polygon fill="#63b8ff" stroke="#63b8ff" points="497.45,-54.75 507.45,-51.25 497.45,-47.75 497.45,-54.75"/>
</a>
</g>
</g>
<!-- Node23&#45;&gt;Node22 -->
<g id="edge26_Node000023_Node000022" class="edge">
<title>Node23&#45;&gt;Node22</title>
<g id="a_edge26_Node000023_Node000022"><a xlink:title=" ">
<path fill="none" stroke="#63b8ff" d="M505.6,-25.32C484.89,-29.41 461.24,-34.09 439.77,-38.33"/>
<polygon fill="#63b8ff" stroke="#63b8ff" points="506.16,-28.78 515.29,-23.41 504.8,-21.91 506.16,-28.78"/>
</a>
</g>
</g>
<!-- Node24 -->
<g id="Node000024" class="node">
<title>Node24</title>
<g id="a_Node000024"><a xlink:href="namespaceWrapMPI.html#a0dd428096701cba57a4230514acaf0b1" target="_top" xlink:title="Attempts to receive a vector of data items from a source.">
<polygon fill="white" stroke="#666666" points="427.5,-18.5 319.25,-18.5 319.25,0 427.5,0 427.5,-18.5"/>
<text xml:space="preserve" text-anchor="middle" x="373.38" y="-5" font-family="Helvetica,sans-Serif" font-size="10.00">WrapMPI::try_recv_v</text>
</a>
</g>
</g>
<!-- Node23&#45;&gt;Node24 -->
<g id="edge27_Node000023_Node000024" class="edge">
<title>Node23&#45;&gt;Node24</title>
<g id="a_edge27_Node000023_Node000024"><a xlink:title=" ">
<path fill="none" stroke="#63b8ff" d="M505.43,-12.75C480.84,-12.09 452.13,-11.33 427.85,-10.68"/>
<polygon fill="#63b8ff" stroke="#63b8ff" points="505.17,-16.24 515.26,-13.01 505.36,-9.25 505.17,-16.24"/>
</a>
</g>
</g>
</g>
</svg>

<g id="navigator" transform="translate(0 0)" fill="#404254">
  <rect fill="#f2f5e9" fill-opacity="0.5" stroke="#606060" stroke-width=".5" x="0" y="0" width="60" height="60"/>
  <use id="zoomplus" xlink:href="#zoomPlus" x="17" y="9" onmousedown="handleZoom(evt,'in')"/>
  <use id="zoomminus" xlink:href="#zoomMin" x="42" y="9" onmousedown="handleZoom(evt,'out')"/>
  <use id="reset" xlink:href="#resetDef" x="30" y="36" onmousedown="handleReset()"/>
   <use id="arrowup" xlink:href="#arrowUp" x="0" y="0" onmousedown="handlePan(0,-1)"/>
  <use id="arrowright" xlink:href="#arrowRight" x="0" y="0" onmousedown="handlePan(1,0)"/>
  <use id="arrowdown" xlink:href="#arrowDown" x="0" y="0" onmousedown="handlePan(0,1)"/>
  <use id="arrowleft" xlink:href="#arrowLeft" x="0" y="0" onmousedown="handlePan(-1,0)"/>
</g>
<svg viewBox="0 0 15 15" width="100%" height="30px" preserveAspectRatio="xMaxYMin meet">
 <g id="arrow_out" transform="scale(0.3 0.3)">
  <a xlink:href="namespaceWrapMPI_adab3300a86b8c0227268b23134b57a24_icgraph_org.svg" target="_base">
   <rect id="button" ry="5" rx="5" y="6" x="6" height="38" width="38"
        fill="#f2f5e9" fill-opacity="0.5" stroke="#606060" stroke-width="1.0"/>
   <path id="arrow"
     d="M 11.500037,31.436501 C 11.940474,20.09759 22.043105,11.32322 32.158766,21.979434 L 37.068811,17.246167 C 37.068811,17.246167 37.088388,32 37.088388,32 L 22.160133,31.978069 C 22.160133,31.978069 26.997745,27.140456 26.997745,27.140456 C 18.528582,18.264221 13.291696,25.230495 11.500037,31.436501 z"
     style="fill:#404040;"/>
  </a>
 </g>
</svg>

<style type='text/css'>
<![CDATA[
[data-mouse-over-selected='false'] { opacity: 0.7; }
[data-mouse-over-selected='true']  { opacity: 1.0; }
]]>
</style>
<script type="application/ecmascript"><![CDATA[
document.addEventListener('DOMContentLoaded', (event) => {
  highlightEdges();
  highlightAdjacentNodes();
});
]]></script>
</svg>
