<?xml version="1.0" encoding="UTF-8" standalone="no"?>
<!DOCTYPE svg PUBLIC "-//W3C//DTD SVG 1.1//EN"
 "http://www.w3.org/Graphics/SVG/1.1/DTD/svg11.dtd">
<!-- Generated by graphviz version 14.0.1 (0)
 -->
<!-- Title: WrapMPI::critical_error Pages: 1 -->
<!--zoomable 145 -->

<svg id="main" version="1.1" xmlns="http://www.w3.org/2000/svg" xmlns:xlink="http://www.w3.org/1999/xlink" xml:space="preserve" onload="init(evt)">

<style type="text/css"><![CDATA[
.node, .edge {opacity: 0.7;}
.node.selected, .edge.selected {opacity: 1;}
.edge:hover path { stroke: red; }
.edge:hover polygon { stroke: red; fill: red; }
]]></style>

<defs>
  <circle id="rim" cx="0" cy="0" r="7"/>
  <circle id="rim2" cx="0" cy="0" r="3.5"/>
  <g id="zoomPlus">
    <use xlink:href="#rim" fill="#404040"><set attributeName="fill" to="#808080" begin="zoomplus.mouseover" end="zoomplus.mouseout"/></use>
    <path d="M-4,0h8M0,-4v8" fill="none" stroke="white" stroke-width="1.5" pointer-events="none"/>
  </g>
  <g id="zoomMin">
    <use xlink:href="#rim" fill="#404040"><set attributeName="fill" to="#808080" begin="zoomminus.mouseover" end="zoomminus.mouseout"/></use>
    <path d="M-4,0h8" fill="none" stroke="white" stroke-width="1.5" pointer-events="none"/>
  </g>
  <g id="arrowUp" transform="translate(30 24)">
    <use xlink:href="#rim"/>
    <path pointer-events="none" fill="none" stroke="white" stroke-width="1.5" d="M0,-3.0v7 M-2.5,-0.5L0,-3.0L2.5,-0.5"/>
  </g>
  <g id="arrowRight" transform="rotate(90) translate(36 -43)">
    <use xlink:href="#rim"/>
    <path pointer-events="none" fill="none" stroke="white" stroke-width="1.5" d="M0,-3.0v7 M-2.5,-0.5L0,-3.0L2.5,-0.5"/>
  </g>
  <g id="arrowDown" transform="rotate(180) translate(-30 -48)">
    <use xlink:href="#rim"/>
    <path pointer-events="none" fill="none" stroke="white" stroke-width="1.5" d="M0,-3.0v7 M-2.5,-0.5L0,-3.0L2.5,-0.5"/>
  </g>
  <g id="arrowLeft" transform="rotate(270) translate(-36 17)">
    <use xlink:href="#rim"/>
    <path pointer-events="none" fill="none" stroke="white" stroke-width="1.5" d="M0,-3.0v7 M-2.5,-0.5L0,-3.0L2.5,-0.5"/>
  </g>
  <g id="resetDef">
    <use xlink:href="#rim2" fill="#404040"><set attributeName="fill" to="#808080" begin="reset.mouseover" end="reset.mouseout"/></use>
  </g>
</defs>
<script type="application/ecmascript">
var viewWidth = 870;
var viewHeight = 145;
var sectionId = 'dynsection-16';
</script>
<script type="application/ecmascript" xlink:href="svg.min.js"/>
<svg id="graph" class="graph">
<g id="viewport">
<title>WrapMPI::critical_error</title>
<!-- Node1 -->
<g id="Node000001" class="node">
<title>Node1</title>
<g id="a_Node000001"><a xlink:title=" ">
<polygon fill="#999999" stroke="#666666" points="861.75,-73.5 746.75,-73.5 746.75,-55 861.75,-55 861.75,-73.5"/>
<text xml:space="preserve" text-anchor="middle" x="804.25" y="-60" font-family="Helvetica,sans-Serif" font-size="10.00">WrapMPI::critical_error</text>
</a>
</g>
</g>
<!-- Node2 -->
<g id="Node000002" class="node">
<title>Node2</title>
<g id="a_Node000002"><a xlink:href="namespaceWrapMPI.html#a1a08bbe69602ac2f4f38e1a0d45275cb" target="_top" xlink:title=" ">
<polygon fill="white" stroke="#666666" points="701,-92.5 612.25,-92.5 612.25,-74 701,-74 701,-92.5"/>
<text xml:space="preserve" text-anchor="middle" x="656.62" y="-79" font-family="Helvetica,sans-Serif" font-size="10.00">WrapMPI::barrier</text>
</a>
</g>
</g>
<!-- Node1&#45;&gt;Node2 -->
<g id="edge1_Node000001_Node000002" class="edge">
<title>Node1&#45;&gt;Node2</title>
<g id="a_edge1_Node000001_Node000002"><a xlink:title=" ">
<path fill="none" stroke="#63b8ff" d="M735.13,-73.14C723.64,-74.64 711.99,-76.16 701.34,-77.55"/>
<polygon fill="#63b8ff" stroke="#63b8ff" points="735.57,-76.61 745.03,-71.85 734.66,-69.67 735.57,-76.61"/>
</a>
</g>
</g>
<!-- Node3 -->
<g id="Node000003" class="node">
<title>Node3</title>
<g id="a_Node000003"><a xlink:href="classCore_1_1GlobalInitialiser.html#aa042e8d396a5287c49fb6a8b81eba209" target="_top" xlink:title="Performs MPI broadcast for synchronization.">
<polygon fill="white" stroke="#666666" points="566.5,-134.75 456.75,-134.75 456.75,-105.75 566.5,-105.75 566.5,-134.75"/>
<text xml:space="preserve" text-anchor="start" x="464.75" y="-121.25" font-family="Helvetica,sans-Serif" font-size="10.00">Core::GlobalInitialiser</text>
<text xml:space="preserve" text-anchor="middle" x="511.62" y="-110.75" font-family="Helvetica,sans-Serif" font-size="10.00">::mpi_broadcast</text>
</a>
</g>
</g>
<!-- Node1&#45;&gt;Node3 -->
<g id="edge8_Node000001_Node000003" class="edge">
<title>Node1&#45;&gt;Node3</title>
<g id="a_edge8_Node000001_Node000003"><a xlink:title=" ">
<path fill="none" stroke="#63b8ff" d="M773.63,-78.61C755.82,-86.61 732.46,-95.98 710.75,-101.25 662.9,-112.86 606.93,-117.43 566.71,-119.2"/>
<polygon fill="#63b8ff" stroke="#63b8ff" points="774.94,-81.86 782.56,-74.5 772.02,-75.5 774.94,-81.86"/>
</a>
</g>
</g>
<!-- Node9 -->
<g id="Node000009" class="node">
<title>Node9</title>
<g id="a_Node000009"><a xlink:href="namespaceWrapMPI.html#ae68fdad586750d104f311bfbc88fa066" target="_top" xlink:title="Attempts to receive a single data item from a source.">
<polygon fill="white" stroke="#666666" points="705.5,-55.5 607.75,-55.5 607.75,-37 705.5,-37 705.5,-55.5"/>
<text xml:space="preserve" text-anchor="middle" x="656.62" y="-42" font-family="Helvetica,sans-Serif" font-size="10.00">WrapMPI::try_recv</text>
</a>
</g>
</g>
<!-- Node1&#45;&gt;Node9 -->
<g id="edge9_Node000001_Node000009" class="edge">
<title>Node1&#45;&gt;Node9</title>
<g id="a_edge9_Node000001_Node000009"><a xlink:title=" ">
<path fill="none" stroke="#63b8ff" d="M735.39,-55.86C725.45,-54.63 715.37,-53.39 705.93,-52.22"/>
<polygon fill="#63b8ff" stroke="#63b8ff" points="734.67,-59.3 745.03,-57.05 735.53,-52.35 734.67,-59.3"/>
</a>
</g>
</g>
<!-- Node10 -->
<g id="Node000010" class="node">
<title>Node10</title>
<g id="a_Node000010"><a xlink:href="namespaceWrapMPI.html#a0dd428096701cba57a4230514acaf0b1" target="_top" xlink:title="Attempts to receive a vector of data items from a source.">
<polygon fill="white" stroke="#666666" points="710.75,-18.5 602.5,-18.5 602.5,0 710.75,0 710.75,-18.5"/>
<text xml:space="preserve" text-anchor="middle" x="656.62" y="-5" font-family="Helvetica,sans-Serif" font-size="10.00">WrapMPI::try_recv_v</text>
</a>
</g>
</g>
<!-- Node1&#45;&gt;Node10 -->
<g id="edge10_Node000001_Node000010" class="edge">
<title>Node1&#45;&gt;Node10</title>
<g id="a_edge10_Node000001_Node000010"><a xlink:title=" ">
<path fill="none" stroke="#63b8ff" d="M768.75,-50.56C751.39,-43.74 730,-35.44 710.75,-28.25 702.49,-25.17 693.47,-21.9 685.25,-18.97"/>
<polygon fill="#63b8ff" stroke="#63b8ff" points="766.98,-53.63 777.57,-54.04 769.55,-47.11 766.98,-53.63"/>
</a>
</g>
</g>
<!-- Node2&#45;&gt;Node3 -->
<g id="edge2_Node000002_Node000003" class="edge">
<title>Node2&#45;&gt;Node3</title>
<g id="a_edge2_Node000002_Node000003"><a xlink:title=" ">
<path fill="none" stroke="#63b8ff" d="M607.04,-95.82C594.12,-99.16 580.09,-102.79 566.89,-106.21"/>
<polygon fill="#63b8ff" stroke="#63b8ff" points="607.78,-99.24 616.59,-93.35 606.03,-92.47 607.78,-99.24"/>
</a>
</g>
</g>
<!-- Node7 -->
<g id="Node000007" class="node">
<title>Node7</title>
<g id="a_Node000007"><a xlink:href="namespaceCore.html#ad98e98a441916916448cd3eb5c437bcf" target="_top" xlink:title="Initializes the runtime environment based on command&#45;line arguments and simulation parameters.">
<polygon fill="white" stroke="#666666" points="558.25,-86.5 465,-86.5 465,-68 558.25,-68 558.25,-86.5"/>
<text xml:space="preserve" text-anchor="middle" x="511.62" y="-73" font-family="Helvetica,sans-Serif" font-size="10.00">Core::runtime_init</text>
</a>
</g>
</g>
<!-- Node2&#45;&gt;Node7 -->
<g id="edge6_Node000002_Node000007" class="edge">
<title>Node2&#45;&gt;Node7</title>
<g id="a_edge6_Node000002_Node000007"><a xlink:title=" ">
<path fill="none" stroke="#63b8ff" d="M600.54,-80.94C586.65,-80.36 571.89,-79.74 558.52,-79.18"/>
<polygon fill="#63b8ff" stroke="#63b8ff" points="600.29,-84.43 610.43,-81.35 600.59,-77.44 600.29,-84.43"/>
</a>
</g>
</g>
<!-- Node4 -->
<g id="Node000004" class="node">
<title>Node4</title>
<g id="a_Node000004"><a xlink:href="classCore_1_1GlobalInitialiser.html#a212a55abe2b9cb558932ba82e4cf6dbf" target="_top" xlink:title="Initializes the simulation state.">
<polygon fill="white" stroke="#666666" points="415.88,-136.75 306.12,-136.75 306.12,-107.75 415.88,-107.75 415.88,-136.75"/>
<text xml:space="preserve" text-anchor="start" x="314.12" y="-123.25" font-family="Helvetica,sans-Serif" font-size="10.00">Core::GlobalInitialiser</text>
<text xml:space="preserve" text-anchor="middle" x="361" y="-112.75" font-family="Helvetica,sans-Serif" font-size="10.00">::init_state</text>
</a>
</g>
</g>
<!-- Node3&#45;&gt;Node4 -->
<g id="edge3_Node000003_Node000004" class="edge">
<title>Node3&#45;&gt;Node4</title>
<g id="a_edge3_Node000003_Node000004"><a xlink:title=" ">
<path fill="none" stroke="#63b8ff" d="M445.31,-121.13C435.62,-121.26 425.72,-121.39 416.29,-121.52"/>
<polygon fill="#63b8ff" stroke="#63b8ff" points="445.08,-124.63 455.03,-121 444.99,-117.63 445.08,-124.63"/>
</a>
</g>
</g>
<!-- Node5 -->
<g id="Node000005" class="node">
<title>Node5</title>
<g id="a_Node000005"><a xlink:href="classCore_1_1GlobalInitialiser.html#a4fa32007b34a9e448be11ebd7d5e695f" target="_top" xlink:title="Initializes a transitioner with the provided flow iterator.">
<polygon fill="white" stroke="#666666" points="265.25,-136.75 155.5,-136.75 155.5,-107.75 265.25,-107.75 265.25,-136.75"/>
<text xml:space="preserve" text-anchor="start" x="163.5" y="-123.25" font-family="Helvetica,sans-Serif" font-size="10.00">Core::GlobalInitialiser</text>
<text xml:space="preserve" text-anchor="middle" x="210.38" y="-112.75" font-family="Helvetica,sans-Serif" font-size="10.00">::init_transitionner</text>
</a>
</g>
</g>
<!-- Node4&#45;&gt;Node5 -->
<g id="edge4_Node000004_Node000005" class="edge">
<title>Node4&#45;&gt;Node5</title>
<g id="a_edge4_Node000004_Node000005"><a xlink:title=" ">
<path fill="none" stroke="#63b8ff" d="M294.68,-122.25C284.99,-122.25 275.09,-122.25 265.66,-122.25"/>
<polygon fill="#63b8ff" stroke="#63b8ff" points="294.41,-125.75 304.41,-122.25 294.41,-118.75 294.41,-125.75"/>
</a>
</g>
</g>
<!-- Node6 -->
<g id="Node000006" class="node">
<title>Node6</title>
<g id="a_Node000006"><a xlink:href="structApi_1_1SimulationInstance.html#ae9bdd54076170f50eadcb7966d64c19d" target="_top" xlink:title="Apply the simulation configuration and prepare for execution.">
<polygon fill="white" stroke="#666666" points="119.5,-136.75 0,-136.75 0,-107.75 119.5,-107.75 119.5,-136.75"/>
<text xml:space="preserve" text-anchor="start" x="8" y="-123.25" font-family="Helvetica,sans-Serif" font-size="10.00">Api::SimulationInstance</text>
<text xml:space="preserve" text-anchor="middle" x="59.75" y="-112.75" font-family="Helvetica,sans-Serif" font-size="10.00">::apply</text>
</a>
</g>
</g>
<!-- Node5&#45;&gt;Node6 -->
<g id="edge5_Node000005_Node000006" class="edge">
<title>Node5&#45;&gt;Node6</title>
<g id="a_edge5_Node000005_Node000006"><a xlink:title=" ">
<path fill="none" stroke="#63b8ff" d="M144.04,-122.25C135.97,-122.25 127.77,-122.25 119.81,-122.25"/>
<polygon fill="#63b8ff" stroke="#63b8ff" points="143.78,-125.75 153.78,-122.25 143.78,-118.75 143.78,-125.75"/>
</a>
</g>
</g>
<!-- Node8 -->
<g id="Node000008" class="node">
<title>Node8</title>
<g id="a_Node000008"><a xlink:href="structApi_1_1SimulationInstance.html#aaba14d53cd780130378421e0bf990663" target="_top" xlink:title="simulation instance constructor">
<polygon fill="white" stroke="#666666" points="420.75,-89.75 301.25,-89.75 301.25,-60.75 420.75,-60.75 420.75,-89.75"/>
<text xml:space="preserve" text-anchor="start" x="309.25" y="-76.25" font-family="Helvetica,sans-Serif" font-size="10.00">Api::SimulationInstance</text>
<text xml:space="preserve" text-anchor="middle" x="361" y="-65.75" font-family="Helvetica,sans-Serif" font-size="10.00">::SimulationInstance</text>
</a>
</g>
</g>
<!-- Node7&#45;&gt;Node8 -->
<g id="edge7_Node000007_Node000008" class="edge">
<title>Node7&#45;&gt;Node8</title>
<g id="a_edge7_Node000007_Node000008"><a xlink:title=" ">
<path fill="none" stroke="#63b8ff" d="M453.53,-76.48C442.9,-76.34 431.77,-76.19 421.08,-76.05"/>
<polygon fill="#63b8ff" stroke="#63b8ff" points="453.26,-79.98 463.31,-76.61 453.35,-72.98 453.26,-79.98"/>
</a>
</g>
</g>
</g>
</svg>

<g id="navigator" transform="translate(0 0)" fill="#404254">
  <rect fill="#f2f5e9" fill-opacity="0.5" stroke="#606060" stroke-width=".5" x="0" y="0" width="60" height="60"/>
  <use id="zoomplus" xlink:href="#zoomPlus" x="17" y="9" onmousedown="handleZoom(evt,'in')"/>
  <use id="zoomminus" xlink:href="#zoomMin" x="42" y="9" onmousedown="handleZoom(evt,'out')"/>
  <use id="reset" xlink:href="#resetDef" x="30" y="36" onmousedown="handleReset()"/>
   <use id="arrowup" xlink:href="#arrowUp" x="0" y="0" onmousedown="handlePan(0,-1)"/>
  <use id="arrowright" xlink:href="#arrowRight" x="0" y="0" onmousedown="handlePan(1,0)"/>
  <use id="arrowdown" xlink:href="#arrowDown" x="0" y="0" onmousedown="handlePan(0,1)"/>
  <use id="arrowleft" xlink:href="#arrowLeft" x="0" y="0" onmousedown="handlePan(-1,0)"/>
</g>
<svg viewBox="0 0 15 15" width="100%" height="30px" preserveAspectRatio="xMaxYMin meet">
 <g id="arrow_out" transform="scale(0.3 0.3)">
  <a xlink:href="namespaceWrapMPI_aa924ad0d911109a9e6e3a20bebc3b316_icgraph_org.svg" target="_base">
   <rect id="button" ry="5" rx="5" y="6" x="6" height="38" width="38"
        fill="#f2f5e9" fill-opacity="0.5" stroke="#606060" stroke-width="1.0"/>
   <path id="arrow"
     d="M 11.500037,31.436501 C 11.940474,20.09759 22.043105,11.32322 32.158766,21.979434 L 37.068811,17.246167 C 37.068811,17.246167 37.088388,32 37.088388,32 L 22.160133,31.978069 C 22.160133,31.978069 26.997745,27.140456 26.997745,27.140456 C 18.528582,18.264221 13.291696,25.230495 11.500037,31.436501 z"
     style="fill:#404040;"/>
  </a>
 </g>
</svg>

<style type='text/css'>
<![CDATA[
[data-mouse-over-selected='false'] { opacity: 0.7; }
[data-mouse-over-selected='true']  { opacity: 1.0; }
]]>
</style>
<script type="application/ecmascript"><![CDATA[
document.addEventListener('DOMContentLoaded', (event) => {
  highlightEdges();
  highlightAdjacentNodes();
});
]]></script>
</svg>
