<?xml version="1.0" encoding="UTF-8" standalone="no"?>
<!DOCTYPE svg PUBLIC "-//W3C//DTD SVG 1.1//EN"
 "http://www.w3.org/Graphics/SVG/1.1/DTD/svg11.dtd">
<!-- Generated by graphviz version 12.1.2 (0)
 -->
<!-- Title: MC::event_index Pages: 1 -->
<svg width="739pt" height="158pt"
 viewBox="0.00 0.00 739.00 157.75" xmlns="http://www.w3.org/2000/svg" xmlns:xlink="http://www.w3.org/1999/xlink">
<g id="graph0" class="graph" transform="scale(1 1) rotate(0) translate(4 153.75)">
<title>MC::event_index</title>
<!-- Node1 -->
<g id="Node000001" class="node">
<title>Node1</title>
<g id="a_Node000001"><a xlink:title="inline getter, converts event to its value in order to be use as array index">
<polygon fill="#999999" stroke="#666666" points="731,-112.75 641.5,-112.75 641.5,-94.25 731,-94.25 731,-112.75"/>
<text text-anchor="middle" x="686.25" y="-99.25" font-family="Helvetica,sans-Serif" font-size="10.00">MC::event_index</text>
</a>
</g>
</g>
<!-- Node2 -->
<g id="Node000002" class="node">
<title>Node2</title>
<g id="a_Node000002"><a xlink:href="structMC_1_1EventContainer.html#a9d889f4f53b7008b152b1353729c087a" target="_top" xlink:title=" ">
<polygon fill="white" stroke="#666666" points="605.5,-149.75 479.25,-149.75 479.25,-131.25 605.5,-131.25 605.5,-149.75"/>
<text text-anchor="middle" x="542.38" y="-136.25" font-family="Helvetica,sans-Serif" font-size="10.00">MC::EventContainer::add</text>
</a>
</g>
</g>
<!-- Node1&#45;&gt;Node2 -->
<g id="edge1_Node000001_Node000002" class="edge">
<title>Node1&#45;&gt;Node2</title>
<g id="a_edge1_Node000001_Node000002"><a xlink:title=" ">
<path fill="none" stroke="#63b8ff" d="M637.09,-116.06C618.56,-120.89 597.72,-126.33 580.4,-130.84"/>
<polygon fill="#63b8ff" stroke="#63b8ff" points="637.72,-119.51 646.51,-113.6 635.95,-112.74 637.72,-119.51"/>
</a>
</g>
</g>
<!-- Node3 -->
<g id="Node000003" class="node">
<title>Node3</title>
<g id="a_Node000003"><a xlink:href="structMC_1_1EventContainer.html#a2fadba8d7bf92a3d9b3a3aeaf46f1cf9" target="_top" xlink:title="Getter to specific event counter.">
<polygon fill="white" stroke="#666666" points="604.38,-112.75 480.38,-112.75 480.38,-94.25 604.38,-94.25 604.38,-112.75"/>
<text text-anchor="middle" x="542.38" y="-99.25" font-family="Helvetica,sans-Serif" font-size="10.00">MC::EventContainer::get</text>
</a>
</g>
</g>
<!-- Node1&#45;&gt;Node3 -->
<g id="edge2_Node000001_Node000003" class="edge">
<title>Node1&#45;&gt;Node3</title>
<g id="a_edge2_Node000001_Node000003"><a xlink:title=" ">
<path fill="none" stroke="#63b8ff" d="M629.74,-103.5C621.51,-103.5 612.99,-103.5 604.65,-103.5"/>
<polygon fill="#63b8ff" stroke="#63b8ff" points="629.62,-107 639.62,-103.5 629.62,-100 629.62,-107"/>
</a>
</g>
</g>
<!-- Node4 -->
<g id="Node000004" class="node">
<title>Node4</title>
<g id="a_Node000004"><a xlink:href="structMC_1_1EventContainer.html#a70d7122fe5d2521f91e871816ea83e61" target="_top" xlink:title="Increment specific event counter.">
<polygon fill="white" stroke="#666666" points="594.62,-76 490.12,-76 490.12,-47 594.62,-47 594.62,-76"/>
<text text-anchor="start" x="498.12" y="-62.5" font-family="Helvetica,sans-Serif" font-size="10.00">MC::EventContainer</text>
<text text-anchor="middle" x="542.38" y="-52" font-family="Helvetica,sans-Serif" font-size="10.00">::incr</text>
</a>
</g>
</g>
<!-- Node1&#45;&gt;Node4 -->
<g id="edge3_Node000001_Node000004" class="edge">
<title>Node1&#45;&gt;Node4</title>
<g id="a_edge3_Node000001_Node000004"><a xlink:title=" ">
<path fill="none" stroke="#63b8ff" d="M641.73,-90.62C626.61,-86.14 609.53,-81.08 593.89,-76.46"/>
<polygon fill="#63b8ff" stroke="#63b8ff" points="640.31,-93.85 650.89,-93.33 642.3,-87.13 640.31,-93.85"/>
</a>
</g>
</g>
<!-- Node5 -->
<g id="Node000005" class="node">
<title>Node5</title>
<g id="a_Node000005"><a xlink:href="structMC_1_1EventContainer.html#a117575ad89e1abca8ad66cb704c18bd5" target="_top" xlink:title=" ">
<polygon fill="white" stroke="#666666" points="443.25,-76 338.75,-76 338.75,-47 443.25,-47 443.25,-76"/>
<text text-anchor="start" x="346.75" y="-62.5" font-family="Helvetica,sans-Serif" font-size="10.00">MC::EventContainer</text>
<text text-anchor="middle" x="391" y="-52" font-family="Helvetica,sans-Serif" font-size="10.00">::wrap_incr</text>
</a>
</g>
</g>
<!-- Node4&#45;&gt;Node5 -->
<g id="edge4_Node000004_Node000005" class="edge">
<title>Node4&#45;&gt;Node5</title>
<g id="a_edge4_Node000004_Node000005"><a xlink:title=" ">
<path fill="none" stroke="#63b8ff" d="M478.48,-61.5C466.82,-61.5 454.77,-61.5 443.5,-61.5"/>
<polygon fill="#63b8ff" stroke="#63b8ff" points="478.46,-65 488.46,-61.5 478.46,-58 478.46,-65"/>
</a>
</g>
</g>
<!-- Node6 -->
<g id="Node000006" class="node">
<title>Node6</title>
<g id="a_Node000006"><a xlink:href="structSimulation_1_1KernelInline_1_1MoveFunctor.html#ae6752b77648ada1867cb9da6db34e98d" target="_top" xlink:title=" ">
<polygon fill="white" stroke="#666666" points="299,-123 165.25,-123 165.25,-94 299,-94 299,-123"/>
<text text-anchor="start" x="173.25" y="-109.5" font-family="Helvetica,sans-Serif" font-size="10.00">Simulation::KernelInline</text>
<text text-anchor="middle" x="232.12" y="-99" font-family="Helvetica,sans-Serif" font-size="10.00">::MoveFunctor::handle_exit</text>
</a>
</g>
</g>
<!-- Node5&#45;&gt;Node6 -->
<g id="edge5_Node000005_Node000006" class="edge">
<title>Node5&#45;&gt;Node6</title>
<g id="a_edge5_Node000005_Node000006"><a xlink:title=" ">
<path fill="none" stroke="#63b8ff" d="M329.39,-79.66C314.04,-84.26 297.73,-89.14 282.98,-93.56"/>
<polygon fill="#63b8ff" stroke="#63b8ff" points="330.34,-83.03 338.91,-76.81 328.33,-76.32 330.34,-83.03"/>
</a>
</g>
</g>
<!-- Node8 -->
<g id="Node000008" class="node">
<title>Node8</title>
<g id="a_Node000008"><a xlink:href="structSimulation_1_1KernelInline_1_1MoveFunctor.html#a7a9000c1cf181bc3488b35a886cad84c" target="_top" xlink:title=" ">
<polygon fill="white" stroke="#666666" points="302.75,-76 161.5,-76 161.5,-47 302.75,-47 302.75,-76"/>
<text text-anchor="start" x="169.5" y="-62.5" font-family="Helvetica,sans-Serif" font-size="10.00">Simulation::KernelInline</text>
<text text-anchor="middle" x="232.12" y="-52" font-family="Helvetica,sans-Serif" font-size="10.00">::MoveFunctor::handle_move</text>
</a>
</g>
</g>
<!-- Node5&#45;&gt;Node8 -->
<g id="edge7_Node000005_Node000008" class="edge">
<title>Node5&#45;&gt;Node8</title>
<g id="a_edge7_Node000005_Node000008"><a xlink:title=" ">
<path fill="none" stroke="#63b8ff" d="M327.22,-61.5C319.3,-61.5 311.15,-61.5 303.13,-61.5"/>
<polygon fill="#63b8ff" stroke="#63b8ff" points="327.12,-65 337.12,-61.5 327.12,-58 327.12,-65"/>
</a>
</g>
</g>
<!-- Node9 -->
<g id="Node000009" class="node">
<title>Node9</title>
<g id="a_Node000009"><a xlink:href="structSimulation_1_1KernelInline_1_1CycleFunctor.html#a64bc7bcb272a1b91b1ab3f21acdea6c8" target="_top" xlink:title=" ">
<polygon fill="white" stroke="#666666" points="295.62,-29 168.62,-29 168.62,0 295.62,0 295.62,-29"/>
<text text-anchor="start" x="176.62" y="-15.5" font-family="Helvetica,sans-Serif" font-size="10.00">Simulation::KernelInline</text>
<text text-anchor="middle" x="232.12" y="-5" font-family="Helvetica,sans-Serif" font-size="10.00">::CycleFunctor::operator()</text>
</a>
</g>
</g>
<!-- Node5&#45;&gt;Node9 -->
<g id="edge9_Node000005_Node000009" class="edge">
<title>Node5&#45;&gt;Node9</title>
<g id="a_edge9_Node000005_Node000009"><a xlink:title=" ">
<path fill="none" stroke="#63b8ff" d="M329.39,-43.34C314.04,-38.74 297.73,-33.86 282.98,-29.44"/>
<polygon fill="#63b8ff" stroke="#63b8ff" points="328.33,-46.68 338.91,-46.19 330.34,-39.97 328.33,-46.68"/>
</a>
</g>
</g>
<!-- Node7 -->
<g id="Node000007" class="node">
<title>Node7</title>
<g id="a_Node000007"><a xlink:href="structSimulation_1_1KernelInline_1_1MoveFunctor.html#a1ebefea03da6b6dd668057f52ed060c8" target="_top" xlink:title=" ">
<polygon fill="white" stroke="#666666" points="125.5,-99 0,-99 0,-70 125.5,-70 125.5,-99"/>
<text text-anchor="start" x="8" y="-85.5" font-family="Helvetica,sans-Serif" font-size="10.00">Simulation::KernelInline</text>
<text text-anchor="middle" x="62.75" y="-75" font-family="Helvetica,sans-Serif" font-size="10.00">::MoveFunctor::operator()</text>
</a>
</g>
</g>
<!-- Node6&#45;&gt;Node7 -->
<g id="edge6_Node000006_Node000007" class="edge">
<title>Node6&#45;&gt;Node7</title>
<g id="a_edge6_Node000006_Node000007"><a xlink:title=" ">
<path fill="none" stroke="#63b8ff" d="M153.69,-97.4C144.37,-96.06 134.94,-94.71 125.88,-93.41"/>
<polygon fill="#63b8ff" stroke="#63b8ff" points="153.08,-100.84 163.48,-98.8 154.07,-93.92 153.08,-100.84"/>
</a>
</g>
</g>
<!-- Node8&#45;&gt;Node7 -->
<g id="edge8_Node000008_Node000007" class="edge">
<title>Node8&#45;&gt;Node7</title>
<g id="a_edge8_Node000008_Node000007"><a xlink:title=" ">
<path fill="none" stroke="#63b8ff" d="M149.75,-72.68C141.68,-73.79 133.59,-74.9 125.76,-75.98"/>
<polygon fill="#63b8ff" stroke="#63b8ff" points="150.18,-76.16 159.61,-71.33 149.23,-69.22 150.18,-76.16"/>
</a>
</g>
</g>
</g>
</svg>
