<?xml version="1.0" encoding="UTF-8" standalone="no"?>
<!DOCTYPE svg PUBLIC "-//W3C//DTD SVG 1.1//EN"
 "http://www.w3.org/Graphics/SVG/1.1/DTD/svg11.dtd">
<!-- Generated by graphviz version 14.0.1 (0)
 -->
<!-- Title: PostProcessing::save_probes Pages: 1 -->
<svg width="750pt" height="105pt"
 viewBox="0.00 0.00 750.00 105.00" xmlns="http://www.w3.org/2000/svg" xmlns:xlink="http://www.w3.org/1999/xlink">
<g id="graph0" class="graph" transform="scale(1 1) rotate(0) translate(4 101)">
<title>PostProcessing::save_probes</title>
<!-- Node1 -->
<g id="Node000001" class="node">
<title>Node1</title>
<g id="a_Node000001"><a xlink:title=" ">
<polygon fill="#999999" stroke="#666666" points="741.5,-43 630.25,-43 630.25,-14 741.5,-14 741.5,-43"/>
<text xml:space="preserve" text-anchor="start" x="638.25" y="-29.5" font-family="Helvetica,sans-Serif" font-size="10.00">PostProcessing::save</text>
<text xml:space="preserve" text-anchor="middle" x="685.88" y="-19" font-family="Helvetica,sans-Serif" font-size="10.00">_probes</text>
</a>
</g>
</g>
<!-- Node2 -->
<g id="Node000002" class="node">
<title>Node2</title>
<g id="a_Node000002"><a xlink:href="namespaceCore.html#ab6528e76111960864b7e4741327b3049" target="_top" xlink:title="Start simulation.">
<polygon fill="white" stroke="#666666" points="562.75,-56.75 499.5,-56.75 499.5,-38.25 562.75,-38.25 562.75,-56.75"/>
<text xml:space="preserve" text-anchor="middle" x="531.12" y="-43.25" font-family="Helvetica,sans-Serif" font-size="10.00">Core::exec</text>
</a>
</g>
</g>
<!-- Node1&#45;&gt;Node2 -->
<g id="edge1_Node000001_Node000002" class="edge">
<title>Node1&#45;&gt;Node2</title>
<g id="a_edge1_Node000001_Node000002"><a xlink:title=" ">
<path fill="none" stroke="#63b8ff" d="M618.85,-36.71C599.4,-39.13 579.04,-41.66 562.94,-43.67"/>
<polygon fill="#63b8ff" stroke="#63b8ff" points="619.17,-40.2 628.66,-35.49 618.3,-33.25 619.17,-40.2"/>
</a>
</g>
</g>
<!-- Node9 -->
<g id="Node000009" class="node">
<title>Node9</title>
<g id="a_Node000009"><a xlink:href="classExportHandler.html#ad66ddd83a4245acb73446a86f3fcde6a" target="_top" xlink:title="Handles periodic export of simulation data.">
<polygon fill="white" stroke="#666666" points="594.25,-19.75 468,-19.75 468,-1.25 594.25,-1.25 594.25,-19.75"/>
<text xml:space="preserve" text-anchor="middle" x="531.12" y="-6.25" font-family="Helvetica,sans-Serif" font-size="10.00">ExportHandler::operator()</text>
</a>
</g>
</g>
<!-- Node1&#45;&gt;Node9 -->
<g id="edge11_Node000001_Node000009" class="edge">
<title>Node1&#45;&gt;Node9</title>
<g id="a_edge11_Node000001_Node000009"><a xlink:title=" ">
<path fill="none" stroke="#63b8ff" d="M618.87,-20.72C610.79,-19.77 602.54,-18.8 594.51,-17.85"/>
<polygon fill="#63b8ff" stroke="#63b8ff" points="618.32,-24.18 628.66,-21.88 619.14,-17.23 618.32,-24.18"/>
</a>
</g>
</g>
<!-- Node3 -->
<g id="Node000003" class="node">
<title>Node3</title>
<g id="a_Node000003"><a xlink:href="structApi_1_1SimulationInstance.html#a3f04372728be84263fb69f5773ca5bd5" target="_top" xlink:title="Execute the simulation.">
<polygon fill="white" stroke="#666666" points="275,-97 155.5,-97 155.5,-68 275,-68 275,-97"/>
<text xml:space="preserve" text-anchor="start" x="163.5" y="-83.5" font-family="Helvetica,sans-Serif" font-size="10.00">Api::SimulationInstance</text>
<text xml:space="preserve" text-anchor="middle" x="215.25" y="-73" font-family="Helvetica,sans-Serif" font-size="10.00">::exec</text>
</a>
</g>
</g>
<!-- Node2&#45;&gt;Node3 -->
<g id="edge2_Node000002_Node000003" class="edge">
<title>Node2&#45;&gt;Node3</title>
<g id="a_edge2_Node000002_Node000003"><a xlink:title=" ">
<path fill="none" stroke="#63b8ff" d="M488.39,-56.13C471.02,-59.47 450.6,-63.07 432,-65.5 379.28,-72.39 318.93,-76.86 275.48,-79.48"/>
<polygon fill="#63b8ff" stroke="#63b8ff" points="488.69,-59.64 497.83,-54.28 487.35,-52.77 488.69,-59.64"/>
</a>
</g>
</g>
<!-- Node5 -->
<g id="Node000005" class="node">
<title>Node5</title>
<g id="a_Node000005"><a xlink:href="namespaceCore.html#a23e6f3d22fc51ef9decabb2c220b27c4" target="_top" xlink:title=" ">
<polygon fill="white" stroke="#666666" points="432,-56.75 311,-56.75 311,-38.25 432,-38.25 432,-56.75"/>
<text xml:space="preserve" text-anchor="middle" x="371.5" y="-43.25" font-family="Helvetica,sans-Serif" font-size="10.00">Core::exporter_filename</text>
</a>
</g>
</g>
<!-- Node2&#45;&gt;Node5 -->
<g id="edge4_Node000002_Node000005" class="edge">
<title>Node2&#45;&gt;Node5</title>
<g id="a_edge4_Node000002_Node000005"><a xlink:title=" ">
<path fill="none" stroke="#63b8ff" d="M488.04,-41.45C470.92,-40.75 450.83,-40.57 432.24,-40.93"/>
<polygon fill="#63b8ff" stroke="#63b8ff" points="487.68,-44.94 497.85,-41.94 488.04,-37.94 487.68,-44.94"/>
</a>
</g>
</g>
<!-- Node6 -->
<g id="Node000006" class="node">
<title>Node6</title>
<g id="a_Node000006"><a xlink:href="namespaceCore.html#a8a3e4aa1d1921da2e211c43d5368acf1" target="_top" xlink:title=" ">
<polygon fill="white" stroke="#666666" points="402,-19.75 341,-19.75 341,-1.25 402,-1.25 402,-19.75"/>
<text xml:space="preserve" text-anchor="middle" x="371.5" y="-6.25" font-family="Helvetica,sans-Serif" font-size="10.00">Core::load</text>
</a>
</g>
</g>
<!-- Node2&#45;&gt;Node6 -->
<g id="edge6_Node000002_Node000006" class="edge">
<title>Node2&#45;&gt;Node6</title>
<g id="a_edge6_Node000002_Node000006"><a xlink:title=" ">
<path fill="none" stroke="#63b8ff" d="M488.28,-37.68C461.23,-31.33 426.68,-23.22 402.39,-17.52"/>
<polygon fill="#63b8ff" stroke="#63b8ff" points="487.35,-41.05 497.89,-39.93 488.95,-34.24 487.35,-41.05"/>
</a>
</g>
</g>
<!-- Node4 -->
<g id="Node000004" class="node">
<title>Node4</title>
<g id="a_Node000004"><a xlink:href="structApi_1_1SimulationInstance.html#afee07db8a6b57fe7982900ecaa943cc0" target="_top" xlink:title="Default constructor.">
<polygon fill="white" stroke="#666666" points="119.5,-96 0,-96 0,-67 119.5,-67 119.5,-96"/>
<text xml:space="preserve" text-anchor="start" x="8" y="-82.5" font-family="Helvetica,sans-Serif" font-size="10.00">Api::SimulationInstance</text>
<text xml:space="preserve" text-anchor="middle" x="59.75" y="-72" font-family="Helvetica,sans-Serif" font-size="10.00">::SimulationInstance</text>
</a>
</g>
</g>
<!-- Node3&#45;&gt;Node4 -->
<g id="edge3_Node000003_Node000004" class="edge">
<title>Node3&#45;&gt;Node4</title>
<g id="a_edge3_Node000003_Node000004"><a xlink:title=" ">
<path fill="none" stroke="#63b8ff" d="M143.99,-82.04C135.89,-81.99 127.69,-81.94 119.75,-81.88"/>
<polygon fill="#63b8ff" stroke="#63b8ff" points="143.81,-85.54 153.83,-82.11 143.85,-78.54 143.81,-85.54"/>
</a>
</g>
</g>
<!-- Node5&#45;&gt;Node2 -->
<g id="edge5_Node000005_Node000002" class="edge">
<title>Node5&#45;&gt;Node2</title>
<g id="a_edge5_Node000005_Node000002"><a xlink:title=" ">
<path fill="none" stroke="#63b8ff" d="M443.64,-54.22C463.21,-54.37 483.41,-53.95 499.36,-52.98"/>
<polygon fill="#63b8ff" stroke="#63b8ff" points="443.79,-50.72 433.75,-54.09 443.7,-57.72 443.79,-50.72"/>
</a>
</g>
</g>
<!-- Node7 -->
<g id="Node000007" class="node">
<title>Node7</title>
<g id="a_Node000007"><a xlink:href="structApi_1_1SimulationInstance.html#ad2abfa76ac4128d44b7c0c895f78b77b" target="_top" xlink:title="Load ad apply the simulation configuration and prepare for execution based on file.">
<polygon fill="white" stroke="#666666" points="275,-29 155.5,-29 155.5,0 275,0 275,-29"/>
<text xml:space="preserve" text-anchor="start" x="163.5" y="-15.5" font-family="Helvetica,sans-Serif" font-size="10.00">Api::SimulationInstance</text>
<text xml:space="preserve" text-anchor="middle" x="215.25" y="-5" font-family="Helvetica,sans-Serif" font-size="10.00">::apply_load</text>
</a>
</g>
</g>
<!-- Node6&#45;&gt;Node7 -->
<g id="edge7_Node000006_Node000007" class="edge">
<title>Node6&#45;&gt;Node7</title>
<g id="a_edge7_Node000006_Node000007"><a xlink:title=" ">
<path fill="none" stroke="#63b8ff" d="M329.26,-11.57C312.7,-12 293.29,-12.5 275.28,-12.97"/>
<polygon fill="#63b8ff" stroke="#63b8ff" points="329.34,-15.07 339.25,-11.31 329.16,-8.07 329.34,-15.07"/>
</a>
</g>
</g>
<!-- Node7&#45;&gt;Node4 -->
<g id="edge10_Node000007_Node000004" class="edge">
<title>Node7&#45;&gt;Node4</title>
<g id="a_edge10_Node000007_Node000004"><a xlink:title=" ">
<path fill="none" stroke="#63b8ff" d="M170.78,-33.93C154.69,-41.08 136.29,-49.21 119.5,-56.5 111.98,-59.77 103.89,-63.24 96.2,-66.51"/>
<polygon fill="#63b8ff" stroke="#63b8ff" points="171.88,-37.27 179.59,-30.01 169.04,-30.88 171.88,-37.27"/>
</a>
</g>
</g>
<!-- Node8 -->
<g id="Node000008" class="node">
<title>Node8</title>
<g id="a_Node000008"><a xlink:href="structApi_1_1SimulationInstance.html#a3398ddd22faa3ceb16b454c51faeced0" target="_top" xlink:title="Apply the simulation configuration and prepare for execution.">
<polygon fill="white" stroke="#666666" points="119.5,-29 0,-29 0,0 119.5,0 119.5,-29"/>
<text xml:space="preserve" text-anchor="start" x="8" y="-15.5" font-family="Helvetica,sans-Serif" font-size="10.00">Api::SimulationInstance</text>
<text xml:space="preserve" text-anchor="middle" x="59.75" y="-5" font-family="Helvetica,sans-Serif" font-size="10.00">::apply</text>
</a>
</g>
</g>
<!-- Node7&#45;&gt;Node8 -->
<g id="edge8_Node000007_Node000008" class="edge">
<title>Node7&#45;&gt;Node8</title>
<g id="a_edge8_Node000007_Node000008"><a xlink:title=" ">
<path fill="none" stroke="#63b8ff" d="M143.99,-14.5C135.89,-14.5 127.69,-14.5 119.75,-14.5"/>
<polygon fill="#63b8ff" stroke="#63b8ff" points="143.83,-18 153.83,-14.5 143.83,-11 143.83,-18"/>
</a>
</g>
</g>
<!-- Node8&#45;&gt;Node8 -->
<g id="edge9_Node000008_Node000008" class="edge">
<title>Node8&#45;&gt;Node8</title>
<g id="a_edge9_Node000008_Node000008"><a xlink:title=" ">
<path fill="none" stroke="#63b8ff" d="M86.14,-40.56C82,-44.41 73.2,-47 59.75,-47 35.15,-47 26.12,-38.32 32.65,-29.21"/>
<polygon fill="#63b8ff" stroke="#63b8ff" points="89.63,-40.92 86.76,-30.72 82.64,-40.48 89.63,-40.92"/>
</a>
</g>
</g>
</g>
</svg>
