<?xml version="1.0" encoding="UTF-8" standalone="no"?>
<!DOCTYPE svg PUBLIC "-//W3C//DTD SVG 1.1//EN"
 "http://www.w3.org/Graphics/SVG/1.1/DTD/svg11.dtd">
<!-- Generated by graphviz version 14.0.1 (0)
 -->
<!-- Title: Common::read_env Pages: 1 -->
<svg width="571pt" height="99pt"
 viewBox="0.00 0.00 571.00 99.00" xmlns="http://www.w3.org/2000/svg" xmlns:xlink="http://www.w3.org/1999/xlink">
<g id="graph0" class="graph" transform="scale(1 1) rotate(0) translate(4 94.75)">
<title>Common::read_env</title>
<!-- Node1 -->
<g id="Node000001" class="node">
<title>Node1</title>
<g id="a_Node000001"><a xlink:title="Wrapper arround get_env to get optional envariable.">
<polygon fill="#999999" stroke="#666666" points="562.75,-71.75 461.25,-71.75 461.25,-53.25 562.75,-53.25 562.75,-71.75"/>
<text xml:space="preserve" text-anchor="middle" x="512" y="-58.25" font-family="Helvetica,sans-Serif" font-size="10.00">Common::read_env</text>
</a>
</g>
</g>
<!-- Node2 -->
<g id="Node000002" class="node">
<title>Node2</title>
<g id="a_Node000002"><a xlink:href="namespaceCommon.html#a7ca16dc3314f89cd1860091731cd7014" target="_top" xlink:title="Wrapper arround get_env to get envariable with fallback to default.">
<polygon fill="white" stroke="#666666" points="425.25,-71.75 310.25,-71.75 310.25,-53.25 425.25,-53.25 425.25,-71.75"/>
<text xml:space="preserve" text-anchor="middle" x="367.75" y="-58.25" font-family="Helvetica,sans-Serif" font-size="10.00">Common::read_env_or</text>
</a>
</g>
</g>
<!-- Node1&#45;&gt;Node2 -->
<g id="edge1_Node000001_Node000002" class="edge">
<title>Node1&#45;&gt;Node2</title>
<g id="a_edge1_Node000001_Node000002"><a xlink:title=" ">
<path fill="none" stroke="#63b8ff" d="M449.46,-62.5C441.58,-62.5 433.54,-62.5 425.73,-62.5"/>
<polygon fill="#63b8ff" stroke="#63b8ff" points="449.33,-66 459.33,-62.5 449.33,-59 449.33,-66"/>
</a>
</g>
</g>
<!-- Node3 -->
<g id="Node000003" class="node">
<title>Node3</title>
<g id="a_Node000003"><a xlink:href="namespaceCommon.html#ad9c9fe6434c0c09218a2e33e17beee28" target="_top" xlink:title=" ">
<polygon fill="white" stroke="#666666" points="274.25,-90.75 141.25,-90.75 141.25,-72.25 274.25,-72.25 274.25,-90.75"/>
<text xml:space="preserve" text-anchor="middle" x="207.75" y="-77.25" font-family="Helvetica,sans-Serif" font-size="10.00">Common::get_policy_team</text>
</a>
</g>
</g>
<!-- Node2&#45;&gt;Node3 -->
<g id="edge2_Node000002_Node000003" class="edge">
<title>Node2&#45;&gt;Node3</title>
<g id="a_edge2_Node000002_Node000003"><a xlink:title=" ">
<path fill="none" stroke="#63b8ff" d="M298.92,-70.66C290.87,-71.63 282.66,-72.61 274.64,-73.58"/>
<polygon fill="#63b8ff" stroke="#63b8ff" points="299.14,-74.16 308.65,-69.49 298.31,-67.21 299.14,-74.16"/>
</a>
</g>
</g>
<!-- Node4 -->
<g id="Node000004" class="node">
<title>Node4</title>
<g id="a_Node000004"><a xlink:href="namespaceMC.html#a67a8a8fb99f617a67dd3702cd0f0b47f" target="_top" xlink:title=" ">
<polygon fill="white" stroke="#666666" points="272.75,-53.75 142.75,-53.75 142.75,-35.25 272.75,-35.25 272.75,-53.75"/>
<text xml:space="preserve" text-anchor="middle" x="207.75" y="-40.25" font-family="Helvetica,sans-Serif" font-size="10.00">MC::load_tuning_constant</text>
</a>
</g>
</g>
<!-- Node2&#45;&gt;Node4 -->
<g id="edge3_Node000002_Node000004" class="edge">
<title>Node2&#45;&gt;Node4</title>
<g id="a_edge3_Node000002_Node000004"><a xlink:title=" ">
<path fill="none" stroke="#63b8ff" d="M298.97,-54.78C290.36,-53.8 281.56,-52.8 273.01,-51.82"/>
<polygon fill="#63b8ff" stroke="#63b8ff" points="298.32,-58.23 308.65,-55.88 299.11,-51.27 298.32,-58.23"/>
</a>
</g>
</g>
<!-- Node5 -->
<g id="Node000005" class="node">
<title>Node5</title>
<g id="a_Node000005"><a xlink:href="namespaceMC.html#a321fdcab9f09e8611b6f76b834d4ba4b" target="_top" xlink:title="Helper function to initialize a MonteCarloUnit.">
<polygon fill="white" stroke="#666666" points="77.88,-83.75 27.38,-83.75 27.38,-65.25 77.88,-65.25 77.88,-83.75"/>
<text xml:space="preserve" text-anchor="middle" x="52.62" y="-70.25" font-family="Helvetica,sans-Serif" font-size="10.00">MC::init</text>
</a>
</g>
</g>
<!-- Node4&#45;&gt;Node5 -->
<g id="edge4_Node000004_Node000005" class="edge">
<title>Node4&#45;&gt;Node5</title>
<g id="a_edge4_Node000004_Node000005"><a xlink:title=" ">
<path fill="none" stroke="#63b8ff" d="M145.98,-56.41C122.31,-61.04 96.53,-66.09 78.23,-69.68"/>
<polygon fill="#63b8ff" stroke="#63b8ff" points="146.41,-59.89 155.55,-54.53 145.06,-53.02 146.41,-59.89"/>
</a>
</g>
</g>
<!-- Node6 -->
<g id="Node000006" class="node">
<title>Node6</title>
<g id="a_Node000006"><a xlink:href="structMC_1_1MonteCarloUnit.html#a98a680cfc3356b197d4cd8fd453e0a17" target="_top" xlink:title=" ">
<polygon fill="white" stroke="#666666" points="105.25,-29 0,-29 0,0 105.25,0 105.25,-29"/>
<text xml:space="preserve" text-anchor="start" x="8" y="-15.5" font-family="Helvetica,sans-Serif" font-size="10.00">MC::MonteCarloUnit</text>
<text xml:space="preserve" text-anchor="middle" x="52.62" y="-5" font-family="Helvetica,sans-Serif" font-size="10.00">::serialize</text>
</a>
</g>
</g>
<!-- Node4&#45;&gt;Node6 -->
<g id="edge5_Node000004_Node000006" class="edge">
<title>Node4&#45;&gt;Node6</title>
<g id="a_edge5_Node000004_Node000006"><a xlink:title=" ">
<path fill="none" stroke="#63b8ff" d="M146.03,-32.6C132.69,-29.99 118.68,-27.25 105.72,-24.71"/>
<polygon fill="#63b8ff" stroke="#63b8ff" points="145.06,-35.98 155.55,-34.47 146.41,-29.11 145.06,-35.98"/>
</a>
</g>
</g>
<!-- Node6&#45;&gt;Node6 -->
<g id="edge6_Node000006_Node000006" class="edge">
<title>Node6&#45;&gt;Node6</title>
<g id="a_edge6_Node000006_Node000006"><a xlink:title=" ">
<path fill="none" stroke="#63b8ff" d="M78.95,-40.56C74.82,-44.41 66.05,-47 52.62,-47 28.08,-47 19.07,-38.32 25.59,-29.21"/>
<polygon fill="#63b8ff" stroke="#63b8ff" points="82.44,-40.91 79.56,-30.72 75.45,-40.48 82.44,-40.91"/>
</a>
</g>
</g>
</g>
</svg>
