<?xml version="1.0" encoding="UTF-8" standalone="no"?>
<!DOCTYPE svg PUBLIC "-//W3C//DTD SVG 1.1//EN"
 "http://www.w3.org/Graphics/SVG/1.1/DTD/svg11.dtd">
<!-- Generated by graphviz version 14.0.1 (0)
 -->
<!-- Title: CommonMaths::_ln Pages: 1 -->
<svg width="595pt" height="84pt"
 viewBox="0.00 0.00 595.00 84.00" xmlns="http://www.w3.org/2000/svg" xmlns:xlink="http://www.w3.org/1999/xlink">
<g id="graph0" class="graph" transform="scale(1 1) rotate(0) translate(4 80)">
<title>CommonMaths::_ln</title>
<!-- Node1 -->
<g id="Node000001" class="node">
<title>Node1</title>
<g id="a_Node000001"><a xlink:title=" ">
<polygon fill="#999999" stroke="#666666" points="586.75,-46.75 485.25,-46.75 485.25,-28.25 586.75,-28.25 586.75,-46.75"/>
<text xml:space="preserve" text-anchor="middle" x="536" y="-33.25" font-family="Helvetica,sans-Serif" font-size="10.00">CommonMaths::_ln</text>
</a>
</g>
</g>
<!-- Node2 -->
<g id="Node000002" class="node">
<title>Node2</title>
<g id="a_Node000002"><a xlink:href="structMC_1_1Distributions_1_1Exponential.html#ac3639218708bbfa0c357c328851f021d" target="_top" xlink:title=" ">
<polygon fill="white" stroke="#666666" points="439.5,-76 341,-76 341,-47 439.5,-47 439.5,-76"/>
<text xml:space="preserve" text-anchor="start" x="349" y="-62.5" font-family="Helvetica,sans-Serif" font-size="10.00">MC::Distributions::</text>
<text xml:space="preserve" text-anchor="middle" x="390.25" y="-52" font-family="Helvetica,sans-Serif" font-size="10.00">Exponential::draw</text>
</a>
</g>
</g>
<!-- Node1&#45;&gt;Node2 -->
<g id="edge1_Node000001_Node000002" class="edge">
<title>Node1&#45;&gt;Node2</title>
<g id="a_edge1_Node000001_Node000002"><a xlink:title=" ">
<path fill="none" stroke="#63b8ff" d="M473.85,-47.71C462.4,-49.62 450.58,-51.6 439.58,-53.43"/>
<polygon fill="#63b8ff" stroke="#63b8ff" points="474.35,-51.17 483.63,-46.08 473.19,-44.27 474.35,-51.17"/>
</a>
</g>
</g>
<!-- Node3 -->
<g id="Node000003" class="node">
<title>Node3</title>
<g id="a_Node000003"><a xlink:href="namespaceSimulation_1_1KernelInline.html#a648521674ead158dd3776a946da6722a" target="_top" xlink:title=" ">
<polygon fill="white" stroke="#666666" points="449.25,-29 331.25,-29 331.25,0 449.25,0 449.25,-29"/>
<text xml:space="preserve" text-anchor="start" x="339.25" y="-15.5" font-family="Helvetica,sans-Serif" font-size="10.00">Simulation::KernelInline</text>
<text xml:space="preserve" text-anchor="middle" x="390.25" y="-5" font-family="Helvetica,sans-Serif" font-size="10.00">::probability_leaving</text>
</a>
</g>
</g>
<!-- Node1&#45;&gt;Node3 -->
<g id="edge2_Node000001_Node000003" class="edge">
<title>Node1&#45;&gt;Node3</title>
<g id="a_edge2_Node000001_Node000003"><a xlink:title=" ">
<path fill="none" stroke="#63b8ff" d="M473.93,-27.73C465.89,-26.44 457.67,-25.13 449.68,-23.85"/>
<polygon fill="#63b8ff" stroke="#63b8ff" points="473.2,-31.16 483.63,-29.28 474.31,-24.25 473.2,-31.16"/>
</a>
</g>
</g>
<!-- Node4 -->
<g id="Node000004" class="node">
<title>Node4</title>
<g id="a_Node000004"><a xlink:href="structSimulation_1_1KernelInline_1_1MoveFunctor.html#a50974bf6ba57832adef349fe00f5ff52" target="_top" xlink:title=" ">
<polygon fill="white" stroke="#666666" points="295.25,-29 161.5,-29 161.5,0 295.25,0 295.25,-29"/>
<text xml:space="preserve" text-anchor="start" x="169.5" y="-15.5" font-family="Helvetica,sans-Serif" font-size="10.00">Simulation::KernelInline</text>
<text xml:space="preserve" text-anchor="middle" x="228.38" y="-5" font-family="Helvetica,sans-Serif" font-size="10.00">::MoveFunctor::handle_exit</text>
</a>
</g>
</g>
<!-- Node3&#45;&gt;Node4 -->
<g id="edge3_Node000003_Node000004" class="edge">
<title>Node3&#45;&gt;Node4</title>
<g id="a_edge3_Node000003_Node000004"><a xlink:title=" ">
<path fill="none" stroke="#63b8ff" d="M319.57,-14.5C311.62,-14.5 303.53,-14.5 295.63,-14.5"/>
<polygon fill="#63b8ff" stroke="#63b8ff" points="319.57,-18 329.57,-14.5 319.57,-11 319.57,-18"/>
</a>
</g>
</g>
<!-- Node5 -->
<g id="Node000005" class="node">
<title>Node5</title>
<g id="a_Node000005"><a xlink:href="structSimulation_1_1KernelInline_1_1MoveFunctor.html#a2013c3c924c8db817100a85a61175859" target="_top" xlink:title=" ">
<polygon fill="white" stroke="#666666" points="125.5,-29 0,-29 0,0 125.5,0 125.5,-29"/>
<text xml:space="preserve" text-anchor="start" x="8" y="-15.5" font-family="Helvetica,sans-Serif" font-size="10.00">Simulation::KernelInline</text>
<text xml:space="preserve" text-anchor="middle" x="62.75" y="-5" font-family="Helvetica,sans-Serif" font-size="10.00">::MoveFunctor::operator()</text>
</a>
</g>
</g>
<!-- Node4&#45;&gt;Node5 -->
<g id="edge4_Node000004_Node000005" class="edge">
<title>Node4&#45;&gt;Node5</title>
<g id="a_edge4_Node000004_Node000005"><a xlink:title=" ">
<path fill="none" stroke="#63b8ff" d="M149.94,-14.5C141.86,-14.5 133.72,-14.5 125.84,-14.5"/>
<polygon fill="#63b8ff" stroke="#63b8ff" points="149.78,-18 159.78,-14.5 149.78,-11 149.78,-18"/>
</a>
</g>
</g>
</g>
</svg>
