<?xml version="1.0" encoding="UTF-8" standalone="no"?>
<!DOCTYPE svg PUBLIC "-//W3C//DTD SVG 1.1//EN"
 "http://www.w3.org/Graphics/SVG/1.1/DTD/svg11.dtd">
<!-- Generated by graphviz version 14.0.1 (0)
 -->
<!-- Title: Common::read_env_or Pages: 1 -->
<svg width="434pt" height="147pt"
 viewBox="0.00 0.00 434.00 147.00" xmlns="http://www.w3.org/2000/svg" xmlns:xlink="http://www.w3.org/1999/xlink">

<svg id="main" version="1.1" xmlns="http://www.w3.org/2000/svg" xmlns:xlink="http://www.w3.org/1999/xlink" xml:space="preserve">

<style type="text/css"><![CDATA[
.node, .edge {opacity: 0.7;}
.node.selected, .edge.selected {opacity: 1;}
.edge:hover path { stroke: red; }
.edge:hover polygon { stroke: red; fill: red; }
]]></style>
<script type="application/ecmascript" xlink:href="svg.min.js"/>
<svg id="graph" class="graph">
<g id="graph0" class="graph" transform="scale(1 1) rotate(0) translate(4 142.75)">
<title>Common::read_env_or</title>
<!-- Node1 -->
<g id="Node000001" class="node">
<title>Node1</title>
<g id="a_Node000001"><a xlink:title="Wrapper arround get_env to get envariable with fallback to default.">
<polygon fill="#999999" stroke="#666666" points="426,-101.75 311,-101.75 311,-83.25 426,-83.25 426,-101.75"/>
<text xml:space="preserve" text-anchor="middle" x="368.5" y="-88.25" font-family="Helvetica,sans-Serif" font-size="10.00">Common::read_env_or</text>
</a>
</g>
</g>
<!-- Node2 -->
<g id="Node000002" class="node">
<title>Node2</title>
<g id="a_Node000002"><a xlink:href="namespaceCommon.html#ad3d68e79e4dbd7836f3090e662e01dba" target="_top" xlink:title=" ">
<polygon fill="white" stroke="#666666" points="261.5,-138.75 155.5,-138.75 155.5,-120.25 261.5,-120.25 261.5,-138.75"/>
<text xml:space="preserve" text-anchor="middle" x="208.5" y="-125.25" font-family="Helvetica,sans-Serif" font-size="10.00">Common::get_policy</text>
</a>
</g>
</g>
<!-- Node1&#45;&gt;Node2 -->
<g id="edge1_Node000001_Node000002" class="edge">
<title>Node1&#45;&gt;Node2</title>
<g id="a_edge1_Node000001_Node000002"><a xlink:title=" ">
<path fill="none" stroke="#63b8ff" d="M314.78,-104.85C294.02,-109.71 270.53,-115.21 251.01,-119.78"/>
<polygon fill="#63b8ff" stroke="#63b8ff" points="315.58,-108.25 324.51,-102.57 313.98,-101.44 315.58,-108.25"/>
</a>
</g>
</g>
<!-- Node4 -->
<g id="Node000004" class="node">
<title>Node4</title>
<g id="a_Node000004"><a xlink:href="namespaceCommon.html#ad9c9fe6434c0c09218a2e33e17beee28" target="_top" xlink:title=" ">
<polygon fill="white" stroke="#666666" points="275,-101.75 142,-101.75 142,-83.25 275,-83.25 275,-101.75"/>
<text xml:space="preserve" text-anchor="middle" x="208.5" y="-88.25" font-family="Helvetica,sans-Serif" font-size="10.00">Common::get_policy_team</text>
</a>
</g>
</g>
<!-- Node1&#45;&gt;Node4 -->
<g id="edge3_Node000001_Node000004" class="edge">
<title>Node1&#45;&gt;Node4</title>
<g id="a_edge3_Node000001_Node000004"><a xlink:title=" ">
<path fill="none" stroke="#63b8ff" d="M299.67,-92.5C291.62,-92.5 283.41,-92.5 275.39,-92.5"/>
<polygon fill="#63b8ff" stroke="#63b8ff" points="299.39,-96 309.39,-92.5 299.39,-89 299.39,-96"/>
</a>
</g>
</g>
<!-- Node5 -->
<g id="Node000005" class="node">
<title>Node5</title>
<g id="a_Node000005"><a xlink:href="namespaceMC.html#a67a8a8fb99f617a67dd3702cd0f0b47f" target="_top" xlink:title=" ">
<polygon fill="white" stroke="#666666" points="273.5,-64.75 143.5,-64.75 143.5,-46.25 273.5,-46.25 273.5,-64.75"/>
<text xml:space="preserve" text-anchor="middle" x="208.5" y="-51.25" font-family="Helvetica,sans-Serif" font-size="10.00">MC::load_tuning_constant</text>
</a>
</g>
</g>
<!-- Node1&#45;&gt;Node5 -->
<g id="edge4_Node000001_Node000005" class="edge">
<title>Node1&#45;&gt;Node5</title>
<g id="a_edge4_Node000001_Node000005"><a xlink:title=" ">
<path fill="none" stroke="#63b8ff" d="M314.78,-80.15C294.02,-75.29 270.53,-69.79 251.01,-65.22"/>
<polygon fill="#63b8ff" stroke="#63b8ff" points="313.98,-83.56 324.51,-82.43 315.58,-76.75 313.98,-83.56"/>
</a>
</g>
</g>
<!-- Node3 -->
<g id="Node000003" class="node">
<title>Node3</title>
<g id="a_Node000003"><a xlink:href="namespaceCommon.html#a9322a1455f0f2a0626d66eae67412bda" target="_top" xlink:title=" ">
<polygon fill="white" stroke="#666666" points="106,-138.75 0,-138.75 0,-120.25 106,-120.25 106,-138.75"/>
<text xml:space="preserve" text-anchor="middle" x="53" y="-125.25" font-family="Helvetica,sans-Serif" font-size="10.00">Common::get_policy</text>
</a>
</g>
</g>
<!-- Node2&#45;&gt;Node3 -->
<g id="edge2_Node000002_Node000003" class="edge">
<title>Node2&#45;&gt;Node3</title>
<g id="a_edge2_Node000002_Node000003"><a xlink:title=" ">
<path fill="none" stroke="#63b8ff" d="M143.84,-129.5C131.39,-129.5 118.46,-129.5 106.42,-129.5"/>
<polygon fill="#63b8ff" stroke="#63b8ff" points="143.59,-133 153.59,-129.5 143.59,-126 143.59,-133"/>
</a>
</g>
</g>
<!-- Node6 -->
<g id="Node000006" class="node">
<title>Node6</title>
<g id="a_Node000006"><a xlink:href="namespaceMC.html#a321fdcab9f09e8611b6f76b834d4ba4b" target="_top" xlink:title="Helper function to initialize a MonteCarloUnit.">
<polygon fill="white" stroke="#666666" points="78.25,-83.75 27.75,-83.75 27.75,-65.25 78.25,-65.25 78.25,-83.75"/>
<text xml:space="preserve" text-anchor="middle" x="53" y="-70.25" font-family="Helvetica,sans-Serif" font-size="10.00">MC::init</text>
</a>
</g>
</g>
<!-- Node5&#45;&gt;Node6 -->
<g id="edge5_Node000005_Node000006" class="edge">
<title>Node5&#45;&gt;Node6</title>
<g id="a_edge5_Node000005_Node000006"><a xlink:title=" ">
<path fill="none" stroke="#63b8ff" d="M131.96,-64.85C112.64,-67.24 93.22,-69.65 78.59,-71.46"/>
<polygon fill="#63b8ff" stroke="#63b8ff" points="132.3,-68.34 141.79,-63.63 131.44,-61.39 132.3,-68.34"/>
</a>
</g>
</g>
<!-- Node7 -->
<g id="Node000007" class="node">
<title>Node7</title>
<g id="a_Node000007"><a xlink:href="structMC_1_1MonteCarloUnit.html#a98a680cfc3356b197d4cd8fd453e0a17" target="_top" xlink:title=" ">
<polygon fill="white" stroke="#666666" points="105.62,-29 0.38,-29 0.38,0 105.62,0 105.62,-29"/>
<text xml:space="preserve" text-anchor="start" x="8.38" y="-15.5" font-family="Helvetica,sans-Serif" font-size="10.00">MC::MonteCarloUnit</text>
<text xml:space="preserve" text-anchor="middle" x="53" y="-5" font-family="Helvetica,sans-Serif" font-size="10.00">::serialize</text>
</a>
</g>
</g>
<!-- Node5&#45;&gt;Node7 -->
<g id="edge6_Node000005_Node000007" class="edge">
<title>Node5&#45;&gt;Node7</title>
<g id="a_edge6_Node000005_Node000007"><a xlink:title=" ">
<path fill="none" stroke="#63b8ff" d="M160.23,-42.88C143.09,-38.3 123.63,-33.1 106.09,-28.41"/>
<polygon fill="#63b8ff" stroke="#63b8ff" points="159.1,-46.19 169.66,-45.39 160.9,-39.43 159.1,-46.19"/>
</a>
</g>
</g>
<!-- Node7&#45;&gt;Node7 -->
<g id="edge7_Node000007_Node000007" class="edge">
<title>Node7&#45;&gt;Node7</title>
<g id="a_edge7_Node000007_Node000007"><a xlink:title=" ">
<path fill="none" stroke="#63b8ff" d="M79.39,-40.56C75.25,-44.41 66.45,-47 53,-47 28.4,-47 19.37,-38.32 25.9,-29.21"/>
<polygon fill="#63b8ff" stroke="#63b8ff" points="82.88,-40.92 80.01,-30.72 75.89,-40.48 82.88,-40.92"/>
</a>
</g>
</g>
</g>
</svg>
</svg>

<style type='text/css'>
<![CDATA[
[data-mouse-over-selected='false'] { opacity: 0.7; }
[data-mouse-over-selected='true']  { opacity: 1.0; }
]]>
</style>
<script type="application/ecmascript"><![CDATA[
document.addEventListener('DOMContentLoaded', (event) => {
  highlightEdges();
  highlightAdjacentNodes();
});
]]></script>
</svg>
