<?xml version="1.0" encoding="UTF-8" standalone="no"?>
<!DOCTYPE svg PUBLIC "-//W3C//DTD SVG 1.1//EN"
 "http://www.w3.org/Graphics/SVG/1.1/DTD/svg11.dtd">
<!-- Generated by graphviz version 12.1.2 (0)
 -->
<!-- Title: WrapMPI::broadcast_span Pages: 1 -->
<svg width="420pt" height="37pt"
 viewBox="0.00 0.00 419.75 37.00" xmlns="http://www.w3.org/2000/svg" xmlns:xlink="http://www.w3.org/1999/xlink">
<g id="graph0" class="graph" transform="scale(1 1) rotate(0) translate(4 33)">
<title>WrapMPI::broadcast_span</title>
<!-- Node1 -->
<g id="Node000001" class="node">
<title>Node1</title>
<g id="a_Node000001"><a xlink:title="Broadcasts data stored in a span to all processes.">
<polygon fill="#999999" stroke="#666666" points="130.75,-23.75 0,-23.75 0,-5.25 130.75,-5.25 130.75,-23.75"/>
<text text-anchor="middle" x="65.38" y="-10.25" font-family="Helvetica,sans-Serif" font-size="10.00">WrapMPI::broadcast_span</text>
</a>
</g>
</g>
<!-- Node2 -->
<g id="Node000002" class="node">
<title>Node2</title>
<g id="a_Node000002"><a xlink:href="namespaceWrapMPI.html#aa70b62df6aa5755b0c794d24afa1cfdf" target="_top" xlink:title="Broadcasts raw data to all processes in an unsafe manner.">
<polygon fill="white" stroke="#666666" points="276.5,-29 166.75,-29 166.75,0 276.5,0 276.5,-29"/>
<text text-anchor="start" x="174.75" y="-15.5" font-family="Helvetica,sans-Serif" font-size="10.00">WrapMPI::_broadcast</text>
<text text-anchor="middle" x="221.62" y="-5" font-family="Helvetica,sans-Serif" font-size="10.00">_unsafe</text>
</a>
</g>
</g>
<!-- Node1&#45;&gt;Node2 -->
<g id="edge1_Node000001_Node000002" class="edge">
<title>Node1&#45;&gt;Node2</title>
<g id="a_edge1_Node000001_Node000002"><a xlink:title=" ">
<path fill="none" stroke="#63b8ff" d="M130.9,-14.5C138.98,-14.5 147.25,-14.5 155.34,-14.5"/>
<polygon fill="#63b8ff" stroke="#63b8ff" points="155.11,-18 165.11,-14.5 155.11,-11 155.11,-18"/>
</a>
</g>
</g>
<!-- Node3 -->
<g id="Node000003" class="node">
<title>Node3</title>
<g id="a_Node000003"><a xlink:href="namespaceWrapMPI.html#adab3300a86b8c0227268b23134b57a24" target="_top" xlink:title=" ">
<polygon fill="white" stroke="#666666" points="411.75,-23.75 312.5,-23.75 312.5,-5.25 411.75,-5.25 411.75,-23.75"/>
<text text-anchor="middle" x="362.12" y="-10.25" font-family="Helvetica,sans-Serif" font-size="10.00">WrapMPI::get_type</text>
</a>
</g>
</g>
<!-- Node2&#45;&gt;Node3 -->
<g id="edge2_Node000002_Node000003" class="edge">
<title>Node2&#45;&gt;Node3</title>
<g id="a_edge2_Node000002_Node000003"><a xlink:title=" ">
<path fill="none" stroke="#63b8ff" d="M276.97,-14.5C284.81,-14.5 292.92,-14.5 300.87,-14.5"/>
<polygon fill="#63b8ff" stroke="#63b8ff" points="300.83,-18 310.83,-14.5 300.83,-11 300.83,-18"/>
</a>
</g>
</g>
</g>
</svg>
