<?xml version="1.0" encoding="UTF-8" standalone="no"?>
<!DOCTYPE svg PUBLIC "-//W3C//DTD SVG 1.1//EN"
 "http://www.w3.org/Graphics/SVG/1.1/DTD/svg11.dtd">
<!-- Generated by graphviz version 14.0.1 (0)
 -->
<!-- Title: WrapMPI::send_v Pages: 1 -->
<svg width="368pt" height="46pt"
 viewBox="0.00 0.00 368.00 46.00" xmlns="http://www.w3.org/2000/svg" xmlns:xlink="http://www.w3.org/1999/xlink">
<g id="graph0" class="graph" transform="scale(1 1) rotate(0) translate(4 41.5)">
<title>WrapMPI::send_v</title>
<!-- Node1 -->
<g id="Node000001" class="node">
<title>Node1</title>
<g id="a_Node000001"><a xlink:title="Sends a vector of data to a destination.">
<polygon fill="#999999" stroke="#666666" points="93.25,-18.5 0,-18.5 0,0 93.25,0 93.25,-18.5"/>
<text xml:space="preserve" text-anchor="middle" x="46.62" y="-5" font-family="Helvetica,sans-Serif" font-size="10.00">WrapMPI::send_v</text>
</a>
</g>
</g>
<!-- Node2 -->
<g id="Node000002" class="node">
<title>Node2</title>
<g id="a_Node000002"><a xlink:href="namespaceWrapMPI.html#a86bfb7bf3cbf18f5f0371c497167cfad" target="_top" xlink:title="Sends raw data to a destination in an unsafe manner.">
<polygon fill="white" stroke="#666666" points="212,-37.5 129.25,-37.5 129.25,-19 212,-19 212,-37.5"/>
<text xml:space="preserve" text-anchor="middle" x="170.62" y="-24" font-family="Helvetica,sans-Serif" font-size="10.00">WrapMPI::send</text>
</a>
</g>
</g>
<!-- Node1&#45;&gt;Node2 -->
<g id="edge1_Node000001_Node000002" class="edge">
<title>Node1&#45;&gt;Node2</title>
<g id="a_edge1_Node000001_Node000002"><a xlink:title=" ">
<path fill="none" stroke="#63b8ff" d="M93.75,-16.43C101.64,-17.66 109.88,-18.95 117.9,-20.19"/>
<polygon fill="#63b8ff" stroke="#63b8ff" points="117.12,-23.62 127.54,-21.7 118.2,-16.7 117.12,-23.62"/>
</a>
</g>
</g>
<!-- Node3 -->
<g id="Node000003" class="node">
<title>Node3</title>
<g id="a_Node000003"><a xlink:href="namespaceWrapMPI_1_1Async.html#adc3dcdbee2e0e82e429b5962cb3ce32c" target="_top" xlink:title=" ">
<polygon fill="white" stroke="#666666" points="360,-18.5 248,-18.5 248,0 360,0 360,-18.5"/>
<text xml:space="preserve" text-anchor="middle" x="304" y="-5" font-family="Helvetica,sans-Serif" font-size="10.00">WrapMPI::Async::wait</text>
</a>
</g>
</g>
<!-- Node1&#45;&gt;Node3 -->
<g id="edge3_Node000001_Node000003" class="edge">
<title>Node1&#45;&gt;Node3</title>
<g id="a_edge3_Node000001_Node000003"><a xlink:title=" ">
<path fill="none" stroke="#63b8ff" d="M93.58,-9.25C133.34,-9.25 191.35,-9.25 236.23,-9.25"/>
<polygon fill="#63b8ff" stroke="#63b8ff" points="236.12,-12.75 246.12,-9.25 236.12,-5.75 236.12,-12.75"/>
</a>
</g>
</g>
<!-- Node2&#45;&gt;Node3 -->
<g id="edge2_Node000002_Node000003" class="edge">
<title>Node2&#45;&gt;Node3</title>
<g id="a_edge2_Node000002_Node000003"><a xlink:title=" ">
<path fill="none" stroke="#63b8ff" d="M212.47,-22.34C220.14,-21.23 228.33,-20.05 236.54,-18.86"/>
<polygon fill="#63b8ff" stroke="#63b8ff" points="236.8,-22.36 246.2,-17.46 235.8,-15.43 236.8,-22.36"/>
</a>
</g>
</g>
</g>
</svg>
