<?xml version="1.0" encoding="UTF-8" standalone="no"?>
<!DOCTYPE svg PUBLIC "-//W3C//DTD SVG 1.1//EN"
 "http://www.w3.org/Graphics/SVG/1.1/DTD/svg11.dtd">
<!-- Generated by graphviz version 14.0.1 (0)
 -->
<!-- Title: WrapMPI::broadcast Pages: 1 -->
<svg width="388pt" height="46pt"
 viewBox="0.00 0.00 388.00 46.00" xmlns="http://www.w3.org/2000/svg" xmlns:xlink="http://www.w3.org/1999/xlink">
<g id="graph0" class="graph" transform="scale(1 1) rotate(0) translate(4 41.5)">
<title>WrapMPI::broadcast</title>
<!-- Node1 -->
<g id="Node000001" class="node">
<title>Node1</title>
<g id="a_Node000001"><a xlink:title=" ">
<polygon fill="#999999" stroke="#666666" points="104.5,-18.5 0,-18.5 0,0 104.5,0 104.5,-18.5"/>
<text xml:space="preserve" text-anchor="middle" x="52.25" y="-5" font-family="Helvetica,sans-Serif" font-size="10.00">WrapMPI::broadcast</text>
</a>
</g>
</g>
<!-- Node2 -->
<g id="Node000002" class="node">
<title>Node2</title>
<g id="a_Node000002"><a xlink:href="namespaceWrapMPI.html#a372df5351a2085df252cc9f4cceae7de" target="_top" xlink:title="Broadcasts a single data item to all processes.">
<polygon fill="white" stroke="#666666" points="245,-37.5 140.5,-37.5 140.5,-19 245,-19 245,-37.5"/>
<text xml:space="preserve" text-anchor="middle" x="192.75" y="-24" font-family="Helvetica,sans-Serif" font-size="10.00">WrapMPI::broadcast</text>
</a>
</g>
</g>
<!-- Node1&#45;&gt;Node2 -->
<g id="edge1_Node000001_Node000002" class="edge">
<title>Node1&#45;&gt;Node2</title>
<g id="a_edge1_Node000001_Node000002"><a xlink:title=" ">
<path fill="none" stroke="#63b8ff" d="M104.82,-16.32C112.66,-17.4 120.83,-18.52 128.88,-19.62"/>
<polygon fill="#63b8ff" stroke="#63b8ff" points="128.25,-23.07 138.64,-20.96 129.2,-16.14 128.25,-23.07"/>
</a>
</g>
</g>
<!-- Node3 -->
<g id="Node000003" class="node">
<title>Node3</title>
<g id="a_Node000003"><a xlink:href="namespaceWrapMPI.html#adab3300a86b8c0227268b23134b57a24" target="_top" xlink:title=" ">
<polygon fill="white" stroke="#666666" points="380.25,-18.5 281,-18.5 281,0 380.25,0 380.25,-18.5"/>
<text xml:space="preserve" text-anchor="middle" x="330.62" y="-5" font-family="Helvetica,sans-Serif" font-size="10.00">WrapMPI::get_type</text>
</a>
</g>
</g>
<!-- Node1&#45;&gt;Node3 -->
<g id="edge3_Node000001_Node000003" class="edge">
<title>Node1&#45;&gt;Node3</title>
<g id="a_edge3_Node000001_Node000003"><a xlink:title=" ">
<path fill="none" stroke="#63b8ff" d="M104.91,-9.25C151.48,-9.25 220,-9.25 269.12,-9.25"/>
<polygon fill="#63b8ff" stroke="#63b8ff" points="269.03,-12.75 279.03,-9.25 269.03,-5.75 269.03,-12.75"/>
</a>
</g>
</g>
<!-- Node2&#45;&gt;Node3 -->
<g id="edge2_Node000002_Node000003" class="edge">
<title>Node2&#45;&gt;Node3</title>
<g id="a_edge2_Node000002_Node000003"><a xlink:title=" ">
<path fill="none" stroke="#63b8ff" d="M245.12,-21.07C253.09,-19.95 261.38,-18.79 269.52,-17.65"/>
<polygon fill="#63b8ff" stroke="#63b8ff" points="269.96,-21.13 279.38,-16.28 268.99,-14.19 269.96,-21.13"/>
</a>
</g>
</g>
</g>
</svg>
