<?xml version="1.0" encoding="UTF-8" standalone="no"?>
<!DOCTYPE svg PUBLIC "-//W3C//DTD SVG 1.1//EN"
 "http://www.w3.org/Graphics/SVG/1.1/DTD/svg11.dtd">
<!-- Generated by graphviz version 14.0.1 (0)
 -->
<!-- Title: WrapMPI::recv_v Pages: 1 -->
<svg width="234pt" height="64pt"
 viewBox="0.00 0.00 234.00 64.00" xmlns="http://www.w3.org/2000/svg" xmlns:xlink="http://www.w3.org/1999/xlink">
<g id="graph0" class="graph" transform="scale(1 1) rotate(0) translate(4 59.5)">
<title>WrapMPI::recv_v</title>
<!-- Node1 -->
<g id="Node000001" class="node">
<title>Node1</title>
<g id="a_Node000001"><a xlink:title="Receives a vector of data items from a source.">
<polygon fill="#999999" stroke="#666666" points="91,-36.5 0,-36.5 0,-18 91,-18 91,-36.5"/>
<text xml:space="preserve" text-anchor="middle" x="45.5" y="-23" font-family="Helvetica,sans-Serif" font-size="10.00">WrapMPI::recv_v</text>
</a>
</g>
</g>
<!-- Node2 -->
<g id="Node000002" class="node">
<title>Node2</title>
<g id="a_Node000002"><a xlink:href="namespaceWrapMPI.html#adab3300a86b8c0227268b23134b57a24" target="_top" xlink:title=" ">
<polygon fill="white" stroke="#666666" points="226.25,-55.5 127,-55.5 127,-37 226.25,-37 226.25,-55.5"/>
<text xml:space="preserve" text-anchor="middle" x="176.62" y="-42" font-family="Helvetica,sans-Serif" font-size="10.00">WrapMPI::get_type</text>
</a>
</g>
</g>
<!-- Node1&#45;&gt;Node2 -->
<g id="edge1_Node000001_Node000002" class="edge">
<title>Node1&#45;&gt;Node2</title>
<g id="a_edge1_Node000001_Node000002"><a xlink:title=" ">
<path fill="none" stroke="#63b8ff" d="M91.3,-33.84C99.21,-35.01 107.56,-36.23 115.81,-37.45"/>
<polygon fill="#63b8ff" stroke="#63b8ff" points="115.04,-40.87 125.44,-38.87 116.06,-33.95 115.04,-40.87"/>
</a>
</g>
</g>
<!-- Node3 -->
<g id="Node000003" class="node">
<title>Node3</title>
<g id="a_Node000003"><a xlink:href="namespaceWrapMPI.html#ac43482d706c8ce2d9022c54784820197" target="_top" xlink:title="Receives a single data item from a source.">
<polygon fill="white" stroke="#666666" points="216.88,-18.5 136.38,-18.5 136.38,0 216.88,0 216.88,-18.5"/>
<text xml:space="preserve" text-anchor="middle" x="176.62" y="-5" font-family="Helvetica,sans-Serif" font-size="10.00">WrapMPI::recv</text>
</a>
</g>
</g>
<!-- Node1&#45;&gt;Node3 -->
<g id="edge2_Node000001_Node000003" class="edge">
<title>Node1&#45;&gt;Node3</title>
<g id="a_edge2_Node000001_Node000003"><a xlink:title=" ">
<path fill="none" stroke="#63b8ff" d="M91.3,-21C102.11,-19.5 113.74,-17.88 124.81,-16.33"/>
<polygon fill="#63b8ff" stroke="#63b8ff" points="125.16,-19.82 134.58,-14.97 124.19,-12.89 125.16,-19.82"/>
</a>
</g>
</g>
</g>
</svg>
