<?xml version="1.0" encoding="UTF-8" standalone="no"?>
<!DOCTYPE svg PUBLIC "-//W3C//DTD SVG 1.1//EN"
 "http://www.w3.org/Graphics/SVG/1.1/DTD/svg11.dtd">
<!-- Generated by graphviz version 14.0.1 (0)
 -->
<!-- Title: MC::get_policy Pages: 1 -->
<svg width="278pt" height="84pt"
 viewBox="0.00 0.00 278.00 84.00" xmlns="http://www.w3.org/2000/svg" xmlns:xlink="http://www.w3.org/1999/xlink">
<g id="graph0" class="graph" transform="scale(1 1) rotate(0) translate(4 80)">
<title>MC::get_policy</title>
<!-- Node1 -->
<g id="Node000001" class="node">
<title>Node1</title>
<g id="a_Node000001"><a xlink:title=" ">
<polygon fill="#999999" stroke="#666666" points="269.75,-46.75 187.75,-46.75 187.75,-28.25 269.75,-28.25 269.75,-46.75"/>
<text xml:space="preserve" text-anchor="middle" x="228.75" y="-33.25" font-family="Helvetica,sans-Serif" font-size="10.00">MC::get_policy</text>
</a>
</g>
</g>
<!-- Node2 -->
<g id="Node000002" class="node">
<title>Node2</title>
<g id="a_Node000002"><a xlink:href="structSimulation_1_1KernelInline_1_1CycleFunctors.html#ac662b26165c5a63622c71c52c3263709" target="_top" xlink:title=" ">
<polygon fill="white" stroke="#666666" points="151.75,-76 0,-76 0,-47 151.75,-47 151.75,-76"/>
<text xml:space="preserve" text-anchor="start" x="8" y="-62.5" font-family="Helvetica,sans-Serif" font-size="10.00">Simulation::KernelInline</text>
<text xml:space="preserve" text-anchor="middle" x="75.88" y="-52" font-family="Helvetica,sans-Serif" font-size="10.00">::CycleFunctors::launch_model</text>
</a>
</g>
</g>
<!-- Node1&#45;&gt;Node2 -->
<g id="edge1_Node000001_Node000002" class="edge">
<title>Node1&#45;&gt;Node2</title>
<g id="a_edge1_Node000001_Node000002"><a xlink:title=" ">
<path fill="none" stroke="#63b8ff" d="M176.22,-45.7C168.42,-46.94 160.25,-48.24 152.08,-49.54"/>
<polygon fill="#63b8ff" stroke="#63b8ff" points="176.5,-49.2 185.82,-44.17 175.4,-42.28 176.5,-49.2"/>
</a>
</g>
</g>
<!-- Node3 -->
<g id="Node000003" class="node">
<title>Node3</title>
<g id="a_Node000003"><a xlink:href="structSimulation_1_1KernelInline_1_1CycleFunctors.html#aa180fb540dd548aefdc0cead1e7c8205" target="_top" xlink:title=" ">
<polygon fill="white" stroke="#666666" points="150.25,-29 1.5,-29 1.5,0 150.25,0 150.25,-29"/>
<text xml:space="preserve" text-anchor="start" x="9.5" y="-15.5" font-family="Helvetica,sans-Serif" font-size="10.00">Simulation::KernelInline</text>
<text xml:space="preserve" text-anchor="middle" x="75.88" y="-5" font-family="Helvetica,sans-Serif" font-size="10.00">::CycleFunctors::launch_move</text>
</a>
</g>
</g>
<!-- Node1&#45;&gt;Node3 -->
<g id="edge2_Node000001_Node000003" class="edge">
<title>Node1&#45;&gt;Node3</title>
<g id="a_edge2_Node000001_Node000003"><a xlink:title=" ">
<path fill="none" stroke="#63b8ff" d="M176.04,-29.62C167.84,-28.37 159.22,-27.05 150.62,-25.74"/>
<polygon fill="#63b8ff" stroke="#63b8ff" points="175.41,-33.06 185.82,-31.11 176.46,-26.14 175.41,-33.06"/>
</a>
</g>
</g>
</g>
</svg>
