<?xml version="1.0" encoding="UTF-8" standalone="no"?>
<!DOCTYPE svg PUBLIC "-//W3C//DTD SVG 1.1//EN"
 "http://www.w3.org/Graphics/SVG/1.1/DTD/svg11.dtd">
<!-- Generated by graphviz version 14.0.1 (0)
 -->
<!-- Title: Core::load Pages: 1 -->
<svg width="770pt" height="333pt"
 viewBox="0.00 0.00 770.00 333.00" xmlns="http://www.w3.org/2000/svg" xmlns:xlink="http://www.w3.org/1999/xlink">
<g id="graph0" class="graph" transform="scale(1 1) rotate(0) translate(4 329.06)">
<title>Core::load</title>
<!-- Node1 -->
<g id="Node000001" class="node">
<title>Node1</title>
<g id="a_Node000001"><a xlink:title=" ">
<polygon fill="#999999" stroke="#666666" points="61,-201.75 0,-201.75 0,-183.25 61,-183.25 61,-201.75"/>
<text xml:space="preserve" text-anchor="middle" x="30.5" y="-188.25" font-family="Helvetica,sans-Serif" font-size="10.00">Core::load</text>
</a>
</g>
</g>
<!-- Node2 -->
<g id="Node000002" class="node">
<title>Node2</title>
<g id="a_Node000002"><a xlink:href="namespaceCore.html#a105cc1fc8005e6139954e3adce14f525" target="_top" xlink:title="Start simulation.">
<polygon fill="white" stroke="#666666" points="160.25,-201.75 97,-201.75 97,-183.25 160.25,-183.25 160.25,-201.75"/>
<text xml:space="preserve" text-anchor="middle" x="128.62" y="-188.25" font-family="Helvetica,sans-Serif" font-size="10.00">Core::exec</text>
</a>
</g>
</g>
<!-- Node1&#45;&gt;Node2 -->
<g id="edge1_Node000001_Node000002" class="edge">
<title>Node1&#45;&gt;Node2</title>
<g id="a_edge1_Node000001_Node000002"><a xlink:title=" ">
<path fill="none" stroke="#63b8ff" d="M61.39,-192.5C69.03,-192.5 77.39,-192.5 85.52,-192.5"/>
<polygon fill="#63b8ff" stroke="#63b8ff" points="85.25,-196 95.25,-192.5 85.25,-189 85.25,-196"/>
</a>
</g>
</g>
<!-- Node3 -->
<g id="Node000003" class="node">
<title>Node3</title>
<g id="a_Node000003"><a xlink:href="namespaceCore.html#a23e6f3d22fc51ef9decabb2c220b27c4" target="_top" xlink:title=" ">
<polygon fill="white" stroke="#666666" points="317.25,-243.75 196.25,-243.75 196.25,-225.25 317.25,-225.25 317.25,-243.75"/>
<text xml:space="preserve" text-anchor="middle" x="256.75" y="-230.25" font-family="Helvetica,sans-Serif" font-size="10.00">Core::exporter_filename</text>
</a>
</g>
</g>
<!-- Node2&#45;&gt;Node3 -->
<g id="edge2_Node000002_Node000003" class="edge">
<title>Node2&#45;&gt;Node3</title>
<g id="a_edge2_Node000002_Node000003"><a xlink:title=" ">
<path fill="none" stroke="#63b8ff" d="M160.69,-195.61C171.86,-199.13 184.58,-203.64 196.25,-207.5 209.01,-211.72 223.43,-216.1 234.88,-220.51"/>
<polygon fill="#63b8ff" stroke="#63b8ff" points="233.2,-223.6 243.77,-224.33 235.97,-217.17 233.2,-223.6"/>
</a>
</g>
</g>
<!-- Node4 -->
<g id="Node000004" class="node">
<title>Node4</title>
<g id="a_Node000004"><a xlink:href="namespaceCore.html#afbce0beea293a7ccfdfc34a85b5e5e77" target="_top" xlink:title=" ">
<polygon fill="white" stroke="#666666" points="300.75,-207 212.75,-207 212.75,-178 300.75,-178 300.75,-207"/>
<text xml:space="preserve" text-anchor="start" x="220.75" y="-193.5" font-family="Helvetica,sans-Serif" font-size="10.00">Core::init_partial</text>
<text xml:space="preserve" text-anchor="middle" x="256.75" y="-183" font-family="Helvetica,sans-Serif" font-size="10.00">_exporter</text>
</a>
</g>
</g>
<!-- Node2&#45;&gt;Node4 -->
<g id="edge4_Node000002_Node000004" class="edge">
<title>Node2&#45;&gt;Node4</title>
<g id="a_edge4_Node000002_Node000004"><a xlink:title=" ">
<path fill="none" stroke="#63b8ff" d="M160.48,-192.5C172.67,-192.5 187.06,-192.5 200.91,-192.5"/>
<polygon fill="#63b8ff" stroke="#63b8ff" points="200.84,-196 210.84,-192.5 200.84,-189 200.84,-196"/>
</a>
</g>
</g>
<!-- Node12 -->
<g id="Node000012" class="node">
<title>Node12</title>
<g id="a_Node000012"><a xlink:href="namespacePostProcessing.html#abfe2a5894fae7c5534274da5d6d33e83" target="_top" xlink:title=" ">
<polygon fill="white" stroke="#666666" points="312.38,-139 201.12,-139 201.12,-110 312.38,-110 312.38,-139"/>
<text xml:space="preserve" text-anchor="start" x="209.12" y="-125.5" font-family="Helvetica,sans-Serif" font-size="10.00">PostProcessing::save</text>
<text xml:space="preserve" text-anchor="middle" x="256.75" y="-115" font-family="Helvetica,sans-Serif" font-size="10.00">_probes</text>
</a>
</g>
</g>
<!-- Node2&#45;&gt;Node12 -->
<g id="edge13_Node000002_Node000012" class="edge">
<title>Node2&#45;&gt;Node12</title>
<g id="a_edge13_Node000002_Node000012"><a xlink:title=" ">
<path fill="none" stroke="#63b8ff" d="M147.7,-182.76C165.97,-172.9 194.76,-157.38 218.03,-144.83"/>
<polygon fill="#63b8ff" stroke="#63b8ff" points="219.48,-148.03 226.62,-140.21 216.15,-141.87 219.48,-148.03"/>
</a>
</g>
</g>
<!-- Node20 -->
<g id="Node000020" class="node">
<title>Node20</title>
<g id="a_Node000020"><a xlink:href="classCore_1_1DataExporter.html#ad3b98151595b0962c089a7afcdb2a642" target="_top" xlink:title=" ">
<polygon fill="white" stroke="#666666" points="307.12,-92 206.38,-92 206.38,-63 307.12,-63 307.12,-92"/>
<text xml:space="preserve" text-anchor="start" x="214.38" y="-78.5" font-family="Helvetica,sans-Serif" font-size="10.00">Core::DataExporter</text>
<text xml:space="preserve" text-anchor="middle" x="256.75" y="-68" font-family="Helvetica,sans-Serif" font-size="10.00">::set_logger</text>
</a>
</g>
</g>
<!-- Node2&#45;&gt;Node20 -->
<g id="edge22_Node000002_Node000020" class="edge">
<title>Node2&#45;&gt;Node20</title>
<g id="a_edge22_Node000002_Node000020"><a xlink:title=" ">
<path fill="none" stroke="#63b8ff" d="M134.32,-182.89C143.7,-164.64 166.42,-124.7 196.25,-101.5 197.76,-100.32 199.34,-99.2 200.96,-98.12"/>
<polygon fill="#63b8ff" stroke="#63b8ff" points="202.51,-101.27 209.4,-93.23 199,-95.22 202.51,-101.27"/>
</a>
</g>
</g>
<!-- Node3&#45;&gt;Node2 -->
<g id="edge3_Node000003_Node000002" class="edge">
<title>Node3&#45;&gt;Node2</title>
<g id="a_edge3_Node000003_Node000002"><a xlink:title=" ">
<path fill="none" stroke="#63b8ff" d="M195.77,-225.34C179.97,-220.1 162.32,-213.69 149.23,-207.5"/>
<polygon fill="#63b8ff" stroke="#63b8ff" points="150.88,-204.42 140.4,-202.85 147.62,-210.61 150.88,-204.42"/>
</a>
</g>
</g>
<!-- Node5 -->
<g id="Node000005" class="node">
<title>Node5</title>
<g id="a_Node000005"><a xlink:href="classCore_1_1PartialExporter.html#a05cba8c28abaecce99f586d551a75f80" target="_top" xlink:title="Initializes the fields required for exporting data.">
<polygon fill="white" stroke="#666666" points="466.75,-301 357.75,-301 357.75,-272 466.75,-272 466.75,-301"/>
<text xml:space="preserve" text-anchor="start" x="365.75" y="-287.5" font-family="Helvetica,sans-Serif" font-size="10.00">Core::PartialExporter</text>
<text xml:space="preserve" text-anchor="middle" x="412.25" y="-277" font-family="Helvetica,sans-Serif" font-size="10.00">::init_fields</text>
</a>
</g>
</g>
<!-- Node4&#45;&gt;Node5 -->
<g id="edge5_Node000004_Node000005" class="edge">
<title>Node4&#45;&gt;Node5</title>
<g id="a_edge5_Node000004_Node000005"><a xlink:title=" ">
<path fill="none" stroke="#63b8ff" d="M301.17,-206.79C306.85,-209.57 312.37,-212.79 317.25,-216.5 338.19,-232.43 332.26,-247.63 353.25,-263.5 354.24,-264.25 355.27,-264.98 356.31,-265.69"/>
<polygon fill="#63b8ff" stroke="#63b8ff" points="354.52,-268.7 364.91,-270.76 358.07,-262.67 354.52,-268.7"/>
</a>
</g>
</g>
<!-- Node8 -->
<g id="Node000008" class="node">
<title>Node8</title>
<g id="a_Node000008"><a xlink:href="namespacePostProcessing.html#a262aae53c1f4dafed4795c687d6ea817" target="_top" xlink:title=" ">
<polygon fill="white" stroke="#666666" points="467.88,-254 356.62,-254 356.62,-225 467.88,-225 467.88,-254"/>
<text xml:space="preserve" text-anchor="start" x="364.62" y="-240.5" font-family="Helvetica,sans-Serif" font-size="10.00">PostProcessing::save</text>
<text xml:space="preserve" text-anchor="middle" x="412.25" y="-230" font-family="Helvetica,sans-Serif" font-size="10.00">_particle_state</text>
</a>
</g>
</g>
<!-- Node4&#45;&gt;Node8 -->
<g id="edge9_Node000004_Node000008" class="edge">
<title>Node4&#45;&gt;Node8</title>
<g id="a_edge9_Node000004_Node000008"><a xlink:title=" ">
<path fill="none" stroke="#63b8ff" d="M300.92,-205.72C316.63,-210.53 334.68,-216.06 351.57,-221.23"/>
<polygon fill="#63b8ff" stroke="#63b8ff" points="350.43,-224.54 361.02,-224.12 352.48,-217.84 350.43,-224.54"/>
</a>
</g>
</g>
<!-- Node10 -->
<g id="Node000010" class="node">
<title>Node10</title>
<g id="a_Node000010"><a xlink:href="classCore_1_1PartialExporter.html#a450fb0c92efa4ee81b4083fc01f5e665" target="_top" xlink:title="Writes the number of particles in each compartment.">
<polygon fill="white" stroke="#666666" points="471.25,-207 353.25,-207 353.25,-178 471.25,-178 471.25,-207"/>
<text xml:space="preserve" text-anchor="start" x="361.25" y="-193.5" font-family="Helvetica,sans-Serif" font-size="10.00">Core::PartialExporter</text>
<text xml:space="preserve" text-anchor="middle" x="412.25" y="-183" font-family="Helvetica,sans-Serif" font-size="10.00">::write_number_particle</text>
</a>
</g>
</g>
<!-- Node4&#45;&gt;Node10 -->
<g id="edge11_Node000004_Node000010" class="edge">
<title>Node4&#45;&gt;Node10</title>
<g id="a_edge11_Node000004_Node000010"><a xlink:title=" ">
<path fill="none" stroke="#63b8ff" d="M300.92,-192.5C313.53,-192.5 327.64,-192.5 341.45,-192.5"/>
<polygon fill="#63b8ff" stroke="#63b8ff" points="341.43,-196 351.43,-192.5 341.43,-189 341.43,-196"/>
</a>
</g>
</g>
<!-- Node6 -->
<g id="Node000006" class="node">
<title>Node6</title>
<g id="a_Node000006"><a xlink:href="namespaceIO.html#a30cc77fc5c4d45d3b56ef6a299ce2383" target="_top" xlink:title=" ">
<polygon fill="white" stroke="#666666" points="741.75,-201.75 681.5,-201.75 681.5,-183.25 741.75,-183.25 741.75,-201.75"/>
<text xml:space="preserve" text-anchor="middle" x="711.62" y="-188.25" font-family="Helvetica,sans-Serif" font-size="10.00">IO::format</text>
</a>
</g>
</g>
<!-- Node5&#45;&gt;Node6 -->
<g id="edge6_Node000005_Node000006" class="edge">
<title>Node5&#45;&gt;Node6</title>
<g id="a_edge6_Node000005_Node000006"><a xlink:title=" ">
<path fill="none" stroke="#63b8ff" d="M447.28,-301.48C490.99,-318.32 568.02,-339.73 625.25,-310.5 665.45,-289.97 691.09,-240.7 702.94,-212.75"/>
<polygon fill="#63b8ff" stroke="#63b8ff" points="706.13,-214.21 706.61,-203.63 699.63,-211.6 706.13,-214.21"/>
</a>
</g>
</g>
<!-- Node7 -->
<g id="Node000007" class="node">
<title>Node7</title>
<g id="a_Node000007"><a xlink:href="classCore_1_1DataExporter.html#a9c60512b8e80f25d5f1f6cac29b27d07" target="_top" xlink:title=" ">
<polygon fill="white" stroke="#666666" points="616.62,-301 515.88,-301 515.88,-272 616.62,-272 616.62,-301"/>
<text xml:space="preserve" text-anchor="start" x="523.88" y="-287.5" font-family="Helvetica,sans-Serif" font-size="10.00">Core::DataExporter</text>
<text xml:space="preserve" text-anchor="middle" x="566.25" y="-277" font-family="Helvetica,sans-Serif" font-size="10.00">::prepare_matrix</text>
</a>
</g>
</g>
<!-- Node5&#45;&gt;Node7 -->
<g id="edge8_Node000005_Node000007" class="edge">
<title>Node5&#45;&gt;Node7</title>
<g id="a_edge8_Node000005_Node000007"><a xlink:title=" ">
<path fill="none" stroke="#63b8ff" d="M466.84,-286.5C478.95,-286.5 491.89,-286.5 504.27,-286.5"/>
<polygon fill="#63b8ff" stroke="#63b8ff" points="503.94,-290 513.94,-286.5 503.94,-283 503.94,-290"/>
</a>
</g>
</g>
<!-- Node6&#45;&gt;Node6 -->
<g id="edge7_Node000006_Node000006" class="edge">
<title>Node6&#45;&gt;Node6</title>
<g id="a_edge7_Node000006_Node000006"><a xlink:title=" ">
<path fill="none" stroke="#63b8ff" d="M689.22,-202C678.32,-210.57 685.79,-219.75 711.62,-219.75 726.16,-219.75 734.88,-216.84 737.79,-212.78"/>
<polygon fill="#63b8ff" stroke="#63b8ff" points="741.13,-211.72 734.53,-203.42 734.52,-214.02 741.13,-211.72"/>
</a>
</g>
</g>
<!-- Node9 -->
<g id="Node000009" class="node">
<title>Node9</title>
<g id="a_Node000009"><a xlink:href="classSimulation_1_1Getter.html#ae948f113363f8ab858797a17c28a2e86" target="_top" xlink:title=" ">
<polygon fill="white" stroke="#666666" points="613.62,-254 518.88,-254 518.88,-225 613.62,-225 613.62,-254"/>
<text xml:space="preserve" text-anchor="start" x="526.88" y="-240.5" font-family="Helvetica,sans-Serif" font-size="10.00">Simulation::Getter</text>
<text xml:space="preserve" text-anchor="middle" x="566.25" y="-230" font-family="Helvetica,sans-Serif" font-size="10.00">::mc_unit</text>
</a>
</g>
</g>
<!-- Node8&#45;&gt;Node9 -->
<g id="edge10_Node000008_Node000009" class="edge">
<title>Node8&#45;&gt;Node9</title>
<g id="a_edge10_Node000008_Node000009"><a xlink:title=" ">
<path fill="none" stroke="#63b8ff" d="M468.13,-239.5C480.76,-239.5 494.23,-239.5 507,-239.5"/>
<polygon fill="#63b8ff" stroke="#63b8ff" points="506.97,-243 516.97,-239.5 506.97,-236 506.97,-243"/>
</a>
</g>
</g>
<!-- Node11 -->
<g id="Node000011" class="node">
<title>Node11</title>
<g id="a_Node000011"><a xlink:href="classCore_1_1DataExporter.html#a0af9b5e13d16339af1918f8e845193f9" target="_top" xlink:title=" ">
<polygon fill="white" stroke="#666666" points="616.62,-207 515.88,-207 515.88,-178 616.62,-178 616.62,-207"/>
<text xml:space="preserve" text-anchor="start" x="523.88" y="-193.5" font-family="Helvetica,sans-Serif" font-size="10.00">Core::DataExporter</text>
<text xml:space="preserve" text-anchor="middle" x="566.25" y="-183" font-family="Helvetica,sans-Serif" font-size="10.00">::append_matrix</text>
</a>
</g>
</g>
<!-- Node10&#45;&gt;Node11 -->
<g id="edge12_Node000010_Node000011" class="edge">
<title>Node10&#45;&gt;Node11</title>
<g id="a_edge12_Node000010_Node000011"><a xlink:title=" ">
<path fill="none" stroke="#63b8ff" d="M471.58,-192.5C482.28,-192.5 493.47,-192.5 504.25,-192.5"/>
<polygon fill="#63b8ff" stroke="#63b8ff" points="504.22,-196 514.22,-192.5 504.22,-189 504.22,-196"/>
</a>
</g>
</g>
<!-- Node13 -->
<g id="Node000013" class="node">
<title>Node13</title>
<g id="a_Node000013"><a xlink:href="namespacePostProcessing.html#adae52b6b518e25be1c920f36f196ef65" target="_top" xlink:title=" ">
<polygon fill="white" stroke="#666666" points="470.5,-128 354,-128 354,-99 470.5,-99 470.5,-128"/>
<text xml:space="preserve" text-anchor="start" x="362" y="-114.5" font-family="Helvetica,sans-Serif" font-size="10.00">PostProcessing::_save</text>
<text xml:space="preserve" text-anchor="middle" x="412.25" y="-104" font-family="Helvetica,sans-Serif" font-size="10.00">_probes</text>
</a>
</g>
</g>
<!-- Node12&#45;&gt;Node13 -->
<g id="edge14_Node000012_Node000013" class="edge">
<title>Node12&#45;&gt;Node13</title>
<g id="a_edge14_Node000012_Node000013"><a xlink:title=" ">
<path fill="none" stroke="#63b8ff" d="M312.73,-120.56C322.26,-119.88 332.26,-119.16 342.11,-118.45"/>
<polygon fill="#63b8ff" stroke="#63b8ff" points="342.31,-121.95 352.03,-117.74 341.81,-114.97 342.31,-121.95"/>
</a>
</g>
</g>
<!-- Node19 -->
<g id="Node000019" class="node">
<title>Node19</title>
<g id="a_Node000019"><a xlink:href="classSimulation_1_1Getter.html#ab2fa179687f4810f64d4c1c2beb7800c" target="_top" xlink:title=" ">
<polygon fill="white" stroke="#666666" points="459.62,-81 364.88,-81 364.88,-52 459.62,-52 459.62,-81"/>
<text xml:space="preserve" text-anchor="start" x="372.88" y="-67.5" font-family="Helvetica,sans-Serif" font-size="10.00">Simulation::Getter</text>
<text xml:space="preserve" text-anchor="middle" x="412.25" y="-57" font-family="Helvetica,sans-Serif" font-size="10.00">::it_probes</text>
</a>
</g>
</g>
<!-- Node12&#45;&gt;Node19 -->
<g id="edge21_Node000012_Node000019" class="edge">
<title>Node12&#45;&gt;Node19</title>
<g id="a_edge21_Node000012_Node000019"><a xlink:title=" ">
<path fill="none" stroke="#63b8ff" d="M297.28,-109.56C316.72,-102.22 340.36,-93.28 361.07,-85.46"/>
<polygon fill="#63b8ff" stroke="#63b8ff" points="362.05,-88.83 370.17,-82.02 359.58,-82.28 362.05,-88.83"/>
</a>
</g>
</g>
<!-- Node14 -->
<g id="Node000014" class="node">
<title>Node14</title>
<g id="a_Node000014"><a xlink:href="classSimulation_1_1Probes.html#af54f1c8be6e49f63e8533d6a4e91cad3" target="_top" xlink:title=" ">
<polygon fill="white" stroke="#666666" points="615.5,-160 517,-160 517,-131 615.5,-131 615.5,-160"/>
<text xml:space="preserve" text-anchor="start" x="525" y="-146.5" font-family="Helvetica,sans-Serif" font-size="10.00">Simulation::Probes</text>
<text xml:space="preserve" text-anchor="middle" x="566.25" y="-136" font-family="Helvetica,sans-Serif" font-size="10.00">::clear</text>
</a>
</g>
</g>
<!-- Node13&#45;&gt;Node14 -->
<g id="edge15_Node000013_Node000014" class="edge">
<title>Node13&#45;&gt;Node14</title>
<g id="a_edge15_Node000013_Node000014"><a xlink:title=" ">
<path fill="none" stroke="#63b8ff" d="M470.71,-125.6C482.06,-127.99 494,-130.5 505.43,-132.91"/>
<polygon fill="#63b8ff" stroke="#63b8ff" points="504.65,-136.32 515.16,-134.95 506.09,-129.47 504.65,-136.32"/>
</a>
</g>
</g>
<!-- Node15 -->
<g id="Node000015" class="node">
<title>Node15</title>
<g id="a_Node000015"><a xlink:href="classSimulation_1_1Probes.html#a6345c8304e772a314dae935f742d518a" target="_top" xlink:title=" ">
<polygon fill="white" stroke="#666666" points="625.25,-112.75 507.25,-112.75 507.25,-94.25 625.25,-94.25 625.25,-112.75"/>
<text xml:space="preserve" text-anchor="middle" x="566.25" y="-99.25" font-family="Helvetica,sans-Serif" font-size="10.00">Simulation::Probes::get</text>
</a>
</g>
</g>
<!-- Node13&#45;&gt;Node15 -->
<g id="edge16_Node000013_Node000015" class="edge">
<title>Node13&#45;&gt;Node15</title>
<g id="a_edge16_Node000013_Node000015"><a xlink:title=" ">
<path fill="none" stroke="#63b8ff" d="M470.71,-109.72C478.86,-109.18 487.32,-108.63 495.66,-108.08"/>
<polygon fill="#63b8ff" stroke="#63b8ff" points="495.69,-111.58 505.44,-107.44 495.23,-104.6 495.69,-111.58"/>
</a>
</g>
</g>
<!-- Node16 -->
<g id="Node000016" class="node">
<title>Node16</title>
<g id="a_Node000016"><a xlink:href="classSimulation_1_1Probes.html#a2b8541ff7ad653204a955ff1feb78757" target="_top" xlink:title=" ">
<polygon fill="white" stroke="#666666" points="615.5,-76 517,-76 517,-47 615.5,-47 615.5,-76"/>
<text xml:space="preserve" text-anchor="start" x="525" y="-62.5" font-family="Helvetica,sans-Serif" font-size="10.00">Simulation::Probes</text>
<text xml:space="preserve" text-anchor="middle" x="566.25" y="-52" font-family="Helvetica,sans-Serif" font-size="10.00">::need_export</text>
</a>
</g>
</g>
<!-- Node13&#45;&gt;Node16 -->
<g id="edge17_Node000013_Node000016" class="edge">
<title>Node13&#45;&gt;Node16</title>
<g id="a_edge17_Node000013_Node000016"><a xlink:title=" ">
<path fill="none" stroke="#63b8ff" d="M456.81,-98.6C473.59,-92.86 492.97,-86.23 510.66,-80.17"/>
<polygon fill="#63b8ff" stroke="#63b8ff" points="511.66,-83.53 519.99,-76.98 509.4,-76.91 511.66,-83.53"/>
</a>
</g>
</g>
<!-- Node17 -->
<g id="Node000017" class="node">
<title>Node17</title>
<g id="a_Node000017"><a xlink:href="classCore_1_1PartialExporter.html#a53c54ce796df99b407f410beb01074c5" target="_top" xlink:title="Writes probe data to the export.">
<polygon fill="white" stroke="#666666" points="620.75,-29 511.75,-29 511.75,0 620.75,0 620.75,-29"/>
<text xml:space="preserve" text-anchor="start" x="519.75" y="-15.5" font-family="Helvetica,sans-Serif" font-size="10.00">Core::PartialExporter</text>
<text xml:space="preserve" text-anchor="middle" x="566.25" y="-5" font-family="Helvetica,sans-Serif" font-size="10.00">::write_probe</text>
</a>
</g>
</g>
<!-- Node13&#45;&gt;Node17 -->
<g id="edge18_Node000013_Node000017" class="edge">
<title>Node13&#45;&gt;Node17</title>
<g id="a_edge18_Node000013_Node000017"><a xlink:title=" ">
<path fill="none" stroke="#63b8ff" d="M457.24,-98.53C462.21,-95.92 467.01,-92.92 471.25,-89.5 493.13,-71.85 485.24,-54.99 507.25,-37.5 508.2,-36.74 509.19,-36.01 510.19,-35.29"/>
<polygon fill="#63b8ff" stroke="#63b8ff" points="511.77,-38.43 518.48,-30.23 508.12,-32.45 511.77,-38.43"/>
</a>
</g>
</g>
<!-- Node17&#45;&gt;Node6 -->
<g id="edge20_Node000017_Node000006" class="edge">
<title>Node17&#45;&gt;Node6</title>
<g id="a_edge20_Node000017_Node000006"><a xlink:title=" ">
<path fill="none" stroke="#63b8ff" d="M613.63,-29.37C617.8,-31.73 621.76,-34.42 625.25,-37.5 667.96,-75.15 693.58,-139.52 704.46,-172.19"/>
<polygon fill="#63b8ff" stroke="#63b8ff" points="701.09,-173.13 707.46,-181.6 707.76,-171.01 701.09,-173.13"/>
</a>
</g>
</g>
<!-- Node18 -->
<g id="Node000018" class="node">
<title>Node18</title>
<g id="a_Node000018"><a xlink:href="classCore_1_1DataExporter.html#a0b0b79f3932c4eb905704a852248c857" target="_top" xlink:title=" ">
<polygon fill="white" stroke="#666666" points="762,-29 661.25,-29 661.25,0 762,0 762,-29"/>
<text xml:space="preserve" text-anchor="start" x="669.25" y="-15.5" font-family="Helvetica,sans-Serif" font-size="10.00">Core::DataExporter</text>
<text xml:space="preserve" text-anchor="middle" x="711.62" y="-5" font-family="Helvetica,sans-Serif" font-size="10.00">::append_array</text>
</a>
</g>
</g>
<!-- Node17&#45;&gt;Node18 -->
<g id="edge19_Node000017_Node000018" class="edge">
<title>Node17&#45;&gt;Node18</title>
<g id="a_edge19_Node000017_Node000018"><a xlink:title=" ">
<path fill="none" stroke="#63b8ff" d="M621.05,-14.5C630.31,-14.5 640,-14.5 649.44,-14.5"/>
<polygon fill="#63b8ff" stroke="#63b8ff" points="649.28,-18 659.28,-14.5 649.28,-11 649.28,-18"/>
</a>
</g>
</g>
</g>
</svg>
