<?xml version="1.0" encoding="UTF-8" standalone="no"?>
<!DOCTYPE svg PUBLIC "-//W3C//DTD SVG 1.1//EN"
 "http://www.w3.org/Graphics/SVG/1.1/DTD/svg11.dtd">
<!-- Generated by graphviz version 14.0.1 (0)
 -->
<!-- Title: Core::exporter_filename Pages: 1 -->
<svg width="636pt" height="102pt"
 viewBox="0.00 0.00 636.00 102.00" xmlns="http://www.w3.org/2000/svg" xmlns:xlink="http://www.w3.org/1999/xlink">
<g id="graph0" class="graph" transform="scale(1 1) rotate(0) translate(4 98)">
<title>Core::exporter_filename</title>
<!-- Node1 -->
<g id="Node000001" class="node">
<title>Node1</title>
<g id="a_Node000001"><a xlink:title=" ">
<polygon fill="#999999" stroke="#666666" points="628.25,-64.75 507.25,-64.75 507.25,-46.25 628.25,-46.25 628.25,-64.75"/>
<text xml:space="preserve" text-anchor="middle" x="567.75" y="-51.25" font-family="Helvetica,sans-Serif" font-size="10.00">Core::exporter_filename</text>
</a>
</g>
</g>
<!-- Node2 -->
<g id="Node000002" class="node">
<title>Node2</title>
<g id="a_Node000002"><a xlink:href="namespaceCore.html#ab6528e76111960864b7e4741327b3049" target="_top" xlink:title="Start simulation.">
<polygon fill="white" stroke="#666666" points="471.25,-64.75 408,-64.75 408,-46.25 471.25,-46.25 471.25,-64.75"/>
<text xml:space="preserve" text-anchor="middle" x="439.62" y="-51.25" font-family="Helvetica,sans-Serif" font-size="10.00">Core::exec</text>
</a>
</g>
</g>
<!-- Node1&#45;&gt;Node2 -->
<g id="edge1_Node000001_Node000002" class="edge">
<title>Node1&#45;&gt;Node2</title>
<g id="a_edge1_Node000001_Node000002"><a xlink:title=" ">
<path fill="none" stroke="#63b8ff" d="M495.56,-48.8C487.21,-48.9 479.05,-49.17 471.68,-49.59"/>
<polygon fill="#63b8ff" stroke="#63b8ff" points="495.51,-52.3 505.5,-48.76 495.49,-45.3 495.51,-52.3"/>
</a>
</g>
</g>
<!-- Node2&#45;&gt;Node1 -->
<g id="edge4_Node000002_Node000001" class="edge">
<title>Node2&#45;&gt;Node1</title>
<g id="a_edge4_Node000002_Node000001"><a xlink:title=" ">
<path fill="none" stroke="#63b8ff" d="M482.98,-61.92C490.7,-62.17 498.89,-62.28 507.01,-62.24"/>
<polygon fill="#63b8ff" stroke="#63b8ff" points="483.34,-58.43 473.19,-61.48 483.03,-65.42 483.34,-58.43"/>
</a>
</g>
</g>
<!-- Node3 -->
<g id="Node000003" class="node">
<title>Node3</title>
<g id="a_Node000003"><a xlink:href="structApi_1_1SimulationInstance.html#a3f04372728be84263fb69f5773ca5bd5" target="_top" xlink:title="Execute the simulation.">
<polygon fill="white" stroke="#666666" points="275,-94 155.5,-94 155.5,-65 275,-65 275,-94"/>
<text xml:space="preserve" text-anchor="start" x="163.5" y="-80.5" font-family="Helvetica,sans-Serif" font-size="10.00">Api::SimulationInstance</text>
<text xml:space="preserve" text-anchor="middle" x="215.25" y="-70" font-family="Helvetica,sans-Serif" font-size="10.00">::exec</text>
</a>
</g>
</g>
<!-- Node2&#45;&gt;Node3 -->
<g id="edge2_Node000002_Node000003" class="edge">
<title>Node2&#45;&gt;Node3</title>
<g id="a_edge2_Node000002_Node000003"><a xlink:title=" ">
<path fill="none" stroke="#63b8ff" d="M396.67,-60.03C362.39,-63.73 313.51,-69 275.28,-73.13"/>
<polygon fill="#63b8ff" stroke="#63b8ff" points="396.63,-63.55 406.2,-59 395.88,-56.59 396.63,-63.55"/>
</a>
</g>
</g>
<!-- Node5 -->
<g id="Node000005" class="node">
<title>Node5</title>
<g id="a_Node000005"><a xlink:href="namespaceCore.html#a8a3e4aa1d1921da2e211c43d5368acf1" target="_top" xlink:title=" ">
<polygon fill="white" stroke="#666666" points="372,-46.75 311,-46.75 311,-28.25 372,-28.25 372,-46.75"/>
<text xml:space="preserve" text-anchor="middle" x="341.5" y="-33.25" font-family="Helvetica,sans-Serif" font-size="10.00">Core::load</text>
</a>
</g>
</g>
<!-- Node2&#45;&gt;Node5 -->
<g id="edge5_Node000002_Node000005" class="edge">
<title>Node2&#45;&gt;Node5</title>
<g id="a_edge5_Node000002_Node000005"><a xlink:title=" ">
<path fill="none" stroke="#63b8ff" d="M396.47,-47.61C388.36,-46.09 380.02,-44.53 372.4,-43.1"/>
<polygon fill="#63b8ff" stroke="#63b8ff" points="395.72,-51.03 406.19,-49.43 397.01,-44.15 395.72,-51.03"/>
</a>
</g>
</g>
<!-- Node4 -->
<g id="Node000004" class="node">
<title>Node4</title>
<g id="a_Node000004"><a xlink:href="structApi_1_1SimulationInstance.html#afee07db8a6b57fe7982900ecaa943cc0" target="_top" xlink:title="Default constructor.">
<polygon fill="white" stroke="#666666" points="119.5,-94 0,-94 0,-65 119.5,-65 119.5,-94"/>
<text xml:space="preserve" text-anchor="start" x="8" y="-80.5" font-family="Helvetica,sans-Serif" font-size="10.00">Api::SimulationInstance</text>
<text xml:space="preserve" text-anchor="middle" x="59.75" y="-70" font-family="Helvetica,sans-Serif" font-size="10.00">::SimulationInstance</text>
</a>
</g>
</g>
<!-- Node3&#45;&gt;Node4 -->
<g id="edge3_Node000003_Node000004" class="edge">
<title>Node3&#45;&gt;Node4</title>
<g id="a_edge3_Node000003_Node000004"><a xlink:title=" ">
<path fill="none" stroke="#63b8ff" d="M143.99,-79.5C135.89,-79.5 127.69,-79.5 119.75,-79.5"/>
<polygon fill="#63b8ff" stroke="#63b8ff" points="143.83,-83 153.83,-79.5 143.83,-76 143.83,-83"/>
</a>
</g>
</g>
<!-- Node6 -->
<g id="Node000006" class="node">
<title>Node6</title>
<g id="a_Node000006"><a xlink:href="structApi_1_1SimulationInstance.html#ad2abfa76ac4128d44b7c0c895f78b77b" target="_top" xlink:title="Load ad apply the simulation configuration and prepare for execution based on file.">
<polygon fill="white" stroke="#666666" points="275,-47 155.5,-47 155.5,-18 275,-18 275,-47"/>
<text xml:space="preserve" text-anchor="start" x="163.5" y="-33.5" font-family="Helvetica,sans-Serif" font-size="10.00">Api::SimulationInstance</text>
<text xml:space="preserve" text-anchor="middle" x="215.25" y="-23" font-family="Helvetica,sans-Serif" font-size="10.00">::apply_load</text>
</a>
</g>
</g>
<!-- Node5&#45;&gt;Node6 -->
<g id="edge6_Node000005_Node000006" class="edge">
<title>Node5&#45;&gt;Node6</title>
<g id="a_edge6_Node000005_Node000006"><a xlink:title=" ">
<path fill="none" stroke="#63b8ff" d="M299.35,-35.84C291.55,-35.53 283.24,-35.2 275.01,-34.86"/>
<polygon fill="#63b8ff" stroke="#63b8ff" points="299.09,-39.34 309.23,-36.24 299.38,-32.34 299.09,-39.34"/>
</a>
</g>
</g>
<!-- Node6&#45;&gt;Node4 -->
<g id="edge9_Node000006_Node000004" class="edge">
<title>Node6&#45;&gt;Node4</title>
<g id="a_edge9_Node000006_Node000004"><a xlink:title=" ">
<path fill="none" stroke="#63b8ff" d="M154.95,-50.66C139.92,-55.26 123.96,-60.14 109.53,-64.56"/>
<polygon fill="#63b8ff" stroke="#63b8ff" points="155.7,-54.09 164.23,-47.81 153.65,-47.4 155.7,-54.09"/>
</a>
</g>
</g>
<!-- Node7 -->
<g id="Node000007" class="node">
<title>Node7</title>
<g id="a_Node000007"><a xlink:href="structApi_1_1SimulationInstance.html#a3398ddd22faa3ceb16b454c51faeced0" target="_top" xlink:title="Apply the simulation configuration and prepare for execution.">
<polygon fill="white" stroke="#666666" points="119.5,-29 0,-29 0,0 119.5,0 119.5,-29"/>
<text xml:space="preserve" text-anchor="start" x="8" y="-15.5" font-family="Helvetica,sans-Serif" font-size="10.00">Api::SimulationInstance</text>
<text xml:space="preserve" text-anchor="middle" x="59.75" y="-5" font-family="Helvetica,sans-Serif" font-size="10.00">::apply</text>
</a>
</g>
</g>
<!-- Node6&#45;&gt;Node7 -->
<g id="edge7_Node000006_Node000007" class="edge">
<title>Node6&#45;&gt;Node7</title>
<g id="a_edge7_Node000006_Node000007"><a xlink:title=" ">
<path fill="none" stroke="#63b8ff" d="M143.99,-24.26C135.89,-23.31 127.69,-22.35 119.75,-21.42"/>
<polygon fill="#63b8ff" stroke="#63b8ff" points="143.5,-27.73 153.84,-25.42 144.31,-20.78 143.5,-27.73"/>
</a>
</g>
</g>
<!-- Node7&#45;&gt;Node7 -->
<g id="edge8_Node000007_Node000007" class="edge">
<title>Node7&#45;&gt;Node7</title>
<g id="a_edge8_Node000007_Node000007"><a xlink:title=" ">
<path fill="none" stroke="#63b8ff" d="M86.14,-40.56C82,-44.41 73.2,-47 59.75,-47 35.15,-47 26.12,-38.32 32.65,-29.21"/>
<polygon fill="#63b8ff" stroke="#63b8ff" points="89.63,-40.92 86.76,-30.72 82.64,-40.48 89.63,-40.92"/>
</a>
</g>
</g>
</g>
</svg>
