<?xml version="1.0" encoding="UTF-8" standalone="no"?>
<!DOCTYPE svg PUBLIC "-//W3C//DTD SVG 1.1//EN"
 "http://www.w3.org/Graphics/SVG/1.1/DTD/svg11.dtd">
<!-- Generated by graphviz version 14.0.1 (0)
 -->
<!-- Title: Core::exec Pages: 1 -->
<svg width="533pt" height="225pt"
 viewBox="0.00 0.00 533.00 225.00" xmlns="http://www.w3.org/2000/svg" xmlns:xlink="http://www.w3.org/1999/xlink">
<g id="graph0" class="graph" transform="scale(1 1) rotate(0) translate(4 221)">
<title>Core::exec</title>
<!-- Node1 -->
<g id="Node000001" class="node">
<title>Node1</title>
<g id="a_Node000001"><a xlink:title="Start simulation.">
<polygon fill="#999999" stroke="#666666" points="63.25,-117.75 0,-117.75 0,-99.25 63.25,-99.25 63.25,-117.75"/>
<text xml:space="preserve" text-anchor="middle" x="31.62" y="-104.25" font-family="Helvetica,sans-Serif" font-size="10.00">Core::exec</text>
</a>
</g>
</g>
<!-- Node2 -->
<g id="Node000002" class="node">
<title>Node2</title>
<g id="a_Node000002"><a xlink:href="namespaceCore.html#a23e6f3d22fc51ef9decabb2c220b27c4" target="_top" xlink:title=" ">
<polygon fill="white" stroke="#666666" points="220.25,-159.75 99.25,-159.75 99.25,-141.25 220.25,-141.25 220.25,-159.75"/>
<text xml:space="preserve" text-anchor="middle" x="159.75" y="-146.25" font-family="Helvetica,sans-Serif" font-size="10.00">Core::exporter_filename</text>
</a>
</g>
</g>
<!-- Node1&#45;&gt;Node2 -->
<g id="edge1_Node000001_Node000002" class="edge">
<title>Node1&#45;&gt;Node2</title>
<g id="a_edge1_Node000001_Node000002"><a xlink:title=" ">
<path fill="none" stroke="#63b8ff" d="M63.69,-111.61C74.86,-115.13 87.58,-119.64 99.25,-123.5 112.01,-127.72 126.43,-132.1 137.88,-136.51"/>
<polygon fill="#63b8ff" stroke="#63b8ff" points="136.2,-139.6 146.77,-140.33 138.97,-133.17 136.2,-139.6"/>
</a>
</g>
</g>
<!-- Node3 -->
<g id="Node000003" class="node">
<title>Node3</title>
<g id="a_Node000003"><a xlink:href="namespaceCore.html#afbce0beea293a7ccfdfc34a85b5e5e77" target="_top" xlink:title=" ">
<polygon fill="white" stroke="#666666" points="203.75,-123 115.75,-123 115.75,-94 203.75,-94 203.75,-123"/>
<text xml:space="preserve" text-anchor="start" x="123.75" y="-109.5" font-family="Helvetica,sans-Serif" font-size="10.00">Core::init_partial</text>
<text xml:space="preserve" text-anchor="middle" x="159.75" y="-99" font-family="Helvetica,sans-Serif" font-size="10.00">_exporter</text>
</a>
</g>
</g>
<!-- Node1&#45;&gt;Node3 -->
<g id="edge3_Node000001_Node000003" class="edge">
<title>Node1&#45;&gt;Node3</title>
<g id="a_edge3_Node000001_Node000003"><a xlink:title=" ">
<path fill="none" stroke="#63b8ff" d="M63.48,-108.5C75.67,-108.5 90.06,-108.5 103.91,-108.5"/>
<polygon fill="#63b8ff" stroke="#63b8ff" points="103.84,-112 113.84,-108.5 103.84,-105 103.84,-112"/>
</a>
</g>
</g>
<!-- Node9 -->
<g id="Node000009" class="node">
<title>Node9</title>
<g id="a_Node000009"><a xlink:href="namespacePostProcessing.html#a0e06c75e06cf43e767d5e3e8afab62f2" target="_top" xlink:title=" ">
<polygon fill="white" stroke="#666666" points="215.38,-76 104.12,-76 104.12,-47 215.38,-47 215.38,-76"/>
<text xml:space="preserve" text-anchor="start" x="112.12" y="-62.5" font-family="Helvetica,sans-Serif" font-size="10.00">PostProcessing::save</text>
<text xml:space="preserve" text-anchor="middle" x="159.75" y="-52" font-family="Helvetica,sans-Serif" font-size="10.00">_probes</text>
</a>
</g>
</g>
<!-- Node1&#45;&gt;Node9 -->
<g id="edge9_Node000001_Node000009" class="edge">
<title>Node1&#45;&gt;Node9</title>
<g id="a_edge9_Node000001_Node000009"><a xlink:title=" ">
<path fill="none" stroke="#63b8ff" d="M58.76,-98.76C73.1,-93.42 91.37,-86.61 108.37,-80.28"/>
<polygon fill="#63b8ff" stroke="#63b8ff" points="109.17,-83.71 117.32,-76.94 106.72,-77.15 109.17,-83.71"/>
</a>
</g>
</g>
<!-- Node13 -->
<g id="Node000013" class="node">
<title>Node13</title>
<g id="a_Node000013"><a xlink:href="classCore_1_1DataExporter.html#ad3b98151595b0962c089a7afcdb2a642" target="_top" xlink:title=" ">
<polygon fill="white" stroke="#666666" points="210.12,-29 109.38,-29 109.38,0 210.12,0 210.12,-29"/>
<text xml:space="preserve" text-anchor="start" x="117.38" y="-15.5" font-family="Helvetica,sans-Serif" font-size="10.00">Core::DataExporter</text>
<text xml:space="preserve" text-anchor="middle" x="159.75" y="-5" font-family="Helvetica,sans-Serif" font-size="10.00">::set_logger</text>
</a>
</g>
</g>
<!-- Node1&#45;&gt;Node13 -->
<g id="edge13_Node000001_Node000013" class="edge">
<title>Node1&#45;&gt;Node13</title>
<g id="a_edge13_Node000001_Node000013"><a xlink:title=" ">
<path fill="none" stroke="#63b8ff" d="M39.41,-99.12C50.47,-84.42 73.71,-55.85 99.25,-38.5 101.19,-37.18 103.22,-35.91 105.3,-34.7"/>
<polygon fill="#63b8ff" stroke="#63b8ff" points="106.79,-37.87 114.03,-30.14 103.54,-31.67 106.79,-37.87"/>
</a>
</g>
</g>
<!-- Node2&#45;&gt;Node1 -->
<g id="edge2_Node000002_Node000001" class="edge">
<title>Node2&#45;&gt;Node1</title>
<g id="a_edge2_Node000002_Node000001"><a xlink:title=" ">
<path fill="none" stroke="#63b8ff" d="M98.77,-141.34C82.97,-136.1 65.32,-129.69 52.23,-123.5"/>
<polygon fill="#63b8ff" stroke="#63b8ff" points="53.88,-120.42 43.4,-118.85 50.62,-126.61 53.88,-120.42"/>
</a>
</g>
</g>
<!-- Node4 -->
<g id="Node000004" class="node">
<title>Node4</title>
<g id="a_Node000004"><a xlink:href="classCore_1_1PartialExporter.html#a05cba8c28abaecce99f586d551a75f80" target="_top" xlink:title="Initializes the fields required for exporting data.">
<polygon fill="white" stroke="#666666" points="376.5,-217 267.5,-217 267.5,-188 376.5,-188 376.5,-217"/>
<text xml:space="preserve" text-anchor="start" x="275.5" y="-203.5" font-family="Helvetica,sans-Serif" font-size="10.00">Core::PartialExporter</text>
<text xml:space="preserve" text-anchor="middle" x="322" y="-193" font-family="Helvetica,sans-Serif" font-size="10.00">::init_fields</text>
</a>
</g>
</g>
<!-- Node3&#45;&gt;Node4 -->
<g id="edge4_Node000003_Node000004" class="edge">
<title>Node3&#45;&gt;Node4</title>
<g id="a_edge4_Node000003_Node000004"><a xlink:title=" ">
<path fill="none" stroke="#63b8ff" d="M204.17,-122.79C209.85,-125.57 215.37,-128.79 220.25,-132.5 241.19,-148.43 234.98,-164.01 256.25,-179.5 257.58,-180.47 258.95,-181.39 260.35,-182.29"/>
<polygon fill="#63b8ff" stroke="#63b8ff" points="258.29,-185.15 268.74,-186.93 261.68,-179.02 258.29,-185.15"/>
</a>
</g>
</g>
<!-- Node6 -->
<g id="Node000006" class="node">
<title>Node6</title>
<g id="a_Node000006"><a xlink:href="namespacePostProcessing.html#a9ff9231cbdf2a3c4e539c4638aba2445" target="_top" xlink:title=" ">
<polygon fill="white" stroke="#666666" points="377.62,-170 266.38,-170 266.38,-141 377.62,-141 377.62,-170"/>
<text xml:space="preserve" text-anchor="start" x="274.38" y="-156.5" font-family="Helvetica,sans-Serif" font-size="10.00">PostProcessing::save</text>
<text xml:space="preserve" text-anchor="middle" x="322" y="-146" font-family="Helvetica,sans-Serif" font-size="10.00">_particle_state</text>
</a>
</g>
</g>
<!-- Node3&#45;&gt;Node6 -->
<g id="edge6_Node000003_Node000006" class="edge">
<title>Node3&#45;&gt;Node6</title>
<g id="a_edge6_Node000003_Node000006"><a xlink:title=" ">
<path fill="none" stroke="#63b8ff" d="M204.12,-121.22C221.01,-126.17 240.68,-131.94 259.01,-137.32"/>
<polygon fill="#63b8ff" stroke="#63b8ff" points="257.89,-140.64 268.47,-140.09 259.86,-133.92 257.89,-140.64"/>
</a>
</g>
</g>
<!-- Node7 -->
<g id="Node000007" class="node">
<title>Node7</title>
<g id="a_Node000007"><a xlink:href="classCore_1_1PartialExporter.html#a450fb0c92efa4ee81b4083fc01f5e665" target="_top" xlink:title="Writes the number of particles in each compartment.">
<polygon fill="white" stroke="#666666" points="381,-123 263,-123 263,-94 381,-94 381,-123"/>
<text xml:space="preserve" text-anchor="start" x="271" y="-109.5" font-family="Helvetica,sans-Serif" font-size="10.00">Core::PartialExporter</text>
<text xml:space="preserve" text-anchor="middle" x="322" y="-99" font-family="Helvetica,sans-Serif" font-size="10.00">::write_number_particle</text>
</a>
</g>
</g>
<!-- Node3&#45;&gt;Node7 -->
<g id="edge7_Node000003_Node000007" class="edge">
<title>Node3&#45;&gt;Node7</title>
<g id="a_edge7_Node000003_Node000007"><a xlink:title=" ">
<path fill="none" stroke="#63b8ff" d="M204.12,-108.5C218.59,-108.5 235.1,-108.5 251.06,-108.5"/>
<polygon fill="#63b8ff" stroke="#63b8ff" points="251.04,-112 261.04,-108.5 251.04,-105 251.04,-112"/>
</a>
</g>
</g>
<!-- Node5 -->
<g id="Node000005" class="node">
<title>Node5</title>
<g id="a_Node000005"><a xlink:href="classCore_1_1DataExporter.html#a9c60512b8e80f25d5f1f6cac29b27d07" target="_top" xlink:title=" ">
<polygon fill="white" stroke="#666666" points="524.5,-217 423.75,-217 423.75,-188 524.5,-188 524.5,-217"/>
<text xml:space="preserve" text-anchor="start" x="431.75" y="-203.5" font-family="Helvetica,sans-Serif" font-size="10.00">Core::DataExporter</text>
<text xml:space="preserve" text-anchor="middle" x="474.12" y="-193" font-family="Helvetica,sans-Serif" font-size="10.00">::prepare_matrix</text>
</a>
</g>
</g>
<!-- Node4&#45;&gt;Node5 -->
<g id="edge5_Node000004_Node000005" class="edge">
<title>Node4&#45;&gt;Node5</title>
<g id="a_edge5_Node000004_Node000005"><a xlink:title=" ">
<path fill="none" stroke="#63b8ff" d="M376.77,-202.5C388.38,-202.5 400.72,-202.5 412.57,-202.5"/>
<polygon fill="#63b8ff" stroke="#63b8ff" points="412.21,-206 422.21,-202.5 412.21,-199 412.21,-206"/>
</a>
</g>
</g>
<!-- Node8 -->
<g id="Node000008" class="node">
<title>Node8</title>
<g id="a_Node000008"><a xlink:href="classCore_1_1DataExporter.html#a0af9b5e13d16339af1918f8e845193f9" target="_top" xlink:title=" ">
<polygon fill="white" stroke="#666666" points="524.5,-123 423.75,-123 423.75,-94 524.5,-94 524.5,-123"/>
<text xml:space="preserve" text-anchor="start" x="431.75" y="-109.5" font-family="Helvetica,sans-Serif" font-size="10.00">Core::DataExporter</text>
<text xml:space="preserve" text-anchor="middle" x="474.12" y="-99" font-family="Helvetica,sans-Serif" font-size="10.00">::append_matrix</text>
</a>
</g>
</g>
<!-- Node7&#45;&gt;Node8 -->
<g id="edge8_Node000007_Node000008" class="edge">
<title>Node7&#45;&gt;Node8</title>
<g id="a_edge8_Node000007_Node000008"><a xlink:title=" ">
<path fill="none" stroke="#63b8ff" d="M381.47,-108.5C391.52,-108.5 401.99,-108.5 412.1,-108.5"/>
<polygon fill="#63b8ff" stroke="#63b8ff" points="411.82,-112 421.82,-108.5 411.82,-105 411.82,-112"/>
</a>
</g>
</g>
<!-- Node10 -->
<g id="Node000010" class="node">
<title>Node10</title>
<g id="a_Node000010"><a xlink:href="classSimulation_1_1SimulationUnit.html#a0d675ed463b0caaeea75be8bd87d72cc" target="_top" xlink:title=" ">
<polygon fill="white" stroke="#666666" points="387.75,-76 256.25,-76 256.25,-47 387.75,-47 387.75,-76"/>
<text xml:space="preserve" text-anchor="start" x="264.25" y="-62.5" font-family="Helvetica,sans-Serif" font-size="10.00">Simulation::SimulationUnit</text>
<text xml:space="preserve" text-anchor="middle" x="322" y="-52" font-family="Helvetica,sans-Serif" font-size="10.00">::get_probes</text>
</a>
</g>
</g>
<!-- Node9&#45;&gt;Node10 -->
<g id="edge10_Node000009_Node000010" class="edge">
<title>Node9&#45;&gt;Node10</title>
<g id="a_edge10_Node000009_Node000010"><a xlink:title=" ">
<path fill="none" stroke="#63b8ff" d="M215.45,-61.5C224.77,-61.5 234.6,-61.5 244.36,-61.5"/>
<polygon fill="#63b8ff" stroke="#63b8ff" points="244.24,-65 254.24,-61.5 244.24,-58 244.24,-65"/>
</a>
</g>
</g>
<!-- Node11 -->
<g id="Node000011" class="node">
<title>Node11</title>
<g id="a_Node000011"><a xlink:href="classCore_1_1PartialExporter.html#a9927dbf1350349f090606134043e190c" target="_top" xlink:title="Writes probe data to the export.">
<polygon fill="white" stroke="#666666" points="376.5,-29 267.5,-29 267.5,0 376.5,0 376.5,-29"/>
<text xml:space="preserve" text-anchor="start" x="275.5" y="-15.5" font-family="Helvetica,sans-Serif" font-size="10.00">Core::PartialExporter</text>
<text xml:space="preserve" text-anchor="middle" x="322" y="-5" font-family="Helvetica,sans-Serif" font-size="10.00">::write_probe</text>
</a>
</g>
</g>
<!-- Node9&#45;&gt;Node11 -->
<g id="edge11_Node000009_Node000011" class="edge">
<title>Node9&#45;&gt;Node11</title>
<g id="a_edge11_Node000009_Node000011"><a xlink:title=" ">
<path fill="none" stroke="#63b8ff" d="M211.45,-46.63C226.65,-42.17 243.49,-37.23 259.32,-32.59"/>
<polygon fill="#63b8ff" stroke="#63b8ff" points="260.01,-36.03 268.62,-29.86 258.04,-29.32 260.01,-36.03"/>
</a>
</g>
</g>
<!-- Node12 -->
<g id="Node000012" class="node">
<title>Node12</title>
<g id="a_Node000012"><a xlink:href="classCore_1_1DataExporter.html#a0b0b79f3932c4eb905704a852248c857" target="_top" xlink:title=" ">
<polygon fill="white" stroke="#666666" points="524.5,-29 423.75,-29 423.75,0 524.5,0 524.5,-29"/>
<text xml:space="preserve" text-anchor="start" x="431.75" y="-15.5" font-family="Helvetica,sans-Serif" font-size="10.00">Core::DataExporter</text>
<text xml:space="preserve" text-anchor="middle" x="474.12" y="-5" font-family="Helvetica,sans-Serif" font-size="10.00">::append_array</text>
</a>
</g>
</g>
<!-- Node11&#45;&gt;Node12 -->
<g id="edge12_Node000011_Node000012" class="edge">
<title>Node11&#45;&gt;Node12</title>
<g id="a_edge12_Node000011_Node000012"><a xlink:title=" ">
<path fill="none" stroke="#63b8ff" d="M376.77,-14.5C388.38,-14.5 400.72,-14.5 412.57,-14.5"/>
<polygon fill="#63b8ff" stroke="#63b8ff" points="412.21,-18 422.21,-14.5 412.21,-11 412.21,-18"/>
</a>
</g>
</g>
</g>
</svg>
