<?xml version="1.0" encoding="UTF-8" standalone="no"?>
<!DOCTYPE svg PUBLIC "-//W3C//DTD SVG 1.1//EN"
 "http://www.w3.org/Graphics/SVG/1.1/DTD/svg11.dtd">
<!-- Generated by graphviz version 14.0.1 (0)
 -->
<!-- Title: WrapMPI::get_type Pages: 1 -->
<svg width="933pt" height="413pt"
 viewBox="0.00 0.00 933.00 413.00" xmlns="http://www.w3.org/2000/svg" xmlns:xlink="http://www.w3.org/1999/xlink">
<g id="graph0" class="graph" transform="scale(1 1) rotate(0) translate(4 408.75)">
<title>WrapMPI::get_type</title>
<!-- Node1 -->
<g id="Node000001" class="node">
<title>Node1</title>
<g id="a_Node000001"><a xlink:title=" ">
<polygon fill="#999999" stroke="#666666" points="924.75,-189.5 825.5,-189.5 825.5,-171 924.75,-171 924.75,-189.5"/>
<text xml:space="preserve" text-anchor="middle" x="875.12" y="-176" font-family="Helvetica,sans-Serif" font-size="10.00">WrapMPI::get_type</text>
</a>
</g>
</g>
<!-- Node2 -->
<g id="Node000002" class="node">
<title>Node2</title>
<g id="a_Node000002"><a xlink:href="namespaceWrapMPI.html#aa70b62df6aa5755b0c794d24afa1cfdf" target="_top" xlink:title="Broadcasts raw data to all processes in an unsafe manner.">
<polygon fill="white" stroke="#666666" points="773,-404.75 663.25,-404.75 663.25,-375.75 773,-375.75 773,-404.75"/>
<text xml:space="preserve" text-anchor="start" x="671.25" y="-391.25" font-family="Helvetica,sans-Serif" font-size="10.00">WrapMPI::_broadcast</text>
<text xml:space="preserve" text-anchor="middle" x="718.12" y="-380.75" font-family="Helvetica,sans-Serif" font-size="10.00">_unsafe</text>
</a>
</g>
</g>
<!-- Node1&#45;&gt;Node2 -->
<g id="edge1_Node000001_Node000002" class="edge">
<title>Node1&#45;&gt;Node2</title>
<g id="a_edge1_Node000001_Node000002"><a xlink:title=" ">
<path fill="none" stroke="#63b8ff" d="M870.49,-200.75C862.64,-239 840.52,-321.52 789.5,-367.25 784.71,-371.54 779.11,-375.03 773.2,-377.87"/>
<polygon fill="#63b8ff" stroke="#63b8ff" points="873.9,-201.55 872.34,-191.07 867.02,-200.24 873.9,-201.55"/>
</a>
</g>
</g>
<!-- Node4 -->
<g id="Node000004" class="node">
<title>Node4</title>
<g id="a_Node000004"><a xlink:href="namespaceWrapMPI_1_1Async.html#ac5fbf6f40e01dc061922ca4f674b317e" target="_top" xlink:title=" ">
<polygon fill="white" stroke="#666666" points="789.5,-357.75 646.75,-357.75 646.75,-328.75 789.5,-328.75 789.5,-357.75"/>
<text xml:space="preserve" text-anchor="start" x="654.75" y="-344.25" font-family="Helvetica,sans-Serif" font-size="10.00">WrapMPI::Async::_broadcast</text>
<text xml:space="preserve" text-anchor="middle" x="718.12" y="-333.75" font-family="Helvetica,sans-Serif" font-size="10.00">_unsafe</text>
</a>
</g>
</g>
<!-- Node1&#45;&gt;Node4 -->
<g id="edge3_Node000001_Node000004" class="edge">
<title>Node1&#45;&gt;Node4</title>
<g id="a_edge3_Node000001_Node000004"><a xlink:title=" ">
<path fill="none" stroke="#63b8ff" d="M867.28,-200.15C855.88,-230.43 830.13,-287.96 789.5,-320.25 785.58,-323.37 781.21,-326.07 776.64,-328.41"/>
<polygon fill="#63b8ff" stroke="#63b8ff" points="870.46,-201.67 870.56,-191.08 863.87,-199.3 870.46,-201.67"/>
</a>
</g>
</g>
<!-- Node6 -->
<g id="Node000006" class="node">
<title>Node6</title>
<g id="a_Node000006"><a xlink:href="namespaceWrapMPI.html#abbfbd4027c90508fdf9fb2e8ec46958a" target="_top" xlink:title=" ">
<polygon fill="white" stroke="#666666" points="782.38,-310.75 653.88,-310.75 653.88,-281.75 782.38,-281.75 782.38,-310.75"/>
<text xml:space="preserve" text-anchor="start" x="661.88" y="-297.25" font-family="Helvetica,sans-Serif" font-size="10.00">WrapMPI::_gather_unsafe</text>
<text xml:space="preserve" text-anchor="middle" x="718.12" y="-286.75" font-family="Helvetica,sans-Serif" font-size="10.00">_to_buffer</text>
</a>
</g>
</g>
<!-- Node1&#45;&gt;Node6 -->
<g id="edge5_Node000001_Node000006" class="edge">
<title>Node1&#45;&gt;Node6</title>
<g id="a_edge5_Node000001_Node000006"><a xlink:title=" ">
<path fill="none" stroke="#63b8ff" d="M861.28,-199.09C846.29,-219.75 819.67,-252.58 789.5,-272.25 784.2,-275.71 778.35,-278.72 772.36,-281.33"/>
<polygon fill="#63b8ff" stroke="#63b8ff" points="864.07,-201.2 866.97,-191.01 858.35,-197.17 864.07,-201.2"/>
</a>
</g>
</g>
<!-- Node11 -->
<g id="Node000011" class="node">
<title>Node11</title>
<g id="a_Node000011"><a xlink:href="namespaceWrapMPI.html#a8237adbb04708d9bf4bae9e904d04f5f" target="_top" xlink:title=" ">
<polygon fill="white" stroke="#666666" points="771.12,-245.5 665.12,-245.5 665.12,-227 771.12,-227 771.12,-245.5"/>
<text xml:space="preserve" text-anchor="middle" x="718.12" y="-232" font-family="Helvetica,sans-Serif" font-size="10.00">WrapMPI::all_reduce</text>
</a>
</g>
</g>
<!-- Node1&#45;&gt;Node11 -->
<g id="edge10_Node000001_Node000011" class="edge">
<title>Node1&#45;&gt;Node11</title>
<g id="a_edge10_Node000001_Node000011"><a xlink:title=" ">
<path fill="none" stroke="#63b8ff" d="M839.64,-194.2C824.36,-200.25 806.11,-207.3 789.5,-213.25 776.67,-217.84 762.4,-222.58 750.08,-226.55"/>
<polygon fill="#63b8ff" stroke="#63b8ff" points="840.79,-197.51 848.78,-190.56 838.19,-191.01 840.79,-197.51"/>
</a>
</g>
</g>
<!-- Node15 -->
<g id="Node000015" class="node">
<title>Node15</title>
<g id="a_Node000015"><a xlink:href="namespaceWrapMPI.html#a372df5351a2085df252cc9f4cceae7de" target="_top" xlink:title="Broadcasts a single data item to all processes.">
<polygon fill="white" stroke="#666666" points="770.38,-171.5 665.88,-171.5 665.88,-153 770.38,-153 770.38,-171.5"/>
<text xml:space="preserve" text-anchor="middle" x="718.12" y="-158" font-family="Helvetica,sans-Serif" font-size="10.00">WrapMPI::broadcast</text>
</a>
</g>
</g>
<!-- Node1&#45;&gt;Node15 -->
<g id="edge16_Node000001_Node000015" class="edge">
<title>Node1&#45;&gt;Node15</title>
<g id="a_edge16_Node000001_Node000015"><a xlink:title=" ">
<path fill="none" stroke="#63b8ff" d="M813.88,-173.25C799.65,-171.6 784.6,-169.85 770.79,-168.25"/>
<polygon fill="#63b8ff" stroke="#63b8ff" points="813.24,-176.7 823.58,-174.38 814.05,-169.75 813.24,-176.7"/>
</a>
</g>
</g>
<!-- Node16 -->
<g id="Node000016" class="node">
<title>Node16</title>
<g id="a_Node000016"><a xlink:href="namespaceWrapMPI.html#a166c6e5ac2d338a1d6f554532dd43b80" target="_top" xlink:title=" ">
<polygon fill="white" stroke="#666666" points="581.12,-203.5 476.62,-203.5 476.62,-185 581.12,-185 581.12,-203.5"/>
<text xml:space="preserve" text-anchor="middle" x="528.88" y="-190" font-family="Helvetica,sans-Serif" font-size="10.00">WrapMPI::broadcast</text>
</a>
</g>
</g>
<!-- Node1&#45;&gt;Node16 -->
<g id="edge22_Node000001_Node000016" class="edge">
<title>Node1&#45;&gt;Node16</title>
<g id="a_edge22_Node000001_Node000016"><a xlink:title=" ">
<path fill="none" stroke="#63b8ff" d="M813.74,-182.71C747.9,-185.38 643.63,-189.62 581.47,-192.15"/>
<polygon fill="#63b8ff" stroke="#63b8ff" points="813.81,-186.21 823.66,-182.3 813.52,-179.21 813.81,-186.21"/>
</a>
</g>
</g>
<!-- Node20 -->
<g id="Node000020" class="node">
<title>Node20</title>
<g id="a_Node000020"><a xlink:href="namespaceWrapMPI.html#a89ff50c459e42b25a69f4a3d45443fe3" target="_top" xlink:title="Gathers and reduces data to a single value.">
<polygon fill="white" stroke="#666666" points="779.75,-134.5 656.5,-134.5 656.5,-116 779.75,-116 779.75,-134.5"/>
<text xml:space="preserve" text-anchor="middle" x="718.12" y="-121" font-family="Helvetica,sans-Serif" font-size="10.00">WrapMPI::gather_reduce</text>
</a>
</g>
</g>
<!-- Node1&#45;&gt;Node20 -->
<g id="edge23_Node000001_Node000020" class="edge">
<title>Node1&#45;&gt;Node20</title>
<g id="a_edge23_Node000001_Node000020"><a xlink:title=" ">
<path fill="none" stroke="#63b8ff" d="M843.28,-165.91C827.42,-158.85 807.64,-150.52 789.5,-144.25 779.69,-140.86 768.95,-137.69 758.87,-134.95"/>
<polygon fill="#63b8ff" stroke="#63b8ff" points="841.64,-169.01 852.19,-169.94 844.52,-162.63 841.64,-169.01"/>
</a>
</g>
</g>
<!-- Node21 -->
<g id="Node000021" class="node">
<title>Node21</title>
<g id="a_Node000021"><a xlink:href="namespaceWrapMPI_1_1Async.html#a1c9861a120adf6ce7bd019204d20dafb" target="_top" xlink:title=" ">
<polygon fill="white" stroke="#666666" points="788,-97.5 648.25,-97.5 648.25,-79 788,-79 788,-97.5"/>
<text xml:space="preserve" text-anchor="middle" x="718.12" y="-84" font-family="Helvetica,sans-Serif" font-size="10.00">WrapMPI::Async::recv_span</text>
</a>
</g>
</g>
<!-- Node1&#45;&gt;Node21 -->
<g id="edge24_Node000001_Node000021" class="edge">
<title>Node1&#45;&gt;Node21</title>
<g id="a_edge24_Node000001_Node000021"><a xlink:title=" ">
<path fill="none" stroke="#63b8ff" d="M858,-162.33C842.12,-145.73 816.4,-121.52 789.5,-107.25 782.46,-103.51 774.62,-100.47 766.8,-97.99"/>
<polygon fill="#63b8ff" stroke="#63b8ff" points="855.35,-164.61 864.72,-169.55 860.47,-159.84 855.35,-164.61"/>
</a>
</g>
</g>
<!-- Node22 -->
<g id="Node000022" class="node">
<title>Node22</title>
<g id="a_Node000022"><a xlink:href="namespaceWrapMPI.html#a74f34d02c61dba38e414425bdf71d74c" target="_top" xlink:title="Receives data into a span buffer.">
<polygon fill="white" stroke="#666666" points="771.5,-60.5 664.75,-60.5 664.75,-42 771.5,-42 771.5,-60.5"/>
<text xml:space="preserve" text-anchor="middle" x="718.12" y="-47" font-family="Helvetica,sans-Serif" font-size="10.00">WrapMPI::recv_span</text>
</a>
</g>
</g>
<!-- Node1&#45;&gt;Node22 -->
<g id="edge25_Node000001_Node000022" class="edge">
<title>Node1&#45;&gt;Node22</title>
<g id="a_edge25_Node000001_Node000022"><a xlink:title=" ">
<path fill="none" stroke="#63b8ff" d="M864.24,-160.55C850.75,-135.72 824.24,-93.48 789.5,-70.25 783.82,-66.45 777.4,-63.41 770.82,-60.98"/>
<polygon fill="#63b8ff" stroke="#63b8ff" points="861.06,-162.03 868.8,-169.27 867.26,-158.78 861.06,-162.03"/>
</a>
</g>
</g>
<!-- Node24 -->
<g id="Node000024" class="node">
<title>Node24</title>
<g id="a_Node000024"><a xlink:href="namespaceWrapMPI.html#adfe55cebcaa7d941006e23c69a5a3bcf" target="_top" xlink:title="Receives a vector of data items from a source.">
<polygon fill="white" stroke="#666666" points="763.62,-23.5 672.62,-23.5 672.62,-5 763.62,-5 763.62,-23.5"/>
<text xml:space="preserve" text-anchor="middle" x="718.12" y="-10" font-family="Helvetica,sans-Serif" font-size="10.00">WrapMPI::recv_v</text>
</a>
</g>
</g>
<!-- Node1&#45;&gt;Node24 -->
<g id="edge27_Node000001_Node000024" class="edge">
<title>Node1&#45;&gt;Node24</title>
<g id="a_edge27_Node000001_Node000024"><a xlink:title=" ">
<path fill="none" stroke="#63b8ff" d="M868.07,-159.98C857.49,-128.08 832.54,-66.38 789.5,-33.25 782.08,-27.54 773.07,-23.54 764.01,-20.74"/>
<polygon fill="#63b8ff" stroke="#63b8ff" points="864.63,-160.7 870.98,-169.18 871.31,-158.59 864.63,-160.7"/>
</a>
</g>
</g>
<!-- Node3 -->
<g id="Node000003" class="node">
<title>Node3</title>
<g id="a_Node000003"><a xlink:href="namespaceWrapMPI.html#a02249d7a05ab6697d5c9dd3f06f681a0" target="_top" xlink:title="Broadcasts data stored in a span to all processes.">
<polygon fill="white" stroke="#666666" points="594.25,-399.5 463.5,-399.5 463.5,-381 594.25,-381 594.25,-399.5"/>
<text xml:space="preserve" text-anchor="middle" x="528.88" y="-386" font-family="Helvetica,sans-Serif" font-size="10.00">WrapMPI::broadcast_span</text>
</a>
</g>
</g>
<!-- Node2&#45;&gt;Node3 -->
<g id="edge2_Node000002_Node000003" class="edge">
<title>Node2&#45;&gt;Node3</title>
<g id="a_edge2_Node000002_Node000003"><a xlink:title=" ">
<path fill="none" stroke="#63b8ff" d="M651.67,-390.25C633.14,-390.25 612.99,-390.25 594.52,-390.25"/>
<polygon fill="#63b8ff" stroke="#63b8ff" points="651.45,-393.75 661.45,-390.25 651.45,-386.75 651.45,-393.75"/>
</a>
</g>
</g>
<!-- Node5 -->
<g id="Node000005" class="node">
<title>Node5</title>
<g id="a_Node000005"><a xlink:href="namespaceWrapMPI_1_1Async.html#a44540918e862462a382d03720d97e19a" target="_top" xlink:title=" ">
<polygon fill="white" stroke="#666666" points="610.75,-361.5 447,-361.5 447,-343 610.75,-343 610.75,-361.5"/>
<text xml:space="preserve" text-anchor="middle" x="528.88" y="-348" font-family="Helvetica,sans-Serif" font-size="10.00">WrapMPI::Async::broadcast_span</text>
</a>
</g>
</g>
<!-- Node4&#45;&gt;Node5 -->
<g id="edge4_Node000004_Node000005" class="edge">
<title>Node4&#45;&gt;Node5</title>
<g id="a_edge4_Node000004_Node000005"><a xlink:title=" ">
<path fill="none" stroke="#63b8ff" d="M634.89,-347.2C627,-347.58 619.01,-347.97 611.13,-348.34"/>
<polygon fill="#63b8ff" stroke="#63b8ff" points="635,-350.7 644.82,-346.73 634.67,-343.71 635,-350.7"/>
</a>
</g>
</g>
<!-- Node7 -->
<g id="Node000007" class="node">
<title>Node7</title>
<g id="a_Node000007"><a xlink:href="namespaceWrapMPI.html#af35b85e638478a00672758818ade9e38" target="_top" xlink:title="Gathers raw data from all processes in an unsafe manner.">
<polygon fill="white" stroke="#666666" points="593.12,-324.5 464.62,-324.5 464.62,-306 593.12,-306 593.12,-324.5"/>
<text xml:space="preserve" text-anchor="middle" x="528.88" y="-311" font-family="Helvetica,sans-Serif" font-size="10.00">WrapMPI::_gather_unsafe</text>
</a>
</g>
</g>
<!-- Node6&#45;&gt;Node7 -->
<g id="edge6_Node000006_Node000007" class="edge">
<title>Node6&#45;&gt;Node7</title>
<g id="a_edge6_Node000006_Node000007"><a xlink:title=" ">
<path fill="none" stroke="#63b8ff" d="M642.38,-303.83C626.14,-305.48 609.11,-307.21 593.35,-308.81"/>
<polygon fill="#63b8ff" stroke="#63b8ff" points="642.37,-307.35 651.96,-302.86 641.66,-300.39 642.37,-307.35"/>
</a>
</g>
</g>
<!-- Node10 -->
<g id="Node000010" class="node">
<title>Node10</title>
<g id="a_Node000010"><a xlink:href="namespaceWrapMPI.html#af7356272883f4a6063a5f393042201dd" target="_top" xlink:title=" ">
<polygon fill="white" stroke="#666666" points="586.38,-287.5 471.38,-287.5 471.38,-269 586.38,-269 586.38,-287.5"/>
<text xml:space="preserve" text-anchor="middle" x="528.88" y="-274" font-family="Helvetica,sans-Serif" font-size="10.00">WrapMPI::gather_span</text>
</a>
</g>
</g>
<!-- Node6&#45;&gt;Node10 -->
<g id="edge9_Node000006_Node000010" class="edge">
<title>Node6&#45;&gt;Node10</title>
<g id="a_edge9_Node000006_Node000010"><a xlink:title=" ">
<path fill="none" stroke="#63b8ff" d="M642.13,-289.04C623.67,-287.27 604.21,-285.4 586.76,-283.72"/>
<polygon fill="#63b8ff" stroke="#63b8ff" points="641.67,-292.51 651.96,-289.99 642.34,-285.55 641.67,-292.51"/>
</a>
</g>
</g>
<!-- Node8 -->
<g id="Node000008" class="node">
<title>Node8</title>
<g id="a_Node000008"><a xlink:href="namespaceWrapMPI.html#a5cd65b924b505503f88fae43fb8270ee" target="_top" xlink:title="Gathers data from all processes.">
<polygon fill="white" stroke="#666666" points="400.5,-342.5 311.75,-342.5 311.75,-324 400.5,-324 400.5,-342.5"/>
<text xml:space="preserve" text-anchor="middle" x="356.12" y="-329" font-family="Helvetica,sans-Serif" font-size="10.00">WrapMPI::gather</text>
</a>
</g>
</g>
<!-- Node7&#45;&gt;Node8 -->
<g id="edge7_Node000007_Node000008" class="edge">
<title>Node7&#45;&gt;Node8</title>
<g id="a_edge7_Node000007_Node000008"><a xlink:title=" ">
<path fill="none" stroke="#63b8ff" d="M453,-323.14C435.16,-325.02 416.7,-326.97 400.8,-328.65"/>
<polygon fill="#63b8ff" stroke="#63b8ff" points="453.21,-326.64 462.79,-322.11 452.48,-319.68 453.21,-326.64"/>
</a>
</g>
</g>
<!-- Node9 -->
<g id="Node000009" class="node">
<title>Node9</title>
<g id="a_Node000009"><a xlink:href="namespaceWrapMPI.html#a6c82ee24a6d0fe8ee85a173f65f39907" target="_top" xlink:title="Gathers a vector of data from all processes.">
<polygon fill="white" stroke="#666666" points="405.75,-305.5 306.5,-305.5 306.5,-287 405.75,-287 405.75,-305.5"/>
<text xml:space="preserve" text-anchor="middle" x="356.12" y="-292" font-family="Helvetica,sans-Serif" font-size="10.00">WrapMPI::gather_v</text>
</a>
</g>
</g>
<!-- Node7&#45;&gt;Node9 -->
<g id="edge8_Node000007_Node000009" class="edge">
<title>Node7&#45;&gt;Node9</title>
<g id="a_edge8_Node000007_Node000009"><a xlink:title=" ">
<path fill="none" stroke="#63b8ff" d="M452.87,-306.9C437.01,-305.14 420.67,-303.32 406.08,-301.7"/>
<polygon fill="#63b8ff" stroke="#63b8ff" points="452.46,-310.38 462.79,-308.01 453.24,-303.42 452.46,-310.38"/>
</a>
</g>
</g>
<!-- Node11&#45;&gt;Node11 -->
<g id="edge11_Node000011_Node000011" class="edge">
<title>Node11&#45;&gt;Node11</title>
<g id="a_edge11_Node000011_Node000011"><a xlink:title=" ">
<path fill="none" stroke="#63b8ff" d="M746.63,-256.19C743.76,-260.43 734.26,-263.5 718.12,-263.5 690.22,-263.5 682.15,-254.32 693.93,-245.75"/>
<polygon fill="#63b8ff" stroke="#63b8ff" points="749.95,-255.05 742.9,-247.14 743.48,-257.72 749.95,-255.05"/>
</a>
</g>
</g>
<!-- Node12 -->
<g id="Node000012" class="node">
<title>Node12</title>
<g id="a_Node000012"><a xlink:href="classCore_1_1GlobalInitialiser.html#a9b38d15538796d9cc115211890a6c081" target="_top" xlink:title="Initializes a Monte Carlo unit.">
<polygon fill="white" stroke="#666666" points="583.75,-250.75 474,-250.75 474,-221.75 583.75,-221.75 583.75,-250.75"/>
<text xml:space="preserve" text-anchor="start" x="482" y="-237.25" font-family="Helvetica,sans-Serif" font-size="10.00">Core::GlobalInitialiser</text>
<text xml:space="preserve" text-anchor="middle" x="528.88" y="-226.75" font-family="Helvetica,sans-Serif" font-size="10.00">::init_monte_carlo</text>
</a>
</g>
</g>
<!-- Node11&#45;&gt;Node12 -->
<g id="edge12_Node000011_Node000012" class="edge">
<title>Node11&#45;&gt;Node12</title>
<g id="a_edge12_Node000011_Node000012"><a xlink:title=" ">
<path fill="none" stroke="#63b8ff" d="M653.75,-236.25C631.11,-236.25 605.83,-236.25 584.04,-236.25"/>
<polygon fill="#63b8ff" stroke="#63b8ff" points="653.45,-239.75 663.45,-236.25 653.45,-232.75 653.45,-239.75"/>
</a>
</g>
</g>
<!-- Node13 -->
<g id="Node000013" class="node">
<title>Node13</title>
<g id="a_Node000013"><a xlink:href="classCore_1_1GlobalInitialiser.html#a00d0e7a7d549bf06886dfc3ba9de3e3d" target="_top" xlink:title="Initializes a simulation unit.">
<polygon fill="white" stroke="#666666" points="265.25,-230.75 155.5,-230.75 155.5,-201.75 265.25,-201.75 265.25,-230.75"/>
<text xml:space="preserve" text-anchor="start" x="163.5" y="-217.25" font-family="Helvetica,sans-Serif" font-size="10.00">Core::GlobalInitialiser</text>
<text xml:space="preserve" text-anchor="middle" x="210.38" y="-206.75" font-family="Helvetica,sans-Serif" font-size="10.00">::init_simulation</text>
</a>
</g>
</g>
<!-- Node12&#45;&gt;Node13 -->
<g id="edge13_Node000012_Node000013" class="edge">
<title>Node12&#45;&gt;Node13</title>
<g id="a_edge13_Node000012_Node000013"><a xlink:title=" ">
<path fill="none" stroke="#63b8ff" d="M462.56,-232.12C404.4,-228.45 320.3,-223.13 265.73,-219.68"/>
<polygon fill="#63b8ff" stroke="#63b8ff" points="462.11,-235.6 472.32,-232.74 462.56,-228.62 462.11,-235.6"/>
</a>
</g>
</g>
<!-- Node13&#45;&gt;Node13 -->
<g id="edge15_Node000013_Node000013" class="edge">
<title>Node13&#45;&gt;Node13</title>
<g id="a_edge15_Node000013_Node000013"><a xlink:title=" ">
<path fill="none" stroke="#63b8ff" d="M235.11,-242.31C231.23,-246.16 222.98,-248.75 210.38,-248.75 187.32,-248.75 178.85,-240.07 184.98,-230.96"/>
<polygon fill="#63b8ff" stroke="#63b8ff" points="238.6,-242.65 235.69,-232.47 231.61,-242.25 238.6,-242.65"/>
</a>
</g>
</g>
<!-- Node14 -->
<g id="Node000014" class="node">
<title>Node14</title>
<g id="a_Node000014"><a xlink:href="structApi_1_1SimulationInstance.html#ae9bdd54076170f50eadcb7966d64c19d" target="_top" xlink:title="Apply the simulation configuration and prepare for execution.">
<polygon fill="white" stroke="#666666" points="119.5,-201.75 0,-201.75 0,-172.75 119.5,-172.75 119.5,-201.75"/>
<text xml:space="preserve" text-anchor="start" x="8" y="-188.25" font-family="Helvetica,sans-Serif" font-size="10.00">Api::SimulationInstance</text>
<text xml:space="preserve" text-anchor="middle" x="59.75" y="-177.75" font-family="Helvetica,sans-Serif" font-size="10.00">::apply</text>
</a>
</g>
</g>
<!-- Node13&#45;&gt;Node14 -->
<g id="edge14_Node000013_Node000014" class="edge">
<title>Node13&#45;&gt;Node14</title>
<g id="a_edge14_Node000013_Node000014"><a xlink:title=" ">
<path fill="none" stroke="#63b8ff" d="M144.04,-203.5C135.97,-201.93 127.77,-200.33 119.81,-198.77"/>
<polygon fill="#63b8ff" stroke="#63b8ff" points="143.33,-206.93 153.81,-205.41 144.67,-200.06 143.33,-206.93"/>
</a>
</g>
</g>
<!-- Node15&#45;&gt;Node16 -->
<g id="edge17_Node000015_Node000016" class="edge">
<title>Node15&#45;&gt;Node16</title>
<g id="a_edge17_Node000015_Node000016"><a xlink:title=" ">
<path fill="none" stroke="#63b8ff" d="M654.11,-173.02C630.45,-177.06 603.86,-181.61 581.37,-185.45"/>
<polygon fill="#63b8ff" stroke="#63b8ff" points="654.7,-176.47 663.97,-171.33 653.52,-169.57 654.7,-176.47"/>
</a>
</g>
</g>
<!-- Node17 -->
<g id="Node000017" class="node">
<title>Node17</title>
<g id="a_Node000017"><a xlink:href="classCore_1_1GlobalInitialiser.html#aa042e8d396a5287c49fb6a8b81eba209" target="_top" xlink:title="Performs MPI broadcast for synchronization.">
<polygon fill="white" stroke="#666666" points="583.75,-166.75 474,-166.75 474,-137.75 583.75,-137.75 583.75,-166.75"/>
<text xml:space="preserve" text-anchor="start" x="482" y="-153.25" font-family="Helvetica,sans-Serif" font-size="10.00">Core::GlobalInitialiser</text>
<text xml:space="preserve" text-anchor="middle" x="528.88" y="-142.75" font-family="Helvetica,sans-Serif" font-size="10.00">::mpi_broadcast</text>
</a>
</g>
</g>
<!-- Node15&#45;&gt;Node17 -->
<g id="edge18_Node000015_Node000017" class="edge">
<title>Node15&#45;&gt;Node17</title>
<g id="a_edge18_Node000015_Node000017"><a xlink:title=" ">
<path fill="none" stroke="#63b8ff" d="M654.19,-158.89C631.42,-157.67 605.93,-156.31 583.98,-155.14"/>
<polygon fill="#63b8ff" stroke="#63b8ff" points="653.78,-162.37 663.95,-159.41 654.15,-155.38 653.78,-162.37"/>
</a>
</g>
</g>
<!-- Node18 -->
<g id="Node000018" class="node">
<title>Node18</title>
<g id="a_Node000018"><a xlink:href="classCore_1_1GlobalInitialiser.html#a97eff5566ced6ba6449eb532f0babadc" target="_top" xlink:title="Initializes a flow iterator.">
<polygon fill="white" stroke="#666666" points="411,-169.75 301.25,-169.75 301.25,-140.75 411,-140.75 411,-169.75"/>
<text xml:space="preserve" text-anchor="start" x="309.25" y="-156.25" font-family="Helvetica,sans-Serif" font-size="10.00">Core::GlobalInitialiser</text>
<text xml:space="preserve" text-anchor="middle" x="356.12" y="-145.75" font-family="Helvetica,sans-Serif" font-size="10.00">::init_state</text>
</a>
</g>
</g>
<!-- Node17&#45;&gt;Node18 -->
<g id="edge19_Node000017_Node000018" class="edge">
<title>Node17&#45;&gt;Node18</title>
<g id="a_edge19_Node000017_Node000018"><a xlink:title=" ">
<path fill="none" stroke="#63b8ff" d="M462.39,-153.4C445.54,-153.7 427.6,-154.01 411.39,-154.3"/>
<polygon fill="#63b8ff" stroke="#63b8ff" points="462.4,-156.9 472.34,-153.23 462.28,-149.9 462.4,-156.9"/>
</a>
</g>
</g>
<!-- Node19 -->
<g id="Node000019" class="node">
<title>Node19</title>
<g id="a_Node000019"><a xlink:href="classCore_1_1GlobalInitialiser.html#a0dc2da93c4202706b5f37453f355145c" target="_top" xlink:title="Initializes a transitioner with the provided flow iterator.">
<polygon fill="white" stroke="#666666" points="265.25,-178.75 155.5,-178.75 155.5,-149.75 265.25,-149.75 265.25,-178.75"/>
<text xml:space="preserve" text-anchor="start" x="163.5" y="-165.25" font-family="Helvetica,sans-Serif" font-size="10.00">Core::GlobalInitialiser</text>
<text xml:space="preserve" text-anchor="middle" x="210.38" y="-154.75" font-family="Helvetica,sans-Serif" font-size="10.00">::init_transitionner</text>
</a>
</g>
</g>
<!-- Node18&#45;&gt;Node19 -->
<g id="edge20_Node000018_Node000019" class="edge">
<title>Node18&#45;&gt;Node19</title>
<g id="a_edge20_Node000018_Node000019"><a xlink:title=" ">
<path fill="none" stroke="#63b8ff" d="M289.47,-159.36C281.39,-159.87 273.2,-160.38 265.32,-160.87"/>
<polygon fill="#63b8ff" stroke="#63b8ff" points="289.51,-162.87 299.27,-158.75 289.07,-155.88 289.51,-162.87"/>
</a>
</g>
</g>
<!-- Node19&#45;&gt;Node14 -->
<g id="edge21_Node000019_Node000014" class="edge">
<title>Node19&#45;&gt;Node14</title>
<g id="a_edge21_Node000019_Node000014"><a xlink:title=" ">
<path fill="none" stroke="#63b8ff" d="M144.04,-174.36C135.97,-175.61 127.77,-176.88 119.81,-178.11"/>
<polygon fill="#63b8ff" stroke="#63b8ff" points="144.45,-177.84 153.8,-172.85 143.38,-170.92 144.45,-177.84"/>
</a>
</g>
</g>
<!-- Node23 -->
<g id="Node000023" class="node">
<title>Node23</title>
<g id="a_Node000023"><a xlink:href="classWrapMPI_1_1IterationPayload.html#a136036d66a6c16c18d4115905448380f" target="_top" xlink:title="Receives data for this payload from a specified source.">
<polygon fill="white" stroke="#666666" points="595,-65.75 462.75,-65.75 462.75,-36.75 595,-36.75 595,-65.75"/>
<text xml:space="preserve" text-anchor="start" x="470.75" y="-52.25" font-family="Helvetica,sans-Serif" font-size="10.00">WrapMPI::IterationPayload</text>
<text xml:space="preserve" text-anchor="middle" x="528.88" y="-41.75" font-family="Helvetica,sans-Serif" font-size="10.00">::recv</text>
</a>
</g>
</g>
<!-- Node22&#45;&gt;Node23 -->
<g id="edge26_Node000022_Node000023" class="edge">
<title>Node22&#45;&gt;Node23</title>
<g id="a_edge26_Node000022_Node000023"><a xlink:title=" ">
<path fill="none" stroke="#63b8ff" d="M653.14,-51.25C634.53,-51.25 614.19,-51.25 595.48,-51.25"/>
<polygon fill="#63b8ff" stroke="#63b8ff" points="652.95,-54.75 662.95,-51.25 652.95,-47.75 652.95,-54.75"/>
</a>
</g>
</g>
<!-- Node24&#45;&gt;Node23 -->
<g id="edge28_Node000024_Node000023" class="edge">
<title>Node24&#45;&gt;Node23</title>
<g id="a_edge28_Node000024_Node000023"><a xlink:title=" ">
<path fill="none" stroke="#63b8ff" d="M661.1,-25.32C640.39,-29.41 616.74,-34.09 595.27,-38.33"/>
<polygon fill="#63b8ff" stroke="#63b8ff" points="661.66,-28.78 670.79,-23.41 660.3,-21.91 661.66,-28.78"/>
</a>
</g>
</g>
<!-- Node25 -->
<g id="Node000025" class="node">
<title>Node25</title>
<g id="a_Node000025"><a xlink:href="namespaceWrapMPI.html#a0dd428096701cba57a4230514acaf0b1" target="_top" xlink:title="Attempts to receive a vector of data items from a source.">
<polygon fill="white" stroke="#666666" points="583,-18.5 474.75,-18.5 474.75,0 583,0 583,-18.5"/>
<text xml:space="preserve" text-anchor="middle" x="528.88" y="-5" font-family="Helvetica,sans-Serif" font-size="10.00">WrapMPI::try_recv_v</text>
</a>
</g>
</g>
<!-- Node24&#45;&gt;Node25 -->
<g id="edge29_Node000024_Node000025" class="edge">
<title>Node24&#45;&gt;Node25</title>
<g id="a_edge29_Node000024_Node000025"><a xlink:title=" ">
<path fill="none" stroke="#63b8ff" d="M660.93,-12.75C636.34,-12.09 607.63,-11.33 583.35,-10.68"/>
<polygon fill="#63b8ff" stroke="#63b8ff" points="660.67,-16.24 670.76,-13.01 660.86,-9.25 660.67,-16.24"/>
</a>
</g>
</g>
</g>
</svg>
