<?xml version="1.0" encoding="UTF-8" standalone="no"?>
<!DOCTYPE svg PUBLIC "-//W3C//DTD SVG 1.1//EN"
 "http://www.w3.org/Graphics/SVG/1.1/DTD/svg11.dtd">
<!-- Generated by graphviz version 14.0.1 (0)
 -->
<!-- Title: WrapMPI::get_type Pages: 1 -->
<svg width="985pt" height="501pt"
 viewBox="0.00 0.00 985.00 501.00" xmlns="http://www.w3.org/2000/svg" xmlns:xlink="http://www.w3.org/1999/xlink">
<g id="graph0" class="graph" transform="scale(1 1) rotate(0) translate(4 496.5)">
<title>WrapMPI::get_type</title>
<!-- Node1 -->
<g id="Node000001" class="node">
<title>Node1</title>
<g id="a_Node000001"><a xlink:title=" ">
<polygon fill="#999999" stroke="#666666" points="977.25,-208.5 878,-208.5 878,-190 977.25,-190 977.25,-208.5"/>
<text xml:space="preserve" text-anchor="middle" x="927.62" y="-195" font-family="Helvetica,sans-Serif" font-size="10.00">WrapMPI::get_type</text>
</a>
</g>
</g>
<!-- Node2 -->
<g id="Node000002" class="node">
<title>Node2</title>
<g id="a_Node000002"><a xlink:href="namespaceWrapMPI.html#aa70b62df6aa5755b0c794d24afa1cfdf" target="_top" xlink:title="Broadcasts raw data to all processes in an unsafe manner.">
<polygon fill="white" stroke="#666666" points="827,-483.75 717.25,-483.75 717.25,-454.75 827,-454.75 827,-483.75"/>
<text xml:space="preserve" text-anchor="start" x="725.25" y="-470.25" font-family="Helvetica,sans-Serif" font-size="10.00">WrapMPI::_broadcast</text>
<text xml:space="preserve" text-anchor="middle" x="772.12" y="-459.75" font-family="Helvetica,sans-Serif" font-size="10.00">_unsafe</text>
</a>
</g>
</g>
<!-- Node1&#45;&gt;Node2 -->
<g id="edge1_Node000001_Node000002" class="edge">
<title>Node1&#45;&gt;Node2</title>
<g id="a_edge1_Node000001_Node000002"><a xlink:title=" ">
<path fill="none" stroke="#63b8ff" d="M924.18,-220.26C918.02,-264.61 898.14,-369 842,-433.25 834.37,-441.99 824.09,-448.92 813.8,-454.27"/>
<polygon fill="#63b8ff" stroke="#63b8ff" points="927.64,-220.84 925.43,-210.47 920.69,-219.95 927.64,-220.84"/>
</a>
</g>
</g>
<!-- Node4 -->
<g id="Node000004" class="node">
<title>Node4</title>
<g id="a_Node000004"><a xlink:href="namespaceWrapMPI.html#abbfbd4027c90508fdf9fb2e8ec46958a" target="_top" xlink:title=" ">
<polygon fill="white" stroke="#666666" points="836.38,-423.75 707.88,-423.75 707.88,-394.75 836.38,-394.75 836.38,-423.75"/>
<text xml:space="preserve" text-anchor="start" x="715.88" y="-410.25" font-family="Helvetica,sans-Serif" font-size="10.00">WrapMPI::_gather_unsafe</text>
<text xml:space="preserve" text-anchor="middle" x="772.12" y="-399.75" font-family="Helvetica,sans-Serif" font-size="10.00">_to_buffer</text>
</a>
</g>
</g>
<!-- Node1&#45;&gt;Node4 -->
<g id="edge3_Node000001_Node000004" class="edge">
<title>Node1&#45;&gt;Node4</title>
<g id="a_edge3_Node000001_Node000004"><a xlink:title=" ">
<path fill="none" stroke="#63b8ff" d="M918.97,-219.45C906.34,-251.03 878.82,-312.95 842,-356.25 829.2,-371.31 811.46,-384.83 797.19,-394.45"/>
<polygon fill="#63b8ff" stroke="#63b8ff" points="922.15,-220.94 922.52,-210.35 915.63,-218.39 922.15,-220.94"/>
</a>
</g>
</g>
<!-- Node9 -->
<g id="Node000009" class="node">
<title>Node9</title>
<g id="a_Node000009"><a xlink:href="namespaceWrapMPI.html#afbb56a1725c132d2e3f12bfb01634d55" target="_top" xlink:title="Sends raw data to a destination in an unsafe manner.">
<polygon fill="white" stroke="#666666" points="833.38,-347.5 710.88,-347.5 710.88,-329 833.38,-329 833.38,-347.5"/>
<text xml:space="preserve" text-anchor="middle" x="772.12" y="-334" font-family="Helvetica,sans-Serif" font-size="10.00">WrapMPI::_send_unsafe</text>
</a>
</g>
</g>
<!-- Node1&#45;&gt;Node9 -->
<g id="edge8_Node000001_Node000009" class="edge">
<title>Node1&#45;&gt;Node9</title>
<g id="a_edge8_Node000001_Node000009"><a xlink:title=" ">
<path fill="none" stroke="#63b8ff" d="M918.19,-219.02C905.62,-246.07 879.37,-294.24 842,-320.25 837.13,-323.64 831.67,-326.39 826,-328.62"/>
<polygon fill="#63b8ff" stroke="#63b8ff" points="921.24,-220.78 922.12,-210.22 914.85,-217.93 921.24,-220.78"/>
</a>
</g>
</g>
<!-- Node13 -->
<g id="Node000013" class="node">
<title>Node13</title>
<g id="a_Node000013"><a xlink:href="namespaceWrapMPI_1_1Async.html#a59ad59e497d926c7bdc45585bd715410" target="_top" xlink:title=" ">
<polygon fill="white" stroke="#666666" points="832.62,-310.75 711.62,-310.75 711.62,-281.75 832.62,-281.75 832.62,-310.75"/>
<text xml:space="preserve" text-anchor="start" x="719.62" y="-297.25" font-family="Helvetica,sans-Serif" font-size="10.00">WrapMPI::Async::_send</text>
<text xml:space="preserve" text-anchor="middle" x="772.12" y="-286.75" font-family="Helvetica,sans-Serif" font-size="10.00">_unsafe</text>
</a>
</g>
</g>
<!-- Node1&#45;&gt;Node13 -->
<g id="edge13_Node000001_Node000013" class="edge">
<title>Node1&#45;&gt;Node13</title>
<g id="a_edge13_Node000001_Node000013"><a xlink:title=" ">
<path fill="none" stroke="#63b8ff" d="M910.26,-216.74C894.21,-233.03 868.37,-257.03 842,-272.25 836.08,-275.67 829.59,-278.71 823.04,-281.39"/>
<polygon fill="#63b8ff" stroke="#63b8ff" points="912.65,-219.31 917.06,-209.68 907.61,-214.46 912.65,-219.31"/>
</a>
</g>
</g>
<!-- Node17 -->
<g id="Node000017" class="node">
<title>Node17</title>
<g id="a_Node000017"><a xlink:href="namespaceWrapMPI.html#a8237adbb04708d9bf4bae9e904d04f5f" target="_top" xlink:title=" ">
<polygon fill="white" stroke="#666666" points="825.12,-245.5 719.12,-245.5 719.12,-227 825.12,-227 825.12,-245.5"/>
<text xml:space="preserve" text-anchor="middle" x="772.12" y="-232" font-family="Helvetica,sans-Serif" font-size="10.00">WrapMPI::all_reduce</text>
</a>
</g>
</g>
<!-- Node1&#45;&gt;Node17 -->
<g id="edge18_Node000001_Node000017" class="edge">
<title>Node1&#45;&gt;Node17</title>
<g id="a_edge18_Node000001_Node000017"><a xlink:title=" ">
<path fill="none" stroke="#63b8ff" d="M875.12,-211.66C855.02,-216.51 832.33,-221.98 813.45,-226.53"/>
<polygon fill="#63b8ff" stroke="#63b8ff" points="875.92,-215.07 884.82,-209.33 874.28,-208.27 875.92,-215.07"/>
</a>
</g>
</g>
<!-- Node21 -->
<g id="Node000021" class="node">
<title>Node21</title>
<g id="a_Node000021"><a xlink:href="namespaceWrapMPI.html#a372df5351a2085df252cc9f4cceae7de" target="_top" xlink:title="Broadcasts a single data item to all processes.">
<polygon fill="white" stroke="#666666" points="824.38,-171.5 719.88,-171.5 719.88,-153 824.38,-153 824.38,-171.5"/>
<text xml:space="preserve" text-anchor="middle" x="772.12" y="-158" font-family="Helvetica,sans-Serif" font-size="10.00">WrapMPI::broadcast</text>
</a>
</g>
</g>
<!-- Node1&#45;&gt;Node21 -->
<g id="edge24_Node000001_Node000021" class="edge">
<title>Node1&#45;&gt;Node21</title>
<g id="a_edge24_Node000001_Node000021"><a xlink:title=" ">
<path fill="none" stroke="#63b8ff" d="M875.12,-186.84C855.02,-181.99 832.33,-176.52 813.45,-171.97"/>
<polygon fill="#63b8ff" stroke="#63b8ff" points="874.28,-190.23 884.82,-189.17 875.92,-183.43 874.28,-190.23"/>
</a>
</g>
</g>
<!-- Node22 -->
<g id="Node000022" class="node">
<title>Node22</title>
<g id="a_Node000022"><a xlink:href="namespaceWrapMPI.html#a166c6e5ac2d338a1d6f554532dd43b80" target="_top" xlink:title=" ">
<polygon fill="white" stroke="#666666" points="652.38,-185.5 547.88,-185.5 547.88,-167 652.38,-167 652.38,-185.5"/>
<text xml:space="preserve" text-anchor="middle" x="600.12" y="-172" font-family="Helvetica,sans-Serif" font-size="10.00">WrapMPI::broadcast</text>
</a>
</g>
</g>
<!-- Node1&#45;&gt;Node22 -->
<g id="edge30_Node000001_Node000022" class="edge">
<title>Node1&#45;&gt;Node22</title>
<g id="a_edge30_Node000001_Node000022"><a xlink:title=" ">
<path fill="none" stroke="#63b8ff" d="M866.1,-194.97C804.72,-190.64 710.74,-184 652.76,-179.9"/>
<polygon fill="#63b8ff" stroke="#63b8ff" points="865.81,-198.46 876.03,-195.68 866.3,-191.48 865.81,-198.46"/>
</a>
</g>
</g>
<!-- Node26 -->
<g id="Node000026" class="node">
<title>Node26</title>
<g id="a_Node000026"><a xlink:href="namespaceWrapMPI.html#a89ff50c459e42b25a69f4a3d45443fe3" target="_top" xlink:title="Gathers and reduces data to a single value.">
<polygon fill="white" stroke="#666666" points="833.75,-134.5 710.5,-134.5 710.5,-116 833.75,-116 833.75,-134.5"/>
<text xml:space="preserve" text-anchor="middle" x="772.12" y="-121" font-family="Helvetica,sans-Serif" font-size="10.00">WrapMPI::gather_reduce</text>
</a>
</g>
</g>
<!-- Node1&#45;&gt;Node26 -->
<g id="edge31_Node000001_Node000026" class="edge">
<title>Node1&#45;&gt;Node26</title>
<g id="a_edge31_Node000001_Node000026"><a xlink:title=" ">
<path fill="none" stroke="#63b8ff" d="M905.63,-182.98C889.12,-170.85 865.11,-154.65 842,-144.25 833.86,-140.59 824.84,-137.48 816.1,-134.91"/>
<polygon fill="#63b8ff" stroke="#63b8ff" points="903.11,-185.47 913.21,-188.67 907.31,-179.87 903.11,-185.47"/>
</a>
</g>
</g>
<!-- Node27 -->
<g id="Node000027" class="node">
<title>Node27</title>
<g id="a_Node000027"><a xlink:href="namespaceWrapMPI_1_1Async.html#a1c9861a120adf6ce7bd019204d20dafb" target="_top" xlink:title=" ">
<polygon fill="white" stroke="#666666" points="842,-97.5 702.25,-97.5 702.25,-79 842,-79 842,-97.5"/>
<text xml:space="preserve" text-anchor="middle" x="772.12" y="-84" font-family="Helvetica,sans-Serif" font-size="10.00">WrapMPI::Async::recv_span</text>
</a>
</g>
</g>
<!-- Node1&#45;&gt;Node27 -->
<g id="edge32_Node000001_Node000027" class="edge">
<title>Node1&#45;&gt;Node27</title>
<g id="a_edge32_Node000001_Node000027"><a xlink:title=" ">
<path fill="none" stroke="#63b8ff" d="M913.99,-180.08C899.19,-159.12 872.74,-126.02 842,-107.25 835.75,-103.44 828.73,-100.37 821.61,-97.91"/>
<polygon fill="#63b8ff" stroke="#63b8ff" points="911.07,-182.01 919.61,-188.29 916.85,-178.06 911.07,-182.01"/>
</a>
</g>
</g>
<!-- Node28 -->
<g id="Node000028" class="node">
<title>Node28</title>
<g id="a_Node000028"><a xlink:href="namespaceWrapMPI.html#a74f34d02c61dba38e414425bdf71d74c" target="_top" xlink:title="Receives data into a span buffer.">
<polygon fill="white" stroke="#666666" points="825.5,-60.5 718.75,-60.5 718.75,-42 825.5,-42 825.5,-60.5"/>
<text xml:space="preserve" text-anchor="middle" x="772.12" y="-47" font-family="Helvetica,sans-Serif" font-size="10.00">WrapMPI::recv_span</text>
</a>
</g>
</g>
<!-- Node1&#45;&gt;Node28 -->
<g id="edge33_Node000001_Node000028" class="edge">
<title>Node1&#45;&gt;Node28</title>
<g id="a_edge33_Node000001_Node000028"><a xlink:title=" ">
<path fill="none" stroke="#63b8ff" d="M919.02,-179.48C907.02,-150.99 881,-98.67 842,-70.25 836.79,-66.45 830.85,-63.41 824.7,-60.98"/>
<polygon fill="#63b8ff" stroke="#63b8ff" points="915.62,-180.41 922.6,-188.38 922.11,-177.79 915.62,-180.41"/>
</a>
</g>
</g>
<!-- Node30 -->
<g id="Node000030" class="node">
<title>Node30</title>
<g id="a_Node000030"><a xlink:href="namespaceWrapMPI.html#adfe55cebcaa7d941006e23c69a5a3bcf" target="_top" xlink:title="Receives a vector of data items from a source.">
<polygon fill="white" stroke="#666666" points="817.62,-23.5 726.62,-23.5 726.62,-5 817.62,-5 817.62,-23.5"/>
<text xml:space="preserve" text-anchor="middle" x="772.12" y="-10" font-family="Helvetica,sans-Serif" font-size="10.00">WrapMPI::recv_v</text>
</a>
</g>
</g>
<!-- Node1&#45;&gt;Node30 -->
<g id="edge35_Node000001_Node000030" class="edge">
<title>Node1&#45;&gt;Node30</title>
<g id="a_edge35_Node000001_Node000030"><a xlink:title=" ">
<path fill="none" stroke="#63b8ff" d="M921.97,-178.89C912.86,-143.76 889.31,-71.84 842,-33.25 835.08,-27.6 826.6,-23.63 817.99,-20.84"/>
<polygon fill="#63b8ff" stroke="#63b8ff" points="918.47,-179.31 924.24,-188.19 925.27,-177.65 918.47,-179.31"/>
</a>
</g>
</g>
<!-- Node3 -->
<g id="Node000003" class="node">
<title>Node3</title>
<g id="a_Node000003"><a xlink:href="namespaceWrapMPI.html#a02249d7a05ab6697d5c9dd3f06f681a0" target="_top" xlink:title="Broadcasts data stored in a span to all processes.">
<polygon fill="white" stroke="#666666" points="665.5,-492.5 534.75,-492.5 534.75,-474 665.5,-474 665.5,-492.5"/>
<text xml:space="preserve" text-anchor="middle" x="600.12" y="-479" font-family="Helvetica,sans-Serif" font-size="10.00">WrapMPI::broadcast_span</text>
</a>
</g>
</g>
<!-- Node2&#45;&gt;Node3 -->
<g id="edge2_Node000002_Node000003" class="edge">
<title>Node2&#45;&gt;Node3</title>
<g id="a_edge2_Node000002_Node000003"><a xlink:title=" ">
<path fill="none" stroke="#63b8ff" d="M705.61,-474.65C692.56,-475.72 678.87,-476.85 665.86,-477.92"/>
<polygon fill="#63b8ff" stroke="#63b8ff" points="705.68,-478.15 715.36,-473.84 705.11,-471.18 705.68,-478.15"/>
</a>
</g>
</g>
<!-- Node5 -->
<g id="Node000005" class="node">
<title>Node5</title>
<g id="a_Node000005"><a xlink:href="namespaceWrapMPI.html#af35b85e638478a00672758818ade9e38" target="_top" xlink:title="Gathers raw data from all processes in an unsafe manner.">
<polygon fill="white" stroke="#666666" points="664.38,-455.5 535.88,-455.5 535.88,-437 664.38,-437 664.38,-455.5"/>
<text xml:space="preserve" text-anchor="middle" x="600.12" y="-442" font-family="Helvetica,sans-Serif" font-size="10.00">WrapMPI::_gather_unsafe</text>
</a>
</g>
</g>
<!-- Node4&#45;&gt;Node5 -->
<g id="edge4_Node000004_Node000005" class="edge">
<title>Node4&#45;&gt;Node5</title>
<g id="a_edge4_Node000004_Node000005"><a xlink:title=" ">
<path fill="none" stroke="#63b8ff" d="M696.58,-425.47C679.31,-429.23 661.44,-433.12 645.91,-436.5"/>
<polygon fill="#63b8ff" stroke="#63b8ff" points="697.32,-428.9 706.34,-423.35 695.83,-422.06 697.32,-428.9"/>
</a>
</g>
</g>
<!-- Node8 -->
<g id="Node000008" class="node">
<title>Node8</title>
<g id="a_Node000008"><a xlink:href="namespaceWrapMPI.html#af7356272883f4a6063a5f393042201dd" target="_top" xlink:title=" ">
<polygon fill="white" stroke="#666666" points="657.62,-418.5 542.62,-418.5 542.62,-400 657.62,-400 657.62,-418.5"/>
<text xml:space="preserve" text-anchor="middle" x="600.12" y="-405" font-family="Helvetica,sans-Serif" font-size="10.00">WrapMPI::gather_span</text>
</a>
</g>
</g>
<!-- Node4&#45;&gt;Node8 -->
<g id="edge7_Node000004_Node000008" class="edge">
<title>Node4&#45;&gt;Node8</title>
<g id="a_edge7_Node000004_Node000008"><a xlink:title=" ">
<path fill="none" stroke="#63b8ff" d="M696.58,-409.25C683.65,-409.25 670.39,-409.25 658.03,-409.25"/>
<polygon fill="#63b8ff" stroke="#63b8ff" points="696.31,-412.75 706.31,-409.25 696.31,-405.75 696.31,-412.75"/>
</a>
</g>
</g>
<!-- Node6 -->
<g id="Node000006" class="node">
<title>Node6</title>
<g id="a_Node000006"><a xlink:href="namespaceWrapMPI.html#a5cd65b924b505503f88fae43fb8270ee" target="_top" xlink:title="Gathers data from all processes.">
<polygon fill="white" stroke="#666666" points="465.75,-473.5 377,-473.5 377,-455 465.75,-455 465.75,-473.5"/>
<text xml:space="preserve" text-anchor="middle" x="421.38" y="-460" font-family="Helvetica,sans-Serif" font-size="10.00">WrapMPI::gather</text>
</a>
</g>
</g>
<!-- Node5&#45;&gt;Node6 -->
<g id="edge5_Node000005_Node000006" class="edge">
<title>Node5&#45;&gt;Node6</title>
<g id="a_edge5_Node000005_Node000006"><a xlink:title=" ">
<path fill="none" stroke="#63b8ff" d="M524.56,-453.84C504.66,-455.87 483.8,-457.99 466.16,-459.79"/>
<polygon fill="#63b8ff" stroke="#63b8ff" points="524.71,-457.35 534.31,-452.85 524,-450.38 524.71,-457.35"/>
</a>
</g>
</g>
<!-- Node7 -->
<g id="Node000007" class="node">
<title>Node7</title>
<g id="a_Node000007"><a xlink:href="namespaceWrapMPI.html#a6c82ee24a6d0fe8ee85a173f65f39907" target="_top" xlink:title="Gathers a vector of data from all processes.">
<polygon fill="white" stroke="#666666" points="471,-436.5 371.75,-436.5 371.75,-418 471,-418 471,-436.5"/>
<text xml:space="preserve" text-anchor="middle" x="421.38" y="-423" font-family="Helvetica,sans-Serif" font-size="10.00">WrapMPI::gather_v</text>
</a>
</g>
</g>
<!-- Node5&#45;&gt;Node7 -->
<g id="edge6_Node000005_Node000007" class="edge">
<title>Node5&#45;&gt;Node7</title>
<g id="a_edge6_Node000005_Node000007"><a xlink:title=" ">
<path fill="none" stroke="#63b8ff" d="M524.47,-438.22C506.53,-436.3 487.82,-434.28 471.38,-432.52"/>
<polygon fill="#63b8ff" stroke="#63b8ff" points="523.99,-441.69 534.31,-439.28 524.74,-434.73 523.99,-441.69"/>
</a>
</g>
</g>
<!-- Node10 -->
<g id="Node000010" class="node">
<title>Node10</title>
<g id="a_Node000010"><a xlink:href="namespaceWrapMPI.html#a86bfb7bf3cbf18f5f0371c497167cfad" target="_top" xlink:title="Sends a single instance of data to a destination.">
<polygon fill="white" stroke="#666666" points="641.5,-344.5 558.75,-344.5 558.75,-326 641.5,-326 641.5,-344.5"/>
<text xml:space="preserve" text-anchor="middle" x="600.12" y="-331" font-family="Helvetica,sans-Serif" font-size="10.00">WrapMPI::send</text>
</a>
</g>
</g>
<!-- Node9&#45;&gt;Node10 -->
<g id="edge9_Node000009_Node000010" class="edge">
<title>Node9&#45;&gt;Node10</title>
<g id="a_edge9_Node000009_Node000010"><a xlink:title=" ">
<path fill="none" stroke="#63b8ff" d="M699.31,-336.98C679.7,-336.64 659.13,-336.27 641.91,-335.97"/>
<polygon fill="#63b8ff" stroke="#63b8ff" points="699.14,-340.48 709.2,-337.16 699.26,-333.48 699.14,-340.48"/>
</a>
</g>
</g>
<!-- Node11 -->
<g id="Node000011" class="node">
<title>Node11</title>
<g id="a_Node000011"><a xlink:href="namespaceWrapMPI.html#a22a26e394ab9485f5b50a6be7d277940" target="_top" xlink:title="Sends a vector of data to a destination.">
<polygon fill="white" stroke="#666666" points="468,-381.5 374.75,-381.5 374.75,-363 468,-363 468,-381.5"/>
<text xml:space="preserve" text-anchor="middle" x="421.38" y="-368" font-family="Helvetica,sans-Serif" font-size="10.00">WrapMPI::send_v</text>
</a>
</g>
</g>
<!-- Node9&#45;&gt;Node11 -->
<g id="edge12_Node000009_Node000011" class="edge">
<title>Node9&#45;&gt;Node11</title>
<g id="a_edge12_Node000009_Node000011"><a xlink:title=" ">
<path fill="none" stroke="#63b8ff" d="M699.14,-349.17C688.14,-350.66 676.9,-352.07 666.25,-353.25 597.45,-360.84 517.39,-366.47 468.3,-369.56"/>
<polygon fill="#63b8ff" stroke="#63b8ff" points="699.56,-352.64 708.98,-347.81 698.6,-345.71 699.56,-352.64"/>
</a>
</g>
</g>
<!-- Node10&#45;&gt;Node11 -->
<g id="edge10_Node000010_Node000011" class="edge">
<title>Node10&#45;&gt;Node11</title>
<g id="a_edge10_Node000010_Node000011"><a xlink:title=" ">
<path fill="none" stroke="#63b8ff" d="M547.44,-346.07C522.4,-351.31 492.59,-357.55 468.35,-362.63"/>
<polygon fill="#63b8ff" stroke="#63b8ff" points="548.02,-349.52 557.09,-344.05 546.59,-342.67 548.02,-349.52"/>
</a>
</g>
</g>
<!-- Node12 -->
<g id="Node000012" class="node">
<title>Node12</title>
<g id="a_Node000012"><a xlink:href="classWrapMPI_1_1HostIterationPayload.html#aeab0cc5f0ddfccc7fc3584a873072882" target="_top" xlink:title=" ">
<polygon fill="white" stroke="#666666" points="498,-344.75 344.75,-344.75 344.75,-315.75 498,-315.75 498,-344.75"/>
<text xml:space="preserve" text-anchor="start" x="352.75" y="-331.25" font-family="Helvetica,sans-Serif" font-size="10.00">WrapMPI::HostIterationPayload</text>
<text xml:space="preserve" text-anchor="middle" x="421.38" y="-320.75" font-family="Helvetica,sans-Serif" font-size="10.00">::sendAll</text>
</a>
</g>
</g>
<!-- Node10&#45;&gt;Node12 -->
<g id="edge11_Node000010_Node000012" class="edge">
<title>Node10&#45;&gt;Node12</title>
<g id="a_edge11_Node000010_Node000012"><a xlink:title=" ">
<path fill="none" stroke="#63b8ff" d="M547.22,-333.78C531.86,-333.35 514.72,-332.86 498.18,-332.39"/>
<polygon fill="#63b8ff" stroke="#63b8ff" points="546.97,-337.28 557.06,-334.06 547.17,-330.28 546.97,-337.28"/>
</a>
</g>
</g>
<!-- Node14 -->
<g id="Node000014" class="node">
<title>Node14</title>
<g id="a_Node000014"><a xlink:href="namespaceWrapMPI_1_1Async.html#aea9ea25d4513c086000ad935de0c2a63" target="_top" xlink:title=" ">
<polygon fill="white" stroke="#666666" points="658,-307.5 542.25,-307.5 542.25,-289 658,-289 658,-307.5"/>
<text xml:space="preserve" text-anchor="middle" x="600.12" y="-294" font-family="Helvetica,sans-Serif" font-size="10.00">WrapMPI::Async::send</text>
</a>
</g>
</g>
<!-- Node13&#45;&gt;Node14 -->
<g id="edge14_Node000013_Node000014" class="edge">
<title>Node13&#45;&gt;Node14</title>
<g id="a_edge14_Node000013_Node000014"><a xlink:title=" ">
<path fill="none" stroke="#63b8ff" d="M699.71,-297.09C685.88,-297.25 671.54,-297.42 658.24,-297.58"/>
<polygon fill="#63b8ff" stroke="#63b8ff" points="699.72,-300.59 709.68,-296.97 699.64,-293.59 699.72,-300.59"/>
</a>
</g>
</g>
<!-- Node15 -->
<g id="Node000015" class="node">
<title>Node15</title>
<g id="a_Node000015"><a xlink:href="namespaceWrapMPI_1_1Async.html#a14ced5fc699f316ee5512f66052ec8ad" target="_top" xlink:title=" ">
<polygon fill="white" stroke="#666666" points="484.5,-282.5 358.25,-282.5 358.25,-264 484.5,-264 484.5,-282.5"/>
<text xml:space="preserve" text-anchor="middle" x="421.38" y="-269" font-family="Helvetica,sans-Serif" font-size="10.00">WrapMPI::Async::send_v</text>
</a>
</g>
</g>
<!-- Node13&#45;&gt;Node15 -->
<g id="edge17_Node000013_Node000015" class="edge">
<title>Node13&#45;&gt;Node15</title>
<g id="a_edge17_Node000013_Node000015"><a xlink:title=" ">
<path fill="none" stroke="#63b8ff" d="M700.19,-284.22C688.86,-282.65 677.26,-281.24 666.25,-280.25 604.77,-274.7 534.24,-273.2 484.9,-272.94"/>
<polygon fill="#63b8ff" stroke="#63b8ff" points="699.49,-287.66 709.88,-285.62 700.49,-280.73 699.49,-287.66"/>
</a>
</g>
</g>
<!-- Node14&#45;&gt;Node15 -->
<g id="edge15_Node000014_Node000015" class="edge">
<title>Node14&#45;&gt;Node15</title>
<g id="a_edge15_Node000014_Node000015"><a xlink:title=" ">
<path fill="none" stroke="#63b8ff" d="M530.87,-288.6C515.77,-286.46 499.84,-284.21 484.98,-282.11"/>
<polygon fill="#63b8ff" stroke="#63b8ff" points="530.34,-292.06 540.73,-289.99 531.32,-285.12 530.34,-292.06"/>
</a>
</g>
</g>
<!-- Node16 -->
<g id="Node000016" class="node">
<title>Node16</title>
<g id="a_Node000016"><a xlink:href="classWrapMPI_1_1HostIterationPayload.html#a360c9268019c8ce8573f0abfe974414f" target="_top" xlink:title="Sends this payload to a specified MPI rank.">
<polygon fill="white" stroke="#666666" points="308.75,-287.75 155.5,-287.75 155.5,-258.75 308.75,-258.75 308.75,-287.75"/>
<text xml:space="preserve" text-anchor="start" x="163.5" y="-274.25" font-family="Helvetica,sans-Serif" font-size="10.00">WrapMPI::HostIterationPayload</text>
<text xml:space="preserve" text-anchor="middle" x="232.12" y="-263.75" font-family="Helvetica,sans-Serif" font-size="10.00">::send</text>
</a>
</g>
</g>
<!-- Node15&#45;&gt;Node16 -->
<g id="edge16_Node000015_Node000016" class="edge">
<title>Node15&#45;&gt;Node16</title>
<g id="a_edge16_Node000015_Node000016"><a xlink:title=" ">
<path fill="none" stroke="#63b8ff" d="M346.59,-273.25C334.24,-273.25 321.41,-273.25 309.01,-273.25"/>
<polygon fill="#63b8ff" stroke="#63b8ff" points="346.25,-276.75 356.25,-273.25 346.25,-269.75 346.25,-276.75"/>
</a>
</g>
</g>
<!-- Node17&#45;&gt;Node17 -->
<g id="edge19_Node000017_Node000017" class="edge">
<title>Node17&#45;&gt;Node17</title>
<g id="a_edge19_Node000017_Node000017"><a xlink:title=" ">
<path fill="none" stroke="#63b8ff" d="M800.11,-256.53C797,-260.59 787.67,-263.5 772.12,-263.5 744.49,-263.5 736.5,-254.32 748.16,-245.75"/>
<polygon fill="#63b8ff" stroke="#63b8ff" points="803.39,-255.31 796.62,-247.16 796.84,-257.76 803.39,-255.31"/>
</a>
</g>
</g>
<!-- Node18 -->
<g id="Node000018" class="node">
<title>Node18</title>
<g id="a_Node000018"><a xlink:href="classCore_1_1GlobalInitialiser.html#a9b38d15538796d9cc115211890a6c081" target="_top" xlink:title="Initializes a Monte Carlo unit.">
<polygon fill="white" stroke="#666666" points="655,-232.75 545.25,-232.75 545.25,-203.75 655,-203.75 655,-232.75"/>
<text xml:space="preserve" text-anchor="start" x="553.25" y="-219.25" font-family="Helvetica,sans-Serif" font-size="10.00">Core::GlobalInitialiser</text>
<text xml:space="preserve" text-anchor="middle" x="600.12" y="-208.75" font-family="Helvetica,sans-Serif" font-size="10.00">::init_monte_carlo</text>
</a>
</g>
</g>
<!-- Node17&#45;&gt;Node18 -->
<g id="edge20_Node000017_Node000018" class="edge">
<title>Node17&#45;&gt;Node18</title>
<g id="a_edge20_Node000017_Node000018"><a xlink:title=" ">
<path fill="none" stroke="#63b8ff" d="M707.65,-229.53C690.47,-227.71 672.03,-225.76 655.4,-224"/>
<polygon fill="#63b8ff" stroke="#63b8ff" points="706.91,-232.97 717.23,-230.54 707.65,-226.01 706.91,-232.97"/>
</a>
</g>
</g>
<!-- Node19 -->
<g id="Node000019" class="node">
<title>Node19</title>
<g id="a_Node000019"><a xlink:href="classCore_1_1GlobalInitialiser.html#a00d0e7a7d549bf06886dfc3ba9de3e3d" target="_top" xlink:title="Initializes a simulation unit.">
<polygon fill="white" stroke="#666666" points="287,-220.75 177.25,-220.75 177.25,-191.75 287,-191.75 287,-220.75"/>
<text xml:space="preserve" text-anchor="start" x="185.25" y="-207.25" font-family="Helvetica,sans-Serif" font-size="10.00">Core::GlobalInitialiser</text>
<text xml:space="preserve" text-anchor="middle" x="232.12" y="-196.75" font-family="Helvetica,sans-Serif" font-size="10.00">::init_simulation</text>
</a>
</g>
</g>
<!-- Node18&#45;&gt;Node19 -->
<g id="edge21_Node000018_Node000019" class="edge">
<title>Node18&#45;&gt;Node19</title>
<g id="a_edge21_Node000018_Node000019"><a xlink:title=" ">
<path fill="none" stroke="#63b8ff" d="M533.77,-216.11C463.48,-213.8 353,-210.18 287.35,-208.03"/>
<polygon fill="#63b8ff" stroke="#63b8ff" points="533.5,-219.6 543.61,-216.43 533.73,-212.6 533.5,-219.6"/>
</a>
</g>
</g>
<!-- Node19&#45;&gt;Node19 -->
<g id="edge23_Node000019_Node000019" class="edge">
<title>Node19&#45;&gt;Node19</title>
<g id="a_edge23_Node000019_Node000019"><a xlink:title=" ">
<path fill="none" stroke="#63b8ff" d="M261.38,-232.31C256.79,-236.16 247.04,-238.75 232.12,-238.75 204.85,-238.75 194.84,-230.07 202.09,-220.96"/>
<polygon fill="#63b8ff" stroke="#63b8ff" points="264.86,-232.68 262.06,-222.47 257.88,-232.2 264.86,-232.68"/>
</a>
</g>
</g>
<!-- Node20 -->
<g id="Node000020" class="node">
<title>Node20</title>
<g id="a_Node000020"><a xlink:href="structApi_1_1SimulationInstance.html#ae9bdd54076170f50eadcb7966d64c19d" target="_top" xlink:title="Apply the simulation configuration and prepare for execution.">
<polygon fill="white" stroke="#666666" points="119.5,-192.75 0,-192.75 0,-163.75 119.5,-163.75 119.5,-192.75"/>
<text xml:space="preserve" text-anchor="start" x="8" y="-179.25" font-family="Helvetica,sans-Serif" font-size="10.00">Api::SimulationInstance</text>
<text xml:space="preserve" text-anchor="middle" x="59.75" y="-168.75" font-family="Helvetica,sans-Serif" font-size="10.00">::apply</text>
</a>
</g>
</g>
<!-- Node19&#45;&gt;Node20 -->
<g id="edge22_Node000019_Node000020" class="edge">
<title>Node19&#45;&gt;Node20</title>
<g id="a_edge22_Node000019_Node000020"><a xlink:title=" ">
<path fill="none" stroke="#63b8ff" d="M165.87,-195.53C150.75,-193.04 134.76,-190.41 119.92,-187.97"/>
<polygon fill="#63b8ff" stroke="#63b8ff" points="165.29,-198.98 175.72,-197.15 166.42,-192.07 165.29,-198.98"/>
</a>
</g>
</g>
<!-- Node21&#45;&gt;Node22 -->
<g id="edge25_Node000021_Node000022" class="edge">
<title>Node21&#45;&gt;Node22</title>
<g id="a_edge25_Node000021_Node000022"><a xlink:title=" ">
<path fill="none" stroke="#63b8ff" d="M708.2,-167.43C689.93,-168.94 670.2,-170.56 652.71,-172"/>
<polygon fill="#63b8ff" stroke="#63b8ff" points="708.47,-170.92 718.15,-166.61 707.9,-163.95 708.47,-170.92"/>
</a>
</g>
</g>
<!-- Node23 -->
<g id="Node000023" class="node">
<title>Node23</title>
<g id="a_Node000023"><a xlink:href="classCore_1_1GlobalInitialiser.html#aa042e8d396a5287c49fb6a8b81eba209" target="_top" xlink:title="Performs MPI broadcast for synchronization.">
<polygon fill="white" stroke="#666666" points="655,-148.75 545.25,-148.75 545.25,-119.75 655,-119.75 655,-148.75"/>
<text xml:space="preserve" text-anchor="start" x="553.25" y="-135.25" font-family="Helvetica,sans-Serif" font-size="10.00">Core::GlobalInitialiser</text>
<text xml:space="preserve" text-anchor="middle" x="600.12" y="-124.75" font-family="Helvetica,sans-Serif" font-size="10.00">::mpi_broadcast</text>
</a>
</g>
</g>
<!-- Node21&#45;&gt;Node23 -->
<g id="edge26_Node000021_Node000023" class="edge">
<title>Node21&#45;&gt;Node23</title>
<g id="a_edge26_Node000021_Node000023"><a xlink:title=" ">
<path fill="none" stroke="#63b8ff" d="M708.44,-151.93C691.02,-149.06 672.26,-145.97 655.37,-143.18"/>
<polygon fill="#63b8ff" stroke="#63b8ff" points="707.73,-155.36 718.16,-153.53 708.87,-148.45 707.73,-155.36"/>
</a>
</g>
</g>
<!-- Node24 -->
<g id="Node000024" class="node">
<title>Node24</title>
<g id="a_Node000024"><a xlink:href="classCore_1_1GlobalInitialiser.html#a212a55abe2b9cb558932ba82e4cf6dbf" target="_top" xlink:title="Initializes the simulation state.">
<polygon fill="white" stroke="#666666" points="476.25,-162.75 366.5,-162.75 366.5,-133.75 476.25,-133.75 476.25,-162.75"/>
<text xml:space="preserve" text-anchor="start" x="374.5" y="-149.25" font-family="Helvetica,sans-Serif" font-size="10.00">Core::GlobalInitialiser</text>
<text xml:space="preserve" text-anchor="middle" x="421.38" y="-138.75" font-family="Helvetica,sans-Serif" font-size="10.00">::init_state</text>
</a>
</g>
</g>
<!-- Node23&#45;&gt;Node24 -->
<g id="edge27_Node000023_Node000024" class="edge">
<title>Node23&#45;&gt;Node24</title>
<g id="a_edge27_Node000023_Node000024"><a xlink:title=" ">
<path fill="none" stroke="#63b8ff" d="M533.67,-139.43C514.91,-140.92 494.66,-142.52 476.64,-143.95"/>
<polygon fill="#63b8ff" stroke="#63b8ff" points="533.93,-142.92 543.62,-138.65 533.38,-135.95 533.93,-142.92"/>
</a>
</g>
</g>
<!-- Node25 -->
<g id="Node000025" class="node">
<title>Node25</title>
<g id="a_Node000025"><a xlink:href="classCore_1_1GlobalInitialiser.html#a4fa32007b34a9e448be11ebd7d5e695f" target="_top" xlink:title="Initializes a transitioner with the provided flow iterator.">
<polygon fill="white" stroke="#666666" points="287,-169.75 177.25,-169.75 177.25,-140.75 287,-140.75 287,-169.75"/>
<text xml:space="preserve" text-anchor="start" x="185.25" y="-156.25" font-family="Helvetica,sans-Serif" font-size="10.00">Core::GlobalInitialiser</text>
<text xml:space="preserve" text-anchor="middle" x="232.12" y="-145.75" font-family="Helvetica,sans-Serif" font-size="10.00">::init_transitionner</text>
</a>
</g>
</g>
<!-- Node24&#45;&gt;Node25 -->
<g id="edge28_Node000024_Node000025" class="edge">
<title>Node24&#45;&gt;Node25</title>
<g id="a_edge28_Node000024_Node000025"><a xlink:title=" ">
<path fill="none" stroke="#63b8ff" d="M354.93,-150.7C332.9,-151.52 308.57,-152.43 287.49,-153.22"/>
<polygon fill="#63b8ff" stroke="#63b8ff" points="354.84,-154.2 364.7,-150.33 354.58,-147.21 354.84,-154.2"/>
</a>
</g>
</g>
<!-- Node25&#45;&gt;Node20 -->
<g id="edge29_Node000025_Node000020" class="edge">
<title>Node25&#45;&gt;Node20</title>
<g id="a_edge29_Node000025_Node000020"><a xlink:title=" ">
<path fill="none" stroke="#63b8ff" d="M165.87,-164.06C150.75,-166.1 134.76,-168.26 119.92,-170.26"/>
<polygon fill="#63b8ff" stroke="#63b8ff" points="166.28,-167.54 175.72,-162.73 165.34,-160.6 166.28,-167.54"/>
</a>
</g>
</g>
<!-- Node29 -->
<g id="Node000029" class="node">
<title>Node29</title>
<g id="a_Node000029"><a xlink:href="classWrapMPI_1_1IterationPayload.html#a136036d66a6c16c18d4115905448380f" target="_top" xlink:title="Receives data for this payload from a specified source.">
<polygon fill="white" stroke="#666666" points="666.25,-65.75 534,-65.75 534,-36.75 666.25,-36.75 666.25,-65.75"/>
<text xml:space="preserve" text-anchor="start" x="542" y="-52.25" font-family="Helvetica,sans-Serif" font-size="10.00">WrapMPI::IterationPayload</text>
<text xml:space="preserve" text-anchor="middle" x="600.12" y="-41.75" font-family="Helvetica,sans-Serif" font-size="10.00">::recv</text>
</a>
</g>
</g>
<!-- Node28&#45;&gt;Node29 -->
<g id="edge34_Node000028_Node000029" class="edge">
<title>Node28&#45;&gt;Node29</title>
<g id="a_edge34_Node000028_Node000029"><a xlink:title=" ">
<path fill="none" stroke="#63b8ff" d="M706.89,-51.25C693.69,-51.25 679.77,-51.25 666.53,-51.25"/>
<polygon fill="#63b8ff" stroke="#63b8ff" points="706.75,-54.75 716.75,-51.25 706.75,-47.75 706.75,-54.75"/>
</a>
</g>
</g>
<!-- Node30&#45;&gt;Node29 -->
<g id="edge36_Node000030_Node000029" class="edge">
<title>Node30&#45;&gt;Node29</title>
<g id="a_edge36_Node000030_Node000029"><a xlink:title=" ">
<path fill="none" stroke="#63b8ff" d="M715.4,-26.38C699.8,-29.77 682.71,-33.49 666.6,-37"/>
<polygon fill="#63b8ff" stroke="#63b8ff" points="715.95,-29.84 724.98,-24.29 714.46,-23 715.95,-29.84"/>
</a>
</g>
</g>
<!-- Node31 -->
<g id="Node000031" class="node">
<title>Node31</title>
<g id="a_Node000031"><a xlink:href="namespaceWrapMPI.html#a0dd428096701cba57a4230514acaf0b1" target="_top" xlink:title="Attempts to receive a vector of data items from a source.">
<polygon fill="white" stroke="#666666" points="654.25,-18.5 546,-18.5 546,0 654.25,0 654.25,-18.5"/>
<text xml:space="preserve" text-anchor="middle" x="600.12" y="-5" font-family="Helvetica,sans-Serif" font-size="10.00">WrapMPI::try_recv_v</text>
</a>
</g>
</g>
<!-- Node30&#45;&gt;Node31 -->
<g id="edge37_Node000030_Node000031" class="edge">
<title>Node30&#45;&gt;Node31</title>
<g id="a_edge37_Node000030_Node000031"><a xlink:title=" ">
<path fill="none" stroke="#63b8ff" d="M715,-12.6C695.54,-12.03 673.8,-11.39 654.56,-10.82"/>
<polygon fill="#63b8ff" stroke="#63b8ff" points="714.85,-16.1 724.95,-12.89 715.05,-9.1 714.85,-16.1"/>
</a>
</g>
</g>
</g>
</svg>
