<?xml version="1.0" encoding="UTF-8" standalone="no"?>
<!DOCTYPE svg PUBLIC "-//W3C//DTD SVG 1.1//EN"
 "http://www.w3.org/Graphics/SVG/1.1/DTD/svg11.dtd">
<!-- Generated by graphviz version 14.0.1 (0)
 -->
<!-- Title: CmaUtils::get_transitioner Pages: 1 -->
<svg width="439pt" height="37pt"
 viewBox="0.00 0.00 439.00 37.00" xmlns="http://www.w3.org/2000/svg" xmlns:xlink="http://www.w3.org/1999/xlink">
<g id="graph0" class="graph" transform="scale(1 1) rotate(0) translate(4 33)">
<title>CmaUtils::get_transitioner</title>
<!-- Node1 -->
<g id="Node000001" class="node">
<title>Node1</title>
<g id="a_Node000001"><a xlink:title="Transition factory according to the given method.">
<polygon fill="#999999" stroke="#666666" points="431.25,-23.75 301.25,-23.75 301.25,-5.25 431.25,-5.25 431.25,-23.75"/>
<text xml:space="preserve" text-anchor="middle" x="366.25" y="-10.25" font-family="Helvetica,sans-Serif" font-size="10.00">CmaUtils::get_transitioner</text>
</a>
</g>
</g>
<!-- Node2 -->
<g id="Node000002" class="node">
<title>Node2</title>
<g id="a_Node000002"><a xlink:href="classCore_1_1GlobalInitialiser.html#a4fa32007b34a9e448be11ebd7d5e695f" target="_top" xlink:title="Initializes a transitioner with the provided flow iterator.">
<polygon fill="white" stroke="#666666" points="265.25,-29 155.5,-29 155.5,0 265.25,0 265.25,-29"/>
<text xml:space="preserve" text-anchor="start" x="163.5" y="-15.5" font-family="Helvetica,sans-Serif" font-size="10.00">Core::GlobalInitialiser</text>
<text xml:space="preserve" text-anchor="middle" x="210.38" y="-5" font-family="Helvetica,sans-Serif" font-size="10.00">::init_transitionner</text>
</a>
</g>
</g>
<!-- Node1&#45;&gt;Node2 -->
<g id="edge1_Node000001_Node000002" class="edge">
<title>Node1&#45;&gt;Node2</title>
<g id="a_edge1_Node000001_Node000002"><a xlink:title=" ">
<path fill="none" stroke="#63b8ff" d="M289.56,-14.5C281.52,-14.5 273.46,-14.5 265.73,-14.5"/>
<polygon fill="#63b8ff" stroke="#63b8ff" points="289.37,-18 299.37,-14.5 289.37,-11 289.37,-18"/>
</a>
</g>
</g>
<!-- Node3 -->
<g id="Node000003" class="node">
<title>Node3</title>
<g id="a_Node000003"><a xlink:href="structApi_1_1SimulationInstance.html#ae9bdd54076170f50eadcb7966d64c19d" target="_top" xlink:title="Apply the simulation configuration and prepare for execution.">
<polygon fill="white" stroke="#666666" points="119.5,-29 0,-29 0,0 119.5,0 119.5,-29"/>
<text xml:space="preserve" text-anchor="start" x="8" y="-15.5" font-family="Helvetica,sans-Serif" font-size="10.00">Api::SimulationInstance</text>
<text xml:space="preserve" text-anchor="middle" x="59.75" y="-5" font-family="Helvetica,sans-Serif" font-size="10.00">::apply</text>
</a>
</g>
</g>
<!-- Node2&#45;&gt;Node3 -->
<g id="edge2_Node000002_Node000003" class="edge">
<title>Node2&#45;&gt;Node3</title>
<g id="a_edge2_Node000002_Node000003"><a xlink:title=" ">
<path fill="none" stroke="#63b8ff" d="M144.04,-14.5C135.97,-14.5 127.77,-14.5 119.81,-14.5"/>
<polygon fill="#63b8ff" stroke="#63b8ff" points="143.78,-18 153.78,-14.5 143.78,-11 143.78,-18"/>
</a>
</g>
</g>
</g>
</svg>
