<?xml version="1.0" encoding="UTF-8" standalone="no"?>
<!DOCTYPE svg PUBLIC "-//W3C//DTD SVG 1.1//EN"
 "http://www.w3.org/Graphics/SVG/1.1/DTD/svg11.dtd">
<!-- Generated by graphviz version 14.0.1 (0)
 -->
<!-- Title: WrapMPI::barrier Pages: 1 -->
<!--zoomable 112 -->

<svg id="main" version="1.1" xmlns="http://www.w3.org/2000/svg" xmlns:xlink="http://www.w3.org/1999/xlink" xml:space="preserve" onload="init(evt)">

<style type="text/css"><![CDATA[
.node, .edge {opacity: 0.7;}
.node.selected, .edge.selected {opacity: 1;}
.edge:hover path { stroke: red; }
.edge:hover polygon { stroke: red; fill: red; }
]]></style>

<defs>
  <circle id="rim" cx="0" cy="0" r="7"/>
  <circle id="rim2" cx="0" cy="0" r="3.5"/>
  <g id="zoomPlus">
    <use xlink:href="#rim" fill="#404040"><set attributeName="fill" to="#808080" begin="zoomplus.mouseover" end="zoomplus.mouseout"/></use>
    <path d="M-4,0h8M0,-4v8" fill="none" stroke="white" stroke-width="1.5" pointer-events="none"/>
  </g>
  <g id="zoomMin">
    <use xlink:href="#rim" fill="#404040"><set attributeName="fill" to="#808080" begin="zoomminus.mouseover" end="zoomminus.mouseout"/></use>
    <path d="M-4,0h8" fill="none" stroke="white" stroke-width="1.5" pointer-events="none"/>
  </g>
  <g id="arrowUp" transform="translate(30 24)">
    <use xlink:href="#rim"/>
    <path pointer-events="none" fill="none" stroke="white" stroke-width="1.5" d="M0,-3.0v7 M-2.5,-0.5L0,-3.0L2.5,-0.5"/>
  </g>
  <g id="arrowRight" transform="rotate(90) translate(36 -43)">
    <use xlink:href="#rim"/>
    <path pointer-events="none" fill="none" stroke="white" stroke-width="1.5" d="M0,-3.0v7 M-2.5,-0.5L0,-3.0L2.5,-0.5"/>
  </g>
  <g id="arrowDown" transform="rotate(180) translate(-30 -48)">
    <use xlink:href="#rim"/>
    <path pointer-events="none" fill="none" stroke="white" stroke-width="1.5" d="M0,-3.0v7 M-2.5,-0.5L0,-3.0L2.5,-0.5"/>
  </g>
  <g id="arrowLeft" transform="rotate(270) translate(-36 17)">
    <use xlink:href="#rim"/>
    <path pointer-events="none" fill="none" stroke="white" stroke-width="1.5" d="M0,-3.0v7 M-2.5,-0.5L0,-3.0L2.5,-0.5"/>
  </g>
  <g id="resetDef">
    <use xlink:href="#rim2" fill="#404040"><set attributeName="fill" to="#808080" begin="reset.mouseover" end="reset.mouseout"/></use>
  </g>
</defs>
<script type="application/ecmascript">
var viewWidth = 544;
var viewHeight = 112;
var sectionId = 'dynsection-9';
</script>
<script type="application/ecmascript" xlink:href="svg.min.js"/>
<svg id="graph" class="graph">
<g id="viewport">
<title>WrapMPI::barrier</title>
<!-- Node1 -->
<g id="Node000001" class="node">
<title>Node1</title>
<g id="a_Node000001"><a xlink:title=" ">
<polygon fill="#999999" stroke="#666666" points="535.75,-66.75 447,-66.75 447,-48.25 535.75,-48.25 535.75,-66.75"/>
<text xml:space="preserve" text-anchor="middle" x="491.38" y="-53.25" font-family="Helvetica,sans-Serif" font-size="10.00">WrapMPI::barrier</text>
</a>
</g>
</g>
<!-- Node2 -->
<g id="Node000002" class="node">
<title>Node2</title>
<g id="a_Node000002"><a xlink:href="namespaceWrapMPI.html#aadc3308a0cd9aa92fb555a4eb2f26c97" target="_top" xlink:title=" ">
<polygon fill="white" stroke="#666666" points="402,-103.75 310.25,-103.75 310.25,-85.25 402,-85.25 402,-103.75"/>
<text xml:space="preserve" text-anchor="middle" x="356.12" y="-90.25" font-family="Helvetica,sans-Serif" font-size="10.00">WrapMPI::finalize</text>
</a>
</g>
</g>
<!-- Node1&#45;&gt;Node2 -->
<g id="edge1_Node000001_Node000002" class="edge">
<title>Node1&#45;&gt;Node2</title>
<g id="a_edge1_Node000001_Node000002"><a xlink:title=" ">
<path fill="none" stroke="#63b8ff" d="M444.4,-70.27C427.19,-75.04 407.94,-80.39 391.9,-84.84"/>
<polygon fill="#63b8ff" stroke="#63b8ff" points="445.21,-73.67 453.91,-67.63 443.33,-66.93 445.21,-73.67"/>
</a>
</g>
</g>
<!-- Node3 -->
<g id="Node000003" class="node">
<title>Node3</title>
<g id="a_Node000003"><a xlink:href="namespaceCore.html#ae86a8a5e09a74787e58f4fc476788413" target="_top" xlink:title="Initializes the runtime environment based on command&#45;line arguments and simulation parameters.">
<polygon fill="white" stroke="#666666" points="257,-86.75 163.75,-86.75 163.75,-68.25 257,-68.25 257,-86.75"/>
<text xml:space="preserve" text-anchor="middle" x="210.38" y="-73.25" font-family="Helvetica,sans-Serif" font-size="10.00">Core::runtime_init</text>
</a>
</g>
</g>
<!-- Node1&#45;&gt;Node3 -->
<g id="edge7_Node000001_Node000003" class="edge">
<title>Node1&#45;&gt;Node3</title>
<g id="a_edge7_Node000001_Node000003"><a xlink:title=" ">
<path fill="none" stroke="#63b8ff" d="M435.44,-61.44C383.45,-65.16 306.3,-70.7 257.45,-74.2"/>
<polygon fill="#63b8ff" stroke="#63b8ff" points="435.55,-64.94 445.27,-60.73 435.05,-57.96 435.55,-64.94"/>
</a>
</g>
</g>
<!-- Node5 -->
<g id="Node000005" class="node">
<title>Node5</title>
<g id="a_Node000005"><a xlink:href="classCore_1_1GlobalInitialiser.html#aa042e8d396a5287c49fb6a8b81eba209" target="_top" xlink:title="Performs MPI broadcast for synchronization.">
<polygon fill="white" stroke="#666666" points="411,-29 301.25,-29 301.25,0 411,0 411,-29"/>
<text xml:space="preserve" text-anchor="start" x="309.25" y="-15.5" font-family="Helvetica,sans-Serif" font-size="10.00">Core::GlobalInitialiser</text>
<text xml:space="preserve" text-anchor="middle" x="356.12" y="-5" font-family="Helvetica,sans-Serif" font-size="10.00">::mpi_broadcast</text>
</a>
</g>
</g>
<!-- Node1&#45;&gt;Node5 -->
<g id="edge4_Node000001_Node000005" class="edge">
<title>Node1&#45;&gt;Node5</title>
<g id="a_edge4_Node000001_Node000005"><a xlink:title=" ">
<path fill="none" stroke="#63b8ff" d="M449.73,-44.38C435.1,-39.66 418.49,-34.3 403.41,-29.44"/>
<polygon fill="#63b8ff" stroke="#63b8ff" points="448.44,-47.64 459.03,-47.39 450.59,-40.98 448.44,-47.64"/>
</a>
</g>
</g>
<!-- Node2&#45;&gt;Node3 -->
<g id="edge2_Node000002_Node000003" class="edge">
<title>Node2&#45;&gt;Node3</title>
<g id="a_edge2_Node000002_Node000003"><a xlink:title=" ">
<path fill="none" stroke="#63b8ff" d="M298.73,-87.83C285,-86.21 270.47,-84.49 257.29,-82.93"/>
<polygon fill="#63b8ff" stroke="#63b8ff" points="298.19,-91.29 308.53,-88.99 299.01,-84.34 298.19,-91.29"/>
</a>
</g>
</g>
<!-- Node4 -->
<g id="Node000004" class="node">
<title>Node4</title>
<g id="a_Node000004"><a xlink:href="structApi_1_1SimulationInstance.html#aaba14d53cd780130378421e0bf990663" target="_top" xlink:title="simulation instance constructor">
<polygon fill="white" stroke="#666666" points="119.5,-92 0,-92 0,-63 119.5,-63 119.5,-92"/>
<text xml:space="preserve" text-anchor="start" x="8" y="-78.5" font-family="Helvetica,sans-Serif" font-size="10.00">Api::SimulationInstance</text>
<text xml:space="preserve" text-anchor="middle" x="59.75" y="-68" font-family="Helvetica,sans-Serif" font-size="10.00">::SimulationInstance</text>
</a>
</g>
</g>
<!-- Node3&#45;&gt;Node4 -->
<g id="edge3_Node000003_Node000004" class="edge">
<title>Node3&#45;&gt;Node4</title>
<g id="a_edge3_Node000003_Node000004"><a xlink:title=" ">
<path fill="none" stroke="#63b8ff" d="M152.28,-77.5C141.65,-77.5 130.52,-77.5 119.83,-77.5"/>
<polygon fill="#63b8ff" stroke="#63b8ff" points="152.06,-81 162.06,-77.5 152.06,-74 152.06,-81"/>
</a>
</g>
</g>
<!-- Node6 -->
<g id="Node000006" class="node">
<title>Node6</title>
<g id="a_Node000006"><a xlink:href="classCore_1_1GlobalInitialiser.html#a97eff5566ced6ba6449eb532f0babadc" target="_top" xlink:title="Initializes a flow iterator.">
<polygon fill="white" stroke="#666666" points="265.25,-29 155.5,-29 155.5,0 265.25,0 265.25,-29"/>
<text xml:space="preserve" text-anchor="start" x="163.5" y="-15.5" font-family="Helvetica,sans-Serif" font-size="10.00">Core::GlobalInitialiser</text>
<text xml:space="preserve" text-anchor="middle" x="210.38" y="-5" font-family="Helvetica,sans-Serif" font-size="10.00">::init_state</text>
</a>
</g>
</g>
<!-- Node5&#45;&gt;Node6 -->
<g id="edge5_Node000005_Node000006" class="edge">
<title>Node5&#45;&gt;Node6</title>
<g id="a_edge5_Node000005_Node000006"><a xlink:title=" ">
<path fill="none" stroke="#63b8ff" d="M289.47,-14.5C281.39,-14.5 273.2,-14.5 265.32,-14.5"/>
<polygon fill="#63b8ff" stroke="#63b8ff" points="289.27,-18 299.27,-14.5 289.27,-11 289.27,-18"/>
</a>
</g>
</g>
<!-- Node7 -->
<g id="Node000007" class="node">
<title>Node7</title>
<g id="a_Node000007"><a xlink:href="classCore_1_1GlobalInitialiser.html#a0dc2da93c4202706b5f37453f355145c" target="_top" xlink:title="Initializes a transitioner with the provided flow iterator.">
<polygon fill="white" stroke="#666666" points="114.62,-29 4.88,-29 4.88,0 114.62,0 114.62,-29"/>
<text xml:space="preserve" text-anchor="start" x="12.88" y="-15.5" font-family="Helvetica,sans-Serif" font-size="10.00">Core::GlobalInitialiser</text>
<text xml:space="preserve" text-anchor="middle" x="59.75" y="-5" font-family="Helvetica,sans-Serif" font-size="10.00">::init_transitionner</text>
</a>
</g>
</g>
<!-- Node6&#45;&gt;Node7 -->
<g id="edge6_Node000006_Node000007" class="edge">
<title>Node6&#45;&gt;Node7</title>
<g id="a_edge6_Node000006_Node000007"><a xlink:title=" ">
<path fill="none" stroke="#63b8ff" d="M144.06,-14.5C134.37,-14.5 124.47,-14.5 115.04,-14.5"/>
<polygon fill="#63b8ff" stroke="#63b8ff" points="143.78,-18 153.78,-14.5 143.78,-11 143.78,-18"/>
</a>
</g>
</g>
</g>
</svg>

<g id="navigator" transform="translate(0 0)" fill="#404254">
  <rect fill="#f2f5e9" fill-opacity="0.5" stroke="#606060" stroke-width=".5" x="0" y="0" width="60" height="60"/>
  <use id="zoomplus" xlink:href="#zoomPlus" x="17" y="9" onmousedown="handleZoom(evt,'in')"/>
  <use id="zoomminus" xlink:href="#zoomMin" x="42" y="9" onmousedown="handleZoom(evt,'out')"/>
  <use id="reset" xlink:href="#resetDef" x="30" y="36" onmousedown="handleReset()"/>
   <use id="arrowup" xlink:href="#arrowUp" x="0" y="0" onmousedown="handlePan(0,-1)"/>
  <use id="arrowright" xlink:href="#arrowRight" x="0" y="0" onmousedown="handlePan(1,0)"/>
  <use id="arrowdown" xlink:href="#arrowDown" x="0" y="0" onmousedown="handlePan(0,1)"/>
  <use id="arrowleft" xlink:href="#arrowLeft" x="0" y="0" onmousedown="handlePan(-1,0)"/>
</g>
<svg viewBox="0 0 15 15" width="100%" height="30px" preserveAspectRatio="xMaxYMin meet">
 <g id="arrow_out" transform="scale(0.3 0.3)">
  <a xlink:href="namespaceWrapMPI_a1a08bbe69602ac2f4f38e1a0d45275cb_icgraph_org.svg" target="_base">
   <rect id="button" ry="5" rx="5" y="6" x="6" height="38" width="38"
        fill="#f2f5e9" fill-opacity="0.5" stroke="#606060" stroke-width="1.0"/>
   <path id="arrow"
     d="M 11.500037,31.436501 C 11.940474,20.09759 22.043105,11.32322 32.158766,21.979434 L 37.068811,17.246167 C 37.068811,17.246167 37.088388,32 37.088388,32 L 22.160133,31.978069 C 22.160133,31.978069 26.997745,27.140456 26.997745,27.140456 C 18.528582,18.264221 13.291696,25.230495 11.500037,31.436501 z"
     style="fill:#404040;"/>
  </a>
 </g>
</svg>

<style type='text/css'>
<![CDATA[
[data-mouse-over-selected='false'] { opacity: 0.7; }
[data-mouse-over-selected='true']  { opacity: 1.0; }
]]>
</style>
<script type="application/ecmascript"><![CDATA[
document.addEventListener('DOMContentLoaded', (event) => {
  highlightEdges();
  highlightAdjacentNodes();
});
]]></script>
</svg>
