<?xml version="1.0" encoding="UTF-8" standalone="no"?>
<!DOCTYPE svg PUBLIC "-//W3C//DTD SVG 1.1//EN"
 "http://www.w3.org/Graphics/SVG/1.1/DTD/svg11.dtd">
<!-- Generated by graphviz version 12.1.2 (0)
 -->
<!-- Title: MC::Distributions::erfinv Pages: 1 -->
<svg width="746pt" height="226pt"
 viewBox="0.00 0.00 745.75 225.50" xmlns="http://www.w3.org/2000/svg" xmlns:xlink="http://www.w3.org/1999/xlink">
<g id="graph0" class="graph" transform="scale(1 1) rotate(0) translate(4 221.5)">
<title>MC::Distributions::erfinv</title>
<!-- Node1 -->
<g id="Node000001" class="node">
<title>Node1</title>
<g id="a_Node000001"><a xlink:title="Computes an approximation of the inverse error function.">
<polygon fill="#999999" stroke="#666666" points="737.75,-143.75 639.25,-143.75 639.25,-114.75 737.75,-114.75 737.75,-143.75"/>
<text text-anchor="start" x="647.25" y="-130.25" font-family="Helvetica,sans-Serif" font-size="10.00">MC::Distributions::</text>
<text text-anchor="middle" x="688.5" y="-119.75" font-family="Helvetica,sans-Serif" font-size="10.00">erfinv</text>
</a>
</g>
</g>
<!-- Node2 -->
<g id="Node000002" class="node">
<title>Node2</title>
<g id="a_Node000002"><a xlink:href="namespaceMC_1_1Distributions.html#a3c07f6cf61b1c67ea9b2b3e0d6c42cc7" target="_top" xlink:title="Computes the inverse CDF (probit function) of a normal distribution.">
<polygon fill="white" stroke="#666666" points="603.25,-143.75 504.75,-143.75 504.75,-114.75 603.25,-114.75 603.25,-143.75"/>
<text text-anchor="start" x="512.75" y="-130.25" font-family="Helvetica,sans-Serif" font-size="10.00">MC::Distributions::</text>
<text text-anchor="middle" x="554" y="-119.75" font-family="Helvetica,sans-Serif" font-size="10.00">norminv</text>
</a>
</g>
</g>
<!-- Node1&#45;&gt;Node2 -->
<g id="edge1_Node000001_Node000002" class="edge">
<title>Node1&#45;&gt;Node2</title>
<g id="a_edge1_Node000001_Node000002"><a xlink:title=" ">
<path fill="none" stroke="#63b8ff" d="M627.66,-129.25C619.6,-129.25 611.41,-129.25 603.58,-129.25"/>
<polygon fill="#63b8ff" stroke="#63b8ff" points="627.4,-132.75 637.4,-129.25 627.4,-125.75 627.4,-132.75"/>
</a>
</g>
</g>
<!-- Node3 -->
<g id="Node000003" class="node">
<title>Node3</title>
<g id="a_Node000003"><a xlink:href="structMC_1_1Distributions_1_1TruncatedNormal.html#af6cfcdb1f39978352e55fc5c5f729462" target="_top" xlink:title=" ">
<polygon fill="white" stroke="#666666" points="468.75,-143.75 326.75,-143.75 326.75,-114.75 468.75,-114.75 468.75,-143.75"/>
<text text-anchor="start" x="334.75" y="-130.25" font-family="Helvetica,sans-Serif" font-size="10.00">MC::Distributions::</text>
<text text-anchor="middle" x="397.75" y="-119.75" font-family="Helvetica,sans-Serif" font-size="10.00">TruncatedNormal::draw_from</text>
</a>
</g>
</g>
<!-- Node2&#45;&gt;Node3 -->
<g id="edge2_Node000002_Node000003" class="edge">
<title>Node2&#45;&gt;Node3</title>
<g id="a_edge2_Node000002_Node000003"><a xlink:title=" ">
<path fill="none" stroke="#63b8ff" d="M493.22,-129.25C485.28,-129.25 477.08,-129.25 468.99,-129.25"/>
<polygon fill="#63b8ff" stroke="#63b8ff" points="493.1,-132.75 503.1,-129.25 493.1,-125.75 493.1,-132.75"/>
</a>
</g>
</g>
<!-- Node4 -->
<g id="Node000004" class="node">
<title>Node4</title>
<g id="a_Node000004"><a xlink:href="structModels_1_1TwoMeta.html#afcf107b4e7c86508762048d28608a5b9" target="_top" xlink:title=" ">
<polygon fill="white" stroke="#666666" points="131.5,-217.5 0,-217.5 0,-199 131.5,-199 131.5,-217.5"/>
<text text-anchor="middle" x="65.75" y="-204" font-family="Helvetica,sans-Serif" font-size="10.00">Models::TwoMeta::division</text>
</a>
</g>
</g>
<!-- Node3&#45;&gt;Node4 -->
<g id="edge3_Node000003_Node000004" class="edge">
<title>Node3&#45;&gt;Node4</title>
<g id="a_edge3_Node000003_Node000004"><a xlink:title=" ">
<path fill="none" stroke="#63b8ff" d="M367.5,-150.4C347.05,-163.99 318.53,-180.66 290.75,-189.25 238.92,-205.27 177.34,-209.5 131.87,-210.01"/>
<polygon fill="#63b8ff" stroke="#63b8ff" points="369.31,-153.4 375.6,-144.87 365.36,-147.61 369.31,-153.4"/>
</a>
</g>
</g>
<!-- Node5 -->
<g id="Node000005" class="node">
<title>Node5</title>
<g id="a_Node000005"><a xlink:href="structModels_1_1Uptake.html#a81f6d63498b3036a75880ed7a5c48d6a" target="_top" xlink:title=" ">
<polygon fill="white" stroke="#666666" points="290.75,-180.5 167.5,-180.5 167.5,-162 290.75,-162 290.75,-180.5"/>
<text text-anchor="middle" x="229.12" y="-167" font-family="Helvetica,sans-Serif" font-size="10.00">Models::Uptake::division</text>
</a>
</g>
</g>
<!-- Node3&#45;&gt;Node5 -->
<g id="edge4_Node000003_Node000005" class="edge">
<title>Node3&#45;&gt;Node5</title>
<g id="a_edge4_Node000003_Node000005"><a xlink:title=" ">
<path fill="none" stroke="#63b8ff" d="M326.63,-146.93C306.75,-151.94 285.84,-157.21 268.59,-161.55"/>
<polygon fill="#63b8ff" stroke="#63b8ff" points="327.23,-150.38 336.07,-144.55 325.52,-143.6 327.23,-150.38"/>
</a>
</g>
</g>
<!-- Node7 -->
<g id="Node000007" class="node">
<title>Node7</title>
<g id="a_Node000007"><a xlink:href="structMC_1_1Distributions_1_1TruncatedNormal.html#a5c5cc899d8c3986ea0ae4b4789fbc533" target="_top" xlink:title=" ">
<polygon fill="white" stroke="#666666" points="287.75,-143.75 170.5,-143.75 170.5,-114.75 287.75,-114.75 287.75,-143.75"/>
<text text-anchor="start" x="178.5" y="-130.25" font-family="Helvetica,sans-Serif" font-size="10.00">MC::Distributions::</text>
<text text-anchor="middle" x="229.12" y="-119.75" font-family="Helvetica,sans-Serif" font-size="10.00">TruncatedNormal::draw</text>
</a>
</g>
</g>
<!-- Node3&#45;&gt;Node7 -->
<g id="edge7_Node000003_Node000007" class="edge">
<title>Node3&#45;&gt;Node7</title>
<g id="a_edge7_Node000003_Node000007"><a xlink:title=" ">
<path fill="none" stroke="#63b8ff" d="M315.08,-129.25C305.98,-129.25 296.85,-129.25 288.12,-129.25"/>
<polygon fill="#63b8ff" stroke="#63b8ff" points="315.06,-132.75 325.06,-129.25 315.06,-125.75 315.06,-132.75"/>
</a>
</g>
</g>
<!-- Node8 -->
<g id="Node000008" class="node">
<title>Node8</title>
<g id="a_Node000008"><a xlink:href="structMC_1_1Distributions_1_1ScaledTruncatedNormal.html#ac66c440e3d39d95509ab84a43455029b" target="_top" xlink:title=" ">
<polygon fill="white" stroke="#666666" points="289.25,-97 169,-97 169,-57.5 289.25,-57.5 289.25,-97"/>
<text text-anchor="start" x="177" y="-83.5" font-family="Helvetica,sans-Serif" font-size="10.00">MC::Distributions::</text>
<text text-anchor="start" x="177" y="-73" font-family="Helvetica,sans-Serif" font-size="10.00">ScaledTruncatedNormal</text>
<text text-anchor="middle" x="229.12" y="-62.5" font-family="Helvetica,sans-Serif" font-size="10.00">::draw_from</text>
</a>
</g>
</g>
<!-- Node3&#45;&gt;Node8 -->
<g id="edge8_Node000003_Node000008" class="edge">
<title>Node3&#45;&gt;Node8</title>
<g id="a_edge8_Node000003_Node000008"><a xlink:title=" ">
<path fill="none" stroke="#63b8ff" d="M338.29,-111.01C322.46,-106.07 305.32,-100.72 289.45,-95.76"/>
<polygon fill="#63b8ff" stroke="#63b8ff" points="336.97,-114.26 347.56,-113.9 339.05,-107.58 336.97,-114.26"/>
</a>
</g>
</g>
<!-- Node9 -->
<g id="Node000009" class="node">
<title>Node9</title>
<g id="a_Node000009"><a xlink:href="structModels_1_1Uptake.html#a031bc7c273a310a89fb4c9dce6caf315" target="_top" xlink:title=" ">
<polygon fill="white" stroke="#666666" points="280.62,-39.5 177.62,-39.5 177.62,-21 280.62,-21 280.62,-39.5"/>
<text text-anchor="middle" x="229.12" y="-26" font-family="Helvetica,sans-Serif" font-size="10.00">Models::Uptake::init</text>
</a>
</g>
</g>
<!-- Node3&#45;&gt;Node9 -->
<g id="edge9_Node000003_Node000009" class="edge">
<title>Node3&#45;&gt;Node9</title>
<g id="a_edge9_Node000003_Node000009"><a xlink:title=" ">
<path fill="none" stroke="#63b8ff" d="M372.78,-106.81C352.35,-88.75 321.5,-63.89 290.75,-48.25 284.39,-45.01 277.35,-42.26 270.39,-39.95"/>
<polygon fill="#63b8ff" stroke="#63b8ff" points="370.23,-109.23 380,-113.32 374.91,-104.02 370.23,-109.23"/>
</a>
</g>
</g>
<!-- Node5&#45;&gt;Node4 -->
<g id="edge6_Node000005_Node000004" class="edge">
<title>Node5&#45;&gt;Node4</title>
<g id="a_edge6_Node000005_Node000004"><a xlink:title=" ">
<path fill="none" stroke="#63b8ff" d="M174.57,-183.53C153.3,-188.41 129.17,-193.94 109.15,-198.53"/>
<polygon fill="#63b8ff" stroke="#63b8ff" points="175.29,-186.96 184.25,-181.31 173.72,-180.13 175.29,-186.96"/>
</a>
</g>
</g>
<!-- Node6 -->
<g id="Node000006" class="node">
<title>Node6</title>
<g id="a_Node000006"><a xlink:href="structModels_1_1SimpleModel.html#a0c6a28fd790efe9193d1a3973f7239d7" target="_top" xlink:title=" ">
<polygon fill="white" stroke="#666666" points="120.62,-180.75 10.88,-180.75 10.88,-151.75 120.62,-151.75 120.62,-180.75"/>
<text text-anchor="start" x="18.88" y="-167.25" font-family="Helvetica,sans-Serif" font-size="10.00">Models::SimpleModel</text>
<text text-anchor="middle" x="65.75" y="-156.75" font-family="Helvetica,sans-Serif" font-size="10.00">::division</text>
</a>
</g>
</g>
<!-- Node5&#45;&gt;Node6 -->
<g id="edge5_Node000005_Node000006" class="edge">
<title>Node5&#45;&gt;Node6</title>
<g id="a_edge5_Node000005_Node000006"><a xlink:title=" ">
<path fill="none" stroke="#63b8ff" d="M155.95,-169.01C144.19,-168.65 132.19,-168.28 120.96,-167.93"/>
<polygon fill="#63b8ff" stroke="#63b8ff" points="155.5,-172.5 165.6,-169.31 155.72,-165.5 155.5,-172.5"/>
</a>
</g>
</g>
<!-- Node10 -->
<g id="Node000010" class="node">
<title>Node10</title>
<g id="a_Node000010"><a xlink:href="structModels_1_1SimpleModel.html#a50c1e5de1921c8323b707df3c31834e5" target="_top" xlink:title=" ">
<polygon fill="white" stroke="#666666" points="120.62,-65.75 10.88,-65.75 10.88,-36.75 120.62,-36.75 120.62,-65.75"/>
<text text-anchor="start" x="18.88" y="-52.25" font-family="Helvetica,sans-Serif" font-size="10.00">Models::SimpleModel</text>
<text text-anchor="middle" x="65.75" y="-41.75" font-family="Helvetica,sans-Serif" font-size="10.00">::init</text>
</a>
</g>
</g>
<!-- Node9&#45;&gt;Node10 -->
<g id="edge10_Node000009_Node000010" class="edge">
<title>Node9&#45;&gt;Node10</title>
<g id="a_edge10_Node000009_Node000010"><a xlink:title=" ">
<path fill="none" stroke="#63b8ff" d="M166.33,-38.29C151.43,-40.23 135.63,-42.29 121.1,-44.18"/>
<polygon fill="#63b8ff" stroke="#63b8ff" points="166.54,-41.79 176.01,-37.03 165.64,-34.85 166.54,-41.79"/>
</a>
</g>
</g>
<!-- Node11 -->
<g id="Node000011" class="node">
<title>Node11</title>
<g id="a_Node000011"><a xlink:href="structModels_1_1TwoMeta.html#a77088e8a2d0675d4f08e638f0018a0a9" target="_top" xlink:title=" ">
<polygon fill="white" stroke="#666666" points="121.38,-18.5 10.12,-18.5 10.12,0 121.38,0 121.38,-18.5"/>
<text text-anchor="middle" x="65.75" y="-5" font-family="Helvetica,sans-Serif" font-size="10.00">Models::TwoMeta::init</text>
</a>
</g>
</g>
<!-- Node9&#45;&gt;Node11 -->
<g id="edge11_Node000009_Node000011" class="edge">
<title>Node9&#45;&gt;Node11</title>
<g id="a_edge11_Node000009_Node000011"><a xlink:title=" ">
<path fill="none" stroke="#63b8ff" d="M166.45,-22.22C151.71,-20.31 136.08,-18.27 121.67,-16.4"/>
<polygon fill="#63b8ff" stroke="#63b8ff" points="165.64,-25.65 176.01,-23.47 166.54,-18.71 165.64,-25.65"/>
</a>
</g>
</g>
</g>
</svg>
