<?xml version="1.0" encoding="UTF-8" standalone="no"?>
<!DOCTYPE svg PUBLIC "-//W3C//DTD SVG 1.1//EN"
 "http://www.w3.org/Graphics/SVG/1.1/DTD/svg11.dtd">
<!-- Generated by graphviz version 12.1.2 (0)
 -->
<!-- Title: WrapMPI::Async::send_v Pages: 1 -->
<svg width="578pt" height="50pt"
 viewBox="0.00 0.00 578.25 49.75" xmlns="http://www.w3.org/2000/svg" xmlns:xlink="http://www.w3.org/1999/xlink">
<g id="graph0" class="graph" transform="scale(1 1) rotate(0) translate(4 45.75)">
<title>WrapMPI::Async::send_v</title>
<!-- Node1 -->
<g id="Node000001" class="node">
<title>Node1</title>
<g id="a_Node000001"><a xlink:title=" ">
<polygon fill="#999999" stroke="#666666" points="126.25,-36.5 0,-36.5 0,-18 126.25,-18 126.25,-36.5"/>
<text text-anchor="middle" x="63.12" y="-23" font-family="Helvetica,sans-Serif" font-size="10.00">WrapMPI::Async::send_v</text>
</a>
</g>
</g>
<!-- Node2 -->
<g id="Node000002" class="node">
<title>Node2</title>
<g id="a_Node000002"><a xlink:href="namespaceWrapMPI_1_1Async.html#a59ad59e497d926c7bdc45585bd715410" target="_top" xlink:title=" ">
<polygon fill="white" stroke="#666666" points="435,-41.75 314,-41.75 314,-12.75 435,-12.75 435,-41.75"/>
<text text-anchor="start" x="322" y="-28.25" font-family="Helvetica,sans-Serif" font-size="10.00">WrapMPI::Async::_send</text>
<text text-anchor="middle" x="374.5" y="-17.75" font-family="Helvetica,sans-Serif" font-size="10.00">_unsafe</text>
</a>
</g>
</g>
<!-- Node1&#45;&gt;Node2 -->
<g id="edge1_Node000001_Node000002" class="edge">
<title>Node1&#45;&gt;Node2</title>
<g id="a_edge1_Node000001_Node000002"><a xlink:title=" ">
<path fill="none" stroke="#63b8ff" d="M126.73,-27.25C177.56,-27.25 249.24,-27.25 302.26,-27.25"/>
<polygon fill="#63b8ff" stroke="#63b8ff" points="302.1,-30.75 312.1,-27.25 302.1,-23.75 302.1,-30.75"/>
</a>
</g>
</g>
<!-- Node4 -->
<g id="Node000004" class="node">
<title>Node4</title>
<g id="a_Node000004"><a xlink:href="namespaceWrapMPI_1_1Async.html#aea9ea25d4513c086000ad935de0c2a63" target="_top" xlink:title=" ">
<polygon fill="white" stroke="#666666" points="278,-18.5 162.25,-18.5 162.25,0 278,0 278,-18.5"/>
<text text-anchor="middle" x="220.12" y="-5" font-family="Helvetica,sans-Serif" font-size="10.00">WrapMPI::Async::send</text>
</a>
</g>
</g>
<!-- Node1&#45;&gt;Node4 -->
<g id="edge3_Node000001_Node000004" class="edge">
<title>Node1&#45;&gt;Node4</title>
<g id="a_edge3_Node000001_Node000004"><a xlink:title=" ">
<path fill="none" stroke="#63b8ff" d="M126.72,-19.98C134.51,-19.08 142.51,-18.15 150.39,-17.23"/>
<polygon fill="#63b8ff" stroke="#63b8ff" points="150.77,-20.71 160.3,-16.08 149.96,-13.76 150.77,-20.71"/>
</a>
</g>
</g>
<!-- Node3 -->
<g id="Node000003" class="node">
<title>Node3</title>
<g id="a_Node000003"><a xlink:href="namespaceWrapMPI.html#adab3300a86b8c0227268b23134b57a24" target="_top" xlink:title=" ">
<polygon fill="white" stroke="#666666" points="570.25,-36.5 471,-36.5 471,-18 570.25,-18 570.25,-36.5"/>
<text text-anchor="middle" x="520.62" y="-23" font-family="Helvetica,sans-Serif" font-size="10.00">WrapMPI::get_type</text>
</a>
</g>
</g>
<!-- Node2&#45;&gt;Node3 -->
<g id="edge2_Node000002_Node000003" class="edge">
<title>Node2&#45;&gt;Node3</title>
<g id="a_edge2_Node000002_Node000003"><a xlink:title=" ">
<path fill="none" stroke="#63b8ff" d="M435.37,-27.25C443.27,-27.25 451.37,-27.25 459.27,-27.25"/>
<polygon fill="#63b8ff" stroke="#63b8ff" points="459.16,-30.75 469.16,-27.25 459.16,-23.75 459.16,-30.75"/>
</a>
</g>
</g>
<!-- Node4&#45;&gt;Node2 -->
<g id="edge4_Node000004_Node000002" class="edge">
<title>Node4&#45;&gt;Node2</title>
<g id="a_edge4_Node000004_Node000002"><a xlink:title=" ">
<path fill="none" stroke="#63b8ff" d="M278.3,-16C286.16,-16.93 294.31,-17.9 302.39,-18.85"/>
<polygon fill="#63b8ff" stroke="#63b8ff" points="301.87,-22.31 312.21,-20.01 302.69,-15.36 301.87,-22.31"/>
</a>
</g>
</g>
</g>
</svg>
