<?xml version="1.0" encoding="UTF-8" standalone="no"?>
<!DOCTYPE svg PUBLIC "-//W3C//DTD SVG 1.1//EN"
 "http://www.w3.org/Graphics/SVG/1.1/DTD/svg11.dtd">
<!-- Generated by graphviz version 12.1.2 (0)
 -->
<!-- Title: Core::ScalarFactory::sanitize Pages: 1 -->
<!--zoomable 107 -->

<svg id="main" version="1.1" xmlns="http://www.w3.org/2000/svg" xmlns:xlink="http://www.w3.org/1999/xlink" xml:space="preserve" onload="init(evt)">

<style type="text/css"><![CDATA[
.node, .edge {opacity: 0.7;}
.node.selected, .edge.selected {opacity: 1;}
.edge:hover path { stroke: red; }
.edge:hover polygon { stroke: red; fill: red; }
]]></style>

<defs>
  <circle id="rim" cx="0" cy="0" r="7"/>
  <circle id="rim2" cx="0" cy="0" r="3.5"/>
  <g id="zoomPlus">
    <use xlink:href="#rim" fill="#404040"><set attributeName="fill" to="#808080" begin="zoomplus.mouseover" end="zoomplus.mouseout"/></use>
    <path d="M-4,0h8M0,-4v8" fill="none" stroke="white" stroke-width="1.5" pointer-events="none"/>
  </g>
  <g id="zoomMin">
    <use xlink:href="#rim" fill="#404040"><set attributeName="fill" to="#808080" begin="zoomminus.mouseover" end="zoomminus.mouseout"/></use>
    <path d="M-4,0h8" fill="none" stroke="white" stroke-width="1.5" pointer-events="none"/>
  </g>
  <g id="arrowUp" transform="translate(30 24)">
    <use xlink:href="#rim"/>
    <path pointer-events="none" fill="none" stroke="white" stroke-width="1.5" d="M0,-3.0v7 M-2.5,-0.5L0,-3.0L2.5,-0.5"/>
  </g>
  <g id="arrowRight" transform="rotate(90) translate(36 -43)">
    <use xlink:href="#rim"/>
    <path pointer-events="none" fill="none" stroke="white" stroke-width="1.5" d="M0,-3.0v7 M-2.5,-0.5L0,-3.0L2.5,-0.5"/>
  </g>
  <g id="arrowDown" transform="rotate(180) translate(-30 -48)">
    <use xlink:href="#rim"/>
    <path pointer-events="none" fill="none" stroke="white" stroke-width="1.5" d="M0,-3.0v7 M-2.5,-0.5L0,-3.0L2.5,-0.5"/>
  </g>
  <g id="arrowLeft" transform="rotate(270) translate(-36 17)">
    <use xlink:href="#rim"/>
    <path pointer-events="none" fill="none" stroke="white" stroke-width="1.5" d="M0,-3.0v7 M-2.5,-0.5L0,-3.0L2.5,-0.5"/>
  </g>
  <g id="resetDef">
    <use xlink:href="#rim2" fill="#404040"><set attributeName="fill" to="#808080" begin="reset.mouseover" end="reset.mouseout"/></use>
  </g>
</defs>
<script type="application/ecmascript">
var viewWidth = 705;
var viewHeight = 107;
var sectionId = 'dynsection-0';
</script>
<script type="application/ecmascript" xlink:href="svg.min.js"/>
<svg id="graph" class="graph">
<g id="viewport">
<title>Core::ScalarFactory::sanitize</title>
<!-- Node1 -->
<g id="Node000001" class="node">
<title>Node1</title>
<g id="a_Node000001"><a xlink:title=" ">
<polygon fill="#999999" stroke="#666666" points="697.25,-75 592.75,-75 592.75,-46 697.25,-46 697.25,-75"/>
<text text-anchor="start" x="600.75" y="-61.5" font-family="Helvetica,sans-Serif" font-size="10.00">Core::ScalarFactory</text>
<text text-anchor="middle" x="645" y="-51" font-family="Helvetica,sans-Serif" font-size="10.00">::sanitize</text>
</a>
</g>
</g>
<!-- Node2 -->
<g id="Node000002" class="node">
<title>Node2</title>
<g id="a_Node000002"><a xlink:href="classCore_1_1GlobalInitialiser.html#afa96dd38c29284ca8a70bdb67017c70b" target="_top" xlink:title="Initializes a simulation unit with specified parameters.">
<polygon fill="white" stroke="#666666" points="556.75,-99 447,-99 447,-70 556.75,-70 556.75,-99"/>
<text text-anchor="start" x="455" y="-85.5" font-family="Helvetica,sans-Serif" font-size="10.00">Core::GlobalInitialiser</text>
<text text-anchor="middle" x="501.88" y="-75" font-family="Helvetica,sans-Serif" font-size="10.00">::init_simulation</text>
</a>
</g>
</g>
<!-- Node1&#45;&gt;Node2 -->
<g id="edge1_Node000001_Node000002" class="edge">
<title>Node1&#45;&gt;Node2</title>
<g id="a_edge1_Node000001_Node000002"><a xlink:title=" ">
<path fill="none" stroke="#63b8ff" d="M581.04,-71.21C573.01,-72.57 564.86,-73.96 556.99,-75.3"/>
<polygon fill="#63b8ff" stroke="#63b8ff" points="581.49,-74.68 590.76,-69.55 580.31,-67.78 581.49,-74.68"/>
</a>
</g>
</g>
<!-- Node3 -->
<g id="Node000003" class="node">
<title>Node3</title>
<g id="a_Node000003"><a xlink:href="namespaceCore_1_1ScalarFactory.html#a8fb497033464776a1cda71cce1840cd8" target="_top" xlink:title="Factory function to initialize scalar data based on the specified input source.">
<polygon fill="white" stroke="#666666" points="554.12,-52 449.62,-52 449.62,-23 554.12,-23 554.12,-52"/>
<text text-anchor="start" x="457.62" y="-38.5" font-family="Helvetica,sans-Serif" font-size="10.00">Core::ScalarFactory</text>
<text text-anchor="middle" x="501.88" y="-28" font-family="Helvetica,sans-Serif" font-size="10.00">::scalar_factory</text>
</a>
</g>
</g>
<!-- Node1&#45;&gt;Node3 -->
<g id="edge2_Node000001_Node000003" class="edge">
<title>Node1&#45;&gt;Node3</title>
<g id="a_edge2_Node000001_Node000003"><a xlink:title=" ">
<path fill="none" stroke="#63b8ff" d="M581.15,-50.26C572.28,-48.81 563.25,-47.34 554.62,-45.93"/>
<polygon fill="#63b8ff" stroke="#63b8ff" points="580.32,-53.67 590.76,-51.82 581.45,-46.76 580.32,-53.67"/>
</a>
</g>
</g>
<!-- Node4 -->
<g id="Node000004" class="node">
<title>Node4</title>
<g id="a_Node000004"><a xlink:href="classCore_1_1GlobalInitialiser.html#aa84a61b25f475380b38306232e25aff6" target="_top" xlink:title="Initializes a scalar component of the simulation.">
<polygon fill="white" stroke="#666666" points="411,-76 301.25,-76 301.25,-47 411,-47 411,-76"/>
<text text-anchor="start" x="309.25" y="-62.5" font-family="Helvetica,sans-Serif" font-size="10.00">Core::GlobalInitialiser</text>
<text text-anchor="middle" x="356.12" y="-52" font-family="Helvetica,sans-Serif" font-size="10.00">::init_scalar</text>
</a>
</g>
</g>
<!-- Node3&#45;&gt;Node4 -->
<g id="edge3_Node000003_Node000004" class="edge">
<title>Node3&#45;&gt;Node4</title>
<g id="a_edge3_Node000003_Node000004"><a xlink:title=" ">
<path fill="none" stroke="#63b8ff" d="M438.14,-47.97C429.15,-49.47 419.97,-51.01 411.17,-52.48"/>
<polygon fill="#63b8ff" stroke="#63b8ff" points="438.6,-51.45 447.89,-46.35 437.45,-44.54 438.6,-51.45"/>
</a>
</g>
</g>
<!-- Node7 -->
<g id="Node000007" class="node">
<title>Node7</title>
<g id="a_Node000007"><a xlink:href="classCore_1_1GlobalInitialiser.html#a6c679d3dc5f4ee98dfd9ed4c35092f1c" target="_top" xlink:title=" ">
<polygon fill="white" stroke="#666666" points="411,-29 301.25,-29 301.25,0 411,0 411,-29"/>
<text text-anchor="start" x="309.25" y="-15.5" font-family="Helvetica,sans-Serif" font-size="10.00">Core::GlobalInitialiser</text>
<text text-anchor="middle" x="356.12" y="-5" font-family="Helvetica,sans-Serif" font-size="10.00">::init_scalar</text>
</a>
</g>
</g>
<!-- Node3&#45;&gt;Node7 -->
<g id="edge7_Node000003_Node000007" class="edge">
<title>Node3&#45;&gt;Node7</title>
<g id="a_edge7_Node000003_Node000007"><a xlink:title=" ">
<path fill="none" stroke="#63b8ff" d="M438.14,-27.46C429.15,-26.02 419.97,-24.56 411.17,-23.15"/>
<polygon fill="#63b8ff" stroke="#63b8ff" points="437.46,-30.9 447.89,-29.02 438.57,-23.99 437.46,-30.9"/>
</a>
</g>
</g>
<!-- Node5 -->
<g id="Node000005" class="node">
<title>Node5</title>
<g id="a_Node000005"><a xlink:href="classCore_1_1GlobalInitialiser.html#a5e218058a79920784be9d299856e867b" target="_top" xlink:title="Initializes a simulation unit.">
<polygon fill="white" stroke="#666666" points="265.25,-76 155.5,-76 155.5,-47 265.25,-47 265.25,-76"/>
<text text-anchor="start" x="163.5" y="-62.5" font-family="Helvetica,sans-Serif" font-size="10.00">Core::GlobalInitialiser</text>
<text text-anchor="middle" x="210.38" y="-52" font-family="Helvetica,sans-Serif" font-size="10.00">::init_simulation</text>
</a>
</g>
</g>
<!-- Node4&#45;&gt;Node5 -->
<g id="edge4_Node000004_Node000005" class="edge">
<title>Node4&#45;&gt;Node5</title>
<g id="a_edge4_Node000004_Node000005"><a xlink:title=" ">
<path fill="none" stroke="#63b8ff" d="M289.47,-61.5C281.39,-61.5 273.2,-61.5 265.32,-61.5"/>
<polygon fill="#63b8ff" stroke="#63b8ff" points="289.27,-65 299.27,-61.5 289.27,-58 289.27,-65"/>
</a>
</g>
</g>
<!-- Node5&#45;&gt;Node5 -->
<g id="edge6_Node000005_Node000005" class="edge">
<title>Node5&#45;&gt;Node5</title>
<g id="a_edge6_Node000005_Node000005"><a xlink:title=" ">
<path fill="none" stroke="#63b8ff" d="M235.11,-87.56C231.23,-91.41 222.98,-94 210.38,-94 187.32,-94 178.85,-85.32 184.98,-76.21"/>
<polygon fill="#63b8ff" stroke="#63b8ff" points="238.6,-87.9 235.69,-77.72 231.61,-87.5 238.6,-87.9"/>
</a>
</g>
</g>
<!-- Node6 -->
<g id="Node000006" class="node">
<title>Node6</title>
<g id="a_Node000006"><a xlink:href="structApi_1_1SimulationInstance.html#ae9bdd54076170f50eadcb7966d64c19d" target="_top" xlink:title="Apply the simulation configuration and prepare for execution.">
<polygon fill="white" stroke="#666666" points="119.5,-76 0,-76 0,-47 119.5,-47 119.5,-76"/>
<text text-anchor="start" x="8" y="-62.5" font-family="Helvetica,sans-Serif" font-size="10.00">Api::SimulationInstance</text>
<text text-anchor="middle" x="59.75" y="-52" font-family="Helvetica,sans-Serif" font-size="10.00">::apply</text>
</a>
</g>
</g>
<!-- Node5&#45;&gt;Node6 -->
<g id="edge5_Node000005_Node000006" class="edge">
<title>Node5&#45;&gt;Node6</title>
<g id="a_edge5_Node000005_Node000006"><a xlink:title=" ">
<path fill="none" stroke="#63b8ff" d="M144.04,-61.5C135.97,-61.5 127.77,-61.5 119.81,-61.5"/>
<polygon fill="#63b8ff" stroke="#63b8ff" points="143.78,-65 153.78,-61.5 143.78,-58 143.78,-65"/>
</a>
</g>
</g>
</g>
</svg>

<g id="navigator" transform="translate(0 0)" fill="#404254">
  <rect fill="#f2f5e9" fill-opacity="0.5" stroke="#606060" stroke-width=".5" x="0" y="0" width="60" height="60"/>
  <use id="zoomplus" xlink:href="#zoomPlus" x="17" y="9" onmousedown="handleZoom(evt,'in')"/>
  <use id="zoomminus" xlink:href="#zoomMin" x="42" y="9" onmousedown="handleZoom(evt,'out')"/>
  <use id="reset" xlink:href="#resetDef" x="30" y="36" onmousedown="handleReset()"/>
   <use id="arrowup" xlink:href="#arrowUp" x="0" y="0" onmousedown="handlePan(0,-1)"/>
  <use id="arrowright" xlink:href="#arrowRight" x="0" y="0" onmousedown="handlePan(1,0)"/>
  <use id="arrowdown" xlink:href="#arrowDown" x="0" y="0" onmousedown="handlePan(0,1)"/>
  <use id="arrowleft" xlink:href="#arrowLeft" x="0" y="0" onmousedown="handlePan(-1,0)"/>
</g>
<svg viewBox="0 0 15 15" width="100%" height="30px" preserveAspectRatio="xMaxYMin meet">
 <g id="arrow_out" transform="scale(0.3 0.3)">
  <a xlink:href="namespaceCore_1_1ScalarFactory_a3cd3bf6bf73298a38df48b444e3f0a23_icgraph_org.svg" target="_base">
   <rect id="button" ry="5" rx="5" y="6" x="6" height="38" width="38"
        fill="#f2f5e9" fill-opacity="0.5" stroke="#606060" stroke-width="1.0"/>
   <path id="arrow"
     d="M 11.500037,31.436501 C 11.940474,20.09759 22.043105,11.32322 32.158766,21.979434 L 37.068811,17.246167 C 37.068811,17.246167 37.088388,32 37.088388,32 L 22.160133,31.978069 C 22.160133,31.978069 26.997745,27.140456 26.997745,27.140456 C 18.528582,18.264221 13.291696,25.230495 11.500037,31.436501 z"
     style="fill:#404040;"/>
  </a>
 </g>
</svg>

<style type='text/css'>
<![CDATA[
[data-mouse-over-selected='false'] { opacity: 0.7; }
[data-mouse-over-selected='true']  { opacity: 1.0; }
]]>
</style>
<script type="application/ecmascript"><![CDATA[
document.addEventListener('DOMContentLoaded', (event) => {
  highlightEdges();
  highlightAdjacentNodes();
});
]]></script>
</svg>
