<?xml version="1.0" encoding="UTF-8" standalone="no"?>
<!DOCTYPE svg PUBLIC "-//W3C//DTD SVG 1.1//EN"
 "http://www.w3.org/Graphics/SVG/1.1/DTD/svg11.dtd">
<!-- Generated by graphviz version 14.0.1 (0)
 -->
<!-- Title: WrapMPI::finalize Pages: 1 -->
<svg width="385pt" height="64pt"
 viewBox="0.00 0.00 385.00 64.00" xmlns="http://www.w3.org/2000/svg" xmlns:xlink="http://www.w3.org/1999/xlink">
<g id="graph0" class="graph" transform="scale(1 1) rotate(0) translate(4 59.5)">
<title>WrapMPI::finalize</title>
<!-- Node1 -->
<g id="Node000001" class="node">
<title>Node1</title>
<g id="a_Node000001"><a xlink:title=" ">
<polygon fill="#999999" stroke="#666666" points="376.5,-36.5 284.75,-36.5 284.75,-18 376.5,-18 376.5,-36.5"/>
<text xml:space="preserve" text-anchor="middle" x="330.62" y="-23" font-family="Helvetica,sans-Serif" font-size="10.00">WrapMPI::finalize</text>
</a>
</g>
</g>
<!-- Node2 -->
<g id="Node000002" class="node">
<title>Node2</title>
<g id="a_Node000002"><a xlink:href="namespaceApi.html#a43523f23b4fed2f495f0d6ca4e5aee32" target="_top" xlink:title=" ">
<polygon fill="white" stroke="#666666" points="235.62,-55.5 168.62,-55.5 168.62,-37 235.62,-37 235.62,-55.5"/>
<text xml:space="preserve" text-anchor="middle" x="202.12" y="-42" font-family="Helvetica,sans-Serif" font-size="10.00">Api::finalise</text>
</a>
</g>
</g>
<!-- Node1&#45;&gt;Node2 -->
<g id="edge1_Node000001_Node000002" class="edge">
<title>Node1&#45;&gt;Node2</title>
<g id="a_edge1_Node000001_Node000002"><a xlink:title=" ">
<path fill="none" stroke="#63b8ff" d="M273.22,-35.72C260.42,-37.64 247.25,-39.62 235.82,-41.34"/>
<polygon fill="#63b8ff" stroke="#63b8ff" points="273.45,-39.23 282.82,-34.28 272.41,-32.3 273.45,-39.23"/>
</a>
</g>
</g>
<!-- Node4 -->
<g id="Node000004" class="node">
<title>Node4</title>
<g id="a_Node000004"><a xlink:href="namespaceCore.html#ad98e98a441916916448cd3eb5c437bcf" target="_top" xlink:title="Initializes the runtime environment based on command&#45;line arguments and simulation parameters.">
<polygon fill="white" stroke="#666666" points="248.75,-18.5 155.5,-18.5 155.5,0 248.75,0 248.75,-18.5"/>
<text xml:space="preserve" text-anchor="middle" x="202.12" y="-5" font-family="Helvetica,sans-Serif" font-size="10.00">Core::runtime_init</text>
</a>
</g>
</g>
<!-- Node1&#45;&gt;Node4 -->
<g id="edge3_Node000001_Node000004" class="edge">
<title>Node1&#45;&gt;Node4</title>
<g id="a_edge3_Node000001_Node000004"><a xlink:title=" ">
<path fill="none" stroke="#63b8ff" d="M273.07,-19.2C265.01,-18.06 256.8,-16.89 248.97,-15.77"/>
<polygon fill="#63b8ff" stroke="#63b8ff" points="272.42,-22.65 282.81,-20.59 273.41,-15.72 272.42,-22.65"/>
</a>
</g>
</g>
<!-- Node3 -->
<g id="Node000003" class="node">
<title>Node3</title>
<g id="a_Node000003"><a xlink:href="structApi_1_1SimulationInstance.html#aaba14d53cd780130378421e0bf990663" target="_top" xlink:title="simulation instance constructor">
<polygon fill="white" stroke="#666666" points="119.5,-41.75 0,-41.75 0,-12.75 119.5,-12.75 119.5,-41.75"/>
<text xml:space="preserve" text-anchor="start" x="8" y="-28.25" font-family="Helvetica,sans-Serif" font-size="10.00">Api::SimulationInstance</text>
<text xml:space="preserve" text-anchor="middle" x="59.75" y="-17.75" font-family="Helvetica,sans-Serif" font-size="10.00">::SimulationInstance</text>
</a>
</g>
</g>
<!-- Node2&#45;&gt;Node3 -->
<g id="edge2_Node000002_Node000003" class="edge">
<title>Node2&#45;&gt;Node3</title>
<g id="a_edge2_Node000002_Node000003"><a xlink:title=" ">
<path fill="none" stroke="#63b8ff" d="M156.9,-40.26C145.15,-38.67 132.27,-36.93 119.86,-35.25"/>
<polygon fill="#63b8ff" stroke="#63b8ff" points="156.33,-43.72 166.71,-41.59 157.27,-36.78 156.33,-43.72"/>
</a>
</g>
</g>
<!-- Node4&#45;&gt;Node3 -->
<g id="edge4_Node000004_Node000003" class="edge">
<title>Node4&#45;&gt;Node3</title>
<g id="a_edge4_Node000004_Node000003"><a xlink:title=" ">
<path fill="none" stroke="#63b8ff" d="M143.8,-16.6C135.91,-17.61 127.79,-18.65 119.87,-19.67"/>
<polygon fill="#63b8ff" stroke="#63b8ff" points="144.19,-20.08 153.66,-15.34 143.3,-13.14 144.19,-20.08"/>
</a>
</g>
</g>
</g>
</svg>
