<?xml version="1.0" encoding="UTF-8" standalone="no"?>
<!DOCTYPE svg PUBLIC "-//W3C//DTD SVG 1.1//EN"
 "http://www.w3.org/Graphics/SVG/1.1/DTD/svg11.dtd">
<!-- Generated by graphviz version 14.0.1 (0)
 -->
<!-- Title: Simulation::KernelInline::probability_leaving Pages: 1 -->
<svg width="484pt" height="131pt"
 viewBox="0.00 0.00 484.00 131.00" xmlns="http://www.w3.org/2000/svg" xmlns:xlink="http://www.w3.org/1999/xlink">
<g id="graph0" class="graph" transform="scale(1 1) rotate(0) translate(4 127)">
<title>Simulation::KernelInline::probability_leaving</title>
<!-- Node1 -->
<g id="Node000001" class="node">
<title>Node1</title>
<g id="a_Node000001"><a xlink:title=" ">
<polygon fill="#999999" stroke="#666666" points="475.5,-76 357.5,-76 357.5,-47 475.5,-47 475.5,-76"/>
<text xml:space="preserve" text-anchor="start" x="365.5" y="-62.5" font-family="Helvetica,sans-Serif" font-size="10.00">Simulation::KernelInline</text>
<text xml:space="preserve" text-anchor="middle" x="416.5" y="-52" font-family="Helvetica,sans-Serif" font-size="10.00">::probability_leaving</text>
</a>
</g>
</g>
<!-- Node2 -->
<g id="Node000002" class="node">
<title>Node2</title>
<g id="a_Node000002"><a xlink:href="structSimulation_1_1KernelInline_1_1MoveFunctor.html#a50974bf6ba57832adef349fe00f5ff52" target="_top" xlink:title=" ">
<polygon fill="white" stroke="#666666" points="308.38,-123 174.62,-123 174.62,-94 308.38,-94 308.38,-123"/>
<text xml:space="preserve" text-anchor="start" x="182.62" y="-109.5" font-family="Helvetica,sans-Serif" font-size="10.00">Simulation::KernelInline</text>
<text xml:space="preserve" text-anchor="middle" x="241.5" y="-99" font-family="Helvetica,sans-Serif" font-size="10.00">::MoveFunctor::handle_exit</text>
</a>
</g>
</g>
<!-- Node1&#45;&gt;Node2 -->
<g id="edge1_Node000001_Node000002" class="edge">
<title>Node1&#45;&gt;Node2</title>
<g id="a_edge1_Node000001_Node000002"><a xlink:title=" ">
<path fill="none" stroke="#63b8ff" d="M350.14,-79.26C332.78,-83.97 314.22,-89.02 297.48,-93.56"/>
<polygon fill="#63b8ff" stroke="#63b8ff" points="350.57,-82.77 359.3,-76.77 348.73,-76.01 350.57,-82.77"/>
</a>
</g>
</g>
<!-- Node4 -->
<g id="Node000004" class="node">
<title>Node4</title>
<g id="a_Node000004"><a xlink:href="structSimulation_1_1KernelInline_1_1MoveFunctor.html#a2f5c4626adae4fe3d1c114dcb5f2c08b" target="_top" xlink:title=" ">
<polygon fill="white" stroke="#666666" points="312.12,-76 170.88,-76 170.88,-47 312.12,-47 312.12,-76"/>
<text xml:space="preserve" text-anchor="start" x="178.88" y="-62.5" font-family="Helvetica,sans-Serif" font-size="10.00">Simulation::KernelInline</text>
<text xml:space="preserve" text-anchor="middle" x="241.5" y="-52" font-family="Helvetica,sans-Serif" font-size="10.00">::MoveFunctor::handle_move</text>
</a>
</g>
</g>
<!-- Node1&#45;&gt;Node4 -->
<g id="edge3_Node000001_Node000004" class="edge">
<title>Node1&#45;&gt;Node4</title>
<g id="a_edge3_Node000001_Node000004"><a xlink:title=" ">
<path fill="none" stroke="#63b8ff" d="M346.05,-61.5C334.98,-61.5 323.52,-61.5 312.43,-61.5"/>
<polygon fill="#63b8ff" stroke="#63b8ff" points="345.9,-65 355.9,-61.5 345.9,-58 345.9,-65"/>
</a>
</g>
</g>
<!-- Node7 -->
<g id="Node000007" class="node">
<title>Node7</title>
<g id="a_Node000007"><a xlink:href="structSimulation_1_1KernelInline_1_1MoveFunctor.html#ad2169ac8529da243e8484321a333eec4" target="_top" xlink:title=" ">
<polygon fill="white" stroke="#666666" points="321.5,-29 161.5,-29 161.5,0 321.5,0 321.5,-29"/>
<text xml:space="preserve" text-anchor="start" x="169.5" y="-15.5" font-family="Helvetica,sans-Serif" font-size="10.00">Simulation::KernelInline</text>
<text xml:space="preserve" text-anchor="middle" x="241.5" y="-5" font-family="Helvetica,sans-Serif" font-size="10.00">::MoveFunctor::inner_handle_exit</text>
</a>
</g>
</g>
<!-- Node1&#45;&gt;Node7 -->
<g id="edge6_Node000001_Node000007" class="edge">
<title>Node1&#45;&gt;Node7</title>
<g id="a_edge6_Node000001_Node000007"><a xlink:title=" ">
<path fill="none" stroke="#63b8ff" d="M350.14,-43.74C332.78,-39.03 314.22,-33.98 297.48,-29.44"/>
<polygon fill="#63b8ff" stroke="#63b8ff" points="348.73,-46.99 359.3,-46.23 350.57,-40.23 348.73,-46.99"/>
</a>
</g>
</g>
<!-- Node3 -->
<g id="Node000003" class="node">
<title>Node3</title>
<g id="a_Node000003"><a xlink:href="structSimulation_1_1KernelInline_1_1MoveFunctor.html#a2013c3c924c8db817100a85a61175859" target="_top" xlink:title=" ">
<polygon fill="white" stroke="#666666" points="125.5,-123 0,-123 0,-94 125.5,-94 125.5,-123"/>
<text xml:space="preserve" text-anchor="start" x="8" y="-109.5" font-family="Helvetica,sans-Serif" font-size="10.00">Simulation::KernelInline</text>
<text xml:space="preserve" text-anchor="middle" x="62.75" y="-99" font-family="Helvetica,sans-Serif" font-size="10.00">::MoveFunctor::operator()</text>
</a>
</g>
</g>
<!-- Node2&#45;&gt;Node3 -->
<g id="edge2_Node000002_Node000003" class="edge">
<title>Node2&#45;&gt;Node3</title>
<g id="a_edge2_Node000002_Node000003"><a xlink:title=" ">
<path fill="none" stroke="#63b8ff" d="M162.89,-108.5C150.47,-108.5 137.76,-108.5 125.76,-108.5"/>
<polygon fill="#63b8ff" stroke="#63b8ff" points="162.67,-112 172.67,-108.5 162.67,-105 162.67,-112"/>
</a>
</g>
</g>
<!-- Node5 -->
<g id="Node000005" class="node">
<title>Node5</title>
<g id="a_Node000005"><a xlink:href="structSimulation_1_1KernelInline_1_1MoveFunctor.html#a44c3f09547671e80756f60afe399b12b" target="_top" xlink:title=" ">
<polygon fill="white" stroke="#666666" points="125.5,-76 0,-76 0,-47 125.5,-47 125.5,-76"/>
<text xml:space="preserve" text-anchor="start" x="8" y="-62.5" font-family="Helvetica,sans-Serif" font-size="10.00">Simulation::KernelInline</text>
<text xml:space="preserve" text-anchor="middle" x="62.75" y="-52" font-family="Helvetica,sans-Serif" font-size="10.00">::MoveFunctor::operator()</text>
</a>
</g>
</g>
<!-- Node4&#45;&gt;Node5 -->
<g id="edge4_Node000004_Node000005" class="edge">
<title>Node4&#45;&gt;Node5</title>
<g id="a_edge4_Node000004_Node000005"><a xlink:title=" ">
<path fill="none" stroke="#63b8ff" d="M159.22,-61.5C147.98,-61.5 136.58,-61.5 125.76,-61.5"/>
<polygon fill="#63b8ff" stroke="#63b8ff" points="158.88,-65 168.88,-61.5 158.88,-58 158.88,-65"/>
</a>
</g>
</g>
<!-- Node6 -->
<g id="Node000006" class="node">
<title>Node6</title>
<g id="a_Node000006"><a xlink:href="structSimulation_1_1KernelInline_1_1MoveFunctor.html#a17c0c65bd46d0e0ff12d8f145dae4219" target="_top" xlink:title=" ">
<polygon fill="white" stroke="#666666" points="125.5,-29 0,-29 0,0 125.5,0 125.5,-29"/>
<text xml:space="preserve" text-anchor="start" x="8" y="-15.5" font-family="Helvetica,sans-Serif" font-size="10.00">Simulation::KernelInline</text>
<text xml:space="preserve" text-anchor="middle" x="62.75" y="-5" font-family="Helvetica,sans-Serif" font-size="10.00">::MoveFunctor::operator()</text>
</a>
</g>
</g>
<!-- Node4&#45;&gt;Node6 -->
<g id="edge5_Node000004_Node000006" class="edge">
<title>Node4&#45;&gt;Node6</title>
<g id="a_edge5_Node000004_Node000006"><a xlink:title=" ">
<path fill="none" stroke="#63b8ff" d="M173.47,-43.68C155.81,-38.98 136.94,-33.96 119.92,-29.44"/>
<polygon fill="#63b8ff" stroke="#63b8ff" points="172.55,-47.05 183.11,-46.24 174.35,-40.29 172.55,-47.05"/>
</a>
</g>
</g>
</g>
</svg>
