<?xml version="1.0" encoding="UTF-8" standalone="no"?>
<!DOCTYPE svg PUBLIC "-//W3C//DTD SVG 1.1//EN"
 "http://www.w3.org/Graphics/SVG/1.1/DTD/svg11.dtd">
<!-- Generated by graphviz version 14.0.1 (0)
 -->
<!-- Title: MC::event_index Pages: 1 -->
<svg width="400pt" height="111pt"
 viewBox="0.00 0.00 400.00 111.00" xmlns="http://www.w3.org/2000/svg" xmlns:xlink="http://www.w3.org/1999/xlink">
<g id="graph0" class="graph" transform="scale(1 1) rotate(0) translate(4 106.75)">
<title>MC::event_index</title>
<!-- Node1 -->
<g id="Node000001" class="node">
<title>Node1</title>
<g id="a_Node000001"><a xlink:title="inline getter, converts event to its value in order to be use as array index">
<polygon fill="#999999" stroke="#666666" points="392.25,-65.75 302.75,-65.75 302.75,-47.25 392.25,-47.25 392.25,-65.75"/>
<text xml:space="preserve" text-anchor="middle" x="347.5" y="-52.25" font-family="Helvetica,sans-Serif" font-size="10.00">MC::event_index</text>
</a>
</g>
</g>
<!-- Node2 -->
<g id="Node000002" class="node">
<title>Node2</title>
<g id="a_Node000002"><a xlink:href="structMC_1_1EventContainer.html#a9d889f4f53b7008b152b1353729c087a" target="_top" xlink:title=" ">
<polygon fill="white" stroke="#666666" points="266.75,-102.75 140.5,-102.75 140.5,-84.25 266.75,-84.25 266.75,-102.75"/>
<text xml:space="preserve" text-anchor="middle" x="203.62" y="-89.25" font-family="Helvetica,sans-Serif" font-size="10.00">MC::EventContainer::add</text>
</a>
</g>
</g>
<!-- Node1&#45;&gt;Node2 -->
<g id="edge1_Node000001_Node000002" class="edge">
<title>Node1&#45;&gt;Node2</title>
<g id="a_edge1_Node000001_Node000002"><a xlink:title=" ">
<path fill="none" stroke="#63b8ff" d="M298.34,-69.06C279.81,-73.89 258.97,-79.33 241.65,-83.84"/>
<polygon fill="#63b8ff" stroke="#63b8ff" points="298.97,-72.51 307.76,-66.6 297.2,-65.74 298.97,-72.51"/>
</a>
</g>
</g>
<!-- Node3 -->
<g id="Node000003" class="node">
<title>Node3</title>
<g id="a_Node000003"><a xlink:href="structMC_1_1EventContainer.html#a2fadba8d7bf92a3d9b3a3aeaf46f1cf9" target="_top" xlink:title="Getter to specific event counter.">
<polygon fill="white" stroke="#666666" points="265.62,-65.75 141.62,-65.75 141.62,-47.25 265.62,-47.25 265.62,-65.75"/>
<text xml:space="preserve" text-anchor="middle" x="203.62" y="-52.25" font-family="Helvetica,sans-Serif" font-size="10.00">MC::EventContainer::get</text>
</a>
</g>
</g>
<!-- Node1&#45;&gt;Node3 -->
<g id="edge2_Node000001_Node000003" class="edge">
<title>Node1&#45;&gt;Node3</title>
<g id="a_edge2_Node000001_Node000003"><a xlink:title=" ">
<path fill="none" stroke="#63b8ff" d="M290.99,-56.5C282.76,-56.5 274.24,-56.5 265.9,-56.5"/>
<polygon fill="#63b8ff" stroke="#63b8ff" points="290.87,-60 300.87,-56.5 290.87,-53 290.87,-60"/>
</a>
</g>
</g>
<!-- Node4 -->
<g id="Node000004" class="node">
<title>Node4</title>
<g id="a_Node000004"><a xlink:href="structMC_1_1EventContainer.html#a70d7122fe5d2521f91e871816ea83e61" target="_top" xlink:title="Increment specific event counter.">
<polygon fill="white" stroke="#666666" points="255.88,-29 151.38,-29 151.38,0 255.88,0 255.88,-29"/>
<text xml:space="preserve" text-anchor="start" x="159.38" y="-15.5" font-family="Helvetica,sans-Serif" font-size="10.00">MC::EventContainer</text>
<text xml:space="preserve" text-anchor="middle" x="203.62" y="-5" font-family="Helvetica,sans-Serif" font-size="10.00">::incr</text>
</a>
</g>
</g>
<!-- Node1&#45;&gt;Node4 -->
<g id="edge3_Node000001_Node000004" class="edge">
<title>Node1&#45;&gt;Node4</title>
<g id="a_edge3_Node000001_Node000004"><a xlink:title=" ">
<path fill="none" stroke="#63b8ff" d="M302.98,-43.62C287.86,-39.14 270.78,-34.08 255.14,-29.46"/>
<polygon fill="#63b8ff" stroke="#63b8ff" points="301.56,-46.85 312.14,-46.33 303.55,-40.13 301.56,-46.85"/>
</a>
</g>
</g>
<!-- Node5 -->
<g id="Node000005" class="node">
<title>Node5</title>
<g id="a_Node000005"><a xlink:href="structMC_1_1EventContainer.html#a117575ad89e1abca8ad66cb704c18bd5" target="_top" xlink:title=" ">
<polygon fill="white" stroke="#666666" points="104.5,-29 0,-29 0,0 104.5,0 104.5,-29"/>
<text xml:space="preserve" text-anchor="start" x="8" y="-15.5" font-family="Helvetica,sans-Serif" font-size="10.00">MC::EventContainer</text>
<text xml:space="preserve" text-anchor="middle" x="52.25" y="-5" font-family="Helvetica,sans-Serif" font-size="10.00">::wrap_incr</text>
</a>
</g>
</g>
<!-- Node4&#45;&gt;Node5 -->
<g id="edge4_Node000004_Node000005" class="edge">
<title>Node4&#45;&gt;Node5</title>
<g id="a_edge4_Node000004_Node000005"><a xlink:title=" ">
<path fill="none" stroke="#63b8ff" d="M139.73,-14.5C128.07,-14.5 116.02,-14.5 104.75,-14.5"/>
<polygon fill="#63b8ff" stroke="#63b8ff" points="139.71,-18 149.71,-14.5 139.71,-11 139.71,-18"/>
</a>
</g>
</g>
</g>
</svg>
