<?xml version="1.0" encoding="UTF-8" standalone="no"?>
<!DOCTYPE svg PUBLIC "-//W3C//DTD SVG 1.1//EN"
 "http://www.w3.org/Graphics/SVG/1.1/DTD/svg11.dtd">
<!-- Generated by graphviz version 14.0.1 (0)
 -->
<!-- Title: WrapMPI::broadcast Pages: 1 -->
<svg width="550pt" height="74pt"
 viewBox="0.00 0.00 550.00 74.00" xmlns="http://www.w3.org/2000/svg" xmlns:xlink="http://www.w3.org/1999/xlink">
<g id="graph0" class="graph" transform="scale(1 1) rotate(0) translate(4 69.75)">
<title>WrapMPI::broadcast</title>
<!-- Node1 -->
<g id="Node000001" class="node">
<title>Node1</title>
<g id="a_Node000001"><a xlink:title="Broadcasts a single data item to all processes.">
<polygon fill="#999999" stroke="#666666" points="541.75,-44.75 437.25,-44.75 437.25,-26.25 541.75,-26.25 541.75,-44.75"/>
<text xml:space="preserve" text-anchor="middle" x="489.5" y="-31.25" font-family="Helvetica,sans-Serif" font-size="10.00">WrapMPI::broadcast</text>
</a>
</g>
</g>
<!-- Node2 -->
<g id="Node000002" class="node">
<title>Node2</title>
<g id="a_Node000002"><a xlink:href="namespaceWrapMPI.html#a166c6e5ac2d338a1d6f554532dd43b80" target="_top" xlink:title=" ">
<polygon fill="white" stroke="#666666" points="398.62,-65.75 294.12,-65.75 294.12,-47.25 398.62,-47.25 398.62,-65.75"/>
<text xml:space="preserve" text-anchor="middle" x="346.38" y="-52.25" font-family="Helvetica,sans-Serif" font-size="10.00">WrapMPI::broadcast</text>
</a>
</g>
</g>
<!-- Node1&#45;&gt;Node2 -->
<g id="edge1_Node000001_Node000002" class="edge">
<title>Node1&#45;&gt;Node2</title>
<g id="a_edge1_Node000001_Node000002"><a xlink:title=" ">
<path fill="none" stroke="#63b8ff" d="M425.65,-44.85C416.78,-46.17 407.75,-47.52 399.12,-48.8"/>
<polygon fill="#63b8ff" stroke="#63b8ff" points="425.88,-48.36 435.25,-43.42 424.85,-41.43 425.88,-48.36"/>
</a>
</g>
</g>
<!-- Node3 -->
<g id="Node000003" class="node">
<title>Node3</title>
<g id="a_Node000003"><a xlink:href="classCore_1_1GlobalInitialiser.html#aa042e8d396a5287c49fb6a8b81eba209" target="_top" xlink:title="Performs MPI broadcast for synchronization.">
<polygon fill="white" stroke="#666666" points="401.25,-29 291.5,-29 291.5,0 401.25,0 401.25,-29"/>
<text xml:space="preserve" text-anchor="start" x="299.5" y="-15.5" font-family="Helvetica,sans-Serif" font-size="10.00">Core::GlobalInitialiser</text>
<text xml:space="preserve" text-anchor="middle" x="346.38" y="-5" font-family="Helvetica,sans-Serif" font-size="10.00">::mpi_broadcast</text>
</a>
</g>
</g>
<!-- Node1&#45;&gt;Node3 -->
<g id="edge2_Node000001_Node000003" class="edge">
<title>Node1&#45;&gt;Node3</title>
<g id="a_edge2_Node000001_Node000003"><a xlink:title=" ">
<path fill="none" stroke="#63b8ff" d="M425.54,-26.13C417.51,-24.94 409.36,-23.72 401.49,-22.55"/>
<polygon fill="#63b8ff" stroke="#63b8ff" points="424.85,-29.57 435.25,-27.58 425.88,-22.64 424.85,-29.57"/>
</a>
</g>
</g>
<!-- Node4 -->
<g id="Node000004" class="node">
<title>Node4</title>
<g id="a_Node000004"><a xlink:href="classCore_1_1GlobalInitialiser.html#a97eff5566ced6ba6449eb532f0babadc" target="_top" xlink:title="Initializes a flow iterator.">
<polygon fill="white" stroke="#666666" points="255.5,-29 145.75,-29 145.75,0 255.5,0 255.5,-29"/>
<text xml:space="preserve" text-anchor="start" x="153.75" y="-15.5" font-family="Helvetica,sans-Serif" font-size="10.00">Core::GlobalInitialiser</text>
<text xml:space="preserve" text-anchor="middle" x="200.62" y="-5" font-family="Helvetica,sans-Serif" font-size="10.00">::init_state</text>
</a>
</g>
</g>
<!-- Node3&#45;&gt;Node4 -->
<g id="edge3_Node000003_Node000004" class="edge">
<title>Node3&#45;&gt;Node4</title>
<g id="a_edge3_Node000003_Node000004"><a xlink:title=" ">
<path fill="none" stroke="#63b8ff" d="M279.72,-14.5C271.64,-14.5 263.45,-14.5 255.57,-14.5"/>
<polygon fill="#63b8ff" stroke="#63b8ff" points="279.52,-18 289.52,-14.5 279.52,-11 279.52,-18"/>
</a>
</g>
</g>
<!-- Node5 -->
<g id="Node000005" class="node">
<title>Node5</title>
<g id="a_Node000005"><a xlink:href="classCore_1_1GlobalInitialiser.html#a0dc2da93c4202706b5f37453f355145c" target="_top" xlink:title="Initializes a transitioner with the provided flow iterator.">
<polygon fill="white" stroke="#666666" points="109.75,-29 0,-29 0,0 109.75,0 109.75,-29"/>
<text xml:space="preserve" text-anchor="start" x="8" y="-15.5" font-family="Helvetica,sans-Serif" font-size="10.00">Core::GlobalInitialiser</text>
<text xml:space="preserve" text-anchor="middle" x="54.88" y="-5" font-family="Helvetica,sans-Serif" font-size="10.00">::init_transitionner</text>
</a>
</g>
</g>
<!-- Node4&#45;&gt;Node5 -->
<g id="edge4_Node000004_Node000005" class="edge">
<title>Node4&#45;&gt;Node5</title>
<g id="a_edge4_Node000004_Node000005"><a xlink:title=" ">
<path fill="none" stroke="#63b8ff" d="M133.97,-14.5C125.89,-14.5 117.7,-14.5 109.82,-14.5"/>
<polygon fill="#63b8ff" stroke="#63b8ff" points="133.77,-18 143.77,-14.5 133.77,-11 133.77,-18"/>
</a>
</g>
</g>
</g>
</svg>
