<?xml version="1.0" encoding="UTF-8" standalone="no"?>
<!DOCTYPE svg PUBLIC "-//W3C//DTD SVG 1.1//EN"
 "http://www.w3.org/Graphics/SVG/1.1/DTD/svg11.dtd">
<!-- Generated by graphviz version 14.0.1 (0)
 -->
<!-- Title: Models::f_saturation Pages: 1 -->
<svg width="893pt" height="97pt"
 viewBox="0.00 0.00 893.00 97.00" xmlns="http://www.w3.org/2000/svg" xmlns:xlink="http://www.w3.org/1999/xlink">
<g id="graph0" class="graph" transform="scale(1 1) rotate(0) translate(4 93)">
<title>Models::f_saturation</title>
<!-- Node1 -->
<g id="Node000001" class="node">
<title>Node1</title>
<g id="a_Node000001"><a xlink:title=" ">
<polygon fill="#999999" stroke="#666666" points="885,-44.75 780.5,-44.75 780.5,-26.25 885,-26.25 885,-44.75"/>
<text xml:space="preserve" text-anchor="middle" x="832.75" y="-31.25" font-family="Helvetica,sans-Serif" font-size="10.00">Models::f_saturation</text>
</a>
</g>
</g>
<!-- Node2 -->
<g id="Node000002" class="node">
<title>Node2</title>
<g id="a_Node000002"><a xlink:href="structModels_1_1Uptake.html#a4678e2ba17d3206a046a14ed2460a6b2" target="_top" xlink:title=" ">
<polygon fill="white" stroke="#666666" points="744.5,-65.75 638.5,-65.75 638.5,-47.25 744.5,-47.25 744.5,-65.75"/>
<text xml:space="preserve" text-anchor="middle" x="691.5" y="-52.25" font-family="Helvetica,sans-Serif" font-size="10.00">Models::Uptake::f_G</text>
</a>
</g>
</g>
<!-- Node1&#45;&gt;Node2 -->
<g id="edge1_Node000001_Node000002" class="edge">
<title>Node1&#45;&gt;Node2</title>
<g id="a_edge1_Node000001_Node000002"><a xlink:title=" ">
<path fill="none" stroke="#63b8ff" d="M768.95,-44.97C760.83,-46.19 752.59,-47.44 744.67,-48.63"/>
<polygon fill="#63b8ff" stroke="#63b8ff" points="769.43,-48.44 778.8,-43.49 768.39,-41.52 769.43,-48.44"/>
</a>
</g>
</g>
<!-- Node7 -->
<g id="Node000007" class="node">
<title>Node7</title>
<g id="a_Node000007"><a xlink:href="structModels_1_1Uptake.html#a86c86b134ce5505227968ede9c60c8db" target="_top" xlink:title=" ">
<polygon fill="white" stroke="#666666" points="593.12,-29 490.12,-29 490.12,0 593.12,0 593.12,-29"/>
<text xml:space="preserve" text-anchor="start" x="498.12" y="-15.5" font-family="Helvetica,sans-Serif" font-size="10.00">Models::Uptake::phi</text>
<text xml:space="preserve" text-anchor="middle" x="541.62" y="-5" font-family="Helvetica,sans-Serif" font-size="10.00">_permease</text>
</a>
</g>
</g>
<!-- Node1&#45;&gt;Node7 -->
<g id="edge7_Node000001_Node000007" class="edge">
<title>Node1&#45;&gt;Node7</title>
<g id="a_edge7_Node000001_Node000007"><a xlink:title=" ">
<path fill="none" stroke="#63b8ff" d="M768.85,-30.93C716.27,-27.11 642.25,-21.74 593.38,-18.19"/>
<polygon fill="#63b8ff" stroke="#63b8ff" points="768.32,-34.4 778.55,-31.64 768.83,-27.42 768.32,-34.4"/>
</a>
</g>
</g>
<!-- Node3 -->
<g id="Node000003" class="node">
<title>Node3</title>
<g id="a_Node000003"><a xlink:href="structModels_1_1Uptake.html#a3a55e9132d39efd1185cf726946b4fb0" target="_top" xlink:title=" ">
<polygon fill="white" stroke="#666666" points="602.5,-65.75 480.75,-65.75 480.75,-47.25 602.5,-47.25 602.5,-65.75"/>
<text xml:space="preserve" text-anchor="middle" x="541.62" y="-52.25" font-family="Helvetica,sans-Serif" font-size="10.00">Models::Uptake::phi_pts</text>
</a>
</g>
</g>
<!-- Node2&#45;&gt;Node3 -->
<g id="edge2_Node000002_Node000003" class="edge">
<title>Node2&#45;&gt;Node3</title>
<g id="a_edge2_Node000002_Node000003"><a xlink:title=" ">
<path fill="none" stroke="#63b8ff" d="M626.86,-56.5C618.91,-56.5 610.78,-56.5 602.88,-56.5"/>
<polygon fill="#63b8ff" stroke="#63b8ff" points="626.85,-60 636.85,-56.5 626.85,-53 626.85,-60"/>
</a>
</g>
</g>
<!-- Node5 -->
<g id="Node000005" class="node">
<title>Node5</title>
<g id="a_Node000005"><a xlink:href="structModels_1_1Uptake.html#aa49ff7f6c6612f124457541d05e080ae" target="_top" xlink:title=" ">
<polygon fill="white" stroke="#666666" points="290,-83.75 147.25,-83.75 147.25,-65.25 290,-65.25 290,-83.75"/>
<text xml:space="preserve" text-anchor="middle" x="218.62" y="-70.25" font-family="Helvetica,sans-Serif" font-size="10.00">Models::Uptake::uptake_step</text>
</a>
</g>
</g>
<!-- Node2&#45;&gt;Node5 -->
<g id="edge6_Node000002_Node000005" class="edge">
<title>Node2&#45;&gt;Node5</title>
<g id="a_edge6_Node000002_Node000005"><a xlink:title=" ">
<path fill="none" stroke="#63b8ff" d="M640.69,-68.51C628.29,-70.99 614.97,-73.24 602.5,-74.5 494.04,-85.48 367.41,-82.39 290.41,-78.75"/>
<polygon fill="#63b8ff" stroke="#63b8ff" points="641.22,-71.97 650.29,-66.49 639.78,-65.12 641.22,-71.97"/>
</a>
</g>
</g>
<!-- Node4 -->
<g id="Node000004" class="node">
<title>Node4</title>
<g id="a_Node000004"><a xlink:href="structModels_1_1Uptake.html#a4f234fec9f9f9ab26e607310ab95291f" target="_top" xlink:title=" ">
<polygon fill="white" stroke="#666666" points="444.75,-65.75 326,-65.75 326,-47.25 444.75,-47.25 444.75,-65.75"/>
<text xml:space="preserve" text-anchor="middle" x="385.38" y="-52.25" font-family="Helvetica,sans-Serif" font-size="10.00">Models::Uptake::uptake</text>
</a>
</g>
</g>
<!-- Node3&#45;&gt;Node4 -->
<g id="edge3_Node000003_Node000004" class="edge">
<title>Node3&#45;&gt;Node4</title>
<g id="a_edge3_Node000003_Node000004"><a xlink:title=" ">
<path fill="none" stroke="#63b8ff" d="M469.2,-56.5C461.1,-56.5 452.93,-56.5 445.02,-56.5"/>
<polygon fill="#63b8ff" stroke="#63b8ff" points="469.03,-60 479.03,-56.5 469.03,-53 469.03,-60"/>
</a>
</g>
</g>
<!-- Node4&#45;&gt;Node5 -->
<g id="edge4_Node000004_Node000005" class="edge">
<title>Node4&#45;&gt;Node5</title>
<g id="a_edge4_Node000004_Node000005"><a xlink:title=" ">
<path fill="none" stroke="#63b8ff" d="M314.63,-64.12C306.61,-65 298.43,-65.89 290.4,-66.77"/>
<polygon fill="#63b8ff" stroke="#63b8ff" points="314.76,-67.63 324.32,-63.06 314,-60.67 314.76,-67.63"/>
</a>
</g>
</g>
<!-- Node6 -->
<g id="Node000006" class="node">
<title>Node6</title>
<g id="a_Node000006"><a xlink:href="structModels_1_1TwoMetaNb.html#af87eb2560275107bff615f9a54bfeeda" target="_top" xlink:title=" ">
<polygon fill="white" stroke="#666666" points="111.25,-89 0,-89 0,-60 111.25,-60 111.25,-89"/>
<text xml:space="preserve" text-anchor="start" x="8" y="-75.5" font-family="Helvetica,sans-Serif" font-size="10.00">Models::TwoMetaNb::</text>
<text xml:space="preserve" text-anchor="middle" x="55.62" y="-65" font-family="Helvetica,sans-Serif" font-size="10.00">update</text>
</a>
</g>
</g>
<!-- Node5&#45;&gt;Node6 -->
<g id="edge5_Node000005_Node000006" class="edge">
<title>Node5&#45;&gt;Node6</title>
<g id="a_edge5_Node000005_Node000006"><a xlink:title=" ">
<path fill="none" stroke="#63b8ff" d="M135.59,-74.5C127.49,-74.5 119.42,-74.5 111.7,-74.5"/>
<polygon fill="#63b8ff" stroke="#63b8ff" points="135.49,-78 145.49,-74.5 135.49,-71 135.49,-78"/>
</a>
</g>
</g>
<!-- Node7&#45;&gt;Node4 -->
<g id="edge8_Node000007_Node000004" class="edge">
<title>Node7&#45;&gt;Node4</title>
<g id="a_edge8_Node000007_Node000004"><a xlink:title=" ">
<path fill="none" stroke="#63b8ff" d="M478.85,-31.32C459.59,-36.57 438.99,-42.17 422.14,-46.76"/>
<polygon fill="#63b8ff" stroke="#63b8ff" points="479.5,-34.77 488.23,-28.77 477.66,-28.02 479.5,-34.77"/>
</a>
</g>
</g>
</g>
</svg>
