<?xml version="1.0" encoding="UTF-8" standalone="no"?>
<!DOCTYPE svg PUBLIC "-//W3C//DTD SVG 1.1//EN"
 "http://www.w3.org/Graphics/SVG/1.1/DTD/svg11.dtd">
<!-- Generated by graphviz version 14.0.1 (0)
 -->
<!-- Title: Common::get_policy Pages: 1 -->
<svg width="407pt" height="27pt"
 viewBox="0.00 0.00 407.00 27.00" xmlns="http://www.w3.org/2000/svg" xmlns:xlink="http://www.w3.org/1999/xlink">
<g id="graph0" class="graph" transform="scale(1 1) rotate(0) translate(4 22.5)">
<title>Common::get_policy</title>
<!-- Node1 -->
<g id="Node000001" class="node">
<title>Node1</title>
<g id="a_Node000001"><a xlink:title=" ">
<polygon fill="#999999" stroke="#666666" points="106,-18.5 0,-18.5 0,0 106,0 106,-18.5"/>
<text xml:space="preserve" text-anchor="middle" x="53" y="-5" font-family="Helvetica,sans-Serif" font-size="10.00">Common::get_policy</text>
</a>
</g>
</g>
<!-- Node2 -->
<g id="Node000002" class="node">
<title>Node2</title>
<g id="a_Node000002"><a xlink:href="namespaceCommon.html#ad3d68e79e4dbd7836f3090e662e01dba" target="_top" xlink:title=" ">
<polygon fill="white" stroke="#666666" points="248,-18.5 142,-18.5 142,0 248,0 248,-18.5"/>
<text xml:space="preserve" text-anchor="middle" x="195" y="-5" font-family="Helvetica,sans-Serif" font-size="10.00">Common::get_policy</text>
</a>
</g>
</g>
<!-- Node1&#45;&gt;Node2 -->
<g id="edge1_Node000001_Node000002" class="edge">
<title>Node1&#45;&gt;Node2</title>
<g id="a_edge1_Node000001_Node000002"><a xlink:title=" ">
<path fill="none" stroke="#63b8ff" d="M106.13,-9.25C114.06,-9.25 122.31,-9.25 130.45,-9.25"/>
<polygon fill="#63b8ff" stroke="#63b8ff" points="130.31,-12.75 140.31,-9.25 130.31,-5.75 130.31,-12.75"/>
</a>
</g>
</g>
<!-- Node3 -->
<g id="Node000003" class="node">
<title>Node3</title>
<g id="a_Node000003"><a xlink:href="namespaceCommon.html#a7ca16dc3314f89cd1860091731cd7014" target="_top" xlink:title="Wrapper arround get_env to get envariable with fallback to default.">
<polygon fill="white" stroke="#666666" points="399,-18.5 284,-18.5 284,0 399,0 399,-18.5"/>
<text xml:space="preserve" text-anchor="middle" x="341.5" y="-5" font-family="Helvetica,sans-Serif" font-size="10.00">Common::read_env_or</text>
</a>
</g>
</g>
<!-- Node2&#45;&gt;Node3 -->
<g id="edge2_Node000002_Node000003" class="edge">
<title>Node2&#45;&gt;Node3</title>
<g id="a_edge2_Node000002_Node000003"><a xlink:title=" ">
<path fill="none" stroke="#63b8ff" d="M248.17,-9.25C255.97,-9.25 264.11,-9.25 272.19,-9.25"/>
<polygon fill="#63b8ff" stroke="#63b8ff" points="272.01,-12.75 282.01,-9.25 272.01,-5.75 272.01,-12.75"/>
</a>
</g>
</g>
</g>
</svg>
