<?xml version="1.0" encoding="UTF-8" standalone="no"?>
<!DOCTYPE svg PUBLIC "-//W3C//DTD SVG 1.1//EN"
 "http://www.w3.org/Graphics/SVG/1.1/DTD/svg11.dtd">
<!-- Generated by graphviz version 12.1.2 (0)
 -->
<!-- Title: WrapMPI::_gather_unsafe Pages: 1 -->
<svg width="272pt" height="64pt"
 viewBox="0.00 0.00 271.75 63.50" xmlns="http://www.w3.org/2000/svg" xmlns:xlink="http://www.w3.org/1999/xlink">
<g id="graph0" class="graph" transform="scale(1 1) rotate(0) translate(4 59.5)">
<title>WrapMPI::_gather_unsafe</title>
<!-- Node1 -->
<g id="Node000001" class="node">
<title>Node1</title>
<g id="a_Node000001"><a xlink:title="Gathers raw data from all processes in an unsafe manner.">
<polygon fill="#999999" stroke="#666666" points="263.75,-36.5 135.25,-36.5 135.25,-18 263.75,-18 263.75,-36.5"/>
<text text-anchor="middle" x="199.5" y="-23" font-family="Helvetica,sans-Serif" font-size="10.00">WrapMPI::_gather_unsafe</text>
</a>
</g>
</g>
<!-- Node2 -->
<g id="Node000002" class="node">
<title>Node2</title>
<g id="a_Node000002"><a xlink:href="namespaceWrapMPI.html#a5cd65b924b505503f88fae43fb8270ee" target="_top" xlink:title="Gathers data from all processes.">
<polygon fill="white" stroke="#666666" points="94,-55.5 5.25,-55.5 5.25,-37 94,-37 94,-55.5"/>
<text text-anchor="middle" x="49.62" y="-42" font-family="Helvetica,sans-Serif" font-size="10.00">WrapMPI::gather</text>
</a>
</g>
</g>
<!-- Node1&#45;&gt;Node2 -->
<g id="edge1_Node000001_Node000002" class="edge">
<title>Node1&#45;&gt;Node2</title>
<g id="a_edge1_Node000001_Node000002"><a xlink:title=" ">
<path fill="none" stroke="#63b8ff" d="M123.56,-36.88C113.46,-38.18 103.39,-39.47 94.09,-40.66"/>
<polygon fill="#63b8ff" stroke="#63b8ff" points="123.96,-40.36 133.43,-35.61 123.06,-33.41 123.96,-40.36"/>
</a>
</g>
</g>
<!-- Node3 -->
<g id="Node000003" class="node">
<title>Node3</title>
<g id="a_Node000003"><a xlink:href="namespaceWrapMPI.html#a6c82ee24a6d0fe8ee85a173f65f39907" target="_top" xlink:title="Gathers a vector of data from all processes.">
<polygon fill="white" stroke="#666666" points="99.25,-18.5 0,-18.5 0,0 99.25,0 99.25,-18.5"/>
<text text-anchor="middle" x="49.62" y="-5" font-family="Helvetica,sans-Serif" font-size="10.00">WrapMPI::gather_v</text>
</a>
</g>
</g>
<!-- Node1&#45;&gt;Node3 -->
<g id="edge2_Node000001_Node000003" class="edge">
<title>Node1&#45;&gt;Node3</title>
<g id="a_edge2_Node000001_Node000003"><a xlink:title=" ">
<path fill="none" stroke="#63b8ff" d="M123.71,-18.15C115.45,-17.14 107.22,-16.14 99.4,-15.19"/>
<polygon fill="#63b8ff" stroke="#63b8ff" points="123.08,-21.59 133.43,-19.33 123.92,-14.65 123.08,-21.59"/>
</a>
</g>
</g>
</g>
</svg>
