<?xml version="1.0" encoding="UTF-8" standalone="no"?>
<!DOCTYPE svg PUBLIC "-//W3C//DTD SVG 1.1//EN"
 "http://www.w3.org/Graphics/SVG/1.1/DTD/svg11.dtd">
<!-- Generated by graphviz version 14.0.1 (0)
 -->
<!-- Title: Models::f_saturation Pages: 1 -->
<svg width="746pt" height="92pt"
 viewBox="0.00 0.00 746.00 92.00" xmlns="http://www.w3.org/2000/svg" xmlns:xlink="http://www.w3.org/1999/xlink">
<g id="graph0" class="graph" transform="scale(1 1) rotate(0) translate(4 87.75)">
<title>Models::f_saturation</title>
<!-- Node1 -->
<g id="Node000001" class="node">
<title>Node1</title>
<g id="a_Node000001"><a xlink:title=" ">
<polygon fill="#999999" stroke="#666666" points="737.75,-44.75 633.25,-44.75 633.25,-26.25 737.75,-26.25 737.75,-44.75"/>
<text xml:space="preserve" text-anchor="middle" x="685.5" y="-31.25" font-family="Helvetica,sans-Serif" font-size="10.00">Models::f_saturation</text>
</a>
</g>
</g>
<!-- Node2 -->
<g id="Node000002" class="node">
<title>Node2</title>
<g id="a_Node000002"><a xlink:href="structModels_1_1Uptake.html#a4678e2ba17d3206a046a14ed2460a6b2" target="_top" xlink:title=" ">
<polygon fill="white" stroke="#666666" points="597.25,-65.75 491.25,-65.75 491.25,-47.25 597.25,-47.25 597.25,-65.75"/>
<text xml:space="preserve" text-anchor="middle" x="544.25" y="-52.25" font-family="Helvetica,sans-Serif" font-size="10.00">Models::Uptake::f_G</text>
</a>
</g>
</g>
<!-- Node1&#45;&gt;Node2 -->
<g id="edge1_Node000001_Node000002" class="edge">
<title>Node1&#45;&gt;Node2</title>
<g id="a_edge1_Node000001_Node000002"><a xlink:title=" ">
<path fill="none" stroke="#63b8ff" d="M621.7,-44.97C613.58,-46.19 605.34,-47.44 597.42,-48.63"/>
<polygon fill="#63b8ff" stroke="#63b8ff" points="622.18,-48.44 631.55,-43.49 621.14,-41.52 622.18,-48.44"/>
</a>
</g>
</g>
<!-- Node6 -->
<g id="Node000006" class="node">
<title>Node6</title>
<g id="a_Node000006"><a xlink:href="structModels_1_1Uptake.html#a86c86b134ce5505227968ede9c60c8db" target="_top" xlink:title=" ">
<polygon fill="white" stroke="#666666" points="445.88,-29 342.88,-29 342.88,0 445.88,0 445.88,-29"/>
<text xml:space="preserve" text-anchor="start" x="350.88" y="-15.5" font-family="Helvetica,sans-Serif" font-size="10.00">Models::Uptake::phi</text>
<text xml:space="preserve" text-anchor="middle" x="394.38" y="-5" font-family="Helvetica,sans-Serif" font-size="10.00">_permease</text>
</a>
</g>
</g>
<!-- Node1&#45;&gt;Node6 -->
<g id="edge6_Node000001_Node000006" class="edge">
<title>Node1&#45;&gt;Node6</title>
<g id="a_edge6_Node000001_Node000006"><a xlink:title=" ">
<path fill="none" stroke="#63b8ff" d="M621.6,-30.93C569.02,-27.11 495,-21.74 446.13,-18.19"/>
<polygon fill="#63b8ff" stroke="#63b8ff" points="621.07,-34.4 631.3,-31.64 621.58,-27.42 621.07,-34.4"/>
</a>
</g>
</g>
<!-- Node3 -->
<g id="Node000003" class="node">
<title>Node3</title>
<g id="a_Node000003"><a xlink:href="structModels_1_1Uptake.html#a3a55e9132d39efd1185cf726946b4fb0" target="_top" xlink:title=" ">
<polygon fill="white" stroke="#666666" points="455.25,-65.75 333.5,-65.75 333.5,-47.25 455.25,-47.25 455.25,-65.75"/>
<text xml:space="preserve" text-anchor="middle" x="394.38" y="-52.25" font-family="Helvetica,sans-Serif" font-size="10.00">Models::Uptake::phi_pts</text>
</a>
</g>
</g>
<!-- Node2&#45;&gt;Node3 -->
<g id="edge2_Node000002_Node000003" class="edge">
<title>Node2&#45;&gt;Node3</title>
<g id="a_edge2_Node000002_Node000003"><a xlink:title=" ">
<path fill="none" stroke="#63b8ff" d="M479.61,-56.5C471.66,-56.5 463.53,-56.5 455.63,-56.5"/>
<polygon fill="#63b8ff" stroke="#63b8ff" points="479.6,-60 489.6,-56.5 479.6,-53 479.6,-60"/>
</a>
</g>
</g>
<!-- Node5 -->
<g id="Node000005" class="node">
<title>Node5</title>
<g id="a_Node000005"><a xlink:href="structModels_1_1Uptake.html#aa49ff7f6c6612f124457541d05e080ae" target="_top" xlink:title=" ">
<polygon fill="white" stroke="#666666" points="142.75,-83.75 0,-83.75 0,-65.25 142.75,-65.25 142.75,-83.75"/>
<text xml:space="preserve" text-anchor="middle" x="71.38" y="-70.25" font-family="Helvetica,sans-Serif" font-size="10.00">Models::Uptake::uptake_step</text>
</a>
</g>
</g>
<!-- Node2&#45;&gt;Node5 -->
<g id="edge5_Node000002_Node000005" class="edge">
<title>Node2&#45;&gt;Node5</title>
<g id="a_edge5_Node000002_Node000005"><a xlink:title=" ">
<path fill="none" stroke="#63b8ff" d="M493.44,-68.51C481.04,-70.99 467.72,-73.24 455.25,-74.5 346.79,-85.48 220.16,-82.39 143.16,-78.75"/>
<polygon fill="#63b8ff" stroke="#63b8ff" points="493.97,-71.97 503.04,-66.49 492.53,-65.12 493.97,-71.97"/>
</a>
</g>
</g>
<!-- Node4 -->
<g id="Node000004" class="node">
<title>Node4</title>
<g id="a_Node000004"><a xlink:href="structModels_1_1Uptake.html#a4f234fec9f9f9ab26e607310ab95291f" target="_top" xlink:title=" ">
<polygon fill="white" stroke="#666666" points="297.5,-65.75 178.75,-65.75 178.75,-47.25 297.5,-47.25 297.5,-65.75"/>
<text xml:space="preserve" text-anchor="middle" x="238.12" y="-52.25" font-family="Helvetica,sans-Serif" font-size="10.00">Models::Uptake::uptake</text>
</a>
</g>
</g>
<!-- Node3&#45;&gt;Node4 -->
<g id="edge3_Node000003_Node000004" class="edge">
<title>Node3&#45;&gt;Node4</title>
<g id="a_edge3_Node000003_Node000004"><a xlink:title=" ">
<path fill="none" stroke="#63b8ff" d="M321.95,-56.5C313.85,-56.5 305.68,-56.5 297.77,-56.5"/>
<polygon fill="#63b8ff" stroke="#63b8ff" points="321.78,-60 331.78,-56.5 321.78,-53 321.78,-60"/>
</a>
</g>
</g>
<!-- Node4&#45;&gt;Node5 -->
<g id="edge4_Node000004_Node000005" class="edge">
<title>Node4&#45;&gt;Node5</title>
<g id="a_edge4_Node000004_Node000005"><a xlink:title=" ">
<path fill="none" stroke="#63b8ff" d="M167.38,-64.12C159.36,-65 151.18,-65.89 143.15,-66.77"/>
<polygon fill="#63b8ff" stroke="#63b8ff" points="167.51,-67.63 177.07,-63.06 166.75,-60.67 167.51,-67.63"/>
</a>
</g>
</g>
<!-- Node6&#45;&gt;Node4 -->
<g id="edge7_Node000006_Node000004" class="edge">
<title>Node6&#45;&gt;Node4</title>
<g id="a_edge7_Node000006_Node000004"><a xlink:title=" ">
<path fill="none" stroke="#63b8ff" d="M331.6,-31.32C312.34,-36.57 291.74,-42.17 274.89,-46.76"/>
<polygon fill="#63b8ff" stroke="#63b8ff" points="332.25,-34.77 340.98,-28.77 330.41,-28.02 332.25,-34.77"/>
</a>
</g>
</g>
</g>
</svg>
