<?xml version="1.0" encoding="UTF-8" standalone="no"?>
<!DOCTYPE svg PUBLIC "-//W3C//DTD SVG 1.1//EN"
 "http://www.w3.org/Graphics/SVG/1.1/DTD/svg11.dtd">
<!-- Generated by graphviz version 14.0.1 (0)
 -->
<!-- Title: MC::init Pages: 1 -->
<svg width="334pt" height="37pt"
 viewBox="0.00 0.00 334.00 37.00" xmlns="http://www.w3.org/2000/svg" xmlns:xlink="http://www.w3.org/1999/xlink">
<g id="graph0" class="graph" transform="scale(1 1) rotate(0) translate(4 33)">
<title>MC::init</title>
<!-- Node1 -->
<g id="Node000001" class="node">
<title>Node1</title>
<g id="a_Node000001"><a xlink:title="Helper function to initialize a MonteCarloUnit.">
<polygon fill="#999999" stroke="#666666" points="50.5,-23.75 0,-23.75 0,-5.25 50.5,-5.25 50.5,-23.75"/>
<text xml:space="preserve" text-anchor="middle" x="25.25" y="-10.25" font-family="Helvetica,sans-Serif" font-size="10.00">MC::init</text>
</a>
</g>
</g>
<!-- Node2 -->
<g id="Node000002" class="node">
<title>Node2</title>
<g id="a_Node000002"><a xlink:href="namespaceMC.html#aabb3d28b6ac38413f8d34f525d26942f" target="_top" xlink:title=" ">
<polygon fill="white" stroke="#666666" points="160.25,-23.75 86.5,-23.75 86.5,-5.25 160.25,-5.25 160.25,-23.75"/>
<text xml:space="preserve" text-anchor="middle" x="123.38" y="-10.25" font-family="Helvetica,sans-Serif" font-size="10.00">MC::impl_init</text>
</a>
</g>
</g>
<!-- Node1&#45;&gt;Node2 -->
<g id="edge1_Node000001_Node000002" class="edge">
<title>Node1&#45;&gt;Node2</title>
<g id="a_edge1_Node000001_Node000002"><a xlink:title=" ">
<path fill="none" stroke="#63b8ff" d="M50.76,-14.5C58.17,-14.5 66.59,-14.5 74.97,-14.5"/>
<polygon fill="#63b8ff" stroke="#63b8ff" points="74.78,-18 84.78,-14.5 74.78,-11 74.78,-18"/>
</a>
</g>
</g>
<!-- Node3 -->
<g id="Node000003" class="node">
<title>Node3</title>
<g id="a_Node000003"><a xlink:href="classMC_1_1ReactorDomain.html#adf8edb6cba4ee63f14c48ebadb73fb2e" target="_top" xlink:title="Return the number of compartment in the domain.">
<polygon fill="white" stroke="#666666" points="325.5,-29 196.25,-29 196.25,0 325.5,0 325.5,-29"/>
<text xml:space="preserve" text-anchor="start" x="204.25" y="-15.5" font-family="Helvetica,sans-Serif" font-size="10.00">MC::ReactorDomain::</text>
<text xml:space="preserve" text-anchor="middle" x="260.88" y="-5" font-family="Helvetica,sans-Serif" font-size="10.00">getNumberCompartments</text>
</a>
</g>
</g>
<!-- Node2&#45;&gt;Node3 -->
<g id="edge2_Node000002_Node000003" class="edge">
<title>Node2&#45;&gt;Node3</title>
<g id="a_edge2_Node000002_Node000003"><a xlink:title=" ">
<path fill="none" stroke="#63b8ff" d="M160.69,-14.5C168.18,-14.5 176.33,-14.5 184.63,-14.5"/>
<polygon fill="#63b8ff" stroke="#63b8ff" points="184.48,-18 194.48,-14.5 184.48,-11 184.48,-18"/>
</a>
</g>
</g>
</g>
</svg>
