<?xml version="1.0" encoding="UTF-8" standalone="no"?>
<!DOCTYPE svg PUBLIC "-//W3C//DTD SVG 1.1//EN"
 "http://www.w3.org/Graphics/SVG/1.1/DTD/svg11.dtd">
<!-- Generated by graphviz version 12.1.2 (0)
 -->
<!-- Title: WrapMPI::send Pages: 1 -->
<svg width="385pt" height="27pt"
 viewBox="0.00 0.00 384.50 26.50" xmlns="http://www.w3.org/2000/svg" xmlns:xlink="http://www.w3.org/1999/xlink">
<g id="graph0" class="graph" transform="scale(1 1) rotate(0) translate(4 22.5)">
<title>WrapMPI::send</title>
<!-- Node1 -->
<g id="Node000001" class="node">
<title>Node1</title>
<g id="a_Node000001"><a xlink:title="Sends a single instance of data to a destination.">
<polygon fill="#999999" stroke="#666666" points="82.75,-18.5 0,-18.5 0,0 82.75,0 82.75,-18.5"/>
<text text-anchor="middle" x="41.38" y="-5" font-family="Helvetica,sans-Serif" font-size="10.00">WrapMPI::send</text>
</a>
</g>
</g>
<!-- Node2 -->
<g id="Node000002" class="node">
<title>Node2</title>
<g id="a_Node000002"><a xlink:href="namespaceWrapMPI.html#afbb56a1725c132d2e3f12bfb01634d55" target="_top" xlink:title="Sends raw data to a destination in an unsafe manner.">
<polygon fill="white" stroke="#666666" points="241.25,-18.5 118.75,-18.5 118.75,0 241.25,0 241.25,-18.5"/>
<text text-anchor="middle" x="180" y="-5" font-family="Helvetica,sans-Serif" font-size="10.00">WrapMPI::_send_unsafe</text>
</a>
</g>
</g>
<!-- Node1&#45;&gt;Node2 -->
<g id="edge1_Node000001_Node000002" class="edge">
<title>Node1&#45;&gt;Node2</title>
<g id="a_edge1_Node000001_Node000002"><a xlink:title=" ">
<path fill="none" stroke="#63b8ff" d="M83,-9.25C90.62,-9.25 98.8,-9.25 107.05,-9.25"/>
<polygon fill="#63b8ff" stroke="#63b8ff" points="106.79,-12.75 116.79,-9.25 106.79,-5.75 106.79,-12.75"/>
</a>
</g>
</g>
<!-- Node3 -->
<g id="Node000003" class="node">
<title>Node3</title>
<g id="a_Node000003"><a xlink:href="namespaceWrapMPI.html#adab3300a86b8c0227268b23134b57a24" target="_top" xlink:title=" ">
<polygon fill="white" stroke="#666666" points="376.5,-18.5 277.25,-18.5 277.25,0 376.5,0 376.5,-18.5"/>
<text text-anchor="middle" x="326.88" y="-5" font-family="Helvetica,sans-Serif" font-size="10.00">WrapMPI::get_type</text>
</a>
</g>
</g>
<!-- Node2&#45;&gt;Node3 -->
<g id="edge2_Node000002_Node000003" class="edge">
<title>Node2&#45;&gt;Node3</title>
<g id="a_edge2_Node000002_Node000003"><a xlink:title=" ">
<path fill="none" stroke="#63b8ff" d="M241.6,-9.25C249.52,-9.25 257.63,-9.25 265.55,-9.25"/>
<polygon fill="#63b8ff" stroke="#63b8ff" points="265.44,-12.75 275.44,-9.25 265.44,-5.75 265.44,-12.75"/>
</a>
</g>
</g>
</g>
</svg>
