<?xml version="1.0" encoding="UTF-8" standalone="no"?>
<!DOCTYPE svg PUBLIC "-//W3C//DTD SVG 1.1//EN"
 "http://www.w3.org/Graphics/SVG/1.1/DTD/svg11.dtd">
<!-- Generated by graphviz version 14.0.1 (0)
 -->
<!-- Title: Common::get_policy_team_from_npt Pages: 1 -->
<svg width="433pt" height="37pt"
 viewBox="0.00 0.00 433.00 37.00" xmlns="http://www.w3.org/2000/svg" xmlns:xlink="http://www.w3.org/1999/xlink">
<g id="graph0" class="graph" transform="scale(1 1) rotate(0) translate(4 33)">
<title>Common::get_policy_team_from_npt</title>
<!-- Node1 -->
<g id="Node000001" class="node">
<title>Node1</title>
<g id="a_Node000001"><a xlink:title=" ">
<polygon fill="#999999" stroke="#666666" points="106,-29 0,-29 0,0 106,0 106,-29"/>
<text xml:space="preserve" text-anchor="start" x="8" y="-15.5" font-family="Helvetica,sans-Serif" font-size="10.00">Common::get_policy</text>
<text xml:space="preserve" text-anchor="middle" x="53" y="-5" font-family="Helvetica,sans-Serif" font-size="10.00">_team_from_npt</text>
</a>
</g>
</g>
<!-- Node2 -->
<g id="Node000002" class="node">
<title>Node2</title>
<g id="a_Node000002"><a xlink:href="namespaceCommon.html#a618180f8964b0ffef461c9ff2f44d295" target="_top" xlink:title=" ">
<polygon fill="white" stroke="#666666" points="265.25,-23.75 142,-23.75 142,-5.25 265.25,-5.25 265.25,-23.75"/>
<text xml:space="preserve" text-anchor="middle" x="203.62" y="-10.25" font-family="Helvetica,sans-Serif" font-size="10.00">Common::c_league_size</text>
</a>
</g>
</g>
<!-- Node1&#45;&gt;Node2 -->
<g id="edge1_Node000001_Node000002" class="edge">
<title>Node1&#45;&gt;Node2</title>
<g id="a_edge1_Node000001_Node000002"><a xlink:title=" ">
<path fill="none" stroke="#63b8ff" d="M106.4,-14.5C114.13,-14.5 122.2,-14.5 130.24,-14.5"/>
<polygon fill="#63b8ff" stroke="#63b8ff" points="130.04,-18 140.04,-14.5 130.04,-11 130.04,-18"/>
</a>
</g>
</g>
<!-- Node3 -->
<g id="Node000003" class="node">
<title>Node3</title>
<g id="a_Node000003"><a xlink:href="namespaceCommon.html#aef3f5fadf729a92859657cacc3ab9f53" target="_top" xlink:title=" ">
<polygon fill="white" stroke="#666666" points="425.25,-23.75 301.25,-23.75 301.25,-5.25 425.25,-5.25 425.25,-23.75"/>
<text xml:space="preserve" text-anchor="middle" x="363.25" y="-10.25" font-family="Helvetica,sans-Serif" font-size="10.00">Common::is_power_of_2</text>
</a>
</g>
</g>
<!-- Node2&#45;&gt;Node3 -->
<g id="edge2_Node000002_Node000003" class="edge">
<title>Node2&#45;&gt;Node3</title>
<g id="a_edge2_Node000002_Node000003"><a xlink:title=" ">
<path fill="none" stroke="#63b8ff" d="M265.57,-14.5C273.46,-14.5 281.6,-14.5 289.66,-14.5"/>
<polygon fill="#63b8ff" stroke="#63b8ff" points="289.44,-18 299.44,-14.5 289.44,-11 289.44,-18"/>
</a>
</g>
</g>
</g>
</svg>
