<?xml version="1.0" encoding="UTF-8" standalone="no"?>
<!DOCTYPE svg PUBLIC "-//W3C//DTD SVG 1.1//EN"
 "http://www.w3.org/Graphics/SVG/1.1/DTD/svg11.dtd">
<!-- Generated by graphviz version 14.0.1 (0)
 -->
<!-- Title: MC::init Pages: 1 -->
<svg width="390pt" height="74pt"
 viewBox="0.00 0.00 390.00 74.00" xmlns="http://www.w3.org/2000/svg" xmlns:xlink="http://www.w3.org/1999/xlink">
<g id="graph0" class="graph" transform="scale(1 1) rotate(0) translate(4 69.75)">
<title>MC::init</title>
<!-- Node1 -->
<g id="Node000001" class="node">
<title>Node1</title>
<g id="a_Node000001"><a xlink:title="Helper function to initialize a MonteCarloUnit.">
<polygon fill="#999999" stroke="#666666" points="50.5,-38.5 0,-38.5 0,-20 50.5,-20 50.5,-38.5"/>
<text xml:space="preserve" text-anchor="middle" x="25.25" y="-25" font-family="Helvetica,sans-Serif" font-size="10.00">MC::init</text>
</a>
</g>
</g>
<!-- Node2 -->
<g id="Node000002" class="node">
<title>Node2</title>
<g id="a_Node000002"><a xlink:href="namespaceMC.html#aabb3d28b6ac38413f8d34f525d26942f" target="_top" xlink:title=" ">
<polygon fill="white" stroke="#666666" points="188.38,-58.5 114.62,-58.5 114.62,-40 188.38,-40 188.38,-58.5"/>
<text xml:space="preserve" text-anchor="middle" x="151.5" y="-45" font-family="Helvetica,sans-Serif" font-size="10.00">MC::impl_init</text>
</a>
</g>
</g>
<!-- Node1&#45;&gt;Node2 -->
<g id="edge1_Node000001_Node000002" class="edge">
<title>Node1&#45;&gt;Node2</title>
<g id="a_edge1_Node000001_Node000002"><a xlink:title=" ">
<path fill="none" stroke="#63b8ff" d="M50.8,-33.2C65.72,-35.6 85.28,-38.75 103.11,-41.62"/>
<polygon fill="#63b8ff" stroke="#63b8ff" points="102.3,-45.04 112.73,-43.17 103.42,-38.13 102.3,-45.04"/>
</a>
</g>
</g>
<!-- Node4 -->
<g id="Node000004" class="node">
<title>Node4</title>
<g id="a_Node000004"><a xlink:href="namespaceMC.html#a67a8a8fb99f617a67dd3702cd0f0b47f" target="_top" xlink:title=" ">
<polygon fill="white" stroke="#666666" points="216.5,-20.5 86.5,-20.5 86.5,-2 216.5,-2 216.5,-20.5"/>
<text xml:space="preserve" text-anchor="middle" x="151.5" y="-7" font-family="Helvetica,sans-Serif" font-size="10.00">MC::load_tuning_constant</text>
</a>
</g>
</g>
<!-- Node1&#45;&gt;Node4 -->
<g id="edge3_Node000001_Node000004" class="edge">
<title>Node1&#45;&gt;Node4</title>
<g id="a_edge3_Node000001_Node000004"><a xlink:title=" ">
<path fill="none" stroke="#63b8ff" d="M50.8,-25.69C58.01,-24.65 66.3,-23.45 74.96,-22.19"/>
<polygon fill="#63b8ff" stroke="#63b8ff" points="75.17,-25.7 84.57,-20.8 74.17,-18.77 75.17,-25.7"/>
</a>
</g>
</g>
<!-- Node3 -->
<g id="Node000003" class="node">
<title>Node3</title>
<g id="a_Node000003"><a xlink:href="classMC_1_1ReactorDomain.html#adf8edb6cba4ee63f14c48ebadb73fb2e" target="_top" xlink:title="Return the number of compartment in the domain.">
<polygon fill="white" stroke="#666666" points="381.75,-65.75 252.5,-65.75 252.5,-36.75 381.75,-36.75 381.75,-65.75"/>
<text xml:space="preserve" text-anchor="start" x="260.5" y="-52.25" font-family="Helvetica,sans-Serif" font-size="10.00">MC::ReactorDomain::</text>
<text xml:space="preserve" text-anchor="middle" x="317.12" y="-41.75" font-family="Helvetica,sans-Serif" font-size="10.00">getNumberCompartments</text>
</a>
</g>
</g>
<!-- Node2&#45;&gt;Node3 -->
<g id="edge2_Node000002_Node000003" class="edge">
<title>Node2&#45;&gt;Node3</title>
<g id="a_edge2_Node000002_Node000003"><a xlink:title=" ">
<path fill="none" stroke="#63b8ff" d="M188.81,-49.69C204.18,-49.88 222.68,-50.11 240.76,-50.33"/>
<polygon fill="#63b8ff" stroke="#63b8ff" points="240.69,-53.83 250.73,-50.45 240.77,-46.83 240.69,-53.83"/>
</a>
</g>
</g>
<!-- Node5 -->
<g id="Node000005" class="node">
<title>Node5</title>
<g id="a_Node000005"><a xlink:href="namespaceCommon.html#a7ca16dc3314f89cd1860091731cd7014" target="_top" xlink:title="Wrapper arround get_env to get envariable with fallback to default.">
<polygon fill="white" stroke="#666666" points="374.62,-18.5 259.62,-18.5 259.62,0 374.62,0 374.62,-18.5"/>
<text xml:space="preserve" text-anchor="middle" x="317.12" y="-5" font-family="Helvetica,sans-Serif" font-size="10.00">Common::read_env_or</text>
</a>
</g>
</g>
<!-- Node4&#45;&gt;Node5 -->
<g id="edge4_Node000004_Node000005" class="edge">
<title>Node4&#45;&gt;Node5</title>
<g id="a_edge4_Node000004_Node000005"><a xlink:title=" ">
<path fill="none" stroke="#63b8ff" d="M216.7,-10.47C226.91,-10.34 237.51,-10.21 247.81,-10.08"/>
<polygon fill="#63b8ff" stroke="#63b8ff" points="247.82,-13.59 257.77,-9.96 247.73,-6.59 247.82,-13.59"/>
</a>
</g>
</g>
</g>
</svg>
