<?xml version="1.0" encoding="UTF-8" standalone="no"?>
<!DOCTYPE svg PUBLIC "-//W3C//DTD SVG 1.1//EN"
 "http://www.w3.org/Graphics/SVG/1.1/DTD/svg11.dtd">
<!-- Generated by graphviz version 14.0.1 (0)
 -->
<!-- Title: PostProcessing::final_post_processing Pages: 1 -->
<svg width="248pt" height="92pt"
 viewBox="0.00 0.00 248.00 92.00" xmlns="http://www.w3.org/2000/svg" xmlns:xlink="http://www.w3.org/1999/xlink">
<g id="graph0" class="graph" transform="scale(1 1) rotate(0) translate(4 87.75)">
<title>PostProcessing::final_post_processing</title>
<!-- Node1 -->
<g id="Node000001" class="node">
<title>Node1</title>
<g id="a_Node000001"><a xlink:title=" ">
<polygon fill="#999999" stroke="#666666" points="109,-50 0,-50 0,-21 109,-21 109,-50"/>
<text xml:space="preserve" text-anchor="start" x="8" y="-36.5" font-family="Helvetica,sans-Serif" font-size="10.00">PostProcessing::final</text>
<text xml:space="preserve" text-anchor="middle" x="54.5" y="-26" font-family="Helvetica,sans-Serif" font-size="10.00">_post_processing</text>
</a>
</g>
</g>
<!-- Node2 -->
<g id="Node000002" class="node">
<title>Node2</title>
<g id="a_Node000002"><a xlink:href="namespaceIO.html#a30cc77fc5c4d45d3b56ef6a299ce2383" target="_top" xlink:title=" ">
<polygon fill="white" stroke="#666666" points="222.5,-65.75 162.25,-65.75 162.25,-47.25 222.5,-47.25 222.5,-65.75"/>
<text xml:space="preserve" text-anchor="middle" x="192.38" y="-52.25" font-family="Helvetica,sans-Serif" font-size="10.00">IO::format</text>
</a>
</g>
</g>
<!-- Node1&#45;&gt;Node2 -->
<g id="edge1_Node000001_Node000002" class="edge">
<title>Node1&#45;&gt;Node2</title>
<g id="a_edge1_Node000001_Node000002"><a xlink:title=" ">
<path fill="none" stroke="#63b8ff" d="M109.2,-43.8C123.09,-45.95 137.8,-48.22 150.88,-50.24"/>
<polygon fill="#63b8ff" stroke="#63b8ff" points="149.98,-53.64 160.4,-51.71 151.05,-46.73 149.98,-53.64"/>
</a>
</g>
</g>
<!-- Node3 -->
<g id="Node000003" class="node">
<title>Node3</title>
<g id="a_Node000003"><a xlink:href="classSimulation_1_1Getter.html#ae948f113363f8ab858797a17c28a2e86" target="_top" xlink:title=" ">
<polygon fill="white" stroke="#666666" points="239.75,-29 145,-29 145,0 239.75,0 239.75,-29"/>
<text xml:space="preserve" text-anchor="start" x="153" y="-15.5" font-family="Helvetica,sans-Serif" font-size="10.00">Simulation::Getter</text>
<text xml:space="preserve" text-anchor="middle" x="192.38" y="-5" font-family="Helvetica,sans-Serif" font-size="10.00">::mc_unit</text>
</a>
</g>
</g>
<!-- Node1&#45;&gt;Node3 -->
<g id="edge3_Node000001_Node000003" class="edge">
<title>Node1&#45;&gt;Node3</title>
<g id="a_edge3_Node000001_Node000003"><a xlink:title=" ">
<path fill="none" stroke="#63b8ff" d="M109.2,-27.2C117.17,-25.97 125.41,-24.7 133.45,-23.45"/>
<polygon fill="#63b8ff" stroke="#63b8ff" points="133.81,-26.94 143.16,-21.95 132.74,-20.02 133.81,-26.94"/>
</a>
</g>
</g>
<!-- Node2&#45;&gt;Node2 -->
<g id="edge2_Node000002_Node000002" class="edge">
<title>Node2&#45;&gt;Node2</title>
<g id="a_edge2_Node000002_Node000002"><a xlink:title=" ">
<path fill="none" stroke="#63b8ff" d="M171.12,-66C160.79,-74.57 167.87,-83.75 192.38,-83.75 206.16,-83.75 214.43,-80.84 217.19,-76.78"/>
<polygon fill="#63b8ff" stroke="#63b8ff" points="220.56,-75.83 214.1,-67.43 213.92,-78.03 220.56,-75.83"/>
</a>
</g>
</g>
</g>
</svg>
