<?xml version="1.0" encoding="UTF-8" standalone="no"?>
<!DOCTYPE svg PUBLIC "-//W3C//DTD SVG 1.1//EN"
 "http://www.w3.org/Graphics/SVG/1.1/DTD/svg11.dtd">
<!-- Generated by graphviz version 14.0.1 (0)
 -->
<!-- Title: WrapMPI::send_v Pages: 1 -->
<svg width="514pt" height="45pt"
 viewBox="0.00 0.00 514.00 45.00" xmlns="http://www.w3.org/2000/svg" xmlns:xlink="http://www.w3.org/1999/xlink">
<g id="graph0" class="graph" transform="scale(1 1) rotate(0) translate(4 40.5)">
<title>WrapMPI::send_v</title>
<!-- Node1 -->
<g id="Node000001" class="node">
<title>Node1</title>
<g id="a_Node000001"><a xlink:title="Sends a vector of data to a destination.">
<polygon fill="#999999" stroke="#666666" points="93.25,-36.5 0,-36.5 0,-18 93.25,-18 93.25,-36.5"/>
<text xml:space="preserve" text-anchor="middle" x="46.62" y="-23" font-family="Helvetica,sans-Serif" font-size="10.00">WrapMPI::send_v</text>
</a>
</g>
</g>
<!-- Node2 -->
<g id="Node000002" class="node">
<title>Node2</title>
<g id="a_Node000002"><a xlink:href="namespaceWrapMPI.html#afbb56a1725c132d2e3f12bfb01634d55" target="_top" xlink:title="Sends raw data to a destination in an unsafe manner.">
<polygon fill="white" stroke="#666666" points="370.5,-36.5 248,-36.5 248,-18 370.5,-18 370.5,-36.5"/>
<text xml:space="preserve" text-anchor="middle" x="309.25" y="-23" font-family="Helvetica,sans-Serif" font-size="10.00">WrapMPI::_send_unsafe</text>
</a>
</g>
</g>
<!-- Node1&#45;&gt;Node2 -->
<g id="edge1_Node000001_Node000002" class="edge">
<title>Node1&#45;&gt;Node2</title>
<g id="a_edge1_Node000001_Node000002"><a xlink:title=" ">
<path fill="none" stroke="#63b8ff" d="M93.62,-27.25C133.09,-27.25 190.65,-27.25 236.23,-27.25"/>
<polygon fill="#63b8ff" stroke="#63b8ff" points="236.03,-30.75 246.03,-27.25 236.03,-23.75 236.03,-30.75"/>
</a>
</g>
</g>
<!-- Node4 -->
<g id="Node000004" class="node">
<title>Node4</title>
<g id="a_Node000004"><a xlink:href="namespaceWrapMPI.html#a86bfb7bf3cbf18f5f0371c497167cfad" target="_top" xlink:title="Sends a single instance of data to a destination.">
<polygon fill="white" stroke="#666666" points="212,-18.5 129.25,-18.5 129.25,0 212,0 212,-18.5"/>
<text xml:space="preserve" text-anchor="middle" x="170.62" y="-5" font-family="Helvetica,sans-Serif" font-size="10.00">WrapMPI::send</text>
</a>
</g>
</g>
<!-- Node1&#45;&gt;Node4 -->
<g id="edge3_Node000001_Node000004" class="edge">
<title>Node1&#45;&gt;Node4</title>
<g id="a_edge3_Node000001_Node000004"><a xlink:title=" ">
<path fill="none" stroke="#63b8ff" d="M93.75,-20.44C101.64,-19.28 109.88,-18.07 117.9,-16.88"/>
<polygon fill="#63b8ff" stroke="#63b8ff" points="118.16,-20.38 127.54,-15.46 117.14,-13.46 118.16,-20.38"/>
</a>
</g>
</g>
<!-- Node3 -->
<g id="Node000003" class="node">
<title>Node3</title>
<g id="a_Node000003"><a xlink:href="namespaceWrapMPI.html#adab3300a86b8c0227268b23134b57a24" target="_top" xlink:title=" ">
<polygon fill="white" stroke="#666666" points="505.75,-36.5 406.5,-36.5 406.5,-18 505.75,-18 505.75,-36.5"/>
<text xml:space="preserve" text-anchor="middle" x="456.12" y="-23" font-family="Helvetica,sans-Serif" font-size="10.00">WrapMPI::get_type</text>
</a>
</g>
</g>
<!-- Node2&#45;&gt;Node3 -->
<g id="edge2_Node000002_Node000003" class="edge">
<title>Node2&#45;&gt;Node3</title>
<g id="a_edge2_Node000002_Node000003"><a xlink:title=" ">
<path fill="none" stroke="#63b8ff" d="M370.85,-27.25C378.77,-27.25 386.88,-27.25 394.8,-27.25"/>
<polygon fill="#63b8ff" stroke="#63b8ff" points="394.69,-30.75 404.69,-27.25 394.69,-23.75 394.69,-30.75"/>
</a>
</g>
</g>
<!-- Node4&#45;&gt;Node2 -->
<g id="edge4_Node000004_Node000002" class="edge">
<title>Node4&#45;&gt;Node2</title>
<g id="a_edge4_Node000004_Node000002"><a xlink:title=" ">
<path fill="none" stroke="#63b8ff" d="M212.25,-14.6C219.87,-15.61 228.05,-16.68 236.3,-17.77"/>
<polygon fill="#63b8ff" stroke="#63b8ff" points="235.68,-21.22 246.05,-19.06 236.59,-14.28 235.68,-21.22"/>
</a>
</g>
</g>
</g>
</svg>
