<?xml version="1.0" encoding="UTF-8" standalone="no"?>
<!DOCTYPE svg PUBLIC "-//W3C//DTD SVG 1.1//EN"
 "http://www.w3.org/Graphics/SVG/1.1/DTD/svg11.dtd">
<!-- Generated by graphviz version 14.0.1 (0)
 -->
<!-- Title: MC::init Pages: 1 -->
<svg width="678pt" height="93pt"
 viewBox="0.00 0.00 678.00 93.00" xmlns="http://www.w3.org/2000/svg" xmlns:xlink="http://www.w3.org/1999/xlink">
<g id="graph0" class="graph" transform="scale(1 1) rotate(0) translate(4 88.75)">
<title>MC::init</title>
<!-- Node1 -->
<g id="Node000001" class="node">
<title>Node1</title>
<g id="a_Node000001"><a xlink:title="Helper function to initialize a MonteCarloUnit.">
<polygon fill="#999999" stroke="#666666" points="50.5,-55.5 0,-55.5 0,-37 50.5,-37 50.5,-55.5"/>
<text xml:space="preserve" text-anchor="middle" x="25.25" y="-42" font-family="Helvetica,sans-Serif" font-size="10.00">MC::init</text>
</a>
</g>
</g>
<!-- Node2 -->
<g id="Node000002" class="node">
<title>Node2</title>
<g id="a_Node000002"><a xlink:href="namespaceMC.html#aabb3d28b6ac38413f8d34f525d26942f" target="_top" xlink:title=" ">
<polygon fill="white" stroke="#666666" points="188.38,-76.5 114.62,-76.5 114.62,-58 188.38,-58 188.38,-76.5"/>
<text xml:space="preserve" text-anchor="middle" x="151.5" y="-63" font-family="Helvetica,sans-Serif" font-size="10.00">MC::impl_init</text>
</a>
</g>
</g>
<!-- Node1&#45;&gt;Node2 -->
<g id="edge1_Node000001_Node000002" class="edge">
<title>Node1&#45;&gt;Node2</title>
<g id="a_edge1_Node000001_Node000002"><a xlink:title=" ">
<path fill="none" stroke="#63b8ff" d="M50.8,-50.4C65.72,-52.92 85.28,-56.23 103.11,-59.24"/>
<polygon fill="#63b8ff" stroke="#63b8ff" points="102.29,-62.65 112.74,-60.87 103.46,-55.75 102.29,-62.65"/>
</a>
</g>
</g>
<!-- Node4 -->
<g id="Node000004" class="node">
<title>Node4</title>
<g id="a_Node000004"><a xlink:href="namespaceMC.html#a67a8a8fb99f617a67dd3702cd0f0b47f" target="_top" xlink:title=" ">
<polygon fill="white" stroke="#666666" points="216.5,-37.5 86.5,-37.5 86.5,-19 216.5,-19 216.5,-37.5"/>
<text xml:space="preserve" text-anchor="middle" x="151.5" y="-24" font-family="Helvetica,sans-Serif" font-size="10.00">MC::load_tuning_constant</text>
</a>
</g>
</g>
<!-- Node1&#45;&gt;Node4 -->
<g id="edge3_Node000001_Node000004" class="edge">
<title>Node1&#45;&gt;Node4</title>
<g id="a_edge3_Node000001_Node000004"><a xlink:title=" ">
<path fill="none" stroke="#63b8ff" d="M50.8,-42.69C58.01,-41.65 66.3,-40.45 74.96,-39.19"/>
<polygon fill="#63b8ff" stroke="#63b8ff" points="75.17,-42.7 84.57,-37.8 74.17,-35.77 75.17,-42.7"/>
</a>
</g>
</g>
<!-- Node3 -->
<g id="Node000003" class="node">
<title>Node3</title>
<g id="a_Node000003"><a xlink:href="classMC_1_1ReactorDomain.html#adf8edb6cba4ee63f14c48ebadb73fb2e" target="_top" xlink:title="Return the number of compartment in the domain.">
<polygon fill="white" stroke="#666666" points="381.75,-84.75 252.5,-84.75 252.5,-55.75 381.75,-55.75 381.75,-84.75"/>
<text xml:space="preserve" text-anchor="start" x="260.5" y="-71.25" font-family="Helvetica,sans-Serif" font-size="10.00">MC::ReactorDomain::</text>
<text xml:space="preserve" text-anchor="middle" x="317.12" y="-60.75" font-family="Helvetica,sans-Serif" font-size="10.00">getNumberCompartments</text>
</a>
</g>
</g>
<!-- Node2&#45;&gt;Node3 -->
<g id="edge2_Node000002_Node000003" class="edge">
<title>Node2&#45;&gt;Node3</title>
<g id="a_edge2_Node000002_Node000003"><a xlink:title=" ">
<path fill="none" stroke="#63b8ff" d="M188.81,-67.92C204.18,-68.2 222.68,-68.54 240.76,-68.87"/>
<polygon fill="#63b8ff" stroke="#63b8ff" points="240.67,-72.37 250.73,-69.05 240.79,-65.37 240.67,-72.37"/>
</a>
</g>
</g>
<!-- Node5 -->
<g id="Node000005" class="node">
<title>Node5</title>
<g id="a_Node000005"><a xlink:href="namespaceMC.html#a607ded472d094b72eaa4e7d0cc01bce0" target="_top" xlink:title=" ">
<polygon fill="white" stroke="#666666" points="375.75,-37.5 258.5,-37.5 258.5,-19 375.75,-19 375.75,-37.5"/>
<text xml:space="preserve" text-anchor="middle" x="317.12" y="-24" font-family="Helvetica,sans-Serif" font-size="10.00">MC::get_valid_value_or</text>
</a>
</g>
</g>
<!-- Node4&#45;&gt;Node5 -->
<g id="edge4_Node000004_Node000005" class="edge">
<title>Node4&#45;&gt;Node5</title>
<g id="a_edge4_Node000004_Node000005"><a xlink:title=" ">
<path fill="none" stroke="#63b8ff" d="M216.7,-28.25C226.65,-28.25 236.97,-28.25 247.03,-28.25"/>
<polygon fill="#63b8ff" stroke="#63b8ff" points="246.72,-31.75 256.72,-28.25 246.72,-24.75 246.72,-31.75"/>
</a>
</g>
</g>
<!-- Node6 -->
<g id="Node000006" class="node">
<title>Node6</title>
<g id="a_Node000006"><a xlink:href="namespaceCommon.html#a7ca16dc3314f89cd1860091731cd7014" target="_top" xlink:title="Wrapper arround get_env to get envariable with fallback to default.">
<polygon fill="white" stroke="#666666" points="532.75,-18.5 417.75,-18.5 417.75,0 532.75,0 532.75,-18.5"/>
<text xml:space="preserve" text-anchor="middle" x="475.25" y="-5" font-family="Helvetica,sans-Serif" font-size="10.00">Common::read_env_or</text>
</a>
</g>
</g>
<!-- Node4&#45;&gt;Node6 -->
<g id="edge7_Node000004_Node000006" class="edge">
<title>Node4&#45;&gt;Node6</title>
<g id="a_edge7_Node000004_Node000006"><a xlink:title=" ">
<path fill="none" stroke="#63b8ff" d="M197.08,-18.52C214.3,-15.21 234.23,-11.92 252.5,-10.25 303.88,-5.55 362.24,-5.49 406.19,-6.51"/>
<polygon fill="#63b8ff" stroke="#63b8ff" points="406.01,-10.01 416.1,-6.77 406.19,-3.01 406.01,-10.01"/>
</a>
</g>
</g>
<!-- Node5&#45;&gt;Node6 -->
<g id="edge5_Node000005_Node000006" class="edge">
<title>Node5&#45;&gt;Node6</title>
<g id="a_edge5_Node000005_Node000006"><a xlink:title=" ">
<path fill="none" stroke="#63b8ff" d="M375.82,-21.23C385.66,-20.03 395.97,-18.78 406.06,-17.55"/>
<polygon fill="#63b8ff" stroke="#63b8ff" points="406.31,-21.04 415.81,-16.36 405.46,-14.1 406.31,-21.04"/>
</a>
</g>
</g>
<!-- Node7 -->
<g id="Node000007" class="node">
<title>Node7</title>
<g id="a_Node000007"><a xlink:href="namespaceCommon.html#a7e29bd7117dd8bfc651a1dc215923379" target="_top" xlink:title="Wrapper arround get_env to get optional envariable.">
<polygon fill="white" stroke="#666666" points="670.25,-18.5 568.75,-18.5 568.75,0 670.25,0 670.25,-18.5"/>
<text xml:space="preserve" text-anchor="middle" x="619.5" y="-5" font-family="Helvetica,sans-Serif" font-size="10.00">Common::read_env</text>
</a>
</g>
</g>
<!-- Node6&#45;&gt;Node7 -->
<g id="edge6_Node000006_Node000007" class="edge">
<title>Node6&#45;&gt;Node7</title>
<g id="a_edge6_Node000006_Node000007"><a xlink:title=" ">
<path fill="none" stroke="#63b8ff" d="M532.88,-9.25C540.88,-9.25 549.14,-9.25 557.23,-9.25"/>
<polygon fill="#63b8ff" stroke="#63b8ff" points="556.99,-12.75 566.99,-9.25 556.99,-5.75 556.99,-12.75"/>
</a>
</g>
</g>
</g>
</svg>
