<?xml version="1.0" encoding="UTF-8" standalone="no"?>
<!DOCTYPE svg PUBLIC "-//W3C//DTD SVG 1.1//EN"
 "http://www.w3.org/Graphics/SVG/1.1/DTD/svg11.dtd">
<!-- Generated by graphviz version 14.0.1 (0)
 -->
<!-- Title: Core::exec Pages: 1 -->
<svg width="687pt" height="286pt"
 viewBox="0.00 0.00 687.00 286.00" xmlns="http://www.w3.org/2000/svg" xmlns:xlink="http://www.w3.org/1999/xlink">
<g id="graph0" class="graph" transform="scale(1 1) rotate(0) translate(4 281.58)">
<title>Core::exec</title>
<!-- Node1 -->
<g id="Node000001" class="node">
<title>Node1</title>
<g id="a_Node000001"><a xlink:title="Start simulation.">
<polygon fill="#999999" stroke="#666666" points="63.25,-159.75 0,-159.75 0,-141.25 63.25,-141.25 63.25,-159.75"/>
<text xml:space="preserve" text-anchor="middle" x="31.62" y="-146.25" font-family="Helvetica,sans-Serif" font-size="10.00">Core::exec</text>
</a>
</g>
</g>
<!-- Node2 -->
<g id="Node000002" class="node">
<title>Node2</title>
<g id="a_Node000002"><a xlink:href="namespaceCore.html#a23e6f3d22fc51ef9decabb2c220b27c4" target="_top" xlink:title=" ">
<polygon fill="white" stroke="#666666" points="220.25,-201.75 99.25,-201.75 99.25,-183.25 220.25,-183.25 220.25,-201.75"/>
<text xml:space="preserve" text-anchor="middle" x="159.75" y="-188.25" font-family="Helvetica,sans-Serif" font-size="10.00">Core::exporter_filename</text>
</a>
</g>
</g>
<!-- Node1&#45;&gt;Node2 -->
<g id="edge1_Node000001_Node000002" class="edge">
<title>Node1&#45;&gt;Node2</title>
<g id="a_edge1_Node000001_Node000002"><a xlink:title=" ">
<path fill="none" stroke="#63b8ff" d="M63.69,-153.61C74.86,-157.13 87.58,-161.64 99.25,-165.5 112.01,-169.72 126.43,-174.1 137.88,-178.51"/>
<polygon fill="#63b8ff" stroke="#63b8ff" points="136.2,-181.6 146.77,-182.33 138.97,-175.17 136.2,-181.6"/>
</a>
</g>
</g>
<!-- Node3 -->
<g id="Node000003" class="node">
<title>Node3</title>
<g id="a_Node000003"><a xlink:href="namespaceCore.html#afbce0beea293a7ccfdfc34a85b5e5e77" target="_top" xlink:title=" ">
<polygon fill="white" stroke="#666666" points="203.75,-165 115.75,-165 115.75,-136 203.75,-136 203.75,-165"/>
<text xml:space="preserve" text-anchor="start" x="123.75" y="-151.5" font-family="Helvetica,sans-Serif" font-size="10.00">Core::init_partial</text>
<text xml:space="preserve" text-anchor="middle" x="159.75" y="-141" font-family="Helvetica,sans-Serif" font-size="10.00">_exporter</text>
</a>
</g>
</g>
<!-- Node1&#45;&gt;Node3 -->
<g id="edge3_Node000001_Node000003" class="edge">
<title>Node1&#45;&gt;Node3</title>
<g id="a_edge3_Node000001_Node000003"><a xlink:title=" ">
<path fill="none" stroke="#63b8ff" d="M63.48,-150.5C75.67,-150.5 90.06,-150.5 103.91,-150.5"/>
<polygon fill="#63b8ff" stroke="#63b8ff" points="103.84,-154 113.84,-150.5 103.84,-147 103.84,-154"/>
</a>
</g>
</g>
<!-- Node10 -->
<g id="Node000010" class="node">
<title>Node10</title>
<g id="a_Node000010"><a xlink:href="namespacePostProcessing.html#a0e06c75e06cf43e767d5e3e8afab62f2" target="_top" xlink:title=" ">
<polygon fill="white" stroke="#666666" points="215.38,-118 104.12,-118 104.12,-89 215.38,-89 215.38,-118"/>
<text xml:space="preserve" text-anchor="start" x="112.12" y="-104.5" font-family="Helvetica,sans-Serif" font-size="10.00">PostProcessing::save</text>
<text xml:space="preserve" text-anchor="middle" x="159.75" y="-94" font-family="Helvetica,sans-Serif" font-size="10.00">_probes</text>
</a>
</g>
</g>
<!-- Node1&#45;&gt;Node10 -->
<g id="edge11_Node000001_Node000010" class="edge">
<title>Node1&#45;&gt;Node10</title>
<g id="a_edge11_Node000001_Node000010"><a xlink:title=" ">
<path fill="none" stroke="#63b8ff" d="M58.76,-140.76C73.1,-135.42 91.37,-128.61 108.37,-122.28"/>
<polygon fill="#63b8ff" stroke="#63b8ff" points="109.17,-125.71 117.32,-118.94 106.72,-119.15 109.17,-125.71"/>
</a>
</g>
</g>
<!-- Node18 -->
<g id="Node000018" class="node">
<title>Node18</title>
<g id="a_Node000018"><a xlink:href="classCore_1_1DataExporter.html#ad3b98151595b0962c089a7afcdb2a642" target="_top" xlink:title=" ">
<polygon fill="white" stroke="#666666" points="210.12,-71 109.38,-71 109.38,-42 210.12,-42 210.12,-71"/>
<text xml:space="preserve" text-anchor="start" x="117.38" y="-57.5" font-family="Helvetica,sans-Serif" font-size="10.00">Core::DataExporter</text>
<text xml:space="preserve" text-anchor="middle" x="159.75" y="-47" font-family="Helvetica,sans-Serif" font-size="10.00">::set_logger</text>
</a>
</g>
</g>
<!-- Node1&#45;&gt;Node18 -->
<g id="edge20_Node000001_Node000018" class="edge">
<title>Node1&#45;&gt;Node18</title>
<g id="a_edge20_Node000001_Node000018"><a xlink:title=" ">
<path fill="none" stroke="#63b8ff" d="M39.41,-141.12C50.47,-126.42 73.71,-97.85 99.25,-80.5 101.19,-79.18 103.22,-77.91 105.3,-76.7"/>
<polygon fill="#63b8ff" stroke="#63b8ff" points="106.79,-79.87 114.03,-72.14 103.54,-73.67 106.79,-79.87"/>
</a>
</g>
</g>
<!-- Node2&#45;&gt;Node1 -->
<g id="edge2_Node000002_Node000001" class="edge">
<title>Node2&#45;&gt;Node1</title>
<g id="a_edge2_Node000002_Node000001"><a xlink:title=" ">
<path fill="none" stroke="#63b8ff" d="M98.77,-183.34C82.97,-178.1 65.32,-171.69 52.23,-165.5"/>
<polygon fill="#63b8ff" stroke="#63b8ff" points="53.88,-162.42 43.4,-160.85 50.62,-168.61 53.88,-162.42"/>
</a>
</g>
</g>
<!-- Node4 -->
<g id="Node000004" class="node">
<title>Node4</title>
<g id="a_Node000004"><a xlink:href="classCore_1_1PartialExporter.html#a05cba8c28abaecce99f586d551a75f80" target="_top" xlink:title="Initializes the fields required for exporting data.">
<polygon fill="white" stroke="#666666" points="376.5,-259 267.5,-259 267.5,-230 376.5,-230 376.5,-259"/>
<text xml:space="preserve" text-anchor="start" x="275.5" y="-245.5" font-family="Helvetica,sans-Serif" font-size="10.00">Core::PartialExporter</text>
<text xml:space="preserve" text-anchor="middle" x="322" y="-235" font-family="Helvetica,sans-Serif" font-size="10.00">::init_fields</text>
</a>
</g>
</g>
<!-- Node3&#45;&gt;Node4 -->
<g id="edge4_Node000003_Node000004" class="edge">
<title>Node3&#45;&gt;Node4</title>
<g id="a_edge4_Node000003_Node000004"><a xlink:title=" ">
<path fill="none" stroke="#63b8ff" d="M204.17,-164.79C209.85,-167.57 215.37,-170.79 220.25,-174.5 241.19,-190.43 234.98,-206.01 256.25,-221.5 257.58,-222.47 258.95,-223.39 260.35,-224.29"/>
<polygon fill="#63b8ff" stroke="#63b8ff" points="258.29,-227.15 268.74,-228.93 261.68,-221.02 258.29,-227.15"/>
</a>
</g>
</g>
<!-- Node7 -->
<g id="Node000007" class="node">
<title>Node7</title>
<g id="a_Node000007"><a xlink:href="namespacePostProcessing.html#a9ff9231cbdf2a3c4e539c4638aba2445" target="_top" xlink:title=" ">
<polygon fill="white" stroke="#666666" points="377.62,-212 266.38,-212 266.38,-183 377.62,-183 377.62,-212"/>
<text xml:space="preserve" text-anchor="start" x="274.38" y="-198.5" font-family="Helvetica,sans-Serif" font-size="10.00">PostProcessing::save</text>
<text xml:space="preserve" text-anchor="middle" x="322" y="-188" font-family="Helvetica,sans-Serif" font-size="10.00">_particle_state</text>
</a>
</g>
</g>
<!-- Node3&#45;&gt;Node7 -->
<g id="edge8_Node000003_Node000007" class="edge">
<title>Node3&#45;&gt;Node7</title>
<g id="a_edge8_Node000003_Node000007"><a xlink:title=" ">
<path fill="none" stroke="#63b8ff" d="M204.12,-163.22C221.01,-168.17 240.68,-173.94 259.01,-179.32"/>
<polygon fill="#63b8ff" stroke="#63b8ff" points="257.89,-182.64 268.47,-182.09 259.86,-175.92 257.89,-182.64"/>
</a>
</g>
</g>
<!-- Node8 -->
<g id="Node000008" class="node">
<title>Node8</title>
<g id="a_Node000008"><a xlink:href="classCore_1_1PartialExporter.html#a450fb0c92efa4ee81b4083fc01f5e665" target="_top" xlink:title="Writes the number of particles in each compartment.">
<polygon fill="white" stroke="#666666" points="381,-165 263,-165 263,-136 381,-136 381,-165"/>
<text xml:space="preserve" text-anchor="start" x="271" y="-151.5" font-family="Helvetica,sans-Serif" font-size="10.00">Core::PartialExporter</text>
<text xml:space="preserve" text-anchor="middle" x="322" y="-141" font-family="Helvetica,sans-Serif" font-size="10.00">::write_number_particle</text>
</a>
</g>
</g>
<!-- Node3&#45;&gt;Node8 -->
<g id="edge9_Node000003_Node000008" class="edge">
<title>Node3&#45;&gt;Node8</title>
<g id="a_edge9_Node000003_Node000008"><a xlink:title=" ">
<path fill="none" stroke="#63b8ff" d="M204.12,-150.5C218.59,-150.5 235.1,-150.5 251.06,-150.5"/>
<polygon fill="#63b8ff" stroke="#63b8ff" points="251.04,-154 261.04,-150.5 251.04,-147 251.04,-154"/>
</a>
</g>
</g>
<!-- Node5 -->
<g id="Node000005" class="node">
<title>Node5</title>
<g id="a_Node000005"><a xlink:href="namespaceIO.html#a30cc77fc5c4d45d3b56ef6a299ce2383" target="_top" xlink:title=" ">
<polygon fill="white" stroke="#666666" points="658.25,-178.75 598,-178.75 598,-160.25 658.25,-160.25 658.25,-178.75"/>
<text xml:space="preserve" text-anchor="middle" x="628.12" y="-165.25" font-family="Helvetica,sans-Serif" font-size="10.00">IO::format</text>
</a>
</g>
</g>
<!-- Node4&#45;&gt;Node5 -->
<g id="edge5_Node000004_Node000005" class="edge">
<title>Node4&#45;&gt;Node5</title>
<g id="a_edge5_Node000004_Node000005"><a xlink:title=" ">
<path fill="none" stroke="#63b8ff" d="M363.64,-259.39C409.09,-273.52 483.89,-289.11 541.75,-263.5 576.05,-248.32 602.47,-211.79 616.33,-189"/>
<polygon fill="#63b8ff" stroke="#63b8ff" points="619.35,-190.78 621.35,-180.38 613.3,-187.26 619.35,-190.78"/>
</a>
</g>
</g>
<!-- Node6 -->
<g id="Node000006" class="node">
<title>Node6</title>
<g id="a_Node000006"><a xlink:href="classCore_1_1DataExporter.html#a9c60512b8e80f25d5f1f6cac29b27d07" target="_top" xlink:title=" ">
<polygon fill="white" stroke="#666666" points="533.12,-254 432.38,-254 432.38,-225 533.12,-225 533.12,-254"/>
<text xml:space="preserve" text-anchor="start" x="440.38" y="-240.5" font-family="Helvetica,sans-Serif" font-size="10.00">Core::DataExporter</text>
<text xml:space="preserve" text-anchor="middle" x="482.75" y="-230" font-family="Helvetica,sans-Serif" font-size="10.00">::prepare_matrix</text>
</a>
</g>
</g>
<!-- Node4&#45;&gt;Node6 -->
<g id="edge7_Node000004_Node000006" class="edge">
<title>Node4&#45;&gt;Node6</title>
<g id="a_edge7_Node000004_Node000006"><a xlink:title=" ">
<path fill="none" stroke="#63b8ff" d="M376.75,-242.81C390.87,-242.36 406.21,-241.88 420.68,-241.42"/>
<polygon fill="#63b8ff" stroke="#63b8ff" points="420.67,-244.93 430.56,-241.11 420.45,-237.93 420.67,-244.93"/>
</a>
</g>
</g>
<!-- Node5&#45;&gt;Node5 -->
<g id="edge6_Node000005_Node000005" class="edge">
<title>Node5&#45;&gt;Node5</title>
<g id="a_edge6_Node000005_Node000005"><a xlink:title=" ">
<path fill="none" stroke="#63b8ff" d="M605.72,-179C594.82,-187.57 602.29,-196.75 628.12,-196.75 642.66,-196.75 651.38,-193.84 654.29,-189.78"/>
<polygon fill="#63b8ff" stroke="#63b8ff" points="657.63,-188.72 651.03,-180.42 651.02,-191.02 657.63,-188.72"/>
</a>
</g>
</g>
<!-- Node9 -->
<g id="Node000009" class="node">
<title>Node9</title>
<g id="a_Node000009"><a xlink:href="classCore_1_1DataExporter.html#a0af9b5e13d16339af1918f8e845193f9" target="_top" xlink:title=" ">
<polygon fill="white" stroke="#666666" points="533.12,-207 432.38,-207 432.38,-178 533.12,-178 533.12,-207"/>
<text xml:space="preserve" text-anchor="start" x="440.38" y="-193.5" font-family="Helvetica,sans-Serif" font-size="10.00">Core::DataExporter</text>
<text xml:space="preserve" text-anchor="middle" x="482.75" y="-183" font-family="Helvetica,sans-Serif" font-size="10.00">::append_matrix</text>
</a>
</g>
</g>
<!-- Node8&#45;&gt;Node9 -->
<g id="edge10_Node000008_Node000009" class="edge">
<title>Node8&#45;&gt;Node9</title>
<g id="a_edge10_Node000008_Node000009"><a xlink:title=" ">
<path fill="none" stroke="#63b8ff" d="M379.42,-165.43C392.99,-169.02 407.54,-172.87 421.29,-176.5"/>
<polygon fill="#63b8ff" stroke="#63b8ff" points="420.08,-179.8 430.64,-178.98 421.87,-173.04 420.08,-179.8"/>
</a>
</g>
</g>
<!-- Node11 -->
<g id="Node000011" class="node">
<title>Node11</title>
<g id="a_Node000011"><a xlink:href="namespacePostProcessing.html#adae52b6b518e25be1c920f36f196ef65" target="_top" xlink:title=" ">
<polygon fill="white" stroke="#666666" points="380.25,-118 263.75,-118 263.75,-89 380.25,-89 380.25,-118"/>
<text xml:space="preserve" text-anchor="start" x="271.75" y="-104.5" font-family="Helvetica,sans-Serif" font-size="10.00">PostProcessing::_save</text>
<text xml:space="preserve" text-anchor="middle" x="322" y="-94" font-family="Helvetica,sans-Serif" font-size="10.00">_probes</text>
</a>
</g>
</g>
<!-- Node10&#45;&gt;Node11 -->
<g id="edge12_Node000010_Node000011" class="edge">
<title>Node10&#45;&gt;Node11</title>
<g id="a_edge12_Node000010_Node000011"><a xlink:title=" ">
<path fill="none" stroke="#63b8ff" d="M215.45,-103.5C227.13,-103.5 239.62,-103.5 251.76,-103.5"/>
<polygon fill="#63b8ff" stroke="#63b8ff" points="251.75,-107 261.75,-103.5 251.75,-100 251.75,-107"/>
</a>
</g>
</g>
<!-- Node17 -->
<g id="Node000017" class="node">
<title>Node17</title>
<g id="a_Node000017"><a xlink:href="classSimulation_1_1SimulationUnit.html#a299bc32317c5f302dc16df3a3d7d6149" target="_top" xlink:title=" ">
<polygon fill="white" stroke="#666666" points="387.75,-71 256.25,-71 256.25,-42 387.75,-42 387.75,-71"/>
<text xml:space="preserve" text-anchor="start" x="264.25" y="-57.5" font-family="Helvetica,sans-Serif" font-size="10.00">Simulation::SimulationUnit</text>
<text xml:space="preserve" text-anchor="middle" x="322" y="-47" font-family="Helvetica,sans-Serif" font-size="10.00">::it_probes</text>
</a>
</g>
</g>
<!-- Node10&#45;&gt;Node17 -->
<g id="edge19_Node000010_Node000017" class="edge">
<title>Node10&#45;&gt;Node17</title>
<g id="a_edge19_Node000010_Node000017"><a xlink:title=" ">
<path fill="none" stroke="#63b8ff" d="M211.45,-88.63C226.65,-84.17 243.49,-79.23 259.32,-74.59"/>
<polygon fill="#63b8ff" stroke="#63b8ff" points="260.01,-78.03 268.62,-71.86 258.04,-71.32 260.01,-78.03"/>
</a>
</g>
</g>
<!-- Node12 -->
<g id="Node000012" class="node">
<title>Node12</title>
<g id="a_Node000012"><a xlink:href="classSimulation_1_1Probes.html#af54f1c8be6e49f63e8533d6a4e91cad3" target="_top" xlink:title=" ">
<polygon fill="white" stroke="#666666" points="532,-160 433.5,-160 433.5,-131 532,-131 532,-160"/>
<text xml:space="preserve" text-anchor="start" x="441.5" y="-146.5" font-family="Helvetica,sans-Serif" font-size="10.00">Simulation::Probes</text>
<text xml:space="preserve" text-anchor="middle" x="482.75" y="-136" font-family="Helvetica,sans-Serif" font-size="10.00">::clear</text>
</a>
</g>
</g>
<!-- Node11&#45;&gt;Node12 -->
<g id="edge13_Node000011_Node000012" class="edge">
<title>Node11&#45;&gt;Node12</title>
<g id="a_edge13_Node000011_Node000012"><a xlink:title=" ">
<path fill="none" stroke="#63b8ff" d="M379.42,-118.43C393.27,-122.09 408.14,-126.03 422.14,-129.73"/>
<polygon fill="#63b8ff" stroke="#63b8ff" points="421.12,-133.08 431.68,-132.25 422.91,-126.31 421.12,-133.08"/>
</a>
</g>
</g>
<!-- Node13 -->
<g id="Node000013" class="node">
<title>Node13</title>
<g id="a_Node000013"><a xlink:href="classSimulation_1_1Probes.html#a6345c8304e772a314dae935f742d518a" target="_top" xlink:title=" ">
<polygon fill="white" stroke="#666666" points="541.75,-112.75 423.75,-112.75 423.75,-94.25 541.75,-94.25 541.75,-112.75"/>
<text xml:space="preserve" text-anchor="middle" x="482.75" y="-99.25" font-family="Helvetica,sans-Serif" font-size="10.00">Simulation::Probes::get</text>
</a>
</g>
</g>
<!-- Node11&#45;&gt;Node13 -->
<g id="edge14_Node000011_Node000013" class="edge">
<title>Node11&#45;&gt;Node13</title>
<g id="a_edge14_Node000011_Node000013"><a xlink:title=" ">
<path fill="none" stroke="#63b8ff" d="M380.31,-103.5C390.62,-103.5 401.46,-103.5 412.07,-103.5"/>
<polygon fill="#63b8ff" stroke="#63b8ff" points="411.94,-107 421.94,-103.5 411.94,-100 411.94,-107"/>
</a>
</g>
</g>
<!-- Node14 -->
<g id="Node000014" class="node">
<title>Node14</title>
<g id="a_Node000014"><a xlink:href="classSimulation_1_1Probes.html#a2b8541ff7ad653204a955ff1feb78757" target="_top" xlink:title=" ">
<polygon fill="white" stroke="#666666" points="532,-76 433.5,-76 433.5,-47 532,-47 532,-76"/>
<text xml:space="preserve" text-anchor="start" x="441.5" y="-62.5" font-family="Helvetica,sans-Serif" font-size="10.00">Simulation::Probes</text>
<text xml:space="preserve" text-anchor="middle" x="482.75" y="-52" font-family="Helvetica,sans-Serif" font-size="10.00">::need_export</text>
</a>
</g>
</g>
<!-- Node11&#45;&gt;Node14 -->
<g id="edge15_Node000011_Node000014" class="edge">
<title>Node11&#45;&gt;Node14</title>
<g id="a_edge15_Node000011_Node000014"><a xlink:title=" ">
<path fill="none" stroke="#63b8ff" d="M379.42,-88.57C393.27,-84.91 408.14,-80.97 422.14,-77.27"/>
<polygon fill="#63b8ff" stroke="#63b8ff" points="422.91,-80.69 431.68,-74.75 421.12,-73.92 422.91,-80.69"/>
</a>
</g>
</g>
<!-- Node15 -->
<g id="Node000015" class="node">
<title>Node15</title>
<g id="a_Node000015"><a xlink:href="classCore_1_1PartialExporter.html#a53c54ce796df99b407f410beb01074c5" target="_top" xlink:title="Writes probe data to the export.">
<polygon fill="white" stroke="#666666" points="537.25,-29 428.25,-29 428.25,0 537.25,0 537.25,-29"/>
<text xml:space="preserve" text-anchor="start" x="436.25" y="-15.5" font-family="Helvetica,sans-Serif" font-size="10.00">Core::PartialExporter</text>
<text xml:space="preserve" text-anchor="middle" x="482.75" y="-5" font-family="Helvetica,sans-Serif" font-size="10.00">::write_probe</text>
</a>
</g>
</g>
<!-- Node11&#45;&gt;Node15 -->
<g id="edge16_Node000011_Node000015" class="edge">
<title>Node11&#45;&gt;Node15</title>
<g id="a_edge16_Node000011_Node000015"><a xlink:title=" ">
<path fill="none" stroke="#63b8ff" d="M373.47,-88.63C378.48,-86.26 383.34,-83.56 387.75,-80.5 408.21,-66.27 403.55,-52.1 423.75,-37.5 424.91,-36.66 426.11,-35.85 427.33,-35.06"/>
<polygon fill="#63b8ff" stroke="#63b8ff" points="428.86,-38.22 435.83,-30.24 425.41,-32.13 428.86,-38.22"/>
</a>
</g>
</g>
<!-- Node15&#45;&gt;Node5 -->
<g id="edge18_Node000015_Node000005" class="edge">
<title>Node15&#45;&gt;Node5</title>
<g id="a_edge18_Node000015_Node000005"><a xlink:title=" ">
<path fill="none" stroke="#63b8ff" d="M529.62,-29.48C533.93,-31.81 538.07,-34.48 541.75,-37.5 579.77,-68.69 606.56,-121.36 619.1,-149.83"/>
<polygon fill="#63b8ff" stroke="#63b8ff" points="615.74,-150.87 622.87,-158.7 622.18,-148.13 615.74,-150.87"/>
</a>
</g>
</g>
<!-- Node16 -->
<g id="Node000016" class="node">
<title>Node16</title>
<g id="a_Node000016"><a xlink:href="classCore_1_1DataExporter.html#a0b0b79f3932c4eb905704a852248c857" target="_top" xlink:title=" ">
<polygon fill="white" stroke="#666666" points="678.5,-29 577.75,-29 577.75,0 678.5,0 678.5,-29"/>
<text xml:space="preserve" text-anchor="start" x="585.75" y="-15.5" font-family="Helvetica,sans-Serif" font-size="10.00">Core::DataExporter</text>
<text xml:space="preserve" text-anchor="middle" x="628.12" y="-5" font-family="Helvetica,sans-Serif" font-size="10.00">::append_array</text>
</a>
</g>
</g>
<!-- Node15&#45;&gt;Node16 -->
<g id="edge17_Node000015_Node000016" class="edge">
<title>Node15&#45;&gt;Node16</title>
<g id="a_edge17_Node000015_Node000016"><a xlink:title=" ">
<path fill="none" stroke="#63b8ff" d="M537.55,-14.5C546.81,-14.5 556.5,-14.5 565.94,-14.5"/>
<polygon fill="#63b8ff" stroke="#63b8ff" points="565.78,-18 575.78,-14.5 565.78,-11 565.78,-18"/>
</a>
</g>
</g>
</g>
</svg>
