<?xml version="1.0" encoding="UTF-8" standalone="no"?>
<!DOCTYPE svg PUBLIC "-//W3C//DTD SVG 1.1//EN"
 "http://www.w3.org/Graphics/SVG/1.1/DTD/svg11.dtd">
<!-- Generated by graphviz version 12.1.2 (0)
 -->
<!-- Title: Core::exec Pages: 1 -->
<!--zoomable 225 -->

<svg id="main" version="1.1" xmlns="http://www.w3.org/2000/svg" xmlns:xlink="http://www.w3.org/1999/xlink" xml:space="preserve" onload="init(evt)">

<style type="text/css"><![CDATA[
.node, .edge {opacity: 0.7;}
.node.selected, .edge.selected {opacity: 1;}
.edge:hover path { stroke: red; }
.edge:hover polygon { stroke: red; fill: red; }
]]></style>

<defs>
  <circle id="rim" cx="0" cy="0" r="7"/>
  <circle id="rim2" cx="0" cy="0" r="3.5"/>
  <g id="zoomPlus">
    <use xlink:href="#rim" fill="#404040"><set attributeName="fill" to="#808080" begin="zoomplus.mouseover" end="zoomplus.mouseout"/></use>
    <path d="M-4,0h8M0,-4v8" fill="none" stroke="white" stroke-width="1.5" pointer-events="none"/>
  </g>
  <g id="zoomMin">
    <use xlink:href="#rim" fill="#404040"><set attributeName="fill" to="#808080" begin="zoomminus.mouseover" end="zoomminus.mouseout"/></use>
    <path d="M-4,0h8" fill="none" stroke="white" stroke-width="1.5" pointer-events="none"/>
  </g>
  <g id="arrowUp" transform="translate(30 24)">
    <use xlink:href="#rim"/>
    <path pointer-events="none" fill="none" stroke="white" stroke-width="1.5" d="M0,-3.0v7 M-2.5,-0.5L0,-3.0L2.5,-0.5"/>
  </g>
  <g id="arrowRight" transform="rotate(90) translate(36 -43)">
    <use xlink:href="#rim"/>
    <path pointer-events="none" fill="none" stroke="white" stroke-width="1.5" d="M0,-3.0v7 M-2.5,-0.5L0,-3.0L2.5,-0.5"/>
  </g>
  <g id="arrowDown" transform="rotate(180) translate(-30 -48)">
    <use xlink:href="#rim"/>
    <path pointer-events="none" fill="none" stroke="white" stroke-width="1.5" d="M0,-3.0v7 M-2.5,-0.5L0,-3.0L2.5,-0.5"/>
  </g>
  <g id="arrowLeft" transform="rotate(270) translate(-36 17)">
    <use xlink:href="#rim"/>
    <path pointer-events="none" fill="none" stroke="white" stroke-width="1.5" d="M0,-3.0v7 M-2.5,-0.5L0,-3.0L2.5,-0.5"/>
  </g>
  <g id="resetDef">
    <use xlink:href="#rim2" fill="#404040"><set attributeName="fill" to="#808080" begin="reset.mouseover" end="reset.mouseout"/></use>
  </g>
</defs>
<script type="application/ecmascript">
var viewWidth = 533;
var viewHeight = 225;
var sectionId = 'dynsection-1';
</script>
<script type="application/ecmascript" xlink:href="svg.min.js"/>
<svg id="graph" class="graph">
<g id="viewport">
<title>Core::exec</title>
<!-- Node1 -->
<g id="Node000001" class="node">
<title>Node1</title>
<g id="a_Node000001"><a xlink:title="Start simulation.">
<polygon fill="#999999" stroke="#666666" points="63.25,-161.75 0,-161.75 0,-143.25 63.25,-143.25 63.25,-161.75"/>
<text text-anchor="middle" x="31.62" y="-148.25" font-family="Helvetica,sans-Serif" font-size="10.00">Core::exec</text>
</a>
</g>
</g>
<!-- Node2 -->
<g id="Node000002" class="node">
<title>Node2</title>
<g id="a_Node000002"><a xlink:href="namespaceCore.html#a23e6f3d22fc51ef9decabb2c220b27c4" target="_top" xlink:title=" ">
<polygon fill="white" stroke="#666666" points="220.25,-182.75 99.25,-182.75 99.25,-164.25 220.25,-164.25 220.25,-182.75"/>
<text text-anchor="middle" x="159.75" y="-169.25" font-family="Helvetica,sans-Serif" font-size="10.00">Core::exporter_filename</text>
</a>
</g>
</g>
<!-- Node1&#45;&gt;Node2 -->
<g id="edge1_Node000001_Node000002" class="edge">
<title>Node1&#45;&gt;Node2</title>
<g id="a_edge1_Node000001_Node000002"><a xlink:title=" ">
<path fill="none" stroke="#63b8ff" d="M63.48,-151.74C81.36,-153.68 103.95,-157.35 122.65,-161.32"/>
<polygon fill="#63b8ff" stroke="#63b8ff" points="121.71,-164.7 132.24,-163.49 123.25,-157.87 121.71,-164.7"/>
</a>
</g>
</g>
<!-- Node3 -->
<g id="Node000003" class="node">
<title>Node3</title>
<g id="a_Node000003"><a xlink:href="namespaceCore.html#afbce0beea293a7ccfdfc34a85b5e5e77" target="_top" xlink:title=" ">
<polygon fill="white" stroke="#666666" points="203.75,-146 115.75,-146 115.75,-117 203.75,-117 203.75,-146"/>
<text text-anchor="start" x="123.75" y="-132.5" font-family="Helvetica,sans-Serif" font-size="10.00">Core::init_partial</text>
<text text-anchor="middle" x="159.75" y="-122" font-family="Helvetica,sans-Serif" font-size="10.00">_exporter</text>
</a>
</g>
</g>
<!-- Node1&#45;&gt;Node3 -->
<g id="edge3_Node000001_Node000003" class="edge">
<title>Node1&#45;&gt;Node3</title>
<g id="a_edge3_Node000001_Node000003"><a xlink:title=" ">
<path fill="none" stroke="#63b8ff" d="M63.48,-147.36C75.79,-145.31 90.35,-142.89 104.33,-140.56"/>
<polygon fill="#63b8ff" stroke="#63b8ff" points="104.58,-144.07 113.86,-138.97 103.43,-137.16 104.58,-144.07"/>
</a>
</g>
</g>
<!-- Node9 -->
<g id="Node000009" class="node">
<title>Node9</title>
<g id="a_Node000009"><a xlink:href="namespacePostProcessing.html#a0e06c75e06cf43e767d5e3e8afab62f2" target="_top" xlink:title=" ">
<polygon fill="white" stroke="#666666" points="215.38,-76 104.12,-76 104.12,-47 215.38,-47 215.38,-76"/>
<text text-anchor="start" x="112.12" y="-62.5" font-family="Helvetica,sans-Serif" font-size="10.00">PostProcessing::save</text>
<text text-anchor="middle" x="159.75" y="-52" font-family="Helvetica,sans-Serif" font-size="10.00">_probes</text>
</a>
</g>
</g>
<!-- Node1&#45;&gt;Node9 -->
<g id="edge9_Node000001_Node000009" class="edge">
<title>Node1&#45;&gt;Node9</title>
<g id="a_edge9_Node000001_Node000009"><a xlink:title=" ">
<path fill="none" stroke="#63b8ff" d="M46.12,-142.76C65.82,-128.55 102.94,-101.77 129.17,-82.84"/>
<polygon fill="#63b8ff" stroke="#63b8ff" points="131,-85.83 137.07,-77.15 126.91,-80.16 131,-85.83"/>
</a>
</g>
</g>
<!-- Node2&#45;&gt;Node1 -->
<g id="edge2_Node000002_Node000001" class="edge">
<title>Node2&#45;&gt;Node1</title>
<g id="a_edge2_Node000002_Node000001"><a xlink:title=" ">
<path fill="none" stroke="#63b8ff" d="M98.87,-170.27C88.59,-168.61 78.18,-166.69 68.77,-164.69"/>
<polygon fill="#63b8ff" stroke="#63b8ff" points="69.85,-161.34 59.32,-162.56 68.31,-168.17 69.85,-161.34"/>
</a>
</g>
</g>
<!-- Node4 -->
<g id="Node000004" class="node">
<title>Node4</title>
<g id="a_Node000004"><a xlink:href="classCore_1_1PartialExporter.html#a05cba8c28abaecce99f586d551a75f80" target="_top" xlink:title="Initializes the fields required for exporting data.">
<polygon fill="white" stroke="#666666" points="376.5,-217 267.5,-217 267.5,-188 376.5,-188 376.5,-217"/>
<text text-anchor="start" x="275.5" y="-203.5" font-family="Helvetica,sans-Serif" font-size="10.00">Core::PartialExporter</text>
<text text-anchor="middle" x="322" y="-193" font-family="Helvetica,sans-Serif" font-size="10.00">::init_fields</text>
</a>
</g>
</g>
<!-- Node3&#45;&gt;Node4 -->
<g id="edge4_Node000003_Node000004" class="edge">
<title>Node3&#45;&gt;Node4</title>
<g id="a_edge4_Node000003_Node000004"><a xlink:title=" ">
<path fill="none" stroke="#63b8ff" d="M200.95,-146.4C207.5,-149.21 214.14,-152.28 220.25,-155.5 237.26,-164.48 239.06,-170.88 256.25,-179.5 258.77,-180.76 261.38,-181.99 264.03,-183.17"/>
<polygon fill="#63b8ff" stroke="#63b8ff" points="262.46,-186.31 273.04,-186.95 265.17,-179.85 262.46,-186.31"/>
</a>
</g>
</g>
<!-- Node6 -->
<g id="Node000006" class="node">
<title>Node6</title>
<g id="a_Node000006"><a xlink:href="namespacePostProcessing.html#a9ff9231cbdf2a3c4e539c4638aba2445" target="_top" xlink:title=" ">
<polygon fill="white" stroke="#666666" points="377.62,-170 266.38,-170 266.38,-141 377.62,-141 377.62,-170"/>
<text text-anchor="start" x="274.38" y="-156.5" font-family="Helvetica,sans-Serif" font-size="10.00">PostProcessing::save</text>
<text text-anchor="middle" x="322" y="-146" font-family="Helvetica,sans-Serif" font-size="10.00">_particle_state</text>
</a>
</g>
</g>
<!-- Node3&#45;&gt;Node6 -->
<g id="edge6_Node000003_Node000006" class="edge">
<title>Node3&#45;&gt;Node6</title>
<g id="a_edge6_Node000003_Node000006"><a xlink:title=" ">
<path fill="none" stroke="#63b8ff" d="M204.12,-137.99C219.78,-140.34 237.84,-143.04 255,-145.62"/>
<polygon fill="#63b8ff" stroke="#63b8ff" points="254.21,-149.04 264.62,-147.06 255.25,-142.11 254.21,-149.04"/>
</a>
</g>
</g>
<!-- Node7 -->
<g id="Node000007" class="node">
<title>Node7</title>
<g id="a_Node000007"><a xlink:href="classCore_1_1PartialExporter.html#a450fb0c92efa4ee81b4083fc01f5e665" target="_top" xlink:title="Writes the number of particles in each compartment.">
<polygon fill="white" stroke="#666666" points="381,-123 263,-123 263,-94 381,-94 381,-123"/>
<text text-anchor="start" x="271" y="-109.5" font-family="Helvetica,sans-Serif" font-size="10.00">Core::PartialExporter</text>
<text text-anchor="middle" x="322" y="-99" font-family="Helvetica,sans-Serif" font-size="10.00">::write_number_particle</text>
</a>
</g>
</g>
<!-- Node3&#45;&gt;Node7 -->
<g id="edge7_Node000003_Node000007" class="edge">
<title>Node3&#45;&gt;Node7</title>
<g id="a_edge7_Node000003_Node000007"><a xlink:title=" ">
<path fill="none" stroke="#63b8ff" d="M204.12,-125.28C218.73,-123.18 235.42,-120.78 251.53,-118.47"/>
<polygon fill="#63b8ff" stroke="#63b8ff" points="251.65,-121.99 261.05,-117.1 250.66,-115.06 251.65,-121.99"/>
</a>
</g>
</g>
<!-- Node5 -->
<g id="Node000005" class="node">
<title>Node5</title>
<g id="a_Node000005"><a xlink:href="classCore_1_1DataExporter.html#a9c60512b8e80f25d5f1f6cac29b27d07" target="_top" xlink:title=" ">
<polygon fill="white" stroke="#666666" points="524.5,-217 423.75,-217 423.75,-188 524.5,-188 524.5,-217"/>
<text text-anchor="start" x="431.75" y="-203.5" font-family="Helvetica,sans-Serif" font-size="10.00">Core::DataExporter</text>
<text text-anchor="middle" x="474.12" y="-193" font-family="Helvetica,sans-Serif" font-size="10.00">::prepare_matrix</text>
</a>
</g>
</g>
<!-- Node4&#45;&gt;Node5 -->
<g id="edge5_Node000004_Node000005" class="edge">
<title>Node4&#45;&gt;Node5</title>
<g id="a_edge5_Node000004_Node000005"><a xlink:title=" ">
<path fill="none" stroke="#63b8ff" d="M376.77,-202.5C388.38,-202.5 400.72,-202.5 412.57,-202.5"/>
<polygon fill="#63b8ff" stroke="#63b8ff" points="412.21,-206 422.21,-202.5 412.21,-199 412.21,-206"/>
</a>
</g>
</g>
<!-- Node8 -->
<g id="Node000008" class="node">
<title>Node8</title>
<g id="a_Node000008"><a xlink:href="classCore_1_1DataExporter.html#a0af9b5e13d16339af1918f8e845193f9" target="_top" xlink:title=" ">
<polygon fill="white" stroke="#666666" points="524.5,-123 423.75,-123 423.75,-94 524.5,-94 524.5,-123"/>
<text text-anchor="start" x="431.75" y="-109.5" font-family="Helvetica,sans-Serif" font-size="10.00">Core::DataExporter</text>
<text text-anchor="middle" x="474.12" y="-99" font-family="Helvetica,sans-Serif" font-size="10.00">::append_matrix</text>
</a>
</g>
</g>
<!-- Node7&#45;&gt;Node8 -->
<g id="edge8_Node000007_Node000008" class="edge">
<title>Node7&#45;&gt;Node8</title>
<g id="a_edge8_Node000007_Node000008"><a xlink:title=" ">
<path fill="none" stroke="#63b8ff" d="M381.47,-108.5C391.52,-108.5 401.99,-108.5 412.1,-108.5"/>
<polygon fill="#63b8ff" stroke="#63b8ff" points="411.82,-112 421.82,-108.5 411.82,-105 411.82,-112"/>
</a>
</g>
</g>
<!-- Node10 -->
<g id="Node000010" class="node">
<title>Node10</title>
<g id="a_Node000010"><a xlink:href="classSimulation_1_1SimulationUnit.html#a0d675ed463b0caaeea75be8bd87d72cc" target="_top" xlink:title=" ">
<polygon fill="white" stroke="#666666" points="387.75,-76 256.25,-76 256.25,-47 387.75,-47 387.75,-76"/>
<text text-anchor="start" x="264.25" y="-62.5" font-family="Helvetica,sans-Serif" font-size="10.00">Simulation::SimulationUnit</text>
<text text-anchor="middle" x="322" y="-52" font-family="Helvetica,sans-Serif" font-size="10.00">::get_probes</text>
</a>
</g>
</g>
<!-- Node9&#45;&gt;Node10 -->
<g id="edge10_Node000009_Node000010" class="edge">
<title>Node9&#45;&gt;Node10</title>
<g id="a_edge10_Node000009_Node000010"><a xlink:title=" ">
<path fill="none" stroke="#63b8ff" d="M215.45,-61.5C224.77,-61.5 234.6,-61.5 244.36,-61.5"/>
<polygon fill="#63b8ff" stroke="#63b8ff" points="244.24,-65 254.24,-61.5 244.24,-58 244.24,-65"/>
</a>
</g>
</g>
<!-- Node11 -->
<g id="Node000011" class="node">
<title>Node11</title>
<g id="a_Node000011"><a xlink:href="classCore_1_1PartialExporter.html#a9927dbf1350349f090606134043e190c" target="_top" xlink:title="Writes probe data to the export.">
<polygon fill="white" stroke="#666666" points="376.5,-29 267.5,-29 267.5,0 376.5,0 376.5,-29"/>
<text text-anchor="start" x="275.5" y="-15.5" font-family="Helvetica,sans-Serif" font-size="10.00">Core::PartialExporter</text>
<text text-anchor="middle" x="322" y="-5" font-family="Helvetica,sans-Serif" font-size="10.00">::write_probe</text>
</a>
</g>
</g>
<!-- Node9&#45;&gt;Node11 -->
<g id="edge11_Node000009_Node000011" class="edge">
<title>Node9&#45;&gt;Node11</title>
<g id="a_edge11_Node000009_Node000011"><a xlink:title=" ">
<path fill="none" stroke="#63b8ff" d="M211.45,-46.63C226.65,-42.17 243.49,-37.23 259.32,-32.59"/>
<polygon fill="#63b8ff" stroke="#63b8ff" points="260.01,-36.03 268.62,-29.86 258.04,-29.32 260.01,-36.03"/>
</a>
</g>
</g>
<!-- Node12 -->
<g id="Node000012" class="node">
<title>Node12</title>
<g id="a_Node000012"><a xlink:href="classCore_1_1DataExporter.html#a0b0b79f3932c4eb905704a852248c857" target="_top" xlink:title=" ">
<polygon fill="white" stroke="#666666" points="524.5,-29 423.75,-29 423.75,0 524.5,0 524.5,-29"/>
<text text-anchor="start" x="431.75" y="-15.5" font-family="Helvetica,sans-Serif" font-size="10.00">Core::DataExporter</text>
<text text-anchor="middle" x="474.12" y="-5" font-family="Helvetica,sans-Serif" font-size="10.00">::append_array</text>
</a>
</g>
</g>
<!-- Node11&#45;&gt;Node12 -->
<g id="edge12_Node000011_Node000012" class="edge">
<title>Node11&#45;&gt;Node12</title>
<g id="a_edge12_Node000011_Node000012"><a xlink:title=" ">
<path fill="none" stroke="#63b8ff" d="M376.77,-14.5C388.38,-14.5 400.72,-14.5 412.57,-14.5"/>
<polygon fill="#63b8ff" stroke="#63b8ff" points="412.21,-18 422.21,-14.5 412.21,-11 412.21,-18"/>
</a>
</g>
</g>
</g>
</svg>

<g id="navigator" transform="translate(0 0)" fill="#404254">
  <rect fill="#f2f5e9" fill-opacity="0.5" stroke="#606060" stroke-width=".5" x="0" y="0" width="60" height="60"/>
  <use id="zoomplus" xlink:href="#zoomPlus" x="17" y="9" onmousedown="handleZoom(evt,'in')"/>
  <use id="zoomminus" xlink:href="#zoomMin" x="42" y="9" onmousedown="handleZoom(evt,'out')"/>
  <use id="reset" xlink:href="#resetDef" x="30" y="36" onmousedown="handleReset()"/>
   <use id="arrowup" xlink:href="#arrowUp" x="0" y="0" onmousedown="handlePan(0,-1)"/>
  <use id="arrowright" xlink:href="#arrowRight" x="0" y="0" onmousedown="handlePan(1,0)"/>
  <use id="arrowdown" xlink:href="#arrowDown" x="0" y="0" onmousedown="handlePan(0,1)"/>
  <use id="arrowleft" xlink:href="#arrowLeft" x="0" y="0" onmousedown="handlePan(-1,0)"/>
</g>
<svg viewBox="0 0 15 15" width="100%" height="30px" preserveAspectRatio="xMaxYMin meet">
 <g id="arrow_out" transform="scale(0.3 0.3)">
  <a xlink:href="namespaceCore_acd849e9c1dbf0aef00c45cfdcb0194b3_cgraph_org.svg" target="_base">
   <rect id="button" ry="5" rx="5" y="6" x="6" height="38" width="38"
        fill="#f2f5e9" fill-opacity="0.5" stroke="#606060" stroke-width="1.0"/>
   <path id="arrow"
     d="M 11.500037,31.436501 C 11.940474,20.09759 22.043105,11.32322 32.158766,21.979434 L 37.068811,17.246167 C 37.068811,17.246167 37.088388,32 37.088388,32 L 22.160133,31.978069 C 22.160133,31.978069 26.997745,27.140456 26.997745,27.140456 C 18.528582,18.264221 13.291696,25.230495 11.500037,31.436501 z"
     style="fill:#404040;"/>
  </a>
 </g>
</svg>

<style type='text/css'>
<![CDATA[
[data-mouse-over-selected='false'] { opacity: 0.7; }
[data-mouse-over-selected='true']  { opacity: 1.0; }
]]>
</style>
<script type="application/ecmascript"><![CDATA[
document.addEventListener('DOMContentLoaded', (event) => {
  highlightEdges();
  highlightAdjacentNodes();
});
]]></script>
</svg>
