<?xml version="1.0" encoding="UTF-8" standalone="no"?>
<!DOCTYPE svg PUBLIC "-//W3C//DTD SVG 1.1//EN"
 "http://www.w3.org/Graphics/SVG/1.1/DTD/svg11.dtd">
<!-- Generated by graphviz version 14.0.1 (0)
 -->
<!-- Title: WrapMPI::barrier Pages: 1 -->
<svg width="544pt" height="112pt"
 viewBox="0.00 0.00 544.00 112.00" xmlns="http://www.w3.org/2000/svg" xmlns:xlink="http://www.w3.org/1999/xlink">
<g id="graph0" class="graph" transform="scale(1 1) rotate(0) translate(4 107.75)">
<title>WrapMPI::barrier</title>
<!-- Node1 -->
<g id="Node000001" class="node">
<title>Node1</title>
<g id="a_Node000001"><a xlink:title=" ">
<polygon fill="#999999" stroke="#666666" points="535.75,-66.75 447,-66.75 447,-48.25 535.75,-48.25 535.75,-66.75"/>
<text xml:space="preserve" text-anchor="middle" x="491.38" y="-53.25" font-family="Helvetica,sans-Serif" font-size="10.00">WrapMPI::barrier</text>
</a>
</g>
</g>
<!-- Node2 -->
<g id="Node000002" class="node">
<title>Node2</title>
<g id="a_Node000002"><a xlink:href="namespaceWrapMPI.html#aadc3308a0cd9aa92fb555a4eb2f26c97" target="_top" xlink:title=" ">
<polygon fill="white" stroke="#666666" points="402,-103.75 310.25,-103.75 310.25,-85.25 402,-85.25 402,-103.75"/>
<text xml:space="preserve" text-anchor="middle" x="356.12" y="-90.25" font-family="Helvetica,sans-Serif" font-size="10.00">WrapMPI::finalize</text>
</a>
</g>
</g>
<!-- Node1&#45;&gt;Node2 -->
<g id="edge1_Node000001_Node000002" class="edge">
<title>Node1&#45;&gt;Node2</title>
<g id="a_edge1_Node000001_Node000002"><a xlink:title=" ">
<path fill="none" stroke="#63b8ff" d="M444.4,-70.27C427.19,-75.04 407.94,-80.39 391.9,-84.84"/>
<polygon fill="#63b8ff" stroke="#63b8ff" points="445.21,-73.67 453.91,-67.63 443.33,-66.93 445.21,-73.67"/>
</a>
</g>
</g>
<!-- Node3 -->
<g id="Node000003" class="node">
<title>Node3</title>
<g id="a_Node000003"><a xlink:href="namespaceCore.html#ae86a8a5e09a74787e58f4fc476788413" target="_top" xlink:title="Initializes the runtime environment based on command&#45;line arguments and simulation parameters.">
<polygon fill="white" stroke="#666666" points="257,-86.75 163.75,-86.75 163.75,-68.25 257,-68.25 257,-86.75"/>
<text xml:space="preserve" text-anchor="middle" x="210.38" y="-73.25" font-family="Helvetica,sans-Serif" font-size="10.00">Core::runtime_init</text>
</a>
</g>
</g>
<!-- Node1&#45;&gt;Node3 -->
<g id="edge7_Node000001_Node000003" class="edge">
<title>Node1&#45;&gt;Node3</title>
<g id="a_edge7_Node000001_Node000003"><a xlink:title=" ">
<path fill="none" stroke="#63b8ff" d="M435.44,-61.44C383.45,-65.16 306.3,-70.7 257.45,-74.2"/>
<polygon fill="#63b8ff" stroke="#63b8ff" points="435.55,-64.94 445.27,-60.73 435.05,-57.96 435.55,-64.94"/>
</a>
</g>
</g>
<!-- Node5 -->
<g id="Node000005" class="node">
<title>Node5</title>
<g id="a_Node000005"><a xlink:href="classCore_1_1GlobalInitialiser.html#aa042e8d396a5287c49fb6a8b81eba209" target="_top" xlink:title="Performs MPI broadcast for synchronization.">
<polygon fill="white" stroke="#666666" points="411,-29 301.25,-29 301.25,0 411,0 411,-29"/>
<text xml:space="preserve" text-anchor="start" x="309.25" y="-15.5" font-family="Helvetica,sans-Serif" font-size="10.00">Core::GlobalInitialiser</text>
<text xml:space="preserve" text-anchor="middle" x="356.12" y="-5" font-family="Helvetica,sans-Serif" font-size="10.00">::mpi_broadcast</text>
</a>
</g>
</g>
<!-- Node1&#45;&gt;Node5 -->
<g id="edge4_Node000001_Node000005" class="edge">
<title>Node1&#45;&gt;Node5</title>
<g id="a_edge4_Node000001_Node000005"><a xlink:title=" ">
<path fill="none" stroke="#63b8ff" d="M449.73,-44.38C435.1,-39.66 418.49,-34.3 403.41,-29.44"/>
<polygon fill="#63b8ff" stroke="#63b8ff" points="448.44,-47.64 459.03,-47.39 450.59,-40.98 448.44,-47.64"/>
</a>
</g>
</g>
<!-- Node2&#45;&gt;Node3 -->
<g id="edge2_Node000002_Node000003" class="edge">
<title>Node2&#45;&gt;Node3</title>
<g id="a_edge2_Node000002_Node000003"><a xlink:title=" ">
<path fill="none" stroke="#63b8ff" d="M298.73,-87.83C285,-86.21 270.47,-84.49 257.29,-82.93"/>
<polygon fill="#63b8ff" stroke="#63b8ff" points="298.19,-91.29 308.53,-88.99 299.01,-84.34 298.19,-91.29"/>
</a>
</g>
</g>
<!-- Node4 -->
<g id="Node000004" class="node">
<title>Node4</title>
<g id="a_Node000004"><a xlink:href="structApi_1_1SimulationInstance.html#aaba14d53cd780130378421e0bf990663" target="_top" xlink:title="simulation instance constructor">
<polygon fill="white" stroke="#666666" points="119.5,-92 0,-92 0,-63 119.5,-63 119.5,-92"/>
<text xml:space="preserve" text-anchor="start" x="8" y="-78.5" font-family="Helvetica,sans-Serif" font-size="10.00">Api::SimulationInstance</text>
<text xml:space="preserve" text-anchor="middle" x="59.75" y="-68" font-family="Helvetica,sans-Serif" font-size="10.00">::SimulationInstance</text>
</a>
</g>
</g>
<!-- Node3&#45;&gt;Node4 -->
<g id="edge3_Node000003_Node000004" class="edge">
<title>Node3&#45;&gt;Node4</title>
<g id="a_edge3_Node000003_Node000004"><a xlink:title=" ">
<path fill="none" stroke="#63b8ff" d="M152.28,-77.5C141.65,-77.5 130.52,-77.5 119.83,-77.5"/>
<polygon fill="#63b8ff" stroke="#63b8ff" points="152.06,-81 162.06,-77.5 152.06,-74 152.06,-81"/>
</a>
</g>
</g>
<!-- Node6 -->
<g id="Node000006" class="node">
<title>Node6</title>
<g id="a_Node000006"><a xlink:href="classCore_1_1GlobalInitialiser.html#a97eff5566ced6ba6449eb532f0babadc" target="_top" xlink:title="Initializes a flow iterator.">
<polygon fill="white" stroke="#666666" points="265.25,-29 155.5,-29 155.5,0 265.25,0 265.25,-29"/>
<text xml:space="preserve" text-anchor="start" x="163.5" y="-15.5" font-family="Helvetica,sans-Serif" font-size="10.00">Core::GlobalInitialiser</text>
<text xml:space="preserve" text-anchor="middle" x="210.38" y="-5" font-family="Helvetica,sans-Serif" font-size="10.00">::init_state</text>
</a>
</g>
</g>
<!-- Node5&#45;&gt;Node6 -->
<g id="edge5_Node000005_Node000006" class="edge">
<title>Node5&#45;&gt;Node6</title>
<g id="a_edge5_Node000005_Node000006"><a xlink:title=" ">
<path fill="none" stroke="#63b8ff" d="M289.47,-14.5C281.39,-14.5 273.2,-14.5 265.32,-14.5"/>
<polygon fill="#63b8ff" stroke="#63b8ff" points="289.27,-18 299.27,-14.5 289.27,-11 289.27,-18"/>
</a>
</g>
</g>
<!-- Node7 -->
<g id="Node000007" class="node">
<title>Node7</title>
<g id="a_Node000007"><a xlink:href="classCore_1_1GlobalInitialiser.html#a0dc2da93c4202706b5f37453f355145c" target="_top" xlink:title="Initializes a transitioner with the provided flow iterator.">
<polygon fill="white" stroke="#666666" points="114.62,-29 4.88,-29 4.88,0 114.62,0 114.62,-29"/>
<text xml:space="preserve" text-anchor="start" x="12.88" y="-15.5" font-family="Helvetica,sans-Serif" font-size="10.00">Core::GlobalInitialiser</text>
<text xml:space="preserve" text-anchor="middle" x="59.75" y="-5" font-family="Helvetica,sans-Serif" font-size="10.00">::init_transitionner</text>
</a>
</g>
</g>
<!-- Node6&#45;&gt;Node7 -->
<g id="edge6_Node000006_Node000007" class="edge">
<title>Node6&#45;&gt;Node7</title>
<g id="a_edge6_Node000006_Node000007"><a xlink:title=" ">
<path fill="none" stroke="#63b8ff" d="M144.06,-14.5C134.37,-14.5 124.47,-14.5 115.04,-14.5"/>
<polygon fill="#63b8ff" stroke="#63b8ff" points="143.78,-18 153.78,-14.5 143.78,-11 143.78,-18"/>
</a>
</g>
</g>
</g>
</svg>
