<?xml version="1.0" encoding="UTF-8" standalone="no"?>
<!DOCTYPE svg PUBLIC "-//W3C//DTD SVG 1.1//EN"
 "http://www.w3.org/Graphics/SVG/1.1/DTD/svg11.dtd">
<!-- Generated by graphviz version 14.0.1 (0)
 -->
<!-- Title: EIGEN_DIAG_POP::get_gas_fraction Pages: 1 -->
<svg width="289pt" height="55pt"
 viewBox="0.00 0.00 289.00 55.00" xmlns="http://www.w3.org/2000/svg" xmlns:xlink="http://www.w3.org/1999/xlink">
<g id="graph0" class="graph" transform="scale(1 1) rotate(0) translate(4 51)">
<title>EIGEN_DIAG_POP::get_gas_fraction</title>
<!-- Node1 -->
<g id="Node000001" class="node">
<title>Node1</title>
<g id="a_Node000001"><a xlink:title=" ">
<polygon fill="#999999" stroke="#666666" points="281,-29 158.5,-29 158.5,0 281,0 281,-29"/>
<text xml:space="preserve" text-anchor="start" x="166.5" y="-15.5" font-family="Helvetica,sans-Serif" font-size="10.00">EIGEN_DIAG_POP::get</text>
<text xml:space="preserve" text-anchor="middle" x="219.75" y="-5" font-family="Helvetica,sans-Serif" font-size="10.00">_gas_fraction</text>
</a>
</g>
</g>
<!-- Node1&#45;&gt;Node1 -->
<g id="edge1_Node000001_Node000001" class="edge">
<title>Node1&#45;&gt;Node1</title>
<g id="a_edge1_Node000001_Node000001"><a xlink:title=" ">
<path fill="none" stroke="#63b8ff" d="M246.65,-40.56C242.43,-44.41 233.46,-47 219.75,-47 194.67,-47 185.47,-38.32 192.13,-29.21"/>
<polygon fill="#63b8ff" stroke="#63b8ff" points="250.14,-40.92 247.28,-30.72 243.15,-40.48 250.14,-40.92"/>
</a>
</g>
</g>
<!-- Node2 -->
<g id="Node000002" class="node">
<title>Node2</title>
<g id="a_Node000002"><a xlink:href="namespaceEIGEN__DIAG__POP.html#a18542b447667c551e634c539c64c92ed" target="_top" xlink:title=" ">
<polygon fill="white" stroke="#666666" points="122.5,-29 0,-29 0,0 122.5,0 122.5,-29"/>
<text xml:space="preserve" text-anchor="start" x="8" y="-15.5" font-family="Helvetica,sans-Serif" font-size="10.00">EIGEN_DIAG_POP::get</text>
<text xml:space="preserve" text-anchor="middle" x="61.25" y="-5" font-family="Helvetica,sans-Serif" font-size="10.00">_interfacial_area</text>
</a>
</g>
</g>
<!-- Node1&#45;&gt;Node2 -->
<g id="edge2_Node000001_Node000002" class="edge">
<title>Node1&#45;&gt;Node2</title>
<g id="a_edge2_Node000001_Node000002"><a xlink:title=" ">
<path fill="none" stroke="#63b8ff" d="M146.95,-14.5C138.9,-14.5 130.75,-14.5 122.85,-14.5"/>
<polygon fill="#63b8ff" stroke="#63b8ff" points="146.73,-18 156.73,-14.5 146.73,-11 146.73,-18"/>
</a>
</g>
</g>
<!-- Node2&#45;&gt;Node2 -->
<g id="edge3_Node000002_Node000002" class="edge">
<title>Node2&#45;&gt;Node2</title>
<g id="a_edge3_Node000002_Node000002"><a xlink:title=" ">
<path fill="none" stroke="#63b8ff" d="M88.15,-40.56C83.93,-44.41 74.96,-47 61.25,-47 36.17,-47 26.97,-38.32 33.63,-29.21"/>
<polygon fill="#63b8ff" stroke="#63b8ff" points="91.64,-40.92 88.78,-30.72 84.65,-40.48 91.64,-40.92"/>
</a>
</g>
</g>
</g>
</svg>
