<?xml version="1.0" encoding="UTF-8" standalone="no"?>
<!DOCTYPE svg PUBLIC "-//W3C//DTD SVG 1.1//EN"
 "http://www.w3.org/Graphics/SVG/1.1/DTD/svg11.dtd">
<!-- Generated by graphviz version 12.1.2 (0)
 -->
<!-- Title: Core::exporter_filename Pages: 1 -->
<svg width="680pt" height="225pt"
 viewBox="0.00 0.00 679.75 225.00" xmlns="http://www.w3.org/2000/svg" xmlns:xlink="http://www.w3.org/1999/xlink">
<g id="graph0" class="graph" transform="scale(1 1) rotate(0) translate(4 221)">
<title>Core::exporter_filename</title>
<!-- Node1 -->
<g id="Node000001" class="node">
<title>Node1</title>
<g id="a_Node000001"><a xlink:title=" ">
<polygon fill="#999999" stroke="#666666" points="121,-93.75 0,-93.75 0,-75.25 121,-75.25 121,-93.75"/>
<text text-anchor="middle" x="60.5" y="-80.25" font-family="Helvetica,sans-Serif" font-size="10.00">Core::exporter_filename</text>
</a>
</g>
</g>
<!-- Node2 -->
<g id="Node000002" class="node">
<title>Node2</title>
<g id="a_Node000002"><a xlink:href="namespaceCore.html#acd849e9c1dbf0aef00c45cfdcb0194b3" target="_top" xlink:title="Start simulation.">
<polygon fill="white" stroke="#666666" points="220.25,-93.75 157,-93.75 157,-75.25 220.25,-75.25 220.25,-93.75"/>
<text text-anchor="middle" x="188.62" y="-80.25" font-family="Helvetica,sans-Serif" font-size="10.00">Core::exec</text>
</a>
</g>
</g>
<!-- Node1&#45;&gt;Node2 -->
<g id="edge1_Node000001_Node000002" class="edge">
<title>Node1&#45;&gt;Node2</title>
<g id="a_edge1_Node000001_Node000002"><a xlink:title=" ">
<path fill="none" stroke="#63b8ff" d="M121.24,-77.76C129.36,-77.72 137.55,-77.83 145.27,-78.08"/>
<polygon fill="#63b8ff" stroke="#63b8ff" points="144.91,-81.57 155.06,-78.52 145.22,-74.58 144.91,-81.57"/>
</a>
</g>
</g>
<!-- Node2&#45;&gt;Node1 -->
<g id="edge2_Node000002_Node000001" class="edge">
<title>Node2&#45;&gt;Node1</title>
<g id="a_edge2_Node000002_Node000001"><a xlink:title=" ">
<path fill="none" stroke="#63b8ff" d="M156.57,-90.41C149.2,-90.83 141.04,-91.1 132.69,-91.2"/>
<polygon fill="#63b8ff" stroke="#63b8ff" points="132.74,-87.7 122.75,-91.24 132.76,-94.7 132.74,-87.7"/>
</a>
</g>
</g>
<!-- Node3 -->
<g id="Node000003" class="node">
<title>Node3</title>
<g id="a_Node000003"><a xlink:href="namespaceCore.html#afbce0beea293a7ccfdfc34a85b5e5e77" target="_top" xlink:title=" ">
<polygon fill="white" stroke="#666666" points="355.88,-146 267.88,-146 267.88,-117 355.88,-117 355.88,-146"/>
<text text-anchor="start" x="275.88" y="-132.5" font-family="Helvetica,sans-Serif" font-size="10.00">Core::init_partial</text>
<text text-anchor="middle" x="311.88" y="-122" font-family="Helvetica,sans-Serif" font-size="10.00">_exporter</text>
</a>
</g>
</g>
<!-- Node2&#45;&gt;Node3 -->
<g id="edge3_Node000002_Node000003" class="edge">
<title>Node2&#45;&gt;Node3</title>
<g id="a_edge3_Node000002_Node000003"><a xlink:title=" ">
<path fill="none" stroke="#63b8ff" d="M214.75,-94.24C228.4,-99.53 245.77,-106.26 261.98,-112.55"/>
<polygon fill="#63b8ff" stroke="#63b8ff" points="260.41,-115.69 271,-116.04 262.94,-109.16 260.41,-115.69"/>
</a>
</g>
</g>
<!-- Node9 -->
<g id="Node000009" class="node">
<title>Node9</title>
<g id="a_Node000009"><a xlink:href="namespacePostProcessing.html#a0e06c75e06cf43e767d5e3e8afab62f2" target="_top" xlink:title=" ">
<polygon fill="white" stroke="#666666" points="367.5,-76 256.25,-76 256.25,-47 367.5,-47 367.5,-76"/>
<text text-anchor="start" x="264.25" y="-62.5" font-family="Helvetica,sans-Serif" font-size="10.00">PostProcessing::save</text>
<text text-anchor="middle" x="311.88" y="-52" font-family="Helvetica,sans-Serif" font-size="10.00">_probes</text>
</a>
</g>
</g>
<!-- Node2&#45;&gt;Node9 -->
<g id="edge9_Node000002_Node000009" class="edge">
<title>Node2&#45;&gt;Node9</title>
<g id="a_edge9_Node000002_Node000009"><a xlink:title=" ">
<path fill="none" stroke="#63b8ff" d="M220.54,-78.64C228.05,-77.21 236.37,-75.63 244.83,-74.03"/>
<polygon fill="#63b8ff" stroke="#63b8ff" points="245.33,-77.5 254.5,-72.19 244.02,-70.62 245.33,-77.5"/>
</a>
</g>
</g>
<!-- Node4 -->
<g id="Node000004" class="node">
<title>Node4</title>
<g id="a_Node000004"><a xlink:href="classCore_1_1PartialExporter.html#a05cba8c28abaecce99f586d551a75f80" target="_top" xlink:title="Initializes the fields required for exporting data.">
<polygon fill="white" stroke="#666666" points="523.75,-217 414.75,-217 414.75,-188 523.75,-188 523.75,-217"/>
<text text-anchor="start" x="422.75" y="-203.5" font-family="Helvetica,sans-Serif" font-size="10.00">Core::PartialExporter</text>
<text text-anchor="middle" x="469.25" y="-193" font-family="Helvetica,sans-Serif" font-size="10.00">::init_fields</text>
</a>
</g>
</g>
<!-- Node3&#45;&gt;Node4 -->
<g id="edge4_Node000003_Node000004" class="edge">
<title>Node3&#45;&gt;Node4</title>
<g id="a_edge4_Node000003_Node000004"><a xlink:title=" ">
<path fill="none" stroke="#63b8ff" d="M338.55,-146.39C356.43,-156.44 381.01,-169.61 403.5,-179.5 406.47,-180.81 409.54,-182.09 412.65,-183.35"/>
<polygon fill="#63b8ff" stroke="#63b8ff" points="411.33,-186.59 421.92,-186.96 413.87,-180.07 411.33,-186.59"/>
</a>
</g>
</g>
<!-- Node6 -->
<g id="Node000006" class="node">
<title>Node6</title>
<g id="a_Node000006"><a xlink:href="namespacePostProcessing.html#a9ff9231cbdf2a3c4e539c4638aba2445" target="_top" xlink:title=" ">
<polygon fill="white" stroke="#666666" points="524.88,-170 413.62,-170 413.62,-141 524.88,-141 524.88,-170"/>
<text text-anchor="start" x="421.62" y="-156.5" font-family="Helvetica,sans-Serif" font-size="10.00">PostProcessing::save</text>
<text text-anchor="middle" x="469.25" y="-146" font-family="Helvetica,sans-Serif" font-size="10.00">_particle_state</text>
</a>
</g>
</g>
<!-- Node3&#45;&gt;Node6 -->
<g id="edge6_Node000003_Node000006" class="edge">
<title>Node3&#45;&gt;Node6</title>
<g id="a_edge6_Node000003_Node000006"><a xlink:title=" ">
<path fill="none" stroke="#63b8ff" d="M356.16,-138.19C370.39,-140.38 386.56,-142.88 402.09,-145.28"/>
<polygon fill="#63b8ff" stroke="#63b8ff" points="401.34,-148.71 411.76,-146.77 402.41,-141.79 401.34,-148.71"/>
</a>
</g>
</g>
<!-- Node7 -->
<g id="Node000007" class="node">
<title>Node7</title>
<g id="a_Node000007"><a xlink:href="classCore_1_1PartialExporter.html#a450fb0c92efa4ee81b4083fc01f5e665" target="_top" xlink:title="Writes the number of particles in each compartment.">
<polygon fill="white" stroke="#666666" points="528.25,-123 410.25,-123 410.25,-94 528.25,-94 528.25,-123"/>
<text text-anchor="start" x="418.25" y="-109.5" font-family="Helvetica,sans-Serif" font-size="10.00">Core::PartialExporter</text>
<text text-anchor="middle" x="469.25" y="-99" font-family="Helvetica,sans-Serif" font-size="10.00">::write_number_particle</text>
</a>
</g>
</g>
<!-- Node3&#45;&gt;Node7 -->
<g id="edge7_Node000003_Node000007" class="edge">
<title>Node3&#45;&gt;Node7</title>
<g id="a_edge7_Node000003_Node000007"><a xlink:title=" ">
<path fill="none" stroke="#63b8ff" d="M356.16,-125.09C369.39,-123.13 384.3,-120.93 398.82,-118.78"/>
<polygon fill="#63b8ff" stroke="#63b8ff" points="398.94,-122.3 408.31,-117.37 397.91,-115.37 398.94,-122.3"/>
</a>
</g>
</g>
<!-- Node5 -->
<g id="Node000005" class="node">
<title>Node5</title>
<g id="a_Node000005"><a xlink:href="classCore_1_1DataExporter.html#a9c60512b8e80f25d5f1f6cac29b27d07" target="_top" xlink:title=" ">
<polygon fill="white" stroke="#666666" points="671.75,-217 571,-217 571,-188 671.75,-188 671.75,-217"/>
<text text-anchor="start" x="579" y="-203.5" font-family="Helvetica,sans-Serif" font-size="10.00">Core::DataExporter</text>
<text text-anchor="middle" x="621.38" y="-193" font-family="Helvetica,sans-Serif" font-size="10.00">::prepare_matrix</text>
</a>
</g>
</g>
<!-- Node4&#45;&gt;Node5 -->
<g id="edge5_Node000004_Node000005" class="edge">
<title>Node4&#45;&gt;Node5</title>
<g id="a_edge5_Node000004_Node000005"><a xlink:title=" ">
<path fill="none" stroke="#63b8ff" d="M524.02,-202.5C535.63,-202.5 547.97,-202.5 559.82,-202.5"/>
<polygon fill="#63b8ff" stroke="#63b8ff" points="559.46,-206 569.46,-202.5 559.46,-199 559.46,-206"/>
</a>
</g>
</g>
<!-- Node8 -->
<g id="Node000008" class="node">
<title>Node8</title>
<g id="a_Node000008"><a xlink:href="classCore_1_1DataExporter.html#a0af9b5e13d16339af1918f8e845193f9" target="_top" xlink:title=" ">
<polygon fill="white" stroke="#666666" points="671.75,-123 571,-123 571,-94 671.75,-94 671.75,-123"/>
<text text-anchor="start" x="579" y="-109.5" font-family="Helvetica,sans-Serif" font-size="10.00">Core::DataExporter</text>
<text text-anchor="middle" x="621.38" y="-99" font-family="Helvetica,sans-Serif" font-size="10.00">::append_matrix</text>
</a>
</g>
</g>
<!-- Node7&#45;&gt;Node8 -->
<g id="edge8_Node000007_Node000008" class="edge">
<title>Node7&#45;&gt;Node8</title>
<g id="a_edge8_Node000007_Node000008"><a xlink:title=" ">
<path fill="none" stroke="#63b8ff" d="M528.72,-108.5C538.77,-108.5 549.24,-108.5 559.35,-108.5"/>
<polygon fill="#63b8ff" stroke="#63b8ff" points="559.07,-112 569.07,-108.5 559.07,-105 559.07,-112"/>
</a>
</g>
</g>
<!-- Node10 -->
<g id="Node000010" class="node">
<title>Node10</title>
<g id="a_Node000010"><a xlink:href="classSimulation_1_1SimulationUnit.html#a0d675ed463b0caaeea75be8bd87d72cc" target="_top" xlink:title=" ">
<polygon fill="white" stroke="#666666" points="535,-76 403.5,-76 403.5,-47 535,-47 535,-76"/>
<text text-anchor="start" x="411.5" y="-62.5" font-family="Helvetica,sans-Serif" font-size="10.00">Simulation::SimulationUnit</text>
<text text-anchor="middle" x="469.25" y="-52" font-family="Helvetica,sans-Serif" font-size="10.00">::get_probes</text>
</a>
</g>
</g>
<!-- Node9&#45;&gt;Node10 -->
<g id="edge10_Node000009_Node000010" class="edge">
<title>Node9&#45;&gt;Node10</title>
<g id="a_edge10_Node000009_Node000010"><a xlink:title=" ">
<path fill="none" stroke="#63b8ff" d="M367.65,-61.5C375.43,-61.5 383.55,-61.5 391.65,-61.5"/>
<polygon fill="#63b8ff" stroke="#63b8ff" points="391.54,-65 401.54,-61.5 391.54,-58 391.54,-65"/>
</a>
</g>
</g>
<!-- Node11 -->
<g id="Node000011" class="node">
<title>Node11</title>
<g id="a_Node000011"><a xlink:href="classCore_1_1PartialExporter.html#a9927dbf1350349f090606134043e190c" target="_top" xlink:title="Writes probe data to the export.">
<polygon fill="white" stroke="#666666" points="523.75,-29 414.75,-29 414.75,0 523.75,0 523.75,-29"/>
<text text-anchor="start" x="422.75" y="-15.5" font-family="Helvetica,sans-Serif" font-size="10.00">Core::PartialExporter</text>
<text text-anchor="middle" x="469.25" y="-5" font-family="Helvetica,sans-Serif" font-size="10.00">::write_probe</text>
</a>
</g>
</g>
<!-- Node9&#45;&gt;Node11 -->
<g id="edge11_Node000009_Node000011" class="edge">
<title>Node9&#45;&gt;Node11</title>
<g id="a_edge11_Node000009_Node000011"><a xlink:title=" ">
<path fill="none" stroke="#63b8ff" d="M362.04,-46.63C376.63,-42.21 392.79,-37.33 408,-32.73"/>
<polygon fill="#63b8ff" stroke="#63b8ff" points="408.87,-36.12 417.43,-29.87 406.84,-29.42 408.87,-36.12"/>
</a>
</g>
</g>
<!-- Node12 -->
<g id="Node000012" class="node">
<title>Node12</title>
<g id="a_Node000012"><a xlink:href="classCore_1_1DataExporter.html#a0b0b79f3932c4eb905704a852248c857" target="_top" xlink:title=" ">
<polygon fill="white" stroke="#666666" points="671.75,-29 571,-29 571,0 671.75,0 671.75,-29"/>
<text text-anchor="start" x="579" y="-15.5" font-family="Helvetica,sans-Serif" font-size="10.00">Core::DataExporter</text>
<text text-anchor="middle" x="621.38" y="-5" font-family="Helvetica,sans-Serif" font-size="10.00">::append_array</text>
</a>
</g>
</g>
<!-- Node11&#45;&gt;Node12 -->
<g id="edge12_Node000011_Node000012" class="edge">
<title>Node11&#45;&gt;Node12</title>
<g id="a_edge12_Node000011_Node000012"><a xlink:title=" ">
<path fill="none" stroke="#63b8ff" d="M524.02,-14.5C535.63,-14.5 547.97,-14.5 559.82,-14.5"/>
<polygon fill="#63b8ff" stroke="#63b8ff" points="559.46,-18 569.46,-14.5 559.46,-11 559.46,-18"/>
</a>
</g>
</g>
</g>
</svg>
