<?xml version="1.0" encoding="UTF-8" standalone="no"?>
<!DOCTYPE svg PUBLIC "-//W3C//DTD SVG 1.1//EN"
 "http://www.w3.org/Graphics/SVG/1.1/DTD/svg11.dtd">
<!-- Generated by graphviz version 12.1.2 (0)
 -->
<!-- Title: Core::ScalarFactory::sanitize Pages: 1 -->
<svg width="705pt" height="107pt"
 viewBox="0.00 0.00 705.25 107.00" xmlns="http://www.w3.org/2000/svg" xmlns:xlink="http://www.w3.org/1999/xlink">
<g id="graph0" class="graph" transform="scale(1 1) rotate(0) translate(4 103)">
<title>Core::ScalarFactory::sanitize</title>
<!-- Node1 -->
<g id="Node000001" class="node">
<title>Node1</title>
<g id="a_Node000001"><a xlink:title=" ">
<polygon fill="#999999" stroke="#666666" points="697.25,-75 592.75,-75 592.75,-46 697.25,-46 697.25,-75"/>
<text text-anchor="start" x="600.75" y="-61.5" font-family="Helvetica,sans-Serif" font-size="10.00">Core::ScalarFactory</text>
<text text-anchor="middle" x="645" y="-51" font-family="Helvetica,sans-Serif" font-size="10.00">::sanitize</text>
</a>
</g>
</g>
<!-- Node2 -->
<g id="Node000002" class="node">
<title>Node2</title>
<g id="a_Node000002"><a xlink:href="classCore_1_1GlobalInitialiser.html#afa96dd38c29284ca8a70bdb67017c70b" target="_top" xlink:title="Initializes a simulation unit with specified parameters.">
<polygon fill="white" stroke="#666666" points="556.75,-99 447,-99 447,-70 556.75,-70 556.75,-99"/>
<text text-anchor="start" x="455" y="-85.5" font-family="Helvetica,sans-Serif" font-size="10.00">Core::GlobalInitialiser</text>
<text text-anchor="middle" x="501.88" y="-75" font-family="Helvetica,sans-Serif" font-size="10.00">::init_simulation</text>
</a>
</g>
</g>
<!-- Node1&#45;&gt;Node2 -->
<g id="edge1_Node000001_Node000002" class="edge">
<title>Node1&#45;&gt;Node2</title>
<g id="a_edge1_Node000001_Node000002"><a xlink:title=" ">
<path fill="none" stroke="#63b8ff" d="M581.04,-71.21C573.01,-72.57 564.86,-73.96 556.99,-75.3"/>
<polygon fill="#63b8ff" stroke="#63b8ff" points="581.49,-74.68 590.76,-69.55 580.31,-67.78 581.49,-74.68"/>
</a>
</g>
</g>
<!-- Node3 -->
<g id="Node000003" class="node">
<title>Node3</title>
<g id="a_Node000003"><a xlink:href="namespaceCore_1_1ScalarFactory.html#a8fb497033464776a1cda71cce1840cd8" target="_top" xlink:title="Factory function to initialize scalar data based on the specified input source.">
<polygon fill="white" stroke="#666666" points="554.12,-52 449.62,-52 449.62,-23 554.12,-23 554.12,-52"/>
<text text-anchor="start" x="457.62" y="-38.5" font-family="Helvetica,sans-Serif" font-size="10.00">Core::ScalarFactory</text>
<text text-anchor="middle" x="501.88" y="-28" font-family="Helvetica,sans-Serif" font-size="10.00">::scalar_factory</text>
</a>
</g>
</g>
<!-- Node1&#45;&gt;Node3 -->
<g id="edge2_Node000001_Node000003" class="edge">
<title>Node1&#45;&gt;Node3</title>
<g id="a_edge2_Node000001_Node000003"><a xlink:title=" ">
<path fill="none" stroke="#63b8ff" d="M581.15,-50.26C572.28,-48.81 563.25,-47.34 554.62,-45.93"/>
<polygon fill="#63b8ff" stroke="#63b8ff" points="580.32,-53.67 590.76,-51.82 581.45,-46.76 580.32,-53.67"/>
</a>
</g>
</g>
<!-- Node4 -->
<g id="Node000004" class="node">
<title>Node4</title>
<g id="a_Node000004"><a xlink:href="classCore_1_1GlobalInitialiser.html#aa84a61b25f475380b38306232e25aff6" target="_top" xlink:title="Initializes a scalar component of the simulation.">
<polygon fill="white" stroke="#666666" points="411,-76 301.25,-76 301.25,-47 411,-47 411,-76"/>
<text text-anchor="start" x="309.25" y="-62.5" font-family="Helvetica,sans-Serif" font-size="10.00">Core::GlobalInitialiser</text>
<text text-anchor="middle" x="356.12" y="-52" font-family="Helvetica,sans-Serif" font-size="10.00">::init_scalar</text>
</a>
</g>
</g>
<!-- Node3&#45;&gt;Node4 -->
<g id="edge3_Node000003_Node000004" class="edge">
<title>Node3&#45;&gt;Node4</title>
<g id="a_edge3_Node000003_Node000004"><a xlink:title=" ">
<path fill="none" stroke="#63b8ff" d="M438.14,-47.97C429.15,-49.47 419.97,-51.01 411.17,-52.48"/>
<polygon fill="#63b8ff" stroke="#63b8ff" points="438.6,-51.45 447.89,-46.35 437.45,-44.54 438.6,-51.45"/>
</a>
</g>
</g>
<!-- Node7 -->
<g id="Node000007" class="node">
<title>Node7</title>
<g id="a_Node000007"><a xlink:href="classCore_1_1GlobalInitialiser.html#a6c679d3dc5f4ee98dfd9ed4c35092f1c" target="_top" xlink:title=" ">
<polygon fill="white" stroke="#666666" points="411,-29 301.25,-29 301.25,0 411,0 411,-29"/>
<text text-anchor="start" x="309.25" y="-15.5" font-family="Helvetica,sans-Serif" font-size="10.00">Core::GlobalInitialiser</text>
<text text-anchor="middle" x="356.12" y="-5" font-family="Helvetica,sans-Serif" font-size="10.00">::init_scalar</text>
</a>
</g>
</g>
<!-- Node3&#45;&gt;Node7 -->
<g id="edge7_Node000003_Node000007" class="edge">
<title>Node3&#45;&gt;Node7</title>
<g id="a_edge7_Node000003_Node000007"><a xlink:title=" ">
<path fill="none" stroke="#63b8ff" d="M438.14,-27.46C429.15,-26.02 419.97,-24.56 411.17,-23.15"/>
<polygon fill="#63b8ff" stroke="#63b8ff" points="437.46,-30.9 447.89,-29.02 438.57,-23.99 437.46,-30.9"/>
</a>
</g>
</g>
<!-- Node5 -->
<g id="Node000005" class="node">
<title>Node5</title>
<g id="a_Node000005"><a xlink:href="classCore_1_1GlobalInitialiser.html#a5e218058a79920784be9d299856e867b" target="_top" xlink:title="Initializes a simulation unit.">
<polygon fill="white" stroke="#666666" points="265.25,-76 155.5,-76 155.5,-47 265.25,-47 265.25,-76"/>
<text text-anchor="start" x="163.5" y="-62.5" font-family="Helvetica,sans-Serif" font-size="10.00">Core::GlobalInitialiser</text>
<text text-anchor="middle" x="210.38" y="-52" font-family="Helvetica,sans-Serif" font-size="10.00">::init_simulation</text>
</a>
</g>
</g>
<!-- Node4&#45;&gt;Node5 -->
<g id="edge4_Node000004_Node000005" class="edge">
<title>Node4&#45;&gt;Node5</title>
<g id="a_edge4_Node000004_Node000005"><a xlink:title=" ">
<path fill="none" stroke="#63b8ff" d="M289.47,-61.5C281.39,-61.5 273.2,-61.5 265.32,-61.5"/>
<polygon fill="#63b8ff" stroke="#63b8ff" points="289.27,-65 299.27,-61.5 289.27,-58 289.27,-65"/>
</a>
</g>
</g>
<!-- Node5&#45;&gt;Node5 -->
<g id="edge6_Node000005_Node000005" class="edge">
<title>Node5&#45;&gt;Node5</title>
<g id="a_edge6_Node000005_Node000005"><a xlink:title=" ">
<path fill="none" stroke="#63b8ff" d="M235.11,-87.56C231.23,-91.41 222.98,-94 210.38,-94 187.32,-94 178.85,-85.32 184.98,-76.21"/>
<polygon fill="#63b8ff" stroke="#63b8ff" points="238.6,-87.9 235.69,-77.72 231.61,-87.5 238.6,-87.9"/>
</a>
</g>
</g>
<!-- Node6 -->
<g id="Node000006" class="node">
<title>Node6</title>
<g id="a_Node000006"><a xlink:href="structApi_1_1SimulationInstance.html#ae9bdd54076170f50eadcb7966d64c19d" target="_top" xlink:title="Apply the simulation configuration and prepare for execution.">
<polygon fill="white" stroke="#666666" points="119.5,-76 0,-76 0,-47 119.5,-47 119.5,-76"/>
<text text-anchor="start" x="8" y="-62.5" font-family="Helvetica,sans-Serif" font-size="10.00">Api::SimulationInstance</text>
<text text-anchor="middle" x="59.75" y="-52" font-family="Helvetica,sans-Serif" font-size="10.00">::apply</text>
</a>
</g>
</g>
<!-- Node5&#45;&gt;Node6 -->
<g id="edge5_Node000005_Node000006" class="edge">
<title>Node5&#45;&gt;Node6</title>
<g id="a_edge5_Node000005_Node000006"><a xlink:title=" ">
<path fill="none" stroke="#63b8ff" d="M144.04,-61.5C135.97,-61.5 127.77,-61.5 119.81,-61.5"/>
<polygon fill="#63b8ff" stroke="#63b8ff" points="143.78,-65 153.78,-61.5 143.78,-58 143.78,-65"/>
</a>
</g>
</g>
</g>
</svg>
