<?xml version="1.0" encoding="UTF-8" standalone="no"?>
<!DOCTYPE svg PUBLIC "-//W3C//DTD SVG 1.1//EN"
 "http://www.w3.org/Graphics/SVG/1.1/DTD/svg11.dtd">
<!-- Generated by graphviz version 14.0.1 (0)
 -->
<!-- Title: WrapMPI::Async::wait Pages: 1 -->
<svg width="428pt" height="74pt"
 viewBox="0.00 0.00 428.00 74.00" xmlns="http://www.w3.org/2000/svg" xmlns:xlink="http://www.w3.org/1999/xlink">
<g id="graph0" class="graph" transform="scale(1 1) rotate(0) translate(4 69.75)">
<title>WrapMPI::Async::wait</title>
<!-- Node1 -->
<g id="Node000001" class="node">
<title>Node1</title>
<g id="a_Node000001"><a xlink:title=" ">
<polygon fill="#999999" stroke="#666666" points="420,-46.75 308,-46.75 308,-28.25 420,-28.25 420,-46.75"/>
<text xml:space="preserve" text-anchor="middle" x="364" y="-33.25" font-family="Helvetica,sans-Serif" font-size="10.00">WrapMPI::Async::wait</text>
</a>
</g>
</g>
<!-- Node2 -->
<g id="Node000002" class="node">
<title>Node2</title>
<g id="a_Node000002"><a xlink:href="namespaceWrapMPI.html#a86bfb7bf3cbf18f5f0371c497167cfad" target="_top" xlink:title="Sends raw data to a destination in an unsafe manner.">
<polygon fill="white" stroke="#666666" points="272,-28.75 189.25,-28.75 189.25,-10.25 272,-10.25 272,-28.75"/>
<text xml:space="preserve" text-anchor="middle" x="230.62" y="-15.25" font-family="Helvetica,sans-Serif" font-size="10.00">WrapMPI::send</text>
</a>
</g>
</g>
<!-- Node1&#45;&gt;Node2 -->
<g id="edge1_Node000001_Node000002" class="edge">
<title>Node1&#45;&gt;Node2</title>
<g id="a_edge1_Node000001_Node000002"><a xlink:title=" ">
<path fill="none" stroke="#63b8ff" d="M296.4,-28.38C288.12,-27.24 279.85,-26.11 272.13,-25.05"/>
<polygon fill="#63b8ff" stroke="#63b8ff" points="295.78,-31.82 306.17,-29.71 296.73,-24.89 295.78,-31.82"/>
</a>
</g>
</g>
<!-- Node3 -->
<g id="Node000003" class="node">
<title>Node3</title>
<g id="a_Node000003"><a xlink:href="namespaceWrapMPI.html#a22a26e394ab9485f5b50a6be7d277940" target="_top" xlink:title="Sends a vector of data to a destination.">
<polygon fill="white" stroke="#666666" points="123.25,-65.75 30,-65.75 30,-47.25 123.25,-47.25 123.25,-65.75"/>
<text xml:space="preserve" text-anchor="middle" x="76.62" y="-52.25" font-family="Helvetica,sans-Serif" font-size="10.00">WrapMPI::send_v</text>
</a>
</g>
</g>
<!-- Node1&#45;&gt;Node3 -->
<g id="edge4_Node000001_Node000003" class="edge">
<title>Node1&#45;&gt;Node3</title>
<g id="a_edge4_Node000001_Node000003"><a xlink:title=" ">
<path fill="none" stroke="#63b8ff" d="M296.28,-41.94C243.13,-45.48 170.15,-50.34 123.42,-53.45"/>
<polygon fill="#63b8ff" stroke="#63b8ff" points="296.38,-45.44 306.13,-41.29 295.92,-38.46 296.38,-45.44"/>
</a>
</g>
</g>
<!-- Node2&#45;&gt;Node3 -->
<g id="edge2_Node000002_Node000003" class="edge">
<title>Node2&#45;&gt;Node3</title>
<g id="a_edge2_Node000002_Node000003"><a xlink:title=" ">
<path fill="none" stroke="#63b8ff" d="M179.8,-31.97C170.96,-34.16 161.84,-36.41 153.25,-38.5 142.1,-41.21 130.02,-44.11 118.85,-46.77"/>
<polygon fill="#63b8ff" stroke="#63b8ff" points="180.46,-35.42 189.32,-29.61 178.77,-28.62 180.46,-35.42"/>
</a>
</g>
</g>
<!-- Node4 -->
<g id="Node000004" class="node">
<title>Node4</title>
<g id="a_Node000004"><a xlink:href="classWrapMPI_1_1HostIterationPayload.html#aeab0cc5f0ddfccc7fc3584a873072882" target="_top" xlink:title=" ">
<polygon fill="white" stroke="#666666" points="153.25,-29 0,-29 0,0 153.25,0 153.25,-29"/>
<text xml:space="preserve" text-anchor="start" x="8" y="-15.5" font-family="Helvetica,sans-Serif" font-size="10.00">WrapMPI::HostIterationPayload</text>
<text xml:space="preserve" text-anchor="middle" x="76.62" y="-5" font-family="Helvetica,sans-Serif" font-size="10.00">::sendAll</text>
</a>
</g>
</g>
<!-- Node2&#45;&gt;Node4 -->
<g id="edge3_Node000002_Node000004" class="edge">
<title>Node2&#45;&gt;Node4</title>
<g id="a_edge3_Node000002_Node000004"><a xlink:title=" ">
<path fill="none" stroke="#63b8ff" d="M177.53,-17.79C169.82,-17.53 161.76,-17.27 153.69,-17"/>
<polygon fill="#63b8ff" stroke="#63b8ff" points="177.27,-21.28 187.38,-18.11 177.5,-14.28 177.27,-21.28"/>
</a>
</g>
</g>
</g>
</svg>
