<?xml version="1.0" encoding="UTF-8" standalone="no"?>
<!DOCTYPE svg PUBLIC "-//W3C//DTD SVG 1.1//EN"
 "http://www.w3.org/Graphics/SVG/1.1/DTD/svg11.dtd">
<!-- Generated by graphviz version 14.0.1 (0)
 -->
<!-- Title: IO::format Pages: 1 -->
<svg width="379pt" height="333pt"
 viewBox="0.00 0.00 379.00 333.00" xmlns="http://www.w3.org/2000/svg" xmlns:xlink="http://www.w3.org/1999/xlink">

<svg id="main" version="1.1" xmlns="http://www.w3.org/2000/svg" xmlns:xlink="http://www.w3.org/1999/xlink" xml:space="preserve">

<style type="text/css"><![CDATA[
.node, .edge {opacity: 0.7;}
.node.selected, .edge.selected {opacity: 1;}
.edge:hover path { stroke: red; }
.edge:hover polygon { stroke: red; fill: red; }
]]></style>
<script type="application/ecmascript" xlink:href="svg.min.js"/>
<svg id="graph" class="graph">
<g id="graph0" class="graph" transform="scale(1 1) rotate(0) translate(4 328.75)">
<title>IO::format</title>
<!-- Node1 -->
<g id="Node000001" class="node">
<title>Node1</title>
<g id="a_Node000001"><a xlink:title=" ">
<polygon fill="#999999" stroke="#666666" points="371.25,-140.75 311,-140.75 311,-122.25 371.25,-122.25 371.25,-140.75"/>
<text xml:space="preserve" text-anchor="middle" x="341.12" y="-127.25" font-family="Helvetica,sans-Serif" font-size="10.00">IO::format</text>
</a>
</g>
</g>
<!-- Node2 -->
<g id="Node000002" class="node">
<title>Node2</title>
<g id="a_Node000002"><a xlink:href="classCore_1_1GlobalInitialiser.html#af0e3ff388be6a2cb08edf9f69dd200b0" target="_top" xlink:title="Checks if all initialization steps have been validated.">
<polygon fill="white" stroke="#666666" points="271.25,-217 159.25,-217 159.25,-188 271.25,-188 271.25,-217"/>
<text xml:space="preserve" text-anchor="start" x="167.25" y="-203.5" font-family="Helvetica,sans-Serif" font-size="10.00">Core::GlobalInitialiser</text>
<text xml:space="preserve" text-anchor="middle" x="215.25" y="-193" font-family="Helvetica,sans-Serif" font-size="10.00">::check_init_terminate</text>
</a>
</g>
</g>
<!-- Node1&#45;&gt;Node2 -->
<g id="edge1_Node000001_Node000002" class="edge">
<title>Node1&#45;&gt;Node2</title>
<g id="a_edge1_Node000001_Node000002"><a xlink:title=" ">
<path fill="none" stroke="#63b8ff" d="M320.59,-148.01C308.11,-158.01 291.27,-170.52 275,-179.5 269.73,-182.41 264.01,-185.13 258.27,-187.61"/>
<polygon fill="#63b8ff" stroke="#63b8ff" points="322.52,-150.96 328.04,-141.91 318.08,-145.54 322.52,-150.96"/>
</a>
</g>
</g>
<!-- Node4 -->
<g id="Node000004" class="node">
<title>Node4</title>
<g id="a_Node000004"><a xlink:href="classIO_1_1Console.html#ad8e8490ed0b1b321bb75e9702c32fb8a" target="_top" xlink:title=" ">
<polygon fill="white" stroke="#666666" points="270.5,-253.75 160,-253.75 160,-235.25 270.5,-235.25 270.5,-253.75"/>
<text xml:space="preserve" text-anchor="middle" x="215.25" y="-240.25" font-family="Helvetica,sans-Serif" font-size="10.00">IO::Console::Console</text>
</a>
</g>
</g>
<!-- Node1&#45;&gt;Node4 -->
<g id="edge3_Node000001_Node000004" class="edge">
<title>Node1&#45;&gt;Node4</title>
<g id="a_edge3_Node000001_Node000004"><a xlink:title=" ">
<path fill="none" stroke="#63b8ff" d="M331.42,-151.46C321.03,-173.03 301.64,-206.93 275,-226.5 270.44,-229.85 265.26,-232.58 259.89,-234.81"/>
<polygon fill="#63b8ff" stroke="#63b8ff" points="334.52,-153.1 335.51,-142.55 328.16,-150.18 334.52,-153.1"/>
</a>
</g>
</g>
<!-- Node9 -->
<g id="Node000009" class="node">
<title>Node9</title>
<g id="a_Node000009"><a xlink:href="structApi_1_1SimulationInstance.html#a3f04372728be84263fb69f5773ca5bd5" target="_top" xlink:title="Execute the simulation.">
<polygon fill="white" stroke="#666666" points="275,-76 155.5,-76 155.5,-47 275,-47 275,-76"/>
<text xml:space="preserve" text-anchor="start" x="163.5" y="-62.5" font-family="Helvetica,sans-Serif" font-size="10.00">Api::SimulationInstance</text>
<text xml:space="preserve" text-anchor="middle" x="215.25" y="-52" font-family="Helvetica,sans-Serif" font-size="10.00">::exec</text>
</a>
</g>
</g>
<!-- Node1&#45;&gt;Node9 -->
<g id="edge8_Node000001_Node000009" class="edge">
<title>Node1&#45;&gt;Node9</title>
<g id="a_edge8_Node000001_Node000009"><a xlink:title=" ">
<path fill="none" stroke="#63b8ff" d="M319.17,-114.85C306.77,-105.49 290.52,-94 275,-85.5 269.11,-82.27 262.69,-79.22 256.32,-76.44"/>
<polygon fill="#63b8ff" stroke="#63b8ff" points="316.93,-117.55 326.99,-120.88 321.21,-112 316.93,-117.55"/>
</a>
</g>
</g>
<!-- Node11 -->
<g id="Node000011" class="node">
<title>Node11</title>
<g id="a_Node000011"><a xlink:href="namespacePostProcessing.html#a83c7126aaab1e7dbe0674b501f5a59a3" target="_top" xlink:title=" ">
<polygon fill="white" stroke="#666666" points="269.75,-123 160.75,-123 160.75,-94 269.75,-94 269.75,-123"/>
<text xml:space="preserve" text-anchor="start" x="168.75" y="-109.5" font-family="Helvetica,sans-Serif" font-size="10.00">PostProcessing::final</text>
<text xml:space="preserve" text-anchor="middle" x="215.25" y="-99" font-family="Helvetica,sans-Serif" font-size="10.00">_post_processing</text>
</a>
</g>
</g>
<!-- Node1&#45;&gt;Node11 -->
<g id="edge10_Node000001_Node000011" class="edge">
<title>Node1&#45;&gt;Node11</title>
<g id="a_edge10_Node000001_Node000011"><a xlink:title=" ">
<path fill="none" stroke="#63b8ff" d="M299.7,-123.99C290.27,-122.24 280.07,-120.35 270.15,-118.51"/>
<polygon fill="#63b8ff" stroke="#63b8ff" points="298.81,-127.39 309.28,-125.77 300.09,-120.51 298.81,-127.39"/>
</a>
</g>
</g>
<!-- Node12 -->
<g id="Node000012" class="node">
<title>Node12</title>
<g id="a_Node000012"><a xlink:href="classCore_1_1GlobalInitialiser.html#a0dc2da93c4202706b5f37453f355145c" target="_top" xlink:title="Initializes a transitioner with the provided flow iterator.">
<polygon fill="white" stroke="#666666" points="270.12,-170 160.38,-170 160.38,-141 270.12,-141 270.12,-170"/>
<text xml:space="preserve" text-anchor="start" x="168.38" y="-156.5" font-family="Helvetica,sans-Serif" font-size="10.00">Core::GlobalInitialiser</text>
<text xml:space="preserve" text-anchor="middle" x="215.25" y="-146" font-family="Helvetica,sans-Serif" font-size="10.00">::init_transitionner</text>
</a>
</g>
</g>
<!-- Node1&#45;&gt;Node12 -->
<g id="edge11_Node000001_Node000012" class="edge">
<title>Node1&#45;&gt;Node12</title>
<g id="a_edge11_Node000001_Node000012"><a xlink:title=" ">
<path fill="none" stroke="#63b8ff" d="M299.7,-139.33C290.27,-141.16 280.07,-143.14 270.15,-145.06"/>
<polygon fill="#63b8ff" stroke="#63b8ff" points="300.13,-142.81 309.28,-137.48 298.8,-135.94 300.13,-142.81"/>
</a>
</g>
</g>
<!-- Node13 -->
<g id="Node000013" class="node">
<title>Node13</title>
<g id="a_Node000013"><a xlink:href="namespacePostProcessing.html#aa0ae24f0ce5645b2835220796b2d7ff7" target="_top" xlink:title=" ">
<polygon fill="white" stroke="#666666" points="272.38,-29 158.12,-29 158.12,0 272.38,0 272.38,-29"/>
<text xml:space="preserve" text-anchor="start" x="166.12" y="-15.5" font-family="Helvetica,sans-Serif" font-size="10.00">PostProcessing::show</text>
<text xml:space="preserve" text-anchor="middle" x="215.25" y="-5" font-family="Helvetica,sans-Serif" font-size="10.00">_sumup_state</text>
</a>
</g>
</g>
<!-- Node1&#45;&gt;Node13 -->
<g id="edge13_Node000001_Node000013" class="edge">
<title>Node1&#45;&gt;Node13</title>
<g id="a_edge13_Node000001_Node000013"><a xlink:title=" ">
<path fill="none" stroke="#63b8ff" d="M330.66,-111.8C319.81,-91.04 300.21,-58.63 275,-38.5 270.7,-35.06 265.83,-32.05 260.79,-29.43"/>
<polygon fill="#63b8ff" stroke="#63b8ff" points="327.48,-113.26 335.09,-120.62 333.74,-110.12 327.48,-113.26"/>
</a>
</g>
</g>
<!-- Node3 -->
<g id="Node000003" class="node">
<title>Node3</title>
<g id="a_Node000003"><a xlink:href="structApi_1_1SimulationInstance.html#ae9bdd54076170f50eadcb7966d64c19d" target="_top" xlink:title="Apply the simulation configuration and prepare for execution.">
<polygon fill="white" stroke="#666666" points="119.5,-172 0,-172 0,-143 119.5,-143 119.5,-172"/>
<text xml:space="preserve" text-anchor="start" x="8" y="-158.5" font-family="Helvetica,sans-Serif" font-size="10.00">Api::SimulationInstance</text>
<text xml:space="preserve" text-anchor="middle" x="59.75" y="-148" font-family="Helvetica,sans-Serif" font-size="10.00">::apply</text>
</a>
</g>
</g>
<!-- Node2&#45;&gt;Node3 -->
<g id="edge2_Node000002_Node000003" class="edge">
<title>Node2&#45;&gt;Node3</title>
<g id="a_edge2_Node000002_Node000003"><a xlink:title=" ">
<path fill="none" stroke="#63b8ff" d="M152.1,-184.28C138.75,-180.37 124.78,-176.27 111.9,-172.5"/>
<polygon fill="#63b8ff" stroke="#63b8ff" points="151.1,-187.64 161.68,-187.09 153.07,-180.92 151.1,-187.64"/>
</a>
</g>
</g>
<!-- Node5 -->
<g id="Node000005" class="node">
<title>Node5</title>
<g id="a_Node000005"><a xlink:href="classIO_1_1Console.html#afa53ede48496d2ff21c31a463d4c8e9e" target="_top" xlink:title=" ">
<polygon fill="white" stroke="#666666" points="115,-250.75 4.5,-250.75 4.5,-232.25 115,-232.25 115,-250.75"/>
<text xml:space="preserve" text-anchor="middle" x="59.75" y="-237.25" font-family="Helvetica,sans-Serif" font-size="10.00">IO::Console::Console</text>
</a>
</g>
</g>
<!-- Node4&#45;&gt;Node5 -->
<g id="edge4_Node000004_Node000005" class="edge">
<title>Node4&#45;&gt;Node5</title>
<g id="a_edge4_Node000004_Node000005"><a xlink:title=" ">
<path fill="none" stroke="#63b8ff" d="M148.38,-243.21C137.38,-243 126.07,-242.78 115.38,-242.57"/>
<polygon fill="#63b8ff" stroke="#63b8ff" points="148.12,-246.71 158.19,-243.4 148.26,-239.71 148.12,-246.71"/>
</a>
</g>
</g>
<!-- Node6 -->
<g id="Node000006" class="node">
<title>Node6</title>
<g id="a_Node000006"><a xlink:href="classIO_1_1Console.html#af5e8a2459163188ad1da3430b88001b6" target="_top" xlink:title=" ">
<polygon fill="white" stroke="#666666" points="115,-213.75 4.5,-213.75 4.5,-195.25 115,-195.25 115,-213.75"/>
<text xml:space="preserve" text-anchor="middle" x="59.75" y="-200.25" font-family="Helvetica,sans-Serif" font-size="10.00">IO::Console::Console</text>
</a>
</g>
</g>
<!-- Node4&#45;&gt;Node6 -->
<g id="edge5_Node000004_Node000006" class="edge">
<title>Node4&#45;&gt;Node6</title>
<g id="a_edge5_Node000004_Node000006"><a xlink:title=" ">
<path fill="none" stroke="#63b8ff" d="M166,-231.93C144.07,-226.21 118.53,-219.56 98.1,-214.23"/>
<polygon fill="#63b8ff" stroke="#63b8ff" points="165.07,-235.3 175.63,-234.44 166.83,-228.53 165.07,-235.3"/>
</a>
</g>
</g>
<!-- Node7 -->
<g id="Node000007" class="node">
<title>Node7</title>
<g id="a_Node000007"><a xlink:href="classIO_1_1Console.html#aac82dc12f9d262c7f44b22fe6f2dd49b" target="_top" xlink:title=" ">
<polygon fill="white" stroke="#666666" points="117.62,-324.75 1.88,-324.75 1.88,-306.25 117.62,-306.25 117.62,-324.75"/>
<text xml:space="preserve" text-anchor="middle" x="59.75" y="-311.25" font-family="Helvetica,sans-Serif" font-size="10.00">IO::Console::operator=</text>
</a>
</g>
</g>
<!-- Node4&#45;&gt;Node7 -->
<g id="edge6_Node000004_Node000007" class="edge">
<title>Node4&#45;&gt;Node7</title>
<g id="a_edge6_Node000004_Node000007"><a xlink:title=" ">
<path fill="none" stroke="#63b8ff" d="M189.14,-259.99C170.42,-271.11 143.95,-285.95 119.5,-296.5 111.53,-299.94 102.72,-303.11 94.4,-305.83"/>
<polygon fill="#63b8ff" stroke="#63b8ff" points="190.89,-263.02 197.65,-254.86 187.28,-257.02 190.89,-263.02"/>
</a>
</g>
</g>
<!-- Node8 -->
<g id="Node000008" class="node">
<title>Node8</title>
<g id="a_Node000008"><a xlink:href="classIO_1_1Console.html#a2ae23124d355bfe39da66c91d3417caf" target="_top" xlink:title=" ">
<polygon fill="white" stroke="#666666" points="117.62,-287.75 1.88,-287.75 1.88,-269.25 117.62,-269.25 117.62,-287.75"/>
<text xml:space="preserve" text-anchor="middle" x="59.75" y="-274.25" font-family="Helvetica,sans-Serif" font-size="10.00">IO::Console::operator=</text>
</a>
</g>
</g>
<!-- Node4&#45;&gt;Node8 -->
<g id="edge7_Node000004_Node000008" class="edge">
<title>Node4&#45;&gt;Node8</title>
<g id="a_edge7_Node000004_Node000008"><a xlink:title=" ">
<path fill="none" stroke="#63b8ff" d="M159.11,-256.71C141.25,-260.67 121.68,-265 104.74,-268.76"/>
<polygon fill="#63b8ff" stroke="#63b8ff" points="159.78,-260.15 168.79,-254.57 158.27,-253.32 159.78,-260.15"/>
</a>
</g>
</g>
<!-- Node10 -->
<g id="Node000010" class="node">
<title>Node10</title>
<g id="a_Node000010"><a xlink:href="structApi_1_1SimulationInstance.html#afee07db8a6b57fe7982900ecaa943cc0" target="_top" xlink:title="Default constructor.">
<polygon fill="white" stroke="#666666" points="119.5,-76 0,-76 0,-47 119.5,-47 119.5,-76"/>
<text xml:space="preserve" text-anchor="start" x="8" y="-62.5" font-family="Helvetica,sans-Serif" font-size="10.00">Api::SimulationInstance</text>
<text xml:space="preserve" text-anchor="middle" x="59.75" y="-52" font-family="Helvetica,sans-Serif" font-size="10.00">::SimulationInstance</text>
</a>
</g>
</g>
<!-- Node9&#45;&gt;Node10 -->
<g id="edge9_Node000009_Node000010" class="edge">
<title>Node9&#45;&gt;Node10</title>
<g id="a_edge9_Node000009_Node000010"><a xlink:title=" ">
<path fill="none" stroke="#63b8ff" d="M143.99,-61.5C135.89,-61.5 127.69,-61.5 119.75,-61.5"/>
<polygon fill="#63b8ff" stroke="#63b8ff" points="143.83,-65 153.83,-61.5 143.83,-58 143.83,-65"/>
</a>
</g>
</g>
<!-- Node12&#45;&gt;Node3 -->
<g id="edge12_Node000012_Node000003" class="edge">
<title>Node12&#45;&gt;Node3</title>
<g id="a_edge12_Node000012_Node000003"><a xlink:title=" ">
<path fill="none" stroke="#63b8ff" d="M148.63,-156.35C139.07,-156.48 129.28,-156.61 119.86,-156.73"/>
<polygon fill="#63b8ff" stroke="#63b8ff" points="148.66,-159.85 158.62,-156.22 148.57,-152.86 148.66,-159.85"/>
</a>
</g>
</g>
</g>
</svg>
</svg>

<style type='text/css'>
<![CDATA[
[data-mouse-over-selected='false'] { opacity: 0.7; }
[data-mouse-over-selected='true']  { opacity: 1.0; }
]]>
</style>
<script type="application/ecmascript"><![CDATA[
document.addEventListener('DOMContentLoaded', (event) => {
  highlightEdges();
  highlightAdjacentNodes();
});
]]></script>
</svg>
