<?xml version="1.0" encoding="UTF-8" standalone="no"?>
<!DOCTYPE svg PUBLIC "-//W3C//DTD SVG 1.1//EN"
 "http://www.w3.org/Graphics/SVG/1.1/DTD/svg11.dtd">
<!-- Generated by graphviz version 14.0.1 (0)
 -->
<!-- Title: WrapMPI::recv Pages: 1 -->
<svg width="391pt" height="90pt"
 viewBox="0.00 0.00 391.00 90.00" xmlns="http://www.w3.org/2000/svg" xmlns:xlink="http://www.w3.org/1999/xlink">
<g id="graph0" class="graph" transform="scale(1 1) rotate(0) translate(4 85.75)">
<title>WrapMPI::recv</title>
<!-- Node1 -->
<g id="Node000001" class="node">
<title>Node1</title>
<g id="a_Node000001"><a xlink:title="Receives a single data item from a source.">
<polygon fill="#999999" stroke="#666666" points="382.5,-36.5 302,-36.5 302,-18 382.5,-18 382.5,-36.5"/>
<text xml:space="preserve" text-anchor="middle" x="342.25" y="-23" font-family="Helvetica,sans-Serif" font-size="10.00">WrapMPI::recv</text>
</a>
</g>
</g>
<!-- Node2 -->
<g id="Node000002" class="node">
<title>Node2</title>
<g id="a_Node000002"><a xlink:href="namespaceWrapMPI.html#adfe55cebcaa7d941006e23c69a5a3bcf" target="_top" xlink:title="Receives a vector of data items from a source.">
<polygon fill="white" stroke="#666666" points="262.62,-55.5 171.62,-55.5 171.62,-37 262.62,-37 262.62,-55.5"/>
<text xml:space="preserve" text-anchor="middle" x="217.12" y="-42" font-family="Helvetica,sans-Serif" font-size="10.00">WrapMPI::recv_v</text>
</a>
</g>
</g>
<!-- Node1&#45;&gt;Node2 -->
<g id="edge1_Node000001_Node000002" class="edge">
<title>Node1&#45;&gt;Node2</title>
<g id="a_edge1_Node000001_Node000002"><a xlink:title=" ">
<path fill="none" stroke="#63b8ff" d="M290.3,-35.11C281.18,-36.52 271.74,-37.98 262.82,-39.35"/>
<polygon fill="#63b8ff" stroke="#63b8ff" points="290.77,-38.58 300.12,-33.6 289.7,-31.66 290.77,-38.58"/>
</a>
</g>
</g>
<!-- Node5 -->
<g id="Node000005" class="node">
<title>Node5</title>
<g id="a_Node000005"><a xlink:href="namespaceWrapMPI.html#ae68fdad586750d104f311bfbc88fa066" target="_top" xlink:title="Attempts to receive a single data item from a source.">
<polygon fill="white" stroke="#666666" points="266,-18.5 168.25,-18.5 168.25,0 266,0 266,-18.5"/>
<text xml:space="preserve" text-anchor="middle" x="217.12" y="-5" font-family="Helvetica,sans-Serif" font-size="10.00">WrapMPI::try_recv</text>
</a>
</g>
</g>
<!-- Node1&#45;&gt;Node5 -->
<g id="edge4_Node000001_Node000005" class="edge">
<title>Node1&#45;&gt;Node5</title>
<g id="a_edge4_Node000001_Node000005"><a xlink:title=" ">
<path fill="none" stroke="#63b8ff" d="M290.24,-19.79C282.32,-18.64 274.16,-17.44 266.3,-16.29"/>
<polygon fill="#63b8ff" stroke="#63b8ff" points="289.72,-23.25 300.12,-21.24 290.73,-16.33 289.72,-23.25"/>
</a>
</g>
</g>
<!-- Node3 -->
<g id="Node000003" class="node">
<title>Node3</title>
<g id="a_Node000003"><a xlink:href="classWrapMPI_1_1IterationPayload.html#a136036d66a6c16c18d4115905448380f" target="_top" xlink:title="Receives data for this payload from a specified source.">
<polygon fill="white" stroke="#666666" points="132.25,-81.75 0,-81.75 0,-52.75 132.25,-52.75 132.25,-81.75"/>
<text xml:space="preserve" text-anchor="start" x="8" y="-68.25" font-family="Helvetica,sans-Serif" font-size="10.00">WrapMPI::IterationPayload</text>
<text xml:space="preserve" text-anchor="middle" x="66.12" y="-57.75" font-family="Helvetica,sans-Serif" font-size="10.00">::recv</text>
</a>
</g>
</g>
<!-- Node2&#45;&gt;Node3 -->
<g id="edge2_Node000002_Node000003" class="edge">
<title>Node2&#45;&gt;Node3</title>
<g id="a_edge2_Node000002_Node000003"><a xlink:title=" ">
<path fill="none" stroke="#63b8ff" d="M160.29,-54.12C151.3,-55.39 141.92,-56.71 132.73,-58"/>
<polygon fill="#63b8ff" stroke="#63b8ff" points="160.51,-57.62 169.92,-52.76 159.53,-50.69 160.51,-57.62"/>
</a>
</g>
</g>
<!-- Node4 -->
<g id="Node000004" class="node">
<title>Node4</title>
<g id="a_Node000004"><a xlink:href="namespaceWrapMPI.html#a0dd428096701cba57a4230514acaf0b1" target="_top" xlink:title="Attempts to receive a vector of data items from a source.">
<polygon fill="white" stroke="#666666" points="120.25,-34.5 12,-34.5 12,-16 120.25,-16 120.25,-34.5"/>
<text xml:space="preserve" text-anchor="middle" x="66.12" y="-21" font-family="Helvetica,sans-Serif" font-size="10.00">WrapMPI::try_recv_v</text>
</a>
</g>
</g>
<!-- Node2&#45;&gt;Node4 -->
<g id="edge3_Node000002_Node000004" class="edge">
<title>Node2&#45;&gt;Node4</title>
<g id="a_edge3_Node000002_Node000004"><a xlink:title=" ">
<path fill="none" stroke="#63b8ff" d="M160.29,-38.38C147.34,-36.56 133.59,-34.62 120.74,-32.81"/>
<polygon fill="#63b8ff" stroke="#63b8ff" points="159.53,-41.81 169.92,-39.74 160.51,-34.88 159.53,-41.81"/>
</a>
</g>
</g>
</g>
</svg>
