<?xml version="1.0" encoding="UTF-8" standalone="no"?>
<!DOCTYPE svg PUBLIC "-//W3C//DTD SVG 1.1//EN"
 "http://www.w3.org/Graphics/SVG/1.1/DTD/svg11.dtd">
<!-- Generated by graphviz version 12.1.2 (0)
 -->
<!-- Title: MC::Distributions::erfinv Pages: 1 -->
<!--zoomable 295 -->

<svg id="main" version="1.1" xmlns="http://www.w3.org/2000/svg" xmlns:xlink="http://www.w3.org/1999/xlink" xml:space="preserve" onload="init(evt)">

<style type="text/css"><![CDATA[
.node, .edge {opacity: 0.7;}
.node.selected, .edge.selected {opacity: 1;}
.edge:hover path { stroke: red; }
.edge:hover polygon { stroke: red; fill: red; }
]]></style>

<defs>
  <circle id="rim" cx="0" cy="0" r="7"/>
  <circle id="rim2" cx="0" cy="0" r="3.5"/>
  <g id="zoomPlus">
    <use xlink:href="#rim" fill="#404040"><set attributeName="fill" to="#808080" begin="zoomplus.mouseover" end="zoomplus.mouseout"/></use>
    <path d="M-4,0h8M0,-4v8" fill="none" stroke="white" stroke-width="1.5" pointer-events="none"/>
  </g>
  <g id="zoomMin">
    <use xlink:href="#rim" fill="#404040"><set attributeName="fill" to="#808080" begin="zoomminus.mouseover" end="zoomminus.mouseout"/></use>
    <path d="M-4,0h8" fill="none" stroke="white" stroke-width="1.5" pointer-events="none"/>
  </g>
  <g id="arrowUp" transform="translate(30 24)">
    <use xlink:href="#rim"/>
    <path pointer-events="none" fill="none" stroke="white" stroke-width="1.5" d="M0,-3.0v7 M-2.5,-0.5L0,-3.0L2.5,-0.5"/>
  </g>
  <g id="arrowRight" transform="rotate(90) translate(36 -43)">
    <use xlink:href="#rim"/>
    <path pointer-events="none" fill="none" stroke="white" stroke-width="1.5" d="M0,-3.0v7 M-2.5,-0.5L0,-3.0L2.5,-0.5"/>
  </g>
  <g id="arrowDown" transform="rotate(180) translate(-30 -48)">
    <use xlink:href="#rim"/>
    <path pointer-events="none" fill="none" stroke="white" stroke-width="1.5" d="M0,-3.0v7 M-2.5,-0.5L0,-3.0L2.5,-0.5"/>
  </g>
  <g id="arrowLeft" transform="rotate(270) translate(-36 17)">
    <use xlink:href="#rim"/>
    <path pointer-events="none" fill="none" stroke="white" stroke-width="1.5" d="M0,-3.0v7 M-2.5,-0.5L0,-3.0L2.5,-0.5"/>
  </g>
  <g id="resetDef">
    <use xlink:href="#rim2" fill="#404040"><set attributeName="fill" to="#808080" begin="reset.mouseover" end="reset.mouseout"/></use>
  </g>
</defs>
<script type="application/ecmascript">
var viewWidth = 746;
var viewHeight = 295;
var sectionId = 'dynsection-0';
</script>
<script type="application/ecmascript" xlink:href="svg.min.js"/>
<svg id="graph" class="graph">
<g id="viewport">
<title>MC::Distributions::erfinv</title>
<!-- Node1 -->
<g id="Node000001" class="node">
<title>Node1</title>
<g id="a_Node000001"><a xlink:title="Computes an approximation of the inverse error function.">
<polygon fill="#999999" stroke="#666666" points="737.75,-191 639.25,-191 639.25,-162 737.75,-162 737.75,-191"/>
<text text-anchor="start" x="647.25" y="-177.5" font-family="Helvetica,sans-Serif" font-size="10.00">MC::Distributions::</text>
<text text-anchor="middle" x="688.5" y="-167" font-family="Helvetica,sans-Serif" font-size="10.00">erfinv</text>
</a>
</g>
</g>
<!-- Node2 -->
<g id="Node000002" class="node">
<title>Node2</title>
<g id="a_Node000002"><a xlink:href="namespaceMC_1_1Distributions.html#a3c07f6cf61b1c67ea9b2b3e0d6c42cc7" target="_top" xlink:title="Computes the inverse CDF (probit function) of a normal distribution.">
<polygon fill="white" stroke="#666666" points="603.25,-191 504.75,-191 504.75,-162 603.25,-162 603.25,-191"/>
<text text-anchor="start" x="512.75" y="-177.5" font-family="Helvetica,sans-Serif" font-size="10.00">MC::Distributions::</text>
<text text-anchor="middle" x="554" y="-167" font-family="Helvetica,sans-Serif" font-size="10.00">norminv</text>
</a>
</g>
</g>
<!-- Node1&#45;&gt;Node2 -->
<g id="edge1_Node000001_Node000002" class="edge">
<title>Node1&#45;&gt;Node2</title>
<g id="a_edge1_Node000001_Node000002"><a xlink:title=" ">
<path fill="none" stroke="#63b8ff" d="M627.66,-176.5C619.6,-176.5 611.41,-176.5 603.58,-176.5"/>
<polygon fill="#63b8ff" stroke="#63b8ff" points="627.4,-180 637.4,-176.5 627.4,-173 627.4,-180"/>
</a>
</g>
</g>
<!-- Node3 -->
<g id="Node000003" class="node">
<title>Node3</title>
<g id="a_Node000003"><a xlink:href="structMC_1_1Distributions_1_1TruncatedNormal.html#af6cfcdb1f39978352e55fc5c5f729462" target="_top" xlink:title=" ">
<polygon fill="white" stroke="#666666" points="468.75,-191 326.75,-191 326.75,-162 468.75,-162 468.75,-191"/>
<text text-anchor="start" x="334.75" y="-177.5" font-family="Helvetica,sans-Serif" font-size="10.00">MC::Distributions::</text>
<text text-anchor="middle" x="397.75" y="-167" font-family="Helvetica,sans-Serif" font-size="10.00">TruncatedNormal::draw_from</text>
</a>
</g>
</g>
<!-- Node2&#45;&gt;Node3 -->
<g id="edge2_Node000002_Node000003" class="edge">
<title>Node2&#45;&gt;Node3</title>
<g id="a_edge2_Node000002_Node000003"><a xlink:title=" ">
<path fill="none" stroke="#63b8ff" d="M493.22,-176.5C485.28,-176.5 477.08,-176.5 468.99,-176.5"/>
<polygon fill="#63b8ff" stroke="#63b8ff" points="493.1,-180 503.1,-176.5 493.1,-173 493.1,-180"/>
</a>
</g>
</g>
<!-- Node4 -->
<g id="Node000004" class="node">
<title>Node4</title>
<g id="a_Node000004"><a xlink:href="structModels_1_1TwoMeta.html#afcf107b4e7c86508762048d28608a5b9" target="_top" xlink:title=" ">
<polygon fill="white" stroke="#666666" points="131.5,-286.75 0,-286.75 0,-268.25 131.5,-268.25 131.5,-286.75"/>
<text text-anchor="middle" x="65.75" y="-273.25" font-family="Helvetica,sans-Serif" font-size="10.00">Models::TwoMeta::division</text>
</a>
</g>
</g>
<!-- Node3&#45;&gt;Node4 -->
<g id="edge3_Node000003_Node000004" class="edge">
<title>Node3&#45;&gt;Node4</title>
<g id="a_edge3_Node000003_Node000004"><a xlink:title=" ">
<path fill="none" stroke="#63b8ff" d="M373.32,-199.17C353.16,-217.19 322.41,-241.31 290.75,-253.5 239.65,-273.17 177.45,-278.51 131.57,-279.3"/>
<polygon fill="#63b8ff" stroke="#63b8ff" points="375.68,-201.75 380.68,-192.41 370.95,-196.6 375.68,-201.75"/>
</a>
</g>
</g>
<!-- Node5 -->
<g id="Node000005" class="node">
<title>Node5</title>
<g id="a_Node000005"><a xlink:href="structModels_1_1TwoMetaDiv.html#a067be4bba4ba59abc0f3da680e6be052" target="_top" xlink:title=" ">
<polygon fill="white" stroke="#666666" points="119.5,-203 12,-203 12,-174 119.5,-174 119.5,-203"/>
<text text-anchor="start" x="20" y="-189.5" font-family="Helvetica,sans-Serif" font-size="10.00">Models::TwoMetaDiv</text>
<text text-anchor="middle" x="65.75" y="-179" font-family="Helvetica,sans-Serif" font-size="10.00">::division</text>
</a>
</g>
</g>
<!-- Node3&#45;&gt;Node5 -->
<g id="edge4_Node000003_Node000005" class="edge">
<title>Node3&#45;&gt;Node5</title>
<g id="a_edge4_Node000003_Node000005"><a xlink:title=" ">
<path fill="none" stroke="#63b8ff" d="M315.23,-179.46C254.29,-181.68 172.72,-184.65 119.95,-186.57"/>
<polygon fill="#63b8ff" stroke="#63b8ff" points="314.98,-182.98 324.85,-179.11 314.73,-175.98 314.98,-182.98"/>
</a>
</g>
</g>
<!-- Node6 -->
<g id="Node000006" class="node">
<title>Node6</title>
<g id="a_Node000006"><a xlink:href="structModels_1_1Uptake.html#a81f6d63498b3036a75880ed7a5c48d6a" target="_top" xlink:title=" ">
<polygon fill="white" stroke="#666666" points="290.75,-244.75 167.5,-244.75 167.5,-226.25 290.75,-226.25 290.75,-244.75"/>
<text text-anchor="middle" x="229.12" y="-231.25" font-family="Helvetica,sans-Serif" font-size="10.00">Models::Uptake::division</text>
</a>
</g>
</g>
<!-- Node3&#45;&gt;Node6 -->
<g id="edge5_Node000003_Node000006" class="edge">
<title>Node3&#45;&gt;Node6</title>
<g id="a_edge5_Node000003_Node000006"><a xlink:title=" ">
<path fill="none" stroke="#63b8ff" d="M344.01,-195.18C315.28,-205.35 280.93,-217.51 257.52,-225.8"/>
<polygon fill="#63b8ff" stroke="#63b8ff" points="345.02,-198.53 353.28,-191.89 342.68,-191.93 345.02,-198.53"/>
</a>
</g>
</g>
<!-- Node8 -->
<g id="Node000008" class="node">
<title>Node8</title>
<g id="a_Node000008"><a xlink:href="structMC_1_1Distributions_1_1TruncatedNormal.html#a5c5cc899d8c3986ea0ae4b4789fbc533" target="_top" xlink:title=" ">
<polygon fill="white" stroke="#666666" points="287.75,-170 170.5,-170 170.5,-141 287.75,-141 287.75,-170"/>
<text text-anchor="start" x="178.5" y="-156.5" font-family="Helvetica,sans-Serif" font-size="10.00">MC::Distributions::</text>
<text text-anchor="middle" x="229.12" y="-146" font-family="Helvetica,sans-Serif" font-size="10.00">TruncatedNormal::draw</text>
</a>
</g>
</g>
<!-- Node3&#45;&gt;Node8 -->
<g id="edge9_Node000003_Node000008" class="edge">
<title>Node3&#45;&gt;Node8</title>
<g id="a_edge9_Node000003_Node000008"><a xlink:title=" ">
<path fill="none" stroke="#63b8ff" d="M315.39,-166.25C306.18,-165.09 296.94,-163.92 288.12,-162.81"/>
<polygon fill="#63b8ff" stroke="#63b8ff" points="314.71,-169.69 325.07,-167.47 315.58,-162.74 314.71,-169.69"/>
</a>
</g>
</g>
<!-- Node9 -->
<g id="Node000009" class="node">
<title>Node9</title>
<g id="a_Node000009"><a xlink:href="structMC_1_1Distributions_1_1ScaledTruncatedNormal.html#ac66c440e3d39d95509ab84a43455029b" target="_top" xlink:title=" ">
<polygon fill="white" stroke="#666666" points="289.25,-123.25 169,-123.25 169,-83.75 289.25,-83.75 289.25,-123.25"/>
<text text-anchor="start" x="177" y="-109.75" font-family="Helvetica,sans-Serif" font-size="10.00">MC::Distributions::</text>
<text text-anchor="start" x="177" y="-99.25" font-family="Helvetica,sans-Serif" font-size="10.00">ScaledTruncatedNormal</text>
<text text-anchor="middle" x="229.12" y="-88.75" font-family="Helvetica,sans-Serif" font-size="10.00">::draw_from</text>
</a>
</g>
</g>
<!-- Node3&#45;&gt;Node9 -->
<g id="edge10_Node000003_Node000009" class="edge">
<title>Node3&#45;&gt;Node9</title>
<g id="a_edge10_Node000003_Node000009"><a xlink:title=" ">
<path fill="none" stroke="#63b8ff" d="M352.24,-157C328.74,-146.7 299.94,-134.09 276.21,-123.69"/>
<polygon fill="#63b8ff" stroke="#63b8ff" points="350.68,-160.14 361.24,-160.94 353.49,-153.73 350.68,-160.14"/>
</a>
</g>
</g>
<!-- Node10 -->
<g id="Node000010" class="node">
<title>Node10</title>
<g id="a_Node000010"><a xlink:href="structModels_1_1Uptake.html#a031bc7c273a310a89fb4c9dce6caf315" target="_top" xlink:title=" ">
<polygon fill="white" stroke="#666666" points="280.62,-65.75 177.62,-65.75 177.62,-47.25 280.62,-47.25 280.62,-65.75"/>
<text text-anchor="middle" x="229.12" y="-52.25" font-family="Helvetica,sans-Serif" font-size="10.00">Models::Uptake::init</text>
</a>
</g>
</g>
<!-- Node3&#45;&gt;Node10 -->
<g id="edge11_Node000003_Node000010" class="edge">
<title>Node3&#45;&gt;Node10</title>
<g id="a_edge11_Node000003_Node000010"><a xlink:title=" ">
<path fill="none" stroke="#63b8ff" d="M378.09,-152.89C358.62,-129.75 326.05,-95.06 290.75,-74.5 285.06,-71.18 278.7,-68.43 272.31,-66.17"/>
<polygon fill="#63b8ff" stroke="#63b8ff" points="375.35,-155.06 384.41,-160.55 380.75,-150.61 375.35,-155.06"/>
</a>
</g>
</g>
<!-- Node6&#45;&gt;Node4 -->
<g id="edge7_Node000006_Node000004" class="edge">
<title>Node6&#45;&gt;Node4</title>
<g id="a_edge7_Node000006_Node000004"><a xlink:title=" ">
<path fill="none" stroke="#63b8ff" d="M179.57,-248.14C155.32,-254.45 126.44,-261.96 103.98,-267.81"/>
<polygon fill="#63b8ff" stroke="#63b8ff" points="180.44,-251.53 189.23,-245.62 178.67,-244.75 180.44,-251.53"/>
</a>
</g>
</g>
<!-- Node6&#45;&gt;Node5 -->
<g id="edge8_Node000006_Node000005" class="edge">
<title>Node6&#45;&gt;Node5</title>
<g id="a_edge8_Node000006_Node000005"><a xlink:title=" ">
<path fill="none" stroke="#63b8ff" d="M183.81,-222.59C163.42,-216.66 139.12,-209.58 117.95,-203.41"/>
<polygon fill="#63b8ff" stroke="#63b8ff" points="182.66,-225.9 193.23,-225.34 184.61,-219.18 182.66,-225.9"/>
</a>
</g>
</g>
<!-- Node7 -->
<g id="Node000007" class="node">
<title>Node7</title>
<g id="a_Node000007"><a xlink:href="structModels_1_1SimpleModel.html#a0c6a28fd790efe9193d1a3973f7239d7" target="_top" xlink:title=" ">
<polygon fill="white" stroke="#666666" points="120.62,-250 10.88,-250 10.88,-221 120.62,-221 120.62,-250"/>
<text text-anchor="start" x="18.88" y="-236.5" font-family="Helvetica,sans-Serif" font-size="10.00">Models::SimpleModel</text>
<text text-anchor="middle" x="65.75" y="-226" font-family="Helvetica,sans-Serif" font-size="10.00">::division</text>
</a>
</g>
</g>
<!-- Node6&#45;&gt;Node7 -->
<g id="edge6_Node000006_Node000007" class="edge">
<title>Node6&#45;&gt;Node7</title>
<g id="a_edge6_Node000006_Node000007"><a xlink:title=" ">
<path fill="none" stroke="#63b8ff" d="M155.95,-235.5C144.19,-235.5 132.19,-235.5 120.96,-235.5"/>
<polygon fill="#63b8ff" stroke="#63b8ff" points="155.6,-239 165.6,-235.5 155.6,-232 155.6,-239"/>
</a>
</g>
</g>
<!-- Node11 -->
<g id="Node000011" class="node">
<title>Node11</title>
<g id="a_Node000011"><a xlink:href="structModels_1_1SimpleModel.html#a50c1e5de1921c8323b707df3c31834e5" target="_top" xlink:title=" ">
<polygon fill="white" stroke="#666666" points="120.62,-113 10.88,-113 10.88,-84 120.62,-84 120.62,-113"/>
<text text-anchor="start" x="18.88" y="-99.5" font-family="Helvetica,sans-Serif" font-size="10.00">Models::SimpleModel</text>
<text text-anchor="middle" x="65.75" y="-89" font-family="Helvetica,sans-Serif" font-size="10.00">::init</text>
</a>
</g>
</g>
<!-- Node10&#45;&gt;Node11 -->
<g id="edge12_Node000010_Node000011" class="edge">
<title>Node10&#45;&gt;Node11</title>
<g id="a_edge12_Node000010_Node000011"><a xlink:title=" ">
<path fill="none" stroke="#63b8ff" d="M179.61,-69.13C161.17,-73.93 140.05,-79.42 121.1,-84.35"/>
<polygon fill="#63b8ff" stroke="#63b8ff" points="180.44,-72.53 189.23,-66.62 178.67,-65.75 180.44,-72.53"/>
</a>
</g>
</g>
<!-- Node12 -->
<g id="Node000012" class="node">
<title>Node12</title>
<g id="a_Node000012"><a xlink:href="structModels_1_1TwoMeta.html#a77088e8a2d0675d4f08e638f0018a0a9" target="_top" xlink:title=" ">
<polygon fill="white" stroke="#666666" points="121.38,-65.75 10.12,-65.75 10.12,-47.25 121.38,-47.25 121.38,-65.75"/>
<text text-anchor="middle" x="65.75" y="-52.25" font-family="Helvetica,sans-Serif" font-size="10.00">Models::TwoMeta::init</text>
</a>
</g>
</g>
<!-- Node10&#45;&gt;Node12 -->
<g id="edge13_Node000010_Node000012" class="edge">
<title>Node10&#45;&gt;Node12</title>
<g id="a_edge13_Node000010_Node000012"><a xlink:title=" ">
<path fill="none" stroke="#63b8ff" d="M166.01,-56.5C151.4,-56.5 135.93,-56.5 121.67,-56.5"/>
<polygon fill="#63b8ff" stroke="#63b8ff" points="165.99,-60 175.99,-56.5 165.99,-53 165.99,-60"/>
</a>
</g>
</g>
<!-- Node13 -->
<g id="Node000013" class="node">
<title>Node13</title>
<g id="a_Node000013"><a xlink:href="structModels_1_1TwoMetaDiv.html#a3326318642a739201c0a1362710362bb" target="_top" xlink:title=" ">
<polygon fill="white" stroke="#666666" points="119.5,-29 12,-29 12,0 119.5,0 119.5,-29"/>
<text text-anchor="start" x="20" y="-15.5" font-family="Helvetica,sans-Serif" font-size="10.00">Models::TwoMetaDiv</text>
<text text-anchor="middle" x="65.75" y="-5" font-family="Helvetica,sans-Serif" font-size="10.00">::init</text>
</a>
</g>
</g>
<!-- Node10&#45;&gt;Node13 -->
<g id="edge14_Node000010_Node000013" class="edge">
<title>Node10&#45;&gt;Node13</title>
<g id="a_edge14_Node000010_Node000013"><a xlink:title=" ">
<path fill="none" stroke="#63b8ff" d="M179.66,-43.89C160.81,-38.98 139.15,-33.34 119.87,-28.33"/>
<polygon fill="#63b8ff" stroke="#63b8ff" points="178.67,-47.25 189.23,-46.38 180.44,-40.47 178.67,-47.25"/>
</a>
</g>
</g>
</g>
</svg>

<g id="navigator" transform="translate(0 0)" fill="#404254">
  <rect fill="#f2f5e9" fill-opacity="0.5" stroke="#606060" stroke-width=".5" x="0" y="0" width="60" height="60"/>
  <use id="zoomplus" xlink:href="#zoomPlus" x="17" y="9" onmousedown="handleZoom(evt,'in')"/>
  <use id="zoomminus" xlink:href="#zoomMin" x="42" y="9" onmousedown="handleZoom(evt,'out')"/>
  <use id="reset" xlink:href="#resetDef" x="30" y="36" onmousedown="handleReset()"/>
   <use id="arrowup" xlink:href="#arrowUp" x="0" y="0" onmousedown="handlePan(0,-1)"/>
  <use id="arrowright" xlink:href="#arrowRight" x="0" y="0" onmousedown="handlePan(1,0)"/>
  <use id="arrowdown" xlink:href="#arrowDown" x="0" y="0" onmousedown="handlePan(0,1)"/>
  <use id="arrowleft" xlink:href="#arrowLeft" x="0" y="0" onmousedown="handlePan(-1,0)"/>
</g>
<svg viewBox="0 0 15 15" width="100%" height="30px" preserveAspectRatio="xMaxYMin meet">
 <g id="arrow_out" transform="scale(0.3 0.3)">
  <a xlink:href="namespaceMC_1_1Distributions_a351272c0fa13e73d23c7b1caf92e858f_icgraph_org.svg" target="_base">
   <rect id="button" ry="5" rx="5" y="6" x="6" height="38" width="38"
        fill="#f2f5e9" fill-opacity="0.5" stroke="#606060" stroke-width="1.0"/>
   <path id="arrow"
     d="M 11.500037,31.436501 C 11.940474,20.09759 22.043105,11.32322 32.158766,21.979434 L 37.068811,17.246167 C 37.068811,17.246167 37.088388,32 37.088388,32 L 22.160133,31.978069 C 22.160133,31.978069 26.997745,27.140456 26.997745,27.140456 C 18.528582,18.264221 13.291696,25.230495 11.500037,31.436501 z"
     style="fill:#404040;"/>
  </a>
 </g>
</svg>

<style type='text/css'>
<![CDATA[
[data-mouse-over-selected='false'] { opacity: 0.7; }
[data-mouse-over-selected='true']  { opacity: 1.0; }
]]>
</style>
<script type="application/ecmascript"><![CDATA[
document.addEventListener('DOMContentLoaded', (event) => {
  highlightEdges();
  highlightAdjacentNodes();
});
]]></script>
</svg>
