<?xml version="1.0" encoding="UTF-8" standalone="no"?>
<!DOCTYPE svg PUBLIC "-//W3C//DTD SVG 1.1//EN"
 "http://www.w3.org/Graphics/SVG/1.1/DTD/svg11.dtd">
<!-- Generated by graphviz version 14.0.1 (0)
 -->
<!-- Title: Simulation::KernelInline::__find_next_compartment Pages: 1 -->
<svg width="482pt" height="84pt"
 viewBox="0.00 0.00 482.00 84.00" xmlns="http://www.w3.org/2000/svg" xmlns:xlink="http://www.w3.org/1999/xlink">
<g id="graph0" class="graph" transform="scale(1 1) rotate(0) translate(4 80)">
<title>Simulation::KernelInline::__find_next_compartment</title>
<!-- Node1 -->
<g id="Node000001" class="node">
<title>Node1</title>
<g id="a_Node000001"><a xlink:title="probably overkill binary search to find next compartment">
<polygon fill="#999999" stroke="#666666" points="474,-52 338.75,-52 338.75,-23 474,-23 474,-52"/>
<text xml:space="preserve" text-anchor="start" x="346.75" y="-38.5" font-family="Helvetica,sans-Serif" font-size="10.00">Simulation::KernelInline</text>
<text xml:space="preserve" text-anchor="middle" x="406.38" y="-28" font-family="Helvetica,sans-Serif" font-size="10.00">::__find_next_compartment</text>
</a>
</g>
</g>
<!-- Node2 -->
<g id="Node000002" class="node">
<title>Node2</title>
<g id="a_Node000002"><a xlink:href="structSimulation_1_1KernelInline_1_1MoveFunctor.html#a2f5c4626adae4fe3d1c114dcb5f2c08b" target="_top" xlink:title=" ">
<polygon fill="white" stroke="#666666" points="302.75,-52 161.5,-52 161.5,-23 302.75,-23 302.75,-52"/>
<text xml:space="preserve" text-anchor="start" x="169.5" y="-38.5" font-family="Helvetica,sans-Serif" font-size="10.00">Simulation::KernelInline</text>
<text xml:space="preserve" text-anchor="middle" x="232.12" y="-28" font-family="Helvetica,sans-Serif" font-size="10.00">::MoveFunctor::handle_move</text>
</a>
</g>
</g>
<!-- Node1&#45;&gt;Node2 -->
<g id="edge1_Node000001_Node000002" class="edge">
<title>Node1&#45;&gt;Node2</title>
<g id="a_edge1_Node000001_Node000002"><a xlink:title=" ">
<path fill="none" stroke="#63b8ff" d="M326.82,-37.5C318.93,-37.5 310.95,-37.5 303.16,-37.5"/>
<polygon fill="#63b8ff" stroke="#63b8ff" points="326.77,-41 336.77,-37.5 326.77,-34 326.77,-41"/>
</a>
</g>
</g>
<!-- Node3 -->
<g id="Node000003" class="node">
<title>Node3</title>
<g id="a_Node000003"><a xlink:href="structSimulation_1_1KernelInline_1_1MoveFunctor.html#a44c3f09547671e80756f60afe399b12b" target="_top" xlink:title=" ">
<polygon fill="white" stroke="#666666" points="125.5,-76 0,-76 0,-47 125.5,-47 125.5,-76"/>
<text xml:space="preserve" text-anchor="start" x="8" y="-62.5" font-family="Helvetica,sans-Serif" font-size="10.00">Simulation::KernelInline</text>
<text xml:space="preserve" text-anchor="middle" x="62.75" y="-52" font-family="Helvetica,sans-Serif" font-size="10.00">::MoveFunctor::operator()</text>
</a>
</g>
</g>
<!-- Node2&#45;&gt;Node3 -->
<g id="edge2_Node000002_Node000003" class="edge">
<title>Node2&#45;&gt;Node3</title>
<g id="a_edge2_Node000002_Node000003"><a xlink:title=" ">
<path fill="none" stroke="#63b8ff" d="M149.75,-49.17C141.68,-50.32 133.59,-51.49 125.76,-52.61"/>
<polygon fill="#63b8ff" stroke="#63b8ff" points="150.21,-52.64 159.61,-47.75 149.22,-45.71 150.21,-52.64"/>
</a>
</g>
</g>
<!-- Node4 -->
<g id="Node000004" class="node">
<title>Node4</title>
<g id="a_Node000004"><a xlink:href="structSimulation_1_1KernelInline_1_1MoveFunctor.html#a17c0c65bd46d0e0ff12d8f145dae4219" target="_top" xlink:title=" ">
<polygon fill="white" stroke="#666666" points="125.5,-29 0,-29 0,0 125.5,0 125.5,-29"/>
<text xml:space="preserve" text-anchor="start" x="8" y="-15.5" font-family="Helvetica,sans-Serif" font-size="10.00">Simulation::KernelInline</text>
<text xml:space="preserve" text-anchor="middle" x="62.75" y="-5" font-family="Helvetica,sans-Serif" font-size="10.00">::MoveFunctor::operator()</text>
</a>
</g>
</g>
<!-- Node2&#45;&gt;Node4 -->
<g id="edge3_Node000002_Node000004" class="edge">
<title>Node2&#45;&gt;Node4</title>
<g id="a_edge3_Node000002_Node000004"><a xlink:title=" ">
<path fill="none" stroke="#63b8ff" d="M149.75,-26.32C141.68,-25.21 133.59,-24.1 125.76,-23.02"/>
<polygon fill="#63b8ff" stroke="#63b8ff" points="149.23,-29.78 159.61,-27.67 150.18,-22.84 149.23,-29.78"/>
</a>
</g>
</g>
</g>
</svg>
