<?xml version="1.0" encoding="UTF-8" standalone="no"?>
<!DOCTYPE svg PUBLIC "-//W3C//DTD SVG 1.1//EN"
 "http://www.w3.org/Graphics/SVG/1.1/DTD/svg11.dtd">
<!-- Generated by graphviz version 14.0.1 (0)
 -->
<!-- Title: MC::get_valid_value_or Pages: 1 -->
<svg width="414pt" height="27pt"
 viewBox="0.00 0.00 414.00 27.00" xmlns="http://www.w3.org/2000/svg" xmlns:xlink="http://www.w3.org/1999/xlink">
<g id="graph0" class="graph" transform="scale(1 1) rotate(0) translate(4 22.5)">
<title>MC::get_valid_value_or</title>
<!-- Node1 -->
<g id="Node000001" class="node">
<title>Node1</title>
<g id="a_Node000001"><a xlink:title=" ">
<polygon fill="#999999" stroke="#666666" points="117.25,-18.5 0,-18.5 0,0 117.25,0 117.25,-18.5"/>
<text xml:space="preserve" text-anchor="middle" x="58.62" y="-5" font-family="Helvetica,sans-Serif" font-size="10.00">MC::get_valid_value_or</text>
</a>
</g>
</g>
<!-- Node2 -->
<g id="Node000002" class="node">
<title>Node2</title>
<g id="a_Node000002"><a xlink:href="namespaceCommon.html#a7ca16dc3314f89cd1860091731cd7014" target="_top" xlink:title="Wrapper arround get_env to get envariable with fallback to default.">
<polygon fill="white" stroke="#666666" points="268.25,-18.5 153.25,-18.5 153.25,0 268.25,0 268.25,-18.5"/>
<text xml:space="preserve" text-anchor="middle" x="210.75" y="-5" font-family="Helvetica,sans-Serif" font-size="10.00">Common::read_env_or</text>
</a>
</g>
</g>
<!-- Node1&#45;&gt;Node2 -->
<g id="edge1_Node000001_Node000002" class="edge">
<title>Node1&#45;&gt;Node2</title>
<g id="a_edge1_Node000001_Node000002"><a xlink:title=" ">
<path fill="none" stroke="#63b8ff" d="M117.67,-9.25C125.43,-9.25 133.45,-9.25 141.36,-9.25"/>
<polygon fill="#63b8ff" stroke="#63b8ff" points="141.34,-12.75 151.34,-9.25 141.34,-5.75 141.34,-12.75"/>
</a>
</g>
</g>
<!-- Node3 -->
<g id="Node000003" class="node">
<title>Node3</title>
<g id="a_Node000003"><a xlink:href="namespaceCommon.html#a7e29bd7117dd8bfc651a1dc215923379" target="_top" xlink:title="Wrapper arround get_env to get optional envariable.">
<polygon fill="white" stroke="#666666" points="405.75,-18.5 304.25,-18.5 304.25,0 405.75,0 405.75,-18.5"/>
<text xml:space="preserve" text-anchor="middle" x="355" y="-5" font-family="Helvetica,sans-Serif" font-size="10.00">Common::read_env</text>
</a>
</g>
</g>
<!-- Node2&#45;&gt;Node3 -->
<g id="edge2_Node000002_Node000003" class="edge">
<title>Node2&#45;&gt;Node3</title>
<g id="a_edge2_Node000002_Node000003"><a xlink:title=" ">
<path fill="none" stroke="#63b8ff" d="M268.38,-9.25C276.38,-9.25 284.64,-9.25 292.73,-9.25"/>
<polygon fill="#63b8ff" stroke="#63b8ff" points="292.49,-12.75 302.49,-9.25 292.49,-5.75 292.49,-12.75"/>
</a>
</g>
</g>
</g>
</svg>
