<?xml version="1.0" encoding="UTF-8" standalone="no"?>
<!DOCTYPE svg PUBLIC "-//W3C//DTD SVG 1.1//EN"
 "http://www.w3.org/Graphics/SVG/1.1/DTD/svg11.dtd">
<!-- Generated by graphviz version 14.0.1 (0)
 -->
<!-- Title: Common::read_env_or Pages: 1 -->
<svg width="601pt" height="186pt"
 viewBox="0.00 0.00 601.00 186.00" xmlns="http://www.w3.org/2000/svg" xmlns:xlink="http://www.w3.org/1999/xlink">
<g id="graph0" class="graph" transform="scale(1 1) rotate(0) translate(4 181.75)">
<title>Common::read_env_or</title>
<!-- Node1 -->
<g id="Node000001" class="node">
<title>Node1</title>
<g id="a_Node000001"><a xlink:title="Wrapper arround get_env to get envariable with fallback to default.">
<polygon fill="#999999" stroke="#666666" points="592.75,-103.75 477.75,-103.75 477.75,-85.25 592.75,-85.25 592.75,-103.75"/>
<text xml:space="preserve" text-anchor="middle" x="535.25" y="-90.25" font-family="Helvetica,sans-Serif" font-size="10.00">Common::read_env_or</text>
</a>
</g>
</g>
<!-- Node2 -->
<g id="Node000002" class="node">
<title>Node2</title>
<g id="a_Node000002"><a xlink:href="namespaceCommon.html#ad3d68e79e4dbd7836f3090e662e01dba" target="_top" xlink:title=" ">
<polygon fill="white" stroke="#666666" points="428.25,-177.75 322.25,-177.75 322.25,-159.25 428.25,-159.25 428.25,-177.75"/>
<text xml:space="preserve" text-anchor="middle" x="375.25" y="-164.25" font-family="Helvetica,sans-Serif" font-size="10.00">Common::get_policy</text>
</a>
</g>
</g>
<!-- Node1&#45;&gt;Node2 -->
<g id="edge1_Node000001_Node000002" class="edge">
<title>Node1&#45;&gt;Node2</title>
<g id="a_edge1_Node000001_Node000002"><a xlink:title=" ">
<path fill="none" stroke="#63b8ff" d="M510.97,-110.61C492.78,-122.63 466.51,-138.76 441.75,-149.5 433.49,-153.08 424.37,-156.21 415.62,-158.84"/>
<polygon fill="#63b8ff" stroke="#63b8ff" points="512.83,-113.58 519.17,-105.09 508.92,-107.77 512.83,-113.58"/>
</a>
</g>
</g>
<!-- Node4 -->
<g id="Node000004" class="node">
<title>Node4</title>
<g id="a_Node000004"><a xlink:href="namespaceCommon.html#ad9c9fe6434c0c09218a2e33e17beee28" target="_top" xlink:title=" ">
<polygon fill="white" stroke="#666666" points="441.75,-140.75 308.75,-140.75 308.75,-122.25 441.75,-122.25 441.75,-140.75"/>
<text xml:space="preserve" text-anchor="middle" x="375.25" y="-127.25" font-family="Helvetica,sans-Serif" font-size="10.00">Common::get_policy_team</text>
</a>
</g>
</g>
<!-- Node1&#45;&gt;Node4 -->
<g id="edge3_Node000001_Node000004" class="edge">
<title>Node1&#45;&gt;Node4</title>
<g id="a_edge3_Node000001_Node000004"><a xlink:title=" ">
<path fill="none" stroke="#63b8ff" d="M481.53,-106.85C460.77,-111.71 437.28,-117.21 417.76,-121.78"/>
<polygon fill="#63b8ff" stroke="#63b8ff" points="482.33,-110.25 491.26,-104.57 480.73,-103.44 482.33,-110.25"/>
</a>
</g>
</g>
<!-- Node5 -->
<g id="Node000005" class="node">
<title>Node5</title>
<g id="a_Node000005"><a xlink:href="namespaceMC.html#a607ded472d094b72eaa4e7d0cc01bce0" target="_top" xlink:title=" ">
<polygon fill="white" stroke="#666666" points="433.88,-103.75 316.62,-103.75 316.62,-85.25 433.88,-85.25 433.88,-103.75"/>
<text xml:space="preserve" text-anchor="middle" x="375.25" y="-90.25" font-family="Helvetica,sans-Serif" font-size="10.00">MC::get_valid_value_or</text>
</a>
</g>
</g>
<!-- Node1&#45;&gt;Node5 -->
<g id="edge4_Node000001_Node000005" class="edge">
<title>Node1&#45;&gt;Node5</title>
<g id="a_edge4_Node000001_Node000005"><a xlink:title=" ">
<path fill="none" stroke="#63b8ff" d="M466.25,-94.5C455.61,-94.5 444.7,-94.5 434.31,-94.5"/>
<polygon fill="#63b8ff" stroke="#63b8ff" points="466.14,-98 476.14,-94.5 466.14,-91 466.14,-98"/>
</a>
</g>
</g>
<!-- Node6 -->
<g id="Node000006" class="node">
<title>Node6</title>
<g id="a_Node000006"><a xlink:href="namespaceMC.html#a67a8a8fb99f617a67dd3702cd0f0b47f" target="_top" xlink:title=" ">
<polygon fill="white" stroke="#666666" points="272,-84.75 142,-84.75 142,-66.25 272,-66.25 272,-84.75"/>
<text xml:space="preserve" text-anchor="middle" x="207" y="-71.25" font-family="Helvetica,sans-Serif" font-size="10.00">MC::load_tuning_constant</text>
</a>
</g>
</g>
<!-- Node1&#45;&gt;Node6 -->
<g id="edge11_Node000001_Node000006" class="edge">
<title>Node1&#45;&gt;Node6</title>
<g id="a_edge11_Node000001_Node000006"><a xlink:title=" ">
<path fill="none" stroke="#63b8ff" d="M481.89,-82.54C468.84,-80.05 454.85,-77.79 441.75,-76.5 384.6,-70.87 319.22,-71.16 272.16,-72.54"/>
<polygon fill="#63b8ff" stroke="#63b8ff" points="481.08,-85.94 491.57,-84.47 482.45,-79.08 481.08,-85.94"/>
</a>
</g>
</g>
<!-- Node9 -->
<g id="Node000009" class="node">
<title>Node9</title>
<g id="a_Node000009"><a xlink:href="classSimulation_1_1SimulationUnit.html#a50e613289a3b6ca1abea7173e3eac01e" target="_top" xlink:title=" ">
<polygon fill="white" stroke="#666666" points="441,-29 309.5,-29 309.5,0 441,0 441,-29"/>
<text xml:space="preserve" text-anchor="start" x="317.5" y="-15.5" font-family="Helvetica,sans-Serif" font-size="10.00">Simulation::SimulationUnit</text>
<text xml:space="preserve" text-anchor="middle" x="375.25" y="-5" font-family="Helvetica,sans-Serif" font-size="10.00">::init_functors</text>
</a>
</g>
</g>
<!-- Node1&#45;&gt;Node9 -->
<g id="edge9_Node000001_Node000009" class="edge">
<title>Node1&#45;&gt;Node9</title>
<g id="a_edge9_Node000001_Node000009"><a xlink:title=" ">
<path fill="none" stroke="#63b8ff" d="M507.83,-79.13C489.5,-68.67 464.41,-54.74 441.75,-43.5 432.06,-38.69 421.39,-33.8 411.52,-29.44"/>
<polygon fill="#63b8ff" stroke="#63b8ff" points="506.04,-82.14 516.46,-84.09 509.53,-76.07 506.04,-82.14"/>
</a>
</g>
</g>
<!-- Node3 -->
<g id="Node000003" class="node">
<title>Node3</title>
<g id="a_Node000003"><a xlink:href="namespaceCommon.html#a9322a1455f0f2a0626d66eae67412bda" target="_top" xlink:title=" ">
<polygon fill="white" stroke="#666666" points="260,-177.75 154,-177.75 154,-159.25 260,-159.25 260,-177.75"/>
<text xml:space="preserve" text-anchor="middle" x="207" y="-164.25" font-family="Helvetica,sans-Serif" font-size="10.00">Common::get_policy</text>
</a>
</g>
</g>
<!-- Node2&#45;&gt;Node3 -->
<g id="edge2_Node000002_Node000003" class="edge">
<title>Node2&#45;&gt;Node3</title>
<g id="a_edge2_Node000002_Node000003"><a xlink:title=" ">
<path fill="none" stroke="#63b8ff" d="M310.77,-168.5C294.08,-168.5 276.27,-168.5 260.25,-168.5"/>
<polygon fill="#63b8ff" stroke="#63b8ff" points="310.59,-172 320.59,-168.5 310.59,-165 310.59,-172"/>
</a>
</g>
</g>
<!-- Node5&#45;&gt;Node6 -->
<g id="edge5_Node000005_Node000006" class="edge">
<title>Node5&#45;&gt;Node6</title>
<g id="a_edge5_Node000005_Node000006"><a xlink:title=" ">
<path fill="none" stroke="#63b8ff" d="M305.36,-86.63C294.45,-85.38 283.2,-84.09 272.4,-82.86"/>
<polygon fill="#63b8ff" stroke="#63b8ff" points="304.73,-90.08 315.07,-87.74 305.53,-83.12 304.73,-90.08"/>
</a>
</g>
</g>
<!-- Node7 -->
<g id="Node000007" class="node">
<title>Node7</title>
<g id="a_Node000007"><a xlink:href="namespaceMC.html#a321fdcab9f09e8611b6f76b834d4ba4b" target="_top" xlink:title="Helper function to initialize a MonteCarloUnit.">
<polygon fill="white" stroke="#666666" points="77.88,-114.75 27.38,-114.75 27.38,-96.25 77.88,-96.25 77.88,-114.75"/>
<text xml:space="preserve" text-anchor="middle" x="52.62" y="-101.25" font-family="Helvetica,sans-Serif" font-size="10.00">MC::init</text>
</a>
</g>
</g>
<!-- Node6&#45;&gt;Node7 -->
<g id="edge6_Node000006_Node000007" class="edge">
<title>Node6&#45;&gt;Node7</title>
<g id="a_edge6_Node000006_Node000007"><a xlink:title=" ">
<path fill="none" stroke="#63b8ff" d="M145.53,-87.41C121.97,-92.04 96.32,-97.09 78.11,-100.68"/>
<polygon fill="#63b8ff" stroke="#63b8ff" points="145.91,-90.9 155.04,-85.53 144.56,-84.03 145.91,-90.9"/>
</a>
</g>
</g>
<!-- Node8 -->
<g id="Node000008" class="node">
<title>Node8</title>
<g id="a_Node000008"><a xlink:href="structMC_1_1MonteCarloUnit.html#a98a680cfc3356b197d4cd8fd453e0a17" target="_top" xlink:title=" ">
<polygon fill="white" stroke="#666666" points="105.25,-60 0,-60 0,-31 105.25,-31 105.25,-60"/>
<text xml:space="preserve" text-anchor="start" x="8" y="-46.5" font-family="Helvetica,sans-Serif" font-size="10.00">MC::MonteCarloUnit</text>
<text xml:space="preserve" text-anchor="middle" x="52.62" y="-36" font-family="Helvetica,sans-Serif" font-size="10.00">::serialize</text>
</a>
</g>
</g>
<!-- Node6&#45;&gt;Node8 -->
<g id="edge7_Node000006_Node000008" class="edge">
<title>Node6&#45;&gt;Node8</title>
<g id="a_edge7_Node000006_Node000008"><a xlink:title=" ">
<path fill="none" stroke="#63b8ff" d="M145.24,-63.54C132.16,-60.96 118.45,-58.26 105.73,-55.76"/>
<polygon fill="#63b8ff" stroke="#63b8ff" points="144.56,-66.97 155.04,-65.47 145.91,-60.1 144.56,-66.97"/>
</a>
</g>
</g>
<!-- Node8&#45;&gt;Node8 -->
<g id="edge8_Node000008_Node000008" class="edge">
<title>Node8&#45;&gt;Node8</title>
<g id="a_edge8_Node000008_Node000008"><a xlink:title=" ">
<path fill="none" stroke="#63b8ff" d="M78.83,-71.56C74.72,-75.41 65.98,-78 52.62,-78 28.2,-78 19.23,-69.32 25.72,-60.21"/>
<polygon fill="#63b8ff" stroke="#63b8ff" points="82.31,-71.91 79.43,-61.72 75.33,-71.48 82.31,-71.91"/>
</a>
</g>
</g>
<!-- Node10 -->
<g id="Node000010" class="node">
<title>Node10</title>
<g id="a_Node000010"><a xlink:href="classSimulation_1_1SimulationUnit.html#a255b9ef06424a104581e8aab290e8281" target="_top" xlink:title=" ">
<polygon fill="white" stroke="#666666" points="272.75,-29 141.25,-29 141.25,0 272.75,0 272.75,-29"/>
<text xml:space="preserve" text-anchor="start" x="149.25" y="-15.5" font-family="Helvetica,sans-Serif" font-size="10.00">Simulation::SimulationUnit</text>
<text xml:space="preserve" text-anchor="middle" x="207" y="-5" font-family="Helvetica,sans-Serif" font-size="10.00">::operator=</text>
</a>
</g>
</g>
<!-- Node9&#45;&gt;Node10 -->
<g id="edge10_Node000009_Node000010" class="edge">
<title>Node9&#45;&gt;Node10</title>
<g id="a_edge10_Node000009_Node000010"><a xlink:title=" ">
<path fill="none" stroke="#63b8ff" d="M297.53,-14.5C289.35,-14.5 281.08,-14.5 273.04,-14.5"/>
<polygon fill="#63b8ff" stroke="#63b8ff" points="297.51,-18 307.51,-14.5 297.51,-11 297.51,-18"/>
</a>
</g>
</g>
</g>
</svg>
