<?xml version="1.0" encoding="UTF-8" standalone="no"?>
<!DOCTYPE svg PUBLIC "-//W3C//DTD SVG 1.1//EN"
 "http://www.w3.org/Graphics/SVG/1.1/DTD/svg11.dtd">
<!-- Generated by graphviz version 14.0.1 (0)
 -->
<!-- Title: Common::is_power_of_2 Pages: 1 -->
<svg width="479pt" height="131pt"
 viewBox="0.00 0.00 479.00 131.00" xmlns="http://www.w3.org/2000/svg" xmlns:xlink="http://www.w3.org/1999/xlink">
<g id="graph0" class="graph" transform="scale(1 1) rotate(0) translate(4 127)">
<title>Common::is_power_of_2</title>
<!-- Node1 -->
<g id="Node000001" class="node">
<title>Node1</title>
<g id="a_Node000001"><a xlink:title=" ">
<polygon fill="#999999" stroke="#666666" points="471,-70.75 347,-70.75 347,-52.25 471,-52.25 471,-70.75"/>
<text xml:space="preserve" text-anchor="middle" x="409" y="-57.25" font-family="Helvetica,sans-Serif" font-size="10.00">Common::is_power_of_2</text>
</a>
</g>
</g>
<!-- Node2 -->
<g id="Node000002" class="node">
<title>Node2</title>
<g id="a_Node000002"><a xlink:href="namespaceCommon.html#a618180f8964b0ffef461c9ff2f44d295" target="_top" xlink:title=" ">
<polygon fill="white" stroke="#666666" points="311,-70.75 187.75,-70.75 187.75,-52.25 311,-52.25 311,-70.75"/>
<text xml:space="preserve" text-anchor="middle" x="249.38" y="-57.25" font-family="Helvetica,sans-Serif" font-size="10.00">Common::c_league_size</text>
</a>
</g>
</g>
<!-- Node1&#45;&gt;Node2 -->
<g id="edge1_Node000001_Node000002" class="edge">
<title>Node1&#45;&gt;Node2</title>
<g id="a_edge1_Node000001_Node000002"><a xlink:title=" ">
<path fill="none" stroke="#63b8ff" d="M335.35,-61.5C327.32,-61.5 319.21,-61.5 311.34,-61.5"/>
<polygon fill="#63b8ff" stroke="#63b8ff" points="335.09,-65 345.09,-61.5 335.09,-58 335.09,-65"/>
</a>
</g>
</g>
<!-- Node3 -->
<g id="Node000003" class="node">
<title>Node3</title>
<g id="a_Node000003"><a xlink:href="namespaceCommon.html#adb49dd62a0b04177404cae67015110cc" target="_top" xlink:title=" ">
<polygon fill="white" stroke="#666666" points="128.88,-123 22.88,-123 22.88,-94 128.88,-94 128.88,-123"/>
<text xml:space="preserve" text-anchor="start" x="30.88" y="-109.5" font-family="Helvetica,sans-Serif" font-size="10.00">Common::get_policy</text>
<text xml:space="preserve" text-anchor="middle" x="75.88" y="-99" font-family="Helvetica,sans-Serif" font-size="10.00">_team_from_npt</text>
</a>
</g>
</g>
<!-- Node2&#45;&gt;Node3 -->
<g id="edge2_Node000002_Node000003" class="edge">
<title>Node2&#45;&gt;Node3</title>
<g id="a_edge2_Node000002_Node000003"><a xlink:title=" ">
<path fill="none" stroke="#63b8ff" d="M201.9,-74.24C179.47,-80.38 152.46,-87.79 129.3,-94.13"/>
<polygon fill="#63b8ff" stroke="#63b8ff" points="202.66,-77.66 211.38,-71.64 200.81,-70.91 202.66,-77.66"/>
</a>
</g>
</g>
<!-- Node4 -->
<g id="Node000004" class="node">
<title>Node4</title>
<g id="a_Node000004"><a xlink:href="structSimulation_1_1KernelInline_1_1CycleFunctors.html#a6c90aea19ce14cae37799d53e12d70e6" target="_top" xlink:title=" ">
<polygon fill="white" stroke="#666666" points="151.75,-76 0,-76 0,-47 151.75,-47 151.75,-76"/>
<text xml:space="preserve" text-anchor="start" x="8" y="-62.5" font-family="Helvetica,sans-Serif" font-size="10.00">Simulation::KernelInline</text>
<text xml:space="preserve" text-anchor="middle" x="75.88" y="-52" font-family="Helvetica,sans-Serif" font-size="10.00">::CycleFunctors::launch_model</text>
</a>
</g>
</g>
<!-- Node2&#45;&gt;Node4 -->
<g id="edge3_Node000002_Node000004" class="edge">
<title>Node2&#45;&gt;Node4</title>
<g id="a_edge3_Node000002_Node000004"><a xlink:title=" ">
<path fill="none" stroke="#63b8ff" d="M175.97,-61.5C168.06,-61.5 159.99,-61.5 152.04,-61.5"/>
<polygon fill="#63b8ff" stroke="#63b8ff" points="175.91,-65 185.91,-61.5 175.91,-58 175.91,-65"/>
</a>
</g>
</g>
<!-- Node5 -->
<g id="Node000005" class="node">
<title>Node5</title>
<g id="a_Node000005"><a xlink:href="structSimulation_1_1KernelInline_1_1CycleFunctors.html#ad2fc32bf23892ce86533e9f069051003" target="_top" xlink:title=" ">
<polygon fill="white" stroke="#666666" points="150.25,-29 1.5,-29 1.5,0 150.25,0 150.25,-29"/>
<text xml:space="preserve" text-anchor="start" x="9.5" y="-15.5" font-family="Helvetica,sans-Serif" font-size="10.00">Simulation::KernelInline</text>
<text xml:space="preserve" text-anchor="middle" x="75.88" y="-5" font-family="Helvetica,sans-Serif" font-size="10.00">::CycleFunctors::launch_move</text>
</a>
</g>
</g>
<!-- Node2&#45;&gt;Node5 -->
<g id="edge4_Node000002_Node000005" class="edge">
<title>Node2&#45;&gt;Node5</title>
<g id="a_edge4_Node000002_Node000005"><a xlink:title=" ">
<path fill="none" stroke="#63b8ff" d="M201.88,-48.76C180.09,-42.79 153.99,-35.63 131.29,-29.41"/>
<polygon fill="#63b8ff" stroke="#63b8ff" points="200.81,-52.09 211.38,-51.36 202.66,-45.34 200.81,-52.09"/>
</a>
</g>
</g>
</g>
</svg>
