<?xml version="1.0" encoding="UTF-8" standalone="no"?>
<!DOCTYPE svg PUBLIC "-//W3C//DTD SVG 1.1//EN"
 "http://www.w3.org/Graphics/SVG/1.1/DTD/svg11.dtd">
<!-- Generated by graphviz version 14.0.1 (0)
 -->
<!-- Title: Simulation::makeScalarSimulation Pages: 1 -->
<svg width="527pt" height="84pt"
 viewBox="0.00 0.00 527.00 84.00" xmlns="http://www.w3.org/2000/svg" xmlns:xlink="http://www.w3.org/1999/xlink">
<g id="graph0" class="graph" transform="scale(1 1) rotate(0) translate(4 80)">
<title>Simulation::makeScalarSimulation</title>
<!-- Node1 -->
<g id="Node000001" class="node">
<title>Node1</title>
<g id="a_Node000001"><a xlink:title=" ">
<polygon fill="#999999" stroke="#666666" points="164.5,-46.75 0,-46.75 0,-28.25 164.5,-28.25 164.5,-46.75"/>
<text xml:space="preserve" text-anchor="middle" x="82.25" y="-33.25" font-family="Helvetica,sans-Serif" font-size="10.00">Simulation::makeScalarSimulation</text>
</a>
</g>
</g>
<!-- Node2 -->
<g id="Node000002" class="node">
<title>Node2</title>
<g id="a_Node000002"><a xlink:href="classSimulation_1_1ScalarSimulation.html#aa72818956090d90be703c0ba0ed932ee" target="_top" xlink:title=" ">
<polygon fill="white" stroke="#666666" points="341.75,-52 200.5,-52 200.5,-23 341.75,-23 341.75,-52"/>
<text xml:space="preserve" text-anchor="start" x="208.5" y="-38.5" font-family="Helvetica,sans-Serif" font-size="10.00">Simulation::ScalarSimulation</text>
<text xml:space="preserve" text-anchor="middle" x="271.12" y="-28" font-family="Helvetica,sans-Serif" font-size="10.00">::ScalarSimulation</text>
</a>
</g>
</g>
<!-- Node1&#45;&gt;Node2 -->
<g id="edge1_Node000001_Node000002" class="edge">
<title>Node1&#45;&gt;Node2</title>
<g id="a_edge1_Node000001_Node000002"><a xlink:title=" ">
<path fill="none" stroke="#63b8ff" d="M164.94,-37.5C172.8,-37.5 180.76,-37.5 188.61,-37.5"/>
<polygon fill="#63b8ff" stroke="#63b8ff" points="188.49,-41 198.49,-37.5 188.49,-34 188.49,-41"/>
</a>
</g>
</g>
<!-- Node3 -->
<g id="Node000003" class="node">
<title>Node3</title>
<g id="a_Node000003"><a xlink:href="classSimulation_1_1ScalarSimulation.html#a5ca5e122100fad91f418cbbea5bbb439" target="_top" xlink:title=" ">
<polygon fill="white" stroke="#666666" points="519,-76 377.75,-76 377.75,-47 519,-47 519,-76"/>
<text xml:space="preserve" text-anchor="start" x="385.75" y="-62.5" font-family="Helvetica,sans-Serif" font-size="10.00">Simulation::ScalarSimulation</text>
<text xml:space="preserve" text-anchor="middle" x="448.38" y="-52" font-family="Helvetica,sans-Serif" font-size="10.00">::n_col</text>
</a>
</g>
</g>
<!-- Node2&#45;&gt;Node3 -->
<g id="edge2_Node000002_Node000003" class="edge">
<title>Node2&#45;&gt;Node3</title>
<g id="a_edge2_Node000002_Node000003"><a xlink:title=" ">
<path fill="none" stroke="#63b8ff" d="M342.14,-47.09C350.05,-48.17 358.15,-49.28 366.19,-50.38"/>
<polygon fill="#63b8ff" stroke="#63b8ff" points="365.59,-53.83 375.97,-51.72 366.54,-46.9 365.59,-53.83"/>
</a>
</g>
</g>
<!-- Node4 -->
<g id="Node000004" class="node">
<title>Node4</title>
<g id="a_Node000004"><a xlink:href="classSimulation_1_1ScalarSimulation.html#aab5e48f3385a40d87dd678103097ec06" target="_top" xlink:title=" ">
<polygon fill="white" stroke="#666666" points="519,-29 377.75,-29 377.75,0 519,0 519,-29"/>
<text xml:space="preserve" text-anchor="start" x="385.75" y="-15.5" font-family="Helvetica,sans-Serif" font-size="10.00">Simulation::ScalarSimulation</text>
<text xml:space="preserve" text-anchor="middle" x="448.38" y="-5" font-family="Helvetica,sans-Serif" font-size="10.00">::n_row</text>
</a>
</g>
</g>
<!-- Node2&#45;&gt;Node4 -->
<g id="edge3_Node000002_Node000004" class="edge">
<title>Node2&#45;&gt;Node4</title>
<g id="a_edge3_Node000002_Node000004"><a xlink:title=" ">
<path fill="none" stroke="#63b8ff" d="M342.14,-28.31C350.05,-27.27 358.15,-26.21 366.19,-25.16"/>
<polygon fill="#63b8ff" stroke="#63b8ff" points="366.51,-28.64 375.97,-23.87 365.6,-21.7 366.51,-28.64"/>
</a>
</g>
</g>
</g>
</svg>
