<?xml version="1.0" encoding="UTF-8" standalone="no"?>
<!DOCTYPE svg PUBLIC "-//W3C//DTD SVG 1.1//EN"
 "http://www.w3.org/Graphics/SVG/1.1/DTD/svg11.dtd">
<!-- Generated by graphviz version 14.0.1 (0)
 -->
<!-- Title: IO::format Pages: 1 -->
<svg width="1307pt" height="419pt"
 viewBox="0.00 0.00 1307.00 419.00" xmlns="http://www.w3.org/2000/svg" xmlns:xlink="http://www.w3.org/1999/xlink">
<g id="graph0" class="graph" transform="scale(1 1) rotate(0) translate(4 414.75)">
<title>IO::format</title>
<!-- Node1 -->
<g id="Node000001" class="node">
<title>Node1</title>
<g id="a_Node000001"><a xlink:title=" ">
<polygon fill="#999999" stroke="#666666" points="1299,-181.75 1238.75,-181.75 1238.75,-163.25 1299,-163.25 1299,-181.75"/>
<text xml:space="preserve" text-anchor="middle" x="1268.88" y="-168.25" font-family="Helvetica,sans-Serif" font-size="10.00">IO::format</text>
</a>
</g>
</g>
<!-- Node1&#45;&gt;Node1 -->
<g id="edge11_Node000001_Node000001" class="edge">
<title>Node1&#45;&gt;Node1</title>
<g id="a_edge11_Node000001_Node000001"><a xlink:title=" ">
<path fill="none" stroke="#63b8ff" d="M1290.84,-193.11C1288.18,-197 1280.85,-199.75 1268.88,-199.75 1246.97,-199.75 1240.64,-190.57 1249.88,-182"/>
<polygon fill="#63b8ff" stroke="#63b8ff" points="1294.22,-192.22 1288.26,-183.46 1287.46,-194.02 1294.22,-192.22"/>
</a>
</g>
</g>
<!-- Node2 -->
<g id="Node000002" class="node">
<title>Node2</title>
<g id="a_Node000002"><a xlink:href="classCore_1_1GlobalInitialiser.html#af0e3ff388be6a2cb08edf9f69dd200b0" target="_top" xlink:title="Checks if all initialization steps have been validated.">
<polygon fill="white" stroke="#666666" points="1201.62,-303 1089.62,-303 1089.62,-274 1201.62,-274 1201.62,-303"/>
<text xml:space="preserve" text-anchor="start" x="1097.62" y="-289.5" font-family="Helvetica,sans-Serif" font-size="10.00">Core::GlobalInitialiser</text>
<text xml:space="preserve" text-anchor="middle" x="1145.62" y="-279" font-family="Helvetica,sans-Serif" font-size="10.00">::check_init_terminate</text>
</a>
</g>
</g>
<!-- Node1&#45;&gt;Node2 -->
<g id="edge1_Node000001_Node000002" class="edge">
<title>Node1&#45;&gt;Node2</title>
<g id="a_edge1_Node000001_Node000002"><a xlink:title=" ">
<path fill="none" stroke="#63b8ff" d="M1258.41,-192.2C1247.55,-212.95 1227.95,-245.35 1202.75,-265.5 1198.97,-268.52 1194.73,-271.21 1190.33,-273.57"/>
<polygon fill="#63b8ff" stroke="#63b8ff" points="1261.48,-193.88 1262.84,-183.37 1255.22,-190.74 1261.48,-193.88"/>
</a>
</g>
</g>
<!-- Node4 -->
<g id="Node000004" class="node">
<title>Node4</title>
<g id="a_Node000004"><a xlink:href="classIO_1_1Console.html#ad8e8490ed0b1b321bb75e9702c32fb8a" target="_top" xlink:title=" ">
<polygon fill="white" stroke="#666666" points="1200.88,-339.75 1090.38,-339.75 1090.38,-321.25 1200.88,-321.25 1200.88,-339.75"/>
<text xml:space="preserve" text-anchor="middle" x="1145.62" y="-326.25" font-family="Helvetica,sans-Serif" font-size="10.00">IO::Console::Console</text>
</a>
</g>
</g>
<!-- Node1&#45;&gt;Node4 -->
<g id="edge3_Node000001_Node000004" class="edge">
<title>Node1&#45;&gt;Node4</title>
<g id="a_edge3_Node000001_Node000004"><a xlink:title=" ">
<path fill="none" stroke="#63b8ff" d="M1263.86,-192.77C1256.81,-223.12 1239.32,-280.24 1202.75,-312.5 1198.91,-315.88 1194.43,-318.63 1189.71,-320.87"/>
<polygon fill="#63b8ff" stroke="#63b8ff" points="1267.2,-193.88 1265.89,-183.37 1260.36,-192.41 1267.2,-193.88"/>
</a>
</g>
</g>
<!-- Node9 -->
<g id="Node000009" class="node">
<title>Node9</title>
<g id="a_Node000009"><a xlink:href="structApi_1_1SimulationInstance.html#a3f04372728be84263fb69f5773ca5bd5" target="_top" xlink:title="Execute the simulation.">
<polygon fill="white" stroke="#666666" points="586.75,-166 467.25,-166 467.25,-137 586.75,-137 586.75,-166"/>
<text xml:space="preserve" text-anchor="start" x="475.25" y="-152.5" font-family="Helvetica,sans-Serif" font-size="10.00">Api::SimulationInstance</text>
<text xml:space="preserve" text-anchor="middle" x="527" y="-142" font-family="Helvetica,sans-Serif" font-size="10.00">::exec</text>
</a>
</g>
</g>
<!-- Node1&#45;&gt;Node9 -->
<g id="edge8_Node000001_Node000009" class="edge">
<title>Node1&#45;&gt;Node9</title>
<g id="a_edge8_Node000001_Node000009"><a xlink:title=" ">
<path fill="none" stroke="#63b8ff" d="M1226.94,-167.4C1173.43,-161.18 1076.73,-151.5 993.75,-151.5 993.75,-151.5 993.75,-151.5 840.38,-151.5 752.11,-151.5 649.82,-151.5 587.01,-151.5"/>
<polygon fill="#63b8ff" stroke="#63b8ff" points="1226.47,-170.87 1236.82,-168.57 1227.3,-163.92 1226.47,-170.87"/>
</a>
</g>
</g>
<!-- Node11 -->
<g id="Node000011" class="node">
<title>Node11</title>
<g id="a_Node000011"><a xlink:href="namespacePostProcessing.html#a4ab2f40acb429b9c449457ac83604ab7" target="_top" xlink:title=" ">
<polygon fill="white" stroke="#666666" points="1200.12,-209 1091.12,-209 1091.12,-180 1200.12,-180 1200.12,-209"/>
<text xml:space="preserve" text-anchor="start" x="1099.12" y="-195.5" font-family="Helvetica,sans-Serif" font-size="10.00">PostProcessing::final</text>
<text xml:space="preserve" text-anchor="middle" x="1145.62" y="-185" font-family="Helvetica,sans-Serif" font-size="10.00">_post_processing</text>
</a>
</g>
</g>
<!-- Node1&#45;&gt;Node11 -->
<g id="edge10_Node000001_Node000011" class="edge">
<title>Node1&#45;&gt;Node11</title>
<g id="a_edge10_Node000001_Node000011"><a xlink:title=" ">
<path fill="none" stroke="#63b8ff" d="M1227.22,-179.88C1218.6,-181.44 1209.37,-183.12 1200.35,-184.75"/>
<polygon fill="#63b8ff" stroke="#63b8ff" points="1227.82,-183.32 1237.03,-178.1 1226.57,-176.44 1227.82,-183.32"/>
</a>
</g>
</g>
<!-- Node12 -->
<g id="Node000012" class="node">
<title>Node12</title>
<g id="a_Node000012"><a xlink:href="classCore_1_1PartialExporter.html#a05cba8c28abaecce99f586d551a75f80" target="_top" xlink:title="Initializes the fields required for exporting data.">
<polygon fill="white" stroke="#666666" points="1200.12,-123 1091.12,-123 1091.12,-94 1200.12,-94 1200.12,-123"/>
<text xml:space="preserve" text-anchor="start" x="1099.12" y="-109.5" font-family="Helvetica,sans-Serif" font-size="10.00">Core::PartialExporter</text>
<text xml:space="preserve" text-anchor="middle" x="1145.62" y="-99" font-family="Helvetica,sans-Serif" font-size="10.00">::init_fields</text>
</a>
</g>
</g>
<!-- Node1&#45;&gt;Node12 -->
<g id="edge12_Node000001_Node000012" class="edge">
<title>Node1&#45;&gt;Node12</title>
<g id="a_edge12_Node000001_Node000012"><a xlink:title=" ">
<path fill="none" stroke="#63b8ff" d="M1240.02,-157.4C1228.51,-151.2 1215.01,-143.96 1202.75,-137.5 1194.02,-132.9 1184.49,-127.95 1175.8,-123.46"/>
<polygon fill="#63b8ff" stroke="#63b8ff" points="1238.16,-160.37 1248.62,-162.05 1241.48,-154.21 1238.16,-160.37"/>
</a>
</g>
</g>
<!-- Node19 -->
<g id="Node000019" class="node">
<title>Node19</title>
<g id="a_Node000019"><a xlink:href="classCore_1_1GlobalInitialiser.html#a0dc2da93c4202706b5f37453f355145c" target="_top" xlink:title="Initializes a transitioner with the provided flow iterator.">
<polygon fill="white" stroke="#666666" points="1200.5,-256 1090.75,-256 1090.75,-227 1200.5,-227 1200.5,-256"/>
<text xml:space="preserve" text-anchor="start" x="1098.75" y="-242.5" font-family="Helvetica,sans-Serif" font-size="10.00">Core::GlobalInitialiser</text>
<text xml:space="preserve" text-anchor="middle" x="1145.62" y="-232" font-family="Helvetica,sans-Serif" font-size="10.00">::init_transitionner</text>
</a>
</g>
</g>
<!-- Node1&#45;&gt;Node19 -->
<g id="edge24_Node000001_Node000019" class="edge">
<title>Node1&#45;&gt;Node19</title>
<g id="a_edge24_Node000001_Node000019"><a xlink:title=" ">
<path fill="none" stroke="#63b8ff" d="M1246.91,-189.14C1234.52,-198.51 1218.26,-209.99 1202.75,-218.5 1197.58,-221.34 1191.99,-224.03 1186.4,-226.52"/>
<polygon fill="#63b8ff" stroke="#63b8ff" points="1248.95,-191.99 1254.73,-183.11 1244.68,-186.45 1248.95,-191.99"/>
</a>
</g>
</g>
<!-- Node20 -->
<g id="Node000020" class="node">
<title>Node20</title>
<g id="a_Node000020"><a xlink:href="namespacePostProcessing.html#a337bdfabd5728c5cdb96bdc7a59c9be5" target="_top" xlink:title=" ">
<polygon fill="white" stroke="#666666" points="1202.75,-76 1088.5,-76 1088.5,-47 1202.75,-47 1202.75,-76"/>
<text xml:space="preserve" text-anchor="start" x="1096.5" y="-62.5" font-family="Helvetica,sans-Serif" font-size="10.00">PostProcessing::show</text>
<text xml:space="preserve" text-anchor="middle" x="1145.62" y="-52" font-family="Helvetica,sans-Serif" font-size="10.00">_sumup_state</text>
</a>
</g>
</g>
<!-- Node1&#45;&gt;Node20 -->
<g id="edge26_Node000001_Node000020" class="edge">
<title>Node1&#45;&gt;Node20</title>
<g id="a_edge26_Node000001_Node000020"><a xlink:title=" ">
<path fill="none" stroke="#63b8ff" d="M1257.37,-152.99C1246.09,-133.63 1226.54,-104.2 1202.75,-85.5 1198.42,-82.09 1193.53,-79.08 1188.49,-76.44"/>
<polygon fill="#63b8ff" stroke="#63b8ff" points="1254.2,-154.5 1262.15,-161.51 1260.31,-151.08 1254.2,-154.5"/>
</a>
</g>
</g>
<!-- Node21 -->
<g id="Node000021" class="node">
<title>Node21</title>
<g id="a_Node000021"><a xlink:href="classCore_1_1PartialExporter.html#a53c54ce796df99b407f410beb01074c5" target="_top" xlink:title="Writes probe data to the export.">
<polygon fill="white" stroke="#666666" points="1200.12,-29 1091.12,-29 1091.12,0 1200.12,0 1200.12,-29"/>
<text xml:space="preserve" text-anchor="start" x="1099.12" y="-15.5" font-family="Helvetica,sans-Serif" font-size="10.00">Core::PartialExporter</text>
<text xml:space="preserve" text-anchor="middle" x="1145.62" y="-5" font-family="Helvetica,sans-Serif" font-size="10.00">::write_probe</text>
</a>
</g>
</g>
<!-- Node1&#45;&gt;Node21 -->
<g id="edge27_Node000001_Node000021" class="edge">
<title>Node1&#45;&gt;Node21</title>
<g id="a_edge27_Node000001_Node000021"><a xlink:title=" ">
<path fill="none" stroke="#63b8ff" d="M1262.89,-152.27C1254.83,-123.45 1236.34,-70.51 1202.75,-38.5 1199.14,-35.06 1194.97,-32.08 1190.56,-29.5"/>
<polygon fill="#63b8ff" stroke="#63b8ff" points="1259.41,-152.78 1265.34,-161.56 1266.17,-150.99 1259.41,-152.78"/>
</a>
</g>
</g>
<!-- Node3 -->
<g id="Node000003" class="node">
<title>Node3</title>
<g id="a_Node000003"><a xlink:href="structApi_1_1SimulationInstance.html#ae9bdd54076170f50eadcb7966d64c19d" target="_top" xlink:title="Apply the simulation configuration and prepare for execution.">
<polygon fill="white" stroke="#666666" points="1052.5,-258 933,-258 933,-229 1052.5,-229 1052.5,-258"/>
<text xml:space="preserve" text-anchor="start" x="941" y="-244.5" font-family="Helvetica,sans-Serif" font-size="10.00">Api::SimulationInstance</text>
<text xml:space="preserve" text-anchor="middle" x="992.75" y="-234" font-family="Helvetica,sans-Serif" font-size="10.00">::apply</text>
</a>
</g>
</g>
<!-- Node2&#45;&gt;Node3 -->
<g id="edge2_Node000002_Node000003" class="edge">
<title>Node2&#45;&gt;Node3</title>
<g id="a_edge2_Node000002_Node000003"><a xlink:title=" ">
<path fill="none" stroke="#63b8ff" d="M1083.54,-270.28C1070.41,-266.37 1056.69,-262.27 1044.03,-258.5"/>
<polygon fill="#63b8ff" stroke="#63b8ff" points="1082.35,-273.58 1092.94,-273.08 1084.35,-266.87 1082.35,-273.58"/>
</a>
</g>
</g>
<!-- Node5 -->
<g id="Node000005" class="node">
<title>Node5</title>
<g id="a_Node000005"><a xlink:href="classIO_1_1Console.html#afa53ede48496d2ff21c31a463d4c8e9e" target="_top" xlink:title=" ">
<polygon fill="white" stroke="#666666" points="1048,-410.75 937.5,-410.75 937.5,-392.25 1048,-392.25 1048,-410.75"/>
<text xml:space="preserve" text-anchor="middle" x="992.75" y="-397.25" font-family="Helvetica,sans-Serif" font-size="10.00">IO::Console::Console</text>
</a>
</g>
</g>
<!-- Node4&#45;&gt;Node5 -->
<g id="edge4_Node000004_Node000005" class="edge">
<title>Node4&#45;&gt;Node5</title>
<g id="a_edge4_Node000004_Node000005"><a xlink:title=" ">
<path fill="none" stroke="#63b8ff" d="M1120.02,-346.19C1101.85,-357.32 1076.26,-372.08 1052.5,-382.5 1044.65,-385.94 1035.96,-389.09 1027.74,-391.79"/>
<polygon fill="#63b8ff" stroke="#63b8ff" points="1121.86,-349.17 1128.5,-340.91 1118.16,-343.22 1121.86,-349.17"/>
</a>
</g>
</g>
<!-- Node6 -->
<g id="Node000006" class="node">
<title>Node6</title>
<g id="a_Node000006"><a xlink:href="classIO_1_1Console.html#af5e8a2459163188ad1da3430b88001b6" target="_top" xlink:title=" ">
<polygon fill="white" stroke="#666666" points="1048,-373.75 937.5,-373.75 937.5,-355.25 1048,-355.25 1048,-373.75"/>
<text xml:space="preserve" text-anchor="middle" x="992.75" y="-360.25" font-family="Helvetica,sans-Serif" font-size="10.00">IO::Console::Console</text>
</a>
</g>
</g>
<!-- Node4&#45;&gt;Node6 -->
<g id="edge5_Node000004_Node000006" class="edge">
<title>Node4&#45;&gt;Node6</title>
<g id="a_edge5_Node000004_Node000006"><a xlink:title=" ">
<path fill="none" stroke="#63b8ff" d="M1090.18,-342.77C1072.69,-346.71 1053.56,-351.02 1036.99,-354.76"/>
<polygon fill="#63b8ff" stroke="#63b8ff" points="1090.93,-346.19 1099.91,-340.58 1089.39,-339.36 1090.93,-346.19"/>
</a>
</g>
</g>
<!-- Node7 -->
<g id="Node000007" class="node">
<title>Node7</title>
<g id="a_Node000007"><a xlink:href="classIO_1_1Console.html#aac82dc12f9d262c7f44b22fe6f2dd49b" target="_top" xlink:title=" ">
<polygon fill="white" stroke="#666666" points="1050.62,-336.75 934.88,-336.75 934.88,-318.25 1050.62,-318.25 1050.62,-336.75"/>
<text xml:space="preserve" text-anchor="middle" x="992.75" y="-323.25" font-family="Helvetica,sans-Serif" font-size="10.00">IO::Console::operator=</text>
</a>
</g>
</g>
<!-- Node4&#45;&gt;Node7 -->
<g id="edge6_Node000004_Node000007" class="edge">
<title>Node4&#45;&gt;Node7</title>
<g id="a_edge6_Node000004_Node000007"><a xlink:title=" ">
<path fill="none" stroke="#63b8ff" d="M1078.92,-329.19C1069.6,-329.01 1060.08,-328.82 1050.94,-328.64"/>
<polygon fill="#63b8ff" stroke="#63b8ff" points="1078.57,-332.69 1088.64,-329.39 1078.71,-325.69 1078.57,-332.69"/>
</a>
</g>
</g>
<!-- Node8 -->
<g id="Node000008" class="node">
<title>Node8</title>
<g id="a_Node000008"><a xlink:href="classIO_1_1Console.html#a2ae23124d355bfe39da66c91d3417caf" target="_top" xlink:title=" ">
<polygon fill="white" stroke="#666666" points="1050.62,-299.75 934.88,-299.75 934.88,-281.25 1050.62,-281.25 1050.62,-299.75"/>
<text xml:space="preserve" text-anchor="middle" x="992.75" y="-286.25" font-family="Helvetica,sans-Serif" font-size="10.00">IO::Console::operator=</text>
</a>
</g>
</g>
<!-- Node4&#45;&gt;Node8 -->
<g id="edge7_Node000004_Node000008" class="edge">
<title>Node4&#45;&gt;Node8</title>
<g id="a_edge7_Node000004_Node000008"><a xlink:title=" ">
<path fill="none" stroke="#63b8ff" d="M1097.2,-317.93C1075.65,-312.21 1050.54,-305.56 1030.46,-300.23"/>
<polygon fill="#63b8ff" stroke="#63b8ff" points="1096.08,-321.25 1106.64,-320.43 1097.87,-314.48 1096.08,-321.25"/>
</a>
</g>
</g>
<!-- Node10 -->
<g id="Node000010" class="node">
<title>Node10</title>
<g id="a_Node000010"><a xlink:href="structApi_1_1SimulationInstance.html#afee07db8a6b57fe7982900ecaa943cc0" target="_top" xlink:title="Default constructor.">
<polygon fill="white" stroke="#666666" points="119.5,-108 0,-108 0,-79 119.5,-79 119.5,-108"/>
<text xml:space="preserve" text-anchor="start" x="8" y="-94.5" font-family="Helvetica,sans-Serif" font-size="10.00">Api::SimulationInstance</text>
<text xml:space="preserve" text-anchor="middle" x="59.75" y="-84" font-family="Helvetica,sans-Serif" font-size="10.00">::SimulationInstance</text>
</a>
</g>
</g>
<!-- Node9&#45;&gt;Node10 -->
<g id="edge9_Node000009_Node000010" class="edge">
<title>Node9&#45;&gt;Node10</title>
<g id="a_edge9_Node000009_Node000010"><a xlink:title=" ">
<path fill="none" stroke="#63b8ff" d="M455.79,-156.16C380.49,-159.38 257.9,-159.5 155.5,-135.5 131.32,-129.83 105.68,-118.07 87.18,-108.43"/>
<polygon fill="#63b8ff" stroke="#63b8ff" points="455.67,-159.67 465.5,-155.71 455.35,-152.68 455.67,-159.67"/>
</a>
</g>
</g>
<!-- Node13 -->
<g id="Node000013" class="node">
<title>Node13</title>
<g id="a_Node000013"><a xlink:href="namespaceCore.html#afbce0beea293a7ccfdfc34a85b5e5e77" target="_top" xlink:title=" ">
<polygon fill="white" stroke="#666666" points="885.38,-117 797.38,-117 797.38,-88 885.38,-88 885.38,-117"/>
<text xml:space="preserve" text-anchor="start" x="805.38" y="-103.5" font-family="Helvetica,sans-Serif" font-size="10.00">Core::init_partial</text>
<text xml:space="preserve" text-anchor="middle" x="841.38" y="-93" font-family="Helvetica,sans-Serif" font-size="10.00">_exporter</text>
</a>
</g>
</g>
<!-- Node12&#45;&gt;Node13 -->
<g id="edge13_Node000012_Node000013" class="edge">
<title>Node12&#45;&gt;Node13</title>
<g id="a_edge13_Node000012_Node000013"><a xlink:title=" ">
<path fill="none" stroke="#63b8ff" d="M1079.58,-107.21C1021,-106.05 936.52,-104.37 885.78,-103.36"/>
<polygon fill="#63b8ff" stroke="#63b8ff" points="1079.36,-110.7 1089.42,-107.4 1079.5,-103.71 1079.36,-110.7"/>
</a>
</g>
</g>
<!-- Node14 -->
<g id="Node000014" class="node">
<title>Node14</title>
<g id="a_Node000014"><a xlink:href="namespaceCore.html#a105cc1fc8005e6139954e3adce14f525" target="_top" xlink:title="Start simulation.">
<polygon fill="white" stroke="#666666" points="718.25,-106.75 655,-106.75 655,-88.25 718.25,-88.25 718.25,-106.75"/>
<text xml:space="preserve" text-anchor="middle" x="686.62" y="-93.25" font-family="Helvetica,sans-Serif" font-size="10.00">Core::exec</text>
</a>
</g>
</g>
<!-- Node13&#45;&gt;Node14 -->
<g id="edge14_Node000013_Node000014" class="edge">
<title>Node13&#45;&gt;Node14</title>
<g id="a_edge14_Node000013_Node000014"><a xlink:title=" ">
<path fill="none" stroke="#63b8ff" d="M785.52,-100.7C762.97,-99.97 737.7,-99.14 718.48,-98.51"/>
<polygon fill="#63b8ff" stroke="#63b8ff" points="785.39,-104.2 795.5,-101.03 785.62,-97.21 785.39,-104.2"/>
</a>
</g>
</g>
<!-- Node14&#45;&gt;Node9 -->
<g id="edge15_Node000014_Node000009" class="edge">
<title>Node14&#45;&gt;Node9</title>
<g id="a_edge15_Node000014_Node000009"><a xlink:title=" ">
<path fill="none" stroke="#63b8ff" d="M646.81,-110.8C624.06,-118.59 595.25,-128.46 571.7,-136.53"/>
<polygon fill="#63b8ff" stroke="#63b8ff" points="647.69,-114.2 656.01,-107.64 645.42,-107.57 647.69,-114.2"/>
</a>
</g>
</g>
<!-- Node15 -->
<g id="Node000015" class="node">
<title>Node15</title>
<g id="a_Node000015"><a xlink:href="namespaceCore.html#a23e6f3d22fc51ef9decabb2c220b27c4" target="_top" xlink:title=" ">
<polygon fill="white" stroke="#666666" points="587.5,-75.75 466.5,-75.75 466.5,-57.25 587.5,-57.25 587.5,-75.75"/>
<text xml:space="preserve" text-anchor="middle" x="527" y="-62.25" font-family="Helvetica,sans-Serif" font-size="10.00">Core::exporter_filename</text>
</a>
</g>
</g>
<!-- Node14&#45;&gt;Node15 -->
<g id="edge16_Node000014_Node000015" class="edge">
<title>Node14&#45;&gt;Node15</title>
<g id="a_edge16_Node000014_Node000015"><a xlink:title=" ">
<path fill="none" stroke="#63b8ff" d="M650.61,-84.89C632.21,-80.3 609.13,-75.48 587.98,-71.72"/>
<polygon fill="#63b8ff" stroke="#63b8ff" points="649.66,-88.26 660.22,-87.4 651.43,-81.49 649.66,-88.26"/>
</a>
</g>
</g>
<!-- Node16 -->
<g id="Node000016" class="node">
<title>Node16</title>
<g id="a_Node000016"><a xlink:href="namespaceCore.html#a877563df5a407318a381e12311022377" target="_top" xlink:title=" ">
<polygon fill="white" stroke="#666666" points="557.5,-112.75 496.5,-112.75 496.5,-94.25 557.5,-94.25 557.5,-112.75"/>
<text xml:space="preserve" text-anchor="middle" x="527" y="-99.25" font-family="Helvetica,sans-Serif" font-size="10.00">Core::load</text>
</a>
</g>
</g>
<!-- Node14&#45;&gt;Node16 -->
<g id="edge18_Node000014_Node000016" class="edge">
<title>Node14&#45;&gt;Node16</title>
<g id="a_edge18_Node000014_Node000016"><a xlink:title=" ">
<path fill="none" stroke="#63b8ff" d="M643.42,-99.11C616.43,-100.13 582.07,-101.44 557.89,-102.36"/>
<polygon fill="#63b8ff" stroke="#63b8ff" points="643.49,-102.61 653.35,-98.73 643.22,-95.61 643.49,-102.61"/>
</a>
</g>
</g>
<!-- Node15&#45;&gt;Node14 -->
<g id="edge17_Node000015_Node000014" class="edge">
<title>Node15&#45;&gt;Node14</title>
<g id="a_edge17_Node000015_Node000014"><a xlink:title=" ">
<path fill="none" stroke="#63b8ff" d="M563.08,-79.13C590.6,-85.98 628.52,-93.36 654.86,-96.93"/>
<polygon fill="#63b8ff" stroke="#63b8ff" points="564.02,-75.75 553.46,-76.61 562.25,-82.53 564.02,-75.75"/>
</a>
</g>
</g>
<!-- Node17 -->
<g id="Node000017" class="node">
<title>Node17</title>
<g id="a_Node000017"><a xlink:href="structApi_1_1SimulationInstance.html#ad2abfa76ac4128d44b7c0c895f78b77b" target="_top" xlink:title="Load ad apply the simulation configuration and prepare for execution based on file.">
<polygon fill="white" stroke="#666666" points="430.5,-108 311,-108 311,-79 430.5,-79 430.5,-108"/>
<text xml:space="preserve" text-anchor="start" x="319" y="-94.5" font-family="Helvetica,sans-Serif" font-size="10.00">Api::SimulationInstance</text>
<text xml:space="preserve" text-anchor="middle" x="370.75" y="-84" font-family="Helvetica,sans-Serif" font-size="10.00">::apply_load</text>
</a>
</g>
</g>
<!-- Node16&#45;&gt;Node17 -->
<g id="edge19_Node000016_Node000017" class="edge">
<title>Node16&#45;&gt;Node17</title>
<g id="a_edge19_Node000016_Node000017"><a xlink:title=" ">
<path fill="none" stroke="#63b8ff" d="M485.24,-100.86C468.57,-99.78 448.97,-98.51 430.78,-97.33"/>
<polygon fill="#63b8ff" stroke="#63b8ff" points="484.54,-104.32 494.75,-101.47 485,-97.33 484.54,-104.32"/>
</a>
</g>
</g>
<!-- Node17&#45;&gt;Node10 -->
<g id="edge23_Node000017_Node000010" class="edge">
<title>Node17&#45;&gt;Node10</title>
<g id="a_edge23_Node000017_Node000010"><a xlink:title=" ">
<path fill="none" stroke="#63b8ff" d="M307.11,-76.08C296.47,-73.76 285.48,-71.75 275,-70.5 222.26,-64.19 208.24,-64.19 155.5,-70.5 141.38,-72.19 126.33,-75.25 112.47,-78.59"/>
<polygon fill="#63b8ff" stroke="#63b8ff" points="306.02,-79.42 316.55,-78.25 307.59,-72.6 306.02,-79.42"/>
</a>
</g>
</g>
<!-- Node18 -->
<g id="Node000018" class="node">
<title>Node18</title>
<g id="a_Node000018"><a xlink:href="structApi_1_1SimulationInstance.html#a3398ddd22faa3ceb16b454c51faeced0" target="_top" xlink:title="Apply the simulation configuration and prepare for execution.">
<polygon fill="white" stroke="#666666" points="275,-108 155.5,-108 155.5,-79 275,-79 275,-108"/>
<text xml:space="preserve" text-anchor="start" x="163.5" y="-94.5" font-family="Helvetica,sans-Serif" font-size="10.00">Api::SimulationInstance</text>
<text xml:space="preserve" text-anchor="middle" x="215.25" y="-84" font-family="Helvetica,sans-Serif" font-size="10.00">::apply</text>
</a>
</g>
</g>
<!-- Node17&#45;&gt;Node18 -->
<g id="edge20_Node000017_Node000018" class="edge">
<title>Node17&#45;&gt;Node18</title>
<g id="a_edge20_Node000017_Node000018"><a xlink:title=" ">
<path fill="none" stroke="#63b8ff" d="M299.49,-93.5C291.39,-93.5 283.19,-93.5 275.25,-93.5"/>
<polygon fill="#63b8ff" stroke="#63b8ff" points="299.33,-97 309.33,-93.5 299.33,-90 299.33,-97"/>
</a>
</g>
</g>
<!-- Node18&#45;&gt;Node10 -->
<g id="edge22_Node000018_Node000010" class="edge">
<title>Node18&#45;&gt;Node10</title>
<g id="a_edge22_Node000018_Node000010"><a xlink:title=" ">
<path fill="none" stroke="#63b8ff" d="M143.99,-93.5C135.89,-93.5 127.69,-93.5 119.75,-93.5"/>
<polygon fill="#63b8ff" stroke="#63b8ff" points="143.83,-97 153.83,-93.5 143.83,-90 143.83,-97"/>
</a>
</g>
</g>
<!-- Node18&#45;&gt;Node18 -->
<g id="edge21_Node000018_Node000018" class="edge">
<title>Node18&#45;&gt;Node18</title>
<g id="a_edge21_Node000018_Node000018"><a xlink:title=" ">
<path fill="none" stroke="#63b8ff" d="M241.64,-119.56C237.5,-123.41 228.7,-126 215.25,-126 190.65,-126 181.62,-117.32 188.15,-108.21"/>
<polygon fill="#63b8ff" stroke="#63b8ff" points="245.13,-119.92 242.26,-109.72 238.14,-119.48 245.13,-119.92"/>
</a>
</g>
</g>
<!-- Node19&#45;&gt;Node3 -->
<g id="edge25_Node000019_Node000003" class="edge">
<title>Node19&#45;&gt;Node3</title>
<g id="a_edge25_Node000019_Node000003"><a xlink:title=" ">
<path fill="none" stroke="#63b8ff" d="M1079.19,-242.37C1070.41,-242.48 1061.44,-242.6 1052.78,-242.72"/>
<polygon fill="#63b8ff" stroke="#63b8ff" points="1079.12,-245.87 1089.07,-242.24 1079.02,-238.87 1079.12,-245.87"/>
</a>
</g>
</g>
<!-- Node22 -->
<g id="Node000022" class="node">
<title>Node22</title>
<g id="a_Node000022"><a xlink:href="namespacePostProcessing.html#adae52b6b518e25be1c920f36f196ef65" target="_top" xlink:title=" ">
<polygon fill="white" stroke="#666666" points="1051,-35 934.5,-35 934.5,-6 1051,-6 1051,-35"/>
<text xml:space="preserve" text-anchor="start" x="942.5" y="-21.5" font-family="Helvetica,sans-Serif" font-size="10.00">PostProcessing::_save</text>
<text xml:space="preserve" text-anchor="middle" x="992.75" y="-11" font-family="Helvetica,sans-Serif" font-size="10.00">_probes</text>
</a>
</g>
</g>
<!-- Node21&#45;&gt;Node22 -->
<g id="edge28_Node000021_Node000022" class="edge">
<title>Node21&#45;&gt;Node22</title>
<g id="a_edge28_Node000021_Node000022"><a xlink:title=" ">
<path fill="none" stroke="#63b8ff" d="M1079.65,-17.08C1070.22,-17.46 1060.56,-17.84 1051.29,-18.21"/>
<polygon fill="#63b8ff" stroke="#63b8ff" points="1079.64,-20.59 1089.49,-16.69 1079.36,-13.59 1079.64,-20.59"/>
</a>
</g>
</g>
<!-- Node23 -->
<g id="Node000023" class="node">
<title>Node23</title>
<g id="a_Node000023"><a xlink:href="namespacePostProcessing.html#abfe2a5894fae7c5534274da5d6d33e83" target="_top" xlink:title=" ">
<polygon fill="white" stroke="#666666" points="897,-58 785.75,-58 785.75,-29 897,-29 897,-58"/>
<text xml:space="preserve" text-anchor="start" x="793.75" y="-44.5" font-family="Helvetica,sans-Serif" font-size="10.00">PostProcessing::save</text>
<text xml:space="preserve" text-anchor="middle" x="841.38" y="-34" font-family="Helvetica,sans-Serif" font-size="10.00">_probes</text>
</a>
</g>
</g>
<!-- Node22&#45;&gt;Node23 -->
<g id="edge29_Node000022_Node000023" class="edge">
<title>Node22&#45;&gt;Node23</title>
<g id="a_edge29_Node000022_Node000023"><a xlink:title=" ">
<path fill="none" stroke="#63b8ff" d="M923.15,-31.06C914.5,-32.39 905.74,-33.74 897.33,-35.04"/>
<polygon fill="#63b8ff" stroke="#63b8ff" points="923.58,-34.54 932.93,-29.56 922.51,-27.62 923.58,-34.54"/>
</a>
</g>
</g>
<!-- Node23&#45;&gt;Node14 -->
<g id="edge30_Node000023_Node000014" class="edge">
<title>Node23&#45;&gt;Node14</title>
<g id="a_edge30_Node000023_Node000014"><a xlink:title=" ">
<path fill="none" stroke="#63b8ff" d="M787.68,-62.13C763.29,-70.75 735.34,-80.63 715.18,-87.76"/>
<polygon fill="#63b8ff" stroke="#63b8ff" points="788.54,-65.54 796.8,-58.9 786.21,-58.94 788.54,-65.54"/>
</a>
</g>
</g>
<!-- Node24 -->
<g id="Node000024" class="node">
<title>Node24</title>
<g id="a_Node000024"><a xlink:href="classExportHandler.html#a45d2f59eda0b665fe42c157adc4ee585" target="_top" xlink:title="Handles periodic export of simulation data.">
<polygon fill="white" stroke="#666666" points="749.75,-52.75 623.5,-52.75 623.5,-34.25 749.75,-34.25 749.75,-52.75"/>
<text xml:space="preserve" text-anchor="middle" x="686.62" y="-39.25" font-family="Helvetica,sans-Serif" font-size="10.00">ExportHandler::operator()</text>
</a>
</g>
</g>
<!-- Node23&#45;&gt;Node24 -->
<g id="edge31_Node000023_Node000024" class="edge">
<title>Node23&#45;&gt;Node24</title>
<g id="a_edge31_Node000023_Node000024"><a xlink:title=" ">
<path fill="none" stroke="#63b8ff" d="M774.37,-43.5C766.29,-43.5 758.04,-43.5 750.01,-43.5"/>
<polygon fill="#63b8ff" stroke="#63b8ff" points="774.15,-47 784.15,-43.5 774.15,-40 774.15,-47"/>
</a>
</g>
</g>
</g>
</svg>
