<?xml version="1.0" encoding="UTF-8" standalone="no"?>
<!DOCTYPE svg PUBLIC "-//W3C//DTD SVG 1.1//EN"
 "http://www.w3.org/Graphics/SVG/1.1/DTD/svg11.dtd">
<!-- Generated by graphviz version 14.0.1 (0)
 -->
<!-- Title: MC::sample_random_variables Pages: 1 -->
<svg width="316pt" height="101pt"
 viewBox="0.00 0.00 316.00 101.00" xmlns="http://www.w3.org/2000/svg" xmlns:xlink="http://www.w3.org/1999/xlink">
<g id="graph0" class="graph" transform="scale(1 1) rotate(0) translate(4 96.5)">
<title>MC::sample_random_variables</title>
<!-- Node1 -->
<g id="Node000001" class="node">
<title>Node1</title>
<g id="a_Node000001"><a xlink:title="Sample variable with RAI mecanism.">
<polygon fill="#999999" stroke="#666666" points="308,-55.5 157.75,-55.5 157.75,-37 308,-37 308,-55.5"/>
<text xml:space="preserve" text-anchor="middle" x="232.88" y="-42" font-family="Helvetica,sans-Serif" font-size="10.00">MC::sample_random_variables</text>
</a>
</g>
</g>
<!-- Node2 -->
<g id="Node000002" class="node">
<title>Node2</title>
<g id="a_Node000002"><a xlink:href="structModels_1_1Monod.html#a60e92ae2538c364505f78ecf3d83886c" target="_top" xlink:title=" ">
<polygon fill="white" stroke="#666666" points="111.62,-92.5 10.12,-92.5 10.12,-74 111.62,-74 111.62,-92.5"/>
<text xml:space="preserve" text-anchor="middle" x="60.88" y="-79" font-family="Helvetica,sans-Serif" font-size="10.00">Models::Monod::init</text>
</a>
</g>
</g>
<!-- Node1&#45;&gt;Node2 -->
<g id="edge1_Node000001_Node000002" class="edge">
<title>Node1&#45;&gt;Node2</title>
<g id="a_edge1_Node000001_Node000002"><a xlink:title=" ">
<path fill="none" stroke="#63b8ff" d="M176.08,-58.39C153.52,-63.3 127.83,-68.9 106.54,-73.53"/>
<polygon fill="#63b8ff" stroke="#63b8ff" points="176.7,-61.84 185.73,-56.29 175.21,-55 176.7,-61.84"/>
</a>
</g>
</g>
<!-- Node3 -->
<g id="Node000003" class="node">
<title>Node3</title>
<g id="a_Node000003"><a xlink:href="classMC_1_1KPRNG.html#a4e5a211c8da3d21fd4f1940e154d9acb" target="_top" xlink:title=" ">
<polygon fill="white" stroke="#666666" points="116.5,-55.5 5.25,-55.5 5.25,-37 116.5,-37 116.5,-55.5"/>
<text xml:space="preserve" text-anchor="middle" x="60.88" y="-42" font-family="Helvetica,sans-Serif" font-size="10.00">MC::KPRNG::uniform</text>
</a>
</g>
</g>
<!-- Node1&#45;&gt;Node3 -->
<g id="edge2_Node000001_Node000003" class="edge">
<title>Node1&#45;&gt;Node3</title>
<g id="a_edge2_Node000001_Node000003"><a xlink:title=" ">
<path fill="none" stroke="#63b8ff" d="M145.81,-46.25C136,-46.25 126.21,-46.25 116.96,-46.25"/>
<polygon fill="#63b8ff" stroke="#63b8ff" points="145.8,-49.75 155.8,-46.25 145.8,-42.75 145.8,-49.75"/>
</a>
</g>
</g>
<!-- Node4 -->
<g id="Node000004" class="node">
<title>Node4</title>
<g id="a_Node000004"><a xlink:href="classMC_1_1KPRNG.html#a067a194948465c4a636c41ebe13d313d" target="_top" xlink:title=" ">
<polygon fill="white" stroke="#666666" points="121.75,-18.5 0,-18.5 0,0 121.75,0 121.75,-18.5"/>
<text xml:space="preserve" text-anchor="middle" x="60.88" y="-5" font-family="Helvetica,sans-Serif" font-size="10.00">MC::KPRNG::uniform_u</text>
</a>
</g>
</g>
<!-- Node1&#45;&gt;Node4 -->
<g id="edge3_Node000001_Node000004" class="edge">
<title>Node1&#45;&gt;Node4</title>
<g id="a_edge3_Node000001_Node000004"><a xlink:title=" ">
<path fill="none" stroke="#63b8ff" d="M176.08,-34.11C153.52,-29.2 127.83,-23.6 106.54,-18.97"/>
<polygon fill="#63b8ff" stroke="#63b8ff" points="175.21,-37.5 185.73,-36.21 176.7,-30.66 175.21,-37.5"/>
</a>
</g>
</g>
</g>
</svg>
