<?xml version="1.0" encoding="UTF-8" standalone="no"?>
<!DOCTYPE svg PUBLIC "-//W3C//DTD SVG 1.1//EN"
 "http://www.w3.org/Graphics/SVG/1.1/DTD/svg11.dtd">
<!-- Generated by graphviz version 14.0.1 (0)
 -->
<!-- Title: Common::read_env Pages: 1 -->
<svg width="737pt" height="118pt"
 viewBox="0.00 0.00 737.00 118.00" xmlns="http://www.w3.org/2000/svg" xmlns:xlink="http://www.w3.org/1999/xlink">
<g id="graph0" class="graph" transform="scale(1 1) rotate(0) translate(4 113.75)">
<title>Common::read_env</title>
<!-- Node1 -->
<g id="Node000001" class="node">
<title>Node1</title>
<g id="a_Node000001"><a xlink:title="Wrapper arround get_env to get optional envariable.">
<polygon fill="#999999" stroke="#666666" points="728.75,-72.75 627.25,-72.75 627.25,-54.25 728.75,-54.25 728.75,-72.75"/>
<text xml:space="preserve" text-anchor="middle" x="678" y="-59.25" font-family="Helvetica,sans-Serif" font-size="10.00">Common::read_env</text>
</a>
</g>
</g>
<!-- Node2 -->
<g id="Node000002" class="node">
<title>Node2</title>
<g id="a_Node000002"><a xlink:href="namespaceCommon.html#a7ca16dc3314f89cd1860091731cd7014" target="_top" xlink:title="Wrapper arround get_env to get envariable with fallback to default.">
<polygon fill="white" stroke="#666666" points="591.25,-72.75 476.25,-72.75 476.25,-54.25 591.25,-54.25 591.25,-72.75"/>
<text xml:space="preserve" text-anchor="middle" x="533.75" y="-59.25" font-family="Helvetica,sans-Serif" font-size="10.00">Common::read_env_or</text>
</a>
</g>
</g>
<!-- Node1&#45;&gt;Node2 -->
<g id="edge1_Node000001_Node000002" class="edge">
<title>Node1&#45;&gt;Node2</title>
<g id="a_edge1_Node000001_Node000002"><a xlink:title=" ">
<path fill="none" stroke="#63b8ff" d="M615.46,-63.5C607.58,-63.5 599.54,-63.5 591.73,-63.5"/>
<polygon fill="#63b8ff" stroke="#63b8ff" points="615.33,-67 625.33,-63.5 615.33,-60 615.33,-67"/>
</a>
</g>
</g>
<!-- Node3 -->
<g id="Node000003" class="node">
<title>Node3</title>
<g id="a_Node000003"><a xlink:href="namespaceCommon.html#ad9c9fe6434c0c09218a2e33e17beee28" target="_top" xlink:title=" ">
<polygon fill="white" stroke="#666666" points="440.25,-109.75 307.25,-109.75 307.25,-91.25 440.25,-91.25 440.25,-109.75"/>
<text xml:space="preserve" text-anchor="middle" x="373.75" y="-96.25" font-family="Helvetica,sans-Serif" font-size="10.00">Common::get_policy_team</text>
</a>
</g>
</g>
<!-- Node2&#45;&gt;Node3 -->
<g id="edge2_Node000002_Node000003" class="edge">
<title>Node2&#45;&gt;Node3</title>
<g id="a_edge2_Node000002_Node000003"><a xlink:title=" ">
<path fill="none" stroke="#63b8ff" d="M480.03,-75.85C459.27,-80.71 435.78,-86.21 416.26,-90.78"/>
<polygon fill="#63b8ff" stroke="#63b8ff" points="480.83,-79.25 489.76,-73.57 479.23,-72.44 480.83,-79.25"/>
</a>
</g>
</g>
<!-- Node4 -->
<g id="Node000004" class="node">
<title>Node4</title>
<g id="a_Node000004"><a xlink:href="namespaceMC.html#a607ded472d094b72eaa4e7d0cc01bce0" target="_top" xlink:title=" ">
<polygon fill="white" stroke="#666666" points="432.38,-72.75 315.12,-72.75 315.12,-54.25 432.38,-54.25 432.38,-72.75"/>
<text xml:space="preserve" text-anchor="middle" x="373.75" y="-59.25" font-family="Helvetica,sans-Serif" font-size="10.00">MC::get_valid_value_or</text>
</a>
</g>
</g>
<!-- Node2&#45;&gt;Node4 -->
<g id="edge3_Node000002_Node000004" class="edge">
<title>Node2&#45;&gt;Node4</title>
<g id="a_edge3_Node000002_Node000004"><a xlink:title=" ">
<path fill="none" stroke="#63b8ff" d="M464.75,-63.5C454.11,-63.5 443.2,-63.5 432.81,-63.5"/>
<polygon fill="#63b8ff" stroke="#63b8ff" points="464.64,-67 474.64,-63.5 464.64,-60 464.64,-67"/>
</a>
</g>
</g>
<!-- Node5 -->
<g id="Node000005" class="node">
<title>Node5</title>
<g id="a_Node000005"><a xlink:href="namespaceMC.html#a67a8a8fb99f617a67dd3702cd0f0b47f" target="_top" xlink:title=" ">
<polygon fill="white" stroke="#666666" points="271.25,-53.75 141.25,-53.75 141.25,-35.25 271.25,-35.25 271.25,-53.75"/>
<text xml:space="preserve" text-anchor="middle" x="206.25" y="-40.25" font-family="Helvetica,sans-Serif" font-size="10.00">MC::load_tuning_constant</text>
</a>
</g>
</g>
<!-- Node2&#45;&gt;Node5 -->
<g id="edge8_Node000002_Node000005" class="edge">
<title>Node2&#45;&gt;Node5</title>
<g id="a_edge8_Node000002_Node000005"><a xlink:title=" ">
<path fill="none" stroke="#63b8ff" d="M480.39,-51.54C467.34,-49.05 453.35,-46.79 440.25,-45.5 383.49,-39.91 318.57,-40.17 271.7,-41.54"/>
<polygon fill="#63b8ff" stroke="#63b8ff" points="479.58,-54.94 490.07,-53.47 480.95,-48.08 479.58,-54.94"/>
</a>
</g>
</g>
<!-- Node4&#45;&gt;Node5 -->
<g id="edge4_Node000004_Node000005" class="edge">
<title>Node4&#45;&gt;Node5</title>
<g id="a_edge4_Node000004_Node000005"><a xlink:title=" ">
<path fill="none" stroke="#63b8ff" d="M303.54,-55.55C292.96,-54.34 282.07,-53.09 271.6,-51.89"/>
<polygon fill="#63b8ff" stroke="#63b8ff" points="303.03,-59.02 313.36,-56.68 303.83,-52.06 303.03,-59.02"/>
</a>
</g>
</g>
<!-- Node6 -->
<g id="Node000006" class="node">
<title>Node6</title>
<g id="a_Node000006"><a xlink:href="namespaceMC.html#a321fdcab9f09e8611b6f76b834d4ba4b" target="_top" xlink:title="Helper function to initialize a MonteCarloUnit.">
<polygon fill="white" stroke="#666666" points="77.88,-83.75 27.38,-83.75 27.38,-65.25 77.88,-65.25 77.88,-83.75"/>
<text xml:space="preserve" text-anchor="middle" x="52.62" y="-70.25" font-family="Helvetica,sans-Serif" font-size="10.00">MC::init</text>
</a>
</g>
</g>
<!-- Node5&#45;&gt;Node6 -->
<g id="edge5_Node000005_Node000006" class="edge">
<title>Node5&#45;&gt;Node6</title>
<g id="a_edge5_Node000005_Node000006"><a xlink:title=" ">
<path fill="none" stroke="#63b8ff" d="M144.76,-56.47C121.4,-61.09 96.02,-66.11 77.99,-69.68"/>
<polygon fill="#63b8ff" stroke="#63b8ff" points="145.41,-59.91 154.54,-54.53 144.05,-53.04 145.41,-59.91"/>
</a>
</g>
</g>
<!-- Node7 -->
<g id="Node000007" class="node">
<title>Node7</title>
<g id="a_Node000007"><a xlink:href="structMC_1_1MonteCarloUnit.html#a98a680cfc3356b197d4cd8fd453e0a17" target="_top" xlink:title=" ">
<polygon fill="white" stroke="#666666" points="105.25,-29 0,-29 0,0 105.25,0 105.25,-29"/>
<text xml:space="preserve" text-anchor="start" x="8" y="-15.5" font-family="Helvetica,sans-Serif" font-size="10.00">MC::MonteCarloUnit</text>
<text xml:space="preserve" text-anchor="middle" x="52.62" y="-5" font-family="Helvetica,sans-Serif" font-size="10.00">::serialize</text>
</a>
</g>
</g>
<!-- Node5&#45;&gt;Node7 -->
<g id="edge6_Node000005_Node000007" class="edge">
<title>Node5&#45;&gt;Node7</title>
<g id="a_edge6_Node000005_Node000007"><a xlink:title=" ">
<path fill="none" stroke="#63b8ff" d="M144.85,-32.55C131.91,-29.99 118.34,-27.3 105.74,-24.81"/>
<polygon fill="#63b8ff" stroke="#63b8ff" points="144.05,-35.96 154.54,-34.47 145.41,-29.09 144.05,-35.96"/>
</a>
</g>
</g>
<!-- Node7&#45;&gt;Node7 -->
<g id="edge7_Node000007_Node000007" class="edge">
<title>Node7&#45;&gt;Node7</title>
<g id="a_edge7_Node000007_Node000007"><a xlink:title=" ">
<path fill="none" stroke="#63b8ff" d="M78.7,-40.56C74.61,-44.41 65.92,-47 52.62,-47 28.32,-47 19.4,-38.32 25.85,-29.21"/>
<polygon fill="#63b8ff" stroke="#63b8ff" points="82.18,-40.91 79.3,-30.72 75.2,-40.48 82.18,-40.91"/>
</a>
</g>
</g>
</g>
</svg>
