<?xml version="1.0" encoding="UTF-8" standalone="no"?>
<!DOCTYPE svg PUBLIC "-//W3C//DTD SVG 1.1//EN"
 "http://www.w3.org/Graphics/SVG/1.1/DTD/svg11.dtd">
<!-- Generated by graphviz version 14.0.1 (0)
 -->
<!-- Title: PythonBindings::init_handle Pages: 1 -->
<svg width="422pt" height="55pt"
 viewBox="0.00 0.00 422.00 55.00" xmlns="http://www.w3.org/2000/svg" xmlns:xlink="http://www.w3.org/1999/xlink">
<g id="graph0" class="graph" transform="scale(1 1) rotate(0) translate(4 51)">
<title>PythonBindings::init_handle</title>
<!-- Node1 -->
<g id="Node000001" class="node">
<title>Node1</title>
<g id="a_Node000001"><a xlink:title=" ">
<polygon fill="#999999" stroke="#666666" points="103,-29 0,-29 0,0 103,0 103,-29"/>
<text xml:space="preserve" text-anchor="start" x="8" y="-15.5" font-family="Helvetica,sans-Serif" font-size="10.00">PythonBindings::init</text>
<text xml:space="preserve" text-anchor="middle" x="51.5" y="-5" font-family="Helvetica,sans-Serif" font-size="10.00">_handle</text>
</a>
</g>
</g>
<!-- Node2 -->
<g id="Node000002" class="node">
<title>Node2</title>
<g id="a_Node000002"><a xlink:href="structApi_1_1SimulationInstance.html#abdcc3b78881f75bd8fa06815ea08bd08" target="_top" xlink:title="Initialize a simulation instance.">
<polygon fill="white" stroke="#666666" points="258.5,-29 139,-29 139,0 258.5,0 258.5,-29"/>
<text xml:space="preserve" text-anchor="start" x="147" y="-15.5" font-family="Helvetica,sans-Serif" font-size="10.00">Api::SimulationInstance</text>
<text xml:space="preserve" text-anchor="middle" x="198.75" y="-5" font-family="Helvetica,sans-Serif" font-size="10.00">::init</text>
</a>
</g>
</g>
<!-- Node1&#45;&gt;Node2 -->
<g id="edge1_Node000001_Node000002" class="edge">
<title>Node1&#45;&gt;Node2</title>
<g id="a_edge1_Node000001_Node000002"><a xlink:title=" ">
<path fill="none" stroke="#63b8ff" d="M103.3,-14.5C111.03,-14.5 119.12,-14.5 127.18,-14.5"/>
<polygon fill="#63b8ff" stroke="#63b8ff" points="127,-18 137,-14.5 127,-11 127,-18"/>
</a>
</g>
</g>
<!-- Node3 -->
<g id="Node000003" class="node">
<title>Node3</title>
<g id="a_Node000003"><a xlink:href="structApi_1_1SimulationInstance.html#a7a849ee5dd1d0d13a198aecee702944c" target="_top" xlink:title="Deleted copy constructor to prevent copying.">
<polygon fill="white" stroke="#666666" points="414,-29 294.5,-29 294.5,0 414,0 414,-29"/>
<text xml:space="preserve" text-anchor="start" x="302.5" y="-15.5" font-family="Helvetica,sans-Serif" font-size="10.00">Api::SimulationInstance</text>
<text xml:space="preserve" text-anchor="middle" x="354.25" y="-5" font-family="Helvetica,sans-Serif" font-size="10.00">::SimulationInstance</text>
</a>
</g>
</g>
<!-- Node2&#45;&gt;Node3 -->
<g id="edge2_Node000002_Node000003" class="edge">
<title>Node2&#45;&gt;Node3</title>
<g id="a_edge2_Node000002_Node000003"><a xlink:title=" ">
<path fill="none" stroke="#63b8ff" d="M258.66,-14.5C266.59,-14.5 274.79,-14.5 282.89,-14.5"/>
<polygon fill="#63b8ff" stroke="#63b8ff" points="282.73,-18 292.73,-14.5 282.73,-11 282.73,-18"/>
</a>
</g>
</g>
<!-- Node3&#45;&gt;Node3 -->
<g id="edge3_Node000003_Node000003" class="edge">
<title>Node3&#45;&gt;Node3</title>
<g id="a_edge3_Node000003_Node000003"><a xlink:title=" ">
<path fill="none" stroke="#63b8ff" d="M327.15,-29.21C320.62,-38.32 329.65,-47 354.25,-47 367.7,-47 376.5,-44.41 380.64,-40.56"/>
<polygon fill="#63b8ff" stroke="#63b8ff" points="384.13,-40.92 381.26,-30.72 377.14,-40.48 384.13,-40.92"/>
</a>
</g>
</g>
</g>
</svg>
