<?xml version="1.0" encoding="UTF-8" standalone="no"?>
<!DOCTYPE svg PUBLIC "-//W3C//DTD SVG 1.1//EN"
 "http://www.w3.org/Graphics/SVG/1.1/DTD/svg11.dtd">
<!-- Generated by graphviz version 14.0.1 (0)
 -->
<!-- Title: Common::read_env_or Pages: 1 -->
<svg width="599pt" height="154pt"
 viewBox="0.00 0.00 599.00 154.00" xmlns="http://www.w3.org/2000/svg" xmlns:xlink="http://www.w3.org/1999/xlink">
<g id="graph0" class="graph" transform="scale(1 1) rotate(0) translate(4 149.75)">
<title>Common::read_env_or</title>
<!-- Node1 -->
<g id="Node000001" class="node">
<title>Node1</title>
<g id="a_Node000001"><a xlink:title="Wrapper arround get_env to get envariable with fallback to default.">
<polygon fill="#999999" stroke="#666666" points="591.25,-89.75 476.25,-89.75 476.25,-71.25 591.25,-71.25 591.25,-89.75"/>
<text xml:space="preserve" text-anchor="middle" x="533.75" y="-76.25" font-family="Helvetica,sans-Serif" font-size="10.00">Common::read_env_or</text>
</a>
</g>
</g>
<!-- Node2 -->
<g id="Node000002" class="node">
<title>Node2</title>
<g id="a_Node000002"><a xlink:href="namespaceCommon.html#ad3d68e79e4dbd7836f3090e662e01dba" target="_top" xlink:title=" ">
<polygon fill="white" stroke="#666666" points="426.75,-145.75 320.75,-145.75 320.75,-127.25 426.75,-127.25 426.75,-145.75"/>
<text xml:space="preserve" text-anchor="middle" x="373.75" y="-132.25" font-family="Helvetica,sans-Serif" font-size="10.00">Common::get_policy</text>
</a>
</g>
</g>
<!-- Node1&#45;&gt;Node2 -->
<g id="edge1_Node000001_Node000002" class="edge">
<title>Node1&#45;&gt;Node2</title>
<g id="a_edge1_Node000001_Node000002"><a xlink:title=" ">
<path fill="none" stroke="#63b8ff" d="M500.25,-94.41C482.65,-101.71 460.43,-110.56 440.25,-117.5 430.73,-120.77 420.32,-123.97 410.64,-126.78"/>
<polygon fill="#63b8ff" stroke="#63b8ff" points="501.28,-97.77 509.16,-90.68 498.58,-91.31 501.28,-97.77"/>
</a>
</g>
</g>
<!-- Node4 -->
<g id="Node000004" class="node">
<title>Node4</title>
<g id="a_Node000004"><a xlink:href="namespaceCommon.html#ad9c9fe6434c0c09218a2e33e17beee28" target="_top" xlink:title=" ">
<polygon fill="white" stroke="#666666" points="440.25,-108.75 307.25,-108.75 307.25,-90.25 440.25,-90.25 440.25,-108.75"/>
<text xml:space="preserve" text-anchor="middle" x="373.75" y="-95.25" font-family="Helvetica,sans-Serif" font-size="10.00">Common::get_policy_team</text>
</a>
</g>
</g>
<!-- Node1&#45;&gt;Node4 -->
<g id="edge3_Node000001_Node000004" class="edge">
<title>Node1&#45;&gt;Node4</title>
<g id="a_edge3_Node000001_Node000004"><a xlink:title=" ">
<path fill="none" stroke="#63b8ff" d="M464.92,-88.66C456.87,-89.63 448.66,-90.61 440.64,-91.58"/>
<polygon fill="#63b8ff" stroke="#63b8ff" points="465.14,-92.16 474.65,-87.49 464.31,-85.21 465.14,-92.16"/>
</a>
</g>
</g>
<!-- Node5 -->
<g id="Node000005" class="node">
<title>Node5</title>
<g id="a_Node000005"><a xlink:href="namespaceMC.html#a607ded472d094b72eaa4e7d0cc01bce0" target="_top" xlink:title=" ">
<polygon fill="white" stroke="#666666" points="432.38,-71.75 315.12,-71.75 315.12,-53.25 432.38,-53.25 432.38,-71.75"/>
<text xml:space="preserve" text-anchor="middle" x="373.75" y="-58.25" font-family="Helvetica,sans-Serif" font-size="10.00">MC::get_valid_value_or</text>
</a>
</g>
</g>
<!-- Node1&#45;&gt;Node5 -->
<g id="edge4_Node000001_Node000005" class="edge">
<title>Node1&#45;&gt;Node5</title>
<g id="a_edge4_Node000001_Node000005"><a xlink:title=" ">
<path fill="none" stroke="#63b8ff" d="M464.75,-72.75C454.11,-71.54 443.2,-70.3 432.81,-69.11"/>
<polygon fill="#63b8ff" stroke="#63b8ff" points="464.32,-76.23 474.65,-73.88 465.11,-69.27 464.32,-76.23"/>
</a>
</g>
</g>
<!-- Node6 -->
<g id="Node000006" class="node">
<title>Node6</title>
<g id="a_Node000006"><a xlink:href="namespaceMC.html#a67a8a8fb99f617a67dd3702cd0f0b47f" target="_top" xlink:title=" ">
<polygon fill="white" stroke="#666666" points="271.25,-53.75 141.25,-53.75 141.25,-35.25 271.25,-35.25 271.25,-53.75"/>
<text xml:space="preserve" text-anchor="middle" x="206.25" y="-40.25" font-family="Helvetica,sans-Serif" font-size="10.00">MC::load_tuning_constant</text>
</a>
</g>
</g>
<!-- Node1&#45;&gt;Node6 -->
<g id="edge9_Node000001_Node000006" class="edge">
<title>Node1&#45;&gt;Node6</title>
<g id="a_edge9_Node000001_Node000006"><a xlink:title=" ">
<path fill="none" stroke="#63b8ff" d="M503.59,-65.93C485.78,-57.85 462.27,-48.63 440.25,-44.5 383.99,-33.94 318.74,-35.05 271.63,-38.16"/>
<polygon fill="#63b8ff" stroke="#63b8ff" points="501.97,-69.03 512.51,-70.11 504.94,-62.7 501.97,-69.03"/>
</a>
</g>
</g>
<!-- Node3 -->
<g id="Node000003" class="node">
<title>Node3</title>
<g id="a_Node000003"><a xlink:href="namespaceCommon.html#a9322a1455f0f2a0626d66eae67412bda" target="_top" xlink:title=" ">
<polygon fill="white" stroke="#666666" points="259.25,-145.75 153.25,-145.75 153.25,-127.25 259.25,-127.25 259.25,-145.75"/>
<text xml:space="preserve" text-anchor="middle" x="206.25" y="-132.25" font-family="Helvetica,sans-Serif" font-size="10.00">Common::get_policy</text>
</a>
</g>
</g>
<!-- Node2&#45;&gt;Node3 -->
<g id="edge2_Node000002_Node000003" class="edge">
<title>Node2&#45;&gt;Node3</title>
<g id="a_edge2_Node000002_Node000003"><a xlink:title=" ">
<path fill="none" stroke="#63b8ff" d="M309.23,-136.5C292.81,-136.5 275.33,-136.5 259.56,-136.5"/>
<polygon fill="#63b8ff" stroke="#63b8ff" points="308.87,-140 318.87,-136.5 308.87,-133 308.87,-140"/>
</a>
</g>
</g>
<!-- Node5&#45;&gt;Node6 -->
<g id="edge5_Node000005_Node000006" class="edge">
<title>Node5&#45;&gt;Node6</title>
<g id="a_edge5_Node000005_Node000006"><a xlink:title=" ">
<path fill="none" stroke="#63b8ff" d="M303.54,-54.97C292.96,-53.82 282.07,-52.64 271.6,-51.5"/>
<polygon fill="#63b8ff" stroke="#63b8ff" points="303.04,-58.44 313.36,-56.04 303.8,-51.48 303.04,-58.44"/>
</a>
</g>
</g>
<!-- Node7 -->
<g id="Node000007" class="node">
<title>Node7</title>
<g id="a_Node000007"><a xlink:href="namespaceMC.html#a321fdcab9f09e8611b6f76b834d4ba4b" target="_top" xlink:title="Helper function to initialize a MonteCarloUnit.">
<polygon fill="white" stroke="#666666" points="77.88,-83.75 27.38,-83.75 27.38,-65.25 77.88,-65.25 77.88,-83.75"/>
<text xml:space="preserve" text-anchor="middle" x="52.62" y="-70.25" font-family="Helvetica,sans-Serif" font-size="10.00">MC::init</text>
</a>
</g>
</g>
<!-- Node6&#45;&gt;Node7 -->
<g id="edge6_Node000006_Node000007" class="edge">
<title>Node6&#45;&gt;Node7</title>
<g id="a_edge6_Node000006_Node000007"><a xlink:title=" ">
<path fill="none" stroke="#63b8ff" d="M144.76,-56.47C121.4,-61.09 96.02,-66.11 77.99,-69.68"/>
<polygon fill="#63b8ff" stroke="#63b8ff" points="145.41,-59.91 154.54,-54.53 144.05,-53.04 145.41,-59.91"/>
</a>
</g>
</g>
<!-- Node8 -->
<g id="Node000008" class="node">
<title>Node8</title>
<g id="a_Node000008"><a xlink:href="structMC_1_1MonteCarloUnit.html#a98a680cfc3356b197d4cd8fd453e0a17" target="_top" xlink:title=" ">
<polygon fill="white" stroke="#666666" points="105.25,-29 0,-29 0,0 105.25,0 105.25,-29"/>
<text xml:space="preserve" text-anchor="start" x="8" y="-15.5" font-family="Helvetica,sans-Serif" font-size="10.00">MC::MonteCarloUnit</text>
<text xml:space="preserve" text-anchor="middle" x="52.62" y="-5" font-family="Helvetica,sans-Serif" font-size="10.00">::serialize</text>
</a>
</g>
</g>
<!-- Node6&#45;&gt;Node8 -->
<g id="edge7_Node000006_Node000008" class="edge">
<title>Node6&#45;&gt;Node8</title>
<g id="a_edge7_Node000006_Node000008"><a xlink:title=" ">
<path fill="none" stroke="#63b8ff" d="M144.85,-32.55C131.91,-29.99 118.34,-27.3 105.74,-24.81"/>
<polygon fill="#63b8ff" stroke="#63b8ff" points="144.05,-35.96 154.54,-34.47 145.41,-29.09 144.05,-35.96"/>
</a>
</g>
</g>
<!-- Node8&#45;&gt;Node8 -->
<g id="edge8_Node000008_Node000008" class="edge">
<title>Node8&#45;&gt;Node8</title>
<g id="a_edge8_Node000008_Node000008"><a xlink:title=" ">
<path fill="none" stroke="#63b8ff" d="M78.7,-40.56C74.61,-44.41 65.92,-47 52.62,-47 28.32,-47 19.4,-38.32 25.85,-29.21"/>
<polygon fill="#63b8ff" stroke="#63b8ff" points="82.18,-40.91 79.3,-30.72 75.2,-40.48 82.18,-40.91"/>
</a>
</g>
</g>
</g>
</svg>
