<?xml version="1.0" encoding="UTF-8" standalone="no"?>
<!DOCTYPE svg PUBLIC "-//W3C//DTD SVG 1.1//EN"
 "http://www.w3.org/Graphics/SVG/1.1/DTD/svg11.dtd">
<!-- Generated by graphviz version 14.0.1 (0)
 -->
<!-- Title: MC::load_tuning_constant Pages: 1 -->
<svg width="580pt" height="46pt"
 viewBox="0.00 0.00 580.00 46.00" xmlns="http://www.w3.org/2000/svg" xmlns:xlink="http://www.w3.org/1999/xlink">
<g id="graph0" class="graph" transform="scale(1 1) rotate(0) translate(4 41.5)">
<title>MC::load_tuning_constant</title>
<!-- Node1 -->
<g id="Node000001" class="node">
<title>Node1</title>
<g id="a_Node000001"><a xlink:title=" ">
<polygon fill="#999999" stroke="#666666" points="130,-18.5 0,-18.5 0,0 130,0 130,-18.5"/>
<text xml:space="preserve" text-anchor="middle" x="65" y="-5" font-family="Helvetica,sans-Serif" font-size="10.00">MC::load_tuning_constant</text>
</a>
</g>
</g>
<!-- Node2 -->
<g id="Node000002" class="node">
<title>Node2</title>
<g id="a_Node000002"><a xlink:href="namespaceMC.html#a607ded472d094b72eaa4e7d0cc01bce0" target="_top" xlink:title=" ">
<polygon fill="white" stroke="#666666" points="283.25,-37.5 166,-37.5 166,-19 283.25,-19 283.25,-37.5"/>
<text xml:space="preserve" text-anchor="middle" x="224.62" y="-24" font-family="Helvetica,sans-Serif" font-size="10.00">MC::get_valid_value_or</text>
</a>
</g>
</g>
<!-- Node1&#45;&gt;Node2 -->
<g id="edge1_Node000001_Node000002" class="edge">
<title>Node1&#45;&gt;Node2</title>
<g id="a_edge1_Node000001_Node000002"><a xlink:title=" ">
<path fill="none" stroke="#63b8ff" d="M130.11,-16.98C138.11,-17.94 146.31,-18.93 154.38,-19.9"/>
<polygon fill="#63b8ff" stroke="#63b8ff" points="153.81,-23.36 164.16,-21.08 154.65,-16.41 153.81,-23.36"/>
</a>
</g>
</g>
<!-- Node3 -->
<g id="Node000003" class="node">
<title>Node3</title>
<g id="a_Node000003"><a xlink:href="namespaceCommon.html#a7ca16dc3314f89cd1860091731cd7014" target="_top" xlink:title="Wrapper arround get_env to get envariable with fallback to default.">
<polygon fill="white" stroke="#666666" points="434.25,-18.5 319.25,-18.5 319.25,0 434.25,0 434.25,-18.5"/>
<text xml:space="preserve" text-anchor="middle" x="376.75" y="-5" font-family="Helvetica,sans-Serif" font-size="10.00">Common::read_env_or</text>
</a>
</g>
</g>
<!-- Node1&#45;&gt;Node3 -->
<g id="edge4_Node000001_Node000003" class="edge">
<title>Node1&#45;&gt;Node3</title>
<g id="a_edge4_Node000001_Node000003"><a xlink:title=" ">
<path fill="none" stroke="#63b8ff" d="M130.18,-9.25C182.02,-9.25 254.79,-9.25 307.64,-9.25"/>
<polygon fill="#63b8ff" stroke="#63b8ff" points="307.43,-12.75 317.43,-9.25 307.43,-5.75 307.43,-12.75"/>
</a>
</g>
</g>
<!-- Node2&#45;&gt;Node3 -->
<g id="edge2_Node000002_Node000003" class="edge">
<title>Node2&#45;&gt;Node3</title>
<g id="a_edge2_Node000002_Node000003"><a xlink:title=" ">
<path fill="none" stroke="#63b8ff" d="M283.67,-20.9C291.52,-19.91 299.63,-18.88 307.64,-17.87"/>
<polygon fill="#63b8ff" stroke="#63b8ff" points="307.87,-21.37 317.35,-16.64 306.99,-14.42 307.87,-21.37"/>
</a>
</g>
</g>
<!-- Node4 -->
<g id="Node000004" class="node">
<title>Node4</title>
<g id="a_Node000004"><a xlink:href="namespaceCommon.html#a7e29bd7117dd8bfc651a1dc215923379" target="_top" xlink:title="Wrapper arround get_env to get optional envariable.">
<polygon fill="white" stroke="#666666" points="571.75,-18.5 470.25,-18.5 470.25,0 571.75,0 571.75,-18.5"/>
<text xml:space="preserve" text-anchor="middle" x="521" y="-5" font-family="Helvetica,sans-Serif" font-size="10.00">Common::read_env</text>
</a>
</g>
</g>
<!-- Node3&#45;&gt;Node4 -->
<g id="edge3_Node000003_Node000004" class="edge">
<title>Node3&#45;&gt;Node4</title>
<g id="a_edge3_Node000003_Node000004"><a xlink:title=" ">
<path fill="none" stroke="#63b8ff" d="M434.38,-9.25C442.38,-9.25 450.64,-9.25 458.73,-9.25"/>
<polygon fill="#63b8ff" stroke="#63b8ff" points="458.49,-12.75 468.49,-9.25 458.49,-5.75 458.49,-12.75"/>
</a>
</g>
</g>
</g>
</svg>
