<?xml version="1.0" encoding="UTF-8" standalone="no"?>
<!DOCTYPE svg PUBLIC "-//W3C//DTD SVG 1.1//EN"
 "http://www.w3.org/Graphics/SVG/1.1/DTD/svg11.dtd">
<!-- Generated by graphviz version 14.0.1 (0)
 -->
<!-- Title: Common::get_policy Pages: 1 -->
<svg width="299pt" height="74pt"
 viewBox="0.00 0.00 299.00 74.00" xmlns="http://www.w3.org/2000/svg" xmlns:xlink="http://www.w3.org/1999/xlink">
<g id="graph0" class="graph" transform="scale(1 1) rotate(0) translate(4 69.75)">
<title>Common::get_policy</title>
<!-- Node1 -->
<g id="Node000001" class="node">
<title>Node1</title>
<g id="a_Node000001"><a xlink:title=" ">
<polygon fill="#999999" stroke="#666666" points="290.75,-44.75 184.75,-44.75 184.75,-26.25 290.75,-26.25 290.75,-44.75"/>
<text xml:space="preserve" text-anchor="middle" x="237.75" y="-31.25" font-family="Helvetica,sans-Serif" font-size="10.00">Common::get_policy</text>
</a>
</g>
</g>
<!-- Node2 -->
<g id="Node000002" class="node">
<title>Node2</title>
<g id="a_Node000002"><a xlink:href="namespaceCommon.html#a9322a1455f0f2a0626d66eae67412bda" target="_top" xlink:title=" ">
<polygon fill="white" stroke="#666666" points="127.38,-65.75 21.38,-65.75 21.38,-47.25 127.38,-47.25 127.38,-65.75"/>
<text xml:space="preserve" text-anchor="middle" x="74.38" y="-52.25" font-family="Helvetica,sans-Serif" font-size="10.00">Common::get_policy</text>
</a>
</g>
</g>
<!-- Node1&#45;&gt;Node2 -->
<g id="edge1_Node000001_Node000002" class="edge">
<title>Node1&#45;&gt;Node2</title>
<g id="a_edge1_Node000001_Node000002"><a xlink:title=" ">
<path fill="none" stroke="#63b8ff" d="M173.07,-43.79C158.06,-45.74 142.23,-47.8 127.78,-49.68"/>
<polygon fill="#63b8ff" stroke="#63b8ff" points="173.39,-47.27 182.86,-42.51 172.49,-40.33 173.39,-47.27"/>
</a>
</g>
</g>
<!-- Node3 -->
<g id="Node000003" class="node">
<title>Node3</title>
<g id="a_Node000003"><a xlink:href="structSimulation_1_1KernelInline_1_1CycleFunctors.html#aa180fb540dd548aefdc0cead1e7c8205" target="_top" xlink:title=" ">
<polygon fill="white" stroke="#666666" points="148.75,-29 0,-29 0,0 148.75,0 148.75,-29"/>
<text xml:space="preserve" text-anchor="start" x="8" y="-15.5" font-family="Helvetica,sans-Serif" font-size="10.00">Simulation::KernelInline</text>
<text xml:space="preserve" text-anchor="middle" x="74.38" y="-5" font-family="Helvetica,sans-Serif" font-size="10.00">::CycleFunctors::launch_move</text>
</a>
</g>
</g>
<!-- Node1&#45;&gt;Node3 -->
<g id="edge2_Node000001_Node000003" class="edge">
<title>Node1&#45;&gt;Node3</title>
<g id="a_edge2_Node000001_Node000003"><a xlink:title=" ">
<path fill="none" stroke="#63b8ff" d="M173.07,-27.21C165.23,-26.19 157.17,-25.14 149.2,-24.11"/>
<polygon fill="#63b8ff" stroke="#63b8ff" points="172.49,-30.67 182.86,-28.49 173.39,-23.73 172.49,-30.67"/>
</a>
</g>
</g>
</g>
</svg>
