<?xml version="1.0" encoding="UTF-8" standalone="no"?>
<!DOCTYPE svg PUBLIC "-//W3C//DTD SVG 1.1//EN"
 "http://www.w3.org/Graphics/SVG/1.1/DTD/svg11.dtd">
<!-- Generated by graphviz version 14.0.1 (0)
 -->
<!-- Title: WrapMPI::critical_error Pages: 1 -->
<svg width="870pt" height="179pt"
 viewBox="0.00 0.00 870.00 179.00" xmlns="http://www.w3.org/2000/svg" xmlns:xlink="http://www.w3.org/1999/xlink">
<g id="graph0" class="graph" transform="scale(1 1) rotate(0) translate(4 174.5)">
<title>WrapMPI::critical_error</title>
<!-- Node1 -->
<g id="Node000001" class="node">
<title>Node1</title>
<g id="a_Node000001"><a xlink:title=" ">
<polygon fill="#999999" stroke="#666666" points="861.75,-73.5 746.75,-73.5 746.75,-55 861.75,-55 861.75,-73.5"/>
<text xml:space="preserve" text-anchor="middle" x="804.25" y="-60" font-family="Helvetica,sans-Serif" font-size="10.00">WrapMPI::critical_error</text>
</a>
</g>
</g>
<!-- Node2 -->
<g id="Node000002" class="node">
<title>Node2</title>
<g id="a_Node000002"><a xlink:href="namespaceWrapMPI.html#a1a08bbe69602ac2f4f38e1a0d45275cb" target="_top" xlink:title=" ">
<polygon fill="white" stroke="#666666" points="701,-132.5 612.25,-132.5 612.25,-114 701,-114 701,-132.5"/>
<text xml:space="preserve" text-anchor="middle" x="656.62" y="-119" font-family="Helvetica,sans-Serif" font-size="10.00">WrapMPI::barrier</text>
</a>
</g>
</g>
<!-- Node1&#45;&gt;Node2 -->
<g id="edge1_Node000001_Node000002" class="edge">
<title>Node1&#45;&gt;Node2</title>
<g id="a_edge1_Node000001_Node000002"><a xlink:title=" ">
<path fill="none" stroke="#63b8ff" d="M768.67,-78.26C741.68,-89.19 704.92,-104.09 681.22,-113.69"/>
<polygon fill="#63b8ff" stroke="#63b8ff" points="769.85,-81.56 777.8,-74.56 767.22,-75.07 769.85,-81.56"/>
</a>
</g>
</g>
<!-- Node6 -->
<g id="Node000006" class="node">
<title>Node6</title>
<g id="a_Node000006"><a xlink:href="classCore_1_1GlobalInitialiser.html#aa042e8d396a5287c49fb6a8b81eba209" target="_top" xlink:title="Performs MPI broadcast for synchronization.">
<polygon fill="white" stroke="#666666" points="566.5,-95.75 456.75,-95.75 456.75,-66.75 566.5,-66.75 566.5,-95.75"/>
<text xml:space="preserve" text-anchor="start" x="464.75" y="-82.25" font-family="Helvetica,sans-Serif" font-size="10.00">Core::GlobalInitialiser</text>
<text xml:space="preserve" text-anchor="middle" x="511.62" y="-71.75" font-family="Helvetica,sans-Serif" font-size="10.00">::mpi_broadcast</text>
</a>
</g>
</g>
<!-- Node1&#45;&gt;Node6 -->
<g id="edge10_Node000001_Node000006" class="edge">
<title>Node1&#45;&gt;Node6</title>
<g id="a_edge10_Node000001_Node000006"><a xlink:title=" ">
<path fill="none" stroke="#63b8ff" d="M735.2,-68.23C683.85,-71.23 614.35,-75.3 566.75,-78.08"/>
<polygon fill="#63b8ff" stroke="#63b8ff" points="735.24,-71.73 745.01,-67.66 734.83,-64.75 735.24,-71.73"/>
</a>
</g>
</g>
<!-- Node10 -->
<g id="Node000010" class="node">
<title>Node10</title>
<g id="a_Node000010"><a xlink:href="namespaceWrapMPI.html#ae68fdad586750d104f311bfbc88fa066" target="_top" xlink:title="Attempts to receive a single data item from a source.">
<polygon fill="white" stroke="#666666" points="705.5,-55.5 607.75,-55.5 607.75,-37 705.5,-37 705.5,-55.5"/>
<text xml:space="preserve" text-anchor="middle" x="656.62" y="-42" font-family="Helvetica,sans-Serif" font-size="10.00">WrapMPI::try_recv</text>
</a>
</g>
</g>
<!-- Node1&#45;&gt;Node10 -->
<g id="edge11_Node000001_Node000010" class="edge">
<title>Node1&#45;&gt;Node10</title>
<g id="a_edge11_Node000001_Node000010"><a xlink:title=" ">
<path fill="none" stroke="#63b8ff" d="M735.39,-55.86C725.45,-54.63 715.37,-53.39 705.93,-52.22"/>
<polygon fill="#63b8ff" stroke="#63b8ff" points="734.67,-59.3 745.03,-57.05 735.53,-52.35 734.67,-59.3"/>
</a>
</g>
</g>
<!-- Node11 -->
<g id="Node000011" class="node">
<title>Node11</title>
<g id="a_Node000011"><a xlink:href="namespaceWrapMPI.html#a0dd428096701cba57a4230514acaf0b1" target="_top" xlink:title="Attempts to receive a vector of data items from a source.">
<polygon fill="white" stroke="#666666" points="710.75,-18.5 602.5,-18.5 602.5,0 710.75,0 710.75,-18.5"/>
<text xml:space="preserve" text-anchor="middle" x="656.62" y="-5" font-family="Helvetica,sans-Serif" font-size="10.00">WrapMPI::try_recv_v</text>
</a>
</g>
</g>
<!-- Node1&#45;&gt;Node11 -->
<g id="edge12_Node000001_Node000011" class="edge">
<title>Node1&#45;&gt;Node11</title>
<g id="a_edge12_Node000001_Node000011"><a xlink:title=" ">
<path fill="none" stroke="#63b8ff" d="M768.75,-50.56C751.39,-43.74 730,-35.44 710.75,-28.25 702.49,-25.17 693.47,-21.9 685.25,-18.97"/>
<polygon fill="#63b8ff" stroke="#63b8ff" points="766.98,-53.63 777.57,-54.04 769.55,-47.11 766.98,-53.63"/>
</a>
</g>
</g>
<!-- Node3 -->
<g id="Node000003" class="node">
<title>Node3</title>
<g id="a_Node000003"><a xlink:href="namespaceWrapMPI.html#aadc3308a0cd9aa92fb555a4eb2f26c97" target="_top" xlink:title=" ">
<polygon fill="white" stroke="#666666" points="557.5,-170.5 465.75,-170.5 465.75,-152 557.5,-152 557.5,-170.5"/>
<text xml:space="preserve" text-anchor="middle" x="511.62" y="-157" font-family="Helvetica,sans-Serif" font-size="10.00">WrapMPI::finalize</text>
</a>
</g>
</g>
<!-- Node2&#45;&gt;Node3 -->
<g id="edge2_Node000002_Node000003" class="edge">
<title>Node2&#45;&gt;Node3</title>
<g id="a_edge2_Node000002_Node000003"><a xlink:title=" ">
<path fill="none" stroke="#63b8ff" d="M608.18,-135.86C588.9,-140.98 566.99,-146.8 549.01,-151.58"/>
<polygon fill="#63b8ff" stroke="#63b8ff" points="608.94,-139.28 617.71,-133.33 607.14,-132.51 608.94,-139.28"/>
</a>
</g>
</g>
<!-- Node4 -->
<g id="Node000004" class="node">
<title>Node4</title>
<g id="a_Node000004"><a xlink:href="namespaceCore.html#ad98e98a441916916448cd3eb5c437bcf" target="_top" xlink:title="Initializes the runtime environment based on command&#45;line arguments and simulation parameters.">
<polygon fill="white" stroke="#666666" points="412.5,-153.5 319.25,-153.5 319.25,-135 412.5,-135 412.5,-153.5"/>
<text xml:space="preserve" text-anchor="middle" x="365.88" y="-140" font-family="Helvetica,sans-Serif" font-size="10.00">Core::runtime_init</text>
</a>
</g>
</g>
<!-- Node2&#45;&gt;Node4 -->
<g id="edge9_Node000002_Node000004" class="edge">
<title>Node2&#45;&gt;Node4</title>
<g id="a_edge9_Node000002_Node000004"><a xlink:title=" ">
<path fill="none" stroke="#63b8ff" d="M600.58,-127.25C546.08,-131.22 463.58,-137.22 412.58,-140.93"/>
<polygon fill="#63b8ff" stroke="#63b8ff" points="600.54,-130.77 610.26,-126.55 600.03,-123.78 600.54,-130.77"/>
</a>
</g>
</g>
<!-- Node2&#45;&gt;Node6 -->
<g id="edge5_Node000002_Node000006" class="edge">
<title>Node2&#45;&gt;Node6</title>
<g id="a_edge5_Node000002_Node000006"><a xlink:title=" ">
<path fill="none" stroke="#63b8ff" d="M611.76,-110.37C596.52,-105.89 579.3,-100.83 563.54,-96.21"/>
<polygon fill="#63b8ff" stroke="#63b8ff" points="610.43,-113.62 621.01,-113.08 612.4,-106.91 610.43,-113.62"/>
</a>
</g>
</g>
<!-- Node3&#45;&gt;Node4 -->
<g id="edge3_Node000003_Node000004" class="edge">
<title>Node3&#45;&gt;Node4</title>
<g id="a_edge3_Node000003_Node000004"><a xlink:title=" ">
<path fill="none" stroke="#63b8ff" d="M454.23,-154.58C440.5,-152.96 425.97,-151.24 412.79,-149.68"/>
<polygon fill="#63b8ff" stroke="#63b8ff" points="453.69,-158.04 464.03,-155.74 454.51,-151.09 453.69,-158.04"/>
</a>
</g>
</g>
<!-- Node5 -->
<g id="Node000005" class="node">
<title>Node5</title>
<g id="a_Node000005"><a xlink:href="structApi_1_1SimulationInstance.html#aaba14d53cd780130378421e0bf990663" target="_top" xlink:title="simulation instance constructor">
<polygon fill="white" stroke="#666666" points="275,-158.75 155.5,-158.75 155.5,-129.75 275,-129.75 275,-158.75"/>
<text xml:space="preserve" text-anchor="start" x="163.5" y="-145.25" font-family="Helvetica,sans-Serif" font-size="10.00">Api::SimulationInstance</text>
<text xml:space="preserve" text-anchor="middle" x="215.25" y="-134.75" font-family="Helvetica,sans-Serif" font-size="10.00">::SimulationInstance</text>
</a>
</g>
</g>
<!-- Node4&#45;&gt;Node5 -->
<g id="edge4_Node000004_Node000005" class="edge">
<title>Node4&#45;&gt;Node5</title>
<g id="a_edge4_Node000004_Node000005"><a xlink:title=" ">
<path fill="none" stroke="#63b8ff" d="M307.78,-144.25C297.15,-144.25 286.02,-144.25 275.33,-144.25"/>
<polygon fill="#63b8ff" stroke="#63b8ff" points="307.56,-147.75 317.56,-144.25 307.56,-140.75 307.56,-147.75"/>
</a>
</g>
</g>
<!-- Node7 -->
<g id="Node000007" class="node">
<title>Node7</title>
<g id="a_Node000007"><a xlink:href="classCore_1_1GlobalInitialiser.html#a97eff5566ced6ba6449eb532f0babadc" target="_top" xlink:title="Initializes a flow iterator.">
<polygon fill="white" stroke="#666666" points="420.75,-95.75 311,-95.75 311,-66.75 420.75,-66.75 420.75,-95.75"/>
<text xml:space="preserve" text-anchor="start" x="319" y="-82.25" font-family="Helvetica,sans-Serif" font-size="10.00">Core::GlobalInitialiser</text>
<text xml:space="preserve" text-anchor="middle" x="365.88" y="-71.75" font-family="Helvetica,sans-Serif" font-size="10.00">::init_state</text>
</a>
</g>
</g>
<!-- Node6&#45;&gt;Node7 -->
<g id="edge6_Node000006_Node000007" class="edge">
<title>Node6&#45;&gt;Node7</title>
<g id="a_edge6_Node000006_Node000007"><a xlink:title=" ">
<path fill="none" stroke="#63b8ff" d="M444.97,-81.25C436.89,-81.25 428.7,-81.25 420.82,-81.25"/>
<polygon fill="#63b8ff" stroke="#63b8ff" points="444.77,-84.75 454.77,-81.25 444.77,-77.75 444.77,-84.75"/>
</a>
</g>
</g>
<!-- Node8 -->
<g id="Node000008" class="node">
<title>Node8</title>
<g id="a_Node000008"><a xlink:href="classCore_1_1GlobalInitialiser.html#a0dc2da93c4202706b5f37453f355145c" target="_top" xlink:title="Initializes a transitioner with the provided flow iterator.">
<polygon fill="white" stroke="#666666" points="270.12,-95.75 160.38,-95.75 160.38,-66.75 270.12,-66.75 270.12,-95.75"/>
<text xml:space="preserve" text-anchor="start" x="168.38" y="-82.25" font-family="Helvetica,sans-Serif" font-size="10.00">Core::GlobalInitialiser</text>
<text xml:space="preserve" text-anchor="middle" x="215.25" y="-71.75" font-family="Helvetica,sans-Serif" font-size="10.00">::init_transitionner</text>
</a>
</g>
</g>
<!-- Node7&#45;&gt;Node8 -->
<g id="edge7_Node000007_Node000008" class="edge">
<title>Node7&#45;&gt;Node8</title>
<g id="a_edge7_Node000007_Node000008"><a xlink:title=" ">
<path fill="none" stroke="#63b8ff" d="M299.56,-81.25C289.87,-81.25 279.97,-81.25 270.54,-81.25"/>
<polygon fill="#63b8ff" stroke="#63b8ff" points="299.28,-84.75 309.28,-81.25 299.28,-77.75 299.28,-84.75"/>
</a>
</g>
</g>
<!-- Node9 -->
<g id="Node000009" class="node">
<title>Node9</title>
<g id="a_Node000009"><a xlink:href="structApi_1_1SimulationInstance.html#ae9bdd54076170f50eadcb7966d64c19d" target="_top" xlink:title="Apply the simulation configuration and prepare for execution.">
<polygon fill="white" stroke="#666666" points="119.5,-95.75 0,-95.75 0,-66.75 119.5,-66.75 119.5,-95.75"/>
<text xml:space="preserve" text-anchor="start" x="8" y="-82.25" font-family="Helvetica,sans-Serif" font-size="10.00">Api::SimulationInstance</text>
<text xml:space="preserve" text-anchor="middle" x="59.75" y="-71.75" font-family="Helvetica,sans-Serif" font-size="10.00">::apply</text>
</a>
</g>
</g>
<!-- Node8&#45;&gt;Node9 -->
<g id="edge8_Node000008_Node000009" class="edge">
<title>Node8&#45;&gt;Node9</title>
<g id="a_edge8_Node000008_Node000009"><a xlink:title=" ">
<path fill="none" stroke="#63b8ff" d="M148.63,-81.25C139.07,-81.25 129.28,-81.25 119.86,-81.25"/>
<polygon fill="#63b8ff" stroke="#63b8ff" points="148.62,-84.75 158.62,-81.25 148.62,-77.75 148.62,-84.75"/>
</a>
</g>
</g>
</g>
</svg>
