<?xml version="1.0" encoding="UTF-8" standalone="no"?>
<!DOCTYPE svg PUBLIC "-//W3C//DTD SVG 1.1//EN"
 "http://www.w3.org/Graphics/SVG/1.1/DTD/svg11.dtd">
<!-- Generated by graphviz version 14.0.1 (0)
 -->
<!-- Title: PostProcessing::save_particle_state Pages: 1 -->
<!--zoomable 109 -->

<svg id="main" version="1.1" xmlns="http://www.w3.org/2000/svg" xmlns:xlink="http://www.w3.org/1999/xlink" xml:space="preserve" onload="init(evt)">

<style type="text/css"><![CDATA[
.node, .edge {opacity: 0.7;}
.node.selected, .edge.selected {opacity: 1;}
.edge:hover path { stroke: red; }
.edge:hover polygon { stroke: red; fill: red; }
]]></style>

<defs>
  <circle id="rim" cx="0" cy="0" r="7"/>
  <circle id="rim2" cx="0" cy="0" r="3.5"/>
  <g id="zoomPlus">
    <use xlink:href="#rim" fill="#404040"><set attributeName="fill" to="#808080" begin="zoomplus.mouseover" end="zoomplus.mouseout"/></use>
    <path d="M-4,0h8M0,-4v8" fill="none" stroke="white" stroke-width="1.5" pointer-events="none"/>
  </g>
  <g id="zoomMin">
    <use xlink:href="#rim" fill="#404040"><set attributeName="fill" to="#808080" begin="zoomminus.mouseover" end="zoomminus.mouseout"/></use>
    <path d="M-4,0h8" fill="none" stroke="white" stroke-width="1.5" pointer-events="none"/>
  </g>
  <g id="arrowUp" transform="translate(30 24)">
    <use xlink:href="#rim"/>
    <path pointer-events="none" fill="none" stroke="white" stroke-width="1.5" d="M0,-3.0v7 M-2.5,-0.5L0,-3.0L2.5,-0.5"/>
  </g>
  <g id="arrowRight" transform="rotate(90) translate(36 -43)">
    <use xlink:href="#rim"/>
    <path pointer-events="none" fill="none" stroke="white" stroke-width="1.5" d="M0,-3.0v7 M-2.5,-0.5L0,-3.0L2.5,-0.5"/>
  </g>
  <g id="arrowDown" transform="rotate(180) translate(-30 -48)">
    <use xlink:href="#rim"/>
    <path pointer-events="none" fill="none" stroke="white" stroke-width="1.5" d="M0,-3.0v7 M-2.5,-0.5L0,-3.0L2.5,-0.5"/>
  </g>
  <g id="arrowLeft" transform="rotate(270) translate(-36 17)">
    <use xlink:href="#rim"/>
    <path pointer-events="none" fill="none" stroke="white" stroke-width="1.5" d="M0,-3.0v7 M-2.5,-0.5L0,-3.0L2.5,-0.5"/>
  </g>
  <g id="resetDef">
    <use xlink:href="#rim2" fill="#404040"><set attributeName="fill" to="#808080" begin="reset.mouseover" end="reset.mouseout"/></use>
  </g>
</defs>
<script type="application/ecmascript">
var viewWidth = 849;
var viewHeight = 109;
var sectionId = 'dynsection-2';
</script>
<script type="application/ecmascript" xlink:href="svg.min.js"/>
<svg id="graph" class="graph">
<g id="viewport">
<title>PostProcessing::save_particle_state</title>
<!-- Node1 -->
<g id="Node000001" class="node">
<title>Node1</title>
<g id="a_Node000001"><a xlink:title=" ">
<polygon fill="#999999" stroke="#666666" points="840.75,-44.75 729.5,-44.75 729.5,-15.75 840.75,-15.75 840.75,-44.75"/>
<text xml:space="preserve" text-anchor="start" x="737.5" y="-31.25" font-family="Helvetica,sans-Serif" font-size="10.00">PostProcessing::save</text>
<text xml:space="preserve" text-anchor="middle" x="785.12" y="-20.75" font-family="Helvetica,sans-Serif" font-size="10.00">_particle_state</text>
</a>
</g>
</g>
<!-- Node2 -->
<g id="Node000002" class="node">
<title>Node2</title>
<g id="a_Node000002"><a xlink:href="namespaceCore.html#afbce0beea293a7ccfdfc34a85b5e5e77" target="_top" xlink:title=" ">
<polygon fill="white" stroke="#666666" points="674.38,-65.75 586.38,-65.75 586.38,-36.75 674.38,-36.75 674.38,-65.75"/>
<text xml:space="preserve" text-anchor="start" x="594.38" y="-52.25" font-family="Helvetica,sans-Serif" font-size="10.00">Core::init_partial</text>
<text xml:space="preserve" text-anchor="middle" x="630.38" y="-41.75" font-family="Helvetica,sans-Serif" font-size="10.00">_exporter</text>
</a>
</g>
</g>
<!-- Node1&#45;&gt;Node2 -->
<g id="edge1_Node000001_Node000002" class="edge">
<title>Node1&#45;&gt;Node2</title>
<g id="a_edge1_Node000001_Node000002"><a xlink:title=" ">
<path fill="none" stroke="#63b8ff" d="M718.28,-39.3C703.53,-41.33 688.25,-43.43 674.7,-45.29"/>
<polygon fill="#63b8ff" stroke="#63b8ff" points="718.48,-42.81 727.91,-37.98 717.53,-35.87 718.48,-42.81"/>
</a>
</g>
</g>
<!-- Node10 -->
<g id="Node000010" class="node">
<title>Node10</title>
<g id="a_Node000010"><a xlink:href="classExportHandler.html#a51e7bc3719685192c28df6b57b7a9f37" target="_top" xlink:title="Handles periodic export of simulation data.">
<polygon fill="white" stroke="#666666" points="693.5,-18.5 567.25,-18.5 567.25,0 693.5,0 693.5,-18.5"/>
<text xml:space="preserve" text-anchor="middle" x="630.38" y="-5" font-family="Helvetica,sans-Serif" font-size="10.00">ExportHandler::operator()</text>
</a>
</g>
</g>
<!-- Node1&#45;&gt;Node10 -->
<g id="edge12_Node000001_Node000010" class="edge">
<title>Node1&#45;&gt;Node10</title>
<g id="a_edge12_Node000001_Node000010"><a xlink:title=" ">
<path fill="none" stroke="#63b8ff" d="M718.12,-21.18C710.04,-20.06 701.79,-18.93 693.76,-17.83"/>
<polygon fill="#63b8ff" stroke="#63b8ff" points="717.53,-24.63 727.91,-22.52 718.48,-17.69 717.53,-24.63"/>
</a>
</g>
</g>
<!-- Node3 -->
<g id="Node000003" class="node">
<title>Node3</title>
<g id="a_Node000003"><a xlink:href="namespaceCore.html#ab6528e76111960864b7e4741327b3049" target="_top" xlink:title="Start simulation.">
<polygon fill="white" stroke="#666666" points="531.25,-60.5 468,-60.5 468,-42 531.25,-42 531.25,-60.5"/>
<text xml:space="preserve" text-anchor="middle" x="499.62" y="-47" font-family="Helvetica,sans-Serif" font-size="10.00">Core::exec</text>
</a>
</g>
</g>
<!-- Node2&#45;&gt;Node3 -->
<g id="edge2_Node000002_Node000003" class="edge">
<title>Node2&#45;&gt;Node3</title>
<g id="a_edge2_Node000002_Node000003"><a xlink:title=" ">
<path fill="none" stroke="#63b8ff" d="M575.04,-51.25C560.25,-51.25 544.75,-51.25 531.74,-51.25"/>
<polygon fill="#63b8ff" stroke="#63b8ff" points="574.63,-54.75 584.63,-51.25 574.63,-47.75 574.63,-54.75"/>
</a>
</g>
</g>
<!-- Node4 -->
<g id="Node000004" class="node">
<title>Node4</title>
<g id="a_Node000004"><a xlink:href="structApi_1_1SimulationInstance.html#a3f04372728be84263fb69f5773ca5bd5" target="_top" xlink:title="Execute the simulation.">
<polygon fill="white" stroke="#666666" points="275,-100.75 155.5,-100.75 155.5,-71.75 275,-71.75 275,-100.75"/>
<text xml:space="preserve" text-anchor="start" x="163.5" y="-87.25" font-family="Helvetica,sans-Serif" font-size="10.00">Api::SimulationInstance</text>
<text xml:space="preserve" text-anchor="middle" x="215.25" y="-76.75" font-family="Helvetica,sans-Serif" font-size="10.00">::exec</text>
</a>
</g>
</g>
<!-- Node3&#45;&gt;Node4 -->
<g id="edge3_Node000003_Node000004" class="edge">
<title>Node3&#45;&gt;Node4</title>
<g id="a_edge3_Node000003_Node000004"><a xlink:title=" ">
<path fill="none" stroke="#63b8ff" d="M456.86,-63.8C448.68,-65.9 440.12,-67.85 432,-69.25 379.43,-78.34 318.8,-82.58 275.22,-84.55"/>
<polygon fill="#63b8ff" stroke="#63b8ff" points="457.5,-67.25 466.25,-61.27 455.68,-60.49 457.5,-67.25"/>
</a>
</g>
</g>
<!-- Node6 -->
<g id="Node000006" class="node">
<title>Node6</title>
<g id="a_Node000006"><a xlink:href="namespaceCore.html#a23e6f3d22fc51ef9decabb2c220b27c4" target="_top" xlink:title=" ">
<polygon fill="white" stroke="#666666" points="432,-60.5 311,-60.5 311,-42 432,-42 432,-60.5"/>
<text xml:space="preserve" text-anchor="middle" x="371.5" y="-47" font-family="Helvetica,sans-Serif" font-size="10.00">Core::exporter_filename</text>
</a>
</g>
</g>
<!-- Node3&#45;&gt;Node6 -->
<g id="edge5_Node000003_Node000006" class="edge">
<title>Node3&#45;&gt;Node6</title>
<g id="a_edge5_Node000003_Node000006"><a xlink:title=" ">
<path fill="none" stroke="#63b8ff" d="M456.46,-44.84C448.73,-44.58 440.52,-44.47 432.38,-44.51"/>
<polygon fill="#63b8ff" stroke="#63b8ff" points="456.11,-48.33 466.26,-45.28 456.43,-41.34 456.11,-48.33"/>
</a>
</g>
</g>
<!-- Node7 -->
<g id="Node000007" class="node">
<title>Node7</title>
<g id="a_Node000007"><a xlink:href="namespaceCore.html#a8a3e4aa1d1921da2e211c43d5368acf1" target="_top" xlink:title=" ">
<polygon fill="white" stroke="#666666" points="402,-23.5 341,-23.5 341,-5 402,-5 402,-23.5"/>
<text xml:space="preserve" text-anchor="middle" x="371.5" y="-10" font-family="Helvetica,sans-Serif" font-size="10.00">Core::load</text>
</a>
</g>
</g>
<!-- Node3&#45;&gt;Node7 -->
<g id="edge7_Node000003_Node000007" class="edge">
<title>Node3&#45;&gt;Node7</title>
<g id="a_edge7_Node000003_Node000007"><a xlink:title=" ">
<path fill="none" stroke="#63b8ff" d="M456.75,-38.97C438.88,-33.72 418.44,-27.73 402.17,-22.95"/>
<polygon fill="#63b8ff" stroke="#63b8ff" points="455.74,-42.32 466.32,-41.77 457.71,-35.6 455.74,-42.32"/>
</a>
</g>
</g>
<!-- Node5 -->
<g id="Node000005" class="node">
<title>Node5</title>
<g id="a_Node000005"><a xlink:href="structApi_1_1SimulationInstance.html#afee07db8a6b57fe7982900ecaa943cc0" target="_top" xlink:title="Default constructor.">
<polygon fill="white" stroke="#666666" points="119.5,-99.75 0,-99.75 0,-70.75 119.5,-70.75 119.5,-99.75"/>
<text xml:space="preserve" text-anchor="start" x="8" y="-86.25" font-family="Helvetica,sans-Serif" font-size="10.00">Api::SimulationInstance</text>
<text xml:space="preserve" text-anchor="middle" x="59.75" y="-75.75" font-family="Helvetica,sans-Serif" font-size="10.00">::SimulationInstance</text>
</a>
</g>
</g>
<!-- Node4&#45;&gt;Node5 -->
<g id="edge4_Node000004_Node000005" class="edge">
<title>Node4&#45;&gt;Node5</title>
<g id="a_edge4_Node000004_Node000005"><a xlink:title=" ">
<path fill="none" stroke="#63b8ff" d="M143.99,-85.79C135.89,-85.74 127.69,-85.69 119.75,-85.63"/>
<polygon fill="#63b8ff" stroke="#63b8ff" points="143.81,-89.29 153.83,-85.86 143.85,-82.29 143.81,-89.29"/>
</a>
</g>
</g>
<!-- Node6&#45;&gt;Node3 -->
<g id="edge6_Node000006_Node000003" class="edge">
<title>Node6&#45;&gt;Node3</title>
<g id="a_edge6_Node000006_Node000003"><a xlink:title=" ">
<path fill="none" stroke="#63b8ff" d="M443.86,-57.95C452.23,-57.84 460.4,-57.58 467.77,-57.15"/>
<polygon fill="#63b8ff" stroke="#63b8ff" points="443.88,-54.45 433.89,-57.99 443.9,-61.45 443.88,-54.45"/>
</a>
</g>
</g>
<!-- Node8 -->
<g id="Node000008" class="node">
<title>Node8</title>
<g id="a_Node000008"><a xlink:href="structApi_1_1SimulationInstance.html#ad2abfa76ac4128d44b7c0c895f78b77b" target="_top" xlink:title="Load ad apply the simulation configuration and prepare for execution based on file.">
<polygon fill="white" stroke="#666666" points="275,-32.75 155.5,-32.75 155.5,-3.75 275,-3.75 275,-32.75"/>
<text xml:space="preserve" text-anchor="start" x="163.5" y="-19.25" font-family="Helvetica,sans-Serif" font-size="10.00">Api::SimulationInstance</text>
<text xml:space="preserve" text-anchor="middle" x="215.25" y="-8.75" font-family="Helvetica,sans-Serif" font-size="10.00">::apply_load</text>
</a>
</g>
</g>
<!-- Node7&#45;&gt;Node8 -->
<g id="edge8_Node000007_Node000008" class="edge">
<title>Node7&#45;&gt;Node8</title>
<g id="a_edge8_Node000007_Node000008"><a xlink:title=" ">
<path fill="none" stroke="#63b8ff" d="M329.26,-15.32C312.7,-15.75 293.29,-16.25 275.28,-16.72"/>
<polygon fill="#63b8ff" stroke="#63b8ff" points="329.34,-18.82 339.25,-15.06 329.16,-11.82 329.34,-18.82"/>
</a>
</g>
</g>
<!-- Node8&#45;&gt;Node5 -->
<g id="edge11_Node000008_Node000005" class="edge">
<title>Node8&#45;&gt;Node5</title>
<g id="a_edge11_Node000008_Node000005"><a xlink:title=" ">
<path fill="none" stroke="#63b8ff" d="M170.78,-37.68C154.69,-44.83 136.29,-52.96 119.5,-60.25 111.98,-63.52 103.89,-66.99 96.2,-70.26"/>
<polygon fill="#63b8ff" stroke="#63b8ff" points="171.88,-41.02 179.59,-33.76 169.04,-34.63 171.88,-41.02"/>
</a>
</g>
</g>
<!-- Node9 -->
<g id="Node000009" class="node">
<title>Node9</title>
<g id="a_Node000009"><a xlink:href="structApi_1_1SimulationInstance.html#a3398ddd22faa3ceb16b454c51faeced0" target="_top" xlink:title="Apply the simulation configuration and prepare for execution.">
<polygon fill="white" stroke="#666666" points="119.5,-32.75 0,-32.75 0,-3.75 119.5,-3.75 119.5,-32.75"/>
<text xml:space="preserve" text-anchor="start" x="8" y="-19.25" font-family="Helvetica,sans-Serif" font-size="10.00">Api::SimulationInstance</text>
<text xml:space="preserve" text-anchor="middle" x="59.75" y="-8.75" font-family="Helvetica,sans-Serif" font-size="10.00">::apply</text>
</a>
</g>
</g>
<!-- Node8&#45;&gt;Node9 -->
<g id="edge9_Node000008_Node000009" class="edge">
<title>Node8&#45;&gt;Node9</title>
<g id="a_edge9_Node000008_Node000009"><a xlink:title=" ">
<path fill="none" stroke="#63b8ff" d="M143.99,-18.25C135.89,-18.25 127.69,-18.25 119.75,-18.25"/>
<polygon fill="#63b8ff" stroke="#63b8ff" points="143.83,-21.75 153.83,-18.25 143.83,-14.75 143.83,-21.75"/>
</a>
</g>
</g>
<!-- Node9&#45;&gt;Node9 -->
<g id="edge10_Node000009_Node000009" class="edge">
<title>Node9&#45;&gt;Node9</title>
<g id="a_edge10_Node000009_Node000009"><a xlink:title=" ">
<path fill="none" stroke="#63b8ff" d="M86.14,-44.31C82,-48.16 73.2,-50.75 59.75,-50.75 35.15,-50.75 26.12,-42.07 32.65,-32.96"/>
<polygon fill="#63b8ff" stroke="#63b8ff" points="89.63,-44.67 86.76,-34.47 82.64,-44.23 89.63,-44.67"/>
</a>
</g>
</g>
</g>
</svg>

<g id="navigator" transform="translate(0 0)" fill="#404254">
  <rect fill="#f2f5e9" fill-opacity="0.5" stroke="#606060" stroke-width=".5" x="0" y="0" width="60" height="60"/>
  <use id="zoomplus" xlink:href="#zoomPlus" x="17" y="9" onmousedown="handleZoom(evt,'in')"/>
  <use id="zoomminus" xlink:href="#zoomMin" x="42" y="9" onmousedown="handleZoom(evt,'out')"/>
  <use id="reset" xlink:href="#resetDef" x="30" y="36" onmousedown="handleReset()"/>
   <use id="arrowup" xlink:href="#arrowUp" x="0" y="0" onmousedown="handlePan(0,-1)"/>
  <use id="arrowright" xlink:href="#arrowRight" x="0" y="0" onmousedown="handlePan(1,0)"/>
  <use id="arrowdown" xlink:href="#arrowDown" x="0" y="0" onmousedown="handlePan(0,1)"/>
  <use id="arrowleft" xlink:href="#arrowLeft" x="0" y="0" onmousedown="handlePan(-1,0)"/>
</g>
<svg viewBox="0 0 15 15" width="100%" height="30px" preserveAspectRatio="xMaxYMin meet">
 <g id="arrow_out" transform="scale(0.3 0.3)">
  <a xlink:href="namespacePostProcessing_a9ff9231cbdf2a3c4e539c4638aba2445_icgraph_org.svg" target="_base">
   <rect id="button" ry="5" rx="5" y="6" x="6" height="38" width="38"
        fill="#f2f5e9" fill-opacity="0.5" stroke="#606060" stroke-width="1.0"/>
   <path id="arrow"
     d="M 11.500037,31.436501 C 11.940474,20.09759 22.043105,11.32322 32.158766,21.979434 L 37.068811,17.246167 C 37.068811,17.246167 37.088388,32 37.088388,32 L 22.160133,31.978069 C 22.160133,31.978069 26.997745,27.140456 26.997745,27.140456 C 18.528582,18.264221 13.291696,25.230495 11.500037,31.436501 z"
     style="fill:#404040;"/>
  </a>
 </g>
</svg>

<style type='text/css'>
<![CDATA[
[data-mouse-over-selected='false'] { opacity: 0.7; }
[data-mouse-over-selected='true']  { opacity: 1.0; }
]]>
</style>
<script type="application/ecmascript"><![CDATA[
document.addEventListener('DOMContentLoaded', (event) => {
  highlightEdges();
  highlightAdjacentNodes();
});
]]></script>
</svg>
