<?xml version="1.0" encoding="UTF-8" standalone="no"?>
<!DOCTYPE svg PUBLIC "-//W3C//DTD SVG 1.1//EN"
 "http://www.w3.org/Graphics/SVG/1.1/DTD/svg11.dtd">
<!-- Generated by graphviz version 14.0.1 (0)
 -->
<!-- Title: PostProcessing::save_probes Pages: 1 -->
<!--zoomable 193 -->

<svg id="main" version="1.1" xmlns="http://www.w3.org/2000/svg" xmlns:xlink="http://www.w3.org/1999/xlink" xml:space="preserve" onload="init(evt)">

<style type="text/css"><![CDATA[
.node, .edge {opacity: 0.7;}
.node.selected, .edge.selected {opacity: 1;}
.edge:hover path { stroke: red; }
.edge:hover polygon { stroke: red; fill: red; }
]]></style>

<defs>
  <circle id="rim" cx="0" cy="0" r="7"/>
  <circle id="rim2" cx="0" cy="0" r="3.5"/>
  <g id="zoomPlus">
    <use xlink:href="#rim" fill="#404040"><set attributeName="fill" to="#808080" begin="zoomplus.mouseover" end="zoomplus.mouseout"/></use>
    <path d="M-4,0h8M0,-4v8" fill="none" stroke="white" stroke-width="1.5" pointer-events="none"/>
  </g>
  <g id="zoomMin">
    <use xlink:href="#rim" fill="#404040"><set attributeName="fill" to="#808080" begin="zoomminus.mouseover" end="zoomminus.mouseout"/></use>
    <path d="M-4,0h8" fill="none" stroke="white" stroke-width="1.5" pointer-events="none"/>
  </g>
  <g id="arrowUp" transform="translate(30 24)">
    <use xlink:href="#rim"/>
    <path pointer-events="none" fill="none" stroke="white" stroke-width="1.5" d="M0,-3.0v7 M-2.5,-0.5L0,-3.0L2.5,-0.5"/>
  </g>
  <g id="arrowRight" transform="rotate(90) translate(36 -43)">
    <use xlink:href="#rim"/>
    <path pointer-events="none" fill="none" stroke="white" stroke-width="1.5" d="M0,-3.0v7 M-2.5,-0.5L0,-3.0L2.5,-0.5"/>
  </g>
  <g id="arrowDown" transform="rotate(180) translate(-30 -48)">
    <use xlink:href="#rim"/>
    <path pointer-events="none" fill="none" stroke="white" stroke-width="1.5" d="M0,-3.0v7 M-2.5,-0.5L0,-3.0L2.5,-0.5"/>
  </g>
  <g id="arrowLeft" transform="rotate(270) translate(-36 17)">
    <use xlink:href="#rim"/>
    <path pointer-events="none" fill="none" stroke="white" stroke-width="1.5" d="M0,-3.0v7 M-2.5,-0.5L0,-3.0L2.5,-0.5"/>
  </g>
  <g id="resetDef">
    <use xlink:href="#rim2" fill="#404040"><set attributeName="fill" to="#808080" begin="reset.mouseover" end="reset.mouseout"/></use>
  </g>
</defs>
<script type="application/ecmascript">
var viewWidth = 563;
var viewHeight = 193;
var sectionId = 'dynsection-6';
</script>
<script type="application/ecmascript" xlink:href="svg.min.js"/>
<svg id="graph" class="graph">
<g id="viewport">
<title>PostProcessing::save_probes</title>
<!-- Node1 -->
<g id="Node000001" class="node">
<title>Node1</title>
<g id="a_Node000001"><a xlink:title=" ">
<polygon fill="#999999" stroke="#666666" points="111.25,-97.75 0,-97.75 0,-68.75 111.25,-68.75 111.25,-97.75"/>
<text xml:space="preserve" text-anchor="start" x="8" y="-84.25" font-family="Helvetica,sans-Serif" font-size="10.00">PostProcessing::save</text>
<text xml:space="preserve" text-anchor="middle" x="55.62" y="-73.75" font-family="Helvetica,sans-Serif" font-size="10.00">_probes</text>
</a>
</g>
</g>
<!-- Node2 -->
<g id="Node000002" class="node">
<title>Node2</title>
<g id="a_Node000002"><a xlink:href="namespacePostProcessing.html#adae52b6b518e25be1c920f36f196ef65" target="_top" xlink:title=" ">
<polygon fill="white" stroke="#666666" points="263.75,-121.75 147.25,-121.75 147.25,-92.75 263.75,-92.75 263.75,-121.75"/>
<text xml:space="preserve" text-anchor="start" x="155.25" y="-108.25" font-family="Helvetica,sans-Serif" font-size="10.00">PostProcessing::_save</text>
<text xml:space="preserve" text-anchor="middle" x="205.5" y="-97.75" font-family="Helvetica,sans-Serif" font-size="10.00">_probes</text>
</a>
</g>
</g>
<!-- Node1&#45;&gt;Node2 -->
<g id="edge1_Node000001_Node000002" class="edge">
<title>Node1&#45;&gt;Node2</title>
<g id="a_edge1_Node000001_Node000002"><a xlink:title=" ">
<path fill="none" stroke="#63b8ff" d="M111.69,-92.19C119.5,-93.45 127.62,-94.77 135.65,-96.08"/>
<polygon fill="#63b8ff" stroke="#63b8ff" points="134.99,-99.51 145.42,-97.66 136.11,-92.61 134.99,-99.51"/>
</a>
</g>
</g>
<!-- Node9 -->
<g id="Node000009" class="node">
<title>Node9</title>
<g id="a_Node000009"><a xlink:href="classSimulation_1_1Getter.html#ab2fa179687f4810f64d4c1c2beb7800c" target="_top" xlink:title=" ">
<polygon fill="white" stroke="#666666" points="252.88,-74.75 158.12,-74.75 158.12,-45.75 252.88,-45.75 252.88,-74.75"/>
<text xml:space="preserve" text-anchor="start" x="166.12" y="-61.25" font-family="Helvetica,sans-Serif" font-size="10.00">Simulation::Getter</text>
<text xml:space="preserve" text-anchor="middle" x="205.5" y="-50.75" font-family="Helvetica,sans-Serif" font-size="10.00">::it_probes</text>
</a>
</g>
</g>
<!-- Node1&#45;&gt;Node9 -->
<g id="edge9_Node000001_Node000009" class="edge">
<title>Node1&#45;&gt;Node9</title>
<g id="a_edge9_Node000001_Node000009"><a xlink:title=" ">
<path fill="none" stroke="#63b8ff" d="M111.69,-74.69C123.02,-72.92 134.99,-71.06 146.42,-69.28"/>
<polygon fill="#63b8ff" stroke="#63b8ff" points="146.8,-72.77 156.14,-67.77 145.72,-65.85 146.8,-72.77"/>
</a>
</g>
</g>
<!-- Node3 -->
<g id="Node000003" class="node">
<title>Node3</title>
<g id="a_Node000003"><a xlink:href="classSimulation_1_1Probes.html#af54f1c8be6e49f63e8533d6a4e91cad3" target="_top" xlink:title=" ">
<polygon fill="white" stroke="#666666" points="408,-184.75 309.5,-184.75 309.5,-155.75 408,-155.75 408,-184.75"/>
<text xml:space="preserve" text-anchor="start" x="317.5" y="-171.25" font-family="Helvetica,sans-Serif" font-size="10.00">Simulation::Probes</text>
<text xml:space="preserve" text-anchor="middle" x="358.75" y="-160.75" font-family="Helvetica,sans-Serif" font-size="10.00">::clear</text>
</a>
</g>
</g>
<!-- Node2&#45;&gt;Node3 -->
<g id="edge2_Node000002_Node000003" class="edge">
<title>Node2&#45;&gt;Node3</title>
<g id="a_edge2_Node000002_Node000003"><a xlink:title=" ">
<path fill="none" stroke="#63b8ff" d="M241.91,-122.1C259.33,-129.39 280.63,-138.3 299.75,-146.25 303.38,-147.76 307.14,-149.32 310.92,-150.89"/>
<polygon fill="#63b8ff" stroke="#63b8ff" points="309.57,-154.12 320.14,-154.71 312.25,-147.65 309.57,-154.12"/>
</a>
</g>
</g>
<!-- Node4 -->
<g id="Node000004" class="node">
<title>Node4</title>
<g id="a_Node000004"><a xlink:href="classSimulation_1_1Probes.html#a6345c8304e772a314dae935f742d518a" target="_top" xlink:title=" ">
<polygon fill="white" stroke="#666666" points="417.75,-137.5 299.75,-137.5 299.75,-119 417.75,-119 417.75,-137.5"/>
<text xml:space="preserve" text-anchor="middle" x="358.75" y="-124" font-family="Helvetica,sans-Serif" font-size="10.00">Simulation::Probes::get</text>
</a>
</g>
</g>
<!-- Node2&#45;&gt;Node4 -->
<g id="edge3_Node000002_Node000004" class="edge">
<title>Node2&#45;&gt;Node4</title>
<g id="a_edge3_Node000002_Node000004"><a xlink:title=" ">
<path fill="none" stroke="#63b8ff" d="M264.11,-115.25C271.94,-116.34 280.05,-117.46 288.06,-118.57"/>
<polygon fill="#63b8ff" stroke="#63b8ff" points="287.41,-122.02 297.8,-119.93 288.37,-115.08 287.41,-122.02"/>
</a>
</g>
</g>
<!-- Node5 -->
<g id="Node000005" class="node">
<title>Node5</title>
<g id="a_Node000005"><a xlink:href="classSimulation_1_1Probes.html#a2b8541ff7ad653204a955ff1feb78757" target="_top" xlink:title=" ">
<polygon fill="white" stroke="#666666" points="408,-100.75 309.5,-100.75 309.5,-71.75 408,-71.75 408,-100.75"/>
<text xml:space="preserve" text-anchor="start" x="317.5" y="-87.25" font-family="Helvetica,sans-Serif" font-size="10.00">Simulation::Probes</text>
<text xml:space="preserve" text-anchor="middle" x="358.75" y="-76.75" font-family="Helvetica,sans-Serif" font-size="10.00">::need_export</text>
</a>
</g>
</g>
<!-- Node2&#45;&gt;Node5 -->
<g id="edge4_Node000002_Node000005" class="edge">
<title>Node2&#45;&gt;Node5</title>
<g id="a_edge4_Node000002_Node000005"><a xlink:title=" ">
<path fill="none" stroke="#63b8ff" d="M264.11,-99.25C275.14,-97.72 286.71,-96.11 297.81,-94.57"/>
<polygon fill="#63b8ff" stroke="#63b8ff" points="298.24,-98.05 307.67,-93.2 297.28,-91.11 298.24,-98.05"/>
</a>
</g>
</g>
<!-- Node6 -->
<g id="Node000006" class="node">
<title>Node6</title>
<g id="a_Node000006"><a xlink:href="classCore_1_1PartialExporter.html#a53c54ce796df99b407f410beb01074c5" target="_top" xlink:title="Writes probe data to the export.">
<polygon fill="white" stroke="#666666" points="413.25,-53.75 304.25,-53.75 304.25,-24.75 413.25,-24.75 413.25,-53.75"/>
<text xml:space="preserve" text-anchor="start" x="312.25" y="-40.25" font-family="Helvetica,sans-Serif" font-size="10.00">Core::PartialExporter</text>
<text xml:space="preserve" text-anchor="middle" x="358.75" y="-29.75" font-family="Helvetica,sans-Serif" font-size="10.00">::write_probe</text>
</a>
</g>
</g>
<!-- Node2&#45;&gt;Node6 -->
<g id="edge5_Node000002_Node000006" class="edge">
<title>Node2&#45;&gt;Node6</title>
<g id="a_edge5_Node000002_Node000006"><a xlink:title=" ">
<path fill="none" stroke="#63b8ff" d="M245.94,-92.29C251.97,-89.75 258.07,-87.03 263.75,-84.25 280.39,-76.11 283.15,-71.48 299.75,-63.25 302.82,-61.73 306.02,-60.21 309.26,-58.73"/>
<polygon fill="#63b8ff" stroke="#63b8ff" points="310.55,-61.99 318.28,-54.75 307.72,-55.59 310.55,-61.99"/>
</a>
</g>
</g>
<!-- Node7 -->
<g id="Node000007" class="node">
<title>Node7</title>
<g id="a_Node000007"><a xlink:href="classCore_1_1DataExporter.html#a0b0b79f3932c4eb905704a852248c857" target="_top" xlink:title=" ">
<polygon fill="white" stroke="#666666" points="554.5,-83.75 453.75,-83.75 453.75,-54.75 554.5,-54.75 554.5,-83.75"/>
<text xml:space="preserve" text-anchor="start" x="461.75" y="-70.25" font-family="Helvetica,sans-Serif" font-size="10.00">Core::DataExporter</text>
<text xml:space="preserve" text-anchor="middle" x="504.12" y="-59.75" font-family="Helvetica,sans-Serif" font-size="10.00">::append_array</text>
</a>
</g>
</g>
<!-- Node6&#45;&gt;Node7 -->
<g id="edge6_Node000006_Node000007" class="edge">
<title>Node6&#45;&gt;Node7</title>
<g id="a_edge6_Node000006_Node000007"><a xlink:title=" ">
<path fill="none" stroke="#63b8ff" d="M413.55,-50.51C422.91,-52.47 432.71,-54.52 442.25,-56.51"/>
<polygon fill="#63b8ff" stroke="#63b8ff" points="441.3,-59.89 451.81,-58.51 442.74,-53.04 441.3,-59.89"/>
</a>
</g>
</g>
<!-- Node8 -->
<g id="Node000008" class="node">
<title>Node8</title>
<g id="a_Node000008"><a xlink:href="namespaceIO.html#a30cc77fc5c4d45d3b56ef6a299ce2383" target="_top" xlink:title=" ">
<polygon fill="white" stroke="#666666" points="534.25,-18.5 474,-18.5 474,0 534.25,0 534.25,-18.5"/>
<text xml:space="preserve" text-anchor="middle" x="504.12" y="-5" font-family="Helvetica,sans-Serif" font-size="10.00">IO::format</text>
</a>
</g>
</g>
<!-- Node6&#45;&gt;Node8 -->
<g id="edge7_Node000006_Node000008" class="edge">
<title>Node6&#45;&gt;Node8</title>
<g id="a_edge7_Node000006_Node000008"><a xlink:title=" ">
<path fill="none" stroke="#63b8ff" d="M413.55,-27.99C429.76,-24.6 447.27,-20.94 462.47,-17.76"/>
<polygon fill="#63b8ff" stroke="#63b8ff" points="463.04,-21.21 472.11,-15.74 461.61,-14.36 463.04,-21.21"/>
</a>
</g>
</g>
<!-- Node8&#45;&gt;Node8 -->
<g id="edge8_Node000008_Node000008" class="edge">
<title>Node8&#45;&gt;Node8</title>
<g id="a_edge8_Node000008_Node000008"><a xlink:title=" ">
<path fill="none" stroke="#63b8ff" d="M481.72,-18.75C470.82,-27.32 478.29,-36.5 504.12,-36.5 518.66,-36.5 527.38,-33.59 530.29,-29.53"/>
<polygon fill="#63b8ff" stroke="#63b8ff" points="533.63,-28.47 527.03,-20.17 527.02,-30.77 533.63,-28.47"/>
</a>
</g>
</g>
</g>
</svg>

<g id="navigator" transform="translate(0 0)" fill="#404254">
  <rect fill="#f2f5e9" fill-opacity="0.5" stroke="#606060" stroke-width=".5" x="0" y="0" width="60" height="60"/>
  <use id="zoomplus" xlink:href="#zoomPlus" x="17" y="9" onmousedown="handleZoom(evt,'in')"/>
  <use id="zoomminus" xlink:href="#zoomMin" x="42" y="9" onmousedown="handleZoom(evt,'out')"/>
  <use id="reset" xlink:href="#resetDef" x="30" y="36" onmousedown="handleReset()"/>
   <use id="arrowup" xlink:href="#arrowUp" x="0" y="0" onmousedown="handlePan(0,-1)"/>
  <use id="arrowright" xlink:href="#arrowRight" x="0" y="0" onmousedown="handlePan(1,0)"/>
  <use id="arrowdown" xlink:href="#arrowDown" x="0" y="0" onmousedown="handlePan(0,1)"/>
  <use id="arrowleft" xlink:href="#arrowLeft" x="0" y="0" onmousedown="handlePan(-1,0)"/>
</g>
<svg viewBox="0 0 15 15" width="100%" height="30px" preserveAspectRatio="xMaxYMin meet">
 <g id="arrow_out" transform="scale(0.3 0.3)">
  <a xlink:href="namespacePostProcessing_abfe2a5894fae7c5534274da5d6d33e83_cgraph_org.svg" target="_base">
   <rect id="button" ry="5" rx="5" y="6" x="6" height="38" width="38"
        fill="#f2f5e9" fill-opacity="0.5" stroke="#606060" stroke-width="1.0"/>
   <path id="arrow"
     d="M 11.500037,31.436501 C 11.940474,20.09759 22.043105,11.32322 32.158766,21.979434 L 37.068811,17.246167 C 37.068811,17.246167 37.088388,32 37.088388,32 L 22.160133,31.978069 C 22.160133,31.978069 26.997745,27.140456 26.997745,27.140456 C 18.528582,18.264221 13.291696,25.230495 11.500037,31.436501 z"
     style="fill:#404040;"/>
  </a>
 </g>
</svg>

<style type='text/css'>
<![CDATA[
[data-mouse-over-selected='false'] { opacity: 0.7; }
[data-mouse-over-selected='true']  { opacity: 1.0; }
]]>
</style>
<script type="application/ecmascript"><![CDATA[
document.addEventListener('DOMContentLoaded', (event) => {
  highlightEdges();
  highlightAdjacentNodes();
});
]]></script>
</svg>
