<?xml version="1.0" encoding="UTF-8" standalone="no"?>
<!DOCTYPE svg PUBLIC "-//W3C//DTD SVG 1.1//EN"
 "http://www.w3.org/Graphics/SVG/1.1/DTD/svg11.dtd">
<!-- Generated by graphviz version 14.0.1 (0)
 -->
<!-- Title: WrapMPI::Async::_send_unsafe Pages: 1 -->
<svg width="632pt" height="51pt"
 viewBox="0.00 0.00 632.00 51.00" xmlns="http://www.w3.org/2000/svg" xmlns:xlink="http://www.w3.org/1999/xlink">
<g id="graph0" class="graph" transform="scale(1 1) rotate(0) translate(4 46.75)">
<title>WrapMPI::Async::_send_unsafe</title>
<!-- Node1 -->
<g id="Node000001" class="node">
<title>Node1</title>
<g id="a_Node000001"><a xlink:title=" ">
<polygon fill="#999999" stroke="#666666" points="624.25,-29 503.25,-29 503.25,0 624.25,0 624.25,-29"/>
<text xml:space="preserve" text-anchor="start" x="511.25" y="-15.5" font-family="Helvetica,sans-Serif" font-size="10.00">WrapMPI::Async::_send</text>
<text xml:space="preserve" text-anchor="middle" x="563.75" y="-5" font-family="Helvetica,sans-Serif" font-size="10.00">_unsafe</text>
</a>
</g>
</g>
<!-- Node2 -->
<g id="Node000002" class="node">
<title>Node2</title>
<g id="a_Node000002"><a xlink:href="namespaceWrapMPI_1_1Async.html#aea9ea25d4513c086000ad935de0c2a63" target="_top" xlink:title=" ">
<polygon fill="white" stroke="#666666" points="467.25,-42.75 351.5,-42.75 351.5,-24.25 467.25,-24.25 467.25,-42.75"/>
<text xml:space="preserve" text-anchor="middle" x="409.38" y="-29.25" font-family="Helvetica,sans-Serif" font-size="10.00">WrapMPI::Async::send</text>
</a>
</g>
</g>
<!-- Node1&#45;&gt;Node2 -->
<g id="edge1_Node000001_Node000002" class="edge">
<title>Node1&#45;&gt;Node2</title>
<g id="a_edge1_Node000001_Node000002"><a xlink:title=" ">
<path fill="none" stroke="#63b8ff" d="M491.62,-23.37C483.53,-24.38 475.37,-25.4 467.5,-26.38"/>
<polygon fill="#63b8ff" stroke="#63b8ff" points="491.97,-26.85 501.46,-22.14 491.11,-19.91 491.97,-26.85"/>
</a>
</g>
</g>
<!-- Node3 -->
<g id="Node000003" class="node">
<title>Node3</title>
<g id="a_Node000003"><a xlink:href="namespaceWrapMPI_1_1Async.html#a14ced5fc699f316ee5512f66052ec8ad" target="_top" xlink:title=" ">
<polygon fill="white" stroke="#666666" points="315.5,-23.75 189.25,-23.75 189.25,-5.25 315.5,-5.25 315.5,-23.75"/>
<text xml:space="preserve" text-anchor="middle" x="252.38" y="-10.25" font-family="Helvetica,sans-Serif" font-size="10.00">WrapMPI::Async::send_v</text>
</a>
</g>
</g>
<!-- Node1&#45;&gt;Node3 -->
<g id="edge4_Node000001_Node000003" class="edge">
<title>Node1&#45;&gt;Node3</title>
<g id="a_edge4_Node000001_Node000003"><a xlink:title=" ">
<path fill="none" stroke="#63b8ff" d="M491.73,-14.5C438.61,-14.5 366.67,-14.5 315.76,-14.5"/>
<polygon fill="#63b8ff" stroke="#63b8ff" points="491.59,-18 501.59,-14.5 491.59,-11 491.59,-18"/>
</a>
</g>
</g>
<!-- Node2&#45;&gt;Node3 -->
<g id="edge2_Node000002_Node000003" class="edge">
<title>Node2&#45;&gt;Node3</title>
<g id="a_edge2_Node000002_Node000003"><a xlink:title=" ">
<path fill="none" stroke="#63b8ff" d="M339.92,-25.11C331.92,-24.13 323.8,-23.13 315.89,-22.16"/>
<polygon fill="#63b8ff" stroke="#63b8ff" points="339.25,-28.55 349.6,-26.29 340.1,-21.6 339.25,-28.55"/>
</a>
</g>
</g>
<!-- Node4 -->
<g id="Node000004" class="node">
<title>Node4</title>
<g id="a_Node000004"><a xlink:href="classWrapMPI_1_1HostIterationPayload.html#a360c9268019c8ce8573f0abfe974414f" target="_top" xlink:title="Sends this payload to a specified MPI rank.">
<polygon fill="white" stroke="#666666" points="153.25,-29 0,-29 0,0 153.25,0 153.25,-29"/>
<text xml:space="preserve" text-anchor="start" x="8" y="-15.5" font-family="Helvetica,sans-Serif" font-size="10.00">WrapMPI::HostIterationPayload</text>
<text xml:space="preserve" text-anchor="middle" x="76.62" y="-5" font-family="Helvetica,sans-Serif" font-size="10.00">::send</text>
</a>
</g>
</g>
<!-- Node3&#45;&gt;Node4 -->
<g id="edge3_Node000003_Node000004" class="edge">
<title>Node3&#45;&gt;Node4</title>
<g id="a_edge3_Node000003_Node000004"><a xlink:title=" ">
<path fill="none" stroke="#63b8ff" d="M177.66,-14.5C169.73,-14.5 161.64,-14.5 153.69,-14.5"/>
<polygon fill="#63b8ff" stroke="#63b8ff" points="177.62,-18 187.62,-14.5 177.62,-11 177.62,-18"/>
</a>
</g>
</g>
</g>
</svg>
