<?xml version="1.0" encoding="UTF-8" standalone="no"?>
<!DOCTYPE svg PUBLIC "-//W3C//DTD SVG 1.1//EN"
 "http://www.w3.org/Graphics/SVG/1.1/DTD/svg11.dtd">
<!-- Generated by graphviz version 12.1.2 (0)
 -->
<!-- Title: Api::span_to_vec Pages: 1 -->
<svg width="418pt" height="48pt"
 viewBox="0.00 0.00 417.50 47.50" xmlns="http://www.w3.org/2000/svg" xmlns:xlink="http://www.w3.org/1999/xlink">
<g id="graph0" class="graph" transform="scale(1 1) rotate(0) translate(4 43.5)">
<title>Api::span_to_vec</title>
<!-- Node1 -->
<g id="Node000001" class="node">
<title>Node1</title>
<g id="a_Node000001"><a xlink:title=" ">
<polygon fill="#999999" stroke="#666666" points="409.5,-29 318.5,-29 318.5,-10.5 409.5,-10.5 409.5,-29"/>
<text text-anchor="middle" x="364" y="-15.5" font-family="Helvetica,sans-Serif" font-size="10.00">Api::span_to_vec</text>
</a>
</g>
</g>
<!-- Node2 -->
<g id="Node000002" class="node">
<title>Node2</title>
<g id="a_Node000002"><a xlink:href="structApi_1_1SimulationInstance.html#aa760a361f0899468e5e7d24b55734eb0" target="_top" xlink:title="Configure feed constants for the simulation.">
<polygon fill="white" stroke="#666666" points="282.5,-34.25 163,-34.25 163,-5.25 282.5,-5.25 282.5,-34.25"/>
<text text-anchor="start" x="171" y="-20.75" font-family="Helvetica,sans-Serif" font-size="10.00">Api::SimulationInstance</text>
<text text-anchor="middle" x="222.75" y="-10.25" font-family="Helvetica,sans-Serif" font-size="10.00">::set_feed_constant</text>
</a>
</g>
</g>
<!-- Node1&#45;&gt;Node2 -->
<g id="edge1_Node000001_Node000002" class="edge">
<title>Node1&#45;&gt;Node2</title>
<g id="a_edge1_Node000001_Node000002"><a xlink:title=" ">
<path fill="none" stroke="#63b8ff" d="M306.87,-19.75C299,-19.75 290.9,-19.75 282.98,-19.75"/>
<polygon fill="#63b8ff" stroke="#63b8ff" points="306.66,-23.25 316.66,-19.75 306.66,-16.25 306.66,-23.25"/>
</a>
</g>
</g>
<!-- Node3 -->
<g id="Node000003" class="node">
<title>Node3</title>
<g id="a_Node000003"><a xlink:href="structApi_1_1SimulationInstance.html#a1a8fec396e8646910f54a882b19e5b31" target="_top" xlink:title=" ">
<polygon fill="white" stroke="#666666" points="127,-39.5 0,-39.5 0,0 127,0 127,-39.5"/>
<text text-anchor="start" x="8" y="-26" font-family="Helvetica,sans-Serif" font-size="10.00">Api::SimulationInstance</text>
<text text-anchor="start" x="8" y="-15.5" font-family="Helvetica,sans-Serif" font-size="10.00">::set_feed_constant_from</text>
<text text-anchor="middle" x="63.5" y="-5" font-family="Helvetica,sans-Serif" font-size="10.00">_rvalue</text>
</a>
</g>
</g>
<!-- Node2&#45;&gt;Node3 -->
<g id="edge2_Node000002_Node000003" class="edge">
<title>Node2&#45;&gt;Node3</title>
<g id="a_edge2_Node000002_Node000003"><a xlink:title=" ">
<path fill="none" stroke="#63b8ff" d="M151.46,-19.75C143.39,-19.75 135.21,-19.75 127.25,-19.75"/>
<polygon fill="#63b8ff" stroke="#63b8ff" points="151.23,-23.25 161.23,-19.75 151.23,-16.25 151.23,-23.25"/>
</a>
</g>
</g>
</g>
</svg>
