<?xml version="1.0" encoding="UTF-8" standalone="no"?>
<!DOCTYPE svg PUBLIC "-//W3C//DTD SVG 1.1//EN"
 "http://www.w3.org/Graphics/SVG/1.1/DTD/svg11.dtd">
<!-- Generated by graphviz version 14.0.1 (0)
 -->
<!-- Title: PostProcessing::get_properties Pages: 1 -->
<svg width="593pt" height="84pt"
 viewBox="0.00 0.00 593.00 84.00" xmlns="http://www.w3.org/2000/svg" xmlns:xlink="http://www.w3.org/1999/xlink">
<g id="graph0" class="graph" transform="scale(1 1) rotate(0) translate(4 80)">
<title>PostProcessing::get_properties</title>
<!-- Node1 -->
<g id="Node000001" class="node">
<title>Node1</title>
<g id="a_Node000001"><a xlink:title=" ">
<polygon fill="#999999" stroke="#666666" points="104.5,-52 0,-52 0,-23 104.5,-23 104.5,-52"/>
<text xml:space="preserve" text-anchor="start" x="8" y="-38.5" font-family="Helvetica,sans-Serif" font-size="10.00">PostProcessing::get</text>
<text xml:space="preserve" text-anchor="middle" x="52.25" y="-28" font-family="Helvetica,sans-Serif" font-size="10.00">_properties</text>
</a>
</g>
</g>
<!-- Node2 -->
<g id="Node000002" class="node">
<title>Node2</title>
<g id="a_Node000002"><a xlink:href="classMC_1_1ParticlesContainer.html#a25d64f06c6f66817bc15bac225369a63" target="_top" xlink:title="Clean all the non&#45;idle particle even if number smaller than threshold.">
<polygon fill="white" stroke="#666666" points="259.25,-76 140.5,-76 140.5,-47 259.25,-47 259.25,-76"/>
<text xml:space="preserve" text-anchor="start" x="148.5" y="-62.5" font-family="Helvetica,sans-Serif" font-size="10.00">MC::ParticlesContainer</text>
<text xml:space="preserve" text-anchor="middle" x="199.88" y="-52" font-family="Helvetica,sans-Serif" font-size="10.00">::force_remove_dead</text>
</a>
</g>
</g>
<!-- Node1&#45;&gt;Node2 -->
<g id="edge1_Node000001_Node000002" class="edge">
<title>Node1&#45;&gt;Node2</title>
<g id="a_edge1_Node000001_Node000002"><a xlink:title=" ">
<path fill="none" stroke="#63b8ff" d="M104.59,-45.96C112.47,-47.26 120.72,-48.62 128.93,-49.97"/>
<polygon fill="#63b8ff" stroke="#63b8ff" points="128.11,-53.38 138.55,-51.56 129.25,-46.48 128.11,-53.38"/>
</a>
</g>
</g>
<!-- Node5 -->
<g id="Node000005" class="node">
<title>Node5</title>
<g id="a_Node000005"><a xlink:href="classMC_1_1ParticlesContainer.html#a30b264e87ae019596f9791f2fc60d52f" target="_top" xlink:title="Gets the number of particles in the container.">
<polygon fill="white" stroke="#666666" points="259.25,-29 140.5,-29 140.5,0 259.25,0 259.25,-29"/>
<text xml:space="preserve" text-anchor="start" x="148.5" y="-15.5" font-family="Helvetica,sans-Serif" font-size="10.00">MC::ParticlesContainer</text>
<text xml:space="preserve" text-anchor="middle" x="199.88" y="-5" font-family="Helvetica,sans-Serif" font-size="10.00">::n_particles</text>
</a>
</g>
</g>
<!-- Node1&#45;&gt;Node5 -->
<g id="edge4_Node000001_Node000005" class="edge">
<title>Node1&#45;&gt;Node5</title>
<g id="a_edge4_Node000001_Node000005"><a xlink:title=" ">
<path fill="none" stroke="#63b8ff" d="M104.59,-29.39C112.47,-28.15 120.72,-26.84 128.93,-25.55"/>
<polygon fill="#63b8ff" stroke="#63b8ff" points="129.21,-29.05 138.55,-24.03 128.12,-22.13 129.21,-29.05"/>
</a>
</g>
</g>
<!-- Node3 -->
<g id="Node000003" class="node">
<title>Node3</title>
<g id="a_Node000003"><a xlink:href="classMC_1_1ParticlesContainer.html#a57353f823ed074869300f29deb5c50b2" target="_top" xlink:title="Removes inactive particles from the container.">
<polygon fill="white" stroke="#666666" points="429.75,-76 295.25,-76 295.25,-47 429.75,-47 429.75,-76"/>
<text xml:space="preserve" text-anchor="start" x="303.25" y="-62.5" font-family="Helvetica,sans-Serif" font-size="10.00">MC::ParticlesContainer</text>
<text xml:space="preserve" text-anchor="middle" x="362.5" y="-52" font-family="Helvetica,sans-Serif" font-size="10.00">::remove_inactive_particles</text>
</a>
</g>
</g>
<!-- Node2&#45;&gt;Node3 -->
<g id="edge2_Node000002_Node000003" class="edge">
<title>Node2&#45;&gt;Node3</title>
<g id="a_edge2_Node000002_Node000003"><a xlink:title=" ">
<path fill="none" stroke="#63b8ff" d="M259.32,-61.5C267.18,-61.5 275.35,-61.5 283.49,-61.5"/>
<polygon fill="#63b8ff" stroke="#63b8ff" points="283.42,-65 293.42,-61.5 283.42,-58 283.42,-65"/>
</a>
</g>
</g>
<!-- Node4 -->
<g id="Node000004" class="node">
<title>Node4</title>
<g id="a_Node000004"><a xlink:href="classMC_1_1ParticlesContainer.html#a4fc94ae525191a5d034dce4866986c1e" target="_top" xlink:title=" ">
<polygon fill="white" stroke="#666666" points="584.5,-76 465.75,-76 465.75,-47 584.5,-47 584.5,-76"/>
<text xml:space="preserve" text-anchor="start" x="473.75" y="-62.5" font-family="Helvetica,sans-Serif" font-size="10.00">MC::ParticlesContainer</text>
<text xml:space="preserve" text-anchor="middle" x="525.12" y="-52" font-family="Helvetica,sans-Serif" font-size="10.00">::_resize</text>
</a>
</g>
</g>
<!-- Node3&#45;&gt;Node4 -->
<g id="edge3_Node000003_Node000004" class="edge">
<title>Node3&#45;&gt;Node4</title>
<g id="a_edge3_Node000003_Node000004"><a xlink:title=" ">
<path fill="none" stroke="#63b8ff" d="M430.22,-61.5C438.04,-61.5 446.04,-61.5 453.9,-61.5"/>
<polygon fill="#63b8ff" stroke="#63b8ff" points="453.78,-65 463.78,-61.5 453.78,-58 453.78,-65"/>
</a>
</g>
</g>
</g>
</svg>
