<?xml version="1.0" encoding="UTF-8" standalone="no"?>
<!DOCTYPE svg PUBLIC "-//W3C//DTD SVG 1.1//EN"
 "http://www.w3.org/Graphics/SVG/1.1/DTD/svg11.dtd">
<!-- Generated by graphviz version 14.0.1 (0)
 -->
<!-- Title: Api::SimulationInstance::SimulationInstance Pages: 1 -->
<svg width="283pt" height="55pt"
 viewBox="0.00 0.00 283.00 55.00" xmlns="http://www.w3.org/2000/svg" xmlns:xlink="http://www.w3.org/1999/xlink">
<g id="graph0" class="graph" transform="scale(1 1) rotate(0) translate(4 51)">
<title>Api::SimulationInstance::SimulationInstance</title>
<!-- Node1 -->
<g id="Node000001" class="node">
<title>Node1</title>
<g id="a_Node000001"><a xlink:title="Defaulted move constructor for efficient resource transfer.">
<polygon fill="#999999" stroke="#666666" points="119.5,-29 0,-29 0,0 119.5,0 119.5,-29"/>
<text xml:space="preserve" text-anchor="start" x="8" y="-15.5" font-family="Helvetica,sans-Serif" font-size="10.00">Api::SimulationInstance</text>
<text xml:space="preserve" text-anchor="middle" x="59.75" y="-5" font-family="Helvetica,sans-Serif" font-size="10.00">::SimulationInstance</text>
</a>
</g>
</g>
<!-- Node2 -->
<g id="Node000002" class="node">
<title>Node2</title>
<g id="a_Node000002"><a xlink:href="structApi_1_1SimulationInstance.html#a7a849ee5dd1d0d13a198aecee702944c" target="_top" xlink:title="Deleted copy constructor to prevent copying.">
<polygon fill="white" stroke="#666666" points="275,-29 155.5,-29 155.5,0 275,0 275,-29"/>
<text xml:space="preserve" text-anchor="start" x="163.5" y="-15.5" font-family="Helvetica,sans-Serif" font-size="10.00">Api::SimulationInstance</text>
<text xml:space="preserve" text-anchor="middle" x="215.25" y="-5" font-family="Helvetica,sans-Serif" font-size="10.00">::SimulationInstance</text>
</a>
</g>
</g>
<!-- Node1&#45;&gt;Node2 -->
<g id="edge1_Node000001_Node000002" class="edge">
<title>Node1&#45;&gt;Node2</title>
<g id="a_edge1_Node000001_Node000002"><a xlink:title=" ">
<path fill="none" stroke="#63b8ff" d="M119.66,-14.5C127.59,-14.5 135.79,-14.5 143.89,-14.5"/>
<polygon fill="#63b8ff" stroke="#63b8ff" points="143.73,-18 153.73,-14.5 143.73,-11 143.73,-18"/>
</a>
</g>
</g>
<!-- Node2&#45;&gt;Node2 -->
<g id="edge2_Node000002_Node000002" class="edge">
<title>Node2&#45;&gt;Node2</title>
<g id="a_edge2_Node000002_Node000002"><a xlink:title=" ">
<path fill="none" stroke="#63b8ff" d="M188.15,-29.21C181.62,-38.32 190.65,-47 215.25,-47 228.7,-47 237.5,-44.41 241.64,-40.56"/>
<polygon fill="#63b8ff" stroke="#63b8ff" points="245.13,-40.92 242.26,-30.72 238.14,-40.48 245.13,-40.92"/>
</a>
</g>
</g>
</g>
</svg>
