<?xml version="1.0" encoding="UTF-8" standalone="no"?>
<!DOCTYPE svg PUBLIC "-//W3C//DTD SVG 1.1//EN"
 "http://www.w3.org/Graphics/SVG/1.1/DTD/svg11.dtd">
<!-- Generated by graphviz version 14.0.1 (0)
 -->
<!-- Title: Models::Uptake::phi_pts Pages: 1 -->
<svg width="412pt" height="27pt"
 viewBox="0.00 0.00 412.00 27.00" xmlns="http://www.w3.org/2000/svg" xmlns:xlink="http://www.w3.org/1999/xlink">
<g id="graph0" class="graph" transform="scale(1 1) rotate(0) translate(4 22.5)">
<title>Models::Uptake::phi_pts</title>
<!-- Node1 -->
<g id="Node000001" class="node">
<title>Node1</title>
<g id="a_Node000001"><a xlink:title=" ">
<polygon fill="#999999" stroke="#666666" points="121.75,-18.5 0,-18.5 0,0 121.75,0 121.75,-18.5"/>
<text xml:space="preserve" text-anchor="middle" x="60.88" y="-5" font-family="Helvetica,sans-Serif" font-size="10.00">Models::Uptake::phi_pts</text>
</a>
</g>
</g>
<!-- Node2 -->
<g id="Node000002" class="node">
<title>Node2</title>
<g id="a_Node000002"><a xlink:href="structModels_1_1Uptake.html#a4678e2ba17d3206a046a14ed2460a6b2" target="_top" xlink:title=" ">
<polygon fill="white" stroke="#666666" points="263.75,-18.5 157.75,-18.5 157.75,0 263.75,0 263.75,-18.5"/>
<text xml:space="preserve" text-anchor="middle" x="210.75" y="-5" font-family="Helvetica,sans-Serif" font-size="10.00">Models::Uptake::f_G</text>
</a>
</g>
</g>
<!-- Node1&#45;&gt;Node2 -->
<g id="edge1_Node000001_Node000002" class="edge">
<title>Node1&#45;&gt;Node2</title>
<g id="a_edge1_Node000001_Node000002"><a xlink:title=" ">
<path fill="none" stroke="#63b8ff" d="M122.02,-9.25C129.87,-9.25 137.92,-9.25 145.83,-9.25"/>
<polygon fill="#63b8ff" stroke="#63b8ff" points="145.74,-12.75 155.74,-9.25 145.74,-5.75 145.74,-12.75"/>
</a>
</g>
</g>
<!-- Node3 -->
<g id="Node000003" class="node">
<title>Node3</title>
<g id="a_Node000003"><a xlink:href="namespaceModels.html#a98711ac2ebacdd7d1adea1524f8fc43b" target="_top" xlink:title=" ">
<polygon fill="white" stroke="#666666" points="404.25,-18.5 299.75,-18.5 299.75,0 404.25,0 404.25,-18.5"/>
<text xml:space="preserve" text-anchor="middle" x="352" y="-5" font-family="Helvetica,sans-Serif" font-size="10.00">Models::f_saturation</text>
</a>
</g>
</g>
<!-- Node2&#45;&gt;Node3 -->
<g id="edge2_Node000002_Node000003" class="edge">
<title>Node2&#45;&gt;Node3</title>
<g id="a_edge2_Node000002_Node000003"><a xlink:title=" ">
<path fill="none" stroke="#63b8ff" d="M264,-9.25C271.87,-9.25 280.05,-9.25 288.11,-9.25"/>
<polygon fill="#63b8ff" stroke="#63b8ff" points="287.87,-12.75 297.87,-9.25 287.87,-5.75 287.87,-12.75"/>
</a>
</g>
</g>
</g>
</svg>
