<?xml version="1.0" encoding="UTF-8" standalone="no"?>
<!DOCTYPE svg PUBLIC "-//W3C//DTD SVG 1.1//EN"
 "http://www.w3.org/Graphics/SVG/1.1/DTD/svg11.dtd">
<!-- Generated by graphviz version 14.0.1 (0)
 -->
<!-- Title: Simulation::KernelInline::CycleFunctors&lt; Space, Model &gt; Pages: 1 -->
<svg width="568pt" height="136pt"
 viewBox="0.00 0.00 568.00 136.00" xmlns="http://www.w3.org/2000/svg" xmlns:xlink="http://www.w3.org/1999/xlink">
<g id="graph0" class="graph" transform="scale(1 1) rotate(0) translate(4 132.25)">
<title>Simulation::KernelInline::CycleFunctors&lt; Space, Model &gt;</title>
<!-- Node1 -->
<g id="Node000001" class="node">
<title>Node1</title>
<g id="a_Node000001"><a xlink:title=" ">
<polygon fill="#999999" stroke="#666666" points="560.25,-110.5 434.75,-110.5 434.75,-71 560.25,-71 560.25,-110.5"/>
<text xml:space="preserve" text-anchor="start" x="442.75" y="-97" font-family="Helvetica,sans-Serif" font-size="10.00">Simulation::KernelInline</text>
<text xml:space="preserve" text-anchor="start" x="442.75" y="-86.5" font-family="Helvetica,sans-Serif" font-size="10.00">::CycleFunctors&lt; Space,</text>
<text xml:space="preserve" text-anchor="middle" x="497.5" y="-76" font-family="Helvetica,sans-Serif" font-size="10.00"> Model &gt;</text>
</a>
</g>
</g>
<!-- Node2 -->
<g id="Node000002" class="node">
<title>Node2</title>
<g id="a_Node000002"><a xlink:href="structSimulation_1_1KernelInline_1_1CycleFunctor.html" target="_top" xlink:title=" ">
<polygon fill="white" stroke="#666666" points="338.75,-128.25 214.75,-128.25 214.75,-99.25 338.75,-99.25 338.75,-128.25"/>
<text xml:space="preserve" text-anchor="start" x="222.75" y="-114.75" font-family="Helvetica,sans-Serif" font-size="10.00">Simulation::KernelInline</text>
<text xml:space="preserve" text-anchor="middle" x="276.75" y="-104.25" font-family="Helvetica,sans-Serif" font-size="10.00">::CycleFunctor&lt; Model &gt;</text>
</a>
</g>
</g>
<!-- Node2&#45;&gt;Node1 -->
<g id="edge1_Node000001_Node000002" class="edge">
<title>Node2&#45;&gt;Node1</title>
<g id="a_edge1_Node000001_Node000002"><a xlink:title=" ">
<path fill="none" stroke="#9a32cd" stroke-dasharray="5,2" d="M350.42,-106.11C377.66,-103.24 408.34,-100.02 434.53,-97.27"/>
<polygon fill="#9a32cd" stroke="#9a32cd" points="350.06,-102.63 340.48,-107.15 350.79,-109.59 350.06,-102.63"/>
</a>
</g>
<text xml:space="preserve" text-anchor="start" x="360.12" y="-108.99" font-family="Helvetica,sans-Serif" font-size="10.00" fill="grey">cycle_kernel</text>
</g>
<!-- Node3 -->
<g id="Node000003" class="node">
<title>Node3</title>
<g id="a_Node000003"><a xlink:href="structSimulation_1_1KernelInline_1_1MoveFunctor.html" target="_top" xlink:title=" ">
<polygon fill="white" stroke="#666666" points="335.75,-81.25 217.75,-81.25 217.75,-52.25 335.75,-52.25 335.75,-81.25"/>
<text xml:space="preserve" text-anchor="start" x="225.75" y="-67.75" font-family="Helvetica,sans-Serif" font-size="10.00">Simulation::KernelInline</text>
<text xml:space="preserve" text-anchor="middle" x="276.75" y="-57.25" font-family="Helvetica,sans-Serif" font-size="10.00">::MoveFunctor</text>
</a>
</g>
</g>
<!-- Node3&#45;&gt;Node1 -->
<g id="edge2_Node000001_Node000003" class="edge">
<title>Node3&#45;&gt;Node1</title>
<g id="a_edge2_Node000001_Node000003"><a xlink:title=" ">
<path fill="none" stroke="#9a32cd" stroke-dasharray="5,2" d="M347.35,-72.27C369.55,-74.23 394.21,-76.61 416.75,-79.25 422.45,-79.92 428.36,-80.66 434.29,-81.45"/>
<polygon fill="#9a32cd" stroke="#9a32cd" points="347.76,-68.8 337.49,-71.42 347.15,-75.77 347.76,-68.8"/>
</a>
</g>
<text xml:space="preserve" text-anchor="start" x="359.75" y="-83.25" font-family="Helvetica,sans-Serif" font-size="10.00" fill="grey">move_kernel</text>
</g>
<!-- Node4 -->
<g id="Node000004" class="node">
<title>Node4</title>
<g id="a_Node000004"><a xlink:href="structMC_1_1DomainState.html" target="_top" xlink:title=" ">
<polygon fill="white" stroke="#666666" points="143.5,-123.25 0,-123.25 0,-94.25 143.5,-94.25 143.5,-123.25"/>
<text xml:space="preserve" text-anchor="start" x="8" y="-109.75" font-family="Helvetica,sans-Serif" font-size="10.00">MC::DomainState&lt; Compute</text>
<text xml:space="preserve" text-anchor="middle" x="71.75" y="-99.25" font-family="Helvetica,sans-Serif" font-size="10.00">Space, true &gt;</text>
</a>
</g>
</g>
<!-- Node4&#45;&gt;Node3 -->
<g id="edge3_Node000003_Node000004" class="edge">
<title>Node4&#45;&gt;Node3</title>
<g id="a_edge3_Node000003_Node000004"><a xlink:title=" ">
<path fill="none" stroke="#9a32cd" stroke-dasharray="5,2" d="M154.87,-95.04C168.88,-92.46 183.26,-89.65 196.75,-86.75 203.94,-85.2 211.47,-83.46 218.91,-81.66"/>
<polygon fill="#9a32cd" stroke="#9a32cd" points="154.44,-91.56 145.23,-96.8 155.7,-98.45 154.44,-91.56"/>
</a>
</g>
<text xml:space="preserve" text-anchor="start" x="167.5" y="-97.56" font-family="Helvetica,sans-Serif" font-size="10.00" fill="grey">move</text>
</g>
<!-- Node5 -->
<g id="Node000005" class="node">
<title>Node5</title>
<g id="a_Node000005"><a xlink:href="structMC_1_1EventContainer.html" target="_top" xlink:title="Use to count events that occurs during Monte&#45;Carlo processing cycles.">
<polygon fill="white" stroke="#666666" points="124,-76 19.5,-76 19.5,-57.5 124,-57.5 124,-76"/>
<text xml:space="preserve" text-anchor="middle" x="71.75" y="-62.5" font-family="Helvetica,sans-Serif" font-size="10.00">MC::EventContainer</text>
</a>
</g>
</g>
<!-- Node5&#45;&gt;Node3 -->
<g id="edge4_Node000003_Node000005" class="edge">
<title>Node5&#45;&gt;Node3</title>
<g id="a_edge4_Node000003_Node000005"><a xlink:title=" ">
<path fill="none" stroke="#9a32cd" stroke-dasharray="5,2" d="M135.55,-66.75C161.69,-66.75 191.86,-66.75 217.5,-66.75"/>
<polygon fill="#9a32cd" stroke="#9a32cd" points="135.75,-63.25 125.75,-66.75 135.75,-70.25 135.75,-63.25"/>
</a>
</g>
<text xml:space="preserve" text-anchor="start" x="164.88" y="-70.75" font-family="Helvetica,sans-Serif" font-size="10.00" fill="grey">events</text>
</g>
<!-- Node6 -->
<g id="Node000006" class="node">
<title>Node6</title>
<g id="a_Node000006"><a xlink:href="classSimulation_1_1Probes.html" target="_top" xlink:title=" ">
<polygon fill="white" stroke="#666666" points="131.88,-39.5 11.62,-39.5 11.62,0 131.88,0 131.88,-39.5"/>
<text xml:space="preserve" text-anchor="start" x="19.62" y="-26" font-family="Helvetica,sans-Serif" font-size="10.00">Simulation::Probes</text>
<text xml:space="preserve" text-anchor="start" x="19.62" y="-15.5" font-family="Helvetica,sans-Serif" font-size="10.00">&lt; AutoGenerated::probe</text>
<text xml:space="preserve" text-anchor="middle" x="71.75" y="-5" font-family="Helvetica,sans-Serif" font-size="10.00">_buffer_size &gt;</text>
</a>
</g>
</g>
<!-- Node6&#45;&gt;Node3 -->
<g id="edge5_Node000003_Node000006" class="edge">
<title>Node6&#45;&gt;Node3</title>
<g id="a_edge5_Node000003_Node000006"><a xlink:title=" ">
<path fill="none" stroke="#9a32cd" stroke-dasharray="5,2" d="M142.94,-34.2C160.54,-37.97 179.36,-42.14 196.75,-46.25 204.06,-47.98 211.73,-49.87 219.29,-51.78"/>
<polygon fill="#9a32cd" stroke="#9a32cd" points="144.15,-30.87 133.64,-32.21 142.69,-37.72 144.15,-30.87"/>
</a>
</g>
<text xml:space="preserve" text-anchor="start" x="164.5" y="-50.25" font-family="Helvetica,sans-Serif" font-size="10.00" fill="grey">probes</text>
</g>
</g>
</svg>
