<?xml version="1.0" encoding="UTF-8" standalone="no"?>
<!DOCTYPE svg PUBLIC "-//W3C//DTD SVG 1.1//EN"
 "http://www.w3.org/Graphics/SVG/1.1/DTD/svg11.dtd">
<!-- Generated by graphviz version 14.0.1 (0)
 -->
<!-- Title: Models::Uptake::phi_permease Pages: 1 -->
<svg width="445pt" height="37pt"
 viewBox="0.00 0.00 445.00 37.00" xmlns="http://www.w3.org/2000/svg" xmlns:xlink="http://www.w3.org/1999/xlink">
<g id="graph0" class="graph" transform="scale(1 1) rotate(0) translate(4 33)">
<title>Models::Uptake::phi_permease</title>
<!-- Node1 -->
<g id="Node000001" class="node">
<title>Node1</title>
<g id="a_Node000001"><a xlink:title=" ">
<polygon fill="#999999" stroke="#666666" points="436.5,-29 333.5,-29 333.5,0 436.5,0 436.5,-29"/>
<text xml:space="preserve" text-anchor="start" x="341.5" y="-15.5" font-family="Helvetica,sans-Serif" font-size="10.00">Models::Uptake::phi</text>
<text xml:space="preserve" text-anchor="middle" x="385" y="-5" font-family="Helvetica,sans-Serif" font-size="10.00">_permease</text>
</a>
</g>
</g>
<!-- Node2 -->
<g id="Node000002" class="node">
<title>Node2</title>
<g id="a_Node000002"><a xlink:href="structModels_1_1Uptake.html#a4f234fec9f9f9ab26e607310ab95291f" target="_top" xlink:title=" ">
<polygon fill="white" stroke="#666666" points="297.5,-23.75 178.75,-23.75 178.75,-5.25 297.5,-5.25 297.5,-23.75"/>
<text xml:space="preserve" text-anchor="middle" x="238.12" y="-10.25" font-family="Helvetica,sans-Serif" font-size="10.00">Models::Uptake::uptake</text>
</a>
</g>
</g>
<!-- Node1&#45;&gt;Node2 -->
<g id="edge1_Node000001_Node000002" class="edge">
<title>Node1&#45;&gt;Node2</title>
<g id="a_edge1_Node000001_Node000002"><a xlink:title=" ">
<path fill="none" stroke="#63b8ff" d="M321.87,-14.5C313.94,-14.5 305.84,-14.5 297.96,-14.5"/>
<polygon fill="#63b8ff" stroke="#63b8ff" points="321.82,-18 331.82,-14.5 321.82,-11 321.82,-18"/>
</a>
</g>
</g>
<!-- Node3 -->
<g id="Node000003" class="node">
<title>Node3</title>
<g id="a_Node000003"><a xlink:href="structModels_1_1Uptake.html#aa49ff7f6c6612f124457541d05e080ae" target="_top" xlink:title=" ">
<polygon fill="white" stroke="#666666" points="142.75,-23.75 0,-23.75 0,-5.25 142.75,-5.25 142.75,-23.75"/>
<text xml:space="preserve" text-anchor="middle" x="71.38" y="-10.25" font-family="Helvetica,sans-Serif" font-size="10.00">Models::Uptake::uptake_step</text>
</a>
</g>
</g>
<!-- Node2&#45;&gt;Node3 -->
<g id="edge2_Node000002_Node000003" class="edge">
<title>Node2&#45;&gt;Node3</title>
<g id="a_edge2_Node000002_Node000003"><a xlink:title=" ">
<path fill="none" stroke="#63b8ff" d="M167.1,-14.5C159.17,-14.5 151.09,-14.5 143.15,-14.5"/>
<polygon fill="#63b8ff" stroke="#63b8ff" points="167.06,-18 177.06,-14.5 167.06,-11 167.06,-18"/>
</a>
</g>
</g>
</g>
</svg>
