<?xml version="1.0" encoding="UTF-8" standalone="no"?>
<!DOCTYPE svg PUBLIC "-//W3C//DTD SVG 1.1//EN"
 "http://www.w3.org/Graphics/SVG/1.1/DTD/svg11.dtd">
<!-- Generated by graphviz version 12.1.2 (0)
 -->
<!-- Title: Models::Uptake::division Pages: 1 -->
<svg width="299pt" height="121pt"
 viewBox="0.00 0.00 298.75 121.00" xmlns="http://www.w3.org/2000/svg" xmlns:xlink="http://www.w3.org/1999/xlink">
<g id="graph0" class="graph" transform="scale(1 1) rotate(0) translate(4 117)">
<title>Models::Uptake::division</title>
<!-- Node1 -->
<g id="Node000001" class="node">
<title>Node1</title>
<g id="a_Node000001"><a xlink:title=" ">
<polygon fill="#999999" stroke="#666666" points="290.75,-65.75 167.5,-65.75 167.5,-47.25 290.75,-47.25 290.75,-65.75"/>
<text text-anchor="middle" x="229.12" y="-52.25" font-family="Helvetica,sans-Serif" font-size="10.00">Models::Uptake::division</text>
</a>
</g>
</g>
<!-- Node2 -->
<g id="Node000002" class="node">
<title>Node2</title>
<g id="a_Node000002"><a xlink:href="structModels_1_1SimpleModel.html#a0c6a28fd790efe9193d1a3973f7239d7" target="_top" xlink:title=" ">
<polygon fill="white" stroke="#666666" points="120.62,-113 10.88,-113 10.88,-84 120.62,-84 120.62,-113"/>
<text text-anchor="start" x="18.88" y="-99.5" font-family="Helvetica,sans-Serif" font-size="10.00">Models::SimpleModel</text>
<text text-anchor="middle" x="65.75" y="-89" font-family="Helvetica,sans-Serif" font-size="10.00">::division</text>
</a>
</g>
</g>
<!-- Node1&#45;&gt;Node2 -->
<g id="edge1_Node000001_Node000002" class="edge">
<title>Node1&#45;&gt;Node2</title>
<g id="a_edge1_Node000001_Node000002"><a xlink:title=" ">
<path fill="none" stroke="#63b8ff" d="M179.61,-69.13C161.17,-73.93 140.05,-79.42 121.1,-84.35"/>
<polygon fill="#63b8ff" stroke="#63b8ff" points="180.44,-72.53 189.23,-66.62 178.67,-65.75 180.44,-72.53"/>
</a>
</g>
</g>
<!-- Node3 -->
<g id="Node000003" class="node">
<title>Node3</title>
<g id="a_Node000003"><a xlink:href="structModels_1_1TwoMeta.html#afcf107b4e7c86508762048d28608a5b9" target="_top" xlink:title=" ">
<polygon fill="white" stroke="#666666" points="131.5,-65.75 0,-65.75 0,-47.25 131.5,-47.25 131.5,-65.75"/>
<text text-anchor="middle" x="65.75" y="-52.25" font-family="Helvetica,sans-Serif" font-size="10.00">Models::TwoMeta::division</text>
</a>
</g>
</g>
<!-- Node1&#45;&gt;Node3 -->
<g id="edge2_Node000001_Node000003" class="edge">
<title>Node1&#45;&gt;Node3</title>
<g id="a_edge2_Node000001_Node000003"><a xlink:title=" ">
<path fill="none" stroke="#63b8ff" d="M155.63,-56.5C147.72,-56.5 139.7,-56.5 131.88,-56.5"/>
<polygon fill="#63b8ff" stroke="#63b8ff" points="155.6,-60 165.6,-56.5 155.6,-53 155.6,-60"/>
</a>
</g>
</g>
<!-- Node4 -->
<g id="Node000004" class="node">
<title>Node4</title>
<g id="a_Node000004"><a xlink:href="structModels_1_1TwoMetaDiv.html#a067be4bba4ba59abc0f3da680e6be052" target="_top" xlink:title=" ">
<polygon fill="white" stroke="#666666" points="119.5,-29 12,-29 12,0 119.5,0 119.5,-29"/>
<text text-anchor="start" x="20" y="-15.5" font-family="Helvetica,sans-Serif" font-size="10.00">Models::TwoMetaDiv</text>
<text text-anchor="middle" x="65.75" y="-5" font-family="Helvetica,sans-Serif" font-size="10.00">::division</text>
</a>
</g>
</g>
<!-- Node1&#45;&gt;Node4 -->
<g id="edge3_Node000001_Node000004" class="edge">
<title>Node1&#45;&gt;Node4</title>
<g id="a_edge3_Node000001_Node000004"><a xlink:title=" ">
<path fill="none" stroke="#63b8ff" d="M179.66,-43.89C160.81,-38.98 139.15,-33.34 119.87,-28.33"/>
<polygon fill="#63b8ff" stroke="#63b8ff" points="178.67,-47.25 189.23,-46.38 180.44,-40.47 178.67,-47.25"/>
</a>
</g>
</g>
</g>
</svg>
