<?xml version="1.0" encoding="UTF-8" standalone="no"?>
<!DOCTYPE svg PUBLIC "-//W3C//DTD SVG 1.1//EN"
 "http://www.w3.org/Graphics/SVG/1.1/DTD/svg11.dtd">
<!-- Generated by graphviz version 14.0.1 (0)
 -->
<!-- Title: Api::SimulationInstance::apply Pages: 1 -->
<svg width="1095pt" height="286pt"
 viewBox="0.00 0.00 1095.00 286.00" xmlns="http://www.w3.org/2000/svg" xmlns:xlink="http://www.w3.org/1999/xlink">
<g id="graph0" class="graph" transform="scale(1 1) rotate(0) translate(4 281.58)">
<title>Api::SimulationInstance::apply</title>
<!-- Node1 -->
<g id="Node000001" class="node">
<title>Node1</title>
<g id="a_Node000001"><a xlink:title="Apply the simulation configuration and prepare for execution.">
<polygon fill="#999999" stroke="#666666" points="119.5,-144 0,-144 0,-115 119.5,-115 119.5,-144"/>
<text xml:space="preserve" text-anchor="start" x="8" y="-130.5" font-family="Helvetica,sans-Serif" font-size="10.00">Api::SimulationInstance</text>
<text xml:space="preserve" text-anchor="middle" x="59.75" y="-120" font-family="Helvetica,sans-Serif" font-size="10.00">::apply</text>
</a>
</g>
</g>
<!-- Node1&#45;&gt;Node1 -->
<g id="edge1_Node000001_Node000001" class="edge">
<title>Node1&#45;&gt;Node1</title>
<g id="a_edge1_Node000001_Node000001"><a xlink:title=" ">
<path fill="none" stroke="#63b8ff" d="M32.65,-144.21C26.12,-153.32 35.15,-162 59.75,-162 73.2,-162 82,-159.41 86.14,-155.56"/>
<polygon fill="#63b8ff" stroke="#63b8ff" points="89.63,-155.92 86.76,-145.72 82.64,-155.48 89.63,-155.92"/>
</a>
</g>
</g>
<!-- Node2 -->
<g id="Node000002" class="node">
<title>Node2</title>
<g id="a_Node000002"><a xlink:href="structApi_1_1SimulationInstance.html#ad2abfa76ac4128d44b7c0c895f78b77b" target="_top" xlink:title="Load ad apply the simulation configuration and prepare for execution based on file.">
<polygon fill="white" stroke="#666666" points="275,-165 155.5,-165 155.5,-136 275,-136 275,-165"/>
<text xml:space="preserve" text-anchor="start" x="163.5" y="-151.5" font-family="Helvetica,sans-Serif" font-size="10.00">Api::SimulationInstance</text>
<text xml:space="preserve" text-anchor="middle" x="215.25" y="-141" font-family="Helvetica,sans-Serif" font-size="10.00">::apply_load</text>
</a>
</g>
</g>
<!-- Node1&#45;&gt;Node2 -->
<g id="edge2_Node000001_Node000002" class="edge">
<title>Node1&#45;&gt;Node2</title>
<g id="a_edge2_Node000001_Node000002"><a xlink:title=" ">
<path fill="none" stroke="#63b8ff" d="M119.66,-137.56C127.59,-138.64 135.79,-139.77 143.89,-140.87"/>
<polygon fill="#63b8ff" stroke="#63b8ff" points="143.36,-144.33 153.75,-142.22 144.31,-137.4 143.36,-144.33"/>
</a>
</g>
</g>
<!-- Node22 -->
<g id="Node000022" class="node">
<title>Node22</title>
<g id="a_Node000022"><a xlink:href="namespaceUnsafe.html#a703f3b37e1e69e30af8da78870f09df4" target="_top" xlink:title=" ">
<polygon fill="white" stroke="#666666" points="260.38,-117.75 170.12,-117.75 170.12,-99.25 260.38,-99.25 260.38,-117.75"/>
<text xml:space="preserve" text-anchor="middle" x="215.25" y="-104.25" font-family="Helvetica,sans-Serif" font-size="10.00">Unsafe::load_udf</text>
</a>
</g>
</g>
<!-- Node1&#45;&gt;Node22 -->
<g id="edge25_Node000001_Node000022" class="edge">
<title>Node1&#45;&gt;Node22</title>
<g id="a_edge25_Node000001_Node000022"><a xlink:title=" ">
<path fill="none" stroke="#63b8ff" d="M119.66,-121.44C132.47,-119.69 145.99,-117.84 158.68,-116.1"/>
<polygon fill="#63b8ff" stroke="#63b8ff" points="159.11,-119.58 168.54,-114.75 158.16,-112.64 159.11,-119.58"/>
</a>
</g>
</g>
<!-- Node3 -->
<g id="Node000003" class="node">
<title>Node3</title>
<g id="a_Node000003"><a xlink:href="namespaceCore.html#a877563df5a407318a381e12311022377" target="_top" xlink:title=" ">
<polygon fill="white" stroke="#666666" points="372,-159.75 311,-159.75 311,-141.25 372,-141.25 372,-159.75"/>
<text xml:space="preserve" text-anchor="middle" x="341.5" y="-146.25" font-family="Helvetica,sans-Serif" font-size="10.00">Core::load</text>
</a>
</g>
</g>
<!-- Node2&#45;&gt;Node3 -->
<g id="edge3_Node000002_Node000003" class="edge">
<title>Node2&#45;&gt;Node3</title>
<g id="a_edge3_Node000002_Node000003"><a xlink:title=" ">
<path fill="none" stroke="#63b8ff" d="M275.46,-150.5C283.6,-150.5 291.8,-150.5 299.51,-150.5"/>
<polygon fill="#63b8ff" stroke="#63b8ff" points="299.25,-154 309.25,-150.5 299.25,-147 299.25,-154"/>
</a>
</g>
</g>
<!-- Node4 -->
<g id="Node000004" class="node">
<title>Node4</title>
<g id="a_Node000004"><a xlink:href="namespaceCore.html#ab6528e76111960864b7e4741327b3049" target="_top" xlink:title="Start simulation.">
<polygon fill="white" stroke="#666666" points="471.25,-159.75 408,-159.75 408,-141.25 471.25,-141.25 471.25,-159.75"/>
<text xml:space="preserve" text-anchor="middle" x="439.62" y="-146.25" font-family="Helvetica,sans-Serif" font-size="10.00">Core::exec</text>
</a>
</g>
</g>
<!-- Node3&#45;&gt;Node4 -->
<g id="edge4_Node000003_Node000004" class="edge">
<title>Node3&#45;&gt;Node4</title>
<g id="a_edge4_Node000003_Node000004"><a xlink:title=" ">
<path fill="none" stroke="#63b8ff" d="M372.39,-150.5C380.03,-150.5 388.39,-150.5 396.52,-150.5"/>
<polygon fill="#63b8ff" stroke="#63b8ff" points="396.25,-154 406.25,-150.5 396.25,-147 396.25,-154"/>
</a>
</g>
</g>
<!-- Node5 -->
<g id="Node000005" class="node">
<title>Node5</title>
<g id="a_Node000005"><a xlink:href="namespaceCore.html#a23e6f3d22fc51ef9decabb2c220b27c4" target="_top" xlink:title=" ">
<polygon fill="white" stroke="#666666" points="628.25,-201.75 507.25,-201.75 507.25,-183.25 628.25,-183.25 628.25,-201.75"/>
<text xml:space="preserve" text-anchor="middle" x="567.75" y="-188.25" font-family="Helvetica,sans-Serif" font-size="10.00">Core::exporter_filename</text>
</a>
</g>
</g>
<!-- Node4&#45;&gt;Node5 -->
<g id="edge5_Node000004_Node000005" class="edge">
<title>Node4&#45;&gt;Node5</title>
<g id="a_edge5_Node000004_Node000005"><a xlink:title=" ">
<path fill="none" stroke="#63b8ff" d="M471.69,-153.61C482.86,-157.13 495.58,-161.64 507.25,-165.5 520.01,-169.72 534.43,-174.1 545.88,-178.51"/>
<polygon fill="#63b8ff" stroke="#63b8ff" points="544.2,-181.6 554.77,-182.33 546.97,-175.17 544.2,-181.6"/>
</a>
</g>
</g>
<!-- Node6 -->
<g id="Node000006" class="node">
<title>Node6</title>
<g id="a_Node000006"><a xlink:href="namespaceCore.html#afbce0beea293a7ccfdfc34a85b5e5e77" target="_top" xlink:title=" ">
<polygon fill="white" stroke="#666666" points="611.75,-165 523.75,-165 523.75,-136 611.75,-136 611.75,-165"/>
<text xml:space="preserve" text-anchor="start" x="531.75" y="-151.5" font-family="Helvetica,sans-Serif" font-size="10.00">Core::init_partial</text>
<text xml:space="preserve" text-anchor="middle" x="567.75" y="-141" font-family="Helvetica,sans-Serif" font-size="10.00">_exporter</text>
</a>
</g>
</g>
<!-- Node4&#45;&gt;Node6 -->
<g id="edge7_Node000004_Node000006" class="edge">
<title>Node4&#45;&gt;Node6</title>
<g id="a_edge7_Node000004_Node000006"><a xlink:title=" ">
<path fill="none" stroke="#63b8ff" d="M471.48,-150.5C483.67,-150.5 498.06,-150.5 511.91,-150.5"/>
<polygon fill="#63b8ff" stroke="#63b8ff" points="511.84,-154 521.84,-150.5 511.84,-147 511.84,-154"/>
</a>
</g>
</g>
<!-- Node13 -->
<g id="Node000013" class="node">
<title>Node13</title>
<g id="a_Node000013"><a xlink:href="namespacePostProcessing.html#a0e06c75e06cf43e767d5e3e8afab62f2" target="_top" xlink:title=" ">
<polygon fill="white" stroke="#666666" points="623.38,-118 512.12,-118 512.12,-89 623.38,-89 623.38,-118"/>
<text xml:space="preserve" text-anchor="start" x="520.12" y="-104.5" font-family="Helvetica,sans-Serif" font-size="10.00">PostProcessing::save</text>
<text xml:space="preserve" text-anchor="middle" x="567.75" y="-94" font-family="Helvetica,sans-Serif" font-size="10.00">_probes</text>
</a>
</g>
</g>
<!-- Node4&#45;&gt;Node13 -->
<g id="edge15_Node000004_Node000013" class="edge">
<title>Node4&#45;&gt;Node13</title>
<g id="a_edge15_Node000004_Node000013"><a xlink:title=" ">
<path fill="none" stroke="#63b8ff" d="M466.76,-140.76C481.1,-135.42 499.37,-128.61 516.37,-122.28"/>
<polygon fill="#63b8ff" stroke="#63b8ff" points="517.17,-125.71 525.32,-118.94 514.72,-119.15 517.17,-125.71"/>
</a>
</g>
</g>
<!-- Node21 -->
<g id="Node000021" class="node">
<title>Node21</title>
<g id="a_Node000021"><a xlink:href="classCore_1_1DataExporter.html#ad3b98151595b0962c089a7afcdb2a642" target="_top" xlink:title=" ">
<polygon fill="white" stroke="#666666" points="618.12,-71 517.38,-71 517.38,-42 618.12,-42 618.12,-71"/>
<text xml:space="preserve" text-anchor="start" x="525.38" y="-57.5" font-family="Helvetica,sans-Serif" font-size="10.00">Core::DataExporter</text>
<text xml:space="preserve" text-anchor="middle" x="567.75" y="-47" font-family="Helvetica,sans-Serif" font-size="10.00">::set_logger</text>
</a>
</g>
</g>
<!-- Node4&#45;&gt;Node21 -->
<g id="edge24_Node000004_Node000021" class="edge">
<title>Node4&#45;&gt;Node21</title>
<g id="a_edge24_Node000004_Node000021"><a xlink:title=" ">
<path fill="none" stroke="#63b8ff" d="M447.41,-141.12C458.47,-126.42 481.71,-97.85 507.25,-80.5 509.19,-79.18 511.22,-77.91 513.3,-76.7"/>
<polygon fill="#63b8ff" stroke="#63b8ff" points="514.79,-79.87 522.03,-72.14 511.54,-73.67 514.79,-79.87"/>
</a>
</g>
</g>
<!-- Node5&#45;&gt;Node4 -->
<g id="edge6_Node000005_Node000004" class="edge">
<title>Node5&#45;&gt;Node4</title>
<g id="a_edge6_Node000005_Node000004"><a xlink:title=" ">
<path fill="none" stroke="#63b8ff" d="M506.77,-183.34C490.97,-178.1 473.32,-171.69 460.23,-165.5"/>
<polygon fill="#63b8ff" stroke="#63b8ff" points="461.88,-162.42 451.4,-160.85 458.62,-168.61 461.88,-162.42"/>
</a>
</g>
</g>
<!-- Node7 -->
<g id="Node000007" class="node">
<title>Node7</title>
<g id="a_Node000007"><a xlink:href="classCore_1_1PartialExporter.html#a05cba8c28abaecce99f586d551a75f80" target="_top" xlink:title="Initializes the fields required for exporting data.">
<polygon fill="white" stroke="#666666" points="784.5,-259 675.5,-259 675.5,-230 784.5,-230 784.5,-259"/>
<text xml:space="preserve" text-anchor="start" x="683.5" y="-245.5" font-family="Helvetica,sans-Serif" font-size="10.00">Core::PartialExporter</text>
<text xml:space="preserve" text-anchor="middle" x="730" y="-235" font-family="Helvetica,sans-Serif" font-size="10.00">::init_fields</text>
</a>
</g>
</g>
<!-- Node6&#45;&gt;Node7 -->
<g id="edge8_Node000006_Node000007" class="edge">
<title>Node6&#45;&gt;Node7</title>
<g id="a_edge8_Node000006_Node000007"><a xlink:title=" ">
<path fill="none" stroke="#63b8ff" d="M612.17,-164.79C617.85,-167.57 623.37,-170.79 628.25,-174.5 649.19,-190.43 642.98,-206.01 664.25,-221.5 665.58,-222.47 666.95,-223.39 668.35,-224.29"/>
<polygon fill="#63b8ff" stroke="#63b8ff" points="666.29,-227.15 676.74,-228.93 669.68,-221.02 666.29,-227.15"/>
</a>
</g>
</g>
<!-- Node10 -->
<g id="Node000010" class="node">
<title>Node10</title>
<g id="a_Node000010"><a xlink:href="namespacePostProcessing.html#a9ff9231cbdf2a3c4e539c4638aba2445" target="_top" xlink:title=" ">
<polygon fill="white" stroke="#666666" points="785.62,-212 674.38,-212 674.38,-183 785.62,-183 785.62,-212"/>
<text xml:space="preserve" text-anchor="start" x="682.38" y="-198.5" font-family="Helvetica,sans-Serif" font-size="10.00">PostProcessing::save</text>
<text xml:space="preserve" text-anchor="middle" x="730" y="-188" font-family="Helvetica,sans-Serif" font-size="10.00">_particle_state</text>
</a>
</g>
</g>
<!-- Node6&#45;&gt;Node10 -->
<g id="edge12_Node000006_Node000010" class="edge">
<title>Node6&#45;&gt;Node10</title>
<g id="a_edge12_Node000006_Node000010"><a xlink:title=" ">
<path fill="none" stroke="#63b8ff" d="M612.12,-163.22C629.01,-168.17 648.68,-173.94 667.01,-179.32"/>
<polygon fill="#63b8ff" stroke="#63b8ff" points="665.89,-182.64 676.47,-182.09 667.86,-175.92 665.89,-182.64"/>
</a>
</g>
</g>
<!-- Node11 -->
<g id="Node000011" class="node">
<title>Node11</title>
<g id="a_Node000011"><a xlink:href="classCore_1_1PartialExporter.html#a450fb0c92efa4ee81b4083fc01f5e665" target="_top" xlink:title="Writes the number of particles in each compartment.">
<polygon fill="white" stroke="#666666" points="789,-165 671,-165 671,-136 789,-136 789,-165"/>
<text xml:space="preserve" text-anchor="start" x="679" y="-151.5" font-family="Helvetica,sans-Serif" font-size="10.00">Core::PartialExporter</text>
<text xml:space="preserve" text-anchor="middle" x="730" y="-141" font-family="Helvetica,sans-Serif" font-size="10.00">::write_number_particle</text>
</a>
</g>
</g>
<!-- Node6&#45;&gt;Node11 -->
<g id="edge13_Node000006_Node000011" class="edge">
<title>Node6&#45;&gt;Node11</title>
<g id="a_edge13_Node000006_Node000011"><a xlink:title=" ">
<path fill="none" stroke="#63b8ff" d="M612.12,-150.5C626.59,-150.5 643.1,-150.5 659.06,-150.5"/>
<polygon fill="#63b8ff" stroke="#63b8ff" points="659.04,-154 669.04,-150.5 659.04,-147 659.04,-154"/>
</a>
</g>
</g>
<!-- Node8 -->
<g id="Node000008" class="node">
<title>Node8</title>
<g id="a_Node000008"><a xlink:href="namespaceIO.html#a30cc77fc5c4d45d3b56ef6a299ce2383" target="_top" xlink:title=" ">
<polygon fill="white" stroke="#666666" points="1066.25,-178.75 1006,-178.75 1006,-160.25 1066.25,-160.25 1066.25,-178.75"/>
<text xml:space="preserve" text-anchor="middle" x="1036.12" y="-165.25" font-family="Helvetica,sans-Serif" font-size="10.00">IO::format</text>
</a>
</g>
</g>
<!-- Node7&#45;&gt;Node8 -->
<g id="edge9_Node000007_Node000008" class="edge">
<title>Node7&#45;&gt;Node8</title>
<g id="a_edge9_Node000007_Node000008"><a xlink:title=" ">
<path fill="none" stroke="#63b8ff" d="M771.64,-259.39C817.09,-273.52 891.89,-289.11 949.75,-263.5 984.05,-248.32 1010.47,-211.79 1024.33,-189"/>
<polygon fill="#63b8ff" stroke="#63b8ff" points="1027.35,-190.78 1029.35,-180.38 1021.3,-187.26 1027.35,-190.78"/>
</a>
</g>
</g>
<!-- Node9 -->
<g id="Node000009" class="node">
<title>Node9</title>
<g id="a_Node000009"><a xlink:href="classCore_1_1DataExporter.html#a9c60512b8e80f25d5f1f6cac29b27d07" target="_top" xlink:title=" ">
<polygon fill="white" stroke="#666666" points="941.12,-254 840.38,-254 840.38,-225 941.12,-225 941.12,-254"/>
<text xml:space="preserve" text-anchor="start" x="848.38" y="-240.5" font-family="Helvetica,sans-Serif" font-size="10.00">Core::DataExporter</text>
<text xml:space="preserve" text-anchor="middle" x="890.75" y="-230" font-family="Helvetica,sans-Serif" font-size="10.00">::prepare_matrix</text>
</a>
</g>
</g>
<!-- Node7&#45;&gt;Node9 -->
<g id="edge11_Node000007_Node000009" class="edge">
<title>Node7&#45;&gt;Node9</title>
<g id="a_edge11_Node000007_Node000009"><a xlink:title=" ">
<path fill="none" stroke="#63b8ff" d="M784.75,-242.81C798.87,-242.36 814.21,-241.88 828.68,-241.42"/>
<polygon fill="#63b8ff" stroke="#63b8ff" points="828.67,-244.93 838.56,-241.11 828.45,-237.93 828.67,-244.93"/>
</a>
</g>
</g>
<!-- Node8&#45;&gt;Node8 -->
<g id="edge10_Node000008_Node000008" class="edge">
<title>Node8&#45;&gt;Node8</title>
<g id="a_edge10_Node000008_Node000008"><a xlink:title=" ">
<path fill="none" stroke="#63b8ff" d="M1013.72,-179C1002.82,-187.57 1010.29,-196.75 1036.12,-196.75 1050.66,-196.75 1059.38,-193.84 1062.29,-189.78"/>
<polygon fill="#63b8ff" stroke="#63b8ff" points="1065.63,-188.72 1059.03,-180.42 1059.02,-191.02 1065.63,-188.72"/>
</a>
</g>
</g>
<!-- Node12 -->
<g id="Node000012" class="node">
<title>Node12</title>
<g id="a_Node000012"><a xlink:href="classCore_1_1DataExporter.html#a0af9b5e13d16339af1918f8e845193f9" target="_top" xlink:title=" ">
<polygon fill="white" stroke="#666666" points="941.12,-207 840.38,-207 840.38,-178 941.12,-178 941.12,-207"/>
<text xml:space="preserve" text-anchor="start" x="848.38" y="-193.5" font-family="Helvetica,sans-Serif" font-size="10.00">Core::DataExporter</text>
<text xml:space="preserve" text-anchor="middle" x="890.75" y="-183" font-family="Helvetica,sans-Serif" font-size="10.00">::append_matrix</text>
</a>
</g>
</g>
<!-- Node11&#45;&gt;Node12 -->
<g id="edge14_Node000011_Node000012" class="edge">
<title>Node11&#45;&gt;Node12</title>
<g id="a_edge14_Node000011_Node000012"><a xlink:title=" ">
<path fill="none" stroke="#63b8ff" d="M787.42,-165.43C800.99,-169.02 815.54,-172.87 829.29,-176.5"/>
<polygon fill="#63b8ff" stroke="#63b8ff" points="828.08,-179.8 838.64,-178.98 829.87,-173.04 828.08,-179.8"/>
</a>
</g>
</g>
<!-- Node14 -->
<g id="Node000014" class="node">
<title>Node14</title>
<g id="a_Node000014"><a xlink:href="namespacePostProcessing.html#adae52b6b518e25be1c920f36f196ef65" target="_top" xlink:title=" ">
<polygon fill="white" stroke="#666666" points="788.25,-118 671.75,-118 671.75,-89 788.25,-89 788.25,-118"/>
<text xml:space="preserve" text-anchor="start" x="679.75" y="-104.5" font-family="Helvetica,sans-Serif" font-size="10.00">PostProcessing::_save</text>
<text xml:space="preserve" text-anchor="middle" x="730" y="-94" font-family="Helvetica,sans-Serif" font-size="10.00">_probes</text>
</a>
</g>
</g>
<!-- Node13&#45;&gt;Node14 -->
<g id="edge16_Node000013_Node000014" class="edge">
<title>Node13&#45;&gt;Node14</title>
<g id="a_edge16_Node000013_Node000014"><a xlink:title=" ">
<path fill="none" stroke="#63b8ff" d="M623.45,-103.5C635.13,-103.5 647.62,-103.5 659.76,-103.5"/>
<polygon fill="#63b8ff" stroke="#63b8ff" points="659.75,-107 669.75,-103.5 659.75,-100 659.75,-107"/>
</a>
</g>
</g>
<!-- Node20 -->
<g id="Node000020" class="node">
<title>Node20</title>
<g id="a_Node000020"><a xlink:href="classSimulation_1_1SimulationUnit.html#a299bc32317c5f302dc16df3a3d7d6149" target="_top" xlink:title=" ">
<polygon fill="white" stroke="#666666" points="795.75,-71 664.25,-71 664.25,-42 795.75,-42 795.75,-71"/>
<text xml:space="preserve" text-anchor="start" x="672.25" y="-57.5" font-family="Helvetica,sans-Serif" font-size="10.00">Simulation::SimulationUnit</text>
<text xml:space="preserve" text-anchor="middle" x="730" y="-47" font-family="Helvetica,sans-Serif" font-size="10.00">::it_probes</text>
</a>
</g>
</g>
<!-- Node13&#45;&gt;Node20 -->
<g id="edge23_Node000013_Node000020" class="edge">
<title>Node13&#45;&gt;Node20</title>
<g id="a_edge23_Node000013_Node000020"><a xlink:title=" ">
<path fill="none" stroke="#63b8ff" d="M619.45,-88.63C634.65,-84.17 651.49,-79.23 667.32,-74.59"/>
<polygon fill="#63b8ff" stroke="#63b8ff" points="668.01,-78.03 676.62,-71.86 666.04,-71.32 668.01,-78.03"/>
</a>
</g>
</g>
<!-- Node15 -->
<g id="Node000015" class="node">
<title>Node15</title>
<g id="a_Node000015"><a xlink:href="classSimulation_1_1Probes.html#af54f1c8be6e49f63e8533d6a4e91cad3" target="_top" xlink:title=" ">
<polygon fill="white" stroke="#666666" points="940,-160 841.5,-160 841.5,-131 940,-131 940,-160"/>
<text xml:space="preserve" text-anchor="start" x="849.5" y="-146.5" font-family="Helvetica,sans-Serif" font-size="10.00">Simulation::Probes</text>
<text xml:space="preserve" text-anchor="middle" x="890.75" y="-136" font-family="Helvetica,sans-Serif" font-size="10.00">::clear</text>
</a>
</g>
</g>
<!-- Node14&#45;&gt;Node15 -->
<g id="edge17_Node000014_Node000015" class="edge">
<title>Node14&#45;&gt;Node15</title>
<g id="a_edge17_Node000014_Node000015"><a xlink:title=" ">
<path fill="none" stroke="#63b8ff" d="M787.42,-118.43C801.27,-122.09 816.14,-126.03 830.14,-129.73"/>
<polygon fill="#63b8ff" stroke="#63b8ff" points="829.12,-133.08 839.68,-132.25 830.91,-126.31 829.12,-133.08"/>
</a>
</g>
</g>
<!-- Node16 -->
<g id="Node000016" class="node">
<title>Node16</title>
<g id="a_Node000016"><a xlink:href="classSimulation_1_1Probes.html#a6345c8304e772a314dae935f742d518a" target="_top" xlink:title=" ">
<polygon fill="white" stroke="#666666" points="949.75,-112.75 831.75,-112.75 831.75,-94.25 949.75,-94.25 949.75,-112.75"/>
<text xml:space="preserve" text-anchor="middle" x="890.75" y="-99.25" font-family="Helvetica,sans-Serif" font-size="10.00">Simulation::Probes::get</text>
</a>
</g>
</g>
<!-- Node14&#45;&gt;Node16 -->
<g id="edge18_Node000014_Node000016" class="edge">
<title>Node14&#45;&gt;Node16</title>
<g id="a_edge18_Node000014_Node000016"><a xlink:title=" ">
<path fill="none" stroke="#63b8ff" d="M788.31,-103.5C798.62,-103.5 809.46,-103.5 820.07,-103.5"/>
<polygon fill="#63b8ff" stroke="#63b8ff" points="819.94,-107 829.94,-103.5 819.94,-100 819.94,-107"/>
</a>
</g>
</g>
<!-- Node17 -->
<g id="Node000017" class="node">
<title>Node17</title>
<g id="a_Node000017"><a xlink:href="classSimulation_1_1Probes.html#a2b8541ff7ad653204a955ff1feb78757" target="_top" xlink:title=" ">
<polygon fill="white" stroke="#666666" points="940,-76 841.5,-76 841.5,-47 940,-47 940,-76"/>
<text xml:space="preserve" text-anchor="start" x="849.5" y="-62.5" font-family="Helvetica,sans-Serif" font-size="10.00">Simulation::Probes</text>
<text xml:space="preserve" text-anchor="middle" x="890.75" y="-52" font-family="Helvetica,sans-Serif" font-size="10.00">::need_export</text>
</a>
</g>
</g>
<!-- Node14&#45;&gt;Node17 -->
<g id="edge19_Node000014_Node000017" class="edge">
<title>Node14&#45;&gt;Node17</title>
<g id="a_edge19_Node000014_Node000017"><a xlink:title=" ">
<path fill="none" stroke="#63b8ff" d="M787.42,-88.57C801.27,-84.91 816.14,-80.97 830.14,-77.27"/>
<polygon fill="#63b8ff" stroke="#63b8ff" points="830.91,-80.69 839.68,-74.75 829.12,-73.92 830.91,-80.69"/>
</a>
</g>
</g>
<!-- Node18 -->
<g id="Node000018" class="node">
<title>Node18</title>
<g id="a_Node000018"><a xlink:href="classCore_1_1PartialExporter.html#a53c54ce796df99b407f410beb01074c5" target="_top" xlink:title="Writes probe data to the export.">
<polygon fill="white" stroke="#666666" points="945.25,-29 836.25,-29 836.25,0 945.25,0 945.25,-29"/>
<text xml:space="preserve" text-anchor="start" x="844.25" y="-15.5" font-family="Helvetica,sans-Serif" font-size="10.00">Core::PartialExporter</text>
<text xml:space="preserve" text-anchor="middle" x="890.75" y="-5" font-family="Helvetica,sans-Serif" font-size="10.00">::write_probe</text>
</a>
</g>
</g>
<!-- Node14&#45;&gt;Node18 -->
<g id="edge20_Node000014_Node000018" class="edge">
<title>Node14&#45;&gt;Node18</title>
<g id="a_edge20_Node000014_Node000018"><a xlink:title=" ">
<path fill="none" stroke="#63b8ff" d="M781.47,-88.63C786.48,-86.26 791.34,-83.56 795.75,-80.5 816.21,-66.27 811.55,-52.1 831.75,-37.5 832.91,-36.66 834.11,-35.85 835.33,-35.06"/>
<polygon fill="#63b8ff" stroke="#63b8ff" points="836.86,-38.22 843.83,-30.24 833.41,-32.13 836.86,-38.22"/>
</a>
</g>
</g>
<!-- Node18&#45;&gt;Node8 -->
<g id="edge22_Node000018_Node000008" class="edge">
<title>Node18&#45;&gt;Node8</title>
<g id="a_edge22_Node000018_Node000008"><a xlink:title=" ">
<path fill="none" stroke="#63b8ff" d="M937.62,-29.48C941.93,-31.81 946.07,-34.48 949.75,-37.5 987.77,-68.69 1014.56,-121.36 1027.1,-149.83"/>
<polygon fill="#63b8ff" stroke="#63b8ff" points="1023.74,-150.87 1030.87,-158.7 1030.18,-148.13 1023.74,-150.87"/>
</a>
</g>
</g>
<!-- Node19 -->
<g id="Node000019" class="node">
<title>Node19</title>
<g id="a_Node000019"><a xlink:href="classCore_1_1DataExporter.html#a0b0b79f3932c4eb905704a852248c857" target="_top" xlink:title=" ">
<polygon fill="white" stroke="#666666" points="1086.5,-29 985.75,-29 985.75,0 1086.5,0 1086.5,-29"/>
<text xml:space="preserve" text-anchor="start" x="993.75" y="-15.5" font-family="Helvetica,sans-Serif" font-size="10.00">Core::DataExporter</text>
<text xml:space="preserve" text-anchor="middle" x="1036.12" y="-5" font-family="Helvetica,sans-Serif" font-size="10.00">::append_array</text>
</a>
</g>
</g>
<!-- Node18&#45;&gt;Node19 -->
<g id="edge21_Node000018_Node000019" class="edge">
<title>Node18&#45;&gt;Node19</title>
<g id="a_edge21_Node000018_Node000019"><a xlink:title=" ">
<path fill="none" stroke="#63b8ff" d="M945.55,-14.5C954.81,-14.5 964.5,-14.5 973.94,-14.5"/>
<polygon fill="#63b8ff" stroke="#63b8ff" points="973.78,-18 983.78,-14.5 973.78,-11 973.78,-18"/>
</a>
</g>
</g>
</g>
</svg>
