<?xml version="1.0" encoding="UTF-8" standalone="no"?>
<!DOCTYPE svg PUBLIC "-//W3C//DTD SVG 1.1//EN"
 "http://www.w3.org/Graphics/SVG/1.1/DTD/svg11.dtd">
<!-- Generated by graphviz version 12.1.2 (0)
 -->
<!-- Title: Models::TwoMeta::division Pages: 1 -->
<svg width="746pt" height="51pt"
 viewBox="0.00 0.00 745.75 50.75" xmlns="http://www.w3.org/2000/svg" xmlns:xlink="http://www.w3.org/1999/xlink">
<g id="graph0" class="graph" transform="scale(1 1) rotate(0) translate(4 46.75)">
<title>Models::TwoMeta::division</title>
<!-- Node1 -->
<g id="Node000001" class="node">
<title>Node1</title>
<g id="a_Node000001"><a xlink:title=" ">
<polygon fill="#999999" stroke="#666666" points="131.5,-23.75 0,-23.75 0,-5.25 131.5,-5.25 131.5,-23.75"/>
<text text-anchor="middle" x="65.75" y="-10.25" font-family="Helvetica,sans-Serif" font-size="10.00">Models::TwoMeta::division</text>
</a>
</g>
</g>
<!-- Node2 -->
<g id="Node000002" class="node">
<title>Node2</title>
<g id="a_Node000002"><a xlink:href="structModels_1_1Uptake.html#a81f6d63498b3036a75880ed7a5c48d6a" target="_top" xlink:title=" ">
<polygon fill="white" stroke="#666666" points="290.75,-42.75 167.5,-42.75 167.5,-24.25 290.75,-24.25 290.75,-42.75"/>
<text text-anchor="middle" x="229.12" y="-29.25" font-family="Helvetica,sans-Serif" font-size="10.00">Models::Uptake::division</text>
</a>
</g>
</g>
<!-- Node1&#45;&gt;Node2 -->
<g id="edge1_Node000001_Node000002" class="edge">
<title>Node1&#45;&gt;Node2</title>
<g id="a_edge1_Node000001_Node000002"><a xlink:title=" ">
<path fill="none" stroke="#63b8ff" d="M131.92,-22.17C139.83,-23.1 147.94,-24.06 155.95,-25"/>
<polygon fill="#63b8ff" stroke="#63b8ff" points="155.31,-28.45 165.65,-26.14 156.12,-21.5 155.31,-28.45"/>
</a>
</g>
</g>
<!-- Node3 -->
<g id="Node000003" class="node">
<title>Node3</title>
<g id="a_Node000003"><a xlink:href="structMC_1_1Distributions_1_1TruncatedNormal.html#af6cfcdb1f39978352e55fc5c5f729462" target="_top" xlink:title=" ">
<polygon fill="white" stroke="#666666" points="468.75,-29 326.75,-29 326.75,0 468.75,0 468.75,-29"/>
<text text-anchor="start" x="334.75" y="-15.5" font-family="Helvetica,sans-Serif" font-size="10.00">MC::Distributions::</text>
<text text-anchor="middle" x="397.75" y="-5" font-family="Helvetica,sans-Serif" font-size="10.00">TruncatedNormal::draw_from</text>
</a>
</g>
</g>
<!-- Node1&#45;&gt;Node3 -->
<g id="edge5_Node000001_Node000003" class="edge">
<title>Node1&#45;&gt;Node3</title>
<g id="a_edge5_Node000001_Node000003"><a xlink:title=" ">
<path fill="none" stroke="#63b8ff" d="M131.95,-14.5C184.4,-14.5 258.41,-14.5 314.86,-14.5"/>
<polygon fill="#63b8ff" stroke="#63b8ff" points="314.75,-18 324.75,-14.5 314.75,-11 314.75,-18"/>
</a>
</g>
</g>
<!-- Node2&#45;&gt;Node3 -->
<g id="edge2_Node000002_Node000003" class="edge">
<title>Node2&#45;&gt;Node3</title>
<g id="a_edge2_Node000002_Node000003"><a xlink:title=" ">
<path fill="none" stroke="#63b8ff" d="M291.22,-26.53C298.99,-25.65 307.03,-24.73 315.05,-23.82"/>
<polygon fill="#63b8ff" stroke="#63b8ff" points="315.31,-27.31 324.85,-22.7 314.52,-20.35 315.31,-27.31"/>
</a>
</g>
</g>
<!-- Node4 -->
<g id="Node000004" class="node">
<title>Node4</title>
<g id="a_Node000004"><a xlink:href="namespaceMC_1_1Distributions.html#a3c07f6cf61b1c67ea9b2b3e0d6c42cc7" target="_top" xlink:title="Computes the inverse CDF (probit function) of a normal distribution.">
<polygon fill="white" stroke="#666666" points="603.25,-29 504.75,-29 504.75,0 603.25,0 603.25,-29"/>
<text text-anchor="start" x="512.75" y="-15.5" font-family="Helvetica,sans-Serif" font-size="10.00">MC::Distributions::</text>
<text text-anchor="middle" x="554" y="-5" font-family="Helvetica,sans-Serif" font-size="10.00">norminv</text>
</a>
</g>
</g>
<!-- Node3&#45;&gt;Node4 -->
<g id="edge3_Node000003_Node000004" class="edge">
<title>Node3&#45;&gt;Node4</title>
<g id="a_edge3_Node000003_Node000004"><a xlink:title=" ">
<path fill="none" stroke="#63b8ff" d="M469.1,-14.5C477.11,-14.5 485.22,-14.5 493.07,-14.5"/>
<polygon fill="#63b8ff" stroke="#63b8ff" points="492.85,-18 502.85,-14.5 492.85,-11 492.85,-18"/>
</a>
</g>
</g>
<!-- Node5 -->
<g id="Node000005" class="node">
<title>Node5</title>
<g id="a_Node000005"><a xlink:href="namespaceMC_1_1Distributions.html#a351272c0fa13e73d23c7b1caf92e858f" target="_top" xlink:title="Computes an approximation of the inverse error function.">
<polygon fill="white" stroke="#666666" points="737.75,-29 639.25,-29 639.25,0 737.75,0 737.75,-29"/>
<text text-anchor="start" x="647.25" y="-15.5" font-family="Helvetica,sans-Serif" font-size="10.00">MC::Distributions::</text>
<text text-anchor="middle" x="688.5" y="-5" font-family="Helvetica,sans-Serif" font-size="10.00">erfinv</text>
</a>
</g>
</g>
<!-- Node4&#45;&gt;Node5 -->
<g id="edge4_Node000004_Node000005" class="edge">
<title>Node4&#45;&gt;Node5</title>
<g id="a_edge4_Node000004_Node000005"><a xlink:title=" ">
<path fill="none" stroke="#63b8ff" d="M603.59,-14.5C611.42,-14.5 619.6,-14.5 627.66,-14.5"/>
<polygon fill="#63b8ff" stroke="#63b8ff" points="627.41,-18 637.41,-14.5 627.41,-11 627.41,-18"/>
</a>
</g>
</g>
</g>
</svg>
