<?xml version="1.0" encoding="UTF-8" standalone="no"?>
<!DOCTYPE svg PUBLIC "-//W3C//DTD SVG 1.1//EN"
 "http://www.w3.org/Graphics/SVG/1.1/DTD/svg11.dtd">
<!-- Generated by graphviz version 12.1.2 (0)
 -->
<!-- Title: Simulation::KernelInline::MoveFunctor::handle_exit Pages: 1 -->
<svg width="594pt" height="84pt"
 viewBox="0.00 0.00 594.00 84.00" xmlns="http://www.w3.org/2000/svg" xmlns:xlink="http://www.w3.org/1999/xlink">
<g id="graph0" class="graph" transform="scale(1 1) rotate(0) translate(4 80)">
<title>Simulation::KernelInline::MoveFunctor::handle_exit</title>
<!-- Node1 -->
<g id="Node000001" class="node">
<title>Node1</title>
<g id="a_Node000001"><a xlink:title=" ">
<polygon fill="#999999" stroke="#666666" points="133.75,-52 0,-52 0,-23 133.75,-23 133.75,-52"/>
<text text-anchor="start" x="8" y="-38.5" font-family="Helvetica,sans-Serif" font-size="10.00">Simulation::KernelInline</text>
<text text-anchor="middle" x="66.88" y="-28" font-family="Helvetica,sans-Serif" font-size="10.00">::MoveFunctor::handle_exit</text>
</a>
</g>
</g>
<!-- Node2 -->
<g id="Node000002" class="node">
<title>Node2</title>
<g id="a_Node000002"><a xlink:href="namespaceSimulation_1_1KernelInline.html#a7a29d7da817caed279a1f87044177942" target="_top" xlink:title=" ">
<polygon fill="white" stroke="#666666" points="287.75,-76 169.75,-76 169.75,-47 287.75,-47 287.75,-76"/>
<text text-anchor="start" x="177.75" y="-62.5" font-family="Helvetica,sans-Serif" font-size="10.00">Simulation::KernelInline</text>
<text text-anchor="middle" x="228.75" y="-52" font-family="Helvetica,sans-Serif" font-size="10.00">::probability_leaving</text>
</a>
</g>
</g>
<!-- Node1&#45;&gt;Node2 -->
<g id="edge1_Node000001_Node000002" class="edge">
<title>Node1&#45;&gt;Node2</title>
<g id="a_edge1_Node000001_Node000002"><a xlink:title=" ">
<path fill="none" stroke="#63b8ff" d="M133.83,-47.4C141.83,-48.6 150.04,-49.83 158.1,-51.04"/>
<polygon fill="#63b8ff" stroke="#63b8ff" points="157.46,-54.49 167.87,-52.51 158.5,-47.56 157.46,-54.49"/>
</a>
</g>
</g>
<!-- Node4 -->
<g id="Node000004" class="node">
<title>Node4</title>
<g id="a_Node000004"><a xlink:href="structMC_1_1EventContainer.html#a117575ad89e1abca8ad66cb704c18bd5" target="_top" xlink:title=" ">
<polygon fill="white" stroke="#666666" points="281,-29 176.5,-29 176.5,0 281,0 281,-29"/>
<text text-anchor="start" x="184.5" y="-15.5" font-family="Helvetica,sans-Serif" font-size="10.00">MC::EventContainer</text>
<text text-anchor="middle" x="228.75" y="-5" font-family="Helvetica,sans-Serif" font-size="10.00">::wrap_incr</text>
</a>
</g>
</g>
<!-- Node1&#45;&gt;Node4 -->
<g id="edge3_Node000001_Node000004" class="edge">
<title>Node1&#45;&gt;Node4</title>
<g id="a_edge3_Node000001_Node000004"><a xlink:title=" ">
<path fill="none" stroke="#63b8ff" d="M133.83,-28.01C144.07,-26.54 154.64,-25.02 164.82,-23.55"/>
<polygon fill="#63b8ff" stroke="#63b8ff" points="165.21,-27.03 174.61,-22.14 164.22,-20.1 165.21,-27.03"/>
</a>
</g>
</g>
<!-- Node3 -->
<g id="Node000003" class="node">
<title>Node3</title>
<g id="a_Node000003"><a xlink:href="namespaceSimulation_1_1KernelInline.html#a51d881a6b6159d9839b53d9b6f607b65" target="_top" xlink:title=" ">
<polygon fill="white" stroke="#666666" points="460.5,-70.75 323.75,-70.75 323.75,-52.25 460.5,-52.25 460.5,-70.75"/>
<text text-anchor="middle" x="392.12" y="-57.25" font-family="Helvetica,sans-Serif" font-size="10.00">Simulation::KernelInline::_ln</text>
</a>
</g>
</g>
<!-- Node2&#45;&gt;Node3 -->
<g id="edge2_Node000002_Node000003" class="edge">
<title>Node2&#45;&gt;Node3</title>
<g id="a_edge2_Node000002_Node000003"><a xlink:title=" ">
<path fill="none" stroke="#63b8ff" d="M288.01,-61.5C295.8,-61.5 303.9,-61.5 311.98,-61.5"/>
<polygon fill="#63b8ff" stroke="#63b8ff" points="311.83,-65 321.83,-61.5 311.83,-58 311.83,-65"/>
</a>
</g>
</g>
<!-- Node5 -->
<g id="Node000005" class="node">
<title>Node5</title>
<g id="a_Node000005"><a xlink:href="structMC_1_1EventContainer.html#a70d7122fe5d2521f91e871816ea83e61" target="_top" xlink:title="Increment specific event counter.">
<polygon fill="white" stroke="#666666" points="444.38,-29 339.88,-29 339.88,0 444.38,0 444.38,-29"/>
<text text-anchor="start" x="347.88" y="-15.5" font-family="Helvetica,sans-Serif" font-size="10.00">MC::EventContainer</text>
<text text-anchor="middle" x="392.12" y="-5" font-family="Helvetica,sans-Serif" font-size="10.00">::incr</text>
</a>
</g>
</g>
<!-- Node4&#45;&gt;Node5 -->
<g id="edge4_Node000004_Node000005" class="edge">
<title>Node4&#45;&gt;Node5</title>
<g id="a_edge4_Node000004_Node000005"><a xlink:title=" ">
<path fill="none" stroke="#63b8ff" d="M281.25,-14.5C296.25,-14.5 312.79,-14.5 328.4,-14.5"/>
<polygon fill="#63b8ff" stroke="#63b8ff" points="328.04,-18 338.04,-14.5 328.04,-11 328.04,-18"/>
</a>
</g>
</g>
<!-- Node6 -->
<g id="Node000006" class="node">
<title>Node6</title>
<g id="a_Node000006"><a xlink:href="namespaceMC.html#ae91609aafa31939cedd6775cc5adafc4" target="_top" xlink:title="inline getter, converts event to its value in order to be use as array index">
<polygon fill="white" stroke="#666666" points="586,-23.75 496.5,-23.75 496.5,-5.25 586,-5.25 586,-23.75"/>
<text text-anchor="middle" x="541.25" y="-10.25" font-family="Helvetica,sans-Serif" font-size="10.00">MC::event_index</text>
</a>
</g>
</g>
<!-- Node5&#45;&gt;Node6 -->
<g id="edge5_Node000005_Node000006" class="edge">
<title>Node5&#45;&gt;Node6</title>
<g id="a_edge5_Node000005_Node000006"><a xlink:title=" ">
<path fill="none" stroke="#63b8ff" d="M444.58,-14.5C457.66,-14.5 471.76,-14.5 485.01,-14.5"/>
<polygon fill="#63b8ff" stroke="#63b8ff" points="484.88,-18 494.88,-14.5 484.88,-11 484.88,-18"/>
</a>
</g>
</g>
</g>
</svg>
