<?xml version="1.0" encoding="UTF-8" standalone="no"?>
<!DOCTYPE svg PUBLIC "-//W3C//DTD SVG 1.1//EN"
 "http://www.w3.org/Graphics/SVG/1.1/DTD/svg11.dtd">
<!-- Generated by graphviz version 14.0.1 (0)
 -->
<!-- Title: Api::SimulationInstance::exec Pages: 1 -->
<svg width="842pt" height="335pt"
 viewBox="0.00 0.00 842.00 335.00" xmlns="http://www.w3.org/2000/svg" xmlns:xlink="http://www.w3.org/1999/xlink">
<g id="graph0" class="graph" transform="scale(1 1) rotate(0) translate(4 330.5)">
<title>Api::SimulationInstance::exec</title>
<!-- Node1 -->
<g id="Node000001" class="node">
<title>Node1</title>
<g id="a_Node000001"><a xlink:title="Execute the simulation.">
<polygon fill="#999999" stroke="#666666" points="119.5,-260 0,-260 0,-231 119.5,-231 119.5,-260"/>
<text xml:space="preserve" text-anchor="start" x="8" y="-246.5" font-family="Helvetica,sans-Serif" font-size="10.00">Api::SimulationInstance</text>
<text xml:space="preserve" text-anchor="middle" x="59.75" y="-236" font-family="Helvetica,sans-Serif" font-size="10.00">::exec</text>
</a>
</g>
</g>
<!-- Node2 -->
<g id="Node000002" class="node">
<title>Node2</title>
<g id="a_Node000002"><a xlink:href="namespaceCore.html#ab6528e76111960864b7e4741327b3049" target="_top" xlink:title="Start simulation.">
<polygon fill="white" stroke="#666666" points="218.75,-186.75 155.5,-186.75 155.5,-168.25 218.75,-168.25 218.75,-186.75"/>
<text xml:space="preserve" text-anchor="middle" x="187.12" y="-173.25" font-family="Helvetica,sans-Serif" font-size="10.00">Core::exec</text>
</a>
</g>
</g>
<!-- Node1&#45;&gt;Node2 -->
<g id="edge1_Node000001_Node000002" class="edge">
<title>Node1&#45;&gt;Node2</title>
<g id="a_edge1_Node000001_Node000002"><a xlink:title=" ">
<path fill="none" stroke="#63b8ff" d="M88.26,-230.58C109.11,-219.27 137.62,-203.81 158.49,-192.49"/>
<polygon fill="#63b8ff" stroke="#63b8ff" points="159.89,-195.71 167.01,-187.87 156.55,-189.56 159.89,-195.71"/>
</a>
</g>
</g>
<!-- Node6 -->
<g id="Node000006" class="node">
<title>Node6</title>
<g id="a_Node000006"><a xlink:href="namespaceIO.html#a30cc77fc5c4d45d3b56ef6a299ce2383" target="_top" xlink:title=" ">
<polygon fill="white" stroke="#666666" points="813.75,-295.75 753.5,-295.75 753.5,-277.25 813.75,-277.25 813.75,-295.75"/>
<text xml:space="preserve" text-anchor="middle" x="783.62" y="-282.25" font-family="Helvetica,sans-Serif" font-size="10.00">IO::format</text>
</a>
</g>
</g>
<!-- Node1&#45;&gt;Node6 -->
<g id="edge22_Node000001_Node000006" class="edge">
<title>Node1&#45;&gt;Node6</title>
<g id="a_edge22_Node000001_Node000006"><a xlink:title=" ">
<path fill="none" stroke="#63b8ff" d="M87.97,-260.36C133.43,-283.74 228.31,-326.5 314.25,-326.5 314.25,-326.5 314.25,-326.5 478.5,-326.5 573.41,-326.5 683.57,-307.11 741.75,-295.33"/>
<polygon fill="#63b8ff" stroke="#63b8ff" points="742.44,-298.76 751.53,-293.32 741.03,-291.91 742.44,-298.76"/>
</a>
</g>
</g>
<!-- Node3 -->
<g id="Node000003" class="node">
<title>Node3</title>
<g id="a_Node000003"><a xlink:href="namespaceCore.html#a23e6f3d22fc51ef9decabb2c220b27c4" target="_top" xlink:title=" ">
<polygon fill="white" stroke="#666666" points="375.75,-165.75 254.75,-165.75 254.75,-147.25 375.75,-147.25 375.75,-165.75"/>
<text xml:space="preserve" text-anchor="middle" x="315.25" y="-152.25" font-family="Helvetica,sans-Serif" font-size="10.00">Core::exporter_filename</text>
</a>
</g>
</g>
<!-- Node2&#45;&gt;Node3 -->
<g id="edge2_Node000002_Node000003" class="edge">
<title>Node2&#45;&gt;Node3</title>
<g id="a_edge2_Node000002_Node000003"><a xlink:title=" ">
<path fill="none" stroke="#63b8ff" d="M213.35,-167.77C222.15,-165.66 232.51,-163.54 243.19,-161.63"/>
<polygon fill="#63b8ff" stroke="#63b8ff" points="243.61,-165.11 252.88,-159.98 242.44,-158.21 243.61,-165.11"/>
</a>
</g>
</g>
<!-- Node4 -->
<g id="Node000004" class="node">
<title>Node4</title>
<g id="a_Node000004"><a xlink:href="namespaceCore.html#afbce0beea293a7ccfdfc34a85b5e5e77" target="_top" xlink:title=" ">
<polygon fill="white" stroke="#666666" points="359.25,-260 271.25,-260 271.25,-231 359.25,-231 359.25,-260"/>
<text xml:space="preserve" text-anchor="start" x="279.25" y="-246.5" font-family="Helvetica,sans-Serif" font-size="10.00">Core::init_partial</text>
<text xml:space="preserve" text-anchor="middle" x="315.25" y="-236" font-family="Helvetica,sans-Serif" font-size="10.00">_exporter</text>
</a>
</g>
</g>
<!-- Node2&#45;&gt;Node4 -->
<g id="edge4_Node000002_Node000004" class="edge">
<title>Node2&#45;&gt;Node4</title>
<g id="a_edge4_Node000002_Node000004"><a xlink:title=" ">
<path fill="none" stroke="#63b8ff" d="M200.37,-187.01C213.35,-196.79 234.71,-212.03 254.75,-222.5 256.98,-223.67 259.29,-224.81 261.64,-225.92"/>
<polygon fill="#63b8ff" stroke="#63b8ff" points="260.17,-229.1 270.73,-229.96 263.01,-222.7 260.17,-229.1"/>
</a>
</g>
</g>
<!-- Node11 -->
<g id="Node000011" class="node">
<title>Node11</title>
<g id="a_Node000011"><a xlink:href="namespacePostProcessing.html#a0e06c75e06cf43e767d5e3e8afab62f2" target="_top" xlink:title=" ">
<polygon fill="white" stroke="#666666" points="370.88,-129 259.62,-129 259.62,-100 370.88,-100 370.88,-129"/>
<text xml:space="preserve" text-anchor="start" x="267.62" y="-115.5" font-family="Helvetica,sans-Serif" font-size="10.00">PostProcessing::save</text>
<text xml:space="preserve" text-anchor="middle" x="315.25" y="-105" font-family="Helvetica,sans-Serif" font-size="10.00">_probes</text>
</a>
</g>
</g>
<!-- Node2&#45;&gt;Node11 -->
<g id="edge12_Node000002_Node000011" class="edge">
<title>Node2&#45;&gt;Node11</title>
<g id="a_edge12_Node000002_Node000011"><a xlink:title=" ">
<path fill="none" stroke="#63b8ff" d="M203.12,-167.87C216.4,-159.55 236.46,-147.48 254.75,-138.5 257.85,-136.98 261.07,-135.47 264.34,-134"/>
<polygon fill="#63b8ff" stroke="#63b8ff" points="265.67,-137.24 273.46,-130.05 262.89,-130.82 265.67,-137.24"/>
</a>
</g>
</g>
<!-- Node19 -->
<g id="Node000019" class="node">
<title>Node19</title>
<g id="a_Node000019"><a xlink:href="classCore_1_1DataExporter.html#ad3b98151595b0962c089a7afcdb2a642" target="_top" xlink:title=" ">
<polygon fill="white" stroke="#666666" points="365.62,-213 264.88,-213 264.88,-184 365.62,-184 365.62,-213"/>
<text xml:space="preserve" text-anchor="start" x="272.88" y="-199.5" font-family="Helvetica,sans-Serif" font-size="10.00">Core::DataExporter</text>
<text xml:space="preserve" text-anchor="middle" x="315.25" y="-189" font-family="Helvetica,sans-Serif" font-size="10.00">::set_logger</text>
</a>
</g>
</g>
<!-- Node2&#45;&gt;Node19 -->
<g id="edge21_Node000002_Node000019" class="edge">
<title>Node2&#45;&gt;Node19</title>
<g id="a_edge21_Node000002_Node000019"><a xlink:title=" ">
<path fill="none" stroke="#63b8ff" d="M218.98,-182.64C229.37,-184.37 241.35,-186.36 253.24,-188.34"/>
<polygon fill="#63b8ff" stroke="#63b8ff" points="252.62,-191.79 263.06,-189.98 253.77,-184.88 252.62,-191.79"/>
</a>
</g>
</g>
<!-- Node3&#45;&gt;Node2 -->
<g id="edge3_Node000003_Node000002" class="edge">
<title>Node3&#45;&gt;Node2</title>
<g id="a_edge3_Node000003_Node000002"><a xlink:title=" ">
<path fill="none" stroke="#63b8ff" d="M289.21,-166.18C272.42,-170.23 249.9,-174.28 230.37,-176.88"/>
<polygon fill="#63b8ff" stroke="#63b8ff" points="229.99,-173.4 220.48,-178.08 230.83,-180.35 229.99,-173.4"/>
</a>
</g>
</g>
<!-- Node5 -->
<g id="Node000005" class="node">
<title>Node5</title>
<g id="a_Node000005"><a xlink:href="classCore_1_1PartialExporter.html#a05cba8c28abaecce99f586d551a75f80" target="_top" xlink:title="Initializes the fields required for exporting data.">
<polygon fill="white" stroke="#666666" points="532,-298 423,-298 423,-269 532,-269 532,-298"/>
<text xml:space="preserve" text-anchor="start" x="431" y="-284.5" font-family="Helvetica,sans-Serif" font-size="10.00">Core::PartialExporter</text>
<text xml:space="preserve" text-anchor="middle" x="477.5" y="-274" font-family="Helvetica,sans-Serif" font-size="10.00">::init_fields</text>
</a>
</g>
</g>
<!-- Node4&#45;&gt;Node5 -->
<g id="edge5_Node000004_Node000005" class="edge">
<title>Node4&#45;&gt;Node5</title>
<g id="a_edge5_Node000004_Node000005"><a xlink:title=" ">
<path fill="none" stroke="#63b8ff" d="M359.62,-255.78C375.74,-259.61 394.39,-264.03 412,-268.2"/>
<polygon fill="#63b8ff" stroke="#63b8ff" points="410.78,-271.51 421.32,-270.42 412.4,-264.7 410.78,-271.51"/>
</a>
</g>
</g>
<!-- Node8 -->
<g id="Node000008" class="node">
<title>Node8</title>
<g id="a_Node000008"><a xlink:href="namespacePostProcessing.html#a9ff9231cbdf2a3c4e539c4638aba2445" target="_top" xlink:title=" ">
<polygon fill="white" stroke="#666666" points="533.12,-251 421.88,-251 421.88,-222 533.12,-222 533.12,-251"/>
<text xml:space="preserve" text-anchor="start" x="429.88" y="-237.5" font-family="Helvetica,sans-Serif" font-size="10.00">PostProcessing::save</text>
<text xml:space="preserve" text-anchor="middle" x="477.5" y="-227" font-family="Helvetica,sans-Serif" font-size="10.00">_particle_state</text>
</a>
</g>
</g>
<!-- Node4&#45;&gt;Node8 -->
<g id="edge9_Node000004_Node000008" class="edge">
<title>Node4&#45;&gt;Node8</title>
<g id="a_edge9_Node000004_Node000008"><a xlink:title=" ">
<path fill="none" stroke="#63b8ff" d="M359.62,-243.06C375.28,-242.18 393.34,-241.17 410.5,-240.21"/>
<polygon fill="#63b8ff" stroke="#63b8ff" points="410.32,-243.72 420.1,-239.67 409.92,-236.73 410.32,-243.72"/>
</a>
</g>
</g>
<!-- Node9 -->
<g id="Node000009" class="node">
<title>Node9</title>
<g id="a_Node000009"><a xlink:href="classCore_1_1PartialExporter.html#a450fb0c92efa4ee81b4083fc01f5e665" target="_top" xlink:title="Writes the number of particles in each compartment.">
<polygon fill="white" stroke="#666666" points="536.5,-204 418.5,-204 418.5,-175 536.5,-175 536.5,-204"/>
<text xml:space="preserve" text-anchor="start" x="426.5" y="-190.5" font-family="Helvetica,sans-Serif" font-size="10.00">Core::PartialExporter</text>
<text xml:space="preserve" text-anchor="middle" x="477.5" y="-180" font-family="Helvetica,sans-Serif" font-size="10.00">::write_number_particle</text>
</a>
</g>
</g>
<!-- Node4&#45;&gt;Node9 -->
<g id="edge10_Node000004_Node000009" class="edge">
<title>Node4&#45;&gt;Node9</title>
<g id="a_edge10_Node000004_Node000009"><a xlink:title=" ">
<path fill="none" stroke="#63b8ff" d="M358.77,-230.64C378.51,-223.74 402.19,-215.47 423.12,-208.15"/>
<polygon fill="#63b8ff" stroke="#63b8ff" points="424.06,-211.53 432.35,-204.93 421.75,-204.92 424.06,-211.53"/>
</a>
</g>
</g>
<!-- Node5&#45;&gt;Node6 -->
<g id="edge6_Node000005_Node000006" class="edge">
<title>Node5&#45;&gt;Node6</title>
<g id="a_edge6_Node000005_Node000006"><a xlink:title=" ">
<path fill="none" stroke="#63b8ff" d="M532.17,-284.03C592.22,-284.62 688.15,-285.57 742.2,-286.1"/>
<polygon fill="#63b8ff" stroke="#63b8ff" points="741.84,-289.6 751.87,-286.2 741.91,-282.6 741.84,-289.6"/>
</a>
</g>
</g>
<!-- Node7 -->
<g id="Node000007" class="node">
<title>Node7</title>
<g id="a_Node000007"><a xlink:href="classCore_1_1DataExporter.html#a9c60512b8e80f25d5f1f6cac29b27d07" target="_top" xlink:title=" ">
<polygon fill="white" stroke="#666666" points="688.62,-258 587.88,-258 587.88,-229 688.62,-229 688.62,-258"/>
<text xml:space="preserve" text-anchor="start" x="595.88" y="-244.5" font-family="Helvetica,sans-Serif" font-size="10.00">Core::DataExporter</text>
<text xml:space="preserve" text-anchor="middle" x="638.25" y="-234" font-family="Helvetica,sans-Serif" font-size="10.00">::prepare_matrix</text>
</a>
</g>
</g>
<!-- Node5&#45;&gt;Node7 -->
<g id="edge8_Node000005_Node000007" class="edge">
<title>Node5&#45;&gt;Node7</title>
<g id="a_edge8_Node000005_Node000007"><a xlink:title=" ">
<path fill="none" stroke="#63b8ff" d="M532.25,-269.96C546.51,-266.36 562.01,-262.46 576.61,-258.78"/>
<polygon fill="#63b8ff" stroke="#63b8ff" points="577.26,-262.22 586.1,-256.39 575.55,-255.44 577.26,-262.22"/>
</a>
</g>
</g>
<!-- Node6&#45;&gt;Node6 -->
<g id="edge7_Node000006_Node000006" class="edge">
<title>Node6&#45;&gt;Node6</title>
<g id="a_edge7_Node000006_Node000006"><a xlink:title=" ">
<path fill="none" stroke="#63b8ff" d="M761.22,-296C750.32,-304.57 757.79,-313.75 783.62,-313.75 798.16,-313.75 806.88,-310.84 809.79,-306.78"/>
<polygon fill="#63b8ff" stroke="#63b8ff" points="813.13,-305.72 806.53,-297.42 806.52,-308.02 813.13,-305.72"/>
</a>
</g>
</g>
<!-- Node10 -->
<g id="Node000010" class="node">
<title>Node10</title>
<g id="a_Node000010"><a xlink:href="classCore_1_1DataExporter.html#a0af9b5e13d16339af1918f8e845193f9" target="_top" xlink:title=" ">
<polygon fill="white" stroke="#666666" points="688.62,-207 587.88,-207 587.88,-178 688.62,-178 688.62,-207"/>
<text xml:space="preserve" text-anchor="start" x="595.88" y="-193.5" font-family="Helvetica,sans-Serif" font-size="10.00">Core::DataExporter</text>
<text xml:space="preserve" text-anchor="middle" x="638.25" y="-183" font-family="Helvetica,sans-Serif" font-size="10.00">::append_matrix</text>
</a>
</g>
</g>
<!-- Node9&#45;&gt;Node10 -->
<g id="edge11_Node000009_Node000010" class="edge">
<title>Node9&#45;&gt;Node10</title>
<g id="a_edge11_Node000009_Node000010"><a xlink:title=" ">
<path fill="none" stroke="#63b8ff" d="M536.71,-190.6C549.58,-190.84 563.25,-191.1 576.22,-191.35"/>
<polygon fill="#63b8ff" stroke="#63b8ff" points="575.83,-194.84 585.9,-191.53 575.96,-187.84 575.83,-194.84"/>
</a>
</g>
</g>
<!-- Node12 -->
<g id="Node000012" class="node">
<title>Node12</title>
<g id="a_Node000012"><a xlink:href="namespacePostProcessing.html#adae52b6b518e25be1c920f36f196ef65" target="_top" xlink:title=" ">
<polygon fill="white" stroke="#666666" points="535.75,-92 419.25,-92 419.25,-63 535.75,-63 535.75,-92"/>
<text xml:space="preserve" text-anchor="start" x="427.25" y="-78.5" font-family="Helvetica,sans-Serif" font-size="10.00">PostProcessing::_save</text>
<text xml:space="preserve" text-anchor="middle" x="477.5" y="-68" font-family="Helvetica,sans-Serif" font-size="10.00">_probes</text>
</a>
</g>
</g>
<!-- Node11&#45;&gt;Node12 -->
<g id="edge13_Node000011_Node000012" class="edge">
<title>Node11&#45;&gt;Node12</title>
<g id="a_edge13_Node000011_Node000012"><a xlink:title=" ">
<path fill="none" stroke="#63b8ff" d="M370.95,-101.87C382.75,-99.15 395.37,-96.23 407.64,-93.4"/>
<polygon fill="#63b8ff" stroke="#63b8ff" points="408.33,-96.83 417.29,-91.17 406.76,-90.01 408.33,-96.83"/>
</a>
</g>
</g>
<!-- Node18 -->
<g id="Node000018" class="node">
<title>Node18</title>
<g id="a_Node000018"><a xlink:href="classSimulation_1_1SimulationUnit.html#a299bc32317c5f302dc16df3a3d7d6149" target="_top" xlink:title=" ">
<polygon fill="white" stroke="#666666" points="543.25,-139 411.75,-139 411.75,-110 543.25,-110 543.25,-139"/>
<text xml:space="preserve" text-anchor="start" x="419.75" y="-125.5" font-family="Helvetica,sans-Serif" font-size="10.00">Simulation::SimulationUnit</text>
<text xml:space="preserve" text-anchor="middle" x="477.5" y="-115" font-family="Helvetica,sans-Serif" font-size="10.00">::it_probes</text>
</a>
</g>
</g>
<!-- Node11&#45;&gt;Node18 -->
<g id="edge20_Node000011_Node000018" class="edge">
<title>Node11&#45;&gt;Node18</title>
<g id="a_edge20_Node000011_Node000018"><a xlink:title=" ">
<path fill="none" stroke="#63b8ff" d="M370.95,-117.91C380.27,-118.5 390.1,-119.11 399.86,-119.72"/>
<polygon fill="#63b8ff" stroke="#63b8ff" points="399.55,-123.2 409.75,-120.33 399.98,-116.22 399.55,-123.2"/>
</a>
</g>
</g>
<!-- Node13 -->
<g id="Node000013" class="node">
<title>Node13</title>
<g id="a_Node000013"><a xlink:href="classSimulation_1_1Probes.html#af54f1c8be6e49f63e8533d6a4e91cad3" target="_top" xlink:title=" ">
<polygon fill="white" stroke="#666666" points="687.5,-113 589,-113 589,-84 687.5,-84 687.5,-113"/>
<text xml:space="preserve" text-anchor="start" x="597" y="-99.5" font-family="Helvetica,sans-Serif" font-size="10.00">Simulation::Probes</text>
<text xml:space="preserve" text-anchor="middle" x="638.25" y="-89" font-family="Helvetica,sans-Serif" font-size="10.00">::clear</text>
</a>
</g>
</g>
<!-- Node12&#45;&gt;Node13 -->
<g id="edge14_Node000012_Node000013" class="edge">
<title>Node12&#45;&gt;Node13</title>
<g id="a_edge14_Node000012_Node000013"><a xlink:title=" ">
<path fill="none" stroke="#63b8ff" d="M535.81,-85.08C549.34,-86.87 563.8,-88.78 577.44,-90.59"/>
<polygon fill="#63b8ff" stroke="#63b8ff" points="576.79,-94.03 587.16,-91.87 577.71,-87.09 576.79,-94.03"/>
</a>
</g>
</g>
<!-- Node14 -->
<g id="Node000014" class="node">
<title>Node14</title>
<g id="a_Node000014"><a xlink:href="classSimulation_1_1Probes.html#a6345c8304e772a314dae935f742d518a" target="_top" xlink:title=" ">
<polygon fill="white" stroke="#666666" points="697.25,-65.75 579.25,-65.75 579.25,-47.25 697.25,-47.25 697.25,-65.75"/>
<text xml:space="preserve" text-anchor="middle" x="638.25" y="-52.25" font-family="Helvetica,sans-Serif" font-size="10.00">Simulation::Probes::get</text>
</a>
</g>
</g>
<!-- Node12&#45;&gt;Node14 -->
<g id="edge15_Node000012_Node000014" class="edge">
<title>Node12&#45;&gt;Node14</title>
<g id="a_edge15_Node000012_Node000014"><a xlink:title=" ">
<path fill="none" stroke="#63b8ff" d="M535.81,-69.92C546.12,-68.56 556.96,-67.12 567.57,-65.72"/>
<polygon fill="#63b8ff" stroke="#63b8ff" points="568,-69.19 577.45,-64.41 567.08,-62.25 568,-69.19"/>
</a>
</g>
</g>
<!-- Node15 -->
<g id="Node000015" class="node">
<title>Node15</title>
<g id="a_Node000015"><a xlink:href="classSimulation_1_1Probes.html#a2b8541ff7ad653204a955ff1feb78757" target="_top" xlink:title=" ">
<polygon fill="white" stroke="#666666" points="687.5,-29 589,-29 589,0 687.5,0 687.5,-29"/>
<text xml:space="preserve" text-anchor="start" x="597" y="-15.5" font-family="Helvetica,sans-Serif" font-size="10.00">Simulation::Probes</text>
<text xml:space="preserve" text-anchor="middle" x="638.25" y="-5" font-family="Helvetica,sans-Serif" font-size="10.00">::need_export</text>
</a>
</g>
</g>
<!-- Node12&#45;&gt;Node15 -->
<g id="edge16_Node000012_Node000015" class="edge">
<title>Node12&#45;&gt;Node15</title>
<g id="a_edge16_Node000012_Node000015"><a xlink:title=" ">
<path fill="none" stroke="#63b8ff" d="M516.12,-62.57C537.99,-53.89 565.76,-42.87 589.2,-33.57"/>
<polygon fill="#63b8ff" stroke="#63b8ff" points="590.21,-36.93 598.22,-29.99 587.63,-30.43 590.21,-36.93"/>
</a>
</g>
</g>
<!-- Node16 -->
<g id="Node000016" class="node">
<title>Node16</title>
<g id="a_Node000016"><a xlink:href="classCore_1_1PartialExporter.html#a53c54ce796df99b407f410beb01074c5" target="_top" xlink:title="Writes probe data to the export.">
<polygon fill="white" stroke="#666666" points="692.75,-160 583.75,-160 583.75,-131 692.75,-131 692.75,-160"/>
<text xml:space="preserve" text-anchor="start" x="591.75" y="-146.5" font-family="Helvetica,sans-Serif" font-size="10.00">Core::PartialExporter</text>
<text xml:space="preserve" text-anchor="middle" x="638.25" y="-136" font-family="Helvetica,sans-Serif" font-size="10.00">::write_probe</text>
</a>
</g>
</g>
<!-- Node12&#45;&gt;Node16 -->
<g id="edge17_Node000012_Node000016" class="edge">
<title>Node12&#45;&gt;Node16</title>
<g id="a_edge17_Node000012_Node000016"><a xlink:title=" ">
<path fill="none" stroke="#63b8ff" d="M522.12,-92.49C529.27,-95.28 536.53,-98.32 543.25,-101.5 560,-109.42 562.59,-114.4 579.25,-122.5 581.76,-123.72 584.36,-124.93 587,-126.12"/>
<polygon fill="#63b8ff" stroke="#63b8ff" points="585.32,-129.21 595.89,-129.97 588.1,-122.79 585.32,-129.21"/>
</a>
</g>
</g>
<!-- Node16&#45;&gt;Node6 -->
<g id="edge19_Node000016_Node000006" class="edge">
<title>Node16&#45;&gt;Node6</title>
<g id="a_edge19_Node000016_Node000006"><a xlink:title=" ">
<path fill="none" stroke="#63b8ff" d="M682.86,-160.41C687.95,-163.05 692.88,-166.06 697.25,-169.5 731.86,-196.71 759.06,-241.43 772.8,-266.98"/>
<polygon fill="#63b8ff" stroke="#63b8ff" points="769.57,-268.35 777.3,-275.6 775.78,-265.12 769.57,-268.35"/>
</a>
</g>
</g>
<!-- Node17 -->
<g id="Node000017" class="node">
<title>Node17</title>
<g id="a_Node000017"><a xlink:href="classCore_1_1DataExporter.html#a0b0b79f3932c4eb905704a852248c857" target="_top" xlink:title=" ">
<polygon fill="white" stroke="#666666" points="834,-160 733.25,-160 733.25,-131 834,-131 834,-160"/>
<text xml:space="preserve" text-anchor="start" x="741.25" y="-146.5" font-family="Helvetica,sans-Serif" font-size="10.00">Core::DataExporter</text>
<text xml:space="preserve" text-anchor="middle" x="783.62" y="-136" font-family="Helvetica,sans-Serif" font-size="10.00">::append_array</text>
</a>
</g>
</g>
<!-- Node16&#45;&gt;Node17 -->
<g id="edge18_Node000016_Node000017" class="edge">
<title>Node16&#45;&gt;Node17</title>
<g id="a_edge18_Node000016_Node000017"><a xlink:title=" ">
<path fill="none" stroke="#63b8ff" d="M693.05,-145.5C702.31,-145.5 712,-145.5 721.44,-145.5"/>
<polygon fill="#63b8ff" stroke="#63b8ff" points="721.28,-149 731.28,-145.5 721.28,-142 721.28,-149"/>
</a>
</g>
</g>
</g>
</svg>
