<?xml version="1.0" encoding="UTF-8" standalone="no"?>
<!DOCTYPE svg PUBLIC "-//W3C//DTD SVG 1.1//EN"
 "http://www.w3.org/Graphics/SVG/1.1/DTD/svg11.dtd">
<!-- Generated by graphviz version 14.0.1 (0)
 -->
<!-- Title: MC::Distributions::TruncatedNormal::draw_from Pages: 1 -->
<svg width="469pt" height="191pt"
 viewBox="0.00 0.00 469.00 191.00" xmlns="http://www.w3.org/2000/svg" xmlns:xlink="http://www.w3.org/1999/xlink">
<g id="graph0" class="graph" transform="scale(1 1) rotate(0) translate(4 186.75)">
<title>MC::Distributions::TruncatedNormal::draw_from</title>
<!-- Node1 -->
<g id="Node000001" class="node">
<title>Node1</title>
<g id="a_Node000001"><a xlink:title=" ">
<polygon fill="#999999" stroke="#666666" points="461.25,-122.75 319.25,-122.75 319.25,-93.75 461.25,-93.75 461.25,-122.75"/>
<text xml:space="preserve" text-anchor="start" x="327.25" y="-109.25" font-family="Helvetica,sans-Serif" font-size="10.00">MC::Distributions::</text>
<text xml:space="preserve" text-anchor="middle" x="390.25" y="-98.75" font-family="Helvetica,sans-Serif" font-size="10.00">TruncatedNormal::draw_from</text>
</a>
</g>
</g>
<!-- Node2 -->
<g id="Node000002" class="node">
<title>Node2</title>
<g id="a_Node000002"><a xlink:href="structModels_1_1TwoMetaNb.html#a329f6d4a53ae6e8315a49c35ebd6bdc4" target="_top" xlink:title=" ">
<polygon fill="white" stroke="#666666" points="117.62,-182.75 6.38,-182.75 6.38,-153.75 117.62,-153.75 117.62,-182.75"/>
<text xml:space="preserve" text-anchor="start" x="14.38" y="-169.25" font-family="Helvetica,sans-Serif" font-size="10.00">Models::TwoMetaNb::</text>
<text xml:space="preserve" text-anchor="middle" x="62" y="-158.75" font-family="Helvetica,sans-Serif" font-size="10.00">division</text>
</a>
</g>
</g>
<!-- Node1&#45;&gt;Node2 -->
<g id="edge1_Node000001_Node000002" class="edge">
<title>Node1&#45;&gt;Node2</title>
<g id="a_edge1_Node000001_Node000002"><a xlink:title=" ">
<path fill="none" stroke="#63b8ff" d="M360.97,-129.63C340.57,-143.66 311.72,-160.75 283.25,-168.25 228.34,-182.71 163.02,-180.4 117.85,-175.9"/>
<polygon fill="#63b8ff" stroke="#63b8ff" points="362.9,-132.56 369.03,-123.92 358.85,-126.85 362.9,-132.56"/>
</a>
</g>
</g>
<!-- Node3 -->
<g id="Node000003" class="node">
<title>Node3</title>
<g id="a_Node000003"><a xlink:href="structModels_1_1Uptake.html#a24e2b8c243d651080c131379e044bc15" target="_top" xlink:title=" ">
<polygon fill="white" stroke="#666666" points="283.25,-159.5 160,-159.5 160,-141 283.25,-141 283.25,-159.5"/>
<text xml:space="preserve" text-anchor="middle" x="221.62" y="-146" font-family="Helvetica,sans-Serif" font-size="10.00">Models::Uptake::division</text>
</a>
</g>
</g>
<!-- Node1&#45;&gt;Node3 -->
<g id="edge2_Node000001_Node000003" class="edge">
<title>Node1&#45;&gt;Node3</title>
<g id="a_edge2_Node000001_Node000003"><a xlink:title=" ">
<path fill="none" stroke="#63b8ff" d="M319.13,-125.93C299.25,-130.94 278.34,-136.21 261.09,-140.55"/>
<polygon fill="#63b8ff" stroke="#63b8ff" points="319.73,-129.38 328.57,-123.55 318.02,-122.6 319.73,-129.38"/>
</a>
</g>
</g>
<!-- Node4 -->
<g id="Node000004" class="node">
<title>Node4</title>
<g id="a_Node000004"><a xlink:href="structMC_1_1Distributions_1_1TruncatedNormal.html#a5c5cc899d8c3986ea0ae4b4789fbc533" target="_top" xlink:title=" ">
<polygon fill="white" stroke="#666666" points="280.25,-122.75 163,-122.75 163,-93.75 280.25,-93.75 280.25,-122.75"/>
<text xml:space="preserve" text-anchor="start" x="171" y="-109.25" font-family="Helvetica,sans-Serif" font-size="10.00">MC::Distributions::</text>
<text xml:space="preserve" text-anchor="middle" x="221.62" y="-98.75" font-family="Helvetica,sans-Serif" font-size="10.00">TruncatedNormal::draw</text>
</a>
</g>
</g>
<!-- Node1&#45;&gt;Node4 -->
<g id="edge4_Node000001_Node000004" class="edge">
<title>Node1&#45;&gt;Node4</title>
<g id="a_edge4_Node000001_Node000004"><a xlink:title=" ">
<path fill="none" stroke="#63b8ff" d="M307.58,-108.25C298.48,-108.25 289.35,-108.25 280.62,-108.25"/>
<polygon fill="#63b8ff" stroke="#63b8ff" points="307.56,-111.75 317.56,-108.25 307.56,-104.75 307.56,-111.75"/>
</a>
</g>
</g>
<!-- Node5 -->
<g id="Node000005" class="node">
<title>Node5</title>
<g id="a_Node000005"><a xlink:href="structMC_1_1Distributions_1_1ScaledTruncatedNormal.html#ac66c440e3d39d95509ab84a43455029b" target="_top" xlink:title=" ">
<polygon fill="white" stroke="#666666" points="281.75,-76 161.5,-76 161.5,-36.5 281.75,-36.5 281.75,-76"/>
<text xml:space="preserve" text-anchor="start" x="169.5" y="-62.5" font-family="Helvetica,sans-Serif" font-size="10.00">MC::Distributions::</text>
<text xml:space="preserve" text-anchor="start" x="169.5" y="-52" font-family="Helvetica,sans-Serif" font-size="10.00">ScaledTruncatedNormal</text>
<text xml:space="preserve" text-anchor="middle" x="221.62" y="-41.5" font-family="Helvetica,sans-Serif" font-size="10.00">::draw_from</text>
</a>
</g>
</g>
<!-- Node1&#45;&gt;Node5 -->
<g id="edge5_Node000001_Node000005" class="edge">
<title>Node1&#45;&gt;Node5</title>
<g id="a_edge5_Node000001_Node000005"><a xlink:title=" ">
<path fill="none" stroke="#63b8ff" d="M330.79,-90.01C314.96,-85.07 297.82,-79.72 281.95,-74.76"/>
<polygon fill="#63b8ff" stroke="#63b8ff" points="329.47,-93.26 340.06,-92.9 331.55,-86.58 329.47,-93.26"/>
</a>
</g>
</g>
<!-- Node6 -->
<g id="Node000006" class="node">
<title>Node6</title>
<g id="a_Node000006"><a xlink:href="structModels_1_1Uptake.html#a25452dbd4d5aadf1ef74d5745d8fbd9f" target="_top" xlink:title=" ">
<polygon fill="white" stroke="#666666" points="273.12,-18.5 170.12,-18.5 170.12,0 273.12,0 273.12,-18.5"/>
<text xml:space="preserve" text-anchor="middle" x="221.62" y="-5" font-family="Helvetica,sans-Serif" font-size="10.00">Models::Uptake::init</text>
</a>
</g>
</g>
<!-- Node1&#45;&gt;Node6 -->
<g id="edge6_Node000001_Node000006" class="edge">
<title>Node1&#45;&gt;Node6</title>
<g id="a_edge6_Node000001_Node000006"><a xlink:title=" ">
<path fill="none" stroke="#63b8ff" d="M365.28,-85.81C344.85,-67.75 314,-42.89 283.25,-27.25 276.89,-24.01 269.85,-21.26 262.89,-18.95"/>
<polygon fill="#63b8ff" stroke="#63b8ff" points="362.73,-88.23 372.5,-92.32 367.41,-83.02 362.73,-88.23"/>
</a>
</g>
</g>
<!-- Node3&#45;&gt;Node2 -->
<g id="edge3_Node000003_Node000002" class="edge">
<title>Node3&#45;&gt;Node2</title>
<g id="a_edge3_Node000003_Node000002"><a xlink:title=" ">
<path fill="none" stroke="#63b8ff" d="M148.32,-158.51C138.17,-159.67 127.87,-160.84 118.11,-161.96"/>
<polygon fill="#63b8ff" stroke="#63b8ff" points="148.64,-161.99 158.18,-157.38 147.85,-155.04 148.64,-161.99"/>
</a>
</g>
</g>
<!-- Node7 -->
<g id="Node000007" class="node">
<title>Node7</title>
<g id="a_Node000007"><a xlink:href="structModels_1_1TwoMetaNb.html#afd8730470d275a0dc5757f7ca5c894d4" target="_top" xlink:title=" ">
<polygon fill="white" stroke="#666666" points="124,-18.5 0,-18.5 0,0 124,0 124,-18.5"/>
<text xml:space="preserve" text-anchor="middle" x="62" y="-5" font-family="Helvetica,sans-Serif" font-size="10.00">Models::TwoMetaNb::init</text>
</a>
</g>
</g>
<!-- Node6&#45;&gt;Node7 -->
<g id="edge7_Node000006_Node000007" class="edge">
<title>Node6&#45;&gt;Node7</title>
<g id="a_edge7_Node000006_Node000007"><a xlink:title=" ">
<path fill="none" stroke="#63b8ff" d="M158.43,-9.25C147.23,-9.25 135.57,-9.25 124.4,-9.25"/>
<polygon fill="#63b8ff" stroke="#63b8ff" points="158.37,-12.75 168.37,-9.25 158.37,-5.75 158.37,-12.75"/>
</a>
</g>
</g>
</g>
</svg>
