<?xml version="1.0" encoding="UTF-8" standalone="no"?>
<!DOCTYPE svg PUBLIC "-//W3C//DTD SVG 1.1//EN"
 "http://www.w3.org/Graphics/SVG/1.1/DTD/svg11.dtd">
<!-- Generated by graphviz version 12.1.2 (0)
 -->
<!-- Title: EigenKokkos::update_host_to_compute Pages: 1 -->
<svg width="294pt" height="84pt"
 viewBox="0.00 0.00 293.50 84.00" xmlns="http://www.w3.org/2000/svg" xmlns:xlink="http://www.w3.org/1999/xlink">
<g id="graph0" class="graph" transform="scale(1 1) rotate(0) translate(4 80)">
<title>EigenKokkos::update_host_to_compute</title>
<!-- Node1 -->
<g id="Node000001" class="node">
<title>Node1</title>
<g id="a_Node000001"><a xlink:title=" ">
<polygon fill="#999999" stroke="#666666" points="285.5,-52 177.25,-52 177.25,-23 285.5,-23 285.5,-52"/>
<text text-anchor="start" x="185.25" y="-38.5" font-family="Helvetica,sans-Serif" font-size="10.00">EigenKokkos::update</text>
<text text-anchor="middle" x="231.38" y="-28" font-family="Helvetica,sans-Serif" font-size="10.00">_host_to_compute</text>
</a>
</g>
</g>
<!-- Node2 -->
<g id="Node000002" class="node">
<title>Node2</title>
<g id="a_Node000002"><a xlink:href="classSimulation_1_1ScalarSimulation.html#ac17e1fb2da810c4a21e94ce0caf09e17" target="_top" xlink:title=" ">
<polygon fill="white" stroke="#666666" points="141.25,-76 0,-76 0,-47 141.25,-47 141.25,-76"/>
<text text-anchor="start" x="8" y="-62.5" font-family="Helvetica,sans-Serif" font-size="10.00">Simulation::ScalarSimulation</text>
<text text-anchor="middle" x="70.62" y="-52" font-family="Helvetica,sans-Serif" font-size="10.00">::performStep</text>
</a>
</g>
</g>
<!-- Node1&#45;&gt;Node2 -->
<g id="edge1_Node000001_Node000002" class="edge">
<title>Node1&#45;&gt;Node2</title>
<g id="a_edge1_Node000001_Node000002"><a xlink:title=" ">
<path fill="none" stroke="#63b8ff" d="M165.96,-47.24C157.97,-48.45 149.77,-49.69 141.7,-50.91"/>
<polygon fill="#63b8ff" stroke="#63b8ff" points="166.21,-50.74 175.58,-45.78 165.16,-43.82 166.21,-50.74"/>
</a>
</g>
</g>
<!-- Node3 -->
<g id="Node000003" class="node">
<title>Node3</title>
<g id="a_Node000003"><a xlink:href="classSimulation_1_1ScalarSimulation.html#accd578eb371bceadce12a9f5aaa1adf4" target="_top" xlink:title=" ">
<polygon fill="white" stroke="#666666" points="141.25,-29 0,-29 0,0 141.25,0 141.25,-29"/>
<text text-anchor="start" x="8" y="-15.5" font-family="Helvetica,sans-Serif" font-size="10.00">Simulation::ScalarSimulation</text>
<text text-anchor="middle" x="70.62" y="-5" font-family="Helvetica,sans-Serif" font-size="10.00">::performStepGL</text>
</a>
</g>
</g>
<!-- Node1&#45;&gt;Node3 -->
<g id="edge2_Node000001_Node000003" class="edge">
<title>Node1&#45;&gt;Node3</title>
<g id="a_edge2_Node000001_Node000003"><a xlink:title=" ">
<path fill="none" stroke="#63b8ff" d="M165.68,-28.13C157.78,-26.98 149.68,-25.81 141.7,-24.65"/>
<polygon fill="#63b8ff" stroke="#63b8ff" points="165.18,-31.59 175.57,-29.56 166.18,-24.66 165.18,-31.59"/>
</a>
</g>
</g>
</g>
</svg>
