<?xml version="1.0" encoding="UTF-8" standalone="no"?>
<!DOCTYPE svg PUBLIC "-//W3C//DTD SVG 1.1//EN"
 "http://www.w3.org/Graphics/SVG/1.1/DTD/svg11.dtd">
<!-- Generated by graphviz version 14.0.1 (0)
 -->
<!-- Title: Api::SimulationInstance::SimulationInstance Pages: 1 -->
<svg width="422pt" height="178pt"
 viewBox="0.00 0.00 422.00 178.00" xmlns="http://www.w3.org/2000/svg" xmlns:xlink="http://www.w3.org/1999/xlink">

<svg id="main" version="1.1" xmlns="http://www.w3.org/2000/svg" xmlns:xlink="http://www.w3.org/1999/xlink" xml:space="preserve">

<style type="text/css"><![CDATA[
.node, .edge {opacity: 0.7;}
.node.selected, .edge.selected {opacity: 1;}
.edge:hover path { stroke: red; }
.edge:hover polygon { stroke: red; fill: red; }
]]></style>
<script type="application/ecmascript" xlink:href="svg.min.js"/>
<svg id="graph" class="graph">
<g id="graph0" class="graph" transform="scale(1 1) rotate(0) translate(4 174)">
<title>Api::SimulationInstance::SimulationInstance</title>
<!-- Node1 -->
<g id="Node000001" class="node">
<title>Node1</title>
<g id="a_Node000001"><a xlink:title="Deleted copy constructor to prevent copying.">
<polygon fill="#999999" stroke="#666666" points="414,-99 294.5,-99 294.5,-70 414,-70 414,-99"/>
<text xml:space="preserve" text-anchor="start" x="302.5" y="-85.5" font-family="Helvetica,sans-Serif" font-size="10.00">Api::SimulationInstance</text>
<text xml:space="preserve" text-anchor="middle" x="354.25" y="-75" font-family="Helvetica,sans-Serif" font-size="10.00">::SimulationInstance</text>
</a>
</g>
</g>
<!-- Node1&#45;&gt;Node1 -->
<g id="edge5_Node000001_Node000001" class="edge">
<title>Node1&#45;&gt;Node1</title>
<g id="a_edge5_Node000001_Node000001"><a xlink:title=" ">
<path fill="none" stroke="#63b8ff" d="M380.64,-110.56C376.5,-114.41 367.7,-117 354.25,-117 329.65,-117 320.62,-108.32 327.15,-99.21"/>
<polygon fill="#63b8ff" stroke="#63b8ff" points="384.13,-110.92 381.26,-100.72 377.14,-110.48 384.13,-110.92"/>
</a>
</g>
</g>
<!-- Node2 -->
<g id="Node000002" class="node">
<title>Node2</title>
<g id="a_Node000002"><a xlink:href="structApi_1_1SimulationInstance.html#abdcc3b78881f75bd8fa06815ea08bd08" target="_top" xlink:title="Initialize a simulation instance.">
<polygon fill="white" stroke="#666666" points="258.5,-170 139,-170 139,-141 258.5,-141 258.5,-170"/>
<text xml:space="preserve" text-anchor="start" x="147" y="-156.5" font-family="Helvetica,sans-Serif" font-size="10.00">Api::SimulationInstance</text>
<text xml:space="preserve" text-anchor="middle" x="198.75" y="-146" font-family="Helvetica,sans-Serif" font-size="10.00">::init</text>
</a>
</g>
</g>
<!-- Node1&#45;&gt;Node2 -->
<g id="edge1_Node000001_Node000002" class="edge">
<title>Node1&#45;&gt;Node2</title>
<g id="a_edge1_Node000001_Node000002"><a xlink:title=" ">
<path fill="none" stroke="#63b8ff" d="M315.22,-104.82C298.07,-113.7 277.45,-124.01 258.5,-132.5 252.4,-135.23 245.87,-137.97 239.47,-140.55"/>
<polygon fill="#63b8ff" stroke="#63b8ff" points="316.81,-107.93 324.06,-100.2 313.57,-101.73 316.81,-107.93"/>
</a>
</g>
</g>
<!-- Node4 -->
<g id="Node000004" class="node">
<title>Node4</title>
<g id="a_Node000004"><a xlink:href="structApi_1_1SimulationInstance.html#ae3b200eebeb9f7ac1881b04804a8162e" target="_top" xlink:title="Deleted copy assignment operator to prevent copying.">
<polygon fill="white" stroke="#666666" points="258.5,-123 139,-123 139,-94 258.5,-94 258.5,-123"/>
<text xml:space="preserve" text-anchor="start" x="147" y="-109.5" font-family="Helvetica,sans-Serif" font-size="10.00">Api::SimulationInstance</text>
<text xml:space="preserve" text-anchor="middle" x="198.75" y="-99" font-family="Helvetica,sans-Serif" font-size="10.00">::operator=</text>
</a>
</g>
</g>
<!-- Node1&#45;&gt;Node4 -->
<g id="edge3_Node000001_Node000004" class="edge">
<title>Node1&#45;&gt;Node4</title>
<g id="a_edge3_Node000001_Node000004"><a xlink:title=" ">
<path fill="none" stroke="#63b8ff" d="M282.99,-95.49C274.89,-96.75 266.69,-98.03 258.75,-99.27"/>
<polygon fill="#63b8ff" stroke="#63b8ff" points="283.51,-98.95 292.85,-93.94 282.43,-92.03 283.51,-98.95"/>
</a>
</g>
</g>
<!-- Node5 -->
<g id="Node000005" class="node">
<title>Node5</title>
<g id="a_Node000005"><a xlink:href="structApi_1_1SimulationInstance.html#aa95ff2c5b7a00aa738eff843014b4cfd" target="_top" xlink:title="Defaulted move assignment operator for efficient resource transfer.">
<polygon fill="white" stroke="#666666" points="258.5,-76 139,-76 139,-47 258.5,-47 258.5,-76"/>
<text xml:space="preserve" text-anchor="start" x="147" y="-62.5" font-family="Helvetica,sans-Serif" font-size="10.00">Api::SimulationInstance</text>
<text xml:space="preserve" text-anchor="middle" x="198.75" y="-52" font-family="Helvetica,sans-Serif" font-size="10.00">::operator=</text>
</a>
</g>
</g>
<!-- Node1&#45;&gt;Node5 -->
<g id="edge4_Node000001_Node000005" class="edge">
<title>Node1&#45;&gt;Node5</title>
<g id="a_edge4_Node000001_Node000005"><a xlink:title=" ">
<path fill="none" stroke="#63b8ff" d="M282.99,-73.97C274.89,-72.76 266.69,-71.53 258.75,-70.34"/>
<polygon fill="#63b8ff" stroke="#63b8ff" points="282.44,-77.43 292.85,-75.45 283.47,-70.51 282.44,-77.43"/>
</a>
</g>
</g>
<!-- Node6 -->
<g id="Node000006" class="node">
<title>Node6</title>
<g id="a_Node000006"><a xlink:href="structApi_1_1SimulationInstance.html#a11810f88e18f91e91cc312489367442b" target="_top" xlink:title="Defaulted move constructor for efficient resource transfer.">
<polygon fill="white" stroke="#666666" points="258.5,-29 139,-29 139,0 258.5,0 258.5,-29"/>
<text xml:space="preserve" text-anchor="start" x="147" y="-15.5" font-family="Helvetica,sans-Serif" font-size="10.00">Api::SimulationInstance</text>
<text xml:space="preserve" text-anchor="middle" x="198.75" y="-5" font-family="Helvetica,sans-Serif" font-size="10.00">::SimulationInstance</text>
</a>
</g>
</g>
<!-- Node1&#45;&gt;Node6 -->
<g id="edge6_Node000001_Node000006" class="edge">
<title>Node1&#45;&gt;Node6</title>
<g id="a_edge6_Node000001_Node000006"><a xlink:title=" ">
<path fill="none" stroke="#63b8ff" d="M313.55,-64.53C296.69,-56.23 276.75,-46.65 258.5,-38.5 251.66,-35.45 244.31,-32.32 237.2,-29.38"/>
<polygon fill="#63b8ff" stroke="#63b8ff" points="311.74,-67.53 322.25,-68.83 314.84,-61.26 311.74,-67.53"/>
</a>
</g>
</g>
<!-- Node3 -->
<g id="Node000003" class="node">
<title>Node3</title>
<g id="a_Node000003"><a xlink:href="namespacePythonBindings.html#a6abd1c98e507d86b69aab328f0c94650" target="_top" xlink:title=" ">
<polygon fill="white" stroke="#666666" points="103,-170 0,-170 0,-141 103,-141 103,-170"/>
<text xml:space="preserve" text-anchor="start" x="8" y="-156.5" font-family="Helvetica,sans-Serif" font-size="10.00">PythonBindings::init</text>
<text xml:space="preserve" text-anchor="middle" x="51.5" y="-146" font-family="Helvetica,sans-Serif" font-size="10.00">_handle</text>
</a>
</g>
</g>
<!-- Node2&#45;&gt;Node3 -->
<g id="edge2_Node000002_Node000003" class="edge">
<title>Node2&#45;&gt;Node3</title>
<g id="a_edge2_Node000002_Node000003"><a xlink:title=" ">
<path fill="none" stroke="#63b8ff" d="M127.24,-155.5C119.11,-155.5 110.94,-155.5 103.15,-155.5"/>
<polygon fill="#63b8ff" stroke="#63b8ff" points="127.16,-159 137.16,-155.5 127.16,-152 127.16,-159"/>
</a>
</g>
</g>
</g>
</svg>
</svg>

<style type='text/css'>
<![CDATA[
[data-mouse-over-selected='false'] { opacity: 0.7; }
[data-mouse-over-selected='true']  { opacity: 1.0; }
]]>
</style>
<script type="application/ecmascript"><![CDATA[
document.addEventListener('DOMContentLoaded', (event) => {
  highlightEdges();
  highlightAdjacentNodes();
});
]]></script>
</svg>
