<?xml version="1.0" encoding="UTF-8" standalone="no"?>
<!DOCTYPE svg PUBLIC "-//W3C//DTD SVG 1.1//EN"
 "http://www.w3.org/Graphics/SVG/1.1/DTD/svg11.dtd">
<!-- Generated by graphviz version 14.0.1 (0)
 -->
<!-- Title: Simulation::KernelInline::MoveFunctor::handle_exit Pages: 1 -->
<svg width="629pt" height="37pt"
 viewBox="0.00 0.00 629.00 37.00" xmlns="http://www.w3.org/2000/svg" xmlns:xlink="http://www.w3.org/1999/xlink">
<g id="graph0" class="graph" transform="scale(1 1) rotate(0) translate(4 33)">
<title>Simulation::KernelInline::MoveFunctor::handle_exit</title>
<!-- Node1 -->
<g id="Node000001" class="node">
<title>Node1</title>
<g id="a_Node000001"><a xlink:title=" ">
<polygon fill="#999999" stroke="#666666" points="133.75,-29 0,-29 0,0 133.75,0 133.75,-29"/>
<text xml:space="preserve" text-anchor="start" x="8" y="-15.5" font-family="Helvetica,sans-Serif" font-size="10.00">Simulation::KernelInline</text>
<text xml:space="preserve" text-anchor="middle" x="66.88" y="-5" font-family="Helvetica,sans-Serif" font-size="10.00">::MoveFunctor::handle_exit</text>
</a>
</g>
</g>
<!-- Node2 -->
<g id="Node000002" class="node">
<title>Node2</title>
<g id="a_Node000002"><a xlink:href="structSimulation_1_1KernelInline_1_1MoveFunctor.html#a1a92a71bde2d7d57e37e718ae8c45055" target="_top" xlink:title=" ">
<polygon fill="white" stroke="#666666" points="329.75,-29 169.75,-29 169.75,0 329.75,0 329.75,-29"/>
<text xml:space="preserve" text-anchor="start" x="177.75" y="-15.5" font-family="Helvetica,sans-Serif" font-size="10.00">Simulation::KernelInline</text>
<text xml:space="preserve" text-anchor="middle" x="249.75" y="-5" font-family="Helvetica,sans-Serif" font-size="10.00">::MoveFunctor::inner_handle_exit</text>
</a>
</g>
</g>
<!-- Node1&#45;&gt;Node2 -->
<g id="edge1_Node000001_Node000002" class="edge">
<title>Node1&#45;&gt;Node2</title>
<g id="a_edge1_Node000001_Node000002"><a xlink:title=" ">
<path fill="none" stroke="#63b8ff" d="M134.2,-14.5C142.01,-14.5 150.08,-14.5 158.16,-14.5"/>
<polygon fill="#63b8ff" stroke="#63b8ff" points="158.03,-18 168.03,-14.5 158.03,-11 158.03,-18"/>
</a>
</g>
</g>
<!-- Node3 -->
<g id="Node000003" class="node">
<title>Node3</title>
<g id="a_Node000003"><a xlink:href="namespaceSimulation_1_1KernelInline.html#a648521674ead158dd3776a946da6722a" target="_top" xlink:title=" ">
<polygon fill="white" stroke="#666666" points="483.75,-29 365.75,-29 365.75,0 483.75,0 483.75,-29"/>
<text xml:space="preserve" text-anchor="start" x="373.75" y="-15.5" font-family="Helvetica,sans-Serif" font-size="10.00">Simulation::KernelInline</text>
<text xml:space="preserve" text-anchor="middle" x="424.75" y="-5" font-family="Helvetica,sans-Serif" font-size="10.00">::probability_leaving</text>
</a>
</g>
</g>
<!-- Node2&#45;&gt;Node3 -->
<g id="edge2_Node000002_Node000003" class="edge">
<title>Node2&#45;&gt;Node3</title>
<g id="a_edge2_Node000002_Node000003"><a xlink:title=" ">
<path fill="none" stroke="#63b8ff" d="M330.16,-14.5C338.16,-14.5 346.24,-14.5 354.12,-14.5"/>
<polygon fill="#63b8ff" stroke="#63b8ff" points="353.99,-18 363.99,-14.5 353.99,-11 353.99,-18"/>
</a>
</g>
</g>
<!-- Node4 -->
<g id="Node000004" class="node">
<title>Node4</title>
<g id="a_Node000004"><a xlink:href="namespaceCommonMaths.html#ad4e27e17383f20d970bcd89fd00e36f0" target="_top" xlink:title=" ">
<polygon fill="white" stroke="#666666" points="621.25,-23.75 519.75,-23.75 519.75,-5.25 621.25,-5.25 621.25,-23.75"/>
<text xml:space="preserve" text-anchor="middle" x="570.5" y="-10.25" font-family="Helvetica,sans-Serif" font-size="10.00">CommonMaths::_ln</text>
</a>
</g>
</g>
<!-- Node3&#45;&gt;Node4 -->
<g id="edge3_Node000003_Node000004" class="edge">
<title>Node3&#45;&gt;Node4</title>
<g id="a_edge3_Node000003_Node000004"><a xlink:title=" ">
<path fill="none" stroke="#63b8ff" d="M484.22,-14.5C492.05,-14.5 500.11,-14.5 507.99,-14.5"/>
<polygon fill="#63b8ff" stroke="#63b8ff" points="507.86,-18 517.86,-14.5 507.86,-11 507.86,-18"/>
</a>
</g>
</g>
</g>
</svg>
