<?xml version="1.0" encoding="UTF-8" standalone="no"?>
<!DOCTYPE svg PUBLIC "-//W3C//DTD SVG 1.1//EN"
 "http://www.w3.org/Graphics/SVG/1.1/DTD/svg11.dtd">
<!-- Generated by graphviz version 14.0.1 (0)
 -->
<!-- Title: Models::FixedLength::get_config Pages: 1 -->
<svg width="403pt" height="37pt"
 viewBox="0.00 0.00 403.00 37.00" xmlns="http://www.w3.org/2000/svg" xmlns:xlink="http://www.w3.org/1999/xlink">
<g id="graph0" class="graph" transform="scale(1 1) rotate(0) translate(4 33)">
<title>Models::FixedLength::get_config</title>
<!-- Node1 -->
<g id="Node000001" class="node">
<title>Node1</title>
<g id="a_Node000001"><a xlink:title=" ">
<polygon fill="#999999" stroke="#666666" points="106,-29 0,-29 0,0 106,0 106,-29"/>
<text xml:space="preserve" text-anchor="start" x="8" y="-15.5" font-family="Helvetica,sans-Serif" font-size="10.00">Models::FixedLength</text>
<text xml:space="preserve" text-anchor="middle" x="53" y="-5" font-family="Helvetica,sans-Serif" font-size="10.00">::get_config</text>
</a>
</g>
</g>
<!-- Node2 -->
<g id="Node000002" class="node">
<title>Node2</title>
<g id="a_Node000002"><a xlink:href="namespaceCommon.html#a7ca16dc3314f89cd1860091731cd7014" target="_top" xlink:title="Wrapper arround get_env to get envariable with fallback to default.">
<polygon fill="white" stroke="#666666" points="257,-23.75 142,-23.75 142,-5.25 257,-5.25 257,-23.75"/>
<text xml:space="preserve" text-anchor="middle" x="199.5" y="-10.25" font-family="Helvetica,sans-Serif" font-size="10.00">Common::read_env_or</text>
</a>
</g>
</g>
<!-- Node1&#45;&gt;Node2 -->
<g id="edge1_Node000001_Node000002" class="edge">
<title>Node1&#45;&gt;Node2</title>
<g id="a_edge1_Node000001_Node000002"><a xlink:title=" ">
<path fill="none" stroke="#63b8ff" d="M106.17,-14.5C113.97,-14.5 122.11,-14.5 130.19,-14.5"/>
<polygon fill="#63b8ff" stroke="#63b8ff" points="130.01,-18 140.01,-14.5 130.01,-11 130.01,-18"/>
</a>
</g>
</g>
<!-- Node3 -->
<g id="Node000003" class="node">
<title>Node3</title>
<g id="a_Node000003"><a xlink:href="namespaceCommon.html#a7e29bd7117dd8bfc651a1dc215923379" target="_top" xlink:title="Wrapper arround get_env to get optional envariable.">
<polygon fill="white" stroke="#666666" points="394.5,-23.75 293,-23.75 293,-5.25 394.5,-5.25 394.5,-23.75"/>
<text xml:space="preserve" text-anchor="middle" x="343.75" y="-10.25" font-family="Helvetica,sans-Serif" font-size="10.00">Common::read_env</text>
</a>
</g>
</g>
<!-- Node2&#45;&gt;Node3 -->
<g id="edge2_Node000002_Node000003" class="edge">
<title>Node2&#45;&gt;Node3</title>
<g id="a_edge2_Node000002_Node000003"><a xlink:title=" ">
<path fill="none" stroke="#63b8ff" d="M257.13,-14.5C265.13,-14.5 273.39,-14.5 281.48,-14.5"/>
<polygon fill="#63b8ff" stroke="#63b8ff" points="281.24,-18 291.24,-14.5 281.24,-11 281.24,-18"/>
</a>
</g>
</g>
</g>
</svg>
