<?xml version="1.0" encoding="UTF-8" standalone="no"?>
<!DOCTYPE svg PUBLIC "-//W3C//DTD SVG 1.1//EN"
 "http://www.w3.org/Graphics/SVG/1.1/DTD/svg11.dtd">
<!-- Generated by graphviz version 14.0.1 (0)
 -->
<!-- Title: Api::SimulationInstance::set_feed Pages: 1 -->
<svg width="461pt" height="133pt"
 viewBox="0.00 0.00 461.00 133.00" xmlns="http://www.w3.org/2000/svg" xmlns:xlink="http://www.w3.org/1999/xlink">
<g id="graph0" class="graph" transform="scale(1 1) rotate(0) translate(4 129.25)">
<title>Api::SimulationInstance::set_feed</title>
<!-- Node1 -->
<g id="Node000001" class="node">
<title>Node1</title>
<g id="a_Node000001"><a xlink:title=" ">
<polygon fill="#999999" stroke="#666666" points="453,-82.25 333.5,-82.25 333.5,-53.25 453,-53.25 453,-82.25"/>
<text xml:space="preserve" text-anchor="start" x="341.5" y="-68.75" font-family="Helvetica,sans-Serif" font-size="10.00">Api::SimulationInstance</text>
<text xml:space="preserve" text-anchor="middle" x="393.25" y="-58.25" font-family="Helvetica,sans-Serif" font-size="10.00">::set_feed</text>
</a>
</g>
</g>
<!-- Node2 -->
<g id="Node000002" class="node">
<title>Node2</title>
<g id="a_Node000002"><a xlink:href="structApi_1_1SimulationInstance.html#a5a689a100cbbf66d7a6d9171a8718cff" target="_top" xlink:title=" ">
<polygon fill="white" stroke="#666666" points="286.25,-125.25 166.75,-125.25 166.75,-96.25 286.25,-96.25 286.25,-125.25"/>
<text xml:space="preserve" text-anchor="start" x="174.75" y="-111.75" font-family="Helvetica,sans-Serif" font-size="10.00">Api::SimulationInstance</text>
<text xml:space="preserve" text-anchor="middle" x="226.5" y="-101.25" font-family="Helvetica,sans-Serif" font-size="10.00">::set_feed_constant</text>
</a>
</g>
</g>
<!-- Node1&#45;&gt;Node2 -->
<g id="edge1_Node000001_Node000002" class="edge">
<title>Node1&#45;&gt;Node2</title>
<g id="a_edge1_Node000001_Node000002"><a xlink:title=" ">
<path fill="none" stroke="#63b8ff" d="M324.24,-85.5C311.15,-88.92 297.55,-92.47 284.84,-95.78"/>
<polygon fill="#63b8ff" stroke="#63b8ff" points="324.83,-88.96 333.63,-83.05 323.07,-82.19 324.83,-88.96"/>
</a>
</g>
</g>
<!-- Node3 -->
<g id="Node000003" class="node">
<title>Node3</title>
<g id="a_Node000003"><a xlink:href="structApi_1_1SimulationInstance.html#afee07db8a6b57fe7982900ecaa943cc0" target="_top" xlink:title="Default constructor.">
<polygon fill="white" stroke="#666666" points="119.5,-82.25 0,-82.25 0,-53.25 119.5,-53.25 119.5,-82.25"/>
<text xml:space="preserve" text-anchor="start" x="8" y="-68.75" font-family="Helvetica,sans-Serif" font-size="10.00">Api::SimulationInstance</text>
<text xml:space="preserve" text-anchor="middle" x="59.75" y="-58.25" font-family="Helvetica,sans-Serif" font-size="10.00">::SimulationInstance</text>
</a>
</g>
</g>
<!-- Node1&#45;&gt;Node3 -->
<g id="edge5_Node000001_Node000003" class="edge">
<title>Node1&#45;&gt;Node3</title>
<g id="a_edge5_Node000001_Node000003"><a xlink:title=" ">
<path fill="none" stroke="#63b8ff" d="M322.09,-67.75C262.04,-67.75 176.56,-67.75 119.92,-67.75"/>
<polygon fill="#63b8ff" stroke="#63b8ff" points="321.85,-71.25 331.85,-67.75 321.85,-64.25 321.85,-71.25"/>
</a>
</g>
</g>
<!-- Node4 -->
<g id="Node000004" class="node">
<title>Node4</title>
<g id="a_Node000004"><a xlink:href="structApi_1_1SimulationInstance.html#aec331d2ab718c45a574566727e463996" target="_top" xlink:title=" ">
<polygon fill="white" stroke="#666666" points="297.5,-39.5 155.5,-39.5 155.5,0 297.5,0 297.5,-39.5"/>
<text xml:space="preserve" text-anchor="start" x="163.5" y="-26" font-family="Helvetica,sans-Serif" font-size="10.00">Api::SimulationInstance</text>
<text xml:space="preserve" text-anchor="start" x="163.5" y="-15.5" font-family="Helvetica,sans-Serif" font-size="10.00">::set_feed_constant_different</text>
<text xml:space="preserve" text-anchor="middle" x="226.5" y="-5" font-family="Helvetica,sans-Serif" font-size="10.00">_output</text>
</a>
</g>
</g>
<!-- Node1&#45;&gt;Node4 -->
<g id="edge3_Node000001_Node000004" class="edge">
<title>Node1&#45;&gt;Node4</title>
<g id="a_edge3_Node000001_Node000004"><a xlink:title=" ">
<path fill="none" stroke="#63b8ff" d="M330.31,-49.7C319.39,-46.52 307.96,-43.19 296.85,-39.96"/>
<polygon fill="#63b8ff" stroke="#63b8ff" points="328.99,-52.97 339.57,-52.4 330.95,-46.24 328.99,-52.97"/>
</a>
</g>
</g>
<!-- Node2&#45;&gt;Node3 -->
<g id="edge2_Node000002_Node000003" class="edge">
<title>Node2&#45;&gt;Node3</title>
<g id="a_edge2_Node000002_Node000003"><a xlink:title=" ">
<path fill="none" stroke="#63b8ff" d="M157.49,-93C144.4,-89.58 130.8,-86.03 118.09,-82.72"/>
<polygon fill="#63b8ff" stroke="#63b8ff" points="156.32,-96.31 166.88,-95.45 158.08,-89.54 156.32,-96.31"/>
</a>
</g>
</g>
<!-- Node4&#45;&gt;Node3 -->
<g id="edge4_Node000004_Node000003" class="edge">
<title>Node4&#45;&gt;Node3</title>
<g id="a_edge4_Node000004_Node000003"><a xlink:title=" ">
<path fill="none" stroke="#63b8ff" d="M145.3,-43.12C133.98,-46.41 122.61,-49.73 112.04,-52.81"/>
<polygon fill="#63b8ff" stroke="#63b8ff" points="146.03,-46.55 154.66,-40.39 144.08,-39.83 146.03,-46.55"/>
</a>
</g>
</g>
</g>
</svg>
