<?xml version="1.0" encoding="UTF-8" standalone="no"?>
<!DOCTYPE svg PUBLIC "-//W3C//DTD SVG 1.1//EN"
 "http://www.w3.org/Graphics/SVG/1.1/DTD/svg11.dtd">
<!-- Generated by graphviz version 12.1.2 (0)
 -->
<!-- Title: MC::MonteCarloUnit::getRepartition Pages: 1 -->
<svg width="279pt" height="84pt"
 viewBox="0.00 0.00 278.50 84.00" xmlns="http://www.w3.org/2000/svg" xmlns:xlink="http://www.w3.org/1999/xlink">
<g id="graph0" class="graph" transform="scale(1 1) rotate(0) translate(4 80)">
<title>MC::MonteCarloUnit::getRepartition</title>
<!-- Node1 -->
<g id="Node000001" class="node">
<title>Node1</title>
<g id="a_Node000001"><a xlink:title=" ">
<polygon fill="#999999" stroke="#666666" points="105.25,-52 0,-52 0,-23 105.25,-23 105.25,-52"/>
<text text-anchor="start" x="8" y="-38.5" font-family="Helvetica,sans-Serif" font-size="10.00">MC::MonteCarloUnit</text>
<text text-anchor="middle" x="52.62" y="-28" font-family="Helvetica,sans-Serif" font-size="10.00">::getRepartition</text>
</a>
</g>
</g>
<!-- Node2 -->
<g id="Node000002" class="node">
<title>Node2</title>
<g id="a_Node000002"><a xlink:href="classMC_1_1ReactorDomain.html#adf8edb6cba4ee63f14c48ebadb73fb2e" target="_top" xlink:title="Return the number of compartment in the domain.">
<polygon fill="white" stroke="#666666" points="270.5,-76 141.25,-76 141.25,-47 270.5,-47 270.5,-76"/>
<text text-anchor="start" x="149.25" y="-62.5" font-family="Helvetica,sans-Serif" font-size="10.00">MC::ReactorDomain::</text>
<text text-anchor="middle" x="205.88" y="-52" font-family="Helvetica,sans-Serif" font-size="10.00">getNumberCompartments</text>
</a>
</g>
</g>
<!-- Node1&#45;&gt;Node2 -->
<g id="edge1_Node000001_Node000002" class="edge">
<title>Node1&#45;&gt;Node2</title>
<g id="a_edge1_Node000001_Node000002"><a xlink:title=" ">
<path fill="none" stroke="#63b8ff" d="M105.68,-45.76C113.49,-47 121.68,-48.3 129.85,-49.6"/>
<polygon fill="#63b8ff" stroke="#63b8ff" points="129.04,-53.01 139.47,-51.12 130.14,-46.1 129.04,-53.01"/>
</a>
</g>
</g>
<!-- Node3 -->
<g id="Node000003" class="node">
<title>Node3</title>
<g id="a_Node000003"><a xlink:href="structMC_1_1MonteCarloUnit.html#a9a63012c0c3a5d812abdfd77555a7f46" target="_top" xlink:title=" ">
<polygon fill="white" stroke="#666666" points="258.5,-29 153.25,-29 153.25,0 258.5,0 258.5,-29"/>
<text text-anchor="start" x="161.25" y="-15.5" font-family="Helvetica,sans-Serif" font-size="10.00">MC::MonteCarloUnit</text>
<text text-anchor="middle" x="205.88" y="-5" font-family="Helvetica,sans-Serif" font-size="10.00">::n_particle</text>
</a>
</g>
</g>
<!-- Node1&#45;&gt;Node3 -->
<g id="edge2_Node000001_Node000003" class="edge">
<title>Node1&#45;&gt;Node3</title>
<g id="a_edge2_Node000001_Node000003"><a xlink:title=" ">
<path fill="none" stroke="#63b8ff" d="M105.68,-29.58C117.27,-27.82 129.68,-25.93 141.67,-24.11"/>
<polygon fill="#63b8ff" stroke="#63b8ff" points="142.13,-27.58 151.49,-22.62 141.07,-20.66 142.13,-27.58"/>
</a>
</g>
</g>
</g>
</svg>
