<?xml version="1.0" encoding="UTF-8" standalone="no"?>
<!DOCTYPE svg PUBLIC "-//W3C//DTD SVG 1.1//EN"
 "http://www.w3.org/Graphics/SVG/1.1/DTD/svg11.dtd">
<!-- Generated by graphviz version 14.0.1 (0)
 -->
<!-- Title: Api::SimulationInstance::SimulationInstance Pages: 1 -->
<!--zoomable 941 -->

<svg id="main" version="1.1" xmlns="http://www.w3.org/2000/svg" xmlns:xlink="http://www.w3.org/1999/xlink" xml:space="preserve" onload="init(evt)">

<style type="text/css"><![CDATA[
.node, .edge {opacity: 0.7;}
.node.selected, .edge.selected {opacity: 1;}
.edge:hover path { stroke: red; }
.edge:hover polygon { stroke: red; fill: red; }
]]></style>

<defs>
  <circle id="rim" cx="0" cy="0" r="7"/>
  <circle id="rim2" cx="0" cy="0" r="3.5"/>
  <g id="zoomPlus">
    <use xlink:href="#rim" fill="#404040"><set attributeName="fill" to="#808080" begin="zoomplus.mouseover" end="zoomplus.mouseout"/></use>
    <path d="M-4,0h8M0,-4v8" fill="none" stroke="white" stroke-width="1.5" pointer-events="none"/>
  </g>
  <g id="zoomMin">
    <use xlink:href="#rim" fill="#404040"><set attributeName="fill" to="#808080" begin="zoomminus.mouseover" end="zoomminus.mouseout"/></use>
    <path d="M-4,0h8" fill="none" stroke="white" stroke-width="1.5" pointer-events="none"/>
  </g>
  <g id="arrowUp" transform="translate(30 24)">
    <use xlink:href="#rim"/>
    <path pointer-events="none" fill="none" stroke="white" stroke-width="1.5" d="M0,-3.0v7 M-2.5,-0.5L0,-3.0L2.5,-0.5"/>
  </g>
  <g id="arrowRight" transform="rotate(90) translate(36 -43)">
    <use xlink:href="#rim"/>
    <path pointer-events="none" fill="none" stroke="white" stroke-width="1.5" d="M0,-3.0v7 M-2.5,-0.5L0,-3.0L2.5,-0.5"/>
  </g>
  <g id="arrowDown" transform="rotate(180) translate(-30 -48)">
    <use xlink:href="#rim"/>
    <path pointer-events="none" fill="none" stroke="white" stroke-width="1.5" d="M0,-3.0v7 M-2.5,-0.5L0,-3.0L2.5,-0.5"/>
  </g>
  <g id="arrowLeft" transform="rotate(270) translate(-36 17)">
    <use xlink:href="#rim"/>
    <path pointer-events="none" fill="none" stroke="white" stroke-width="1.5" d="M0,-3.0v7 M-2.5,-0.5L0,-3.0L2.5,-0.5"/>
  </g>
  <g id="resetDef">
    <use xlink:href="#rim2" fill="#404040"><set attributeName="fill" to="#808080" begin="reset.mouseover" end="reset.mouseout"/></use>
  </g>
</defs>
<script type="application/ecmascript">
var viewWidth = 1150;
var viewHeight = 941;
var sectionId = 'dynsection-4';
</script>
<script type="application/ecmascript" xlink:href="svg.min.js"/>
<svg id="graph" class="graph">
<g id="viewport">
<title>Api::SimulationInstance::SimulationInstance</title>
<!-- Node1 -->
<g id="Node000001" class="node">
<title>Node1</title>
<g id="a_Node000001"><a xlink:title="Default constructor.">
<polygon fill="#999999" stroke="#666666" points="119.5,-472 0,-472 0,-443 119.5,-443 119.5,-472"/>
<text xml:space="preserve" text-anchor="start" x="8" y="-458.5" font-family="Helvetica,sans-Serif" font-size="10.00">Api::SimulationInstance</text>
<text xml:space="preserve" text-anchor="middle" x="59.75" y="-448" font-family="Helvetica,sans-Serif" font-size="10.00">::SimulationInstance</text>
</a>
</g>
</g>
<!-- Node2 -->
<g id="Node000002" class="node">
<title>Node2</title>
<g id="a_Node000002"><a xlink:href="structApi_1_1SimulationInstance.html#a3398ddd22faa3ceb16b454c51faeced0" target="_top" xlink:title="Apply the simulation configuration and prepare for execution.">
<polygon fill="white" stroke="#666666" points="286.25,-858 166.75,-858 166.75,-829 286.25,-829 286.25,-858"/>
<text xml:space="preserve" text-anchor="start" x="174.75" y="-844.5" font-family="Helvetica,sans-Serif" font-size="10.00">Api::SimulationInstance</text>
<text xml:space="preserve" text-anchor="middle" x="226.5" y="-834" font-family="Helvetica,sans-Serif" font-size="10.00">::apply</text>
</a>
</g>
</g>
<!-- Node1&#45;&gt;Node2 -->
<g id="edge1_Node000001_Node000002" class="edge">
<title>Node1&#45;&gt;Node2</title>
<g id="a_edge1_Node000001_Node000002"><a xlink:title=" ">
<path fill="none" stroke="#63b8ff" d="M62.7,-472.22C71.1,-533.52 105.99,-767.82 155.5,-820.5 156.09,-821.13 156.7,-821.74 157.33,-822.34"/>
<polygon fill="#63b8ff" stroke="#63b8ff" points="154.98,-824.95 165.05,-828.25 159.24,-819.39 154.98,-824.95"/>
</a>
</g>
</g>
<!-- Node3 -->
<g id="Node000003" class="node">
<title>Node3</title>
<g id="a_Node000003"><a xlink:href="structApi_1_1SimulationInstance.html#ad2abfa76ac4128d44b7c0c895f78b77b" target="_top" xlink:title="Load ad apply the simulation configuration and prepare for execution based on file.">
<polygon fill="white" stroke="#666666" points="468.75,-900 349.25,-900 349.25,-871 468.75,-871 468.75,-900"/>
<text xml:space="preserve" text-anchor="start" x="357.25" y="-886.5" font-family="Helvetica,sans-Serif" font-size="10.00">Api::SimulationInstance</text>
<text xml:space="preserve" text-anchor="middle" x="409" y="-876" font-family="Helvetica,sans-Serif" font-size="10.00">::apply_load</text>
</a>
</g>
</g>
<!-- Node1&#45;&gt;Node3 -->
<g id="edge20_Node000001_Node000003" class="edge">
<title>Node1&#45;&gt;Node3</title>
<g id="a_edge20_Node000001_Node000003"><a xlink:title=" ">
<path fill="none" stroke="#63b8ff" d="M61.64,-472.45C66.14,-541.9 88.74,-831.9 155.5,-885.5 210.94,-930.01 297.48,-918.12 353.46,-903.43"/>
<polygon fill="#63b8ff" stroke="#63b8ff" points="354.06,-906.9 362.77,-900.87 352.2,-900.15 354.06,-906.9"/>
</a>
</g>
</g>
<!-- Node19 -->
<g id="Node000019" class="node">
<title>Node19</title>
<g id="a_Node000019"><a xlink:href="structApi_1_1SimulationInstance.html#a3f04372728be84263fb69f5773ca5bd5" target="_top" xlink:title="Execute the simulation.">
<polygon fill="white" stroke="#666666" points="286.25,-811 166.75,-811 166.75,-782 286.25,-782 286.25,-811"/>
<text xml:space="preserve" text-anchor="start" x="174.75" y="-797.5" font-family="Helvetica,sans-Serif" font-size="10.00">Api::SimulationInstance</text>
<text xml:space="preserve" text-anchor="middle" x="226.5" y="-787" font-family="Helvetica,sans-Serif" font-size="10.00">::exec</text>
</a>
</g>
</g>
<!-- Node1&#45;&gt;Node19 -->
<g id="edge21_Node000001_Node000019" class="edge">
<title>Node1&#45;&gt;Node19</title>
<g id="a_edge21_Node000001_Node000019"><a xlink:title=" ">
<path fill="none" stroke="#63b8ff" d="M60.65,-472.43C61.15,-522.36 69.57,-685.3 155.5,-773.5 156.1,-774.12 156.72,-774.72 157.36,-775.31"/>
<polygon fill="#63b8ff" stroke="#63b8ff" points="155.06,-777.96 165.17,-781.14 159.25,-772.35 155.06,-777.96"/>
</a>
</g>
</g>
<!-- Node21 -->
<g id="Node000021" class="node">
<title>Node21</title>
<g id="a_Node000021"><a xlink:href="structApi_1_1SimulationInstance.html#a37448530b88fd5401cbad17e9bd3c0a6" target="_top" xlink:title=" ">
<polygon fill="white" stroke="#666666" points="286.25,-764 166.75,-764 166.75,-735 286.25,-735 286.25,-764"/>
<text xml:space="preserve" text-anchor="start" x="174.75" y="-750.5" font-family="Helvetica,sans-Serif" font-size="10.00">Api::SimulationInstance</text>
<text xml:space="preserve" text-anchor="middle" x="226.5" y="-740" font-family="Helvetica,sans-Serif" font-size="10.00">::get_exec_info</text>
</a>
</g>
</g>
<!-- Node1&#45;&gt;Node21 -->
<g id="edge25_Node000001_Node000021" class="edge">
<title>Node1&#45;&gt;Node21</title>
<g id="a_edge25_Node000001_Node000021"><a xlink:title=" ">
<path fill="none" stroke="#63b8ff" d="M61.56,-472.42C64.81,-517.42 80.67,-653.24 155.5,-726.5 156.12,-727.1 156.75,-727.69 157.4,-728.26"/>
<polygon fill="#63b8ff" stroke="#63b8ff" points="155.17,-730.97 165.33,-733.99 159.27,-725.3 155.17,-730.97"/>
</a>
</g>
</g>
<!-- Node22 -->
<g id="Node000022" class="node">
<title>Node22</title>
<g id="a_Node000022"><a xlink:href="structApi_1_1SimulationInstance.html#ab938dea3b413538bfdaa40daa5d122a2" target="_top" xlink:title="Retrieve the simulation instance&#39;s unique identifier.">
<polygon fill="white" stroke="#666666" points="286.25,-717 166.75,-717 166.75,-688 286.25,-688 286.25,-717"/>
<text xml:space="preserve" text-anchor="start" x="174.75" y="-703.5" font-family="Helvetica,sans-Serif" font-size="10.00">Api::SimulationInstance</text>
<text xml:space="preserve" text-anchor="middle" x="226.5" y="-693" font-family="Helvetica,sans-Serif" font-size="10.00">::get_id</text>
</a>
</g>
</g>
<!-- Node1&#45;&gt;Node22 -->
<g id="edge26_Node000001_Node000022" class="edge">
<title>Node1&#45;&gt;Node22</title>
<g id="a_edge26_Node000001_Node000022"><a xlink:title=" ">
<path fill="none" stroke="#63b8ff" d="M62.81,-472.34C69.08,-511.9 91.58,-620.85 155.5,-679.5 156.14,-680.08 156.79,-680.65 157.45,-681.21"/>
<polygon fill="#63b8ff" stroke="#63b8ff" points="155.31,-683.98 165.53,-686.78 159.29,-678.22 155.31,-683.98"/>
</a>
</g>
</g>
<!-- Node23 -->
<g id="Node000023" class="node">
<title>Node23</title>
<g id="a_Node000023"><a xlink:href="structApi_1_1SimulationInstance.html#ac8b52d1e9fa704e89d252d884aa6cf3d" target="_top" xlink:title="Register a path for CMA data.">
<polygon fill="white" stroke="#666666" points="286.25,-670 166.75,-670 166.75,-641 286.25,-641 286.25,-670"/>
<text xml:space="preserve" text-anchor="start" x="174.75" y="-656.5" font-family="Helvetica,sans-Serif" font-size="10.00">Api::SimulationInstance</text>
<text xml:space="preserve" text-anchor="middle" x="226.5" y="-646" font-family="Helvetica,sans-Serif" font-size="10.00">::register_cma_path</text>
</a>
</g>
</g>
<!-- Node1&#45;&gt;Node23 -->
<g id="edge27_Node000001_Node000023" class="edge">
<title>Node1&#45;&gt;Node23</title>
<g id="a_edge27_Node000001_Node000023"><a xlink:title=" ">
<path fill="none" stroke="#63b8ff" d="M64.61,-472.1C74.19,-505.49 102.21,-587.98 155.5,-632.5 156.43,-633.28 157.39,-634.03 158.38,-634.76"/>
<polygon fill="#63b8ff" stroke="#63b8ff" points="156.17,-637.51 166.5,-639.85 159.88,-631.57 156.17,-637.51"/>
</a>
</g>
</g>
<!-- Node24 -->
<g id="Node000024" class="node">
<title>Node24</title>
<g id="a_Node000024"><a xlink:href="structApi_1_1SimulationInstance.html#a7fe33427bbf42fbff934729f90242271" target="_top" xlink:title=" ">
<polygon fill="white" stroke="#666666" points="289.62,-623 163.38,-623 163.38,-594 289.62,-594 289.62,-623"/>
<text xml:space="preserve" text-anchor="start" x="171.38" y="-609.5" font-family="Helvetica,sans-Serif" font-size="10.00">Api::SimulationInstance</text>
<text xml:space="preserve" text-anchor="middle" x="226.5" y="-599" font-family="Helvetica,sans-Serif" font-size="10.00">::register_initial_condition</text>
</a>
</g>
</g>
<!-- Node1&#45;&gt;Node24 -->
<g id="edge28_Node000001_Node000024" class="edge">
<title>Node1&#45;&gt;Node24</title>
<g id="a_edge28_Node000001_Node000024"><a xlink:title=" ">
<path fill="none" stroke="#63b8ff" d="M67.69,-472.09C81.02,-498.55 112.69,-554.58 155.5,-585.5 156.83,-586.46 158.2,-587.38 159.61,-588.27"/>
<polygon fill="#63b8ff" stroke="#63b8ff" points="157.53,-591.12 167.98,-592.85 160.89,-584.98 157.53,-591.12"/>
</a>
</g>
</g>
<!-- Node25 -->
<g id="Node000025" class="node">
<title>Node25</title>
<g id="a_Node000025"><a xlink:href="structApi_1_1SimulationInstance.html#af7102c1a786cac7c27ad533ce1f29f06" target="_top" xlink:title=" ">
<polygon fill="white" stroke="#666666" points="286.25,-576.25 166.75,-576.25 166.75,-536.75 286.25,-536.75 286.25,-576.25"/>
<text xml:space="preserve" text-anchor="start" x="174.75" y="-562.75" font-family="Helvetica,sans-Serif" font-size="10.00">Api::SimulationInstance</text>
<text xml:space="preserve" text-anchor="start" x="174.75" y="-552.25" font-family="Helvetica,sans-Serif" font-size="10.00">::register_initialiser</text>
<text xml:space="preserve" text-anchor="middle" x="226.5" y="-541.75" font-family="Helvetica,sans-Serif" font-size="10.00">_file_path</text>
</a>
</g>
</g>
<!-- Node1&#45;&gt;Node25 -->
<g id="edge29_Node000001_Node000025" class="edge">
<title>Node1&#45;&gt;Node25</title>
<g id="a_edge29_Node000001_Node000025"><a xlink:title=" ">
<path fill="none" stroke="#63b8ff" d="M77.61,-472.31C95.86,-487.79 126.29,-512.09 155.5,-528.5 157.19,-529.45 158.91,-530.38 160.67,-531.29"/>
<polygon fill="#63b8ff" stroke="#63b8ff" points="159.07,-534.41 169.59,-535.66 162.15,-528.12 159.07,-534.41"/>
</a>
</g>
</g>
<!-- Node26 -->
<g id="Node000026" class="node">
<title>Node26</title>
<g id="a_Node000026"><a xlink:href="structApi_1_1SimulationInstance.html#a06b825ee4dcaf97e49ef5d3644a7301a" target="_top" xlink:title="Register the model name for the simulation.">
<polygon fill="white" stroke="#666666" points="286.25,-519 166.75,-519 166.75,-490 286.25,-490 286.25,-519"/>
<text xml:space="preserve" text-anchor="start" x="174.75" y="-505.5" font-family="Helvetica,sans-Serif" font-size="10.00">Api::SimulationInstance</text>
<text xml:space="preserve" text-anchor="middle" x="226.5" y="-495" font-family="Helvetica,sans-Serif" font-size="10.00">::register_model_name</text>
</a>
</g>
</g>
<!-- Node1&#45;&gt;Node26 -->
<g id="edge30_Node000001_Node000026" class="edge">
<title>Node1&#45;&gt;Node26</title>
<g id="a_edge30_Node000001_Node000026"><a xlink:title=" ">
<path fill="none" stroke="#63b8ff" d="M112.88,-472.37C128.5,-476.83 145.81,-481.77 162.08,-486.41"/>
<polygon fill="#63b8ff" stroke="#63b8ff" points="161.11,-489.77 171.69,-489.15 163.03,-483.04 161.11,-489.77"/>
</a>
</g>
</g>
<!-- Node27 -->
<g id="Node000027" class="node">
<title>Node27</title>
<g id="a_Node000027"><a xlink:href="structApi_1_1SimulationInstance.html#ad54f1c021ad6af49979c42edf10b207b" target="_top" xlink:title="Register user control parameters for the simulation.">
<polygon fill="white" stroke="#666666" points="286.25,-472 166.75,-472 166.75,-443 286.25,-443 286.25,-472"/>
<text xml:space="preserve" text-anchor="start" x="174.75" y="-458.5" font-family="Helvetica,sans-Serif" font-size="10.00">Api::SimulationInstance</text>
<text xml:space="preserve" text-anchor="middle" x="226.5" y="-448" font-family="Helvetica,sans-Serif" font-size="10.00">::register_parameters</text>
</a>
</g>
</g>
<!-- Node1&#45;&gt;Node27 -->
<g id="edge31_Node000001_Node000027" class="edge">
<title>Node1&#45;&gt;Node27</title>
<g id="a_edge31_Node000001_Node000027"><a xlink:title=" ">
<path fill="none" stroke="#63b8ff" d="M119.76,-457.5C131.24,-457.5 143.37,-457.5 155.17,-457.5"/>
<polygon fill="#63b8ff" stroke="#63b8ff" points="154.83,-461 164.83,-457.5 154.83,-454 154.83,-461"/>
</a>
</g>
</g>
<!-- Node28 -->
<g id="Node000028" class="node">
<title>Node28</title>
<g id="a_Node000028"><a xlink:href="structApi_1_1SimulationInstance.html#a19af55accb633781f80c6100a3508284" target="_top" xlink:title="Register a result output path.">
<polygon fill="white" stroke="#666666" points="286.25,-425 166.75,-425 166.75,-396 286.25,-396 286.25,-425"/>
<text xml:space="preserve" text-anchor="start" x="174.75" y="-411.5" font-family="Helvetica,sans-Serif" font-size="10.00">Api::SimulationInstance</text>
<text xml:space="preserve" text-anchor="middle" x="226.5" y="-401" font-family="Helvetica,sans-Serif" font-size="10.00">::register_result_path</text>
</a>
</g>
</g>
<!-- Node1&#45;&gt;Node28 -->
<g id="edge32_Node000001_Node000028" class="edge">
<title>Node1&#45;&gt;Node28</title>
<g id="a_edge32_Node000001_Node000028"><a xlink:title=" ">
<path fill="none" stroke="#63b8ff" d="M112.88,-442.63C128.5,-438.17 145.81,-433.23 162.08,-428.59"/>
<polygon fill="#63b8ff" stroke="#63b8ff" points="163.03,-431.96 171.69,-425.85 161.11,-425.23 163.03,-431.96"/>
</a>
</g>
</g>
<!-- Node29 -->
<g id="Node000029" class="node">
<title>Node29</title>
<g id="a_Node000029"><a xlink:href="structApi_1_1SimulationInstance.html#afb6d2f04368f71955e4773dd5452f2e2" target="_top" xlink:title="Configure feed constants for the simulation.">
<polygon fill="white" stroke="#666666" points="288.88,-378 164.12,-378 164.12,-349 288.88,-349 288.88,-378"/>
<text xml:space="preserve" text-anchor="start" x="172.12" y="-364.5" font-family="Helvetica,sans-Serif" font-size="10.00">Api::SimulationInstance</text>
<text xml:space="preserve" text-anchor="middle" x="226.5" y="-354" font-family="Helvetica,sans-Serif" font-size="10.00">::register_scalar_initiazer</text>
</a>
</g>
</g>
<!-- Node1&#45;&gt;Node29 -->
<g id="edge33_Node000001_Node000029" class="edge">
<title>Node1&#45;&gt;Node29</title>
<g id="a_edge33_Node000001_Node000029"><a xlink:title=" ">
<path fill="none" stroke="#63b8ff" d="M77.49,-442.63C95.64,-427.13 125.98,-402.99 155.5,-387.5 158.69,-385.83 162.01,-384.24 165.41,-382.72"/>
<polygon fill="#63b8ff" stroke="#63b8ff" points="166.45,-386.08 174.35,-379.02 163.77,-379.61 166.45,-386.08"/>
</a>
</g>
</g>
<!-- Node30 -->
<g id="Node000030" class="node">
<title>Node30</title>
<g id="a_Node000030"><a xlink:href="structApi_1_1SimulationInstance.html#a44482022a20986f2f68163a5a3baf49f" target="_top" xlink:title="Register a serialization/deserialization (serde) path.">
<polygon fill="white" stroke="#666666" points="286.25,-331 166.75,-331 166.75,-302 286.25,-302 286.25,-331"/>
<text xml:space="preserve" text-anchor="start" x="174.75" y="-317.5" font-family="Helvetica,sans-Serif" font-size="10.00">Api::SimulationInstance</text>
<text xml:space="preserve" text-anchor="middle" x="226.5" y="-307" font-family="Helvetica,sans-Serif" font-size="10.00">::register_serde</text>
</a>
</g>
</g>
<!-- Node1&#45;&gt;Node30 -->
<g id="edge34_Node000001_Node000030" class="edge">
<title>Node1&#45;&gt;Node30</title>
<g id="a_edge34_Node000001_Node000030"><a xlink:title=" ">
<path fill="none" stroke="#63b8ff" d="M68.96,-442.69C83.35,-418.03 115.44,-368.51 155.5,-340.5 157.43,-339.15 159.45,-337.87 161.53,-336.65"/>
<polygon fill="#63b8ff" stroke="#63b8ff" points="162.98,-339.84 170.26,-332.15 159.77,-333.62 162.98,-339.84"/>
</a>
</g>
</g>
<!-- Node31 -->
<g id="Node000031" class="node">
<title>Node31</title>
<g id="a_Node000031"><a xlink:href="structApi_1_1SimulationInstance.html#a73c191e86d9951411087785b68bf709e" target="_top" xlink:title=" ">
<polygon fill="white" stroke="#666666" points="286.25,-284 166.75,-284 166.75,-255 286.25,-255 286.25,-284"/>
<text xml:space="preserve" text-anchor="start" x="174.75" y="-270.5" font-family="Helvetica,sans-Serif" font-size="10.00">Api::SimulationInstance</text>
<text xml:space="preserve" text-anchor="middle" x="226.5" y="-260" font-family="Helvetica,sans-Serif" font-size="10.00">::set_auto_mtr</text>
</a>
</g>
</g>
<!-- Node1&#45;&gt;Node31 -->
<g id="edge35_Node000001_Node000031" class="edge">
<title>Node1&#45;&gt;Node31</title>
<g id="a_edge35_Node000001_Node000031"><a xlink:title=" ">
<path fill="none" stroke="#63b8ff" d="M65.24,-442.91C75.75,-411.12 104.97,-335.08 155.5,-293.5 156.97,-292.29 158.5,-291.15 160.08,-290.06"/>
<polygon fill="#63b8ff" stroke="#63b8ff" points="161.5,-293.28 168.32,-285.18 157.93,-287.26 161.5,-293.28"/>
</a>
</g>
</g>
<!-- Node32 -->
<g id="Node000032" class="node">
<title>Node32</title>
<g id="a_Node000032"><a xlink:href="structApi_1_1SimulationInstance.html#a4508272c4bba7fdaa1e3695ee606f538" target="_top" xlink:title=" ">
<polygon fill="white" stroke="#666666" points="468.75,-193 349.25,-193 349.25,-164 468.75,-164 468.75,-193"/>
<text xml:space="preserve" text-anchor="start" x="357.25" y="-179.5" font-family="Helvetica,sans-Serif" font-size="10.00">Api::SimulationInstance</text>
<text xml:space="preserve" text-anchor="middle" x="409" y="-169" font-family="Helvetica,sans-Serif" font-size="10.00">::set_feed</text>
</a>
</g>
</g>
<!-- Node1&#45;&gt;Node32 -->
<g id="edge36_Node000001_Node000032" class="edge">
<title>Node1&#45;&gt;Node32</title>
<g id="a_edge36_Node000001_Node000032"><a xlink:title=" ">
<path fill="none" stroke="#63b8ff" d="M62.98,-442.64C69.56,-404.09 92.55,-300.16 155.5,-246.5 157.32,-244.95 265.95,-216.03 340.12,-196.41"/>
<polygon fill="#63b8ff" stroke="#63b8ff" points="341.01,-199.79 349.79,-193.85 339.22,-193.02 341.01,-199.79"/>
</a>
</g>
</g>
<!-- Node33 -->
<g id="Node000033" class="node">
<title>Node33</title>
<g id="a_Node000033"><a xlink:href="structApi_1_1SimulationInstance.html#a5a689a100cbbf66d7a6d9171a8718cff" target="_top" xlink:title=" ">
<polygon fill="white" stroke="#666666" points="286.25,-141 166.75,-141 166.75,-112 286.25,-112 286.25,-141"/>
<text xml:space="preserve" text-anchor="start" x="174.75" y="-127.5" font-family="Helvetica,sans-Serif" font-size="10.00">Api::SimulationInstance</text>
<text xml:space="preserve" text-anchor="middle" x="226.5" y="-117" font-family="Helvetica,sans-Serif" font-size="10.00">::set_feed_constant</text>
</a>
</g>
</g>
<!-- Node1&#45;&gt;Node33 -->
<g id="edge37_Node000001_Node000033" class="edge">
<title>Node1&#45;&gt;Node33</title>
<g id="a_edge37_Node000001_Node000033"><a xlink:title=" ">
<path fill="none" stroke="#63b8ff" d="M60.79,-442.6C61.73,-393.51 71.46,-235.16 155.5,-149.5 156.1,-148.88 156.73,-148.28 157.36,-147.7"/>
<polygon fill="#63b8ff" stroke="#63b8ff" points="159.25,-150.66 165.19,-141.88 155.08,-145.04 159.25,-150.66"/>
</a>
</g>
</g>
<!-- Node35 -->
<g id="Node000035" class="node">
<title>Node35</title>
<g id="a_Node000035"><a xlink:href="structApi_1_1SimulationInstance.html#aec331d2ab718c45a574566727e463996" target="_top" xlink:title=" ">
<polygon fill="white" stroke="#666666" points="297.5,-198.25 155.5,-198.25 155.5,-158.75 297.5,-158.75 297.5,-198.25"/>
<text xml:space="preserve" text-anchor="start" x="163.5" y="-184.75" font-family="Helvetica,sans-Serif" font-size="10.00">Api::SimulationInstance</text>
<text xml:space="preserve" text-anchor="start" x="163.5" y="-174.25" font-family="Helvetica,sans-Serif" font-size="10.00">::set_feed_constant_different</text>
<text xml:space="preserve" text-anchor="middle" x="226.5" y="-163.75" font-family="Helvetica,sans-Serif" font-size="10.00">_output</text>
</a>
</g>
</g>
<!-- Node1&#45;&gt;Node35 -->
<g id="edge40_Node000001_Node000035" class="edge">
<title>Node1&#45;&gt;Node35</title>
<g id="a_edge40_Node000001_Node000035"><a xlink:title=" ">
<path fill="none" stroke="#63b8ff" d="M62.68,-442.55C68.76,-400.98 91.12,-282.47 155.5,-212.5 157.97,-209.82 160.7,-207.32 163.6,-205"/>
<polygon fill="#63b8ff" stroke="#63b8ff" points="165.35,-208.05 171.52,-199.44 161.32,-202.32 165.35,-208.05"/>
</a>
</g>
</g>
<!-- Node36 -->
<g id="Node000036" class="node">
<title>Node36</title>
<g id="a_Node000036"><a xlink:href="structApi_1_1SimulationInstance.html#ad3dcce95a8552f794dfff2a0f382fcee" target="_top" xlink:title=" ">
<polygon fill="white" stroke="#666666" points="286.25,-94 166.75,-94 166.75,-65 286.25,-65 286.25,-94"/>
<text xml:space="preserve" text-anchor="start" x="174.75" y="-80.5" font-family="Helvetica,sans-Serif" font-size="10.00">Api::SimulationInstance</text>
<text xml:space="preserve" text-anchor="middle" x="226.5" y="-70" font-family="Helvetica,sans-Serif" font-size="10.00">::set_mtr</text>
</a>
</g>
</g>
<!-- Node1&#45;&gt;Node36 -->
<g id="edge43_Node000001_Node000036" class="edge">
<title>Node1&#45;&gt;Node36</title>
<g id="a_edge43_Node000001_Node000036"><a xlink:title=" ">
<path fill="none" stroke="#63b8ff" d="M60.13,-442.75C58.7,-389.46 61.07,-204.65 155.5,-103.5 156.23,-102.72 156.98,-101.96 157.76,-101.23"/>
<polygon fill="#63b8ff" stroke="#63b8ff" points="159.85,-104.05 165.71,-95.22 155.62,-98.46 159.85,-104.05"/>
</a>
</g>
</g>
<!-- Node37 -->
<g id="Node000037" class="node">
<title>Node37</title>
<g id="a_Node000037"><a xlink:href="structApi_1_1SimulationInstance.html#a7a849ee5dd1d0d13a198aecee702944c" target="_top" xlink:title="Deleted copy constructor to prevent copying.">
<polygon fill="white" stroke="#666666" points="286.25,-29 166.75,-29 166.75,0 286.25,0 286.25,-29"/>
<text xml:space="preserve" text-anchor="start" x="174.75" y="-15.5" font-family="Helvetica,sans-Serif" font-size="10.00">Api::SimulationInstance</text>
<text xml:space="preserve" text-anchor="middle" x="226.5" y="-5" font-family="Helvetica,sans-Serif" font-size="10.00">::SimulationInstance</text>
</a>
</g>
</g>
<!-- Node1&#45;&gt;Node37 -->
<g id="edge44_Node000001_Node000037" class="edge">
<title>Node1&#45;&gt;Node37</title>
<g id="a_edge44_Node000001_Node000037"><a xlink:title=" ">
<path fill="none" stroke="#63b8ff" d="M60.27,-442.65C59.19,-386.21 62.2,-181.81 155.5,-55.5 161.46,-47.43 169.52,-40.68 178.05,-35.14"/>
<polygon fill="#63b8ff" stroke="#63b8ff" points="179.66,-38.25 186.49,-30.16 176.1,-32.23 179.66,-38.25"/>
</a>
</g>
</g>
<!-- Node2&#45;&gt;Node2 -->
<g id="edge2_Node000002_Node000002" class="edge">
<title>Node2&#45;&gt;Node2</title>
<g id="a_edge2_Node000002_Node000002"><a xlink:title=" ">
<path fill="none" stroke="#63b8ff" d="M197.44,-858.21C190.43,-867.32 200.12,-876 226.5,-876 240.93,-876 250.36,-873.41 254.8,-869.56"/>
<polygon fill="#63b8ff" stroke="#63b8ff" points="258.29,-869.93 255.46,-859.72 251.3,-869.46 258.29,-869.93"/>
</a>
</g>
</g>
<!-- Node2&#45;&gt;Node3 -->
<g id="edge3_Node000002_Node000003" class="edge">
<title>Node2&#45;&gt;Node3</title>
<g id="a_edge3_Node000002_Node000003"><a xlink:title=" ">
<path fill="none" stroke="#63b8ff" d="M286.6,-857.25C302.96,-861.06 320.88,-865.23 337.81,-869.17"/>
<polygon fill="#63b8ff" stroke="#63b8ff" points="336.76,-872.52 347.29,-871.37 338.34,-865.7 336.76,-872.52"/>
</a>
</g>
</g>
<!-- Node18 -->
<g id="Node000018" class="node">
<title>Node18</title>
<g id="a_Node000018"><a xlink:href="namespaceUnsafe.html#a703f3b37e1e69e30af8da78870f09df4" target="_top" xlink:title=" ">
<polygon fill="white" stroke="#666666" points="454.12,-852.75 363.88,-852.75 363.88,-834.25 454.12,-834.25 454.12,-852.75"/>
<text xml:space="preserve" text-anchor="middle" x="409" y="-839.25" font-family="Helvetica,sans-Serif" font-size="10.00">Unsafe::load_udf</text>
</a>
</g>
</g>
<!-- Node2&#45;&gt;Node18 -->
<g id="edge19_Node000002_Node000018" class="edge">
<title>Node2&#45;&gt;Node18</title>
<g id="a_edge19_Node000002_Node000018"><a xlink:title=" ">
<path fill="none" stroke="#63b8ff" d="M286.6,-843.5C307.77,-843.5 331.54,-843.5 352.4,-843.5"/>
<polygon fill="#63b8ff" stroke="#63b8ff" points="352.14,-847 362.14,-843.5 352.14,-840 352.14,-847"/>
</a>
</g>
</g>
<!-- Node4 -->
<g id="Node000004" class="node">
<title>Node4</title>
<g id="a_Node000004"><a xlink:href="namespaceCore.html#a877563df5a407318a381e12311022377" target="_top" xlink:title=" ">
<polygon fill="white" stroke="#666666" points="581.5,-873.75 520.5,-873.75 520.5,-855.25 581.5,-855.25 581.5,-873.75"/>
<text xml:space="preserve" text-anchor="middle" x="551" y="-860.25" font-family="Helvetica,sans-Serif" font-size="10.00">Core::load</text>
</a>
</g>
</g>
<!-- Node3&#45;&gt;Node4 -->
<g id="edge4_Node000003_Node000004" class="edge">
<title>Node3&#45;&gt;Node4</title>
<g id="a_edge4_Node000003_Node000004"><a xlink:title=" ">
<path fill="none" stroke="#63b8ff" d="M468.97,-876.65C482.47,-874.63 496.53,-872.52 509.08,-870.64"/>
<polygon fill="#63b8ff" stroke="#63b8ff" points="509.25,-874.15 518.62,-869.21 508.21,-867.23 509.25,-874.15"/>
</a>
</g>
</g>
<!-- Node5 -->
<g id="Node000005" class="node">
<title>Node5</title>
<g id="a_Node000005"><a xlink:href="namespaceCore.html#ab6528e76111960864b7e4741327b3049" target="_top" xlink:title="Start simulation.">
<polygon fill="white" stroke="#666666" points="680.75,-833.75 617.5,-833.75 617.5,-815.25 680.75,-815.25 680.75,-833.75"/>
<text xml:space="preserve" text-anchor="middle" x="649.12" y="-820.25" font-family="Helvetica,sans-Serif" font-size="10.00">Core::exec</text>
</a>
</g>
</g>
<!-- Node4&#45;&gt;Node5 -->
<g id="edge5_Node000004_Node000005" class="edge">
<title>Node4&#45;&gt;Node5</title>
<g id="a_edge5_Node000004_Node000005"><a xlink:title=" ">
<path fill="none" stroke="#63b8ff" d="M575.27,-854.82C586.99,-849.94 601.42,-843.94 614.34,-838.56"/>
<polygon fill="#63b8ff" stroke="#63b8ff" points="615.45,-841.89 623.34,-834.81 612.76,-835.42 615.45,-841.89"/>
</a>
</g>
</g>
<!-- Node6 -->
<g id="Node000006" class="node">
<title>Node6</title>
<g id="a_Node000006"><a xlink:href="namespaceCore.html#a23e6f3d22fc51ef9decabb2c220b27c4" target="_top" xlink:title=" ">
<polygon fill="white" stroke="#666666" points="837.75,-875.75 716.75,-875.75 716.75,-857.25 837.75,-857.25 837.75,-875.75"/>
<text xml:space="preserve" text-anchor="middle" x="777.25" y="-862.25" font-family="Helvetica,sans-Serif" font-size="10.00">Core::exporter_filename</text>
</a>
</g>
</g>
<!-- Node5&#45;&gt;Node6 -->
<g id="edge6_Node000005_Node000006" class="edge">
<title>Node5&#45;&gt;Node6</title>
<g id="a_edge6_Node000005_Node000006"><a xlink:title=" ">
<path fill="none" stroke="#63b8ff" d="M681.19,-827.61C692.36,-831.13 705.08,-835.64 716.75,-839.5 729.51,-843.72 743.93,-848.1 755.38,-852.51"/>
<polygon fill="#63b8ff" stroke="#63b8ff" points="753.7,-855.6 764.27,-856.33 756.47,-849.17 753.7,-855.6"/>
</a>
</g>
</g>
<!-- Node7 -->
<g id="Node000007" class="node">
<title>Node7</title>
<g id="a_Node000007"><a xlink:href="namespaceCore.html#afbce0beea293a7ccfdfc34a85b5e5e77" target="_top" xlink:title=" ">
<polygon fill="white" stroke="#666666" points="821.25,-839 733.25,-839 733.25,-810 821.25,-810 821.25,-839"/>
<text xml:space="preserve" text-anchor="start" x="741.25" y="-825.5" font-family="Helvetica,sans-Serif" font-size="10.00">Core::init_partial</text>
<text xml:space="preserve" text-anchor="middle" x="777.25" y="-815" font-family="Helvetica,sans-Serif" font-size="10.00">_exporter</text>
</a>
</g>
</g>
<!-- Node5&#45;&gt;Node7 -->
<g id="edge8_Node000005_Node000007" class="edge">
<title>Node5&#45;&gt;Node7</title>
<g id="a_edge8_Node000005_Node000007"><a xlink:title=" ">
<path fill="none" stroke="#63b8ff" d="M680.98,-824.5C693.17,-824.5 707.56,-824.5 721.41,-824.5"/>
<polygon fill="#63b8ff" stroke="#63b8ff" points="721.34,-828 731.34,-824.5 721.34,-821 721.34,-828"/>
</a>
</g>
</g>
<!-- Node13 -->
<g id="Node000013" class="node">
<title>Node13</title>
<g id="a_Node000013"><a xlink:href="namespacePostProcessing.html#a0e06c75e06cf43e767d5e3e8afab62f2" target="_top" xlink:title=" ">
<polygon fill="white" stroke="#666666" points="832.88,-792 721.62,-792 721.62,-763 832.88,-763 832.88,-792"/>
<text xml:space="preserve" text-anchor="start" x="729.62" y="-778.5" font-family="Helvetica,sans-Serif" font-size="10.00">PostProcessing::save</text>
<text xml:space="preserve" text-anchor="middle" x="777.25" y="-768" font-family="Helvetica,sans-Serif" font-size="10.00">_probes</text>
</a>
</g>
</g>
<!-- Node5&#45;&gt;Node13 -->
<g id="edge14_Node000005_Node000013" class="edge">
<title>Node5&#45;&gt;Node13</title>
<g id="a_edge14_Node000005_Node000013"><a xlink:title=" ">
<path fill="none" stroke="#63b8ff" d="M676.26,-814.76C690.6,-809.42 708.87,-802.61 725.87,-796.28"/>
<polygon fill="#63b8ff" stroke="#63b8ff" points="726.67,-799.71 734.82,-792.94 724.22,-793.15 726.67,-799.71"/>
</a>
</g>
</g>
<!-- Node17 -->
<g id="Node000017" class="node">
<title>Node17</title>
<g id="a_Node000017"><a xlink:href="classCore_1_1DataExporter.html#ad3b98151595b0962c089a7afcdb2a642" target="_top" xlink:title=" ">
<polygon fill="white" stroke="#666666" points="827.62,-745 726.88,-745 726.88,-716 827.62,-716 827.62,-745"/>
<text xml:space="preserve" text-anchor="start" x="734.88" y="-731.5" font-family="Helvetica,sans-Serif" font-size="10.00">Core::DataExporter</text>
<text xml:space="preserve" text-anchor="middle" x="777.25" y="-721" font-family="Helvetica,sans-Serif" font-size="10.00">::set_logger</text>
</a>
</g>
</g>
<!-- Node5&#45;&gt;Node17 -->
<g id="edge18_Node000005_Node000017" class="edge">
<title>Node5&#45;&gt;Node17</title>
<g id="a_edge18_Node000005_Node000017"><a xlink:title=" ">
<path fill="none" stroke="#63b8ff" d="M656.91,-815.12C667.97,-800.42 691.21,-771.85 716.75,-754.5 718.69,-753.18 720.72,-751.91 722.8,-750.7"/>
<polygon fill="#63b8ff" stroke="#63b8ff" points="724.29,-753.87 731.53,-746.14 721.04,-747.67 724.29,-753.87"/>
</a>
</g>
</g>
<!-- Node6&#45;&gt;Node5 -->
<g id="edge7_Node000006_Node000005" class="edge">
<title>Node6&#45;&gt;Node5</title>
<g id="a_edge7_Node000006_Node000005"><a xlink:title=" ">
<path fill="none" stroke="#63b8ff" d="M716.27,-857.34C700.47,-852.1 682.82,-845.69 669.73,-839.5"/>
<polygon fill="#63b8ff" stroke="#63b8ff" points="671.38,-836.42 660.9,-834.85 668.12,-842.61 671.38,-836.42"/>
</a>
</g>
</g>
<!-- Node8 -->
<g id="Node000008" class="node">
<title>Node8</title>
<g id="a_Node000008"><a xlink:href="classCore_1_1PartialExporter.html#a05cba8c28abaecce99f586d551a75f80" target="_top" xlink:title="Initializes the fields required for exporting data.">
<polygon fill="white" stroke="#666666" points="994,-933 885,-933 885,-904 994,-904 994,-933"/>
<text xml:space="preserve" text-anchor="start" x="893" y="-919.5" font-family="Helvetica,sans-Serif" font-size="10.00">Core::PartialExporter</text>
<text xml:space="preserve" text-anchor="middle" x="939.5" y="-909" font-family="Helvetica,sans-Serif" font-size="10.00">::init_fields</text>
</a>
</g>
</g>
<!-- Node7&#45;&gt;Node8 -->
<g id="edge9_Node000007_Node000008" class="edge">
<title>Node7&#45;&gt;Node8</title>
<g id="a_edge9_Node000007_Node000008"><a xlink:title=" ">
<path fill="none" stroke="#63b8ff" d="M821.67,-838.79C827.35,-841.57 832.87,-844.79 837.75,-848.5 858.69,-864.43 852.48,-880.01 873.75,-895.5 875.08,-896.47 876.45,-897.39 877.85,-898.29"/>
<polygon fill="#63b8ff" stroke="#63b8ff" points="875.79,-901.15 886.24,-902.93 879.18,-895.02 875.79,-901.15"/>
</a>
</g>
</g>
<!-- Node10 -->
<g id="Node000010" class="node">
<title>Node10</title>
<g id="a_Node000010"><a xlink:href="namespacePostProcessing.html#a9ff9231cbdf2a3c4e539c4638aba2445" target="_top" xlink:title=" ">
<polygon fill="white" stroke="#666666" points="995.12,-886 883.88,-886 883.88,-857 995.12,-857 995.12,-886"/>
<text xml:space="preserve" text-anchor="start" x="891.88" y="-872.5" font-family="Helvetica,sans-Serif" font-size="10.00">PostProcessing::save</text>
<text xml:space="preserve" text-anchor="middle" x="939.5" y="-862" font-family="Helvetica,sans-Serif" font-size="10.00">_particle_state</text>
</a>
</g>
</g>
<!-- Node7&#45;&gt;Node10 -->
<g id="edge11_Node000007_Node000010" class="edge">
<title>Node7&#45;&gt;Node10</title>
<g id="a_edge11_Node000007_Node000010"><a xlink:title=" ">
<path fill="none" stroke="#63b8ff" d="M821.62,-837.22C838.51,-842.17 858.18,-847.94 876.51,-853.32"/>
<polygon fill="#63b8ff" stroke="#63b8ff" points="875.39,-856.64 885.97,-856.09 877.36,-849.92 875.39,-856.64"/>
</a>
</g>
</g>
<!-- Node11 -->
<g id="Node000011" class="node">
<title>Node11</title>
<g id="a_Node000011"><a xlink:href="classCore_1_1PartialExporter.html#a450fb0c92efa4ee81b4083fc01f5e665" target="_top" xlink:title="Writes the number of particles in each compartment.">
<polygon fill="white" stroke="#666666" points="998.5,-839 880.5,-839 880.5,-810 998.5,-810 998.5,-839"/>
<text xml:space="preserve" text-anchor="start" x="888.5" y="-825.5" font-family="Helvetica,sans-Serif" font-size="10.00">Core::PartialExporter</text>
<text xml:space="preserve" text-anchor="middle" x="939.5" y="-815" font-family="Helvetica,sans-Serif" font-size="10.00">::write_number_particle</text>
</a>
</g>
</g>
<!-- Node7&#45;&gt;Node11 -->
<g id="edge12_Node000007_Node000011" class="edge">
<title>Node7&#45;&gt;Node11</title>
<g id="a_edge12_Node000007_Node000011"><a xlink:title=" ">
<path fill="none" stroke="#63b8ff" d="M821.62,-824.5C836.09,-824.5 852.6,-824.5 868.56,-824.5"/>
<polygon fill="#63b8ff" stroke="#63b8ff" points="868.54,-828 878.54,-824.5 868.54,-821 868.54,-828"/>
</a>
</g>
</g>
<!-- Node9 -->
<g id="Node000009" class="node">
<title>Node9</title>
<g id="a_Node000009"><a xlink:href="classCore_1_1DataExporter.html#a9c60512b8e80f25d5f1f6cac29b27d07" target="_top" xlink:title=" ">
<polygon fill="white" stroke="#666666" points="1142,-933 1041.25,-933 1041.25,-904 1142,-904 1142,-933"/>
<text xml:space="preserve" text-anchor="start" x="1049.25" y="-919.5" font-family="Helvetica,sans-Serif" font-size="10.00">Core::DataExporter</text>
<text xml:space="preserve" text-anchor="middle" x="1091.62" y="-909" font-family="Helvetica,sans-Serif" font-size="10.00">::prepare_matrix</text>
</a>
</g>
</g>
<!-- Node8&#45;&gt;Node9 -->
<g id="edge10_Node000008_Node000009" class="edge">
<title>Node8&#45;&gt;Node9</title>
<g id="a_edge10_Node000008_Node000009"><a xlink:title=" ">
<path fill="none" stroke="#63b8ff" d="M994.27,-918.5C1005.88,-918.5 1018.22,-918.5 1030.07,-918.5"/>
<polygon fill="#63b8ff" stroke="#63b8ff" points="1029.71,-922 1039.71,-918.5 1029.71,-915 1029.71,-922"/>
</a>
</g>
</g>
<!-- Node12 -->
<g id="Node000012" class="node">
<title>Node12</title>
<g id="a_Node000012"><a xlink:href="classCore_1_1DataExporter.html#a0af9b5e13d16339af1918f8e845193f9" target="_top" xlink:title=" ">
<polygon fill="white" stroke="#666666" points="1142,-839 1041.25,-839 1041.25,-810 1142,-810 1142,-839"/>
<text xml:space="preserve" text-anchor="start" x="1049.25" y="-825.5" font-family="Helvetica,sans-Serif" font-size="10.00">Core::DataExporter</text>
<text xml:space="preserve" text-anchor="middle" x="1091.62" y="-815" font-family="Helvetica,sans-Serif" font-size="10.00">::append_matrix</text>
</a>
</g>
</g>
<!-- Node11&#45;&gt;Node12 -->
<g id="edge13_Node000011_Node000012" class="edge">
<title>Node11&#45;&gt;Node12</title>
<g id="a_edge13_Node000011_Node000012"><a xlink:title=" ">
<path fill="none" stroke="#63b8ff" d="M998.97,-824.5C1009.02,-824.5 1019.49,-824.5 1029.6,-824.5"/>
<polygon fill="#63b8ff" stroke="#63b8ff" points="1029.32,-828 1039.32,-824.5 1029.32,-821 1029.32,-828"/>
</a>
</g>
</g>
<!-- Node14 -->
<g id="Node000014" class="node">
<title>Node14</title>
<g id="a_Node000014"><a xlink:href="classSimulation_1_1SimulationUnit.html#a0d675ed463b0caaeea75be8bd87d72cc" target="_top" xlink:title=" ">
<polygon fill="white" stroke="#666666" points="1005.25,-745 873.75,-745 873.75,-716 1005.25,-716 1005.25,-745"/>
<text xml:space="preserve" text-anchor="start" x="881.75" y="-731.5" font-family="Helvetica,sans-Serif" font-size="10.00">Simulation::SimulationUnit</text>
<text xml:space="preserve" text-anchor="middle" x="939.5" y="-721" font-family="Helvetica,sans-Serif" font-size="10.00">::get_probes</text>
</a>
</g>
</g>
<!-- Node13&#45;&gt;Node14 -->
<g id="edge15_Node000013_Node000014" class="edge">
<title>Node13&#45;&gt;Node14</title>
<g id="a_edge15_Node000013_Node000014"><a xlink:title=" ">
<path fill="none" stroke="#63b8ff" d="M828.95,-762.63C844.15,-758.17 860.99,-753.23 876.82,-748.59"/>
<polygon fill="#63b8ff" stroke="#63b8ff" points="877.51,-752.03 886.12,-745.86 875.54,-745.32 877.51,-752.03"/>
</a>
</g>
</g>
<!-- Node15 -->
<g id="Node000015" class="node">
<title>Node15</title>
<g id="a_Node000015"><a xlink:href="classCore_1_1PartialExporter.html#a9927dbf1350349f090606134043e190c" target="_top" xlink:title="Writes probe data to the export.">
<polygon fill="white" stroke="#666666" points="994,-792 885,-792 885,-763 994,-763 994,-792"/>
<text xml:space="preserve" text-anchor="start" x="893" y="-778.5" font-family="Helvetica,sans-Serif" font-size="10.00">Core::PartialExporter</text>
<text xml:space="preserve" text-anchor="middle" x="939.5" y="-768" font-family="Helvetica,sans-Serif" font-size="10.00">::write_probe</text>
</a>
</g>
</g>
<!-- Node13&#45;&gt;Node15 -->
<g id="edge16_Node000013_Node000015" class="edge">
<title>Node13&#45;&gt;Node15</title>
<g id="a_edge16_Node000013_Node000015"><a xlink:title=" ">
<path fill="none" stroke="#63b8ff" d="M832.95,-777.5C845.98,-777.5 860.02,-777.5 873.47,-777.5"/>
<polygon fill="#63b8ff" stroke="#63b8ff" points="873.08,-781 883.08,-777.5 873.08,-774 873.08,-781"/>
</a>
</g>
</g>
<!-- Node16 -->
<g id="Node000016" class="node">
<title>Node16</title>
<g id="a_Node000016"><a xlink:href="classCore_1_1DataExporter.html#a0b0b79f3932c4eb905704a852248c857" target="_top" xlink:title=" ">
<polygon fill="white" stroke="#666666" points="1142,-792 1041.25,-792 1041.25,-763 1142,-763 1142,-792"/>
<text xml:space="preserve" text-anchor="start" x="1049.25" y="-778.5" font-family="Helvetica,sans-Serif" font-size="10.00">Core::DataExporter</text>
<text xml:space="preserve" text-anchor="middle" x="1091.62" y="-768" font-family="Helvetica,sans-Serif" font-size="10.00">::append_array</text>
</a>
</g>
</g>
<!-- Node15&#45;&gt;Node16 -->
<g id="edge17_Node000015_Node000016" class="edge">
<title>Node15&#45;&gt;Node16</title>
<g id="a_edge17_Node000015_Node000016"><a xlink:title=" ">
<path fill="none" stroke="#63b8ff" d="M994.27,-777.5C1005.88,-777.5 1018.22,-777.5 1030.07,-777.5"/>
<polygon fill="#63b8ff" stroke="#63b8ff" points="1029.71,-781 1039.71,-777.5 1029.71,-774 1029.71,-781"/>
</a>
</g>
</g>
<!-- Node19&#45;&gt;Node5 -->
<g id="edge22_Node000019_Node000005" class="edge">
<title>Node19&#45;&gt;Node5</title>
<g id="a_edge22_Node000019_Node000005"><a xlink:title=" ">
<path fill="none" stroke="#63b8ff" d="M286.43,-800.42C372.38,-806.14 530.1,-816.64 605.63,-821.67"/>
<polygon fill="#63b8ff" stroke="#63b8ff" points="605.3,-825.16 615.51,-822.33 605.76,-818.17 605.3,-825.16"/>
</a>
</g>
</g>
<!-- Node20 -->
<g id="Node000020" class="node">
<title>Node20</title>
<g id="a_Node000020"><a xlink:href="namespaceIO.html#a30cc77fc5c4d45d3b56ef6a299ce2383" target="_top" xlink:title=" ">
<polygon fill="white" stroke="#666666" points="439.12,-760.75 378.88,-760.75 378.88,-742.25 439.12,-742.25 439.12,-760.75"/>
<text xml:space="preserve" text-anchor="middle" x="409" y="-747.25" font-family="Helvetica,sans-Serif" font-size="10.00">IO::format</text>
</a>
</g>
</g>
<!-- Node19&#45;&gt;Node20 -->
<g id="edge23_Node000019_Node000020" class="edge">
<title>Node19&#45;&gt;Node20</title>
<g id="a_edge23_Node000019_Node000020"><a xlink:title=" ">
<path fill="none" stroke="#63b8ff" d="M286.6,-781.77C313.11,-775.16 343.7,-767.53 367.55,-761.59"/>
<polygon fill="#63b8ff" stroke="#63b8ff" points="368.34,-765 377.19,-759.18 366.64,-758.2 368.34,-765"/>
</a>
</g>
</g>
<!-- Node20&#45;&gt;Node20 -->
<g id="edge24_Node000020_Node000020" class="edge">
<title>Node20&#45;&gt;Node20</title>
<g id="a_edge24_Node000020_Node000020"><a xlink:title=" ">
<path fill="none" stroke="#63b8ff" d="M387.11,-761C376.47,-769.57 383.76,-778.75 409,-778.75 423.2,-778.75 431.72,-775.84 434.56,-771.78"/>
<polygon fill="#63b8ff" stroke="#63b8ff" points="437.91,-770.77 431.37,-762.43 431.28,-773.02 437.91,-770.77"/>
</a>
</g>
</g>
<!-- Node33&#45;&gt;Node32 -->
<g id="edge39_Node000033_Node000032" class="edge">
<title>Node33&#45;&gt;Node32</title>
<g id="a_edge39_Node000033_Node000032"><a xlink:title=" ">
<path fill="none" stroke="#63b8ff" d="M279.22,-141.4C299.72,-147.3 323.47,-154.15 344.96,-160.34"/>
<polygon fill="#63b8ff" stroke="#63b8ff" points="343.92,-163.68 354.5,-163.09 345.86,-156.96 343.92,-163.68"/>
</a>
</g>
</g>
<!-- Node34 -->
<g id="Node000034" class="node">
<title>Node34</title>
<g id="a_Node000034"><a xlink:href="structSimulation_1_1Feed_1_1FeedFactory.html#ad67572164ac3ac30ccfacb0754e2fbab" target="_top" xlink:title=" ">
<polygon fill="white" stroke="#666666" points="484.5,-144 333.5,-144 333.5,-115 484.5,-115 484.5,-144"/>
<text xml:space="preserve" text-anchor="start" x="341.5" y="-130.5" font-family="Helvetica,sans-Serif" font-size="10.00">Simulation::Feed::FeedFactory</text>
<text xml:space="preserve" text-anchor="middle" x="409" y="-120" font-family="Helvetica,sans-Serif" font-size="10.00">::constant</text>
</a>
</g>
</g>
<!-- Node33&#45;&gt;Node34 -->
<g id="edge38_Node000033_Node000034" class="edge">
<title>Node33&#45;&gt;Node34</title>
<g id="a_edge38_Node000033_Node000034"><a xlink:title=" ">
<path fill="none" stroke="#63b8ff" d="M286.6,-127.48C297.9,-127.67 309.94,-127.87 321.88,-128.07"/>
<polygon fill="#63b8ff" stroke="#63b8ff" points="321.71,-131.57 331.76,-128.23 321.82,-124.57 321.71,-131.57"/>
</a>
</g>
</g>
<!-- Node35&#45;&gt;Node32 -->
<g id="edge42_Node000035_Node000032" class="edge">
<title>Node35&#45;&gt;Node32</title>
<g id="a_edge42_Node000035_Node000032"><a xlink:title=" ">
<path fill="none" stroke="#63b8ff" d="M297.8,-178.5C310.89,-178.5 324.58,-178.5 337.67,-178.5"/>
<polygon fill="#63b8ff" stroke="#63b8ff" points="337.48,-182 347.48,-178.5 337.48,-175 337.48,-182"/>
</a>
</g>
</g>
<!-- Node35&#45;&gt;Node34 -->
<g id="edge41_Node000035_Node000034" class="edge">
<title>Node35&#45;&gt;Node34</title>
<g id="a_edge41_Node000035_Node000034"><a xlink:title=" ">
<path fill="none" stroke="#63b8ff" d="M297.8,-159.42C312.4,-155.45 327.72,-151.29 342.15,-147.38"/>
<polygon fill="#63b8ff" stroke="#63b8ff" points="342.78,-150.83 351.52,-144.83 340.95,-144.08 342.78,-150.83"/>
</a>
</g>
</g>
<!-- Node37&#45;&gt;Node37 -->
<g id="edge45_Node000037_Node000037" class="edge">
<title>Node37&#45;&gt;Node37</title>
<g id="a_edge45_Node000037_Node000037"><a xlink:title=" ">
<path fill="none" stroke="#63b8ff" d="M197.44,-29.21C190.43,-38.32 200.12,-47 226.5,-47 240.93,-47 250.36,-44.41 254.8,-40.56"/>
<polygon fill="#63b8ff" stroke="#63b8ff" points="258.29,-40.93 255.46,-30.72 251.3,-40.46 258.29,-40.93"/>
</a>
</g>
</g>
</g>
</svg>

<g id="navigator" transform="translate(0 0)" fill="#404254">
  <rect fill="#f2f5e9" fill-opacity="0.5" stroke="#606060" stroke-width=".5" x="0" y="0" width="60" height="60"/>
  <use id="zoomplus" xlink:href="#zoomPlus" x="17" y="9" onmousedown="handleZoom(evt,'in')"/>
  <use id="zoomminus" xlink:href="#zoomMin" x="42" y="9" onmousedown="handleZoom(evt,'out')"/>
  <use id="reset" xlink:href="#resetDef" x="30" y="36" onmousedown="handleReset()"/>
   <use id="arrowup" xlink:href="#arrowUp" x="0" y="0" onmousedown="handlePan(0,-1)"/>
  <use id="arrowright" xlink:href="#arrowRight" x="0" y="0" onmousedown="handlePan(1,0)"/>
  <use id="arrowdown" xlink:href="#arrowDown" x="0" y="0" onmousedown="handlePan(0,1)"/>
  <use id="arrowleft" xlink:href="#arrowLeft" x="0" y="0" onmousedown="handlePan(-1,0)"/>
</g>
<svg viewBox="0 0 15 15" width="100%" height="30px" preserveAspectRatio="xMaxYMin meet">
 <g id="arrow_out" transform="scale(0.3 0.3)">
  <a xlink:href="structApi_1_1SimulationInstance_afee07db8a6b57fe7982900ecaa943cc0_cgraph_org.svg" target="_base">
   <rect id="button" ry="5" rx="5" y="6" x="6" height="38" width="38"
        fill="#f2f5e9" fill-opacity="0.5" stroke="#606060" stroke-width="1.0"/>
   <path id="arrow"
     d="M 11.500037,31.436501 C 11.940474,20.09759 22.043105,11.32322 32.158766,21.979434 L 37.068811,17.246167 C 37.068811,17.246167 37.088388,32 37.088388,32 L 22.160133,31.978069 C 22.160133,31.978069 26.997745,27.140456 26.997745,27.140456 C 18.528582,18.264221 13.291696,25.230495 11.500037,31.436501 z"
     style="fill:#404040;"/>
  </a>
 </g>
</svg>

<style type='text/css'>
<![CDATA[
[data-mouse-over-selected='false'] { opacity: 0.7; }
[data-mouse-over-selected='true']  { opacity: 1.0; }
]]>
</style>
<script type="application/ecmascript"><![CDATA[
document.addEventListener('DOMContentLoaded', (event) => {
  highlightEdges();
  highlightAdjacentNodes();
});
]]></script>
</svg>
