<?xml version="1.0" encoding="UTF-8" standalone="no"?>
<!DOCTYPE svg PUBLIC "-//W3C//DTD SVG 1.1//EN"
 "http://www.w3.org/Graphics/SVG/1.1/DTD/svg11.dtd">
<!-- Generated by graphviz version 14.0.1 (0)
 -->
<!-- Title: MC::Distributions::TruncatedNormal::draw_from Pages: 1 -->
<svg width="309pt" height="168pt"
 viewBox="0.00 0.00 309.00 168.00" xmlns="http://www.w3.org/2000/svg" xmlns:xlink="http://www.w3.org/1999/xlink">

<svg id="main" version="1.1" xmlns="http://www.w3.org/2000/svg" xmlns:xlink="http://www.w3.org/1999/xlink" xml:space="preserve">

<style type="text/css"><![CDATA[
.node, .edge {opacity: 0.7;}
.node.selected, .edge.selected {opacity: 1;}
.edge:hover path { stroke: red; }
.edge:hover polygon { stroke: red; fill: red; }
]]></style>
<script type="application/ecmascript" xlink:href="svg.min.js"/>
<svg id="graph" class="graph">
<g id="graph0" class="graph" transform="scale(1 1) rotate(0) translate(4 163.5)">
<title>MC::Distributions::TruncatedNormal::draw_from</title>
<!-- Node1 -->
<g id="Node000001" class="node">
<title>Node1</title>
<g id="a_Node000001"><a xlink:title=" ">
<polygon fill="#999999" stroke="#666666" points="301.25,-96.75 159.25,-96.75 159.25,-67.75 301.25,-67.75 301.25,-96.75"/>
<text xml:space="preserve" text-anchor="start" x="167.25" y="-83.25" font-family="Helvetica,sans-Serif" font-size="10.00">MC::Distributions::</text>
<text xml:space="preserve" text-anchor="middle" x="230.25" y="-72.75" font-family="Helvetica,sans-Serif" font-size="10.00">TruncatedNormal::draw_from</text>
</a>
</g>
</g>
<!-- Node2 -->
<g id="Node000002" class="node">
<title>Node2</title>
<g id="a_Node000002"><a xlink:href="structModels_1_1Uptake.html#af2b633b5392132bff28b6bb558cc690f" target="_top" xlink:title=" ">
<polygon fill="white" stroke="#666666" points="123.25,-159.5 0,-159.5 0,-141 123.25,-141 123.25,-159.5"/>
<text xml:space="preserve" text-anchor="middle" x="61.62" y="-146" font-family="Helvetica,sans-Serif" font-size="10.00">Models::Uptake::division</text>
</a>
</g>
</g>
<!-- Node1&#45;&gt;Node2 -->
<g id="edge1_Node000001_Node000002" class="edge">
<title>Node1&#45;&gt;Node2</title>
<g id="a_edge1_Node000001_Node000002"><a xlink:title=" ">
<path fill="none" stroke="#63b8ff" d="M190.78,-102.13C170.93,-111.94 146.13,-123.52 123.25,-132.25 115.35,-135.27 106.72,-138.09 98.51,-140.58"/>
<polygon fill="#63b8ff" stroke="#63b8ff" points="192.24,-105.31 199.62,-97.71 189.11,-99.05 192.24,-105.31"/>
</a>
</g>
</g>
<!-- Node3 -->
<g id="Node000003" class="node">
<title>Node3</title>
<g id="a_Node000003"><a xlink:href="structMC_1_1Distributions_1_1TruncatedNormal.html#a5c5cc899d8c3986ea0ae4b4789fbc533" target="_top" xlink:title=" ">
<polygon fill="white" stroke="#666666" points="120.25,-122.75 3,-122.75 3,-93.75 120.25,-93.75 120.25,-122.75"/>
<text xml:space="preserve" text-anchor="start" x="11" y="-109.25" font-family="Helvetica,sans-Serif" font-size="10.00">MC::Distributions::</text>
<text xml:space="preserve" text-anchor="middle" x="61.62" y="-98.75" font-family="Helvetica,sans-Serif" font-size="10.00">TruncatedNormal::draw</text>
</a>
</g>
</g>
<!-- Node1&#45;&gt;Node3 -->
<g id="edge2_Node000001_Node000003" class="edge">
<title>Node1&#45;&gt;Node3</title>
<g id="a_edge2_Node000001_Node000003"><a xlink:title=" ">
<path fill="none" stroke="#63b8ff" d="M147.89,-94.95C138.68,-96.38 129.44,-97.82 120.62,-99.2"/>
<polygon fill="#63b8ff" stroke="#63b8ff" points="148.23,-98.43 157.57,-93.43 147.15,-91.52 148.23,-98.43"/>
</a>
</g>
</g>
<!-- Node4 -->
<g id="Node000004" class="node">
<title>Node4</title>
<g id="a_Node000004"><a xlink:href="structMC_1_1Distributions_1_1ScaledTruncatedNormal.html#ac66c440e3d39d95509ab84a43455029b" target="_top" xlink:title=" ">
<polygon fill="white" stroke="#666666" points="121.75,-76 1.5,-76 1.5,-36.5 121.75,-36.5 121.75,-76"/>
<text xml:space="preserve" text-anchor="start" x="9.5" y="-62.5" font-family="Helvetica,sans-Serif" font-size="10.00">MC::Distributions::</text>
<text xml:space="preserve" text-anchor="start" x="9.5" y="-52" font-family="Helvetica,sans-Serif" font-size="10.00">ScaledTruncatedNormal</text>
<text xml:space="preserve" text-anchor="middle" x="61.62" y="-41.5" font-family="Helvetica,sans-Serif" font-size="10.00">::draw_from</text>
</a>
</g>
</g>
<!-- Node1&#45;&gt;Node4 -->
<g id="edge3_Node000001_Node000004" class="edge">
<title>Node1&#45;&gt;Node4</title>
<g id="a_edge3_Node000001_Node000004"><a xlink:title=" ">
<path fill="none" stroke="#63b8ff" d="M147.77,-69.54C139.14,-68.19 130.49,-66.84 122.18,-65.54"/>
<polygon fill="#63b8ff" stroke="#63b8ff" points="147.15,-72.98 157.57,-71.07 148.23,-66.07 147.15,-72.98"/>
</a>
</g>
</g>
<!-- Node5 -->
<g id="Node000005" class="node">
<title>Node5</title>
<g id="a_Node000005"><a xlink:href="structModels_1_1Uptake.html#a7a4704aa92a27da2a393ee8c4b034d65" target="_top" xlink:title=" ">
<polygon fill="white" stroke="#666666" points="113.12,-18.5 10.12,-18.5 10.12,0 113.12,0 113.12,-18.5"/>
<text xml:space="preserve" text-anchor="middle" x="61.62" y="-5" font-family="Helvetica,sans-Serif" font-size="10.00">Models::Uptake::init</text>
</a>
</g>
</g>
<!-- Node1&#45;&gt;Node5 -->
<g id="edge4_Node000001_Node000005" class="edge">
<title>Node1&#45;&gt;Node5</title>
<g id="a_edge4_Node000001_Node000005"><a xlink:title=" ">
<path fill="none" stroke="#63b8ff" d="M193.76,-61.68C173.54,-50.51 147.48,-37.03 123.25,-27.25 115.72,-24.21 107.47,-21.42 99.56,-19"/>
<polygon fill="#63b8ff" stroke="#63b8ff" points="192.01,-64.71 202.44,-66.54 195.43,-58.6 192.01,-64.71"/>
</a>
</g>
</g>
</g>
</svg>
</svg>

<style type='text/css'>
<![CDATA[
[data-mouse-over-selected='false'] { opacity: 0.7; }
[data-mouse-over-selected='true']  { opacity: 1.0; }
]]>
</style>
<script type="application/ecmascript"><![CDATA[
document.addEventListener('DOMContentLoaded', (event) => {
  highlightEdges();
  highlightAdjacentNodes();
});
]]></script>
</svg>
