<?xml version="1.0" encoding="UTF-8" standalone="no"?>
<!DOCTYPE svg PUBLIC "-//W3C//DTD SVG 1.1//EN"
 "http://www.w3.org/Graphics/SVG/1.1/DTD/svg11.dtd">
<!-- Generated by graphviz version 14.0.1 (0)
 -->
<!-- Title: MC::Distributions::TruncatedNormal::mean Pages: 1 -->
<svg width="263pt" height="84pt"
 viewBox="0.00 0.00 263.00 84.00" xmlns="http://www.w3.org/2000/svg" xmlns:xlink="http://www.w3.org/1999/xlink">
<g id="graph0" class="graph" transform="scale(1 1) rotate(0) translate(4 80)">
<title>MC::Distributions::TruncatedNormal::mean</title>
<!-- Node1 -->
<g id="Node000001" class="node">
<title>Node1</title>
<g id="a_Node000001"><a xlink:title=" ">
<polygon fill="#999999" stroke="#666666" points="120.25,-52 0,-52 0,-23 120.25,-23 120.25,-52"/>
<text xml:space="preserve" text-anchor="start" x="8" y="-38.5" font-family="Helvetica,sans-Serif" font-size="10.00">MC::Distributions::</text>
<text xml:space="preserve" text-anchor="middle" x="60.12" y="-28" font-family="Helvetica,sans-Serif" font-size="10.00">TruncatedNormal::mean</text>
</a>
</g>
</g>
<!-- Node2 -->
<g id="Node000002" class="node">
<title>Node2</title>
<g id="a_Node000002"><a xlink:href="namespaceMC_1_1Distributions.html#ad926df45d288940d27ecbc7d10dfda4c" target="_top" xlink:title="Computes the standard normal cumulative distribution function (CDF).">
<polygon fill="white" stroke="#666666" points="254.75,-76 156.25,-76 156.25,-47 254.75,-47 254.75,-76"/>
<text xml:space="preserve" text-anchor="start" x="164.25" y="-62.5" font-family="Helvetica,sans-Serif" font-size="10.00">MC::Distributions::</text>
<text xml:space="preserve" text-anchor="middle" x="205.5" y="-52" font-family="Helvetica,sans-Serif" font-size="10.00">std_normal_cdf</text>
</a>
</g>
</g>
<!-- Node1&#45;&gt;Node2 -->
<g id="edge1_Node000001_Node000002" class="edge">
<title>Node1&#45;&gt;Node2</title>
<g id="a_edge1_Node000001_Node000002"><a xlink:title=" ">
<path fill="none" stroke="#63b8ff" d="M120.68,-47.47C128.54,-48.78 136.6,-50.13 144.46,-51.45"/>
<polygon fill="#63b8ff" stroke="#63b8ff" points="143.87,-54.9 154.31,-53.1 145.03,-48 143.87,-54.9"/>
</a>
</g>
</g>
<!-- Node3 -->
<g id="Node000003" class="node">
<title>Node3</title>
<g id="a_Node000003"><a xlink:href="namespaceMC_1_1Distributions.html#a4f029bcbd226a11b903c0b6c0a0402ee" target="_top" xlink:title="Computes the standard normal probability density function (PDF).">
<polygon fill="white" stroke="#666666" points="254.75,-29 156.25,-29 156.25,0 254.75,0 254.75,-29"/>
<text xml:space="preserve" text-anchor="start" x="164.25" y="-15.5" font-family="Helvetica,sans-Serif" font-size="10.00">MC::Distributions::</text>
<text xml:space="preserve" text-anchor="middle" x="205.5" y="-5" font-family="Helvetica,sans-Serif" font-size="10.00">std_normal_pdf</text>
</a>
</g>
</g>
<!-- Node1&#45;&gt;Node3 -->
<g id="edge2_Node000001_Node000003" class="edge">
<title>Node1&#45;&gt;Node3</title>
<g id="a_edge2_Node000001_Node000003"><a xlink:title=" ">
<path fill="none" stroke="#63b8ff" d="M120.68,-27.95C128.54,-26.69 136.6,-25.39 144.46,-24.13"/>
<polygon fill="#63b8ff" stroke="#63b8ff" points="144.99,-27.59 154.31,-22.55 143.88,-20.68 144.99,-27.59"/>
</a>
</g>
</g>
</g>
</svg>
