<?xml version="1.0" encoding="UTF-8" standalone="no"?>
<!DOCTYPE svg PUBLIC "-//W3C//DTD SVG 1.1//EN"
 "http://www.w3.org/Graphics/SVG/1.1/DTD/svg11.dtd">
<!-- Generated by graphviz version 14.0.1 (0)
 -->
<!-- Title: MC::MonteCarloUnit::operator= Pages: 1 -->
<svg width="255pt" height="55pt"
 viewBox="0.00 0.00 255.00 55.00" xmlns="http://www.w3.org/2000/svg" xmlns:xlink="http://www.w3.org/1999/xlink">
<g id="graph0" class="graph" transform="scale(1 1) rotate(0) translate(4 51)">
<title>MC::MonteCarloUnit::operator=</title>
<!-- Node1 -->
<g id="Node000001" class="node">
<title>Node1</title>
<g id="a_Node000001"><a xlink:title="Allow moving of the MonteCarloUn.">
<polygon fill="#999999" stroke="#666666" points="105.25,-29 0,-29 0,0 105.25,0 105.25,-29"/>
<text xml:space="preserve" text-anchor="start" x="8" y="-15.5" font-family="Helvetica,sans-Serif" font-size="10.00">MC::MonteCarloUnit</text>
<text xml:space="preserve" text-anchor="middle" x="52.62" y="-5" font-family="Helvetica,sans-Serif" font-size="10.00">::operator=</text>
</a>
</g>
</g>
<!-- Node2 -->
<g id="Node000002" class="node">
<title>Node2</title>
<g id="a_Node000002"><a xlink:href="structMC_1_1MonteCarloUnit.html#a0e4f63686697a931b06447ce22b435c6" target="_top" xlink:title="Prevent copying of the MonteCarloUnit.">
<polygon fill="white" stroke="#666666" points="246.5,-29 141.25,-29 141.25,0 246.5,0 246.5,-29"/>
<text xml:space="preserve" text-anchor="start" x="149.25" y="-15.5" font-family="Helvetica,sans-Serif" font-size="10.00">MC::MonteCarloUnit</text>
<text xml:space="preserve" text-anchor="middle" x="193.88" y="-5" font-family="Helvetica,sans-Serif" font-size="10.00">::MonteCarloUnit</text>
</a>
</g>
</g>
<!-- Node1&#45;&gt;Node2 -->
<g id="edge1_Node000001_Node000002" class="edge">
<title>Node1&#45;&gt;Node2</title>
<g id="a_edge1_Node000001_Node000002"><a xlink:title=" ">
<path fill="none" stroke="#63b8ff" d="M105.48,-14.5C113.36,-14.5 121.57,-14.5 129.66,-14.5"/>
<polygon fill="#63b8ff" stroke="#63b8ff" points="129.47,-18 139.47,-14.5 129.47,-11 129.47,-18"/>
</a>
</g>
</g>
<!-- Node2&#45;&gt;Node2 -->
<g id="edge2_Node000002_Node000002" class="edge">
<title>Node2&#45;&gt;Node2</title>
<g id="a_edge2_Node000002_Node000002"><a xlink:title=" ">
<path fill="none" stroke="#63b8ff" d="M169.26,-29.21C163.32,-38.32 171.53,-47 193.88,-47 206.1,-47 214.09,-44.41 217.85,-40.56"/>
<polygon fill="#63b8ff" stroke="#63b8ff" points="221.34,-40.9 218.41,-30.72 214.35,-40.5 221.34,-40.9"/>
</a>
</g>
</g>
</g>
</svg>
