<?xml version="1.0" encoding="UTF-8" standalone="no"?>
<!DOCTYPE svg PUBLIC "-//W3C//DTD SVG 1.1//EN"
 "http://www.w3.org/Graphics/SVG/1.1/DTD/svg11.dtd">
<!-- Generated by graphviz version 14.0.1 (0)
 -->
<!-- Title: Api::SimulationInstance::SimulationInstance Pages: 1 -->
<svg width="422pt" height="225pt"
 viewBox="0.00 0.00 422.00 225.00" xmlns="http://www.w3.org/2000/svg" xmlns:xlink="http://www.w3.org/1999/xlink">
<g id="graph0" class="graph" transform="scale(1 1) rotate(0) translate(4 221)">
<title>Api::SimulationInstance::SimulationInstance</title>
<!-- Node1 -->
<g id="Node000001" class="node">
<title>Node1</title>
<g id="a_Node000001"><a xlink:title="Deleted copy constructor to prevent copying.">
<polygon fill="#999999" stroke="#666666" points="414,-123 294.5,-123 294.5,-94 414,-94 414,-123"/>
<text xml:space="preserve" text-anchor="start" x="302.5" y="-109.5" font-family="Helvetica,sans-Serif" font-size="10.00">Api::SimulationInstance</text>
<text xml:space="preserve" text-anchor="middle" x="354.25" y="-99" font-family="Helvetica,sans-Serif" font-size="10.00">::SimulationInstance</text>
</a>
</g>
</g>
<!-- Node1&#45;&gt;Node1 -->
<g id="edge6_Node000001_Node000001" class="edge">
<title>Node1&#45;&gt;Node1</title>
<g id="a_edge6_Node000001_Node000001"><a xlink:title=" ">
<path fill="none" stroke="#63b8ff" d="M380.64,-134.56C376.5,-138.41 367.7,-141 354.25,-141 329.65,-141 320.62,-132.32 327.15,-123.21"/>
<polygon fill="#63b8ff" stroke="#63b8ff" points="384.13,-134.92 381.26,-124.72 377.14,-134.48 384.13,-134.92"/>
</a>
</g>
</g>
<!-- Node2 -->
<g id="Node000002" class="node">
<title>Node2</title>
<g id="a_Node000002"><a xlink:href="structApi_1_1SimulationInstance.html#abdcc3b78881f75bd8fa06815ea08bd08" target="_top" xlink:title="Initialize a simulation instance.">
<polygon fill="white" stroke="#666666" points="258.5,-217 139,-217 139,-188 258.5,-188 258.5,-217"/>
<text xml:space="preserve" text-anchor="start" x="147" y="-203.5" font-family="Helvetica,sans-Serif" font-size="10.00">Api::SimulationInstance</text>
<text xml:space="preserve" text-anchor="middle" x="198.75" y="-193" font-family="Helvetica,sans-Serif" font-size="10.00">::init</text>
</a>
</g>
</g>
<!-- Node1&#45;&gt;Node2 -->
<g id="edge1_Node000001_Node000002" class="edge">
<title>Node1&#45;&gt;Node2</title>
<g id="a_edge1_Node000001_Node000002"><a xlink:title=" ">
<path fill="none" stroke="#63b8ff" d="M327.78,-130.58C309.41,-145.74 283.54,-165.55 258.5,-179.5 253.33,-182.38 247.73,-185.06 242.11,-187.51"/>
<polygon fill="#63b8ff" stroke="#63b8ff" points="329.84,-133.43 335.25,-124.32 325.34,-128.06 329.84,-133.43"/>
</a>
</g>
</g>
<!-- Node4 -->
<g id="Node000004" class="node">
<title>Node4</title>
<g id="a_Node000004"><a xlink:href="structApi_1_1SimulationInstance.html#ae3b200eebeb9f7ac1881b04804a8162e" target="_top" xlink:title="Deleted copy assignment operator to prevent copying.">
<polygon fill="white" stroke="#666666" points="258.5,-170 139,-170 139,-141 258.5,-141 258.5,-170"/>
<text xml:space="preserve" text-anchor="start" x="147" y="-156.5" font-family="Helvetica,sans-Serif" font-size="10.00">Api::SimulationInstance</text>
<text xml:space="preserve" text-anchor="middle" x="198.75" y="-146" font-family="Helvetica,sans-Serif" font-size="10.00">::operator=</text>
</a>
</g>
</g>
<!-- Node1&#45;&gt;Node4 -->
<g id="edge3_Node000001_Node000004" class="edge">
<title>Node1&#45;&gt;Node4</title>
<g id="a_edge3_Node000001_Node000004"><a xlink:title=" ">
<path fill="none" stroke="#63b8ff" d="M293.95,-126.66C278.92,-131.26 262.96,-136.14 248.53,-140.56"/>
<polygon fill="#63b8ff" stroke="#63b8ff" points="294.7,-130.09 303.23,-123.81 292.65,-123.4 294.7,-130.09"/>
</a>
</g>
</g>
<!-- Node5 -->
<g id="Node000005" class="node">
<title>Node5</title>
<g id="a_Node000005"><a xlink:href="structApi_1_1SimulationInstance.html#aa95ff2c5b7a00aa738eff843014b4cfd" target="_top" xlink:title="Defaulted move assignment operator for efficient resource transfer.">
<polygon fill="white" stroke="#666666" points="258.5,-123 139,-123 139,-94 258.5,-94 258.5,-123"/>
<text xml:space="preserve" text-anchor="start" x="147" y="-109.5" font-family="Helvetica,sans-Serif" font-size="10.00">Api::SimulationInstance</text>
<text xml:space="preserve" text-anchor="middle" x="198.75" y="-99" font-family="Helvetica,sans-Serif" font-size="10.00">::operator=</text>
</a>
</g>
</g>
<!-- Node1&#45;&gt;Node5 -->
<g id="edge4_Node000001_Node000005" class="edge">
<title>Node1&#45;&gt;Node5</title>
<g id="a_edge4_Node000001_Node000005"><a xlink:title=" ">
<path fill="none" stroke="#63b8ff" d="M282.99,-108.5C274.89,-108.5 266.69,-108.5 258.75,-108.5"/>
<polygon fill="#63b8ff" stroke="#63b8ff" points="282.83,-112 292.83,-108.5 282.83,-105 282.83,-112"/>
</a>
</g>
</g>
<!-- Node6 -->
<g id="Node000006" class="node">
<title>Node6</title>
<g id="a_Node000006"><a xlink:href="structApi_1_1SimulationInstance.html#afee07db8a6b57fe7982900ecaa943cc0" target="_top" xlink:title="Default constructor.">
<polygon fill="white" stroke="#666666" points="258.5,-76 139,-76 139,-47 258.5,-47 258.5,-76"/>
<text xml:space="preserve" text-anchor="start" x="147" y="-62.5" font-family="Helvetica,sans-Serif" font-size="10.00">Api::SimulationInstance</text>
<text xml:space="preserve" text-anchor="middle" x="198.75" y="-52" font-family="Helvetica,sans-Serif" font-size="10.00">::SimulationInstance</text>
</a>
</g>
</g>
<!-- Node1&#45;&gt;Node6 -->
<g id="edge5_Node000001_Node000006" class="edge">
<title>Node1&#45;&gt;Node6</title>
<g id="a_edge5_Node000001_Node000006"><a xlink:title=" ">
<path fill="none" stroke="#63b8ff" d="M293.95,-90.34C278.92,-85.74 262.96,-80.86 248.53,-76.44"/>
<polygon fill="#63b8ff" stroke="#63b8ff" points="292.65,-93.6 303.23,-93.19 294.7,-86.91 292.65,-93.6"/>
</a>
</g>
</g>
<!-- Node7 -->
<g id="Node000007" class="node">
<title>Node7</title>
<g id="a_Node000007"><a xlink:href="structApi_1_1SimulationInstance.html#a11810f88e18f91e91cc312489367442b" target="_top" xlink:title="Defaulted move constructor for efficient resource transfer.">
<polygon fill="white" stroke="#666666" points="258.5,-29 139,-29 139,0 258.5,0 258.5,-29"/>
<text xml:space="preserve" text-anchor="start" x="147" y="-15.5" font-family="Helvetica,sans-Serif" font-size="10.00">Api::SimulationInstance</text>
<text xml:space="preserve" text-anchor="middle" x="198.75" y="-5" font-family="Helvetica,sans-Serif" font-size="10.00">::SimulationInstance</text>
</a>
</g>
</g>
<!-- Node1&#45;&gt;Node7 -->
<g id="edge7_Node000001_Node000007" class="edge">
<title>Node1&#45;&gt;Node7</title>
<g id="a_edge7_Node000001_Node000007"><a xlink:title=" ">
<path fill="none" stroke="#63b8ff" d="M327.08,-86.39C308.7,-71.58 283.1,-52.32 258.5,-38.5 252.74,-35.26 246.45,-32.22 240.2,-29.47"/>
<polygon fill="#63b8ff" stroke="#63b8ff" points="324.86,-89.1 334.82,-92.73 329.3,-83.68 324.86,-89.1"/>
</a>
</g>
</g>
<!-- Node3 -->
<g id="Node000003" class="node">
<title>Node3</title>
<g id="a_Node000003"><a xlink:href="namespacePythonBindings.html#a6abd1c98e507d86b69aab328f0c94650" target="_top" xlink:title=" ">
<polygon fill="white" stroke="#666666" points="103,-217 0,-217 0,-188 103,-188 103,-217"/>
<text xml:space="preserve" text-anchor="start" x="8" y="-203.5" font-family="Helvetica,sans-Serif" font-size="10.00">PythonBindings::init</text>
<text xml:space="preserve" text-anchor="middle" x="51.5" y="-193" font-family="Helvetica,sans-Serif" font-size="10.00">_handle</text>
</a>
</g>
</g>
<!-- Node2&#45;&gt;Node3 -->
<g id="edge2_Node000002_Node000003" class="edge">
<title>Node2&#45;&gt;Node3</title>
<g id="a_edge2_Node000002_Node000003"><a xlink:title=" ">
<path fill="none" stroke="#63b8ff" d="M127.24,-202.5C119.11,-202.5 110.94,-202.5 103.15,-202.5"/>
<polygon fill="#63b8ff" stroke="#63b8ff" points="127.16,-206 137.16,-202.5 127.16,-199 127.16,-206"/>
</a>
</g>
</g>
</g>
</svg>
