<?xml version="1.0" encoding="UTF-8" standalone="no"?>
<!DOCTYPE svg PUBLIC "-//W3C//DTD SVG 1.1//EN"
 "http://www.w3.org/Graphics/SVG/1.1/DTD/svg11.dtd">
<!-- Generated by graphviz version 12.1.2 (0)
 -->
<!-- Title: Models::Uptake::init Pages: 1 -->
<svg width="558pt" height="37pt"
 viewBox="0.00 0.00 558.00 37.00" xmlns="http://www.w3.org/2000/svg" xmlns:xlink="http://www.w3.org/1999/xlink">
<g id="graph0" class="graph" transform="scale(1 1) rotate(0) translate(4 33)">
<title>Models::Uptake::init</title>
<!-- Node1 -->
<g id="Node000001" class="node">
<title>Node1</title>
<g id="a_Node000001"><a xlink:title=" ">
<polygon fill="#999999" stroke="#666666" points="103,-23.75 0,-23.75 0,-5.25 103,-5.25 103,-23.75"/>
<text text-anchor="middle" x="51.5" y="-10.25" font-family="Helvetica,sans-Serif" font-size="10.00">Models::Uptake::init</text>
</a>
</g>
</g>
<!-- Node2 -->
<g id="Node000002" class="node">
<title>Node2</title>
<g id="a_Node000002"><a xlink:href="structMC_1_1Distributions_1_1TruncatedNormal.html#af6cfcdb1f39978352e55fc5c5f729462" target="_top" xlink:title=" ">
<polygon fill="white" stroke="#666666" points="281,-29 139,-29 139,0 281,0 281,-29"/>
<text text-anchor="start" x="147" y="-15.5" font-family="Helvetica,sans-Serif" font-size="10.00">MC::Distributions::</text>
<text text-anchor="middle" x="210" y="-5" font-family="Helvetica,sans-Serif" font-size="10.00">TruncatedNormal::draw_from</text>
</a>
</g>
</g>
<!-- Node1&#45;&gt;Node2 -->
<g id="edge1_Node000001_Node000002" class="edge">
<title>Node1&#45;&gt;Node2</title>
<g id="a_edge1_Node000001_Node000002"><a xlink:title=" ">
<path fill="none" stroke="#63b8ff" d="M103.31,-14.5C110.95,-14.5 119,-14.5 127.09,-14.5"/>
<polygon fill="#63b8ff" stroke="#63b8ff" points="127.02,-18 137.02,-14.5 127.02,-11 127.02,-18"/>
</a>
</g>
</g>
<!-- Node3 -->
<g id="Node000003" class="node">
<title>Node3</title>
<g id="a_Node000003"><a xlink:href="namespaceMC_1_1Distributions.html#a3c07f6cf61b1c67ea9b2b3e0d6c42cc7" target="_top" xlink:title="Computes the inverse CDF (probit function) of a normal distribution.">
<polygon fill="white" stroke="#666666" points="415.5,-29 317,-29 317,0 415.5,0 415.5,-29"/>
<text text-anchor="start" x="325" y="-15.5" font-family="Helvetica,sans-Serif" font-size="10.00">MC::Distributions::</text>
<text text-anchor="middle" x="366.25" y="-5" font-family="Helvetica,sans-Serif" font-size="10.00">norminv</text>
</a>
</g>
</g>
<!-- Node2&#45;&gt;Node3 -->
<g id="edge2_Node000002_Node000003" class="edge">
<title>Node2&#45;&gt;Node3</title>
<g id="a_edge2_Node000002_Node000003"><a xlink:title=" ">
<path fill="none" stroke="#63b8ff" d="M281.35,-14.5C289.36,-14.5 297.47,-14.5 305.32,-14.5"/>
<polygon fill="#63b8ff" stroke="#63b8ff" points="305.1,-18 315.1,-14.5 305.1,-11 305.1,-18"/>
</a>
</g>
</g>
<!-- Node4 -->
<g id="Node000004" class="node">
<title>Node4</title>
<g id="a_Node000004"><a xlink:href="namespaceMC_1_1Distributions.html#a351272c0fa13e73d23c7b1caf92e858f" target="_top" xlink:title="Computes an approximation of the inverse error function.">
<polygon fill="white" stroke="#666666" points="550,-29 451.5,-29 451.5,0 550,0 550,-29"/>
<text text-anchor="start" x="459.5" y="-15.5" font-family="Helvetica,sans-Serif" font-size="10.00">MC::Distributions::</text>
<text text-anchor="middle" x="500.75" y="-5" font-family="Helvetica,sans-Serif" font-size="10.00">erfinv</text>
</a>
</g>
</g>
<!-- Node3&#45;&gt;Node4 -->
<g id="edge3_Node000003_Node000004" class="edge">
<title>Node3&#45;&gt;Node4</title>
<g id="a_edge3_Node000003_Node000004"><a xlink:title=" ">
<path fill="none" stroke="#63b8ff" d="M415.84,-14.5C423.67,-14.5 431.85,-14.5 439.91,-14.5"/>
<polygon fill="#63b8ff" stroke="#63b8ff" points="439.66,-18 449.66,-14.5 439.66,-11 439.66,-18"/>
</a>
</g>
</g>
</g>
</svg>
