<?xml version="1.0" encoding="UTF-8" standalone="no"?>
<!DOCTYPE svg PUBLIC "-//W3C//DTD SVG 1.1//EN"
 "http://www.w3.org/Graphics/SVG/1.1/DTD/svg11.dtd">
<!-- Generated by graphviz version 14.0.1 (0)
 -->
<!-- Title: Api::SimulationInstance::SimulationInstance Pages: 1 -->
<svg width="1302pt" height="927pt"
 viewBox="0.00 0.00 1302.00 927.00" xmlns="http://www.w3.org/2000/svg" xmlns:xlink="http://www.w3.org/1999/xlink">
<g id="graph0" class="graph" transform="scale(1 1) rotate(0) translate(4 923)">
<title>Api::SimulationInstance::SimulationInstance</title>
<!-- Node1 -->
<g id="Node000001" class="node">
<title>Node1</title>
<g id="a_Node000001"><a xlink:title="Default constructor.">
<polygon fill="#999999" stroke="#666666" points="119.5,-428 0,-428 0,-399 119.5,-399 119.5,-428"/>
<text xml:space="preserve" text-anchor="start" x="8" y="-414.5" font-family="Helvetica,sans-Serif" font-size="10.00">Api::SimulationInstance</text>
<text xml:space="preserve" text-anchor="middle" x="59.75" y="-404" font-family="Helvetica,sans-Serif" font-size="10.00">::SimulationInstance</text>
</a>
</g>
</g>
<!-- Node2 -->
<g id="Node000002" class="node">
<title>Node2</title>
<g id="a_Node000002"><a xlink:href="structApi_1_1SimulationInstance.html#a3c33e075fd2930a740817b71e6c24151" target="_top" xlink:title=" ">
<polygon fill="white" stroke="#666666" points="278.38,-811 158.88,-811 158.88,-782 278.38,-782 278.38,-811"/>
<text xml:space="preserve" text-anchor="start" x="166.88" y="-797.5" font-family="Helvetica,sans-Serif" font-size="10.00">Api::SimulationInstance</text>
<text xml:space="preserve" text-anchor="middle" x="218.62" y="-787" font-family="Helvetica,sans-Serif" font-size="10.00">::add_feed</text>
</a>
</g>
</g>
<!-- Node1&#45;&gt;Node2 -->
<g id="edge1_Node000001_Node000002" class="edge">
<title>Node1&#45;&gt;Node2</title>
<g id="a_edge1_Node000001_Node000002"><a xlink:title=" ">
<path fill="none" stroke="#63b8ff" d="M60.5,-428.28C60.39,-480.91 66.79,-661.71 155.5,-767.5 157.87,-770.33 160.58,-772.9 163.51,-775.23"/>
<polygon fill="#63b8ff" stroke="#63b8ff" points="161.33,-777.98 171.58,-780.67 165.25,-772.18 161.33,-777.98"/>
</a>
</g>
</g>
<!-- Node3 -->
<g id="Node000003" class="node">
<title>Node3</title>
<g id="a_Node000003"><a xlink:href="structApi_1_1SimulationInstance.html#a3398ddd22faa3ceb16b454c51faeced0" target="_top" xlink:title="Apply the simulation configuration and prepare for execution.">
<polygon fill="white" stroke="#666666" points="278.38,-707 158.88,-707 158.88,-678 278.38,-678 278.38,-707"/>
<text xml:space="preserve" text-anchor="start" x="166.88" y="-693.5" font-family="Helvetica,sans-Serif" font-size="10.00">Api::SimulationInstance</text>
<text xml:space="preserve" text-anchor="middle" x="218.62" y="-683" font-family="Helvetica,sans-Serif" font-size="10.00">::apply</text>
</a>
</g>
</g>
<!-- Node1&#45;&gt;Node3 -->
<g id="edge2_Node000001_Node000003" class="edge">
<title>Node1&#45;&gt;Node3</title>
<g id="a_edge2_Node000001_Node000003"><a xlink:title=" ">
<path fill="none" stroke="#63b8ff" d="M62.49,-428.5C68.12,-470.76 89.51,-592.4 155.5,-663.5 158.21,-666.42 161.28,-669.08 164.57,-671.49"/>
<polygon fill="#63b8ff" stroke="#63b8ff" points="162.67,-674.43 172.99,-676.82 166.41,-668.51 162.67,-674.43"/>
</a>
</g>
</g>
<!-- Node4 -->
<g id="Node000004" class="node">
<title>Node4</title>
<g id="a_Node000004"><a xlink:href="structApi_1_1SimulationInstance.html#ad2abfa76ac4128d44b7c0c895f78b77b" target="_top" xlink:title="Load ad apply the simulation configuration and prepare for execution based on file.">
<polygon fill="white" stroke="#666666" points="437.25,-758 317.75,-758 317.75,-729 437.25,-729 437.25,-758"/>
<text xml:space="preserve" text-anchor="start" x="325.75" y="-744.5" font-family="Helvetica,sans-Serif" font-size="10.00">Api::SimulationInstance</text>
<text xml:space="preserve" text-anchor="middle" x="377.5" y="-734" font-family="Helvetica,sans-Serif" font-size="10.00">::apply_load</text>
</a>
</g>
</g>
<!-- Node1&#45;&gt;Node4 -->
<g id="edge29_Node000001_Node000004" class="edge">
<title>Node1&#45;&gt;Node4</title>
<g id="a_edge29_Node000001_Node000004"><a xlink:title=" ">
<path fill="none" stroke="#63b8ff" d="M62.85,-428.43C71.35,-486.38 105.09,-695.2 155.5,-734.5 197.55,-767.29 259.01,-767.15 306.45,-760.16"/>
<polygon fill="#63b8ff" stroke="#63b8ff" points="306.76,-763.66 316.08,-758.61 305.65,-756.75 306.76,-763.66"/>
</a>
</g>
</g>
<!-- Node26 -->
<g id="Node000026" class="node">
<title>Node26</title>
<g id="a_Node000026"><a xlink:href="structApi_1_1SimulationInstance.html#a3f04372728be84263fb69f5773ca5bd5" target="_top" xlink:title="Execute the simulation.">
<polygon fill="white" stroke="#666666" points="592.75,-664 473.25,-664 473.25,-635 592.75,-635 592.75,-664"/>
<text xml:space="preserve" text-anchor="start" x="481.25" y="-650.5" font-family="Helvetica,sans-Serif" font-size="10.00">Api::SimulationInstance</text>
<text xml:space="preserve" text-anchor="middle" x="533" y="-640" font-family="Helvetica,sans-Serif" font-size="10.00">::exec</text>
</a>
</g>
</g>
<!-- Node1&#45;&gt;Node26 -->
<g id="edge30_Node000001_Node000026" class="edge">
<title>Node1&#45;&gt;Node26</title>
<g id="a_edge30_Node000001_Node000026"><a xlink:title=" ">
<path fill="none" stroke="#63b8ff" d="M62.11,-428.32C66.68,-468.73 85.46,-581.04 155.5,-629.5 203.41,-662.65 366.74,-659.37 461.81,-654.29"/>
<polygon fill="#63b8ff" stroke="#63b8ff" points="461.75,-657.8 471.54,-653.75 461.36,-650.81 461.75,-657.8"/>
</a>
</g>
</g>
<!-- Node27 -->
<g id="Node000027" class="node">
<title>Node27</title>
<g id="a_Node000027"><a xlink:href="structApi_1_1SimulationInstance.html#a37448530b88fd5401cbad17e9bd3c0a6" target="_top" xlink:title=" ">
<polygon fill="white" stroke="#666666" points="278.38,-621 158.88,-621 158.88,-592 278.38,-592 278.38,-621"/>
<text xml:space="preserve" text-anchor="start" x="166.88" y="-607.5" font-family="Helvetica,sans-Serif" font-size="10.00">Api::SimulationInstance</text>
<text xml:space="preserve" text-anchor="middle" x="218.62" y="-597" font-family="Helvetica,sans-Serif" font-size="10.00">::get_exec_info</text>
</a>
</g>
</g>
<!-- Node1&#45;&gt;Node27 -->
<g id="edge33_Node000001_Node000027" class="edge">
<title>Node1&#45;&gt;Node27</title>
<g id="a_edge33_Node000001_Node000027"><a xlink:title=" ">
<path fill="none" stroke="#63b8ff" d="M65.23,-428.38C75.72,-460.85 104.92,-538.65 155.5,-582.5 156.76,-583.59 158.07,-584.63 159.42,-585.63"/>
<polygon fill="#63b8ff" stroke="#63b8ff" points="157.3,-588.43 167.63,-590.78 161.02,-582.5 157.3,-588.43"/>
</a>
</g>
</g>
<!-- Node28 -->
<g id="Node000028" class="node">
<title>Node28</title>
<g id="a_Node000028"><a xlink:href="structApi_1_1SimulationInstance.html#ab938dea3b413538bfdaa40daa5d122a2" target="_top" xlink:title="Retrieve the simulation instance&#39;s unique identifier.">
<polygon fill="white" stroke="#666666" points="278.38,-574 158.88,-574 158.88,-545 278.38,-545 278.38,-574"/>
<text xml:space="preserve" text-anchor="start" x="166.88" y="-560.5" font-family="Helvetica,sans-Serif" font-size="10.00">Api::SimulationInstance</text>
<text xml:space="preserve" text-anchor="middle" x="218.62" y="-550" font-family="Helvetica,sans-Serif" font-size="10.00">::get_id</text>
</a>
</g>
</g>
<!-- Node1&#45;&gt;Node28 -->
<g id="edge34_Node000001_Node000028" class="edge">
<title>Node1&#45;&gt;Node28</title>
<g id="a_edge34_Node000001_Node000028"><a xlink:title=" ">
<path fill="none" stroke="#63b8ff" d="M68.69,-428.38C82.91,-453.72 115.05,-505.41 155.5,-535.5 157.24,-536.79 159.06,-538.03 160.93,-539.2"/>
<polygon fill="#63b8ff" stroke="#63b8ff" points="158.92,-542.09 169.37,-543.86 162.31,-535.96 158.92,-542.09"/>
</a>
</g>
</g>
<!-- Node29 -->
<g id="Node000029" class="node">
<title>Node29</title>
<g id="a_Node000029"><a xlink:href="structApi_1_1SimulationInstance.html#ac8b52d1e9fa704e89d252d884aa6cf3d" target="_top" xlink:title="Register a path for CMA data.">
<polygon fill="white" stroke="#666666" points="278.38,-527 158.88,-527 158.88,-498 278.38,-498 278.38,-527"/>
<text xml:space="preserve" text-anchor="start" x="166.88" y="-513.5" font-family="Helvetica,sans-Serif" font-size="10.00">Api::SimulationInstance</text>
<text xml:space="preserve" text-anchor="middle" x="218.62" y="-503" font-family="Helvetica,sans-Serif" font-size="10.00">::register_cma_path</text>
</a>
</g>
</g>
<!-- Node1&#45;&gt;Node29 -->
<g id="edge35_Node000001_Node000029" class="edge">
<title>Node1&#45;&gt;Node29</title>
<g id="a_edge35_Node000001_Node000029"><a xlink:title=" ">
<path fill="none" stroke="#63b8ff" d="M76.44,-428.39C94.4,-444.82 125.26,-471.22 155.5,-488.5 158.14,-490.01 160.89,-491.46 163.7,-492.85"/>
<polygon fill="#63b8ff" stroke="#63b8ff" points="162.15,-495.99 172.7,-496.98 165.07,-489.62 162.15,-495.99"/>
</a>
</g>
</g>
<!-- Node30 -->
<g id="Node000030" class="node">
<title>Node30</title>
<g id="a_Node000030"><a xlink:href="structApi_1_1SimulationInstance.html#a7fe33427bbf42fbff934729f90242271" target="_top" xlink:title=" ">
<polygon fill="white" stroke="#666666" points="281.75,-480 155.5,-480 155.5,-451 281.75,-451 281.75,-480"/>
<text xml:space="preserve" text-anchor="start" x="163.5" y="-466.5" font-family="Helvetica,sans-Serif" font-size="10.00">Api::SimulationInstance</text>
<text xml:space="preserve" text-anchor="middle" x="218.62" y="-456" font-family="Helvetica,sans-Serif" font-size="10.00">::register_initial_condition</text>
</a>
</g>
</g>
<!-- Node1&#45;&gt;Node30 -->
<g id="edge36_Node000001_Node000030" class="edge">
<title>Node1&#45;&gt;Node30</title>
<g id="a_edge36_Node000001_Node000030"><a xlink:title=" ">
<path fill="none" stroke="#63b8ff" d="M105.7,-428.4C123.11,-434.17 143.21,-440.83 161.54,-446.91"/>
<polygon fill="#63b8ff" stroke="#63b8ff" points="160.36,-450.21 170.96,-450.03 162.56,-443.56 160.36,-450.21"/>
</a>
</g>
</g>
<!-- Node31 -->
<g id="Node000031" class="node">
<title>Node31</title>
<g id="a_Node000031"><a xlink:href="structApi_1_1SimulationInstance.html#af7102c1a786cac7c27ad533ce1f29f06" target="_top" xlink:title=" ">
<polygon fill="white" stroke="#666666" points="278.38,-433.25 158.88,-433.25 158.88,-393.75 278.38,-393.75 278.38,-433.25"/>
<text xml:space="preserve" text-anchor="start" x="166.88" y="-419.75" font-family="Helvetica,sans-Serif" font-size="10.00">Api::SimulationInstance</text>
<text xml:space="preserve" text-anchor="start" x="166.88" y="-409.25" font-family="Helvetica,sans-Serif" font-size="10.00">::register_initialiser</text>
<text xml:space="preserve" text-anchor="middle" x="218.62" y="-398.75" font-family="Helvetica,sans-Serif" font-size="10.00">_file_path</text>
</a>
</g>
</g>
<!-- Node1&#45;&gt;Node31 -->
<g id="edge37_Node000001_Node000031" class="edge">
<title>Node1&#45;&gt;Node31</title>
<g id="a_edge37_Node000001_Node000031"><a xlink:title=" ">
<path fill="none" stroke="#63b8ff" d="M119.61,-413.5C128.54,-413.5 137.82,-413.5 146.97,-413.5"/>
<polygon fill="#63b8ff" stroke="#63b8ff" points="146.92,-417 156.92,-413.5 146.92,-410 146.92,-417"/>
</a>
</g>
</g>
<!-- Node32 -->
<g id="Node000032" class="node">
<title>Node32</title>
<g id="a_Node000032"><a xlink:href="structApi_1_1SimulationInstance.html#a06b825ee4dcaf97e49ef5d3644a7301a" target="_top" xlink:title="Register the model name for the simulation.">
<polygon fill="white" stroke="#666666" points="278.38,-376 158.88,-376 158.88,-347 278.38,-347 278.38,-376"/>
<text xml:space="preserve" text-anchor="start" x="166.88" y="-362.5" font-family="Helvetica,sans-Serif" font-size="10.00">Api::SimulationInstance</text>
<text xml:space="preserve" text-anchor="middle" x="218.62" y="-352" font-family="Helvetica,sans-Serif" font-size="10.00">::register_model_name</text>
</a>
</g>
</g>
<!-- Node1&#45;&gt;Node32 -->
<g id="edge38_Node000001_Node000032" class="edge">
<title>Node1&#45;&gt;Node32</title>
<g id="a_edge38_Node000001_Node000032"><a xlink:title=" ">
<path fill="none" stroke="#63b8ff" d="M105.7,-398.6C123.11,-392.83 143.21,-386.17 161.54,-380.09"/>
<polygon fill="#63b8ff" stroke="#63b8ff" points="162.56,-383.44 170.96,-376.97 160.36,-376.79 162.56,-383.44"/>
</a>
</g>
</g>
<!-- Node33 -->
<g id="Node000033" class="node">
<title>Node33</title>
<g id="a_Node000033"><a xlink:href="structApi_1_1SimulationInstance.html#ad54f1c021ad6af49979c42edf10b207b" target="_top" xlink:title="Register user control parameters for the simulation.">
<polygon fill="white" stroke="#666666" points="278.38,-329 158.88,-329 158.88,-300 278.38,-300 278.38,-329"/>
<text xml:space="preserve" text-anchor="start" x="166.88" y="-315.5" font-family="Helvetica,sans-Serif" font-size="10.00">Api::SimulationInstance</text>
<text xml:space="preserve" text-anchor="middle" x="218.62" y="-305" font-family="Helvetica,sans-Serif" font-size="10.00">::register_parameters</text>
</a>
</g>
</g>
<!-- Node1&#45;&gt;Node33 -->
<g id="edge39_Node000001_Node000033" class="edge">
<title>Node1&#45;&gt;Node33</title>
<g id="a_edge39_Node000001_Node000033"><a xlink:title=" ">
<path fill="none" stroke="#63b8ff" d="M76.03,-398.62C93.87,-381.91 124.86,-354.85 155.5,-337.5 157.53,-336.35 159.63,-335.24 161.78,-334.16"/>
<polygon fill="#63b8ff" stroke="#63b8ff" points="163.07,-337.42 170.69,-330.06 160.14,-331.06 163.07,-337.42"/>
</a>
</g>
</g>
<!-- Node34 -->
<g id="Node000034" class="node">
<title>Node34</title>
<g id="a_Node000034"><a xlink:href="structApi_1_1SimulationInstance.html#a19af55accb633781f80c6100a3508284" target="_top" xlink:title="Register a result output path.">
<polygon fill="white" stroke="#666666" points="278.38,-282 158.88,-282 158.88,-253 278.38,-253 278.38,-282"/>
<text xml:space="preserve" text-anchor="start" x="166.88" y="-268.5" font-family="Helvetica,sans-Serif" font-size="10.00">Api::SimulationInstance</text>
<text xml:space="preserve" text-anchor="middle" x="218.62" y="-258" font-family="Helvetica,sans-Serif" font-size="10.00">::register_result_path</text>
</a>
</g>
</g>
<!-- Node1&#45;&gt;Node34 -->
<g id="edge40_Node000001_Node000034" class="edge">
<title>Node1&#45;&gt;Node34</title>
<g id="a_edge40_Node000001_Node000034"><a xlink:title=" ">
<path fill="none" stroke="#63b8ff" d="M68.39,-398.84C82.38,-373.35 114.47,-320.7 155.5,-290.5 156.67,-289.64 157.88,-288.8 159.12,-288"/>
<polygon fill="#63b8ff" stroke="#63b8ff" points="160.78,-291.08 167.76,-283.11 157.33,-284.99 160.78,-291.08"/>
</a>
</g>
</g>
<!-- Node35 -->
<g id="Node000035" class="node">
<title>Node35</title>
<g id="a_Node000035"><a xlink:href="structApi_1_1SimulationInstance.html#afb6d2f04368f71955e4773dd5452f2e2" target="_top" xlink:title=" ">
<polygon fill="white" stroke="#666666" points="281,-235 156.25,-235 156.25,-206 281,-206 281,-235"/>
<text xml:space="preserve" text-anchor="start" x="164.25" y="-221.5" font-family="Helvetica,sans-Serif" font-size="10.00">Api::SimulationInstance</text>
<text xml:space="preserve" text-anchor="middle" x="218.62" y="-211" font-family="Helvetica,sans-Serif" font-size="10.00">::register_scalar_initiazer</text>
</a>
</g>
</g>
<!-- Node1&#45;&gt;Node35 -->
<g id="edge41_Node000001_Node000035" class="edge">
<title>Node1&#45;&gt;Node35</title>
<g id="a_edge41_Node000001_Node000035"><a xlink:title=" ">
<path fill="none" stroke="#63b8ff" d="M65,-398.97C75.22,-366.5 104.18,-287.47 155.5,-243.5 156.28,-242.83 157.09,-242.18 157.91,-241.54"/>
<polygon fill="#63b8ff" stroke="#63b8ff" points="159.59,-244.63 166.08,-236.25 155.78,-238.75 159.59,-244.63"/>
</a>
</g>
</g>
<!-- Node36 -->
<g id="Node000036" class="node">
<title>Node36</title>
<g id="a_Node000036"><a xlink:href="structApi_1_1SimulationInstance.html#a44482022a20986f2f68163a5a3baf49f" target="_top" xlink:title="Register a serialization/deserialization (serde) path.">
<polygon fill="white" stroke="#666666" points="278.38,-188 158.88,-188 158.88,-159 278.38,-159 278.38,-188"/>
<text xml:space="preserve" text-anchor="start" x="166.88" y="-174.5" font-family="Helvetica,sans-Serif" font-size="10.00">Api::SimulationInstance</text>
<text xml:space="preserve" text-anchor="middle" x="218.62" y="-164" font-family="Helvetica,sans-Serif" font-size="10.00">::register_serde</text>
</a>
</g>
</g>
<!-- Node1&#45;&gt;Node36 -->
<g id="edge42_Node000001_Node000036" class="edge">
<title>Node1&#45;&gt;Node36</title>
<g id="a_edge42_Node000001_Node000036"><a xlink:title=" ">
<path fill="none" stroke="#63b8ff" d="M63.14,-398.55C70.1,-359.73 93.93,-254.65 155.5,-196.5 156.01,-196.02 156.53,-195.55 157.06,-195.09"/>
<polygon fill="#63b8ff" stroke="#63b8ff" points="159.07,-197.95 165.18,-189.3 155.01,-192.25 159.07,-197.95"/>
</a>
</g>
</g>
<!-- Node37 -->
<g id="Node000037" class="node">
<title>Node37</title>
<g id="a_Node000037"><a xlink:href="structApi_1_1SimulationInstance.html#a73c191e86d9951411087785b68bf709e" target="_top" xlink:title=" ">
<polygon fill="white" stroke="#666666" points="278.38,-141 158.88,-141 158.88,-112 278.38,-112 278.38,-141"/>
<text xml:space="preserve" text-anchor="start" x="166.88" y="-127.5" font-family="Helvetica,sans-Serif" font-size="10.00">Api::SimulationInstance</text>
<text xml:space="preserve" text-anchor="middle" x="218.62" y="-117" font-family="Helvetica,sans-Serif" font-size="10.00">::set_auto_mtr</text>
</a>
</g>
</g>
<!-- Node1&#45;&gt;Node37 -->
<g id="edge43_Node000001_Node000037" class="edge">
<title>Node1&#45;&gt;Node37</title>
<g id="a_edge43_Node000001_Node000037"><a xlink:title=" ">
<path fill="none" stroke="#63b8ff" d="M61.8,-398.66C65.72,-354.51 83.21,-222.52 155.5,-149.5 155.98,-149.01 156.47,-148.54 156.97,-148.07"/>
<polygon fill="#63b8ff" stroke="#63b8ff" points="158.79,-151.09 164.68,-142.28 154.58,-145.49 158.79,-151.09"/>
</a>
</g>
</g>
<!-- Node38 -->
<g id="Node000038" class="node">
<title>Node38</title>
<g id="a_Node000038"><a xlink:href="structApi_1_1SimulationInstance.html#ad3dcce95a8552f794dfff2a0f382fcee" target="_top" xlink:title=" ">
<polygon fill="white" stroke="#666666" points="278.38,-94 158.88,-94 158.88,-65 278.38,-65 278.38,-94"/>
<text xml:space="preserve" text-anchor="start" x="166.88" y="-80.5" font-family="Helvetica,sans-Serif" font-size="10.00">Api::SimulationInstance</text>
<text xml:space="preserve" text-anchor="middle" x="218.62" y="-70" font-family="Helvetica,sans-Serif" font-size="10.00">::set_mtr</text>
</a>
</g>
</g>
<!-- Node1&#45;&gt;Node38 -->
<g id="edge44_Node000001_Node000038" class="edge">
<title>Node1&#45;&gt;Node38</title>
<g id="a_edge44_Node000001_Node000038"><a xlink:title=" ">
<path fill="none" stroke="#63b8ff" d="M60.86,-398.58C62.05,-349.4 72.45,-190.59 155.5,-102.5 155.86,-102.11 156.24,-101.73 156.62,-101.36"/>
<polygon fill="#63b8ff" stroke="#63b8ff" points="158.56,-104.28 164.24,-95.34 154.22,-98.79 158.56,-104.28"/>
</a>
</g>
</g>
<!-- Node39 -->
<g id="Node000039" class="node">
<title>Node39</title>
<g id="a_Node000039"><a xlink:href="structApi_1_1SimulationInstance.html#a7a849ee5dd1d0d13a198aecee702944c" target="_top" xlink:title="Deleted copy constructor to prevent copying.">
<polygon fill="white" stroke="#666666" points="278.38,-29 158.88,-29 158.88,0 278.38,0 278.38,-29"/>
<text xml:space="preserve" text-anchor="start" x="166.88" y="-15.5" font-family="Helvetica,sans-Serif" font-size="10.00">Api::SimulationInstance</text>
<text xml:space="preserve" text-anchor="middle" x="218.62" y="-5" font-family="Helvetica,sans-Serif" font-size="10.00">::SimulationInstance</text>
</a>
</g>
</g>
<!-- Node1&#45;&gt;Node39 -->
<g id="edge45_Node000001_Node000039" class="edge">
<title>Node1&#45;&gt;Node39</title>
<g id="a_edge45_Node000001_Node000039"><a xlink:title=" ">
<path fill="none" stroke="#63b8ff" d="M61.02,-398.63C62.67,-346.43 74.27,-168.54 155.5,-55.5 161.02,-47.82 168.47,-41.17 176.29,-35.6"/>
<polygon fill="#63b8ff" stroke="#63b8ff" points="178.16,-38.56 184.63,-30.17 174.34,-32.69 178.16,-38.56"/>
</a>
</g>
</g>
<!-- Node3&#45;&gt;Node3 -->
<g id="edge3_Node000003_Node000003" class="edge">
<title>Node3&#45;&gt;Node3</title>
<g id="a_edge3_Node000003_Node000003"><a xlink:title=" ">
<path fill="none" stroke="#63b8ff" d="M190.94,-707.21C184.26,-716.32 193.49,-725 218.62,-725 232.37,-725 241.36,-722.41 245.59,-718.56"/>
<polygon fill="#63b8ff" stroke="#63b8ff" points="249.08,-718.92 246.22,-708.72 242.09,-718.47 249.08,-718.92"/>
</a>
</g>
</g>
<!-- Node3&#45;&gt;Node4 -->
<g id="edge4_Node000003_Node000004" class="edge">
<title>Node3&#45;&gt;Node4</title>
<g id="a_edge4_Node000003_Node000004"><a xlink:title=" ">
<path fill="none" stroke="#63b8ff" d="M265.42,-707.39C282.35,-712.89 301.74,-719.2 319.54,-724.98"/>
<polygon fill="#63b8ff" stroke="#63b8ff" points="318.34,-728.27 328.94,-728.04 320.51,-721.62 318.34,-728.27"/>
</a>
</g>
</g>
<!-- Node25 -->
<g id="Node000025" class="node">
<title>Node25</title>
<g id="a_Node000025"><a xlink:href="namespaceUnsafe.html#a703f3b37e1e69e30af8da78870f09df4" target="_top" xlink:title=" ">
<polygon fill="white" stroke="#666666" points="422.62,-701.75 332.38,-701.75 332.38,-683.25 422.62,-683.25 422.62,-701.75"/>
<text xml:space="preserve" text-anchor="middle" x="377.5" y="-688.25" font-family="Helvetica,sans-Serif" font-size="10.00">Unsafe::load_udf</text>
</a>
</g>
</g>
<!-- Node3&#45;&gt;Node25 -->
<g id="edge28_Node000003_Node000025" class="edge">
<title>Node3&#45;&gt;Node25</title>
<g id="a_edge28_Node000003_Node000025"><a xlink:title=" ">
<path fill="none" stroke="#63b8ff" d="M278.49,-692.5C292.34,-692.5 307.07,-692.5 320.78,-692.5"/>
<polygon fill="#63b8ff" stroke="#63b8ff" points="320.51,-696 330.51,-692.5 320.51,-689 320.51,-696"/>
</a>
</g>
</g>
<!-- Node5 -->
<g id="Node000005" class="node">
<title>Node5</title>
<g id="a_Node000005"><a xlink:href="namespaceCore.html#a877563df5a407318a381e12311022377" target="_top" xlink:title=" ">
<polygon fill="white" stroke="#666666" points="563.5,-752.75 502.5,-752.75 502.5,-734.25 563.5,-734.25 563.5,-752.75"/>
<text xml:space="preserve" text-anchor="middle" x="533" y="-739.25" font-family="Helvetica,sans-Serif" font-size="10.00">Core::load</text>
</a>
</g>
</g>
<!-- Node4&#45;&gt;Node5 -->
<g id="edge5_Node000004_Node000005" class="edge">
<title>Node4&#45;&gt;Node5</title>
<g id="a_edge5_Node000004_Node000005"><a xlink:title=" ">
<path fill="none" stroke="#63b8ff" d="M437.41,-743.5C455.23,-743.5 474.42,-743.5 490.82,-743.5"/>
<polygon fill="#63b8ff" stroke="#63b8ff" points="490.7,-747 500.7,-743.5 490.7,-740 490.7,-747"/>
</a>
</g>
</g>
<!-- Node6 -->
<g id="Node000006" class="node">
<title>Node6</title>
<g id="a_Node000006"><a xlink:href="namespaceCore.html#a105cc1fc8005e6139954e3adce14f525" target="_top" xlink:title="Start simulation.">
<polygon fill="white" stroke="#666666" points="692,-752.75 628.75,-752.75 628.75,-734.25 692,-734.25 692,-752.75"/>
<text xml:space="preserve" text-anchor="middle" x="660.38" y="-739.25" font-family="Helvetica,sans-Serif" font-size="10.00">Core::exec</text>
</a>
</g>
</g>
<!-- Node5&#45;&gt;Node6 -->
<g id="edge6_Node000005_Node000006" class="edge">
<title>Node5&#45;&gt;Node6</title>
<g id="a_edge6_Node000005_Node000006"><a xlink:title=" ">
<path fill="none" stroke="#63b8ff" d="M563.71,-743.5C579.67,-743.5 599.62,-743.5 617.17,-743.5"/>
<polygon fill="#63b8ff" stroke="#63b8ff" points="617.05,-747 627.05,-743.5 617.05,-740 617.05,-747"/>
</a>
</g>
</g>
<!-- Node7 -->
<g id="Node000007" class="node">
<title>Node7</title>
<g id="a_Node000007"><a xlink:href="namespaceCore.html#a23e6f3d22fc51ef9decabb2c220b27c4" target="_top" xlink:title=" ">
<polygon fill="white" stroke="#666666" points="849,-773.75 728,-773.75 728,-755.25 849,-755.25 849,-773.75"/>
<text xml:space="preserve" text-anchor="middle" x="788.5" y="-760.25" font-family="Helvetica,sans-Serif" font-size="10.00">Core::exporter_filename</text>
</a>
</g>
</g>
<!-- Node6&#45;&gt;Node7 -->
<g id="edge7_Node000006_Node000007" class="edge">
<title>Node6&#45;&gt;Node7</title>
<g id="a_edge7_Node000006_Node000007"><a xlink:title=" ">
<path fill="none" stroke="#63b8ff" d="M692.23,-742.74C710.11,-744.68 732.7,-748.35 751.4,-752.32"/>
<polygon fill="#63b8ff" stroke="#63b8ff" points="750.46,-755.7 760.99,-754.49 752,-748.87 750.46,-755.7"/>
</a>
</g>
</g>
<!-- Node8 -->
<g id="Node000008" class="node">
<title>Node8</title>
<g id="a_Node000008"><a xlink:href="namespaceCore.html#afbce0beea293a7ccfdfc34a85b5e5e77" target="_top" xlink:title=" ">
<polygon fill="white" stroke="#666666" points="832.5,-667 744.5,-667 744.5,-638 832.5,-638 832.5,-667"/>
<text xml:space="preserve" text-anchor="start" x="752.5" y="-653.5" font-family="Helvetica,sans-Serif" font-size="10.00">Core::init_partial</text>
<text xml:space="preserve" text-anchor="middle" x="788.5" y="-643" font-family="Helvetica,sans-Serif" font-size="10.00">_exporter</text>
</a>
</g>
</g>
<!-- Node6&#45;&gt;Node8 -->
<g id="edge9_Node000006_Node000008" class="edge">
<title>Node6&#45;&gt;Node8</title>
<g id="a_edge9_Node000006_Node000008"><a xlink:title=" ">
<path fill="none" stroke="#63b8ff" d="M674.87,-733.76C694.57,-719.55 731.69,-692.77 757.92,-673.84"/>
<polygon fill="#63b8ff" stroke="#63b8ff" points="759.75,-676.83 765.82,-668.15 755.66,-671.16 759.75,-676.83"/>
</a>
</g>
</g>
<!-- Node16 -->
<g id="Node000016" class="node">
<title>Node16</title>
<g id="a_Node000016"><a xlink:href="namespacePostProcessing.html#abfe2a5894fae7c5534274da5d6d33e83" target="_top" xlink:title=" ">
<polygon fill="white" stroke="#666666" points="844.12,-737 732.88,-737 732.88,-708 844.12,-708 844.12,-737"/>
<text xml:space="preserve" text-anchor="start" x="740.88" y="-723.5" font-family="Helvetica,sans-Serif" font-size="10.00">PostProcessing::save</text>
<text xml:space="preserve" text-anchor="middle" x="788.5" y="-713" font-family="Helvetica,sans-Serif" font-size="10.00">_probes</text>
</a>
</g>
</g>
<!-- Node6&#45;&gt;Node16 -->
<g id="edge18_Node000006_Node000016" class="edge">
<title>Node6&#45;&gt;Node16</title>
<g id="a_edge18_Node000006_Node000016"><a xlink:title=" ">
<path fill="none" stroke="#63b8ff" d="M692.23,-738.36C701.23,-736.86 711.42,-735.17 721.71,-733.45"/>
<polygon fill="#63b8ff" stroke="#63b8ff" points="722.08,-736.94 731.37,-731.85 720.93,-730.04 722.08,-736.94"/>
</a>
</g>
</g>
<!-- Node24 -->
<g id="Node000024" class="node">
<title>Node24</title>
<g id="a_Node000024"><a xlink:href="classCore_1_1DataExporter.html#ad3b98151595b0962c089a7afcdb2a642" target="_top" xlink:title=" ">
<polygon fill="white" stroke="#666666" points="838.88,-821 738.12,-821 738.12,-792 838.88,-792 838.88,-821"/>
<text xml:space="preserve" text-anchor="start" x="746.12" y="-807.5" font-family="Helvetica,sans-Serif" font-size="10.00">Core::DataExporter</text>
<text xml:space="preserve" text-anchor="middle" x="788.5" y="-797" font-family="Helvetica,sans-Serif" font-size="10.00">::set_logger</text>
</a>
</g>
</g>
<!-- Node6&#45;&gt;Node24 -->
<g id="edge27_Node000006_Node000024" class="edge">
<title>Node6&#45;&gt;Node24</title>
<g id="a_edge27_Node000006_Node000024"><a xlink:title=" ">
<path fill="none" stroke="#63b8ff" d="M676.37,-753.13C689.65,-761.45 709.71,-773.52 728,-782.5 731.1,-784.02 734.32,-785.53 737.59,-787"/>
<polygon fill="#63b8ff" stroke="#63b8ff" points="736.14,-790.18 746.71,-790.95 738.92,-783.76 736.14,-790.18"/>
</a>
</g>
</g>
<!-- Node7&#45;&gt;Node6 -->
<g id="edge8_Node000007_Node000006" class="edge">
<title>Node7&#45;&gt;Node6</title>
<g id="a_edge8_Node000007_Node000006"><a xlink:title=" ">
<path fill="none" stroke="#63b8ff" d="M727.62,-761.27C717.34,-759.61 706.93,-757.69 697.52,-755.69"/>
<polygon fill="#63b8ff" stroke="#63b8ff" points="698.6,-752.34 688.07,-753.56 697.06,-759.17 698.6,-752.34"/>
</a>
</g>
</g>
<!-- Node9 -->
<g id="Node000009" class="node">
<title>Node9</title>
<g id="a_Node000009"><a xlink:href="classCore_1_1PartialExporter.html#a05cba8c28abaecce99f586d551a75f80" target="_top" xlink:title="Initializes the fields required for exporting data.">
<polygon fill="white" stroke="#666666" points="998.5,-702 889.5,-702 889.5,-673 998.5,-673 998.5,-702"/>
<text xml:space="preserve" text-anchor="start" x="897.5" y="-688.5" font-family="Helvetica,sans-Serif" font-size="10.00">Core::PartialExporter</text>
<text xml:space="preserve" text-anchor="middle" x="944" y="-678" font-family="Helvetica,sans-Serif" font-size="10.00">::init_fields</text>
</a>
</g>
</g>
<!-- Node8&#45;&gt;Node9 -->
<g id="edge10_Node000008_Node000009" class="edge">
<title>Node8&#45;&gt;Node9</title>
<g id="a_edge10_Node000008_Node000009"><a xlink:title=" ">
<path fill="none" stroke="#63b8ff" d="M832.67,-662.34C846.8,-665.56 862.81,-669.22 878.18,-672.72"/>
<polygon fill="#63b8ff" stroke="#63b8ff" points="877.21,-676.09 887.74,-674.9 878.77,-669.26 877.21,-676.09"/>
</a>
</g>
</g>
<!-- Node12 -->
<g id="Node000012" class="node">
<title>Node12</title>
<g id="a_Node000012"><a xlink:href="namespacePostProcessing.html#a262aae53c1f4dafed4795c687d6ea817" target="_top" xlink:title=" ">
<polygon fill="white" stroke="#666666" points="999.62,-655 888.38,-655 888.38,-626 999.62,-626 999.62,-655"/>
<text xml:space="preserve" text-anchor="start" x="896.38" y="-641.5" font-family="Helvetica,sans-Serif" font-size="10.00">PostProcessing::save</text>
<text xml:space="preserve" text-anchor="middle" x="944" y="-631" font-family="Helvetica,sans-Serif" font-size="10.00">_particle_state</text>
</a>
</g>
</g>
<!-- Node8&#45;&gt;Node12 -->
<g id="edge14_Node000008_Node000012" class="edge">
<title>Node8&#45;&gt;Node12</title>
<g id="a_edge14_Node000008_Node000012"><a xlink:title=" ">
<path fill="none" stroke="#63b8ff" d="M832.67,-649.13C846.38,-648.05 861.86,-646.84 876.81,-645.67"/>
<polygon fill="#63b8ff" stroke="#63b8ff" points="876.89,-649.18 886.58,-644.91 876.34,-642.2 876.89,-649.18"/>
</a>
</g>
</g>
<!-- Node14 -->
<g id="Node000014" class="node">
<title>Node14</title>
<g id="a_Node000014"><a xlink:href="classCore_1_1PartialExporter.html#a450fb0c92efa4ee81b4083fc01f5e665" target="_top" xlink:title="Writes the number of particles in each compartment.">
<polygon fill="white" stroke="#666666" points="1003,-608 885,-608 885,-579 1003,-579 1003,-608"/>
<text xml:space="preserve" text-anchor="start" x="893" y="-594.5" font-family="Helvetica,sans-Serif" font-size="10.00">Core::PartialExporter</text>
<text xml:space="preserve" text-anchor="middle" x="944" y="-584" font-family="Helvetica,sans-Serif" font-size="10.00">::write_number_particle</text>
</a>
</g>
</g>
<!-- Node8&#45;&gt;Node14 -->
<g id="edge16_Node000008_Node000014" class="edge">
<title>Node8&#45;&gt;Node14</title>
<g id="a_edge16_Node000008_Node000014"><a xlink:title=" ">
<path fill="none" stroke="#63b8ff" d="M828.23,-637.61C847.97,-630.02 872.2,-620.71 893.3,-612.6"/>
<polygon fill="#63b8ff" stroke="#63b8ff" points="894.52,-615.88 902.6,-609.03 892.01,-609.35 894.52,-615.88"/>
</a>
</g>
</g>
<!-- Node10 -->
<g id="Node000010" class="node">
<title>Node10</title>
<g id="a_Node000010"><a xlink:href="namespaceIO.html#a30cc77fc5c4d45d3b56ef6a299ce2383" target="_top" xlink:title=" ">
<polygon fill="white" stroke="#666666" points="1273.5,-692.75 1213.25,-692.75 1213.25,-674.25 1273.5,-674.25 1273.5,-692.75"/>
<text xml:space="preserve" text-anchor="middle" x="1243.38" y="-679.25" font-family="Helvetica,sans-Serif" font-size="10.00">IO::format</text>
</a>
</g>
</g>
<!-- Node9&#45;&gt;Node10 -->
<g id="edge11_Node000009_Node000010" class="edge">
<title>Node9&#45;&gt;Node10</title>
<g id="a_edge11_Node000009_Node000010"><a xlink:title=" ">
<path fill="none" stroke="#63b8ff" d="M998.85,-686.78C1057.2,-685.99 1149,-684.76 1201.64,-684.05"/>
<polygon fill="#63b8ff" stroke="#63b8ff" points="1201.41,-687.55 1211.37,-683.92 1201.32,-680.55 1201.41,-687.55"/>
</a>
</g>
</g>
<!-- Node11 -->
<g id="Node000011" class="node">
<title>Node11</title>
<g id="a_Node000011"><a xlink:href="classCore_1_1DataExporter.html#a9c60512b8e80f25d5f1f6cac29b27d07" target="_top" xlink:title=" ">
<polygon fill="white" stroke="#666666" points="1148.38,-741 1047.62,-741 1047.62,-712 1148.38,-712 1148.38,-741"/>
<text xml:space="preserve" text-anchor="start" x="1055.62" y="-727.5" font-family="Helvetica,sans-Serif" font-size="10.00">Core::DataExporter</text>
<text xml:space="preserve" text-anchor="middle" x="1098" y="-717" font-family="Helvetica,sans-Serif" font-size="10.00">::prepare_matrix</text>
</a>
</g>
</g>
<!-- Node9&#45;&gt;Node11 -->
<g id="edge13_Node000009_Node000011" class="edge">
<title>Node9&#45;&gt;Node11</title>
<g id="a_edge13_Node000009_Node000011"><a xlink:title=" ">
<path fill="none" stroke="#63b8ff" d="M998.59,-701.25C1010.82,-704.39 1023.9,-707.74 1036.4,-710.95"/>
<polygon fill="#63b8ff" stroke="#63b8ff" points="1035.18,-714.25 1045.73,-713.35 1036.92,-707.47 1035.18,-714.25"/>
</a>
</g>
</g>
<!-- Node10&#45;&gt;Node10 -->
<g id="edge12_Node000010_Node000010" class="edge">
<title>Node10&#45;&gt;Node10</title>
<g id="a_edge12_Node000010_Node000010"><a xlink:title=" ">
<path fill="none" stroke="#63b8ff" d="M1220.97,-693C1210.07,-701.57 1217.54,-710.75 1243.38,-710.75 1257.91,-710.75 1266.63,-707.84 1269.54,-703.78"/>
<polygon fill="#63b8ff" stroke="#63b8ff" points="1272.88,-702.72 1266.28,-694.42 1266.27,-705.02 1272.88,-702.72"/>
</a>
</g>
</g>
<!-- Node13 -->
<g id="Node000013" class="node">
<title>Node13</title>
<g id="a_Node000013"><a xlink:href="classSimulation_1_1Getter.html#ae948f113363f8ab858797a17c28a2e86" target="_top" xlink:title=" ">
<polygon fill="white" stroke="#666666" points="1145.38,-655 1050.62,-655 1050.62,-626 1145.38,-626 1145.38,-655"/>
<text xml:space="preserve" text-anchor="start" x="1058.62" y="-641.5" font-family="Helvetica,sans-Serif" font-size="10.00">Simulation::Getter</text>
<text xml:space="preserve" text-anchor="middle" x="1098" y="-631" font-family="Helvetica,sans-Serif" font-size="10.00">::mc_unit</text>
</a>
</g>
</g>
<!-- Node12&#45;&gt;Node13 -->
<g id="edge15_Node000012_Node000013" class="edge">
<title>Node12&#45;&gt;Node13</title>
<g id="a_edge15_Node000012_Node000013"><a xlink:title=" ">
<path fill="none" stroke="#63b8ff" d="M999.88,-640.5C1012.51,-640.5 1025.98,-640.5 1038.75,-640.5"/>
<polygon fill="#63b8ff" stroke="#63b8ff" points="1038.72,-644 1048.72,-640.5 1038.72,-637 1038.72,-644"/>
</a>
</g>
</g>
<!-- Node15 -->
<g id="Node000015" class="node">
<title>Node15</title>
<g id="a_Node000015"><a xlink:href="classCore_1_1DataExporter.html#a0af9b5e13d16339af1918f8e845193f9" target="_top" xlink:title=" ">
<polygon fill="white" stroke="#666666" points="1148.38,-608 1047.62,-608 1047.62,-579 1148.38,-579 1148.38,-608"/>
<text xml:space="preserve" text-anchor="start" x="1055.62" y="-594.5" font-family="Helvetica,sans-Serif" font-size="10.00">Core::DataExporter</text>
<text xml:space="preserve" text-anchor="middle" x="1098" y="-584" font-family="Helvetica,sans-Serif" font-size="10.00">::append_matrix</text>
</a>
</g>
</g>
<!-- Node14&#45;&gt;Node15 -->
<g id="edge17_Node000014_Node000015" class="edge">
<title>Node14&#45;&gt;Node15</title>
<g id="a_edge17_Node000014_Node000015"><a xlink:title=" ">
<path fill="none" stroke="#63b8ff" d="M1003.33,-593.5C1014.03,-593.5 1025.22,-593.5 1036,-593.5"/>
<polygon fill="#63b8ff" stroke="#63b8ff" points="1035.97,-597 1045.97,-593.5 1035.97,-590 1035.97,-597"/>
</a>
</g>
</g>
<!-- Node17 -->
<g id="Node000017" class="node">
<title>Node17</title>
<g id="a_Node000017"><a xlink:href="namespacePostProcessing.html#adae52b6b518e25be1c920f36f196ef65" target="_top" xlink:title=" ">
<polygon fill="white" stroke="#666666" points="1002.25,-825 885.75,-825 885.75,-796 1002.25,-796 1002.25,-825"/>
<text xml:space="preserve" text-anchor="start" x="893.75" y="-811.5" font-family="Helvetica,sans-Serif" font-size="10.00">PostProcessing::_save</text>
<text xml:space="preserve" text-anchor="middle" x="944" y="-801" font-family="Helvetica,sans-Serif" font-size="10.00">_probes</text>
</a>
</g>
</g>
<!-- Node16&#45;&gt;Node17 -->
<g id="edge19_Node000016_Node000017" class="edge">
<title>Node16&#45;&gt;Node17</title>
<g id="a_edge19_Node000016_Node000017"><a xlink:title=" ">
<path fill="none" stroke="#63b8ff" d="M830.04,-737.49C836.49,-740.26 843.01,-743.3 849,-746.5 872.28,-758.94 896.88,-775.84 915.08,-789.15"/>
<polygon fill="#63b8ff" stroke="#63b8ff" points="912.63,-791.69 922.75,-794.84 916.8,-786.07 912.63,-791.69"/>
</a>
</g>
</g>
<!-- Node23 -->
<g id="Node000023" class="node">
<title>Node23</title>
<g id="a_Node000023"><a xlink:href="classSimulation_1_1Getter.html#ab2fa179687f4810f64d4c1c2beb7800c" target="_top" xlink:title=" ">
<polygon fill="white" stroke="#666666" points="991.38,-749 896.62,-749 896.62,-720 991.38,-720 991.38,-749"/>
<text xml:space="preserve" text-anchor="start" x="904.62" y="-735.5" font-family="Helvetica,sans-Serif" font-size="10.00">Simulation::Getter</text>
<text xml:space="preserve" text-anchor="middle" x="944" y="-725" font-family="Helvetica,sans-Serif" font-size="10.00">::it_probes</text>
</a>
</g>
</g>
<!-- Node16&#45;&gt;Node23 -->
<g id="edge26_Node000016_Node000023" class="edge">
<title>Node16&#45;&gt;Node23</title>
<g id="a_edge26_Node000016_Node000023"><a xlink:title=" ">
<path fill="none" stroke="#63b8ff" d="M844.48,-726.8C857.66,-727.83 871.76,-728.93 885.07,-729.97"/>
<polygon fill="#63b8ff" stroke="#63b8ff" points="884.76,-733.46 895,-730.75 885.3,-726.48 884.76,-733.46"/>
</a>
</g>
</g>
<!-- Node18 -->
<g id="Node000018" class="node">
<title>Node18</title>
<g id="a_Node000018"><a xlink:href="classSimulation_1_1Probes.html#af54f1c8be6e49f63e8533d6a4e91cad3" target="_top" xlink:title=" ">
<polygon fill="white" stroke="#666666" points="1147.25,-825 1048.75,-825 1048.75,-796 1147.25,-796 1147.25,-825"/>
<text xml:space="preserve" text-anchor="start" x="1056.75" y="-811.5" font-family="Helvetica,sans-Serif" font-size="10.00">Simulation::Probes</text>
<text xml:space="preserve" text-anchor="middle" x="1098" y="-801" font-family="Helvetica,sans-Serif" font-size="10.00">::clear</text>
</a>
</g>
</g>
<!-- Node17&#45;&gt;Node18 -->
<g id="edge20_Node000017_Node000018" class="edge">
<title>Node17&#45;&gt;Node18</title>
<g id="a_edge20_Node000017_Node000018"><a xlink:title=" ">
<path fill="none" stroke="#63b8ff" d="M1002.46,-810.5C1013.81,-810.5 1025.75,-810.5 1037.18,-810.5"/>
<polygon fill="#63b8ff" stroke="#63b8ff" points="1036.88,-814 1046.88,-810.5 1036.88,-807 1036.88,-814"/>
</a>
</g>
</g>
<!-- Node19 -->
<g id="Node000019" class="node">
<title>Node19</title>
<g id="a_Node000019"><a xlink:href="classSimulation_1_1Probes.html#a6345c8304e772a314dae935f742d518a" target="_top" xlink:title=" ">
<polygon fill="white" stroke="#666666" points="1157,-777.75 1039,-777.75 1039,-759.25 1157,-759.25 1157,-777.75"/>
<text xml:space="preserve" text-anchor="middle" x="1098" y="-764.25" font-family="Helvetica,sans-Serif" font-size="10.00">Simulation::Probes::get</text>
</a>
</g>
</g>
<!-- Node17&#45;&gt;Node19 -->
<g id="edge21_Node000017_Node000019" class="edge">
<title>Node17&#45;&gt;Node19</title>
<g id="a_edge21_Node000017_Node000019"><a xlink:title=" ">
<path fill="none" stroke="#63b8ff" d="M999.02,-795.57C1016.07,-790.86 1034.74,-785.7 1051.17,-781.16"/>
<polygon fill="#63b8ff" stroke="#63b8ff" points="1051.97,-784.57 1060.68,-778.54 1050.11,-777.83 1051.97,-784.57"/>
</a>
</g>
</g>
<!-- Node20 -->
<g id="Node000020" class="node">
<title>Node20</title>
<g id="a_Node000020"><a xlink:href="classSimulation_1_1Probes.html#a2b8541ff7ad653204a955ff1feb78757" target="_top" xlink:title=" ">
<polygon fill="white" stroke="#666666" points="1147.25,-919 1048.75,-919 1048.75,-890 1147.25,-890 1147.25,-919"/>
<text xml:space="preserve" text-anchor="start" x="1056.75" y="-905.5" font-family="Helvetica,sans-Serif" font-size="10.00">Simulation::Probes</text>
<text xml:space="preserve" text-anchor="middle" x="1098" y="-895" font-family="Helvetica,sans-Serif" font-size="10.00">::need_export</text>
</a>
</g>
</g>
<!-- Node17&#45;&gt;Node20 -->
<g id="edge22_Node000017_Node000020" class="edge">
<title>Node17&#45;&gt;Node20</title>
<g id="a_edge22_Node000017_Node000020"><a xlink:title=" ">
<path fill="none" stroke="#63b8ff" d="M961.7,-825.33C979.78,-840.85 1009.94,-865.16 1039,-881.5 1041.03,-882.64 1043.13,-883.75 1045.26,-884.83"/>
<polygon fill="#63b8ff" stroke="#63b8ff" points="1043.58,-887.9 1054.12,-888.99 1046.55,-881.57 1043.58,-887.9"/>
</a>
</g>
</g>
<!-- Node21 -->
<g id="Node000021" class="node">
<title>Node21</title>
<g id="a_Node000021"><a xlink:href="classCore_1_1PartialExporter.html#a53c54ce796df99b407f410beb01074c5" target="_top" xlink:title="Writes probe data to the export.">
<polygon fill="white" stroke="#666666" points="1152.5,-872 1043.5,-872 1043.5,-843 1152.5,-843 1152.5,-872"/>
<text xml:space="preserve" text-anchor="start" x="1051.5" y="-858.5" font-family="Helvetica,sans-Serif" font-size="10.00">Core::PartialExporter</text>
<text xml:space="preserve" text-anchor="middle" x="1098" y="-848" font-family="Helvetica,sans-Serif" font-size="10.00">::write_probe</text>
</a>
</g>
</g>
<!-- Node17&#45;&gt;Node21 -->
<g id="edge23_Node000017_Node000021" class="edge">
<title>Node17&#45;&gt;Node21</title>
<g id="a_edge23_Node000017_Node000021"><a xlink:title=" ">
<path fill="none" stroke="#63b8ff" d="M993.09,-825.37C1007.37,-829.79 1023.17,-834.67 1038.06,-839.27"/>
<polygon fill="#63b8ff" stroke="#63b8ff" points="1036.66,-842.51 1047.25,-842.12 1038.73,-835.82 1036.66,-842.51"/>
</a>
</g>
</g>
<!-- Node21&#45;&gt;Node10 -->
<g id="edge25_Node000021_Node000010" class="edge">
<title>Node21&#45;&gt;Node10</title>
<g id="a_edge25_Node000021_Node000010"><a xlink:title=" ">
<path fill="none" stroke="#63b8ff" d="M1145.35,-842.58C1149.52,-840.24 1153.49,-837.56 1157,-834.5 1198.87,-798.01 1224.73,-735.72 1235.91,-703.75"/>
<polygon fill="#63b8ff" stroke="#63b8ff" points="1239.14,-705.12 1239,-694.53 1232.5,-702.9 1239.14,-705.12"/>
</a>
</g>
</g>
<!-- Node22 -->
<g id="Node000022" class="node">
<title>Node22</title>
<g id="a_Node000022"><a xlink:href="classCore_1_1DataExporter.html#a0b0b79f3932c4eb905704a852248c857" target="_top" xlink:title=" ">
<polygon fill="white" stroke="#666666" points="1293.75,-872 1193,-872 1193,-843 1293.75,-843 1293.75,-872"/>
<text xml:space="preserve" text-anchor="start" x="1201" y="-858.5" font-family="Helvetica,sans-Serif" font-size="10.00">Core::DataExporter</text>
<text xml:space="preserve" text-anchor="middle" x="1243.38" y="-848" font-family="Helvetica,sans-Serif" font-size="10.00">::append_array</text>
</a>
</g>
</g>
<!-- Node21&#45;&gt;Node22 -->
<g id="edge24_Node000021_Node000022" class="edge">
<title>Node21&#45;&gt;Node22</title>
<g id="a_edge24_Node000021_Node000022"><a xlink:title=" ">
<path fill="none" stroke="#63b8ff" d="M1152.8,-857.5C1162.06,-857.5 1171.75,-857.5 1181.19,-857.5"/>
<polygon fill="#63b8ff" stroke="#63b8ff" points="1181.03,-861 1191.03,-857.5 1181.03,-854 1181.03,-861"/>
</a>
</g>
</g>
<!-- Node26&#45;&gt;Node6 -->
<g id="edge31_Node000026_Node000006" class="edge">
<title>Node26&#45;&gt;Node6</title>
<g id="a_edge31_Node000026_Node000006"><a xlink:title=" ">
<path fill="none" stroke="#63b8ff" d="M553.87,-664.39C576.68,-681.5 614,-709.48 637.6,-727.17"/>
<polygon fill="#63b8ff" stroke="#63b8ff" points="635.18,-729.73 645.28,-732.93 639.38,-724.13 635.18,-729.73"/>
</a>
</g>
</g>
<!-- Node26&#45;&gt;Node10 -->
<g id="edge32_Node000026_Node000010" class="edge">
<title>Node26&#45;&gt;Node10</title>
<g id="a_edge32_Node000026_Node000010"><a xlink:title=" ">
<path fill="none" stroke="#63b8ff" d="M555.6,-634.68C598.03,-607.06 696.08,-550.5 787.5,-550.5 787.5,-550.5 787.5,-550.5 945,-550.5 1039.6,-550.5 1074.38,-523.43 1157,-569.5 1195.19,-590.8 1221.35,-637.06 1233.89,-663.65"/>
<polygon fill="#63b8ff" stroke="#63b8ff" points="1230.63,-664.94 1237.93,-672.63 1237.02,-662.07 1230.63,-664.94"/>
</a>
</g>
</g>
<!-- Node39&#45;&gt;Node39 -->
<g id="edge46_Node000039_Node000039" class="edge">
<title>Node39&#45;&gt;Node39</title>
<g id="a_edge46_Node000039_Node000039"><a xlink:title=" ">
<path fill="none" stroke="#63b8ff" d="M190.94,-29.21C184.26,-38.32 193.49,-47 218.62,-47 232.37,-47 241.36,-44.41 245.59,-40.56"/>
<polygon fill="#63b8ff" stroke="#63b8ff" points="249.08,-40.92 246.22,-30.72 242.09,-40.47 249.08,-40.92"/>
</a>
</g>
</g>
</g>
</svg>
