<?xml version="1.0" encoding="UTF-8" standalone="no"?>
<!DOCTYPE svg PUBLIC "-//W3C//DTD SVG 1.1//EN"
 "http://www.w3.org/Graphics/SVG/1.1/DTD/svg11.dtd">
<!-- Generated by graphviz version 14.0.1 (0)
 -->
<!-- Title: MC::MonteCarloUnit::n_particle Pages: 1 -->
<svg width="396pt" height="59pt"
 viewBox="0.00 0.00 396.00 59.00" xmlns="http://www.w3.org/2000/svg" xmlns:xlink="http://www.w3.org/1999/xlink">
<g id="graph0" class="graph" transform="scale(1 1) rotate(0) translate(4 55)">
<title>MC::MonteCarloUnit::n_particle</title>
<!-- Node1 -->
<g id="Node000001" class="node">
<title>Node1</title>
<g id="a_Node000001"><a xlink:title=" ">
<polygon fill="#999999" stroke="#666666" points="387.75,-29 282.5,-29 282.5,0 387.75,0 387.75,-29"/>
<text xml:space="preserve" text-anchor="start" x="290.5" y="-15.5" font-family="Helvetica,sans-Serif" font-size="10.00">MC::MonteCarloUnit</text>
<text xml:space="preserve" text-anchor="middle" x="335.12" y="-5" font-family="Helvetica,sans-Serif" font-size="10.00">::n_particle</text>
</a>
</g>
</g>
<!-- Node2 -->
<g id="Node000002" class="node">
<title>Node2</title>
<g id="a_Node000002"><a xlink:href="structMC_1_1MonteCarloUnit.html#a2e431bdcb96f1fa71525aca30d0457ba" target="_top" xlink:title=" ">
<polygon fill="white" stroke="#666666" points="246.5,-51 141.25,-51 141.25,-22 246.5,-22 246.5,-51"/>
<text xml:space="preserve" text-anchor="start" x="149.25" y="-37.5" font-family="Helvetica,sans-Serif" font-size="10.00">MC::MonteCarloUnit</text>
<text xml:space="preserve" text-anchor="middle" x="193.88" y="-27" font-family="Helvetica,sans-Serif" font-size="10.00">::getRepartition</text>
</a>
</g>
</g>
<!-- Node1&#45;&gt;Node2 -->
<g id="edge1_Node000001_Node000002" class="edge">
<title>Node1&#45;&gt;Node2</title>
<g id="a_edge1_Node000001_Node000002"><a xlink:title=" ">
<path fill="none" stroke="#63b8ff" d="M270.96,-24.48C262.86,-25.76 254.65,-27.06 246.77,-28.3"/>
<polygon fill="#63b8ff" stroke="#63b8ff" points="271.45,-27.95 280.78,-22.93 270.35,-21.03 271.45,-27.95"/>
</a>
</g>
</g>
<!-- Node3 -->
<g id="Node000003" class="node">
<title>Node3</title>
<g id="a_Node000003"><a xlink:href="structMC_1_1MonteCarloUnit.html#a65991633938cf0822cad4ce297f02ee8" target="_top" xlink:title=" ">
<polygon fill="white" stroke="#666666" points="105.25,-29 0,-29 0,0 105.25,0 105.25,-29"/>
<text xml:space="preserve" text-anchor="start" x="8" y="-15.5" font-family="Helvetica,sans-Serif" font-size="10.00">MC::MonteCarloUnit</text>
<text xml:space="preserve" text-anchor="middle" x="52.62" y="-5" font-family="Helvetica,sans-Serif" font-size="10.00">::~MonteCarloUnit</text>
</a>
</g>
</g>
<!-- Node1&#45;&gt;Node3 -->
<g id="edge3_Node000001_Node000003" class="edge">
<title>Node1&#45;&gt;Node3</title>
<g id="a_edge3_Node000001_Node000003"><a xlink:title=" ">
<path fill="none" stroke="#63b8ff" d="M270.78,-13.69C262.61,-13.61 254.36,-13.54 246.5,-13.5 199.72,-13.23 188.03,-13.23 141.25,-13.5 129.69,-13.57 117.27,-13.68 105.52,-13.81"/>
<polygon fill="#63b8ff" stroke="#63b8ff" points="270.68,-17.19 280.72,-13.79 270.75,-10.19 270.68,-17.19"/>
</a>
</g>
</g>
<!-- Node2&#45;&gt;Node3 -->
<g id="edge2_Node000002_Node000003" class="edge">
<title>Node2&#45;&gt;Node3</title>
<g id="a_edge2_Node000002_Node000003"><a xlink:title=" ">
<path fill="none" stroke="#63b8ff" d="M129.71,-26.52C121.61,-25.24 113.4,-23.94 105.52,-22.7"/>
<polygon fill="#63b8ff" stroke="#63b8ff" points="129.1,-29.97 139.53,-28.07 130.2,-23.05 129.1,-29.97"/>
</a>
</g>
</g>
</g>
</svg>
