<?xml version="1.0" encoding="UTF-8" standalone="no"?>
<!DOCTYPE svg PUBLIC "-//W3C//DTD SVG 1.1//EN"
 "http://www.w3.org/Graphics/SVG/1.1/DTD/svg11.dtd">
<!-- Generated by graphviz version 14.0.1 (0)
 -->
<!-- Title: Simulation::KernelInline::CycleFunctors&lt; Space, Model &gt; Pages: 1 -->
<svg width="582pt" height="136pt"
 viewBox="0.00 0.00 582.00 136.00" xmlns="http://www.w3.org/2000/svg" xmlns:xlink="http://www.w3.org/1999/xlink">
<g id="graph0" class="graph" transform="scale(1 1) rotate(0) translate(4 132.25)">
<title>Simulation::KernelInline::CycleFunctors&lt; Space, Model &gt;</title>
<!-- Node1 -->
<g id="Node000001" class="node">
<title>Node1</title>
<g id="a_Node000001"><a xlink:title=" ">
<polygon fill="#999999" stroke="#666666" points="573.75,-110.5 448.25,-110.5 448.25,-71 573.75,-71 573.75,-110.5"/>
<text xml:space="preserve" text-anchor="start" x="456.25" y="-97" font-family="Helvetica,sans-Serif" font-size="10.00">Simulation::KernelInline</text>
<text xml:space="preserve" text-anchor="start" x="456.25" y="-86.5" font-family="Helvetica,sans-Serif" font-size="10.00">::CycleFunctors&lt; Space,</text>
<text xml:space="preserve" text-anchor="middle" x="511" y="-76" font-family="Helvetica,sans-Serif" font-size="10.00"> Model &gt;</text>
</a>
</g>
</g>
<!-- Node2 -->
<g id="Node000002" class="node">
<title>Node2</title>
<g id="a_Node000002"><a xlink:href="structSimulation_1_1KernelInline_1_1CycleFunctor.html" target="_top" xlink:title=" ">
<polygon fill="white" stroke="#666666" points="352.25,-128.25 228.25,-128.25 228.25,-99.25 352.25,-99.25 352.25,-128.25"/>
<text xml:space="preserve" text-anchor="start" x="236.25" y="-114.75" font-family="Helvetica,sans-Serif" font-size="10.00">Simulation::KernelInline</text>
<text xml:space="preserve" text-anchor="middle" x="290.25" y="-104.25" font-family="Helvetica,sans-Serif" font-size="10.00">::CycleFunctor&lt; Model &gt;</text>
</a>
</g>
</g>
<!-- Node2&#45;&gt;Node1 -->
<g id="edge1_Node000001_Node000002" class="edge">
<title>Node2&#45;&gt;Node1</title>
<g id="a_edge1_Node000001_Node000002"><a xlink:title=" ">
<path fill="none" stroke="#9a32cd" stroke-dasharray="5,2" d="M363.92,-106.11C391.16,-103.24 421.84,-100.02 448.03,-97.27"/>
<polygon fill="#9a32cd" stroke="#9a32cd" points="363.56,-102.63 353.98,-107.15 364.29,-109.59 363.56,-102.63"/>
</a>
</g>
<text xml:space="preserve" text-anchor="start" x="373.62" y="-108.99" font-family="Helvetica,sans-Serif" font-size="10.00" fill="grey">cycle_kernel</text>
</g>
<!-- Node3 -->
<g id="Node000003" class="node">
<title>Node3</title>
<g id="a_Node000003"><a xlink:href="structSimulation_1_1KernelInline_1_1MoveFunctor.html" target="_top" xlink:title=" ">
<polygon fill="white" stroke="#666666" points="349.25,-81.25 231.25,-81.25 231.25,-52.25 349.25,-52.25 349.25,-81.25"/>
<text xml:space="preserve" text-anchor="start" x="239.25" y="-67.75" font-family="Helvetica,sans-Serif" font-size="10.00">Simulation::KernelInline</text>
<text xml:space="preserve" text-anchor="middle" x="290.25" y="-57.25" font-family="Helvetica,sans-Serif" font-size="10.00">::MoveFunctor</text>
</a>
</g>
</g>
<!-- Node3&#45;&gt;Node1 -->
<g id="edge2_Node000001_Node000003" class="edge">
<title>Node3&#45;&gt;Node1</title>
<g id="a_edge2_Node000001_Node000003"><a xlink:title=" ">
<path fill="none" stroke="#9a32cd" stroke-dasharray="5,2" d="M360.85,-72.27C383.05,-74.23 407.71,-76.61 430.25,-79.25 435.95,-79.92 441.86,-80.66 447.79,-81.45"/>
<polygon fill="#9a32cd" stroke="#9a32cd" points="361.26,-68.8 350.99,-71.42 360.65,-75.77 361.26,-68.8"/>
</a>
</g>
<text xml:space="preserve" text-anchor="start" x="373.25" y="-83.25" font-family="Helvetica,sans-Serif" font-size="10.00" fill="grey">move_kernel</text>
</g>
<!-- Node4 -->
<g id="Node000004" class="node">
<title>Node4</title>
<g id="a_Node000004"><a xlink:href="structMC_1_1MoveInfo.html" target="_top" xlink:title=" ">
<polygon fill="white" stroke="#666666" points="157,-123.25 0,-123.25 0,-94.25 157,-94.25 157,-123.25"/>
<text xml:space="preserve" text-anchor="start" x="8" y="-109.75" font-family="Helvetica,sans-Serif" font-size="10.00">MC::MoveInfo&lt; ComputeSpace,</text>
<text xml:space="preserve" text-anchor="middle" x="78.5" y="-99.25" font-family="Helvetica,sans-Serif" font-size="10.00"> true &gt;</text>
</a>
</g>
</g>
<!-- Node4&#45;&gt;Node3 -->
<g id="edge3_Node000003_Node000004" class="edge">
<title>Node4&#45;&gt;Node3</title>
<g id="a_edge3_Node000003_Node000004"><a xlink:title=" ">
<path fill="none" stroke="#9a32cd" stroke-dasharray="5,2" d="M168.6,-94.76C182.58,-92.27 196.83,-89.57 210.25,-86.75 217.45,-85.24 224.98,-83.51 232.42,-81.72"/>
<polygon fill="#9a32cd" stroke="#9a32cd" points="168.22,-91.27 158.97,-96.44 169.42,-98.17 168.22,-91.27"/>
</a>
</g>
<text xml:space="preserve" text-anchor="start" x="181" y="-97.04" font-family="Helvetica,sans-Serif" font-size="10.00" fill="grey">move</text>
</g>
<!-- Node5 -->
<g id="Node000005" class="node">
<title>Node5</title>
<g id="a_Node000005"><a xlink:href="structMC_1_1EventContainer.html" target="_top" xlink:title="Use to count events that occurs during Monte&#45;Carlo processing cycles.">
<polygon fill="white" stroke="#666666" points="130.75,-76 26.25,-76 26.25,-57.5 130.75,-57.5 130.75,-76"/>
<text xml:space="preserve" text-anchor="middle" x="78.5" y="-62.5" font-family="Helvetica,sans-Serif" font-size="10.00">MC::EventContainer</text>
</a>
</g>
</g>
<!-- Node5&#45;&gt;Node3 -->
<g id="edge4_Node000003_Node000005" class="edge">
<title>Node5&#45;&gt;Node3</title>
<g id="a_edge4_Node000003_Node000005"><a xlink:title=" ">
<path fill="none" stroke="#9a32cd" stroke-dasharray="5,2" d="M142.38,-66.75C170.44,-66.75 203.31,-66.75 230.83,-66.75"/>
<polygon fill="#9a32cd" stroke="#9a32cd" points="142.59,-63.25 132.59,-66.75 142.59,-70.25 142.59,-63.25"/>
</a>
</g>
<text xml:space="preserve" text-anchor="start" x="178.38" y="-70.75" font-family="Helvetica,sans-Serif" font-size="10.00" fill="grey">events</text>
</g>
<!-- Node6 -->
<g id="Node000006" class="node">
<title>Node6</title>
<g id="a_Node000006"><a xlink:href="classSimulation_1_1Probes.html" target="_top" xlink:title=" ">
<polygon fill="white" stroke="#666666" points="138.62,-39.5 18.38,-39.5 18.38,0 138.62,0 138.62,-39.5"/>
<text xml:space="preserve" text-anchor="start" x="26.38" y="-26" font-family="Helvetica,sans-Serif" font-size="10.00">Simulation::Probes</text>
<text xml:space="preserve" text-anchor="start" x="26.38" y="-15.5" font-family="Helvetica,sans-Serif" font-size="10.00">&lt; AutoGenerated::probe</text>
<text xml:space="preserve" text-anchor="middle" x="78.5" y="-5" font-family="Helvetica,sans-Serif" font-size="10.00">_buffer_size &gt;</text>
</a>
</g>
</g>
<!-- Node6&#45;&gt;Node3 -->
<g id="edge5_Node000003_Node000006" class="edge">
<title>Node6&#45;&gt;Node3</title>
<g id="a_edge5_Node000003_Node000006"><a xlink:title=" ">
<path fill="none" stroke="#9a32cd" stroke-dasharray="5,2" d="M150.15,-33.34C169.67,-37.3 190.82,-41.76 210.25,-46.25 217.71,-47.97 225.53,-49.88 233.24,-51.82"/>
<polygon fill="#9a32cd" stroke="#9a32cd" points="150.85,-29.92 140.36,-31.38 149.48,-36.78 150.85,-29.92"/>
</a>
</g>
<text xml:space="preserve" text-anchor="start" x="178" y="-50.25" font-family="Helvetica,sans-Serif" font-size="10.00" fill="grey">probes</text>
</g>
</g>
</svg>
