<?xml version="1.0" encoding="UTF-8" standalone="no"?>
<!DOCTYPE svg PUBLIC "-//W3C//DTD SVG 1.1//EN"
 "http://www.w3.org/Graphics/SVG/1.1/DTD/svg11.dtd">
<!-- Generated by graphviz version 14.0.1 (0)
 -->
<!-- Title: Api::SimulationInstance::apply_load Pages: 1 -->
<svg width="785pt" height="225pt"
 viewBox="0.00 0.00 785.00 225.00" xmlns="http://www.w3.org/2000/svg" xmlns:xlink="http://www.w3.org/1999/xlink">
<g id="graph0" class="graph" transform="scale(1 1) rotate(0) translate(4 221)">
<title>Api::SimulationInstance::apply_load</title>
<!-- Node1 -->
<g id="Node000001" class="node">
<title>Node1</title>
<g id="a_Node000001"><a xlink:title="Load ad apply the simulation configuration and prepare for execution based on file.">
<polygon fill="#999999" stroke="#666666" points="119.5,-123 0,-123 0,-94 119.5,-94 119.5,-123"/>
<text xml:space="preserve" text-anchor="start" x="8" y="-109.5" font-family="Helvetica,sans-Serif" font-size="10.00">Api::SimulationInstance</text>
<text xml:space="preserve" text-anchor="middle" x="59.75" y="-99" font-family="Helvetica,sans-Serif" font-size="10.00">::apply_load</text>
</a>
</g>
</g>
<!-- Node2 -->
<g id="Node000002" class="node">
<title>Node2</title>
<g id="a_Node000002"><a xlink:href="namespaceCore.html#a8a3e4aa1d1921da2e211c43d5368acf1" target="_top" xlink:title=" ">
<polygon fill="white" stroke="#666666" points="216.5,-117.75 155.5,-117.75 155.5,-99.25 216.5,-99.25 216.5,-117.75"/>
<text xml:space="preserve" text-anchor="middle" x="186" y="-104.25" font-family="Helvetica,sans-Serif" font-size="10.00">Core::load</text>
</a>
</g>
</g>
<!-- Node1&#45;&gt;Node2 -->
<g id="edge1_Node000001_Node000002" class="edge">
<title>Node1&#45;&gt;Node2</title>
<g id="a_edge1_Node000001_Node000002"><a xlink:title=" ">
<path fill="none" stroke="#63b8ff" d="M119.96,-108.5C128.1,-108.5 136.3,-108.5 144.01,-108.5"/>
<polygon fill="#63b8ff" stroke="#63b8ff" points="143.75,-112 153.75,-108.5 143.75,-105 143.75,-112"/>
</a>
</g>
</g>
<!-- Node3 -->
<g id="Node000003" class="node">
<title>Node3</title>
<g id="a_Node000003"><a xlink:href="namespaceCore.html#ab6528e76111960864b7e4741327b3049" target="_top" xlink:title="Start simulation.">
<polygon fill="white" stroke="#666666" points="315.75,-117.75 252.5,-117.75 252.5,-99.25 315.75,-99.25 315.75,-117.75"/>
<text xml:space="preserve" text-anchor="middle" x="284.12" y="-104.25" font-family="Helvetica,sans-Serif" font-size="10.00">Core::exec</text>
</a>
</g>
</g>
<!-- Node2&#45;&gt;Node3 -->
<g id="edge2_Node000002_Node000003" class="edge">
<title>Node2&#45;&gt;Node3</title>
<g id="a_edge2_Node000002_Node000003"><a xlink:title=" ">
<path fill="none" stroke="#63b8ff" d="M216.89,-108.5C224.53,-108.5 232.89,-108.5 241.02,-108.5"/>
<polygon fill="#63b8ff" stroke="#63b8ff" points="240.75,-112 250.75,-108.5 240.75,-105 240.75,-112"/>
</a>
</g>
</g>
<!-- Node4 -->
<g id="Node000004" class="node">
<title>Node4</title>
<g id="a_Node000004"><a xlink:href="namespaceCore.html#a23e6f3d22fc51ef9decabb2c220b27c4" target="_top" xlink:title=" ">
<polygon fill="white" stroke="#666666" points="472.75,-159.75 351.75,-159.75 351.75,-141.25 472.75,-141.25 472.75,-159.75"/>
<text xml:space="preserve" text-anchor="middle" x="412.25" y="-146.25" font-family="Helvetica,sans-Serif" font-size="10.00">Core::exporter_filename</text>
</a>
</g>
</g>
<!-- Node3&#45;&gt;Node4 -->
<g id="edge3_Node000003_Node000004" class="edge">
<title>Node3&#45;&gt;Node4</title>
<g id="a_edge3_Node000003_Node000004"><a xlink:title=" ">
<path fill="none" stroke="#63b8ff" d="M316.19,-111.61C327.36,-115.13 340.08,-119.64 351.75,-123.5 364.51,-127.72 378.93,-132.1 390.38,-136.51"/>
<polygon fill="#63b8ff" stroke="#63b8ff" points="388.7,-139.6 399.27,-140.33 391.47,-133.17 388.7,-139.6"/>
</a>
</g>
</g>
<!-- Node5 -->
<g id="Node000005" class="node">
<title>Node5</title>
<g id="a_Node000005"><a xlink:href="namespaceCore.html#afbce0beea293a7ccfdfc34a85b5e5e77" target="_top" xlink:title=" ">
<polygon fill="white" stroke="#666666" points="456.25,-123 368.25,-123 368.25,-94 456.25,-94 456.25,-123"/>
<text xml:space="preserve" text-anchor="start" x="376.25" y="-109.5" font-family="Helvetica,sans-Serif" font-size="10.00">Core::init_partial</text>
<text xml:space="preserve" text-anchor="middle" x="412.25" y="-99" font-family="Helvetica,sans-Serif" font-size="10.00">_exporter</text>
</a>
</g>
</g>
<!-- Node3&#45;&gt;Node5 -->
<g id="edge5_Node000003_Node000005" class="edge">
<title>Node3&#45;&gt;Node5</title>
<g id="a_edge5_Node000003_Node000005"><a xlink:title=" ">
<path fill="none" stroke="#63b8ff" d="M315.98,-108.5C328.17,-108.5 342.56,-108.5 356.41,-108.5"/>
<polygon fill="#63b8ff" stroke="#63b8ff" points="356.34,-112 366.34,-108.5 356.34,-105 356.34,-112"/>
</a>
</g>
</g>
<!-- Node11 -->
<g id="Node000011" class="node">
<title>Node11</title>
<g id="a_Node000011"><a xlink:href="namespacePostProcessing.html#a0e06c75e06cf43e767d5e3e8afab62f2" target="_top" xlink:title=" ">
<polygon fill="white" stroke="#666666" points="467.88,-76 356.62,-76 356.62,-47 467.88,-47 467.88,-76"/>
<text xml:space="preserve" text-anchor="start" x="364.62" y="-62.5" font-family="Helvetica,sans-Serif" font-size="10.00">PostProcessing::save</text>
<text xml:space="preserve" text-anchor="middle" x="412.25" y="-52" font-family="Helvetica,sans-Serif" font-size="10.00">_probes</text>
</a>
</g>
</g>
<!-- Node3&#45;&gt;Node11 -->
<g id="edge11_Node000003_Node000011" class="edge">
<title>Node3&#45;&gt;Node11</title>
<g id="a_edge11_Node000003_Node000011"><a xlink:title=" ">
<path fill="none" stroke="#63b8ff" d="M311.26,-98.76C325.6,-93.42 343.87,-86.61 360.87,-80.28"/>
<polygon fill="#63b8ff" stroke="#63b8ff" points="361.67,-83.71 369.82,-76.94 359.22,-77.15 361.67,-83.71"/>
</a>
</g>
</g>
<!-- Node15 -->
<g id="Node000015" class="node">
<title>Node15</title>
<g id="a_Node000015"><a xlink:href="classCore_1_1DataExporter.html#ad3b98151595b0962c089a7afcdb2a642" target="_top" xlink:title=" ">
<polygon fill="white" stroke="#666666" points="462.62,-29 361.88,-29 361.88,0 462.62,0 462.62,-29"/>
<text xml:space="preserve" text-anchor="start" x="369.88" y="-15.5" font-family="Helvetica,sans-Serif" font-size="10.00">Core::DataExporter</text>
<text xml:space="preserve" text-anchor="middle" x="412.25" y="-5" font-family="Helvetica,sans-Serif" font-size="10.00">::set_logger</text>
</a>
</g>
</g>
<!-- Node3&#45;&gt;Node15 -->
<g id="edge15_Node000003_Node000015" class="edge">
<title>Node3&#45;&gt;Node15</title>
<g id="a_edge15_Node000003_Node000015"><a xlink:title=" ">
<path fill="none" stroke="#63b8ff" d="M291.91,-99.12C302.97,-84.42 326.21,-55.85 351.75,-38.5 353.69,-37.18 355.72,-35.91 357.8,-34.7"/>
<polygon fill="#63b8ff" stroke="#63b8ff" points="359.29,-37.87 366.53,-30.14 356.04,-31.67 359.29,-37.87"/>
</a>
</g>
</g>
<!-- Node4&#45;&gt;Node3 -->
<g id="edge4_Node000004_Node000003" class="edge">
<title>Node4&#45;&gt;Node3</title>
<g id="a_edge4_Node000004_Node000003"><a xlink:title=" ">
<path fill="none" stroke="#63b8ff" d="M351.27,-141.34C335.47,-136.1 317.82,-129.69 304.73,-123.5"/>
<polygon fill="#63b8ff" stroke="#63b8ff" points="306.38,-120.42 295.9,-118.85 303.12,-126.61 306.38,-120.42"/>
</a>
</g>
</g>
<!-- Node6 -->
<g id="Node000006" class="node">
<title>Node6</title>
<g id="a_Node000006"><a xlink:href="classCore_1_1PartialExporter.html#a05cba8c28abaecce99f586d551a75f80" target="_top" xlink:title="Initializes the fields required for exporting data.">
<polygon fill="white" stroke="#666666" points="629,-217 520,-217 520,-188 629,-188 629,-217"/>
<text xml:space="preserve" text-anchor="start" x="528" y="-203.5" font-family="Helvetica,sans-Serif" font-size="10.00">Core::PartialExporter</text>
<text xml:space="preserve" text-anchor="middle" x="574.5" y="-193" font-family="Helvetica,sans-Serif" font-size="10.00">::init_fields</text>
</a>
</g>
</g>
<!-- Node5&#45;&gt;Node6 -->
<g id="edge6_Node000005_Node000006" class="edge">
<title>Node5&#45;&gt;Node6</title>
<g id="a_edge6_Node000005_Node000006"><a xlink:title=" ">
<path fill="none" stroke="#63b8ff" d="M456.67,-122.79C462.35,-125.57 467.87,-128.79 472.75,-132.5 493.69,-148.43 487.48,-164.01 508.75,-179.5 510.08,-180.47 511.45,-181.39 512.85,-182.29"/>
<polygon fill="#63b8ff" stroke="#63b8ff" points="510.79,-185.15 521.24,-186.93 514.18,-179.02 510.79,-185.15"/>
</a>
</g>
</g>
<!-- Node8 -->
<g id="Node000008" class="node">
<title>Node8</title>
<g id="a_Node000008"><a xlink:href="namespacePostProcessing.html#a9ff9231cbdf2a3c4e539c4638aba2445" target="_top" xlink:title=" ">
<polygon fill="white" stroke="#666666" points="630.12,-170 518.88,-170 518.88,-141 630.12,-141 630.12,-170"/>
<text xml:space="preserve" text-anchor="start" x="526.88" y="-156.5" font-family="Helvetica,sans-Serif" font-size="10.00">PostProcessing::save</text>
<text xml:space="preserve" text-anchor="middle" x="574.5" y="-146" font-family="Helvetica,sans-Serif" font-size="10.00">_particle_state</text>
</a>
</g>
</g>
<!-- Node5&#45;&gt;Node8 -->
<g id="edge8_Node000005_Node000008" class="edge">
<title>Node5&#45;&gt;Node8</title>
<g id="a_edge8_Node000005_Node000008"><a xlink:title=" ">
<path fill="none" stroke="#63b8ff" d="M456.62,-121.22C473.51,-126.17 493.18,-131.94 511.51,-137.32"/>
<polygon fill="#63b8ff" stroke="#63b8ff" points="510.39,-140.64 520.97,-140.09 512.36,-133.92 510.39,-140.64"/>
</a>
</g>
</g>
<!-- Node9 -->
<g id="Node000009" class="node">
<title>Node9</title>
<g id="a_Node000009"><a xlink:href="classCore_1_1PartialExporter.html#a450fb0c92efa4ee81b4083fc01f5e665" target="_top" xlink:title="Writes the number of particles in each compartment.">
<polygon fill="white" stroke="#666666" points="633.5,-123 515.5,-123 515.5,-94 633.5,-94 633.5,-123"/>
<text xml:space="preserve" text-anchor="start" x="523.5" y="-109.5" font-family="Helvetica,sans-Serif" font-size="10.00">Core::PartialExporter</text>
<text xml:space="preserve" text-anchor="middle" x="574.5" y="-99" font-family="Helvetica,sans-Serif" font-size="10.00">::write_number_particle</text>
</a>
</g>
</g>
<!-- Node5&#45;&gt;Node9 -->
<g id="edge9_Node000005_Node000009" class="edge">
<title>Node5&#45;&gt;Node9</title>
<g id="a_edge9_Node000005_Node000009"><a xlink:title=" ">
<path fill="none" stroke="#63b8ff" d="M456.62,-108.5C471.09,-108.5 487.6,-108.5 503.56,-108.5"/>
<polygon fill="#63b8ff" stroke="#63b8ff" points="503.54,-112 513.54,-108.5 503.54,-105 503.54,-112"/>
</a>
</g>
</g>
<!-- Node7 -->
<g id="Node000007" class="node">
<title>Node7</title>
<g id="a_Node000007"><a xlink:href="classCore_1_1DataExporter.html#a9c60512b8e80f25d5f1f6cac29b27d07" target="_top" xlink:title=" ">
<polygon fill="white" stroke="#666666" points="777,-217 676.25,-217 676.25,-188 777,-188 777,-217"/>
<text xml:space="preserve" text-anchor="start" x="684.25" y="-203.5" font-family="Helvetica,sans-Serif" font-size="10.00">Core::DataExporter</text>
<text xml:space="preserve" text-anchor="middle" x="726.62" y="-193" font-family="Helvetica,sans-Serif" font-size="10.00">::prepare_matrix</text>
</a>
</g>
</g>
<!-- Node6&#45;&gt;Node7 -->
<g id="edge7_Node000006_Node000007" class="edge">
<title>Node6&#45;&gt;Node7</title>
<g id="a_edge7_Node000006_Node000007"><a xlink:title=" ">
<path fill="none" stroke="#63b8ff" d="M629.27,-202.5C640.88,-202.5 653.22,-202.5 665.07,-202.5"/>
<polygon fill="#63b8ff" stroke="#63b8ff" points="664.71,-206 674.71,-202.5 664.71,-199 664.71,-206"/>
</a>
</g>
</g>
<!-- Node10 -->
<g id="Node000010" class="node">
<title>Node10</title>
<g id="a_Node000010"><a xlink:href="classCore_1_1DataExporter.html#a0af9b5e13d16339af1918f8e845193f9" target="_top" xlink:title=" ">
<polygon fill="white" stroke="#666666" points="777,-123 676.25,-123 676.25,-94 777,-94 777,-123"/>
<text xml:space="preserve" text-anchor="start" x="684.25" y="-109.5" font-family="Helvetica,sans-Serif" font-size="10.00">Core::DataExporter</text>
<text xml:space="preserve" text-anchor="middle" x="726.62" y="-99" font-family="Helvetica,sans-Serif" font-size="10.00">::append_matrix</text>
</a>
</g>
</g>
<!-- Node9&#45;&gt;Node10 -->
<g id="edge10_Node000009_Node000010" class="edge">
<title>Node9&#45;&gt;Node10</title>
<g id="a_edge10_Node000009_Node000010"><a xlink:title=" ">
<path fill="none" stroke="#63b8ff" d="M633.97,-108.5C644.02,-108.5 654.49,-108.5 664.6,-108.5"/>
<polygon fill="#63b8ff" stroke="#63b8ff" points="664.32,-112 674.32,-108.5 664.32,-105 664.32,-112"/>
</a>
</g>
</g>
<!-- Node12 -->
<g id="Node000012" class="node">
<title>Node12</title>
<g id="a_Node000012"><a xlink:href="classSimulation_1_1SimulationUnit.html#a0d675ed463b0caaeea75be8bd87d72cc" target="_top" xlink:title=" ">
<polygon fill="white" stroke="#666666" points="640.25,-76 508.75,-76 508.75,-47 640.25,-47 640.25,-76"/>
<text xml:space="preserve" text-anchor="start" x="516.75" y="-62.5" font-family="Helvetica,sans-Serif" font-size="10.00">Simulation::SimulationUnit</text>
<text xml:space="preserve" text-anchor="middle" x="574.5" y="-52" font-family="Helvetica,sans-Serif" font-size="10.00">::get_probes</text>
</a>
</g>
</g>
<!-- Node11&#45;&gt;Node12 -->
<g id="edge12_Node000011_Node000012" class="edge">
<title>Node11&#45;&gt;Node12</title>
<g id="a_edge12_Node000011_Node000012"><a xlink:title=" ">
<path fill="none" stroke="#63b8ff" d="M467.95,-61.5C477.27,-61.5 487.1,-61.5 496.86,-61.5"/>
<polygon fill="#63b8ff" stroke="#63b8ff" points="496.74,-65 506.74,-61.5 496.74,-58 496.74,-65"/>
</a>
</g>
</g>
<!-- Node13 -->
<g id="Node000013" class="node">
<title>Node13</title>
<g id="a_Node000013"><a xlink:href="classCore_1_1PartialExporter.html#a9927dbf1350349f090606134043e190c" target="_top" xlink:title="Writes probe data to the export.">
<polygon fill="white" stroke="#666666" points="629,-29 520,-29 520,0 629,0 629,-29"/>
<text xml:space="preserve" text-anchor="start" x="528" y="-15.5" font-family="Helvetica,sans-Serif" font-size="10.00">Core::PartialExporter</text>
<text xml:space="preserve" text-anchor="middle" x="574.5" y="-5" font-family="Helvetica,sans-Serif" font-size="10.00">::write_probe</text>
</a>
</g>
</g>
<!-- Node11&#45;&gt;Node13 -->
<g id="edge13_Node000011_Node000013" class="edge">
<title>Node11&#45;&gt;Node13</title>
<g id="a_edge13_Node000011_Node000013"><a xlink:title=" ">
<path fill="none" stroke="#63b8ff" d="M463.95,-46.63C479.15,-42.17 495.99,-37.23 511.82,-32.59"/>
<polygon fill="#63b8ff" stroke="#63b8ff" points="512.51,-36.03 521.12,-29.86 510.54,-29.32 512.51,-36.03"/>
</a>
</g>
</g>
<!-- Node14 -->
<g id="Node000014" class="node">
<title>Node14</title>
<g id="a_Node000014"><a xlink:href="classCore_1_1DataExporter.html#a0b0b79f3932c4eb905704a852248c857" target="_top" xlink:title=" ">
<polygon fill="white" stroke="#666666" points="777,-29 676.25,-29 676.25,0 777,0 777,-29"/>
<text xml:space="preserve" text-anchor="start" x="684.25" y="-15.5" font-family="Helvetica,sans-Serif" font-size="10.00">Core::DataExporter</text>
<text xml:space="preserve" text-anchor="middle" x="726.62" y="-5" font-family="Helvetica,sans-Serif" font-size="10.00">::append_array</text>
</a>
</g>
</g>
<!-- Node13&#45;&gt;Node14 -->
<g id="edge14_Node000013_Node000014" class="edge">
<title>Node13&#45;&gt;Node14</title>
<g id="a_edge14_Node000013_Node000014"><a xlink:title=" ">
<path fill="none" stroke="#63b8ff" d="M629.27,-14.5C640.88,-14.5 653.22,-14.5 665.07,-14.5"/>
<polygon fill="#63b8ff" stroke="#63b8ff" points="664.71,-18 674.71,-14.5 664.71,-11 664.71,-18"/>
</a>
</g>
</g>
</g>
</svg>
