<?xml version="1.0" encoding="UTF-8" standalone="no"?>
<!DOCTYPE svg PUBLIC "-//W3C//DTD SVG 1.1//EN"
 "http://www.w3.org/Graphics/SVG/1.1/DTD/svg11.dtd">
<!-- Generated by graphviz version 14.0.1 (0)
 -->
<!-- Title: Simulation::KernelInline::MoveFunctor::operator() Pages: 1 -->
<svg width="484pt" height="84pt"
 viewBox="0.00 0.00 484.00 84.00" xmlns="http://www.w3.org/2000/svg" xmlns:xlink="http://www.w3.org/1999/xlink">
<g id="graph0" class="graph" transform="scale(1 1) rotate(0) translate(4 80)">
<title>Simulation::KernelInline::MoveFunctor::operator()</title>
<!-- Node1 -->
<g id="Node000001" class="node">
<title>Node1</title>
<g id="a_Node000001"><a xlink:title=" ">
<polygon fill="#999999" stroke="#666666" points="125.5,-52 0,-52 0,-23 125.5,-23 125.5,-52"/>
<text xml:space="preserve" text-anchor="start" x="8" y="-38.5" font-family="Helvetica,sans-Serif" font-size="10.00">Simulation::KernelInline</text>
<text xml:space="preserve" text-anchor="middle" x="62.75" y="-28" font-family="Helvetica,sans-Serif" font-size="10.00">::MoveFunctor::operator()</text>
</a>
</g>
</g>
<!-- Node2 -->
<g id="Node000002" class="node">
<title>Node2</title>
<g id="a_Node000002"><a xlink:href="structSimulation_1_1KernelInline_1_1MoveFunctor.html#a2f5c4626adae4fe3d1c114dcb5f2c08b" target="_top" xlink:title=" ">
<polygon fill="white" stroke="#666666" points="302.75,-52 161.5,-52 161.5,-23 302.75,-23 302.75,-52"/>
<text xml:space="preserve" text-anchor="start" x="169.5" y="-38.5" font-family="Helvetica,sans-Serif" font-size="10.00">Simulation::KernelInline</text>
<text xml:space="preserve" text-anchor="middle" x="232.12" y="-28" font-family="Helvetica,sans-Serif" font-size="10.00">::MoveFunctor::handle_move</text>
</a>
</g>
</g>
<!-- Node1&#45;&gt;Node2 -->
<g id="edge1_Node000001_Node000002" class="edge">
<title>Node1&#45;&gt;Node2</title>
<g id="a_edge1_Node000001_Node000002"><a xlink:title=" ">
<path fill="none" stroke="#63b8ff" d="M125.6,-37.5C133.45,-37.5 141.57,-37.5 149.67,-37.5"/>
<polygon fill="#63b8ff" stroke="#63b8ff" points="149.55,-41 159.55,-37.5 149.55,-34 149.55,-41"/>
</a>
</g>
</g>
<!-- Node3 -->
<g id="Node000003" class="node">
<title>Node3</title>
<g id="a_Node000003"><a xlink:href="namespaceSimulation_1_1KernelInline.html#ac8485f5e74c91ff03d46a41d00a01a19" target="_top" xlink:title="probably overkill binary search to find next compartment">
<polygon fill="white" stroke="#666666" points="475.12,-76 339.88,-76 339.88,-47 475.12,-47 475.12,-76"/>
<text xml:space="preserve" text-anchor="start" x="347.88" y="-62.5" font-family="Helvetica,sans-Serif" font-size="10.00">Simulation::KernelInline</text>
<text xml:space="preserve" text-anchor="middle" x="407.5" y="-52" font-family="Helvetica,sans-Serif" font-size="10.00">::__find_next_compartment</text>
</a>
</g>
</g>
<!-- Node2&#45;&gt;Node3 -->
<g id="edge2_Node000002_Node000003" class="edge">
<title>Node2&#45;&gt;Node3</title>
<g id="a_edge2_Node000002_Node000003"><a xlink:title=" ">
<path fill="none" stroke="#63b8ff" d="M303.14,-47.19C311.41,-48.34 319.89,-49.51 328.27,-50.67"/>
<polygon fill="#63b8ff" stroke="#63b8ff" points="327.71,-54.13 338.09,-52.03 328.67,-47.19 327.71,-54.13"/>
</a>
</g>
</g>
<!-- Node4 -->
<g id="Node000004" class="node">
<title>Node4</title>
<g id="a_Node000004"><a xlink:href="namespaceSimulation_1_1KernelInline.html#aac5971a17806db044f8dcf6254872e13" target="_top" xlink:title=" ">
<polygon fill="white" stroke="#666666" points="476.25,-29 338.75,-29 338.75,0 476.25,0 476.25,-29"/>
<text xml:space="preserve" text-anchor="start" x="346.75" y="-15.5" font-family="Helvetica,sans-Serif" font-size="10.00">Simulation::KernelInline</text>
<text xml:space="preserve" text-anchor="middle" x="407.5" y="-5" font-family="Helvetica,sans-Serif" font-size="10.00">::probability_leaving&lt; void &gt;</text>
</a>
</g>
</g>
<!-- Node2&#45;&gt;Node4 -->
<g id="edge3_Node000002_Node000004" class="edge">
<title>Node2&#45;&gt;Node4</title>
<g id="a_edge3_Node000002_Node000004"><a xlink:title=" ">
<path fill="none" stroke="#63b8ff" d="M303.14,-28.21C311.06,-27.16 319.18,-26.08 327.21,-25.02"/>
<polygon fill="#63b8ff" stroke="#63b8ff" points="327.52,-28.51 336.97,-23.72 326.6,-21.57 327.52,-28.51"/>
</a>
</g>
</g>
</g>
</svg>
