<?xml version="1.0" encoding="UTF-8" standalone="no"?>
<!DOCTYPE svg PUBLIC "-//W3C//DTD SVG 1.1//EN"
 "http://www.w3.org/Graphics/SVG/1.1/DTD/svg11.dtd">
<!-- Generated by graphviz version 12.1.2 (0)
 -->
<!-- Title: ApiResult Pages: 1 -->
<svg width="122pt" height="157pt"
 viewBox="0.00 0.00 122.25 156.50" xmlns="http://www.w3.org/2000/svg" xmlns:xlink="http://www.w3.org/1999/xlink">
<g id="graph0" class="graph" transform="scale(1 1) rotate(0) translate(4 152.5)">
<title>ApiResult</title>
<!-- Node1 -->
<g id="Node000001" class="node">
<title>Node1</title>
<g id="a_Node000001"><a xlink:title=" ">
<polygon fill="#999999" stroke="#666666" points="86.12,-18.5 28.12,-18.5 28.12,0 86.12,0 86.12,-18.5"/>
<text text-anchor="middle" x="57.12" y="-5" font-family="Helvetica,sans-Serif" font-size="10.00">ApiResult</text>
</a>
</g>
</g>
<!-- Node2 -->
<g id="Node000002" class="node">
<title>Node2</title>
<g id="a_Node000002"><a xlink:href="structResult.html" target="_top" xlink:title=" ">
<polygon fill="white" stroke="#666666" points="112.38,-83.5 1.88,-83.5 1.88,-54.5 112.38,-54.5 112.38,-83.5"/>
<text text-anchor="start" x="9.88" y="-70" font-family="Helvetica,sans-Serif" font-size="10.00">Result&lt; Success, std</text>
<text text-anchor="middle" x="57.12" y="-59.5" font-family="Helvetica,sans-Serif" font-size="10.00">::string &gt;</text>
</a>
</g>
</g>
<!-- Node2&#45;&gt;Node1 -->
<g id="edge1_Node000001_Node000002" class="edge">
<title>Node2&#45;&gt;Node1</title>
<g id="a_edge1_Node000001_Node000002"><a xlink:title=" ">
<path fill="none" stroke="#63b8ff" d="M57.12,-42.6C57.12,-34.11 57.12,-25.21 57.12,-18.9"/>
<polygon fill="#63b8ff" stroke="#63b8ff" points="53.63,-42.51 57.13,-52.51 60.63,-42.51 53.63,-42.51"/>
</a>
</g>
</g>
<!-- Node3 -->
<g id="Node000003" class="node">
<title>Node3</title>
<g id="a_Node000003"><a xlink:title=" ">
<polygon fill="white" stroke="#666666" points="114.25,-148.5 0,-148.5 0,-119.5 114.25,-119.5 114.25,-148.5"/>
<text text-anchor="start" x="8" y="-135" font-family="Helvetica,sans-Serif" font-size="10.00">std::variant&lt; Success,</text>
<text text-anchor="middle" x="57.12" y="-124.5" font-family="Helvetica,sans-Serif" font-size="10.00"> std::string &gt;</text>
</a>
</g>
</g>
<!-- Node3&#45;&gt;Node2 -->
<g id="edge2_Node000002_Node000003" class="edge">
<title>Node3&#45;&gt;Node2</title>
<g id="a_edge2_Node000002_Node000003"><a xlink:title=" ">
<path fill="none" stroke="darkgreen" d="M57.12,-107.51C57.12,-99.46 57.12,-90.87 57.12,-83.94"/>
<polygon fill="darkgreen" stroke="darkgreen" points="53.63,-107.5 57.13,-117.5 60.63,-107.5 53.63,-107.5"/>
</a>
</g>
</g>
</g>
</svg>
