<?xml version="1.0" encoding="UTF-8" standalone="no"?>
<!DOCTYPE svg PUBLIC "-//W3C//DTD SVG 1.1//EN"
 "http://www.w3.org/Graphics/SVG/1.1/DTD/svg11.dtd">
<!-- Generated by graphviz version 12.1.2 (0)
 -->
<!-- Title: Simulation::KernelInline::MoveFunctor::operator() Pages: 1 -->
<svg width="780pt" height="131pt"
 viewBox="0.00 0.00 780.25 131.00" xmlns="http://www.w3.org/2000/svg" xmlns:xlink="http://www.w3.org/1999/xlink">
<g id="graph0" class="graph" transform="scale(1 1) rotate(0) translate(4 127)">
<title>Simulation::KernelInline::MoveFunctor::operator()</title>
<!-- Node1 -->
<g id="Node000001" class="node">
<title>Node1</title>
<g id="a_Node000001"><a xlink:title=" ">
<polygon fill="#999999" stroke="#666666" points="125.5,-99 0,-99 0,-70 125.5,-70 125.5,-99"/>
<text text-anchor="start" x="8" y="-85.5" font-family="Helvetica,sans-Serif" font-size="10.00">Simulation::KernelInline</text>
<text text-anchor="middle" x="62.75" y="-75" font-family="Helvetica,sans-Serif" font-size="10.00">::MoveFunctor::operator()</text>
</a>
</g>
</g>
<!-- Node2 -->
<g id="Node000002" class="node">
<title>Node2</title>
<g id="a_Node000002"><a xlink:href="structSimulation_1_1KernelInline_1_1MoveFunctor.html#ae6752b77648ada1867cb9da6db34e98d" target="_top" xlink:title=" ">
<polygon fill="white" stroke="#666666" points="299,-123 165.25,-123 165.25,-94 299,-94 299,-123"/>
<text text-anchor="start" x="173.25" y="-109.5" font-family="Helvetica,sans-Serif" font-size="10.00">Simulation::KernelInline</text>
<text text-anchor="middle" x="232.12" y="-99" font-family="Helvetica,sans-Serif" font-size="10.00">::MoveFunctor::handle_exit</text>
</a>
</g>
</g>
<!-- Node1&#45;&gt;Node2 -->
<g id="edge1_Node000001_Node000002" class="edge">
<title>Node1&#45;&gt;Node2</title>
<g id="a_edge1_Node000001_Node000002"><a xlink:title=" ">
<path fill="none" stroke="#63b8ff" d="M125.6,-93.37C134.67,-94.67 144.11,-96.02 153.44,-97.36"/>
<polygon fill="#63b8ff" stroke="#63b8ff" points="152.86,-100.81 163.26,-98.77 153.85,-93.88 152.86,-100.81"/>
</a>
</g>
</g>
<!-- Node8 -->
<g id="Node000008" class="node">
<title>Node8</title>
<g id="a_Node000008"><a xlink:href="structSimulation_1_1KernelInline_1_1MoveFunctor.html#a7a9000c1cf181bc3488b35a886cad84c" target="_top" xlink:title=" ">
<polygon fill="white" stroke="#666666" points="302.75,-76 161.5,-76 161.5,-47 302.75,-47 302.75,-76"/>
<text text-anchor="start" x="169.5" y="-62.5" font-family="Helvetica,sans-Serif" font-size="10.00">Simulation::KernelInline</text>
<text text-anchor="middle" x="232.12" y="-52" font-family="Helvetica,sans-Serif" font-size="10.00">::MoveFunctor::handle_move</text>
</a>
</g>
</g>
<!-- Node1&#45;&gt;Node8 -->
<g id="edge7_Node000001_Node000008" class="edge">
<title>Node1&#45;&gt;Node8</title>
<g id="a_edge7_Node000001_Node000008"><a xlink:title=" ">
<path fill="none" stroke="#63b8ff" d="M125.6,-76C133.45,-74.92 141.57,-73.81 149.67,-72.69"/>
<polygon fill="#63b8ff" stroke="#63b8ff" points="150.13,-76.16 159.56,-71.33 149.18,-69.23 150.13,-76.16"/>
</a>
</g>
</g>
<!-- Node3 -->
<g id="Node000003" class="node">
<title>Node3</title>
<g id="a_Node000003"><a xlink:href="namespaceSimulation_1_1KernelInline.html#a7a29d7da817caed279a1f87044177942" target="_top" xlink:title=" ">
<polygon fill="white" stroke="#666666" points="465.38,-76 347.38,-76 347.38,-47 465.38,-47 465.38,-76"/>
<text text-anchor="start" x="355.38" y="-62.5" font-family="Helvetica,sans-Serif" font-size="10.00">Simulation::KernelInline</text>
<text text-anchor="middle" x="406.38" y="-52" font-family="Helvetica,sans-Serif" font-size="10.00">::probability_leaving</text>
</a>
</g>
</g>
<!-- Node2&#45;&gt;Node3 -->
<g id="edge2_Node000002_Node000003" class="edge">
<title>Node2&#45;&gt;Node3</title>
<g id="a_edge2_Node000002_Node000003"><a xlink:title=" ">
<path fill="none" stroke="#63b8ff" d="M287.63,-93.63C304.12,-89.13 322.41,-84.14 339.56,-79.46"/>
<polygon fill="#63b8ff" stroke="#63b8ff" points="340.45,-82.84 349.18,-76.83 338.61,-76.09 340.45,-82.84"/>
</a>
</g>
</g>
<!-- Node5 -->
<g id="Node000005" class="node">
<title>Node5</title>
<g id="a_Node000005"><a xlink:href="structMC_1_1EventContainer.html#a117575ad89e1abca8ad66cb704c18bd5" target="_top" xlink:title=" ">
<polygon fill="white" stroke="#666666" points="458.62,-123 354.12,-123 354.12,-94 458.62,-94 458.62,-123"/>
<text text-anchor="start" x="362.12" y="-109.5" font-family="Helvetica,sans-Serif" font-size="10.00">MC::EventContainer</text>
<text text-anchor="middle" x="406.38" y="-99" font-family="Helvetica,sans-Serif" font-size="10.00">::wrap_incr</text>
</a>
</g>
</g>
<!-- Node2&#45;&gt;Node5 -->
<g id="edge4_Node000002_Node000005" class="edge">
<title>Node2&#45;&gt;Node5</title>
<g id="a_edge4_Node000002_Node000005"><a xlink:title=" ">
<path fill="none" stroke="#63b8ff" d="M299.23,-108.5C313.53,-108.5 328.61,-108.5 342.76,-108.5"/>
<polygon fill="#63b8ff" stroke="#63b8ff" points="342.38,-112 352.38,-108.5 342.38,-105 342.38,-112"/>
</a>
</g>
</g>
<!-- Node4 -->
<g id="Node000004" class="node">
<title>Node4</title>
<g id="a_Node000004"><a xlink:href="namespaceSimulation_1_1KernelInline.html#a51d881a6b6159d9839b53d9b6f607b65" target="_top" xlink:title=" ">
<polygon fill="white" stroke="#666666" points="646.75,-70.75 510,-70.75 510,-52.25 646.75,-52.25 646.75,-70.75"/>
<text text-anchor="middle" x="578.38" y="-57.25" font-family="Helvetica,sans-Serif" font-size="10.00">Simulation::KernelInline::_ln</text>
</a>
</g>
</g>
<!-- Node3&#45;&gt;Node4 -->
<g id="edge3_Node000003_Node000004" class="edge">
<title>Node3&#45;&gt;Node4</title>
<g id="a_edge3_Node000003_Node000004"><a xlink:title=" ">
<path fill="none" stroke="#63b8ff" d="M465.4,-61.5C475.97,-61.5 487.16,-61.5 498.21,-61.5"/>
<polygon fill="#63b8ff" stroke="#63b8ff" points="498.13,-65 508.13,-61.5 498.13,-58 498.13,-65"/>
</a>
</g>
</g>
<!-- Node6 -->
<g id="Node000006" class="node">
<title>Node6</title>
<g id="a_Node000006"><a xlink:href="structMC_1_1EventContainer.html#a70d7122fe5d2521f91e871816ea83e61" target="_top" xlink:title="Increment specific event counter.">
<polygon fill="white" stroke="#666666" points="630.62,-123 526.12,-123 526.12,-94 630.62,-94 630.62,-123"/>
<text text-anchor="start" x="534.12" y="-109.5" font-family="Helvetica,sans-Serif" font-size="10.00">MC::EventContainer</text>
<text text-anchor="middle" x="578.38" y="-99" font-family="Helvetica,sans-Serif" font-size="10.00">::incr</text>
</a>
</g>
</g>
<!-- Node5&#45;&gt;Node6 -->
<g id="edge5_Node000005_Node000006" class="edge">
<title>Node5&#45;&gt;Node6</title>
<g id="a_edge5_Node000005_Node000006"><a xlink:title=" ">
<path fill="none" stroke="#63b8ff" d="M458.84,-108.5C476.32,-108.5 496.05,-108.5 514.33,-108.5"/>
<polygon fill="#63b8ff" stroke="#63b8ff" points="514.28,-112 524.28,-108.5 514.28,-105 514.28,-112"/>
</a>
</g>
</g>
<!-- Node7 -->
<g id="Node000007" class="node">
<title>Node7</title>
<g id="a_Node000007"><a xlink:href="namespaceMC.html#ae91609aafa31939cedd6775cc5adafc4" target="_top" xlink:title="inline getter, converts event to its value in order to be use as array index">
<polygon fill="white" stroke="#666666" points="772.25,-117.75 682.75,-117.75 682.75,-99.25 772.25,-99.25 772.25,-117.75"/>
<text text-anchor="middle" x="727.5" y="-104.25" font-family="Helvetica,sans-Serif" font-size="10.00">MC::event_index</text>
</a>
</g>
</g>
<!-- Node6&#45;&gt;Node7 -->
<g id="edge6_Node000006_Node000007" class="edge">
<title>Node6&#45;&gt;Node7</title>
<g id="a_edge6_Node000006_Node000007"><a xlink:title=" ">
<path fill="none" stroke="#63b8ff" d="M630.83,-108.5C643.91,-108.5 658.01,-108.5 671.26,-108.5"/>
<polygon fill="#63b8ff" stroke="#63b8ff" points="671.13,-112 681.13,-108.5 671.13,-105 671.13,-112"/>
</a>
</g>
</g>
<!-- Node8&#45;&gt;Node3 -->
<g id="edge9_Node000008_Node000003" class="edge">
<title>Node8&#45;&gt;Node3</title>
<g id="a_edge9_Node000008_Node000003"><a xlink:title=" ">
<path fill="none" stroke="#63b8ff" d="M303.19,-61.5C313.86,-61.5 324.87,-61.5 335.53,-61.5"/>
<polygon fill="#63b8ff" stroke="#63b8ff" points="335.43,-65 345.43,-61.5 335.43,-58 335.43,-65"/>
</a>
</g>
</g>
<!-- Node8&#45;&gt;Node5 -->
<g id="edge10_Node000008_Node000005" class="edge">
<title>Node8&#45;&gt;Node5</title>
<g id="a_edge10_Node000008_Node000005"><a xlink:title=" ">
<path fill="none" stroke="#63b8ff" d="M287.63,-76.37C305.17,-81.16 324.76,-86.5 342.84,-91.44"/>
<polygon fill="#63b8ff" stroke="#63b8ff" points="341.84,-94.79 352.41,-94.05 343.68,-88.04 341.84,-94.79"/>
</a>
</g>
</g>
<!-- Node9 -->
<g id="Node000009" class="node">
<title>Node9</title>
<g id="a_Node000009"><a xlink:href="namespaceSimulation_1_1KernelInline.html#a68ac7aac1215936a97dee2435fb8fa28" target="_top" xlink:title=" ">
<polygon fill="white" stroke="#666666" points="474,-29 338.75,-29 338.75,0 474,0 474,-29"/>
<text text-anchor="start" x="346.75" y="-15.5" font-family="Helvetica,sans-Serif" font-size="10.00">Simulation::KernelInline</text>
<text text-anchor="middle" x="406.38" y="-5" font-family="Helvetica,sans-Serif" font-size="10.00">::__find_next_compartment</text>
</a>
</g>
</g>
<!-- Node8&#45;&gt;Node9 -->
<g id="edge8_Node000008_Node000009" class="edge">
<title>Node8&#45;&gt;Node9</title>
<g id="a_edge8_Node000008_Node000009"><a xlink:title=" ">
<path fill="none" stroke="#63b8ff" d="M287.63,-46.63C304.12,-42.13 322.41,-37.14 339.56,-32.46"/>
<polygon fill="#63b8ff" stroke="#63b8ff" points="340.45,-35.84 349.18,-29.83 338.61,-29.09 340.45,-35.84"/>
</a>
</g>
</g>
</g>
</svg>
