<?xml version="1.0" encoding="UTF-8" standalone="no"?>
<!DOCTYPE svg PUBLIC "-//W3C//DTD SVG 1.1//EN"
 "http://www.w3.org/Graphics/SVG/1.1/DTD/svg11.dtd">
<!-- Generated by graphviz version 14.0.1 (0)
 -->
<!-- Title: OpaquePointer::OpaquePointer Pages: 1 -->
<svg width="346pt" height="138pt"
 viewBox="0.00 0.00 346.00 138.00" xmlns="http://www.w3.org/2000/svg" xmlns:xlink="http://www.w3.org/1999/xlink">

<svg id="main" version="1.1" xmlns="http://www.w3.org/2000/svg" xmlns:xlink="http://www.w3.org/1999/xlink" xml:space="preserve">

<style type="text/css"><![CDATA[
.node, .edge {opacity: 0.7;}
.node.selected, .edge.selected {opacity: 1;}
.edge:hover path { stroke: red; }
.edge:hover polygon { stroke: red; fill: red; }
]]></style>
<script type="application/ecmascript" xlink:href="svg.min.js"/>
<svg id="graph" class="graph">
<g id="graph0" class="graph" transform="scale(1 1) rotate(0) translate(4 133.5)">
<title>OpaquePointer::OpaquePointer</title>
<!-- Node1 -->
<g id="Node000001" class="node">
<title>Node1</title>
<g id="a_Node000001"><a xlink:title=" ">
<polygon fill="#999999" stroke="#666666" points="338,-73.5 187,-73.5 187,-55 338,-55 338,-73.5"/>
<text xml:space="preserve" text-anchor="middle" x="262.5" y="-60" font-family="Helvetica,sans-Serif" font-size="10.00">OpaquePointer::OpaquePointer</text>
</a>
</g>
</g>
<!-- Node2 -->
<g id="Node000002" class="node">
<title>Node2</title>
<g id="a_Node000002"><a xlink:href="structOpaquePointer.html#ad8c8a5c3d71cdeac6a859fd7f61cf0da" target="_top" xlink:title=" ">
<polygon fill="white" stroke="#666666" points="151,-129.5 0,-129.5 0,-111 151,-111 151,-129.5"/>
<text xml:space="preserve" text-anchor="middle" x="75.5" y="-116" font-family="Helvetica,sans-Serif" font-size="10.00">OpaquePointer::OpaquePointer</text>
</a>
</g>
</g>
<!-- Node1&#45;&gt;Node2 -->
<g id="edge1_Node000001_Node000002" class="edge">
<title>Node1&#45;&gt;Node2</title>
<g id="a_edge1_Node000001_Node000002"><a xlink:title=" ">
<path fill="none" stroke="#63b8ff" d="M223.59,-77.71C202.37,-85.05 175.35,-94.08 151,-101.25 139.99,-104.49 127.97,-107.7 116.86,-110.53"/>
<polygon fill="#63b8ff" stroke="#63b8ff" points="224.71,-81.03 233,-74.43 222.41,-74.42 224.71,-81.03"/>
</a>
</g>
</g>
<!-- Node3 -->
<g id="Node000003" class="node">
<title>Node3</title>
<g id="a_Node000003"><a xlink:href="structOpaquePointer.html#ae91003d47c4ec49634c6af6558bb581b" target="_top" xlink:title=" ">
<polygon fill="white" stroke="#666666" points="151,-92.5 0,-92.5 0,-74 151,-74 151,-92.5"/>
<text xml:space="preserve" text-anchor="middle" x="75.5" y="-79" font-family="Helvetica,sans-Serif" font-size="10.00">OpaquePointer::OpaquePointer</text>
</a>
</g>
</g>
<!-- Node1&#45;&gt;Node3 -->
<g id="edge2_Node000001_Node000003" class="edge">
<title>Node1&#45;&gt;Node3</title>
<g id="a_edge2_Node000001_Node000003"><a xlink:title=" ">
<path fill="none" stroke="#63b8ff" d="M175.26,-73.11C167.25,-73.93 159.18,-74.76 151.29,-75.57"/>
<polygon fill="#63b8ff" stroke="#63b8ff" points="175.42,-76.61 185.01,-72.11 174.71,-69.65 175.42,-76.61"/>
</a>
</g>
</g>
<!-- Node4 -->
<g id="Node000004" class="node">
<title>Node4</title>
<g id="a_Node000004"><a xlink:href="structOpaquePointer.html#afd0afd245ea27d36ad0ee2fd8216fa4f" target="_top" xlink:title=" ">
<polygon fill="white" stroke="#666666" points="139.38,-55.5 11.62,-55.5 11.62,-37 139.38,-37 139.38,-55.5"/>
<text xml:space="preserve" text-anchor="middle" x="75.5" y="-42" font-family="Helvetica,sans-Serif" font-size="10.00">OpaquePointer::operator=</text>
</a>
</g>
</g>
<!-- Node1&#45;&gt;Node4 -->
<g id="edge3_Node000001_Node000004" class="edge">
<title>Node1&#45;&gt;Node4</title>
<g id="a_edge3_Node000001_Node000004"><a xlink:title=" ">
<path fill="none" stroke="#63b8ff" d="M175.15,-55.85C163.21,-54.69 151.14,-53.51 139.73,-52.4"/>
<polygon fill="#63b8ff" stroke="#63b8ff" points="174.72,-59.32 185.01,-56.81 175.4,-52.36 174.72,-59.32"/>
</a>
</g>
</g>
<!-- Node5 -->
<g id="Node000005" class="node">
<title>Node5</title>
<g id="a_Node000005"><a xlink:href="structOpaquePointer.html#aca8558d4a2b7aab20b1b68eb4d96a269" target="_top" xlink:title=" ">
<polygon fill="white" stroke="#666666" points="139.38,-18.5 11.62,-18.5 11.62,0 139.38,0 139.38,-18.5"/>
<text xml:space="preserve" text-anchor="middle" x="75.5" y="-5" font-family="Helvetica,sans-Serif" font-size="10.00">OpaquePointer::operator=</text>
</a>
</g>
</g>
<!-- Node1&#45;&gt;Node5 -->
<g id="edge4_Node000001_Node000005" class="edge">
<title>Node1&#45;&gt;Node5</title>
<g id="a_edge4_Node000001_Node000005"><a xlink:title=" ">
<path fill="none" stroke="#63b8ff" d="M222.7,-50.92C201.6,-43.85 174.98,-35.21 151,-28.25 139.85,-25.01 127.67,-21.78 116.45,-18.93"/>
<polygon fill="#63b8ff" stroke="#63b8ff" points="221.47,-54.2 232.06,-54.08 223.71,-47.57 221.47,-54.2"/>
</a>
</g>
</g>
</g>
</svg>
</svg>

<style type='text/css'>
<![CDATA[
[data-mouse-over-selected='false'] { opacity: 0.7; }
[data-mouse-over-selected='true']  { opacity: 1.0; }
]]>
</style>
<script type="application/ecmascript"><![CDATA[
document.addEventListener('DOMContentLoaded', (event) => {
  highlightEdges();
  highlightAdjacentNodes();
});
]]></script>
</svg>
