<?xml version="1.0" encoding="UTF-8" standalone="no"?>
<!DOCTYPE svg PUBLIC "-//W3C//DTD SVG 1.1//EN"
 "http://www.w3.org/Graphics/SVG/1.1/DTD/svg11.dtd">
<!-- Generated by graphviz version 12.1.2 (0)
 -->
<!-- Title: Models::SimpleModel::update Pages: 1 -->
<svg width="454pt" height="111pt"
 viewBox="0.00 0.00 454.25 110.50" xmlns="http://www.w3.org/2000/svg" xmlns:xlink="http://www.w3.org/1999/xlink">
<g id="graph0" class="graph" transform="scale(1 1) rotate(0) translate(4 106.5)">
<title>Models::SimpleModel::update</title>
<!-- Node1 -->
<g id="Node000001" class="node">
<title>Node1</title>
<g id="a_Node000001"><a xlink:title=" ">
<polygon fill="#999999" stroke="#666666" points="109.75,-65.75 0,-65.75 0,-36.75 109.75,-36.75 109.75,-65.75"/>
<text text-anchor="start" x="8" y="-52.25" font-family="Helvetica,sans-Serif" font-size="10.00">Models::SimpleModel</text>
<text text-anchor="middle" x="54.88" y="-41.75" font-family="Helvetica,sans-Serif" font-size="10.00">::update</text>
</a>
</g>
</g>
<!-- Node2 -->
<g id="Node000002" class="node">
<title>Node2</title>
<g id="a_Node000002"><a xlink:href="structModels_1_1Uptake.html#a511b5a27e41b542b8f2d4f0b409c133e" target="_top" xlink:title=" ">
<polygon fill="white" stroke="#666666" points="288.5,-60.5 145.75,-60.5 145.75,-42 288.5,-42 288.5,-60.5"/>
<text text-anchor="middle" x="217.12" y="-47" font-family="Helvetica,sans-Serif" font-size="10.00">Models::Uptake::uptake_step</text>
</a>
</g>
</g>
<!-- Node1&#45;&gt;Node2 -->
<g id="edge1_Node000001_Node000002" class="edge">
<title>Node1&#45;&gt;Node2</title>
<g id="a_edge1_Node000001_Node000002"><a xlink:title=" ">
<path fill="none" stroke="#63b8ff" d="M110.13,-51.25C117.84,-51.25 125.92,-51.25 134.02,-51.25"/>
<polygon fill="#63b8ff" stroke="#63b8ff" points="133.94,-54.75 143.94,-51.25 133.94,-47.75 133.94,-54.75"/>
</a>
</g>
</g>
<!-- Node3 -->
<g id="Node000003" class="node">
<title>Node3</title>
<g id="a_Node000003"><a xlink:href="namespaceModels.html#aff3e4340a32804ffc9a3fba674928842" target="_top" xlink:title=" ">
<polygon fill="white" stroke="#666666" points="420.38,-102.5 350.38,-102.5 350.38,-84 420.38,-84 420.38,-102.5"/>
<text text-anchor="middle" x="385.38" y="-89" font-family="Helvetica,sans-Serif" font-size="10.00">Models::freq</text>
</a>
</g>
</g>
<!-- Node2&#45;&gt;Node3 -->
<g id="edge2_Node000002_Node000003" class="edge">
<title>Node2&#45;&gt;Node3</title>
<g id="a_edge2_Node000002_Node000003"><a xlink:title=" ">
<path fill="none" stroke="#63b8ff" d="M256.68,-60.99C281.25,-67.2 313.19,-75.27 338.98,-81.78"/>
<polygon fill="#63b8ff" stroke="#63b8ff" points="337.96,-85.13 348.51,-84.19 339.67,-78.35 337.96,-85.13"/>
</a>
</g>
</g>
<!-- Node4 -->
<g id="Node000004" class="node">
<title>Node4</title>
<g id="a_Node000004"><a xlink:href="structModels_1_1Uptake.html#a3627cf1414527a8edd7082dd51d24fba" target="_top" xlink:title=" ">
<polygon fill="white" stroke="#666666" points="436.88,-65.75 333.88,-65.75 333.88,-36.75 436.88,-36.75 436.88,-65.75"/>
<text text-anchor="start" x="341.88" y="-52.25" font-family="Helvetica,sans-Serif" font-size="10.00">Models::Uptake::phi</text>
<text text-anchor="middle" x="385.38" y="-41.75" font-family="Helvetica,sans-Serif" font-size="10.00">_permease</text>
</a>
</g>
</g>
<!-- Node2&#45;&gt;Node4 -->
<g id="edge3_Node000002_Node000004" class="edge">
<title>Node2&#45;&gt;Node4</title>
<g id="a_edge3_Node000002_Node000004"><a xlink:title=" ">
<path fill="none" stroke="#63b8ff" d="M288.63,-51.25C299.8,-51.25 311.27,-51.25 322.23,-51.25"/>
<polygon fill="#63b8ff" stroke="#63b8ff" points="321.91,-54.75 331.91,-51.25 321.91,-47.75 321.91,-54.75"/>
</a>
</g>
</g>
<!-- Node5 -->
<g id="Node000005" class="node">
<title>Node5</title>
<g id="a_Node000005"><a xlink:href="structModels_1_1Uptake.html#ad5bef0e6800ba6e9b3ba55a675f270a8" target="_top" xlink:title=" ">
<polygon fill="white" stroke="#666666" points="446.25,-18.5 324.5,-18.5 324.5,0 446.25,0 446.25,-18.5"/>
<text text-anchor="middle" x="385.38" y="-5" font-family="Helvetica,sans-Serif" font-size="10.00">Models::Uptake::phi_pts</text>
</a>
</g>
</g>
<!-- Node2&#45;&gt;Node5 -->
<g id="edge4_Node000002_Node000005" class="edge">
<title>Node2&#45;&gt;Node5</title>
<g id="a_edge4_Node000002_Node000005"><a xlink:title=" ">
<path fill="none" stroke="#63b8ff" d="M256.68,-41.51C279.97,-35.62 309.89,-28.07 334.91,-21.75"/>
<polygon fill="#63b8ff" stroke="#63b8ff" points="335.72,-25.15 344.56,-19.31 334.01,-18.37 335.72,-25.15"/>
</a>
</g>
</g>
</g>
</svg>
