<?xml version="1.0" encoding="UTF-8" standalone="no"?>
<!DOCTYPE svg PUBLIC "-//W3C//DTD SVG 1.1//EN"
 "http://www.w3.org/Graphics/SVG/1.1/DTD/svg11.dtd">
<!-- Generated by graphviz version 14.0.1 (0)
 -->
<!-- Title: Simulation::KernelInline::CycleFunctors&lt; Space, Model &gt; Pages: 1 -->
<svg width="830pt" height="194pt"
 viewBox="0.00 0.00 830.00 194.00" xmlns="http://www.w3.org/2000/svg" xmlns:xlink="http://www.w3.org/1999/xlink">
<g id="graph0" class="graph" transform="scale(1 1) rotate(0) translate(4 190)">
<title>Simulation::KernelInline::CycleFunctors&lt; Space, Model &gt;</title>
<!-- Node1 -->
<g id="Node000001" class="node">
<title>Node1</title>
<g id="a_Node000001"><a xlink:title=" ">
<polygon fill="#999999" stroke="#666666" points="822.25,-106.25 696.75,-106.25 696.75,-66.75 822.25,-66.75 822.25,-106.25"/>
<text xml:space="preserve" text-anchor="start" x="704.75" y="-92.75" font-family="Helvetica,sans-Serif" font-size="10.00">Simulation::KernelInline</text>
<text xml:space="preserve" text-anchor="start" x="704.75" y="-82.25" font-family="Helvetica,sans-Serif" font-size="10.00">::CycleFunctors&lt; Space,</text>
<text xml:space="preserve" text-anchor="middle" x="759.5" y="-71.75" font-family="Helvetica,sans-Serif" font-size="10.00"> Model &gt;</text>
</a>
</g>
</g>
<!-- Node2 -->
<g id="Node000002" class="node">
<title>Node2</title>
<g id="a_Node000002"><a xlink:href="structSimulation_1_1KernelInline_1_1CycleFunctor.html" target="_top" xlink:title=" ">
<polygon fill="white" stroke="#666666" points="573.75,-170 449.75,-170 449.75,-141 573.75,-141 573.75,-170"/>
<text xml:space="preserve" text-anchor="start" x="457.75" y="-156.5" font-family="Helvetica,sans-Serif" font-size="10.00">Simulation::KernelInline</text>
<text xml:space="preserve" text-anchor="middle" x="511.75" y="-146" font-family="Helvetica,sans-Serif" font-size="10.00">::CycleFunctor&lt; Model &gt;</text>
</a>
</g>
</g>
<!-- Node2&#45;&gt;Node1 -->
<g id="edge1_Node000001_Node000002" class="edge">
<title>Node2&#45;&gt;Node1</title>
<g id="a_edge1_Node000001_Node000002"><a xlink:title=" ">
<path fill="none" stroke="#9a32cd" stroke-dasharray="5,2" d="M584.9,-144.16C614.36,-138.64 648.55,-131.1 678.75,-121.5 691.43,-117.47 704.82,-112.07 716.93,-106.73"/>
<polygon fill="#9a32cd" stroke="#9a32cd" points="584.56,-140.66 575.35,-145.9 585.81,-147.55 584.56,-140.66"/>
</a>
</g>
<text xml:space="preserve" text-anchor="start" x="608.62" y="-146.5" font-family="Helvetica,sans-Serif" font-size="10.00" fill="grey">cycle_kernel</text>
</g>
<!-- Node3 -->
<g id="Node000003" class="node">
<title>Node3</title>
<g id="a_Node000003"><a xlink:href="structSimulation_1_1KernelInline_1_1MoveFunctor.html" target="_top" xlink:title=" ">
<polygon fill="white" stroke="#666666" points="570.75,-123 452.75,-123 452.75,-94 570.75,-94 570.75,-123"/>
<text xml:space="preserve" text-anchor="start" x="460.75" y="-109.5" font-family="Helvetica,sans-Serif" font-size="10.00">Simulation::KernelInline</text>
<text xml:space="preserve" text-anchor="middle" x="511.75" y="-99" font-family="Helvetica,sans-Serif" font-size="10.00">::MoveFunctor</text>
</a>
</g>
</g>
<!-- Node3&#45;&gt;Node1 -->
<g id="edge2_Node000001_Node000003" class="edge">
<title>Node3&#45;&gt;Node1</title>
<g id="a_edge2_Node000001_Node000003"><a xlink:title=" ">
<path fill="none" stroke="#9a32cd" stroke-dasharray="5,2" d="M582.36,-102.27C618.24,-99.06 661.64,-95.17 696.38,-92.06"/>
<polygon fill="#9a32cd" stroke="#9a32cd" points="582.14,-98.77 572.5,-103.15 582.77,-105.75 582.14,-98.77"/>
</a>
</g>
<text xml:space="preserve" text-anchor="start" x="608.25" y="-105.38" font-family="Helvetica,sans-Serif" font-size="10.00" fill="grey">move_kernel</text>
</g>
<!-- Node4 -->
<g id="Node000004" class="node">
<title>Node4</title>
<g id="a_Node000004"><a xlink:href="structMC_1_1DomainState.html" target="_top" xlink:title=" ">
<polygon fill="white" stroke="#666666" points="356,-186 212.5,-186 212.5,-157 356,-157 356,-186"/>
<text xml:space="preserve" text-anchor="start" x="220.5" y="-172.5" font-family="Helvetica,sans-Serif" font-size="10.00">MC::DomainState&lt; Compute</text>
<text xml:space="preserve" text-anchor="middle" x="284.25" y="-162" font-family="Helvetica,sans-Serif" font-size="10.00">Space, true &gt;</text>
</a>
</g>
</g>
<!-- Node4&#45;&gt;Node3 -->
<g id="edge3_Node000003_Node000004" class="edge">
<title>Node4&#45;&gt;Node3</title>
<g id="a_edge3_Node000003_Node000004"><a xlink:title=" ">
<path fill="none" stroke="#9a32cd" stroke-dasharray="5,2" d="M367.58,-158.57C388.79,-154.18 411.37,-148.55 431.75,-141.5 440.2,-138.58 441.58,-136.14 449.75,-132.5 456.61,-129.44 463.99,-126.37 471.16,-123.48"/>
<polygon fill="#9a32cd" stroke="#9a32cd" points="366.91,-155.14 357.79,-160.53 368.28,-162 366.91,-155.14"/>
</a>
</g>
<text xml:space="preserve" text-anchor="start" x="391.62" y="-160.69" font-family="Helvetica,sans-Serif" font-size="10.00" fill="grey">move</text>
</g>
<!-- Node5 -->
<g id="Node000005" class="node">
<title>Node5</title>
<g id="a_Node000005"><a xlink:href="structMC_1_1EventContainer.html" target="_top" xlink:title="Use to count events that occurs during Monte&#45;Carlo processing cycles.">
<polygon fill="white" stroke="#666666" points="336.5,-138.75 232,-138.75 232,-120.25 336.5,-120.25 336.5,-138.75"/>
<text xml:space="preserve" text-anchor="middle" x="284.25" y="-125.25" font-family="Helvetica,sans-Serif" font-size="10.00">MC::EventContainer</text>
</a>
</g>
</g>
<!-- Node5&#45;&gt;Node3 -->
<g id="edge4_Node000003_Node000005" class="edge">
<title>Node5&#45;&gt;Node3</title>
<g id="a_edge4_Node000003_Node000005"><a xlink:title=" ">
<path fill="none" stroke="#9a32cd" stroke-dasharray="5,2" d="M348.23,-123.64C380.9,-120.59 420.55,-116.9 452.51,-113.92"/>
<polygon fill="#9a32cd" stroke="#9a32cd" points="348.12,-120.13 338.49,-124.54 348.77,-127.1 348.12,-120.13"/>
</a>
</g>
<text xml:space="preserve" text-anchor="start" x="389" y="-124.88" font-family="Helvetica,sans-Serif" font-size="10.00" fill="grey">events</text>
</g>
<!-- Node6 -->
<g id="Node000006" class="node">
<title>Node6</title>
<g id="a_Node000006"><a xlink:href="classSimulation_1_1Probes.html" target="_top" xlink:title=" ">
<polygon fill="white" stroke="#666666" points="344.38,-102.25 224.12,-102.25 224.12,-62.75 344.38,-62.75 344.38,-102.25"/>
<text xml:space="preserve" text-anchor="start" x="232.12" y="-88.75" font-family="Helvetica,sans-Serif" font-size="10.00">Simulation::Probes</text>
<text xml:space="preserve" text-anchor="start" x="232.12" y="-78.25" font-family="Helvetica,sans-Serif" font-size="10.00">&lt; AutoGenerated::probe</text>
<text xml:space="preserve" text-anchor="middle" x="284.25" y="-67.75" font-family="Helvetica,sans-Serif" font-size="10.00">_buffer_size &gt;</text>
</a>
</g>
</g>
<!-- Node6&#45;&gt;Node3 -->
<g id="edge5_Node000003_Node000006" class="edge">
<title>Node6&#45;&gt;Node3</title>
<g id="a_edge5_Node000003_Node000006"><a xlink:title=" ">
<path fill="none" stroke="#9a32cd" stroke-dasharray="5,2" d="M355.76,-87.31C379.9,-89.28 407.05,-91.84 431.75,-95 438.51,-95.86 445.58,-96.89 452.59,-97.99"/>
<polygon fill="#9a32cd" stroke="#9a32cd" points="356.29,-83.84 346.04,-86.54 355.74,-90.82 356.29,-83.84"/>
</a>
</g>
<text xml:space="preserve" text-anchor="start" x="388.62" y="-99" font-family="Helvetica,sans-Serif" font-size="10.00" fill="grey">probes</text>
</g>
<!-- Node7 -->
<g id="Node000007" class="node">
<title>Node7</title>
<g id="a_Node000007"><a xlink:href="structContributionFunctor.html" target="_top" xlink:title=" ">
<polygon fill="white" stroke="#666666" points="562.5,-76 461,-76 461,-47 562.5,-47 562.5,-76"/>
<text xml:space="preserve" text-anchor="start" x="469" y="-62.5" font-family="Helvetica,sans-Serif" font-size="10.00">ContributionFunctor</text>
<text xml:space="preserve" text-anchor="middle" x="511.75" y="-52" font-family="Helvetica,sans-Serif" font-size="10.00">&lt; Model &gt;</text>
</a>
</g>
</g>
<!-- Node7&#45;&gt;Node1 -->
<g id="edge6_Node000001_Node000007" class="edge">
<title>Node7&#45;&gt;Node1</title>
<g id="a_edge6_Node000001_Node000007"><a xlink:title=" ">
<path fill="none" stroke="#9a32cd" stroke-dasharray="5,2" d="M574.17,-64.94C605.52,-67 644.23,-70 678.75,-74 684.46,-74.66 690.38,-75.43 696.31,-76.26"/>
<polygon fill="#9a32cd" stroke="#9a32cd" points="574.69,-61.47 564.48,-64.33 574.24,-68.46 574.69,-61.47"/>
</a>
</g>
<text xml:space="preserve" text-anchor="start" x="594.75" y="-78" font-family="Helvetica,sans-Serif" font-size="10.00" fill="grey">contribution_kernel</text>
</g>
<!-- Node8 -->
<g id="Node000008" class="node">
<title>Node8</title>
<g id="a_Node000008"><a xlink:href="classMC_1_1ParticlesContainer.html" target="_top" xlink:title=" ">
<polygon fill="white" stroke="#666666" points="356.75,-44.75 211.75,-44.75 211.75,-26.25 356.75,-26.25 356.75,-44.75"/>
<text xml:space="preserve" text-anchor="middle" x="284.25" y="-31.25" font-family="Helvetica,sans-Serif" font-size="10.00">MC::ParticlesContainer&lt; M &gt;</text>
</a>
</g>
</g>
<!-- Node8&#45;&gt;Node7 -->
<g id="edge7_Node000007_Node000008" class="edge">
<title>Node8&#45;&gt;Node7</title>
<g id="a_edge7_Node000007_Node000008"><a xlink:title=" ">
<path fill="none" stroke="#9a32cd" stroke-dasharray="5,2" d="M368.48,-45.1C399.5,-48.67 433.73,-52.62 460.84,-55.75"/>
<polygon fill="#9a32cd" stroke="#9a32cd" points="369.06,-41.64 358.72,-43.97 368.26,-48.59 369.06,-41.64"/>
</a>
</g>
<text xml:space="preserve" text-anchor="start" x="377.75" y="-56.35" font-family="Helvetica,sans-Serif" font-size="10.00" fill="grey">m_particles</text>
</g>
<!-- Node9 -->
<g id="Node000009" class="node">
<title>Node9</title>
<g id="a_Node000009"><a xlink:href="structMC_1_1RuntimeParameters.html" target="_top" xlink:title=" ">
<polygon fill="white" stroke="#666666" points="125.5,-44.75 0,-44.75 0,-26.25 125.5,-26.25 125.5,-44.75"/>
<text xml:space="preserve" text-anchor="middle" x="62.75" y="-31.25" font-family="Helvetica,sans-Serif" font-size="10.00">MC::RuntimeParameters</text>
</a>
</g>
</g>
<!-- Node9&#45;&gt;Node8 -->
<g id="edge8_Node000008_Node000009" class="edge">
<title>Node9&#45;&gt;Node8</title>
<g id="a_edge8_Node000008_Node000009"><a xlink:title=" ">
<path fill="none" stroke="#9a32cd" stroke-dasharray="5,2" d="M137.25,-35.5C161.12,-35.5 187.55,-35.5 211.3,-35.5"/>
<polygon fill="#9a32cd" stroke="#9a32cd" points="137.28,-32 127.28,-35.5 137.28,-39 137.28,-32"/>
</a>
</g>
<text xml:space="preserve" text-anchor="start" x="146.5" y="-39.5" font-family="Helvetica,sans-Serif" font-size="10.00" fill="grey">rt_params</text>
</g>
<!-- Node10 -->
<g id="Node000010" class="node">
<title>Node10</title>
<g id="a_Node000010"><a xlink:href="structSimulation_1_1KernelInline_1_1DispatchOptions.html" target="_top" xlink:title=" ">
<polygon fill="white" stroke="#666666" points="570.75,-29 452.75,-29 452.75,0 570.75,0 570.75,-29"/>
<text xml:space="preserve" text-anchor="start" x="460.75" y="-15.5" font-family="Helvetica,sans-Serif" font-size="10.00">Simulation::KernelInline</text>
<text xml:space="preserve" text-anchor="middle" x="511.75" y="-5" font-family="Helvetica,sans-Serif" font-size="10.00">::DispatchOptions</text>
</a>
</g>
</g>
<!-- Node10&#45;&gt;Node1 -->
<g id="edge9_Node000001_Node000010" class="edge">
<title>Node10&#45;&gt;Node1</title>
<g id="a_edge9_Node000001_Node000010"><a xlink:title=" ">
<path fill="none" stroke="#9a32cd" stroke-dasharray="5,2" d="M582.3,-23.22C612.45,-28.13 647.85,-35.46 678.75,-46 694.18,-51.26 710.37,-59.02 724.1,-66.34"/>
<polygon fill="#9a32cd" stroke="#9a32cd" points="582.94,-19.77 572.51,-21.68 581.85,-26.69 582.94,-19.77"/>
</a>
</g>
<text xml:space="preserve" text-anchor="start" x="612.75" y="-50" font-family="Helvetica,sans-Serif" font-size="10.00" fill="grey">m_options</text>
</g>
</g>
</svg>
