<?xml version="1.0" encoding="UTF-8" standalone="no"?>
<!DOCTYPE svg PUBLIC "-//W3C//DTD SVG 1.1//EN"
 "http://www.w3.org/Graphics/SVG/1.1/DTD/svg11.dtd">
<!-- Generated by graphviz version 12.1.2 (0)
 -->
<!-- Title: Models::Uptake::init Pages: 1 -->
<svg width="258pt" height="121pt"
 viewBox="0.00 0.00 258.25 121.00" xmlns="http://www.w3.org/2000/svg" xmlns:xlink="http://www.w3.org/1999/xlink">
<g id="graph0" class="graph" transform="scale(1 1) rotate(0) translate(4 117)">
<title>Models::Uptake::init</title>
<!-- Node1 -->
<g id="Node000001" class="node">
<title>Node1</title>
<g id="a_Node000001"><a xlink:title=" ">
<polygon fill="#999999" stroke="#666666" points="250.25,-65.75 147.25,-65.75 147.25,-47.25 250.25,-47.25 250.25,-65.75"/>
<text text-anchor="middle" x="198.75" y="-52.25" font-family="Helvetica,sans-Serif" font-size="10.00">Models::Uptake::init</text>
</a>
</g>
</g>
<!-- Node2 -->
<g id="Node000002" class="node">
<title>Node2</title>
<g id="a_Node000002"><a xlink:href="structModels_1_1SimpleModel.html#a50c1e5de1921c8323b707df3c31834e5" target="_top" xlink:title=" ">
<polygon fill="white" stroke="#666666" points="110.5,-113 0.75,-113 0.75,-84 110.5,-84 110.5,-113"/>
<text text-anchor="start" x="8.75" y="-99.5" font-family="Helvetica,sans-Serif" font-size="10.00">Models::SimpleModel</text>
<text text-anchor="middle" x="55.62" y="-89" font-family="Helvetica,sans-Serif" font-size="10.00">::init</text>
</a>
</g>
</g>
<!-- Node1&#45;&gt;Node2 -->
<g id="edge1_Node000001_Node000002" class="edge">
<title>Node1&#45;&gt;Node2</title>
<g id="a_edge1_Node000001_Node000002"><a xlink:title=" ">
<path fill="none" stroke="#63b8ff" d="M154.02,-69.51C139.09,-73.96 122.28,-78.96 106.88,-83.54"/>
<polygon fill="#63b8ff" stroke="#63b8ff" points="154.98,-72.88 163.57,-66.67 152.98,-66.17 154.98,-72.88"/>
</a>
</g>
</g>
<!-- Node3 -->
<g id="Node000003" class="node">
<title>Node3</title>
<g id="a_Node000003"><a xlink:href="structModels_1_1TwoMeta.html#a77088e8a2d0675d4f08e638f0018a0a9" target="_top" xlink:title=" ">
<polygon fill="white" stroke="#666666" points="111.25,-65.75 0,-65.75 0,-47.25 111.25,-47.25 111.25,-65.75"/>
<text text-anchor="middle" x="55.62" y="-52.25" font-family="Helvetica,sans-Serif" font-size="10.00">Models::TwoMeta::init</text>
</a>
</g>
</g>
<!-- Node1&#45;&gt;Node3 -->
<g id="edge2_Node000001_Node000003" class="edge">
<title>Node1&#45;&gt;Node3</title>
<g id="a_edge2_Node000001_Node000003"><a xlink:title=" ">
<path fill="none" stroke="#63b8ff" d="M135.54,-56.5C127.47,-56.5 119.25,-56.5 111.31,-56.5"/>
<polygon fill="#63b8ff" stroke="#63b8ff" points="135.29,-60 145.29,-56.5 135.29,-53 135.29,-60"/>
</a>
</g>
</g>
<!-- Node4 -->
<g id="Node000004" class="node">
<title>Node4</title>
<g id="a_Node000004"><a xlink:href="structModels_1_1TwoMetaDiv.html#a3326318642a739201c0a1362710362bb" target="_top" xlink:title=" ">
<polygon fill="white" stroke="#666666" points="109.38,-29 1.88,-29 1.88,0 109.38,0 109.38,-29"/>
<text text-anchor="start" x="9.88" y="-15.5" font-family="Helvetica,sans-Serif" font-size="10.00">Models::TwoMetaDiv</text>
<text text-anchor="middle" x="55.62" y="-5" font-family="Helvetica,sans-Serif" font-size="10.00">::init</text>
</a>
</g>
</g>
<!-- Node1&#45;&gt;Node4 -->
<g id="edge3_Node000001_Node000004" class="edge">
<title>Node1&#45;&gt;Node4</title>
<g id="a_edge3_Node000001_Node000004"><a xlink:title=" ">
<path fill="none" stroke="#63b8ff" d="M154.02,-43.49C139.09,-39.04 122.28,-34.04 106.88,-29.46"/>
<polygon fill="#63b8ff" stroke="#63b8ff" points="152.98,-46.83 163.57,-46.33 154.98,-40.12 152.98,-46.83"/>
</a>
</g>
</g>
</g>
</svg>
