<?xml version="1.0" encoding="UTF-8" standalone="no"?>
<!DOCTYPE svg PUBLIC "-//W3C//DTD SVG 1.1//EN"
 "http://www.w3.org/Graphics/SVG/1.1/DTD/svg11.dtd">
<!-- Generated by graphviz version 14.0.1 (0)
 -->
<!-- Title: Models::TwoMetaNb::update Pages: 1 -->
<svg width="893pt" height="92pt"
 viewBox="0.00 0.00 893.00 92.00" xmlns="http://www.w3.org/2000/svg" xmlns:xlink="http://www.w3.org/1999/xlink">
<g id="graph0" class="graph" transform="scale(1 1) rotate(0) translate(4 88)">
<title>Models::TwoMetaNb::update</title>
<!-- Node1 -->
<g id="Node000001" class="node">
<title>Node1</title>
<g id="a_Node000001"><a xlink:title=" ">
<polygon fill="#999999" stroke="#666666" points="111.25,-84 0,-84 0,-55 111.25,-55 111.25,-84"/>
<text xml:space="preserve" text-anchor="start" x="8" y="-70.5" font-family="Helvetica,sans-Serif" font-size="10.00">Models::TwoMetaNb::</text>
<text xml:space="preserve" text-anchor="middle" x="55.62" y="-60" font-family="Helvetica,sans-Serif" font-size="10.00">update</text>
</a>
</g>
</g>
<!-- Node2 -->
<g id="Node000002" class="node">
<title>Node2</title>
<g id="a_Node000002"><a xlink:href="structModels_1_1Uptake.html#aa49ff7f6c6612f124457541d05e080ae" target="_top" xlink:title=" ">
<polygon fill="white" stroke="#666666" points="290,-78.75 147.25,-78.75 147.25,-60.25 290,-60.25 290,-78.75"/>
<text xml:space="preserve" text-anchor="middle" x="218.62" y="-65.25" font-family="Helvetica,sans-Serif" font-size="10.00">Models::Uptake::uptake_step</text>
</a>
</g>
</g>
<!-- Node1&#45;&gt;Node2 -->
<g id="edge1_Node000001_Node000002" class="edge">
<title>Node1&#45;&gt;Node2</title>
<g id="a_edge1_Node000001_Node000002"><a xlink:title=" ">
<path fill="none" stroke="#63b8ff" d="M111.58,-69.5C119.32,-69.5 127.41,-69.5 135.52,-69.5"/>
<polygon fill="#63b8ff" stroke="#63b8ff" points="135.46,-73 145.46,-69.5 135.46,-66 135.46,-73"/>
</a>
</g>
</g>
<!-- Node3 -->
<g id="Node000003" class="node">
<title>Node3</title>
<g id="a_Node000003"><a xlink:href="structModels_1_1Uptake.html#a4678e2ba17d3206a046a14ed2460a6b2" target="_top" xlink:title=" ">
<polygon fill="white" stroke="#666666" points="744.5,-65.75 638.5,-65.75 638.5,-47.25 744.5,-47.25 744.5,-65.75"/>
<text xml:space="preserve" text-anchor="middle" x="691.5" y="-52.25" font-family="Helvetica,sans-Serif" font-size="10.00">Models::Uptake::f_G</text>
</a>
</g>
</g>
<!-- Node2&#45;&gt;Node3 -->
<g id="edge2_Node000002_Node000003" class="edge">
<title>Node2&#45;&gt;Node3</title>
<g id="a_edge2_Node000002_Node000003"><a xlink:title=" ">
<path fill="none" stroke="#63b8ff" d="M290.31,-72.59C367.23,-75.24 493.78,-77.49 602.5,-69.5 610.35,-68.92 618.57,-68.06 626.69,-67.05"/>
<polygon fill="#63b8ff" stroke="#63b8ff" points="627.11,-70.52 636.56,-65.73 626.18,-63.59 627.11,-70.52"/>
</a>
</g>
</g>
<!-- Node5 -->
<g id="Node000005" class="node">
<title>Node5</title>
<g id="a_Node000005"><a xlink:href="structModels_1_1Uptake.html#a4f234fec9f9f9ab26e607310ab95291f" target="_top" xlink:title=" ">
<polygon fill="white" stroke="#666666" points="444.75,-60.75 326,-60.75 326,-42.25 444.75,-42.25 444.75,-60.75"/>
<text xml:space="preserve" text-anchor="middle" x="385.38" y="-47.25" font-family="Helvetica,sans-Serif" font-size="10.00">Models::Uptake::uptake</text>
</a>
</g>
</g>
<!-- Node2&#45;&gt;Node5 -->
<g id="edge4_Node000002_Node000005" class="edge">
<title>Node2&#45;&gt;Node5</title>
<g id="a_edge4_Node000002_Node000005"><a xlink:title=" ">
<path fill="none" stroke="#63b8ff" d="M290.45,-61.76C298.36,-60.9 306.42,-60.02 314.32,-59.15"/>
<polygon fill="#63b8ff" stroke="#63b8ff" points="314.68,-62.64 324.24,-58.07 313.92,-55.68 314.68,-62.64"/>
</a>
</g>
</g>
<!-- Node4 -->
<g id="Node000004" class="node">
<title>Node4</title>
<g id="a_Node000004"><a xlink:href="namespaceModels.html#a98711ac2ebacdd7d1adea1524f8fc43b" target="_top" xlink:title=" ">
<polygon fill="white" stroke="#666666" points="885,-44.75 780.5,-44.75 780.5,-26.25 885,-26.25 885,-44.75"/>
<text xml:space="preserve" text-anchor="middle" x="832.75" y="-31.25" font-family="Helvetica,sans-Serif" font-size="10.00">Models::f_saturation</text>
</a>
</g>
</g>
<!-- Node3&#45;&gt;Node4 -->
<g id="edge3_Node000003_Node000004" class="edge">
<title>Node3&#45;&gt;Node4</title>
<g id="a_edge3_Node000003_Node000004"><a xlink:title=" ">
<path fill="none" stroke="#63b8ff" d="M744.75,-48.62C752.62,-47.43 760.8,-46.2 768.86,-44.98"/>
<polygon fill="#63b8ff" stroke="#63b8ff" points="769.27,-48.46 778.64,-43.51 768.23,-41.54 769.27,-48.46"/>
</a>
</g>
</g>
<!-- Node6 -->
<g id="Node000006" class="node">
<title>Node6</title>
<g id="a_Node000006"><a xlink:href="structModels_1_1Uptake.html#a86c86b134ce5505227968ede9c60c8db" target="_top" xlink:title=" ">
<polygon fill="white" stroke="#666666" points="743,-29 640,-29 640,0 743,0 743,-29"/>
<text xml:space="preserve" text-anchor="start" x="648" y="-15.5" font-family="Helvetica,sans-Serif" font-size="10.00">Models::Uptake::phi</text>
<text xml:space="preserve" text-anchor="middle" x="691.5" y="-5" font-family="Helvetica,sans-Serif" font-size="10.00">_permease</text>
</a>
</g>
</g>
<!-- Node5&#45;&gt;Node6 -->
<g id="edge5_Node000005_Node000006" class="edge">
<title>Node5&#45;&gt;Node6</title>
<g id="a_edge5_Node000005_Node000006"><a xlink:title=" ">
<path fill="none" stroke="#63b8ff" d="M432.31,-41.8C447.66,-38.81 464.89,-35.72 480.75,-33.5 530.23,-26.56 586.65,-21.61 628.51,-18.51"/>
<polygon fill="#63b8ff" stroke="#63b8ff" points="628.68,-22.01 638.4,-17.79 628.17,-15.03 628.68,-22.01"/>
</a>
</g>
</g>
<!-- Node7 -->
<g id="Node000007" class="node">
<title>Node7</title>
<g id="a_Node000007"><a xlink:href="structModels_1_1Uptake.html#a3a55e9132d39efd1185cf726946b4fb0" target="_top" xlink:title=" ">
<polygon fill="white" stroke="#666666" points="602.5,-60.75 480.75,-60.75 480.75,-42.25 602.5,-42.25 602.5,-60.75"/>
<text xml:space="preserve" text-anchor="middle" x="541.62" y="-47.25" font-family="Helvetica,sans-Serif" font-size="10.00">Models::Uptake::phi_pts</text>
</a>
</g>
</g>
<!-- Node5&#45;&gt;Node7 -->
<g id="edge7_Node000005_Node000007" class="edge">
<title>Node5&#45;&gt;Node7</title>
<g id="a_edge7_Node000005_Node000007"><a xlink:title=" ">
<path fill="none" stroke="#63b8ff" d="M445.13,-51.5C453,-51.5 461.14,-51.5 469.2,-51.5"/>
<polygon fill="#63b8ff" stroke="#63b8ff" points="468.98,-55 478.98,-51.5 468.98,-48 468.98,-55"/>
</a>
</g>
</g>
<!-- Node6&#45;&gt;Node4 -->
<g id="edge6_Node000006_Node000004" class="edge">
<title>Node6&#45;&gt;Node4</title>
<g id="a_edge6_Node000006_Node000004"><a xlink:title=" ">
<path fill="none" stroke="#63b8ff" d="M743.17,-22.14C751.6,-23.41 760.44,-24.75 769.13,-26.06"/>
<polygon fill="#63b8ff" stroke="#63b8ff" points="768.51,-29.5 778.92,-27.53 769.56,-22.58 768.51,-29.5"/>
</a>
</g>
</g>
<!-- Node7&#45;&gt;Node3 -->
<g id="edge8_Node000007_Node000003" class="edge">
<title>Node7&#45;&gt;Node3</title>
<g id="a_edge8_Node000007_Node000003"><a xlink:title=" ">
<path fill="none" stroke="#63b8ff" d="M602.77,-53.53C610.62,-53.8 618.67,-54.07 626.58,-54.34"/>
<polygon fill="#63b8ff" stroke="#63b8ff" points="626.38,-57.83 636.49,-54.67 626.61,-50.84 626.38,-57.83"/>
</a>
</g>
</g>
</g>
</svg>
