<?xml version="1.0" encoding="UTF-8" standalone="no"?>
<!DOCTYPE svg PUBLIC "-//W3C//DTD SVG 1.1//EN"
 "http://www.w3.org/Graphics/SVG/1.1/DTD/svg11.dtd">
<!-- Generated by graphviz version 14.0.1 (0)
 -->
<!-- Title: Simulation::KernelInline::MoveFunctor::operator() Pages: 1 -->
<svg width="595pt" height="37pt"
 viewBox="0.00 0.00 595.00 37.00" xmlns="http://www.w3.org/2000/svg" xmlns:xlink="http://www.w3.org/1999/xlink">
<g id="graph0" class="graph" transform="scale(1 1) rotate(0) translate(4 33)">
<title>Simulation::KernelInline::MoveFunctor::operator()</title>
<!-- Node1 -->
<g id="Node000001" class="node">
<title>Node1</title>
<g id="a_Node000001"><a xlink:title=" ">
<polygon fill="#999999" stroke="#666666" points="125.5,-29 0,-29 0,0 125.5,0 125.5,-29"/>
<text xml:space="preserve" text-anchor="start" x="8" y="-15.5" font-family="Helvetica,sans-Serif" font-size="10.00">Simulation::KernelInline</text>
<text xml:space="preserve" text-anchor="middle" x="62.75" y="-5" font-family="Helvetica,sans-Serif" font-size="10.00">::MoveFunctor::operator()</text>
</a>
</g>
</g>
<!-- Node2 -->
<g id="Node000002" class="node">
<title>Node2</title>
<g id="a_Node000002"><a xlink:href="structSimulation_1_1KernelInline_1_1MoveFunctor.html#abfafc032139a43b466331db3cea91e83" target="_top" xlink:title=" ">
<polygon fill="white" stroke="#666666" points="295.25,-29 161.5,-29 161.5,0 295.25,0 295.25,-29"/>
<text xml:space="preserve" text-anchor="start" x="169.5" y="-15.5" font-family="Helvetica,sans-Serif" font-size="10.00">Simulation::KernelInline</text>
<text xml:space="preserve" text-anchor="middle" x="228.38" y="-5" font-family="Helvetica,sans-Serif" font-size="10.00">::MoveFunctor::handle_exit</text>
</a>
</g>
</g>
<!-- Node1&#45;&gt;Node2 -->
<g id="edge1_Node000001_Node000002" class="edge">
<title>Node1&#45;&gt;Node2</title>
<g id="a_edge1_Node000001_Node000002"><a xlink:title=" ">
<path fill="none" stroke="#63b8ff" d="M125.61,-14.5C133.48,-14.5 141.62,-14.5 149.7,-14.5"/>
<polygon fill="#63b8ff" stroke="#63b8ff" points="149.54,-18 159.54,-14.5 149.54,-11 149.54,-18"/>
</a>
</g>
</g>
<!-- Node3 -->
<g id="Node000003" class="node">
<title>Node3</title>
<g id="a_Node000003"><a xlink:href="namespaceSimulation_1_1KernelInline.html#a648521674ead158dd3776a946da6722a" target="_top" xlink:title=" ">
<polygon fill="white" stroke="#666666" points="449.25,-29 331.25,-29 331.25,0 449.25,0 449.25,-29"/>
<text xml:space="preserve" text-anchor="start" x="339.25" y="-15.5" font-family="Helvetica,sans-Serif" font-size="10.00">Simulation::KernelInline</text>
<text xml:space="preserve" text-anchor="middle" x="390.25" y="-5" font-family="Helvetica,sans-Serif" font-size="10.00">::probability_leaving</text>
</a>
</g>
</g>
<!-- Node2&#45;&gt;Node3 -->
<g id="edge2_Node000002_Node000003" class="edge">
<title>Node2&#45;&gt;Node3</title>
<g id="a_edge2_Node000002_Node000003"><a xlink:title=" ">
<path fill="none" stroke="#63b8ff" d="M295.33,-14.5C303.33,-14.5 311.54,-14.5 319.6,-14.5"/>
<polygon fill="#63b8ff" stroke="#63b8ff" points="319.35,-18 329.35,-14.5 319.35,-11 319.35,-18"/>
</a>
</g>
</g>
<!-- Node4 -->
<g id="Node000004" class="node">
<title>Node4</title>
<g id="a_Node000004"><a xlink:href="namespaceCommonMaths.html#ad4e27e17383f20d970bcd89fd00e36f0" target="_top" xlink:title=" ">
<polygon fill="white" stroke="#666666" points="586.75,-23.75 485.25,-23.75 485.25,-5.25 586.75,-5.25 586.75,-23.75"/>
<text xml:space="preserve" text-anchor="middle" x="536" y="-10.25" font-family="Helvetica,sans-Serif" font-size="10.00">CommonMaths::_ln</text>
</a>
</g>
</g>
<!-- Node3&#45;&gt;Node4 -->
<g id="edge3_Node000003_Node000004" class="edge">
<title>Node3&#45;&gt;Node4</title>
<g id="a_edge3_Node000003_Node000004"><a xlink:title=" ">
<path fill="none" stroke="#63b8ff" d="M449.72,-14.5C457.55,-14.5 465.61,-14.5 473.49,-14.5"/>
<polygon fill="#63b8ff" stroke="#63b8ff" points="473.36,-18 483.36,-14.5 473.36,-11 473.36,-18"/>
</a>
</g>
</g>
</g>
</svg>
