<?xml version="1.0" encoding="UTF-8" standalone="no"?>
<!DOCTYPE svg PUBLIC "-//W3C//DTD SVG 1.1//EN"
 "http://www.w3.org/Graphics/SVG/1.1/DTD/svg11.dtd">
<!-- Generated by graphviz version 14.0.1 (0)
 -->
<!-- Title: Simulation::Feed::FeedFactory::constant Pages: 1 -->
<svg width="493pt" height="94pt"
 viewBox="0.00 0.00 493.00 94.00" xmlns="http://www.w3.org/2000/svg" xmlns:xlink="http://www.w3.org/1999/xlink">
<g id="graph0" class="graph" transform="scale(1 1) rotate(0) translate(4 90.25)">
<title>Simulation::Feed::FeedFactory::constant</title>
<!-- Node1 -->
<g id="Node000001" class="node">
<title>Node1</title>
<g id="a_Node000001"><a xlink:title=" ">
<polygon fill="#999999" stroke="#666666" points="484.5,-60.25 333.5,-60.25 333.5,-31.25 484.5,-31.25 484.5,-60.25"/>
<text xml:space="preserve" text-anchor="start" x="341.5" y="-46.75" font-family="Helvetica,sans-Serif" font-size="10.00">Simulation::Feed::FeedFactory</text>
<text xml:space="preserve" text-anchor="middle" x="409" y="-36.25" font-family="Helvetica,sans-Serif" font-size="10.00">::constant</text>
</a>
</g>
</g>
<!-- Node2 -->
<g id="Node000002" class="node">
<title>Node2</title>
<g id="a_Node000002"><a xlink:href="structApi_1_1SimulationInstance.html#a5a689a100cbbf66d7a6d9171a8718cff" target="_top" xlink:title=" ">
<polygon fill="white" stroke="#666666" points="286.25,-86.25 166.75,-86.25 166.75,-57.25 286.25,-57.25 286.25,-86.25"/>
<text xml:space="preserve" text-anchor="start" x="174.75" y="-72.75" font-family="Helvetica,sans-Serif" font-size="10.00">Api::SimulationInstance</text>
<text xml:space="preserve" text-anchor="middle" x="226.5" y="-62.25" font-family="Helvetica,sans-Serif" font-size="10.00">::set_feed_constant</text>
</a>
</g>
</g>
<!-- Node1&#45;&gt;Node2 -->
<g id="edge1_Node000001_Node000002" class="edge">
<title>Node1&#45;&gt;Node2</title>
<g id="a_edge1_Node000001_Node000002"><a xlink:title=" ">
<path fill="none" stroke="#63b8ff" d="M321.68,-58.18C309.79,-59.9 297.81,-61.62 286.57,-63.24"/>
<polygon fill="#63b8ff" stroke="#63b8ff" points="322.12,-61.66 331.52,-56.77 321.12,-54.73 322.12,-61.66"/>
</a>
</g>
</g>
<!-- Node4 -->
<g id="Node000004" class="node">
<title>Node4</title>
<g id="a_Node000004"><a xlink:href="structApi_1_1SimulationInstance.html#aec331d2ab718c45a574566727e463996" target="_top" xlink:title=" ">
<polygon fill="white" stroke="#666666" points="297.5,-39.5 155.5,-39.5 155.5,0 297.5,0 297.5,-39.5"/>
<text xml:space="preserve" text-anchor="start" x="163.5" y="-26" font-family="Helvetica,sans-Serif" font-size="10.00">Api::SimulationInstance</text>
<text xml:space="preserve" text-anchor="start" x="163.5" y="-15.5" font-family="Helvetica,sans-Serif" font-size="10.00">::set_feed_constant_different</text>
<text xml:space="preserve" text-anchor="middle" x="226.5" y="-5" font-family="Helvetica,sans-Serif" font-size="10.00">_output</text>
</a>
</g>
</g>
<!-- Node1&#45;&gt;Node4 -->
<g id="edge3_Node000001_Node000004" class="edge">
<title>Node1&#45;&gt;Node4</title>
<g id="a_edge3_Node000001_Node000004"><a xlink:title=" ">
<path fill="none" stroke="#63b8ff" d="M321.77,-33.33C313.77,-32.18 305.74,-31.02 297.91,-29.89"/>
<polygon fill="#63b8ff" stroke="#63b8ff" points="321.12,-36.77 331.52,-34.73 322.12,-29.84 321.12,-36.77"/>
</a>
</g>
</g>
<!-- Node3 -->
<g id="Node000003" class="node">
<title>Node3</title>
<g id="a_Node000003"><a xlink:href="structApi_1_1SimulationInstance.html#afee07db8a6b57fe7982900ecaa943cc0" target="_top" xlink:title="Default constructor.">
<polygon fill="white" stroke="#666666" points="119.5,-60.25 0,-60.25 0,-31.25 119.5,-31.25 119.5,-60.25"/>
<text xml:space="preserve" text-anchor="start" x="8" y="-46.75" font-family="Helvetica,sans-Serif" font-size="10.00">Api::SimulationInstance</text>
<text xml:space="preserve" text-anchor="middle" x="59.75" y="-36.25" font-family="Helvetica,sans-Serif" font-size="10.00">::SimulationInstance</text>
</a>
</g>
</g>
<!-- Node2&#45;&gt;Node3 -->
<g id="edge2_Node000002_Node000003" class="edge">
<title>Node2&#45;&gt;Node3</title>
<g id="a_edge2_Node000002_Node000003"><a xlink:title=" ">
<path fill="none" stroke="#63b8ff" d="M155.32,-60.67C143.52,-58.81 131.39,-56.9 119.9,-55.09"/>
<polygon fill="#63b8ff" stroke="#63b8ff" points="154.57,-64.1 164.99,-62.2 155.66,-57.18 154.57,-64.1"/>
</a>
</g>
</g>
<!-- Node4&#45;&gt;Node3 -->
<g id="edge4_Node000004_Node000003" class="edge">
<title>Node4&#45;&gt;Node3</title>
<g id="a_edge4_Node000004_Node000003"><a xlink:title=" ">
<path fill="none" stroke="#63b8ff" d="M143.82,-32.64C135.78,-33.91 127.73,-35.18 119.98,-36.4"/>
<polygon fill="#63b8ff" stroke="#63b8ff" points="144.33,-36.1 153.66,-31.09 143.23,-29.19 144.33,-36.1"/>
</a>
</g>
</g>
</g>
</svg>
