<?xml version="1.0" encoding="UTF-8" standalone="no"?>
<!DOCTYPE svg PUBLIC "-//W3C//DTD SVG 1.1//EN"
 "http://www.w3.org/Graphics/SVG/1.1/DTD/svg11.dtd">
<!-- Generated by graphviz version 14.0.1 (0)
 -->
<!-- Title: MC::MonteCarloUnit::~MonteCarloUnit Pages: 1 -->
<svg width="396pt" height="141pt"
 viewBox="0.00 0.00 396.00 141.00" xmlns="http://www.w3.org/2000/svg" xmlns:xlink="http://www.w3.org/1999/xlink">

<svg id="main" version="1.1" xmlns="http://www.w3.org/2000/svg" xmlns:xlink="http://www.w3.org/1999/xlink" xml:space="preserve">

<style type="text/css"><![CDATA[
.node, .edge {opacity: 0.7;}
.node.selected, .edge.selected {opacity: 1;}
.edge:hover path { stroke: red; }
.edge:hover polygon { stroke: red; fill: red; }
]]></style>
<script type="application/ecmascript" xlink:href="svg.min.js"/>
<svg id="graph" class="graph">
<g id="graph0" class="graph" transform="scale(1 1) rotate(0) translate(4 137)">
<title>MC::MonteCarloUnit::~MonteCarloUnit</title>
<!-- Node1 -->
<g id="Node000001" class="node">
<title>Node1</title>
<g id="a_Node000001"><a xlink:title=" ">
<polygon fill="#999999" stroke="#666666" points="105.25,-90 0,-90 0,-61 105.25,-61 105.25,-90"/>
<text xml:space="preserve" text-anchor="start" x="8" y="-76.5" font-family="Helvetica,sans-Serif" font-size="10.00">MC::MonteCarloUnit</text>
<text xml:space="preserve" text-anchor="middle" x="52.62" y="-66" font-family="Helvetica,sans-Serif" font-size="10.00">::~MonteCarloUnit</text>
</a>
</g>
</g>
<!-- Node2 -->
<g id="Node000002" class="node">
<title>Node2</title>
<g id="a_Node000002"><a xlink:href="structMC_1_1MonteCarloUnit.html#a2e431bdcb96f1fa71525aca30d0457ba" target="_top" xlink:title=" ">
<polygon fill="white" stroke="#666666" points="246.5,-133 141.25,-133 141.25,-104 246.5,-104 246.5,-133"/>
<text xml:space="preserve" text-anchor="start" x="149.25" y="-119.5" font-family="Helvetica,sans-Serif" font-size="10.00">MC::MonteCarloUnit</text>
<text xml:space="preserve" text-anchor="middle" x="193.88" y="-109" font-family="Helvetica,sans-Serif" font-size="10.00">::getRepartition</text>
</a>
</g>
</g>
<!-- Node1&#45;&gt;Node2 -->
<g id="edge1_Node000001_Node000002" class="edge">
<title>Node1&#45;&gt;Node2</title>
<g id="a_edge1_Node000001_Node000002"><a xlink:title=" ">
<path fill="none" stroke="#63b8ff" d="M101.94,-90.42C112.2,-93.59 123.14,-96.97 133.75,-100.24"/>
<polygon fill="#63b8ff" stroke="#63b8ff" points="132.61,-103.55 143.2,-103.16 134.68,-96.87 132.61,-103.55"/>
</a>
</g>
</g>
<!-- Node3 -->
<g id="Node000003" class="node">
<title>Node3</title>
<g id="a_Node000003"><a xlink:href="structMC_1_1MonteCarloUnit.html#a9a63012c0c3a5d812abdfd77555a7f46" target="_top" xlink:title=" ">
<polygon fill="white" stroke="#666666" points="387.75,-111 282.5,-111 282.5,-82 387.75,-82 387.75,-111"/>
<text xml:space="preserve" text-anchor="start" x="290.5" y="-97.5" font-family="Helvetica,sans-Serif" font-size="10.00">MC::MonteCarloUnit</text>
<text xml:space="preserve" text-anchor="middle" x="335.12" y="-87" font-family="Helvetica,sans-Serif" font-size="10.00">::n_particle</text>
</a>
</g>
</g>
<!-- Node1&#45;&gt;Node3 -->
<g id="edge5_Node000001_Node000003" class="edge">
<title>Node1&#45;&gt;Node3</title>
<g id="a_edge5_Node000001_Node000003"><a xlink:title=" ">
<path fill="none" stroke="#63b8ff" d="M105.73,-79.4C152.47,-82.9 221.18,-88.04 271.02,-91.78"/>
<polygon fill="#63b8ff" stroke="#63b8ff" points="270.56,-95.25 280.79,-92.51 271.08,-88.27 270.56,-95.25"/>
</a>
</g>
</g>
<!-- Node4 -->
<g id="Node000004" class="node">
<title>Node4</title>
<g id="a_Node000004"><a xlink:href="structMC_1_1MonteCarloUnit.html#a0e4f63686697a931b06447ce22b435c6" target="_top" xlink:title="Prevent copying of the MonteCarloUnit.">
<polygon fill="white" stroke="#666666" points="246.5,-29 141.25,-29 141.25,0 246.5,0 246.5,-29"/>
<text xml:space="preserve" text-anchor="start" x="149.25" y="-15.5" font-family="Helvetica,sans-Serif" font-size="10.00">MC::MonteCarloUnit</text>
<text xml:space="preserve" text-anchor="middle" x="193.88" y="-5" font-family="Helvetica,sans-Serif" font-size="10.00">::MonteCarloUnit</text>
</a>
</g>
</g>
<!-- Node1&#45;&gt;Node4 -->
<g id="edge3_Node000001_Node000004" class="edge">
<title>Node1&#45;&gt;Node4</title>
<g id="a_edge3_Node000001_Node000004"><a xlink:title=" ">
<path fill="none" stroke="#63b8ff" d="M87.69,-60.58C105.9,-52.6 128.54,-42.68 148.15,-34.09"/>
<polygon fill="#63b8ff" stroke="#63b8ff" points="149.54,-37.31 157.29,-30.09 146.73,-30.89 149.54,-37.31"/>
</a>
</g>
</g>
<!-- Node2&#45;&gt;Node3 -->
<g id="edge2_Node000002_Node000003" class="edge">
<title>Node2&#45;&gt;Node3</title>
<g id="a_edge2_Node000002_Node000003"><a xlink:title=" ">
<path fill="none" stroke="#63b8ff" d="M246.73,-110.31C254.61,-109.06 262.82,-107.77 270.91,-106.49"/>
<polygon fill="#63b8ff" stroke="#63b8ff" points="271.4,-109.95 280.74,-104.94 270.31,-103.04 271.4,-109.95"/>
</a>
</g>
</g>
<!-- Node4&#45;&gt;Node4 -->
<g id="edge4_Node000004_Node000004" class="edge">
<title>Node4&#45;&gt;Node4</title>
<g id="a_edge4_Node000004_Node000004"><a xlink:title=" ">
<path fill="none" stroke="#63b8ff" d="M169.26,-29.21C163.32,-38.32 171.53,-47 193.88,-47 206.1,-47 214.09,-44.41 217.85,-40.56"/>
<polygon fill="#63b8ff" stroke="#63b8ff" points="221.34,-40.9 218.41,-30.72 214.35,-40.5 221.34,-40.9"/>
</a>
</g>
</g>
</g>
</svg>
</svg>

<style type='text/css'>
<![CDATA[
[data-mouse-over-selected='false'] { opacity: 0.7; }
[data-mouse-over-selected='true']  { opacity: 1.0; }
]]>
</style>
<script type="application/ecmascript"><![CDATA[
document.addEventListener('DOMContentLoaded', (event) => {
  highlightEdges();
  highlightAdjacentNodes();
});
]]></script>
</svg>
