<?xml version="1.0" encoding="UTF-8" standalone="no"?>
<!DOCTYPE svg PUBLIC "-//W3C//DTD SVG 1.1//EN"
 "http://www.w3.org/Graphics/SVG/1.1/DTD/svg11.dtd">
<!-- Generated by graphviz version 14.0.1 (0)
 -->
<!-- Title: Api::SimulationInstance::SimulationInstance Pages: 1 -->
<svg width="1053pt" height="894pt"
 viewBox="0.00 0.00 1053.00 894.00" xmlns="http://www.w3.org/2000/svg" xmlns:xlink="http://www.w3.org/1999/xlink">
<g id="graph0" class="graph" transform="scale(1 1) rotate(0) translate(4 890)">
<title>Api::SimulationInstance::SimulationInstance</title>
<!-- Node1 -->
<g id="Node000001" class="node">
<title>Node1</title>
<g id="a_Node000001"><a xlink:title="Default constructor.">
<polygon fill="#999999" stroke="#666666" points="119.5,-407 0,-407 0,-378 119.5,-378 119.5,-407"/>
<text xml:space="preserve" text-anchor="start" x="8" y="-393.5" font-family="Helvetica,sans-Serif" font-size="10.00">Api::SimulationInstance</text>
<text xml:space="preserve" text-anchor="middle" x="59.75" y="-383" font-family="Helvetica,sans-Serif" font-size="10.00">::SimulationInstance</text>
</a>
</g>
</g>
<!-- Node2 -->
<g id="Node000002" class="node">
<title>Node2</title>
<g id="a_Node000002"><a xlink:href="structApi_1_1SimulationInstance.html#ad2abfa76ac4128d44b7c0c895f78b77b" target="_top" xlink:title="Load ad apply the simulation configuration and prepare for execution based on file.">
<polygon fill="white" stroke="#666666" points="286.25,-746 166.75,-746 166.75,-717 286.25,-717 286.25,-746"/>
<text xml:space="preserve" text-anchor="start" x="174.75" y="-732.5" font-family="Helvetica,sans-Serif" font-size="10.00">Api::SimulationInstance</text>
<text xml:space="preserve" text-anchor="middle" x="226.5" y="-722" font-family="Helvetica,sans-Serif" font-size="10.00">::apply_load</text>
</a>
</g>
</g>
<!-- Node1&#45;&gt;Node2 -->
<g id="edge1_Node000001_Node000002" class="edge">
<title>Node1&#45;&gt;Node2</title>
<g id="a_edge1_Node000001_Node000002"><a xlink:title=" ">
<path fill="none" stroke="#63b8ff" d="M60.65,-407.43C61.15,-457.36 69.57,-620.3 155.5,-708.5 156.1,-709.12 156.72,-709.72 157.36,-710.31"/>
<polygon fill="#63b8ff" stroke="#63b8ff" points="155.06,-712.96 165.17,-716.14 159.25,-707.35 155.06,-712.96"/>
</a>
</g>
</g>
<!-- Node17 -->
<g id="Node000017" class="node">
<title>Node17</title>
<g id="a_Node000017"><a xlink:href="structApi_1_1SimulationInstance.html#a3f04372728be84263fb69f5773ca5bd5" target="_top" xlink:title="Execute the simulation.">
<polygon fill="white" stroke="#666666" points="286.25,-793 166.75,-793 166.75,-764 286.25,-764 286.25,-793"/>
<text xml:space="preserve" text-anchor="start" x="174.75" y="-779.5" font-family="Helvetica,sans-Serif" font-size="10.00">Api::SimulationInstance</text>
<text xml:space="preserve" text-anchor="middle" x="226.5" y="-769" font-family="Helvetica,sans-Serif" font-size="10.00">::exec</text>
</a>
</g>
</g>
<!-- Node1&#45;&gt;Node17 -->
<g id="edge17_Node000001_Node000017" class="edge">
<title>Node1&#45;&gt;Node17</title>
<g id="a_edge17_Node000001_Node000017"><a xlink:title=" ">
<path fill="none" stroke="#63b8ff" d="M62.7,-407.22C71.1,-468.52 105.99,-702.82 155.5,-755.5 156.09,-756.13 156.7,-756.74 157.33,-757.34"/>
<polygon fill="#63b8ff" stroke="#63b8ff" points="154.98,-759.95 165.05,-763.25 159.24,-754.39 154.98,-759.95"/>
</a>
</g>
</g>
<!-- Node19 -->
<g id="Node000019" class="node">
<title>Node19</title>
<g id="a_Node000019"><a xlink:href="structApi_1_1SimulationInstance.html#a37448530b88fd5401cbad17e9bd3c0a6" target="_top" xlink:title=" ">
<polygon fill="white" stroke="#666666" points="286.25,-699 166.75,-699 166.75,-670 286.25,-670 286.25,-699"/>
<text xml:space="preserve" text-anchor="start" x="174.75" y="-685.5" font-family="Helvetica,sans-Serif" font-size="10.00">Api::SimulationInstance</text>
<text xml:space="preserve" text-anchor="middle" x="226.5" y="-675" font-family="Helvetica,sans-Serif" font-size="10.00">::get_exec_info</text>
</a>
</g>
</g>
<!-- Node1&#45;&gt;Node19 -->
<g id="edge21_Node000001_Node000019" class="edge">
<title>Node1&#45;&gt;Node19</title>
<g id="a_edge21_Node000001_Node000019"><a xlink:title=" ">
<path fill="none" stroke="#63b8ff" d="M61.56,-407.42C64.81,-452.42 80.67,-588.24 155.5,-661.5 156.12,-662.1 156.75,-662.69 157.4,-663.26"/>
<polygon fill="#63b8ff" stroke="#63b8ff" points="155.17,-665.97 165.33,-668.99 159.27,-660.3 155.17,-665.97"/>
</a>
</g>
</g>
<!-- Node20 -->
<g id="Node000020" class="node">
<title>Node20</title>
<g id="a_Node000020"><a xlink:href="structApi_1_1SimulationInstance.html#ab938dea3b413538bfdaa40daa5d122a2" target="_top" xlink:title="Retrieve the simulation instance&#39;s unique identifier.">
<polygon fill="white" stroke="#666666" points="286.25,-652 166.75,-652 166.75,-623 286.25,-623 286.25,-652"/>
<text xml:space="preserve" text-anchor="start" x="174.75" y="-638.5" font-family="Helvetica,sans-Serif" font-size="10.00">Api::SimulationInstance</text>
<text xml:space="preserve" text-anchor="middle" x="226.5" y="-628" font-family="Helvetica,sans-Serif" font-size="10.00">::get_id</text>
</a>
</g>
</g>
<!-- Node1&#45;&gt;Node20 -->
<g id="edge22_Node000001_Node000020" class="edge">
<title>Node1&#45;&gt;Node20</title>
<g id="a_edge22_Node000001_Node000020"><a xlink:title=" ">
<path fill="none" stroke="#63b8ff" d="M62.81,-407.34C69.08,-446.9 91.58,-555.85 155.5,-614.5 156.14,-615.08 156.79,-615.65 157.45,-616.21"/>
<polygon fill="#63b8ff" stroke="#63b8ff" points="155.31,-618.98 165.53,-621.78 159.29,-613.22 155.31,-618.98"/>
</a>
</g>
</g>
<!-- Node21 -->
<g id="Node000021" class="node">
<title>Node21</title>
<g id="a_Node000021"><a xlink:href="structApi_1_1SimulationInstance.html#ac8b52d1e9fa704e89d252d884aa6cf3d" target="_top" xlink:title="Register a path for CMA data.">
<polygon fill="white" stroke="#666666" points="286.25,-605 166.75,-605 166.75,-576 286.25,-576 286.25,-605"/>
<text xml:space="preserve" text-anchor="start" x="174.75" y="-591.5" font-family="Helvetica,sans-Serif" font-size="10.00">Api::SimulationInstance</text>
<text xml:space="preserve" text-anchor="middle" x="226.5" y="-581" font-family="Helvetica,sans-Serif" font-size="10.00">::register_cma_path</text>
</a>
</g>
</g>
<!-- Node1&#45;&gt;Node21 -->
<g id="edge23_Node000001_Node000021" class="edge">
<title>Node1&#45;&gt;Node21</title>
<g id="a_edge23_Node000001_Node000021"><a xlink:title=" ">
<path fill="none" stroke="#63b8ff" d="M64.61,-407.1C74.19,-440.49 102.21,-522.98 155.5,-567.5 156.43,-568.28 157.39,-569.03 158.38,-569.76"/>
<polygon fill="#63b8ff" stroke="#63b8ff" points="156.17,-572.51 166.5,-574.85 159.88,-566.57 156.17,-572.51"/>
</a>
</g>
</g>
<!-- Node22 -->
<g id="Node000022" class="node">
<title>Node22</title>
<g id="a_Node000022"><a xlink:href="structApi_1_1SimulationInstance.html#a7fe33427bbf42fbff934729f90242271" target="_top" xlink:title=" ">
<polygon fill="white" stroke="#666666" points="289.62,-558 163.38,-558 163.38,-529 289.62,-529 289.62,-558"/>
<text xml:space="preserve" text-anchor="start" x="171.38" y="-544.5" font-family="Helvetica,sans-Serif" font-size="10.00">Api::SimulationInstance</text>
<text xml:space="preserve" text-anchor="middle" x="226.5" y="-534" font-family="Helvetica,sans-Serif" font-size="10.00">::register_initial_condition</text>
</a>
</g>
</g>
<!-- Node1&#45;&gt;Node22 -->
<g id="edge24_Node000001_Node000022" class="edge">
<title>Node1&#45;&gt;Node22</title>
<g id="a_edge24_Node000001_Node000022"><a xlink:title=" ">
<path fill="none" stroke="#63b8ff" d="M67.69,-407.09C81.02,-433.55 112.69,-489.58 155.5,-520.5 156.83,-521.46 158.2,-522.38 159.61,-523.27"/>
<polygon fill="#63b8ff" stroke="#63b8ff" points="157.53,-526.12 167.98,-527.85 160.89,-519.98 157.53,-526.12"/>
</a>
</g>
</g>
<!-- Node23 -->
<g id="Node000023" class="node">
<title>Node23</title>
<g id="a_Node000023"><a xlink:href="structApi_1_1SimulationInstance.html#af7102c1a786cac7c27ad533ce1f29f06" target="_top" xlink:title=" ">
<polygon fill="white" stroke="#666666" points="286.25,-511.25 166.75,-511.25 166.75,-471.75 286.25,-471.75 286.25,-511.25"/>
<text xml:space="preserve" text-anchor="start" x="174.75" y="-497.75" font-family="Helvetica,sans-Serif" font-size="10.00">Api::SimulationInstance</text>
<text xml:space="preserve" text-anchor="start" x="174.75" y="-487.25" font-family="Helvetica,sans-Serif" font-size="10.00">::register_initialiser</text>
<text xml:space="preserve" text-anchor="middle" x="226.5" y="-476.75" font-family="Helvetica,sans-Serif" font-size="10.00">_file_path</text>
</a>
</g>
</g>
<!-- Node1&#45;&gt;Node23 -->
<g id="edge25_Node000001_Node000023" class="edge">
<title>Node1&#45;&gt;Node23</title>
<g id="a_edge25_Node000001_Node000023"><a xlink:title=" ">
<path fill="none" stroke="#63b8ff" d="M77.61,-407.31C95.86,-422.79 126.29,-447.09 155.5,-463.5 157.19,-464.45 158.91,-465.38 160.67,-466.29"/>
<polygon fill="#63b8ff" stroke="#63b8ff" points="159.07,-469.41 169.59,-470.66 162.15,-463.12 159.07,-469.41"/>
</a>
</g>
</g>
<!-- Node24 -->
<g id="Node000024" class="node">
<title>Node24</title>
<g id="a_Node000024"><a xlink:href="structApi_1_1SimulationInstance.html#a06b825ee4dcaf97e49ef5d3644a7301a" target="_top" xlink:title="Register the model name for the simulation.">
<polygon fill="white" stroke="#666666" points="286.25,-454 166.75,-454 166.75,-425 286.25,-425 286.25,-454"/>
<text xml:space="preserve" text-anchor="start" x="174.75" y="-440.5" font-family="Helvetica,sans-Serif" font-size="10.00">Api::SimulationInstance</text>
<text xml:space="preserve" text-anchor="middle" x="226.5" y="-430" font-family="Helvetica,sans-Serif" font-size="10.00">::register_model_name</text>
</a>
</g>
</g>
<!-- Node1&#45;&gt;Node24 -->
<g id="edge26_Node000001_Node000024" class="edge">
<title>Node1&#45;&gt;Node24</title>
<g id="a_edge26_Node000001_Node000024"><a xlink:title=" ">
<path fill="none" stroke="#63b8ff" d="M112.88,-407.37C128.5,-411.83 145.81,-416.77 162.08,-421.41"/>
<polygon fill="#63b8ff" stroke="#63b8ff" points="161.11,-424.77 171.69,-424.15 163.03,-418.04 161.11,-424.77"/>
</a>
</g>
</g>
<!-- Node25 -->
<g id="Node000025" class="node">
<title>Node25</title>
<g id="a_Node000025"><a xlink:href="structApi_1_1SimulationInstance.html#ad54f1c021ad6af49979c42edf10b207b" target="_top" xlink:title="Register user control parameters for the simulation.">
<polygon fill="white" stroke="#666666" points="286.25,-407 166.75,-407 166.75,-378 286.25,-378 286.25,-407"/>
<text xml:space="preserve" text-anchor="start" x="174.75" y="-393.5" font-family="Helvetica,sans-Serif" font-size="10.00">Api::SimulationInstance</text>
<text xml:space="preserve" text-anchor="middle" x="226.5" y="-383" font-family="Helvetica,sans-Serif" font-size="10.00">::register_parameters</text>
</a>
</g>
</g>
<!-- Node1&#45;&gt;Node25 -->
<g id="edge27_Node000001_Node000025" class="edge">
<title>Node1&#45;&gt;Node25</title>
<g id="a_edge27_Node000001_Node000025"><a xlink:title=" ">
<path fill="none" stroke="#63b8ff" d="M119.76,-392.5C131.24,-392.5 143.37,-392.5 155.17,-392.5"/>
<polygon fill="#63b8ff" stroke="#63b8ff" points="154.83,-396 164.83,-392.5 154.83,-389 154.83,-396"/>
</a>
</g>
</g>
<!-- Node26 -->
<g id="Node000026" class="node">
<title>Node26</title>
<g id="a_Node000026"><a xlink:href="structApi_1_1SimulationInstance.html#a19af55accb633781f80c6100a3508284" target="_top" xlink:title="Register a result output path.">
<polygon fill="white" stroke="#666666" points="286.25,-360 166.75,-360 166.75,-331 286.25,-331 286.25,-360"/>
<text xml:space="preserve" text-anchor="start" x="174.75" y="-346.5" font-family="Helvetica,sans-Serif" font-size="10.00">Api::SimulationInstance</text>
<text xml:space="preserve" text-anchor="middle" x="226.5" y="-336" font-family="Helvetica,sans-Serif" font-size="10.00">::register_result_path</text>
</a>
</g>
</g>
<!-- Node1&#45;&gt;Node26 -->
<g id="edge28_Node000001_Node000026" class="edge">
<title>Node1&#45;&gt;Node26</title>
<g id="a_edge28_Node000001_Node000026"><a xlink:title=" ">
<path fill="none" stroke="#63b8ff" d="M112.88,-377.63C128.5,-373.17 145.81,-368.23 162.08,-363.59"/>
<polygon fill="#63b8ff" stroke="#63b8ff" points="163.03,-366.96 171.69,-360.85 161.11,-360.23 163.03,-366.96"/>
</a>
</g>
</g>
<!-- Node27 -->
<g id="Node000027" class="node">
<title>Node27</title>
<g id="a_Node000027"><a xlink:href="structApi_1_1SimulationInstance.html#afb6d2f04368f71955e4773dd5452f2e2" target="_top" xlink:title="Configure feed constants for the simulation.">
<polygon fill="white" stroke="#666666" points="288.88,-313 164.12,-313 164.12,-284 288.88,-284 288.88,-313"/>
<text xml:space="preserve" text-anchor="start" x="172.12" y="-299.5" font-family="Helvetica,sans-Serif" font-size="10.00">Api::SimulationInstance</text>
<text xml:space="preserve" text-anchor="middle" x="226.5" y="-289" font-family="Helvetica,sans-Serif" font-size="10.00">::register_scalar_initiazer</text>
</a>
</g>
</g>
<!-- Node1&#45;&gt;Node27 -->
<g id="edge29_Node000001_Node000027" class="edge">
<title>Node1&#45;&gt;Node27</title>
<g id="a_edge29_Node000001_Node000027"><a xlink:title=" ">
<path fill="none" stroke="#63b8ff" d="M77.49,-377.63C95.64,-362.13 125.98,-337.99 155.5,-322.5 158.69,-320.83 162.01,-319.24 165.41,-317.72"/>
<polygon fill="#63b8ff" stroke="#63b8ff" points="166.45,-321.08 174.35,-314.02 163.77,-314.61 166.45,-321.08"/>
</a>
</g>
</g>
<!-- Node28 -->
<g id="Node000028" class="node">
<title>Node28</title>
<g id="a_Node000028"><a xlink:href="structApi_1_1SimulationInstance.html#a44482022a20986f2f68163a5a3baf49f" target="_top" xlink:title="Register a serialization/deserialization (serde) path.">
<polygon fill="white" stroke="#666666" points="286.25,-266 166.75,-266 166.75,-237 286.25,-237 286.25,-266"/>
<text xml:space="preserve" text-anchor="start" x="174.75" y="-252.5" font-family="Helvetica,sans-Serif" font-size="10.00">Api::SimulationInstance</text>
<text xml:space="preserve" text-anchor="middle" x="226.5" y="-242" font-family="Helvetica,sans-Serif" font-size="10.00">::register_serde</text>
</a>
</g>
</g>
<!-- Node1&#45;&gt;Node28 -->
<g id="edge30_Node000001_Node000028" class="edge">
<title>Node1&#45;&gt;Node28</title>
<g id="a_edge30_Node000001_Node000028"><a xlink:title=" ">
<path fill="none" stroke="#63b8ff" d="M68.96,-377.69C83.35,-353.03 115.44,-303.51 155.5,-275.5 157.43,-274.15 159.45,-272.87 161.53,-271.65"/>
<polygon fill="#63b8ff" stroke="#63b8ff" points="162.98,-274.84 170.26,-267.15 159.77,-268.62 162.98,-274.84"/>
</a>
</g>
</g>
<!-- Node29 -->
<g id="Node000029" class="node">
<title>Node29</title>
<g id="a_Node000029"><a xlink:href="structApi_1_1SimulationInstance.html#a73c191e86d9951411087785b68bf709e" target="_top" xlink:title=" ">
<polygon fill="white" stroke="#666666" points="286.25,-219 166.75,-219 166.75,-190 286.25,-190 286.25,-219"/>
<text xml:space="preserve" text-anchor="start" x="174.75" y="-205.5" font-family="Helvetica,sans-Serif" font-size="10.00">Api::SimulationInstance</text>
<text xml:space="preserve" text-anchor="middle" x="226.5" y="-195" font-family="Helvetica,sans-Serif" font-size="10.00">::set_auto_mtr</text>
</a>
</g>
</g>
<!-- Node1&#45;&gt;Node29 -->
<g id="edge31_Node000001_Node000029" class="edge">
<title>Node1&#45;&gt;Node29</title>
<g id="a_edge31_Node000001_Node000029"><a xlink:title=" ">
<path fill="none" stroke="#63b8ff" d="M65.24,-377.91C75.75,-346.12 104.97,-270.08 155.5,-228.5 156.97,-227.29 158.5,-226.15 160.08,-225.06"/>
<polygon fill="#63b8ff" stroke="#63b8ff" points="161.5,-228.28 168.32,-220.18 157.93,-222.26 161.5,-228.28"/>
</a>
</g>
</g>
<!-- Node30 -->
<g id="Node000030" class="node">
<title>Node30</title>
<g id="a_Node000030"><a xlink:href="structApi_1_1SimulationInstance.html#a4508272c4bba7fdaa1e3695ee606f538" target="_top" xlink:title=" ">
<polygon fill="white" stroke="#666666" points="468.75,-128 349.25,-128 349.25,-99 468.75,-99 468.75,-128"/>
<text xml:space="preserve" text-anchor="start" x="357.25" y="-114.5" font-family="Helvetica,sans-Serif" font-size="10.00">Api::SimulationInstance</text>
<text xml:space="preserve" text-anchor="middle" x="409" y="-104" font-family="Helvetica,sans-Serif" font-size="10.00">::set_feed</text>
</a>
</g>
</g>
<!-- Node1&#45;&gt;Node30 -->
<g id="edge32_Node000001_Node000030" class="edge">
<title>Node1&#45;&gt;Node30</title>
<g id="a_edge32_Node000001_Node000030"><a xlink:title=" ">
<path fill="none" stroke="#63b8ff" d="M62.98,-377.64C69.56,-339.09 92.55,-235.16 155.5,-181.5 157.32,-179.95 265.95,-151.03 340.12,-131.41"/>
<polygon fill="#63b8ff" stroke="#63b8ff" points="341.01,-134.79 349.79,-128.85 339.22,-128.02 341.01,-134.79"/>
</a>
</g>
</g>
<!-- Node31 -->
<g id="Node000031" class="node">
<title>Node31</title>
<g id="a_Node000031"><a xlink:href="structApi_1_1SimulationInstance.html#a5a689a100cbbf66d7a6d9171a8718cff" target="_top" xlink:title=" ">
<polygon fill="white" stroke="#666666" points="286.25,-76 166.75,-76 166.75,-47 286.25,-47 286.25,-76"/>
<text xml:space="preserve" text-anchor="start" x="174.75" y="-62.5" font-family="Helvetica,sans-Serif" font-size="10.00">Api::SimulationInstance</text>
<text xml:space="preserve" text-anchor="middle" x="226.5" y="-52" font-family="Helvetica,sans-Serif" font-size="10.00">::set_feed_constant</text>
</a>
</g>
</g>
<!-- Node1&#45;&gt;Node31 -->
<g id="edge33_Node000001_Node000031" class="edge">
<title>Node1&#45;&gt;Node31</title>
<g id="a_edge33_Node000001_Node000031"><a xlink:title=" ">
<path fill="none" stroke="#63b8ff" d="M60.79,-377.6C61.73,-328.51 71.46,-170.16 155.5,-84.5 156.1,-83.88 156.73,-83.28 157.36,-82.7"/>
<polygon fill="#63b8ff" stroke="#63b8ff" points="159.25,-85.66 165.19,-76.88 155.08,-80.04 159.25,-85.66"/>
</a>
</g>
</g>
<!-- Node33 -->
<g id="Node000033" class="node">
<title>Node33</title>
<g id="a_Node000033"><a xlink:href="structApi_1_1SimulationInstance.html#aec331d2ab718c45a574566727e463996" target="_top" xlink:title=" ">
<polygon fill="white" stroke="#666666" points="297.5,-133.25 155.5,-133.25 155.5,-93.75 297.5,-93.75 297.5,-133.25"/>
<text xml:space="preserve" text-anchor="start" x="163.5" y="-119.75" font-family="Helvetica,sans-Serif" font-size="10.00">Api::SimulationInstance</text>
<text xml:space="preserve" text-anchor="start" x="163.5" y="-109.25" font-family="Helvetica,sans-Serif" font-size="10.00">::set_feed_constant_different</text>
<text xml:space="preserve" text-anchor="middle" x="226.5" y="-98.75" font-family="Helvetica,sans-Serif" font-size="10.00">_output</text>
</a>
</g>
</g>
<!-- Node1&#45;&gt;Node33 -->
<g id="edge36_Node000001_Node000033" class="edge">
<title>Node1&#45;&gt;Node33</title>
<g id="a_edge36_Node000001_Node000033"><a xlink:title=" ">
<path fill="none" stroke="#63b8ff" d="M62.68,-377.55C68.76,-335.98 91.12,-217.47 155.5,-147.5 157.97,-144.82 160.7,-142.32 163.6,-140"/>
<polygon fill="#63b8ff" stroke="#63b8ff" points="165.35,-143.05 171.52,-134.44 161.32,-137.32 165.35,-143.05"/>
</a>
</g>
</g>
<!-- Node34 -->
<g id="Node000034" class="node">
<title>Node34</title>
<g id="a_Node000034"><a xlink:href="structApi_1_1SimulationInstance.html#ad3dcce95a8552f794dfff2a0f382fcee" target="_top" xlink:title=" ">
<polygon fill="white" stroke="#666666" points="286.25,-29 166.75,-29 166.75,0 286.25,0 286.25,-29"/>
<text xml:space="preserve" text-anchor="start" x="174.75" y="-15.5" font-family="Helvetica,sans-Serif" font-size="10.00">Api::SimulationInstance</text>
<text xml:space="preserve" text-anchor="middle" x="226.5" y="-5" font-family="Helvetica,sans-Serif" font-size="10.00">::set_mtr</text>
</a>
</g>
</g>
<!-- Node1&#45;&gt;Node34 -->
<g id="edge39_Node000001_Node000034" class="edge">
<title>Node1&#45;&gt;Node34</title>
<g id="a_edge39_Node000001_Node000034"><a xlink:title=" ">
<path fill="none" stroke="#63b8ff" d="M60.07,-377.67C58.45,-324.08 60.21,-138.34 155.5,-37.5 156.09,-36.87 156.7,-36.26 157.33,-35.67"/>
<polygon fill="#63b8ff" stroke="#63b8ff" points="159.24,-38.61 165.07,-29.77 154.99,-33.05 159.24,-38.61"/>
</a>
</g>
</g>
<!-- Node3 -->
<g id="Node000003" class="node">
<title>Node3</title>
<g id="a_Node000003"><a xlink:href="namespaceCore.html#a877563df5a407318a381e12311022377" target="_top" xlink:title=" ">
<polygon fill="white" stroke="#666666" points="439.5,-740.75 378.5,-740.75 378.5,-722.25 439.5,-722.25 439.5,-740.75"/>
<text xml:space="preserve" text-anchor="middle" x="409" y="-727.25" font-family="Helvetica,sans-Serif" font-size="10.00">Core::load</text>
</a>
</g>
</g>
<!-- Node2&#45;&gt;Node3 -->
<g id="edge2_Node000002_Node000003" class="edge">
<title>Node2&#45;&gt;Node3</title>
<g id="a_edge2_Node000002_Node000003"><a xlink:title=" ">
<path fill="none" stroke="#63b8ff" d="M286.6,-731.5C312.81,-731.5 343.02,-731.5 366.74,-731.5"/>
<polygon fill="#63b8ff" stroke="#63b8ff" points="366.65,-735 376.65,-731.5 366.65,-728 366.65,-735"/>
</a>
</g>
</g>
<!-- Node4 -->
<g id="Node000004" class="node">
<title>Node4</title>
<g id="a_Node000004"><a xlink:href="namespaceCore.html#ab6528e76111960864b7e4741327b3049" target="_top" xlink:title="Start simulation.">
<polygon fill="white" stroke="#666666" points="583.75,-786.75 520.5,-786.75 520.5,-768.25 583.75,-768.25 583.75,-786.75"/>
<text xml:space="preserve" text-anchor="middle" x="552.12" y="-773.25" font-family="Helvetica,sans-Serif" font-size="10.00">Core::exec</text>
</a>
</g>
</g>
<!-- Node3&#45;&gt;Node4 -->
<g id="edge3_Node000003_Node000004" class="edge">
<title>Node3&#45;&gt;Node4</title>
<g id="a_edge3_Node000003_Node000004"><a xlink:title=" ">
<path fill="none" stroke="#63b8ff" d="M439.99,-738.17C453.69,-741.46 470.04,-745.75 484.5,-750.5 495.97,-754.27 508.29,-759.04 519.17,-763.53"/>
<polygon fill="#63b8ff" stroke="#63b8ff" points="517.53,-766.63 528.1,-767.28 520.24,-760.18 517.53,-766.63"/>
</a>
</g>
</g>
<!-- Node5 -->
<g id="Node000005" class="node">
<title>Node5</title>
<g id="a_Node000005"><a xlink:href="namespaceCore.html#a23e6f3d22fc51ef9decabb2c220b27c4" target="_top" xlink:title=" ">
<polygon fill="white" stroke="#666666" points="740.75,-828.75 619.75,-828.75 619.75,-810.25 740.75,-810.25 740.75,-828.75"/>
<text xml:space="preserve" text-anchor="middle" x="680.25" y="-815.25" font-family="Helvetica,sans-Serif" font-size="10.00">Core::exporter_filename</text>
</a>
</g>
</g>
<!-- Node4&#45;&gt;Node5 -->
<g id="edge4_Node000004_Node000005" class="edge">
<title>Node4&#45;&gt;Node5</title>
<g id="a_edge4_Node000004_Node000005"><a xlink:title=" ">
<path fill="none" stroke="#63b8ff" d="M584.19,-780.61C595.36,-784.13 608.08,-788.64 619.75,-792.5 632.51,-796.72 646.93,-801.1 658.38,-805.51"/>
<polygon fill="#63b8ff" stroke="#63b8ff" points="656.7,-808.6 667.27,-809.33 659.47,-802.17 656.7,-808.6"/>
</a>
</g>
</g>
<!-- Node6 -->
<g id="Node000006" class="node">
<title>Node6</title>
<g id="a_Node000006"><a xlink:href="namespaceCore.html#afbce0beea293a7ccfdfc34a85b5e5e77" target="_top" xlink:title=" ">
<polygon fill="white" stroke="#666666" points="724.25,-792 636.25,-792 636.25,-763 724.25,-763 724.25,-792"/>
<text xml:space="preserve" text-anchor="start" x="644.25" y="-778.5" font-family="Helvetica,sans-Serif" font-size="10.00">Core::init_partial</text>
<text xml:space="preserve" text-anchor="middle" x="680.25" y="-768" font-family="Helvetica,sans-Serif" font-size="10.00">_exporter</text>
</a>
</g>
</g>
<!-- Node4&#45;&gt;Node6 -->
<g id="edge6_Node000004_Node000006" class="edge">
<title>Node4&#45;&gt;Node6</title>
<g id="a_edge6_Node000004_Node000006"><a xlink:title=" ">
<path fill="none" stroke="#63b8ff" d="M583.98,-777.5C596.17,-777.5 610.56,-777.5 624.41,-777.5"/>
<polygon fill="#63b8ff" stroke="#63b8ff" points="624.34,-781 634.34,-777.5 624.34,-774 624.34,-781"/>
</a>
</g>
</g>
<!-- Node12 -->
<g id="Node000012" class="node">
<title>Node12</title>
<g id="a_Node000012"><a xlink:href="namespacePostProcessing.html#a0e06c75e06cf43e767d5e3e8afab62f2" target="_top" xlink:title=" ">
<polygon fill="white" stroke="#666666" points="735.88,-745 624.62,-745 624.62,-716 735.88,-716 735.88,-745"/>
<text xml:space="preserve" text-anchor="start" x="632.62" y="-731.5" font-family="Helvetica,sans-Serif" font-size="10.00">PostProcessing::save</text>
<text xml:space="preserve" text-anchor="middle" x="680.25" y="-721" font-family="Helvetica,sans-Serif" font-size="10.00">_probes</text>
</a>
</g>
</g>
<!-- Node4&#45;&gt;Node12 -->
<g id="edge12_Node000004_Node000012" class="edge">
<title>Node4&#45;&gt;Node12</title>
<g id="a_edge12_Node000004_Node000012"><a xlink:title=" ">
<path fill="none" stroke="#63b8ff" d="M579.26,-767.76C593.6,-762.42 611.87,-755.61 628.87,-749.28"/>
<polygon fill="#63b8ff" stroke="#63b8ff" points="629.67,-752.71 637.82,-745.94 627.22,-746.15 629.67,-752.71"/>
</a>
</g>
</g>
<!-- Node16 -->
<g id="Node000016" class="node">
<title>Node16</title>
<g id="a_Node000016"><a xlink:href="classCore_1_1DataExporter.html#ad3b98151595b0962c089a7afcdb2a642" target="_top" xlink:title=" ">
<polygon fill="white" stroke="#666666" points="730.62,-698 629.88,-698 629.88,-669 730.62,-669 730.62,-698"/>
<text xml:space="preserve" text-anchor="start" x="637.88" y="-684.5" font-family="Helvetica,sans-Serif" font-size="10.00">Core::DataExporter</text>
<text xml:space="preserve" text-anchor="middle" x="680.25" y="-674" font-family="Helvetica,sans-Serif" font-size="10.00">::set_logger</text>
</a>
</g>
</g>
<!-- Node4&#45;&gt;Node16 -->
<g id="edge16_Node000004_Node000016" class="edge">
<title>Node4&#45;&gt;Node16</title>
<g id="a_edge16_Node000004_Node000016"><a xlink:title=" ">
<path fill="none" stroke="#63b8ff" d="M559.91,-768.12C570.97,-753.42 594.21,-724.85 619.75,-707.5 621.69,-706.18 623.72,-704.91 625.8,-703.7"/>
<polygon fill="#63b8ff" stroke="#63b8ff" points="627.29,-706.87 634.53,-699.14 624.04,-700.67 627.29,-706.87"/>
</a>
</g>
</g>
<!-- Node5&#45;&gt;Node4 -->
<g id="edge5_Node000005_Node000004" class="edge">
<title>Node5&#45;&gt;Node4</title>
<g id="a_edge5_Node000005_Node000004"><a xlink:title=" ">
<path fill="none" stroke="#63b8ff" d="M619.27,-810.34C603.47,-805.1 585.82,-798.69 572.73,-792.5"/>
<polygon fill="#63b8ff" stroke="#63b8ff" points="574.38,-789.42 563.9,-787.85 571.12,-795.61 574.38,-789.42"/>
</a>
</g>
</g>
<!-- Node7 -->
<g id="Node000007" class="node">
<title>Node7</title>
<g id="a_Node000007"><a xlink:href="classCore_1_1PartialExporter.html#a05cba8c28abaecce99f586d551a75f80" target="_top" xlink:title="Initializes the fields required for exporting data.">
<polygon fill="white" stroke="#666666" points="897,-886 788,-886 788,-857 897,-857 897,-886"/>
<text xml:space="preserve" text-anchor="start" x="796" y="-872.5" font-family="Helvetica,sans-Serif" font-size="10.00">Core::PartialExporter</text>
<text xml:space="preserve" text-anchor="middle" x="842.5" y="-862" font-family="Helvetica,sans-Serif" font-size="10.00">::init_fields</text>
</a>
</g>
</g>
<!-- Node6&#45;&gt;Node7 -->
<g id="edge7_Node000006_Node000007" class="edge">
<title>Node6&#45;&gt;Node7</title>
<g id="a_edge7_Node000006_Node000007"><a xlink:title=" ">
<path fill="none" stroke="#63b8ff" d="M724.67,-791.79C730.35,-794.57 735.87,-797.79 740.75,-801.5 761.69,-817.43 755.48,-833.01 776.75,-848.5 778.08,-849.47 779.45,-850.39 780.85,-851.29"/>
<polygon fill="#63b8ff" stroke="#63b8ff" points="778.79,-854.15 789.24,-855.93 782.18,-848.02 778.79,-854.15"/>
</a>
</g>
</g>
<!-- Node9 -->
<g id="Node000009" class="node">
<title>Node9</title>
<g id="a_Node000009"><a xlink:href="namespacePostProcessing.html#a9ff9231cbdf2a3c4e539c4638aba2445" target="_top" xlink:title=" ">
<polygon fill="white" stroke="#666666" points="898.12,-839 786.88,-839 786.88,-810 898.12,-810 898.12,-839"/>
<text xml:space="preserve" text-anchor="start" x="794.88" y="-825.5" font-family="Helvetica,sans-Serif" font-size="10.00">PostProcessing::save</text>
<text xml:space="preserve" text-anchor="middle" x="842.5" y="-815" font-family="Helvetica,sans-Serif" font-size="10.00">_particle_state</text>
</a>
</g>
</g>
<!-- Node6&#45;&gt;Node9 -->
<g id="edge9_Node000006_Node000009" class="edge">
<title>Node6&#45;&gt;Node9</title>
<g id="a_edge9_Node000006_Node000009"><a xlink:title=" ">
<path fill="none" stroke="#63b8ff" d="M724.62,-790.22C741.51,-795.17 761.18,-800.94 779.51,-806.32"/>
<polygon fill="#63b8ff" stroke="#63b8ff" points="778.39,-809.64 788.97,-809.09 780.36,-802.92 778.39,-809.64"/>
</a>
</g>
</g>
<!-- Node10 -->
<g id="Node000010" class="node">
<title>Node10</title>
<g id="a_Node000010"><a xlink:href="classCore_1_1PartialExporter.html#a450fb0c92efa4ee81b4083fc01f5e665" target="_top" xlink:title="Writes the number of particles in each compartment.">
<polygon fill="white" stroke="#666666" points="901.5,-792 783.5,-792 783.5,-763 901.5,-763 901.5,-792"/>
<text xml:space="preserve" text-anchor="start" x="791.5" y="-778.5" font-family="Helvetica,sans-Serif" font-size="10.00">Core::PartialExporter</text>
<text xml:space="preserve" text-anchor="middle" x="842.5" y="-768" font-family="Helvetica,sans-Serif" font-size="10.00">::write_number_particle</text>
</a>
</g>
</g>
<!-- Node6&#45;&gt;Node10 -->
<g id="edge10_Node000006_Node000010" class="edge">
<title>Node6&#45;&gt;Node10</title>
<g id="a_edge10_Node000006_Node000010"><a xlink:title=" ">
<path fill="none" stroke="#63b8ff" d="M724.62,-777.5C739.09,-777.5 755.6,-777.5 771.56,-777.5"/>
<polygon fill="#63b8ff" stroke="#63b8ff" points="771.54,-781 781.54,-777.5 771.54,-774 771.54,-781"/>
</a>
</g>
</g>
<!-- Node8 -->
<g id="Node000008" class="node">
<title>Node8</title>
<g id="a_Node000008"><a xlink:href="classCore_1_1DataExporter.html#a9c60512b8e80f25d5f1f6cac29b27d07" target="_top" xlink:title=" ">
<polygon fill="white" stroke="#666666" points="1045,-886 944.25,-886 944.25,-857 1045,-857 1045,-886"/>
<text xml:space="preserve" text-anchor="start" x="952.25" y="-872.5" font-family="Helvetica,sans-Serif" font-size="10.00">Core::DataExporter</text>
<text xml:space="preserve" text-anchor="middle" x="994.62" y="-862" font-family="Helvetica,sans-Serif" font-size="10.00">::prepare_matrix</text>
</a>
</g>
</g>
<!-- Node7&#45;&gt;Node8 -->
<g id="edge8_Node000007_Node000008" class="edge">
<title>Node7&#45;&gt;Node8</title>
<g id="a_edge8_Node000007_Node000008"><a xlink:title=" ">
<path fill="none" stroke="#63b8ff" d="M897.27,-871.5C908.88,-871.5 921.22,-871.5 933.07,-871.5"/>
<polygon fill="#63b8ff" stroke="#63b8ff" points="932.71,-875 942.71,-871.5 932.71,-868 932.71,-875"/>
</a>
</g>
</g>
<!-- Node11 -->
<g id="Node000011" class="node">
<title>Node11</title>
<g id="a_Node000011"><a xlink:href="classCore_1_1DataExporter.html#a0af9b5e13d16339af1918f8e845193f9" target="_top" xlink:title=" ">
<polygon fill="white" stroke="#666666" points="1045,-792 944.25,-792 944.25,-763 1045,-763 1045,-792"/>
<text xml:space="preserve" text-anchor="start" x="952.25" y="-778.5" font-family="Helvetica,sans-Serif" font-size="10.00">Core::DataExporter</text>
<text xml:space="preserve" text-anchor="middle" x="994.62" y="-768" font-family="Helvetica,sans-Serif" font-size="10.00">::append_matrix</text>
</a>
</g>
</g>
<!-- Node10&#45;&gt;Node11 -->
<g id="edge11_Node000010_Node000011" class="edge">
<title>Node10&#45;&gt;Node11</title>
<g id="a_edge11_Node000010_Node000011"><a xlink:title=" ">
<path fill="none" stroke="#63b8ff" d="M901.97,-777.5C912.02,-777.5 922.49,-777.5 932.6,-777.5"/>
<polygon fill="#63b8ff" stroke="#63b8ff" points="932.32,-781 942.32,-777.5 932.32,-774 932.32,-781"/>
</a>
</g>
</g>
<!-- Node13 -->
<g id="Node000013" class="node">
<title>Node13</title>
<g id="a_Node000013"><a xlink:href="classSimulation_1_1SimulationUnit.html#a0d675ed463b0caaeea75be8bd87d72cc" target="_top" xlink:title=" ">
<polygon fill="white" stroke="#666666" points="908.25,-698 776.75,-698 776.75,-669 908.25,-669 908.25,-698"/>
<text xml:space="preserve" text-anchor="start" x="784.75" y="-684.5" font-family="Helvetica,sans-Serif" font-size="10.00">Simulation::SimulationUnit</text>
<text xml:space="preserve" text-anchor="middle" x="842.5" y="-674" font-family="Helvetica,sans-Serif" font-size="10.00">::get_probes</text>
</a>
</g>
</g>
<!-- Node12&#45;&gt;Node13 -->
<g id="edge13_Node000012_Node000013" class="edge">
<title>Node12&#45;&gt;Node13</title>
<g id="a_edge13_Node000012_Node000013"><a xlink:title=" ">
<path fill="none" stroke="#63b8ff" d="M731.95,-715.63C747.15,-711.17 763.99,-706.23 779.82,-701.59"/>
<polygon fill="#63b8ff" stroke="#63b8ff" points="780.51,-705.03 789.12,-698.86 778.54,-698.32 780.51,-705.03"/>
</a>
</g>
</g>
<!-- Node14 -->
<g id="Node000014" class="node">
<title>Node14</title>
<g id="a_Node000014"><a xlink:href="classCore_1_1PartialExporter.html#a9927dbf1350349f090606134043e190c" target="_top" xlink:title="Writes probe data to the export.">
<polygon fill="white" stroke="#666666" points="897,-745 788,-745 788,-716 897,-716 897,-745"/>
<text xml:space="preserve" text-anchor="start" x="796" y="-731.5" font-family="Helvetica,sans-Serif" font-size="10.00">Core::PartialExporter</text>
<text xml:space="preserve" text-anchor="middle" x="842.5" y="-721" font-family="Helvetica,sans-Serif" font-size="10.00">::write_probe</text>
</a>
</g>
</g>
<!-- Node12&#45;&gt;Node14 -->
<g id="edge14_Node000012_Node000014" class="edge">
<title>Node12&#45;&gt;Node14</title>
<g id="a_edge14_Node000012_Node000014"><a xlink:title=" ">
<path fill="none" stroke="#63b8ff" d="M735.95,-730.5C748.98,-730.5 763.02,-730.5 776.47,-730.5"/>
<polygon fill="#63b8ff" stroke="#63b8ff" points="776.08,-734 786.08,-730.5 776.08,-727 776.08,-734"/>
</a>
</g>
</g>
<!-- Node15 -->
<g id="Node000015" class="node">
<title>Node15</title>
<g id="a_Node000015"><a xlink:href="classCore_1_1DataExporter.html#a0b0b79f3932c4eb905704a852248c857" target="_top" xlink:title=" ">
<polygon fill="white" stroke="#666666" points="1045,-745 944.25,-745 944.25,-716 1045,-716 1045,-745"/>
<text xml:space="preserve" text-anchor="start" x="952.25" y="-731.5" font-family="Helvetica,sans-Serif" font-size="10.00">Core::DataExporter</text>
<text xml:space="preserve" text-anchor="middle" x="994.62" y="-721" font-family="Helvetica,sans-Serif" font-size="10.00">::append_array</text>
</a>
</g>
</g>
<!-- Node14&#45;&gt;Node15 -->
<g id="edge15_Node000014_Node000015" class="edge">
<title>Node14&#45;&gt;Node15</title>
<g id="a_edge15_Node000014_Node000015"><a xlink:title=" ">
<path fill="none" stroke="#63b8ff" d="M897.27,-730.5C908.88,-730.5 921.22,-730.5 933.07,-730.5"/>
<polygon fill="#63b8ff" stroke="#63b8ff" points="932.71,-734 942.71,-730.5 932.71,-727 932.71,-734"/>
</a>
</g>
</g>
<!-- Node17&#45;&gt;Node4 -->
<g id="edge18_Node000017_Node000004" class="edge">
<title>Node17&#45;&gt;Node4</title>
<g id="a_edge18_Node000017_Node000004"><a xlink:title=" ">
<path fill="none" stroke="#63b8ff" d="M277.72,-793.44C295.21,-797.94 315.06,-802.27 333.5,-804.5 400.13,-812.55 418.63,-817.34 484.5,-804.5 497.4,-801.98 510.97,-796.97 522.47,-791.93"/>
<polygon fill="#63b8ff" stroke="#63b8ff" points="523.78,-795.18 531.39,-787.82 520.85,-788.83 523.78,-795.18"/>
</a>
</g>
</g>
<!-- Node18 -->
<g id="Node000018" class="node">
<title>Node18</title>
<g id="a_Node000018"><a xlink:href="namespaceIO.html#a30cc77fc5c4d45d3b56ef6a299ce2383" target="_top" xlink:title=" ">
<polygon fill="white" stroke="#666666" points="439.12,-777.75 378.88,-777.75 378.88,-759.25 439.12,-759.25 439.12,-777.75"/>
<text xml:space="preserve" text-anchor="middle" x="409" y="-764.25" font-family="Helvetica,sans-Serif" font-size="10.00">IO::format</text>
</a>
</g>
</g>
<!-- Node17&#45;&gt;Node18 -->
<g id="edge19_Node000017_Node000018" class="edge">
<title>Node17&#45;&gt;Node18</title>
<g id="a_edge19_Node000017_Node000018"><a xlink:title=" ">
<path fill="none" stroke="#63b8ff" d="M286.6,-775.23C312.99,-773.76 343.42,-772.08 367.22,-770.76"/>
<polygon fill="#63b8ff" stroke="#63b8ff" points="367.36,-774.26 377.15,-770.21 366.97,-767.27 367.36,-774.26"/>
</a>
</g>
</g>
<!-- Node18&#45;&gt;Node18 -->
<g id="edge20_Node000018_Node000018" class="edge">
<title>Node18&#45;&gt;Node18</title>
<g id="a_edge20_Node000018_Node000018"><a xlink:title=" ">
<path fill="none" stroke="#63b8ff" d="M386.94,-778C376.21,-786.57 383.56,-795.75 409,-795.75 423.31,-795.75 431.9,-792.84 434.76,-788.78"/>
<polygon fill="#63b8ff" stroke="#63b8ff" points="438.11,-787.75 431.55,-779.43 431.49,-790.02 438.11,-787.75"/>
</a>
</g>
</g>
<!-- Node31&#45;&gt;Node30 -->
<g id="edge35_Node000031_Node000030" class="edge">
<title>Node31&#45;&gt;Node30</title>
<g id="a_edge35_Node000031_Node000030"><a xlink:title=" ">
<path fill="none" stroke="#63b8ff" d="M279.22,-76.4C299.72,-82.3 323.47,-89.15 344.96,-95.34"/>
<polygon fill="#63b8ff" stroke="#63b8ff" points="343.92,-98.68 354.5,-98.09 345.86,-91.96 343.92,-98.68"/>
</a>
</g>
</g>
<!-- Node32 -->
<g id="Node000032" class="node">
<title>Node32</title>
<g id="a_Node000032"><a xlink:href="structSimulation_1_1Feed_1_1FeedFactory.html#ad67572164ac3ac30ccfacb0754e2fbab" target="_top" xlink:title=" ">
<polygon fill="white" stroke="#666666" points="484.5,-79 333.5,-79 333.5,-50 484.5,-50 484.5,-79"/>
<text xml:space="preserve" text-anchor="start" x="341.5" y="-65.5" font-family="Helvetica,sans-Serif" font-size="10.00">Simulation::Feed::FeedFactory</text>
<text xml:space="preserve" text-anchor="middle" x="409" y="-55" font-family="Helvetica,sans-Serif" font-size="10.00">::constant</text>
</a>
</g>
</g>
<!-- Node31&#45;&gt;Node32 -->
<g id="edge34_Node000031_Node000032" class="edge">
<title>Node31&#45;&gt;Node32</title>
<g id="a_edge34_Node000031_Node000032"><a xlink:title=" ">
<path fill="none" stroke="#63b8ff" d="M286.6,-62.48C297.9,-62.67 309.94,-62.87 321.88,-63.07"/>
<polygon fill="#63b8ff" stroke="#63b8ff" points="321.71,-66.57 331.76,-63.23 321.82,-59.57 321.71,-66.57"/>
</a>
</g>
</g>
<!-- Node33&#45;&gt;Node30 -->
<g id="edge38_Node000033_Node000030" class="edge">
<title>Node33&#45;&gt;Node30</title>
<g id="a_edge38_Node000033_Node000030"><a xlink:title=" ">
<path fill="none" stroke="#63b8ff" d="M297.8,-113.5C310.89,-113.5 324.58,-113.5 337.67,-113.5"/>
<polygon fill="#63b8ff" stroke="#63b8ff" points="337.48,-117 347.48,-113.5 337.48,-110 337.48,-117"/>
</a>
</g>
</g>
<!-- Node33&#45;&gt;Node32 -->
<g id="edge37_Node000033_Node000032" class="edge">
<title>Node33&#45;&gt;Node32</title>
<g id="a_edge37_Node000033_Node000032"><a xlink:title=" ">
<path fill="none" stroke="#63b8ff" d="M297.8,-94.42C312.4,-90.45 327.72,-86.29 342.15,-82.38"/>
<polygon fill="#63b8ff" stroke="#63b8ff" points="342.78,-85.83 351.52,-79.83 340.95,-79.08 342.78,-85.83"/>
</a>
</g>
</g>
</g>
</svg>
