<?xml version="1.0" encoding="UTF-8" standalone="no"?>
<!DOCTYPE svg PUBLIC "-//W3C//DTD SVG 1.1//EN"
 "http://www.w3.org/Graphics/SVG/1.1/DTD/svg11.dtd">
<!-- Generated by graphviz version 14.0.1 (0)
 -->
<!-- Title: MC::MonteCarloUnit::serialize Pages: 1 -->
<svg width="568pt" height="55pt"
 viewBox="0.00 0.00 568.00 55.00" xmlns="http://www.w3.org/2000/svg" xmlns:xlink="http://www.w3.org/1999/xlink">
<g id="graph0" class="graph" transform="scale(1 1) rotate(0) translate(4 51)">
<title>MC::MonteCarloUnit::serialize</title>
<!-- Node1 -->
<g id="Node000001" class="node">
<title>Node1</title>
<g id="a_Node000001"><a xlink:title=" ">
<polygon fill="#999999" stroke="#666666" points="105.25,-29 0,-29 0,0 105.25,0 105.25,-29"/>
<text xml:space="preserve" text-anchor="start" x="8" y="-15.5" font-family="Helvetica,sans-Serif" font-size="10.00">MC::MonteCarloUnit</text>
<text xml:space="preserve" text-anchor="middle" x="52.62" y="-5" font-family="Helvetica,sans-Serif" font-size="10.00">::serialize</text>
</a>
</g>
</g>
<!-- Node1&#45;&gt;Node1 -->
<g id="edge4_Node000001_Node000001" class="edge">
<title>Node1&#45;&gt;Node1</title>
<g id="a_edge4_Node000001_Node000001"><a xlink:title=" ">
<path fill="none" stroke="#63b8ff" d="M25.85,-29.21C19.4,-38.32 28.32,-47 52.62,-47 65.92,-47 74.61,-44.41 78.7,-40.56"/>
<polygon fill="#63b8ff" stroke="#63b8ff" points="82.18,-40.91 79.3,-30.72 75.2,-40.48 82.18,-40.91"/>
</a>
</g>
</g>
<!-- Node2 -->
<g id="Node000002" class="node">
<title>Node2</title>
<g id="a_Node000002"><a xlink:href="namespaceMC.html#a67a8a8fb99f617a67dd3702cd0f0b47f" target="_top" xlink:title=" ">
<polygon fill="white" stroke="#666666" points="271.25,-23.75 141.25,-23.75 141.25,-5.25 271.25,-5.25 271.25,-23.75"/>
<text xml:space="preserve" text-anchor="middle" x="206.25" y="-10.25" font-family="Helvetica,sans-Serif" font-size="10.00">MC::load_tuning_constant</text>
</a>
</g>
</g>
<!-- Node1&#45;&gt;Node2 -->
<g id="edge1_Node000001_Node000002" class="edge">
<title>Node1&#45;&gt;Node2</title>
<g id="a_edge1_Node000001_Node000002"><a xlink:title=" ">
<path fill="none" stroke="#63b8ff" d="M105.38,-14.5C113.14,-14.5 121.27,-14.5 129.4,-14.5"/>
<polygon fill="#63b8ff" stroke="#63b8ff" points="129.34,-18 139.34,-14.5 129.34,-11 129.34,-18"/>
</a>
</g>
</g>
<!-- Node3 -->
<g id="Node000003" class="node">
<title>Node3</title>
<g id="a_Node000003"><a xlink:href="namespaceCommon.html#a7ca16dc3314f89cd1860091731cd7014" target="_top" xlink:title="Wrapper arround get_env to get envariable with fallback to default.">
<polygon fill="white" stroke="#666666" points="422.25,-23.75 307.25,-23.75 307.25,-5.25 422.25,-5.25 422.25,-23.75"/>
<text xml:space="preserve" text-anchor="middle" x="364.75" y="-10.25" font-family="Helvetica,sans-Serif" font-size="10.00">Common::read_env_or</text>
</a>
</g>
</g>
<!-- Node2&#45;&gt;Node3 -->
<g id="edge2_Node000002_Node000003" class="edge">
<title>Node2&#45;&gt;Node3</title>
<g id="a_edge2_Node000002_Node000003"><a xlink:title=" ">
<path fill="none" stroke="#63b8ff" d="M271.36,-14.5C279.39,-14.5 287.63,-14.5 295.72,-14.5"/>
<polygon fill="#63b8ff" stroke="#63b8ff" points="295.5,-18 305.5,-14.5 295.5,-11 295.5,-18"/>
</a>
</g>
</g>
<!-- Node4 -->
<g id="Node000004" class="node">
<title>Node4</title>
<g id="a_Node000004"><a xlink:href="namespaceCommon.html#a7e29bd7117dd8bfc651a1dc215923379" target="_top" xlink:title=" ">
<polygon fill="white" stroke="#666666" points="559.75,-23.75 458.25,-23.75 458.25,-5.25 559.75,-5.25 559.75,-23.75"/>
<text xml:space="preserve" text-anchor="middle" x="509" y="-10.25" font-family="Helvetica,sans-Serif" font-size="10.00">Common::read_env</text>
</a>
</g>
</g>
<!-- Node3&#45;&gt;Node4 -->
<g id="edge3_Node000003_Node000004" class="edge">
<title>Node3&#45;&gt;Node4</title>
<g id="a_edge3_Node000003_Node000004"><a xlink:title=" ">
<path fill="none" stroke="#63b8ff" d="M422.38,-14.5C430.38,-14.5 438.64,-14.5 446.73,-14.5"/>
<polygon fill="#63b8ff" stroke="#63b8ff" points="446.49,-18 456.49,-14.5 446.49,-11 446.49,-18"/>
</a>
</g>
</g>
</g>
</svg>
