<?xml version="1.0" encoding="UTF-8" standalone="no"?>
<!DOCTYPE svg PUBLIC "-//W3C//DTD SVG 1.1//EN"
 "http://www.w3.org/Graphics/SVG/1.1/DTD/svg11.dtd">
<!-- Generated by graphviz version 14.0.1 (0)
 -->
<!-- Title: Simulation::KernelInline::CycleFunctors&lt; Space, Model &gt; Pages: 1 -->
<!--zoomable 184 -->

<svg id="main" version="1.1" xmlns="http://www.w3.org/2000/svg" xmlns:xlink="http://www.w3.org/1999/xlink" xml:space="preserve" onload="init(evt)">

<style type="text/css"><![CDATA[
.node, .edge {opacity: 0.7;}
.node.selected, .edge.selected {opacity: 1;}
.edge:hover path { stroke: red; }
.edge:hover polygon { stroke: red; fill: red; }
]]></style>

<defs>
  <circle id="rim" cx="0" cy="0" r="7"/>
  <circle id="rim2" cx="0" cy="0" r="3.5"/>
  <g id="zoomPlus">
    <use xlink:href="#rim" fill="#404040"><set attributeName="fill" to="#808080" begin="zoomplus.mouseover" end="zoomplus.mouseout"/></use>
    <path d="M-4,0h8M0,-4v8" fill="none" stroke="white" stroke-width="1.5" pointer-events="none"/>
  </g>
  <g id="zoomMin">
    <use xlink:href="#rim" fill="#404040"><set attributeName="fill" to="#808080" begin="zoomminus.mouseover" end="zoomminus.mouseout"/></use>
    <path d="M-4,0h8" fill="none" stroke="white" stroke-width="1.5" pointer-events="none"/>
  </g>
  <g id="arrowUp" transform="translate(30 24)">
    <use xlink:href="#rim"/>
    <path pointer-events="none" fill="none" stroke="white" stroke-width="1.5" d="M0,-3.0v7 M-2.5,-0.5L0,-3.0L2.5,-0.5"/>
  </g>
  <g id="arrowRight" transform="rotate(90) translate(36 -43)">
    <use xlink:href="#rim"/>
    <path pointer-events="none" fill="none" stroke="white" stroke-width="1.5" d="M0,-3.0v7 M-2.5,-0.5L0,-3.0L2.5,-0.5"/>
  </g>
  <g id="arrowDown" transform="rotate(180) translate(-30 -48)">
    <use xlink:href="#rim"/>
    <path pointer-events="none" fill="none" stroke="white" stroke-width="1.5" d="M0,-3.0v7 M-2.5,-0.5L0,-3.0L2.5,-0.5"/>
  </g>
  <g id="arrowLeft" transform="rotate(270) translate(-36 17)">
    <use xlink:href="#rim"/>
    <path pointer-events="none" fill="none" stroke="white" stroke-width="1.5" d="M0,-3.0v7 M-2.5,-0.5L0,-3.0L2.5,-0.5"/>
  </g>
  <g id="resetDef">
    <use xlink:href="#rim2" fill="#404040"><set attributeName="fill" to="#808080" begin="reset.mouseover" end="reset.mouseout"/></use>
  </g>
</defs>
<script type="application/ecmascript">
var viewWidth = 830;
var viewHeight = 184;
var sectionId = 'dynsection-0';
</script>
<script type="application/ecmascript" xlink:href="svg.min.js"/>
<svg id="graph" class="graph">
<g id="viewport">
<title>Simulation::KernelInline::CycleFunctors&lt; Space, Model &gt;</title>
<!-- Node1 -->
<g id="Node000001" class="node">
<title>Node1</title>
<g id="a_Node000001"><a xlink:title=" ">
<polygon fill="#999999" stroke="#666666" points="822.25,-96 696.75,-96 696.75,-56.5 822.25,-56.5 822.25,-96"/>
<text xml:space="preserve" text-anchor="start" x="704.75" y="-82.5" font-family="Helvetica,sans-Serif" font-size="10.00">Simulation::KernelInline</text>
<text xml:space="preserve" text-anchor="start" x="704.75" y="-72" font-family="Helvetica,sans-Serif" font-size="10.00">::CycleFunctors&lt; Space,</text>
<text xml:space="preserve" text-anchor="middle" x="759.5" y="-61.5" font-family="Helvetica,sans-Serif" font-size="10.00"> Model &gt;</text>
</a>
</g>
</g>
<!-- Node2 -->
<g id="Node000002" class="node">
<title>Node2</title>
<g id="a_Node000002"><a xlink:href="structSimulation_1_1KernelInline_1_1CycleFunctor.html" target="_top" xlink:title=" ">
<polygon fill="white" stroke="#666666" points="573.75,-159.75 449.75,-159.75 449.75,-130.75 573.75,-130.75 573.75,-159.75"/>
<text xml:space="preserve" text-anchor="start" x="457.75" y="-146.25" font-family="Helvetica,sans-Serif" font-size="10.00">Simulation::KernelInline</text>
<text xml:space="preserve" text-anchor="middle" x="511.75" y="-135.75" font-family="Helvetica,sans-Serif" font-size="10.00">::CycleFunctor&lt; Model &gt;</text>
</a>
</g>
</g>
<!-- Node2&#45;&gt;Node1 -->
<g id="edge1_Node000001_Node000002" class="edge">
<title>Node2&#45;&gt;Node1</title>
<g id="a_edge1_Node000001_Node000002"><a xlink:title=" ">
<path fill="none" stroke="#9a32cd" stroke-dasharray="5,2" d="M584.9,-133.91C614.36,-128.39 648.55,-120.85 678.75,-111.25 691.43,-107.22 704.82,-101.82 716.93,-96.48"/>
<polygon fill="#9a32cd" stroke="#9a32cd" points="584.56,-130.41 575.35,-135.65 585.81,-137.3 584.56,-130.41"/>
</a>
</g>
<text xml:space="preserve" text-anchor="start" x="608.62" y="-136.25" font-family="Helvetica,sans-Serif" font-size="10.00" fill="grey">cycle_kernel</text>
</g>
<!-- Node3 -->
<g id="Node000003" class="node">
<title>Node3</title>
<g id="a_Node000003"><a xlink:href="structSimulation_1_1KernelInline_1_1MoveFunctor.html" target="_top" xlink:title=" ">
<polygon fill="white" stroke="#666666" points="570.75,-112.75 452.75,-112.75 452.75,-83.75 570.75,-83.75 570.75,-112.75"/>
<text xml:space="preserve" text-anchor="start" x="460.75" y="-99.25" font-family="Helvetica,sans-Serif" font-size="10.00">Simulation::KernelInline</text>
<text xml:space="preserve" text-anchor="middle" x="511.75" y="-88.75" font-family="Helvetica,sans-Serif" font-size="10.00">::MoveFunctor</text>
</a>
</g>
</g>
<!-- Node3&#45;&gt;Node1 -->
<g id="edge2_Node000001_Node000003" class="edge">
<title>Node3&#45;&gt;Node1</title>
<g id="a_edge2_Node000001_Node000003"><a xlink:title=" ">
<path fill="none" stroke="#9a32cd" stroke-dasharray="5,2" d="M582.36,-92.02C618.24,-88.81 661.64,-84.92 696.38,-81.81"/>
<polygon fill="#9a32cd" stroke="#9a32cd" points="582.14,-88.52 572.5,-92.9 582.77,-95.5 582.14,-88.52"/>
</a>
</g>
<text xml:space="preserve" text-anchor="start" x="608.25" y="-95.13" font-family="Helvetica,sans-Serif" font-size="10.00" fill="grey">move_kernel</text>
</g>
<!-- Node4 -->
<g id="Node000004" class="node">
<title>Node4</title>
<g id="a_Node000004"><a xlink:href="structMC_1_1DomainState.html" target="_top" xlink:title=" ">
<polygon fill="white" stroke="#666666" points="356,-175.75 212.5,-175.75 212.5,-146.75 356,-146.75 356,-175.75"/>
<text xml:space="preserve" text-anchor="start" x="220.5" y="-162.25" font-family="Helvetica,sans-Serif" font-size="10.00">MC::DomainState&lt; Compute</text>
<text xml:space="preserve" text-anchor="middle" x="284.25" y="-151.75" font-family="Helvetica,sans-Serif" font-size="10.00">Space, true &gt;</text>
</a>
</g>
</g>
<!-- Node4&#45;&gt;Node3 -->
<g id="edge3_Node000003_Node000004" class="edge">
<title>Node4&#45;&gt;Node3</title>
<g id="a_edge3_Node000003_Node000004"><a xlink:title=" ">
<path fill="none" stroke="#9a32cd" stroke-dasharray="5,2" d="M367.58,-148.32C388.79,-143.93 411.37,-138.3 431.75,-131.25 440.2,-128.33 441.58,-125.89 449.75,-122.25 456.61,-119.19 463.99,-116.12 471.16,-113.23"/>
<polygon fill="#9a32cd" stroke="#9a32cd" points="366.91,-144.89 357.79,-150.28 368.28,-151.75 366.91,-144.89"/>
</a>
</g>
<text xml:space="preserve" text-anchor="start" x="391.62" y="-150.44" font-family="Helvetica,sans-Serif" font-size="10.00" fill="grey">move</text>
</g>
<!-- Node5 -->
<g id="Node000005" class="node">
<title>Node5</title>
<g id="a_Node000005"><a xlink:href="structMC_1_1EventContainer.html" target="_top" xlink:title="Use to count events that occurs during Monte&#45;Carlo processing cycles.">
<polygon fill="white" stroke="#666666" points="336.5,-128.5 232,-128.5 232,-110 336.5,-110 336.5,-128.5"/>
<text xml:space="preserve" text-anchor="middle" x="284.25" y="-115" font-family="Helvetica,sans-Serif" font-size="10.00">MC::EventContainer</text>
</a>
</g>
</g>
<!-- Node5&#45;&gt;Node3 -->
<g id="edge4_Node000003_Node000005" class="edge">
<title>Node5&#45;&gt;Node3</title>
<g id="a_edge4_Node000003_Node000005"><a xlink:title=" ">
<path fill="none" stroke="#9a32cd" stroke-dasharray="5,2" d="M348.23,-113.39C380.9,-110.34 420.55,-106.65 452.51,-103.67"/>
<polygon fill="#9a32cd" stroke="#9a32cd" points="348.12,-109.88 338.49,-114.29 348.77,-116.85 348.12,-109.88"/>
</a>
</g>
<text xml:space="preserve" text-anchor="start" x="389" y="-114.63" font-family="Helvetica,sans-Serif" font-size="10.00" fill="grey">events</text>
</g>
<!-- Node6 -->
<g id="Node000006" class="node">
<title>Node6</title>
<g id="a_Node000006"><a xlink:href="classSimulation_1_1Probes.html" target="_top" xlink:title=" ">
<polygon fill="white" stroke="#666666" points="344.38,-92 224.12,-92 224.12,-52.5 344.38,-52.5 344.38,-92"/>
<text xml:space="preserve" text-anchor="start" x="232.12" y="-78.5" font-family="Helvetica,sans-Serif" font-size="10.00">Simulation::Probes</text>
<text xml:space="preserve" text-anchor="start" x="232.12" y="-68" font-family="Helvetica,sans-Serif" font-size="10.00">&lt; AutoGenerated::probe</text>
<text xml:space="preserve" text-anchor="middle" x="284.25" y="-57.5" font-family="Helvetica,sans-Serif" font-size="10.00">_buffer_size &gt;</text>
</a>
</g>
</g>
<!-- Node6&#45;&gt;Node3 -->
<g id="edge5_Node000003_Node000006" class="edge">
<title>Node6&#45;&gt;Node3</title>
<g id="a_edge5_Node000003_Node000006"><a xlink:title=" ">
<path fill="none" stroke="#9a32cd" stroke-dasharray="5,2" d="M355.76,-77.06C379.9,-79.03 407.05,-81.59 431.75,-84.75 438.51,-85.61 445.58,-86.64 452.59,-87.74"/>
<polygon fill="#9a32cd" stroke="#9a32cd" points="356.29,-73.59 346.04,-76.29 355.74,-80.57 356.29,-73.59"/>
</a>
</g>
<text xml:space="preserve" text-anchor="start" x="388.62" y="-88.75" font-family="Helvetica,sans-Serif" font-size="10.00" fill="grey">probes</text>
</g>
<!-- Node7 -->
<g id="Node000007" class="node">
<title>Node7</title>
<g id="a_Node000007"><a xlink:href="structContributionFunctor.html" target="_top" xlink:title=" ">
<polygon fill="white" stroke="#666666" points="562.5,-65.75 461,-65.75 461,-36.75 562.5,-36.75 562.5,-65.75"/>
<text xml:space="preserve" text-anchor="start" x="469" y="-52.25" font-family="Helvetica,sans-Serif" font-size="10.00">ContributionFunctor</text>
<text xml:space="preserve" text-anchor="middle" x="511.75" y="-41.75" font-family="Helvetica,sans-Serif" font-size="10.00">&lt; Model &gt;</text>
</a>
</g>
</g>
<!-- Node7&#45;&gt;Node1 -->
<g id="edge6_Node000001_Node000007" class="edge">
<title>Node7&#45;&gt;Node1</title>
<g id="a_edge6_Node000001_Node000007"><a xlink:title=" ">
<path fill="none" stroke="#9a32cd" stroke-dasharray="5,2" d="M574.17,-54.69C605.52,-56.75 644.23,-59.75 678.75,-63.75 684.46,-64.41 690.38,-65.18 696.31,-66.01"/>
<polygon fill="#9a32cd" stroke="#9a32cd" points="574.69,-51.22 564.48,-54.08 574.24,-58.21 574.69,-51.22"/>
</a>
</g>
<text xml:space="preserve" text-anchor="start" x="594.75" y="-67.75" font-family="Helvetica,sans-Serif" font-size="10.00" fill="grey">contribution_kernel</text>
</g>
<!-- Node8 -->
<g id="Node000008" class="node">
<title>Node8</title>
<g id="a_Node000008"><a xlink:href="classMC_1_1ParticlesContainer.html" target="_top" xlink:title=" ">
<polygon fill="white" stroke="#666666" points="356.75,-34.5 211.75,-34.5 211.75,-16 356.75,-16 356.75,-34.5"/>
<text xml:space="preserve" text-anchor="middle" x="284.25" y="-21" font-family="Helvetica,sans-Serif" font-size="10.00">MC::ParticlesContainer&lt; M &gt;</text>
</a>
</g>
</g>
<!-- Node8&#45;&gt;Node7 -->
<g id="edge7_Node000007_Node000008" class="edge">
<title>Node8&#45;&gt;Node7</title>
<g id="a_edge7_Node000007_Node000008"><a xlink:title=" ">
<path fill="none" stroke="#9a32cd" stroke-dasharray="5,2" d="M368.48,-34.85C399.5,-38.42 433.73,-42.37 460.84,-45.5"/>
<polygon fill="#9a32cd" stroke="#9a32cd" points="369.06,-31.39 358.72,-33.72 368.26,-38.34 369.06,-31.39"/>
</a>
</g>
<text xml:space="preserve" text-anchor="start" x="377.75" y="-46.1" font-family="Helvetica,sans-Serif" font-size="10.00" fill="grey">m_particles</text>
</g>
<!-- Node9 -->
<g id="Node000009" class="node">
<title>Node9</title>
<g id="a_Node000009"><a xlink:href="structMC_1_1RuntimeParameters.html" target="_top" xlink:title=" ">
<polygon fill="white" stroke="#666666" points="125.5,-34.5 0,-34.5 0,-16 125.5,-16 125.5,-34.5"/>
<text xml:space="preserve" text-anchor="middle" x="62.75" y="-21" font-family="Helvetica,sans-Serif" font-size="10.00">MC::RuntimeParameters</text>
</a>
</g>
</g>
<!-- Node9&#45;&gt;Node8 -->
<g id="edge8_Node000008_Node000009" class="edge">
<title>Node9&#45;&gt;Node8</title>
<g id="a_edge8_Node000008_Node000009"><a xlink:title=" ">
<path fill="none" stroke="#9a32cd" stroke-dasharray="5,2" d="M137.25,-25.25C161.12,-25.25 187.55,-25.25 211.3,-25.25"/>
<polygon fill="#9a32cd" stroke="#9a32cd" points="137.28,-21.75 127.28,-25.25 137.28,-28.75 137.28,-21.75"/>
</a>
</g>
<text xml:space="preserve" text-anchor="start" x="146.5" y="-29.25" font-family="Helvetica,sans-Serif" font-size="10.00" fill="grey">rt_params</text>
</g>
<!-- Node10 -->
<g id="Node000010" class="node">
<title>Node10</title>
<g id="a_Node000010"><a xlink:href="structKernelDispatchOptions.html" target="_top" xlink:title=" ">
<polygon fill="white" stroke="#666666" points="569.62,-18.5 453.88,-18.5 453.88,0 569.62,0 569.62,-18.5"/>
<text xml:space="preserve" text-anchor="middle" x="511.75" y="-5" font-family="Helvetica,sans-Serif" font-size="10.00">KernelDispatchOptions</text>
</a>
</g>
</g>
<!-- Node10&#45;&gt;Node1 -->
<g id="edge9_Node000001_Node000010" class="edge">
<title>Node10&#45;&gt;Node1</title>
<g id="a_edge9_Node000001_Node000010"><a xlink:title=" ">
<path fill="none" stroke="#9a32cd" stroke-dasharray="5,2" d="M581.23,-15.32C611.61,-19.25 647.49,-25.6 678.75,-35.75 694.4,-40.84 710.77,-48.65 724.57,-56.07"/>
<polygon fill="#9a32cd" stroke="#9a32cd" points="581.72,-11.86 571.37,-14.12 580.87,-18.8 581.72,-11.86"/>
</a>
</g>
<text xml:space="preserve" text-anchor="start" x="612.75" y="-39.75" font-family="Helvetica,sans-Serif" font-size="10.00" fill="grey">m_options</text>
</g>
</g>
</svg>

<g id="navigator" transform="translate(0 0)" fill="#404254">
  <rect fill="#f2f5e9" fill-opacity="0.5" stroke="#606060" stroke-width=".5" x="0" y="0" width="60" height="60"/>
  <use id="zoomplus" xlink:href="#zoomPlus" x="17" y="9" onmousedown="handleZoom(evt,'in')"/>
  <use id="zoomminus" xlink:href="#zoomMin" x="42" y="9" onmousedown="handleZoom(evt,'out')"/>
  <use id="reset" xlink:href="#resetDef" x="30" y="36" onmousedown="handleReset()"/>
   <use id="arrowup" xlink:href="#arrowUp" x="0" y="0" onmousedown="handlePan(0,-1)"/>
  <use id="arrowright" xlink:href="#arrowRight" x="0" y="0" onmousedown="handlePan(1,0)"/>
  <use id="arrowdown" xlink:href="#arrowDown" x="0" y="0" onmousedown="handlePan(0,1)"/>
  <use id="arrowleft" xlink:href="#arrowLeft" x="0" y="0" onmousedown="handlePan(-1,0)"/>
</g>
<svg viewBox="0 0 15 15" width="100%" height="30px" preserveAspectRatio="xMaxYMin meet">
 <g id="arrow_out" transform="scale(0.3 0.3)">
  <a xlink:href="structSimulation_1_1KernelInline_1_1CycleFunctors__coll__graph_org.svg" target="_base">
   <rect id="button" ry="5" rx="5" y="6" x="6" height="38" width="38"
        fill="#f2f5e9" fill-opacity="0.5" stroke="#606060" stroke-width="1.0"/>
   <path id="arrow"
     d="M 11.500037,31.436501 C 11.940474,20.09759 22.043105,11.32322 32.158766,21.979434 L 37.068811,17.246167 C 37.068811,17.246167 37.088388,32 37.088388,32 L 22.160133,31.978069 C 22.160133,31.978069 26.997745,27.140456 26.997745,27.140456 C 18.528582,18.264221 13.291696,25.230495 11.500037,31.436501 z"
     style="fill:#404040;"/>
  </a>
 </g>
</svg>

<style type='text/css'>
<![CDATA[
[data-mouse-over-selected='false'] { opacity: 0.7; }
[data-mouse-over-selected='true']  { opacity: 1.0; }
]]>
</style>
<script type="application/ecmascript"><![CDATA[
document.addEventListener('DOMContentLoaded', (event) => {
  highlightEdges();
  highlightAdjacentNodes();
});
]]></script>
</svg>
