<?xml version="1.0" encoding="UTF-8" standalone="no"?>
<!DOCTYPE svg PUBLIC "-//W3C//DTD SVG 1.1//EN"
 "http://www.w3.org/Graphics/SVG/1.1/DTD/svg11.dtd">
<!-- Generated by graphviz version 14.0.1 (0)
 -->
<!-- Title: Api::SimulationInstance Pages: 1 -->
<svg width="342pt" height="169pt"
 viewBox="0.00 0.00 342.00 169.00" xmlns="http://www.w3.org/2000/svg" xmlns:xlink="http://www.w3.org/1999/xlink">
<g id="graph0" class="graph" transform="scale(1 1) rotate(0) translate(4 164.5)">
<title>Api::SimulationInstance</title>
<!-- Node1 -->
<g id="Node000001" class="node">
<title>Node1</title>
<g id="a_Node000001"><a xlink:title="Represents an instance of a simulation with customizable parameters and behaviors.">
<polygon fill="#999999" stroke="#666666" points="286.62,-18.5 167.12,-18.5 167.12,0 286.62,0 286.62,-18.5"/>
<text xml:space="preserve" text-anchor="middle" x="226.88" y="-5" font-family="Helvetica,sans-Serif" font-size="10.00">Api::SimulationInstance</text>
</a>
</g>
</g>
<!-- Node2 -->
<g id="Node000002" class="node">
<title>Node2</title>
<g id="a_Node000002"><a xlink:href="structCore_1_1CaseData.html" target="_top" xlink:title="Holds the data required to execute a simulation case.">
<polygon fill="white" stroke="#666666" points="169.75,-89.5 84,-89.5 84,-71 169.75,-71 169.75,-89.5"/>
<text xml:space="preserve" text-anchor="middle" x="126.88" y="-76" font-family="Helvetica,sans-Serif" font-size="10.00">Core::CaseData</text>
</a>
</g>
</g>
<!-- Node2&#45;&gt;Node1 -->
<g id="edge1_Node000001_Node000002" class="edge">
<title>Node2&#45;&gt;Node1</title>
<g id="a_edge1_Node000001_Node000002"><a xlink:title=" ">
<path fill="none" stroke="#9a32cd" stroke-dasharray="5,2" d="M148.85,-64.09C168.93,-50.23 197.91,-30.24 214.31,-18.92"/>
<polygon fill="#9a32cd" stroke="#9a32cd" points="147.03,-61.09 140.79,-69.65 151,-66.85 147.03,-61.09"/>
</a>
</g>
<text xml:space="preserve" text-anchor="start" x="191.77" y="-40.5" font-family="Helvetica,sans-Serif" font-size="10.00" fill="grey">_data</text>
</g>
<!-- Node3 -->
<g id="Node000003" class="node">
<title>Node3</title>
<g id="a_Node000003"><a xlink:href="structCore_1_1SimulationParameters.html" target="_top" xlink:title=" ">
<polygon fill="white" stroke="#666666" points="139.75,-160.5 0,-160.5 0,-142 139.75,-142 139.75,-160.5"/>
<text xml:space="preserve" text-anchor="middle" x="69.88" y="-147" font-family="Helvetica,sans-Serif" font-size="10.00">Core::SimulationParameters</text>
</a>
</g>
</g>
<!-- Node3&#45;&gt;Node2 -->
<g id="edge2_Node000002_Node000003" class="edge">
<title>Node3&#45;&gt;Node2</title>
<g id="a_edge2_Node000002_Node000003"><a xlink:title=" ">
<path fill="none" stroke="#9a32cd" stroke-dasharray="5,2" d="M84.21,-132.9C95.6,-119.11 111.05,-100.4 119.89,-89.7"/>
<polygon fill="#9a32cd" stroke="#9a32cd" points="81.73,-130.41 78.06,-140.34 87.13,-134.86 81.73,-130.41"/>
</a>
</g>
<text xml:space="preserve" text-anchor="start" x="108.16" y="-111.5" font-family="Helvetica,sans-Serif" font-size="10.00" fill="grey">params</text>
</g>
<!-- Node4 -->
<g id="Node000004" class="node">
<title>Node4</title>
<g id="a_Node000004"><a xlink:href="structExecInfo.html" target="_top" xlink:title=" ">
<polygon fill="white" stroke="#666666" points="212,-160.5 157.75,-160.5 157.75,-142 212,-142 212,-160.5"/>
<text xml:space="preserve" text-anchor="middle" x="184.88" y="-147" font-family="Helvetica,sans-Serif" font-size="10.00">ExecInfo</text>
</a>
</g>
</g>
<!-- Node4&#45;&gt;Node2 -->
<g id="edge3_Node000002_Node000004" class="edge">
<title>Node4&#45;&gt;Node2</title>
<g id="a_edge3_Node000002_Node000004"><a xlink:title=" ">
<path fill="none" stroke="#9a32cd" stroke-dasharray="5,2" d="M170.29,-132.9C158.7,-119.11 142.98,-100.4 133.98,-89.7"/>
<polygon fill="#9a32cd" stroke="#9a32cd" points="167.44,-134.95 176.56,-140.35 172.8,-130.45 167.44,-134.95"/>
</a>
</g>
<text xml:space="preserve" text-anchor="start" x="165.78" y="-111.5" font-family="Helvetica,sans-Serif" font-size="10.00" fill="grey">exec_info</text>
</g>
<!-- Node5 -->
<g id="Node000005" class="node">
<title>Node5</title>
<g id="a_Node000005"><a xlink:href="structCore_1_1UserControlParameters.html" target="_top" xlink:title="A structure to hold user&#45;defined control parameters for simulation settings.">
<polygon fill="white" stroke="#666666" points="334.12,-89.5 187.62,-89.5 187.62,-71 334.12,-71 334.12,-89.5"/>
<text xml:space="preserve" text-anchor="middle" x="260.88" y="-76" font-family="Helvetica,sans-Serif" font-size="10.00">Core::UserControlParameters</text>
</a>
</g>
</g>
<!-- Node5&#45;&gt;Node1 -->
<g id="edge4_Node000001_Node000005" class="edge">
<title>Node5&#45;&gt;Node1</title>
<g id="a_edge4_Node000001_Node000005"><a xlink:title=" ">
<path fill="none" stroke="#9a32cd" stroke-dasharray="5,2" d="M251.53,-60.29C244.83,-46.68 236.11,-28.99 231.04,-18.7"/>
<polygon fill="#9a32cd" stroke="#9a32cd" points="248.34,-61.73 255.9,-69.15 254.62,-58.64 248.34,-61.73"/>
</a>
</g>
<text xml:space="preserve" text-anchor="start" x="250.92" y="-40.5" font-family="Helvetica,sans-Serif" font-size="10.00" fill="grey">params</text>
</g>
</g>
</svg>
