<?xml version="1.0" encoding="UTF-8" standalone="no"?>
<!DOCTYPE svg PUBLIC "-//W3C//DTD SVG 1.1//EN"
 "http://www.w3.org/Graphics/SVG/1.1/DTD/svg11.dtd">
<!-- Generated by graphviz version 12.1.2 (0)
 -->
<!-- Title: MC::Distributions::TruncatedNormal::draw Pages: 1 -->
<svg width="572pt" height="37pt"
 viewBox="0.00 0.00 572.25 37.00" xmlns="http://www.w3.org/2000/svg" xmlns:xlink="http://www.w3.org/1999/xlink">
<g id="graph0" class="graph" transform="scale(1 1) rotate(0) translate(4 33)">
<title>MC::Distributions::TruncatedNormal::draw</title>
<!-- Node1 -->
<g id="Node000001" class="node">
<title>Node1</title>
<g id="a_Node000001"><a xlink:title=" ">
<polygon fill="#999999" stroke="#666666" points="117.25,-29 0,-29 0,0 117.25,0 117.25,-29"/>
<text text-anchor="start" x="8" y="-15.5" font-family="Helvetica,sans-Serif" font-size="10.00">MC::Distributions::</text>
<text text-anchor="middle" x="58.62" y="-5" font-family="Helvetica,sans-Serif" font-size="10.00">TruncatedNormal::draw</text>
</a>
</g>
</g>
<!-- Node2 -->
<g id="Node000002" class="node">
<title>Node2</title>
<g id="a_Node000002"><a xlink:href="structMC_1_1Distributions_1_1TruncatedNormal.html#af6cfcdb1f39978352e55fc5c5f729462" target="_top" xlink:title=" ">
<polygon fill="white" stroke="#666666" points="295.25,-29 153.25,-29 153.25,0 295.25,0 295.25,-29"/>
<text text-anchor="start" x="161.25" y="-15.5" font-family="Helvetica,sans-Serif" font-size="10.00">MC::Distributions::</text>
<text text-anchor="middle" x="224.25" y="-5" font-family="Helvetica,sans-Serif" font-size="10.00">TruncatedNormal::draw_from</text>
</a>
</g>
</g>
<!-- Node1&#45;&gt;Node2 -->
<g id="edge1_Node000001_Node000002" class="edge">
<title>Node1&#45;&gt;Node2</title>
<g id="a_edge1_Node000001_Node000002"><a xlink:title=" ">
<path fill="none" stroke="#63b8ff" d="M117.31,-14.5C125.13,-14.5 133.27,-14.5 141.41,-14.5"/>
<polygon fill="#63b8ff" stroke="#63b8ff" points="141.37,-18 151.37,-14.5 141.37,-11 141.37,-18"/>
</a>
</g>
</g>
<!-- Node3 -->
<g id="Node000003" class="node">
<title>Node3</title>
<g id="a_Node000003"><a xlink:href="namespaceMC_1_1Distributions.html#a3c07f6cf61b1c67ea9b2b3e0d6c42cc7" target="_top" xlink:title="Computes the inverse CDF (probit function) of a normal distribution.">
<polygon fill="white" stroke="#666666" points="429.75,-29 331.25,-29 331.25,0 429.75,0 429.75,-29"/>
<text text-anchor="start" x="339.25" y="-15.5" font-family="Helvetica,sans-Serif" font-size="10.00">MC::Distributions::</text>
<text text-anchor="middle" x="380.5" y="-5" font-family="Helvetica,sans-Serif" font-size="10.00">norminv</text>
</a>
</g>
</g>
<!-- Node2&#45;&gt;Node3 -->
<g id="edge2_Node000002_Node000003" class="edge">
<title>Node2&#45;&gt;Node3</title>
<g id="a_edge2_Node000002_Node000003"><a xlink:title=" ">
<path fill="none" stroke="#63b8ff" d="M295.6,-14.5C303.61,-14.5 311.72,-14.5 319.57,-14.5"/>
<polygon fill="#63b8ff" stroke="#63b8ff" points="319.35,-18 329.35,-14.5 319.35,-11 319.35,-18"/>
</a>
</g>
</g>
<!-- Node4 -->
<g id="Node000004" class="node">
<title>Node4</title>
<g id="a_Node000004"><a xlink:href="namespaceMC_1_1Distributions.html#a351272c0fa13e73d23c7b1caf92e858f" target="_top" xlink:title="Computes an approximation of the inverse error function.">
<polygon fill="white" stroke="#666666" points="564.25,-29 465.75,-29 465.75,0 564.25,0 564.25,-29"/>
<text text-anchor="start" x="473.75" y="-15.5" font-family="Helvetica,sans-Serif" font-size="10.00">MC::Distributions::</text>
<text text-anchor="middle" x="515" y="-5" font-family="Helvetica,sans-Serif" font-size="10.00">erfinv</text>
</a>
</g>
</g>
<!-- Node3&#45;&gt;Node4 -->
<g id="edge3_Node000003_Node000004" class="edge">
<title>Node3&#45;&gt;Node4</title>
<g id="a_edge3_Node000003_Node000004"><a xlink:title=" ">
<path fill="none" stroke="#63b8ff" d="M430.09,-14.5C437.92,-14.5 446.1,-14.5 454.16,-14.5"/>
<polygon fill="#63b8ff" stroke="#63b8ff" points="453.91,-18 463.91,-14.5 453.91,-11 453.91,-18"/>
</a>
</g>
</g>
</g>
</svg>
