<?xml version="1.0" encoding="UTF-8" standalone="no"?>
<!DOCTYPE svg PUBLIC "-//W3C//DTD SVG 1.1//EN"
 "http://www.w3.org/Graphics/SVG/1.1/DTD/svg11.dtd">
<!-- Generated by graphviz version 14.0.1 (0)
 -->
<!-- Title: MC::MonteCarloUnit::~MonteCarloUnit Pages: 1 -->
<!--zoomable 188 -->

<svg id="main" version="1.1" xmlns="http://www.w3.org/2000/svg" xmlns:xlink="http://www.w3.org/1999/xlink" xml:space="preserve" onload="init(evt)">

<style type="text/css"><![CDATA[
.node, .edge {opacity: 0.7;}
.node.selected, .edge.selected {opacity: 1;}
.edge:hover path { stroke: red; }
.edge:hover polygon { stroke: red; fill: red; }
]]></style>

<defs>
  <circle id="rim" cx="0" cy="0" r="7"/>
  <circle id="rim2" cx="0" cy="0" r="3.5"/>
  <g id="zoomPlus">
    <use xlink:href="#rim" fill="#404040"><set attributeName="fill" to="#808080" begin="zoomplus.mouseover" end="zoomplus.mouseout"/></use>
    <path d="M-4,0h8M0,-4v8" fill="none" stroke="white" stroke-width="1.5" pointer-events="none"/>
  </g>
  <g id="zoomMin">
    <use xlink:href="#rim" fill="#404040"><set attributeName="fill" to="#808080" begin="zoomminus.mouseover" end="zoomminus.mouseout"/></use>
    <path d="M-4,0h8" fill="none" stroke="white" stroke-width="1.5" pointer-events="none"/>
  </g>
  <g id="arrowUp" transform="translate(30 24)">
    <use xlink:href="#rim"/>
    <path pointer-events="none" fill="none" stroke="white" stroke-width="1.5" d="M0,-3.0v7 M-2.5,-0.5L0,-3.0L2.5,-0.5"/>
  </g>
  <g id="arrowRight" transform="rotate(90) translate(36 -43)">
    <use xlink:href="#rim"/>
    <path pointer-events="none" fill="none" stroke="white" stroke-width="1.5" d="M0,-3.0v7 M-2.5,-0.5L0,-3.0L2.5,-0.5"/>
  </g>
  <g id="arrowDown" transform="rotate(180) translate(-30 -48)">
    <use xlink:href="#rim"/>
    <path pointer-events="none" fill="none" stroke="white" stroke-width="1.5" d="M0,-3.0v7 M-2.5,-0.5L0,-3.0L2.5,-0.5"/>
  </g>
  <g id="arrowLeft" transform="rotate(270) translate(-36 17)">
    <use xlink:href="#rim"/>
    <path pointer-events="none" fill="none" stroke="white" stroke-width="1.5" d="M0,-3.0v7 M-2.5,-0.5L0,-3.0L2.5,-0.5"/>
  </g>
  <g id="resetDef">
    <use xlink:href="#rim2" fill="#404040"><set attributeName="fill" to="#808080" begin="reset.mouseover" end="reset.mouseout"/></use>
  </g>
</defs>
<script type="application/ecmascript">
var viewWidth = 572;
var viewHeight = 188;
var sectionId = 'dynsection-5';
</script>
<script type="application/ecmascript" xlink:href="svg.min.js"/>
<svg id="graph" class="graph">
<g id="viewport">
<title>MC::MonteCarloUnit::~MonteCarloUnit</title>
<!-- Node1 -->
<g id="Node000001" class="node">
<title>Node1</title>
<g id="a_Node000001"><a xlink:title=" ">
<polygon fill="#999999" stroke="#666666" points="105.25,-115 0,-115 0,-86 105.25,-86 105.25,-115"/>
<text xml:space="preserve" text-anchor="start" x="8" y="-101.5" font-family="Helvetica,sans-Serif" font-size="10.00">MC::MonteCarloUnit</text>
<text xml:space="preserve" text-anchor="middle" x="52.62" y="-91" font-family="Helvetica,sans-Serif" font-size="10.00">::~MonteCarloUnit</text>
</a>
</g>
</g>
<!-- Node2 -->
<g id="Node000002" class="node">
<title>Node2</title>
<g id="a_Node000002"><a xlink:href="structMC_1_1MonteCarloUnit.html#a2e431bdcb96f1fa71525aca30d0457ba" target="_top" xlink:title=" ">
<polygon fill="white" stroke="#666666" points="246.5,-180 141.25,-180 141.25,-151 246.5,-151 246.5,-180"/>
<text xml:space="preserve" text-anchor="start" x="149.25" y="-166.5" font-family="Helvetica,sans-Serif" font-size="10.00">MC::MonteCarloUnit</text>
<text xml:space="preserve" text-anchor="middle" x="193.88" y="-156" font-family="Helvetica,sans-Serif" font-size="10.00">::getRepartition</text>
</a>
</g>
</g>
<!-- Node1&#45;&gt;Node2 -->
<g id="edge1_Node000001_Node000002" class="edge">
<title>Node1&#45;&gt;Node2</title>
<g id="a_edge1_Node000001_Node000002"><a xlink:title=" ">
<path fill="none" stroke="#63b8ff" d="M85.57,-115.41C104.94,-124.45 129.88,-136.1 150.84,-145.88"/>
<polygon fill="#63b8ff" stroke="#63b8ff" points="149.16,-148.96 159.71,-150.02 152.12,-142.62 149.16,-148.96"/>
</a>
</g>
</g>
<!-- Node3 -->
<g id="Node000003" class="node">
<title>Node3</title>
<g id="a_Node000003"><a xlink:href="structMC_1_1MonteCarloUnit.html#a9a63012c0c3a5d812abdfd77555a7f46" target="_top" xlink:title=" ">
<polygon fill="white" stroke="#666666" points="410.25,-158 305,-158 305,-129 410.25,-129 410.25,-158"/>
<text xml:space="preserve" text-anchor="start" x="313" y="-144.5" font-family="Helvetica,sans-Serif" font-size="10.00">MC::MonteCarloUnit</text>
<text xml:space="preserve" text-anchor="middle" x="357.62" y="-134" font-family="Helvetica,sans-Serif" font-size="10.00">::n_particle</text>
</a>
</g>
</g>
<!-- Node1&#45;&gt;Node3 -->
<g id="edge8_Node000001_Node000003" class="edge">
<title>Node1&#45;&gt;Node3</title>
<g id="a_edge8_Node000001_Node000003"><a xlink:title=" ">
<path fill="none" stroke="#63b8ff" d="M105.71,-107.89C157.79,-115.28 237.93,-126.66 293.58,-134.55"/>
<polygon fill="#63b8ff" stroke="#63b8ff" points="292.82,-137.98 303.21,-135.92 293.8,-131.05 292.82,-137.98"/>
</a>
</g>
</g>
<!-- Node4 -->
<g id="Node000004" class="node">
<title>Node4</title>
<g id="a_Node000004"><a xlink:href="structMC_1_1MonteCarloUnit.html#af43611a21cb1a7ca18e13b5f34c9774b" target="_top" xlink:title=" ">
<polygon fill="white" stroke="#666666" points="246.5,-94 141.25,-94 141.25,-65 246.5,-65 246.5,-94"/>
<text xml:space="preserve" text-anchor="start" x="149.25" y="-80.5" font-family="Helvetica,sans-Serif" font-size="10.00">MC::MonteCarloUnit</text>
<text xml:space="preserve" text-anchor="middle" x="193.88" y="-70" font-family="Helvetica,sans-Serif" font-size="10.00">::getSpeciesNames</text>
</a>
</g>
</g>
<!-- Node1&#45;&gt;Node4 -->
<g id="edge3_Node000001_Node000004" class="edge">
<title>Node1&#45;&gt;Node4</title>
<g id="a_edge3_Node000001_Node000004"><a xlink:title=" ">
<path fill="none" stroke="#63b8ff" d="M105.48,-92.68C113.36,-91.49 121.57,-90.25 129.66,-89.03"/>
<polygon fill="#63b8ff" stroke="#63b8ff" points="130.12,-92.5 139.48,-87.55 129.07,-85.58 130.12,-92.5"/>
</a>
</g>
</g>
<!-- Node7 -->
<g id="Node000007" class="node">
<title>Node7</title>
<g id="a_Node000007"><a xlink:href="structMC_1_1MonteCarloUnit.html#a0e4f63686697a931b06447ce22b435c6" target="_top" xlink:title=" ">
<polygon fill="white" stroke="#666666" points="246.5,-29 141.25,-29 141.25,0 246.5,0 246.5,-29"/>
<text xml:space="preserve" text-anchor="start" x="149.25" y="-15.5" font-family="Helvetica,sans-Serif" font-size="10.00">MC::MonteCarloUnit</text>
<text xml:space="preserve" text-anchor="middle" x="193.88" y="-5" font-family="Helvetica,sans-Serif" font-size="10.00">::MonteCarloUnit</text>
</a>
</g>
</g>
<!-- Node1&#45;&gt;Node7 -->
<g id="edge6_Node000001_Node000007" class="edge">
<title>Node1&#45;&gt;Node7</title>
<g id="a_edge6_Node000001_Node000007"><a xlink:title=" ">
<path fill="none" stroke="#63b8ff" d="M77.88,-85.52C100.44,-71.58 134.27,-50.7 159.4,-35.18"/>
<polygon fill="#63b8ff" stroke="#63b8ff" points="160.94,-38.34 167.61,-30.1 157.26,-32.38 160.94,-38.34"/>
</a>
</g>
</g>
<!-- Node2&#45;&gt;Node3 -->
<g id="edge2_Node000002_Node000003" class="edge">
<title>Node2&#45;&gt;Node3</title>
<g id="a_edge2_Node000002_Node000003"><a xlink:title=" ">
<path fill="none" stroke="#63b8ff" d="M246.94,-158.42C261.81,-156.4 278.16,-154.17 293.61,-152.07"/>
<polygon fill="#63b8ff" stroke="#63b8ff" points="293.72,-155.59 303.15,-150.77 292.77,-148.65 293.72,-155.59"/>
</a>
</g>
</g>
<!-- Node5 -->
<g id="Node000005" class="node">
<title>Node5</title>
<g id="a_Node000005"><a xlink:href="namespaceimpl.html#a4b658362afe7887c2a0aad8644cfb264" target="_top" xlink:title=" ">
<polygon fill="white" stroke="#666666" points="432.75,-88.75 282.5,-88.75 282.5,-70.25 432.75,-70.25 432.75,-88.75"/>
<text xml:space="preserve" text-anchor="middle" x="357.62" y="-75.25" font-family="Helvetica,sans-Serif" font-size="10.00">impl::get_species_names_impl</text>
</a>
</g>
</g>
<!-- Node4&#45;&gt;Node5 -->
<g id="edge4_Node000004_Node000005" class="edge">
<title>Node4&#45;&gt;Node5</title>
<g id="a_edge4_Node000004_Node000005"><a xlink:title=" ">
<path fill="none" stroke="#63b8ff" d="M246.94,-79.5C254.6,-79.5 262.66,-79.5 270.78,-79.5"/>
<polygon fill="#63b8ff" stroke="#63b8ff" points="270.76,-83 280.76,-79.5 270.76,-76 270.76,-83"/>
</a>
</g>
</g>
<!-- Node6 -->
<g id="Node000006" class="node">
<title>Node6</title>
<g id="a_Node000006"><a xlink:href="namespaceimpl.html#a1f45dc038ed3e9152927bf0dd7a45576" target="_top" xlink:title=" ">
<polygon fill="white" stroke="#666666" points="563.5,-88.75 468.75,-88.75 468.75,-70.25 563.5,-70.25 563.5,-88.75"/>
<text xml:space="preserve" text-anchor="middle" x="516.12" y="-75.25" font-family="Helvetica,sans-Serif" font-size="10.00">impl::iota_species</text>
</a>
</g>
</g>
<!-- Node5&#45;&gt;Node6 -->
<g id="edge5_Node000005_Node000006" class="edge">
<title>Node5&#45;&gt;Node6</title>
<g id="a_edge5_Node000005_Node000006"><a xlink:title=" ">
<path fill="none" stroke="#63b8ff" d="M433.21,-79.5C441.15,-79.5 449.15,-79.5 456.87,-79.5"/>
<polygon fill="#63b8ff" stroke="#63b8ff" points="456.82,-83 466.82,-79.5 456.82,-76 456.82,-83"/>
</a>
</g>
</g>
<!-- Node7&#45;&gt;Node7 -->
<g id="edge7_Node000007_Node000007" class="edge">
<title>Node7&#45;&gt;Node7</title>
<g id="a_edge7_Node000007_Node000007"><a xlink:title=" ">
<path fill="none" stroke="#63b8ff" d="M169.26,-29.21C163.32,-38.32 171.53,-47 193.88,-47 206.1,-47 214.09,-44.41 217.85,-40.56"/>
<polygon fill="#63b8ff" stroke="#63b8ff" points="221.34,-40.9 218.41,-30.72 214.35,-40.5 221.34,-40.9"/>
</a>
</g>
</g>
</g>
</svg>

<g id="navigator" transform="translate(0 0)" fill="#404254">
  <rect fill="#f2f5e9" fill-opacity="0.5" stroke="#606060" stroke-width=".5" x="0" y="0" width="60" height="60"/>
  <use id="zoomplus" xlink:href="#zoomPlus" x="17" y="9" onmousedown="handleZoom(evt,'in')"/>
  <use id="zoomminus" xlink:href="#zoomMin" x="42" y="9" onmousedown="handleZoom(evt,'out')"/>
  <use id="reset" xlink:href="#resetDef" x="30" y="36" onmousedown="handleReset()"/>
   <use id="arrowup" xlink:href="#arrowUp" x="0" y="0" onmousedown="handlePan(0,-1)"/>
  <use id="arrowright" xlink:href="#arrowRight" x="0" y="0" onmousedown="handlePan(1,0)"/>
  <use id="arrowdown" xlink:href="#arrowDown" x="0" y="0" onmousedown="handlePan(0,1)"/>
  <use id="arrowleft" xlink:href="#arrowLeft" x="0" y="0" onmousedown="handlePan(-1,0)"/>
</g>
<svg viewBox="0 0 15 15" width="100%" height="30px" preserveAspectRatio="xMaxYMin meet">
 <g id="arrow_out" transform="scale(0.3 0.3)">
  <a xlink:href="structMC_1_1MonteCarloUnit_a65991633938cf0822cad4ce297f02ee8_cgraph_org.svg" target="_base">
   <rect id="button" ry="5" rx="5" y="6" x="6" height="38" width="38"
        fill="#f2f5e9" fill-opacity="0.5" stroke="#606060" stroke-width="1.0"/>
   <path id="arrow"
     d="M 11.500037,31.436501 C 11.940474,20.09759 22.043105,11.32322 32.158766,21.979434 L 37.068811,17.246167 C 37.068811,17.246167 37.088388,32 37.088388,32 L 22.160133,31.978069 C 22.160133,31.978069 26.997745,27.140456 26.997745,27.140456 C 18.528582,18.264221 13.291696,25.230495 11.500037,31.436501 z"
     style="fill:#404040;"/>
  </a>
 </g>
</svg>

<style type='text/css'>
<![CDATA[
[data-mouse-over-selected='false'] { opacity: 0.7; }
[data-mouse-over-selected='true']  { opacity: 1.0; }
]]>
</style>
<script type="application/ecmascript"><![CDATA[
document.addEventListener('DOMContentLoaded', (event) => {
  highlightEdges();
  highlightAdjacentNodes();
});
]]></script>
</svg>
