<?xml version="1.0" encoding="UTF-8" standalone="no"?>
<!DOCTYPE svg PUBLIC "-//W3C//DTD SVG 1.1//EN"
 "http://www.w3.org/Graphics/SVG/1.1/DTD/svg11.dtd">
<!-- Generated by graphviz version 14.0.1 (0)
 -->
<!-- Title: ApiResult::to_c_ret_code Pages: 1 -->
<svg width="280pt" height="50pt"
 viewBox="0.00 0.00 280.00 50.00" xmlns="http://www.w3.org/2000/svg" xmlns:xlink="http://www.w3.org/1999/xlink">
<g id="graph0" class="graph" transform="scale(1 1) rotate(0) translate(4 45.75)">
<title>ApiResult::to_c_ret_code</title>
<!-- Node1 -->
<g id="Node000001" class="node">
<title>Node1</title>
<g id="a_Node000001"><a xlink:title=" ">
<polygon fill="#999999" stroke="#666666" points="125.5,-23.75 0,-23.75 0,-5.25 125.5,-5.25 125.5,-23.75"/>
<text xml:space="preserve" text-anchor="middle" x="62.75" y="-10.25" font-family="Helvetica,sans-Serif" font-size="10.00">ApiResult::to_c_ret_code</text>
</a>
</g>
</g>
<!-- Node1&#45;&gt;Node1 -->
<g id="edge1_Node000001_Node000001" class="edge">
<title>Node1&#45;&gt;Node1</title>
<g id="a_edge1_Node000001_Node000001"><a xlink:title=" ">
<path fill="none" stroke="#63b8ff" d="M39.01,-24C27.47,-32.57 35.38,-41.75 62.75,-41.75 78.15,-41.75 87.39,-38.84 90.47,-34.78"/>
<polygon fill="#63b8ff" stroke="#63b8ff" points="93.76,-33.58 87.01,-25.42 87.19,-36.01 93.76,-33.58"/>
</a>
</g>
</g>
<!-- Node2 -->
<g id="Node000002" class="node">
<title>Node2</title>
<g id="a_Node000002"><a xlink:href="structResult.html#a11cf7bc977f5a46e32ebf166dc982239" target="_top" xlink:title=" ">
<polygon fill="white" stroke="#666666" points="272,-29 161.5,-29 161.5,0 272,0 272,-29"/>
<text xml:space="preserve" text-anchor="start" x="169.5" y="-15.5" font-family="Helvetica,sans-Serif" font-size="10.00">Result&lt; Success, std</text>
<text xml:space="preserve" text-anchor="middle" x="216.75" y="-5" font-family="Helvetica,sans-Serif" font-size="10.00">::string &gt;::valid</text>
</a>
</g>
</g>
<!-- Node1&#45;&gt;Node2 -->
<g id="edge2_Node000001_Node000002" class="edge">
<title>Node1&#45;&gt;Node2</title>
<g id="a_edge2_Node000001_Node000002"><a xlink:title=" ">
<path fill="none" stroke="#63b8ff" d="M125.57,-14.5C133.62,-14.5 141.88,-14.5 149.99,-14.5"/>
<polygon fill="#63b8ff" stroke="#63b8ff" points="149.79,-18 159.79,-14.5 149.79,-11 149.79,-18"/>
</a>
</g>
</g>
</g>
</svg>
