<?xml version="1.0" encoding="UTF-8" standalone="no"?>
<!DOCTYPE svg PUBLIC "-//W3C//DTD SVG 1.1//EN"
 "http://www.w3.org/Graphics/SVG/1.1/DTD/svg11.dtd">
<!-- Generated by graphviz version 14.0.1 (0)
 -->
<!-- Title: Core::CaseData Pages: 1 -->
<svg width="261pt" height="169pt"
 viewBox="0.00 0.00 261.00 169.00" xmlns="http://www.w3.org/2000/svg" xmlns:xlink="http://www.w3.org/1999/xlink">
<g id="graph0" class="graph" transform="scale(1 1) rotate(0) translate(4 164.5)">
<title>Core::CaseData</title>
<!-- Node1 -->
<g id="Node000001" class="node">
<title>Node1</title>
<g id="a_Node000001"><a xlink:title="Holds the data required to execute a simulation case.">
<polygon fill="#999999" stroke="#666666" points="156.75,-18.5 71,-18.5 71,0 156.75,0 156.75,-18.5"/>
<text xml:space="preserve" text-anchor="middle" x="113.88" y="-5" font-family="Helvetica,sans-Serif" font-size="10.00">Core::CaseData</text>
</a>
</g>
</g>
<!-- Node2 -->
<g id="Node000002" class="node">
<title>Node2</title>
<g id="a_Node000002"><a xlink:href="structCore_1_1SimulationParameters.html" target="_top" xlink:title=" ">
<polygon fill="white" stroke="#666666" points="139.75,-89.5 0,-89.5 0,-71 139.75,-71 139.75,-89.5"/>
<text xml:space="preserve" text-anchor="middle" x="69.88" y="-76" font-family="Helvetica,sans-Serif" font-size="10.00">Core::SimulationParameters</text>
</a>
</g>
</g>
<!-- Node2&#45;&gt;Node1 -->
<g id="edge1_Node000001_Node000002" class="edge">
<title>Node2&#45;&gt;Node1</title>
<g id="a_edge1_Node000001_Node000002"><a xlink:title=" ">
<path fill="none" stroke="#9a32cd" stroke-dasharray="5,2" d="M81.45,-61.1C90.19,-47.39 101.79,-29.2 108.49,-18.7"/>
<polygon fill="#9a32cd" stroke="#9a32cd" points="78.69,-58.92 76.26,-69.23 84.59,-62.69 78.69,-58.92"/>
</a>
</g>
<text xml:space="preserve" text-anchor="start" x="100.11" y="-40.5" font-family="Helvetica,sans-Serif" font-size="10.00" fill="grey">params</text>
</g>
<!-- Node3 -->
<g id="Node000003" class="node">
<title>Node3</title>
<g id="a_Node000003"><a xlink:href="structExecInfo.html" target="_top" xlink:title=" ">
<polygon fill="white" stroke="#666666" points="212,-89.5 157.75,-89.5 157.75,-71 212,-71 212,-89.5"/>
<text xml:space="preserve" text-anchor="middle" x="184.88" y="-76" font-family="Helvetica,sans-Serif" font-size="10.00">ExecInfo</text>
</a>
</g>
</g>
<!-- Node3&#45;&gt;Node1 -->
<g id="edge2_Node000001_Node000003" class="edge">
<title>Node3&#45;&gt;Node1</title>
<g id="a_edge2_Node000001_Node000003"><a xlink:title=" ">
<path fill="none" stroke="#9a32cd" stroke-dasharray="5,2" d="M167.84,-62.69C153.57,-48.83 133.8,-29.61 122.57,-18.7"/>
<polygon fill="#9a32cd" stroke="#9a32cd" points="165.19,-65 174.8,-69.46 170.07,-59.98 165.19,-65"/>
</a>
</g>
<text xml:space="preserve" text-anchor="start" x="160.82" y="-40.5" font-family="Helvetica,sans-Serif" font-size="10.00" fill="grey">exec_info</text>
</g>
<!-- Node4 -->
<g id="Node000004" class="node">
<title>Node4</title>
<g id="a_Node000004"><a xlink:href="structKernelDispatchOptions.html" target="_top" xlink:title=" ">
<polygon fill="white" stroke="#666666" points="242.75,-160.5 127,-160.5 127,-142 242.75,-142 242.75,-160.5"/>
<text xml:space="preserve" text-anchor="middle" x="184.88" y="-147" font-family="Helvetica,sans-Serif" font-size="10.00">KernelDispatchOptions</text>
</a>
</g>
</g>
<!-- Node4&#45;&gt;Node3 -->
<g id="edge3_Node000003_Node000004" class="edge">
<title>Node4&#45;&gt;Node3</title>
<g id="a_edge3_Node000003_Node000004"><a xlink:title=" ">
<path fill="none" stroke="#9a32cd" stroke-dasharray="5,2" d="M184.88,-130.05C184.88,-116.63 184.88,-99.68 184.88,-89.7"/>
<polygon fill="#9a32cd" stroke="#9a32cd" points="181.38,-130 184.88,-140 188.38,-130 181.38,-130"/>
</a>
</g>
<text xml:space="preserve" text-anchor="start" x="187.88" y="-111.5" font-family="Helvetica,sans-Serif" font-size="10.00" fill="grey">kernel_options</text>
</g>
</g>
</svg>
