<?xml version="1.0" encoding="UTF-8" standalone="no"?>
<!DOCTYPE svg PUBLIC "-//W3C//DTD SVG 1.1//EN"
 "http://www.w3.org/Graphics/SVG/1.1/DTD/svg11.dtd">
<!-- Generated by graphviz version 14.0.1 (0)
 -->
<!-- Title: Simulation::KernelInline::CycleFunctors&lt; Space, Model &gt; Pages: 1 -->
<svg width="830pt" height="168pt"
 viewBox="0.00 0.00 830.00 168.00" xmlns="http://www.w3.org/2000/svg" xmlns:xlink="http://www.w3.org/1999/xlink">
<g id="graph0" class="graph" transform="scale(1 1) rotate(0) translate(4 163.75)">
<title>Simulation::KernelInline::CycleFunctors&lt; Space, Model &gt;</title>
<!-- Node1 -->
<g id="Node000001" class="node">
<title>Node1</title>
<g id="a_Node000001"><a xlink:title=" ">
<polygon fill="#999999" stroke="#666666" points="822.25,-110 696.75,-110 696.75,-70.5 822.25,-70.5 822.25,-110"/>
<text xml:space="preserve" text-anchor="start" x="704.75" y="-96.5" font-family="Helvetica,sans-Serif" font-size="10.00">Simulation::KernelInline</text>
<text xml:space="preserve" text-anchor="start" x="704.75" y="-86" font-family="Helvetica,sans-Serif" font-size="10.00">::CycleFunctors&lt; Space,</text>
<text xml:space="preserve" text-anchor="middle" x="759.5" y="-75.5" font-family="Helvetica,sans-Serif" font-size="10.00"> Model &gt;</text>
</a>
</g>
</g>
<!-- Node2 -->
<g id="Node000002" class="node">
<title>Node2</title>
<g id="a_Node000002"><a xlink:href="structSimulation_1_1KernelInline_1_1CycleFunctor.html" target="_top" xlink:title=" ">
<polygon fill="white" stroke="#666666" points="573.75,-151.75 449.75,-151.75 449.75,-122.75 573.75,-122.75 573.75,-151.75"/>
<text xml:space="preserve" text-anchor="start" x="457.75" y="-138.25" font-family="Helvetica,sans-Serif" font-size="10.00">Simulation::KernelInline</text>
<text xml:space="preserve" text-anchor="middle" x="511.75" y="-127.75" font-family="Helvetica,sans-Serif" font-size="10.00">::CycleFunctor&lt; Model &gt;</text>
</a>
</g>
</g>
<!-- Node2&#45;&gt;Node1 -->
<g id="edge1_Node000001_Node000002" class="edge">
<title>Node2&#45;&gt;Node1</title>
<g id="a_edge1_Node000001_Node000002"><a xlink:title=" ">
<path fill="none" stroke="#9a32cd" stroke-dasharray="5,2" d="M585.45,-127.51C614.58,-123.17 648.38,-117.61 678.75,-111.25 684.5,-110.05 690.45,-108.69 696.39,-107.26"/>
<polygon fill="#9a32cd" stroke="#9a32cd" points="585.01,-124.03 575.62,-128.94 586.02,-130.96 585.01,-124.03"/>
</a>
</g>
<text xml:space="preserve" text-anchor="start" x="608.62" y="-130.37" font-family="Helvetica,sans-Serif" font-size="10.00" fill="grey">cycle_kernel</text>
</g>
<!-- Node3 -->
<g id="Node000003" class="node">
<title>Node3</title>
<g id="a_Node000003"><a xlink:href="structSimulation_1_1KernelInline_1_1MoveFunctor.html" target="_top" xlink:title=" ">
<polygon fill="white" stroke="#666666" points="570.75,-104.75 452.75,-104.75 452.75,-75.75 570.75,-75.75 570.75,-104.75"/>
<text xml:space="preserve" text-anchor="start" x="460.75" y="-91.25" font-family="Helvetica,sans-Serif" font-size="10.00">Simulation::KernelInline</text>
<text xml:space="preserve" text-anchor="middle" x="511.75" y="-80.75" font-family="Helvetica,sans-Serif" font-size="10.00">::MoveFunctor</text>
</a>
</g>
</g>
<!-- Node3&#45;&gt;Node1 -->
<g id="edge2_Node000001_Node000003" class="edge">
<title>Node3&#45;&gt;Node1</title>
<g id="a_edge2_Node000001_Node000003"><a xlink:title=" ">
<path fill="none" stroke="#9a32cd" stroke-dasharray="5,2" d="M582.36,-90.25C618.24,-90.25 661.64,-90.25 696.38,-90.25"/>
<polygon fill="#9a32cd" stroke="#9a32cd" points="582.5,-86.75 572.5,-90.25 582.5,-93.75 582.5,-86.75"/>
</a>
</g>
<text xml:space="preserve" text-anchor="start" x="608.25" y="-94.25" font-family="Helvetica,sans-Serif" font-size="10.00" fill="grey">move_kernel</text>
</g>
<!-- Node4 -->
<g id="Node000004" class="node">
<title>Node4</title>
<g id="a_Node000004"><a xlink:href="structMC_1_1DomainState.html" target="_top" xlink:title=" ">
<polygon fill="white" stroke="#666666" points="356,-159.75 212.5,-159.75 212.5,-130.75 356,-130.75 356,-159.75"/>
<text xml:space="preserve" text-anchor="start" x="220.5" y="-146.25" font-family="Helvetica,sans-Serif" font-size="10.00">MC::DomainState&lt; Compute</text>
<text xml:space="preserve" text-anchor="middle" x="284.25" y="-135.75" font-family="Helvetica,sans-Serif" font-size="10.00">Space, true &gt;</text>
</a>
</g>
</g>
<!-- Node4&#45;&gt;Node3 -->
<g id="edge3_Node000003_Node000004" class="edge">
<title>Node4&#45;&gt;Node3</title>
<g id="a_edge3_Node000003_Node000004"><a xlink:title=" ">
<path fill="none" stroke="#9a32cd" stroke-dasharray="5,2" d="M367.4,-132.48C388.52,-128.55 411.1,-123.77 431.75,-118.25 445.24,-114.64 459.73,-109.8 472.56,-105.16"/>
<polygon fill="#9a32cd" stroke="#9a32cd" points="366.88,-129.01 357.66,-134.24 368.13,-135.9 366.88,-129.01"/>
</a>
</g>
<text xml:space="preserve" text-anchor="start" x="391.62" y="-134.87" font-family="Helvetica,sans-Serif" font-size="10.00" fill="grey">move</text>
</g>
<!-- Node5 -->
<g id="Node000005" class="node">
<title>Node5</title>
<g id="a_Node000005"><a xlink:href="structMC_1_1EventContainer.html" target="_top" xlink:title="Use to count events that occurs during Monte&#45;Carlo processing cycles.">
<polygon fill="white" stroke="#666666" points="336.5,-112.5 232,-112.5 232,-94 336.5,-94 336.5,-112.5"/>
<text xml:space="preserve" text-anchor="middle" x="284.25" y="-99" font-family="Helvetica,sans-Serif" font-size="10.00">MC::EventContainer</text>
</a>
</g>
</g>
<!-- Node5&#45;&gt;Node3 -->
<g id="edge4_Node000003_Node000005" class="edge">
<title>Node5&#45;&gt;Node3</title>
<g id="a_edge4_Node000003_Node000005"><a xlink:title=" ">
<path fill="none" stroke="#9a32cd" stroke-dasharray="5,2" d="M348.23,-99.62C380.9,-97.74 420.55,-95.45 452.51,-93.61"/>
<polygon fill="#9a32cd" stroke="#9a32cd" points="348.28,-96.11 338.5,-100.18 348.68,-103.1 348.28,-96.11"/>
</a>
</g>
<text xml:space="preserve" text-anchor="start" x="389" y="-101.91" font-family="Helvetica,sans-Serif" font-size="10.00" fill="grey">events</text>
</g>
<!-- Node6 -->
<g id="Node000006" class="node">
<title>Node6</title>
<g id="a_Node000006"><a xlink:href="classSimulation_1_1Probes.html" target="_top" xlink:title=" ">
<polygon fill="white" stroke="#666666" points="344.38,-76 224.12,-76 224.12,-36.5 344.38,-36.5 344.38,-76"/>
<text xml:space="preserve" text-anchor="start" x="232.12" y="-62.5" font-family="Helvetica,sans-Serif" font-size="10.00">Simulation::Probes</text>
<text xml:space="preserve" text-anchor="start" x="232.12" y="-52" font-family="Helvetica,sans-Serif" font-size="10.00">&lt; AutoGenerated::probe</text>
<text xml:space="preserve" text-anchor="middle" x="284.25" y="-41.5" font-family="Helvetica,sans-Serif" font-size="10.00">_buffer_size &gt;</text>
</a>
</g>
</g>
<!-- Node6&#45;&gt;Node3 -->
<g id="edge5_Node000003_Node000006" class="edge">
<title>Node6&#45;&gt;Node3</title>
<g id="a_edge5_Node000003_Node000006"><a xlink:title=" ">
<path fill="none" stroke="#9a32cd" stroke-dasharray="5,2" d="M355.77,-64.17C379.91,-67.14 407.06,-70.77 431.75,-74.75 438.51,-75.84 445.58,-77.08 452.59,-78.37"/>
<polygon fill="#9a32cd" stroke="#9a32cd" points="356.4,-60.72 346.05,-62.99 355.55,-67.67 356.4,-60.72"/>
</a>
</g>
<text xml:space="preserve" text-anchor="start" x="388.62" y="-78.75" font-family="Helvetica,sans-Serif" font-size="10.00" fill="grey">probes</text>
</g>
<!-- Node7 -->
<g id="Node000007" class="node">
<title>Node7</title>
<g id="a_Node000007"><a xlink:href="structContributionFunctor.html" target="_top" xlink:title=" ">
<polygon fill="white" stroke="#666666" points="562.5,-47.75 461,-47.75 461,-18.75 562.5,-18.75 562.5,-47.75"/>
<text xml:space="preserve" text-anchor="start" x="469" y="-34.25" font-family="Helvetica,sans-Serif" font-size="10.00">ContributionFunctor</text>
<text xml:space="preserve" text-anchor="middle" x="511.75" y="-23.75" font-family="Helvetica,sans-Serif" font-size="10.00">&lt; Model &gt;</text>
</a>
</g>
</g>
<!-- Node7&#45;&gt;Node1 -->
<g id="edge6_Node000001_Node000007" class="edge">
<title>Node7&#45;&gt;Node1</title>
<g id="a_edge6_Node000001_Node000007"><a xlink:title=" ">
<path fill="none" stroke="#9a32cd" stroke-dasharray="5,2" d="M574.17,-46.22C605.53,-52.97 644.24,-61.52 678.75,-69.75 684.45,-71.11 690.37,-72.56 696.3,-74.04"/>
<polygon fill="#9a32cd" stroke="#9a32cd" points="574.97,-42.81 564.46,-44.13 573.5,-49.65 574.97,-42.81"/>
</a>
</g>
<text xml:space="preserve" text-anchor="start" x="594.75" y="-73.75" font-family="Helvetica,sans-Serif" font-size="10.00" fill="grey">contribution_kernel</text>
</g>
<!-- Node8 -->
<g id="Node000008" class="node">
<title>Node8</title>
<g id="a_Node000008"><a xlink:href="classMC_1_1ParticlesContainer.html" target="_top" xlink:title=" ">
<polygon fill="white" stroke="#666666" points="356.75,-18.5 211.75,-18.5 211.75,0 356.75,0 356.75,-18.5"/>
<text xml:space="preserve" text-anchor="middle" x="284.25" y="-5" font-family="Helvetica,sans-Serif" font-size="10.00">MC::ParticlesContainer&lt; M &gt;</text>
</a>
</g>
</g>
<!-- Node8&#45;&gt;Node7 -->
<g id="edge7_Node000007_Node000008" class="edge">
<title>Node8&#45;&gt;Node7</title>
<g id="a_edge7_Node000007_Node000008"><a xlink:title=" ">
<path fill="none" stroke="#9a32cd" stroke-dasharray="5,2" d="M368.33,-12.1C389.09,-13.36 411.28,-15.16 431.75,-17.75 441.18,-18.94 451.17,-20.6 460.77,-22.38"/>
<polygon fill="#9a32cd" stroke="#9a32cd" points="368.65,-8.62 358.47,-11.55 368.26,-15.61 368.65,-8.62"/>
</a>
</g>
<text xml:space="preserve" text-anchor="start" x="377.75" y="-21.75" font-family="Helvetica,sans-Serif" font-size="10.00" fill="grey">m_particles</text>
</g>
<!-- Node9 -->
<g id="Node000009" class="node">
<title>Node9</title>
<g id="a_Node000009"><a xlink:href="structMC_1_1RuntimeParameters.html" target="_top" xlink:title=" ">
<polygon fill="white" stroke="#666666" points="125.5,-18.5 0,-18.5 0,0 125.5,0 125.5,-18.5"/>
<text xml:space="preserve" text-anchor="middle" x="62.75" y="-5" font-family="Helvetica,sans-Serif" font-size="10.00">MC::RuntimeParameters</text>
</a>
</g>
</g>
<!-- Node9&#45;&gt;Node8 -->
<g id="edge8_Node000008_Node000009" class="edge">
<title>Node9&#45;&gt;Node8</title>
<g id="a_edge8_Node000008_Node000009"><a xlink:title=" ">
<path fill="none" stroke="#9a32cd" stroke-dasharray="5,2" d="M137.25,-9.25C161.12,-9.25 187.55,-9.25 211.3,-9.25"/>
<polygon fill="#9a32cd" stroke="#9a32cd" points="137.28,-5.75 127.28,-9.25 137.28,-12.75 137.28,-5.75"/>
</a>
</g>
<text xml:space="preserve" text-anchor="start" x="146.5" y="-13.25" font-family="Helvetica,sans-Serif" font-size="10.00" fill="grey">rt_params</text>
</g>
</g>
</svg>
