<?xml version="1.0" encoding="UTF-8" standalone="no"?>
<!DOCTYPE svg PUBLIC "-//W3C//DTD SVG 1.1//EN"
 "http://www.w3.org/Graphics/SVG/1.1/DTD/svg11.dtd">
<!-- Generated by graphviz version 14.0.1 (0)
 -->
<!-- Title: Models::TwoMetaNb::init Pages: 1 -->
<svg width="718pt" height="37pt"
 viewBox="0.00 0.00 718.00 37.00" xmlns="http://www.w3.org/2000/svg" xmlns:xlink="http://www.w3.org/1999/xlink">
<g id="graph0" class="graph" transform="scale(1 1) rotate(0) translate(4 33)">
<title>Models::TwoMetaNb::init</title>
<!-- Node1 -->
<g id="Node000001" class="node">
<title>Node1</title>
<g id="a_Node000001"><a xlink:title=" ">
<polygon fill="#999999" stroke="#666666" points="124,-23.75 0,-23.75 0,-5.25 124,-5.25 124,-23.75"/>
<text xml:space="preserve" text-anchor="middle" x="62" y="-10.25" font-family="Helvetica,sans-Serif" font-size="10.00">Models::TwoMetaNb::init</text>
</a>
</g>
</g>
<!-- Node2 -->
<g id="Node000002" class="node">
<title>Node2</title>
<g id="a_Node000002"><a xlink:href="structModels_1_1Uptake.html#a25452dbd4d5aadf1ef74d5745d8fbd9f" target="_top" xlink:title=" ">
<polygon fill="white" stroke="#666666" points="263,-23.75 160,-23.75 160,-5.25 263,-5.25 263,-23.75"/>
<text xml:space="preserve" text-anchor="middle" x="211.5" y="-10.25" font-family="Helvetica,sans-Serif" font-size="10.00">Models::Uptake::init</text>
</a>
</g>
</g>
<!-- Node1&#45;&gt;Node2 -->
<g id="edge1_Node000001_Node000002" class="edge">
<title>Node1&#45;&gt;Node2</title>
<g id="a_edge1_Node000001_Node000002"><a xlink:title=" ">
<path fill="none" stroke="#63b8ff" d="M124.27,-14.5C132.34,-14.5 140.62,-14.5 148.7,-14.5"/>
<polygon fill="#63b8ff" stroke="#63b8ff" points="148.43,-18 158.43,-14.5 148.43,-11 148.43,-18"/>
</a>
</g>
</g>
<!-- Node3 -->
<g id="Node000003" class="node">
<title>Node3</title>
<g id="a_Node000003"><a xlink:href="structMC_1_1Distributions_1_1TruncatedNormal.html#af6cfcdb1f39978352e55fc5c5f729462" target="_top" xlink:title=" ">
<polygon fill="white" stroke="#666666" points="441,-29 299,-29 299,0 441,0 441,-29"/>
<text xml:space="preserve" text-anchor="start" x="307" y="-15.5" font-family="Helvetica,sans-Serif" font-size="10.00">MC::Distributions::</text>
<text xml:space="preserve" text-anchor="middle" x="370" y="-5" font-family="Helvetica,sans-Serif" font-size="10.00">TruncatedNormal::draw_from</text>
</a>
</g>
</g>
<!-- Node2&#45;&gt;Node3 -->
<g id="edge2_Node000002_Node000003" class="edge">
<title>Node2&#45;&gt;Node3</title>
<g id="a_edge2_Node000002_Node000003"><a xlink:title=" ">
<path fill="none" stroke="#63b8ff" d="M263.31,-14.5C270.95,-14.5 279,-14.5 287.09,-14.5"/>
<polygon fill="#63b8ff" stroke="#63b8ff" points="287.02,-18 297.02,-14.5 287.02,-11 287.02,-18"/>
</a>
</g>
</g>
<!-- Node4 -->
<g id="Node000004" class="node">
<title>Node4</title>
<g id="a_Node000004"><a xlink:href="namespaceMC_1_1Distributions.html#a3c07f6cf61b1c67ea9b2b3e0d6c42cc7" target="_top" xlink:title="Computes the inverse CDF (probit function) of a normal distribution.">
<polygon fill="white" stroke="#666666" points="575.5,-29 477,-29 477,0 575.5,0 575.5,-29"/>
<text xml:space="preserve" text-anchor="start" x="485" y="-15.5" font-family="Helvetica,sans-Serif" font-size="10.00">MC::Distributions::</text>
<text xml:space="preserve" text-anchor="middle" x="526.25" y="-5" font-family="Helvetica,sans-Serif" font-size="10.00">norminv</text>
</a>
</g>
</g>
<!-- Node3&#45;&gt;Node4 -->
<g id="edge3_Node000003_Node000004" class="edge">
<title>Node3&#45;&gt;Node4</title>
<g id="a_edge3_Node000003_Node000004"><a xlink:title=" ">
<path fill="none" stroke="#63b8ff" d="M441.35,-14.5C449.36,-14.5 457.47,-14.5 465.32,-14.5"/>
<polygon fill="#63b8ff" stroke="#63b8ff" points="465.1,-18 475.1,-14.5 465.1,-11 465.1,-18"/>
</a>
</g>
</g>
<!-- Node5 -->
<g id="Node000005" class="node">
<title>Node5</title>
<g id="a_Node000005"><a xlink:href="namespaceMC_1_1Distributions.html#a351272c0fa13e73d23c7b1caf92e858f" target="_top" xlink:title="Computes an approximation of the inverse error function.">
<polygon fill="white" stroke="#666666" points="710,-29 611.5,-29 611.5,0 710,0 710,-29"/>
<text xml:space="preserve" text-anchor="start" x="619.5" y="-15.5" font-family="Helvetica,sans-Serif" font-size="10.00">MC::Distributions::</text>
<text xml:space="preserve" text-anchor="middle" x="660.75" y="-5" font-family="Helvetica,sans-Serif" font-size="10.00">erfinv</text>
</a>
</g>
</g>
<!-- Node4&#45;&gt;Node5 -->
<g id="edge4_Node000004_Node000005" class="edge">
<title>Node4&#45;&gt;Node5</title>
<g id="a_edge4_Node000004_Node000005"><a xlink:title=" ">
<path fill="none" stroke="#63b8ff" d="M575.84,-14.5C583.67,-14.5 591.85,-14.5 599.91,-14.5"/>
<polygon fill="#63b8ff" stroke="#63b8ff" points="599.66,-18 609.66,-14.5 599.66,-11 599.66,-18"/>
</a>
</g>
</g>
</g>
</svg>
