<?xml version="1.0" encoding="UTF-8" standalone="no"?>
<!DOCTYPE svg PUBLIC "-//W3C//DTD SVG 1.1//EN"
 "http://www.w3.org/Graphics/SVG/1.1/DTD/svg11.dtd">
<!-- Generated by graphviz version 12.1.2 (0)
 -->
<!-- Title: MC::MonteCarloUnit Pages: 1 -->
<svg width="327pt" height="92pt"
 viewBox="0.00 0.00 326.75 91.50" xmlns="http://www.w3.org/2000/svg" xmlns:xlink="http://www.w3.org/1999/xlink">
<g id="graph0" class="graph" transform="scale(1 1) rotate(0) translate(4 87.5)">
<title>MC::MonteCarloUnit</title>
<!-- Node1 -->
<g id="Node000001" class="node">
<title>Node1</title>
<g id="a_Node000001"><a xlink:title="General&#45;purpose Monte Carlo unit to carry out simulations.">
<polygon fill="#999999" stroke="#666666" points="227.88,-18.5 122.62,-18.5 122.62,0 227.88,0 227.88,-18.5"/>
<text text-anchor="middle" x="175.25" y="-5" font-family="Helvetica,sans-Serif" font-size="10.00">MC::MonteCarloUnit</text>
</a>
</g>
</g>
<!-- Node2 -->
<g id="Node000002" class="node">
<title>Node2</title>
<g id="a_Node000002"><a xlink:href="structMC_1_1EventContainer.html" target="_top" xlink:title="Use to count events that occurs during Monte&#45;Carlo processing cycles.">
<polygon fill="white" stroke="#666666" points="104.5,-83.5 0,-83.5 0,-65 104.5,-65 104.5,-83.5"/>
<text text-anchor="middle" x="52.25" y="-70" font-family="Helvetica,sans-Serif" font-size="10.00">MC::EventContainer</text>
</a>
</g>
</g>
<!-- Node2&#45;&gt;Node1 -->
<g id="edge1_Node000001_Node000002" class="edge">
<title>Node2&#45;&gt;Node1</title>
<g id="a_edge1_Node000001_Node000002"><a xlink:title=" ">
<path fill="none" stroke="#9a32cd" stroke-dasharray="5,2" d="M79.33,-59.38C103.39,-47.06 137.81,-29.42 158.21,-18.98"/>
<polygon fill="#9a32cd" stroke="#9a32cd" points="77.75,-56.26 70.44,-63.93 80.94,-62.49 77.75,-56.26"/>
</a>
</g>
<text text-anchor="middle" x="136.86" y="-37.5" font-family="Helvetica,sans-Serif" font-size="10.00" fill="grey"> events</text>
</g>
<!-- Node3 -->
<g id="Node000003" class="node">
<title>Node3</title>
<g id="a_Node000003"><a xlink:href="classMC_1_1ReactorDomain.html" target="_top" xlink:title="Represents the spatial domain where Monte Carlo particles can exist.">
<polygon fill="white" stroke="#666666" points="227.88,-83.5 122.62,-83.5 122.62,-65 227.88,-65 227.88,-83.5"/>
<text text-anchor="middle" x="175.25" y="-70" font-family="Helvetica,sans-Serif" font-size="10.00">MC::ReactorDomain</text>
</a>
</g>
</g>
<!-- Node3&#45;&gt;Node1 -->
<g id="edge2_Node000001_Node000003" class="edge">
<title>Node3&#45;&gt;Node1</title>
<g id="a_edge2_Node000001_Node000003"><a xlink:title=" ">
<path fill="none" stroke="#9a32cd" stroke-dasharray="5,2" d="M175.25,-53.39C175.25,-41.66 175.25,-27.44 175.25,-18.61"/>
<polygon fill="#9a32cd" stroke="#9a32cd" points="171.75,-53.24 175.25,-63.24 178.75,-53.24 171.75,-53.24"/>
</a>
</g>
<text text-anchor="middle" x="192.5" y="-37.5" font-family="Helvetica,sans-Serif" font-size="10.00" fill="grey"> domain</text>
</g>
<!-- Node4 -->
<g id="Node000004" class="node">
<title>Node4</title>
<g id="a_Node000004"><a xlink:href="classMC_1_1KPRNG.html" target="_top" xlink:title="Utilities and wrap around kokkos random generator.">
<polygon fill="white" stroke="#666666" points="318.75,-83.5 245.75,-83.5 245.75,-65 318.75,-65 318.75,-83.5"/>
<text text-anchor="middle" x="282.25" y="-70" font-family="Helvetica,sans-Serif" font-size="10.00">MC::KPRNG</text>
</a>
</g>
</g>
<!-- Node4&#45;&gt;Node1 -->
<g id="edge3_Node000001_Node000004" class="edge">
<title>Node4&#45;&gt;Node1</title>
<g id="a_edge3_Node000001_Node000004"><a xlink:title=" ">
<path fill="none" stroke="#9a32cd" stroke-dasharray="5,2" d="M258.02,-58.98C237.02,-46.62 207.32,-29.13 189.79,-18.81"/>
<polygon fill="#9a32cd" stroke="#9a32cd" points="256.12,-61.93 266.52,-63.99 259.67,-55.9 256.12,-61.93"/>
</a>
</g>
<text text-anchor="middle" x="243.41" y="-37.5" font-family="Helvetica,sans-Serif" font-size="10.00" fill="grey"> rng</text>
</g>
</g>
</svg>
