<?xml version="1.0" encoding="UTF-8" standalone="no"?>
<!DOCTYPE svg PUBLIC "-//W3C//DTD SVG 1.1//EN"
 "http://www.w3.org/Graphics/SVG/1.1/DTD/svg11.dtd">
<!-- Generated by graphviz version 14.0.1 (0)
 -->
<!-- Title: Models::TwoMetaNb::division Pages: 1 -->
<svg width="726pt" height="51pt"
 viewBox="0.00 0.00 726.00 51.00" xmlns="http://www.w3.org/2000/svg" xmlns:xlink="http://www.w3.org/1999/xlink">
<g id="graph0" class="graph" transform="scale(1 1) rotate(0) translate(4 46.75)">
<title>Models::TwoMetaNb::division</title>
<!-- Node1 -->
<g id="Node000001" class="node">
<title>Node1</title>
<g id="a_Node000001"><a xlink:title=" ">
<polygon fill="#999999" stroke="#666666" points="111.25,-29 0,-29 0,0 111.25,0 111.25,-29"/>
<text xml:space="preserve" text-anchor="start" x="8" y="-15.5" font-family="Helvetica,sans-Serif" font-size="10.00">Models::TwoMetaNb::</text>
<text xml:space="preserve" text-anchor="middle" x="55.62" y="-5" font-family="Helvetica,sans-Serif" font-size="10.00">division</text>
</a>
</g>
</g>
<!-- Node2 -->
<g id="Node000002" class="node">
<title>Node2</title>
<g id="a_Node000002"><a xlink:href="structModels_1_1Uptake.html#a24e2b8c243d651080c131379e044bc15" target="_top" xlink:title=" ">
<polygon fill="white" stroke="#666666" points="270.5,-42.75 147.25,-42.75 147.25,-24.25 270.5,-24.25 270.5,-42.75"/>
<text xml:space="preserve" text-anchor="middle" x="208.88" y="-29.25" font-family="Helvetica,sans-Serif" font-size="10.00">Models::Uptake::division</text>
</a>
</g>
</g>
<!-- Node1&#45;&gt;Node2 -->
<g id="edge1_Node000001_Node000002" class="edge">
<title>Node1&#45;&gt;Node2</title>
<g id="a_edge1_Node000001_Node000002"><a xlink:title=" ">
<path fill="none" stroke="#63b8ff" d="M111.66,-21.41C119.47,-22.39 127.59,-23.41 135.66,-24.43"/>
<polygon fill="#63b8ff" stroke="#63b8ff" points="135.14,-27.89 145.5,-25.66 136.02,-20.95 135.14,-27.89"/>
</a>
</g>
</g>
<!-- Node3 -->
<g id="Node000003" class="node">
<title>Node3</title>
<g id="a_Node000003"><a xlink:href="structMC_1_1Distributions_1_1TruncatedNormal.html#af6cfcdb1f39978352e55fc5c5f729462" target="_top" xlink:title=" ">
<polygon fill="white" stroke="#666666" points="448.5,-29 306.5,-29 306.5,0 448.5,0 448.5,-29"/>
<text xml:space="preserve" text-anchor="start" x="314.5" y="-15.5" font-family="Helvetica,sans-Serif" font-size="10.00">MC::Distributions::</text>
<text xml:space="preserve" text-anchor="middle" x="377.5" y="-5" font-family="Helvetica,sans-Serif" font-size="10.00">TruncatedNormal::draw_from</text>
</a>
</g>
</g>
<!-- Node1&#45;&gt;Node3 -->
<g id="edge5_Node000001_Node000003" class="edge">
<title>Node1&#45;&gt;Node3</title>
<g id="a_edge5_Node000001_Node000003"><a xlink:title=" ">
<path fill="none" stroke="#63b8ff" d="M111.61,-14.5C162.02,-14.5 237.33,-14.5 294.77,-14.5"/>
<polygon fill="#63b8ff" stroke="#63b8ff" points="294.5,-18 304.5,-14.5 294.5,-11 294.5,-18"/>
</a>
</g>
</g>
<!-- Node2&#45;&gt;Node3 -->
<g id="edge2_Node000002_Node000003" class="edge">
<title>Node2&#45;&gt;Node3</title>
<g id="a_edge2_Node000002_Node000003"><a xlink:title=" ">
<path fill="none" stroke="#63b8ff" d="M270.97,-26.53C278.74,-25.65 286.78,-24.73 294.8,-23.82"/>
<polygon fill="#63b8ff" stroke="#63b8ff" points="295.06,-27.31 304.6,-22.7 294.27,-20.35 295.06,-27.31"/>
</a>
</g>
</g>
<!-- Node4 -->
<g id="Node000004" class="node">
<title>Node4</title>
<g id="a_Node000004"><a xlink:href="namespaceMC_1_1Distributions.html#a3c07f6cf61b1c67ea9b2b3e0d6c42cc7" target="_top" xlink:title="Computes the inverse CDF (probit function) of a normal distribution.">
<polygon fill="white" stroke="#666666" points="583,-29 484.5,-29 484.5,0 583,0 583,-29"/>
<text xml:space="preserve" text-anchor="start" x="492.5" y="-15.5" font-family="Helvetica,sans-Serif" font-size="10.00">MC::Distributions::</text>
<text xml:space="preserve" text-anchor="middle" x="533.75" y="-5" font-family="Helvetica,sans-Serif" font-size="10.00">norminv</text>
</a>
</g>
</g>
<!-- Node3&#45;&gt;Node4 -->
<g id="edge3_Node000003_Node000004" class="edge">
<title>Node3&#45;&gt;Node4</title>
<g id="a_edge3_Node000003_Node000004"><a xlink:title=" ">
<path fill="none" stroke="#63b8ff" d="M448.85,-14.5C456.86,-14.5 464.97,-14.5 472.82,-14.5"/>
<polygon fill="#63b8ff" stroke="#63b8ff" points="472.6,-18 482.6,-14.5 472.6,-11 472.6,-18"/>
</a>
</g>
</g>
<!-- Node5 -->
<g id="Node000005" class="node">
<title>Node5</title>
<g id="a_Node000005"><a xlink:href="namespaceMC_1_1Distributions.html#a351272c0fa13e73d23c7b1caf92e858f" target="_top" xlink:title="Computes an approximation of the inverse error function.">
<polygon fill="white" stroke="#666666" points="717.5,-29 619,-29 619,0 717.5,0 717.5,-29"/>
<text xml:space="preserve" text-anchor="start" x="627" y="-15.5" font-family="Helvetica,sans-Serif" font-size="10.00">MC::Distributions::</text>
<text xml:space="preserve" text-anchor="middle" x="668.25" y="-5" font-family="Helvetica,sans-Serif" font-size="10.00">erfinv</text>
</a>
</g>
</g>
<!-- Node4&#45;&gt;Node5 -->
<g id="edge4_Node000004_Node000005" class="edge">
<title>Node4&#45;&gt;Node5</title>
<g id="a_edge4_Node000004_Node000005"><a xlink:title=" ">
<path fill="none" stroke="#63b8ff" d="M583.34,-14.5C591.17,-14.5 599.35,-14.5 607.41,-14.5"/>
<polygon fill="#63b8ff" stroke="#63b8ff" points="607.16,-18 617.16,-14.5 607.16,-11 607.16,-18"/>
</a>
</g>
</g>
</g>
</svg>
