<?xml version="1.0" encoding="UTF-8" standalone="no"?>
<!DOCTYPE svg PUBLIC "-//W3C//DTD SVG 1.1//EN"
 "http://www.w3.org/Graphics/SVG/1.1/DTD/svg11.dtd">
<!-- Generated by graphviz version 14.0.1 (0)
 -->
<!-- Title: Api::SimulationInstance::apply Pages: 1 -->
<!--zoomable 392 -->

<svg id="main" version="1.1" xmlns="http://www.w3.org/2000/svg" xmlns:xlink="http://www.w3.org/1999/xlink" xml:space="preserve" onload="init(evt)">

<style type="text/css"><![CDATA[
.node, .edge {opacity: 0.7;}
.node.selected, .edge.selected {opacity: 1;}
.edge:hover path { stroke: red; }
.edge:hover polygon { stroke: red; fill: red; }
]]></style>

<defs>
  <circle id="rim" cx="0" cy="0" r="7"/>
  <circle id="rim2" cx="0" cy="0" r="3.5"/>
  <g id="zoomPlus">
    <use xlink:href="#rim" fill="#404040"><set attributeName="fill" to="#808080" begin="zoomplus.mouseover" end="zoomplus.mouseout"/></use>
    <path d="M-4,0h8M0,-4v8" fill="none" stroke="white" stroke-width="1.5" pointer-events="none"/>
  </g>
  <g id="zoomMin">
    <use xlink:href="#rim" fill="#404040"><set attributeName="fill" to="#808080" begin="zoomminus.mouseover" end="zoomminus.mouseout"/></use>
    <path d="M-4,0h8" fill="none" stroke="white" stroke-width="1.5" pointer-events="none"/>
  </g>
  <g id="arrowUp" transform="translate(30 24)">
    <use xlink:href="#rim"/>
    <path pointer-events="none" fill="none" stroke="white" stroke-width="1.5" d="M0,-3.0v7 M-2.5,-0.5L0,-3.0L2.5,-0.5"/>
  </g>
  <g id="arrowRight" transform="rotate(90) translate(36 -43)">
    <use xlink:href="#rim"/>
    <path pointer-events="none" fill="none" stroke="white" stroke-width="1.5" d="M0,-3.0v7 M-2.5,-0.5L0,-3.0L2.5,-0.5"/>
  </g>
  <g id="arrowDown" transform="rotate(180) translate(-30 -48)">
    <use xlink:href="#rim"/>
    <path pointer-events="none" fill="none" stroke="white" stroke-width="1.5" d="M0,-3.0v7 M-2.5,-0.5L0,-3.0L2.5,-0.5"/>
  </g>
  <g id="arrowLeft" transform="rotate(270) translate(-36 17)">
    <use xlink:href="#rim"/>
    <path pointer-events="none" fill="none" stroke="white" stroke-width="1.5" d="M0,-3.0v7 M-2.5,-0.5L0,-3.0L2.5,-0.5"/>
  </g>
  <g id="resetDef">
    <use xlink:href="#rim2" fill="#404040"><set attributeName="fill" to="#808080" begin="reset.mouseover" end="reset.mouseout"/></use>
  </g>
</defs>
<script type="application/ecmascript">
var viewWidth = 882;
var viewHeight = 392;
var sectionId = 'dynsection-6';
</script>
<script type="application/ecmascript" xlink:href="svg.min.js"/>
<svg id="graph" class="graph">
<g id="viewport">
<title>Api::SimulationInstance::apply</title>
<!-- Node1 -->
<g id="Node000001" class="node">
<title>Node1</title>
<g id="a_Node000001"><a xlink:title="Apply the simulation configuration and prepare for execution.">
<polygon fill="#999999" stroke="#666666" points="119.5,-223.75 0,-223.75 0,-194.75 119.5,-194.75 119.5,-223.75"/>
<text xml:space="preserve" text-anchor="start" x="8" y="-210.25" font-family="Helvetica,sans-Serif" font-size="10.00">Api::SimulationInstance</text>
<text xml:space="preserve" text-anchor="middle" x="59.75" y="-199.75" font-family="Helvetica,sans-Serif" font-size="10.00">::apply</text>
</a>
</g>
</g>
<!-- Node2 -->
<g id="Node000002" class="node">
<title>Node2</title>
<g id="a_Node000002"><a xlink:href="classCore_1_1GlobalInitialiser.html#af0e3ff388be6a2cb08edf9f69dd200b0" target="_top" xlink:title="Checks if all initialization steps have been validated.">
<polygon fill="white" stroke="#666666" points="267.5,-360.75 155.5,-360.75 155.5,-331.75 267.5,-331.75 267.5,-360.75"/>
<text xml:space="preserve" text-anchor="start" x="163.5" y="-347.25" font-family="Helvetica,sans-Serif" font-size="10.00">Core::GlobalInitialiser</text>
<text xml:space="preserve" text-anchor="middle" x="211.5" y="-336.75" font-family="Helvetica,sans-Serif" font-size="10.00">::check_init_terminate</text>
</a>
</g>
</g>
<!-- Node1&#45;&gt;Node2 -->
<g id="edge1_Node000001_Node000002" class="edge">
<title>Node1&#45;&gt;Node2</title>
<g id="a_edge1_Node000001_Node000002"><a xlink:title=" ">
<path fill="none" stroke="#63b8ff" d="M74.3,-224.03C92.2,-243.25 125.01,-277.54 155.5,-304.25 163.38,-311.15 172.27,-318.23 180.57,-324.55"/>
<polygon fill="#63b8ff" stroke="#63b8ff" points="178.3,-327.22 188.4,-330.42 182.5,-321.62 178.3,-327.22"/>
</a>
</g>
</g>
<!-- Node4 -->
<g id="Node000004" class="node">
<title>Node4</title>
<g id="a_Node000004"><a xlink:href="classCore_1_1GlobalInitialiser.html#ae6d2f54a18d82dda373f9cd7ec923eac" target="_top" xlink:title=" ">
<polygon fill="white" stroke="#666666" points="266.38,-96.75 156.62,-96.75 156.62,-67.75 266.38,-67.75 266.38,-96.75"/>
<text xml:space="preserve" text-anchor="start" x="164.62" y="-83.25" font-family="Helvetica,sans-Serif" font-size="10.00">Core::GlobalInitialiser</text>
<text xml:space="preserve" text-anchor="middle" x="211.5" y="-72.75" font-family="Helvetica,sans-Serif" font-size="10.00">::get_parameters</text>
</a>
</g>
</g>
<!-- Node1&#45;&gt;Node4 -->
<g id="edge4_Node000001_Node000004" class="edge">
<title>Node1&#45;&gt;Node4</title>
<g id="a_edge4_Node000001_Node000004"><a xlink:title=" ">
<path fill="none" stroke="#63b8ff" d="M71.16,-194.48C87.15,-172.7 119.69,-131.78 155.5,-106.25 157.28,-104.98 159.14,-103.76 161.05,-102.58"/>
<polygon fill="#63b8ff" stroke="#63b8ff" points="162.57,-105.75 169.62,-97.84 159.17,-99.62 162.57,-105.75"/>
</a>
</g>
</g>
<!-- Node5 -->
<g id="Node000005" class="node">
<title>Node5</title>
<g id="a_Node000005"><a xlink:href="classCore_1_1GlobalInitialiser.html#aefbbc9e413134e0e080df2218316fe63" target="_top" xlink:title="Initializes a simulation feed.">
<polygon fill="white" stroke="#666666" points="413.25,-242.75 303.5,-242.75 303.5,-213.75 413.25,-213.75 413.25,-242.75"/>
<text xml:space="preserve" text-anchor="start" x="311.5" y="-229.25" font-family="Helvetica,sans-Serif" font-size="10.00">Core::GlobalInitialiser</text>
<text xml:space="preserve" text-anchor="middle" x="358.38" y="-218.75" font-family="Helvetica,sans-Serif" font-size="10.00">::init_feed</text>
</a>
</g>
</g>
<!-- Node1&#45;&gt;Node5 -->
<g id="edge5_Node000001_Node000005" class="edge">
<title>Node1&#45;&gt;Node5</title>
<g id="a_edge5_Node000001_Node000005"><a xlink:title=" ">
<path fill="none" stroke="#63b8ff" d="M119.71,-213.03C169.34,-216.21 240.27,-220.75 291.71,-224.04"/>
<polygon fill="#63b8ff" stroke="#63b8ff" points="291.31,-227.53 301.52,-224.67 291.76,-220.54 291.31,-227.53"/>
</a>
</g>
</g>
<!-- Node8 -->
<g id="Node000008" class="node">
<title>Node8</title>
<g id="a_Node000008"><a xlink:href="classCore_1_1GlobalInitialiser.html#adf72113e43a445c6afdb993c0fadeeca" target="_top" xlink:title=" ">
<polygon fill="white" stroke="#666666" points="413.25,-195.75 303.5,-195.75 303.5,-166.75 413.25,-166.75 413.25,-195.75"/>
<text xml:space="preserve" text-anchor="start" x="311.5" y="-182.25" font-family="Helvetica,sans-Serif" font-size="10.00">Core::GlobalInitialiser</text>
<text xml:space="preserve" text-anchor="middle" x="358.38" y="-171.75" font-family="Helvetica,sans-Serif" font-size="10.00">::init_mtr_model</text>
</a>
</g>
</g>
<!-- Node1&#45;&gt;Node8 -->
<g id="edge8_Node000001_Node000008" class="edge">
<title>Node1&#45;&gt;Node8</title>
<g id="a_edge8_Node000001_Node000008"><a xlink:title=" ">
<path fill="none" stroke="#63b8ff" d="M119.71,-203.68C169.34,-199 240.27,-192.3 291.71,-187.45"/>
<polygon fill="#63b8ff" stroke="#63b8ff" points="291.89,-190.95 301.52,-186.52 291.23,-183.98 291.89,-190.95"/>
</a>
</g>
</g>
<!-- Node10 -->
<g id="Node000010" class="node">
<title>Node10</title>
<g id="a_Node000010"><a xlink:href="classCore_1_1GlobalInitialiser.html#a00d0e7a7d549bf06886dfc3ba9de3e3d" target="_top" xlink:title="Initializes a simulation unit.">
<polygon fill="white" stroke="#666666" points="266.38,-143.75 156.62,-143.75 156.62,-114.75 266.38,-114.75 266.38,-143.75"/>
<text xml:space="preserve" text-anchor="start" x="164.62" y="-130.25" font-family="Helvetica,sans-Serif" font-size="10.00">Core::GlobalInitialiser</text>
<text xml:space="preserve" text-anchor="middle" x="211.5" y="-119.75" font-family="Helvetica,sans-Serif" font-size="10.00">::init_simulation</text>
</a>
</g>
</g>
<!-- Node1&#45;&gt;Node10 -->
<g id="edge12_Node000001_Node000010" class="edge">
<title>Node1&#45;&gt;Node10</title>
<g id="a_edge12_Node000001_Node000010"><a xlink:title=" ">
<path fill="none" stroke="#63b8ff" d="M88.57,-194.39C112.24,-181.74 146.46,-163.46 172.63,-149.48"/>
<polygon fill="#63b8ff" stroke="#63b8ff" points="174.07,-152.68 181.24,-144.88 170.77,-146.5 174.07,-152.68"/>
</a>
</g>
</g>
<!-- Node18 -->
<g id="Node000018" class="node">
<title>Node18</title>
<g id="a_Node000018"><a xlink:href="classCore_1_1GlobalInitialiser.html#a0dc2da93c4202706b5f37453f355145c" target="_top" xlink:title="Initializes a transitioner with the provided flow iterator.">
<polygon fill="white" stroke="#666666" points="266.38,-294.75 156.62,-294.75 156.62,-265.75 266.38,-265.75 266.38,-294.75"/>
<text xml:space="preserve" text-anchor="start" x="164.62" y="-281.25" font-family="Helvetica,sans-Serif" font-size="10.00">Core::GlobalInitialiser</text>
<text xml:space="preserve" text-anchor="middle" x="211.5" y="-270.75" font-family="Helvetica,sans-Serif" font-size="10.00">::init_transitionner</text>
</a>
</g>
</g>
<!-- Node1&#45;&gt;Node18 -->
<g id="edge27_Node000001_Node000018" class="edge">
<title>Node1&#45;&gt;Node18</title>
<g id="a_edge27_Node000001_Node000018"><a xlink:title=" ">
<path fill="none" stroke="#63b8ff" d="M92.14,-224.13C114.33,-234.65 144.32,-248.87 168.55,-260.36"/>
<polygon fill="#63b8ff" stroke="#63b8ff" points="166.99,-263.49 177.52,-264.62 169.99,-257.17 166.99,-263.49"/>
</a>
</g>
</g>
<!-- Node3 -->
<g id="Node000003" class="node">
<title>Node3</title>
<g id="a_Node000003"><a xlink:href="namespaceIO.html#a30cc77fc5c4d45d3b56ef6a299ce2383" target="_top" xlink:title=" ">
<polygon fill="white" stroke="#666666" points="388.5,-365.5 328.25,-365.5 328.25,-347 388.5,-347 388.5,-365.5"/>
<text xml:space="preserve" text-anchor="middle" x="358.38" y="-352" font-family="Helvetica,sans-Serif" font-size="10.00">IO::format</text>
</a>
</g>
</g>
<!-- Node2&#45;&gt;Node3 -->
<g id="edge2_Node000002_Node000003" class="edge">
<title>Node2&#45;&gt;Node3</title>
<g id="a_edge2_Node000002_Node000003"><a xlink:title=" ">
<path fill="none" stroke="#63b8ff" d="M267.68,-350.06C284,-351.19 301.55,-352.4 316.76,-353.45"/>
<polygon fill="#63b8ff" stroke="#63b8ff" points="316.16,-356.91 326.37,-354.11 316.64,-349.93 316.16,-356.91"/>
</a>
</g>
</g>
<!-- Node3&#45;&gt;Node3 -->
<g id="edge3_Node000003_Node000003" class="edge">
<title>Node3&#45;&gt;Node3</title>
<g id="a_edge3_Node000003_Node000003"><a xlink:title=" ">
<path fill="none" stroke="#63b8ff" d="M335.74,-365.75C324.72,-374.32 332.27,-383.5 358.38,-383.5 373.06,-383.5 381.87,-380.59 384.81,-376.53"/>
<polygon fill="#63b8ff" stroke="#63b8ff" points="388.14,-375.44 381.52,-367.17 381.54,-377.77 388.14,-375.44"/>
</a>
</g>
</g>
<!-- Node6 -->
<g id="Node000006" class="node">
<title>Node6</title>
<g id="a_Node000006"><a xlink:href="classCore_1_1GlobalInitialiser.html#a5134f9db1f59d9124d5fdec88e3e99f3" target="_top" xlink:title="Checks the validity of specified initialization steps.">
<polygon fill="white" stroke="#666666" points="569.88,-150.75 460.12,-150.75 460.12,-121.75 569.88,-121.75 569.88,-150.75"/>
<text xml:space="preserve" text-anchor="start" x="468.12" y="-137.25" font-family="Helvetica,sans-Serif" font-size="10.00">Core::GlobalInitialiser</text>
<text xml:space="preserve" text-anchor="middle" x="515" y="-126.75" font-family="Helvetica,sans-Serif" font-size="10.00">::check_steps</text>
</a>
</g>
</g>
<!-- Node5&#45;&gt;Node6 -->
<g id="edge6_Node000005_Node000006" class="edge">
<title>Node5&#45;&gt;Node6</title>
<g id="a_edge6_Node000005_Node000006"><a xlink:title=" ">
<path fill="none" stroke="#63b8ff" d="M400.3,-213.37C404.86,-210.97 409.28,-208.26 413.25,-205.25 433.64,-189.75 428.49,-175.25 449.25,-160.25 451.04,-158.96 452.9,-157.73 454.82,-156.56"/>
<polygon fill="#63b8ff" stroke="#63b8ff" points="456.31,-159.73 463.47,-151.92 453,-153.57 456.31,-159.73"/>
</a>
</g>
</g>
<!-- Node7 -->
<g id="Node000007" class="node">
<title>Node7</title>
<g id="a_Node000007"><a xlink:href="classCore_1_1GlobalInitialiser.html#a3844076c910ed26f60f42bada71cc09e" target="_top" xlink:title="Validates the specified initialization step and any additional steps.">
<polygon fill="white" stroke="#666666" points="569.88,-244.75 460.12,-244.75 460.12,-215.75 569.88,-215.75 569.88,-244.75"/>
<text xml:space="preserve" text-anchor="start" x="468.12" y="-231.25" font-family="Helvetica,sans-Serif" font-size="10.00">Core::GlobalInitialiser</text>
<text xml:space="preserve" text-anchor="middle" x="515" y="-220.75" font-family="Helvetica,sans-Serif" font-size="10.00">::validate_step</text>
</a>
</g>
</g>
<!-- Node5&#45;&gt;Node7 -->
<g id="edge7_Node000005_Node000007" class="edge">
<title>Node5&#45;&gt;Node7</title>
<g id="a_edge7_Node000005_Node000007"><a xlink:title=" ">
<path fill="none" stroke="#63b8ff" d="M413.46,-228.95C424.69,-229.09 436.65,-229.25 448.25,-229.4"/>
<polygon fill="#63b8ff" stroke="#63b8ff" points="448.13,-232.9 458.18,-229.53 448.22,-225.9 448.13,-232.9"/>
</a>
</g>
</g>
<!-- Node8&#45;&gt;Node6 -->
<g id="edge9_Node000008_Node000006" class="edge">
<title>Node8&#45;&gt;Node6</title>
<g id="a_edge9_Node000008_Node000006"><a xlink:title=" ">
<path fill="none" stroke="#63b8ff" d="M410.86,-166.27C423.96,-162.45 438.18,-158.31 451.76,-154.36"/>
<polygon fill="#63b8ff" stroke="#63b8ff" points="452.4,-157.82 461.02,-151.67 450.44,-151.1 452.4,-157.82"/>
</a>
</g>
</g>
<!-- Node8&#45;&gt;Node7 -->
<g id="edge11_Node000008_Node000007" class="edge">
<title>Node8&#45;&gt;Node7</title>
<g id="a_edge11_Node000008_Node000007"><a xlink:title=" ">
<path fill="none" stroke="#63b8ff" d="M406.61,-196.22C422.27,-201.18 439.89,-206.76 456.25,-211.95"/>
<polygon fill="#63b8ff" stroke="#63b8ff" points="454.76,-215.15 465.35,-214.83 456.87,-208.47 454.76,-215.15"/>
</a>
</g>
</g>
<!-- Node9 -->
<g id="Node000009" class="node">
<title>Node9</title>
<g id="a_Node000009"><a xlink:href="classSimulation_1_1SimulationUnit.html#a94cfe4657d93316bd4609e1ddd2d64cc" target="_top" xlink:title=" ">
<polygon fill="white" stroke="#666666" points="580.75,-197.75 449.25,-197.75 449.25,-168.75 580.75,-168.75 580.75,-197.75"/>
<text xml:space="preserve" text-anchor="start" x="457.25" y="-184.25" font-family="Helvetica,sans-Serif" font-size="10.00">Simulation::SimulationUnit</text>
<text xml:space="preserve" text-anchor="middle" x="515" y="-173.75" font-family="Helvetica,sans-Serif" font-size="10.00">::setMtrModel</text>
</a>
</g>
</g>
<!-- Node8&#45;&gt;Node9 -->
<g id="edge10_Node000008_Node000009" class="edge">
<title>Node8&#45;&gt;Node9</title>
<g id="a_edge10_Node000008_Node000009"><a xlink:title=" ">
<path fill="none" stroke="#63b8ff" d="M413.46,-181.95C421.21,-182.05 429.31,-182.15 437.4,-182.26"/>
<polygon fill="#63b8ff" stroke="#63b8ff" points="437.23,-185.76 447.27,-182.39 437.32,-178.76 437.23,-185.76"/>
</a>
</g>
</g>
<!-- Node10&#45;&gt;Node6 -->
<g id="edge13_Node000010_Node000006" class="edge">
<title>Node10&#45;&gt;Node6</title>
<g id="a_edge13_Node000010_Node000006"><a xlink:title=" ">
<path fill="none" stroke="#63b8ff" d="M266.62,-116.75C278.69,-114.46 291.48,-112.43 303.5,-111.25 352.05,-106.49 364.83,-105.33 413.25,-111.25 426.19,-112.83 439.85,-115.51 452.81,-118.55"/>
<polygon fill="#63b8ff" stroke="#63b8ff" points="451.95,-121.94 462.5,-120.93 453.62,-115.15 451.95,-121.94"/>
</a>
</g>
</g>
<!-- Node10&#45;&gt;Node10 -->
<g id="edge26_Node000010_Node000010" class="edge">
<title>Node10&#45;&gt;Node10</title>
<g id="a_edge26_Node000010_Node000010"><a xlink:title=" ">
<path fill="none" stroke="#63b8ff" d="M185.9,-143.96C179.73,-153.07 188.26,-161.75 211.5,-161.75 224.21,-161.75 232.52,-159.16 236.43,-155.31"/>
<polygon fill="#63b8ff" stroke="#63b8ff" points="239.91,-155.66 237.01,-145.47 232.93,-155.24 239.91,-155.66"/>
</a>
</g>
</g>
<!-- Node11 -->
<g id="Node000011" class="node">
<title>Node11</title>
<g id="a_Node000011"><a xlink:href="classCore_1_1GlobalInitialiser.html#a9b38d15538796d9cc115211890a6c081" target="_top" xlink:title="Initializes a Monte Carlo unit.">
<polygon fill="white" stroke="#666666" points="413.25,-62.75 303.5,-62.75 303.5,-33.75 413.25,-33.75 413.25,-62.75"/>
<text xml:space="preserve" text-anchor="start" x="311.5" y="-49.25" font-family="Helvetica,sans-Serif" font-size="10.00">Core::GlobalInitialiser</text>
<text xml:space="preserve" text-anchor="middle" x="358.38" y="-38.75" font-family="Helvetica,sans-Serif" font-size="10.00">::init_monte_carlo</text>
</a>
</g>
</g>
<!-- Node10&#45;&gt;Node11 -->
<g id="edge14_Node000010_Node000011" class="edge">
<title>Node10&#45;&gt;Node11</title>
<g id="a_edge14_Node000010_Node000011"><a xlink:title=" ">
<path fill="none" stroke="#63b8ff" d="M251.93,-114.37C257.28,-111.89 262.61,-109.16 267.5,-106.25 285.15,-95.74 286.38,-88.61 303.5,-77.25 307.91,-74.32 312.65,-71.43 317.42,-68.68"/>
<polygon fill="#63b8ff" stroke="#63b8ff" points="318.81,-71.91 325.84,-63.99 315.4,-65.8 318.81,-71.91"/>
</a>
</g>
</g>
<!-- Node15 -->
<g id="Node000015" class="node">
<title>Node15</title>
<g id="a_Node000015"><a xlink:href="classCore_1_1GlobalInitialiser.html#aa84a61b25f475380b38306232e25aff6" target="_top" xlink:title="Initializes a scalar component of the simulation.">
<polygon fill="white" stroke="#666666" points="413.25,-148.75 303.5,-148.75 303.5,-119.75 413.25,-119.75 413.25,-148.75"/>
<text xml:space="preserve" text-anchor="start" x="311.5" y="-135.25" font-family="Helvetica,sans-Serif" font-size="10.00">Core::GlobalInitialiser</text>
<text xml:space="preserve" text-anchor="middle" x="358.38" y="-124.75" font-family="Helvetica,sans-Serif" font-size="10.00">::init_scalar</text>
</a>
</g>
</g>
<!-- Node10&#45;&gt;Node15 -->
<g id="edge21_Node000010_Node000015" class="edge">
<title>Node10&#45;&gt;Node15</title>
<g id="a_edge21_Node000010_Node000015"><a xlink:title=" ">
<path fill="none" stroke="#63b8ff" d="M266.86,-131.13C275.03,-131.41 283.53,-131.7 291.9,-131.99"/>
<polygon fill="#63b8ff" stroke="#63b8ff" points="291.57,-135.48 301.68,-132.33 291.81,-128.48 291.57,-135.48"/>
</a>
</g>
</g>
<!-- Node11&#45;&gt;Node6 -->
<g id="edge18_Node000011_Node000006" class="edge">
<title>Node11&#45;&gt;Node6</title>
<g id="a_edge18_Node000011_Node000006"><a xlink:title=" ">
<path fill="none" stroke="#63b8ff" d="M390.8,-63.18C398.42,-67.33 406.35,-72.11 413.25,-77.25 431.4,-90.76 430.12,-101.17 449.25,-113.25 450.88,-114.28 452.56,-115.27 454.28,-116.22"/>
<polygon fill="#63b8ff" stroke="#63b8ff" points="452.6,-119.3 463.12,-120.61 455.71,-113.03 452.6,-119.3"/>
</a>
</g>
</g>
<!-- Node11&#45;&gt;Node7 -->
<g id="edge20_Node000011_Node000007" class="edge">
<title>Node11&#45;&gt;Node7</title>
<g id="a_edge20_Node000011_Node000007"><a xlink:title=" ">
<path fill="none" stroke="#63b8ff" d="M374.75,-63.13C386.55,-75.21 402.57,-93.15 413.25,-111.25 436.41,-150.49 416.75,-175.31 449.25,-207.25 449.74,-207.73 450.24,-208.21 450.76,-208.67"/>
<polygon fill="#63b8ff" stroke="#63b8ff" points="448.48,-211.34 458.61,-214.45 452.63,-205.7 448.48,-211.34"/>
</a>
</g>
</g>
<!-- Node12 -->
<g id="Node000012" class="node">
<title>Node12</title>
<g id="a_Node000012"><a xlink:href="namespaceWrapMPI.html#a8237adbb04708d9bf4bae9e904d04f5f" target="_top" xlink:title=" ">
<polygon fill="white" stroke="#666666" points="722.75,-55.5 616.75,-55.5 616.75,-37 722.75,-37 722.75,-55.5"/>
<text xml:space="preserve" text-anchor="middle" x="669.75" y="-42" font-family="Helvetica,sans-Serif" font-size="10.00">WrapMPI::all_reduce</text>
</a>
</g>
</g>
<!-- Node11&#45;&gt;Node12 -->
<g id="edge15_Node000011_Node000012" class="edge">
<title>Node11&#45;&gt;Node12</title>
<g id="a_edge15_Node000011_Node000012"><a xlink:title=" ">
<path fill="none" stroke="#63b8ff" d="M413.62,-47.9C467.04,-47.55 548.62,-47.03 605.08,-46.66"/>
<polygon fill="#63b8ff" stroke="#63b8ff" points="604.89,-50.16 614.86,-46.6 604.84,-43.16 604.89,-50.16"/>
</a>
</g>
</g>
<!-- Node14 -->
<g id="Node000014" class="node">
<title>Node14</title>
<g id="a_Node000014"><a xlink:href="namespaceMC.html#ac9b6a65d70e4c5007f4bc908509924a0" target="_top" xlink:title=" ">
<polygon fill="white" stroke="#666666" points="568.75,-18.5 461.25,-18.5 461.25,0 568.75,0 568.75,-18.5"/>
<text xml:space="preserve" text-anchor="middle" x="515" y="-5" font-family="Helvetica,sans-Serif" font-size="10.00">MC::post_init_weight</text>
</a>
</g>
</g>
<!-- Node11&#45;&gt;Node14 -->
<g id="edge19_Node000011_Node000014" class="edge">
<title>Node11&#45;&gt;Node14</title>
<g id="a_edge19_Node000011_Node000014"><a xlink:title=" ">
<path fill="none" stroke="#63b8ff" d="M413.46,-34.61C430.15,-30.4 448.45,-25.78 464.8,-21.66"/>
<polygon fill="#63b8ff" stroke="#63b8ff" points="465.46,-25.1 474.3,-19.26 463.75,-18.32 465.46,-25.1"/>
</a>
</g>
</g>
<!-- Node12&#45;&gt;Node12 -->
<g id="edge16_Node000012_Node000012" class="edge">
<title>Node12&#45;&gt;Node12</title>
<g id="a_edge16_Node000012_Node000012"><a xlink:title=" ">
<path fill="none" stroke="#63b8ff" d="M647.17,-55.75C636.19,-64.32 643.71,-73.5 669.75,-73.5 684.4,-73.5 693.19,-70.59 696.12,-66.53"/>
<polygon fill="#63b8ff" stroke="#63b8ff" points="699.45,-65.45 692.83,-57.17 692.84,-67.77 699.45,-65.45"/>
</a>
</g>
</g>
<!-- Node13 -->
<g id="Node000013" class="node">
<title>Node13</title>
<g id="a_Node000013"><a xlink:href="namespaceWrapMPI.html#adab3300a86b8c0227268b23134b57a24" target="_top" xlink:title=" ">
<polygon fill="white" stroke="#666666" points="865.88,-124.5 766.62,-124.5 766.62,-106 865.88,-106 865.88,-124.5"/>
<text xml:space="preserve" text-anchor="middle" x="816.25" y="-111" font-family="Helvetica,sans-Serif" font-size="10.00">WrapMPI::get_type</text>
</a>
</g>
</g>
<!-- Node12&#45;&gt;Node13 -->
<g id="edge17_Node000012_Node000013" class="edge">
<title>Node12&#45;&gt;Node13</title>
<g id="a_edge17_Node000012_Node000013"><a xlink:title=" ">
<path fill="none" stroke="#63b8ff" d="M691.15,-55.99C715.57,-67.65 756.69,-87.29 784.86,-100.74"/>
<polygon fill="#63b8ff" stroke="#63b8ff" points="783.06,-103.76 793.59,-104.91 786.08,-97.44 783.06,-103.76"/>
</a>
</g>
</g>
<!-- Node15&#45;&gt;Node6 -->
<g id="edge22_Node000015_Node000006" class="edge">
<title>Node15&#45;&gt;Node6</title>
<g id="a_edge22_Node000015_Node000006"><a xlink:title=" ">
<path fill="none" stroke="#63b8ff" d="M413.46,-134.95C424.69,-135.09 436.65,-135.25 448.25,-135.4"/>
<polygon fill="#63b8ff" stroke="#63b8ff" points="448.13,-138.9 458.18,-135.53 448.22,-131.9 448.13,-138.9"/>
</a>
</g>
</g>
<!-- Node15&#45;&gt;Node7 -->
<g id="edge25_Node000015_Node000007" class="edge">
<title>Node15&#45;&gt;Node7</title>
<g id="a_edge25_Node000015_Node000007"><a xlink:title=" ">
<path fill="none" stroke="#63b8ff" d="M399.31,-149.17C404.24,-151.82 409.02,-154.85 413.25,-158.25 434.29,-175.2 427.56,-191.13 449.25,-207.25 450.41,-208.11 451.6,-208.94 452.82,-209.74"/>
<polygon fill="#63b8ff" stroke="#63b8ff" points="450.93,-212.69 461.35,-214.59 454.38,-206.6 450.93,-212.69"/>
</a>
</g>
</g>
<!-- Node16 -->
<g id="Node000016" class="node">
<title>Node16</title>
<g id="a_Node000016"><a xlink:href="namespaceCore_1_1ScalarFactory.html#a8fb497033464776a1cda71cce1840cd8" target="_top" xlink:title="Factory function to initialize scalar data based on the specified input source.">
<polygon fill="white" stroke="#666666" points="567.25,-103.75 462.75,-103.75 462.75,-74.75 567.25,-74.75 567.25,-103.75"/>
<text xml:space="preserve" text-anchor="start" x="470.75" y="-90.25" font-family="Helvetica,sans-Serif" font-size="10.00">Core::ScalarFactory</text>
<text xml:space="preserve" text-anchor="middle" x="515" y="-79.75" font-family="Helvetica,sans-Serif" font-size="10.00">::scalar_factory</text>
</a>
</g>
</g>
<!-- Node15&#45;&gt;Node16 -->
<g id="edge23_Node000015_Node000016" class="edge">
<title>Node15&#45;&gt;Node16</title>
<g id="a_edge23_Node000015_Node000016"><a xlink:title=" ">
<path fill="none" stroke="#63b8ff" d="M410.86,-119.27C423.96,-115.45 438.18,-111.31 451.76,-107.36"/>
<polygon fill="#63b8ff" stroke="#63b8ff" points="452.4,-110.82 461.02,-104.67 450.44,-104.1 452.4,-110.82"/>
</a>
</g>
</g>
<!-- Node17 -->
<g id="Node000017" class="node">
<title>Node17</title>
<g id="a_Node000017"><a xlink:href="namespaceCore_1_1ScalarFactory.html#a3cd3bf6bf73298a38df48b444e3f0a23" target="_top" xlink:title=" ">
<polygon fill="white" stroke="#666666" points="722,-120.75 617.5,-120.75 617.5,-91.75 722,-91.75 722,-120.75"/>
<text xml:space="preserve" text-anchor="start" x="625.5" y="-107.25" font-family="Helvetica,sans-Serif" font-size="10.00">Core::ScalarFactory</text>
<text xml:space="preserve" text-anchor="middle" x="669.75" y="-96.75" font-family="Helvetica,sans-Serif" font-size="10.00">::sanitize</text>
</a>
</g>
</g>
<!-- Node16&#45;&gt;Node17 -->
<g id="edge24_Node000016_Node000017" class="edge">
<title>Node16&#45;&gt;Node17</title>
<g id="a_edge24_Node000016_Node000017"><a xlink:title=" ">
<path fill="none" stroke="#63b8ff" d="M567.71,-95.01C579.91,-96.36 593.04,-97.82 605.67,-99.23"/>
<polygon fill="#63b8ff" stroke="#63b8ff" points="605.26,-102.71 615.58,-100.33 606.03,-95.75 605.26,-102.71"/>
</a>
</g>
</g>
<!-- Node18&#45;&gt;Node3 -->
<g id="edge28_Node000018_Node000003" class="edge">
<title>Node18&#45;&gt;Node3</title>
<g id="a_edge28_Node000018_Node000003"><a xlink:title=" ">
<path fill="none" stroke="#63b8ff" d="M232.63,-295.12C250.53,-307.84 277.8,-325.99 303.5,-338.25 307.81,-340.3 312.41,-342.22 317.04,-343.99"/>
<polygon fill="#63b8ff" stroke="#63b8ff" points="315.76,-347.25 326.36,-347.3 318.11,-340.65 315.76,-347.25"/>
</a>
</g>
</g>
<!-- Node18&#45;&gt;Node7 -->
<g id="edge39_Node000018_Node000007" class="edge">
<title>Node18&#45;&gt;Node7</title>
<g id="a_edge39_Node000018_Node000007"><a xlink:title=" ">
<path fill="none" stroke="#63b8ff" d="M266.78,-273.82C307.28,-268.75 363.89,-261.07 413.25,-252.25 424.74,-250.2 436.9,-247.76 448.66,-245.28"/>
<polygon fill="#63b8ff" stroke="#63b8ff" points="449.25,-248.73 458.29,-243.21 447.78,-241.89 449.25,-248.73"/>
</a>
</g>
</g>
<!-- Node19 -->
<g id="Node000019" class="node">
<title>Node19</title>
<g id="a_Node000019"><a xlink:href="classCore_1_1GlobalInitialiser.html#a97eff5566ced6ba6449eb532f0babadc" target="_top" xlink:title="Initializes a flow iterator.">
<polygon fill="white" stroke="#666666" points="413.25,-328.75 303.5,-328.75 303.5,-299.75 413.25,-299.75 413.25,-328.75"/>
<text xml:space="preserve" text-anchor="start" x="311.5" y="-315.25" font-family="Helvetica,sans-Serif" font-size="10.00">Core::GlobalInitialiser</text>
<text xml:space="preserve" text-anchor="middle" x="358.38" y="-304.75" font-family="Helvetica,sans-Serif" font-size="10.00">::init_state</text>
</a>
</g>
</g>
<!-- Node18&#45;&gt;Node19 -->
<g id="edge29_Node000018_Node000019" class="edge">
<title>Node18&#45;&gt;Node19</title>
<g id="a_edge29_Node000018_Node000019"><a xlink:title=" ">
<path fill="none" stroke="#63b8ff" d="M266.86,-293.01C275.12,-294.95 283.72,-296.96 292.18,-298.95"/>
<polygon fill="#63b8ff" stroke="#63b8ff" points="291.19,-302.31 301.72,-301.19 292.78,-295.5 291.19,-302.31"/>
</a>
</g>
</g>
<!-- Node19&#45;&gt;Node6 -->
<g id="edge30_Node000019_Node000006" class="edge">
<title>Node19&#45;&gt;Node6</title>
<g id="a_edge30_Node000019_Node000006"><a xlink:title=" ">
<path fill="none" stroke="#63b8ff" d="M374.7,-299.61C386.46,-287.72 402.47,-270.06 413.25,-252.25 435.98,-214.68 417.92,-191.02 449.25,-160.25 450.15,-159.37 451.08,-158.52 452.05,-157.7"/>
<polygon fill="#63b8ff" stroke="#63b8ff" points="454.01,-160.6 460.2,-152 450,-154.86 454.01,-160.6"/>
</a>
</g>
</g>
<!-- Node19&#45;&gt;Node7 -->
<g id="edge38_Node000019_Node000007" class="edge">
<title>Node19&#45;&gt;Node7</title>
<g id="a_edge38_Node000019_Node000007"><a xlink:title=" ">
<path fill="none" stroke="#63b8ff" d="M389.98,-299.26C397.77,-295.05 405.99,-290.25 413.25,-285.25 430.65,-273.29 431.06,-264.98 449.25,-254.25 451.82,-252.73 454.51,-251.28 457.26,-249.9"/>
<polygon fill="#63b8ff" stroke="#63b8ff" points="458.45,-253.21 466.06,-245.84 455.51,-246.85 458.45,-253.21"/>
</a>
</g>
</g>
<!-- Node20 -->
<g id="Node000020" class="node">
<title>Node20</title>
<g id="a_Node000020"><a xlink:href="classCore_1_1GlobalInitialiser.html#a36655d4a10ebb302f64512e2cda8649d" target="_top" xlink:title="Retrieves path files based on the provided case path.">
<polygon fill="white" stroke="#666666" points="569.88,-291.75 460.12,-291.75 460.12,-262.75 569.88,-262.75 569.88,-291.75"/>
<text xml:space="preserve" text-anchor="start" x="468.12" y="-278.25" font-family="Helvetica,sans-Serif" font-size="10.00">Core::GlobalInitialiser</text>
<text xml:space="preserve" text-anchor="middle" x="515" y="-267.75" font-family="Helvetica,sans-Serif" font-size="10.00">::host_init_state</text>
</a>
</g>
</g>
<!-- Node19&#45;&gt;Node20 -->
<g id="edge31_Node000019_Node000020" class="edge">
<title>Node19&#45;&gt;Node20</title>
<g id="a_edge31_Node000019_Node000020"><a xlink:title=" ">
<path fill="none" stroke="#63b8ff" d="M413.46,-301.31C424.81,-298.59 436.89,-295.7 448.61,-292.9"/>
<polygon fill="#63b8ff" stroke="#63b8ff" points="449.31,-296.33 458.22,-290.6 447.68,-289.52 449.31,-296.33"/>
</a>
</g>
</g>
<!-- Node21 -->
<g id="Node000021" class="node">
<title>Node21</title>
<g id="a_Node000021"><a xlink:href="classCore_1_1GlobalInitialiser.html#aa042e8d396a5287c49fb6a8b81eba209" target="_top" xlink:title="Performs MPI broadcast for synchronization.">
<polygon fill="white" stroke="#666666" points="569.88,-338.75 460.12,-338.75 460.12,-309.75 569.88,-309.75 569.88,-338.75"/>
<text xml:space="preserve" text-anchor="start" x="468.12" y="-325.25" font-family="Helvetica,sans-Serif" font-size="10.00">Core::GlobalInitialiser</text>
<text xml:space="preserve" text-anchor="middle" x="515" y="-314.75" font-family="Helvetica,sans-Serif" font-size="10.00">::mpi_broadcast</text>
</a>
</g>
</g>
<!-- Node19&#45;&gt;Node21 -->
<g id="edge32_Node000019_Node000021" class="edge">
<title>Node19&#45;&gt;Node21</title>
<g id="a_edge32_Node000019_Node000021"><a xlink:title=" ">
<path fill="none" stroke="#63b8ff" d="M413.46,-317.75C424.69,-318.47 436.65,-319.25 448.25,-320"/>
<polygon fill="#63b8ff" stroke="#63b8ff" points="447.97,-323.49 458.18,-320.64 448.43,-316.5 447.97,-323.49"/>
</a>
</g>
</g>
<!-- Node22 -->
<g id="Node000022" class="node">
<title>Node22</title>
<g id="a_Node000022"><a xlink:href="namespaceWrapMPI.html#a1a08bbe69602ac2f4f38e1a0d45275cb" target="_top" xlink:title=" ">
<polygon fill="white" stroke="#666666" points="714.12,-351.5 625.38,-351.5 625.38,-333 714.12,-333 714.12,-351.5"/>
<text xml:space="preserve" text-anchor="middle" x="669.75" y="-338" font-family="Helvetica,sans-Serif" font-size="10.00">WrapMPI::barrier</text>
</a>
</g>
</g>
<!-- Node21&#45;&gt;Node22 -->
<g id="edge33_Node000021_Node000022" class="edge">
<title>Node21&#45;&gt;Node22</title>
<g id="a_edge33_Node000021_Node000022"><a xlink:title=" ">
<path fill="none" stroke="#63b8ff" d="M570.28,-330.65C584.49,-332.32 599.82,-334.13 614.05,-335.8"/>
<polygon fill="#63b8ff" stroke="#63b8ff" points="613.34,-339.24 623.68,-336.94 614.16,-332.29 613.34,-339.24"/>
</a>
</g>
</g>
<!-- Node23 -->
<g id="Node000023" class="node">
<title>Node23</title>
<g id="a_Node000023"><a xlink:href="namespaceWrapMPI.html#aa924ad0d911109a9e6e3a20bebc3b316" target="_top" xlink:title=" ">
<polygon fill="white" stroke="#666666" points="873.75,-332.5 758.75,-332.5 758.75,-314 873.75,-314 873.75,-332.5"/>
<text xml:space="preserve" text-anchor="middle" x="816.25" y="-319" font-family="Helvetica,sans-Serif" font-size="10.00">WrapMPI::critical_error</text>
</a>
</g>
</g>
<!-- Node21&#45;&gt;Node23 -->
<g id="edge37_Node000021_Node000023" class="edge">
<title>Node21&#45;&gt;Node23</title>
<g id="a_edge37_Node000021_Node000023"><a xlink:title=" ">
<path fill="none" stroke="#63b8ff" d="M570.19,-324.07C619.78,-323.9 693.36,-323.66 746.95,-323.48"/>
<polygon fill="#63b8ff" stroke="#63b8ff" points="746.91,-326.98 756.89,-323.45 746.88,-319.98 746.91,-326.98"/>
</a>
</g>
</g>
<!-- Node24 -->
<g id="Node000024" class="node">
<title>Node24</title>
<g id="a_Node000024"><a xlink:href="namespaceWrapMPI.html#a372df5351a2085df252cc9f4cceae7de" target="_top" xlink:title="Broadcasts a single data item to all processes.">
<polygon fill="white" stroke="#666666" points="722,-226.5 617.5,-226.5 617.5,-208 722,-208 722,-226.5"/>
<text xml:space="preserve" text-anchor="middle" x="669.75" y="-213" font-family="Helvetica,sans-Serif" font-size="10.00">WrapMPI::broadcast</text>
</a>
</g>
</g>
<!-- Node21&#45;&gt;Node24 -->
<g id="edge35_Node000021_Node000024" class="edge">
<title>Node21&#45;&gt;Node24</title>
<g id="a_edge35_Node000021_Node000024"><a xlink:title=" ">
<path fill="none" stroke="#63b8ff" d="M565.12,-309.32C570.55,-306.94 575.87,-304.25 580.75,-301.25 609.99,-283.26 637.57,-254.25 653.82,-235.47"/>
<polygon fill="#63b8ff" stroke="#63b8ff" points="656.28,-237.98 660.06,-228.08 650.93,-233.46 656.28,-237.98"/>
</a>
</g>
</g>
<!-- Node22&#45;&gt;Node23 -->
<g id="edge34_Node000022_Node000023" class="edge">
<title>Node22&#45;&gt;Node23</title>
<g id="a_edge34_Node000022_Node000023"><a xlink:title=" ">
<path fill="none" stroke="#63b8ff" d="M714.5,-336.5C724.73,-335.15 735.87,-333.69 746.9,-332.24"/>
<polygon fill="#63b8ff" stroke="#63b8ff" points="747.33,-335.71 756.79,-330.94 746.42,-328.77 747.33,-335.71"/>
</a>
</g>
</g>
<!-- Node24&#45;&gt;Node13 -->
<g id="edge36_Node000024_Node000013" class="edge">
<title>Node24&#45;&gt;Node13</title>
<g id="a_edge36_Node000024_Node000013"><a xlink:title=" ">
<path fill="none" stroke="#63b8ff" d="M684.34,-207.65C709.09,-190.19 761.73,-153.03 792.18,-131.53"/>
<polygon fill="#63b8ff" stroke="#63b8ff" points="794.2,-134.39 800.35,-125.77 790.16,-128.68 794.2,-134.39"/>
</a>
</g>
</g>
</g>
</svg>

<g id="navigator" transform="translate(0 0)" fill="#404254">
  <rect fill="#f2f5e9" fill-opacity="0.5" stroke="#606060" stroke-width=".5" x="0" y="0" width="60" height="60"/>
  <use id="zoomplus" xlink:href="#zoomPlus" x="17" y="9" onmousedown="handleZoom(evt,'in')"/>
  <use id="zoomminus" xlink:href="#zoomMin" x="42" y="9" onmousedown="handleZoom(evt,'out')"/>
  <use id="reset" xlink:href="#resetDef" x="30" y="36" onmousedown="handleReset()"/>
   <use id="arrowup" xlink:href="#arrowUp" x="0" y="0" onmousedown="handlePan(0,-1)"/>
  <use id="arrowright" xlink:href="#arrowRight" x="0" y="0" onmousedown="handlePan(1,0)"/>
  <use id="arrowdown" xlink:href="#arrowDown" x="0" y="0" onmousedown="handlePan(0,1)"/>
  <use id="arrowleft" xlink:href="#arrowLeft" x="0" y="0" onmousedown="handlePan(-1,0)"/>
</g>
<svg viewBox="0 0 15 15" width="100%" height="30px" preserveAspectRatio="xMaxYMin meet">
 <g id="arrow_out" transform="scale(0.3 0.3)">
  <a xlink:href="structApi_1_1SimulationInstance_ae9bdd54076170f50eadcb7966d64c19d_cgraph_org.svg" target="_base">
   <rect id="button" ry="5" rx="5" y="6" x="6" height="38" width="38"
        fill="#f2f5e9" fill-opacity="0.5" stroke="#606060" stroke-width="1.0"/>
   <path id="arrow"
     d="M 11.500037,31.436501 C 11.940474,20.09759 22.043105,11.32322 32.158766,21.979434 L 37.068811,17.246167 C 37.068811,17.246167 37.088388,32 37.088388,32 L 22.160133,31.978069 C 22.160133,31.978069 26.997745,27.140456 26.997745,27.140456 C 18.528582,18.264221 13.291696,25.230495 11.500037,31.436501 z"
     style="fill:#404040;"/>
  </a>
 </g>
</svg>

<style type='text/css'>
<![CDATA[
[data-mouse-over-selected='false'] { opacity: 0.7; }
[data-mouse-over-selected='true']  { opacity: 1.0; }
]]>
</style>
<script type="application/ecmascript"><![CDATA[
document.addEventListener('DOMContentLoaded', (event) => {
  highlightEdges();
  highlightAdjacentNodes();
});
]]></script>
</svg>
