<?xml version="1.0" encoding="UTF-8" standalone="no"?>
<!DOCTYPE svg PUBLIC "-//W3C//DTD SVG 1.1//EN"
 "http://www.w3.org/Graphics/SVG/1.1/DTD/svg11.dtd">
<!-- Generated by graphviz version 12.1.2 (0)
 -->
<!-- Title: Simulation::KernelInline::MoveFunctor&lt; enable_leave, enable_move &gt; Pages: 1 -->
<svg width="370pt" height="131pt"
 viewBox="0.00 0.00 370.00 131.25" xmlns="http://www.w3.org/2000/svg" xmlns:xlink="http://www.w3.org/1999/xlink">
<g id="graph0" class="graph" transform="scale(1 1) rotate(0) translate(4 127.25)">
<title>Simulation::KernelInline::MoveFunctor&lt; enable_leave, enable_move &gt;</title>
<!-- Node1 -->
<g id="Node000001" class="node">
<title>Node1</title>
<g id="a_Node000001"><a xlink:title=" ">
<polygon fill="#999999" stroke="#666666" points="362,-86.5 215.5,-86.5 215.5,-47 362,-47 362,-86.5"/>
<text text-anchor="start" x="223.5" y="-73" font-family="Helvetica,sans-Serif" font-size="10.00">Simulation::KernelInline</text>
<text text-anchor="start" x="223.5" y="-62.5" font-family="Helvetica,sans-Serif" font-size="10.00">::MoveFunctor&lt; enable_leave,</text>
<text text-anchor="middle" x="288.75" y="-52" font-family="Helvetica,sans-Serif" font-size="10.00"> enable_move &gt;</text>
</a>
</g>
</g>
<!-- Node2 -->
<g id="Node000002" class="node">
<title>Node2</title>
<g id="a_Node000002"><a xlink:href="structSimulation_1_1KernelInline_1_1MoveInfo.html" target="_top" xlink:title=" ">
<polygon fill="white" stroke="#666666" points="147.25,-123.25 0,-123.25 0,-94.25 147.25,-94.25 147.25,-123.25"/>
<text text-anchor="start" x="8" y="-109.75" font-family="Helvetica,sans-Serif" font-size="10.00">Simulation::KernelInline</text>
<text text-anchor="middle" x="73.62" y="-99.25" font-family="Helvetica,sans-Serif" font-size="10.00">::MoveInfo&lt; ComputeSpace &gt;</text>
</a>
</g>
</g>
<!-- Node2&#45;&gt;Node1 -->
<g id="edge1_Node000001_Node000002" class="edge">
<title>Node2&#45;&gt;Node1</title>
<g id="a_edge1_Node000001_Node000002"><a xlink:title=" ">
<path fill="none" stroke="#9a32cd" stroke-dasharray="5,2" d="M158.82,-92.16C177.45,-88.49 197.04,-84.63 215.16,-81.06"/>
<polygon fill="#9a32cd" stroke="#9a32cd" points="158.29,-88.69 149.16,-94.06 159.65,-95.56 158.29,-88.69"/>
</a>
</g>
<text text-anchor="middle" x="181.38" y="-91.26" font-family="Helvetica,sans-Serif" font-size="10.00" fill="grey"> move</text>
</g>
<!-- Node3 -->
<g id="Node000003" class="node">
<title>Node3</title>
<g id="a_Node000003"><a xlink:href="structMC_1_1EventContainer.html" target="_top" xlink:title="Use to count events that occurs during Monte&#45;Carlo processing cycles.">
<polygon fill="white" stroke="#666666" points="125.88,-76 21.38,-76 21.38,-57.5 125.88,-57.5 125.88,-76"/>
<text text-anchor="middle" x="73.62" y="-62.5" font-family="Helvetica,sans-Serif" font-size="10.00">MC::EventContainer</text>
</a>
</g>
</g>
<!-- Node3&#45;&gt;Node1 -->
<g id="edge2_Node000001_Node000003" class="edge">
<title>Node3&#45;&gt;Node1</title>
<g id="a_edge2_Node000001_Node000003"><a xlink:title=" ">
<path fill="none" stroke="#9a32cd" stroke-dasharray="5,2" d="M137.51,-66.75C161.93,-66.75 190.04,-66.75 215.29,-66.75"/>
<polygon fill="#9a32cd" stroke="#9a32cd" points="137.73,-63.25 127.73,-66.75 137.73,-70.25 137.73,-63.25"/>
</a>
</g>
<text text-anchor="middle" x="181.38" y="-67.75" font-family="Helvetica,sans-Serif" font-size="10.00" fill="grey"> events</text>
</g>
<!-- Node4 -->
<g id="Node000004" class="node">
<title>Node4</title>
<g id="a_Node000004"><a xlink:href="classSimulation_1_1Probes.html" target="_top" xlink:title=" ">
<polygon fill="white" stroke="#666666" points="133.75,-39.5 13.5,-39.5 13.5,0 133.75,0 133.75,-39.5"/>
<text text-anchor="start" x="21.5" y="-26" font-family="Helvetica,sans-Serif" font-size="10.00">Simulation::Probes</text>
<text text-anchor="start" x="21.5" y="-15.5" font-family="Helvetica,sans-Serif" font-size="10.00">&lt; AutoGenerated::probe</text>
<text text-anchor="middle" x="73.62" y="-5" font-family="Helvetica,sans-Serif" font-size="10.00">_buffer_size &gt;</text>
</a>
</g>
</g>
<!-- Node4&#45;&gt;Node1 -->
<g id="edge3_Node000001_Node000004" class="edge">
<title>Node4&#45;&gt;Node1</title>
<g id="a_edge3_Node000001_Node000004"><a xlink:title=" ">
<path fill="none" stroke="#9a32cd" stroke-dasharray="5,2" d="M145.14,-35.3C167.58,-40.25 192.45,-45.73 215.05,-50.72"/>
<polygon fill="#9a32cd" stroke="#9a32cd" points="145.99,-31.9 135.47,-33.17 144.48,-38.74 145.99,-31.9"/>
</a>
</g>
<text text-anchor="middle" x="181.38" y="-47.06" font-family="Helvetica,sans-Serif" font-size="10.00" fill="grey"> probes</text>
</g>
</g>
</svg>
