<?xml version="1.0" encoding="UTF-8" standalone="no"?>
<!DOCTYPE svg PUBLIC "-//W3C//DTD SVG 1.1//EN"
 "http://www.w3.org/Graphics/SVG/1.1/DTD/svg11.dtd">
<!-- Generated by graphviz version 14.0.1 (0)
 -->
<!-- Title: Api::SimulationInstance::apply Pages: 1 -->
<svg width="860pt" height="322pt"
 viewBox="0.00 0.00 860.00 322.00" xmlns="http://www.w3.org/2000/svg" xmlns:xlink="http://www.w3.org/1999/xlink">
<g id="graph0" class="graph" transform="scale(1 1) rotate(0) translate(4 317.75)">
<title>Api::SimulationInstance::apply</title>
<!-- Node1 -->
<g id="Node000001" class="node">
<title>Node1</title>
<g id="a_Node000001"><a xlink:title="Apply the simulation configuration and prepare for execution.">
<polygon fill="#999999" stroke="#666666" points="119.5,-168 0,-168 0,-139 119.5,-139 119.5,-168"/>
<text xml:space="preserve" text-anchor="start" x="8" y="-154.5" font-family="Helvetica,sans-Serif" font-size="10.00">Api::SimulationInstance</text>
<text xml:space="preserve" text-anchor="middle" x="59.75" y="-144" font-family="Helvetica,sans-Serif" font-size="10.00">::apply</text>
</a>
</g>
</g>
<!-- Node2 -->
<g id="Node000002" class="node">
<title>Node2</title>
<g id="a_Node000002"><a xlink:href="classCore_1_1GlobalInitialiser.html#af0e3ff388be6a2cb08edf9f69dd200b0" target="_top" xlink:title="Checks if all initialization steps have been validated.">
<polygon fill="white" stroke="#666666" points="267.5,-124 155.5,-124 155.5,-95 267.5,-95 267.5,-124"/>
<text xml:space="preserve" text-anchor="start" x="163.5" y="-110.5" font-family="Helvetica,sans-Serif" font-size="10.00">Core::GlobalInitialiser</text>
<text xml:space="preserve" text-anchor="middle" x="211.5" y="-100" font-family="Helvetica,sans-Serif" font-size="10.00">::check_init_terminate</text>
</a>
</g>
</g>
<!-- Node1&#45;&gt;Node2 -->
<g id="edge1_Node000001_Node000002" class="edge">
<title>Node1&#45;&gt;Node2</title>
<g id="a_edge1_Node000001_Node000002"><a xlink:title=" ">
<path fill="none" stroke="#63b8ff" d="M111.45,-138.6C123.46,-135.07 136.4,-131.27 148.83,-127.62"/>
<polygon fill="#63b8ff" stroke="#63b8ff" points="149.54,-131.06 158.15,-124.88 147.57,-124.34 149.54,-131.06"/>
</a>
</g>
</g>
<!-- Node4 -->
<g id="Node000004" class="node">
<title>Node4</title>
<g id="a_Node000004"><a xlink:href="classCore_1_1GlobalInitialiser.html#ae6d2f54a18d82dda373f9cd7ec923eac" target="_top" xlink:title=" ">
<polygon fill="white" stroke="#666666" points="266.38,-211 156.62,-211 156.62,-182 266.38,-182 266.38,-211"/>
<text xml:space="preserve" text-anchor="start" x="164.62" y="-197.5" font-family="Helvetica,sans-Serif" font-size="10.00">Core::GlobalInitialiser</text>
<text xml:space="preserve" text-anchor="middle" x="211.5" y="-187" font-family="Helvetica,sans-Serif" font-size="10.00">::get_parameters</text>
</a>
</g>
</g>
<!-- Node1&#45;&gt;Node4 -->
<g id="edge4_Node000001_Node000004" class="edge">
<title>Node1&#45;&gt;Node4</title>
<g id="a_edge4_Node000001_Node000004"><a xlink:title=" ">
<path fill="none" stroke="#63b8ff" d="M112.71,-168.42C123.91,-171.64 135.87,-175.07 147.44,-178.39"/>
<polygon fill="#63b8ff" stroke="#63b8ff" points="146.35,-181.72 156.93,-181.12 148.28,-174.99 146.35,-181.72"/>
</a>
</g>
</g>
<!-- Node5 -->
<g id="Node000005" class="node">
<title>Node5</title>
<g id="a_Node000005"><a xlink:href="classCore_1_1GlobalInitialiser.html#aefbbc9e413134e0e080df2218316fe63" target="_top" xlink:title="Initializes a simulation feed.">
<polygon fill="white" stroke="#666666" points="413.25,-169 303.5,-169 303.5,-140 413.25,-140 413.25,-169"/>
<text xml:space="preserve" text-anchor="start" x="311.5" y="-155.5" font-family="Helvetica,sans-Serif" font-size="10.00">Core::GlobalInitialiser</text>
<text xml:space="preserve" text-anchor="middle" x="358.38" y="-145" font-family="Helvetica,sans-Serif" font-size="10.00">::init_feed</text>
</a>
</g>
</g>
<!-- Node1&#45;&gt;Node5 -->
<g id="edge5_Node000001_Node000005" class="edge">
<title>Node1&#45;&gt;Node5</title>
<g id="a_edge5_Node000001_Node000005"><a xlink:title=" ">
<path fill="none" stroke="#63b8ff" d="M119.71,-153.7C169.34,-153.87 240.27,-154.11 291.71,-154.28"/>
<polygon fill="#63b8ff" stroke="#63b8ff" points="291.5,-157.78 301.51,-154.31 291.52,-150.78 291.5,-157.78"/>
</a>
</g>
</g>
<!-- Node8 -->
<g id="Node000008" class="node">
<title>Node8</title>
<g id="a_Node000008"><a xlink:href="classCore_1_1GlobalInitialiser.html#a00d0e7a7d549bf06886dfc3ba9de3e3d" target="_top" xlink:title="Initializes a simulation unit.">
<polygon fill="white" stroke="#666666" points="266.38,-258 156.62,-258 156.62,-229 266.38,-229 266.38,-258"/>
<text xml:space="preserve" text-anchor="start" x="164.62" y="-244.5" font-family="Helvetica,sans-Serif" font-size="10.00">Core::GlobalInitialiser</text>
<text xml:space="preserve" text-anchor="middle" x="211.5" y="-234" font-family="Helvetica,sans-Serif" font-size="10.00">::init_simulation</text>
</a>
</g>
</g>
<!-- Node1&#45;&gt;Node8 -->
<g id="edge8_Node000001_Node000008" class="edge">
<title>Node1&#45;&gt;Node8</title>
<g id="a_edge8_Node000001_Node000008"><a xlink:title=" ">
<path fill="none" stroke="#63b8ff" d="M79.18,-168.38C97.71,-182.89 127.48,-204.98 155.5,-220.5 157.44,-221.57 159.43,-222.63 161.46,-223.66"/>
<polygon fill="#63b8ff" stroke="#63b8ff" points="159.92,-226.8 170.46,-227.94 162.94,-220.48 159.92,-226.8"/>
</a>
</g>
</g>
<!-- Node16 -->
<g id="Node000016" class="node">
<title>Node16</title>
<g id="a_Node000016"><a xlink:href="classCore_1_1GlobalInitialiser.html#a0dc2da93c4202706b5f37453f355145c" target="_top" xlink:title="Initializes a transitioner with the provided flow iterator.">
<polygon fill="white" stroke="#666666" points="266.38,-75 156.62,-75 156.62,-46 266.38,-46 266.38,-75"/>
<text xml:space="preserve" text-anchor="start" x="164.62" y="-61.5" font-family="Helvetica,sans-Serif" font-size="10.00">Core::GlobalInitialiser</text>
<text xml:space="preserve" text-anchor="middle" x="211.5" y="-51" font-family="Helvetica,sans-Serif" font-size="10.00">::init_transitionner</text>
</a>
</g>
</g>
<!-- Node1&#45;&gt;Node16 -->
<g id="edge23_Node000001_Node000016" class="edge">
<title>Node1&#45;&gt;Node16</title>
<g id="a_edge23_Node000001_Node000016"><a xlink:title=" ">
<path fill="none" stroke="#63b8ff" d="M79.69,-138.62C98.36,-124.31 128.01,-102.55 155.5,-86.5 159.04,-84.43 162.76,-82.4 166.54,-80.43"/>
<polygon fill="#63b8ff" stroke="#63b8ff" points="167.85,-83.69 175.22,-76.08 164.71,-77.43 167.85,-83.69"/>
</a>
</g>
</g>
<!-- Node3 -->
<g id="Node000003" class="node">
<title>Node3</title>
<g id="a_Node000003"><a xlink:href="namespaceIO.html#a30cc77fc5c4d45d3b56ef6a299ce2383" target="_top" xlink:title=" ">
<polygon fill="white" stroke="#666666" points="388.5,-103.75 328.25,-103.75 328.25,-85.25 388.5,-85.25 388.5,-103.75"/>
<text xml:space="preserve" text-anchor="middle" x="358.38" y="-90.25" font-family="Helvetica,sans-Serif" font-size="10.00">IO::format</text>
</a>
</g>
</g>
<!-- Node2&#45;&gt;Node3 -->
<g id="edge2_Node000002_Node000003" class="edge">
<title>Node2&#45;&gt;Node3</title>
<g id="a_edge2_Node000002_Node000003"><a xlink:title=" ">
<path fill="none" stroke="#63b8ff" d="M267.68,-103.79C284,-102.1 301.55,-100.28 316.76,-98.7"/>
<polygon fill="#63b8ff" stroke="#63b8ff" points="316.79,-102.22 326.38,-97.71 316.07,-95.26 316.79,-102.22"/>
</a>
</g>
</g>
<!-- Node3&#45;&gt;Node3 -->
<g id="edge3_Node000003_Node000003" class="edge">
<title>Node3&#45;&gt;Node3</title>
<g id="a_edge3_Node000003_Node000003"><a xlink:title=" ">
<path fill="none" stroke="#63b8ff" d="M335.91,-104C324.98,-112.57 332.47,-121.75 358.38,-121.75 372.95,-121.75 381.69,-118.84 384.61,-114.78"/>
<polygon fill="#63b8ff" stroke="#63b8ff" points="387.94,-113.71 381.34,-105.42 381.33,-116.02 387.94,-113.71"/>
</a>
</g>
</g>
<!-- Node6 -->
<g id="Node000006" class="node">
<title>Node6</title>
<g id="a_Node000006"><a xlink:href="classCore_1_1GlobalInitialiser.html#a5134f9db1f59d9124d5fdec88e3e99f3" target="_top" xlink:title="Checks the validity of specified initialization steps.">
<polygon fill="white" stroke="#666666" points="559,-194 449.25,-194 449.25,-165 559,-165 559,-194"/>
<text xml:space="preserve" text-anchor="start" x="457.25" y="-180.5" font-family="Helvetica,sans-Serif" font-size="10.00">Core::GlobalInitialiser</text>
<text xml:space="preserve" text-anchor="middle" x="504.12" y="-170" font-family="Helvetica,sans-Serif" font-size="10.00">::check_steps</text>
</a>
</g>
</g>
<!-- Node5&#45;&gt;Node6 -->
<g id="edge6_Node000005_Node000006" class="edge">
<title>Node5&#45;&gt;Node6</title>
<g id="a_edge6_Node000005_Node000006"><a xlink:title=" ">
<path fill="none" stroke="#63b8ff" d="M413.72,-163.95C421.61,-165.32 429.8,-166.75 437.88,-168.15"/>
<polygon fill="#63b8ff" stroke="#63b8ff" points="437.24,-171.59 447.69,-169.86 438.44,-164.7 437.24,-171.59"/>
</a>
</g>
</g>
<!-- Node7 -->
<g id="Node000007" class="node">
<title>Node7</title>
<g id="a_Node000007"><a xlink:href="classCore_1_1GlobalInitialiser.html#a3844076c910ed26f60f42bada71cc09e" target="_top" xlink:title="Validates the specified initialization step and any additional steps.">
<polygon fill="white" stroke="#666666" points="559,-147 449.25,-147 449.25,-118 559,-118 559,-147"/>
<text xml:space="preserve" text-anchor="start" x="457.25" y="-133.5" font-family="Helvetica,sans-Serif" font-size="10.00">Core::GlobalInitialiser</text>
<text xml:space="preserve" text-anchor="middle" x="504.12" y="-123" font-family="Helvetica,sans-Serif" font-size="10.00">::validate_step</text>
</a>
</g>
</g>
<!-- Node5&#45;&gt;Node7 -->
<g id="edge7_Node000005_Node000007" class="edge">
<title>Node5&#45;&gt;Node7</title>
<g id="a_edge7_Node000005_Node000007"><a xlink:title=" ">
<path fill="none" stroke="#63b8ff" d="M413.72,-146.18C421.61,-144.98 429.8,-143.72 437.88,-142.49"/>
<polygon fill="#63b8ff" stroke="#63b8ff" points="438.33,-145.96 447.68,-140.99 437.27,-139.04 438.33,-145.96"/>
</a>
</g>
</g>
<!-- Node8&#45;&gt;Node6 -->
<g id="edge9_Node000008_Node000006" class="edge">
<title>Node8&#45;&gt;Node6</title>
<g id="a_edge9_Node000008_Node000006"><a xlink:title=" ">
<path fill="none" stroke="#63b8ff" d="M266.68,-245.25C307.87,-245.02 365.4,-241.3 413.25,-225.5 431.06,-219.62 432.65,-212.22 449.25,-203.5 451.92,-202.1 454.69,-200.7 457.5,-199.32"/>
<polygon fill="#63b8ff" stroke="#63b8ff" points="458.84,-202.56 466.38,-195.12 455.84,-196.24 458.84,-202.56"/>
</a>
</g>
</g>
<!-- Node8&#45;&gt;Node8 -->
<g id="edge22_Node000008_Node000008" class="edge">
<title>Node8&#45;&gt;Node8</title>
<g id="a_edge22_Node000008_Node000008"><a xlink:title=" ">
<path fill="none" stroke="#63b8ff" d="M185.9,-258.21C179.73,-267.32 188.26,-276 211.5,-276 224.21,-276 232.52,-273.41 236.43,-269.56"/>
<polygon fill="#63b8ff" stroke="#63b8ff" points="239.91,-269.91 237.01,-259.72 232.93,-269.49 239.91,-269.91"/>
</a>
</g>
</g>
<!-- Node9 -->
<g id="Node000009" class="node">
<title>Node9</title>
<g id="a_Node000009"><a xlink:href="classCore_1_1GlobalInitialiser.html#a9b38d15538796d9cc115211890a6c081" target="_top" xlink:title="Initializes a Monte Carlo unit.">
<polygon fill="white" stroke="#666666" points="413.25,-302 303.5,-302 303.5,-273 413.25,-273 413.25,-302"/>
<text xml:space="preserve" text-anchor="start" x="311.5" y="-288.5" font-family="Helvetica,sans-Serif" font-size="10.00">Core::GlobalInitialiser</text>
<text xml:space="preserve" text-anchor="middle" x="358.38" y="-278" font-family="Helvetica,sans-Serif" font-size="10.00">::init_monte_carlo</text>
</a>
</g>
</g>
<!-- Node8&#45;&gt;Node9 -->
<g id="edge10_Node000008_Node000009" class="edge">
<title>Node8&#45;&gt;Node9</title>
<g id="a_edge10_Node000008_Node000009"><a xlink:title=" ">
<path fill="none" stroke="#63b8ff" d="M261.55,-258.4C273.11,-261.91 285.57,-265.69 297.55,-269.33"/>
<polygon fill="#63b8ff" stroke="#63b8ff" points="296.34,-272.62 306.93,-272.18 298.38,-265.92 296.34,-272.62"/>
</a>
</g>
</g>
<!-- Node13 -->
<g id="Node000013" class="node">
<title>Node13</title>
<g id="a_Node000013"><a xlink:href="classCore_1_1GlobalInitialiser.html#aa84a61b25f475380b38306232e25aff6" target="_top" xlink:title="Initializes a scalar component of the simulation.">
<polygon fill="white" stroke="#666666" points="413.25,-216 303.5,-216 303.5,-187 413.25,-187 413.25,-216"/>
<text xml:space="preserve" text-anchor="start" x="311.5" y="-202.5" font-family="Helvetica,sans-Serif" font-size="10.00">Core::GlobalInitialiser</text>
<text xml:space="preserve" text-anchor="middle" x="358.38" y="-192" font-family="Helvetica,sans-Serif" font-size="10.00">::init_scalar</text>
</a>
</g>
</g>
<!-- Node8&#45;&gt;Node13 -->
<g id="edge17_Node000008_Node000013" class="edge">
<title>Node8&#45;&gt;Node13</title>
<g id="a_edge17_Node000008_Node000013"><a xlink:title=" ">
<path fill="none" stroke="#63b8ff" d="M263.99,-228.57C274.13,-225.63 284.87,-222.52 295.31,-219.49"/>
<polygon fill="#63b8ff" stroke="#63b8ff" points="295.97,-222.95 304.6,-216.8 294.02,-216.22 295.97,-222.95"/>
</a>
</g>
</g>
<!-- Node9&#45;&gt;Node6 -->
<g id="edge14_Node000009_Node000006" class="edge">
<title>Node9&#45;&gt;Node6</title>
<g id="a_edge14_Node000009_Node000006"><a xlink:title=" ">
<path fill="none" stroke="#63b8ff" d="M393.28,-272.59C400.33,-268.61 407.38,-263.89 413.25,-258.5 434.77,-238.75 427,-222.44 449.25,-203.5 450.52,-202.42 451.84,-201.38 453.21,-200.38"/>
<polygon fill="#63b8ff" stroke="#63b8ff" points="454.88,-203.47 461.46,-195.17 451.14,-197.55 454.88,-203.47"/>
</a>
</g>
</g>
<!-- Node9&#45;&gt;Node7 -->
<g id="edge16_Node000009_Node000007" class="edge">
<title>Node9&#45;&gt;Node7</title>
<g id="a_edge16_Node000009_Node000007"><a xlink:title=" ">
<path fill="none" stroke="#63b8ff" d="M374.17,-272.53C385.65,-260.45 401.53,-242.7 413.25,-225.5 432.73,-196.92 424.05,-180.19 449.25,-156.5 450.28,-155.53 451.35,-154.6 452.46,-153.7"/>
<polygon fill="#63b8ff" stroke="#63b8ff" points="454.06,-156.85 460.34,-148.31 450.11,-151.07 454.06,-156.85"/>
</a>
</g>
</g>
<!-- Node10 -->
<g id="Node000010" class="node">
<title>Node10</title>
<g id="a_Node000010"><a xlink:href="namespaceWrapMPI.html#a8237adbb04708d9bf4bae9e904d04f5f" target="_top" xlink:title=" ">
<polygon fill="white" stroke="#666666" points="701,-295.75 595,-295.75 595,-277.25 701,-277.25 701,-295.75"/>
<text xml:space="preserve" text-anchor="middle" x="648" y="-282.25" font-family="Helvetica,sans-Serif" font-size="10.00">WrapMPI::all_reduce</text>
</a>
</g>
</g>
<!-- Node9&#45;&gt;Node10 -->
<g id="edge11_Node000009_Node000010" class="edge">
<title>Node9&#45;&gt;Node10</title>
<g id="a_edge11_Node000009_Node000010"><a xlink:title=" ">
<path fill="none" stroke="#63b8ff" d="M413.48,-287.31C461.74,-287.14 532.44,-286.9 583.39,-286.72"/>
<polygon fill="#63b8ff" stroke="#63b8ff" points="583.1,-290.22 593.08,-286.69 583.07,-283.22 583.1,-290.22"/>
</a>
</g>
</g>
<!-- Node12 -->
<g id="Node000012" class="node">
<title>Node12</title>
<g id="a_Node000012"><a xlink:href="namespaceMC.html#ac9b6a65d70e4c5007f4bc908509924a0" target="_top" xlink:title=" ">
<polygon fill="white" stroke="#666666" points="557.88,-277.75 450.38,-277.75 450.38,-259.25 557.88,-259.25 557.88,-277.75"/>
<text xml:space="preserve" text-anchor="middle" x="504.12" y="-264.25" font-family="Helvetica,sans-Serif" font-size="10.00">MC::post_init_weight</text>
</a>
</g>
</g>
<!-- Node9&#45;&gt;Node12 -->
<g id="edge15_Node000009_Node000012" class="edge">
<title>Node9&#45;&gt;Node12</title>
<g id="a_edge15_Node000009_Node000012"><a xlink:title=" ">
<path fill="none" stroke="#63b8ff" d="M413.72,-280.32C421.92,-279.23 430.44,-278.11 438.83,-277"/>
<polygon fill="#63b8ff" stroke="#63b8ff" points="439.17,-280.48 448.63,-275.7 438.26,-273.54 439.17,-280.48"/>
</a>
</g>
</g>
<!-- Node10&#45;&gt;Node10 -->
<g id="edge12_Node000010_Node000010" class="edge">
<title>Node10&#45;&gt;Node10</title>
<g id="a_edge12_Node000010_Node000010"><a xlink:title=" ">
<path fill="none" stroke="#63b8ff" d="M625.82,-296C615.04,-304.57 622.43,-313.75 648,-313.75 662.38,-313.75 671.02,-310.84 673.9,-306.78"/>
<polygon fill="#63b8ff" stroke="#63b8ff" points="677.24,-305.74 670.67,-297.43 670.62,-308.02 677.24,-305.74"/>
</a>
</g>
</g>
<!-- Node11 -->
<g id="Node000011" class="node">
<title>Node11</title>
<g id="a_Node000011"><a xlink:href="namespaceWrapMPI.html#adab3300a86b8c0227268b23134b57a24" target="_top" xlink:title=" ">
<polygon fill="white" stroke="#666666" points="844.12,-228.75 744.88,-228.75 744.88,-210.25 844.12,-210.25 844.12,-228.75"/>
<text xml:space="preserve" text-anchor="middle" x="794.5" y="-215.25" font-family="Helvetica,sans-Serif" font-size="10.00">WrapMPI::get_type</text>
</a>
</g>
</g>
<!-- Node10&#45;&gt;Node11 -->
<g id="edge13_Node000010_Node000011" class="edge">
<title>Node10&#45;&gt;Node11</title>
<g id="a_edge13_Node000010_Node000011"><a xlink:title=" ">
<path fill="none" stroke="#63b8ff" d="M670.01,-276.76C694.34,-265.48 734.62,-246.8 762.54,-233.86"/>
<polygon fill="#63b8ff" stroke="#63b8ff" points="763.96,-237.06 771.56,-229.67 761.01,-230.71 763.96,-237.06"/>
</a>
</g>
</g>
<!-- Node13&#45;&gt;Node6 -->
<g id="edge18_Node000013_Node000006" class="edge">
<title>Node13&#45;&gt;Node6</title>
<g id="a_edge18_Node000013_Node000006"><a xlink:title=" ">
<path fill="none" stroke="#63b8ff" d="M413.72,-193.18C421.61,-191.98 429.8,-190.72 437.88,-189.49"/>
<polygon fill="#63b8ff" stroke="#63b8ff" points="438.33,-192.96 447.68,-187.99 437.27,-186.04 438.33,-192.96"/>
</a>
</g>
</g>
<!-- Node13&#45;&gt;Node7 -->
<g id="edge21_Node000013_Node000007" class="edge">
<title>Node13&#45;&gt;Node7</title>
<g id="a_edge21_Node000013_Node000007"><a xlink:title=" ">
<path fill="none" stroke="#63b8ff" d="M396.22,-186.62C401.99,-184.05 407.83,-181.3 413.25,-178.5 429.92,-169.91 432.65,-165.22 449.25,-156.5 451.92,-155.1 454.69,-153.7 457.5,-152.32"/>
<polygon fill="#63b8ff" stroke="#63b8ff" points="458.84,-155.56 466.38,-148.12 455.84,-149.24 458.84,-155.56"/>
</a>
</g>
</g>
<!-- Node14 -->
<g id="Node000014" class="node">
<title>Node14</title>
<g id="a_Node000014"><a xlink:href="namespaceCore_1_1ScalarFactory.html#a8fb497033464776a1cda71cce1840cd8" target="_top" xlink:title="Factory function to initialize scalar data based on the specified input source.">
<polygon fill="white" stroke="#666666" points="556.38,-241 451.88,-241 451.88,-212 556.38,-212 556.38,-241"/>
<text xml:space="preserve" text-anchor="start" x="459.88" y="-227.5" font-family="Helvetica,sans-Serif" font-size="10.00">Core::ScalarFactory</text>
<text xml:space="preserve" text-anchor="middle" x="504.12" y="-217" font-family="Helvetica,sans-Serif" font-size="10.00">::scalar_factory</text>
</a>
</g>
</g>
<!-- Node13&#45;&gt;Node14 -->
<g id="edge19_Node000013_Node000014" class="edge">
<title>Node13&#45;&gt;Node14</title>
<g id="a_edge19_Node000013_Node000014"><a xlink:title=" ">
<path fill="none" stroke="#63b8ff" d="M413.72,-210.95C422.44,-212.47 431.53,-214.05 440.43,-215.6"/>
<polygon fill="#63b8ff" stroke="#63b8ff" points="439.61,-219.01 450.06,-217.27 440.81,-212.11 439.61,-219.01"/>
</a>
</g>
</g>
<!-- Node15 -->
<g id="Node000015" class="node">
<title>Node15</title>
<g id="a_Node000015"><a xlink:href="namespaceCore_1_1ScalarFactory.html#a3cd3bf6bf73298a38df48b444e3f0a23" target="_top" xlink:title=" ">
<polygon fill="white" stroke="#666666" points="700.25,-241 595.75,-241 595.75,-212 700.25,-212 700.25,-241"/>
<text xml:space="preserve" text-anchor="start" x="603.75" y="-227.5" font-family="Helvetica,sans-Serif" font-size="10.00">Core::ScalarFactory</text>
<text xml:space="preserve" text-anchor="middle" x="648" y="-217" font-family="Helvetica,sans-Serif" font-size="10.00">::sanitize</text>
</a>
</g>
</g>
<!-- Node14&#45;&gt;Node15 -->
<g id="edge20_Node000014_Node000015" class="edge">
<title>Node14&#45;&gt;Node15</title>
<g id="a_edge20_Node000014_Node000015"><a xlink:title=" ">
<path fill="none" stroke="#63b8ff" d="M556.75,-226.5C565.66,-226.5 575.01,-226.5 584.18,-226.5"/>
<polygon fill="#63b8ff" stroke="#63b8ff" points="584.14,-230 594.14,-226.5 584.14,-223 584.14,-230"/>
</a>
</g>
</g>
<!-- Node16&#45;&gt;Node3 -->
<g id="edge24_Node000016_Node000003" class="edge">
<title>Node16&#45;&gt;Node3</title>
<g id="a_edge24_Node000016_Node000003"><a xlink:title=" ">
<path fill="none" stroke="#63b8ff" d="M266.86,-73.26C283.53,-77.17 301.56,-81.4 317.11,-85.05"/>
<polygon fill="#63b8ff" stroke="#63b8ff" points="315.93,-88.37 326.47,-87.25 317.53,-81.55 315.93,-88.37"/>
</a>
</g>
</g>
<!-- Node16&#45;&gt;Node7 -->
<g id="edge35_Node000016_Node000007" class="edge">
<title>Node16&#45;&gt;Node7</title>
<g id="a_edge35_Node000016_Node000007"><a xlink:title=" ">
<path fill="none" stroke="#63b8ff" d="M266.52,-56.12C308.14,-54.77 366.31,-57.36 413.25,-76.5 432.54,-84.36 431.74,-95.22 449.25,-106.5 452.31,-108.47 455.53,-110.38 458.83,-112.23"/>
<polygon fill="#63b8ff" stroke="#63b8ff" points="457,-115.22 467.47,-116.8 460.27,-109.03 457,-115.22"/>
</a>
</g>
</g>
<!-- Node17 -->
<g id="Node000017" class="node">
<title>Node17</title>
<g id="a_Node000017"><a xlink:href="classCore_1_1GlobalInitialiser.html#a97eff5566ced6ba6449eb532f0babadc" target="_top" xlink:title="Initializes a flow iterator.">
<polygon fill="white" stroke="#666666" points="413.25,-29 303.5,-29 303.5,0 413.25,0 413.25,-29"/>
<text xml:space="preserve" text-anchor="start" x="311.5" y="-15.5" font-family="Helvetica,sans-Serif" font-size="10.00">Core::GlobalInitialiser</text>
<text xml:space="preserve" text-anchor="middle" x="358.38" y="-5" font-family="Helvetica,sans-Serif" font-size="10.00">::init_state</text>
</a>
</g>
</g>
<!-- Node16&#45;&gt;Node17 -->
<g id="edge25_Node000016_Node000017" class="edge">
<title>Node16&#45;&gt;Node17</title>
<g id="a_edge25_Node000016_Node000017"><a xlink:title=" ">
<path fill="none" stroke="#63b8ff" d="M259.54,-45.57C272.32,-41.51 286.31,-37.07 299.61,-32.84"/>
<polygon fill="#63b8ff" stroke="#63b8ff" points="300.66,-36.18 309.13,-29.82 298.54,-29.51 300.66,-36.18"/>
</a>
</g>
</g>
<!-- Node17&#45;&gt;Node6 -->
<g id="edge26_Node000017_Node000006" class="edge">
<title>Node17&#45;&gt;Node6</title>
<g id="a_edge26_Node000017_Node000006"><a xlink:title=" ">
<path fill="none" stroke="#63b8ff" d="M374.45,-29.29C386.09,-41.26 402.03,-58.96 413.25,-76.5 434.26,-109.34 421.41,-129.2 449.25,-156.5 449.74,-156.98 450.24,-157.45 450.75,-157.91"/>
<polygon fill="#63b8ff" stroke="#63b8ff" points="448.44,-160.56 458.57,-163.69 452.61,-154.93 448.44,-160.56"/>
</a>
</g>
</g>
<!-- Node17&#45;&gt;Node7 -->
<g id="edge34_Node000017_Node000007" class="edge">
<title>Node17&#45;&gt;Node7</title>
<g id="a_edge34_Node000017_Node000007"><a xlink:title=" ">
<path fill="none" stroke="#63b8ff" d="M394.09,-29.47C400.93,-33.4 407.7,-38.09 413.25,-43.5 436.34,-66.01 425.67,-84.5 449.25,-106.5 451.1,-108.23 453.09,-109.86 455.17,-111.4"/>
<polygon fill="#63b8ff" stroke="#63b8ff" points="453.18,-114.29 463.48,-116.77 456.98,-108.41 453.18,-114.29"/>
</a>
</g>
</g>
<!-- Node18 -->
<g id="Node000018" class="node">
<title>Node18</title>
<g id="a_Node000018"><a xlink:href="classCore_1_1GlobalInitialiser.html#a36655d4a10ebb302f64512e2cda8649d" target="_top" xlink:title="Retrieves path files based on the provided case path.">
<polygon fill="white" stroke="#666666" points="559,-29 449.25,-29 449.25,0 559,0 559,-29"/>
<text xml:space="preserve" text-anchor="start" x="457.25" y="-15.5" font-family="Helvetica,sans-Serif" font-size="10.00">Core::GlobalInitialiser</text>
<text xml:space="preserve" text-anchor="middle" x="504.12" y="-5" font-family="Helvetica,sans-Serif" font-size="10.00">::host_init_state</text>
</a>
</g>
</g>
<!-- Node17&#45;&gt;Node18 -->
<g id="edge27_Node000017_Node000018" class="edge">
<title>Node17&#45;&gt;Node18</title>
<g id="a_edge27_Node000017_Node000018"><a xlink:title=" ">
<path fill="none" stroke="#63b8ff" d="M413.72,-14.5C421.61,-14.5 429.8,-14.5 437.88,-14.5"/>
<polygon fill="#63b8ff" stroke="#63b8ff" points="437.67,-18 447.67,-14.5 437.67,-11 437.67,-18"/>
</a>
</g>
</g>
<!-- Node19 -->
<g id="Node000019" class="node">
<title>Node19</title>
<g id="a_Node000019"><a xlink:href="classCore_1_1GlobalInitialiser.html#aa042e8d396a5287c49fb6a8b81eba209" target="_top" xlink:title="Performs MPI broadcast for synchronization.">
<polygon fill="white" stroke="#666666" points="559,-97 449.25,-97 449.25,-68 559,-68 559,-97"/>
<text xml:space="preserve" text-anchor="start" x="457.25" y="-83.5" font-family="Helvetica,sans-Serif" font-size="10.00">Core::GlobalInitialiser</text>
<text xml:space="preserve" text-anchor="middle" x="504.12" y="-73" font-family="Helvetica,sans-Serif" font-size="10.00">::mpi_broadcast</text>
</a>
</g>
</g>
<!-- Node17&#45;&gt;Node19 -->
<g id="edge28_Node000017_Node000019" class="edge">
<title>Node17&#45;&gt;Node19</title>
<g id="a_edge28_Node000017_Node000019"><a xlink:title=" ">
<path fill="none" stroke="#63b8ff" d="M390.92,-29.42C411.61,-39.21 438.9,-52.12 461.38,-62.75"/>
<polygon fill="#63b8ff" stroke="#63b8ff" points="459.75,-65.85 470.28,-66.96 462.74,-59.52 459.75,-65.85"/>
</a>
</g>
</g>
<!-- Node20 -->
<g id="Node000020" class="node">
<title>Node20</title>
<g id="a_Node000020"><a xlink:href="namespaceWrapMPI.html#a1a08bbe69602ac2f4f38e1a0d45275cb" target="_top" xlink:title=" ">
<polygon fill="white" stroke="#666666" points="692.38,-70.75 603.62,-70.75 603.62,-52.25 692.38,-52.25 692.38,-70.75"/>
<text xml:space="preserve" text-anchor="middle" x="648" y="-57.25" font-family="Helvetica,sans-Serif" font-size="10.00">WrapMPI::barrier</text>
</a>
</g>
</g>
<!-- Node19&#45;&gt;Node20 -->
<g id="edge29_Node000019_Node000020" class="edge">
<title>Node19&#45;&gt;Node20</title>
<g id="a_edge29_Node000019_Node000020"><a xlink:title=" ">
<path fill="none" stroke="#63b8ff" d="M559.17,-74.5C569.98,-72.9 581.34,-71.22 592.18,-69.61"/>
<polygon fill="#63b8ff" stroke="#63b8ff" points="592.36,-73.13 601.74,-68.2 591.33,-66.2 592.36,-73.13"/>
</a>
</g>
</g>
<!-- Node21 -->
<g id="Node000021" class="node">
<title>Node21</title>
<g id="a_Node000021"><a xlink:href="namespaceWrapMPI.html#aa924ad0d911109a9e6e3a20bebc3b316" target="_top" xlink:title=" ">
<polygon fill="white" stroke="#666666" points="852,-89.75 737,-89.75 737,-71.25 852,-71.25 852,-89.75"/>
<text xml:space="preserve" text-anchor="middle" x="794.5" y="-76.25" font-family="Helvetica,sans-Serif" font-size="10.00">WrapMPI::critical_error</text>
</a>
</g>
</g>
<!-- Node19&#45;&gt;Node21 -->
<g id="edge33_Node000019_Node000021" class="edge">
<title>Node19&#45;&gt;Node21</title>
<g id="a_edge33_Node000019_Node000021"><a xlink:title=" ">
<path fill="none" stroke="#63b8ff" d="M559.37,-82.12C606.29,-81.8 674.37,-81.33 725.04,-80.97"/>
<polygon fill="#63b8ff" stroke="#63b8ff" points="725.05,-84.47 735.03,-80.91 725,-77.48 725.05,-84.47"/>
</a>
</g>
</g>
<!-- Node22 -->
<g id="Node000022" class="node">
<title>Node22</title>
<g id="a_Node000022"><a xlink:href="namespaceWrapMPI.html#a372df5351a2085df252cc9f4cceae7de" target="_top" xlink:title="Broadcasts a single data item to all processes.">
<polygon fill="white" stroke="#666666" points="700.25,-161.75 595.75,-161.75 595.75,-143.25 700.25,-143.25 700.25,-161.75"/>
<text xml:space="preserve" text-anchor="middle" x="648" y="-148.25" font-family="Helvetica,sans-Serif" font-size="10.00">WrapMPI::broadcast</text>
</a>
</g>
</g>
<!-- Node19&#45;&gt;Node22 -->
<g id="edge31_Node000019_Node000022" class="edge">
<title>Node19&#45;&gt;Node22</title>
<g id="a_edge31_Node000019_Node000022"><a xlink:title=" ">
<path fill="none" stroke="#63b8ff" d="M535.21,-97.35C559.34,-109.25 593.02,-125.87 617.1,-137.75"/>
<polygon fill="#63b8ff" stroke="#63b8ff" points="615.54,-140.88 626.06,-142.17 618.64,-134.6 615.54,-140.88"/>
</a>
</g>
</g>
<!-- Node20&#45;&gt;Node21 -->
<g id="edge30_Node000020_Node000021" class="edge">
<title>Node20&#45;&gt;Node21</title>
<g id="a_edge30_Node000020_Node000021"><a xlink:title=" ">
<path fill="none" stroke="#63b8ff" d="M692.75,-67.25C702.98,-68.6 714.12,-70.06 725.15,-71.51"/>
<polygon fill="#63b8ff" stroke="#63b8ff" points="724.67,-74.98 735.04,-72.81 725.58,-68.04 724.67,-74.98"/>
</a>
</g>
</g>
<!-- Node22&#45;&gt;Node11 -->
<g id="edge32_Node000022_Node000011" class="edge">
<title>Node22&#45;&gt;Node11</title>
<g id="a_edge32_Node000022_Node000011"><a xlink:title=" ">
<path fill="none" stroke="#63b8ff" d="M670.01,-162.24C694.34,-173.52 734.62,-192.2 762.54,-205.14"/>
<polygon fill="#63b8ff" stroke="#63b8ff" points="761.01,-208.29 771.56,-209.33 763.96,-201.94 761.01,-208.29"/>
</a>
</g>
</g>
</g>
</svg>
