<?xml version="1.0" encoding="UTF-8" standalone="no"?>
<!DOCTYPE svg PUBLIC "-//W3C//DTD SVG 1.1//EN"
 "http://www.w3.org/Graphics/SVG/1.1/DTD/svg11.dtd">
<!-- Generated by graphviz version 14.0.1 (0)
 -->
<!-- Title: Models::Uptake::f_G Pages: 1 -->
<svg width="753pt" height="51pt"
 viewBox="0.00 0.00 753.00 51.00" xmlns="http://www.w3.org/2000/svg" xmlns:xlink="http://www.w3.org/1999/xlink">
<g id="graph0" class="graph" transform="scale(1 1) rotate(0) translate(4 46.75)">
<title>Models::Uptake::f_G</title>
<!-- Node1 -->
<g id="Node000001" class="node">
<title>Node1</title>
<g id="a_Node000001"><a xlink:title=" ">
<polygon fill="#999999" stroke="#666666" points="744.5,-23.75 638.5,-23.75 638.5,-5.25 744.5,-5.25 744.5,-23.75"/>
<text xml:space="preserve" text-anchor="middle" x="691.5" y="-10.25" font-family="Helvetica,sans-Serif" font-size="10.00">Models::Uptake::f_G</text>
</a>
</g>
</g>
<!-- Node2 -->
<g id="Node000002" class="node">
<title>Node2</title>
<g id="a_Node000002"><a xlink:href="structModels_1_1Uptake.html#a3a55e9132d39efd1185cf726946b4fb0" target="_top" xlink:title=" ">
<polygon fill="white" stroke="#666666" points="602.5,-42.75 480.75,-42.75 480.75,-24.25 602.5,-24.25 602.5,-42.75"/>
<text xml:space="preserve" text-anchor="middle" x="541.62" y="-29.25" font-family="Helvetica,sans-Serif" font-size="10.00">Models::Uptake::phi_pts</text>
</a>
</g>
</g>
<!-- Node1&#45;&gt;Node2 -->
<g id="edge1_Node000001_Node000002" class="edge">
<title>Node1&#45;&gt;Node2</title>
<g id="a_edge1_Node000001_Node000002"><a xlink:title=" ">
<path fill="none" stroke="#63b8ff" d="M627.14,-22.64C619.09,-23.67 610.88,-24.73 602.88,-25.76"/>
<polygon fill="#63b8ff" stroke="#63b8ff" points="627.39,-26.14 636.86,-21.39 626.5,-19.19 627.39,-26.14"/>
</a>
</g>
</g>
<!-- Node4 -->
<g id="Node000004" class="node">
<title>Node4</title>
<g id="a_Node000004"><a xlink:href="structModels_1_1Uptake.html#aa49ff7f6c6612f124457541d05e080ae" target="_top" xlink:title=" ">
<polygon fill="white" stroke="#666666" points="290,-23.75 147.25,-23.75 147.25,-5.25 290,-5.25 290,-23.75"/>
<text xml:space="preserve" text-anchor="middle" x="218.62" y="-10.25" font-family="Helvetica,sans-Serif" font-size="10.00">Models::Uptake::uptake_step</text>
</a>
</g>
</g>
<!-- Node1&#45;&gt;Node4 -->
<g id="edge5_Node000001_Node000004" class="edge">
<title>Node1&#45;&gt;Node4</title>
<g id="a_edge5_Node000001_Node000004"><a xlink:title=" ">
<path fill="none" stroke="#63b8ff" d="M626.94,-14.5C539.27,-14.5 381.74,-14.5 290.41,-14.5"/>
<polygon fill="#63b8ff" stroke="#63b8ff" points="626.8,-18 636.8,-14.5 626.8,-11 626.8,-18"/>
</a>
</g>
</g>
<!-- Node3 -->
<g id="Node000003" class="node">
<title>Node3</title>
<g id="a_Node000003"><a xlink:href="structModels_1_1Uptake.html#a4f234fec9f9f9ab26e607310ab95291f" target="_top" xlink:title=" ">
<polygon fill="white" stroke="#666666" points="444.75,-42.75 326,-42.75 326,-24.25 444.75,-24.25 444.75,-42.75"/>
<text xml:space="preserve" text-anchor="middle" x="385.38" y="-29.25" font-family="Helvetica,sans-Serif" font-size="10.00">Models::Uptake::uptake</text>
</a>
</g>
</g>
<!-- Node2&#45;&gt;Node3 -->
<g id="edge2_Node000002_Node000003" class="edge">
<title>Node2&#45;&gt;Node3</title>
<g id="a_edge2_Node000002_Node000003"><a xlink:title=" ">
<path fill="none" stroke="#63b8ff" d="M469.2,-33.5C461.1,-33.5 452.93,-33.5 445.02,-33.5"/>
<polygon fill="#63b8ff" stroke="#63b8ff" points="469.03,-37 479.03,-33.5 469.03,-30 469.03,-37"/>
</a>
</g>
</g>
<!-- Node3&#45;&gt;Node4 -->
<g id="edge3_Node000003_Node000004" class="edge">
<title>Node3&#45;&gt;Node4</title>
<g id="a_edge3_Node000003_Node000004"><a xlink:title=" ">
<path fill="none" stroke="#63b8ff" d="M314.63,-25.46C306.61,-24.53 298.43,-23.59 290.4,-22.66"/>
<polygon fill="#63b8ff" stroke="#63b8ff" points="313.99,-28.91 324.32,-26.57 314.79,-21.95 313.99,-28.91"/>
</a>
</g>
</g>
<!-- Node5 -->
<g id="Node000005" class="node">
<title>Node5</title>
<g id="a_Node000005"><a xlink:href="structModels_1_1TwoMetaNb.html#af87eb2560275107bff615f9a54bfeeda" target="_top" xlink:title=" ">
<polygon fill="white" stroke="#666666" points="111.25,-29 0,-29 0,0 111.25,0 111.25,-29"/>
<text xml:space="preserve" text-anchor="start" x="8" y="-15.5" font-family="Helvetica,sans-Serif" font-size="10.00">Models::TwoMetaNb::</text>
<text xml:space="preserve" text-anchor="middle" x="55.62" y="-5" font-family="Helvetica,sans-Serif" font-size="10.00">update</text>
</a>
</g>
</g>
<!-- Node4&#45;&gt;Node5 -->
<g id="edge4_Node000004_Node000005" class="edge">
<title>Node4&#45;&gt;Node5</title>
<g id="a_edge4_Node000004_Node000005"><a xlink:title=" ">
<path fill="none" stroke="#63b8ff" d="M135.59,-14.5C127.49,-14.5 119.42,-14.5 111.7,-14.5"/>
<polygon fill="#63b8ff" stroke="#63b8ff" points="135.49,-18 145.49,-14.5 135.49,-11 135.49,-18"/>
</a>
</g>
</g>
</g>
</svg>
