<?xml version="1.0" encoding="UTF-8" standalone="no"?>
<!DOCTYPE svg PUBLIC "-//W3C//DTD SVG 1.1//EN"
 "http://www.w3.org/Graphics/SVG/1.1/DTD/svg11.dtd">
<!-- Generated by graphviz version 14.0.1 (0)
 -->
<!-- Title: Api::SimulationInstance::apply Pages: 1 -->
<svg width="941pt" height="225pt"
 viewBox="0.00 0.00 941.00 225.00" xmlns="http://www.w3.org/2000/svg" xmlns:xlink="http://www.w3.org/1999/xlink">
<g id="graph0" class="graph" transform="scale(1 1) rotate(0) translate(4 221)">
<title>Api::SimulationInstance::apply</title>
<!-- Node1 -->
<g id="Node000001" class="node">
<title>Node1</title>
<g id="a_Node000001"><a xlink:title="Apply the simulation configuration and prepare for execution.">
<polygon fill="#999999" stroke="#666666" points="119.5,-123 0,-123 0,-94 119.5,-94 119.5,-123"/>
<text xml:space="preserve" text-anchor="start" x="8" y="-109.5" font-family="Helvetica,sans-Serif" font-size="10.00">Api::SimulationInstance</text>
<text xml:space="preserve" text-anchor="middle" x="59.75" y="-99" font-family="Helvetica,sans-Serif" font-size="10.00">::apply</text>
</a>
</g>
</g>
<!-- Node1&#45;&gt;Node1 -->
<g id="edge1_Node000001_Node000001" class="edge">
<title>Node1&#45;&gt;Node1</title>
<g id="a_edge1_Node000001_Node000001"><a xlink:title=" ">
<path fill="none" stroke="#63b8ff" d="M32.65,-123.21C26.12,-132.32 35.15,-141 59.75,-141 73.2,-141 82,-138.41 86.14,-134.56"/>
<polygon fill="#63b8ff" stroke="#63b8ff" points="89.63,-134.92 86.76,-124.72 82.64,-134.48 89.63,-134.92"/>
</a>
</g>
</g>
<!-- Node2 -->
<g id="Node000002" class="node">
<title>Node2</title>
<g id="a_Node000002"><a xlink:href="structApi_1_1SimulationInstance.html#ad2abfa76ac4128d44b7c0c895f78b77b" target="_top" xlink:title="Load ad apply the simulation configuration and prepare for execution based on file.">
<polygon fill="white" stroke="#666666" points="275,-123 155.5,-123 155.5,-94 275,-94 275,-123"/>
<text xml:space="preserve" text-anchor="start" x="163.5" y="-109.5" font-family="Helvetica,sans-Serif" font-size="10.00">Api::SimulationInstance</text>
<text xml:space="preserve" text-anchor="middle" x="215.25" y="-99" font-family="Helvetica,sans-Serif" font-size="10.00">::apply_load</text>
</a>
</g>
</g>
<!-- Node1&#45;&gt;Node2 -->
<g id="edge2_Node000001_Node000002" class="edge">
<title>Node1&#45;&gt;Node2</title>
<g id="a_edge2_Node000001_Node000002"><a xlink:title=" ">
<path fill="none" stroke="#63b8ff" d="M119.66,-108.5C127.59,-108.5 135.79,-108.5 143.89,-108.5"/>
<polygon fill="#63b8ff" stroke="#63b8ff" points="143.73,-112 153.73,-108.5 143.73,-105 143.73,-112"/>
</a>
</g>
</g>
<!-- Node3 -->
<g id="Node000003" class="node">
<title>Node3</title>
<g id="a_Node000003"><a xlink:href="namespaceCore.html#a8a3e4aa1d1921da2e211c43d5368acf1" target="_top" xlink:title=" ">
<polygon fill="white" stroke="#666666" points="372,-117.75 311,-117.75 311,-99.25 372,-99.25 372,-117.75"/>
<text xml:space="preserve" text-anchor="middle" x="341.5" y="-104.25" font-family="Helvetica,sans-Serif" font-size="10.00">Core::load</text>
</a>
</g>
</g>
<!-- Node2&#45;&gt;Node3 -->
<g id="edge3_Node000002_Node000003" class="edge">
<title>Node2&#45;&gt;Node3</title>
<g id="a_edge3_Node000002_Node000003"><a xlink:title=" ">
<path fill="none" stroke="#63b8ff" d="M275.46,-108.5C283.6,-108.5 291.8,-108.5 299.51,-108.5"/>
<polygon fill="#63b8ff" stroke="#63b8ff" points="299.25,-112 309.25,-108.5 299.25,-105 299.25,-112"/>
</a>
</g>
</g>
<!-- Node4 -->
<g id="Node000004" class="node">
<title>Node4</title>
<g id="a_Node000004"><a xlink:href="namespaceCore.html#ab6528e76111960864b7e4741327b3049" target="_top" xlink:title="Start simulation.">
<polygon fill="white" stroke="#666666" points="471.25,-117.75 408,-117.75 408,-99.25 471.25,-99.25 471.25,-117.75"/>
<text xml:space="preserve" text-anchor="middle" x="439.62" y="-104.25" font-family="Helvetica,sans-Serif" font-size="10.00">Core::exec</text>
</a>
</g>
</g>
<!-- Node3&#45;&gt;Node4 -->
<g id="edge4_Node000003_Node000004" class="edge">
<title>Node3&#45;&gt;Node4</title>
<g id="a_edge4_Node000003_Node000004"><a xlink:title=" ">
<path fill="none" stroke="#63b8ff" d="M372.39,-108.5C380.03,-108.5 388.39,-108.5 396.52,-108.5"/>
<polygon fill="#63b8ff" stroke="#63b8ff" points="396.25,-112 406.25,-108.5 396.25,-105 396.25,-112"/>
</a>
</g>
</g>
<!-- Node5 -->
<g id="Node000005" class="node">
<title>Node5</title>
<g id="a_Node000005"><a xlink:href="namespaceCore.html#a23e6f3d22fc51ef9decabb2c220b27c4" target="_top" xlink:title=" ">
<polygon fill="white" stroke="#666666" points="628.25,-159.75 507.25,-159.75 507.25,-141.25 628.25,-141.25 628.25,-159.75"/>
<text xml:space="preserve" text-anchor="middle" x="567.75" y="-146.25" font-family="Helvetica,sans-Serif" font-size="10.00">Core::exporter_filename</text>
</a>
</g>
</g>
<!-- Node4&#45;&gt;Node5 -->
<g id="edge5_Node000004_Node000005" class="edge">
<title>Node4&#45;&gt;Node5</title>
<g id="a_edge5_Node000004_Node000005"><a xlink:title=" ">
<path fill="none" stroke="#63b8ff" d="M471.69,-111.61C482.86,-115.13 495.58,-119.64 507.25,-123.5 520.01,-127.72 534.43,-132.1 545.88,-136.51"/>
<polygon fill="#63b8ff" stroke="#63b8ff" points="544.2,-139.6 554.77,-140.33 546.97,-133.17 544.2,-139.6"/>
</a>
</g>
</g>
<!-- Node6 -->
<g id="Node000006" class="node">
<title>Node6</title>
<g id="a_Node000006"><a xlink:href="namespaceCore.html#afbce0beea293a7ccfdfc34a85b5e5e77" target="_top" xlink:title=" ">
<polygon fill="white" stroke="#666666" points="611.75,-123 523.75,-123 523.75,-94 611.75,-94 611.75,-123"/>
<text xml:space="preserve" text-anchor="start" x="531.75" y="-109.5" font-family="Helvetica,sans-Serif" font-size="10.00">Core::init_partial</text>
<text xml:space="preserve" text-anchor="middle" x="567.75" y="-99" font-family="Helvetica,sans-Serif" font-size="10.00">_exporter</text>
</a>
</g>
</g>
<!-- Node4&#45;&gt;Node6 -->
<g id="edge7_Node000004_Node000006" class="edge">
<title>Node4&#45;&gt;Node6</title>
<g id="a_edge7_Node000004_Node000006"><a xlink:title=" ">
<path fill="none" stroke="#63b8ff" d="M471.48,-108.5C483.67,-108.5 498.06,-108.5 511.91,-108.5"/>
<polygon fill="#63b8ff" stroke="#63b8ff" points="511.84,-112 521.84,-108.5 511.84,-105 511.84,-112"/>
</a>
</g>
</g>
<!-- Node12 -->
<g id="Node000012" class="node">
<title>Node12</title>
<g id="a_Node000012"><a xlink:href="namespacePostProcessing.html#a0e06c75e06cf43e767d5e3e8afab62f2" target="_top" xlink:title=" ">
<polygon fill="white" stroke="#666666" points="623.38,-76 512.12,-76 512.12,-47 623.38,-47 623.38,-76"/>
<text xml:space="preserve" text-anchor="start" x="520.12" y="-62.5" font-family="Helvetica,sans-Serif" font-size="10.00">PostProcessing::save</text>
<text xml:space="preserve" text-anchor="middle" x="567.75" y="-52" font-family="Helvetica,sans-Serif" font-size="10.00">_probes</text>
</a>
</g>
</g>
<!-- Node4&#45;&gt;Node12 -->
<g id="edge13_Node000004_Node000012" class="edge">
<title>Node4&#45;&gt;Node12</title>
<g id="a_edge13_Node000004_Node000012"><a xlink:title=" ">
<path fill="none" stroke="#63b8ff" d="M466.76,-98.76C481.1,-93.42 499.37,-86.61 516.37,-80.28"/>
<polygon fill="#63b8ff" stroke="#63b8ff" points="517.17,-83.71 525.32,-76.94 514.72,-77.15 517.17,-83.71"/>
</a>
</g>
</g>
<!-- Node16 -->
<g id="Node000016" class="node">
<title>Node16</title>
<g id="a_Node000016"><a xlink:href="classCore_1_1DataExporter.html#ad3b98151595b0962c089a7afcdb2a642" target="_top" xlink:title=" ">
<polygon fill="white" stroke="#666666" points="618.12,-29 517.38,-29 517.38,0 618.12,0 618.12,-29"/>
<text xml:space="preserve" text-anchor="start" x="525.38" y="-15.5" font-family="Helvetica,sans-Serif" font-size="10.00">Core::DataExporter</text>
<text xml:space="preserve" text-anchor="middle" x="567.75" y="-5" font-family="Helvetica,sans-Serif" font-size="10.00">::set_logger</text>
</a>
</g>
</g>
<!-- Node4&#45;&gt;Node16 -->
<g id="edge17_Node000004_Node000016" class="edge">
<title>Node4&#45;&gt;Node16</title>
<g id="a_edge17_Node000004_Node000016"><a xlink:title=" ">
<path fill="none" stroke="#63b8ff" d="M447.41,-99.12C458.47,-84.42 481.71,-55.85 507.25,-38.5 509.19,-37.18 511.22,-35.91 513.3,-34.7"/>
<polygon fill="#63b8ff" stroke="#63b8ff" points="514.79,-37.87 522.03,-30.14 511.54,-31.67 514.79,-37.87"/>
</a>
</g>
</g>
<!-- Node5&#45;&gt;Node4 -->
<g id="edge6_Node000005_Node000004" class="edge">
<title>Node5&#45;&gt;Node4</title>
<g id="a_edge6_Node000005_Node000004"><a xlink:title=" ">
<path fill="none" stroke="#63b8ff" d="M506.77,-141.34C490.97,-136.1 473.32,-129.69 460.23,-123.5"/>
<polygon fill="#63b8ff" stroke="#63b8ff" points="461.88,-120.42 451.4,-118.85 458.62,-126.61 461.88,-120.42"/>
</a>
</g>
</g>
<!-- Node7 -->
<g id="Node000007" class="node">
<title>Node7</title>
<g id="a_Node000007"><a xlink:href="classCore_1_1PartialExporter.html#a05cba8c28abaecce99f586d551a75f80" target="_top" xlink:title="Initializes the fields required for exporting data.">
<polygon fill="white" stroke="#666666" points="784.5,-217 675.5,-217 675.5,-188 784.5,-188 784.5,-217"/>
<text xml:space="preserve" text-anchor="start" x="683.5" y="-203.5" font-family="Helvetica,sans-Serif" font-size="10.00">Core::PartialExporter</text>
<text xml:space="preserve" text-anchor="middle" x="730" y="-193" font-family="Helvetica,sans-Serif" font-size="10.00">::init_fields</text>
</a>
</g>
</g>
<!-- Node6&#45;&gt;Node7 -->
<g id="edge8_Node000006_Node000007" class="edge">
<title>Node6&#45;&gt;Node7</title>
<g id="a_edge8_Node000006_Node000007"><a xlink:title=" ">
<path fill="none" stroke="#63b8ff" d="M612.17,-122.79C617.85,-125.57 623.37,-128.79 628.25,-132.5 649.19,-148.43 642.98,-164.01 664.25,-179.5 665.58,-180.47 666.95,-181.39 668.35,-182.29"/>
<polygon fill="#63b8ff" stroke="#63b8ff" points="666.29,-185.15 676.74,-186.93 669.68,-179.02 666.29,-185.15"/>
</a>
</g>
</g>
<!-- Node9 -->
<g id="Node000009" class="node">
<title>Node9</title>
<g id="a_Node000009"><a xlink:href="namespacePostProcessing.html#a9ff9231cbdf2a3c4e539c4638aba2445" target="_top" xlink:title=" ">
<polygon fill="white" stroke="#666666" points="785.62,-170 674.38,-170 674.38,-141 785.62,-141 785.62,-170"/>
<text xml:space="preserve" text-anchor="start" x="682.38" y="-156.5" font-family="Helvetica,sans-Serif" font-size="10.00">PostProcessing::save</text>
<text xml:space="preserve" text-anchor="middle" x="730" y="-146" font-family="Helvetica,sans-Serif" font-size="10.00">_particle_state</text>
</a>
</g>
</g>
<!-- Node6&#45;&gt;Node9 -->
<g id="edge10_Node000006_Node000009" class="edge">
<title>Node6&#45;&gt;Node9</title>
<g id="a_edge10_Node000006_Node000009"><a xlink:title=" ">
<path fill="none" stroke="#63b8ff" d="M612.12,-121.22C629.01,-126.17 648.68,-131.94 667.01,-137.32"/>
<polygon fill="#63b8ff" stroke="#63b8ff" points="665.89,-140.64 676.47,-140.09 667.86,-133.92 665.89,-140.64"/>
</a>
</g>
</g>
<!-- Node10 -->
<g id="Node000010" class="node">
<title>Node10</title>
<g id="a_Node000010"><a xlink:href="classCore_1_1PartialExporter.html#a450fb0c92efa4ee81b4083fc01f5e665" target="_top" xlink:title="Writes the number of particles in each compartment.">
<polygon fill="white" stroke="#666666" points="789,-123 671,-123 671,-94 789,-94 789,-123"/>
<text xml:space="preserve" text-anchor="start" x="679" y="-109.5" font-family="Helvetica,sans-Serif" font-size="10.00">Core::PartialExporter</text>
<text xml:space="preserve" text-anchor="middle" x="730" y="-99" font-family="Helvetica,sans-Serif" font-size="10.00">::write_number_particle</text>
</a>
</g>
</g>
<!-- Node6&#45;&gt;Node10 -->
<g id="edge11_Node000006_Node000010" class="edge">
<title>Node6&#45;&gt;Node10</title>
<g id="a_edge11_Node000006_Node000010"><a xlink:title=" ">
<path fill="none" stroke="#63b8ff" d="M612.12,-108.5C626.59,-108.5 643.1,-108.5 659.06,-108.5"/>
<polygon fill="#63b8ff" stroke="#63b8ff" points="659.04,-112 669.04,-108.5 659.04,-105 659.04,-112"/>
</a>
</g>
</g>
<!-- Node8 -->
<g id="Node000008" class="node">
<title>Node8</title>
<g id="a_Node000008"><a xlink:href="classCore_1_1DataExporter.html#a9c60512b8e80f25d5f1f6cac29b27d07" target="_top" xlink:title=" ">
<polygon fill="white" stroke="#666666" points="932.5,-217 831.75,-217 831.75,-188 932.5,-188 932.5,-217"/>
<text xml:space="preserve" text-anchor="start" x="839.75" y="-203.5" font-family="Helvetica,sans-Serif" font-size="10.00">Core::DataExporter</text>
<text xml:space="preserve" text-anchor="middle" x="882.12" y="-193" font-family="Helvetica,sans-Serif" font-size="10.00">::prepare_matrix</text>
</a>
</g>
</g>
<!-- Node7&#45;&gt;Node8 -->
<g id="edge9_Node000007_Node000008" class="edge">
<title>Node7&#45;&gt;Node8</title>
<g id="a_edge9_Node000007_Node000008"><a xlink:title=" ">
<path fill="none" stroke="#63b8ff" d="M784.77,-202.5C796.38,-202.5 808.72,-202.5 820.57,-202.5"/>
<polygon fill="#63b8ff" stroke="#63b8ff" points="820.21,-206 830.21,-202.5 820.21,-199 820.21,-206"/>
</a>
</g>
</g>
<!-- Node11 -->
<g id="Node000011" class="node">
<title>Node11</title>
<g id="a_Node000011"><a xlink:href="classCore_1_1DataExporter.html#a0af9b5e13d16339af1918f8e845193f9" target="_top" xlink:title=" ">
<polygon fill="white" stroke="#666666" points="932.5,-123 831.75,-123 831.75,-94 932.5,-94 932.5,-123"/>
<text xml:space="preserve" text-anchor="start" x="839.75" y="-109.5" font-family="Helvetica,sans-Serif" font-size="10.00">Core::DataExporter</text>
<text xml:space="preserve" text-anchor="middle" x="882.12" y="-99" font-family="Helvetica,sans-Serif" font-size="10.00">::append_matrix</text>
</a>
</g>
</g>
<!-- Node10&#45;&gt;Node11 -->
<g id="edge12_Node000010_Node000011" class="edge">
<title>Node10&#45;&gt;Node11</title>
<g id="a_edge12_Node000010_Node000011"><a xlink:title=" ">
<path fill="none" stroke="#63b8ff" d="M789.47,-108.5C799.52,-108.5 809.99,-108.5 820.1,-108.5"/>
<polygon fill="#63b8ff" stroke="#63b8ff" points="819.82,-112 829.82,-108.5 819.82,-105 819.82,-112"/>
</a>
</g>
</g>
<!-- Node13 -->
<g id="Node000013" class="node">
<title>Node13</title>
<g id="a_Node000013"><a xlink:href="classSimulation_1_1SimulationUnit.html#a0d675ed463b0caaeea75be8bd87d72cc" target="_top" xlink:title=" ">
<polygon fill="white" stroke="#666666" points="795.75,-76 664.25,-76 664.25,-47 795.75,-47 795.75,-76"/>
<text xml:space="preserve" text-anchor="start" x="672.25" y="-62.5" font-family="Helvetica,sans-Serif" font-size="10.00">Simulation::SimulationUnit</text>
<text xml:space="preserve" text-anchor="middle" x="730" y="-52" font-family="Helvetica,sans-Serif" font-size="10.00">::get_probes</text>
</a>
</g>
</g>
<!-- Node12&#45;&gt;Node13 -->
<g id="edge14_Node000012_Node000013" class="edge">
<title>Node12&#45;&gt;Node13</title>
<g id="a_edge14_Node000012_Node000013"><a xlink:title=" ">
<path fill="none" stroke="#63b8ff" d="M623.45,-61.5C632.77,-61.5 642.6,-61.5 652.36,-61.5"/>
<polygon fill="#63b8ff" stroke="#63b8ff" points="652.24,-65 662.24,-61.5 652.24,-58 652.24,-65"/>
</a>
</g>
</g>
<!-- Node14 -->
<g id="Node000014" class="node">
<title>Node14</title>
<g id="a_Node000014"><a xlink:href="classCore_1_1PartialExporter.html#a9927dbf1350349f090606134043e190c" target="_top" xlink:title="Writes probe data to the export.">
<polygon fill="white" stroke="#666666" points="784.5,-29 675.5,-29 675.5,0 784.5,0 784.5,-29"/>
<text xml:space="preserve" text-anchor="start" x="683.5" y="-15.5" font-family="Helvetica,sans-Serif" font-size="10.00">Core::PartialExporter</text>
<text xml:space="preserve" text-anchor="middle" x="730" y="-5" font-family="Helvetica,sans-Serif" font-size="10.00">::write_probe</text>
</a>
</g>
</g>
<!-- Node12&#45;&gt;Node14 -->
<g id="edge15_Node000012_Node000014" class="edge">
<title>Node12&#45;&gt;Node14</title>
<g id="a_edge15_Node000012_Node000014"><a xlink:title=" ">
<path fill="none" stroke="#63b8ff" d="M619.45,-46.63C634.65,-42.17 651.49,-37.23 667.32,-32.59"/>
<polygon fill="#63b8ff" stroke="#63b8ff" points="668.01,-36.03 676.62,-29.86 666.04,-29.32 668.01,-36.03"/>
</a>
</g>
</g>
<!-- Node15 -->
<g id="Node000015" class="node">
<title>Node15</title>
<g id="a_Node000015"><a xlink:href="classCore_1_1DataExporter.html#a0b0b79f3932c4eb905704a852248c857" target="_top" xlink:title=" ">
<polygon fill="white" stroke="#666666" points="932.5,-29 831.75,-29 831.75,0 932.5,0 932.5,-29"/>
<text xml:space="preserve" text-anchor="start" x="839.75" y="-15.5" font-family="Helvetica,sans-Serif" font-size="10.00">Core::DataExporter</text>
<text xml:space="preserve" text-anchor="middle" x="882.12" y="-5" font-family="Helvetica,sans-Serif" font-size="10.00">::append_array</text>
</a>
</g>
</g>
<!-- Node14&#45;&gt;Node15 -->
<g id="edge16_Node000014_Node000015" class="edge">
<title>Node14&#45;&gt;Node15</title>
<g id="a_edge16_Node000014_Node000015"><a xlink:title=" ">
<path fill="none" stroke="#63b8ff" d="M784.77,-14.5C796.38,-14.5 808.72,-14.5 820.57,-14.5"/>
<polygon fill="#63b8ff" stroke="#63b8ff" points="820.21,-18 830.21,-14.5 820.21,-11 820.21,-18"/>
</a>
</g>
</g>
</g>
</svg>
