<?xml version="1.0" encoding="UTF-8" standalone="no"?>
<!DOCTYPE svg PUBLIC "-//W3C//DTD SVG 1.1//EN"
 "http://www.w3.org/Graphics/SVG/1.1/DTD/svg11.dtd">
<!-- Generated by graphviz version 12.1.2 (0)
 -->
<!-- Title: Result::valid Pages: 1 -->
<svg width="319pt" height="64pt"
 viewBox="0.00 0.00 318.50 63.50" xmlns="http://www.w3.org/2000/svg" xmlns:xlink="http://www.w3.org/1999/xlink">
<g id="graph0" class="graph" transform="scale(1 1) rotate(0) translate(4 59.5)">
<title>Result::valid</title>
<!-- Node1 -->
<g id="Node000001" class="node">
<title>Node1</title>
<g id="a_Node000001"><a xlink:title=" ">
<polygon fill="#999999" stroke="#666666" points="310.5,-36.5 241.25,-36.5 241.25,-18 310.5,-18 310.5,-36.5"/>
<text text-anchor="middle" x="275.88" y="-23" font-family="Helvetica,sans-Serif" font-size="10.00">Result::valid</text>
</a>
</g>
</g>
<!-- Node2 -->
<g id="Node000002" class="node">
<title>Node2</title>
<g id="a_Node000002"><a xlink:href="structResult.html#a2fe84d778f14a2d3c774268b92b39208" target="_top" xlink:title=" ">
<polygon fill="white" stroke="#666666" points="190.62,-55.5 113.88,-55.5 113.88,-37 190.62,-37 190.62,-55.5"/>
<text text-anchor="middle" x="152.25" y="-42" font-family="Helvetica,sans-Serif" font-size="10.00">Result::invalid</text>
</a>
</g>
</g>
<!-- Node1&#45;&gt;Node2 -->
<g id="edge1_Node000001_Node000002" class="edge">
<title>Node1&#45;&gt;Node2</title>
<g id="a_edge1_Node000001_Node000002"><a xlink:title=" ">
<path fill="none" stroke="#63b8ff" d="M230,-34.26C217.11,-36.27 203.19,-38.45 190.79,-40.39"/>
<polygon fill="#63b8ff" stroke="#63b8ff" points="230.16,-37.78 239.5,-32.78 229.08,-30.86 230.16,-37.78"/>
</a>
</g>
</g>
<!-- Node4 -->
<g id="Node000004" class="node">
<title>Node4</title>
<g id="a_Node000004"><a xlink:href="structResult.html#a57838349dddd5e33f9c6c1cd79751493" target="_top" xlink:title=" ">
<polygon fill="white" stroke="#666666" points="205.25,-18.5 99.25,-18.5 99.25,0 205.25,0 205.25,-18.5"/>
<text text-anchor="middle" x="152.25" y="-5" font-family="Helvetica,sans-Serif" font-size="10.00">Result::operator bool</text>
</a>
</g>
</g>
<!-- Node1&#45;&gt;Node4 -->
<g id="edge3_Node000001_Node000004" class="edge">
<title>Node1&#45;&gt;Node4</title>
<g id="a_edge3_Node000001_Node000004"><a xlink:title=" ">
<path fill="none" stroke="#63b8ff" d="M229.8,-20.58C221.92,-19.41 213.67,-18.19 205.62,-17"/>
<polygon fill="#63b8ff" stroke="#63b8ff" points="229.09,-24.01 239.5,-22.01 230.12,-17.09 229.09,-24.01"/>
</a>
</g>
</g>
<!-- Node3 -->
<g id="Node000003" class="node">
<title>Node3</title>
<g id="a_Node000003"><a xlink:href="structResult.html#adc619466a52eb48f755f41a3e88fe50a" target="_top" xlink:title=" ">
<polygon fill="white" stroke="#666666" points="63.25,-55.5 0,-55.5 0,-37 63.25,-37 63.25,-55.5"/>
<text text-anchor="middle" x="31.62" y="-42" font-family="Helvetica,sans-Serif" font-size="10.00">Result::get</text>
</a>
</g>
</g>
<!-- Node2&#45;&gt;Node3 -->
<g id="edge2_Node000002_Node000003" class="edge">
<title>Node2&#45;&gt;Node3</title>
<g id="a_edge2_Node000002_Node000003"><a xlink:title=" ">
<path fill="none" stroke="#63b8ff" d="M102.11,-46.25C89,-46.25 75.21,-46.25 63.39,-46.25"/>
<polygon fill="#63b8ff" stroke="#63b8ff" points="101.88,-49.75 111.88,-46.25 101.88,-42.75 101.88,-49.75"/>
</a>
</g>
</g>
</g>
</svg>
