<?xml version="1.0" encoding="UTF-8" standalone="no"?>
<!DOCTYPE svg PUBLIC "-//W3C//DTD SVG 1.1//EN"
 "http://www.w3.org/Graphics/SVG/1.1/DTD/svg11.dtd">
<!-- Generated by graphviz version 14.0.1 (0)
 -->
<!-- Title: Simulation::KernelInline::MoveFunctor::operator() Pages: 1 -->
<svg width="620pt" height="84pt"
 viewBox="0.00 0.00 620.00 84.00" xmlns="http://www.w3.org/2000/svg" xmlns:xlink="http://www.w3.org/1999/xlink">
<g id="graph0" class="graph" transform="scale(1 1) rotate(0) translate(4 80)">
<title>Simulation::KernelInline::MoveFunctor::operator()</title>
<!-- Node1 -->
<g id="Node000001" class="node">
<title>Node1</title>
<g id="a_Node000001"><a xlink:title=" ">
<polygon fill="#999999" stroke="#666666" points="125.5,-52 0,-52 0,-23 125.5,-23 125.5,-52"/>
<text xml:space="preserve" text-anchor="start" x="8" y="-38.5" font-family="Helvetica,sans-Serif" font-size="10.00">Simulation::KernelInline</text>
<text xml:space="preserve" text-anchor="middle" x="62.75" y="-28" font-family="Helvetica,sans-Serif" font-size="10.00">::MoveFunctor::operator()</text>
</a>
</g>
</g>
<!-- Node2 -->
<g id="Node000002" class="node">
<title>Node2</title>
<g id="a_Node000002"><a xlink:href="structSimulation_1_1KernelInline_1_1MoveFunctor.html#a2f5c4626adae4fe3d1c114dcb5f2c08b" target="_top" xlink:title=" ">
<polygon fill="white" stroke="#666666" points="302.75,-52 161.5,-52 161.5,-23 302.75,-23 302.75,-52"/>
<text xml:space="preserve" text-anchor="start" x="169.5" y="-38.5" font-family="Helvetica,sans-Serif" font-size="10.00">Simulation::KernelInline</text>
<text xml:space="preserve" text-anchor="middle" x="232.12" y="-28" font-family="Helvetica,sans-Serif" font-size="10.00">::MoveFunctor::handle_move</text>
</a>
</g>
</g>
<!-- Node1&#45;&gt;Node2 -->
<g id="edge1_Node000001_Node000002" class="edge">
<title>Node1&#45;&gt;Node2</title>
<g id="a_edge1_Node000001_Node000002"><a xlink:title=" ">
<path fill="none" stroke="#63b8ff" d="M125.6,-37.5C133.45,-37.5 141.57,-37.5 149.67,-37.5"/>
<polygon fill="#63b8ff" stroke="#63b8ff" points="149.55,-41 159.55,-37.5 149.55,-34 149.55,-41"/>
</a>
</g>
</g>
<!-- Node3 -->
<g id="Node000003" class="node">
<title>Node3</title>
<g id="a_Node000003"><a xlink:href="namespaceSimulation_1_1KernelInline.html#a68ac7aac1215936a97dee2435fb8fa28" target="_top" xlink:title=" ">
<polygon fill="white" stroke="#666666" points="474,-76 338.75,-76 338.75,-47 474,-47 474,-76"/>
<text xml:space="preserve" text-anchor="start" x="346.75" y="-62.5" font-family="Helvetica,sans-Serif" font-size="10.00">Simulation::KernelInline</text>
<text xml:space="preserve" text-anchor="middle" x="406.38" y="-52" font-family="Helvetica,sans-Serif" font-size="10.00">::__find_next_compartment</text>
</a>
</g>
</g>
<!-- Node2&#45;&gt;Node3 -->
<g id="edge2_Node000002_Node000003" class="edge">
<title>Node2&#45;&gt;Node3</title>
<g id="a_edge2_Node000002_Node000003"><a xlink:title=" ">
<path fill="none" stroke="#63b8ff" d="M303.19,-47.26C311.1,-48.36 319.2,-49.49 327.21,-50.61"/>
<polygon fill="#63b8ff" stroke="#63b8ff" points="326.55,-54.05 336.94,-51.96 327.52,-47.12 326.55,-54.05"/>
</a>
</g>
</g>
<!-- Node4 -->
<g id="Node000004" class="node">
<title>Node4</title>
<g id="a_Node000004"><a xlink:href="namespaceSimulation_1_1KernelInline.html#a648521674ead158dd3776a946da6722a" target="_top" xlink:title=" ">
<polygon fill="white" stroke="#666666" points="465.38,-29 347.38,-29 347.38,0 465.38,0 465.38,-29"/>
<text xml:space="preserve" text-anchor="start" x="355.38" y="-15.5" font-family="Helvetica,sans-Serif" font-size="10.00">Simulation::KernelInline</text>
<text xml:space="preserve" text-anchor="middle" x="406.38" y="-5" font-family="Helvetica,sans-Serif" font-size="10.00">::probability_leaving</text>
</a>
</g>
</g>
<!-- Node2&#45;&gt;Node4 -->
<g id="edge3_Node000002_Node000004" class="edge">
<title>Node2&#45;&gt;Node4</title>
<g id="a_edge3_Node000002_Node000004"><a xlink:title=" ">
<path fill="none" stroke="#63b8ff" d="M303.19,-28.15C313.86,-26.72 324.87,-25.25 335.53,-23.83"/>
<polygon fill="#63b8ff" stroke="#63b8ff" points="335.99,-27.3 345.44,-22.5 335.06,-20.36 335.99,-27.3"/>
</a>
</g>
</g>
<!-- Node5 -->
<g id="Node000005" class="node">
<title>Node5</title>
<g id="a_Node000005"><a xlink:href="namespaceCommonMaths.html#ad4e27e17383f20d970bcd89fd00e36f0" target="_top" xlink:title=" ">
<polygon fill="white" stroke="#666666" points="611.5,-23.75 510,-23.75 510,-5.25 611.5,-5.25 611.5,-23.75"/>
<text xml:space="preserve" text-anchor="middle" x="560.75" y="-10.25" font-family="Helvetica,sans-Serif" font-size="10.00">CommonMaths::_ln</text>
</a>
</g>
</g>
<!-- Node4&#45;&gt;Node5 -->
<g id="edge4_Node000004_Node000005" class="edge">
<title>Node4&#45;&gt;Node5</title>
<g id="a_edge4_Node000004_Node000005"><a xlink:title=" ">
<path fill="none" stroke="#63b8ff" d="M465.85,-14.5C476.45,-14.5 487.54,-14.5 498.22,-14.5"/>
<polygon fill="#63b8ff" stroke="#63b8ff" points="498.11,-18 508.11,-14.5 498.11,-11 498.11,-18"/>
</a>
</g>
</g>
</g>
</svg>
