<?xml version="1.0" encoding="UTF-8" standalone="no"?>
<!DOCTYPE svg PUBLIC "-//W3C//DTD SVG 1.1//EN"
 "http://www.w3.org/Graphics/SVG/1.1/DTD/svg11.dtd">
<!-- Generated by graphviz version 12.1.2 (0)
 -->
<!-- Title: Models::Uptake::names Pages: 1 -->
<svg width="291pt" height="74pt"
 viewBox="0.00 0.00 291.25 73.75" xmlns="http://www.w3.org/2000/svg" xmlns:xlink="http://www.w3.org/1999/xlink">
<g id="graph0" class="graph" transform="scale(1 1) rotate(0) translate(4 69.75)">
<title>Models::Uptake::names</title>
<!-- Node1 -->
<g id="Node000001" class="node">
<title>Node1</title>
<g id="a_Node000001"><a xlink:title=" ">
<polygon fill="#999999" stroke="#666666" points="283.25,-39.5 163.75,-39.5 163.75,-21 283.25,-21 283.25,-39.5"/>
<text text-anchor="middle" x="223.5" y="-26" font-family="Helvetica,sans-Serif" font-size="10.00">Models::Uptake::names</text>
</a>
</g>
</g>
<!-- Node2 -->
<g id="Node000002" class="node">
<title>Node2</title>
<g id="a_Node000002"><a xlink:href="structModels_1_1SimpleModel.html#a904e65b013521552962e0cd120f0e88e" target="_top" xlink:title=" ">
<polygon fill="white" stroke="#666666" points="118.75,-65.75 9,-65.75 9,-36.75 118.75,-36.75 118.75,-65.75"/>
<text text-anchor="start" x="17" y="-52.25" font-family="Helvetica,sans-Serif" font-size="10.00">Models::SimpleModel</text>
<text text-anchor="middle" x="63.88" y="-41.75" font-family="Helvetica,sans-Serif" font-size="10.00">::names</text>
</a>
</g>
</g>
<!-- Node1&#45;&gt;Node2 -->
<g id="edge1_Node000001_Node000002" class="edge">
<title>Node1&#45;&gt;Node2</title>
<g id="a_edge1_Node000001_Node000002"><a xlink:title=" ">
<path fill="none" stroke="#63b8ff" d="M151.99,-39.64C140.97,-41.11 129.73,-42.61 119.15,-44.02"/>
<polygon fill="#63b8ff" stroke="#63b8ff" points="152.41,-43.12 161.86,-38.33 151.48,-36.18 152.41,-43.12"/>
</a>
</g>
</g>
<!-- Node3 -->
<g id="Node000003" class="node">
<title>Node3</title>
<g id="a_Node000003"><a xlink:href="structModels_1_1TwoMeta.html#a35468ba5b36ccf071b88e1f5718703a5" target="_top" xlink:title=" ">
<polygon fill="white" stroke="#666666" points="127.75,-18.5 0,-18.5 0,0 127.75,0 127.75,-18.5"/>
<text text-anchor="middle" x="63.88" y="-5" font-family="Helvetica,sans-Serif" font-size="10.00">Models::TwoMeta::names</text>
</a>
</g>
</g>
<!-- Node1&#45;&gt;Node3 -->
<g id="edge2_Node000001_Node000003" class="edge">
<title>Node1&#45;&gt;Node3</title>
<g id="a_edge2_Node000001_Node000003"><a xlink:title=" ">
<path fill="none" stroke="#63b8ff" d="M152.13,-20.87C144.1,-19.81 135.96,-18.72 128.04,-17.67"/>
<polygon fill="#63b8ff" stroke="#63b8ff" points="151.48,-24.32 161.86,-22.17 152.41,-17.38 151.48,-24.32"/>
</a>
</g>
</g>
</g>
</svg>
