<?xml version="1.0" encoding="UTF-8" standalone="no"?>
<!DOCTYPE svg PUBLIC "-//W3C//DTD SVG 1.1//EN"
 "http://www.w3.org/Graphics/SVG/1.1/DTD/svg11.dtd">
<!-- Generated by graphviz version 14.0.1 (0)
 -->
<!-- Title: Api::SimulationInstance::SimulationInstance Pages: 1 -->
<svg width="1324pt" height="926pt"
 viewBox="0.00 0.00 1324.00 926.00" xmlns="http://www.w3.org/2000/svg" xmlns:xlink="http://www.w3.org/1999/xlink">
<g id="graph0" class="graph" transform="scale(1 1) rotate(0) translate(4 922)">
<title>Api::SimulationInstance::SimulationInstance</title>
<!-- Node1 -->
<g id="Node000001" class="node">
<title>Node1</title>
<g id="a_Node000001"><a xlink:title="Default constructor.">
<polygon fill="#999999" stroke="#666666" points="119.5,-428 0,-428 0,-399 119.5,-399 119.5,-428"/>
<text xml:space="preserve" text-anchor="start" x="8" y="-414.5" font-family="Helvetica,sans-Serif" font-size="10.00">Api::SimulationInstance</text>
<text xml:space="preserve" text-anchor="middle" x="59.75" y="-404" font-family="Helvetica,sans-Serif" font-size="10.00">::SimulationInstance</text>
</a>
</g>
</g>
<!-- Node2 -->
<g id="Node000002" class="node">
<title>Node2</title>
<g id="a_Node000002"><a xlink:href="structApi_1_1SimulationInstance.html#a3c33e075fd2930a740817b71e6c24151" target="_top" xlink:title=" ">
<polygon fill="white" stroke="#666666" points="278.38,-811 158.88,-811 158.88,-782 278.38,-782 278.38,-811"/>
<text xml:space="preserve" text-anchor="start" x="166.88" y="-797.5" font-family="Helvetica,sans-Serif" font-size="10.00">Api::SimulationInstance</text>
<text xml:space="preserve" text-anchor="middle" x="218.62" y="-787" font-family="Helvetica,sans-Serif" font-size="10.00">::add_feed</text>
</a>
</g>
</g>
<!-- Node1&#45;&gt;Node2 -->
<g id="edge1_Node000001_Node000002" class="edge">
<title>Node1&#45;&gt;Node2</title>
<g id="a_edge1_Node000001_Node000002"><a xlink:title=" ">
<path fill="none" stroke="#63b8ff" d="M60.5,-428.28C60.39,-480.91 66.79,-661.71 155.5,-767.5 157.87,-770.33 160.58,-772.9 163.51,-775.23"/>
<polygon fill="#63b8ff" stroke="#63b8ff" points="161.33,-777.98 171.58,-780.67 165.25,-772.18 161.33,-777.98"/>
</a>
</g>
</g>
<!-- Node4 -->
<g id="Node000004" class="node">
<title>Node4</title>
<g id="a_Node000004"><a xlink:href="structApi_1_1SimulationInstance.html#a3398ddd22faa3ceb16b454c51faeced0" target="_top" xlink:title="Apply the simulation configuration and prepare for execution.">
<polygon fill="white" stroke="#666666" points="278.38,-707 158.88,-707 158.88,-678 278.38,-678 278.38,-707"/>
<text xml:space="preserve" text-anchor="start" x="166.88" y="-693.5" font-family="Helvetica,sans-Serif" font-size="10.00">Api::SimulationInstance</text>
<text xml:space="preserve" text-anchor="middle" x="218.62" y="-683" font-family="Helvetica,sans-Serif" font-size="10.00">::apply</text>
</a>
</g>
</g>
<!-- Node1&#45;&gt;Node4 -->
<g id="edge3_Node000001_Node000004" class="edge">
<title>Node1&#45;&gt;Node4</title>
<g id="a_edge3_Node000001_Node000004"><a xlink:title=" ">
<path fill="none" stroke="#63b8ff" d="M62.49,-428.5C68.12,-470.76 89.51,-592.4 155.5,-663.5 158.21,-666.42 161.28,-669.08 164.57,-671.49"/>
<polygon fill="#63b8ff" stroke="#63b8ff" points="162.67,-674.43 172.99,-676.82 166.41,-668.51 162.67,-674.43"/>
</a>
</g>
</g>
<!-- Node5 -->
<g id="Node000005" class="node">
<title>Node5</title>
<g id="a_Node000005"><a xlink:href="structApi_1_1SimulationInstance.html#ad2abfa76ac4128d44b7c0c895f78b77b" target="_top" xlink:title="Load ad apply the simulation configuration and prepare for execution based on file.">
<polygon fill="white" stroke="#666666" points="448.12,-757 328.62,-757 328.62,-728 448.12,-728 448.12,-757"/>
<text xml:space="preserve" text-anchor="start" x="336.62" y="-743.5" font-family="Helvetica,sans-Serif" font-size="10.00">Api::SimulationInstance</text>
<text xml:space="preserve" text-anchor="middle" x="388.38" y="-733" font-family="Helvetica,sans-Serif" font-size="10.00">::apply_load</text>
</a>
</g>
</g>
<!-- Node1&#45;&gt;Node5 -->
<g id="edge30_Node000001_Node000005" class="edge">
<title>Node1&#45;&gt;Node5</title>
<g id="a_edge30_Node000001_Node000005"><a xlink:title=" ">
<path fill="none" stroke="#63b8ff" d="M62.85,-428.44C71.31,-486.42 104.97,-695.36 155.5,-734.5 201.68,-770.28 269.96,-768.08 320.47,-759.46"/>
<polygon fill="#63b8ff" stroke="#63b8ff" points="320.92,-762.94 330.12,-757.68 319.65,-756.05 320.92,-762.94"/>
</a>
</g>
</g>
<!-- Node27 -->
<g id="Node000027" class="node">
<title>Node27</title>
<g id="a_Node000027"><a xlink:href="structApi_1_1SimulationInstance.html#a3f04372728be84263fb69f5773ca5bd5" target="_top" xlink:title="Execute the simulation.">
<polygon fill="white" stroke="#666666" points="614.5,-664 495,-664 495,-635 614.5,-635 614.5,-664"/>
<text xml:space="preserve" text-anchor="start" x="503" y="-650.5" font-family="Helvetica,sans-Serif" font-size="10.00">Api::SimulationInstance</text>
<text xml:space="preserve" text-anchor="middle" x="554.75" y="-640" font-family="Helvetica,sans-Serif" font-size="10.00">::exec</text>
</a>
</g>
</g>
<!-- Node1&#45;&gt;Node27 -->
<g id="edge31_Node000001_Node000027" class="edge">
<title>Node1&#45;&gt;Node27</title>
<g id="a_edge31_Node000001_Node000027"><a xlink:title=" ">
<path fill="none" stroke="#63b8ff" d="M62.1,-428.33C66.66,-468.77 85.39,-581.14 155.5,-629.5 206.87,-664.93 383.43,-660.38 483.35,-654.58"/>
<polygon fill="#63b8ff" stroke="#63b8ff" points="483.27,-658.09 493.04,-654 482.85,-651.11 483.27,-658.09"/>
</a>
</g>
</g>
<!-- Node28 -->
<g id="Node000028" class="node">
<title>Node28</title>
<g id="a_Node000028"><a xlink:href="structApi_1_1SimulationInstance.html#a37448530b88fd5401cbad17e9bd3c0a6" target="_top" xlink:title=" ">
<polygon fill="white" stroke="#666666" points="278.38,-621 158.88,-621 158.88,-592 278.38,-592 278.38,-621"/>
<text xml:space="preserve" text-anchor="start" x="166.88" y="-607.5" font-family="Helvetica,sans-Serif" font-size="10.00">Api::SimulationInstance</text>
<text xml:space="preserve" text-anchor="middle" x="218.62" y="-597" font-family="Helvetica,sans-Serif" font-size="10.00">::get_exec_info</text>
</a>
</g>
</g>
<!-- Node1&#45;&gt;Node28 -->
<g id="edge34_Node000001_Node000028" class="edge">
<title>Node1&#45;&gt;Node28</title>
<g id="a_edge34_Node000001_Node000028"><a xlink:title=" ">
<path fill="none" stroke="#63b8ff" d="M65.23,-428.38C75.72,-460.85 104.92,-538.65 155.5,-582.5 156.76,-583.59 158.07,-584.63 159.42,-585.63"/>
<polygon fill="#63b8ff" stroke="#63b8ff" points="157.3,-588.43 167.63,-590.78 161.02,-582.5 157.3,-588.43"/>
</a>
</g>
</g>
<!-- Node29 -->
<g id="Node000029" class="node">
<title>Node29</title>
<g id="a_Node000029"><a xlink:href="structApi_1_1SimulationInstance.html#ab938dea3b413538bfdaa40daa5d122a2" target="_top" xlink:title="Retrieve the simulation instance&#39;s unique identifier.">
<polygon fill="white" stroke="#666666" points="278.38,-574 158.88,-574 158.88,-545 278.38,-545 278.38,-574"/>
<text xml:space="preserve" text-anchor="start" x="166.88" y="-560.5" font-family="Helvetica,sans-Serif" font-size="10.00">Api::SimulationInstance</text>
<text xml:space="preserve" text-anchor="middle" x="218.62" y="-550" font-family="Helvetica,sans-Serif" font-size="10.00">::get_id</text>
</a>
</g>
</g>
<!-- Node1&#45;&gt;Node29 -->
<g id="edge35_Node000001_Node000029" class="edge">
<title>Node1&#45;&gt;Node29</title>
<g id="a_edge35_Node000001_Node000029"><a xlink:title=" ">
<path fill="none" stroke="#63b8ff" d="M68.69,-428.38C82.91,-453.72 115.05,-505.41 155.5,-535.5 157.24,-536.79 159.06,-538.03 160.93,-539.2"/>
<polygon fill="#63b8ff" stroke="#63b8ff" points="158.92,-542.09 169.37,-543.86 162.31,-535.96 158.92,-542.09"/>
</a>
</g>
</g>
<!-- Node30 -->
<g id="Node000030" class="node">
<title>Node30</title>
<g id="a_Node000030"><a xlink:href="structApi_1_1SimulationInstance.html#ac8b52d1e9fa704e89d252d884aa6cf3d" target="_top" xlink:title="Register a path for CMA data.">
<polygon fill="white" stroke="#666666" points="278.38,-527 158.88,-527 158.88,-498 278.38,-498 278.38,-527"/>
<text xml:space="preserve" text-anchor="start" x="166.88" y="-513.5" font-family="Helvetica,sans-Serif" font-size="10.00">Api::SimulationInstance</text>
<text xml:space="preserve" text-anchor="middle" x="218.62" y="-503" font-family="Helvetica,sans-Serif" font-size="10.00">::register_cma_path</text>
</a>
</g>
</g>
<!-- Node1&#45;&gt;Node30 -->
<g id="edge36_Node000001_Node000030" class="edge">
<title>Node1&#45;&gt;Node30</title>
<g id="a_edge36_Node000001_Node000030"><a xlink:title=" ">
<path fill="none" stroke="#63b8ff" d="M76.44,-428.39C94.4,-444.82 125.26,-471.22 155.5,-488.5 158.14,-490.01 160.89,-491.46 163.7,-492.85"/>
<polygon fill="#63b8ff" stroke="#63b8ff" points="162.15,-495.99 172.7,-496.98 165.07,-489.62 162.15,-495.99"/>
</a>
</g>
</g>
<!-- Node31 -->
<g id="Node000031" class="node">
<title>Node31</title>
<g id="a_Node000031"><a xlink:href="structApi_1_1SimulationInstance.html#a7fe33427bbf42fbff934729f90242271" target="_top" xlink:title=" ">
<polygon fill="white" stroke="#666666" points="281.75,-480 155.5,-480 155.5,-451 281.75,-451 281.75,-480"/>
<text xml:space="preserve" text-anchor="start" x="163.5" y="-466.5" font-family="Helvetica,sans-Serif" font-size="10.00">Api::SimulationInstance</text>
<text xml:space="preserve" text-anchor="middle" x="218.62" y="-456" font-family="Helvetica,sans-Serif" font-size="10.00">::register_initial_condition</text>
</a>
</g>
</g>
<!-- Node1&#45;&gt;Node31 -->
<g id="edge37_Node000001_Node000031" class="edge">
<title>Node1&#45;&gt;Node31</title>
<g id="a_edge37_Node000001_Node000031"><a xlink:title=" ">
<path fill="none" stroke="#63b8ff" d="M105.7,-428.4C123.11,-434.17 143.21,-440.83 161.54,-446.91"/>
<polygon fill="#63b8ff" stroke="#63b8ff" points="160.36,-450.21 170.96,-450.03 162.56,-443.56 160.36,-450.21"/>
</a>
</g>
</g>
<!-- Node32 -->
<g id="Node000032" class="node">
<title>Node32</title>
<g id="a_Node000032"><a xlink:href="structApi_1_1SimulationInstance.html#af7102c1a786cac7c27ad533ce1f29f06" target="_top" xlink:title=" ">
<polygon fill="white" stroke="#666666" points="278.38,-433.25 158.88,-433.25 158.88,-393.75 278.38,-393.75 278.38,-433.25"/>
<text xml:space="preserve" text-anchor="start" x="166.88" y="-419.75" font-family="Helvetica,sans-Serif" font-size="10.00">Api::SimulationInstance</text>
<text xml:space="preserve" text-anchor="start" x="166.88" y="-409.25" font-family="Helvetica,sans-Serif" font-size="10.00">::register_initialiser</text>
<text xml:space="preserve" text-anchor="middle" x="218.62" y="-398.75" font-family="Helvetica,sans-Serif" font-size="10.00">_file_path</text>
</a>
</g>
</g>
<!-- Node1&#45;&gt;Node32 -->
<g id="edge38_Node000001_Node000032" class="edge">
<title>Node1&#45;&gt;Node32</title>
<g id="a_edge38_Node000001_Node000032"><a xlink:title=" ">
<path fill="none" stroke="#63b8ff" d="M119.61,-413.5C128.54,-413.5 137.82,-413.5 146.97,-413.5"/>
<polygon fill="#63b8ff" stroke="#63b8ff" points="146.92,-417 156.92,-413.5 146.92,-410 146.92,-417"/>
</a>
</g>
</g>
<!-- Node33 -->
<g id="Node000033" class="node">
<title>Node33</title>
<g id="a_Node000033"><a xlink:href="structApi_1_1SimulationInstance.html#a06b825ee4dcaf97e49ef5d3644a7301a" target="_top" xlink:title="Register the model name for the simulation.">
<polygon fill="white" stroke="#666666" points="278.38,-376 158.88,-376 158.88,-347 278.38,-347 278.38,-376"/>
<text xml:space="preserve" text-anchor="start" x="166.88" y="-362.5" font-family="Helvetica,sans-Serif" font-size="10.00">Api::SimulationInstance</text>
<text xml:space="preserve" text-anchor="middle" x="218.62" y="-352" font-family="Helvetica,sans-Serif" font-size="10.00">::register_model_name</text>
</a>
</g>
</g>
<!-- Node1&#45;&gt;Node33 -->
<g id="edge39_Node000001_Node000033" class="edge">
<title>Node1&#45;&gt;Node33</title>
<g id="a_edge39_Node000001_Node000033"><a xlink:title=" ">
<path fill="none" stroke="#63b8ff" d="M105.7,-398.6C123.11,-392.83 143.21,-386.17 161.54,-380.09"/>
<polygon fill="#63b8ff" stroke="#63b8ff" points="162.56,-383.44 170.96,-376.97 160.36,-376.79 162.56,-383.44"/>
</a>
</g>
</g>
<!-- Node34 -->
<g id="Node000034" class="node">
<title>Node34</title>
<g id="a_Node000034"><a xlink:href="structApi_1_1SimulationInstance.html#ad54f1c021ad6af49979c42edf10b207b" target="_top" xlink:title="Register user control parameters for the simulation.">
<polygon fill="white" stroke="#666666" points="278.38,-329 158.88,-329 158.88,-300 278.38,-300 278.38,-329"/>
<text xml:space="preserve" text-anchor="start" x="166.88" y="-315.5" font-family="Helvetica,sans-Serif" font-size="10.00">Api::SimulationInstance</text>
<text xml:space="preserve" text-anchor="middle" x="218.62" y="-305" font-family="Helvetica,sans-Serif" font-size="10.00">::register_parameters</text>
</a>
</g>
</g>
<!-- Node1&#45;&gt;Node34 -->
<g id="edge40_Node000001_Node000034" class="edge">
<title>Node1&#45;&gt;Node34</title>
<g id="a_edge40_Node000001_Node000034"><a xlink:title=" ">
<path fill="none" stroke="#63b8ff" d="M76.03,-398.62C93.87,-381.91 124.86,-354.85 155.5,-337.5 157.53,-336.35 159.63,-335.24 161.78,-334.16"/>
<polygon fill="#63b8ff" stroke="#63b8ff" points="163.07,-337.42 170.69,-330.06 160.14,-331.06 163.07,-337.42"/>
</a>
</g>
</g>
<!-- Node35 -->
<g id="Node000035" class="node">
<title>Node35</title>
<g id="a_Node000035"><a xlink:href="structApi_1_1SimulationInstance.html#a19af55accb633781f80c6100a3508284" target="_top" xlink:title="Register a result output path.">
<polygon fill="white" stroke="#666666" points="278.38,-282 158.88,-282 158.88,-253 278.38,-253 278.38,-282"/>
<text xml:space="preserve" text-anchor="start" x="166.88" y="-268.5" font-family="Helvetica,sans-Serif" font-size="10.00">Api::SimulationInstance</text>
<text xml:space="preserve" text-anchor="middle" x="218.62" y="-258" font-family="Helvetica,sans-Serif" font-size="10.00">::register_result_path</text>
</a>
</g>
</g>
<!-- Node1&#45;&gt;Node35 -->
<g id="edge41_Node000001_Node000035" class="edge">
<title>Node1&#45;&gt;Node35</title>
<g id="a_edge41_Node000001_Node000035"><a xlink:title=" ">
<path fill="none" stroke="#63b8ff" d="M68.39,-398.84C82.38,-373.35 114.47,-320.7 155.5,-290.5 156.67,-289.64 157.88,-288.8 159.12,-288"/>
<polygon fill="#63b8ff" stroke="#63b8ff" points="160.78,-291.08 167.76,-283.11 157.33,-284.99 160.78,-291.08"/>
</a>
</g>
</g>
<!-- Node36 -->
<g id="Node000036" class="node">
<title>Node36</title>
<g id="a_Node000036"><a xlink:href="structApi_1_1SimulationInstance.html#afb6d2f04368f71955e4773dd5452f2e2" target="_top" xlink:title=" ">
<polygon fill="white" stroke="#666666" points="281,-235 156.25,-235 156.25,-206 281,-206 281,-235"/>
<text xml:space="preserve" text-anchor="start" x="164.25" y="-221.5" font-family="Helvetica,sans-Serif" font-size="10.00">Api::SimulationInstance</text>
<text xml:space="preserve" text-anchor="middle" x="218.62" y="-211" font-family="Helvetica,sans-Serif" font-size="10.00">::register_scalar_initiazer</text>
</a>
</g>
</g>
<!-- Node1&#45;&gt;Node36 -->
<g id="edge42_Node000001_Node000036" class="edge">
<title>Node1&#45;&gt;Node36</title>
<g id="a_edge42_Node000001_Node000036"><a xlink:title=" ">
<path fill="none" stroke="#63b8ff" d="M65,-398.97C75.22,-366.5 104.18,-287.47 155.5,-243.5 156.28,-242.83 157.09,-242.18 157.91,-241.54"/>
<polygon fill="#63b8ff" stroke="#63b8ff" points="159.59,-244.63 166.08,-236.25 155.78,-238.75 159.59,-244.63"/>
</a>
</g>
</g>
<!-- Node37 -->
<g id="Node000037" class="node">
<title>Node37</title>
<g id="a_Node000037"><a xlink:href="structApi_1_1SimulationInstance.html#a44482022a20986f2f68163a5a3baf49f" target="_top" xlink:title="Register a serialization/deserialization (serde) path.">
<polygon fill="white" stroke="#666666" points="278.38,-188 158.88,-188 158.88,-159 278.38,-159 278.38,-188"/>
<text xml:space="preserve" text-anchor="start" x="166.88" y="-174.5" font-family="Helvetica,sans-Serif" font-size="10.00">Api::SimulationInstance</text>
<text xml:space="preserve" text-anchor="middle" x="218.62" y="-164" font-family="Helvetica,sans-Serif" font-size="10.00">::register_serde</text>
</a>
</g>
</g>
<!-- Node1&#45;&gt;Node37 -->
<g id="edge43_Node000001_Node000037" class="edge">
<title>Node1&#45;&gt;Node37</title>
<g id="a_edge43_Node000001_Node000037"><a xlink:title=" ">
<path fill="none" stroke="#63b8ff" d="M63.14,-398.55C70.1,-359.73 93.93,-254.65 155.5,-196.5 156.01,-196.02 156.53,-195.55 157.06,-195.09"/>
<polygon fill="#63b8ff" stroke="#63b8ff" points="159.07,-197.95 165.18,-189.3 155.01,-192.25 159.07,-197.95"/>
</a>
</g>
</g>
<!-- Node38 -->
<g id="Node000038" class="node">
<title>Node38</title>
<g id="a_Node000038"><a xlink:href="structApi_1_1SimulationInstance.html#a73c191e86d9951411087785b68bf709e" target="_top" xlink:title=" ">
<polygon fill="white" stroke="#666666" points="278.38,-141 158.88,-141 158.88,-112 278.38,-112 278.38,-141"/>
<text xml:space="preserve" text-anchor="start" x="166.88" y="-127.5" font-family="Helvetica,sans-Serif" font-size="10.00">Api::SimulationInstance</text>
<text xml:space="preserve" text-anchor="middle" x="218.62" y="-117" font-family="Helvetica,sans-Serif" font-size="10.00">::set_auto_mtr</text>
</a>
</g>
</g>
<!-- Node1&#45;&gt;Node38 -->
<g id="edge44_Node000001_Node000038" class="edge">
<title>Node1&#45;&gt;Node38</title>
<g id="a_edge44_Node000001_Node000038"><a xlink:title=" ">
<path fill="none" stroke="#63b8ff" d="M61.8,-398.66C65.72,-354.51 83.21,-222.52 155.5,-149.5 155.98,-149.01 156.47,-148.54 156.97,-148.07"/>
<polygon fill="#63b8ff" stroke="#63b8ff" points="158.79,-151.09 164.68,-142.28 154.58,-145.49 158.79,-151.09"/>
</a>
</g>
</g>
<!-- Node39 -->
<g id="Node000039" class="node">
<title>Node39</title>
<g id="a_Node000039"><a xlink:href="structApi_1_1SimulationInstance.html#ad3dcce95a8552f794dfff2a0f382fcee" target="_top" xlink:title=" ">
<polygon fill="white" stroke="#666666" points="278.38,-94 158.88,-94 158.88,-65 278.38,-65 278.38,-94"/>
<text xml:space="preserve" text-anchor="start" x="166.88" y="-80.5" font-family="Helvetica,sans-Serif" font-size="10.00">Api::SimulationInstance</text>
<text xml:space="preserve" text-anchor="middle" x="218.62" y="-70" font-family="Helvetica,sans-Serif" font-size="10.00">::set_mtr</text>
</a>
</g>
</g>
<!-- Node1&#45;&gt;Node39 -->
<g id="edge45_Node000001_Node000039" class="edge">
<title>Node1&#45;&gt;Node39</title>
<g id="a_edge45_Node000001_Node000039"><a xlink:title=" ">
<path fill="none" stroke="#63b8ff" d="M60.86,-398.58C62.05,-349.4 72.45,-190.59 155.5,-102.5 155.86,-102.11 156.24,-101.73 156.62,-101.36"/>
<polygon fill="#63b8ff" stroke="#63b8ff" points="158.56,-104.28 164.24,-95.34 154.22,-98.79 158.56,-104.28"/>
</a>
</g>
</g>
<!-- Node40 -->
<g id="Node000040" class="node">
<title>Node40</title>
<g id="a_Node000040"><a xlink:href="structApi_1_1SimulationInstance.html#a7a849ee5dd1d0d13a198aecee702944c" target="_top" xlink:title="Deleted copy constructor to prevent copying.">
<polygon fill="white" stroke="#666666" points="278.38,-29 158.88,-29 158.88,0 278.38,0 278.38,-29"/>
<text xml:space="preserve" text-anchor="start" x="166.88" y="-15.5" font-family="Helvetica,sans-Serif" font-size="10.00">Api::SimulationInstance</text>
<text xml:space="preserve" text-anchor="middle" x="218.62" y="-5" font-family="Helvetica,sans-Serif" font-size="10.00">::SimulationInstance</text>
</a>
</g>
</g>
<!-- Node1&#45;&gt;Node40 -->
<g id="edge46_Node000001_Node000040" class="edge">
<title>Node1&#45;&gt;Node40</title>
<g id="a_edge46_Node000001_Node000040"><a xlink:title=" ">
<path fill="none" stroke="#63b8ff" d="M61.02,-398.63C62.67,-346.43 74.27,-168.54 155.5,-55.5 161.02,-47.82 168.47,-41.17 176.29,-35.6"/>
<polygon fill="#63b8ff" stroke="#63b8ff" points="178.16,-38.56 184.63,-30.17 174.34,-32.69 178.16,-38.56"/>
</a>
</g>
</g>
<!-- Node3 -->
<g id="Node000003" class="node">
<title>Node3</title>
<g id="a_Node000003"><a xlink:href="classSimulation_1_1Feed_1_1SimulationFeed.html#a75f042cf06f6ae549d7582c9af3ce65f" target="_top" xlink:title=" ">
<polygon fill="white" stroke="#666666" points="459,-811 317.75,-811 317.75,-782 459,-782 459,-811"/>
<text xml:space="preserve" text-anchor="start" x="325.75" y="-797.5" font-family="Helvetica,sans-Serif" font-size="10.00">Simulation::Feed::Simulation</text>
<text xml:space="preserve" text-anchor="middle" x="388.38" y="-787" font-family="Helvetica,sans-Serif" font-size="10.00">Feed::empty</text>
</a>
</g>
</g>
<!-- Node2&#45;&gt;Node3 -->
<g id="edge2_Node000002_Node000003" class="edge">
<title>Node2&#45;&gt;Node3</title>
<g id="a_edge2_Node000002_Node000003"><a xlink:title=" ">
<path fill="none" stroke="#63b8ff" d="M278.77,-796.5C287.52,-796.5 296.67,-796.5 305.79,-796.5"/>
<polygon fill="#63b8ff" stroke="#63b8ff" points="305.76,-800 315.76,-796.5 305.76,-793 305.76,-800"/>
</a>
</g>
</g>
<!-- Node4&#45;&gt;Node4 -->
<g id="edge4_Node000004_Node000004" class="edge">
<title>Node4&#45;&gt;Node4</title>
<g id="a_edge4_Node000004_Node000004"><a xlink:title=" ">
<path fill="none" stroke="#63b8ff" d="M190.94,-707.21C184.26,-716.32 193.49,-725 218.62,-725 232.37,-725 241.36,-722.41 245.59,-718.56"/>
<polygon fill="#63b8ff" stroke="#63b8ff" points="249.08,-718.92 246.22,-708.72 242.09,-718.47 249.08,-718.92"/>
</a>
</g>
</g>
<!-- Node4&#45;&gt;Node5 -->
<g id="edge5_Node000004_Node000005" class="edge">
<title>Node4&#45;&gt;Node5</title>
<g id="a_edge5_Node000004_Node000005"><a xlink:title=" ">
<path fill="none" stroke="#63b8ff" d="M269.5,-707.37C287.34,-712.68 307.66,-718.74 326.33,-724.31"/>
<polygon fill="#63b8ff" stroke="#63b8ff" points="325.08,-727.58 335.66,-727.09 327.08,-720.88 325.08,-727.58"/>
</a>
</g>
</g>
<!-- Node26 -->
<g id="Node000026" class="node">
<title>Node26</title>
<g id="a_Node000026"><a xlink:href="namespaceUnsafe.html#a703f3b37e1e69e30af8da78870f09df4" target="_top" xlink:title=" ">
<polygon fill="white" stroke="#666666" points="433.5,-701.75 343.25,-701.75 343.25,-683.25 433.5,-683.25 433.5,-701.75"/>
<text xml:space="preserve" text-anchor="middle" x="388.38" y="-688.25" font-family="Helvetica,sans-Serif" font-size="10.00">Unsafe::load_udf</text>
</a>
</g>
</g>
<!-- Node4&#45;&gt;Node26 -->
<g id="edge29_Node000004_Node000026" class="edge">
<title>Node4&#45;&gt;Node26</title>
<g id="a_edge29_Node000004_Node000026"><a xlink:title=" ">
<path fill="none" stroke="#63b8ff" d="M278.77,-692.5C295.94,-692.5 314.62,-692.5 331.58,-692.5"/>
<polygon fill="#63b8ff" stroke="#63b8ff" points="331.49,-696 341.49,-692.5 331.49,-689 331.49,-696"/>
</a>
</g>
</g>
<!-- Node6 -->
<g id="Node000006" class="node">
<title>Node6</title>
<g id="a_Node000006"><a xlink:href="namespaceCore.html#a877563df5a407318a381e12311022377" target="_top" xlink:title=" ">
<polygon fill="white" stroke="#666666" points="585.25,-751.75 524.25,-751.75 524.25,-733.25 585.25,-733.25 585.25,-751.75"/>
<text xml:space="preserve" text-anchor="middle" x="554.75" y="-738.25" font-family="Helvetica,sans-Serif" font-size="10.00">Core::load</text>
</a>
</g>
</g>
<!-- Node5&#45;&gt;Node6 -->
<g id="edge6_Node000005_Node000006" class="edge">
<title>Node5&#45;&gt;Node6</title>
<g id="a_edge6_Node000005_Node000006"><a xlink:title=" ">
<path fill="none" stroke="#63b8ff" d="M448.25,-742.5C469.46,-742.5 492.93,-742.5 512.33,-742.5"/>
<polygon fill="#63b8ff" stroke="#63b8ff" points="512.32,-746 522.32,-742.5 512.32,-739 512.32,-746"/>
</a>
</g>
</g>
<!-- Node7 -->
<g id="Node000007" class="node">
<title>Node7</title>
<g id="a_Node000007"><a xlink:href="namespaceCore.html#a105cc1fc8005e6139954e3adce14f525" target="_top" xlink:title="Start simulation.">
<polygon fill="white" stroke="#666666" points="713.75,-751.75 650.5,-751.75 650.5,-733.25 713.75,-733.25 713.75,-751.75"/>
<text xml:space="preserve" text-anchor="middle" x="682.12" y="-738.25" font-family="Helvetica,sans-Serif" font-size="10.00">Core::exec</text>
</a>
</g>
</g>
<!-- Node6&#45;&gt;Node7 -->
<g id="edge7_Node000006_Node000007" class="edge">
<title>Node6&#45;&gt;Node7</title>
<g id="a_edge7_Node000006_Node000007"><a xlink:title=" ">
<path fill="none" stroke="#63b8ff" d="M585.46,-742.5C601.42,-742.5 621.37,-742.5 638.92,-742.5"/>
<polygon fill="#63b8ff" stroke="#63b8ff" points="638.8,-746 648.8,-742.5 638.8,-739 638.8,-746"/>
</a>
</g>
</g>
<!-- Node8 -->
<g id="Node000008" class="node">
<title>Node8</title>
<g id="a_Node000008"><a xlink:href="namespaceCore.html#a23e6f3d22fc51ef9decabb2c220b27c4" target="_top" xlink:title=" ">
<polygon fill="white" stroke="#666666" points="870.75,-772.75 749.75,-772.75 749.75,-754.25 870.75,-754.25 870.75,-772.75"/>
<text xml:space="preserve" text-anchor="middle" x="810.25" y="-759.25" font-family="Helvetica,sans-Serif" font-size="10.00">Core::exporter_filename</text>
</a>
</g>
</g>
<!-- Node7&#45;&gt;Node8 -->
<g id="edge8_Node000007_Node000008" class="edge">
<title>Node7&#45;&gt;Node8</title>
<g id="a_edge8_Node000007_Node000008"><a xlink:title=" ">
<path fill="none" stroke="#63b8ff" d="M713.98,-741.74C731.86,-743.68 754.45,-747.35 773.15,-751.32"/>
<polygon fill="#63b8ff" stroke="#63b8ff" points="772.21,-754.7 782.74,-753.49 773.75,-747.87 772.21,-754.7"/>
</a>
</g>
</g>
<!-- Node9 -->
<g id="Node000009" class="node">
<title>Node9</title>
<g id="a_Node000009"><a xlink:href="namespaceCore.html#afbce0beea293a7ccfdfc34a85b5e5e77" target="_top" xlink:title=" ">
<polygon fill="white" stroke="#666666" points="854.25,-666 766.25,-666 766.25,-637 854.25,-637 854.25,-666"/>
<text xml:space="preserve" text-anchor="start" x="774.25" y="-652.5" font-family="Helvetica,sans-Serif" font-size="10.00">Core::init_partial</text>
<text xml:space="preserve" text-anchor="middle" x="810.25" y="-642" font-family="Helvetica,sans-Serif" font-size="10.00">_exporter</text>
</a>
</g>
</g>
<!-- Node7&#45;&gt;Node9 -->
<g id="edge10_Node000007_Node000009" class="edge">
<title>Node7&#45;&gt;Node9</title>
<g id="a_edge10_Node000007_Node000009"><a xlink:title=" ">
<path fill="none" stroke="#63b8ff" d="M696.62,-732.76C716.32,-718.55 753.44,-691.77 779.67,-672.84"/>
<polygon fill="#63b8ff" stroke="#63b8ff" points="781.5,-675.83 787.57,-667.15 777.41,-670.16 781.5,-675.83"/>
</a>
</g>
</g>
<!-- Node17 -->
<g id="Node000017" class="node">
<title>Node17</title>
<g id="a_Node000017"><a xlink:href="namespacePostProcessing.html#abfe2a5894fae7c5534274da5d6d33e83" target="_top" xlink:title=" ">
<polygon fill="white" stroke="#666666" points="865.88,-736 754.62,-736 754.62,-707 865.88,-707 865.88,-736"/>
<text xml:space="preserve" text-anchor="start" x="762.62" y="-722.5" font-family="Helvetica,sans-Serif" font-size="10.00">PostProcessing::save</text>
<text xml:space="preserve" text-anchor="middle" x="810.25" y="-712" font-family="Helvetica,sans-Serif" font-size="10.00">_probes</text>
</a>
</g>
</g>
<!-- Node7&#45;&gt;Node17 -->
<g id="edge19_Node000007_Node000017" class="edge">
<title>Node7&#45;&gt;Node17</title>
<g id="a_edge19_Node000007_Node000017"><a xlink:title=" ">
<path fill="none" stroke="#63b8ff" d="M713.98,-737.36C722.98,-735.86 733.17,-734.17 743.46,-732.45"/>
<polygon fill="#63b8ff" stroke="#63b8ff" points="743.83,-735.94 753.12,-730.85 742.68,-729.04 743.83,-735.94"/>
</a>
</g>
</g>
<!-- Node25 -->
<g id="Node000025" class="node">
<title>Node25</title>
<g id="a_Node000025"><a xlink:href="classCore_1_1DataExporter.html#ad3b98151595b0962c089a7afcdb2a642" target="_top" xlink:title=" ">
<polygon fill="white" stroke="#666666" points="860.62,-820 759.88,-820 759.88,-791 860.62,-791 860.62,-820"/>
<text xml:space="preserve" text-anchor="start" x="767.88" y="-806.5" font-family="Helvetica,sans-Serif" font-size="10.00">Core::DataExporter</text>
<text xml:space="preserve" text-anchor="middle" x="810.25" y="-796" font-family="Helvetica,sans-Serif" font-size="10.00">::set_logger</text>
</a>
</g>
</g>
<!-- Node7&#45;&gt;Node25 -->
<g id="edge28_Node000007_Node000025" class="edge">
<title>Node7&#45;&gt;Node25</title>
<g id="a_edge28_Node000007_Node000025"><a xlink:title=" ">
<path fill="none" stroke="#63b8ff" d="M698.12,-752.13C711.4,-760.45 731.46,-772.52 749.75,-781.5 752.85,-783.02 756.07,-784.53 759.34,-786"/>
<polygon fill="#63b8ff" stroke="#63b8ff" points="757.89,-789.18 768.46,-789.95 760.67,-782.76 757.89,-789.18"/>
</a>
</g>
</g>
<!-- Node8&#45;&gt;Node7 -->
<g id="edge9_Node000008_Node000007" class="edge">
<title>Node8&#45;&gt;Node7</title>
<g id="a_edge9_Node000008_Node000007"><a xlink:title=" ">
<path fill="none" stroke="#63b8ff" d="M749.37,-760.27C739.09,-758.61 728.68,-756.69 719.27,-754.69"/>
<polygon fill="#63b8ff" stroke="#63b8ff" points="720.35,-751.34 709.82,-752.56 718.81,-758.17 720.35,-751.34"/>
</a>
</g>
</g>
<!-- Node10 -->
<g id="Node000010" class="node">
<title>Node10</title>
<g id="a_Node000010"><a xlink:href="classCore_1_1PartialExporter.html#a05cba8c28abaecce99f586d551a75f80" target="_top" xlink:title="Initializes the fields required for exporting data.">
<polygon fill="white" stroke="#666666" points="1020.25,-701 911.25,-701 911.25,-672 1020.25,-672 1020.25,-701"/>
<text xml:space="preserve" text-anchor="start" x="919.25" y="-687.5" font-family="Helvetica,sans-Serif" font-size="10.00">Core::PartialExporter</text>
<text xml:space="preserve" text-anchor="middle" x="965.75" y="-677" font-family="Helvetica,sans-Serif" font-size="10.00">::init_fields</text>
</a>
</g>
</g>
<!-- Node9&#45;&gt;Node10 -->
<g id="edge11_Node000009_Node000010" class="edge">
<title>Node9&#45;&gt;Node10</title>
<g id="a_edge11_Node000009_Node000010"><a xlink:title=" ">
<path fill="none" stroke="#63b8ff" d="M854.42,-661.34C868.55,-664.56 884.56,-668.22 899.93,-671.72"/>
<polygon fill="#63b8ff" stroke="#63b8ff" points="898.96,-675.09 909.49,-673.9 900.52,-668.26 898.96,-675.09"/>
</a>
</g>
</g>
<!-- Node13 -->
<g id="Node000013" class="node">
<title>Node13</title>
<g id="a_Node000013"><a xlink:href="namespacePostProcessing.html#a262aae53c1f4dafed4795c687d6ea817" target="_top" xlink:title=" ">
<polygon fill="white" stroke="#666666" points="1021.38,-654 910.12,-654 910.12,-625 1021.38,-625 1021.38,-654"/>
<text xml:space="preserve" text-anchor="start" x="918.12" y="-640.5" font-family="Helvetica,sans-Serif" font-size="10.00">PostProcessing::save</text>
<text xml:space="preserve" text-anchor="middle" x="965.75" y="-630" font-family="Helvetica,sans-Serif" font-size="10.00">_particle_state</text>
</a>
</g>
</g>
<!-- Node9&#45;&gt;Node13 -->
<g id="edge15_Node000009_Node000013" class="edge">
<title>Node9&#45;&gt;Node13</title>
<g id="a_edge15_Node000009_Node000013"><a xlink:title=" ">
<path fill="none" stroke="#63b8ff" d="M854.42,-648.13C868.13,-647.05 883.61,-645.84 898.56,-644.67"/>
<polygon fill="#63b8ff" stroke="#63b8ff" points="898.64,-648.18 908.33,-643.91 898.09,-641.2 898.64,-648.18"/>
</a>
</g>
</g>
<!-- Node15 -->
<g id="Node000015" class="node">
<title>Node15</title>
<g id="a_Node000015"><a xlink:href="classCore_1_1PartialExporter.html#a450fb0c92efa4ee81b4083fc01f5e665" target="_top" xlink:title="Writes the number of particles in each compartment.">
<polygon fill="white" stroke="#666666" points="1024.75,-607 906.75,-607 906.75,-578 1024.75,-578 1024.75,-607"/>
<text xml:space="preserve" text-anchor="start" x="914.75" y="-593.5" font-family="Helvetica,sans-Serif" font-size="10.00">Core::PartialExporter</text>
<text xml:space="preserve" text-anchor="middle" x="965.75" y="-583" font-family="Helvetica,sans-Serif" font-size="10.00">::write_number_particle</text>
</a>
</g>
</g>
<!-- Node9&#45;&gt;Node15 -->
<g id="edge17_Node000009_Node000015" class="edge">
<title>Node9&#45;&gt;Node15</title>
<g id="a_edge17_Node000009_Node000015"><a xlink:title=" ">
<path fill="none" stroke="#63b8ff" d="M849.98,-636.61C869.72,-629.02 893.95,-619.71 915.05,-611.6"/>
<polygon fill="#63b8ff" stroke="#63b8ff" points="916.27,-614.88 924.35,-608.03 913.76,-608.35 916.27,-614.88"/>
</a>
</g>
</g>
<!-- Node11 -->
<g id="Node000011" class="node">
<title>Node11</title>
<g id="a_Node000011"><a xlink:href="namespaceIO.html#a30cc77fc5c4d45d3b56ef6a299ce2383" target="_top" xlink:title=" ">
<polygon fill="white" stroke="#666666" points="1295.25,-691.75 1235,-691.75 1235,-673.25 1295.25,-673.25 1295.25,-691.75"/>
<text xml:space="preserve" text-anchor="middle" x="1265.12" y="-678.25" font-family="Helvetica,sans-Serif" font-size="10.00">IO::format</text>
</a>
</g>
</g>
<!-- Node10&#45;&gt;Node11 -->
<g id="edge12_Node000010_Node000011" class="edge">
<title>Node10&#45;&gt;Node11</title>
<g id="a_edge12_Node000010_Node000011"><a xlink:title=" ">
<path fill="none" stroke="#63b8ff" d="M1020.6,-685.78C1078.95,-684.99 1170.75,-683.76 1223.39,-683.05"/>
<polygon fill="#63b8ff" stroke="#63b8ff" points="1223.16,-686.55 1233.12,-682.92 1223.07,-679.55 1223.16,-686.55"/>
</a>
</g>
</g>
<!-- Node12 -->
<g id="Node000012" class="node">
<title>Node12</title>
<g id="a_Node000012"><a xlink:href="classCore_1_1DataExporter.html#a9c60512b8e80f25d5f1f6cac29b27d07" target="_top" xlink:title=" ">
<polygon fill="white" stroke="#666666" points="1170.12,-740 1069.38,-740 1069.38,-711 1170.12,-711 1170.12,-740"/>
<text xml:space="preserve" text-anchor="start" x="1077.38" y="-726.5" font-family="Helvetica,sans-Serif" font-size="10.00">Core::DataExporter</text>
<text xml:space="preserve" text-anchor="middle" x="1119.75" y="-716" font-family="Helvetica,sans-Serif" font-size="10.00">::prepare_matrix</text>
</a>
</g>
</g>
<!-- Node10&#45;&gt;Node12 -->
<g id="edge14_Node000010_Node000012" class="edge">
<title>Node10&#45;&gt;Node12</title>
<g id="a_edge14_Node000010_Node000012"><a xlink:title=" ">
<path fill="none" stroke="#63b8ff" d="M1020.34,-700.25C1032.57,-703.39 1045.65,-706.74 1058.15,-709.95"/>
<polygon fill="#63b8ff" stroke="#63b8ff" points="1056.93,-713.25 1067.48,-712.35 1058.67,-706.47 1056.93,-713.25"/>
</a>
</g>
</g>
<!-- Node11&#45;&gt;Node11 -->
<g id="edge13_Node000011_Node000011" class="edge">
<title>Node11&#45;&gt;Node11</title>
<g id="a_edge13_Node000011_Node000011"><a xlink:title=" ">
<path fill="none" stroke="#63b8ff" d="M1242.72,-692C1231.82,-700.57 1239.29,-709.75 1265.12,-709.75 1279.66,-709.75 1288.38,-706.84 1291.29,-702.78"/>
<polygon fill="#63b8ff" stroke="#63b8ff" points="1294.63,-701.72 1288.03,-693.42 1288.02,-704.02 1294.63,-701.72"/>
</a>
</g>
</g>
<!-- Node14 -->
<g id="Node000014" class="node">
<title>Node14</title>
<g id="a_Node000014"><a xlink:href="classSimulation_1_1Getter.html#ae948f113363f8ab858797a17c28a2e86" target="_top" xlink:title=" ">
<polygon fill="white" stroke="#666666" points="1167.12,-654 1072.38,-654 1072.38,-625 1167.12,-625 1167.12,-654"/>
<text xml:space="preserve" text-anchor="start" x="1080.38" y="-640.5" font-family="Helvetica,sans-Serif" font-size="10.00">Simulation::Getter</text>
<text xml:space="preserve" text-anchor="middle" x="1119.75" y="-630" font-family="Helvetica,sans-Serif" font-size="10.00">::mc_unit</text>
</a>
</g>
</g>
<!-- Node13&#45;&gt;Node14 -->
<g id="edge16_Node000013_Node000014" class="edge">
<title>Node13&#45;&gt;Node14</title>
<g id="a_edge16_Node000013_Node000014"><a xlink:title=" ">
<path fill="none" stroke="#63b8ff" d="M1021.63,-639.5C1034.26,-639.5 1047.73,-639.5 1060.5,-639.5"/>
<polygon fill="#63b8ff" stroke="#63b8ff" points="1060.47,-643 1070.47,-639.5 1060.47,-636 1060.47,-643"/>
</a>
</g>
</g>
<!-- Node16 -->
<g id="Node000016" class="node">
<title>Node16</title>
<g id="a_Node000016"><a xlink:href="classCore_1_1DataExporter.html#a0af9b5e13d16339af1918f8e845193f9" target="_top" xlink:title=" ">
<polygon fill="white" stroke="#666666" points="1170.12,-607 1069.38,-607 1069.38,-578 1170.12,-578 1170.12,-607"/>
<text xml:space="preserve" text-anchor="start" x="1077.38" y="-593.5" font-family="Helvetica,sans-Serif" font-size="10.00">Core::DataExporter</text>
<text xml:space="preserve" text-anchor="middle" x="1119.75" y="-583" font-family="Helvetica,sans-Serif" font-size="10.00">::append_matrix</text>
</a>
</g>
</g>
<!-- Node15&#45;&gt;Node16 -->
<g id="edge18_Node000015_Node000016" class="edge">
<title>Node15&#45;&gt;Node16</title>
<g id="a_edge18_Node000015_Node000016"><a xlink:title=" ">
<path fill="none" stroke="#63b8ff" d="M1025.08,-592.5C1035.78,-592.5 1046.97,-592.5 1057.75,-592.5"/>
<polygon fill="#63b8ff" stroke="#63b8ff" points="1057.72,-596 1067.72,-592.5 1057.72,-589 1057.72,-596"/>
</a>
</g>
</g>
<!-- Node18 -->
<g id="Node000018" class="node">
<title>Node18</title>
<g id="a_Node000018"><a xlink:href="namespacePostProcessing.html#adae52b6b518e25be1c920f36f196ef65" target="_top" xlink:title=" ">
<polygon fill="white" stroke="#666666" points="1024,-824 907.5,-824 907.5,-795 1024,-795 1024,-824"/>
<text xml:space="preserve" text-anchor="start" x="915.5" y="-810.5" font-family="Helvetica,sans-Serif" font-size="10.00">PostProcessing::_save</text>
<text xml:space="preserve" text-anchor="middle" x="965.75" y="-800" font-family="Helvetica,sans-Serif" font-size="10.00">_probes</text>
</a>
</g>
</g>
<!-- Node17&#45;&gt;Node18 -->
<g id="edge20_Node000017_Node000018" class="edge">
<title>Node17&#45;&gt;Node18</title>
<g id="a_edge20_Node000017_Node000018"><a xlink:title=" ">
<path fill="none" stroke="#63b8ff" d="M851.79,-736.49C858.24,-739.26 864.76,-742.3 870.75,-745.5 894.03,-757.94 918.63,-774.84 936.83,-788.15"/>
<polygon fill="#63b8ff" stroke="#63b8ff" points="934.38,-790.69 944.5,-793.84 938.55,-785.07 934.38,-790.69"/>
</a>
</g>
</g>
<!-- Node24 -->
<g id="Node000024" class="node">
<title>Node24</title>
<g id="a_Node000024"><a xlink:href="classSimulation_1_1Getter.html#ab2fa179687f4810f64d4c1c2beb7800c" target="_top" xlink:title=" ">
<polygon fill="white" stroke="#666666" points="1013.12,-748 918.38,-748 918.38,-719 1013.12,-719 1013.12,-748"/>
<text xml:space="preserve" text-anchor="start" x="926.38" y="-734.5" font-family="Helvetica,sans-Serif" font-size="10.00">Simulation::Getter</text>
<text xml:space="preserve" text-anchor="middle" x="965.75" y="-724" font-family="Helvetica,sans-Serif" font-size="10.00">::it_probes</text>
</a>
</g>
</g>
<!-- Node17&#45;&gt;Node24 -->
<g id="edge27_Node000017_Node000024" class="edge">
<title>Node17&#45;&gt;Node24</title>
<g id="a_edge27_Node000017_Node000024"><a xlink:title=" ">
<path fill="none" stroke="#63b8ff" d="M866.23,-725.8C879.41,-726.83 893.51,-727.93 906.82,-728.97"/>
<polygon fill="#63b8ff" stroke="#63b8ff" points="906.51,-732.46 916.75,-729.75 907.05,-725.48 906.51,-732.46"/>
</a>
</g>
</g>
<!-- Node19 -->
<g id="Node000019" class="node">
<title>Node19</title>
<g id="a_Node000019"><a xlink:href="classSimulation_1_1Probes.html#af54f1c8be6e49f63e8533d6a4e91cad3" target="_top" xlink:title=" ">
<polygon fill="white" stroke="#666666" points="1169,-824 1070.5,-824 1070.5,-795 1169,-795 1169,-824"/>
<text xml:space="preserve" text-anchor="start" x="1078.5" y="-810.5" font-family="Helvetica,sans-Serif" font-size="10.00">Simulation::Probes</text>
<text xml:space="preserve" text-anchor="middle" x="1119.75" y="-800" font-family="Helvetica,sans-Serif" font-size="10.00">::clear</text>
</a>
</g>
</g>
<!-- Node18&#45;&gt;Node19 -->
<g id="edge21_Node000018_Node000019" class="edge">
<title>Node18&#45;&gt;Node19</title>
<g id="a_edge21_Node000018_Node000019"><a xlink:title=" ">
<path fill="none" stroke="#63b8ff" d="M1024.21,-809.5C1035.56,-809.5 1047.5,-809.5 1058.93,-809.5"/>
<polygon fill="#63b8ff" stroke="#63b8ff" points="1058.63,-813 1068.63,-809.5 1058.63,-806 1058.63,-813"/>
</a>
</g>
</g>
<!-- Node20 -->
<g id="Node000020" class="node">
<title>Node20</title>
<g id="a_Node000020"><a xlink:href="classSimulation_1_1Probes.html#a6345c8304e772a314dae935f742d518a" target="_top" xlink:title=" ">
<polygon fill="white" stroke="#666666" points="1178.75,-776.75 1060.75,-776.75 1060.75,-758.25 1178.75,-758.25 1178.75,-776.75"/>
<text xml:space="preserve" text-anchor="middle" x="1119.75" y="-763.25" font-family="Helvetica,sans-Serif" font-size="10.00">Simulation::Probes::get</text>
</a>
</g>
</g>
<!-- Node18&#45;&gt;Node20 -->
<g id="edge22_Node000018_Node000020" class="edge">
<title>Node18&#45;&gt;Node20</title>
<g id="a_edge22_Node000018_Node000020"><a xlink:title=" ">
<path fill="none" stroke="#63b8ff" d="M1020.77,-794.57C1037.82,-789.86 1056.49,-784.7 1072.92,-780.16"/>
<polygon fill="#63b8ff" stroke="#63b8ff" points="1073.72,-783.57 1082.43,-777.54 1071.86,-776.83 1073.72,-783.57"/>
</a>
</g>
</g>
<!-- Node21 -->
<g id="Node000021" class="node">
<title>Node21</title>
<g id="a_Node000021"><a xlink:href="classSimulation_1_1Probes.html#a2b8541ff7ad653204a955ff1feb78757" target="_top" xlink:title=" ">
<polygon fill="white" stroke="#666666" points="1169,-918 1070.5,-918 1070.5,-889 1169,-889 1169,-918"/>
<text xml:space="preserve" text-anchor="start" x="1078.5" y="-904.5" font-family="Helvetica,sans-Serif" font-size="10.00">Simulation::Probes</text>
<text xml:space="preserve" text-anchor="middle" x="1119.75" y="-894" font-family="Helvetica,sans-Serif" font-size="10.00">::need_export</text>
</a>
</g>
</g>
<!-- Node18&#45;&gt;Node21 -->
<g id="edge23_Node000018_Node000021" class="edge">
<title>Node18&#45;&gt;Node21</title>
<g id="a_edge23_Node000018_Node000021"><a xlink:title=" ">
<path fill="none" stroke="#63b8ff" d="M983.45,-824.33C1001.53,-839.85 1031.69,-864.16 1060.75,-880.5 1062.78,-881.64 1064.88,-882.75 1067.01,-883.83"/>
<polygon fill="#63b8ff" stroke="#63b8ff" points="1065.33,-886.9 1075.87,-887.99 1068.3,-880.57 1065.33,-886.9"/>
</a>
</g>
</g>
<!-- Node22 -->
<g id="Node000022" class="node">
<title>Node22</title>
<g id="a_Node000022"><a xlink:href="classCore_1_1PartialExporter.html#a53c54ce796df99b407f410beb01074c5" target="_top" xlink:title="Writes probe data to the export.">
<polygon fill="white" stroke="#666666" points="1174.25,-871 1065.25,-871 1065.25,-842 1174.25,-842 1174.25,-871"/>
<text xml:space="preserve" text-anchor="start" x="1073.25" y="-857.5" font-family="Helvetica,sans-Serif" font-size="10.00">Core::PartialExporter</text>
<text xml:space="preserve" text-anchor="middle" x="1119.75" y="-847" font-family="Helvetica,sans-Serif" font-size="10.00">::write_probe</text>
</a>
</g>
</g>
<!-- Node18&#45;&gt;Node22 -->
<g id="edge24_Node000018_Node000022" class="edge">
<title>Node18&#45;&gt;Node22</title>
<g id="a_edge24_Node000018_Node000022"><a xlink:title=" ">
<path fill="none" stroke="#63b8ff" d="M1014.84,-824.37C1029.12,-828.79 1044.92,-833.67 1059.81,-838.27"/>
<polygon fill="#63b8ff" stroke="#63b8ff" points="1058.41,-841.51 1069,-841.12 1060.48,-834.82 1058.41,-841.51"/>
</a>
</g>
</g>
<!-- Node22&#45;&gt;Node11 -->
<g id="edge26_Node000022_Node000011" class="edge">
<title>Node22&#45;&gt;Node11</title>
<g id="a_edge26_Node000022_Node000011"><a xlink:title=" ">
<path fill="none" stroke="#63b8ff" d="M1167.1,-841.58C1171.27,-839.24 1175.24,-836.56 1178.75,-833.5 1220.62,-797.01 1246.48,-734.72 1257.66,-702.75"/>
<polygon fill="#63b8ff" stroke="#63b8ff" points="1260.89,-704.12 1260.75,-693.53 1254.25,-701.9 1260.89,-704.12"/>
</a>
</g>
</g>
<!-- Node23 -->
<g id="Node000023" class="node">
<title>Node23</title>
<g id="a_Node000023"><a xlink:href="classCore_1_1DataExporter.html#a0b0b79f3932c4eb905704a852248c857" target="_top" xlink:title=" ">
<polygon fill="white" stroke="#666666" points="1315.5,-871 1214.75,-871 1214.75,-842 1315.5,-842 1315.5,-871"/>
<text xml:space="preserve" text-anchor="start" x="1222.75" y="-857.5" font-family="Helvetica,sans-Serif" font-size="10.00">Core::DataExporter</text>
<text xml:space="preserve" text-anchor="middle" x="1265.12" y="-847" font-family="Helvetica,sans-Serif" font-size="10.00">::append_array</text>
</a>
</g>
</g>
<!-- Node22&#45;&gt;Node23 -->
<g id="edge25_Node000022_Node000023" class="edge">
<title>Node22&#45;&gt;Node23</title>
<g id="a_edge25_Node000022_Node000023"><a xlink:title=" ">
<path fill="none" stroke="#63b8ff" d="M1174.55,-856.5C1183.81,-856.5 1193.5,-856.5 1202.94,-856.5"/>
<polygon fill="#63b8ff" stroke="#63b8ff" points="1202.78,-860 1212.78,-856.5 1202.78,-853 1202.78,-860"/>
</a>
</g>
</g>
<!-- Node27&#45;&gt;Node7 -->
<g id="edge32_Node000027_Node000007" class="edge">
<title>Node27&#45;&gt;Node7</title>
<g id="a_edge32_Node000027_Node000007"><a xlink:title=" ">
<path fill="none" stroke="#63b8ff" d="M575.89,-664.44C598.67,-681.33 635.62,-708.75 659.13,-726.19"/>
<polygon fill="#63b8ff" stroke="#63b8ff" points="656.97,-728.94 667.09,-732.09 661.14,-723.32 656.97,-728.94"/>
</a>
</g>
</g>
<!-- Node27&#45;&gt;Node11 -->
<g id="edge33_Node000027_Node000011" class="edge">
<title>Node27&#45;&gt;Node11</title>
<g id="a_edge33_Node000027_Node000011"><a xlink:title=" ">
<path fill="none" stroke="#63b8ff" d="M577.33,-634.53C619.72,-606.63 717.7,-549.5 809.25,-549.5 809.25,-549.5 809.25,-549.5 966.75,-549.5 1061.35,-549.5 1096.13,-522.43 1178.75,-568.5 1216.94,-589.8 1243.1,-636.06 1255.64,-662.65"/>
<polygon fill="#63b8ff" stroke="#63b8ff" points="1252.38,-663.94 1259.68,-671.63 1258.77,-661.07 1252.38,-663.94"/>
</a>
</g>
</g>
<!-- Node40&#45;&gt;Node40 -->
<g id="edge47_Node000040_Node000040" class="edge">
<title>Node40&#45;&gt;Node40</title>
<g id="a_edge47_Node000040_Node000040"><a xlink:title=" ">
<path fill="none" stroke="#63b8ff" d="M190.94,-29.21C184.26,-38.32 193.49,-47 218.62,-47 232.37,-47 241.36,-44.41 245.59,-40.56"/>
<polygon fill="#63b8ff" stroke="#63b8ff" points="249.08,-40.92 246.22,-30.72 242.09,-40.47 249.08,-40.92"/>
</a>
</g>
</g>
</g>
</svg>
