<?xml version="1.0" encoding="UTF-8" standalone="no"?>
<!DOCTYPE svg PUBLIC "-//W3C//DTD SVG 1.1//EN"
 "http://www.w3.org/Graphics/SVG/1.1/DTD/svg11.dtd">
<!-- Generated by graphviz version 14.0.1 (0)
 -->
<!-- Title: Models::Uptake::uptake Pages: 1 -->
<svg width="567pt" height="74pt"
 viewBox="0.00 0.00 567.00 74.00" xmlns="http://www.w3.org/2000/svg" xmlns:xlink="http://www.w3.org/1999/xlink">
<g id="graph0" class="graph" transform="scale(1 1) rotate(0) translate(4 69.75)">
<title>Models::Uptake::uptake</title>
<!-- Node1 -->
<g id="Node000001" class="node">
<title>Node1</title>
<g id="a_Node000001"><a xlink:title=" ">
<polygon fill="#999999" stroke="#666666" points="118.75,-38.5 0,-38.5 0,-20 118.75,-20 118.75,-38.5"/>
<text xml:space="preserve" text-anchor="middle" x="59.38" y="-25" font-family="Helvetica,sans-Serif" font-size="10.00">Models::Uptake::uptake</text>
</a>
</g>
</g>
<!-- Node2 -->
<g id="Node000002" class="node">
<title>Node2</title>
<g id="a_Node000002"><a xlink:href="structModels_1_1Uptake.html#a86c86b134ce5505227968ede9c60c8db" target="_top" xlink:title=" ">
<polygon fill="white" stroke="#666666" points="417,-65.75 314,-65.75 314,-36.75 417,-36.75 417,-65.75"/>
<text xml:space="preserve" text-anchor="start" x="322" y="-52.25" font-family="Helvetica,sans-Serif" font-size="10.00">Models::Uptake::phi</text>
<text xml:space="preserve" text-anchor="middle" x="365.5" y="-41.75" font-family="Helvetica,sans-Serif" font-size="10.00">_permease</text>
</a>
</g>
</g>
<!-- Node1&#45;&gt;Node2 -->
<g id="edge1_Node000001_Node000002" class="edge">
<title>Node1&#45;&gt;Node2</title>
<g id="a_edge1_Node000001_Node000002"><a xlink:title=" ">
<path fill="none" stroke="#63b8ff" d="M119.01,-33.49C171.6,-37.3 248.52,-42.86 302.2,-46.74"/>
<polygon fill="#63b8ff" stroke="#63b8ff" points="301.88,-50.23 312.11,-47.46 302.39,-43.25 301.88,-50.23"/>
</a>
</g>
</g>
<!-- Node4 -->
<g id="Node000004" class="node">
<title>Node4</title>
<g id="a_Node000004"><a xlink:href="structModels_1_1Uptake.html#a3a55e9132d39efd1185cf726946b4fb0" target="_top" xlink:title=" ">
<polygon fill="white" stroke="#666666" points="276.5,-20.5 154.75,-20.5 154.75,-2 276.5,-2 276.5,-20.5"/>
<text xml:space="preserve" text-anchor="middle" x="215.62" y="-7" font-family="Helvetica,sans-Serif" font-size="10.00">Models::Uptake::phi_pts</text>
</a>
</g>
</g>
<!-- Node1&#45;&gt;Node4 -->
<g id="edge3_Node000001_Node000004" class="edge">
<title>Node1&#45;&gt;Node4</title>
<g id="a_edge3_Node000001_Node000004"><a xlink:title=" ">
<path fill="none" stroke="#63b8ff" d="M119.13,-22.39C127,-21.48 135.14,-20.53 143.2,-19.58"/>
<polygon fill="#63b8ff" stroke="#63b8ff" points="143.47,-23.08 152.99,-18.44 142.66,-16.12 143.47,-23.08"/>
</a>
</g>
</g>
<!-- Node3 -->
<g id="Node000003" class="node">
<title>Node3</title>
<g id="a_Node000003"><a xlink:href="namespaceModels.html#a98711ac2ebacdd7d1adea1524f8fc43b" target="_top" xlink:title=" ">
<polygon fill="white" stroke="#666666" points="559,-39.5 454.5,-39.5 454.5,-21 559,-21 559,-39.5"/>
<text xml:space="preserve" text-anchor="middle" x="506.75" y="-26" font-family="Helvetica,sans-Serif" font-size="10.00">Models::f_saturation</text>
</a>
</g>
</g>
<!-- Node2&#45;&gt;Node3 -->
<g id="edge2_Node000002_Node000003" class="edge">
<title>Node2&#45;&gt;Node3</title>
<g id="a_edge2_Node000002_Node000003"><a xlink:title=" ">
<path fill="none" stroke="#63b8ff" d="M417.17,-43.61C425.6,-42.34 434.44,-41 443.13,-39.69"/>
<polygon fill="#63b8ff" stroke="#63b8ff" points="443.56,-43.17 452.92,-38.22 442.51,-36.25 443.56,-43.17"/>
</a>
</g>
</g>
<!-- Node5 -->
<g id="Node000005" class="node">
<title>Node5</title>
<g id="a_Node000005"><a xlink:href="structModels_1_1Uptake.html#a4678e2ba17d3206a046a14ed2460a6b2" target="_top" xlink:title=" ">
<polygon fill="white" stroke="#666666" points="418.5,-18.5 312.5,-18.5 312.5,0 418.5,0 418.5,-18.5"/>
<text xml:space="preserve" text-anchor="middle" x="365.5" y="-5" font-family="Helvetica,sans-Serif" font-size="10.00">Models::Uptake::f_G</text>
</a>
</g>
</g>
<!-- Node4&#45;&gt;Node5 -->
<g id="edge4_Node000004_Node000005" class="edge">
<title>Node4&#45;&gt;Node5</title>
<g id="a_edge4_Node000004_Node000005"><a xlink:title=" ">
<path fill="none" stroke="#63b8ff" d="M276.77,-10.44C284.62,-10.33 292.67,-10.22 300.58,-10.11"/>
<polygon fill="#63b8ff" stroke="#63b8ff" points="300.54,-13.62 310.49,-9.98 300.44,-6.62 300.54,-13.62"/>
</a>
</g>
</g>
<!-- Node5&#45;&gt;Node3 -->
<g id="edge5_Node000005_Node000003" class="edge">
<title>Node5&#45;&gt;Node3</title>
<g id="a_edge5_Node000005_Node000003"><a xlink:title=" ">
<path fill="none" stroke="#63b8ff" d="M418.75,-17.13C426.62,-18.32 434.8,-19.55 442.86,-20.77"/>
<polygon fill="#63b8ff" stroke="#63b8ff" points="442.23,-24.21 452.64,-22.24 443.27,-17.29 442.23,-24.21"/>
</a>
</g>
</g>
</g>
</svg>
