<?xml version="1.0" encoding="UTF-8" standalone="no"?>
<!DOCTYPE svg PUBLIC "-//W3C//DTD SVG 1.1//EN"
 "http://www.w3.org/Graphics/SVG/1.1/DTD/svg11.dtd">
<!-- Generated by graphviz version 14.0.1 (0)
 -->
<!-- Title: MC::EventContainer::wrap_incr Pages: 1 -->
<svg width="379pt" height="37pt"
 viewBox="0.00 0.00 379.00 37.00" xmlns="http://www.w3.org/2000/svg" xmlns:xlink="http://www.w3.org/1999/xlink">
<g id="graph0" class="graph" transform="scale(1 1) rotate(0) translate(4 33)">
<title>MC::EventContainer::wrap_incr</title>
<!-- Node1 -->
<g id="Node000001" class="node">
<title>Node1</title>
<g id="a_Node000001"><a xlink:title=" ">
<polygon fill="#999999" stroke="#666666" points="104.5,-29 0,-29 0,0 104.5,0 104.5,-29"/>
<text xml:space="preserve" text-anchor="start" x="8" y="-15.5" font-family="Helvetica,sans-Serif" font-size="10.00">MC::EventContainer</text>
<text xml:space="preserve" text-anchor="middle" x="52.25" y="-5" font-family="Helvetica,sans-Serif" font-size="10.00">::wrap_incr</text>
</a>
</g>
</g>
<!-- Node2 -->
<g id="Node000002" class="node">
<title>Node2</title>
<g id="a_Node000002"><a xlink:href="structMC_1_1EventContainer.html#a70d7122fe5d2521f91e871816ea83e61" target="_top" xlink:title="Increment specific event counter.">
<polygon fill="white" stroke="#666666" points="245,-29 140.5,-29 140.5,0 245,0 245,-29"/>
<text xml:space="preserve" text-anchor="start" x="148.5" y="-15.5" font-family="Helvetica,sans-Serif" font-size="10.00">MC::EventContainer</text>
<text xml:space="preserve" text-anchor="middle" x="192.75" y="-5" font-family="Helvetica,sans-Serif" font-size="10.00">::incr</text>
</a>
</g>
</g>
<!-- Node1&#45;&gt;Node2 -->
<g id="edge1_Node000001_Node000002" class="edge">
<title>Node1&#45;&gt;Node2</title>
<g id="a_edge1_Node000001_Node000002"><a xlink:title=" ">
<path fill="none" stroke="#63b8ff" d="M104.82,-14.5C112.66,-14.5 120.83,-14.5 128.88,-14.5"/>
<polygon fill="#63b8ff" stroke="#63b8ff" points="128.62,-18 138.62,-14.5 128.62,-11 128.62,-18"/>
</a>
</g>
</g>
<!-- Node3 -->
<g id="Node000003" class="node">
<title>Node3</title>
<g id="a_Node000003"><a xlink:href="namespaceMC.html#ae91609aafa31939cedd6775cc5adafc4" target="_top" xlink:title="inline getter, converts event to its value in order to be use as array index">
<polygon fill="white" stroke="#666666" points="370.5,-23.75 281,-23.75 281,-5.25 370.5,-5.25 370.5,-23.75"/>
<text xml:space="preserve" text-anchor="middle" x="325.75" y="-10.25" font-family="Helvetica,sans-Serif" font-size="10.00">MC::event_index</text>
</a>
</g>
</g>
<!-- Node2&#45;&gt;Node3 -->
<g id="edge2_Node000002_Node000003" class="edge">
<title>Node2&#45;&gt;Node3</title>
<g id="a_edge2_Node000002_Node000003"><a xlink:title=" ">
<path fill="none" stroke="#63b8ff" d="M245.15,-14.5C253.05,-14.5 261.23,-14.5 269.22,-14.5"/>
<polygon fill="#63b8ff" stroke="#63b8ff" points="269.2,-18 279.2,-14.5 269.2,-11 269.2,-18"/>
</a>
</g>
</g>
</g>
</svg>
