<?xml version="1.0" encoding="UTF-8" standalone="no"?>
<!DOCTYPE svg PUBLIC "-//W3C//DTD SVG 1.1//EN"
 "http://www.w3.org/Graphics/SVG/1.1/DTD/svg11.dtd">
<!-- Generated by graphviz version 14.0.1 (0)
 -->
<!-- Title: Api::SimulationInstance::apply Pages: 1 -->
<!--zoomable 316 -->

<svg id="main" version="1.1" xmlns="http://www.w3.org/2000/svg" xmlns:xlink="http://www.w3.org/1999/xlink" xml:space="preserve" onload="init(evt)">

<style type="text/css"><![CDATA[
.node, .edge {opacity: 0.7;}
.node.selected, .edge.selected {opacity: 1;}
.edge:hover path { stroke: red; }
.edge:hover polygon { stroke: red; fill: red; }
]]></style>

<defs>
  <circle id="rim" cx="0" cy="0" r="7"/>
  <circle id="rim2" cx="0" cy="0" r="3.5"/>
  <g id="zoomPlus">
    <use xlink:href="#rim" fill="#404040"><set attributeName="fill" to="#808080" begin="zoomplus.mouseover" end="zoomplus.mouseout"/></use>
    <path d="M-4,0h8M0,-4v8" fill="none" stroke="white" stroke-width="1.5" pointer-events="none"/>
  </g>
  <g id="zoomMin">
    <use xlink:href="#rim" fill="#404040"><set attributeName="fill" to="#808080" begin="zoomminus.mouseover" end="zoomminus.mouseout"/></use>
    <path d="M-4,0h8" fill="none" stroke="white" stroke-width="1.5" pointer-events="none"/>
  </g>
  <g id="arrowUp" transform="translate(30 24)">
    <use xlink:href="#rim"/>
    <path pointer-events="none" fill="none" stroke="white" stroke-width="1.5" d="M0,-3.0v7 M-2.5,-0.5L0,-3.0L2.5,-0.5"/>
  </g>
  <g id="arrowRight" transform="rotate(90) translate(36 -43)">
    <use xlink:href="#rim"/>
    <path pointer-events="none" fill="none" stroke="white" stroke-width="1.5" d="M0,-3.0v7 M-2.5,-0.5L0,-3.0L2.5,-0.5"/>
  </g>
  <g id="arrowDown" transform="rotate(180) translate(-30 -48)">
    <use xlink:href="#rim"/>
    <path pointer-events="none" fill="none" stroke="white" stroke-width="1.5" d="M0,-3.0v7 M-2.5,-0.5L0,-3.0L2.5,-0.5"/>
  </g>
  <g id="arrowLeft" transform="rotate(270) translate(-36 17)">
    <use xlink:href="#rim"/>
    <path pointer-events="none" fill="none" stroke="white" stroke-width="1.5" d="M0,-3.0v7 M-2.5,-0.5L0,-3.0L2.5,-0.5"/>
  </g>
  <g id="resetDef">
    <use xlink:href="#rim2" fill="#404040"><set attributeName="fill" to="#808080" begin="reset.mouseover" end="reset.mouseout"/></use>
  </g>
</defs>
<script type="application/ecmascript">
var viewWidth = 860;
var viewHeight = 316;
var sectionId = 'dynsection-6';
</script>
<script type="application/ecmascript" xlink:href="svg.min.js"/>
<svg id="graph" class="graph">
<g id="viewport">
<title>Api::SimulationInstance::apply</title>
<!-- Node1 -->
<g id="Node000001" class="node">
<title>Node1</title>
<g id="a_Node000001"><a xlink:title="Apply the simulation configuration and prepare for execution.">
<polygon fill="#999999" stroke="#666666" points="119.5,-151 0,-151 0,-122 119.5,-122 119.5,-151"/>
<text xml:space="preserve" text-anchor="start" x="8" y="-137.5" font-family="Helvetica,sans-Serif" font-size="10.00">Api::SimulationInstance</text>
<text xml:space="preserve" text-anchor="middle" x="59.75" y="-127" font-family="Helvetica,sans-Serif" font-size="10.00">::apply</text>
</a>
</g>
</g>
<!-- Node2 -->
<g id="Node000002" class="node">
<title>Node2</title>
<g id="a_Node000002"><a xlink:href="classCore_1_1GlobalInitialiser.html#af0e3ff388be6a2cb08edf9f69dd200b0" target="_top" xlink:title="Checks if all initialization steps have been validated.">
<polygon fill="white" stroke="#666666" points="267.5,-108 155.5,-108 155.5,-79 267.5,-79 267.5,-108"/>
<text xml:space="preserve" text-anchor="start" x="163.5" y="-94.5" font-family="Helvetica,sans-Serif" font-size="10.00">Core::GlobalInitialiser</text>
<text xml:space="preserve" text-anchor="middle" x="211.5" y="-84" font-family="Helvetica,sans-Serif" font-size="10.00">::check_init_terminate</text>
</a>
</g>
</g>
<!-- Node1&#45;&gt;Node2 -->
<g id="edge1_Node000001_Node000002" class="edge">
<title>Node1&#45;&gt;Node2</title>
<g id="a_edge1_Node000001_Node000002"><a xlink:title=" ">
<path fill="none" stroke="#63b8ff" d="M112.71,-121.58C123.91,-118.36 135.87,-114.93 147.44,-111.61"/>
<polygon fill="#63b8ff" stroke="#63b8ff" points="148.28,-115.01 156.93,-108.88 146.35,-108.28 148.28,-115.01"/>
</a>
</g>
</g>
<!-- Node4 -->
<g id="Node000004" class="node">
<title>Node4</title>
<g id="a_Node000004"><a xlink:href="classCore_1_1GlobalInitialiser.html#ae6d2f54a18d82dda373f9cd7ec923eac" target="_top" xlink:title=" ">
<polygon fill="white" stroke="#666666" points="266.38,-194 156.62,-194 156.62,-165 266.38,-165 266.38,-194"/>
<text xml:space="preserve" text-anchor="start" x="164.62" y="-180.5" font-family="Helvetica,sans-Serif" font-size="10.00">Core::GlobalInitialiser</text>
<text xml:space="preserve" text-anchor="middle" x="211.5" y="-170" font-family="Helvetica,sans-Serif" font-size="10.00">::get_parameters</text>
</a>
</g>
</g>
<!-- Node1&#45;&gt;Node4 -->
<g id="edge3_Node000001_Node000004" class="edge">
<title>Node1&#45;&gt;Node4</title>
<g id="a_edge3_Node000001_Node000004"><a xlink:title=" ">
<path fill="none" stroke="#63b8ff" d="M112.71,-151.42C123.91,-154.64 135.87,-158.07 147.44,-161.39"/>
<polygon fill="#63b8ff" stroke="#63b8ff" points="146.35,-164.72 156.93,-164.12 148.28,-157.99 146.35,-164.72"/>
</a>
</g>
</g>
<!-- Node5 -->
<g id="Node000005" class="node">
<title>Node5</title>
<g id="a_Node000005"><a xlink:href="classCore_1_1GlobalInitialiser.html#aefbbc9e413134e0e080df2218316fe63" target="_top" xlink:title="Initializes a simulation feed.">
<polygon fill="white" stroke="#666666" points="413.25,-151 303.5,-151 303.5,-122 413.25,-122 413.25,-151"/>
<text xml:space="preserve" text-anchor="start" x="311.5" y="-137.5" font-family="Helvetica,sans-Serif" font-size="10.00">Core::GlobalInitialiser</text>
<text xml:space="preserve" text-anchor="middle" x="358.38" y="-127" font-family="Helvetica,sans-Serif" font-size="10.00">::init_feed</text>
</a>
</g>
</g>
<!-- Node1&#45;&gt;Node5 -->
<g id="edge4_Node000001_Node000005" class="edge">
<title>Node1&#45;&gt;Node5</title>
<g id="a_edge4_Node000001_Node000005"><a xlink:title=" ">
<path fill="none" stroke="#63b8ff" d="M119.71,-136.5C169.34,-136.5 240.27,-136.5 291.71,-136.5"/>
<polygon fill="#63b8ff" stroke="#63b8ff" points="291.51,-140 301.51,-136.5 291.51,-133 291.51,-140"/>
</a>
</g>
</g>
<!-- Node8 -->
<g id="Node000008" class="node">
<title>Node8</title>
<g id="a_Node000008"><a xlink:href="classCore_1_1GlobalInitialiser.html#a00d0e7a7d549bf06886dfc3ba9de3e3d" target="_top" xlink:title="Initializes a simulation unit.">
<polygon fill="white" stroke="#666666" points="266.38,-241 156.62,-241 156.62,-212 266.38,-212 266.38,-241"/>
<text xml:space="preserve" text-anchor="start" x="164.62" y="-227.5" font-family="Helvetica,sans-Serif" font-size="10.00">Core::GlobalInitialiser</text>
<text xml:space="preserve" text-anchor="middle" x="211.5" y="-217" font-family="Helvetica,sans-Serif" font-size="10.00">::init_simulation</text>
</a>
</g>
</g>
<!-- Node1&#45;&gt;Node8 -->
<g id="edge7_Node000001_Node000008" class="edge">
<title>Node1&#45;&gt;Node8</title>
<g id="a_edge7_Node000001_Node000008"><a xlink:title=" ">
<path fill="none" stroke="#63b8ff" d="M79.18,-151.38C97.71,-165.89 127.48,-187.98 155.5,-203.5 157.44,-204.57 159.43,-205.63 161.46,-206.66"/>
<polygon fill="#63b8ff" stroke="#63b8ff" points="159.92,-209.8 170.46,-210.94 162.94,-203.48 159.92,-209.8"/>
</a>
</g>
</g>
<!-- Node16 -->
<g id="Node000016" class="node">
<title>Node16</title>
<g id="a_Node000016"><a xlink:href="classCore_1_1GlobalInitialiser.html#a0dc2da93c4202706b5f37453f355145c" target="_top" xlink:title="Initializes a transitioner with the provided flow iterator.">
<polygon fill="white" stroke="#666666" points="266.38,-61 156.62,-61 156.62,-32 266.38,-32 266.38,-61"/>
<text xml:space="preserve" text-anchor="start" x="164.62" y="-47.5" font-family="Helvetica,sans-Serif" font-size="10.00">Core::GlobalInitialiser</text>
<text xml:space="preserve" text-anchor="middle" x="211.5" y="-37" font-family="Helvetica,sans-Serif" font-size="10.00">::init_transitionner</text>
</a>
</g>
</g>
<!-- Node1&#45;&gt;Node16 -->
<g id="edge22_Node000001_Node000016" class="edge">
<title>Node1&#45;&gt;Node16</title>
<g id="a_edge22_Node000001_Node000016"><a xlink:title=" ">
<path fill="none" stroke="#63b8ff" d="M79.62,-121.69C98.24,-107.48 127.86,-85.96 155.5,-70.5 158.01,-69.1 160.61,-67.72 163.26,-66.38"/>
<polygon fill="#63b8ff" stroke="#63b8ff" points="164.76,-69.54 172.26,-62.05 161.73,-63.23 164.76,-69.54"/>
</a>
</g>
</g>
<!-- Node3 -->
<g id="Node000003" class="node">
<title>Node3</title>
<g id="a_Node000003"><a xlink:href="namespaceIO.html#a30cc77fc5c4d45d3b56ef6a299ce2383" target="_top" xlink:title=" ">
<polygon fill="white" stroke="#666666" points="388.5,-103.75 328.25,-103.75 328.25,-85.25 388.5,-85.25 388.5,-103.75"/>
<text xml:space="preserve" text-anchor="middle" x="358.38" y="-90.25" font-family="Helvetica,sans-Serif" font-size="10.00">IO::format</text>
</a>
</g>
</g>
<!-- Node2&#45;&gt;Node3 -->
<g id="edge2_Node000002_Node000003" class="edge">
<title>Node2&#45;&gt;Node3</title>
<g id="a_edge2_Node000002_Node000003"><a xlink:title=" ">
<path fill="none" stroke="#63b8ff" d="M267.68,-93.88C284,-93.99 301.55,-94.11 316.76,-94.22"/>
<polygon fill="#63b8ff" stroke="#63b8ff" points="316.35,-97.72 326.37,-94.29 316.39,-90.72 316.35,-97.72"/>
</a>
</g>
</g>
<!-- Node6 -->
<g id="Node000006" class="node">
<title>Node6</title>
<g id="a_Node000006"><a xlink:href="classCore_1_1GlobalInitialiser.html#a5134f9db1f59d9124d5fdec88e3e99f3" target="_top" xlink:title="Checks the validity of specified initialization steps.">
<polygon fill="white" stroke="#666666" points="559,-188 449.25,-188 449.25,-159 559,-159 559,-188"/>
<text xml:space="preserve" text-anchor="start" x="457.25" y="-174.5" font-family="Helvetica,sans-Serif" font-size="10.00">Core::GlobalInitialiser</text>
<text xml:space="preserve" text-anchor="middle" x="504.12" y="-164" font-family="Helvetica,sans-Serif" font-size="10.00">::check_steps</text>
</a>
</g>
</g>
<!-- Node5&#45;&gt;Node6 -->
<g id="edge5_Node000005_Node000006" class="edge">
<title>Node5&#45;&gt;Node6</title>
<g id="a_edge5_Node000005_Node000006"><a xlink:title=" ">
<path fill="none" stroke="#63b8ff" d="M413.72,-150.49C421.7,-152.54 429.99,-154.68 438.16,-156.78"/>
<polygon fill="#63b8ff" stroke="#63b8ff" points="437.16,-160.13 447.71,-159.24 438.9,-153.36 437.16,-160.13"/>
</a>
</g>
</g>
<!-- Node7 -->
<g id="Node000007" class="node">
<title>Node7</title>
<g id="a_Node000007"><a xlink:href="classCore_1_1GlobalInitialiser.html#a3844076c910ed26f60f42bada71cc09e" target="_top" xlink:title="Validates the specified initialization step and any additional steps.">
<polygon fill="white" stroke="#666666" points="559,-141 449.25,-141 449.25,-112 559,-112 559,-141"/>
<text xml:space="preserve" text-anchor="start" x="457.25" y="-127.5" font-family="Helvetica,sans-Serif" font-size="10.00">Core::GlobalInitialiser</text>
<text xml:space="preserve" text-anchor="middle" x="504.12" y="-117" font-family="Helvetica,sans-Serif" font-size="10.00">::validate_step</text>
</a>
</g>
</g>
<!-- Node5&#45;&gt;Node7 -->
<g id="edge6_Node000005_Node000007" class="edge">
<title>Node5&#45;&gt;Node7</title>
<g id="a_edge6_Node000005_Node000007"><a xlink:title=" ">
<path fill="none" stroke="#63b8ff" d="M413.72,-132.72C421.61,-132.17 429.8,-131.6 437.88,-131.04"/>
<polygon fill="#63b8ff" stroke="#63b8ff" points="437.94,-134.54 447.67,-130.36 437.45,-127.56 437.94,-134.54"/>
</a>
</g>
</g>
<!-- Node8&#45;&gt;Node6 -->
<g id="edge8_Node000008_Node000006" class="edge">
<title>Node8&#45;&gt;Node6</title>
<g id="a_edge8_Node000008_Node000006"><a xlink:title=" ">
<path fill="none" stroke="#63b8ff" d="M266.81,-225.28C307.56,-223.42 364.48,-218.82 413.25,-207.5 428.66,-203.92 444.99,-198.33 459.43,-192.71"/>
<polygon fill="#63b8ff" stroke="#63b8ff" points="460.69,-195.97 468.67,-189 458.08,-189.48 460.69,-195.97"/>
</a>
</g>
</g>
<!-- Node8&#45;&gt;Node8 -->
<g id="edge21_Node000008_Node000008" class="edge">
<title>Node8&#45;&gt;Node8</title>
<g id="a_edge21_Node000008_Node000008"><a xlink:title=" ">
<path fill="none" stroke="#63b8ff" d="M185.9,-241.21C179.73,-250.32 188.26,-259 211.5,-259 224.21,-259 232.52,-256.41 236.43,-252.56"/>
<polygon fill="#63b8ff" stroke="#63b8ff" points="239.91,-252.91 237.01,-242.72 232.93,-252.49 239.91,-252.91"/>
</a>
</g>
</g>
<!-- Node9 -->
<g id="Node000009" class="node">
<title>Node9</title>
<g id="a_Node000009"><a xlink:href="classCore_1_1GlobalInitialiser.html#a9b38d15538796d9cc115211890a6c081" target="_top" xlink:title="Initializes a Monte Carlo unit.">
<polygon fill="white" stroke="#666666" points="413.25,-284 303.5,-284 303.5,-255 413.25,-255 413.25,-284"/>
<text xml:space="preserve" text-anchor="start" x="311.5" y="-270.5" font-family="Helvetica,sans-Serif" font-size="10.00">Core::GlobalInitialiser</text>
<text xml:space="preserve" text-anchor="middle" x="358.38" y="-260" font-family="Helvetica,sans-Serif" font-size="10.00">::init_monte_carlo</text>
</a>
</g>
</g>
<!-- Node8&#45;&gt;Node9 -->
<g id="edge9_Node000008_Node000009" class="edge">
<title>Node8&#45;&gt;Node9</title>
<g id="a_edge9_Node000008_Node000009"><a xlink:title=" ">
<path fill="none" stroke="#63b8ff" d="M262.76,-241.42C273.55,-244.62 285.07,-248.04 296.21,-251.35"/>
<polygon fill="#63b8ff" stroke="#63b8ff" points="295.17,-254.69 305.75,-254.18 297.16,-247.98 295.17,-254.69"/>
</a>
</g>
</g>
<!-- Node13 -->
<g id="Node000013" class="node">
<title>Node13</title>
<g id="a_Node000013"><a xlink:href="classCore_1_1GlobalInitialiser.html#aa84a61b25f475380b38306232e25aff6" target="_top" xlink:title="Initializes a scalar component of the simulation.">
<polygon fill="white" stroke="#666666" points="413.25,-198 303.5,-198 303.5,-169 413.25,-169 413.25,-198"/>
<text xml:space="preserve" text-anchor="start" x="311.5" y="-184.5" font-family="Helvetica,sans-Serif" font-size="10.00">Core::GlobalInitialiser</text>
<text xml:space="preserve" text-anchor="middle" x="358.38" y="-174" font-family="Helvetica,sans-Serif" font-size="10.00">::init_scalar</text>
</a>
</g>
</g>
<!-- Node8&#45;&gt;Node13 -->
<g id="edge16_Node000008_Node000013" class="edge">
<title>Node8&#45;&gt;Node13</title>
<g id="a_edge16_Node000008_Node000013"><a xlink:title=" ">
<path fill="none" stroke="#63b8ff" d="M262.76,-211.58C273.55,-208.38 285.07,-204.96 296.21,-201.65"/>
<polygon fill="#63b8ff" stroke="#63b8ff" points="297.16,-205.02 305.75,-198.82 295.17,-198.31 297.16,-205.02"/>
</a>
</g>
</g>
<!-- Node9&#45;&gt;Node6 -->
<g id="edge13_Node000009_Node000006" class="edge">
<title>Node9&#45;&gt;Node6</title>
<g id="a_edge13_Node000009_Node000006"><a xlink:title=" ">
<path fill="none" stroke="#63b8ff" d="M391.98,-254.53C399.32,-250.47 406.83,-245.73 413.25,-240.5 432.57,-224.75 429.35,-212.51 449.25,-197.5 450.8,-196.33 452.41,-195.21 454.06,-194.13"/>
<polygon fill="#63b8ff" stroke="#63b8ff" points="455.76,-197.19 462.65,-189.14 452.24,-191.14 455.76,-197.19"/>
</a>
</g>
</g>
<!-- Node9&#45;&gt;Node7 -->
<g id="edge15_Node000009_Node000007" class="edge">
<title>Node9&#45;&gt;Node7</title>
<g id="a_edge15_Node000009_Node000007"><a xlink:title=" ">
<path fill="none" stroke="#63b8ff" d="M373.33,-254.75C384.62,-242.51 400.66,-224.44 413.25,-207.5 431.13,-183.46 426.59,-170.11 449.25,-150.5 450.48,-149.43 451.77,-148.4 453.11,-147.42"/>
<polygon fill="#63b8ff" stroke="#63b8ff" points="454.61,-150.61 461.14,-142.27 450.83,-144.72 454.61,-150.61"/>
</a>
</g>
</g>
<!-- Node10 -->
<g id="Node000010" class="node">
<title>Node10</title>
<g id="a_Node000010"><a xlink:href="namespaceWrapMPI.html#a8237adbb04708d9bf4bae9e904d04f5f" target="_top" xlink:title=" ">
<polygon fill="white" stroke="#666666" points="701,-289.75 595,-289.75 595,-271.25 701,-271.25 701,-289.75"/>
<text xml:space="preserve" text-anchor="middle" x="648" y="-276.25" font-family="Helvetica,sans-Serif" font-size="10.00">WrapMPI::all_reduce</text>
</a>
</g>
</g>
<!-- Node9&#45;&gt;Node10 -->
<g id="edge10_Node000009_Node000010" class="edge">
<title>Node9&#45;&gt;Node10</title>
<g id="a_edge10_Node000009_Node000010"><a xlink:title=" ">
<path fill="none" stroke="#63b8ff" d="M413.46,-277.2C425.23,-278.57 437.64,-279.79 449.25,-280.5 494.16,-283.24 544.92,-283.17 583.76,-282.46"/>
<polygon fill="#63b8ff" stroke="#63b8ff" points="583.46,-285.96 593.39,-282.26 583.32,-278.97 583.46,-285.96"/>
</a>
</g>
</g>
<!-- Node12 -->
<g id="Node000012" class="node">
<title>Node12</title>
<g id="a_Node000012"><a xlink:href="namespaceMC.html#ac9b6a65d70e4c5007f4bc908509924a0" target="_top" xlink:title=" ">
<polygon fill="white" stroke="#666666" points="557.88,-271.75 450.38,-271.75 450.38,-253.25 557.88,-253.25 557.88,-271.75"/>
<text xml:space="preserve" text-anchor="middle" x="504.12" y="-258.25" font-family="Helvetica,sans-Serif" font-size="10.00">MC::post_init_weight</text>
</a>
</g>
</g>
<!-- Node9&#45;&gt;Node12 -->
<g id="edge14_Node000009_Node000012" class="edge">
<title>Node9&#45;&gt;Node12</title>
<g id="a_edge14_Node000009_Node000012"><a xlink:title=" ">
<path fill="none" stroke="#63b8ff" d="M413.72,-266.85C421.92,-266.45 430.44,-266.04 438.83,-265.63"/>
<polygon fill="#63b8ff" stroke="#63b8ff" points="438.8,-269.14 448.62,-265.15 438.46,-262.14 438.8,-269.14"/>
</a>
</g>
</g>
<!-- Node10&#45;&gt;Node10 -->
<g id="edge11_Node000010_Node000010" class="edge">
<title>Node10&#45;&gt;Node10</title>
<g id="a_edge11_Node000010_Node000010"><a xlink:title=" ">
<path fill="none" stroke="#63b8ff" d="M625.82,-290C615.04,-298.57 622.43,-307.75 648,-307.75 662.38,-307.75 671.02,-304.84 673.9,-300.78"/>
<polygon fill="#63b8ff" stroke="#63b8ff" points="677.24,-299.74 670.67,-291.43 670.62,-302.02 677.24,-299.74"/>
</a>
</g>
</g>
<!-- Node11 -->
<g id="Node000011" class="node">
<title>Node11</title>
<g id="a_Node000011"><a xlink:href="namespaceWrapMPI.html#adab3300a86b8c0227268b23134b57a24" target="_top" xlink:title=" ">
<polygon fill="white" stroke="#666666" points="844.12,-221.75 744.88,-221.75 744.88,-203.25 844.12,-203.25 844.12,-221.75"/>
<text xml:space="preserve" text-anchor="middle" x="794.5" y="-208.25" font-family="Helvetica,sans-Serif" font-size="10.00">WrapMPI::get_type</text>
</a>
</g>
</g>
<!-- Node10&#45;&gt;Node11 -->
<g id="edge12_Node000010_Node000011" class="edge">
<title>Node10&#45;&gt;Node11</title>
<g id="a_edge12_Node000010_Node000011"><a xlink:title=" ">
<path fill="none" stroke="#63b8ff" d="M669.7,-270.76C694.06,-259.29 734.73,-240.16 762.77,-226.96"/>
<polygon fill="#63b8ff" stroke="#63b8ff" points="763.91,-230.29 771.47,-222.87 760.93,-223.96 763.91,-230.29"/>
</a>
</g>
</g>
<!-- Node13&#45;&gt;Node6 -->
<g id="edge17_Node000013_Node000006" class="edge">
<title>Node13&#45;&gt;Node6</title>
<g id="a_edge17_Node000013_Node000006"><a xlink:title=" ">
<path fill="none" stroke="#63b8ff" d="M413.72,-179.72C421.61,-179.17 429.8,-178.6 437.88,-178.04"/>
<polygon fill="#63b8ff" stroke="#63b8ff" points="437.94,-181.54 447.67,-177.36 437.45,-174.56 437.94,-181.54"/>
</a>
</g>
</g>
<!-- Node13&#45;&gt;Node7 -->
<g id="edge20_Node000013_Node000007" class="edge">
<title>Node13&#45;&gt;Node7</title>
<g id="a_edge20_Node000013_Node000007"><a xlink:title=" ">
<path fill="none" stroke="#63b8ff" d="M397.14,-168.52C414.89,-161.49 436.24,-153.02 455.12,-145.53"/>
<polygon fill="#63b8ff" stroke="#63b8ff" points="456.2,-148.87 464.2,-141.93 453.62,-142.37 456.2,-148.87"/>
</a>
</g>
</g>
<!-- Node14 -->
<g id="Node000014" class="node">
<title>Node14</title>
<g id="a_Node000014"><a xlink:href="namespaceCore_1_1ScalarFactory.html#a8fb497033464776a1cda71cce1840cd8" target="_top" xlink:title="Factory function to initialize scalar data based on the specified input source.">
<polygon fill="white" stroke="#666666" points="556.38,-235 451.88,-235 451.88,-206 556.38,-206 556.38,-235"/>
<text xml:space="preserve" text-anchor="start" x="459.88" y="-221.5" font-family="Helvetica,sans-Serif" font-size="10.00">Core::ScalarFactory</text>
<text xml:space="preserve" text-anchor="middle" x="504.12" y="-211" font-family="Helvetica,sans-Serif" font-size="10.00">::scalar_factory</text>
</a>
</g>
</g>
<!-- Node13&#45;&gt;Node14 -->
<g id="edge18_Node000013_Node000014" class="edge">
<title>Node13&#45;&gt;Node14</title>
<g id="a_edge18_Node000013_Node000014"><a xlink:title=" ">
<path fill="none" stroke="#63b8ff" d="M413.72,-197.49C422.44,-199.73 431.53,-202.07 440.43,-204.36"/>
<polygon fill="#63b8ff" stroke="#63b8ff" points="439.53,-207.74 450.09,-206.85 441.27,-200.97 439.53,-207.74"/>
</a>
</g>
</g>
<!-- Node15 -->
<g id="Node000015" class="node">
<title>Node15</title>
<g id="a_Node000015"><a xlink:href="namespaceCore_1_1ScalarFactory.html#a3cd3bf6bf73298a38df48b444e3f0a23" target="_top" xlink:title=" ">
<polygon fill="white" stroke="#666666" points="700.25,-235 595.75,-235 595.75,-206 700.25,-206 700.25,-235"/>
<text xml:space="preserve" text-anchor="start" x="603.75" y="-221.5" font-family="Helvetica,sans-Serif" font-size="10.00">Core::ScalarFactory</text>
<text xml:space="preserve" text-anchor="middle" x="648" y="-211" font-family="Helvetica,sans-Serif" font-size="10.00">::sanitize</text>
</a>
</g>
</g>
<!-- Node14&#45;&gt;Node15 -->
<g id="edge19_Node000014_Node000015" class="edge">
<title>Node14&#45;&gt;Node15</title>
<g id="a_edge19_Node000014_Node000015"><a xlink:title=" ">
<path fill="none" stroke="#63b8ff" d="M556.75,-220.5C565.66,-220.5 575.01,-220.5 584.18,-220.5"/>
<polygon fill="#63b8ff" stroke="#63b8ff" points="584.14,-224 594.14,-220.5 584.14,-217 584.14,-224"/>
</a>
</g>
</g>
<!-- Node16&#45;&gt;Node3 -->
<g id="edge23_Node000016_Node000003" class="edge">
<title>Node16&#45;&gt;Node3</title>
<g id="a_edge23_Node000016_Node000003"><a xlink:title=" ">
<path fill="none" stroke="#63b8ff" d="M257.55,-61.42C276.76,-67.79 298.99,-75.15 317.58,-81.32"/>
<polygon fill="#63b8ff" stroke="#63b8ff" points="316.32,-84.58 326.91,-84.41 318.52,-77.94 316.32,-84.58"/>
</a>
</g>
</g>
<!-- Node16&#45;&gt;Node7 -->
<g id="edge34_Node000016_Node000007" class="edge">
<title>Node16&#45;&gt;Node7</title>
<g id="a_edge34_Node000016_Node000007"><a xlink:title=" ">
<path fill="none" stroke="#63b8ff" d="M266.66,-49.03C307.85,-52.28 365.38,-59.66 413.25,-76.5 430.72,-82.65 433.09,-88.44 449.25,-97.5 454.33,-100.35 459.71,-103.31 465.02,-106.2"/>
<polygon fill="#63b8ff" stroke="#63b8ff" points="463.27,-109.23 473.73,-110.91 466.6,-103.07 463.27,-109.23"/>
</a>
</g>
</g>
<!-- Node17 -->
<g id="Node000017" class="node">
<title>Node17</title>
<g id="a_Node000017"><a xlink:href="classCore_1_1GlobalInitialiser.html#a97eff5566ced6ba6449eb532f0babadc" target="_top" xlink:title="Initializes a flow iterator.">
<polygon fill="white" stroke="#666666" points="413.25,-29 303.5,-29 303.5,0 413.25,0 413.25,-29"/>
<text xml:space="preserve" text-anchor="start" x="311.5" y="-15.5" font-family="Helvetica,sans-Serif" font-size="10.00">Core::GlobalInitialiser</text>
<text xml:space="preserve" text-anchor="middle" x="358.38" y="-5" font-family="Helvetica,sans-Serif" font-size="10.00">::init_state</text>
</a>
</g>
</g>
<!-- Node16&#45;&gt;Node17 -->
<g id="edge24_Node000016_Node000017" class="edge">
<title>Node16&#45;&gt;Node17</title>
<g id="a_edge24_Node000016_Node000017"><a xlink:title=" ">
<path fill="none" stroke="#63b8ff" d="M266.86,-34.49C275.12,-32.67 283.72,-30.77 292.18,-28.9"/>
<polygon fill="#63b8ff" stroke="#63b8ff" points="292.71,-32.37 301.72,-26.79 291.2,-25.53 292.71,-32.37"/>
</a>
</g>
</g>
<!-- Node17&#45;&gt;Node6 -->
<g id="edge25_Node000017_Node000006" class="edge">
<title>Node17&#45;&gt;Node6</title>
<g id="a_edge25_Node000017_Node000006"><a xlink:title=" ">
<path fill="none" stroke="#63b8ff" d="M374.31,-29.38C385.86,-41.41 401.77,-59.13 413.25,-76.5 433.42,-107.01 422.76,-125.28 449.25,-150.5 449.86,-151.08 450.48,-151.64 451.12,-152.2"/>
<polygon fill="#63b8ff" stroke="#63b8ff" points="448.75,-154.8 458.91,-157.77 452.82,-149.11 448.75,-154.8"/>
</a>
</g>
</g>
<!-- Node17&#45;&gt;Node7 -->
<g id="edge33_Node000017_Node000007" class="edge">
<title>Node17&#45;&gt;Node7</title>
<g id="a_edge33_Node000017_Node000007"><a xlink:title=" ">
<path fill="none" stroke="#63b8ff" d="M393.25,-29.45C400.29,-33.43 407.36,-38.14 413.25,-43.5 434.58,-62.91 427.92,-78.09 449.25,-97.5 452.47,-100.43 456.05,-103.17 459.77,-105.7"/>
<polygon fill="#63b8ff" stroke="#63b8ff" points="457.61,-108.48 467.96,-110.75 461.29,-102.52 457.61,-108.48"/>
</a>
</g>
</g>
<!-- Node18 -->
<g id="Node000018" class="node">
<title>Node18</title>
<g id="a_Node000018"><a xlink:href="classCore_1_1GlobalInitialiser.html#a36655d4a10ebb302f64512e2cda8649d" target="_top" xlink:title="Retrieves path files based on the provided case path.">
<polygon fill="white" stroke="#666666" points="559,-29 449.25,-29 449.25,0 559,0 559,-29"/>
<text xml:space="preserve" text-anchor="start" x="457.25" y="-15.5" font-family="Helvetica,sans-Serif" font-size="10.00">Core::GlobalInitialiser</text>
<text xml:space="preserve" text-anchor="middle" x="504.12" y="-5" font-family="Helvetica,sans-Serif" font-size="10.00">::host_init_state</text>
</a>
</g>
</g>
<!-- Node17&#45;&gt;Node18 -->
<g id="edge26_Node000017_Node000018" class="edge">
<title>Node17&#45;&gt;Node18</title>
<g id="a_edge26_Node000017_Node000018"><a xlink:title=" ">
<path fill="none" stroke="#63b8ff" d="M413.72,-14.5C421.61,-14.5 429.8,-14.5 437.88,-14.5"/>
<polygon fill="#63b8ff" stroke="#63b8ff" points="437.67,-18 447.67,-14.5 437.67,-11 437.67,-18"/>
</a>
</g>
</g>
<!-- Node19 -->
<g id="Node000019" class="node">
<title>Node19</title>
<g id="a_Node000019"><a xlink:href="classCore_1_1GlobalInitialiser.html#aa042e8d396a5287c49fb6a8b81eba209" target="_top" xlink:title="Performs MPI broadcast for synchronization.">
<polygon fill="white" stroke="#666666" points="559,-88 449.25,-88 449.25,-59 559,-59 559,-88"/>
<text xml:space="preserve" text-anchor="start" x="457.25" y="-74.5" font-family="Helvetica,sans-Serif" font-size="10.00">Core::GlobalInitialiser</text>
<text xml:space="preserve" text-anchor="middle" x="504.12" y="-64" font-family="Helvetica,sans-Serif" font-size="10.00">::mpi_broadcast</text>
</a>
</g>
</g>
<!-- Node17&#45;&gt;Node19 -->
<g id="edge27_Node000017_Node000019" class="edge">
<title>Node17&#45;&gt;Node19</title>
<g id="a_edge27_Node000017_Node000019"><a xlink:title=" ">
<path fill="none" stroke="#63b8ff" d="M395.65,-29.39C413.97,-36.91 436.41,-46.12 456.04,-54.17"/>
<polygon fill="#63b8ff" stroke="#63b8ff" points="454.63,-57.38 465.21,-57.94 457.29,-50.9 454.63,-57.38"/>
</a>
</g>
</g>
<!-- Node20 -->
<g id="Node000020" class="node">
<title>Node20</title>
<g id="a_Node000020"><a xlink:href="namespaceWrapMPI.html#a1a08bbe69602ac2f4f38e1a0d45275cb" target="_top" xlink:title=" ">
<polygon fill="white" stroke="#666666" points="692.38,-62.75 603.62,-62.75 603.62,-44.25 692.38,-44.25 692.38,-62.75"/>
<text xml:space="preserve" text-anchor="middle" x="648" y="-49.25" font-family="Helvetica,sans-Serif" font-size="10.00">WrapMPI::barrier</text>
</a>
</g>
</g>
<!-- Node19&#45;&gt;Node20 -->
<g id="edge28_Node000019_Node000020" class="edge">
<title>Node19&#45;&gt;Node20</title>
<g id="a_edge28_Node000019_Node000020"><a xlink:title=" ">
<path fill="none" stroke="#63b8ff" d="M559.17,-65.88C569.86,-64.37 581.1,-62.79 591.84,-61.28"/>
<polygon fill="#63b8ff" stroke="#63b8ff" points="592.32,-64.74 601.74,-59.88 591.34,-57.81 592.32,-64.74"/>
</a>
</g>
</g>
<!-- Node21 -->
<g id="Node000021" class="node">
<title>Node21</title>
<g id="a_Node000021"><a xlink:href="namespaceWrapMPI.html#aa924ad0d911109a9e6e3a20bebc3b316" target="_top" xlink:title=" ">
<polygon fill="white" stroke="#666666" points="852,-81.75 737,-81.75 737,-63.25 852,-63.25 852,-81.75"/>
<text xml:space="preserve" text-anchor="middle" x="794.5" y="-68.25" font-family="Helvetica,sans-Serif" font-size="10.00">WrapMPI::critical_error</text>
</a>
</g>
</g>
<!-- Node19&#45;&gt;Node21 -->
<g id="edge32_Node000019_Node000021" class="edge">
<title>Node19&#45;&gt;Node21</title>
<g id="a_edge32_Node000019_Node000021"><a xlink:title=" ">
<path fill="none" stroke="#63b8ff" d="M559.37,-73.31C606.29,-73.15 674.37,-72.91 725.04,-72.74"/>
<polygon fill="#63b8ff" stroke="#63b8ff" points="725.04,-76.24 735.03,-72.7 725.02,-69.24 725.04,-76.24"/>
</a>
</g>
</g>
<!-- Node22 -->
<g id="Node000022" class="node">
<title>Node22</title>
<g id="a_Node000022"><a xlink:href="namespaceWrapMPI.html#a372df5351a2085df252cc9f4cceae7de" target="_top" xlink:title="Broadcasts a single data item to all processes.">
<polygon fill="white" stroke="#666666" points="700.25,-153.75 595.75,-153.75 595.75,-135.25 700.25,-135.25 700.25,-153.75"/>
<text xml:space="preserve" text-anchor="middle" x="648" y="-140.25" font-family="Helvetica,sans-Serif" font-size="10.00">WrapMPI::broadcast</text>
</a>
</g>
</g>
<!-- Node19&#45;&gt;Node22 -->
<g id="edge30_Node000019_Node000022" class="edge">
<title>Node19&#45;&gt;Node22</title>
<g id="a_edge30_Node000019_Node000022"><a xlink:title=" ">
<path fill="none" stroke="#63b8ff" d="M534.87,-88.38C559.22,-100.57 593.47,-117.71 617.7,-129.84"/>
<polygon fill="#63b8ff" stroke="#63b8ff" points="615.87,-132.83 626.38,-134.18 619,-126.58 615.87,-132.83"/>
</a>
</g>
</g>
<!-- Node20&#45;&gt;Node21 -->
<g id="edge29_Node000020_Node000021" class="edge">
<title>Node20&#45;&gt;Node21</title>
<g id="a_edge29_Node000020_Node000021"><a xlink:title=" ">
<path fill="none" stroke="#63b8ff" d="M692.75,-59.25C702.98,-60.6 714.12,-62.06 725.15,-63.51"/>
<polygon fill="#63b8ff" stroke="#63b8ff" points="724.67,-66.98 735.04,-64.81 725.58,-60.04 724.67,-66.98"/>
</a>
</g>
</g>
<!-- Node22&#45;&gt;Node11 -->
<g id="edge31_Node000022_Node000011" class="edge">
<title>Node22&#45;&gt;Node11</title>
<g id="a_edge31_Node000022_Node000011"><a xlink:title=" ">
<path fill="none" stroke="#63b8ff" d="M669.7,-154.24C694.06,-165.71 734.73,-184.84 762.77,-198.04"/>
<polygon fill="#63b8ff" stroke="#63b8ff" points="760.93,-201.04 771.47,-202.13 763.91,-194.71 760.93,-201.04"/>
</a>
</g>
</g>
</g>
</svg>

<g id="navigator" transform="translate(0 0)" fill="#404254">
  <rect fill="#f2f5e9" fill-opacity="0.5" stroke="#606060" stroke-width=".5" x="0" y="0" width="60" height="60"/>
  <use id="zoomplus" xlink:href="#zoomPlus" x="17" y="9" onmousedown="handleZoom(evt,'in')"/>
  <use id="zoomminus" xlink:href="#zoomMin" x="42" y="9" onmousedown="handleZoom(evt,'out')"/>
  <use id="reset" xlink:href="#resetDef" x="30" y="36" onmousedown="handleReset()"/>
   <use id="arrowup" xlink:href="#arrowUp" x="0" y="0" onmousedown="handlePan(0,-1)"/>
  <use id="arrowright" xlink:href="#arrowRight" x="0" y="0" onmousedown="handlePan(1,0)"/>
  <use id="arrowdown" xlink:href="#arrowDown" x="0" y="0" onmousedown="handlePan(0,1)"/>
  <use id="arrowleft" xlink:href="#arrowLeft" x="0" y="0" onmousedown="handlePan(-1,0)"/>
</g>
<svg viewBox="0 0 15 15" width="100%" height="30px" preserveAspectRatio="xMaxYMin meet">
 <g id="arrow_out" transform="scale(0.3 0.3)">
  <a xlink:href="structApi_1_1SimulationInstance_ae9bdd54076170f50eadcb7966d64c19d_cgraph_org.svg" target="_base">
   <rect id="button" ry="5" rx="5" y="6" x="6" height="38" width="38"
        fill="#f2f5e9" fill-opacity="0.5" stroke="#606060" stroke-width="1.0"/>
   <path id="arrow"
     d="M 11.500037,31.436501 C 11.940474,20.09759 22.043105,11.32322 32.158766,21.979434 L 37.068811,17.246167 C 37.068811,17.246167 37.088388,32 37.088388,32 L 22.160133,31.978069 C 22.160133,31.978069 26.997745,27.140456 26.997745,27.140456 C 18.528582,18.264221 13.291696,25.230495 11.500037,31.436501 z"
     style="fill:#404040;"/>
  </a>
 </g>
</svg>

<style type='text/css'>
<![CDATA[
[data-mouse-over-selected='false'] { opacity: 0.7; }
[data-mouse-over-selected='true']  { opacity: 1.0; }
]]>
</style>
<script type="application/ecmascript"><![CDATA[
document.addEventListener('DOMContentLoaded', (event) => {
  highlightEdges();
  highlightAdjacentNodes();
});
]]></script>
</svg>
