<?xml version="1.0" encoding="UTF-8" standalone="no"?>
<!DOCTYPE svg PUBLIC "-//W3C//DTD SVG 1.1//EN"
 "http://www.w3.org/Graphics/SVG/1.1/DTD/svg11.dtd">
<!-- Generated by graphviz version 14.0.1 (0)
 -->
<!-- Title: CliResults::operator CliResults&lt; S &gt; Pages: 1 -->
<svg width="258pt" height="74pt"
 viewBox="0.00 0.00 258.00 74.00" xmlns="http://www.w3.org/2000/svg" xmlns:xlink="http://www.w3.org/1999/xlink">
<g id="graph0" class="graph" transform="scale(1 1) rotate(0) translate(4 69.75)">
<title>CliResults::operator CliResults&lt; S &gt;</title>
<!-- Node1 -->
<g id="Node000001" class="node">
<title>Node1</title>
<g id="a_Node000001"><a xlink:title=" ">
<polygon fill="#999999" stroke="#666666" points="102.25,-50 0,-50 0,-21 102.25,-21 102.25,-50"/>
<text xml:space="preserve" text-anchor="start" x="8" y="-36.5" font-family="Helvetica,sans-Serif" font-size="10.00">CliResults::operator</text>
<text xml:space="preserve" text-anchor="middle" x="51.12" y="-26" font-family="Helvetica,sans-Serif" font-size="10.00"> CliResults&lt; S &gt;</text>
</a>
</g>
</g>
<!-- Node2 -->
<g id="Node000002" class="node">
<title>Node2</title>
<g id="a_Node000002"><a xlink:href="structCliResults.html#a17cc4717b346ddce900fe5d49c2f5b8b" target="_top" xlink:title=" ">
<polygon fill="white" stroke="#666666" points="250.25,-65.75 138.25,-65.75 138.25,-47.25 250.25,-47.25 250.25,-65.75"/>
<text xml:space="preserve" text-anchor="middle" x="194.25" y="-52.25" font-family="Helvetica,sans-Serif" font-size="10.00">CliResults::CliResults</text>
</a>
</g>
</g>
<!-- Node1&#45;&gt;Node2 -->
<g id="edge1_Node000001_Node000002" class="edge">
<title>Node1&#45;&gt;Node2</title>
<g id="a_edge1_Node000001_Node000002"><a xlink:title=" ">
<path fill="none" stroke="#63b8ff" d="M102.68,-43.02C110.42,-44.17 118.51,-45.38 126.53,-46.57"/>
<polygon fill="#63b8ff" stroke="#63b8ff" points="125.89,-50.01 136.29,-48.02 126.92,-43.09 125.89,-50.01"/>
</a>
</g>
</g>
<!-- Node3 -->
<g id="Node000003" class="node">
<title>Node3</title>
<g id="a_Node000003"><a xlink:href="structResult.html#a520ef0bb676aaa7e0b4c954e38345852" target="_top" xlink:title=" ">
<polygon fill="white" stroke="#666666" points="248.75,-29 139.75,-29 139.75,0 248.75,0 248.75,-29"/>
<text xml:space="preserve" text-anchor="start" x="147.75" y="-15.5" font-family="Helvetica,sans-Serif" font-size="10.00">Result&lt; S, std::string</text>
<text xml:space="preserve" text-anchor="middle" x="194.25" y="-5" font-family="Helvetica,sans-Serif" font-size="10.00"> &gt;::get</text>
</a>
</g>
</g>
<!-- Node1&#45;&gt;Node3 -->
<g id="edge2_Node000001_Node000003" class="edge">
<title>Node1&#45;&gt;Node3</title>
<g id="a_edge2_Node000001_Node000003"><a xlink:title=" ">
<path fill="none" stroke="#63b8ff" d="M102.68,-27.98C111.03,-26.73 119.8,-25.43 128.45,-24.14"/>
<polygon fill="#63b8ff" stroke="#63b8ff" points="128.84,-27.62 138.22,-22.69 127.81,-20.7 128.84,-27.62"/>
</a>
</g>
</g>
</g>
</svg>
