<?xml version="1.0" encoding="UTF-8" standalone="no"?>
<!DOCTYPE svg PUBLIC "-//W3C//DTD SVG 1.1//EN"
 "http://www.w3.org/Graphics/SVG/1.1/DTD/svg11.dtd">
<!-- Generated by graphviz version 14.0.1 (0)
 -->
<!-- Title: Simulation::KernelInline::CycleFunctors::launch_move Pages: 1 -->
<svg width="476pt" height="37pt"
 viewBox="0.00 0.00 476.00 37.00" xmlns="http://www.w3.org/2000/svg" xmlns:xlink="http://www.w3.org/1999/xlink">
<g id="graph0" class="graph" transform="scale(1 1) rotate(0) translate(4 33)">
<title>Simulation::KernelInline::CycleFunctors::launch_move</title>
<!-- Node1 -->
<g id="Node000001" class="node">
<title>Node1</title>
<g id="a_Node000001"><a xlink:title=" ">
<polygon fill="#999999" stroke="#666666" points="148.75,-29 0,-29 0,0 148.75,0 148.75,-29"/>
<text xml:space="preserve" text-anchor="start" x="8" y="-15.5" font-family="Helvetica,sans-Serif" font-size="10.00">Simulation::KernelInline</text>
<text xml:space="preserve" text-anchor="middle" x="74.38" y="-5" font-family="Helvetica,sans-Serif" font-size="10.00">::CycleFunctors::launch_move</text>
</a>
</g>
</g>
<!-- Node2 -->
<g id="Node000002" class="node">
<title>Node2</title>
<g id="a_Node000002"><a xlink:href="namespaceCommon.html#a618180f8964b0ffef461c9ff2f44d295" target="_top" xlink:title=" ">
<polygon fill="white" stroke="#666666" points="308,-23.75 184.75,-23.75 184.75,-5.25 308,-5.25 308,-23.75"/>
<text xml:space="preserve" text-anchor="middle" x="246.38" y="-10.25" font-family="Helvetica,sans-Serif" font-size="10.00">Common::c_league_size</text>
</a>
</g>
</g>
<!-- Node1&#45;&gt;Node2 -->
<g id="edge1_Node000001_Node000002" class="edge">
<title>Node1&#45;&gt;Node2</title>
<g id="a_edge1_Node000001_Node000002"><a xlink:title=" ">
<path fill="none" stroke="#63b8ff" d="M148.95,-14.5C156.91,-14.5 165,-14.5 172.95,-14.5"/>
<polygon fill="#63b8ff" stroke="#63b8ff" points="172.93,-18 182.93,-14.5 172.93,-11 172.93,-18"/>
</a>
</g>
</g>
<!-- Node3 -->
<g id="Node000003" class="node">
<title>Node3</title>
<g id="a_Node000003"><a xlink:href="namespaceCommon.html#aef3f5fadf729a92859657cacc3ab9f53" target="_top" xlink:title=" ">
<polygon fill="white" stroke="#666666" points="468,-23.75 344,-23.75 344,-5.25 468,-5.25 468,-23.75"/>
<text xml:space="preserve" text-anchor="middle" x="406" y="-10.25" font-family="Helvetica,sans-Serif" font-size="10.00">Common::is_power_of_2</text>
</a>
</g>
</g>
<!-- Node2&#45;&gt;Node3 -->
<g id="edge2_Node000002_Node000003" class="edge">
<title>Node2&#45;&gt;Node3</title>
<g id="a_edge2_Node000002_Node000003"><a xlink:title=" ">
<path fill="none" stroke="#63b8ff" d="M308.32,-14.5C316.21,-14.5 324.35,-14.5 332.41,-14.5"/>
<polygon fill="#63b8ff" stroke="#63b8ff" points="332.19,-18 342.19,-14.5 332.19,-11 332.19,-18"/>
</a>
</g>
</g>
</g>
</svg>
