<?xml version="1.0" encoding="UTF-8" standalone="no"?>
<!DOCTYPE svg PUBLIC "-//W3C//DTD SVG 1.1//EN"
 "http://www.w3.org/Graphics/SVG/1.1/DTD/svg11.dtd">
<!-- Generated by graphviz version 14.0.1 (0)
 -->
<!-- Title: Simulation::KernelInline::Functors&lt; Space, Model &gt; Pages: 1 -->
<svg width="609pt" height="183pt"
 viewBox="0.00 0.00 609.00 183.00" xmlns="http://www.w3.org/2000/svg" xmlns:xlink="http://www.w3.org/1999/xlink">
<g id="graph0" class="graph" transform="scale(1 1) rotate(0) translate(4 179.25)">
<title>Simulation::KernelInline::Functors&lt; Space, Model &gt;</title>
<!-- Node1 -->
<g id="Node000001" class="node">
<title>Node1</title>
<g id="a_Node000001"><a xlink:title=" ">
<polygon fill="#999999" stroke="#666666" points="600.75,-128.25 461.75,-128.25 461.75,-99.25 600.75,-99.25 600.75,-128.25"/>
<text xml:space="preserve" text-anchor="start" x="469.75" y="-114.75" font-family="Helvetica,sans-Serif" font-size="10.00">Simulation::KernelInline</text>
<text xml:space="preserve" text-anchor="middle" x="531.25" y="-104.25" font-family="Helvetica,sans-Serif" font-size="10.00">::Functors&lt; Space, Model &gt;</text>
</a>
</g>
</g>
<!-- Node2 -->
<g id="Node000002" class="node">
<title>Node2</title>
<g id="a_Node000002"><a xlink:href="classSimulation_1_1KernelInline_1_1CycleReducer.html" target="_top" xlink:title=" ">
<polygon fill="white" stroke="#666666" points="359.75,-175.25 218.5,-175.25 218.5,-146.25 359.75,-146.25 359.75,-175.25"/>
<text xml:space="preserve" text-anchor="start" x="226.5" y="-161.75" font-family="Helvetica,sans-Serif" font-size="10.00">Simulation::KernelInline</text>
<text xml:space="preserve" text-anchor="middle" x="289.12" y="-151.25" font-family="Helvetica,sans-Serif" font-size="10.00">::result_view_type&lt; Space &gt;</text>
</a>
</g>
</g>
<!-- Node2&#45;&gt;Node1 -->
<g id="edge1_Node000001_Node000002" class="edge">
<title>Node2&#45;&gt;Node1</title>
<g id="a_edge1_Node000001_Node000002"><a xlink:title=" ">
<path fill="none" stroke="#9a32cd" stroke-dasharray="5,2" d="M371.24,-148.12C394.7,-144.17 420.3,-139.58 443.75,-134.75 452.68,-132.91 462.09,-130.81 471.28,-128.65"/>
<polygon fill="#9a32cd" stroke="#9a32cd" points="370.69,-144.66 361.4,-149.76 371.84,-151.57 370.69,-144.66"/>
</a>
</g>
<text xml:space="preserve" text-anchor="start" x="380.75" y="-150.52" font-family="Helvetica,sans-Serif" font-size="10.00" fill="grey">cycle_reducer</text>
</g>
<!-- Node3 -->
<g id="Node000003" class="node">
<title>Node3</title>
<g id="a_Node000003"><a xlink:href="structSimulation_1_1KernelInline_1_1CycleFunctor.html" target="_top" xlink:title=" ">
<polygon fill="white" stroke="#666666" points="351.12,-128.25 227.12,-128.25 227.12,-99.25 351.12,-99.25 351.12,-128.25"/>
<text xml:space="preserve" text-anchor="start" x="235.12" y="-114.75" font-family="Helvetica,sans-Serif" font-size="10.00">Simulation::KernelInline</text>
<text xml:space="preserve" text-anchor="middle" x="289.12" y="-104.25" font-family="Helvetica,sans-Serif" font-size="10.00">::CycleFunctor&lt; Model &gt;</text>
</a>
</g>
</g>
<!-- Node3&#45;&gt;Node1 -->
<g id="edge2_Node000001_Node000003" class="edge">
<title>Node3&#45;&gt;Node1</title>
<g id="a_edge2_Node000001_Node000003"><a xlink:title=" ">
<path fill="none" stroke="#9a32cd" stroke-dasharray="5,2" d="M362.65,-113.75C394.03,-113.75 430.57,-113.75 461.52,-113.75"/>
<polygon fill="#9a32cd" stroke="#9a32cd" points="362.85,-110.25 352.85,-113.75 362.85,-117.25 362.85,-110.25"/>
</a>
</g>
<text xml:space="preserve" text-anchor="start" x="384.12" y="-117.75" font-family="Helvetica,sans-Serif" font-size="10.00" fill="grey">cycle_kernel</text>
</g>
<!-- Node4 -->
<g id="Node000004" class="node">
<title>Node4</title>
<g id="a_Node000004"><a xlink:href="structSimulation_1_1KernelInline_1_1MoveFunctor.html" target="_top" xlink:title=" ">
<polygon fill="white" stroke="#666666" points="348.12,-81.25 230.12,-81.25 230.12,-52.25 348.12,-52.25 348.12,-81.25"/>
<text xml:space="preserve" text-anchor="start" x="238.12" y="-67.75" font-family="Helvetica,sans-Serif" font-size="10.00">Simulation::KernelInline</text>
<text xml:space="preserve" text-anchor="middle" x="289.12" y="-57.25" font-family="Helvetica,sans-Serif" font-size="10.00">::MoveFunctor</text>
</a>
</g>
</g>
<!-- Node4&#45;&gt;Node1 -->
<g id="edge3_Node000001_Node000004" class="edge">
<title>Node4&#45;&gt;Node1</title>
<g id="a_edge3_Node000001_Node000004"><a xlink:title=" ">
<path fill="none" stroke="#9a32cd" stroke-dasharray="5,2" d="M359.36,-77.76C385.83,-82.21 416.26,-87.63 443.75,-93.25 452.07,-94.95 460.8,-96.87 469.39,-98.83"/>
<polygon fill="#9a32cd" stroke="#9a32cd" points="360.21,-74.35 349.77,-76.16 359.06,-81.26 360.21,-74.35"/>
</a>
</g>
<text xml:space="preserve" text-anchor="start" x="383.75" y="-97.25" font-family="Helvetica,sans-Serif" font-size="10.00" fill="grey">move_kernel</text>
</g>
<!-- Node5 -->
<g id="Node000005" class="node">
<title>Node5</title>
<g id="a_Node000005"><a xlink:href="structSimulation_1_1KernelInline_1_1MoveInfo.html" target="_top" xlink:title=" ">
<polygon fill="white" stroke="#666666" points="147.25,-123.25 0,-123.25 0,-94.25 147.25,-94.25 147.25,-123.25"/>
<text xml:space="preserve" text-anchor="start" x="8" y="-109.75" font-family="Helvetica,sans-Serif" font-size="10.00">Simulation::KernelInline</text>
<text xml:space="preserve" text-anchor="middle" x="73.62" y="-99.25" font-family="Helvetica,sans-Serif" font-size="10.00">::MoveInfo&lt; ComputeSpace &gt;</text>
</a>
</g>
</g>
<!-- Node5&#45;&gt;Node4 -->
<g id="edge4_Node000004_Node000005" class="edge">
<title>Node5&#45;&gt;Node4</title>
<g id="a_edge4_Node000004_Node000005"><a xlink:title=" ">
<path fill="none" stroke="#9a32cd" stroke-dasharray="5,2" d="M158.74,-94.67C172.71,-92.15 187.03,-89.46 200.5,-86.75 209.98,-84.84 220.01,-82.68 229.77,-80.51"/>
<polygon fill="#9a32cd" stroke="#9a32cd" points="158.35,-91.18 149.12,-96.38 159.58,-98.07 158.35,-91.18"/>
</a>
</g>
<text xml:space="preserve" text-anchor="start" x="171.25" y="-97.34" font-family="Helvetica,sans-Serif" font-size="10.00" fill="grey">move</text>
</g>
<!-- Node6 -->
<g id="Node000006" class="node">
<title>Node6</title>
<g id="a_Node000006"><a xlink:href="structMC_1_1EventContainer.html" target="_top" xlink:title="Use to count events that occurs during Monte&#45;Carlo processing cycles.">
<polygon fill="white" stroke="#666666" points="125.88,-76 21.38,-76 21.38,-57.5 125.88,-57.5 125.88,-76"/>
<text xml:space="preserve" text-anchor="middle" x="73.62" y="-62.5" font-family="Helvetica,sans-Serif" font-size="10.00">MC::EventContainer</text>
</a>
</g>
</g>
<!-- Node6&#45;&gt;Node4 -->
<g id="edge5_Node000004_Node000006" class="edge">
<title>Node6&#45;&gt;Node4</title>
<g id="a_edge5_Node000004_Node000006"><a xlink:title=" ">
<path fill="none" stroke="#9a32cd" stroke-dasharray="5,2" d="M137.61,-66.75C166.77,-66.75 201.2,-66.75 229.76,-66.75"/>
<polygon fill="#9a32cd" stroke="#9a32cd" points="137.82,-63.25 127.82,-66.75 137.82,-70.25 137.82,-63.25"/>
</a>
</g>
<text xml:space="preserve" text-anchor="start" x="168.62" y="-70.75" font-family="Helvetica,sans-Serif" font-size="10.00" fill="grey">events</text>
</g>
<!-- Node7 -->
<g id="Node000007" class="node">
<title>Node7</title>
<g id="a_Node000007"><a xlink:href="classSimulation_1_1Probes.html" target="_top" xlink:title=" ">
<polygon fill="white" stroke="#666666" points="133.75,-39.5 13.5,-39.5 13.5,0 133.75,0 133.75,-39.5"/>
<text xml:space="preserve" text-anchor="start" x="21.5" y="-26" font-family="Helvetica,sans-Serif" font-size="10.00">Simulation::Probes</text>
<text xml:space="preserve" text-anchor="start" x="21.5" y="-15.5" font-family="Helvetica,sans-Serif" font-size="10.00">&lt; AutoGenerated::probe</text>
<text xml:space="preserve" text-anchor="middle" x="73.62" y="-5" font-family="Helvetica,sans-Serif" font-size="10.00">_buffer_size &gt;</text>
</a>
</g>
</g>
<!-- Node7&#45;&gt;Node4 -->
<g id="edge6_Node000004_Node000007" class="edge">
<title>Node7&#45;&gt;Node4</title>
<g id="a_edge6_Node000004_Node000007"><a xlink:title=" ">
<path fill="none" stroke="#9a32cd" stroke-dasharray="5,2" d="M145.26,-34.33C163.29,-38.13 182.63,-42.28 200.5,-46.25 209.96,-48.35 219.97,-50.64 229.72,-52.89"/>
<polygon fill="#9a32cd" stroke="#9a32cd" points="146.22,-30.96 135.71,-32.33 144.78,-37.81 146.22,-30.96"/>
</a>
</g>
<text xml:space="preserve" text-anchor="start" x="168.25" y="-50.25" font-family="Helvetica,sans-Serif" font-size="10.00" fill="grey">probes</text>
</g>
</g>
</svg>
