<?xml version="1.0" encoding="UTF-8" standalone="no"?>
<!DOCTYPE svg PUBLIC "-//W3C//DTD SVG 1.1//EN"
 "http://www.w3.org/Graphics/SVG/1.1/DTD/svg11.dtd">
<!-- Generated by graphviz version 14.0.1 (0)
 -->
<!-- Title: Simulation::KernelInline::CycleFunctor&lt; M &gt; Pages: 1 -->
<svg width="562pt" height="131pt"
 viewBox="0.00 0.00 562.00 131.00" xmlns="http://www.w3.org/2000/svg" xmlns:xlink="http://www.w3.org/1999/xlink">
<g id="graph0" class="graph" transform="scale(1 1) rotate(0) translate(4 127.25)">
<title>Simulation::KernelInline::CycleFunctor&lt; M &gt;</title>
<!-- Node1 -->
<g id="Node000001" class="node">
<title>Node1</title>
<g id="a_Node000001"><a xlink:title=" ">
<polygon fill="#999999" stroke="#666666" points="554.25,-81.25 436.25,-81.25 436.25,-52.25 554.25,-52.25 554.25,-81.25"/>
<text xml:space="preserve" text-anchor="start" x="444.25" y="-67.75" font-family="Helvetica,sans-Serif" font-size="10.00">Simulation::KernelInline</text>
<text xml:space="preserve" text-anchor="middle" x="495.25" y="-57.25" font-family="Helvetica,sans-Serif" font-size="10.00">::CycleFunctor&lt; M &gt;</text>
</a>
</g>
</g>
<!-- Node2 -->
<g id="Node000002" class="node">
<title>Node2</title>
<g id="a_Node000002"><a xlink:href="classMC_1_1ParticlesContainer.html" target="_top" xlink:title=" ">
<polygon fill="white" stroke="#666666" points="356.75,-116 211.75,-116 211.75,-97.5 356.75,-97.5 356.75,-116"/>
<text xml:space="preserve" text-anchor="middle" x="284.25" y="-102.5" font-family="Helvetica,sans-Serif" font-size="10.00">MC::ParticlesContainer&lt; M &gt;</text>
</a>
</g>
</g>
<!-- Node2&#45;&gt;Node1 -->
<g id="edge1_Node000001_Node000002" class="edge">
<title>Node2&#45;&gt;Node1</title>
<g id="a_edge1_Node000001_Node000002"><a xlink:title=" ">
<path fill="none" stroke="#9a32cd" stroke-dasharray="5,2" d="M360.88,-95.16C379.67,-92.03 399.73,-88.47 418.25,-84.75 423.97,-83.6 429.91,-82.33 435.83,-81.01"/>
<polygon fill="#9a32cd" stroke="#9a32cd" points="360.47,-91.68 351.17,-96.76 361.61,-98.59 360.47,-91.68"/>
</a>
</g>
<text xml:space="preserve" text-anchor="start" x="377.75" y="-96.21" font-family="Helvetica,sans-Serif" font-size="10.00" fill="grey">particles</text>
</g>
<!-- Node3 -->
<g id="Node000003" class="node">
<title>Node3</title>
<g id="a_Node000003"><a xlink:href="structMC_1_1RuntimeParameters.html" target="_top" xlink:title=" ">
<polygon fill="white" stroke="#666666" points="125.5,-116 0,-116 0,-97.5 125.5,-97.5 125.5,-116"/>
<text xml:space="preserve" text-anchor="middle" x="62.75" y="-102.5" font-family="Helvetica,sans-Serif" font-size="10.00">MC::RuntimeParameters</text>
</a>
</g>
</g>
<!-- Node3&#45;&gt;Node2 -->
<g id="edge2_Node000002_Node000003" class="edge">
<title>Node3&#45;&gt;Node2</title>
<g id="a_edge2_Node000002_Node000003"><a xlink:title=" ">
<path fill="none" stroke="#9a32cd" stroke-dasharray="5,2" d="M137.25,-106.75C161.12,-106.75 187.55,-106.75 211.3,-106.75"/>
<polygon fill="#9a32cd" stroke="#9a32cd" points="137.28,-103.25 127.28,-106.75 137.28,-110.25 137.28,-103.25"/>
</a>
</g>
<text xml:space="preserve" text-anchor="start" x="146.5" y="-110.75" font-family="Helvetica,sans-Serif" font-size="10.00" fill="grey">rt_params</text>
</g>
<!-- Node4 -->
<g id="Node000004" class="node">
<title>Node4</title>
<g id="a_Node000004"><a xlink:href="structMC_1_1EventContainer.html" target="_top" xlink:title="Use to count events that occurs during Monte&#45;Carlo processing cycles.">
<polygon fill="white" stroke="#666666" points="336.5,-76 232,-76 232,-57.5 336.5,-57.5 336.5,-76"/>
<text xml:space="preserve" text-anchor="middle" x="284.25" y="-62.5" font-family="Helvetica,sans-Serif" font-size="10.00">MC::EventContainer</text>
</a>
</g>
</g>
<!-- Node4&#45;&gt;Node1 -->
<g id="edge3_Node000001_Node000004" class="edge">
<title>Node4&#45;&gt;Node1</title>
<g id="a_edge3_Node000001_Node000004"><a xlink:title=" ">
<path fill="none" stroke="#9a32cd" stroke-dasharray="5,2" d="M348.12,-66.75C375.96,-66.75 408.5,-66.75 435.81,-66.75"/>
<polygon fill="#9a32cd" stroke="#9a32cd" points="348.43,-63.25 338.43,-66.75 348.43,-70.25 348.43,-63.25"/>
</a>
</g>
<text xml:space="preserve" text-anchor="start" x="382.25" y="-70.75" font-family="Helvetica,sans-Serif" font-size="10.00" fill="grey">events</text>
</g>
<!-- Node5 -->
<g id="Node000005" class="node">
<title>Node5</title>
<g id="a_Node000005"><a xlink:href="classSimulation_1_1Probes.html" target="_top" xlink:title=" ">
<polygon fill="white" stroke="#666666" points="344.38,-39.5 224.12,-39.5 224.12,0 344.38,0 344.38,-39.5"/>
<text xml:space="preserve" text-anchor="start" x="232.12" y="-26" font-family="Helvetica,sans-Serif" font-size="10.00">Simulation::Probes</text>
<text xml:space="preserve" text-anchor="start" x="232.12" y="-15.5" font-family="Helvetica,sans-Serif" font-size="10.00">&lt; AutoGenerated::probe</text>
<text xml:space="preserve" text-anchor="middle" x="284.25" y="-5" font-family="Helvetica,sans-Serif" font-size="10.00">_buffer_size &gt;</text>
</a>
</g>
</g>
<!-- Node5&#45;&gt;Node1 -->
<g id="edge4_Node000001_Node000005" class="edge">
<title>Node5&#45;&gt;Node1</title>
<g id="a_edge4_Node000001_Node000005"><a xlink:title=" ">
<path fill="none" stroke="#9a32cd" stroke-dasharray="5,2" d="M355.73,-32.88C375.97,-36.9 398.04,-41.52 418.25,-46.25 425.57,-47.96 433.25,-49.89 440.8,-51.85"/>
<polygon fill="#9a32cd" stroke="#9a32cd" points="356.66,-29.5 346.17,-31 355.31,-36.37 356.66,-29.5"/>
</a>
</g>
<text xml:space="preserve" text-anchor="start" x="381.88" y="-50.25" font-family="Helvetica,sans-Serif" font-size="10.00" fill="grey">probes</text>
</g>
</g>
</svg>
