<?xml version="1.0" encoding="UTF-8" standalone="no"?>
<!DOCTYPE svg PUBLIC "-//W3C//DTD SVG 1.1//EN"
 "http://www.w3.org/Graphics/SVG/1.1/DTD/svg11.dtd">
<!-- Generated by graphviz version 12.1.2 (0)
 -->
<!-- Title: Simulation::KernelInline::MoveFunctor::operator() Pages: 1 -->
<svg width="780pt" height="168pt"
 viewBox="0.00 0.00 780.25 167.75" xmlns="http://www.w3.org/2000/svg" xmlns:xlink="http://www.w3.org/1999/xlink">
<g id="graph0" class="graph" transform="scale(1 1) rotate(0) translate(4 163.75)">
<title>Simulation::KernelInline::MoveFunctor::operator()</title>
<!-- Node1 -->
<g id="Node000001" class="node">
<title>Node1</title>
<g id="a_Node000001"><a xlink:title=" ">
<polygon fill="#999999" stroke="#666666" points="125.5,-88.75 0,-88.75 0,-59.75 125.5,-59.75 125.5,-88.75"/>
<text text-anchor="start" x="8" y="-75.25" font-family="Helvetica,sans-Serif" font-size="10.00">Simulation::KernelInline</text>
<text text-anchor="middle" x="62.75" y="-64.75" font-family="Helvetica,sans-Serif" font-size="10.00">::MoveFunctor::operator()</text>
</a>
</g>
</g>
<!-- Node2 -->
<g id="Node000002" class="node">
<title>Node2</title>
<g id="a_Node000002"><a xlink:href="structSimulation_1_1KernelInline_1_1MoveFunctor.html#ae6752b77648ada1867cb9da6db34e98d" target="_top" xlink:title=" ">
<polygon fill="white" stroke="#666666" points="299,-65.75 165.25,-65.75 165.25,-36.75 299,-36.75 299,-65.75"/>
<text text-anchor="start" x="173.25" y="-52.25" font-family="Helvetica,sans-Serif" font-size="10.00">Simulation::KernelInline</text>
<text text-anchor="middle" x="232.12" y="-41.75" font-family="Helvetica,sans-Serif" font-size="10.00">::MoveFunctor::handle_exit</text>
</a>
</g>
</g>
<!-- Node1&#45;&gt;Node2 -->
<g id="edge1_Node000001_Node000002" class="edge">
<title>Node1&#45;&gt;Node2</title>
<g id="a_edge1_Node000001_Node000002"><a xlink:title=" ">
<path fill="none" stroke="#63b8ff" d="M125.6,-65.75C134.67,-64.5 144.11,-63.21 153.44,-61.92"/>
<polygon fill="#63b8ff" stroke="#63b8ff" points="153.82,-65.41 163.25,-60.58 152.87,-58.47 153.82,-65.41"/>
</a>
</g>
</g>
<!-- Node9 -->
<g id="Node000009" class="node">
<title>Node9</title>
<g id="a_Node000009"><a xlink:href="structSimulation_1_1KernelInline_1_1MoveFunctor.html#a7a9000c1cf181bc3488b35a886cad84c" target="_top" xlink:title=" ">
<polygon fill="white" stroke="#666666" points="302.75,-112.75 161.5,-112.75 161.5,-83.75 302.75,-83.75 302.75,-112.75"/>
<text text-anchor="start" x="169.5" y="-99.25" font-family="Helvetica,sans-Serif" font-size="10.00">Simulation::KernelInline</text>
<text text-anchor="middle" x="232.12" y="-88.75" font-family="Helvetica,sans-Serif" font-size="10.00">::MoveFunctor::handle_move</text>
</a>
</g>
</g>
<!-- Node1&#45;&gt;Node9 -->
<g id="edge8_Node000001_Node000009" class="edge">
<title>Node1&#45;&gt;Node9</title>
<g id="a_edge8_Node000001_Node000009"><a xlink:title=" ">
<path fill="none" stroke="#63b8ff" d="M125.6,-83.12C133.45,-84.24 141.57,-85.41 149.67,-86.57"/>
<polygon fill="#63b8ff" stroke="#63b8ff" points="149.17,-90.03 159.57,-87.99 150.16,-83.1 149.17,-90.03"/>
</a>
</g>
</g>
<!-- Node3 -->
<g id="Node000003" class="node">
<title>Node3</title>
<g id="a_Node000003"><a xlink:href="namespaceSimulation_1_1KernelInline.html#a7a29d7da817caed279a1f87044177942" target="_top" xlink:title=" ">
<polygon fill="white" stroke="#666666" points="465.38,-112.75 347.38,-112.75 347.38,-83.75 465.38,-83.75 465.38,-112.75"/>
<text text-anchor="start" x="355.38" y="-99.25" font-family="Helvetica,sans-Serif" font-size="10.00">Simulation::KernelInline</text>
<text text-anchor="middle" x="406.38" y="-88.75" font-family="Helvetica,sans-Serif" font-size="10.00">::probability_leaving</text>
</a>
</g>
</g>
<!-- Node2&#45;&gt;Node3 -->
<g id="edge2_Node000002_Node000003" class="edge">
<title>Node2&#45;&gt;Node3</title>
<g id="a_edge2_Node000002_Node000003"><a xlink:title=" ">
<path fill="none" stroke="#63b8ff" d="M287.63,-66.12C304.12,-70.62 322.41,-75.61 339.56,-80.29"/>
<polygon fill="#63b8ff" stroke="#63b8ff" points="338.61,-83.66 349.18,-82.92 340.45,-76.91 338.61,-83.66"/>
</a>
</g>
</g>
<!-- Node5 -->
<g id="Node000005" class="node">
<title>Node5</title>
<g id="a_Node000005"><a xlink:href="classSimulation_1_1Probes.html#ade14ae1c3a54c4d5f3154d7d0dc00e3c" target="_top" xlink:title=" ">
<polygon fill="white" stroke="#666666" points="465.38,-18.5 347.38,-18.5 347.38,0 465.38,0 465.38,-18.5"/>
<text text-anchor="middle" x="406.38" y="-5" font-family="Helvetica,sans-Serif" font-size="10.00">Simulation::Probes::set</text>
</a>
</g>
</g>
<!-- Node2&#45;&gt;Node5 -->
<g id="edge4_Node000002_Node000005" class="edge">
<title>Node2&#45;&gt;Node5</title>
<g id="a_edge4_Node000002_Node000005"><a xlink:title=" ">
<path fill="none" stroke="#63b8ff" d="M294.34,-36.32C314.05,-31.52 335.67,-26.25 354.55,-21.64"/>
<polygon fill="#63b8ff" stroke="#63b8ff" points="355.25,-25.07 364.14,-19.3 353.59,-18.27 355.25,-25.07"/>
</a>
</g>
</g>
<!-- Node6 -->
<g id="Node000006" class="node">
<title>Node6</title>
<g id="a_Node000006"><a xlink:href="structMC_1_1EventContainer.html#a117575ad89e1abca8ad66cb704c18bd5" target="_top" xlink:title=" ">
<polygon fill="white" stroke="#666666" points="458.62,-65.75 354.12,-65.75 354.12,-36.75 458.62,-36.75 458.62,-65.75"/>
<text text-anchor="start" x="362.12" y="-52.25" font-family="Helvetica,sans-Serif" font-size="10.00">MC::EventContainer</text>
<text text-anchor="middle" x="406.38" y="-41.75" font-family="Helvetica,sans-Serif" font-size="10.00">::wrap_incr</text>
</a>
</g>
</g>
<!-- Node2&#45;&gt;Node6 -->
<g id="edge5_Node000002_Node000006" class="edge">
<title>Node2&#45;&gt;Node6</title>
<g id="a_edge5_Node000002_Node000006"><a xlink:title=" ">
<path fill="none" stroke="#63b8ff" d="M299.23,-51.25C313.53,-51.25 328.61,-51.25 342.76,-51.25"/>
<polygon fill="#63b8ff" stroke="#63b8ff" points="342.38,-54.75 352.38,-51.25 342.38,-47.75 342.38,-54.75"/>
</a>
</g>
</g>
<!-- Node4 -->
<g id="Node000004" class="node">
<title>Node4</title>
<g id="a_Node000004"><a xlink:href="namespaceSimulation_1_1KernelInline.html#a51d881a6b6159d9839b53d9b6f607b65" target="_top" xlink:title=" ">
<polygon fill="white" stroke="#666666" points="646.75,-107.5 510,-107.5 510,-89 646.75,-89 646.75,-107.5"/>
<text text-anchor="middle" x="578.38" y="-94" font-family="Helvetica,sans-Serif" font-size="10.00">Simulation::KernelInline::_ln</text>
</a>
</g>
</g>
<!-- Node3&#45;&gt;Node4 -->
<g id="edge3_Node000003_Node000004" class="edge">
<title>Node3&#45;&gt;Node4</title>
<g id="a_edge3_Node000003_Node000004"><a xlink:title=" ">
<path fill="none" stroke="#63b8ff" d="M465.4,-98.25C475.97,-98.25 487.16,-98.25 498.21,-98.25"/>
<polygon fill="#63b8ff" stroke="#63b8ff" points="498.13,-101.75 508.13,-98.25 498.13,-94.75 498.13,-101.75"/>
</a>
</g>
</g>
<!-- Node7 -->
<g id="Node000007" class="node">
<title>Node7</title>
<g id="a_Node000007"><a xlink:href="structMC_1_1EventContainer.html#a70d7122fe5d2521f91e871816ea83e61" target="_top" xlink:title="Increment specific event counter.">
<polygon fill="white" stroke="#666666" points="630.62,-65.75 526.12,-65.75 526.12,-36.75 630.62,-36.75 630.62,-65.75"/>
<text text-anchor="start" x="534.12" y="-52.25" font-family="Helvetica,sans-Serif" font-size="10.00">MC::EventContainer</text>
<text text-anchor="middle" x="578.38" y="-41.75" font-family="Helvetica,sans-Serif" font-size="10.00">::incr</text>
</a>
</g>
</g>
<!-- Node6&#45;&gt;Node7 -->
<g id="edge6_Node000006_Node000007" class="edge">
<title>Node6&#45;&gt;Node7</title>
<g id="a_edge6_Node000006_Node000007"><a xlink:title=" ">
<path fill="none" stroke="#63b8ff" d="M458.84,-51.25C476.32,-51.25 496.05,-51.25 514.33,-51.25"/>
<polygon fill="#63b8ff" stroke="#63b8ff" points="514.28,-54.75 524.28,-51.25 514.28,-47.75 514.28,-54.75"/>
</a>
</g>
</g>
<!-- Node8 -->
<g id="Node000008" class="node">
<title>Node8</title>
<g id="a_Node000008"><a xlink:href="namespaceMC.html#ae91609aafa31939cedd6775cc5adafc4" target="_top" xlink:title="inline getter, converts event to its value in order to be use as array index">
<polygon fill="white" stroke="#666666" points="772.25,-60.5 682.75,-60.5 682.75,-42 772.25,-42 772.25,-60.5"/>
<text text-anchor="middle" x="727.5" y="-47" font-family="Helvetica,sans-Serif" font-size="10.00">MC::event_index</text>
</a>
</g>
</g>
<!-- Node7&#45;&gt;Node8 -->
<g id="edge7_Node000007_Node000008" class="edge">
<title>Node7&#45;&gt;Node8</title>
<g id="a_edge7_Node000007_Node000008"><a xlink:title=" ">
<path fill="none" stroke="#63b8ff" d="M630.83,-51.25C643.91,-51.25 658.01,-51.25 671.26,-51.25"/>
<polygon fill="#63b8ff" stroke="#63b8ff" points="671.13,-54.75 681.13,-51.25 671.13,-47.75 671.13,-54.75"/>
</a>
</g>
</g>
<!-- Node9&#45;&gt;Node3 -->
<g id="edge10_Node000009_Node000003" class="edge">
<title>Node9&#45;&gt;Node3</title>
<g id="a_edge10_Node000009_Node000003"><a xlink:title=" ">
<path fill="none" stroke="#63b8ff" d="M303.19,-98.25C313.86,-98.25 324.87,-98.25 335.53,-98.25"/>
<polygon fill="#63b8ff" stroke="#63b8ff" points="335.43,-101.75 345.43,-98.25 335.43,-94.75 335.43,-101.75"/>
</a>
</g>
</g>
<!-- Node9&#45;&gt;Node6 -->
<g id="edge11_Node000009_Node000006" class="edge">
<title>Node9&#45;&gt;Node6</title>
<g id="a_edge11_Node000009_Node000006"><a xlink:title=" ">
<path fill="none" stroke="#63b8ff" d="M287.63,-83.38C305.17,-78.59 324.76,-73.25 342.84,-68.31"/>
<polygon fill="#63b8ff" stroke="#63b8ff" points="343.68,-71.71 352.41,-65.7 341.84,-64.96 343.68,-71.71"/>
</a>
</g>
</g>
<!-- Node10 -->
<g id="Node000010" class="node">
<title>Node10</title>
<g id="a_Node000010"><a xlink:href="namespaceSimulation_1_1KernelInline.html#a68ac7aac1215936a97dee2435fb8fa28" target="_top" xlink:title=" ">
<polygon fill="white" stroke="#666666" points="474,-159.75 338.75,-159.75 338.75,-130.75 474,-130.75 474,-159.75"/>
<text text-anchor="start" x="346.75" y="-146.25" font-family="Helvetica,sans-Serif" font-size="10.00">Simulation::KernelInline</text>
<text text-anchor="middle" x="406.38" y="-135.75" font-family="Helvetica,sans-Serif" font-size="10.00">::__find_next_compartment</text>
</a>
</g>
</g>
<!-- Node9&#45;&gt;Node10 -->
<g id="edge9_Node000009_Node000010" class="edge">
<title>Node9&#45;&gt;Node10</title>
<g id="a_edge9_Node000009_Node000010"><a xlink:title=" ">
<path fill="none" stroke="#63b8ff" d="M287.63,-113.12C304.12,-117.62 322.41,-122.61 339.56,-127.29"/>
<polygon fill="#63b8ff" stroke="#63b8ff" points="338.61,-130.66 349.18,-129.92 340.45,-123.91 338.61,-130.66"/>
</a>
</g>
</g>
</g>
</svg>
