<?xml version="1.0" encoding="UTF-8" standalone="no"?>
<!DOCTYPE svg PUBLIC "-//W3C//DTD SVG 1.1//EN"
 "http://www.w3.org/Graphics/SVG/1.1/DTD/svg11.dtd">
<!-- Generated by graphviz version 12.1.2 (0)
 -->
<!-- Title: Models::Uptake::phi_permease Pages: 1 -->
<svg width="454pt" height="85pt"
 viewBox="0.00 0.00 453.50 84.50" xmlns="http://www.w3.org/2000/svg" xmlns:xlink="http://www.w3.org/1999/xlink">
<g id="graph0" class="graph" transform="scale(1 1) rotate(0) translate(4 80.5)">
<title>Models::Uptake::phi_permease</title>
<!-- Node1 -->
<g id="Node000001" class="node">
<title>Node1</title>
<g id="a_Node000001"><a xlink:title=" ">
<polygon fill="#999999" stroke="#666666" points="445.5,-62.75 342.5,-62.75 342.5,-33.75 445.5,-33.75 445.5,-62.75"/>
<text text-anchor="start" x="350.5" y="-49.25" font-family="Helvetica,sans-Serif" font-size="10.00">Models::Uptake::phi</text>
<text text-anchor="middle" x="394" y="-38.75" font-family="Helvetica,sans-Serif" font-size="10.00">_permease</text>
</a>
</g>
</g>
<!-- Node2 -->
<g id="Node000002" class="node">
<title>Node2</title>
<g id="a_Node000002"><a xlink:href="structModels_1_1Uptake.html#a9e59d659bfd785fb8b4dc2ba14d4b123" target="_top" xlink:title=" ">
<polygon fill="white" stroke="#666666" points="294.5,-76.5 175.75,-76.5 175.75,-58 294.5,-58 294.5,-76.5"/>
<text text-anchor="middle" x="235.12" y="-63" font-family="Helvetica,sans-Serif" font-size="10.00">Models::Uptake::uptake</text>
</a>
</g>
</g>
<!-- Node1&#45;&gt;Node2 -->
<g id="edge1_Node000001_Node000002" class="edge">
<title>Node1&#45;&gt;Node2</title>
<g id="a_edge1_Node000001_Node000002"><a xlink:title=" ">
<path fill="none" stroke="#63b8ff" d="M330.91,-55.77C319.07,-57.2 306.71,-58.7 294.98,-60.12"/>
<polygon fill="#63b8ff" stroke="#63b8ff" points="331.06,-59.28 340.56,-54.6 330.22,-52.33 331.06,-59.28"/>
</a>
</g>
</g>
<!-- Node3 -->
<g id="Node000003" class="node">
<title>Node3</title>
<g id="a_Node000003"><a xlink:href="structModels_1_1Uptake.html#a511b5a27e41b542b8f2d4f0b409c133e" target="_top" xlink:title=" ">
<polygon fill="white" stroke="#666666" points="306.5,-39.5 163.75,-39.5 163.75,-21 306.5,-21 306.5,-39.5"/>
<text text-anchor="middle" x="235.12" y="-26" font-family="Helvetica,sans-Serif" font-size="10.00">Models::Uptake::uptake_step</text>
</a>
</g>
</g>
<!-- Node1&#45;&gt;Node3 -->
<g id="edge2_Node000001_Node000003" class="edge">
<title>Node1&#45;&gt;Node3</title>
<g id="a_edge2_Node000001_Node000003"><a xlink:title=" ">
<path fill="none" stroke="#63b8ff" d="M330.73,-41.11C322.85,-40.2 314.75,-39.27 306.76,-38.35"/>
<polygon fill="#63b8ff" stroke="#63b8ff" points="330.23,-44.57 340.56,-42.23 331.03,-37.62 330.23,-44.57"/>
</a>
</g>
</g>
<!-- Node4 -->
<g id="Node000004" class="node">
<title>Node4</title>
<g id="a_Node000004"><a xlink:href="structModels_1_1SimpleModel.html#af7aeaedcc2c7fa2ecc72e1de31067c15" target="_top" xlink:title=" ">
<polygon fill="white" stroke="#666666" points="118.75,-65.75 9,-65.75 9,-36.75 118.75,-36.75 118.75,-65.75"/>
<text text-anchor="start" x="17" y="-52.25" font-family="Helvetica,sans-Serif" font-size="10.00">Models::SimpleModel</text>
<text text-anchor="middle" x="63.88" y="-41.75" font-family="Helvetica,sans-Serif" font-size="10.00">::update</text>
</a>
</g>
</g>
<!-- Node3&#45;&gt;Node4 -->
<g id="edge3_Node000003_Node000004" class="edge">
<title>Node3&#45;&gt;Node4</title>
<g id="a_edge3_Node000003_Node000004"><a xlink:title=" ">
<path fill="none" stroke="#63b8ff" d="M152.18,-40.42C140.97,-41.81 129.71,-43.21 119.17,-44.51"/>
<polygon fill="#63b8ff" stroke="#63b8ff" points="152.33,-43.93 161.83,-39.22 151.47,-36.98 152.33,-43.93"/>
</a>
</g>
</g>
<!-- Node5 -->
<g id="Node000005" class="node">
<title>Node5</title>
<g id="a_Node000005"><a xlink:href="structModels_1_1TwoMeta.html#ada93cefb060e3e11a33d6860c1097e90" target="_top" xlink:title=" ">
<polygon fill="white" stroke="#666666" points="127.75,-18.5 0,-18.5 0,0 127.75,0 127.75,-18.5"/>
<text text-anchor="middle" x="63.88" y="-5" font-family="Helvetica,sans-Serif" font-size="10.00">Models::TwoMeta::update</text>
</a>
</g>
</g>
<!-- Node3&#45;&gt;Node5 -->
<g id="edge4_Node000003_Node000005" class="edge">
<title>Node3&#45;&gt;Node5</title>
<g id="a_edge4_Node000003_Node000005"><a xlink:title=" ">
<path fill="none" stroke="#63b8ff" d="M152.02,-20.06C143.98,-19.07 135.92,-18.06 128.11,-17.1"/>
<polygon fill="#63b8ff" stroke="#63b8ff" points="151.47,-23.52 161.83,-21.28 152.33,-16.57 151.47,-23.52"/>
</a>
</g>
</g>
</g>
</svg>
