<?xml version="1.0" encoding="UTF-8" standalone="no"?>
<!DOCTYPE svg PUBLIC "-//W3C//DTD SVG 1.1//EN"
 "http://www.w3.org/Graphics/SVG/1.1/DTD/svg11.dtd">
<!-- Generated by graphviz version 14.0.1 (0)
 -->
<!-- Title: Api::SimulationInstance::SimulationInstance Pages: 1 -->
<svg width="1302pt" height="974pt"
 viewBox="0.00 0.00 1302.00 974.00" xmlns="http://www.w3.org/2000/svg" xmlns:xlink="http://www.w3.org/1999/xlink">
<g id="graph0" class="graph" transform="scale(1 1) rotate(0) translate(4 970)">
<title>Api::SimulationInstance::SimulationInstance</title>
<!-- Node1 -->
<g id="Node000001" class="node">
<title>Node1</title>
<g id="a_Node000001"><a xlink:title="Default constructor.">
<polygon fill="#999999" stroke="#666666" points="119.5,-423 0,-423 0,-394 119.5,-394 119.5,-423"/>
<text xml:space="preserve" text-anchor="start" x="8" y="-409.5" font-family="Helvetica,sans-Serif" font-size="10.00">Api::SimulationInstance</text>
<text xml:space="preserve" text-anchor="middle" x="59.75" y="-399" font-family="Helvetica,sans-Serif" font-size="10.00">::SimulationInstance</text>
</a>
</g>
</g>
<!-- Node2 -->
<g id="Node000002" class="node">
<title>Node2</title>
<g id="a_Node000002"><a xlink:href="structApi_1_1SimulationInstance.html#a3398ddd22faa3ceb16b454c51faeced0" target="_top" xlink:title="Apply the simulation configuration and prepare for execution.">
<polygon fill="white" stroke="#666666" points="278.38,-754 158.88,-754 158.88,-725 278.38,-725 278.38,-754"/>
<text xml:space="preserve" text-anchor="start" x="166.88" y="-740.5" font-family="Helvetica,sans-Serif" font-size="10.00">Api::SimulationInstance</text>
<text xml:space="preserve" text-anchor="middle" x="218.62" y="-730" font-family="Helvetica,sans-Serif" font-size="10.00">::apply</text>
</a>
</g>
</g>
<!-- Node1&#45;&gt;Node2 -->
<g id="edge1_Node000001_Node000002" class="edge">
<title>Node1&#45;&gt;Node2</title>
<g id="a_edge1_Node000001_Node000002"><a xlink:title=" ">
<path fill="none" stroke="#63b8ff" d="M61.33,-423.41C63.94,-471.14 78.23,-622.22 155.5,-710.5 157.97,-713.32 160.77,-715.89 163.79,-718.22"/>
<polygon fill="#63b8ff" stroke="#63b8ff" points="161.82,-721.11 172.09,-723.69 165.67,-715.27 161.82,-721.11"/>
</a>
</g>
</g>
<!-- Node3 -->
<g id="Node000003" class="node">
<title>Node3</title>
<g id="a_Node000003"><a xlink:href="structApi_1_1SimulationInstance.html#ad2abfa76ac4128d44b7c0c895f78b77b" target="_top" xlink:title="Load ad apply the simulation configuration and prepare for execution based on file.">
<polygon fill="white" stroke="#666666" points="437.25,-805 317.75,-805 317.75,-776 437.25,-776 437.25,-805"/>
<text xml:space="preserve" text-anchor="start" x="325.75" y="-791.5" font-family="Helvetica,sans-Serif" font-size="10.00">Api::SimulationInstance</text>
<text xml:space="preserve" text-anchor="middle" x="377.5" y="-781" font-family="Helvetica,sans-Serif" font-size="10.00">::apply_load</text>
</a>
</g>
</g>
<!-- Node1&#45;&gt;Node3 -->
<g id="edge28_Node000001_Node000003" class="edge">
<title>Node1&#45;&gt;Node3</title>
<g id="a_edge28_Node000001_Node000003"><a xlink:title=" ">
<path fill="none" stroke="#63b8ff" d="M62.18,-423.16C68.69,-486.37 97.64,-734.58 155.5,-781.5 197.47,-815.53 260.08,-814.87 307.95,-807.37"/>
<polygon fill="#63b8ff" stroke="#63b8ff" points="308.4,-810.85 317.67,-805.71 307.22,-803.95 308.4,-810.85"/>
</a>
</g>
</g>
<!-- Node25 -->
<g id="Node000025" class="node">
<title>Node25</title>
<g id="a_Node000025"><a xlink:href="structApi_1_1SimulationInstance.html#a3f04372728be84263fb69f5773ca5bd5" target="_top" xlink:title="Execute the simulation.">
<polygon fill="white" stroke="#666666" points="592.75,-711 473.25,-711 473.25,-682 592.75,-682 592.75,-711"/>
<text xml:space="preserve" text-anchor="start" x="481.25" y="-697.5" font-family="Helvetica,sans-Serif" font-size="10.00">Api::SimulationInstance</text>
<text xml:space="preserve" text-anchor="middle" x="533" y="-687" font-family="Helvetica,sans-Serif" font-size="10.00">::exec</text>
</a>
</g>
</g>
<!-- Node1&#45;&gt;Node25 -->
<g id="edge29_Node000001_Node000025" class="edge">
<title>Node1&#45;&gt;Node25</title>
<g id="a_edge29_Node000001_Node000025"><a xlink:title=" ">
<path fill="none" stroke="#63b8ff" d="M60.75,-423.32C61.63,-469.82 71.31,-613.56 155.5,-676.5 202.16,-711.39 365.98,-707.43 461.46,-701.78"/>
<polygon fill="#63b8ff" stroke="#63b8ff" points="461.47,-705.28 471.24,-701.17 461.04,-698.29 461.47,-705.28"/>
</a>
</g>
</g>
<!-- Node26 -->
<g id="Node000026" class="node">
<title>Node26</title>
<g id="a_Node000026"><a xlink:href="structApi_1_1SimulationInstance.html#a37448530b88fd5401cbad17e9bd3c0a6" target="_top" xlink:title=" ">
<polygon fill="white" stroke="#666666" points="278.38,-668 158.88,-668 158.88,-639 278.38,-639 278.38,-668"/>
<text xml:space="preserve" text-anchor="start" x="166.88" y="-654.5" font-family="Helvetica,sans-Serif" font-size="10.00">Api::SimulationInstance</text>
<text xml:space="preserve" text-anchor="middle" x="218.62" y="-644" font-family="Helvetica,sans-Serif" font-size="10.00">::get_exec_info</text>
</a>
</g>
</g>
<!-- Node1&#45;&gt;Node26 -->
<g id="edge32_Node000001_Node000026" class="edge">
<title>Node1&#45;&gt;Node26</title>
<g id="a_edge32_Node000001_Node000026"><a xlink:title=" ">
<path fill="none" stroke="#63b8ff" d="M63.05,-423.38C69.85,-462.56 93.45,-569.66 155.5,-629.5 156.53,-630.49 157.61,-631.45 158.72,-632.36"/>
<polygon fill="#63b8ff" stroke="#63b8ff" points="156.43,-635.04 166.66,-637.79 160.38,-629.26 156.43,-635.04"/>
</a>
</g>
</g>
<!-- Node27 -->
<g id="Node000027" class="node">
<title>Node27</title>
<g id="a_Node000027"><a xlink:href="structApi_1_1SimulationInstance.html#ab938dea3b413538bfdaa40daa5d122a2" target="_top" xlink:title="Retrieve the simulation instance&#39;s unique identifier.">
<polygon fill="white" stroke="#666666" points="278.38,-621 158.88,-621 158.88,-592 278.38,-592 278.38,-621"/>
<text xml:space="preserve" text-anchor="start" x="166.88" y="-607.5" font-family="Helvetica,sans-Serif" font-size="10.00">Api::SimulationInstance</text>
<text xml:space="preserve" text-anchor="middle" x="218.62" y="-597" font-family="Helvetica,sans-Serif" font-size="10.00">::get_id</text>
</a>
</g>
</g>
<!-- Node1&#45;&gt;Node27 -->
<g id="edge33_Node000001_Node000027" class="edge">
<title>Node1&#45;&gt;Node27</title>
<g id="a_edge33_Node000001_Node000027"><a xlink:title=" ">
<path fill="none" stroke="#63b8ff" d="M64.95,-423.32C75.05,-456.44 103.8,-537.12 155.5,-582.5 156.75,-583.6 158.05,-584.65 159.4,-585.65"/>
<polygon fill="#63b8ff" stroke="#63b8ff" points="157.26,-588.44 167.59,-590.82 161,-582.52 157.26,-588.44"/>
</a>
</g>
</g>
<!-- Node28 -->
<g id="Node000028" class="node">
<title>Node28</title>
<g id="a_Node000028"><a xlink:href="structApi_1_1SimulationInstance.html#ac8b52d1e9fa704e89d252d884aa6cf3d" target="_top" xlink:title="Register a path for CMA data.">
<polygon fill="white" stroke="#666666" points="278.38,-574 158.88,-574 158.88,-545 278.38,-545 278.38,-574"/>
<text xml:space="preserve" text-anchor="start" x="166.88" y="-560.5" font-family="Helvetica,sans-Serif" font-size="10.00">Api::SimulationInstance</text>
<text xml:space="preserve" text-anchor="middle" x="218.62" y="-550" font-family="Helvetica,sans-Serif" font-size="10.00">::register_cma_path</text>
</a>
</g>
</g>
<!-- Node1&#45;&gt;Node28 -->
<g id="edge34_Node000001_Node000028" class="edge">
<title>Node1&#45;&gt;Node28</title>
<g id="a_edge34_Node000001_Node000028"><a xlink:title=" ">
<path fill="none" stroke="#63b8ff" d="M68.09,-423.17C81.84,-449.25 113.87,-503.9 155.5,-535.5 157.05,-536.68 158.67,-537.8 160.33,-538.88"/>
<polygon fill="#63b8ff" stroke="#63b8ff" points="158.56,-541.9 168.99,-543.78 162.01,-535.81 158.56,-541.9"/>
</a>
</g>
</g>
<!-- Node29 -->
<g id="Node000029" class="node">
<title>Node29</title>
<g id="a_Node000029"><a xlink:href="structApi_1_1SimulationInstance.html#a7fe33427bbf42fbff934729f90242271" target="_top" xlink:title=" ">
<polygon fill="white" stroke="#666666" points="281.75,-527 155.5,-527 155.5,-498 281.75,-498 281.75,-527"/>
<text xml:space="preserve" text-anchor="start" x="163.5" y="-513.5" font-family="Helvetica,sans-Serif" font-size="10.00">Api::SimulationInstance</text>
<text xml:space="preserve" text-anchor="middle" x="218.62" y="-503" font-family="Helvetica,sans-Serif" font-size="10.00">::register_initial_condition</text>
</a>
</g>
</g>
<!-- Node1&#45;&gt;Node29 -->
<g id="edge35_Node000001_Node000029" class="edge">
<title>Node1&#45;&gt;Node29</title>
<g id="a_edge35_Node000001_Node000029"><a xlink:title=" ">
<path fill="none" stroke="#63b8ff" d="M74.9,-423.47C92.4,-441.26 123.77,-470.87 155.5,-489.5 157.4,-490.61 159.36,-491.69 161.36,-492.73"/>
<polygon fill="#63b8ff" stroke="#63b8ff" points="159.74,-495.83 170.28,-496.94 162.73,-489.5 159.74,-495.83"/>
</a>
</g>
</g>
<!-- Node30 -->
<g id="Node000030" class="node">
<title>Node30</title>
<g id="a_Node000030"><a xlink:href="structApi_1_1SimulationInstance.html#af7102c1a786cac7c27ad533ce1f29f06" target="_top" xlink:title=" ">
<polygon fill="white" stroke="#666666" points="278.38,-480.25 158.88,-480.25 158.88,-440.75 278.38,-440.75 278.38,-480.25"/>
<text xml:space="preserve" text-anchor="start" x="166.88" y="-466.75" font-family="Helvetica,sans-Serif" font-size="10.00">Api::SimulationInstance</text>
<text xml:space="preserve" text-anchor="start" x="166.88" y="-456.25" font-family="Helvetica,sans-Serif" font-size="10.00">::register_initialiser</text>
<text xml:space="preserve" text-anchor="middle" x="218.62" y="-445.75" font-family="Helvetica,sans-Serif" font-size="10.00">_file_path</text>
</a>
</g>
</g>
<!-- Node1&#45;&gt;Node30 -->
<g id="edge36_Node000001_Node000030" class="edge">
<title>Node1&#45;&gt;Node30</title>
<g id="a_edge36_Node000001_Node000030"><a xlink:title=" ">
<path fill="none" stroke="#63b8ff" d="M105.7,-423.4C118.84,-427.75 133.51,-432.62 147.79,-437.35"/>
<polygon fill="#63b8ff" stroke="#63b8ff" points="146.58,-440.64 157.18,-440.46 148.78,-433.99 146.58,-440.64"/>
</a>
</g>
</g>
<!-- Node31 -->
<g id="Node000031" class="node">
<title>Node31</title>
<g id="a_Node000031"><a xlink:href="structApi_1_1SimulationInstance.html#a06b825ee4dcaf97e49ef5d3644a7301a" target="_top" xlink:title="Register the model name for the simulation.">
<polygon fill="white" stroke="#666666" points="278.38,-423 158.88,-423 158.88,-394 278.38,-394 278.38,-423"/>
<text xml:space="preserve" text-anchor="start" x="166.88" y="-409.5" font-family="Helvetica,sans-Serif" font-size="10.00">Api::SimulationInstance</text>
<text xml:space="preserve" text-anchor="middle" x="218.62" y="-399" font-family="Helvetica,sans-Serif" font-size="10.00">::register_model_name</text>
</a>
</g>
</g>
<!-- Node1&#45;&gt;Node31 -->
<g id="edge37_Node000001_Node000031" class="edge">
<title>Node1&#45;&gt;Node31</title>
<g id="a_edge37_Node000001_Node000031"><a xlink:title=" ">
<path fill="none" stroke="#63b8ff" d="M119.61,-408.5C128.54,-408.5 137.82,-408.5 146.97,-408.5"/>
<polygon fill="#63b8ff" stroke="#63b8ff" points="146.92,-412 156.92,-408.5 146.92,-405 146.92,-412"/>
</a>
</g>
</g>
<!-- Node32 -->
<g id="Node000032" class="node">
<title>Node32</title>
<g id="a_Node000032"><a xlink:href="structApi_1_1SimulationInstance.html#ad54f1c021ad6af49979c42edf10b207b" target="_top" xlink:title="Register user control parameters for the simulation.">
<polygon fill="white" stroke="#666666" points="278.38,-376 158.88,-376 158.88,-347 278.38,-347 278.38,-376"/>
<text xml:space="preserve" text-anchor="start" x="166.88" y="-362.5" font-family="Helvetica,sans-Serif" font-size="10.00">Api::SimulationInstance</text>
<text xml:space="preserve" text-anchor="middle" x="218.62" y="-352" font-family="Helvetica,sans-Serif" font-size="10.00">::register_parameters</text>
</a>
</g>
</g>
<!-- Node1&#45;&gt;Node32 -->
<g id="edge38_Node000001_Node000032" class="edge">
<title>Node1&#45;&gt;Node32</title>
<g id="a_edge38_Node000001_Node000032"><a xlink:title=" ">
<path fill="none" stroke="#63b8ff" d="M110.39,-393.63C125.12,-389.21 141.43,-384.33 156.79,-379.73"/>
<polygon fill="#63b8ff" stroke="#63b8ff" points="157.75,-383.09 166.32,-376.87 155.74,-376.39 157.75,-383.09"/>
</a>
</g>
</g>
<!-- Node33 -->
<g id="Node000033" class="node">
<title>Node33</title>
<g id="a_Node000033"><a xlink:href="structApi_1_1SimulationInstance.html#a19af55accb633781f80c6100a3508284" target="_top" xlink:title="Register a result output path.">
<polygon fill="white" stroke="#666666" points="278.38,-329 158.88,-329 158.88,-300 278.38,-300 278.38,-329"/>
<text xml:space="preserve" text-anchor="start" x="166.88" y="-315.5" font-family="Helvetica,sans-Serif" font-size="10.00">Api::SimulationInstance</text>
<text xml:space="preserve" text-anchor="middle" x="218.62" y="-305" font-family="Helvetica,sans-Serif" font-size="10.00">::register_result_path</text>
</a>
</g>
</g>
<!-- Node1&#45;&gt;Node33 -->
<g id="edge39_Node000001_Node000033" class="edge">
<title>Node1&#45;&gt;Node33</title>
<g id="a_edge39_Node000001_Node000033"><a xlink:title=" ">
<path fill="none" stroke="#63b8ff" d="M77.53,-393.54C95.71,-377.93 126.08,-353.53 155.5,-337.5 157.67,-336.32 159.92,-335.17 162.22,-334.06"/>
<polygon fill="#63b8ff" stroke="#63b8ff" points="163.41,-337.36 171.1,-330.07 160.55,-330.97 163.41,-337.36"/>
</a>
</g>
</g>
<!-- Node34 -->
<g id="Node000034" class="node">
<title>Node34</title>
<g id="a_Node000034"><a xlink:href="structApi_1_1SimulationInstance.html#afb6d2f04368f71955e4773dd5452f2e2" target="_top" xlink:title=" ">
<polygon fill="white" stroke="#666666" points="281,-282 156.25,-282 156.25,-253 281,-253 281,-282"/>
<text xml:space="preserve" text-anchor="start" x="164.25" y="-268.5" font-family="Helvetica,sans-Serif" font-size="10.00">Api::SimulationInstance</text>
<text xml:space="preserve" text-anchor="middle" x="218.62" y="-258" font-family="Helvetica,sans-Serif" font-size="10.00">::register_scalar_initiazer</text>
</a>
</g>
</g>
<!-- Node1&#45;&gt;Node34 -->
<g id="edge40_Node000001_Node000034" class="edge">
<title>Node1&#45;&gt;Node34</title>
<g id="a_edge40_Node000001_Node000034"><a xlink:title=" ">
<path fill="none" stroke="#63b8ff" d="M69,-393.66C83.46,-368.95 115.64,-319.22 155.5,-290.5 156.68,-289.65 157.9,-288.83 159.14,-288.03"/>
<polygon fill="#63b8ff" stroke="#63b8ff" points="160.79,-291.12 167.82,-283.19 157.38,-285 160.79,-291.12"/>
</a>
</g>
</g>
<!-- Node35 -->
<g id="Node000035" class="node">
<title>Node35</title>
<g id="a_Node000035"><a xlink:href="structApi_1_1SimulationInstance.html#a44482022a20986f2f68163a5a3baf49f" target="_top" xlink:title="Register a serialization/deserialization (serde) path.">
<polygon fill="white" stroke="#666666" points="278.38,-235 158.88,-235 158.88,-206 278.38,-206 278.38,-235"/>
<text xml:space="preserve" text-anchor="start" x="166.88" y="-221.5" font-family="Helvetica,sans-Serif" font-size="10.00">Api::SimulationInstance</text>
<text xml:space="preserve" text-anchor="middle" x="218.62" y="-211" font-family="Helvetica,sans-Serif" font-size="10.00">::register_serde</text>
</a>
</g>
</g>
<!-- Node1&#45;&gt;Node35 -->
<g id="edge41_Node000001_Node000035" class="edge">
<title>Node1&#45;&gt;Node35</title>
<g id="a_edge41_Node000001_Node000035"><a xlink:title=" ">
<path fill="none" stroke="#63b8ff" d="M65.29,-393.92C75.9,-362.11 105.31,-285.95 155.5,-243.5 156.29,-242.83 157.1,-242.19 157.92,-241.56"/>
<polygon fill="#63b8ff" stroke="#63b8ff" points="159.59,-244.64 166.12,-236.29 155.81,-238.75 159.59,-244.64"/>
</a>
</g>
</g>
<!-- Node36 -->
<g id="Node000036" class="node">
<title>Node36</title>
<g id="a_Node000036"><a xlink:href="structApi_1_1SimulationInstance.html#a73c191e86d9951411087785b68bf709e" target="_top" xlink:title=" ">
<polygon fill="white" stroke="#666666" points="278.38,-188 158.88,-188 158.88,-159 278.38,-159 278.38,-188"/>
<text xml:space="preserve" text-anchor="start" x="166.88" y="-174.5" font-family="Helvetica,sans-Serif" font-size="10.00">Api::SimulationInstance</text>
<text xml:space="preserve" text-anchor="middle" x="218.62" y="-164" font-family="Helvetica,sans-Serif" font-size="10.00">::set_auto_mtr</text>
</a>
</g>
</g>
<!-- Node1&#45;&gt;Node36 -->
<g id="edge42_Node000001_Node000036" class="edge">
<title>Node1&#45;&gt;Node36</title>
<g id="a_edge42_Node000001_Node000036"><a xlink:title=" ">
<path fill="none" stroke="#63b8ff" d="M63.3,-393.62C70.59,-355.45 95.03,-253.12 155.5,-196.5 156.01,-196.02 156.53,-195.55 157.07,-195.09"/>
<polygon fill="#63b8ff" stroke="#63b8ff" points="159.07,-197.96 165.21,-189.33 155.02,-192.25 159.07,-197.96"/>
</a>
</g>
</g>
<!-- Node37 -->
<g id="Node000037" class="node">
<title>Node37</title>
<g id="a_Node000037"><a xlink:href="structApi_1_1SimulationInstance.html#a4508272c4bba7fdaa1e3695ee606f538" target="_top" xlink:title=" ">
<polygon fill="white" stroke="#666666" points="278.38,-141 158.88,-141 158.88,-112 278.38,-112 278.38,-141"/>
<text xml:space="preserve" text-anchor="start" x="166.88" y="-127.5" font-family="Helvetica,sans-Serif" font-size="10.00">Api::SimulationInstance</text>
<text xml:space="preserve" text-anchor="middle" x="218.62" y="-117" font-family="Helvetica,sans-Serif" font-size="10.00">::set_feed</text>
</a>
</g>
</g>
<!-- Node1&#45;&gt;Node37 -->
<g id="edge43_Node000001_Node000037" class="edge">
<title>Node1&#45;&gt;Node37</title>
<g id="a_edge43_Node000001_Node000037"><a xlink:title=" ">
<path fill="none" stroke="#63b8ff" d="M61.92,-393.63C66.15,-350 84.37,-220.9 155.5,-149.5 155.98,-149.02 156.47,-148.54 156.98,-148.08"/>
<polygon fill="#63b8ff" stroke="#63b8ff" points="158.79,-151.09 164.7,-142.3 154.59,-145.49 158.79,-151.09"/>
</a>
</g>
</g>
<!-- Node38 -->
<g id="Node000038" class="node">
<title>Node38</title>
<g id="a_Node000038"><a xlink:href="structApi_1_1SimulationInstance.html#ad3dcce95a8552f794dfff2a0f382fcee" target="_top" xlink:title=" ">
<polygon fill="white" stroke="#666666" points="278.38,-94 158.88,-94 158.88,-65 278.38,-65 278.38,-94"/>
<text xml:space="preserve" text-anchor="start" x="166.88" y="-80.5" font-family="Helvetica,sans-Serif" font-size="10.00">Api::SimulationInstance</text>
<text xml:space="preserve" text-anchor="middle" x="218.62" y="-70" font-family="Helvetica,sans-Serif" font-size="10.00">::set_mtr</text>
</a>
</g>
</g>
<!-- Node1&#45;&gt;Node38 -->
<g id="edge44_Node000001_Node000038" class="edge">
<title>Node1&#45;&gt;Node38</title>
<g id="a_edge44_Node000001_Node000038"><a xlink:title=" ">
<path fill="none" stroke="#63b8ff" d="M60.95,-393.81C62.38,-345.41 73.47,-189.11 155.5,-102.5 155.87,-102.11 156.24,-101.73 156.62,-101.36"/>
<polygon fill="#63b8ff" stroke="#63b8ff" points="158.56,-104.29 164.25,-95.35 154.23,-98.79 158.56,-104.29"/>
</a>
</g>
</g>
<!-- Node39 -->
<g id="Node000039" class="node">
<title>Node39</title>
<g id="a_Node000039"><a xlink:href="structApi_1_1SimulationInstance.html#a7a849ee5dd1d0d13a198aecee702944c" target="_top" xlink:title="Deleted copy constructor to prevent copying.">
<polygon fill="white" stroke="#666666" points="278.38,-29 158.88,-29 158.88,0 278.38,0 278.38,-29"/>
<text xml:space="preserve" text-anchor="start" x="166.88" y="-15.5" font-family="Helvetica,sans-Serif" font-size="10.00">Api::SimulationInstance</text>
<text xml:space="preserve" text-anchor="middle" x="218.62" y="-5" font-family="Helvetica,sans-Serif" font-size="10.00">::SimulationInstance</text>
</a>
</g>
</g>
<!-- Node1&#45;&gt;Node39 -->
<g id="edge45_Node000001_Node000039" class="edge">
<title>Node1&#45;&gt;Node39</title>
<g id="a_edge45_Node000001_Node000039"><a xlink:title=" ">
<path fill="none" stroke="#63b8ff" d="M61.08,-393.84C62.93,-342.35 75.14,-166.92 155.5,-55.5 161.04,-47.83 168.49,-41.19 176.31,-35.62"/>
<polygon fill="#63b8ff" stroke="#63b8ff" points="178.18,-38.57 184.65,-30.19 174.36,-32.71 178.18,-38.57"/>
</a>
</g>
</g>
<!-- Node2&#45;&gt;Node2 -->
<g id="edge2_Node000002_Node000002" class="edge">
<title>Node2&#45;&gt;Node2</title>
<g id="a_edge2_Node000002_Node000002"><a xlink:title=" ">
<path fill="none" stroke="#63b8ff" d="M190.94,-754.21C184.26,-763.32 193.49,-772 218.62,-772 232.37,-772 241.36,-769.41 245.59,-765.56"/>
<polygon fill="#63b8ff" stroke="#63b8ff" points="249.08,-765.92 246.22,-755.72 242.09,-765.47 249.08,-765.92"/>
</a>
</g>
</g>
<!-- Node2&#45;&gt;Node3 -->
<g id="edge3_Node000002_Node000003" class="edge">
<title>Node2&#45;&gt;Node3</title>
<g id="a_edge3_Node000002_Node000003"><a xlink:title=" ">
<path fill="none" stroke="#63b8ff" d="M265.42,-754.39C282.35,-759.89 301.74,-766.2 319.54,-771.98"/>
<polygon fill="#63b8ff" stroke="#63b8ff" points="318.34,-775.27 328.94,-775.04 320.51,-768.62 318.34,-775.27"/>
</a>
</g>
</g>
<!-- Node24 -->
<g id="Node000024" class="node">
<title>Node24</title>
<g id="a_Node000024"><a xlink:href="namespaceUnsafe.html#a703f3b37e1e69e30af8da78870f09df4" target="_top" xlink:title=" ">
<polygon fill="white" stroke="#666666" points="422.62,-748.75 332.38,-748.75 332.38,-730.25 422.62,-730.25 422.62,-748.75"/>
<text xml:space="preserve" text-anchor="middle" x="377.5" y="-735.25" font-family="Helvetica,sans-Serif" font-size="10.00">Unsafe::load_udf</text>
</a>
</g>
</g>
<!-- Node2&#45;&gt;Node24 -->
<g id="edge27_Node000002_Node000024" class="edge">
<title>Node2&#45;&gt;Node24</title>
<g id="a_edge27_Node000002_Node000024"><a xlink:title=" ">
<path fill="none" stroke="#63b8ff" d="M278.49,-739.5C292.34,-739.5 307.07,-739.5 320.78,-739.5"/>
<polygon fill="#63b8ff" stroke="#63b8ff" points="320.51,-743 330.51,-739.5 320.51,-736 320.51,-743"/>
</a>
</g>
</g>
<!-- Node4 -->
<g id="Node000004" class="node">
<title>Node4</title>
<g id="a_Node000004"><a xlink:href="namespaceCore.html#a877563df5a407318a381e12311022377" target="_top" xlink:title=" ">
<polygon fill="white" stroke="#666666" points="563.5,-799.75 502.5,-799.75 502.5,-781.25 563.5,-781.25 563.5,-799.75"/>
<text xml:space="preserve" text-anchor="middle" x="533" y="-786.25" font-family="Helvetica,sans-Serif" font-size="10.00">Core::load</text>
</a>
</g>
</g>
<!-- Node3&#45;&gt;Node4 -->
<g id="edge4_Node000003_Node000004" class="edge">
<title>Node3&#45;&gt;Node4</title>
<g id="a_edge4_Node000003_Node000004"><a xlink:title=" ">
<path fill="none" stroke="#63b8ff" d="M437.41,-790.5C455.23,-790.5 474.42,-790.5 490.82,-790.5"/>
<polygon fill="#63b8ff" stroke="#63b8ff" points="490.7,-794 500.7,-790.5 490.7,-787 490.7,-794"/>
</a>
</g>
</g>
<!-- Node5 -->
<g id="Node000005" class="node">
<title>Node5</title>
<g id="a_Node000005"><a xlink:href="namespaceCore.html#a105cc1fc8005e6139954e3adce14f525" target="_top" xlink:title="Start simulation.">
<polygon fill="white" stroke="#666666" points="692,-799.75 628.75,-799.75 628.75,-781.25 692,-781.25 692,-799.75"/>
<text xml:space="preserve" text-anchor="middle" x="660.38" y="-786.25" font-family="Helvetica,sans-Serif" font-size="10.00">Core::exec</text>
</a>
</g>
</g>
<!-- Node4&#45;&gt;Node5 -->
<g id="edge5_Node000004_Node000005" class="edge">
<title>Node4&#45;&gt;Node5</title>
<g id="a_edge5_Node000004_Node000005"><a xlink:title=" ">
<path fill="none" stroke="#63b8ff" d="M563.71,-790.5C579.67,-790.5 599.62,-790.5 617.17,-790.5"/>
<polygon fill="#63b8ff" stroke="#63b8ff" points="617.05,-794 627.05,-790.5 617.05,-787 617.05,-794"/>
</a>
</g>
</g>
<!-- Node6 -->
<g id="Node000006" class="node">
<title>Node6</title>
<g id="a_Node000006"><a xlink:href="namespaceCore.html#a23e6f3d22fc51ef9decabb2c220b27c4" target="_top" xlink:title=" ">
<polygon fill="white" stroke="#666666" points="849,-820.75 728,-820.75 728,-802.25 849,-802.25 849,-820.75"/>
<text xml:space="preserve" text-anchor="middle" x="788.5" y="-807.25" font-family="Helvetica,sans-Serif" font-size="10.00">Core::exporter_filename</text>
</a>
</g>
</g>
<!-- Node5&#45;&gt;Node6 -->
<g id="edge6_Node000005_Node000006" class="edge">
<title>Node5&#45;&gt;Node6</title>
<g id="a_edge6_Node000005_Node000006"><a xlink:title=" ">
<path fill="none" stroke="#63b8ff" d="M692.23,-789.74C710.11,-791.68 732.7,-795.35 751.4,-799.32"/>
<polygon fill="#63b8ff" stroke="#63b8ff" points="750.46,-802.7 760.99,-801.49 752,-795.87 750.46,-802.7"/>
</a>
</g>
</g>
<!-- Node7 -->
<g id="Node000007" class="node">
<title>Node7</title>
<g id="a_Node000007"><a xlink:href="namespaceCore.html#afbce0beea293a7ccfdfc34a85b5e5e77" target="_top" xlink:title=" ">
<polygon fill="white" stroke="#666666" points="832.5,-714 744.5,-714 744.5,-685 832.5,-685 832.5,-714"/>
<text xml:space="preserve" text-anchor="start" x="752.5" y="-700.5" font-family="Helvetica,sans-Serif" font-size="10.00">Core::init_partial</text>
<text xml:space="preserve" text-anchor="middle" x="788.5" y="-690" font-family="Helvetica,sans-Serif" font-size="10.00">_exporter</text>
</a>
</g>
</g>
<!-- Node5&#45;&gt;Node7 -->
<g id="edge8_Node000005_Node000007" class="edge">
<title>Node5&#45;&gt;Node7</title>
<g id="a_edge8_Node000005_Node000007"><a xlink:title=" ">
<path fill="none" stroke="#63b8ff" d="M674.87,-780.76C694.57,-766.55 731.69,-739.77 757.92,-720.84"/>
<polygon fill="#63b8ff" stroke="#63b8ff" points="759.75,-723.83 765.82,-715.15 755.66,-718.16 759.75,-723.83"/>
</a>
</g>
</g>
<!-- Node15 -->
<g id="Node000015" class="node">
<title>Node15</title>
<g id="a_Node000015"><a xlink:href="namespacePostProcessing.html#abfe2a5894fae7c5534274da5d6d33e83" target="_top" xlink:title=" ">
<polygon fill="white" stroke="#666666" points="844.12,-784 732.88,-784 732.88,-755 844.12,-755 844.12,-784"/>
<text xml:space="preserve" text-anchor="start" x="740.88" y="-770.5" font-family="Helvetica,sans-Serif" font-size="10.00">PostProcessing::save</text>
<text xml:space="preserve" text-anchor="middle" x="788.5" y="-760" font-family="Helvetica,sans-Serif" font-size="10.00">_probes</text>
</a>
</g>
</g>
<!-- Node5&#45;&gt;Node15 -->
<g id="edge17_Node000005_Node000015" class="edge">
<title>Node5&#45;&gt;Node15</title>
<g id="a_edge17_Node000005_Node000015"><a xlink:title=" ">
<path fill="none" stroke="#63b8ff" d="M692.23,-785.36C701.23,-783.86 711.42,-782.17 721.71,-780.45"/>
<polygon fill="#63b8ff" stroke="#63b8ff" points="722.08,-783.94 731.37,-778.85 720.93,-777.04 722.08,-783.94"/>
</a>
</g>
</g>
<!-- Node23 -->
<g id="Node000023" class="node">
<title>Node23</title>
<g id="a_Node000023"><a xlink:href="classCore_1_1DataExporter.html#ad3b98151595b0962c089a7afcdb2a642" target="_top" xlink:title=" ">
<polygon fill="white" stroke="#666666" points="838.88,-868 738.12,-868 738.12,-839 838.88,-839 838.88,-868"/>
<text xml:space="preserve" text-anchor="start" x="746.12" y="-854.5" font-family="Helvetica,sans-Serif" font-size="10.00">Core::DataExporter</text>
<text xml:space="preserve" text-anchor="middle" x="788.5" y="-844" font-family="Helvetica,sans-Serif" font-size="10.00">::set_logger</text>
</a>
</g>
</g>
<!-- Node5&#45;&gt;Node23 -->
<g id="edge26_Node000005_Node000023" class="edge">
<title>Node5&#45;&gt;Node23</title>
<g id="a_edge26_Node000005_Node000023"><a xlink:title=" ">
<path fill="none" stroke="#63b8ff" d="M676.37,-800.13C689.65,-808.45 709.71,-820.52 728,-829.5 731.1,-831.02 734.32,-832.53 737.59,-834"/>
<polygon fill="#63b8ff" stroke="#63b8ff" points="736.14,-837.18 746.71,-837.95 738.92,-830.76 736.14,-837.18"/>
</a>
</g>
</g>
<!-- Node6&#45;&gt;Node5 -->
<g id="edge7_Node000006_Node000005" class="edge">
<title>Node6&#45;&gt;Node5</title>
<g id="a_edge7_Node000006_Node000005"><a xlink:title=" ">
<path fill="none" stroke="#63b8ff" d="M727.62,-808.27C717.34,-806.61 706.93,-804.69 697.52,-802.69"/>
<polygon fill="#63b8ff" stroke="#63b8ff" points="698.6,-799.34 688.07,-800.56 697.06,-806.17 698.6,-799.34"/>
</a>
</g>
</g>
<!-- Node8 -->
<g id="Node000008" class="node">
<title>Node8</title>
<g id="a_Node000008"><a xlink:href="classCore_1_1PartialExporter.html#a05cba8c28abaecce99f586d551a75f80" target="_top" xlink:title="Initializes the fields required for exporting data.">
<polygon fill="white" stroke="#666666" points="998.5,-749 889.5,-749 889.5,-720 998.5,-720 998.5,-749"/>
<text xml:space="preserve" text-anchor="start" x="897.5" y="-735.5" font-family="Helvetica,sans-Serif" font-size="10.00">Core::PartialExporter</text>
<text xml:space="preserve" text-anchor="middle" x="944" y="-725" font-family="Helvetica,sans-Serif" font-size="10.00">::init_fields</text>
</a>
</g>
</g>
<!-- Node7&#45;&gt;Node8 -->
<g id="edge9_Node000007_Node000008" class="edge">
<title>Node7&#45;&gt;Node8</title>
<g id="a_edge9_Node000007_Node000008"><a xlink:title=" ">
<path fill="none" stroke="#63b8ff" d="M832.67,-709.34C846.8,-712.56 862.81,-716.22 878.18,-719.72"/>
<polygon fill="#63b8ff" stroke="#63b8ff" points="877.21,-723.09 887.74,-721.9 878.77,-716.26 877.21,-723.09"/>
</a>
</g>
</g>
<!-- Node11 -->
<g id="Node000011" class="node">
<title>Node11</title>
<g id="a_Node000011"><a xlink:href="namespacePostProcessing.html#a262aae53c1f4dafed4795c687d6ea817" target="_top" xlink:title=" ">
<polygon fill="white" stroke="#666666" points="999.62,-702 888.38,-702 888.38,-673 999.62,-673 999.62,-702"/>
<text xml:space="preserve" text-anchor="start" x="896.38" y="-688.5" font-family="Helvetica,sans-Serif" font-size="10.00">PostProcessing::save</text>
<text xml:space="preserve" text-anchor="middle" x="944" y="-678" font-family="Helvetica,sans-Serif" font-size="10.00">_particle_state</text>
</a>
</g>
</g>
<!-- Node7&#45;&gt;Node11 -->
<g id="edge13_Node000007_Node000011" class="edge">
<title>Node7&#45;&gt;Node11</title>
<g id="a_edge13_Node000007_Node000011"><a xlink:title=" ">
<path fill="none" stroke="#63b8ff" d="M832.67,-696.13C846.38,-695.05 861.86,-693.84 876.81,-692.67"/>
<polygon fill="#63b8ff" stroke="#63b8ff" points="876.89,-696.18 886.58,-691.91 876.34,-689.2 876.89,-696.18"/>
</a>
</g>
</g>
<!-- Node13 -->
<g id="Node000013" class="node">
<title>Node13</title>
<g id="a_Node000013"><a xlink:href="classCore_1_1PartialExporter.html#a450fb0c92efa4ee81b4083fc01f5e665" target="_top" xlink:title="Writes the number of particles in each compartment.">
<polygon fill="white" stroke="#666666" points="1003,-655 885,-655 885,-626 1003,-626 1003,-655"/>
<text xml:space="preserve" text-anchor="start" x="893" y="-641.5" font-family="Helvetica,sans-Serif" font-size="10.00">Core::PartialExporter</text>
<text xml:space="preserve" text-anchor="middle" x="944" y="-631" font-family="Helvetica,sans-Serif" font-size="10.00">::write_number_particle</text>
</a>
</g>
</g>
<!-- Node7&#45;&gt;Node13 -->
<g id="edge15_Node000007_Node000013" class="edge">
<title>Node7&#45;&gt;Node13</title>
<g id="a_edge15_Node000007_Node000013"><a xlink:title=" ">
<path fill="none" stroke="#63b8ff" d="M828.23,-684.61C847.97,-677.02 872.2,-667.71 893.3,-659.6"/>
<polygon fill="#63b8ff" stroke="#63b8ff" points="894.52,-662.88 902.6,-656.03 892.01,-656.35 894.52,-662.88"/>
</a>
</g>
</g>
<!-- Node9 -->
<g id="Node000009" class="node">
<title>Node9</title>
<g id="a_Node000009"><a xlink:href="namespaceIO.html#a30cc77fc5c4d45d3b56ef6a299ce2383" target="_top" xlink:title=" ">
<polygon fill="white" stroke="#666666" points="1273.5,-739.75 1213.25,-739.75 1213.25,-721.25 1273.5,-721.25 1273.5,-739.75"/>
<text xml:space="preserve" text-anchor="middle" x="1243.38" y="-726.25" font-family="Helvetica,sans-Serif" font-size="10.00">IO::format</text>
</a>
</g>
</g>
<!-- Node8&#45;&gt;Node9 -->
<g id="edge10_Node000008_Node000009" class="edge">
<title>Node8&#45;&gt;Node9</title>
<g id="a_edge10_Node000008_Node000009"><a xlink:title=" ">
<path fill="none" stroke="#63b8ff" d="M998.85,-733.78C1057.2,-732.99 1149,-731.76 1201.64,-731.05"/>
<polygon fill="#63b8ff" stroke="#63b8ff" points="1201.41,-734.55 1211.37,-730.92 1201.32,-727.55 1201.41,-734.55"/>
</a>
</g>
</g>
<!-- Node10 -->
<g id="Node000010" class="node">
<title>Node10</title>
<g id="a_Node000010"><a xlink:href="classCore_1_1DataExporter.html#a9c60512b8e80f25d5f1f6cac29b27d07" target="_top" xlink:title=" ">
<polygon fill="white" stroke="#666666" points="1148.38,-788 1047.62,-788 1047.62,-759 1148.38,-759 1148.38,-788"/>
<text xml:space="preserve" text-anchor="start" x="1055.62" y="-774.5" font-family="Helvetica,sans-Serif" font-size="10.00">Core::DataExporter</text>
<text xml:space="preserve" text-anchor="middle" x="1098" y="-764" font-family="Helvetica,sans-Serif" font-size="10.00">::prepare_matrix</text>
</a>
</g>
</g>
<!-- Node8&#45;&gt;Node10 -->
<g id="edge12_Node000008_Node000010" class="edge">
<title>Node8&#45;&gt;Node10</title>
<g id="a_edge12_Node000008_Node000010"><a xlink:title=" ">
<path fill="none" stroke="#63b8ff" d="M998.59,-748.25C1010.82,-751.39 1023.9,-754.74 1036.4,-757.95"/>
<polygon fill="#63b8ff" stroke="#63b8ff" points="1035.18,-761.25 1045.73,-760.35 1036.92,-754.47 1035.18,-761.25"/>
</a>
</g>
</g>
<!-- Node9&#45;&gt;Node9 -->
<g id="edge11_Node000009_Node000009" class="edge">
<title>Node9&#45;&gt;Node9</title>
<g id="a_edge11_Node000009_Node000009"><a xlink:title=" ">
<path fill="none" stroke="#63b8ff" d="M1220.97,-740C1210.07,-748.57 1217.54,-757.75 1243.38,-757.75 1257.91,-757.75 1266.63,-754.84 1269.54,-750.78"/>
<polygon fill="#63b8ff" stroke="#63b8ff" points="1272.88,-749.72 1266.28,-741.42 1266.27,-752.02 1272.88,-749.72"/>
</a>
</g>
</g>
<!-- Node12 -->
<g id="Node000012" class="node">
<title>Node12</title>
<g id="a_Node000012"><a xlink:href="classSimulation_1_1Getter.html#ae948f113363f8ab858797a17c28a2e86" target="_top" xlink:title=" ">
<polygon fill="white" stroke="#666666" points="1145.38,-702 1050.62,-702 1050.62,-673 1145.38,-673 1145.38,-702"/>
<text xml:space="preserve" text-anchor="start" x="1058.62" y="-688.5" font-family="Helvetica,sans-Serif" font-size="10.00">Simulation::Getter</text>
<text xml:space="preserve" text-anchor="middle" x="1098" y="-678" font-family="Helvetica,sans-Serif" font-size="10.00">::mc_unit</text>
</a>
</g>
</g>
<!-- Node11&#45;&gt;Node12 -->
<g id="edge14_Node000011_Node000012" class="edge">
<title>Node11&#45;&gt;Node12</title>
<g id="a_edge14_Node000011_Node000012"><a xlink:title=" ">
<path fill="none" stroke="#63b8ff" d="M999.88,-687.5C1012.51,-687.5 1025.98,-687.5 1038.75,-687.5"/>
<polygon fill="#63b8ff" stroke="#63b8ff" points="1038.72,-691 1048.72,-687.5 1038.72,-684 1038.72,-691"/>
</a>
</g>
</g>
<!-- Node14 -->
<g id="Node000014" class="node">
<title>Node14</title>
<g id="a_Node000014"><a xlink:href="classCore_1_1DataExporter.html#a0af9b5e13d16339af1918f8e845193f9" target="_top" xlink:title=" ">
<polygon fill="white" stroke="#666666" points="1148.38,-655 1047.62,-655 1047.62,-626 1148.38,-626 1148.38,-655"/>
<text xml:space="preserve" text-anchor="start" x="1055.62" y="-641.5" font-family="Helvetica,sans-Serif" font-size="10.00">Core::DataExporter</text>
<text xml:space="preserve" text-anchor="middle" x="1098" y="-631" font-family="Helvetica,sans-Serif" font-size="10.00">::append_matrix</text>
</a>
</g>
</g>
<!-- Node13&#45;&gt;Node14 -->
<g id="edge16_Node000013_Node000014" class="edge">
<title>Node13&#45;&gt;Node14</title>
<g id="a_edge16_Node000013_Node000014"><a xlink:title=" ">
<path fill="none" stroke="#63b8ff" d="M1003.33,-640.5C1014.03,-640.5 1025.22,-640.5 1036,-640.5"/>
<polygon fill="#63b8ff" stroke="#63b8ff" points="1035.97,-644 1045.97,-640.5 1035.97,-637 1035.97,-644"/>
</a>
</g>
</g>
<!-- Node16 -->
<g id="Node000016" class="node">
<title>Node16</title>
<g id="a_Node000016"><a xlink:href="namespacePostProcessing.html#adae52b6b518e25be1c920f36f196ef65" target="_top" xlink:title=" ">
<polygon fill="white" stroke="#666666" points="1002.25,-872 885.75,-872 885.75,-843 1002.25,-843 1002.25,-872"/>
<text xml:space="preserve" text-anchor="start" x="893.75" y="-858.5" font-family="Helvetica,sans-Serif" font-size="10.00">PostProcessing::_save</text>
<text xml:space="preserve" text-anchor="middle" x="944" y="-848" font-family="Helvetica,sans-Serif" font-size="10.00">_probes</text>
</a>
</g>
</g>
<!-- Node15&#45;&gt;Node16 -->
<g id="edge18_Node000015_Node000016" class="edge">
<title>Node15&#45;&gt;Node16</title>
<g id="a_edge18_Node000015_Node000016"><a xlink:title=" ">
<path fill="none" stroke="#63b8ff" d="M830.04,-784.49C836.49,-787.26 843.01,-790.3 849,-793.5 872.28,-805.94 896.88,-822.84 915.08,-836.15"/>
<polygon fill="#63b8ff" stroke="#63b8ff" points="912.63,-838.69 922.75,-841.84 916.8,-833.07 912.63,-838.69"/>
</a>
</g>
</g>
<!-- Node22 -->
<g id="Node000022" class="node">
<title>Node22</title>
<g id="a_Node000022"><a xlink:href="classSimulation_1_1Getter.html#ab2fa179687f4810f64d4c1c2beb7800c" target="_top" xlink:title=" ">
<polygon fill="white" stroke="#666666" points="991.38,-796 896.62,-796 896.62,-767 991.38,-767 991.38,-796"/>
<text xml:space="preserve" text-anchor="start" x="904.62" y="-782.5" font-family="Helvetica,sans-Serif" font-size="10.00">Simulation::Getter</text>
<text xml:space="preserve" text-anchor="middle" x="944" y="-772" font-family="Helvetica,sans-Serif" font-size="10.00">::it_probes</text>
</a>
</g>
</g>
<!-- Node15&#45;&gt;Node22 -->
<g id="edge25_Node000015_Node000022" class="edge">
<title>Node15&#45;&gt;Node22</title>
<g id="a_edge25_Node000015_Node000022"><a xlink:title=" ">
<path fill="none" stroke="#63b8ff" d="M844.48,-773.8C857.66,-774.83 871.76,-775.93 885.07,-776.97"/>
<polygon fill="#63b8ff" stroke="#63b8ff" points="884.76,-780.46 895,-777.75 885.3,-773.48 884.76,-780.46"/>
</a>
</g>
</g>
<!-- Node17 -->
<g id="Node000017" class="node">
<title>Node17</title>
<g id="a_Node000017"><a xlink:href="classSimulation_1_1Probes.html#af54f1c8be6e49f63e8533d6a4e91cad3" target="_top" xlink:title=" ">
<polygon fill="white" stroke="#666666" points="1147.25,-872 1048.75,-872 1048.75,-843 1147.25,-843 1147.25,-872"/>
<text xml:space="preserve" text-anchor="start" x="1056.75" y="-858.5" font-family="Helvetica,sans-Serif" font-size="10.00">Simulation::Probes</text>
<text xml:space="preserve" text-anchor="middle" x="1098" y="-848" font-family="Helvetica,sans-Serif" font-size="10.00">::clear</text>
</a>
</g>
</g>
<!-- Node16&#45;&gt;Node17 -->
<g id="edge19_Node000016_Node000017" class="edge">
<title>Node16&#45;&gt;Node17</title>
<g id="a_edge19_Node000016_Node000017"><a xlink:title=" ">
<path fill="none" stroke="#63b8ff" d="M1002.46,-857.5C1013.81,-857.5 1025.75,-857.5 1037.18,-857.5"/>
<polygon fill="#63b8ff" stroke="#63b8ff" points="1036.88,-861 1046.88,-857.5 1036.88,-854 1036.88,-861"/>
</a>
</g>
</g>
<!-- Node18 -->
<g id="Node000018" class="node">
<title>Node18</title>
<g id="a_Node000018"><a xlink:href="classSimulation_1_1Probes.html#a6345c8304e772a314dae935f742d518a" target="_top" xlink:title=" ">
<polygon fill="white" stroke="#666666" points="1157,-824.75 1039,-824.75 1039,-806.25 1157,-806.25 1157,-824.75"/>
<text xml:space="preserve" text-anchor="middle" x="1098" y="-811.25" font-family="Helvetica,sans-Serif" font-size="10.00">Simulation::Probes::get</text>
</a>
</g>
</g>
<!-- Node16&#45;&gt;Node18 -->
<g id="edge20_Node000016_Node000018" class="edge">
<title>Node16&#45;&gt;Node18</title>
<g id="a_edge20_Node000016_Node000018"><a xlink:title=" ">
<path fill="none" stroke="#63b8ff" d="M999.02,-842.57C1016.07,-837.86 1034.74,-832.7 1051.17,-828.16"/>
<polygon fill="#63b8ff" stroke="#63b8ff" points="1051.97,-831.57 1060.68,-825.54 1050.11,-824.83 1051.97,-831.57"/>
</a>
</g>
</g>
<!-- Node19 -->
<g id="Node000019" class="node">
<title>Node19</title>
<g id="a_Node000019"><a xlink:href="classSimulation_1_1Probes.html#a2b8541ff7ad653204a955ff1feb78757" target="_top" xlink:title=" ">
<polygon fill="white" stroke="#666666" points="1147.25,-966 1048.75,-966 1048.75,-937 1147.25,-937 1147.25,-966"/>
<text xml:space="preserve" text-anchor="start" x="1056.75" y="-952.5" font-family="Helvetica,sans-Serif" font-size="10.00">Simulation::Probes</text>
<text xml:space="preserve" text-anchor="middle" x="1098" y="-942" font-family="Helvetica,sans-Serif" font-size="10.00">::need_export</text>
</a>
</g>
</g>
<!-- Node16&#45;&gt;Node19 -->
<g id="edge21_Node000016_Node000019" class="edge">
<title>Node16&#45;&gt;Node19</title>
<g id="a_edge21_Node000016_Node000019"><a xlink:title=" ">
<path fill="none" stroke="#63b8ff" d="M961.7,-872.33C979.78,-887.85 1009.94,-912.16 1039,-928.5 1041.03,-929.64 1043.13,-930.75 1045.26,-931.83"/>
<polygon fill="#63b8ff" stroke="#63b8ff" points="1043.58,-934.9 1054.12,-935.99 1046.55,-928.57 1043.58,-934.9"/>
</a>
</g>
</g>
<!-- Node20 -->
<g id="Node000020" class="node">
<title>Node20</title>
<g id="a_Node000020"><a xlink:href="classCore_1_1PartialExporter.html#a53c54ce796df99b407f410beb01074c5" target="_top" xlink:title="Writes probe data to the export.">
<polygon fill="white" stroke="#666666" points="1152.5,-919 1043.5,-919 1043.5,-890 1152.5,-890 1152.5,-919"/>
<text xml:space="preserve" text-anchor="start" x="1051.5" y="-905.5" font-family="Helvetica,sans-Serif" font-size="10.00">Core::PartialExporter</text>
<text xml:space="preserve" text-anchor="middle" x="1098" y="-895" font-family="Helvetica,sans-Serif" font-size="10.00">::write_probe</text>
</a>
</g>
</g>
<!-- Node16&#45;&gt;Node20 -->
<g id="edge22_Node000016_Node000020" class="edge">
<title>Node16&#45;&gt;Node20</title>
<g id="a_edge22_Node000016_Node000020"><a xlink:title=" ">
<path fill="none" stroke="#63b8ff" d="M993.09,-872.37C1007.37,-876.79 1023.17,-881.67 1038.06,-886.27"/>
<polygon fill="#63b8ff" stroke="#63b8ff" points="1036.66,-889.51 1047.25,-889.12 1038.73,-882.82 1036.66,-889.51"/>
</a>
</g>
</g>
<!-- Node20&#45;&gt;Node9 -->
<g id="edge24_Node000020_Node000009" class="edge">
<title>Node20&#45;&gt;Node9</title>
<g id="a_edge24_Node000020_Node000009"><a xlink:title=" ">
<path fill="none" stroke="#63b8ff" d="M1145.35,-889.58C1149.52,-887.24 1153.49,-884.56 1157,-881.5 1198.87,-845.01 1224.73,-782.72 1235.91,-750.75"/>
<polygon fill="#63b8ff" stroke="#63b8ff" points="1239.14,-752.12 1239,-741.53 1232.5,-749.9 1239.14,-752.12"/>
</a>
</g>
</g>
<!-- Node21 -->
<g id="Node000021" class="node">
<title>Node21</title>
<g id="a_Node000021"><a xlink:href="classCore_1_1DataExporter.html#a0b0b79f3932c4eb905704a852248c857" target="_top" xlink:title=" ">
<polygon fill="white" stroke="#666666" points="1293.75,-919 1193,-919 1193,-890 1293.75,-890 1293.75,-919"/>
<text xml:space="preserve" text-anchor="start" x="1201" y="-905.5" font-family="Helvetica,sans-Serif" font-size="10.00">Core::DataExporter</text>
<text xml:space="preserve" text-anchor="middle" x="1243.38" y="-895" font-family="Helvetica,sans-Serif" font-size="10.00">::append_array</text>
</a>
</g>
</g>
<!-- Node20&#45;&gt;Node21 -->
<g id="edge23_Node000020_Node000021" class="edge">
<title>Node20&#45;&gt;Node21</title>
<g id="a_edge23_Node000020_Node000021"><a xlink:title=" ">
<path fill="none" stroke="#63b8ff" d="M1152.8,-904.5C1162.06,-904.5 1171.75,-904.5 1181.19,-904.5"/>
<polygon fill="#63b8ff" stroke="#63b8ff" points="1181.03,-908 1191.03,-904.5 1181.03,-901 1181.03,-908"/>
</a>
</g>
</g>
<!-- Node25&#45;&gt;Node5 -->
<g id="edge30_Node000025_Node000005" class="edge">
<title>Node25&#45;&gt;Node5</title>
<g id="a_edge30_Node000025_Node000005"><a xlink:title=" ">
<path fill="none" stroke="#63b8ff" d="M553.87,-711.39C576.68,-728.5 614,-756.48 637.6,-774.17"/>
<polygon fill="#63b8ff" stroke="#63b8ff" points="635.18,-776.73 645.28,-779.93 639.38,-771.13 635.18,-776.73"/>
</a>
</g>
</g>
<!-- Node25&#45;&gt;Node9 -->
<g id="edge31_Node000025_Node000009" class="edge">
<title>Node25&#45;&gt;Node9</title>
<g id="a_edge31_Node000025_Node000009"><a xlink:title=" ">
<path fill="none" stroke="#63b8ff" d="M555.6,-681.68C598.03,-654.06 696.08,-597.5 787.5,-597.5 787.5,-597.5 787.5,-597.5 945,-597.5 1039.6,-597.5 1074.38,-570.43 1157,-616.5 1195.19,-637.8 1221.35,-684.06 1233.89,-710.65"/>
<polygon fill="#63b8ff" stroke="#63b8ff" points="1230.63,-711.94 1237.93,-719.63 1237.02,-709.07 1230.63,-711.94"/>
</a>
</g>
</g>
<!-- Node39&#45;&gt;Node39 -->
<g id="edge46_Node000039_Node000039" class="edge">
<title>Node39&#45;&gt;Node39</title>
<g id="a_edge46_Node000039_Node000039"><a xlink:title=" ">
<path fill="none" stroke="#63b8ff" d="M190.94,-29.21C184.26,-38.32 193.49,-47 218.62,-47 232.37,-47 241.36,-44.41 245.59,-40.56"/>
<polygon fill="#63b8ff" stroke="#63b8ff" points="249.08,-40.92 246.22,-30.72 242.09,-40.47 249.08,-40.92"/>
</a>
</g>
</g>
</g>
</svg>
