<?xml version="1.0" encoding="UTF-8" standalone="no"?>
<!DOCTYPE svg PUBLIC "-//W3C//DTD SVG 1.1//EN"
 "http://www.w3.org/Graphics/SVG/1.1/DTD/svg11.dtd">
<!-- Generated by graphviz version 14.0.1 (0)
 -->
<!-- Title: Api::SimulationInstance::exec Pages: 1 -->
<svg width="688pt" height="225pt"
 viewBox="0.00 0.00 688.00 225.00" xmlns="http://www.w3.org/2000/svg" xmlns:xlink="http://www.w3.org/1999/xlink">
<g id="graph0" class="graph" transform="scale(1 1) rotate(0) translate(4 221)">
<title>Api::SimulationInstance::exec</title>
<!-- Node1 -->
<g id="Node000001" class="node">
<title>Node1</title>
<g id="a_Node000001"><a xlink:title="Execute the simulation.">
<polygon fill="#999999" stroke="#666666" points="119.5,-104 0,-104 0,-75 119.5,-75 119.5,-104"/>
<text xml:space="preserve" text-anchor="start" x="8" y="-90.5" font-family="Helvetica,sans-Serif" font-size="10.00">Api::SimulationInstance</text>
<text xml:space="preserve" text-anchor="middle" x="59.75" y="-80" font-family="Helvetica,sans-Serif" font-size="10.00">::exec</text>
</a>
</g>
</g>
<!-- Node2 -->
<g id="Node000002" class="node">
<title>Node2</title>
<g id="a_Node000002"><a xlink:href="namespaceCore.html#ab6528e76111960864b7e4741327b3049" target="_top" xlink:title="Start simulation.">
<polygon fill="white" stroke="#666666" points="218.75,-117.75 155.5,-117.75 155.5,-99.25 218.75,-99.25 218.75,-117.75"/>
<text xml:space="preserve" text-anchor="middle" x="187.12" y="-104.25" font-family="Helvetica,sans-Serif" font-size="10.00">Core::exec</text>
</a>
</g>
</g>
<!-- Node1&#45;&gt;Node2 -->
<g id="edge1_Node000001_Node000002" class="edge">
<title>Node1&#45;&gt;Node2</title>
<g id="a_edge1_Node000001_Node000002"><a xlink:title=" ">
<path fill="none" stroke="#63b8ff" d="M119.77,-98.44C127.86,-99.67 136.04,-100.91 143.76,-102.08"/>
<polygon fill="#63b8ff" stroke="#63b8ff" points="143.14,-105.53 153.56,-103.56 144.19,-98.61 143.14,-105.53"/>
</a>
</g>
</g>
<!-- Node15 -->
<g id="Node000015" class="node">
<title>Node15</title>
<g id="a_Node000015"><a xlink:href="namespaceIO.html#a30cc77fc5c4d45d3b56ef6a299ce2383" target="_top" xlink:title=" ">
<polygon fill="white" stroke="#666666" points="217.25,-80.75 157,-80.75 157,-62.25 217.25,-62.25 217.25,-80.75"/>
<text xml:space="preserve" text-anchor="middle" x="187.12" y="-67.25" font-family="Helvetica,sans-Serif" font-size="10.00">IO::format</text>
</a>
</g>
</g>
<!-- Node1&#45;&gt;Node15 -->
<g id="edge15_Node000001_Node000015" class="edge">
<title>Node1&#45;&gt;Node15</title>
<g id="a_edge15_Node000001_Node000015"><a xlink:title=" ">
<path fill="none" stroke="#63b8ff" d="M119.77,-81.03C128.49,-79.78 137.3,-78.51 145.53,-77.33"/>
<polygon fill="#63b8ff" stroke="#63b8ff" points="145.81,-80.82 155.21,-75.94 144.82,-73.89 145.81,-80.82"/>
</a>
</g>
</g>
<!-- Node3 -->
<g id="Node000003" class="node">
<title>Node3</title>
<g id="a_Node000003"><a xlink:href="namespaceCore.html#a23e6f3d22fc51ef9decabb2c220b27c4" target="_top" xlink:title=" ">
<polygon fill="white" stroke="#666666" points="375.75,-159.75 254.75,-159.75 254.75,-141.25 375.75,-141.25 375.75,-159.75"/>
<text xml:space="preserve" text-anchor="middle" x="315.25" y="-146.25" font-family="Helvetica,sans-Serif" font-size="10.00">Core::exporter_filename</text>
</a>
</g>
</g>
<!-- Node2&#45;&gt;Node3 -->
<g id="edge2_Node000002_Node000003" class="edge">
<title>Node2&#45;&gt;Node3</title>
<g id="a_edge2_Node000002_Node000003"><a xlink:title=" ">
<path fill="none" stroke="#63b8ff" d="M219.19,-111.61C230.36,-115.13 243.08,-119.64 254.75,-123.5 267.51,-127.72 281.93,-132.1 293.38,-136.51"/>
<polygon fill="#63b8ff" stroke="#63b8ff" points="291.7,-139.6 302.27,-140.33 294.47,-133.17 291.7,-139.6"/>
</a>
</g>
</g>
<!-- Node4 -->
<g id="Node000004" class="node">
<title>Node4</title>
<g id="a_Node000004"><a xlink:href="namespaceCore.html#afbce0beea293a7ccfdfc34a85b5e5e77" target="_top" xlink:title=" ">
<polygon fill="white" stroke="#666666" points="359.25,-123 271.25,-123 271.25,-94 359.25,-94 359.25,-123"/>
<text xml:space="preserve" text-anchor="start" x="279.25" y="-109.5" font-family="Helvetica,sans-Serif" font-size="10.00">Core::init_partial</text>
<text xml:space="preserve" text-anchor="middle" x="315.25" y="-99" font-family="Helvetica,sans-Serif" font-size="10.00">_exporter</text>
</a>
</g>
</g>
<!-- Node2&#45;&gt;Node4 -->
<g id="edge4_Node000002_Node000004" class="edge">
<title>Node2&#45;&gt;Node4</title>
<g id="a_edge4_Node000002_Node000004"><a xlink:title=" ">
<path fill="none" stroke="#63b8ff" d="M218.98,-108.5C231.17,-108.5 245.56,-108.5 259.41,-108.5"/>
<polygon fill="#63b8ff" stroke="#63b8ff" points="259.34,-112 269.34,-108.5 259.34,-105 259.34,-112"/>
</a>
</g>
</g>
<!-- Node10 -->
<g id="Node000010" class="node">
<title>Node10</title>
<g id="a_Node000010"><a xlink:href="namespacePostProcessing.html#a0e06c75e06cf43e767d5e3e8afab62f2" target="_top" xlink:title=" ">
<polygon fill="white" stroke="#666666" points="370.88,-76 259.62,-76 259.62,-47 370.88,-47 370.88,-76"/>
<text xml:space="preserve" text-anchor="start" x="267.62" y="-62.5" font-family="Helvetica,sans-Serif" font-size="10.00">PostProcessing::save</text>
<text xml:space="preserve" text-anchor="middle" x="315.25" y="-52" font-family="Helvetica,sans-Serif" font-size="10.00">_probes</text>
</a>
</g>
</g>
<!-- Node2&#45;&gt;Node10 -->
<g id="edge10_Node000002_Node000010" class="edge">
<title>Node2&#45;&gt;Node10</title>
<g id="a_edge10_Node000002_Node000010"><a xlink:title=" ">
<path fill="none" stroke="#63b8ff" d="M214.26,-98.76C228.6,-93.42 246.87,-86.61 263.87,-80.28"/>
<polygon fill="#63b8ff" stroke="#63b8ff" points="264.67,-83.71 272.82,-76.94 262.22,-77.15 264.67,-83.71"/>
</a>
</g>
</g>
<!-- Node14 -->
<g id="Node000014" class="node">
<title>Node14</title>
<g id="a_Node000014"><a xlink:href="classCore_1_1DataExporter.html#ad3b98151595b0962c089a7afcdb2a642" target="_top" xlink:title=" ">
<polygon fill="white" stroke="#666666" points="365.62,-29 264.88,-29 264.88,0 365.62,0 365.62,-29"/>
<text xml:space="preserve" text-anchor="start" x="272.88" y="-15.5" font-family="Helvetica,sans-Serif" font-size="10.00">Core::DataExporter</text>
<text xml:space="preserve" text-anchor="middle" x="315.25" y="-5" font-family="Helvetica,sans-Serif" font-size="10.00">::set_logger</text>
</a>
</g>
</g>
<!-- Node2&#45;&gt;Node14 -->
<g id="edge14_Node000002_Node000014" class="edge">
<title>Node2&#45;&gt;Node14</title>
<g id="a_edge14_Node000002_Node000014"><a xlink:title=" ">
<path fill="none" stroke="#63b8ff" d="M206.48,-98.77C210.75,-96.08 215.11,-92.93 218.75,-89.5 238.94,-70.47 233,-55.72 254.75,-38.5 256.25,-37.31 257.82,-36.17 259.44,-35.09"/>
<polygon fill="#63b8ff" stroke="#63b8ff" points="260.99,-38.23 267.85,-30.16 257.45,-32.19 260.99,-38.23"/>
</a>
</g>
</g>
<!-- Node3&#45;&gt;Node2 -->
<g id="edge3_Node000003_Node000002" class="edge">
<title>Node3&#45;&gt;Node2</title>
<g id="a_edge3_Node000003_Node000002"><a xlink:title=" ">
<path fill="none" stroke="#63b8ff" d="M254.27,-141.34C238.47,-136.1 220.82,-129.69 207.73,-123.5"/>
<polygon fill="#63b8ff" stroke="#63b8ff" points="209.38,-120.42 198.9,-118.85 206.12,-126.61 209.38,-120.42"/>
</a>
</g>
</g>
<!-- Node5 -->
<g id="Node000005" class="node">
<title>Node5</title>
<g id="a_Node000005"><a xlink:href="classCore_1_1PartialExporter.html#a05cba8c28abaecce99f586d551a75f80" target="_top" xlink:title="Initializes the fields required for exporting data.">
<polygon fill="white" stroke="#666666" points="532,-217 423,-217 423,-188 532,-188 532,-217"/>
<text xml:space="preserve" text-anchor="start" x="431" y="-203.5" font-family="Helvetica,sans-Serif" font-size="10.00">Core::PartialExporter</text>
<text xml:space="preserve" text-anchor="middle" x="477.5" y="-193" font-family="Helvetica,sans-Serif" font-size="10.00">::init_fields</text>
</a>
</g>
</g>
<!-- Node4&#45;&gt;Node5 -->
<g id="edge5_Node000004_Node000005" class="edge">
<title>Node4&#45;&gt;Node5</title>
<g id="a_edge5_Node000004_Node000005"><a xlink:title=" ">
<path fill="none" stroke="#63b8ff" d="M359.67,-122.79C365.35,-125.57 370.87,-128.79 375.75,-132.5 396.69,-148.43 390.48,-164.01 411.75,-179.5 413.08,-180.47 414.45,-181.39 415.85,-182.29"/>
<polygon fill="#63b8ff" stroke="#63b8ff" points="413.79,-185.15 424.24,-186.93 417.18,-179.02 413.79,-185.15"/>
</a>
</g>
</g>
<!-- Node7 -->
<g id="Node000007" class="node">
<title>Node7</title>
<g id="a_Node000007"><a xlink:href="namespacePostProcessing.html#a9ff9231cbdf2a3c4e539c4638aba2445" target="_top" xlink:title=" ">
<polygon fill="white" stroke="#666666" points="533.12,-170 421.88,-170 421.88,-141 533.12,-141 533.12,-170"/>
<text xml:space="preserve" text-anchor="start" x="429.88" y="-156.5" font-family="Helvetica,sans-Serif" font-size="10.00">PostProcessing::save</text>
<text xml:space="preserve" text-anchor="middle" x="477.5" y="-146" font-family="Helvetica,sans-Serif" font-size="10.00">_particle_state</text>
</a>
</g>
</g>
<!-- Node4&#45;&gt;Node7 -->
<g id="edge7_Node000004_Node000007" class="edge">
<title>Node4&#45;&gt;Node7</title>
<g id="a_edge7_Node000004_Node000007"><a xlink:title=" ">
<path fill="none" stroke="#63b8ff" d="M359.62,-121.22C376.51,-126.17 396.18,-131.94 414.51,-137.32"/>
<polygon fill="#63b8ff" stroke="#63b8ff" points="413.39,-140.64 423.97,-140.09 415.36,-133.92 413.39,-140.64"/>
</a>
</g>
</g>
<!-- Node8 -->
<g id="Node000008" class="node">
<title>Node8</title>
<g id="a_Node000008"><a xlink:href="classCore_1_1PartialExporter.html#a450fb0c92efa4ee81b4083fc01f5e665" target="_top" xlink:title="Writes the number of particles in each compartment.">
<polygon fill="white" stroke="#666666" points="536.5,-123 418.5,-123 418.5,-94 536.5,-94 536.5,-123"/>
<text xml:space="preserve" text-anchor="start" x="426.5" y="-109.5" font-family="Helvetica,sans-Serif" font-size="10.00">Core::PartialExporter</text>
<text xml:space="preserve" text-anchor="middle" x="477.5" y="-99" font-family="Helvetica,sans-Serif" font-size="10.00">::write_number_particle</text>
</a>
</g>
</g>
<!-- Node4&#45;&gt;Node8 -->
<g id="edge8_Node000004_Node000008" class="edge">
<title>Node4&#45;&gt;Node8</title>
<g id="a_edge8_Node000004_Node000008"><a xlink:title=" ">
<path fill="none" stroke="#63b8ff" d="M359.62,-108.5C374.09,-108.5 390.6,-108.5 406.56,-108.5"/>
<polygon fill="#63b8ff" stroke="#63b8ff" points="406.54,-112 416.54,-108.5 406.54,-105 406.54,-112"/>
</a>
</g>
</g>
<!-- Node6 -->
<g id="Node000006" class="node">
<title>Node6</title>
<g id="a_Node000006"><a xlink:href="classCore_1_1DataExporter.html#a9c60512b8e80f25d5f1f6cac29b27d07" target="_top" xlink:title=" ">
<polygon fill="white" stroke="#666666" points="680,-217 579.25,-217 579.25,-188 680,-188 680,-217"/>
<text xml:space="preserve" text-anchor="start" x="587.25" y="-203.5" font-family="Helvetica,sans-Serif" font-size="10.00">Core::DataExporter</text>
<text xml:space="preserve" text-anchor="middle" x="629.62" y="-193" font-family="Helvetica,sans-Serif" font-size="10.00">::prepare_matrix</text>
</a>
</g>
</g>
<!-- Node5&#45;&gt;Node6 -->
<g id="edge6_Node000005_Node000006" class="edge">
<title>Node5&#45;&gt;Node6</title>
<g id="a_edge6_Node000005_Node000006"><a xlink:title=" ">
<path fill="none" stroke="#63b8ff" d="M532.27,-202.5C543.88,-202.5 556.22,-202.5 568.07,-202.5"/>
<polygon fill="#63b8ff" stroke="#63b8ff" points="567.71,-206 577.71,-202.5 567.71,-199 567.71,-206"/>
</a>
</g>
</g>
<!-- Node9 -->
<g id="Node000009" class="node">
<title>Node9</title>
<g id="a_Node000009"><a xlink:href="classCore_1_1DataExporter.html#a0af9b5e13d16339af1918f8e845193f9" target="_top" xlink:title=" ">
<polygon fill="white" stroke="#666666" points="680,-123 579.25,-123 579.25,-94 680,-94 680,-123"/>
<text xml:space="preserve" text-anchor="start" x="587.25" y="-109.5" font-family="Helvetica,sans-Serif" font-size="10.00">Core::DataExporter</text>
<text xml:space="preserve" text-anchor="middle" x="629.62" y="-99" font-family="Helvetica,sans-Serif" font-size="10.00">::append_matrix</text>
</a>
</g>
</g>
<!-- Node8&#45;&gt;Node9 -->
<g id="edge9_Node000008_Node000009" class="edge">
<title>Node8&#45;&gt;Node9</title>
<g id="a_edge9_Node000008_Node000009"><a xlink:title=" ">
<path fill="none" stroke="#63b8ff" d="M536.97,-108.5C547.02,-108.5 557.49,-108.5 567.6,-108.5"/>
<polygon fill="#63b8ff" stroke="#63b8ff" points="567.32,-112 577.32,-108.5 567.32,-105 567.32,-112"/>
</a>
</g>
</g>
<!-- Node11 -->
<g id="Node000011" class="node">
<title>Node11</title>
<g id="a_Node000011"><a xlink:href="classSimulation_1_1SimulationUnit.html#a0d675ed463b0caaeea75be8bd87d72cc" target="_top" xlink:title=" ">
<polygon fill="white" stroke="#666666" points="543.25,-76 411.75,-76 411.75,-47 543.25,-47 543.25,-76"/>
<text xml:space="preserve" text-anchor="start" x="419.75" y="-62.5" font-family="Helvetica,sans-Serif" font-size="10.00">Simulation::SimulationUnit</text>
<text xml:space="preserve" text-anchor="middle" x="477.5" y="-52" font-family="Helvetica,sans-Serif" font-size="10.00">::get_probes</text>
</a>
</g>
</g>
<!-- Node10&#45;&gt;Node11 -->
<g id="edge11_Node000010_Node000011" class="edge">
<title>Node10&#45;&gt;Node11</title>
<g id="a_edge11_Node000010_Node000011"><a xlink:title=" ">
<path fill="none" stroke="#63b8ff" d="M370.95,-61.5C380.27,-61.5 390.1,-61.5 399.86,-61.5"/>
<polygon fill="#63b8ff" stroke="#63b8ff" points="399.74,-65 409.74,-61.5 399.74,-58 399.74,-65"/>
</a>
</g>
</g>
<!-- Node12 -->
<g id="Node000012" class="node">
<title>Node12</title>
<g id="a_Node000012"><a xlink:href="classCore_1_1PartialExporter.html#a9927dbf1350349f090606134043e190c" target="_top" xlink:title="Writes probe data to the export.">
<polygon fill="white" stroke="#666666" points="532,-29 423,-29 423,0 532,0 532,-29"/>
<text xml:space="preserve" text-anchor="start" x="431" y="-15.5" font-family="Helvetica,sans-Serif" font-size="10.00">Core::PartialExporter</text>
<text xml:space="preserve" text-anchor="middle" x="477.5" y="-5" font-family="Helvetica,sans-Serif" font-size="10.00">::write_probe</text>
</a>
</g>
</g>
<!-- Node10&#45;&gt;Node12 -->
<g id="edge12_Node000010_Node000012" class="edge">
<title>Node10&#45;&gt;Node12</title>
<g id="a_edge12_Node000010_Node000012"><a xlink:title=" ">
<path fill="none" stroke="#63b8ff" d="M366.95,-46.63C382.15,-42.17 398.99,-37.23 414.82,-32.59"/>
<polygon fill="#63b8ff" stroke="#63b8ff" points="415.51,-36.03 424.12,-29.86 413.54,-29.32 415.51,-36.03"/>
</a>
</g>
</g>
<!-- Node13 -->
<g id="Node000013" class="node">
<title>Node13</title>
<g id="a_Node000013"><a xlink:href="classCore_1_1DataExporter.html#a0b0b79f3932c4eb905704a852248c857" target="_top" xlink:title=" ">
<polygon fill="white" stroke="#666666" points="680,-29 579.25,-29 579.25,0 680,0 680,-29"/>
<text xml:space="preserve" text-anchor="start" x="587.25" y="-15.5" font-family="Helvetica,sans-Serif" font-size="10.00">Core::DataExporter</text>
<text xml:space="preserve" text-anchor="middle" x="629.62" y="-5" font-family="Helvetica,sans-Serif" font-size="10.00">::append_array</text>
</a>
</g>
</g>
<!-- Node12&#45;&gt;Node13 -->
<g id="edge13_Node000012_Node000013" class="edge">
<title>Node12&#45;&gt;Node13</title>
<g id="a_edge13_Node000012_Node000013"><a xlink:title=" ">
<path fill="none" stroke="#63b8ff" d="M532.27,-14.5C543.88,-14.5 556.22,-14.5 568.07,-14.5"/>
<polygon fill="#63b8ff" stroke="#63b8ff" points="567.71,-18 577.71,-14.5 567.71,-11 567.71,-18"/>
</a>
</g>
</g>
</g>
</svg>
