<?xml version="1.0" encoding="UTF-8" standalone="no"?>
<!DOCTYPE svg PUBLIC "-//W3C//DTD SVG 1.1//EN"
 "http://www.w3.org/Graphics/SVG/1.1/DTD/svg11.dtd">
<!-- Generated by graphviz version 14.0.1 (0)
 -->
<!-- Title: Models::Monod::update Pages: 1 -->
<svg width="275pt" height="64pt"
 viewBox="0.00 0.00 275.00 64.00" xmlns="http://www.w3.org/2000/svg" xmlns:xlink="http://www.w3.org/1999/xlink">
<g id="graph0" class="graph" transform="scale(1 1) rotate(0) translate(4 59.5)">
<title>Models::Monod::update</title>
<!-- Node1 -->
<g id="Node000001" class="node">
<title>Node1</title>
<g id="a_Node000001"><a xlink:title=" ">
<polygon fill="#999999" stroke="#666666" points="118,-36.5 0,-36.5 0,-18 118,-18 118,-36.5"/>
<text xml:space="preserve" text-anchor="middle" x="59" y="-23" font-family="Helvetica,sans-Serif" font-size="10.00">Models::Monod::update</text>
</a>
</g>
</g>
<!-- Node2 -->
<g id="Node000002" class="node">
<title>Node2</title>
<g id="a_Node000002"><a xlink:href="namespaceModels.html#a91f8e773246cdd315aada1f72f97983d" target="_top" xlink:title=" ">
<polygon fill="white" stroke="#666666" points="259.25,-55.5 161.5,-55.5 161.5,-37 259.25,-37 259.25,-55.5"/>
<text xml:space="preserve" text-anchor="middle" x="210.38" y="-42" font-family="Helvetica,sans-Serif" font-size="10.00">Models::check_div</text>
</a>
</g>
</g>
<!-- Node1&#45;&gt;Node2 -->
<g id="edge1_Node000001_Node000002" class="edge">
<title>Node1&#45;&gt;Node2</title>
<g id="a_edge1_Node000001_Node000002"><a xlink:title=" ">
<path fill="none" stroke="#63b8ff" d="M118.18,-34.65C128.65,-35.98 139.57,-37.37 150.07,-38.71"/>
<polygon fill="#63b8ff" stroke="#63b8ff" points="149.39,-42.15 159.75,-39.94 150.27,-35.2 149.39,-42.15"/>
</a>
</g>
</g>
<!-- Node3 -->
<g id="Node000003" class="node">
<title>Node3</title>
<g id="a_Node000003"><a xlink:href="structModels_1_1Monod.html#a60e5d75f1c8fd213f3f6b722cf7e7b22" target="_top" xlink:title=" ">
<polygon fill="white" stroke="#666666" points="266.75,-18.5 154,-18.5 154,0 266.75,0 266.75,-18.5"/>
<text xml:space="preserve" text-anchor="middle" x="210.38" y="-5" font-family="Helvetica,sans-Serif" font-size="10.00">Models::Monod::mass</text>
</a>
</g>
</g>
<!-- Node1&#45;&gt;Node3 -->
<g id="edge2_Node000001_Node000003" class="edge">
<title>Node1&#45;&gt;Node3</title>
<g id="a_edge2_Node000001_Node000003"><a xlink:title=" ">
<path fill="none" stroke="#63b8ff" d="M118.18,-20.24C126.09,-19.29 134.25,-18.3 142.3,-17.33"/>
<polygon fill="#63b8ff" stroke="#63b8ff" points="142.55,-20.83 152.05,-16.16 141.71,-13.88 142.55,-20.83"/>
</a>
</g>
</g>
</g>
</svg>
