<?xml version="1.0" encoding="UTF-8" standalone="no"?>
<!DOCTYPE svg PUBLIC "-//W3C//DTD SVG 1.1//EN"
 "http://www.w3.org/Graphics/SVG/1.1/DTD/svg11.dtd">
<!-- Generated by graphviz version 14.0.1 (0)
 -->
<!-- Title: Api::SimulationInstance::apply Pages: 1 -->
<svg width="929pt" height="386pt"
 viewBox="0.00 0.00 929.00 386.00" xmlns="http://www.w3.org/2000/svg" xmlns:xlink="http://www.w3.org/1999/xlink">
<g id="graph0" class="graph" transform="scale(1 1) rotate(0) translate(4 381.5)">
<title>Api::SimulationInstance::apply</title>
<!-- Node1 -->
<g id="Node000001" class="node">
<title>Node1</title>
<g id="a_Node000001"><a xlink:title="Apply the simulation configuration and prepare for execution.">
<polygon fill="#999999" stroke="#666666" points="119.5,-240.75 0,-240.75 0,-211.75 119.5,-211.75 119.5,-240.75"/>
<text xml:space="preserve" text-anchor="start" x="8" y="-227.25" font-family="Helvetica,sans-Serif" font-size="10.00">Api::SimulationInstance</text>
<text xml:space="preserve" text-anchor="middle" x="59.75" y="-216.75" font-family="Helvetica,sans-Serif" font-size="10.00">::apply</text>
</a>
</g>
</g>
<!-- Node2 -->
<g id="Node000002" class="node">
<title>Node2</title>
<g id="a_Node000002"><a xlink:href="classCore_1_1GlobalInitialiser.html#af0e3ff388be6a2cb08edf9f69dd200b0" target="_top" xlink:title="Checks if all initialization steps have been validated.">
<polygon fill="white" stroke="#666666" points="267.5,-360.75 155.5,-360.75 155.5,-331.75 267.5,-331.75 267.5,-360.75"/>
<text xml:space="preserve" text-anchor="start" x="163.5" y="-347.25" font-family="Helvetica,sans-Serif" font-size="10.00">Core::GlobalInitialiser</text>
<text xml:space="preserve" text-anchor="middle" x="211.5" y="-336.75" font-family="Helvetica,sans-Serif" font-size="10.00">::check_init_terminate</text>
</a>
</g>
</g>
<!-- Node1&#45;&gt;Node2 -->
<g id="edge1_Node000001_Node000002" class="edge">
<title>Node1&#45;&gt;Node2</title>
<g id="a_edge1_Node000001_Node000002"><a xlink:title=" ">
<path fill="none" stroke="#63b8ff" d="M74.25,-240.96C91.83,-259.61 124.04,-292.13 155.5,-315.25 160.41,-318.86 165.79,-322.37 171.19,-325.64"/>
<polygon fill="#63b8ff" stroke="#63b8ff" points="169.14,-328.5 179.55,-330.5 172.66,-322.45 169.14,-328.5"/>
</a>
</g>
</g>
<!-- Node4 -->
<g id="Node000004" class="node">
<title>Node4</title>
<g id="a_Node000004"><a xlink:href="classCore_1_1GlobalInitialiser.html#ae6d2f54a18d82dda373f9cd7ec923eac" target="_top" xlink:title=" ">
<polygon fill="white" stroke="#666666" points="266.38,-305.75 156.62,-305.75 156.62,-276.75 266.38,-276.75 266.38,-305.75"/>
<text xml:space="preserve" text-anchor="start" x="164.62" y="-292.25" font-family="Helvetica,sans-Serif" font-size="10.00">Core::GlobalInitialiser</text>
<text xml:space="preserve" text-anchor="middle" x="211.5" y="-281.75" font-family="Helvetica,sans-Serif" font-size="10.00">::get_parameters</text>
</a>
</g>
</g>
<!-- Node1&#45;&gt;Node4 -->
<g id="edge3_Node000001_Node000004" class="edge">
<title>Node1&#45;&gt;Node4</title>
<g id="a_edge3_Node000001_Node000004"><a xlink:title=" ">
<path fill="none" stroke="#63b8ff" d="M94,-241.19C112.14,-249.29 135.01,-259.42 155.5,-268.25 158.26,-269.44 161.09,-270.65 163.96,-271.87"/>
<polygon fill="#63b8ff" stroke="#63b8ff" points="162.39,-275.01 172.97,-275.68 165.12,-268.56 162.39,-275.01"/>
</a>
</g>
</g>
<!-- Node5 -->
<g id="Node000005" class="node">
<title>Node5</title>
<g id="a_Node000005"><a xlink:href="classCore_1_1GlobalInitialiser.html#aefbbc9e413134e0e080df2218316fe63" target="_top" xlink:title="Initializes a simulation feed.">
<polygon fill="white" stroke="#666666" points="423.38,-189.75 313.62,-189.75 313.62,-160.75 423.38,-160.75 423.38,-189.75"/>
<text xml:space="preserve" text-anchor="start" x="321.62" y="-176.25" font-family="Helvetica,sans-Serif" font-size="10.00">Core::GlobalInitialiser</text>
<text xml:space="preserve" text-anchor="middle" x="368.5" y="-165.75" font-family="Helvetica,sans-Serif" font-size="10.00">::init_feed</text>
</a>
</g>
</g>
<!-- Node1&#45;&gt;Node5 -->
<g id="edge4_Node000001_Node000005" class="edge">
<title>Node1&#45;&gt;Node5</title>
<g id="a_edge4_Node000001_Node000005"><a xlink:title=" ">
<path fill="none" stroke="#63b8ff" d="M118.16,-211.27C130.43,-208.37 143.35,-205.52 155.5,-203.25 204.31,-194.13 259.98,-186.9 302.02,-182.07"/>
<polygon fill="#63b8ff" stroke="#63b8ff" points="302.18,-185.57 311.72,-180.97 301.39,-178.62 302.18,-185.57"/>
</a>
</g>
</g>
<!-- Node8 -->
<g id="Node000008" class="node">
<title>Node8</title>
<g id="a_Node000008"><a xlink:href="classCore_1_1GlobalInitialiser.html#a00d0e7a7d549bf06886dfc3ba9de3e3d" target="_top" xlink:title="Initializes a simulation unit.">
<polygon fill="white" stroke="#666666" points="266.38,-240.75 156.62,-240.75 156.62,-211.75 266.38,-211.75 266.38,-240.75"/>
<text xml:space="preserve" text-anchor="start" x="164.62" y="-227.25" font-family="Helvetica,sans-Serif" font-size="10.00">Core::GlobalInitialiser</text>
<text xml:space="preserve" text-anchor="middle" x="211.5" y="-216.75" font-family="Helvetica,sans-Serif" font-size="10.00">::init_simulation</text>
</a>
</g>
</g>
<!-- Node1&#45;&gt;Node8 -->
<g id="edge7_Node000001_Node000008" class="edge">
<title>Node1&#45;&gt;Node8</title>
<g id="a_edge7_Node000001_Node000008"><a xlink:title=" ">
<path fill="none" stroke="#63b8ff" d="M119.94,-226.25C128.05,-226.25 136.42,-226.25 144.64,-226.25"/>
<polygon fill="#63b8ff" stroke="#63b8ff" points="144.61,-229.75 154.61,-226.25 144.61,-222.75 144.61,-229.75"/>
</a>
</g>
</g>
<!-- Node17 -->
<g id="Node000017" class="node">
<title>Node17</title>
<g id="a_Node000017"><a xlink:href="classCore_1_1GlobalInitialiser.html#a4fa32007b34a9e448be11ebd7d5e695f" target="_top" xlink:title="Initializes a transitioner with the provided flow iterator.">
<polygon fill="white" stroke="#666666" points="266.38,-108.75 156.62,-108.75 156.62,-79.75 266.38,-79.75 266.38,-108.75"/>
<text xml:space="preserve" text-anchor="start" x="164.62" y="-95.25" font-family="Helvetica,sans-Serif" font-size="10.00">Core::GlobalInitialiser</text>
<text xml:space="preserve" text-anchor="middle" x="211.5" y="-84.75" font-family="Helvetica,sans-Serif" font-size="10.00">::init_transitionner</text>
</a>
</g>
</g>
<!-- Node1&#45;&gt;Node17 -->
<g id="edge24_Node000001_Node000017" class="edge">
<title>Node1&#45;&gt;Node17</title>
<g id="a_edge24_Node000001_Node000017"><a xlink:title=" ">
<path fill="none" stroke="#63b8ff" d="M77.64,-211.36C103.95,-188.17 154.89,-143.27 185.48,-116.3"/>
<polygon fill="#63b8ff" stroke="#63b8ff" points="187.58,-119.12 192.77,-109.88 182.95,-113.87 187.58,-119.12"/>
</a>
</g>
</g>
<!-- Node3 -->
<g id="Node000003" class="node">
<title>Node3</title>
<g id="a_Node000003"><a xlink:href="namespaceIO.html#a30cc77fc5c4d45d3b56ef6a299ce2383" target="_top" xlink:title=" ">
<polygon fill="white" stroke="#666666" points="398.62,-359.5 338.38,-359.5 338.38,-341 398.62,-341 398.62,-359.5"/>
<text xml:space="preserve" text-anchor="middle" x="368.5" y="-346" font-family="Helvetica,sans-Serif" font-size="10.00">IO::format</text>
</a>
</g>
</g>
<!-- Node2&#45;&gt;Node3 -->
<g id="edge2_Node000002_Node000003" class="edge">
<title>Node2&#45;&gt;Node3</title>
<g id="a_edge2_Node000002_Node000003"><a xlink:title=" ">
<path fill="none" stroke="#63b8ff" d="M267.58,-347.67C287.14,-348.18 308.78,-348.73 326.91,-349.2"/>
<polygon fill="#63b8ff" stroke="#63b8ff" points="326.66,-352.7 336.74,-349.46 326.84,-345.7 326.66,-352.7"/>
</a>
</g>
</g>
<!-- Node6 -->
<g id="Node000006" class="node">
<title>Node6</title>
<g id="a_Node000006"><a xlink:href="classCore_1_1GlobalInitialiser.html#a5134f9db1f59d9124d5fdec88e3e99f3" target="_top" xlink:title="Checks the validity of specified initialization steps.">
<polygon fill="white" stroke="#666666" points="603.62,-189.75 493.88,-189.75 493.88,-160.75 603.62,-160.75 603.62,-189.75"/>
<text xml:space="preserve" text-anchor="start" x="501.88" y="-176.25" font-family="Helvetica,sans-Serif" font-size="10.00">Core::GlobalInitialiser</text>
<text xml:space="preserve" text-anchor="middle" x="548.75" y="-165.75" font-family="Helvetica,sans-Serif" font-size="10.00">::check_steps</text>
</a>
</g>
</g>
<!-- Node5&#45;&gt;Node6 -->
<g id="edge5_Node000005_Node000006" class="edge">
<title>Node5&#45;&gt;Node6</title>
<g id="a_edge5_Node000005_Node000006"><a xlink:title=" ">
<path fill="none" stroke="#63b8ff" d="M423.46,-175.25C441.97,-175.25 462.87,-175.25 482.19,-175.25"/>
<polygon fill="#63b8ff" stroke="#63b8ff" points="482.15,-178.75 492.15,-175.25 482.15,-171.75 482.15,-178.75"/>
</a>
</g>
</g>
<!-- Node7 -->
<g id="Node000007" class="node">
<title>Node7</title>
<g id="a_Node000007"><a xlink:href="classCore_1_1GlobalInitialiser.html#a3844076c910ed26f60f42bada71cc09e" target="_top" xlink:title="Validates the specified initialization step and any additional steps.">
<polygon fill="white" stroke="#666666" points="603.62,-142.75 493.88,-142.75 493.88,-113.75 603.62,-113.75 603.62,-142.75"/>
<text xml:space="preserve" text-anchor="start" x="501.88" y="-129.25" font-family="Helvetica,sans-Serif" font-size="10.00">Core::GlobalInitialiser</text>
<text xml:space="preserve" text-anchor="middle" x="548.75" y="-118.75" font-family="Helvetica,sans-Serif" font-size="10.00">::validate_step</text>
</a>
</g>
</g>
<!-- Node5&#45;&gt;Node7 -->
<g id="edge6_Node000005_Node000007" class="edge">
<title>Node5&#45;&gt;Node7</title>
<g id="a_edge6_Node000005_Node000007"><a xlink:title=" ">
<path fill="none" stroke="#63b8ff" d="M423.46,-161.02C442.14,-156.1 463.27,-150.53 482.73,-145.39"/>
<polygon fill="#63b8ff" stroke="#63b8ff" points="483.42,-148.83 492.2,-142.9 481.64,-142.06 483.42,-148.83"/>
</a>
</g>
</g>
<!-- Node8&#45;&gt;Node6 -->
<g id="edge8_Node000008_Node000006" class="edge">
<title>Node8&#45;&gt;Node6</title>
<g id="a_edge8_Node000008_Node000006"><a xlink:title=" ">
<path fill="none" stroke="#63b8ff" d="M250.28,-241.18C296.13,-256.8 374.6,-275.33 433.5,-246.25 457.09,-234.6 447.89,-214.27 469.5,-199.25 473.68,-196.34 478.23,-193.78 482.95,-191.52"/>
<polygon fill="#63b8ff" stroke="#63b8ff" points="484.27,-194.76 492.12,-187.64 481.54,-188.32 484.27,-194.76"/>
</a>
</g>
</g>
<!-- Node8&#45;&gt;Node8 -->
<g id="edge23_Node000008_Node000008" class="edge">
<title>Node8&#45;&gt;Node8</title>
<g id="a_edge23_Node000008_Node000008"><a xlink:title=" ">
<path fill="none" stroke="#63b8ff" d="M185.05,-240.96C178.68,-250.07 187.49,-258.75 211.5,-258.75 224.63,-258.75 233.21,-256.16 237.26,-252.31"/>
<polygon fill="#63b8ff" stroke="#63b8ff" points="240.74,-252.66 237.85,-242.47 233.75,-252.24 240.74,-252.66"/>
</a>
</g>
</g>
<!-- Node9 -->
<g id="Node000009" class="node">
<title>Node9</title>
<g id="a_Node000009"><a xlink:href="classCore_1_1GlobalInitialiser.html#a9b38d15538796d9cc115211890a6c081" target="_top" xlink:title="Initializes a Monte Carlo unit.">
<polygon fill="white" stroke="#666666" points="423.38,-322.75 313.62,-322.75 313.62,-293.75 423.38,-293.75 423.38,-322.75"/>
<text xml:space="preserve" text-anchor="start" x="321.62" y="-309.25" font-family="Helvetica,sans-Serif" font-size="10.00">Core::GlobalInitialiser</text>
<text xml:space="preserve" text-anchor="middle" x="368.5" y="-298.75" font-family="Helvetica,sans-Serif" font-size="10.00">::init_monte_carlo</text>
</a>
</g>
</g>
<!-- Node8&#45;&gt;Node9 -->
<g id="edge9_Node000008_Node000009" class="edge">
<title>Node8&#45;&gt;Node9</title>
<g id="a_edge9_Node000008_Node000009"><a xlink:title=" ">
<path fill="none" stroke="#63b8ff" d="M236.46,-241.1C254.6,-252.13 280.27,-267.26 303.5,-279.25 309.69,-282.44 316.3,-285.66 322.84,-288.72"/>
<polygon fill="#63b8ff" stroke="#63b8ff" points="321.06,-291.75 331.61,-292.75 323.98,-285.39 321.06,-291.75"/>
</a>
</g>
</g>
<!-- Node14 -->
<g id="Node000014" class="node">
<title>Node14</title>
<g id="a_Node000014"><a xlink:href="classCore_1_1GlobalInitialiser.html#aa84a61b25f475380b38306232e25aff6" target="_top" xlink:title="Initializes a scalar component of the simulation.">
<polygon fill="white" stroke="#666666" points="423.38,-236.75 313.62,-236.75 313.62,-207.75 423.38,-207.75 423.38,-236.75"/>
<text xml:space="preserve" text-anchor="start" x="321.62" y="-223.25" font-family="Helvetica,sans-Serif" font-size="10.00">Core::GlobalInitialiser</text>
<text xml:space="preserve" text-anchor="middle" x="368.5" y="-212.75" font-family="Helvetica,sans-Serif" font-size="10.00">::init_scalar</text>
</a>
</g>
</g>
<!-- Node8&#45;&gt;Node14 -->
<g id="edge18_Node000008_Node000014" class="edge">
<title>Node8&#45;&gt;Node14</title>
<g id="a_edge18_Node000008_Node000014"><a xlink:title=" ">
<path fill="none" stroke="#63b8ff" d="M266.71,-224.85C278.16,-224.56 290.35,-224.24 302.16,-223.94"/>
<polygon fill="#63b8ff" stroke="#63b8ff" points="301.9,-227.44 311.81,-223.69 301.72,-220.45 301.9,-227.44"/>
</a>
</g>
</g>
<!-- Node9&#45;&gt;Node6 -->
<g id="edge13_Node000009_Node000006" class="edge">
<title>Node9&#45;&gt;Node6</title>
<g id="a_edge13_Node000009_Node000006"><a xlink:title=" ">
<path fill="none" stroke="#63b8ff" d="M413.87,-293.28C421.02,-289.5 427.9,-284.86 433.5,-279.25 461.03,-251.64 440.26,-225.04 469.5,-199.25 473.61,-195.62 478.26,-192.54 483.2,-189.93"/>
<polygon fill="#63b8ff" stroke="#63b8ff" points="484.6,-193.14 492.26,-185.82 481.71,-186.76 484.6,-193.14"/>
</a>
</g>
</g>
<!-- Node9&#45;&gt;Node7 -->
<g id="edge17_Node000009_Node000007" class="edge">
<title>Node9&#45;&gt;Node7</title>
<g id="a_edge17_Node000009_Node000007"><a xlink:title=" ">
<path fill="none" stroke="#63b8ff" d="M388.78,-293.47C402.77,-281.89 421.31,-264.71 433.5,-246.25 458.15,-208.92 436.81,-182.79 469.5,-152.25 473.68,-148.35 478.47,-145.08 483.59,-142.34"/>
<polygon fill="#63b8ff" stroke="#63b8ff" points="484.73,-145.67 492.37,-138.34 481.82,-139.3 484.73,-145.67"/>
</a>
</g>
</g>
<!-- Node10 -->
<g id="Node000010" class="node">
<title>Node10</title>
<g id="a_Node000010"><a xlink:href="namespaceWrapMPI.html#a8237adbb04708d9bf4bae9e904d04f5f" target="_top" xlink:title=" ">
<polygon fill="white" stroke="#666666" points="770,-273.5 664,-273.5 664,-255 770,-255 770,-273.5"/>
<text xml:space="preserve" text-anchor="middle" x="717" y="-260" font-family="Helvetica,sans-Serif" font-size="10.00">WrapMPI::all_reduce</text>
</a>
</g>
</g>
<!-- Node9&#45;&gt;Node10 -->
<g id="edge10_Node000009_Node000010" class="edge">
<title>Node9&#45;&gt;Node10</title>
<g id="a_edge10_Node000009_Node000010"><a xlink:title=" ">
<path fill="none" stroke="#63b8ff" d="M423.72,-294.31C438.49,-290.92 454.54,-287.6 469.5,-285.25 531.3,-275.56 602.58,-270.1 652.54,-267.19"/>
<polygon fill="#63b8ff" stroke="#63b8ff" points="652.51,-270.7 662.3,-266.64 652.12,-263.71 652.51,-270.7"/>
</a>
</g>
</g>
<!-- Node12 -->
<g id="Node000012" class="node">
<title>Node12</title>
<g id="a_Node000012"><a xlink:href="classCmaUtils_1_1FlowMapTransitionner.html#a5ca5151ebfbb3b5dd309309c54652af8" target="_top" xlink:title="Converts the provided neighbors&#39; data into a Kokkos view.">
<polygon fill="white" stroke="#666666" points="628,-322.75 469.5,-322.75 469.5,-293.75 628,-293.75 628,-322.75"/>
<text xml:space="preserve" text-anchor="start" x="477.5" y="-309.25" font-family="Helvetica,sans-Serif" font-size="10.00">CmaUtils::FlowMapTransitionner</text>
<text xml:space="preserve" text-anchor="middle" x="548.75" y="-298.75" font-family="Helvetica,sans-Serif" font-size="10.00">::get_neighbors_view</text>
</a>
</g>
</g>
<!-- Node9&#45;&gt;Node12 -->
<g id="edge14_Node000009_Node000012" class="edge">
<title>Node9&#45;&gt;Node12</title>
<g id="a_edge14_Node000009_Node000012"><a xlink:title=" ">
<path fill="none" stroke="#63b8ff" d="M423.46,-308.25C434.41,-308.25 446.21,-308.25 458.01,-308.25"/>
<polygon fill="#63b8ff" stroke="#63b8ff" points="457.8,-311.75 467.8,-308.25 457.79,-304.75 457.8,-311.75"/>
</a>
</g>
</g>
<!-- Node13 -->
<g id="Node000013" class="node">
<title>Node13</title>
<g id="a_Node000013"><a xlink:href="namespaceMC.html#ac9b6a65d70e4c5007f4bc908509924a0" target="_top" xlink:title=" ">
<polygon fill="white" stroke="#666666" points="602.5,-377.5 495,-377.5 495,-359 602.5,-359 602.5,-377.5"/>
<text xml:space="preserve" text-anchor="middle" x="548.75" y="-364" font-family="Helvetica,sans-Serif" font-size="10.00">MC::post_init_weight</text>
</a>
</g>
</g>
<!-- Node9&#45;&gt;Node13 -->
<g id="edge16_Node000009_Node000013" class="edge">
<title>Node9&#45;&gt;Node13</title>
<g id="a_edge16_Node000009_Node000013"><a xlink:title=" ">
<path fill="none" stroke="#63b8ff" d="M411.41,-323.25C418.82,-326.1 426.43,-329.17 433.5,-332.25 449.9,-339.4 452.66,-344.2 469.5,-350.25 474.94,-352.2 480.66,-354 486.44,-355.63"/>
<polygon fill="#63b8ff" stroke="#63b8ff" points="485.54,-359.01 496.1,-358.18 487.33,-352.24 485.54,-359.01"/>
</a>
</g>
</g>
<!-- Node10&#45;&gt;Node10 -->
<g id="edge11_Node000010_Node000010" class="edge">
<title>Node10&#45;&gt;Node10</title>
<g id="a_edge11_Node000010_Node000010"><a xlink:title=" ">
<path fill="none" stroke="#63b8ff" d="M694.42,-273.75C683.44,-282.32 690.96,-291.5 717,-291.5 731.65,-291.5 740.44,-288.59 743.37,-284.53"/>
<polygon fill="#63b8ff" stroke="#63b8ff" points="746.7,-283.45 740.08,-275.17 740.09,-285.77 746.7,-283.45"/>
</a>
</g>
</g>
<!-- Node11 -->
<g id="Node000011" class="node">
<title>Node11</title>
<g id="a_Node000011"><a xlink:href="namespaceWrapMPI.html#adab3300a86b8c0227268b23134b57a24" target="_top" xlink:title=" ">
<polygon fill="white" stroke="#666666" points="913.12,-215.5 813.88,-215.5 813.88,-197 913.12,-197 913.12,-215.5"/>
<text xml:space="preserve" text-anchor="middle" x="863.5" y="-202" font-family="Helvetica,sans-Serif" font-size="10.00">WrapMPI::get_type</text>
</a>
</g>
</g>
<!-- Node10&#45;&gt;Node11 -->
<g id="edge12_Node000010_Node000011" class="edge">
<title>Node10&#45;&gt;Node11</title>
<g id="a_edge12_Node000010_Node000011"><a xlink:title=" ">
<path fill="none" stroke="#63b8ff" d="M747.29,-254.54C754.74,-251.95 762.7,-249.09 770,-246.25 790.53,-238.27 813.23,-228.47 831.01,-220.56"/>
<polygon fill="#63b8ff" stroke="#63b8ff" points="832.3,-223.82 840,-216.54 829.44,-217.43 832.3,-223.82"/>
</a>
</g>
</g>
<!-- Node12&#45;&gt;Node12 -->
<g id="edge15_Node000012_Node000012" class="edge">
<title>Node12&#45;&gt;Node12</title>
<g id="a_edge15_Node000012_Node000012"><a xlink:title=" ">
<path fill="none" stroke="#63b8ff" d="M519.43,-322.96C512.36,-332.07 522.13,-340.75 548.75,-340.75 563.31,-340.75 572.83,-338.16 577.31,-334.31"/>
<polygon fill="#63b8ff" stroke="#63b8ff" points="580.79,-334.68 577.97,-324.47 573.81,-334.21 580.79,-334.68"/>
</a>
</g>
</g>
<!-- Node14&#45;&gt;Node6 -->
<g id="edge19_Node000014_Node000006" class="edge">
<title>Node14&#45;&gt;Node6</title>
<g id="a_edge19_Node000014_Node000006"><a xlink:title=" ">
<path fill="none" stroke="#63b8ff" d="M423.46,-208.02C442.14,-203.1 463.27,-197.53 482.73,-192.39"/>
<polygon fill="#63b8ff" stroke="#63b8ff" points="483.42,-195.83 492.2,-189.9 481.64,-189.06 483.42,-195.83"/>
</a>
</g>
</g>
<!-- Node14&#45;&gt;Node7 -->
<g id="edge22_Node000014_Node000007" class="edge">
<title>Node14&#45;&gt;Node7</title>
<g id="a_edge22_Node000014_Node000007"><a xlink:title=" ">
<path fill="none" stroke="#63b8ff" d="M419.85,-207.36C424.66,-205.01 429.31,-202.32 433.5,-199.25 454.74,-183.73 447.89,-167.27 469.5,-152.25 473.68,-149.34 478.23,-146.78 482.95,-144.52"/>
<polygon fill="#63b8ff" stroke="#63b8ff" points="484.27,-147.76 492.12,-140.64 481.54,-141.32 484.27,-147.76"/>
</a>
</g>
</g>
<!-- Node15 -->
<g id="Node000015" class="node">
<title>Node15</title>
<g id="a_Node000015"><a xlink:href="namespaceCore_1_1ScalarFactory.html#a8fb497033464776a1cda71cce1840cd8" target="_top" xlink:title="Factory function to initialize scalar data based on the specified input source.">
<polygon fill="white" stroke="#666666" points="601,-236.75 496.5,-236.75 496.5,-207.75 601,-207.75 601,-236.75"/>
<text xml:space="preserve" text-anchor="start" x="504.5" y="-223.25" font-family="Helvetica,sans-Serif" font-size="10.00">Core::ScalarFactory</text>
<text xml:space="preserve" text-anchor="middle" x="548.75" y="-212.75" font-family="Helvetica,sans-Serif" font-size="10.00">::scalar_factory</text>
</a>
</g>
</g>
<!-- Node14&#45;&gt;Node15 -->
<g id="edge20_Node000014_Node000015" class="edge">
<title>Node14&#45;&gt;Node15</title>
<g id="a_edge20_Node000014_Node000015"><a xlink:title=" ">
<path fill="none" stroke="#63b8ff" d="M423.46,-222.25C442.74,-222.25 464.62,-222.25 484.6,-222.25"/>
<polygon fill="#63b8ff" stroke="#63b8ff" points="484.59,-225.75 494.59,-222.25 484.59,-218.75 484.59,-225.75"/>
</a>
</g>
</g>
<!-- Node16 -->
<g id="Node000016" class="node">
<title>Node16</title>
<g id="a_Node000016"><a xlink:href="namespaceCore_1_1ScalarFactory.html#a3cd3bf6bf73298a38df48b444e3f0a23" target="_top" xlink:title=" ">
<polygon fill="white" stroke="#666666" points="769.25,-236.75 664.75,-236.75 664.75,-207.75 769.25,-207.75 769.25,-236.75"/>
<text xml:space="preserve" text-anchor="start" x="672.75" y="-223.25" font-family="Helvetica,sans-Serif" font-size="10.00">Core::ScalarFactory</text>
<text xml:space="preserve" text-anchor="middle" x="717" y="-212.75" font-family="Helvetica,sans-Serif" font-size="10.00">::sanitize</text>
</a>
</g>
</g>
<!-- Node15&#45;&gt;Node16 -->
<g id="edge21_Node000015_Node000016" class="edge">
<title>Node15&#45;&gt;Node16</title>
<g id="a_edge21_Node000015_Node000016"><a xlink:title=" ">
<path fill="none" stroke="#63b8ff" d="M601.44,-222.25C617.86,-222.25 636.2,-222.25 653.31,-222.25"/>
<polygon fill="#63b8ff" stroke="#63b8ff" points="652.83,-225.75 662.83,-222.25 652.83,-218.75 652.83,-225.75"/>
</a>
</g>
</g>
<!-- Node17&#45;&gt;Node6 -->
<g id="edge25_Node000017_Node000006" class="edge">
<title>Node17&#45;&gt;Node6</title>
<g id="a_edge25_Node000017_Node000006"><a xlink:title=" ">
<path fill="none" stroke="#63b8ff" d="M266.81,-108.85C278.87,-112.01 291.61,-115.29 303.5,-118.25 364.07,-133.3 433.38,-149.37 482.66,-160.59"/>
<polygon fill="#63b8ff" stroke="#63b8ff" points="481.8,-163.99 492.32,-162.79 483.35,-157.16 481.8,-163.99"/>
</a>
</g>
</g>
<!-- Node17&#45;&gt;Node7 -->
<g id="edge37_Node000017_Node000007" class="edge">
<title>Node17&#45;&gt;Node7</title>
<g id="a_edge37_Node000017_Node000007"><a xlink:title=" ">
<path fill="none" stroke="#63b8ff" d="M266.74,-99.75C325.53,-105.71 419.36,-115.23 482.23,-121.6"/>
<polygon fill="#63b8ff" stroke="#63b8ff" points="481.78,-125.08 492.09,-122.6 482.49,-118.11 481.78,-125.08"/>
</a>
</g>
</g>
<!-- Node18 -->
<g id="Node000018" class="node">
<title>Node18</title>
<g id="a_Node000018"><a xlink:href="namespaceCmaUtils.html#a4db0dd1b3866bccb91f532fd68959905" target="_top" xlink:title="Transition factory according to the given method.">
<polygon fill="white" stroke="#666666" points="433.5,-18.5 303.5,-18.5 303.5,0 433.5,0 433.5,-18.5"/>
<text xml:space="preserve" text-anchor="middle" x="368.5" y="-5" font-family="Helvetica,sans-Serif" font-size="10.00">CmaUtils::get_transitioner</text>
</a>
</g>
</g>
<!-- Node17&#45;&gt;Node18 -->
<g id="edge26_Node000017_Node000018" class="edge">
<title>Node17&#45;&gt;Node18</title>
<g id="a_edge26_Node000017_Node000018"><a xlink:title=" ">
<path fill="none" stroke="#63b8ff" d="M228.75,-79.43C246.09,-64.33 274.94,-41.2 303.5,-27.25 306.82,-25.63 310.31,-24.13 313.87,-22.75"/>
<polygon fill="#63b8ff" stroke="#63b8ff" points="314.99,-26.07 323.27,-19.47 312.68,-19.46 314.99,-26.07"/>
</a>
</g>
</g>
<!-- Node19 -->
<g id="Node000019" class="node">
<title>Node19</title>
<g id="a_Node000019"><a xlink:href="classCore_1_1GlobalInitialiser.html#a212a55abe2b9cb558932ba82e4cf6dbf" target="_top" xlink:title="Initializes the simulation state.">
<polygon fill="white" stroke="#666666" points="423.38,-65.75 313.62,-65.75 313.62,-36.75 423.38,-36.75 423.38,-65.75"/>
<text xml:space="preserve" text-anchor="start" x="321.62" y="-52.25" font-family="Helvetica,sans-Serif" font-size="10.00">Core::GlobalInitialiser</text>
<text xml:space="preserve" text-anchor="middle" x="368.5" y="-41.75" font-family="Helvetica,sans-Serif" font-size="10.00">::init_state</text>
</a>
</g>
</g>
<!-- Node17&#45;&gt;Node19 -->
<g id="edge27_Node000017_Node000019" class="edge">
<title>Node17&#45;&gt;Node19</title>
<g id="a_edge27_Node000017_Node000019"><a xlink:title=" ">
<path fill="none" stroke="#63b8ff" d="M266.28,-79.33C277.99,-76.08 290.51,-72.61 302.6,-69.25"/>
<polygon fill="#63b8ff" stroke="#63b8ff" points="303.4,-72.67 312.1,-66.62 301.53,-65.92 303.4,-72.67"/>
</a>
</g>
</g>
<!-- Node19&#45;&gt;Node6 -->
<g id="edge28_Node000019_Node000006" class="edge">
<title>Node19&#45;&gt;Node6</title>
<g id="a_edge28_Node000019_Node000006"><a xlink:title=" ">
<path fill="none" stroke="#63b8ff" d="M383.76,-66.04C410.15,-93.34 464.39,-149.2 469.5,-152.25 473.79,-154.81 478.38,-157.1 483.11,-159.15"/>
<polygon fill="#63b8ff" stroke="#63b8ff" points="481.62,-162.32 492.21,-162.7 484.17,-155.8 481.62,-162.32"/>
</a>
</g>
</g>
<!-- Node19&#45;&gt;Node7 -->
<g id="edge36_Node000019_Node000007" class="edge">
<title>Node19&#45;&gt;Node7</title>
<g id="a_edge36_Node000019_Node000007"><a xlink:title=" ">
<path fill="none" stroke="#63b8ff" d="M405.62,-66.23C414.87,-70.45 424.69,-75.25 433.5,-80.25 450.44,-89.87 451.93,-96.84 469.5,-105.25 473.74,-107.28 478.19,-109.17 482.74,-110.92"/>
<polygon fill="#63b8ff" stroke="#63b8ff" points="481.42,-114.17 492.02,-114.25 483.78,-107.58 481.42,-114.17"/>
</a>
</g>
</g>
<!-- Node20 -->
<g id="Node000020" class="node">
<title>Node20</title>
<g id="a_Node000020"><a xlink:href="classCore_1_1GlobalInitialiser.html#ad6c43546eb4230a024ef3a43c470a9c5" target="_top" xlink:title="Host speciffic state init.">
<polygon fill="white" stroke="#666666" points="603.62,-48.75 493.88,-48.75 493.88,-19.75 603.62,-19.75 603.62,-48.75"/>
<text xml:space="preserve" text-anchor="start" x="501.88" y="-35.25" font-family="Helvetica,sans-Serif" font-size="10.00">Core::GlobalInitialiser</text>
<text xml:space="preserve" text-anchor="middle" x="548.75" y="-24.75" font-family="Helvetica,sans-Serif" font-size="10.00">::host_init_state</text>
</a>
</g>
</g>
<!-- Node19&#45;&gt;Node20 -->
<g id="edge29_Node000019_Node000020" class="edge">
<title>Node19&#45;&gt;Node20</title>
<g id="a_edge29_Node000019_Node000020"><a xlink:title=" ">
<path fill="none" stroke="#63b8ff" d="M423.46,-46.1C442.05,-44.33 463.07,-42.33 482.46,-40.48"/>
<polygon fill="#63b8ff" stroke="#63b8ff" points="482.53,-43.99 492.15,-39.55 481.87,-37.02 482.53,-43.99"/>
</a>
</g>
</g>
<!-- Node21 -->
<g id="Node000021" class="node">
<title>Node21</title>
<g id="a_Node000021"><a xlink:href="classCore_1_1GlobalInitialiser.html#aa042e8d396a5287c49fb6a8b81eba209" target="_top" xlink:title="Performs MPI broadcast for synchronization.">
<polygon fill="white" stroke="#666666" points="603.62,-95.75 493.88,-95.75 493.88,-66.75 603.62,-66.75 603.62,-95.75"/>
<text xml:space="preserve" text-anchor="start" x="501.88" y="-82.25" font-family="Helvetica,sans-Serif" font-size="10.00">Core::GlobalInitialiser</text>
<text xml:space="preserve" text-anchor="middle" x="548.75" y="-71.75" font-family="Helvetica,sans-Serif" font-size="10.00">::mpi_broadcast</text>
</a>
</g>
</g>
<!-- Node19&#45;&gt;Node21 -->
<g id="edge30_Node000019_Node000021" class="edge">
<title>Node19&#45;&gt;Node21</title>
<g id="a_edge30_Node000019_Node000021"><a xlink:title=" ">
<path fill="none" stroke="#63b8ff" d="M423.46,-60.33C442.05,-63.46 463.07,-67 482.46,-70.26"/>
<polygon fill="#63b8ff" stroke="#63b8ff" points="481.73,-73.69 492.17,-71.9 482.89,-66.78 481.73,-73.69"/>
</a>
</g>
</g>
<!-- Node22 -->
<g id="Node000022" class="node">
<title>Node22</title>
<g id="a_Node000022"><a xlink:href="namespaceWrapMPI.html#a1a08bbe69602ac2f4f38e1a0d45275cb" target="_top" xlink:title=" ">
<polygon fill="white" stroke="#666666" points="761.38,-105.5 672.62,-105.5 672.62,-87 761.38,-87 761.38,-105.5"/>
<text xml:space="preserve" text-anchor="middle" x="717" y="-92" font-family="Helvetica,sans-Serif" font-size="10.00">WrapMPI::barrier</text>
</a>
</g>
</g>
<!-- Node21&#45;&gt;Node22 -->
<g id="edge31_Node000021_Node000022" class="edge">
<title>Node21&#45;&gt;Node22</title>
<g id="a_edge31_Node000021_Node000022"><a xlink:title=" ">
<path fill="none" stroke="#63b8ff" d="M603.73,-86.12C622.01,-87.77 642.45,-89.61 660.83,-91.27"/>
<polygon fill="#63b8ff" stroke="#63b8ff" points="660.49,-94.76 670.76,-92.17 661.11,-87.78 660.49,-94.76"/>
</a>
</g>
</g>
<!-- Node23 -->
<g id="Node000023" class="node">
<title>Node23</title>
<g id="a_Node000023"><a xlink:href="namespaceWrapMPI.html#aa924ad0d911109a9e6e3a20bebc3b316" target="_top" xlink:title=" ">
<polygon fill="white" stroke="#666666" points="921,-87.5 806,-87.5 806,-69 921,-69 921,-87.5"/>
<text xml:space="preserve" text-anchor="middle" x="863.5" y="-74" font-family="Helvetica,sans-Serif" font-size="10.00">WrapMPI::critical_error</text>
</a>
</g>
</g>
<!-- Node21&#45;&gt;Node23 -->
<g id="edge35_Node000021_Node000023" class="edge">
<title>Node21&#45;&gt;Node23</title>
<g id="a_edge35_Node000021_Node000023"><a xlink:title=" ">
<path fill="none" stroke="#63b8ff" d="M604.08,-79.53C623.04,-79.01 644.46,-78.51 664,-78.25 707.44,-77.68 756.23,-77.67 794.56,-77.81"/>
<polygon fill="#63b8ff" stroke="#63b8ff" points="794.07,-81.31 804.08,-77.85 794.1,-74.31 794.07,-81.31"/>
</a>
</g>
</g>
<!-- Node24 -->
<g id="Node000024" class="node">
<title>Node24</title>
<g id="a_Node000024"><a xlink:href="namespaceWrapMPI.html#a372df5351a2085df252cc9f4cceae7de" target="_top" xlink:title="Broadcasts a single data item to all processes.">
<polygon fill="white" stroke="#666666" points="769.25,-158.5 664.75,-158.5 664.75,-140 769.25,-140 769.25,-158.5"/>
<text xml:space="preserve" text-anchor="middle" x="717" y="-145" font-family="Helvetica,sans-Serif" font-size="10.00">WrapMPI::broadcast</text>
</a>
</g>
</g>
<!-- Node21&#45;&gt;Node24 -->
<g id="edge33_Node000021_Node000024" class="edge">
<title>Node21&#45;&gt;Node24</title>
<g id="a_edge33_Node000021_Node000024"><a xlink:title=" ">
<path fill="none" stroke="#63b8ff" d="M602.78,-96.21C611.3,-98.98 619.95,-102.03 628,-105.25 649.01,-113.66 671.85,-125.15 688.99,-134.28"/>
<polygon fill="#63b8ff" stroke="#63b8ff" points="687.07,-137.22 697.53,-138.89 690.39,-131.06 687.07,-137.22"/>
</a>
</g>
</g>
<!-- Node22&#45;&gt;Node23 -->
<g id="edge32_Node000022_Node000023" class="edge">
<title>Node22&#45;&gt;Node23</title>
<g id="a_edge32_Node000022_Node000023"><a xlink:title=" ">
<path fill="none" stroke="#63b8ff" d="M761.75,-90.8C771.98,-89.53 783.12,-88.14 794.15,-86.76"/>
<polygon fill="#63b8ff" stroke="#63b8ff" points="794.55,-90.24 804.04,-85.53 793.69,-83.3 794.55,-90.24"/>
</a>
</g>
</g>
<!-- Node24&#45;&gt;Node11 -->
<g id="edge34_Node000024_Node000011" class="edge">
<title>Node24&#45;&gt;Node11</title>
<g id="a_edge34_Node000024_Node000011"><a xlink:title=" ">
<path fill="none" stroke="#63b8ff" d="M742.51,-158.92C765.76,-168.09 800.95,-181.97 827.22,-192.33"/>
<polygon fill="#63b8ff" stroke="#63b8ff" points="825.87,-195.56 836.46,-195.98 828.44,-189.05 825.87,-195.56"/>
</a>
</g>
</g>
</g>
</svg>
