<?xml version="1.0" encoding="UTF-8" standalone="no"?>
<!DOCTYPE svg PUBLIC "-//W3C//DTD SVG 1.1//EN"
 "http://www.w3.org/Graphics/SVG/1.1/DTD/svg11.dtd">
<!-- Generated by graphviz version 12.1.2 (0)
 -->
<!-- Title: MC::EventContainer::wrap_incr Pages: 1 -->
<svg width="451pt" height="131pt"
 viewBox="0.00 0.00 451.25 131.00" xmlns="http://www.w3.org/2000/svg" xmlns:xlink="http://www.w3.org/1999/xlink">

<svg id="main" version="1.1" xmlns="http://www.w3.org/2000/svg" xmlns:xlink="http://www.w3.org/1999/xlink" xml:space="preserve">

<style type="text/css"><![CDATA[
.node, .edge {opacity: 0.7;}
.node.selected, .edge.selected {opacity: 1;}
.edge:hover path { stroke: red; }
.edge:hover polygon { stroke: red; fill: red; }
]]></style>
<script type="application/ecmascript" xlink:href="svg.min.js"/>
<svg id="graph" class="graph">
<g id="graph0" class="graph" transform="scale(1 1) rotate(0) translate(4 127)">
<title>MC::EventContainer::wrap_incr</title>
<!-- Node1 -->
<g id="Node000001" class="node">
<title>Node1</title>
<g id="a_Node000001"><a xlink:title=" ">
<polygon fill="#999999" stroke="#666666" points="443.25,-76 338.75,-76 338.75,-47 443.25,-47 443.25,-76"/>
<text text-anchor="start" x="346.75" y="-62.5" font-family="Helvetica,sans-Serif" font-size="10.00">MC::EventContainer</text>
<text text-anchor="middle" x="391" y="-52" font-family="Helvetica,sans-Serif" font-size="10.00">::wrap_incr</text>
</a>
</g>
</g>
<!-- Node2 -->
<g id="Node000002" class="node">
<title>Node2</title>
<g id="a_Node000002"><a xlink:href="structSimulation_1_1KernelInline_1_1MoveFunctor.html#ae6752b77648ada1867cb9da6db34e98d" target="_top" xlink:title=" ">
<polygon fill="white" stroke="#666666" points="299,-123 165.25,-123 165.25,-94 299,-94 299,-123"/>
<text text-anchor="start" x="173.25" y="-109.5" font-family="Helvetica,sans-Serif" font-size="10.00">Simulation::KernelInline</text>
<text text-anchor="middle" x="232.12" y="-99" font-family="Helvetica,sans-Serif" font-size="10.00">::MoveFunctor::handle_exit</text>
</a>
</g>
</g>
<!-- Node1&#45;&gt;Node2 -->
<g id="edge1_Node000001_Node000002" class="edge">
<title>Node1&#45;&gt;Node2</title>
<g id="a_edge1_Node000001_Node000002"><a xlink:title=" ">
<path fill="none" stroke="#63b8ff" d="M329.39,-79.66C314.04,-84.26 297.73,-89.14 282.98,-93.56"/>
<polygon fill="#63b8ff" stroke="#63b8ff" points="330.34,-83.03 338.91,-76.81 328.33,-76.32 330.34,-83.03"/>
</a>
</g>
</g>
<!-- Node4 -->
<g id="Node000004" class="node">
<title>Node4</title>
<g id="a_Node000004"><a xlink:href="structSimulation_1_1KernelInline_1_1MoveFunctor.html#a7a9000c1cf181bc3488b35a886cad84c" target="_top" xlink:title=" ">
<polygon fill="white" stroke="#666666" points="302.75,-76 161.5,-76 161.5,-47 302.75,-47 302.75,-76"/>
<text text-anchor="start" x="169.5" y="-62.5" font-family="Helvetica,sans-Serif" font-size="10.00">Simulation::KernelInline</text>
<text text-anchor="middle" x="232.12" y="-52" font-family="Helvetica,sans-Serif" font-size="10.00">::MoveFunctor::handle_move</text>
</a>
</g>
</g>
<!-- Node1&#45;&gt;Node4 -->
<g id="edge3_Node000001_Node000004" class="edge">
<title>Node1&#45;&gt;Node4</title>
<g id="a_edge3_Node000001_Node000004"><a xlink:title=" ">
<path fill="none" stroke="#63b8ff" d="M327.22,-61.5C319.3,-61.5 311.15,-61.5 303.13,-61.5"/>
<polygon fill="#63b8ff" stroke="#63b8ff" points="327.12,-65 337.12,-61.5 327.12,-58 327.12,-65"/>
</a>
</g>
</g>
<!-- Node5 -->
<g id="Node000005" class="node">
<title>Node5</title>
<g id="a_Node000005"><a xlink:href="structSimulation_1_1KernelInline_1_1CycleFunctor.html#a64bc7bcb272a1b91b1ab3f21acdea6c8" target="_top" xlink:title=" ">
<polygon fill="white" stroke="#666666" points="295.62,-29 168.62,-29 168.62,0 295.62,0 295.62,-29"/>
<text text-anchor="start" x="176.62" y="-15.5" font-family="Helvetica,sans-Serif" font-size="10.00">Simulation::KernelInline</text>
<text text-anchor="middle" x="232.12" y="-5" font-family="Helvetica,sans-Serif" font-size="10.00">::CycleFunctor::operator()</text>
</a>
</g>
</g>
<!-- Node1&#45;&gt;Node5 -->
<g id="edge5_Node000001_Node000005" class="edge">
<title>Node1&#45;&gt;Node5</title>
<g id="a_edge5_Node000001_Node000005"><a xlink:title=" ">
<path fill="none" stroke="#63b8ff" d="M329.39,-43.34C314.04,-38.74 297.73,-33.86 282.98,-29.44"/>
<polygon fill="#63b8ff" stroke="#63b8ff" points="328.33,-46.68 338.91,-46.19 330.34,-39.97 328.33,-46.68"/>
</a>
</g>
</g>
<!-- Node3 -->
<g id="Node000003" class="node">
<title>Node3</title>
<g id="a_Node000003"><a xlink:href="structSimulation_1_1KernelInline_1_1MoveFunctor.html#a1ebefea03da6b6dd668057f52ed060c8" target="_top" xlink:title=" ">
<polygon fill="white" stroke="#666666" points="125.5,-99 0,-99 0,-70 125.5,-70 125.5,-99"/>
<text text-anchor="start" x="8" y="-85.5" font-family="Helvetica,sans-Serif" font-size="10.00">Simulation::KernelInline</text>
<text text-anchor="middle" x="62.75" y="-75" font-family="Helvetica,sans-Serif" font-size="10.00">::MoveFunctor::operator()</text>
</a>
</g>
</g>
<!-- Node2&#45;&gt;Node3 -->
<g id="edge2_Node000002_Node000003" class="edge">
<title>Node2&#45;&gt;Node3</title>
<g id="a_edge2_Node000002_Node000003"><a xlink:title=" ">
<path fill="none" stroke="#63b8ff" d="M153.69,-97.4C144.37,-96.06 134.94,-94.71 125.88,-93.41"/>
<polygon fill="#63b8ff" stroke="#63b8ff" points="153.08,-100.84 163.48,-98.8 154.07,-93.92 153.08,-100.84"/>
</a>
</g>
</g>
<!-- Node4&#45;&gt;Node3 -->
<g id="edge4_Node000004_Node000003" class="edge">
<title>Node4&#45;&gt;Node3</title>
<g id="a_edge4_Node000004_Node000003"><a xlink:title=" ">
<path fill="none" stroke="#63b8ff" d="M149.75,-72.68C141.68,-73.79 133.59,-74.9 125.76,-75.98"/>
<polygon fill="#63b8ff" stroke="#63b8ff" points="150.18,-76.16 159.61,-71.33 149.23,-69.22 150.18,-76.16"/>
</a>
</g>
</g>
</g>
</svg>
</svg>

<style type='text/css'>
<![CDATA[
[data-mouse-over-selected='false'] { opacity: 0.7; }
[data-mouse-over-selected='true']  { opacity: 1.0; }
]]>
</style>
<script type="application/ecmascript"><![CDATA[
document.addEventListener('DOMContentLoaded', (event) => {
  highlightEdges();
  highlightAdjacentNodes();
});
]]></script>
</svg>
