<?xml version="1.0" encoding="UTF-8" standalone="no"?>
<!DOCTYPE svg PUBLIC "-//W3C//DTD SVG 1.1//EN"
 "http://www.w3.org/Graphics/SVG/1.1/DTD/svg11.dtd">
<!-- Generated by graphviz version 14.0.1 (0)
 -->
<!-- Title: MC::MonteCarloUnit::MonteCarloUnit Pages: 1 -->
<svg width="255pt" height="225pt"
 viewBox="0.00 0.00 255.00 225.00" xmlns="http://www.w3.org/2000/svg" xmlns:xlink="http://www.w3.org/1999/xlink">
<g id="graph0" class="graph" transform="scale(1 1) rotate(0) translate(4 221)">
<title>MC::MonteCarloUnit::MonteCarloUnit</title>
<!-- Node1 -->
<g id="Node000001" class="node">
<title>Node1</title>
<g id="a_Node000001"><a xlink:title="Prevent copying of the MonteCarloUnit.">
<polygon fill="#999999" stroke="#666666" points="246.5,-123 141.25,-123 141.25,-94 246.5,-94 246.5,-123"/>
<text xml:space="preserve" text-anchor="start" x="149.25" y="-109.5" font-family="Helvetica,sans-Serif" font-size="10.00">MC::MonteCarloUnit</text>
<text xml:space="preserve" text-anchor="middle" x="193.88" y="-99" font-family="Helvetica,sans-Serif" font-size="10.00">::MonteCarloUnit</text>
</a>
</g>
</g>
<!-- Node1&#45;&gt;Node1 -->
<g id="edge2_Node000001_Node000001" class="edge">
<title>Node1&#45;&gt;Node1</title>
<g id="a_edge2_Node000001_Node000001"><a xlink:title=" ">
<path fill="none" stroke="#63b8ff" d="M217.85,-134.56C214.09,-138.41 206.1,-141 193.88,-141 171.53,-141 163.32,-132.32 169.26,-123.21"/>
<polygon fill="#63b8ff" stroke="#63b8ff" points="221.34,-134.9 218.41,-124.72 214.35,-134.5 221.34,-134.9"/>
</a>
</g>
</g>
<!-- Node2 -->
<g id="Node000002" class="node">
<title>Node2</title>
<g id="a_Node000002"><a xlink:href="structMC_1_1MonteCarloUnit.html#a41b8eca9d8c279dd555595021705c41b" target="_top" xlink:title=" ">
<polygon fill="white" stroke="#666666" points="105.25,-217 0,-217 0,-188 105.25,-188 105.25,-217"/>
<text xml:space="preserve" text-anchor="start" x="8" y="-203.5" font-family="Helvetica,sans-Serif" font-size="10.00">MC::MonteCarloUnit</text>
<text xml:space="preserve" text-anchor="middle" x="52.62" y="-193" font-family="Helvetica,sans-Serif" font-size="10.00">::MonteCarloUnit</text>
</a>
</g>
</g>
<!-- Node1&#45;&gt;Node2 -->
<g id="edge1_Node000001_Node000002" class="edge">
<title>Node1&#45;&gt;Node2</title>
<g id="a_edge1_Node000001_Node000002"><a xlink:title=" ">
<path fill="none" stroke="#63b8ff" d="M168.85,-130.86C151.93,-145.86 128.28,-165.38 105.25,-179.5 100.57,-182.37 95.46,-185.09 90.34,-187.58"/>
<polygon fill="#63b8ff" stroke="#63b8ff" points="170.83,-133.79 175.92,-124.49 166.15,-128.59 170.83,-133.79"/>
</a>
</g>
</g>
<!-- Node3 -->
<g id="Node000003" class="node">
<title>Node3</title>
<g id="a_Node000003"><a xlink:href="structMC_1_1MonteCarloUnit.html#a77a004790dcd9b39c4618146926e6e25" target="_top" xlink:title="Allow moving of the MonteCarloUn.">
<polygon fill="white" stroke="#666666" points="105.25,-170 0,-170 0,-141 105.25,-141 105.25,-170"/>
<text xml:space="preserve" text-anchor="start" x="8" y="-156.5" font-family="Helvetica,sans-Serif" font-size="10.00">MC::MonteCarloUnit</text>
<text xml:space="preserve" text-anchor="middle" x="52.62" y="-146" font-family="Helvetica,sans-Serif" font-size="10.00">::MonteCarloUnit</text>
</a>
</g>
</g>
<!-- Node1&#45;&gt;Node3 -->
<g id="edge3_Node000001_Node000003" class="edge">
<title>Node1&#45;&gt;Node3</title>
<g id="a_edge3_Node000001_Node000003"><a xlink:title=" ">
<path fill="none" stroke="#63b8ff" d="M138.28,-126.93C124.89,-131.45 110.72,-136.23 97.88,-140.56"/>
<polygon fill="#63b8ff" stroke="#63b8ff" points="139.03,-130.37 147.38,-123.86 136.79,-123.74 139.03,-130.37"/>
</a>
</g>
</g>
<!-- Node4 -->
<g id="Node000004" class="node">
<title>Node4</title>
<g id="a_Node000004"><a xlink:href="structMC_1_1MonteCarloUnit.html#ac3a8f7a62805a7e290d537dea11c2425" target="_top" xlink:title="Prevent copying of the MonteCarloUnit.">
<polygon fill="white" stroke="#666666" points="105.25,-123 0,-123 0,-94 105.25,-94 105.25,-123"/>
<text xml:space="preserve" text-anchor="start" x="8" y="-109.5" font-family="Helvetica,sans-Serif" font-size="10.00">MC::MonteCarloUnit</text>
<text xml:space="preserve" text-anchor="middle" x="52.62" y="-99" font-family="Helvetica,sans-Serif" font-size="10.00">::operator=</text>
</a>
</g>
</g>
<!-- Node1&#45;&gt;Node4 -->
<g id="edge4_Node000001_Node000004" class="edge">
<title>Node1&#45;&gt;Node4</title>
<g id="a_edge4_Node000001_Node000004"><a xlink:title=" ">
<path fill="none" stroke="#63b8ff" d="M129.71,-108.5C121.61,-108.5 113.4,-108.5 105.52,-108.5"/>
<polygon fill="#63b8ff" stroke="#63b8ff" points="129.51,-112 139.51,-108.5 129.51,-105 129.51,-112"/>
</a>
</g>
</g>
<!-- Node5 -->
<g id="Node000005" class="node">
<title>Node5</title>
<g id="a_Node000005"><a xlink:href="structMC_1_1MonteCarloUnit.html#ae6b8491d078820115a681eb2f0742739" target="_top" xlink:title="Allow moving of the MonteCarloUn.">
<polygon fill="white" stroke="#666666" points="105.25,-76 0,-76 0,-47 105.25,-47 105.25,-76"/>
<text xml:space="preserve" text-anchor="start" x="8" y="-62.5" font-family="Helvetica,sans-Serif" font-size="10.00">MC::MonteCarloUnit</text>
<text xml:space="preserve" text-anchor="middle" x="52.62" y="-52" font-family="Helvetica,sans-Serif" font-size="10.00">::operator=</text>
</a>
</g>
</g>
<!-- Node1&#45;&gt;Node5 -->
<g id="edge5_Node000001_Node000005" class="edge">
<title>Node1&#45;&gt;Node5</title>
<g id="a_edge5_Node000001_Node000005"><a xlink:title=" ">
<path fill="none" stroke="#63b8ff" d="M138.28,-90.07C124.89,-85.55 110.72,-80.77 97.88,-76.44"/>
<polygon fill="#63b8ff" stroke="#63b8ff" points="136.79,-93.26 147.38,-93.14 139.03,-86.63 136.79,-93.26"/>
</a>
</g>
</g>
<!-- Node6 -->
<g id="Node000006" class="node">
<title>Node6</title>
<g id="a_Node000006"><a xlink:href="structMC_1_1MonteCarloUnit.html#a65991633938cf0822cad4ce297f02ee8" target="_top" xlink:title=" ">
<polygon fill="white" stroke="#666666" points="105.25,-29 0,-29 0,0 105.25,0 105.25,-29"/>
<text xml:space="preserve" text-anchor="start" x="8" y="-15.5" font-family="Helvetica,sans-Serif" font-size="10.00">MC::MonteCarloUnit</text>
<text xml:space="preserve" text-anchor="middle" x="52.62" y="-5" font-family="Helvetica,sans-Serif" font-size="10.00">::~MonteCarloUnit</text>
</a>
</g>
</g>
<!-- Node1&#45;&gt;Node6 -->
<g id="edge6_Node000001_Node000006" class="edge">
<title>Node1&#45;&gt;Node6</title>
<g id="a_edge6_Node000001_Node000006"><a xlink:title=" ">
<path fill="none" stroke="#63b8ff" d="M168.41,-86.32C151.46,-71.64 127.94,-52.56 105.25,-38.5 100.04,-35.27 94.33,-32.2 88.66,-29.4"/>
<polygon fill="#63b8ff" stroke="#63b8ff" points="165.68,-88.58 175.5,-92.56 170.3,-83.33 165.68,-88.58"/>
</a>
</g>
</g>
</g>
</svg>
