<?xml version="1.0" encoding="UTF-8" standalone="no"?>
<!DOCTYPE svg PUBLIC "-//W3C//DTD SVG 1.1//EN"
 "http://www.w3.org/Graphics/SVG/1.1/DTD/svg11.dtd">
<!-- Generated by graphviz version 12.1.2 (0)
 -->
<!-- Title: Models::TwoMetaDiv::update Pages: 1 -->
<svg width="452pt" height="111pt"
 viewBox="0.00 0.00 452.00 110.50" xmlns="http://www.w3.org/2000/svg" xmlns:xlink="http://www.w3.org/1999/xlink">
<g id="graph0" class="graph" transform="scale(1 1) rotate(0) translate(4 106.5)">
<title>Models::TwoMetaDiv::update</title>
<!-- Node1 -->
<g id="Node000001" class="node">
<title>Node1</title>
<g id="a_Node000001"><a xlink:title=" ">
<polygon fill="#999999" stroke="#666666" points="107.5,-65.75 0,-65.75 0,-36.75 107.5,-36.75 107.5,-65.75"/>
<text text-anchor="start" x="8" y="-52.25" font-family="Helvetica,sans-Serif" font-size="10.00">Models::TwoMetaDiv</text>
<text text-anchor="middle" x="53.75" y="-41.75" font-family="Helvetica,sans-Serif" font-size="10.00">::update</text>
</a>
</g>
</g>
<!-- Node2 -->
<g id="Node000002" class="node">
<title>Node2</title>
<g id="a_Node000002"><a xlink:href="structModels_1_1Uptake.html#a511b5a27e41b542b8f2d4f0b409c133e" target="_top" xlink:title=" ">
<polygon fill="white" stroke="#666666" points="286.25,-60.5 143.5,-60.5 143.5,-42 286.25,-42 286.25,-60.5"/>
<text text-anchor="middle" x="214.88" y="-47" font-family="Helvetica,sans-Serif" font-size="10.00">Models::Uptake::uptake_step</text>
</a>
</g>
</g>
<!-- Node1&#45;&gt;Node2 -->
<g id="edge1_Node000001_Node000002" class="edge">
<title>Node1&#45;&gt;Node2</title>
<g id="a_edge1_Node000001_Node000002"><a xlink:title=" ">
<path fill="none" stroke="#63b8ff" d="M107.74,-51.25C115.57,-51.25 123.79,-51.25 132.04,-51.25"/>
<polygon fill="#63b8ff" stroke="#63b8ff" points="131.77,-54.75 141.77,-51.25 131.77,-47.75 131.77,-54.75"/>
</a>
</g>
</g>
<!-- Node3 -->
<g id="Node000003" class="node">
<title>Node3</title>
<g id="a_Node000003"><a xlink:href="namespaceModels.html#aff3e4340a32804ffc9a3fba674928842" target="_top" xlink:title=" ">
<polygon fill="white" stroke="#666666" points="418.12,-102.5 348.12,-102.5 348.12,-84 418.12,-84 418.12,-102.5"/>
<text text-anchor="middle" x="383.12" y="-89" font-family="Helvetica,sans-Serif" font-size="10.00">Models::freq</text>
</a>
</g>
</g>
<!-- Node2&#45;&gt;Node3 -->
<g id="edge2_Node000002_Node000003" class="edge">
<title>Node2&#45;&gt;Node3</title>
<g id="a_edge2_Node000002_Node000003"><a xlink:title=" ">
<path fill="none" stroke="#63b8ff" d="M254.43,-60.99C279,-67.2 310.94,-75.27 336.73,-81.78"/>
<polygon fill="#63b8ff" stroke="#63b8ff" points="335.71,-85.13 346.26,-84.19 337.42,-78.35 335.71,-85.13"/>
</a>
</g>
</g>
<!-- Node4 -->
<g id="Node000004" class="node">
<title>Node4</title>
<g id="a_Node000004"><a xlink:href="structModels_1_1Uptake.html#a3627cf1414527a8edd7082dd51d24fba" target="_top" xlink:title=" ">
<polygon fill="white" stroke="#666666" points="434.62,-65.75 331.62,-65.75 331.62,-36.75 434.62,-36.75 434.62,-65.75"/>
<text text-anchor="start" x="339.62" y="-52.25" font-family="Helvetica,sans-Serif" font-size="10.00">Models::Uptake::phi</text>
<text text-anchor="middle" x="383.12" y="-41.75" font-family="Helvetica,sans-Serif" font-size="10.00">_permease</text>
</a>
</g>
</g>
<!-- Node2&#45;&gt;Node4 -->
<g id="edge3_Node000002_Node000004" class="edge">
<title>Node2&#45;&gt;Node4</title>
<g id="a_edge3_Node000002_Node000004"><a xlink:title=" ">
<path fill="none" stroke="#63b8ff" d="M286.38,-51.25C297.55,-51.25 309.02,-51.25 319.98,-51.25"/>
<polygon fill="#63b8ff" stroke="#63b8ff" points="319.66,-54.75 329.66,-51.25 319.66,-47.75 319.66,-54.75"/>
</a>
</g>
</g>
<!-- Node5 -->
<g id="Node000005" class="node">
<title>Node5</title>
<g id="a_Node000005"><a xlink:href="structModels_1_1Uptake.html#ad5bef0e6800ba6e9b3ba55a675f270a8" target="_top" xlink:title=" ">
<polygon fill="white" stroke="#666666" points="444,-18.5 322.25,-18.5 322.25,0 444,0 444,-18.5"/>
<text text-anchor="middle" x="383.12" y="-5" font-family="Helvetica,sans-Serif" font-size="10.00">Models::Uptake::phi_pts</text>
</a>
</g>
</g>
<!-- Node2&#45;&gt;Node5 -->
<g id="edge4_Node000002_Node000005" class="edge">
<title>Node2&#45;&gt;Node5</title>
<g id="a_edge4_Node000002_Node000005"><a xlink:title=" ">
<path fill="none" stroke="#63b8ff" d="M254.43,-41.51C277.72,-35.62 307.64,-28.07 332.66,-21.75"/>
<polygon fill="#63b8ff" stroke="#63b8ff" points="333.47,-25.15 342.31,-19.31 331.76,-18.37 333.47,-25.15"/>
</a>
</g>
</g>
</g>
</svg>
