<?xml version="1.0" encoding="UTF-8" standalone="no"?>
<!DOCTYPE svg PUBLIC "-//W3C//DTD SVG 1.1//EN"
 "http://www.w3.org/Graphics/SVG/1.1/DTD/svg11.dtd">
<!-- Generated by graphviz version 12.1.2 (0)
 -->
<!-- Title: Models::SimpleModel::init Pages: 1 -->
<svg width="704pt" height="37pt"
 viewBox="0.00 0.00 703.75 37.00" xmlns="http://www.w3.org/2000/svg" xmlns:xlink="http://www.w3.org/1999/xlink">
<g id="graph0" class="graph" transform="scale(1 1) rotate(0) translate(4 33)">
<title>Models::SimpleModel::init</title>
<!-- Node1 -->
<g id="Node000001" class="node">
<title>Node1</title>
<g id="a_Node000001"><a xlink:title=" ">
<polygon fill="#999999" stroke="#666666" points="109.75,-29 0,-29 0,0 109.75,0 109.75,-29"/>
<text text-anchor="start" x="8" y="-15.5" font-family="Helvetica,sans-Serif" font-size="10.00">Models::SimpleModel</text>
<text text-anchor="middle" x="54.88" y="-5" font-family="Helvetica,sans-Serif" font-size="10.00">::init</text>
</a>
</g>
</g>
<!-- Node2 -->
<g id="Node000002" class="node">
<title>Node2</title>
<g id="a_Node000002"><a xlink:href="structModels_1_1Uptake.html#a031bc7c273a310a89fb4c9dce6caf315" target="_top" xlink:title=" ">
<polygon fill="white" stroke="#666666" points="248.75,-23.75 145.75,-23.75 145.75,-5.25 248.75,-5.25 248.75,-23.75"/>
<text text-anchor="middle" x="197.25" y="-10.25" font-family="Helvetica,sans-Serif" font-size="10.00">Models::Uptake::init</text>
</a>
</g>
</g>
<!-- Node1&#45;&gt;Node2 -->
<g id="edge1_Node000001_Node000002" class="edge">
<title>Node1&#45;&gt;Node2</title>
<g id="a_edge1_Node000001_Node000002"><a xlink:title=" ">
<path fill="none" stroke="#63b8ff" d="M110.15,-14.5C117.92,-14.5 125.97,-14.5 133.89,-14.5"/>
<polygon fill="#63b8ff" stroke="#63b8ff" points="133.83,-18 143.83,-14.5 133.83,-11 133.83,-18"/>
</a>
</g>
</g>
<!-- Node3 -->
<g id="Node000003" class="node">
<title>Node3</title>
<g id="a_Node000003"><a xlink:href="structMC_1_1Distributions_1_1TruncatedNormal.html#af6cfcdb1f39978352e55fc5c5f729462" target="_top" xlink:title=" ">
<polygon fill="white" stroke="#666666" points="426.75,-29 284.75,-29 284.75,0 426.75,0 426.75,-29"/>
<text text-anchor="start" x="292.75" y="-15.5" font-family="Helvetica,sans-Serif" font-size="10.00">MC::Distributions::</text>
<text text-anchor="middle" x="355.75" y="-5" font-family="Helvetica,sans-Serif" font-size="10.00">TruncatedNormal::draw_from</text>
</a>
</g>
</g>
<!-- Node2&#45;&gt;Node3 -->
<g id="edge2_Node000002_Node000003" class="edge">
<title>Node2&#45;&gt;Node3</title>
<g id="a_edge2_Node000002_Node000003"><a xlink:title=" ">
<path fill="none" stroke="#63b8ff" d="M249.06,-14.5C256.7,-14.5 264.75,-14.5 272.84,-14.5"/>
<polygon fill="#63b8ff" stroke="#63b8ff" points="272.77,-18 282.77,-14.5 272.77,-11 272.77,-18"/>
</a>
</g>
</g>
<!-- Node4 -->
<g id="Node000004" class="node">
<title>Node4</title>
<g id="a_Node000004"><a xlink:href="namespaceMC_1_1Distributions.html#a3c07f6cf61b1c67ea9b2b3e0d6c42cc7" target="_top" xlink:title="Computes the inverse CDF (probit function) of a normal distribution.">
<polygon fill="white" stroke="#666666" points="561.25,-29 462.75,-29 462.75,0 561.25,0 561.25,-29"/>
<text text-anchor="start" x="470.75" y="-15.5" font-family="Helvetica,sans-Serif" font-size="10.00">MC::Distributions::</text>
<text text-anchor="middle" x="512" y="-5" font-family="Helvetica,sans-Serif" font-size="10.00">norminv</text>
</a>
</g>
</g>
<!-- Node3&#45;&gt;Node4 -->
<g id="edge3_Node000003_Node000004" class="edge">
<title>Node3&#45;&gt;Node4</title>
<g id="a_edge3_Node000003_Node000004"><a xlink:title=" ">
<path fill="none" stroke="#63b8ff" d="M427.1,-14.5C435.11,-14.5 443.22,-14.5 451.07,-14.5"/>
<polygon fill="#63b8ff" stroke="#63b8ff" points="450.85,-18 460.85,-14.5 450.85,-11 450.85,-18"/>
</a>
</g>
</g>
<!-- Node5 -->
<g id="Node000005" class="node">
<title>Node5</title>
<g id="a_Node000005"><a xlink:href="namespaceMC_1_1Distributions.html#a351272c0fa13e73d23c7b1caf92e858f" target="_top" xlink:title="Computes an approximation of the inverse error function.">
<polygon fill="white" stroke="#666666" points="695.75,-29 597.25,-29 597.25,0 695.75,0 695.75,-29"/>
<text text-anchor="start" x="605.25" y="-15.5" font-family="Helvetica,sans-Serif" font-size="10.00">MC::Distributions::</text>
<text text-anchor="middle" x="646.5" y="-5" font-family="Helvetica,sans-Serif" font-size="10.00">erfinv</text>
</a>
</g>
</g>
<!-- Node4&#45;&gt;Node5 -->
<g id="edge4_Node000004_Node000005" class="edge">
<title>Node4&#45;&gt;Node5</title>
<g id="a_edge4_Node000004_Node000005"><a xlink:title=" ">
<path fill="none" stroke="#63b8ff" d="M561.59,-14.5C569.42,-14.5 577.6,-14.5 585.66,-14.5"/>
<polygon fill="#63b8ff" stroke="#63b8ff" points="585.41,-18 595.41,-14.5 585.41,-11 585.41,-18"/>
</a>
</g>
</g>
</g>
</svg>
