<?xml version="1.0" encoding="UTF-8" standalone="no"?>
<!DOCTYPE svg PUBLIC "-//W3C//DTD SVG 1.1//EN"
 "http://www.w3.org/Graphics/SVG/1.1/DTD/svg11.dtd">
<!-- Generated by graphviz version 12.1.2 (0)
 -->
<!-- Title: Models::Uptake::uptake_step Pages: 1 -->
<svg width="309pt" height="111pt"
 viewBox="0.00 0.00 308.50 110.50" xmlns="http://www.w3.org/2000/svg" xmlns:xlink="http://www.w3.org/1999/xlink">
<g id="graph0" class="graph" transform="scale(1 1) rotate(0) translate(4 106.5)">
<title>Models::Uptake::uptake_step</title>
<!-- Node1 -->
<g id="Node000001" class="node">
<title>Node1</title>
<g id="a_Node000001"><a xlink:title=" ">
<polygon fill="#999999" stroke="#666666" points="142.75,-60.5 0,-60.5 0,-42 142.75,-42 142.75,-60.5"/>
<text text-anchor="middle" x="71.38" y="-47" font-family="Helvetica,sans-Serif" font-size="10.00">Models::Uptake::uptake_step</text>
</a>
</g>
</g>
<!-- Node2 -->
<g id="Node000002" class="node">
<title>Node2</title>
<g id="a_Node000002"><a xlink:href="namespaceModels.html#aff3e4340a32804ffc9a3fba674928842" target="_top" xlink:title=" ">
<polygon fill="white" stroke="#666666" points="274.62,-102.5 204.62,-102.5 204.62,-84 274.62,-84 274.62,-102.5"/>
<text text-anchor="middle" x="239.62" y="-89" font-family="Helvetica,sans-Serif" font-size="10.00">Models::freq</text>
</a>
</g>
</g>
<!-- Node1&#45;&gt;Node2 -->
<g id="edge1_Node000001_Node000002" class="edge">
<title>Node1&#45;&gt;Node2</title>
<g id="a_edge1_Node000001_Node000002"><a xlink:title=" ">
<path fill="none" stroke="#63b8ff" d="M110.93,-60.99C135.5,-67.2 167.44,-75.27 193.23,-81.78"/>
<polygon fill="#63b8ff" stroke="#63b8ff" points="192.21,-85.13 202.76,-84.19 193.92,-78.35 192.21,-85.13"/>
</a>
</g>
</g>
<!-- Node3 -->
<g id="Node000003" class="node">
<title>Node3</title>
<g id="a_Node000003"><a xlink:href="structModels_1_1Uptake.html#a3627cf1414527a8edd7082dd51d24fba" target="_top" xlink:title=" ">
<polygon fill="white" stroke="#666666" points="291.12,-65.75 188.12,-65.75 188.12,-36.75 291.12,-36.75 291.12,-65.75"/>
<text text-anchor="start" x="196.12" y="-52.25" font-family="Helvetica,sans-Serif" font-size="10.00">Models::Uptake::phi</text>
<text text-anchor="middle" x="239.62" y="-41.75" font-family="Helvetica,sans-Serif" font-size="10.00">_permease</text>
</a>
</g>
</g>
<!-- Node1&#45;&gt;Node3 -->
<g id="edge2_Node000001_Node000003" class="edge">
<title>Node1&#45;&gt;Node3</title>
<g id="a_edge2_Node000001_Node000003"><a xlink:title=" ">
<path fill="none" stroke="#63b8ff" d="M142.88,-51.25C154.05,-51.25 165.52,-51.25 176.48,-51.25"/>
<polygon fill="#63b8ff" stroke="#63b8ff" points="176.16,-54.75 186.16,-51.25 176.16,-47.75 176.16,-54.75"/>
</a>
</g>
</g>
<!-- Node4 -->
<g id="Node000004" class="node">
<title>Node4</title>
<g id="a_Node000004"><a xlink:href="structModels_1_1Uptake.html#ad5bef0e6800ba6e9b3ba55a675f270a8" target="_top" xlink:title=" ">
<polygon fill="white" stroke="#666666" points="300.5,-18.5 178.75,-18.5 178.75,0 300.5,0 300.5,-18.5"/>
<text text-anchor="middle" x="239.62" y="-5" font-family="Helvetica,sans-Serif" font-size="10.00">Models::Uptake::phi_pts</text>
</a>
</g>
</g>
<!-- Node1&#45;&gt;Node4 -->
<g id="edge3_Node000001_Node000004" class="edge">
<title>Node1&#45;&gt;Node4</title>
<g id="a_edge3_Node000001_Node000004"><a xlink:title=" ">
<path fill="none" stroke="#63b8ff" d="M110.93,-41.51C134.22,-35.62 164.14,-28.07 189.16,-21.75"/>
<polygon fill="#63b8ff" stroke="#63b8ff" points="189.97,-25.15 198.81,-19.31 188.26,-18.37 189.97,-25.15"/>
</a>
</g>
</g>
</g>
</svg>
