<?xml version="1.0" encoding="UTF-8" standalone="no"?>
<!DOCTYPE svg PUBLIC "-//W3C//DTD SVG 1.1//EN"
 "http://www.w3.org/Graphics/SVG/1.1/DTD/svg11.dtd">
<!-- Generated by graphviz version 14.0.1 (0)
 -->
<!-- Title: Api::SimulationInstance::set_feed_constant Pages: 1 -->
<svg width="315pt" height="84pt"
 viewBox="0.00 0.00 315.00 84.00" xmlns="http://www.w3.org/2000/svg" xmlns:xlink="http://www.w3.org/1999/xlink">
<g id="graph0" class="graph" transform="scale(1 1) rotate(0) translate(4 80)">
<title>Api::SimulationInstance::set_feed_constant</title>
<!-- Node1 -->
<g id="Node000001" class="node">
<title>Node1</title>
<g id="a_Node000001"><a xlink:title=" ">
<polygon fill="#999999" stroke="#666666" points="119.5,-52 0,-52 0,-23 119.5,-23 119.5,-52"/>
<text xml:space="preserve" text-anchor="start" x="8" y="-38.5" font-family="Helvetica,sans-Serif" font-size="10.00">Api::SimulationInstance</text>
<text xml:space="preserve" text-anchor="middle" x="59.75" y="-28" font-family="Helvetica,sans-Serif" font-size="10.00">::set_feed_constant</text>
</a>
</g>
</g>
<!-- Node2 -->
<g id="Node000002" class="node">
<title>Node2</title>
<g id="a_Node000002"><a xlink:href="structSimulation_1_1Feed_1_1FeedFactory.html#ad67572164ac3ac30ccfacb0754e2fbab" target="_top" xlink:title=" ">
<polygon fill="white" stroke="#666666" points="306.5,-76 155.5,-76 155.5,-47 306.5,-47 306.5,-76"/>
<text xml:space="preserve" text-anchor="start" x="163.5" y="-62.5" font-family="Helvetica,sans-Serif" font-size="10.00">Simulation::Feed::FeedFactory</text>
<text xml:space="preserve" text-anchor="middle" x="231" y="-52" font-family="Helvetica,sans-Serif" font-size="10.00">::constant</text>
</a>
</g>
</g>
<!-- Node1&#45;&gt;Node2 -->
<g id="edge1_Node000001_Node000002" class="edge">
<title>Node1&#45;&gt;Node2</title>
<g id="a_edge1_Node000001_Node000002"><a xlink:title=" ">
<path fill="none" stroke="#63b8ff" d="M119.95,-45.89C127.66,-46.99 135.68,-48.12 143.72,-49.26"/>
<polygon fill="#63b8ff" stroke="#63b8ff" points="143.18,-52.72 153.57,-50.66 144.16,-45.79 143.18,-52.72"/>
</a>
</g>
</g>
<!-- Node3 -->
<g id="Node000003" class="node">
<title>Node3</title>
<g id="a_Node000003"><a xlink:href="structApi_1_1SimulationInstance.html#a4508272c4bba7fdaa1e3695ee606f538" target="_top" xlink:title=" ">
<polygon fill="white" stroke="#666666" points="290.75,-29 171.25,-29 171.25,0 290.75,0 290.75,-29"/>
<text xml:space="preserve" text-anchor="start" x="179.25" y="-15.5" font-family="Helvetica,sans-Serif" font-size="10.00">Api::SimulationInstance</text>
<text xml:space="preserve" text-anchor="middle" x="231" y="-5" font-family="Helvetica,sans-Serif" font-size="10.00">::set_feed</text>
</a>
</g>
</g>
<!-- Node1&#45;&gt;Node3 -->
<g id="edge2_Node000001_Node000003" class="edge">
<title>Node1&#45;&gt;Node3</title>
<g id="a_edge2_Node000001_Node000003"><a xlink:title=" ">
<path fill="none" stroke="#63b8ff" d="M119.95,-29.46C132.7,-27.72 146.31,-25.87 159.44,-24.09"/>
<polygon fill="#63b8ff" stroke="#63b8ff" points="159.9,-27.56 169.34,-22.74 158.96,-20.62 159.9,-27.56"/>
</a>
</g>
</g>
</g>
</svg>
