<?xml version="1.0" encoding="UTF-8" standalone="no"?>
<!DOCTYPE svg PUBLIC "-//W3C//DTD SVG 1.1//EN"
 "http://www.w3.org/Graphics/SVG/1.1/DTD/svg11.dtd">
<!-- Generated by graphviz version 14.0.1 (0)
 -->
<!-- Title: MC::MonteCarloUnit Pages: 1 -->
<svg width="327pt" height="98pt"
 viewBox="0.00 0.00 327.00 98.00" xmlns="http://www.w3.org/2000/svg" xmlns:xlink="http://www.w3.org/1999/xlink">
<g id="graph0" class="graph" transform="scale(1 1) rotate(0) translate(4 93.5)">
<title>MC::MonteCarloUnit</title>
<!-- Node1 -->
<g id="Node000001" class="node">
<title>Node1</title>
<g id="a_Node000001"><a xlink:title="General&#45;purpose Monte Carlo unit to carry out simulations.">
<polygon fill="#999999" stroke="#666666" points="227.88,-18.5 122.62,-18.5 122.62,0 227.88,0 227.88,-18.5"/>
<text xml:space="preserve" text-anchor="middle" x="175.25" y="-5" font-family="Helvetica,sans-Serif" font-size="10.00">MC::MonteCarloUnit</text>
</a>
</g>
</g>
<!-- Node2 -->
<g id="Node000002" class="node">
<title>Node2</title>
<g id="a_Node000002"><a xlink:href="structMC_1_1EventContainer.html" target="_top" xlink:title="Use to count events that occurs during Monte&#45;Carlo processing cycles.">
<polygon fill="white" stroke="#666666" points="104.5,-89.5 0,-89.5 0,-71 104.5,-71 104.5,-89.5"/>
<text xml:space="preserve" text-anchor="middle" x="52.25" y="-76" font-family="Helvetica,sans-Serif" font-size="10.00">MC::EventContainer</text>
</a>
</g>
</g>
<!-- Node2&#45;&gt;Node1 -->
<g id="edge1_Node000001_Node000002" class="edge">
<title>Node2&#45;&gt;Node1</title>
<g id="a_edge1_Node000001_Node000002"><a xlink:title=" ">
<path fill="none" stroke="#9a32cd" stroke-dasharray="5,2" d="M77.61,-65.03C102.34,-51.15 139.16,-30.49 159.8,-18.92"/>
<polygon fill="#9a32cd" stroke="#9a32cd" points="76.16,-61.83 69.15,-69.77 79.58,-67.93 76.16,-61.83"/>
</a>
</g>
<text xml:space="preserve" text-anchor="start" x="131.38" y="-40.5" font-family="Helvetica,sans-Serif" font-size="10.00" fill="grey">events</text>
</g>
<!-- Node3 -->
<g id="Node000003" class="node">
<title>Node3</title>
<g id="a_Node000003"><a xlink:href="classMC_1_1ReactorDomain.html" target="_top" xlink:title="Represents the spatial domain where Monte Carlo particles can exist.">
<polygon fill="white" stroke="#666666" points="227.88,-89.5 122.62,-89.5 122.62,-71 227.88,-71 227.88,-89.5"/>
<text xml:space="preserve" text-anchor="middle" x="175.25" y="-76" font-family="Helvetica,sans-Serif" font-size="10.00">MC::ReactorDomain</text>
</a>
</g>
</g>
<!-- Node3&#45;&gt;Node1 -->
<g id="edge2_Node000001_Node000003" class="edge">
<title>Node3&#45;&gt;Node1</title>
<g id="a_edge2_Node000001_Node000003"><a xlink:title=" ">
<path fill="none" stroke="#9a32cd" stroke-dasharray="5,2" d="M175.25,-59.05C175.25,-45.63 175.25,-28.68 175.25,-18.7"/>
<polygon fill="#9a32cd" stroke="#9a32cd" points="171.75,-59 175.25,-69 178.75,-59 171.75,-59"/>
</a>
</g>
<text xml:space="preserve" text-anchor="start" x="178.25" y="-40.5" font-family="Helvetica,sans-Serif" font-size="10.00" fill="grey">domain</text>
</g>
<!-- Node4 -->
<g id="Node000004" class="node">
<title>Node4</title>
<g id="a_Node000004"><a xlink:href="classMC_1_1KPRNG.html" target="_top" xlink:title="Utilities and wrap around kokkos random generator.">
<polygon fill="white" stroke="#666666" points="318.75,-89.5 245.75,-89.5 245.75,-71 318.75,-71 318.75,-89.5"/>
<text xml:space="preserve" text-anchor="middle" x="282.25" y="-76" font-family="Helvetica,sans-Serif" font-size="10.00">MC::KPRNG</text>
</a>
</g>
</g>
<!-- Node4&#45;&gt;Node1 -->
<g id="edge3_Node000001_Node000004" class="edge">
<title>Node4&#45;&gt;Node1</title>
<g id="a_edge3_Node000001_Node000004"><a xlink:title=" ">
<path fill="none" stroke="#9a32cd" stroke-dasharray="5,2" d="M259.77,-64.28C247.29,-56.02 231.46,-45.61 217.25,-36.5 207.98,-30.56 197.48,-24 189.3,-18.92"/>
<polygon fill="#9a32cd" stroke="#9a32cd" points="257.83,-67.19 268.1,-69.81 261.7,-61.36 257.83,-67.19"/>
</a>
</g>
<text xml:space="preserve" text-anchor="start" x="245.36" y="-40.5" font-family="Helvetica,sans-Serif" font-size="10.00" fill="grey">rng</text>
</g>
</g>
</svg>
