<?xml version="1.0" encoding="UTF-8" standalone="no"?>
<!DOCTYPE svg PUBLIC "-//W3C//DTD SVG 1.1//EN"
 "http://www.w3.org/Graphics/SVG/1.1/DTD/svg11.dtd">
<!-- Generated by graphviz version 12.1.2 (0)
 -->
<!-- Title: Models::Uptake::division Pages: 1 -->
<svg width="299pt" height="74pt"
 viewBox="0.00 0.00 298.75 73.75" xmlns="http://www.w3.org/2000/svg" xmlns:xlink="http://www.w3.org/1999/xlink">
<g id="graph0" class="graph" transform="scale(1 1) rotate(0) translate(4 69.75)">
<title>Models::Uptake::division</title>
<!-- Node1 -->
<g id="Node000001" class="node">
<title>Node1</title>
<g id="a_Node000001"><a xlink:title=" ">
<polygon fill="#999999" stroke="#666666" points="290.75,-39.5 167.5,-39.5 167.5,-21 290.75,-21 290.75,-39.5"/>
<text text-anchor="middle" x="229.12" y="-26" font-family="Helvetica,sans-Serif" font-size="10.00">Models::Uptake::division</text>
</a>
</g>
</g>
<!-- Node2 -->
<g id="Node000002" class="node">
<title>Node2</title>
<g id="a_Node000002"><a xlink:href="structModels_1_1SimpleModel.html#a0c6a28fd790efe9193d1a3973f7239d7" target="_top" xlink:title=" ">
<polygon fill="white" stroke="#666666" points="120.62,-65.75 10.88,-65.75 10.88,-36.75 120.62,-36.75 120.62,-65.75"/>
<text text-anchor="start" x="18.88" y="-52.25" font-family="Helvetica,sans-Serif" font-size="10.00">Models::SimpleModel</text>
<text text-anchor="middle" x="65.75" y="-41.75" font-family="Helvetica,sans-Serif" font-size="10.00">::division</text>
</a>
</g>
</g>
<!-- Node1&#45;&gt;Node2 -->
<g id="edge1_Node000001_Node000002" class="edge">
<title>Node1&#45;&gt;Node2</title>
<g id="a_edge1_Node000001_Node000002"><a xlink:title=" ">
<path fill="none" stroke="#63b8ff" d="M155.95,-39.64C144.19,-41.17 132.19,-42.73 120.96,-44.2"/>
<polygon fill="#63b8ff" stroke="#63b8ff" points="156.15,-43.15 165.62,-38.38 155.25,-36.2 156.15,-43.15"/>
</a>
</g>
</g>
<!-- Node3 -->
<g id="Node000003" class="node">
<title>Node3</title>
<g id="a_Node000003"><a xlink:href="structModels_1_1TwoMeta.html#afcf107b4e7c86508762048d28608a5b9" target="_top" xlink:title=" ">
<polygon fill="white" stroke="#666666" points="131.5,-18.5 0,-18.5 0,0 131.5,0 131.5,-18.5"/>
<text text-anchor="middle" x="65.75" y="-5" font-family="Helvetica,sans-Serif" font-size="10.00">Models::TwoMeta::division</text>
</a>
</g>
</g>
<!-- Node1&#45;&gt;Node3 -->
<g id="edge2_Node000001_Node000003" class="edge">
<title>Node1&#45;&gt;Node3</title>
<g id="a_edge2_Node000001_Node000003"><a xlink:title=" ">
<path fill="none" stroke="#63b8ff" d="M155.91,-20.85C147.91,-19.81 139.79,-18.76 131.88,-17.73"/>
<polygon fill="#63b8ff" stroke="#63b8ff" points="155.25,-24.3 165.62,-22.12 156.15,-17.35 155.25,-24.3"/>
</a>
</g>
</g>
</g>
</svg>
