<?xml version="1.0" encoding="UTF-8" standalone="no"?>
<!DOCTYPE svg PUBLIC "-//W3C//DTD SVG 1.1//EN"
 "http://www.w3.org/Graphics/SVG/1.1/DTD/svg11.dtd">
<!-- Generated by graphviz version 12.1.2 (0)
 -->
<!-- Title: Models::Uptake::phi_pts Pages: 1 -->
<svg width="472pt" height="121pt"
 viewBox="0.00 0.00 472.25 121.00" xmlns="http://www.w3.org/2000/svg" xmlns:xlink="http://www.w3.org/1999/xlink">
<g id="graph0" class="graph" transform="scale(1 1) rotate(0) translate(4 117)">
<title>Models::Uptake::phi_pts</title>
<!-- Node1 -->
<g id="Node000001" class="node">
<title>Node1</title>
<g id="a_Node000001"><a xlink:title=" ">
<polygon fill="#999999" stroke="#666666" points="464.25,-83.75 342.5,-83.75 342.5,-65.25 464.25,-65.25 464.25,-83.75"/>
<text text-anchor="middle" x="403.38" y="-70.25" font-family="Helvetica,sans-Serif" font-size="10.00">Models::Uptake::phi_pts</text>
</a>
</g>
</g>
<!-- Node2 -->
<g id="Node000002" class="node">
<title>Node2</title>
<g id="a_Node000002"><a xlink:href="structModels_1_1Uptake.html#a9e59d659bfd785fb8b4dc2ba14d4b123" target="_top" xlink:title=" ">
<polygon fill="white" stroke="#666666" points="294.5,-102.75 175.75,-102.75 175.75,-84.25 294.5,-84.25 294.5,-102.75"/>
<text text-anchor="middle" x="235.12" y="-89.25" font-family="Helvetica,sans-Serif" font-size="10.00">Models::Uptake::uptake</text>
</a>
</g>
</g>
<!-- Node1&#45;&gt;Node2 -->
<g id="edge1_Node000001_Node000002" class="edge">
<title>Node1&#45;&gt;Node2</title>
<g id="a_edge1_Node000001_Node000002"><a xlink:title=" ">
<path fill="none" stroke="#63b8ff" d="M330.97,-82.66C318.95,-84.03 306.6,-85.45 294.94,-86.78"/>
<polygon fill="#63b8ff" stroke="#63b8ff" points="331.31,-86.14 340.85,-81.53 330.52,-79.19 331.31,-86.14"/>
</a>
</g>
</g>
<!-- Node3 -->
<g id="Node000003" class="node">
<title>Node3</title>
<g id="a_Node000003"><a xlink:href="structModels_1_1Uptake.html#a511b5a27e41b542b8f2d4f0b409c133e" target="_top" xlink:title=" ">
<polygon fill="white" stroke="#666666" points="306.5,-65.75 163.75,-65.75 163.75,-47.25 306.5,-47.25 306.5,-65.75"/>
<text text-anchor="middle" x="235.12" y="-52.25" font-family="Helvetica,sans-Serif" font-size="10.00">Models::Uptake::uptake_step</text>
</a>
</g>
</g>
<!-- Node1&#45;&gt;Node3 -->
<g id="edge2_Node000001_Node000003" class="edge">
<title>Node1&#45;&gt;Node3</title>
<g id="a_edge2_Node000001_Node000003"><a xlink:title=" ">
<path fill="none" stroke="#63b8ff" d="M331.11,-66.78C323.06,-65.91 314.85,-65.02 306.81,-64.15"/>
<polygon fill="#63b8ff" stroke="#63b8ff" points="330.53,-70.24 340.85,-67.84 331.29,-63.28 330.53,-70.24"/>
</a>
</g>
</g>
<!-- Node4 -->
<g id="Node000004" class="node">
<title>Node4</title>
<g id="a_Node000004"><a xlink:href="structModels_1_1SimpleModel.html#af7aeaedcc2c7fa2ecc72e1de31067c15" target="_top" xlink:title=" ">
<polygon fill="white" stroke="#666666" points="118.75,-113 9,-113 9,-84 118.75,-84 118.75,-113"/>
<text text-anchor="start" x="17" y="-99.5" font-family="Helvetica,sans-Serif" font-size="10.00">Models::SimpleModel</text>
<text text-anchor="middle" x="63.88" y="-89" font-family="Helvetica,sans-Serif" font-size="10.00">::update</text>
</a>
</g>
</g>
<!-- Node3&#45;&gt;Node4 -->
<g id="edge3_Node000003_Node000004" class="edge">
<title>Node3&#45;&gt;Node4</title>
<g id="a_edge3_Node000003_Node000004"><a xlink:title=" ">
<path fill="none" stroke="#63b8ff" d="M183.89,-68.97C163.45,-74.04 139.79,-79.91 118.98,-85.07"/>
<polygon fill="#63b8ff" stroke="#63b8ff" points="184.54,-72.41 193.4,-66.61 182.85,-65.62 184.54,-72.41"/>
</a>
</g>
</g>
<!-- Node5 -->
<g id="Node000005" class="node">
<title>Node5</title>
<g id="a_Node000005"><a xlink:href="structModels_1_1TwoMeta.html#ada93cefb060e3e11a33d6860c1097e90" target="_top" xlink:title=" ">
<polygon fill="white" stroke="#666666" points="127.75,-65.75 0,-65.75 0,-47.25 127.75,-47.25 127.75,-65.75"/>
<text text-anchor="middle" x="63.88" y="-52.25" font-family="Helvetica,sans-Serif" font-size="10.00">Models::TwoMeta::update</text>
</a>
</g>
</g>
<!-- Node3&#45;&gt;Node5 -->
<g id="edge4_Node000003_Node000005" class="edge">
<title>Node3&#45;&gt;Node5</title>
<g id="a_edge4_Node000003_Node000005"><a xlink:title=" ">
<path fill="none" stroke="#63b8ff" d="M152.02,-56.5C143.98,-56.5 135.92,-56.5 128.11,-56.5"/>
<polygon fill="#63b8ff" stroke="#63b8ff" points="151.81,-60 161.81,-56.5 151.81,-53 151.81,-60"/>
</a>
</g>
</g>
<!-- Node6 -->
<g id="Node000006" class="node">
<title>Node6</title>
<g id="a_Node000006"><a xlink:href="structModels_1_1TwoMetaDiv.html#a33078ae1db5734a5ae31db7fe640fcce" target="_top" xlink:title=" ">
<polygon fill="white" stroke="#666666" points="117.62,-29 10.12,-29 10.12,0 117.62,0 117.62,-29"/>
<text text-anchor="start" x="18.12" y="-15.5" font-family="Helvetica,sans-Serif" font-size="10.00">Models::TwoMetaDiv</text>
<text text-anchor="middle" x="63.88" y="-5" font-family="Helvetica,sans-Serif" font-size="10.00">::update</text>
</a>
</g>
</g>
<!-- Node3&#45;&gt;Node6 -->
<g id="edge5_Node000003_Node000006" class="edge">
<title>Node3&#45;&gt;Node6</title>
<g id="a_edge5_Node000003_Node000006"><a xlink:title=" ">
<path fill="none" stroke="#63b8ff" d="M183.74,-44C163.02,-38.86 139.01,-32.9 118.02,-27.69"/>
<polygon fill="#63b8ff" stroke="#63b8ff" points="182.85,-47.38 193.4,-46.39 184.54,-40.59 182.85,-47.38"/>
</a>
</g>
</g>
</g>
</svg>
