<?xml version="1.0" encoding="UTF-8" standalone="no"?>
<!DOCTYPE svg PUBLIC "-//W3C//DTD SVG 1.1//EN"
 "http://www.w3.org/Graphics/SVG/1.1/DTD/svg11.dtd">
<!-- Generated by graphviz version 14.0.1 (0)
 -->
<!-- Title: Simulation::KernelInline::Functors&lt; Space, Model &gt; Pages: 1 -->
<svg width="586pt" height="136pt"
 viewBox="0.00 0.00 586.00 136.00" xmlns="http://www.w3.org/2000/svg" xmlns:xlink="http://www.w3.org/1999/xlink">
<g id="graph0" class="graph" transform="scale(1 1) rotate(0) translate(4 132.25)">
<title>Simulation::KernelInline::Functors&lt; Space, Model &gt;</title>
<!-- Node1 -->
<g id="Node000001" class="node">
<title>Node1</title>
<g id="a_Node000001"><a xlink:title=" ">
<polygon fill="#999999" stroke="#666666" points="577.5,-105.25 438.5,-105.25 438.5,-76.25 577.5,-76.25 577.5,-105.25"/>
<text xml:space="preserve" text-anchor="start" x="446.5" y="-91.75" font-family="Helvetica,sans-Serif" font-size="10.00">Simulation::KernelInline</text>
<text xml:space="preserve" text-anchor="middle" x="508" y="-81.25" font-family="Helvetica,sans-Serif" font-size="10.00">::Functors&lt; Space, Model &gt;</text>
</a>
</g>
</g>
<!-- Node2 -->
<g id="Node000002" class="node">
<title>Node2</title>
<g id="a_Node000002"><a xlink:href="structSimulation_1_1KernelInline_1_1CycleFunctor.html" target="_top" xlink:title=" ">
<polygon fill="white" stroke="#666666" points="342.5,-128.25 218.5,-128.25 218.5,-99.25 342.5,-99.25 342.5,-128.25"/>
<text xml:space="preserve" text-anchor="start" x="226.5" y="-114.75" font-family="Helvetica,sans-Serif" font-size="10.00">Simulation::KernelInline</text>
<text xml:space="preserve" text-anchor="middle" x="280.5" y="-104.25" font-family="Helvetica,sans-Serif" font-size="10.00">::CycleFunctor&lt; Model &gt;</text>
</a>
</g>
</g>
<!-- Node2&#45;&gt;Node1 -->
<g id="edge1_Node000001_Node000002" class="edge">
<title>Node2&#45;&gt;Node1</title>
<g id="a_edge1_Node000001_Node000002"><a xlink:title=" ">
<path fill="none" stroke="#9a32cd" stroke-dasharray="5,2" d="M354.13,-106.34C381.08,-103.59 411.54,-100.49 438.14,-97.77"/>
<polygon fill="#9a32cd" stroke="#9a32cd" points="353.92,-102.85 344.33,-107.34 354.63,-109.81 353.92,-102.85"/>
</a>
</g>
<text xml:space="preserve" text-anchor="start" x="363.88" y="-109.65" font-family="Helvetica,sans-Serif" font-size="10.00" fill="grey">cycle_kernel</text>
</g>
<!-- Node3 -->
<g id="Node000003" class="node">
<title>Node3</title>
<g id="a_Node000003"><a xlink:href="structSimulation_1_1KernelInline_1_1MoveFunctor.html" target="_top" xlink:title=" ">
<polygon fill="white" stroke="#666666" points="339.5,-81.25 221.5,-81.25 221.5,-52.25 339.5,-52.25 339.5,-81.25"/>
<text xml:space="preserve" text-anchor="start" x="229.5" y="-67.75" font-family="Helvetica,sans-Serif" font-size="10.00">Simulation::KernelInline</text>
<text xml:space="preserve" text-anchor="middle" x="280.5" y="-57.25" font-family="Helvetica,sans-Serif" font-size="10.00">::MoveFunctor</text>
</a>
</g>
</g>
<!-- Node3&#45;&gt;Node1 -->
<g id="edge2_Node000001_Node000003" class="edge">
<title>Node3&#45;&gt;Node1</title>
<g id="a_edge2_Node000001_Node000003"><a xlink:title=" ">
<path fill="none" stroke="#9a32cd" stroke-dasharray="5,2" d="M351.08,-72.42C373.28,-74.39 397.94,-76.74 420.5,-79.25 426.22,-79.89 432.15,-80.59 438.1,-81.32"/>
<polygon fill="#9a32cd" stroke="#9a32cd" points="351.49,-68.95 341.22,-71.56 350.88,-75.92 351.49,-68.95"/>
</a>
</g>
<text xml:space="preserve" text-anchor="start" x="363.5" y="-83.25" font-family="Helvetica,sans-Serif" font-size="10.00" fill="grey">move_kernel</text>
</g>
<!-- Node4 -->
<g id="Node000004" class="node">
<title>Node4</title>
<g id="a_Node000004"><a xlink:href="structSimulation_1_1KernelInline_1_1MoveInfo.html" target="_top" xlink:title=" ">
<polygon fill="white" stroke="#666666" points="147.25,-123.25 0,-123.25 0,-94.25 147.25,-94.25 147.25,-123.25"/>
<text xml:space="preserve" text-anchor="start" x="8" y="-109.75" font-family="Helvetica,sans-Serif" font-size="10.00">Simulation::KernelInline</text>
<text xml:space="preserve" text-anchor="middle" x="73.62" y="-99.25" font-family="Helvetica,sans-Serif" font-size="10.00">::MoveInfo&lt; ComputeSpace &gt;</text>
</a>
</g>
</g>
<!-- Node4&#45;&gt;Node3 -->
<g id="edge3_Node000003_Node000004" class="edge">
<title>Node4&#45;&gt;Node3</title>
<g id="a_edge3_Node000003_Node000004"><a xlink:title=" ">
<path fill="none" stroke="#9a32cd" stroke-dasharray="5,2" d="M158.79,-94.94C172.76,-92.39 187.06,-89.62 200.5,-86.75 207.69,-85.21 215.23,-83.47 222.66,-81.68"/>
<polygon fill="#9a32cd" stroke="#9a32cd" points="158.4,-91.45 149.18,-96.67 159.64,-98.34 158.4,-91.45"/>
</a>
</g>
<text xml:space="preserve" text-anchor="start" x="171.25" y="-97.59" font-family="Helvetica,sans-Serif" font-size="10.00" fill="grey">move</text>
</g>
<!-- Node5 -->
<g id="Node000005" class="node">
<title>Node5</title>
<g id="a_Node000005"><a xlink:href="structMC_1_1EventContainer.html" target="_top" xlink:title="Use to count events that occurs during Monte&#45;Carlo processing cycles.">
<polygon fill="white" stroke="#666666" points="125.88,-76 21.38,-76 21.38,-57.5 125.88,-57.5 125.88,-76"/>
<text xml:space="preserve" text-anchor="middle" x="73.62" y="-62.5" font-family="Helvetica,sans-Serif" font-size="10.00">MC::EventContainer</text>
</a>
</g>
</g>
<!-- Node5&#45;&gt;Node3 -->
<g id="edge4_Node000003_Node000005" class="edge">
<title>Node5&#45;&gt;Node3</title>
<g id="a_edge4_Node000003_Node000005"><a xlink:title=" ">
<path fill="none" stroke="#9a32cd" stroke-dasharray="5,2" d="M137.48,-66.75C164.19,-66.75 195.13,-66.75 221.3,-66.75"/>
<polygon fill="#9a32cd" stroke="#9a32cd" points="137.84,-63.25 127.84,-66.75 137.84,-70.25 137.84,-63.25"/>
</a>
</g>
<text xml:space="preserve" text-anchor="start" x="168.62" y="-70.75" font-family="Helvetica,sans-Serif" font-size="10.00" fill="grey">events</text>
</g>
<!-- Node6 -->
<g id="Node000006" class="node">
<title>Node6</title>
<g id="a_Node000006"><a xlink:href="classSimulation_1_1Probes.html" target="_top" xlink:title=" ">
<polygon fill="white" stroke="#666666" points="133.75,-39.5 13.5,-39.5 13.5,0 133.75,0 133.75,-39.5"/>
<text xml:space="preserve" text-anchor="start" x="21.5" y="-26" font-family="Helvetica,sans-Serif" font-size="10.00">Simulation::Probes</text>
<text xml:space="preserve" text-anchor="start" x="21.5" y="-15.5" font-family="Helvetica,sans-Serif" font-size="10.00">&lt; AutoGenerated::probe</text>
<text xml:space="preserve" text-anchor="middle" x="73.62" y="-5" font-family="Helvetica,sans-Serif" font-size="10.00">_buffer_size &gt;</text>
</a>
</g>
</g>
<!-- Node6&#45;&gt;Node3 -->
<g id="edge5_Node000003_Node000006" class="edge">
<title>Node6&#45;&gt;Node3</title>
<g id="a_edge5_Node000003_Node000006"><a xlink:title=" ">
<path fill="none" stroke="#9a32cd" stroke-dasharray="5,2" d="M145.06,-33.98C163.16,-37.8 182.59,-42.04 200.5,-46.25 207.81,-47.97 215.48,-49.85 223.05,-51.76"/>
<polygon fill="#9a32cd" stroke="#9a32cd" points="145.97,-30.59 135.46,-31.97 144.53,-37.44 145.97,-30.59"/>
</a>
</g>
<text xml:space="preserve" text-anchor="start" x="168.25" y="-50.25" font-family="Helvetica,sans-Serif" font-size="10.00" fill="grey">probes</text>
</g>
</g>
</svg>
