<?xml version="1.0" encoding="UTF-8" standalone="no"?>
<!DOCTYPE svg PUBLIC "-//W3C//DTD SVG 1.1//EN"
 "http://www.w3.org/Graphics/SVG/1.1/DTD/svg11.dtd">
<!-- Generated by graphviz version 14.0.1 (0)
 -->
<!-- Title: Result::gets Pages: 1 -->
<svg width="295pt" height="27pt"
 viewBox="0.00 0.00 295.00 27.00" xmlns="http://www.w3.org/2000/svg" xmlns:xlink="http://www.w3.org/1999/xlink">
<g id="graph0" class="graph" transform="scale(1 1) rotate(0) translate(4 22.5)">
<title>Result::gets</title>
<!-- Node1 -->
<g id="Node000001" class="node">
<title>Node1</title>
<g id="a_Node000001"><a xlink:title=" ">
<polygon fill="#999999" stroke="#666666" points="68.5,-18.5 0,-18.5 0,0 68.5,0 68.5,-18.5"/>
<text xml:space="preserve" text-anchor="middle" x="34.25" y="-5" font-family="Helvetica,sans-Serif" font-size="10.00">Result::gets</text>
</a>
</g>
</g>
<!-- Node2 -->
<g id="Node000002" class="node">
<title>Node2</title>
<g id="a_Node000002"><a xlink:href="structResult.html#ace8dba345682b9d6f32b18aedb9c4e99" target="_top" xlink:title=" ">
<polygon fill="white" stroke="#666666" points="181.25,-18.5 104.5,-18.5 104.5,0 181.25,0 181.25,-18.5"/>
<text xml:space="preserve" text-anchor="middle" x="142.88" y="-5" font-family="Helvetica,sans-Serif" font-size="10.00">Result::invalid</text>
</a>
</g>
</g>
<!-- Node1&#45;&gt;Node2 -->
<g id="edge1_Node000001_Node000002" class="edge">
<title>Node1&#45;&gt;Node2</title>
<g id="a_edge1_Node000001_Node000002"><a xlink:title=" ">
<path fill="none" stroke="#63b8ff" d="M68.99,-9.25C76.62,-9.25 84.87,-9.25 92.98,-9.25"/>
<polygon fill="#63b8ff" stroke="#63b8ff" points="92.77,-12.75 102.77,-9.25 92.77,-5.75 92.77,-12.75"/>
</a>
</g>
</g>
<!-- Node3 -->
<g id="Node000003" class="node">
<title>Node3</title>
<g id="a_Node000003"><a xlink:href="structResult.html#a11cf7bc977f5a46e32ebf166dc982239" target="_top" xlink:title=" ">
<polygon fill="white" stroke="#666666" points="286.5,-18.5 217.25,-18.5 217.25,0 286.5,0 286.5,-18.5"/>
<text xml:space="preserve" text-anchor="middle" x="251.88" y="-5" font-family="Helvetica,sans-Serif" font-size="10.00">Result::valid</text>
</a>
</g>
</g>
<!-- Node2&#45;&gt;Node3 -->
<g id="edge2_Node000002_Node000003" class="edge">
<title>Node2&#45;&gt;Node3</title>
<g id="a_edge2_Node000002_Node000003"><a xlink:title=" ">
<path fill="none" stroke="#63b8ff" d="M181.6,-9.25C189.36,-9.25 197.61,-9.25 205.61,-9.25"/>
<polygon fill="#63b8ff" stroke="#63b8ff" points="205.54,-12.75 215.54,-9.25 205.54,-5.75 205.54,-12.75"/>
</a>
</g>
</g>
</g>
</svg>
