<?xml version="1.0" encoding="UTF-8" standalone="no"?>
<!DOCTYPE svg PUBLIC "-//W3C//DTD SVG 1.1//EN"
 "http://www.w3.org/Graphics/SVG/1.1/DTD/svg11.dtd">
<!-- Generated by graphviz version 14.0.1 (0)
 -->
<!-- Title: Result::valid Pages: 1 -->
<svg width="324pt" height="119pt"
 viewBox="0.00 0.00 324.00 119.00" xmlns="http://www.w3.org/2000/svg" xmlns:xlink="http://www.w3.org/1999/xlink">
<g id="graph0" class="graph" transform="scale(1 1) rotate(0) translate(4 114.5)">
<title>Result::valid</title>
<!-- Node1 -->
<g id="Node000001" class="node">
<title>Node1</title>
<g id="a_Node000001"><a xlink:title=" ">
<polygon fill="#999999" stroke="#666666" points="315.75,-55.5 246.5,-55.5 246.5,-37 315.75,-37 315.75,-55.5"/>
<text xml:space="preserve" text-anchor="middle" x="281.12" y="-42" font-family="Helvetica,sans-Serif" font-size="10.00">Result::valid</text>
</a>
</g>
</g>
<!-- Node2 -->
<g id="Node000002" class="node">
<title>Node2</title>
<g id="a_Node000002"><a xlink:href="structResult.html#ace8dba345682b9d6f32b18aedb9c4e99" target="_top" xlink:title=" ">
<polygon fill="white" stroke="#666666" points="195.88,-92.5 119.12,-92.5 119.12,-74 195.88,-74 195.88,-92.5"/>
<text xml:space="preserve" text-anchor="middle" x="157.5" y="-79" font-family="Helvetica,sans-Serif" font-size="10.00">Result::invalid</text>
</a>
</g>
</g>
<!-- Node1&#45;&gt;Node2 -->
<g id="edge1_Node000001_Node000002" class="edge">
<title>Node1&#45;&gt;Node2</title>
<g id="a_edge1_Node000001_Node000002"><a xlink:title=" ">
<path fill="none" stroke="#63b8ff" d="M237.26,-59.29C221.78,-64 204.6,-69.23 190.24,-73.59"/>
<polygon fill="#63b8ff" stroke="#63b8ff" points="238.17,-62.67 246.72,-56.41 236.14,-55.97 238.17,-62.67"/>
</a>
</g>
</g>
<!-- Node5 -->
<g id="Node000005" class="node">
<title>Node5</title>
<g id="a_Node000005"><a xlink:href="structResult.html#acdfac9fce3982dabd2bcf6c109128627" target="_top" xlink:title=" ">
<polygon fill="white" stroke="#666666" points="195.88,-55.5 119.12,-55.5 119.12,-37 195.88,-37 195.88,-55.5"/>
<text xml:space="preserve" text-anchor="middle" x="157.5" y="-42" font-family="Helvetica,sans-Serif" font-size="10.00">Result::match</text>
</a>
</g>
</g>
<!-- Node1&#45;&gt;Node5 -->
<g id="edge4_Node000001_Node000005" class="edge">
<title>Node1&#45;&gt;Node5</title>
<g id="a_edge4_Node000001_Node000005"><a xlink:title=" ">
<path fill="none" stroke="#63b8ff" d="M234.86,-46.25C222.08,-46.25 208.32,-46.25 196.04,-46.25"/>
<polygon fill="#63b8ff" stroke="#63b8ff" points="234.73,-49.75 244.73,-46.25 234.73,-42.75 234.73,-49.75"/>
</a>
</g>
</g>
<!-- Node6 -->
<g id="Node000006" class="node">
<title>Node6</title>
<g id="a_Node000006"><a xlink:href="structResult.html#a7400f5fec52ef4c72646dedd35b4b0bf" target="_top" xlink:title=" ">
<polygon fill="white" stroke="#666666" points="210.5,-18.5 104.5,-18.5 104.5,0 210.5,0 210.5,-18.5"/>
<text xml:space="preserve" text-anchor="middle" x="157.5" y="-5" font-family="Helvetica,sans-Serif" font-size="10.00">Result::operator bool</text>
</a>
</g>
</g>
<!-- Node1&#45;&gt;Node6 -->
<g id="edge5_Node000001_Node000006" class="edge">
<title>Node1&#45;&gt;Node6</title>
<g id="a_edge5_Node000001_Node000006"><a xlink:title=" ">
<path fill="none" stroke="#63b8ff" d="M237.26,-33.21C221.78,-28.5 204.6,-23.27 190.24,-18.91"/>
<polygon fill="#63b8ff" stroke="#63b8ff" points="236.14,-36.53 246.72,-36.09 238.17,-29.83 236.14,-36.53"/>
</a>
</g>
</g>
<!-- Node3 -->
<g id="Node000003" class="node">
<title>Node3</title>
<g id="a_Node000003"><a xlink:href="structResult.html#a520ef0bb676aaa7e0b4c954e38345852" target="_top" xlink:title=" ">
<polygon fill="white" stroke="#666666" points="65.88,-110.5 2.62,-110.5 2.62,-92 65.88,-92 65.88,-110.5"/>
<text xml:space="preserve" text-anchor="middle" x="34.25" y="-97" font-family="Helvetica,sans-Serif" font-size="10.00">Result::get</text>
</a>
</g>
</g>
<!-- Node2&#45;&gt;Node3 -->
<g id="edge2_Node000002_Node000003" class="edge">
<title>Node2&#45;&gt;Node3</title>
<g id="a_edge2_Node000002_Node000003"><a xlink:title=" ">
<path fill="none" stroke="#63b8ff" d="M107.75,-90.49C93.66,-92.58 78.68,-94.8 66.02,-96.68"/>
<polygon fill="#63b8ff" stroke="#63b8ff" points="107.93,-94 117.3,-89.07 106.9,-87.08 107.93,-94"/>
</a>
</g>
</g>
<!-- Node4 -->
<g id="Node000004" class="node">
<title>Node4</title>
<g id="a_Node000004"><a xlink:href="structResult.html#aa554453abcf5cb6e6352ec121d204c61" target="_top" xlink:title=" ">
<polygon fill="white" stroke="#666666" points="68.5,-73.5 0,-73.5 0,-55 68.5,-55 68.5,-73.5"/>
<text xml:space="preserve" text-anchor="middle" x="34.25" y="-60" font-family="Helvetica,sans-Serif" font-size="10.00">Result::gets</text>
</a>
</g>
</g>
<!-- Node2&#45;&gt;Node4 -->
<g id="edge3_Node000002_Node000004" class="edge">
<title>Node2&#45;&gt;Node4</title>
<g id="a_edge3_Node000002_Node000004"><a xlink:title=" ">
<path fill="none" stroke="#63b8ff" d="M107.61,-75.59C94.59,-73.55 80.81,-71.39 68.82,-69.51"/>
<polygon fill="#63b8ff" stroke="#63b8ff" points="106.88,-79.02 117.31,-77.11 107.97,-72.1 106.88,-79.02"/>
</a>
</g>
</g>
</g>
</svg>
