<?xml version="1.0" encoding="UTF-8" standalone="no"?>
<!DOCTYPE svg PUBLIC "-//W3C//DTD SVG 1.1//EN"
 "http://www.w3.org/Graphics/SVG/1.1/DTD/svg11.dtd">
<!-- Generated by graphviz version 12.1.2 (0)
 -->
<!-- Title: Models::TwoMeta::update Pages: 1 -->
<svg width="472pt" height="111pt"
 viewBox="0.00 0.00 472.25 110.50" xmlns="http://www.w3.org/2000/svg" xmlns:xlink="http://www.w3.org/1999/xlink">

<svg id="main" version="1.1" xmlns="http://www.w3.org/2000/svg" xmlns:xlink="http://www.w3.org/1999/xlink" xml:space="preserve">

<style type="text/css"><![CDATA[
.node, .edge {opacity: 0.7;}
.node.selected, .edge.selected {opacity: 1;}
.edge:hover path { stroke: red; }
.edge:hover polygon { stroke: red; fill: red; }
]]></style>
<script type="application/ecmascript" xlink:href="svg.min.js"/>
<svg id="graph" class="graph">
<g id="graph0" class="graph" transform="scale(1 1) rotate(0) translate(4 106.5)">
<title>Models::TwoMeta::update</title>
<!-- Node1 -->
<g id="Node000001" class="node">
<title>Node1</title>
<g id="a_Node000001"><a xlink:title=" ">
<polygon fill="#999999" stroke="#666666" points="127.75,-60.5 0,-60.5 0,-42 127.75,-42 127.75,-60.5"/>
<text text-anchor="middle" x="63.88" y="-47" font-family="Helvetica,sans-Serif" font-size="10.00">Models::TwoMeta::update</text>
</a>
</g>
</g>
<!-- Node2 -->
<g id="Node000002" class="node">
<title>Node2</title>
<g id="a_Node000002"><a xlink:href="structModels_1_1Uptake.html#a511b5a27e41b542b8f2d4f0b409c133e" target="_top" xlink:title=" ">
<polygon fill="white" stroke="#666666" points="306.5,-60.5 163.75,-60.5 163.75,-42 306.5,-42 306.5,-60.5"/>
<text text-anchor="middle" x="235.12" y="-47" font-family="Helvetica,sans-Serif" font-size="10.00">Models::Uptake::uptake_step</text>
</a>
</g>
</g>
<!-- Node1&#45;&gt;Node2 -->
<g id="edge1_Node000001_Node000002" class="edge">
<title>Node1&#45;&gt;Node2</title>
<g id="a_edge1_Node000001_Node000002"><a xlink:title=" ">
<path fill="none" stroke="#63b8ff" d="M127.9,-51.25C135.75,-51.25 143.88,-51.25 151.97,-51.25"/>
<polygon fill="#63b8ff" stroke="#63b8ff" points="151.85,-54.75 161.85,-51.25 151.85,-47.75 151.85,-54.75"/>
</a>
</g>
</g>
<!-- Node3 -->
<g id="Node000003" class="node">
<title>Node3</title>
<g id="a_Node000003"><a xlink:href="namespaceModels.html#aff3e4340a32804ffc9a3fba674928842" target="_top" xlink:title=" ">
<polygon fill="white" stroke="#666666" points="438.38,-102.5 368.38,-102.5 368.38,-84 438.38,-84 438.38,-102.5"/>
<text text-anchor="middle" x="403.38" y="-89" font-family="Helvetica,sans-Serif" font-size="10.00">Models::freq</text>
</a>
</g>
</g>
<!-- Node2&#45;&gt;Node3 -->
<g id="edge2_Node000002_Node000003" class="edge">
<title>Node2&#45;&gt;Node3</title>
<g id="a_edge2_Node000002_Node000003"><a xlink:title=" ">
<path fill="none" stroke="#63b8ff" d="M274.68,-60.99C299.25,-67.2 331.19,-75.27 356.98,-81.78"/>
<polygon fill="#63b8ff" stroke="#63b8ff" points="355.96,-85.13 366.51,-84.19 357.67,-78.35 355.96,-85.13"/>
</a>
</g>
</g>
<!-- Node4 -->
<g id="Node000004" class="node">
<title>Node4</title>
<g id="a_Node000004"><a xlink:href="structModels_1_1Uptake.html#a3627cf1414527a8edd7082dd51d24fba" target="_top" xlink:title=" ">
<polygon fill="white" stroke="#666666" points="454.88,-65.75 351.88,-65.75 351.88,-36.75 454.88,-36.75 454.88,-65.75"/>
<text text-anchor="start" x="359.88" y="-52.25" font-family="Helvetica,sans-Serif" font-size="10.00">Models::Uptake::phi</text>
<text text-anchor="middle" x="403.38" y="-41.75" font-family="Helvetica,sans-Serif" font-size="10.00">_permease</text>
</a>
</g>
</g>
<!-- Node2&#45;&gt;Node4 -->
<g id="edge3_Node000002_Node000004" class="edge">
<title>Node2&#45;&gt;Node4</title>
<g id="a_edge3_Node000002_Node000004"><a xlink:title=" ">
<path fill="none" stroke="#63b8ff" d="M306.63,-51.25C317.8,-51.25 329.27,-51.25 340.23,-51.25"/>
<polygon fill="#63b8ff" stroke="#63b8ff" points="339.91,-54.75 349.91,-51.25 339.91,-47.75 339.91,-54.75"/>
</a>
</g>
</g>
<!-- Node5 -->
<g id="Node000005" class="node">
<title>Node5</title>
<g id="a_Node000005"><a xlink:href="structModels_1_1Uptake.html#ad5bef0e6800ba6e9b3ba55a675f270a8" target="_top" xlink:title=" ">
<polygon fill="white" stroke="#666666" points="464.25,-18.5 342.5,-18.5 342.5,0 464.25,0 464.25,-18.5"/>
<text text-anchor="middle" x="403.38" y="-5" font-family="Helvetica,sans-Serif" font-size="10.00">Models::Uptake::phi_pts</text>
</a>
</g>
</g>
<!-- Node2&#45;&gt;Node5 -->
<g id="edge4_Node000002_Node000005" class="edge">
<title>Node2&#45;&gt;Node5</title>
<g id="a_edge4_Node000002_Node000005"><a xlink:title=" ">
<path fill="none" stroke="#63b8ff" d="M274.68,-41.51C297.97,-35.62 327.89,-28.07 352.91,-21.75"/>
<polygon fill="#63b8ff" stroke="#63b8ff" points="353.72,-25.15 362.56,-19.31 352.01,-18.37 353.72,-25.15"/>
</a>
</g>
</g>
</g>
</svg>
</svg>

<style type='text/css'>
<![CDATA[
[data-mouse-over-selected='false'] { opacity: 0.7; }
[data-mouse-over-selected='true']  { opacity: 1.0; }
]]>
</style>
<script type="application/ecmascript"><![CDATA[
document.addEventListener('DOMContentLoaded', (event) => {
  highlightEdges();
  highlightAdjacentNodes();
});
]]></script>
</svg>
