<?xml version="1.0" encoding="UTF-8" standalone="no"?>
<!DOCTYPE svg PUBLIC "-//W3C//DTD SVG 1.1//EN"
 "http://www.w3.org/Graphics/SVG/1.1/DTD/svg11.dtd">
<!-- Generated by graphviz version 12.1.2 (0)
 -->
<!-- Title: Api::SimulationInstance::set_feed_constant_from_rvalue Pages: 1 -->
<svg width="478pt" height="121pt"
 viewBox="0.00 0.00 477.50 120.75" xmlns="http://www.w3.org/2000/svg" xmlns:xlink="http://www.w3.org/1999/xlink">
<g id="graph0" class="graph" transform="scale(1 1) rotate(0) translate(4 116.75)">
<title>Api::SimulationInstance::set_feed_constant_from_rvalue</title>
<!-- Node1 -->
<g id="Node000001" class="node">
<title>Node1</title>
<g id="a_Node000001"><a xlink:title=" ">
<polygon fill="#999999" stroke="#666666" points="127,-71 0,-71 0,-31.5 127,-31.5 127,-71"/>
<text text-anchor="start" x="8" y="-57.5" font-family="Helvetica,sans-Serif" font-size="10.00">Api::SimulationInstance</text>
<text text-anchor="start" x="8" y="-47" font-family="Helvetica,sans-Serif" font-size="10.00">::set_feed_constant_from</text>
<text text-anchor="middle" x="63.5" y="-36.5" font-family="Helvetica,sans-Serif" font-size="10.00">_rvalue</text>
</a>
</g>
</g>
<!-- Node2 -->
<g id="Node000002" class="node">
<title>Node2</title>
<g id="a_Node000002"><a xlink:href="structApi_1_1SimulationInstance.html#aa760a361f0899468e5e7d24b55734eb0" target="_top" xlink:title="Configure feed constants for the simulation.">
<polygon fill="white" stroke="#666666" points="282.5,-65.75 163,-65.75 163,-36.75 282.5,-36.75 282.5,-65.75"/>
<text text-anchor="start" x="171" y="-52.25" font-family="Helvetica,sans-Serif" font-size="10.00">Api::SimulationInstance</text>
<text text-anchor="middle" x="222.75" y="-41.75" font-family="Helvetica,sans-Serif" font-size="10.00">::set_feed_constant</text>
</a>
</g>
</g>
<!-- Node1&#45;&gt;Node2 -->
<g id="edge1_Node000001_Node000002" class="edge">
<title>Node1&#45;&gt;Node2</title>
<g id="a_edge1_Node000001_Node000002"><a xlink:title=" ">
<path fill="none" stroke="#63b8ff" d="M127.1,-51.25C135.08,-51.25 143.28,-51.25 151.37,-51.25"/>
<polygon fill="#63b8ff" stroke="#63b8ff" points="151.17,-54.75 161.17,-51.25 151.17,-47.75 151.17,-54.75"/>
</a>
</g>
</g>
<!-- Node3 -->
<g id="Node000003" class="node">
<title>Node3</title>
<g id="a_Node000003"><a xlink:href="structSimulation_1_1Feed_1_1FeedFactory.html#aefd8f1cfb9e7b3d43320502434ea379f" target="_top" xlink:title=" ">
<polygon fill="white" stroke="#666666" points="469.5,-112.75 318.5,-112.75 318.5,-83.75 469.5,-83.75 469.5,-112.75"/>
<text text-anchor="start" x="326.5" y="-99.25" font-family="Helvetica,sans-Serif" font-size="10.00">Simulation::Feed::FeedFactory</text>
<text text-anchor="middle" x="394" y="-88.75" font-family="Helvetica,sans-Serif" font-size="10.00">::constant</text>
</a>
</g>
</g>
<!-- Node2&#45;&gt;Node3 -->
<g id="edge2_Node000002_Node000003" class="edge">
<title>Node2&#45;&gt;Node3</title>
<g id="a_edge2_Node000002_Node000003"><a xlink:title=" ">
<path fill="none" stroke="#63b8ff" d="M277.3,-66.12C293.51,-70.62 311.48,-75.61 328.33,-80.29"/>
<polygon fill="#63b8ff" stroke="#63b8ff" points="327.19,-83.61 337.76,-82.91 329.06,-76.86 327.19,-83.61"/>
</a>
</g>
</g>
<!-- Node4 -->
<g id="Node000004" class="node">
<title>Node4</title>
<g id="a_Node000004"><a xlink:href="structApi_1_1SimulationInstance.html#a87d0cfa936aeddd3b7a65f1e02d8dc59" target="_top" xlink:title=" ">
<polygon fill="white" stroke="#666666" points="453.75,-65.75 334.25,-65.75 334.25,-36.75 453.75,-36.75 453.75,-65.75"/>
<text text-anchor="start" x="342.25" y="-52.25" font-family="Helvetica,sans-Serif" font-size="10.00">Api::SimulationInstance</text>
<text text-anchor="middle" x="394" y="-41.75" font-family="Helvetica,sans-Serif" font-size="10.00">::set_feed</text>
</a>
</g>
</g>
<!-- Node2&#45;&gt;Node4 -->
<g id="edge3_Node000002_Node000004" class="edge">
<title>Node2&#45;&gt;Node4</title>
<g id="a_edge3_Node000002_Node000004"><a xlink:title=" ">
<path fill="none" stroke="#63b8ff" d="M282.95,-51.25C295.7,-51.25 309.31,-51.25 322.44,-51.25"/>
<polygon fill="#63b8ff" stroke="#63b8ff" points="322.32,-54.75 332.32,-51.25 322.32,-47.75 322.32,-54.75"/>
</a>
</g>
</g>
<!-- Node5 -->
<g id="Node000005" class="node">
<title>Node5</title>
<g id="a_Node000005"><a xlink:href="namespaceApi.html#a56e4bc052032f53c3fec5a8a3b07b23e" target="_top" xlink:title=" ">
<polygon fill="white" stroke="#666666" points="439.5,-18.5 348.5,-18.5 348.5,0 439.5,0 439.5,-18.5"/>
<text text-anchor="middle" x="394" y="-5" font-family="Helvetica,sans-Serif" font-size="10.00">Api::span_to_vec</text>
</a>
</g>
</g>
<!-- Node2&#45;&gt;Node5 -->
<g id="edge4_Node000002_Node000005" class="edge">
<title>Node2&#45;&gt;Node5</title>
<g id="a_edge4_Node000002_Node000005"><a xlink:title=" ">
<path fill="none" stroke="#63b8ff" d="M282.95,-36.56C302.46,-31.72 323.96,-26.38 342.74,-21.72"/>
<polygon fill="#63b8ff" stroke="#63b8ff" points="343.41,-25.16 352.27,-19.36 341.72,-18.37 343.41,-25.16"/>
</a>
</g>
</g>
</g>
</svg>
