<?xml version="1.0" encoding="UTF-8" standalone="no"?>
<!DOCTYPE svg PUBLIC "-//W3C//DTD SVG 1.1//EN"
 "http://www.w3.org/Graphics/SVG/1.1/DTD/svg11.dtd">
<!-- Generated by graphviz version 12.1.2 (0)
 -->
<!-- Title: Api::SimulationInstance::set_feed_constant_from_rvalue Pages: 1 -->
<svg width="478pt" height="74pt"
 viewBox="0.00 0.00 477.50 73.75" xmlns="http://www.w3.org/2000/svg" xmlns:xlink="http://www.w3.org/1999/xlink">
<g id="graph0" class="graph" transform="scale(1 1) rotate(0) translate(4 69.75)">
<title>Api::SimulationInstance::set_feed_constant_from_rvalue</title>
<!-- Node1 -->
<g id="Node000001" class="node">
<title>Node1</title>
<g id="a_Node000001"><a xlink:title=" ">
<polygon fill="#999999" stroke="#666666" points="127,-50 0,-50 0,-10.5 127,-10.5 127,-50"/>
<text text-anchor="start" x="8" y="-36.5" font-family="Helvetica,sans-Serif" font-size="10.00">Api::SimulationInstance</text>
<text text-anchor="start" x="8" y="-26" font-family="Helvetica,sans-Serif" font-size="10.00">::set_feed_constant_from</text>
<text text-anchor="middle" x="63.5" y="-15.5" font-family="Helvetica,sans-Serif" font-size="10.00">_rvalue</text>
</a>
</g>
</g>
<!-- Node2 -->
<g id="Node000002" class="node">
<title>Node2</title>
<g id="a_Node000002"><a xlink:href="structApi_1_1SimulationInstance.html#aa760a361f0899468e5e7d24b55734eb0" target="_top" xlink:title="Configure feed constants for the simulation.">
<polygon fill="white" stroke="#666666" points="282.5,-44.75 163,-44.75 163,-15.75 282.5,-15.75 282.5,-44.75"/>
<text text-anchor="start" x="171" y="-31.25" font-family="Helvetica,sans-Serif" font-size="10.00">Api::SimulationInstance</text>
<text text-anchor="middle" x="222.75" y="-20.75" font-family="Helvetica,sans-Serif" font-size="10.00">::set_feed_constant</text>
</a>
</g>
</g>
<!-- Node1&#45;&gt;Node2 -->
<g id="edge1_Node000001_Node000002" class="edge">
<title>Node1&#45;&gt;Node2</title>
<g id="a_edge1_Node000001_Node000002"><a xlink:title=" ">
<path fill="none" stroke="#63b8ff" d="M127.1,-30.25C135.08,-30.25 143.28,-30.25 151.37,-30.25"/>
<polygon fill="#63b8ff" stroke="#63b8ff" points="151.17,-33.75 161.17,-30.25 151.17,-26.75 151.17,-33.75"/>
</a>
</g>
</g>
<!-- Node3 -->
<g id="Node000003" class="node">
<title>Node3</title>
<g id="a_Node000003"><a xlink:href="structSimulation_1_1Feed_1_1FeedFactory.html#aefd8f1cfb9e7b3d43320502434ea379f" target="_top" xlink:title=" ">
<polygon fill="white" stroke="#666666" points="469.5,-65.75 318.5,-65.75 318.5,-36.75 469.5,-36.75 469.5,-65.75"/>
<text text-anchor="start" x="326.5" y="-52.25" font-family="Helvetica,sans-Serif" font-size="10.00">Simulation::Feed::FeedFactory</text>
<text text-anchor="middle" x="394" y="-41.75" font-family="Helvetica,sans-Serif" font-size="10.00">::constant</text>
</a>
</g>
</g>
<!-- Node2&#45;&gt;Node3 -->
<g id="edge2_Node000002_Node000003" class="edge">
<title>Node2&#45;&gt;Node3</title>
<g id="a_edge2_Node000002_Node000003"><a xlink:title=" ">
<path fill="none" stroke="#63b8ff" d="M282.95,-37.59C290.66,-38.55 298.68,-39.55 306.72,-40.54"/>
<polygon fill="#63b8ff" stroke="#63b8ff" points="306.21,-44.01 316.57,-41.77 307.07,-37.06 306.21,-44.01"/>
</a>
</g>
</g>
<!-- Node4 -->
<g id="Node000004" class="node">
<title>Node4</title>
<g id="a_Node000004"><a xlink:href="namespaceApi.html#a56e4bc052032f53c3fec5a8a3b07b23e" target="_top" xlink:title=" ">
<polygon fill="white" stroke="#666666" points="439.5,-18.5 348.5,-18.5 348.5,0 439.5,0 439.5,-18.5"/>
<text text-anchor="middle" x="394" y="-5" font-family="Helvetica,sans-Serif" font-size="10.00">Api::span_to_vec</text>
</a>
</g>
</g>
<!-- Node2&#45;&gt;Node4 -->
<g id="edge3_Node000002_Node000004" class="edge">
<title>Node2&#45;&gt;Node4</title>
<g id="a_edge3_Node000002_Node000004"><a xlink:title=" ">
<path fill="none" stroke="#63b8ff" d="M282.95,-22.91C300.54,-20.72 319.75,-18.34 337.13,-16.18"/>
<polygon fill="#63b8ff" stroke="#63b8ff" points="337.25,-19.69 346.74,-14.99 336.39,-12.75 337.25,-19.69"/>
</a>
</g>
</g>
</g>
</svg>
