<?xml version="1.0" encoding="UTF-8" standalone="no"?>
<!DOCTYPE svg PUBLIC "-//W3C//DTD SVG 1.1//EN"
 "http://www.w3.org/Graphics/SVG/1.1/DTD/svg11.dtd">
<!-- Generated by graphviz version 12.1.2 (0)
 -->
<!-- Title: Simulation::KernelInline::CycleFunctor::operator() Pages: 1 -->
<svg width="556pt" height="178pt"
 viewBox="0.00 0.00 555.75 178.00" xmlns="http://www.w3.org/2000/svg" xmlns:xlink="http://www.w3.org/1999/xlink">
<g id="graph0" class="graph" transform="scale(1 1) rotate(0) translate(4 174)">
<title>Simulation::KernelInline::CycleFunctor::operator()</title>
<!-- Node1 -->
<g id="Node000001" class="node">
<title>Node1</title>
<g id="a_Node000001"><a xlink:title=" ">
<polygon fill="#999999" stroke="#666666" points="127,-99 0,-99 0,-70 127,-70 127,-99"/>
<text text-anchor="start" x="8" y="-85.5" font-family="Helvetica,sans-Serif" font-size="10.00">Simulation::KernelInline</text>
<text text-anchor="middle" x="63.5" y="-75" font-family="Helvetica,sans-Serif" font-size="10.00">::CycleFunctor::operator()</text>
</a>
</g>
</g>
<!-- Node2 -->
<g id="Node000002" class="node">
<title>Node2</title>
<g id="a_Node000002"><a xlink:href="classMC_1_1ParticlesContainer.html#a2be313fa2255ac3123633aa23a5f9bae" target="_top" xlink:title=" ">
<polygon fill="white" stroke="#666666" points="281.75,-170 163,-170 163,-141 281.75,-141 281.75,-170"/>
<text text-anchor="start" x="171" y="-156.5" font-family="Helvetica,sans-Serif" font-size="10.00">MC::ParticlesContainer</text>
<text text-anchor="middle" x="222.38" y="-146" font-family="Helvetica,sans-Serif" font-size="10.00">::get_contributions</text>
</a>
</g>
</g>
<!-- Node1&#45;&gt;Node2 -->
<g id="edge1_Node000001_Node000002" class="edge">
<title>Node1&#45;&gt;Node2</title>
<g id="a_edge1_Node000001_Node000002"><a xlink:title=" ">
<path fill="none" stroke="#63b8ff" d="M93.53,-99.39C113,-109.19 139.32,-122.08 163,-132.5 165.9,-133.77 168.89,-135.06 171.92,-136.33"/>
<polygon fill="#63b8ff" stroke="#63b8ff" points="170.28,-139.44 180.86,-140 172.94,-132.96 170.28,-139.44"/>
</a>
</g>
</g>
<!-- Node3 -->
<g id="Node000003" class="node">
<title>Node3</title>
<g id="a_Node000003"><a xlink:href="classMC_1_1ParticlesContainer.html#a5d2f244aefe3e55bcebe1d3d8bf94ca2" target="_top" xlink:title=" ">
<polygon fill="white" stroke="#666666" points="281.75,-123 163,-123 163,-94 281.75,-94 281.75,-123"/>
<text text-anchor="start" x="171" y="-109.5" font-family="Helvetica,sans-Serif" font-size="10.00">MC::ParticlesContainer</text>
<text text-anchor="middle" x="222.38" y="-99" font-family="Helvetica,sans-Serif" font-size="10.00">::handle_division</text>
</a>
</g>
</g>
<!-- Node1&#45;&gt;Node3 -->
<g id="edge2_Node000001_Node000003" class="edge">
<title>Node1&#45;&gt;Node3</title>
<g id="a_edge2_Node000001_Node000003"><a xlink:title=" ">
<path fill="none" stroke="#63b8ff" d="M127.4,-94.12C135.28,-95.33 143.38,-96.57 151.36,-97.79"/>
<polygon fill="#63b8ff" stroke="#63b8ff" points="150.62,-101.22 161.03,-99.27 151.68,-94.3 150.62,-101.22"/>
</a>
</g>
</g>
<!-- Node4 -->
<g id="Node000004" class="node">
<title>Node4</title>
<g id="a_Node000004"><a xlink:href="classMC_1_1ParticlesContainer.html#a30b264e87ae019596f9791f2fc60d52f" target="_top" xlink:title="Gets the number of particles in the container.">
<polygon fill="white" stroke="#666666" points="281.75,-76 163,-76 163,-47 281.75,-47 281.75,-76"/>
<text text-anchor="start" x="171" y="-62.5" font-family="Helvetica,sans-Serif" font-size="10.00">MC::ParticlesContainer</text>
<text text-anchor="middle" x="222.38" y="-52" font-family="Helvetica,sans-Serif" font-size="10.00">::n_particles</text>
</a>
</g>
</g>
<!-- Node1&#45;&gt;Node4 -->
<g id="edge3_Node000001_Node000004" class="edge">
<title>Node1&#45;&gt;Node4</title>
<g id="a_edge3_Node000001_Node000004"><a xlink:title=" ">
<path fill="none" stroke="#63b8ff" d="M127.4,-75.28C135.28,-74.12 143.38,-72.94 151.36,-71.77"/>
<polygon fill="#63b8ff" stroke="#63b8ff" points="151.64,-75.26 161.03,-70.35 150.63,-68.34 151.64,-75.26"/>
</a>
</g>
</g>
<!-- Node5 -->
<g id="Node000005" class="node">
<title>Node5</title>
<g id="a_Node000005"><a xlink:href="structMC_1_1EventContainer.html#a117575ad89e1abca8ad66cb704c18bd5" target="_top" xlink:title=" ">
<polygon fill="white" stroke="#666666" points="274.62,-29 170.12,-29 170.12,0 274.62,0 274.62,-29"/>
<text text-anchor="start" x="178.12" y="-15.5" font-family="Helvetica,sans-Serif" font-size="10.00">MC::EventContainer</text>
<text text-anchor="middle" x="222.38" y="-5" font-family="Helvetica,sans-Serif" font-size="10.00">::wrap_incr</text>
</a>
</g>
</g>
<!-- Node1&#45;&gt;Node5 -->
<g id="edge4_Node000001_Node000005" class="edge">
<title>Node1&#45;&gt;Node5</title>
<g id="a_edge4_Node000001_Node000005"><a xlink:title=" ">
<path fill="none" stroke="#63b8ff" d="M95.38,-69.62C114.71,-60.43 140.19,-48.51 163,-38.5 166.52,-36.96 170.17,-35.39 173.85,-33.82"/>
<polygon fill="#63b8ff" stroke="#63b8ff" points="174.95,-37.16 182.81,-30.06 172.24,-30.7 174.95,-37.16"/>
</a>
</g>
</g>
<!-- Node6 -->
<g id="Node000006" class="node">
<title>Node6</title>
<g id="a_Node000006"><a xlink:href="structMC_1_1EventContainer.html#a70d7122fe5d2521f91e871816ea83e61" target="_top" xlink:title="Increment specific event counter.">
<polygon fill="white" stroke="#666666" points="422.25,-29 317.75,-29 317.75,0 422.25,0 422.25,-29"/>
<text text-anchor="start" x="325.75" y="-15.5" font-family="Helvetica,sans-Serif" font-size="10.00">MC::EventContainer</text>
<text text-anchor="middle" x="370" y="-5" font-family="Helvetica,sans-Serif" font-size="10.00">::incr</text>
</a>
</g>
</g>
<!-- Node5&#45;&gt;Node6 -->
<g id="edge5_Node000005_Node000006" class="edge">
<title>Node5&#45;&gt;Node6</title>
<g id="a_edge5_Node000005_Node000006"><a xlink:title=" ">
<path fill="none" stroke="#63b8ff" d="M274.72,-14.5C284.94,-14.5 295.78,-14.5 306.34,-14.5"/>
<polygon fill="#63b8ff" stroke="#63b8ff" points="306.12,-18 316.12,-14.5 306.12,-11 306.12,-18"/>
</a>
</g>
</g>
<!-- Node7 -->
<g id="Node000007" class="node">
<title>Node7</title>
<g id="a_Node000007"><a xlink:href="namespaceMC.html#ae91609aafa31939cedd6775cc5adafc4" target="_top" xlink:title="inline getter, converts event to its value in order to be use as array index">
<polygon fill="white" stroke="#666666" points="547.75,-23.75 458.25,-23.75 458.25,-5.25 547.75,-5.25 547.75,-23.75"/>
<text text-anchor="middle" x="503" y="-10.25" font-family="Helvetica,sans-Serif" font-size="10.00">MC::event_index</text>
</a>
</g>
</g>
<!-- Node6&#45;&gt;Node7 -->
<g id="edge6_Node000006_Node000007" class="edge">
<title>Node6&#45;&gt;Node7</title>
<g id="a_edge6_Node000006_Node000007"><a xlink:title=" ">
<path fill="none" stroke="#63b8ff" d="M422.4,-14.5C430.3,-14.5 438.48,-14.5 446.47,-14.5"/>
<polygon fill="#63b8ff" stroke="#63b8ff" points="446.45,-18 456.45,-14.5 446.45,-11 446.45,-18"/>
</a>
</g>
</g>
</g>
</svg>
