<?xml version="1.0" encoding="UTF-8" standalone="no"?>
<!DOCTYPE svg PUBLIC "-//W3C//DTD SVG 1.1//EN"
 "http://www.w3.org/Graphics/SVG/1.1/DTD/svg11.dtd">
<!-- Generated by graphviz version 14.0.1 (0)
 -->
<!-- Title: Api::SimulationInstance::SimulationInstance Pages: 1 -->
<svg width="558pt" height="101pt"
 viewBox="0.00 0.00 558.00 101.00" xmlns="http://www.w3.org/2000/svg" xmlns:xlink="http://www.w3.org/1999/xlink">
<g id="graph0" class="graph" transform="scale(1 1) rotate(0) translate(4 96.5)">
<title>Api::SimulationInstance::SimulationInstance</title>
<!-- Node1 -->
<g id="Node000001" class="node">
<title>Node1</title>
<g id="a_Node000001"><a xlink:title="simulation instance constructor">
<polygon fill="#999999" stroke="#666666" points="119.5,-78.75 0,-78.75 0,-49.75 119.5,-49.75 119.5,-78.75"/>
<text xml:space="preserve" text-anchor="start" x="8" y="-65.25" font-family="Helvetica,sans-Serif" font-size="10.00">Api::SimulationInstance</text>
<text xml:space="preserve" text-anchor="middle" x="59.75" y="-54.75" font-family="Helvetica,sans-Serif" font-size="10.00">::SimulationInstance</text>
</a>
</g>
</g>
<!-- Node2 -->
<g id="Node000002" class="node">
<title>Node2</title>
<g id="a_Node000002"><a xlink:href="namespaceApi.html#a43523f23b4fed2f495f0d6ca4e5aee32" target="_top" xlink:title=" ">
<polygon fill="white" stroke="#666666" points="235.62,-92.5 168.62,-92.5 168.62,-74 235.62,-74 235.62,-92.5"/>
<text xml:space="preserve" text-anchor="middle" x="202.12" y="-79" font-family="Helvetica,sans-Serif" font-size="10.00">Api::finalise</text>
</a>
</g>
</g>
<!-- Node1&#45;&gt;Node2 -->
<g id="edge1_Node000001_Node000002" class="edge">
<title>Node1&#45;&gt;Node2</title>
<g id="a_edge1_Node000001_Node000002"><a xlink:title=" ">
<path fill="none" stroke="#63b8ff" d="M119.87,-72.25C132.35,-73.94 145.3,-75.69 157.11,-77.29"/>
<polygon fill="#63b8ff" stroke="#63b8ff" points="156.58,-80.75 166.96,-78.63 157.52,-73.82 156.58,-80.75"/>
</a>
</g>
</g>
<!-- Node3 -->
<g id="Node000003" class="node">
<title>Node3</title>
<g id="a_Node000003"><a xlink:href="namespaceCore.html#ad98e98a441916916448cd3eb5c437bcf" target="_top" xlink:title="Initializes the runtime environment based on command&#45;line arguments and simulation parameters.">
<polygon fill="white" stroke="#666666" points="248.75,-55.5 155.5,-55.5 155.5,-37 248.75,-37 248.75,-55.5"/>
<text xml:space="preserve" text-anchor="middle" x="202.12" y="-42" font-family="Helvetica,sans-Serif" font-size="10.00">Core::runtime_init</text>
</a>
</g>
</g>
<!-- Node1&#45;&gt;Node3 -->
<g id="edge2_Node000001_Node000003" class="edge">
<title>Node1&#45;&gt;Node3</title>
<g id="a_edge2_Node000001_Node000003"><a xlink:title=" ">
<path fill="none" stroke="#63b8ff" d="M119.87,-56.67C127.83,-55.65 135.98,-54.6 143.9,-53.59"/>
<polygon fill="#63b8ff" stroke="#63b8ff" points="144.32,-57.06 153.79,-52.32 143.42,-50.12 144.32,-57.06"/>
</a>
</g>
</g>
<!-- Node4 -->
<g id="Node000004" class="node">
<title>Node4</title>
<g id="a_Node000004"><a xlink:href="namespaceWrapMPI.html#a1a08bbe69602ac2f4f38e1a0d45275cb" target="_top" xlink:title=" ">
<polygon fill="white" stroke="#666666" points="386.25,-92.5 297.5,-92.5 297.5,-74 386.25,-74 386.25,-92.5"/>
<text xml:space="preserve" text-anchor="middle" x="341.88" y="-79" font-family="Helvetica,sans-Serif" font-size="10.00">WrapMPI::barrier</text>
</a>
</g>
</g>
<!-- Node3&#45;&gt;Node4 -->
<g id="edge3_Node000003_Node000004" class="edge">
<title>Node3&#45;&gt;Node4</title>
<g id="a_edge3_Node000003_Node000004"><a xlink:title=" ">
<path fill="none" stroke="#63b8ff" d="M239.32,-55.97C256.01,-60.45 276.03,-65.83 293.86,-70.62"/>
<polygon fill="#63b8ff" stroke="#63b8ff" points="292.9,-73.99 303.46,-73.2 294.71,-67.23 292.9,-73.99"/>
</a>
</g>
</g>
<!-- Node6 -->
<g id="Node000006" class="node">
<title>Node6</title>
<g id="a_Node000006"><a xlink:href="namespaceWrapMPI.html#aadc3308a0cd9aa92fb555a4eb2f26c97" target="_top" xlink:title=" ">
<polygon fill="white" stroke="#666666" points="387.75,-55.5 296,-55.5 296,-37 387.75,-37 387.75,-55.5"/>
<text xml:space="preserve" text-anchor="middle" x="341.88" y="-42" font-family="Helvetica,sans-Serif" font-size="10.00">WrapMPI::finalize</text>
</a>
</g>
</g>
<!-- Node3&#45;&gt;Node6 -->
<g id="edge5_Node000003_Node000006" class="edge">
<title>Node3&#45;&gt;Node6</title>
<g id="a_edge5_Node000003_Node000006"><a xlink:title=" ">
<path fill="none" stroke="#63b8ff" d="M248.99,-46.25C260.26,-46.25 272.46,-46.25 284.18,-46.25"/>
<polygon fill="#63b8ff" stroke="#63b8ff" points="284.16,-49.75 294.16,-46.25 284.16,-42.75 284.16,-49.75"/>
</a>
</g>
</g>
<!-- Node7 -->
<g id="Node000007" class="node">
<title>Node7</title>
<g id="a_Node000007"><a xlink:href="namespaceWrapMPI.html#a35940eb9d8521af86ea7383b1eaa6925" target="_top" xlink:title=" ">
<polygon fill="white" stroke="#666666" points="399,-18.5 284.75,-18.5 284.75,0 399,0 399,-18.5"/>
<text xml:space="preserve" text-anchor="middle" x="341.88" y="-5" font-family="Helvetica,sans-Serif" font-size="10.00">WrapMPI::is_initialized</text>
</a>
</g>
</g>
<!-- Node3&#45;&gt;Node7 -->
<g id="edge6_Node000003_Node000007" class="edge">
<title>Node3&#45;&gt;Node7</title>
<g id="a_edge6_Node000003_Node000007"><a xlink:title=" ">
<path fill="none" stroke="#63b8ff" d="M239.32,-36.53C256.01,-32.05 276.03,-26.67 293.86,-21.88"/>
<polygon fill="#63b8ff" stroke="#63b8ff" points="294.71,-25.27 303.46,-19.3 292.9,-18.51 294.71,-25.27"/>
</a>
</g>
</g>
<!-- Node5 -->
<g id="Node000005" class="node">
<title>Node5</title>
<g id="a_Node000005"><a xlink:href="namespaceWrapMPI.html#aa924ad0d911109a9e6e3a20bebc3b316" target="_top" xlink:title=" ">
<polygon fill="white" stroke="#666666" points="550,-92.5 435,-92.5 435,-74 550,-74 550,-92.5"/>
<text xml:space="preserve" text-anchor="middle" x="492.5" y="-79" font-family="Helvetica,sans-Serif" font-size="10.00">WrapMPI::critical_error</text>
</a>
</g>
</g>
<!-- Node4&#45;&gt;Node5 -->
<g id="edge4_Node000004_Node000005" class="edge">
<title>Node4&#45;&gt;Node5</title>
<g id="a_edge4_Node000004_Node000005"><a xlink:title=" ">
<path fill="none" stroke="#63b8ff" d="M386.66,-83.25C398.14,-83.25 410.78,-83.25 423.21,-83.25"/>
<polygon fill="#63b8ff" stroke="#63b8ff" points="423,-86.75 433,-83.25 423,-79.75 423,-86.75"/>
</a>
</g>
</g>
</g>
</svg>
